G04 #@! TF.GenerationSoftware,KiCad,Pcbnew,9.0.1*
G04 #@! TF.CreationDate,2025-08-05T12:48:42+05:00*
G04 #@! TF.ProjectId,firstPCB,66697273-7450-4434-922e-6b696361645f,rev?*
G04 #@! TF.SameCoordinates,Original*
G04 #@! TF.FileFunction,Copper,L1,Top*
G04 #@! TF.FilePolarity,Positive*
%FSLAX46Y46*%
G04 Gerber Fmt 4.6, Leading zero omitted, Abs format (unit mm)*
G04 Created by KiCad (PCBNEW 9.0.1) date 2025-08-05 12:48:42*
%MOMM*%
%LPD*%
G01*
G04 APERTURE LIST*
G04 #@! TA.AperFunction,ComponentPad*
%ADD10C,2.000000*%
G04 #@! TD*
G04 #@! TA.AperFunction,ComponentPad*
%ADD11R,1.800000X1.800000*%
G04 #@! TD*
G04 #@! TA.AperFunction,ComponentPad*
%ADD12C,1.800000*%
G04 #@! TD*
G04 #@! TA.AperFunction,ComponentPad*
%ADD13C,1.600000*%
G04 #@! TD*
G04 #@! TA.AperFunction,ComponentPad*
%ADD14O,1.600000X1.600000*%
G04 #@! TD*
G04 #@! TA.AperFunction,ComponentPad*
%ADD15R,1.524000X1.524000*%
G04 #@! TD*
G04 #@! TA.AperFunction,ComponentPad*
%ADD16C,1.524000*%
G04 #@! TD*
G04 #@! TA.AperFunction,ComponentPad*
%ADD17R,1.500000X1.500000*%
G04 #@! TD*
G04 #@! TA.AperFunction,ComponentPad*
%ADD18C,1.500000*%
G04 #@! TD*
G04 #@! TA.AperFunction,ComponentPad*
%ADD19R,1.600000X1.600000*%
G04 #@! TD*
G04 #@! TA.AperFunction,ViaPad*
%ADD20C,0.600000*%
G04 #@! TD*
G04 #@! TA.AperFunction,Conductor*
%ADD21C,0.200000*%
G04 #@! TD*
G04 #@! TA.AperFunction,Conductor*
%ADD22C,0.400000*%
G04 #@! TD*
G04 APERTURE END LIST*
D10*
X97640000Y-87630000D03*
X104140000Y-87630000D03*
X97640000Y-92130000D03*
X104140000Y-92130000D03*
D11*
X100330000Y-68580000D03*
D12*
X97790000Y-68580000D03*
D13*
X91440000Y-85090000D03*
D14*
X91440000Y-92710000D03*
D13*
X91440000Y-95250000D03*
D14*
X91440000Y-102870000D03*
D15*
X35560000Y-97790000D03*
D16*
X38100000Y-97790000D03*
X40640000Y-97790000D03*
X43180000Y-97790000D03*
X45720000Y-97790000D03*
D13*
X86360000Y-92710000D03*
X86360000Y-87710000D03*
D10*
X97640000Y-77470000D03*
X104140000Y-77470000D03*
X97640000Y-81970000D03*
X104140000Y-81970000D03*
D13*
X91440000Y-74930000D03*
D14*
X91440000Y-82550000D03*
D13*
X86360000Y-102870000D03*
X86360000Y-97870000D03*
D17*
X43180000Y-63500000D03*
D18*
X45720000Y-63500000D03*
X48260000Y-63500000D03*
X50800000Y-63500000D03*
D13*
X86360000Y-82550000D03*
X86360000Y-77550000D03*
D19*
X80010000Y-104140000D03*
D14*
X80010000Y-101600000D03*
X80010000Y-99060000D03*
X80010000Y-96520000D03*
X80010000Y-93980000D03*
X80010000Y-91440000D03*
X80010000Y-88900000D03*
X80010000Y-86360000D03*
X80010000Y-83820000D03*
X80010000Y-81280000D03*
X80010000Y-78740000D03*
X80010000Y-76200000D03*
X80010000Y-73660000D03*
X80010000Y-71120000D03*
X80010000Y-68580000D03*
X64770000Y-68580000D03*
X64770000Y-71120000D03*
X64770000Y-73660000D03*
X64770000Y-76200000D03*
X64770000Y-78740000D03*
X64770000Y-81280000D03*
X64770000Y-83820000D03*
X64770000Y-86360000D03*
X64770000Y-88900000D03*
X64770000Y-91440000D03*
X64770000Y-93980000D03*
X64770000Y-96520000D03*
X64770000Y-99060000D03*
X64770000Y-101600000D03*
X64770000Y-104140000D03*
D10*
X97640000Y-97100000D03*
X104140000Y-97100000D03*
X97640000Y-101600000D03*
X104140000Y-101600000D03*
D13*
X85090000Y-68580000D03*
D14*
X92710000Y-68580000D03*
D20*
X48100000Y-88900000D03*
X50900000Y-86300000D03*
X83400000Y-90400000D03*
X84200000Y-93800000D03*
D21*
X48100000Y-88900000D02*
X40640000Y-96360000D01*
X64770000Y-88900000D02*
X48100000Y-88900000D01*
X40640000Y-96360000D02*
X40640000Y-97790000D01*
X50960000Y-86360000D02*
X50900000Y-86300000D01*
X38310000Y-97790000D02*
X38100000Y-97790000D01*
X64770000Y-86360000D02*
X50960000Y-86360000D01*
X50900000Y-86300000D02*
X49800000Y-86300000D01*
X49800000Y-86300000D02*
X38310000Y-97790000D01*
X97640000Y-101600000D02*
X104140000Y-101600000D01*
X80010000Y-88900000D02*
X81900000Y-88900000D01*
X96370000Y-102870000D02*
X97640000Y-101600000D01*
X81900000Y-88900000D02*
X83400000Y-90400000D01*
X91440000Y-102870000D02*
X96370000Y-102870000D01*
X86360000Y-102870000D02*
X91440000Y-102870000D01*
X97060000Y-92710000D02*
X97640000Y-92130000D01*
X97470000Y-92130000D02*
X96890000Y-92710000D01*
X103560000Y-92710000D02*
X104140000Y-92130000D01*
X96890000Y-92710000D02*
X91440000Y-92710000D01*
X97640000Y-92130000D02*
X97470000Y-92130000D01*
X86360000Y-92710000D02*
X91440000Y-92710000D01*
X85090000Y-91440000D02*
X86360000Y-92710000D01*
X80010000Y-91440000D02*
X85090000Y-91440000D01*
X97640000Y-92130000D02*
X104140000Y-92130000D01*
X97060000Y-82550000D02*
X97640000Y-81970000D01*
X97640000Y-81970000D02*
X104140000Y-81970000D01*
X80010000Y-93980000D02*
X84020000Y-93980000D01*
X91440000Y-82550000D02*
X97060000Y-82550000D01*
X84020000Y-93980000D02*
X84200000Y-93800000D01*
X103560000Y-82550000D02*
X104140000Y-81970000D01*
X86360000Y-82550000D02*
X91440000Y-82550000D01*
D22*
X46990000Y-96520000D02*
X45720000Y-97790000D01*
X64770000Y-96520000D02*
X46990000Y-96520000D01*
D21*
X66040000Y-95250000D02*
X91440000Y-95250000D01*
X64770000Y-96520000D02*
X66040000Y-95250000D01*
X80010000Y-68580000D02*
X85090000Y-68580000D01*
X92710000Y-68580000D02*
X97790000Y-68580000D01*
G04 #@! TA.AperFunction,Conductor*
G36*
X63607437Y-89520185D02*
G01*
X63650883Y-89568205D01*
X63657715Y-89581614D01*
X63778028Y-89747213D01*
X63922786Y-89891971D01*
X64077749Y-90004556D01*
X64088390Y-90012287D01*
X64179840Y-90058883D01*
X64181080Y-90059515D01*
X64231876Y-90107490D01*
X64248671Y-90175311D01*
X64226134Y-90241446D01*
X64181080Y-90280485D01*
X64088386Y-90327715D01*
X63922786Y-90448028D01*
X63778028Y-90592786D01*
X63657715Y-90758386D01*
X63564781Y-90940776D01*
X63501522Y-91135465D01*
X63469500Y-91337648D01*
X63469500Y-91542351D01*
X63501522Y-91744534D01*
X63564781Y-91939223D01*
X63601817Y-92011908D01*
X63649231Y-92104964D01*
X63657715Y-92121613D01*
X63778028Y-92287213D01*
X63922786Y-92431971D01*
X64077749Y-92544556D01*
X64088390Y-92552287D01*
X64179840Y-92598883D01*
X64181080Y-92599515D01*
X64231876Y-92647490D01*
X64248671Y-92715311D01*
X64226134Y-92781446D01*
X64181080Y-92820485D01*
X64088386Y-92867715D01*
X63922786Y-92988028D01*
X63778028Y-93132786D01*
X63657715Y-93298386D01*
X63564781Y-93480776D01*
X63501522Y-93675465D01*
X63469500Y-93877648D01*
X63469500Y-94082351D01*
X63501522Y-94284534D01*
X63564781Y-94479223D01*
X63657715Y-94661613D01*
X63778028Y-94827213D01*
X63922786Y-94971971D01*
X64077749Y-95084556D01*
X64088390Y-95092287D01*
X64179840Y-95138883D01*
X64181080Y-95139515D01*
X64231876Y-95187490D01*
X64248671Y-95255311D01*
X64226134Y-95321446D01*
X64181080Y-95360485D01*
X64088386Y-95407715D01*
X63922786Y-95528028D01*
X63778030Y-95672784D01*
X63708575Y-95768384D01*
X63653245Y-95811051D01*
X63608256Y-95819500D01*
X46921003Y-95819500D01*
X46812590Y-95841065D01*
X46812589Y-95841065D01*
X46785671Y-95846420D01*
X46658190Y-95899224D01*
X46543454Y-95975887D01*
X46012934Y-96506407D01*
X45951611Y-96539892D01*
X45905854Y-96541199D01*
X45819365Y-96527500D01*
X45819361Y-96527500D01*
X45620639Y-96527500D01*
X45555214Y-96537862D01*
X45424362Y-96558587D01*
X45235370Y-96619993D01*
X45235367Y-96619994D01*
X45058305Y-96710213D01*
X44897533Y-96827021D01*
X44757021Y-96967533D01*
X44640213Y-97128305D01*
X44560204Y-97285331D01*
X44512229Y-97336127D01*
X44444408Y-97352922D01*
X44378273Y-97330384D01*
X44339234Y-97285331D01*
X44259358Y-97128567D01*
X44232268Y-97091283D01*
X43561000Y-97762551D01*
X43561000Y-97739840D01*
X43535036Y-97642939D01*
X43484876Y-97556060D01*
X43413940Y-97485124D01*
X43327061Y-97434964D01*
X43230160Y-97409000D01*
X43207447Y-97409000D01*
X43878716Y-96737731D01*
X43878715Y-96737730D01*
X43841432Y-96710641D01*
X43664437Y-96620457D01*
X43475522Y-96559075D01*
X43279321Y-96528000D01*
X43080679Y-96528000D01*
X42884479Y-96559075D01*
X42884476Y-96559075D01*
X42695562Y-96620457D01*
X42518564Y-96710643D01*
X42481283Y-96737729D01*
X42481282Y-96737730D01*
X43152554Y-97409000D01*
X43129840Y-97409000D01*
X43032939Y-97434964D01*
X42946060Y-97485124D01*
X42875124Y-97556060D01*
X42824964Y-97642939D01*
X42799000Y-97739840D01*
X42799000Y-97762552D01*
X42127730Y-97091282D01*
X42127729Y-97091283D01*
X42100641Y-97128566D01*
X42020764Y-97285332D01*
X41972790Y-97336127D01*
X41904969Y-97352922D01*
X41838834Y-97330384D01*
X41799796Y-97285332D01*
X41719787Y-97128306D01*
X41602981Y-96967536D01*
X41462464Y-96827019D01*
X41367661Y-96758141D01*
X41324932Y-96727096D01*
X41282267Y-96671766D01*
X41276288Y-96602152D01*
X41308894Y-96540357D01*
X41310063Y-96539171D01*
X48114662Y-89734572D01*
X48175983Y-89701089D01*
X48178150Y-89700638D01*
X48236085Y-89689113D01*
X48333497Y-89669737D01*
X48479179Y-89609394D01*
X48479185Y-89609390D01*
X48610875Y-89521398D01*
X48677553Y-89500520D01*
X48679766Y-89500500D01*
X63540398Y-89500500D01*
X63607437Y-89520185D01*
G37*
G04 #@! TD.AperFunction*
G04 #@! TA.AperFunction,Conductor*
G36*
X107442539Y-60520185D02*
G01*
X107488294Y-60572989D01*
X107499500Y-60624500D01*
X107499500Y-111375500D01*
X107479815Y-111442539D01*
X107427011Y-111488294D01*
X107375500Y-111499500D01*
X30624500Y-111499500D01*
X30557461Y-111479815D01*
X30511706Y-111427011D01*
X30500500Y-111375500D01*
X30500500Y-96980135D01*
X34297500Y-96980135D01*
X34297500Y-98599870D01*
X34297501Y-98599876D01*
X34303908Y-98659483D01*
X34354202Y-98794328D01*
X34354206Y-98794335D01*
X34440452Y-98909544D01*
X34440455Y-98909547D01*
X34555664Y-98995793D01*
X34555671Y-98995797D01*
X34690517Y-99046091D01*
X34690516Y-99046091D01*
X34697444Y-99046835D01*
X34750127Y-99052500D01*
X36369872Y-99052499D01*
X36429483Y-99046091D01*
X36564331Y-98995796D01*
X36679546Y-98909546D01*
X36765796Y-98794331D01*
X36816091Y-98659483D01*
X36822500Y-98599873D01*
X36822499Y-98561197D01*
X36842182Y-98494161D01*
X36894985Y-98448405D01*
X36964143Y-98438460D01*
X37027699Y-98467483D01*
X37046817Y-98488312D01*
X37137019Y-98612464D01*
X37277536Y-98752981D01*
X37438306Y-98869787D01*
X37516333Y-98909544D01*
X37615367Y-98960005D01*
X37615370Y-98960006D01*
X37682628Y-98981859D01*
X37804364Y-99021413D01*
X38000639Y-99052500D01*
X38000640Y-99052500D01*
X38199360Y-99052500D01*
X38199361Y-99052500D01*
X38395636Y-99021413D01*
X38584632Y-98960005D01*
X38761694Y-98869787D01*
X38922464Y-98752981D01*
X39062981Y-98612464D01*
X39179787Y-98451694D01*
X39259515Y-98295218D01*
X39307490Y-98244423D01*
X39375311Y-98227628D01*
X39441446Y-98250165D01*
X39480484Y-98295218D01*
X39560213Y-98451694D01*
X39677019Y-98612464D01*
X39817536Y-98752981D01*
X39978306Y-98869787D01*
X40056333Y-98909544D01*
X40155367Y-98960005D01*
X40155370Y-98960006D01*
X40222628Y-98981859D01*
X40344364Y-99021413D01*
X40540639Y-99052500D01*
X40540640Y-99052500D01*
X40739360Y-99052500D01*
X40739361Y-99052500D01*
X40935636Y-99021413D01*
X41124632Y-98960005D01*
X41301694Y-98869787D01*
X41462464Y-98752981D01*
X41602981Y-98612464D01*
X41719787Y-98451694D01*
X41799796Y-98294667D01*
X41847769Y-98243872D01*
X41915590Y-98227077D01*
X41981725Y-98249614D01*
X42020765Y-98294668D01*
X42100641Y-98451432D01*
X42127730Y-98488715D01*
X42127731Y-98488716D01*
X42799000Y-97817447D01*
X42799000Y-97840160D01*
X42824964Y-97937061D01*
X42875124Y-98023940D01*
X42946060Y-98094876D01*
X43032939Y-98145036D01*
X43129840Y-98171000D01*
X43152553Y-98171000D01*
X42481283Y-98842268D01*
X42481283Y-98842269D01*
X42518567Y-98869358D01*
X42695562Y-98959542D01*
X42884477Y-99020924D01*
X43080679Y-99052000D01*
X43279321Y-99052000D01*
X43475520Y-99020924D01*
X43475523Y-99020924D01*
X43664437Y-98959542D01*
X43841425Y-98869362D01*
X43878716Y-98842268D01*
X43207448Y-98171000D01*
X43230160Y-98171000D01*
X43327061Y-98145036D01*
X43413940Y-98094876D01*
X43484876Y-98023940D01*
X43535036Y-97937061D01*
X43561000Y-97840160D01*
X43561000Y-97817447D01*
X44232268Y-98488715D01*
X44259364Y-98451422D01*
X44339234Y-98294669D01*
X44387208Y-98243872D01*
X44455029Y-98227077D01*
X44521164Y-98249614D01*
X44560203Y-98294667D01*
X44640213Y-98451694D01*
X44757019Y-98612464D01*
X44897536Y-98752981D01*
X45058306Y-98869787D01*
X45136333Y-98909544D01*
X45235367Y-98960005D01*
X45235370Y-98960006D01*
X45302628Y-98981859D01*
X45424364Y-99021413D01*
X45620639Y-99052500D01*
X45620640Y-99052500D01*
X45819360Y-99052500D01*
X45819361Y-99052500D01*
X46015636Y-99021413D01*
X46204632Y-98960005D01*
X46381694Y-98869787D01*
X46542464Y-98752981D01*
X46682981Y-98612464D01*
X46799787Y-98451694D01*
X46890005Y-98274632D01*
X46951413Y-98085636D01*
X46982500Y-97889361D01*
X46982500Y-97690639D01*
X46968799Y-97604140D01*
X46977753Y-97534851D01*
X47003586Y-97497069D01*
X47243839Y-97256816D01*
X47305161Y-97223334D01*
X47331519Y-97220500D01*
X63608256Y-97220500D01*
X63675295Y-97240185D01*
X63708575Y-97271616D01*
X63778030Y-97367215D01*
X63922786Y-97511971D01*
X64049654Y-97604144D01*
X64088390Y-97632287D01*
X64173793Y-97675802D01*
X64181080Y-97679515D01*
X64231876Y-97727490D01*
X64248671Y-97795311D01*
X64226134Y-97861446D01*
X64181080Y-97900485D01*
X64088386Y-97947715D01*
X63922786Y-98068028D01*
X63778028Y-98212786D01*
X63657715Y-98378386D01*
X63564781Y-98560776D01*
X63501522Y-98755465D01*
X63469500Y-98957648D01*
X63469500Y-99162351D01*
X63501522Y-99364534D01*
X63564781Y-99559223D01*
X63657715Y-99741613D01*
X63778028Y-99907213D01*
X63922786Y-100051971D01*
X64039060Y-100136447D01*
X64088390Y-100172287D01*
X64160424Y-100208990D01*
X64181629Y-100219795D01*
X64232425Y-100267770D01*
X64249220Y-100335591D01*
X64226682Y-100401726D01*
X64181629Y-100440765D01*
X64088650Y-100488140D01*
X63923105Y-100608417D01*
X63923104Y-100608417D01*
X63778417Y-100753104D01*
X63778417Y-100753105D01*
X63658140Y-100918650D01*
X63565244Y-101100970D01*
X63502009Y-101295586D01*
X63493391Y-101350000D01*
X64336988Y-101350000D01*
X64304075Y-101407007D01*
X64270000Y-101534174D01*
X64270000Y-101665826D01*
X64304075Y-101792993D01*
X64336988Y-101850000D01*
X63493391Y-101850000D01*
X63502009Y-101904413D01*
X63565244Y-102099029D01*
X63658140Y-102281349D01*
X63778417Y-102446894D01*
X63778417Y-102446895D01*
X63923104Y-102591582D01*
X64088652Y-102711861D01*
X64181628Y-102759234D01*
X64232425Y-102807208D01*
X64249220Y-102875029D01*
X64226683Y-102941164D01*
X64181630Y-102980203D01*
X64088388Y-103027713D01*
X63922786Y-103148028D01*
X63778028Y-103292786D01*
X63657715Y-103458386D01*
X63564781Y-103640776D01*
X63501522Y-103835465D01*
X63469500Y-104037648D01*
X63469500Y-104242351D01*
X63501522Y-104444534D01*
X63564781Y-104639223D01*
X63657715Y-104821613D01*
X63778028Y-104987213D01*
X63922786Y-105131971D01*
X64077749Y-105244556D01*
X64088390Y-105252287D01*
X64177212Y-105297544D01*
X64270776Y-105345218D01*
X64270778Y-105345218D01*
X64270781Y-105345220D01*
X64375137Y-105379127D01*
X64465465Y-105408477D01*
X64566557Y-105424488D01*
X64667648Y-105440500D01*
X64667649Y-105440500D01*
X64872351Y-105440500D01*
X64872352Y-105440500D01*
X65074534Y-105408477D01*
X65269219Y-105345220D01*
X65451610Y-105252287D01*
X65547901Y-105182328D01*
X65617213Y-105131971D01*
X65617215Y-105131968D01*
X65617219Y-105131966D01*
X65761966Y-104987219D01*
X65761968Y-104987215D01*
X65761971Y-104987213D01*
X65814732Y-104914590D01*
X65882287Y-104821610D01*
X65975220Y-104639219D01*
X66038477Y-104444534D01*
X66070500Y-104242352D01*
X66070500Y-104037648D01*
X66038477Y-103835466D01*
X65975220Y-103640781D01*
X65975218Y-103640778D01*
X65975218Y-103640776D01*
X65929787Y-103551614D01*
X65882287Y-103458390D01*
X65840329Y-103400639D01*
X65761971Y-103292786D01*
X65617213Y-103148028D01*
X65451611Y-103027713D01*
X65358369Y-102980203D01*
X65307574Y-102932229D01*
X65290779Y-102864407D01*
X65313317Y-102798273D01*
X65358371Y-102759234D01*
X65451347Y-102711861D01*
X65616894Y-102591582D01*
X65616895Y-102591582D01*
X65761582Y-102446895D01*
X65761582Y-102446894D01*
X65881859Y-102281349D01*
X65974755Y-102099029D01*
X66037990Y-101904413D01*
X66046609Y-101850000D01*
X65203012Y-101850000D01*
X65235925Y-101792993D01*
X65270000Y-101665826D01*
X65270000Y-101534174D01*
X65235925Y-101407007D01*
X65203012Y-101350000D01*
X66046609Y-101350000D01*
X66037990Y-101295586D01*
X65974755Y-101100970D01*
X65881859Y-100918650D01*
X65761582Y-100753105D01*
X65761582Y-100753104D01*
X65616895Y-100608417D01*
X65451349Y-100488140D01*
X65358370Y-100440765D01*
X65307574Y-100392790D01*
X65290779Y-100324969D01*
X65313316Y-100258835D01*
X65358370Y-100219795D01*
X65358920Y-100219515D01*
X65451610Y-100172287D01*
X65551794Y-100099500D01*
X65617213Y-100051971D01*
X65617215Y-100051968D01*
X65617219Y-100051966D01*
X65761966Y-99907219D01*
X65761968Y-99907215D01*
X65761971Y-99907213D01*
X65814732Y-99834590D01*
X65882287Y-99741610D01*
X65975220Y-99559219D01*
X66038477Y-99364534D01*
X66070500Y-99162352D01*
X66070500Y-98957648D01*
X66056516Y-98869358D01*
X66038477Y-98755465D01*
X65986638Y-98595922D01*
X65975220Y-98560781D01*
X65975218Y-98560778D01*
X65975218Y-98560776D01*
X65919636Y-98451692D01*
X65882287Y-98378390D01*
X65841796Y-98322658D01*
X65761971Y-98212786D01*
X65617213Y-98068028D01*
X65451614Y-97947715D01*
X65430704Y-97937061D01*
X65358917Y-97900483D01*
X65308123Y-97852511D01*
X65291328Y-97784690D01*
X65313865Y-97718555D01*
X65358917Y-97679516D01*
X65451610Y-97632287D01*
X65490346Y-97604144D01*
X65617213Y-97511971D01*
X65617215Y-97511968D01*
X65617219Y-97511966D01*
X65761966Y-97367219D01*
X65761968Y-97367215D01*
X65761971Y-97367213D01*
X65842176Y-97256818D01*
X65882287Y-97201610D01*
X65975220Y-97019219D01*
X66038477Y-96824534D01*
X66070500Y-96622352D01*
X66070500Y-96417648D01*
X66038477Y-96215466D01*
X66033826Y-96201154D01*
X66031832Y-96131315D01*
X66064077Y-96075157D01*
X66252416Y-95886819D01*
X66313739Y-95853334D01*
X66340097Y-95850500D01*
X78690276Y-95850500D01*
X78757315Y-95870185D01*
X78803070Y-95922989D01*
X78813014Y-95992147D01*
X78806408Y-96016228D01*
X78806749Y-96016339D01*
X78742009Y-96215586D01*
X78733391Y-96270000D01*
X79576988Y-96270000D01*
X79544075Y-96327007D01*
X79510000Y-96454174D01*
X79510000Y-96585826D01*
X79544075Y-96712993D01*
X79576988Y-96770000D01*
X78733391Y-96770000D01*
X78742009Y-96824413D01*
X78805244Y-97019029D01*
X78898140Y-97201349D01*
X79018417Y-97366894D01*
X79018417Y-97366895D01*
X79163104Y-97511582D01*
X79328652Y-97631861D01*
X79421628Y-97679234D01*
X79472425Y-97727208D01*
X79489220Y-97795029D01*
X79466683Y-97861164D01*
X79421630Y-97900203D01*
X79328388Y-97947713D01*
X79162786Y-98068028D01*
X79018028Y-98212786D01*
X78897715Y-98378386D01*
X78804781Y-98560776D01*
X78741522Y-98755465D01*
X78709500Y-98957648D01*
X78709500Y-99162351D01*
X78741522Y-99364534D01*
X78804781Y-99559223D01*
X78897715Y-99741613D01*
X79018028Y-99907213D01*
X79162786Y-100051971D01*
X79279060Y-100136447D01*
X79328390Y-100172287D01*
X79401291Y-100209432D01*
X79421080Y-100219515D01*
X79471876Y-100267490D01*
X79488671Y-100335311D01*
X79466134Y-100401446D01*
X79421080Y-100440485D01*
X79328386Y-100487715D01*
X79162786Y-100608028D01*
X79018028Y-100752786D01*
X78897715Y-100918386D01*
X78804781Y-101100776D01*
X78741522Y-101295465D01*
X78709500Y-101497648D01*
X78709500Y-101702351D01*
X78741522Y-101904534D01*
X78804781Y-102099223D01*
X78897715Y-102281613D01*
X79018028Y-102447213D01*
X79162784Y-102591969D01*
X79199068Y-102618330D01*
X79241735Y-102673659D01*
X79247715Y-102743273D01*
X79215109Y-102805068D01*
X79154271Y-102839426D01*
X79139440Y-102841938D01*
X79102519Y-102845907D01*
X78967671Y-102896202D01*
X78967664Y-102896206D01*
X78852455Y-102982452D01*
X78852452Y-102982455D01*
X78766206Y-103097664D01*
X78766202Y-103097671D01*
X78715908Y-103232517D01*
X78709501Y-103292116D01*
X78709501Y-103292123D01*
X78709500Y-103292135D01*
X78709500Y-104987870D01*
X78709501Y-104987876D01*
X78715908Y-105047483D01*
X78766202Y-105182328D01*
X78766206Y-105182335D01*
X78852452Y-105297544D01*
X78852455Y-105297547D01*
X78967664Y-105383793D01*
X78967671Y-105383797D01*
X79102517Y-105434091D01*
X79102516Y-105434091D01*
X79109444Y-105434835D01*
X79162127Y-105440500D01*
X80857872Y-105440499D01*
X80917483Y-105434091D01*
X81052331Y-105383796D01*
X81167546Y-105297546D01*
X81253796Y-105182331D01*
X81304091Y-105047483D01*
X81310500Y-104987873D01*
X81310499Y-103292128D01*
X81304091Y-103232517D01*
X81302595Y-103228507D01*
X81253797Y-103097671D01*
X81253793Y-103097664D01*
X81167547Y-102982455D01*
X81167544Y-102982452D01*
X81052335Y-102896206D01*
X81052328Y-102896202D01*
X81010776Y-102880704D01*
X81010764Y-102880700D01*
X80917483Y-102845909D01*
X80870105Y-102840815D01*
X80859987Y-102837946D01*
X80838960Y-102824707D01*
X80816009Y-102815201D01*
X80809911Y-102806418D01*
X80800860Y-102800720D01*
X80790329Y-102778215D01*
X80782992Y-102767648D01*
X85059500Y-102767648D01*
X85059500Y-102972352D01*
X85061100Y-102982452D01*
X85091522Y-103174534D01*
X85154781Y-103369223D01*
X85247715Y-103551613D01*
X85368028Y-103717213D01*
X85512786Y-103861971D01*
X85667749Y-103974556D01*
X85678390Y-103982287D01*
X85787042Y-104037648D01*
X85860776Y-104075218D01*
X85860778Y-104075218D01*
X85860781Y-104075220D01*
X85965137Y-104109127D01*
X86055465Y-104138477D01*
X86156557Y-104154488D01*
X86257648Y-104170500D01*
X86257649Y-104170500D01*
X86462351Y-104170500D01*
X86462352Y-104170500D01*
X86664534Y-104138477D01*
X86859219Y-104075220D01*
X87041610Y-103982287D01*
X87134590Y-103914732D01*
X87207213Y-103861971D01*
X87207215Y-103861968D01*
X87207219Y-103861966D01*
X87351966Y-103717219D01*
X87351968Y-103717215D01*
X87351971Y-103717213D01*
X87472284Y-103551614D01*
X87472285Y-103551613D01*
X87472287Y-103551610D01*
X87479117Y-103538204D01*
X87527091Y-103487409D01*
X87589602Y-103470500D01*
X90210398Y-103470500D01*
X90277437Y-103490185D01*
X90320883Y-103538205D01*
X90327715Y-103551614D01*
X90448028Y-103717213D01*
X90592786Y-103861971D01*
X90747749Y-103974556D01*
X90758390Y-103982287D01*
X90867042Y-104037648D01*
X90940776Y-104075218D01*
X90940778Y-104075218D01*
X90940781Y-104075220D01*
X91045137Y-104109127D01*
X91135465Y-104138477D01*
X91236557Y-104154488D01*
X91337648Y-104170500D01*
X91337649Y-104170500D01*
X91542351Y-104170500D01*
X91542352Y-104170500D01*
X91744534Y-104138477D01*
X91939219Y-104075220D01*
X92121610Y-103982287D01*
X92214590Y-103914732D01*
X92287213Y-103861971D01*
X92287215Y-103861968D01*
X92287219Y-103861966D01*
X92431966Y-103717219D01*
X92431968Y-103717215D01*
X92431971Y-103717213D01*
X92552284Y-103551614D01*
X92552285Y-103551613D01*
X92552287Y-103551610D01*
X92559117Y-103538204D01*
X92607091Y-103487409D01*
X92669602Y-103470500D01*
X96283331Y-103470500D01*
X96283347Y-103470501D01*
X96290943Y-103470501D01*
X96449054Y-103470501D01*
X96449057Y-103470501D01*
X96601785Y-103429577D01*
X96651904Y-103400639D01*
X96738716Y-103350520D01*
X96850520Y-103238716D01*
X96850520Y-103238714D01*
X96860728Y-103228507D01*
X96860730Y-103228504D01*
X97036437Y-103052796D01*
X97097758Y-103019313D01*
X97162433Y-103022547D01*
X97288632Y-103063553D01*
X97376110Y-103077408D01*
X97521903Y-103100500D01*
X97521908Y-103100500D01*
X97758097Y-103100500D01*
X97991368Y-103063553D01*
X98024468Y-103052798D01*
X98215992Y-102990568D01*
X98426433Y-102883343D01*
X98617510Y-102744517D01*
X98784517Y-102577510D01*
X98923343Y-102386433D01*
X98983583Y-102268204D01*
X99031558Y-102217409D01*
X99094068Y-102200500D01*
X102685932Y-102200500D01*
X102752971Y-102220185D01*
X102796416Y-102268203D01*
X102856657Y-102386433D01*
X102995483Y-102577510D01*
X103162490Y-102744517D01*
X103353567Y-102883343D01*
X103449511Y-102932229D01*
X103564003Y-102990566D01*
X103564005Y-102990566D01*
X103564008Y-102990568D01*
X103652476Y-103019313D01*
X103788631Y-103063553D01*
X104021903Y-103100500D01*
X104021908Y-103100500D01*
X104258097Y-103100500D01*
X104491368Y-103063553D01*
X104524468Y-103052798D01*
X104715992Y-102990568D01*
X104926433Y-102883343D01*
X105117510Y-102744517D01*
X105284517Y-102577510D01*
X105423343Y-102386433D01*
X105530568Y-102175992D01*
X105603553Y-101951368D01*
X105628637Y-101792993D01*
X105640500Y-101718097D01*
X105640500Y-101481902D01*
X105603553Y-101248631D01*
X105566331Y-101134075D01*
X105530568Y-101024008D01*
X105530566Y-101024005D01*
X105530566Y-101024003D01*
X105423342Y-100813566D01*
X105284517Y-100622490D01*
X105117510Y-100455483D01*
X104926433Y-100316657D01*
X104715996Y-100209433D01*
X104491368Y-100136446D01*
X104258097Y-100099500D01*
X104258092Y-100099500D01*
X104021908Y-100099500D01*
X104021903Y-100099500D01*
X103788631Y-100136446D01*
X103564003Y-100209433D01*
X103353566Y-100316657D01*
X103293222Y-100360500D01*
X103162490Y-100455483D01*
X103162488Y-100455485D01*
X103162487Y-100455485D01*
X102995485Y-100622487D01*
X102995485Y-100622488D01*
X102995483Y-100622490D01*
X102935862Y-100704550D01*
X102856657Y-100813566D01*
X102824060Y-100877540D01*
X102803115Y-100918650D01*
X102796417Y-100931795D01*
X102748442Y-100982591D01*
X102685932Y-100999500D01*
X99094068Y-100999500D01*
X99027029Y-100979815D01*
X98983583Y-100931795D01*
X98923343Y-100813567D01*
X98784517Y-100622490D01*
X98617510Y-100455483D01*
X98426433Y-100316657D01*
X98215996Y-100209433D01*
X97991368Y-100136446D01*
X97758097Y-100099500D01*
X97758092Y-100099500D01*
X97521908Y-100099500D01*
X97521903Y-100099500D01*
X97288631Y-100136446D01*
X97064003Y-100209433D01*
X96853566Y-100316657D01*
X96793222Y-100360500D01*
X96662490Y-100455483D01*
X96662488Y-100455485D01*
X96662487Y-100455485D01*
X96495485Y-100622487D01*
X96495485Y-100622488D01*
X96495483Y-100622490D01*
X96435862Y-100704550D01*
X96356657Y-100813566D01*
X96249433Y-101024003D01*
X96176446Y-101248631D01*
X96139500Y-101481902D01*
X96139500Y-101718097D01*
X96176447Y-101951369D01*
X96176447Y-101951372D01*
X96217450Y-102077564D01*
X96217884Y-102092775D01*
X96223203Y-102107034D01*
X96218861Y-102126991D01*
X96219445Y-102147405D01*
X96211357Y-102161491D01*
X96208352Y-102175307D01*
X96187202Y-102203562D01*
X96157585Y-102233180D01*
X96096262Y-102266666D01*
X96069902Y-102269500D01*
X92669602Y-102269500D01*
X92602563Y-102249815D01*
X92559117Y-102201795D01*
X92552284Y-102188385D01*
X92431971Y-102022786D01*
X92287213Y-101878028D01*
X92121613Y-101757715D01*
X92121612Y-101757714D01*
X92121610Y-101757713D01*
X92064653Y-101728691D01*
X91939223Y-101664781D01*
X91744534Y-101601522D01*
X91569995Y-101573878D01*
X91542352Y-101569500D01*
X91337648Y-101569500D01*
X91313329Y-101573351D01*
X91135465Y-101601522D01*
X90940776Y-101664781D01*
X90758386Y-101757715D01*
X90592786Y-101878028D01*
X90448028Y-102022786D01*
X90327715Y-102188385D01*
X90320883Y-102201795D01*
X90272909Y-102252591D01*
X90210398Y-102269500D01*
X87589602Y-102269500D01*
X87522563Y-102249815D01*
X87479117Y-102201795D01*
X87472284Y-102188385D01*
X87351971Y-102022786D01*
X87207213Y-101878028D01*
X87041613Y-101757715D01*
X87041612Y-101757714D01*
X87041610Y-101757713D01*
X86984653Y-101728691D01*
X86859223Y-101664781D01*
X86664534Y-101601522D01*
X86489995Y-101573878D01*
X86462352Y-101569500D01*
X86257648Y-101569500D01*
X86233329Y-101573351D01*
X86055465Y-101601522D01*
X85860776Y-101664781D01*
X85678386Y-101757715D01*
X85512786Y-101878028D01*
X85368028Y-102022786D01*
X85247715Y-102188386D01*
X85154781Y-102370776D01*
X85091522Y-102565465D01*
X85068336Y-102711861D01*
X85059500Y-102767648D01*
X80782992Y-102767648D01*
X80776160Y-102757809D01*
X80775778Y-102747121D01*
X80771246Y-102737436D01*
X80774553Y-102712811D01*
X80773667Y-102687984D01*
X80779123Y-102678787D01*
X80780547Y-102668188D01*
X80796641Y-102649261D01*
X80809319Y-102627895D01*
X80820930Y-102618331D01*
X80857219Y-102591966D01*
X81001966Y-102447219D01*
X81001968Y-102447215D01*
X81001971Y-102447213D01*
X81057505Y-102370776D01*
X81122287Y-102281610D01*
X81215220Y-102099219D01*
X81278477Y-101904534D01*
X81310500Y-101702352D01*
X81310500Y-101497648D01*
X81296144Y-101407007D01*
X81278477Y-101295465D01*
X81215218Y-101100776D01*
X81176100Y-101024003D01*
X81122287Y-100918390D01*
X81114556Y-100907749D01*
X81001971Y-100752786D01*
X80857213Y-100608028D01*
X80691614Y-100487715D01*
X80685006Y-100484348D01*
X80598917Y-100440483D01*
X80548123Y-100392511D01*
X80531328Y-100324690D01*
X80553865Y-100258555D01*
X80598917Y-100219516D01*
X80691610Y-100172287D01*
X80791794Y-100099500D01*
X80857213Y-100051971D01*
X80857215Y-100051968D01*
X80857219Y-100051966D01*
X81001966Y-99907219D01*
X81001968Y-99907215D01*
X81001971Y-99907213D01*
X81054732Y-99834590D01*
X81122287Y-99741610D01*
X81215220Y-99559219D01*
X81278477Y-99364534D01*
X81310500Y-99162352D01*
X81310500Y-98957648D01*
X81278477Y-98755466D01*
X81215220Y-98560781D01*
X81215218Y-98560778D01*
X81215218Y-98560776D01*
X81159636Y-98451692D01*
X81122287Y-98378390D01*
X81081796Y-98322658D01*
X81001971Y-98212786D01*
X80857213Y-98068028D01*
X80691611Y-97947713D01*
X80598369Y-97900203D01*
X80589215Y-97891557D01*
X80577550Y-97886823D01*
X80564297Y-97868024D01*
X80547574Y-97852229D01*
X80544547Y-97840006D01*
X80537293Y-97829716D01*
X80536307Y-97806734D01*
X80530779Y-97784407D01*
X80534840Y-97772490D01*
X80534634Y-97767682D01*
X85060000Y-97767682D01*
X85060000Y-97972317D01*
X85092009Y-98174417D01*
X85155244Y-98369031D01*
X85248141Y-98551350D01*
X85248147Y-98551359D01*
X85280523Y-98595921D01*
X85280524Y-98595922D01*
X85960000Y-97916446D01*
X85960000Y-97922661D01*
X85987259Y-98024394D01*
X86039920Y-98115606D01*
X86114394Y-98190080D01*
X86205606Y-98242741D01*
X86307339Y-98270000D01*
X86313553Y-98270000D01*
X85634076Y-98949474D01*
X85678650Y-98981859D01*
X85860968Y-99074755D01*
X86055582Y-99137990D01*
X86257683Y-99170000D01*
X86462317Y-99170000D01*
X86664417Y-99137990D01*
X86859031Y-99074755D01*
X87041349Y-98981859D01*
X87085921Y-98949474D01*
X86406447Y-98270000D01*
X86412661Y-98270000D01*
X86514394Y-98242741D01*
X86605606Y-98190080D01*
X86680080Y-98115606D01*
X86732741Y-98024394D01*
X86760000Y-97922661D01*
X86760000Y-97916447D01*
X87439474Y-98595921D01*
X87471859Y-98551349D01*
X87564755Y-98369029D01*
X87607629Y-98237081D01*
X87607629Y-98237079D01*
X87627990Y-98174415D01*
X87660000Y-97972317D01*
X87660000Y-97767682D01*
X87627990Y-97565582D01*
X87564755Y-97370968D01*
X87471859Y-97188650D01*
X87439474Y-97144077D01*
X87439474Y-97144076D01*
X86760000Y-97823551D01*
X86760000Y-97817339D01*
X86732741Y-97715606D01*
X86680080Y-97624394D01*
X86605606Y-97549920D01*
X86514394Y-97497259D01*
X86412661Y-97470000D01*
X86406446Y-97470000D01*
X86894500Y-96981947D01*
X96140000Y-96981947D01*
X96140000Y-97218052D01*
X96176934Y-97451247D01*
X96249897Y-97675802D01*
X96357087Y-97886174D01*
X96417338Y-97969104D01*
X96417340Y-97969105D01*
X97116212Y-97270233D01*
X97127482Y-97312292D01*
X97199890Y-97437708D01*
X97302292Y-97540110D01*
X97427708Y-97612518D01*
X97469765Y-97623787D01*
X96770893Y-98322658D01*
X96853828Y-98382914D01*
X97064197Y-98490102D01*
X97288752Y-98563065D01*
X97288751Y-98563065D01*
X97521948Y-98600000D01*
X97758052Y-98600000D01*
X97991247Y-98563065D01*
X98215802Y-98490102D01*
X98426163Y-98382918D01*
X98426169Y-98382914D01*
X98509104Y-98322658D01*
X98509105Y-98322658D01*
X97810233Y-97623787D01*
X97852292Y-97612518D01*
X97977708Y-97540110D01*
X98080110Y-97437708D01*
X98152518Y-97312292D01*
X98163787Y-97270233D01*
X98862658Y-97969105D01*
X98862658Y-97969104D01*
X98922914Y-97886169D01*
X98922918Y-97886163D01*
X99030102Y-97675802D01*
X99103065Y-97451247D01*
X99140000Y-97218052D01*
X99140000Y-96981947D01*
X102640000Y-96981947D01*
X102640000Y-97218052D01*
X102676934Y-97451247D01*
X102749897Y-97675802D01*
X102857087Y-97886174D01*
X102917338Y-97969104D01*
X102917340Y-97969105D01*
X103616212Y-97270233D01*
X103627482Y-97312292D01*
X103699890Y-97437708D01*
X103802292Y-97540110D01*
X103927708Y-97612518D01*
X103969765Y-97623787D01*
X103270893Y-98322658D01*
X103353828Y-98382914D01*
X103564197Y-98490102D01*
X103788752Y-98563065D01*
X103788751Y-98563065D01*
X104021948Y-98600000D01*
X104258052Y-98600000D01*
X104491247Y-98563065D01*
X104715802Y-98490102D01*
X104926163Y-98382918D01*
X104926169Y-98382914D01*
X105009104Y-98322658D01*
X105009105Y-98322658D01*
X104310233Y-97623787D01*
X104352292Y-97612518D01*
X104477708Y-97540110D01*
X104580110Y-97437708D01*
X104652518Y-97312292D01*
X104663787Y-97270234D01*
X105362658Y-97969105D01*
X105362658Y-97969104D01*
X105422914Y-97886169D01*
X105422918Y-97886163D01*
X105530102Y-97675802D01*
X105603065Y-97451247D01*
X105640000Y-97218052D01*
X105640000Y-96981947D01*
X105603065Y-96748752D01*
X105530102Y-96524197D01*
X105422914Y-96313828D01*
X105362658Y-96230894D01*
X105362658Y-96230893D01*
X104663787Y-96929765D01*
X104652518Y-96887708D01*
X104580110Y-96762292D01*
X104477708Y-96659890D01*
X104352292Y-96587482D01*
X104310234Y-96576212D01*
X105009105Y-95877340D01*
X105009104Y-95877338D01*
X104926174Y-95817087D01*
X104715802Y-95709897D01*
X104491247Y-95636934D01*
X104491248Y-95636934D01*
X104258052Y-95600000D01*
X104021948Y-95600000D01*
X103788752Y-95636934D01*
X103564197Y-95709897D01*
X103353830Y-95817084D01*
X103270894Y-95877340D01*
X103969766Y-96576212D01*
X103927708Y-96587482D01*
X103802292Y-96659890D01*
X103699890Y-96762292D01*
X103627482Y-96887708D01*
X103616212Y-96929766D01*
X102917340Y-96230894D01*
X102857084Y-96313830D01*
X102749897Y-96524197D01*
X102676934Y-96748752D01*
X102640000Y-96981947D01*
X99140000Y-96981947D01*
X99103065Y-96748752D01*
X99030102Y-96524197D01*
X98922914Y-96313828D01*
X98862658Y-96230894D01*
X98862658Y-96230893D01*
X98163787Y-96929765D01*
X98152518Y-96887708D01*
X98080110Y-96762292D01*
X97977708Y-96659890D01*
X97852292Y-96587482D01*
X97810234Y-96576212D01*
X98509105Y-95877340D01*
X98509104Y-95877339D01*
X98426174Y-95817087D01*
X98215802Y-95709897D01*
X97991247Y-95636934D01*
X97991248Y-95636934D01*
X97758052Y-95600000D01*
X97521948Y-95600000D01*
X97288752Y-95636934D01*
X97064197Y-95709897D01*
X96853830Y-95817084D01*
X96770894Y-95877340D01*
X97469766Y-96576212D01*
X97427708Y-96587482D01*
X97302292Y-96659890D01*
X97199890Y-96762292D01*
X97127482Y-96887708D01*
X97116212Y-96929766D01*
X96417340Y-96230894D01*
X96357084Y-96313830D01*
X96249897Y-96524197D01*
X96176934Y-96748752D01*
X96140000Y-96981947D01*
X86894500Y-96981947D01*
X86987053Y-96889394D01*
X87085922Y-96790524D01*
X87085921Y-96790523D01*
X87041359Y-96758147D01*
X87041350Y-96758141D01*
X86859031Y-96665244D01*
X86664417Y-96602009D01*
X86462317Y-96570000D01*
X86257683Y-96570000D01*
X86055582Y-96602009D01*
X85860968Y-96665244D01*
X85678644Y-96758143D01*
X85634077Y-96790523D01*
X85634077Y-96790524D01*
X86313554Y-97470000D01*
X86307339Y-97470000D01*
X86205606Y-97497259D01*
X86114394Y-97549920D01*
X86039920Y-97624394D01*
X85987259Y-97715606D01*
X85960000Y-97817339D01*
X85960000Y-97823553D01*
X85280524Y-97144077D01*
X85280523Y-97144077D01*
X85248143Y-97188644D01*
X85155244Y-97370968D01*
X85092009Y-97565582D01*
X85060000Y-97767682D01*
X80534634Y-97767682D01*
X80534301Y-97759911D01*
X80545897Y-97740044D01*
X80553317Y-97718273D01*
X80564019Y-97708999D01*
X80569524Y-97699569D01*
X80598371Y-97679234D01*
X80651172Y-97652331D01*
X80691347Y-97631861D01*
X80856894Y-97511582D01*
X80856895Y-97511582D01*
X81001582Y-97366895D01*
X81001582Y-97366894D01*
X81121859Y-97201349D01*
X81214755Y-97019029D01*
X81277989Y-96824417D01*
X81278946Y-96818380D01*
X81278947Y-96818377D01*
X81286609Y-96770000D01*
X80443012Y-96770000D01*
X80475925Y-96712993D01*
X80510000Y-96585826D01*
X80510000Y-96454174D01*
X80475925Y-96327007D01*
X80443012Y-96270000D01*
X81286609Y-96270000D01*
X81277990Y-96215586D01*
X81213251Y-96016339D01*
X81214512Y-96015929D01*
X81207697Y-95952470D01*
X81238978Y-95889994D01*
X81299071Y-95854348D01*
X81329724Y-95850500D01*
X90210398Y-95850500D01*
X90277437Y-95870185D01*
X90320883Y-95918205D01*
X90327715Y-95931614D01*
X90448028Y-96097213D01*
X90592786Y-96241971D01*
X90747749Y-96354556D01*
X90758390Y-96362287D01*
X90867042Y-96417648D01*
X90940776Y-96455218D01*
X90940778Y-96455218D01*
X90940781Y-96455220D01*
X91045137Y-96489127D01*
X91135465Y-96518477D01*
X91232892Y-96533908D01*
X91337648Y-96550500D01*
X91337649Y-96550500D01*
X91542351Y-96550500D01*
X91542352Y-96550500D01*
X91744534Y-96518477D01*
X91939219Y-96455220D01*
X92121610Y-96362287D01*
X92214590Y-96294732D01*
X92287213Y-96241971D01*
X92287215Y-96241968D01*
X92287219Y-96241966D01*
X92431966Y-96097219D01*
X92431968Y-96097215D01*
X92431971Y-96097213D01*
X92491026Y-96015929D01*
X92552287Y-95931610D01*
X92645220Y-95749219D01*
X92708477Y-95554534D01*
X92740500Y-95352352D01*
X92740500Y-95147648D01*
X92708477Y-94945466D01*
X92645220Y-94750781D01*
X92645218Y-94750778D01*
X92645218Y-94750776D01*
X92605457Y-94672742D01*
X92552287Y-94568390D01*
X92537120Y-94547514D01*
X92431971Y-94402786D01*
X92287213Y-94258028D01*
X92121614Y-94137715D01*
X92115006Y-94134348D01*
X92028917Y-94090483D01*
X91978123Y-94042511D01*
X91961328Y-93974690D01*
X91983865Y-93908555D01*
X92028917Y-93869516D01*
X92121610Y-93822287D01*
X92142770Y-93806913D01*
X92287213Y-93701971D01*
X92287215Y-93701968D01*
X92287219Y-93701966D01*
X92431966Y-93557219D01*
X92431968Y-93557215D01*
X92431971Y-93557213D01*
X92552284Y-93391614D01*
X92552285Y-93391613D01*
X92552287Y-93391610D01*
X92559117Y-93378204D01*
X92607091Y-93327409D01*
X92669602Y-93310500D01*
X96671726Y-93310500D01*
X96738765Y-93330185D01*
X96744602Y-93334175D01*
X96853567Y-93413343D01*
X96952991Y-93464002D01*
X97064003Y-93520566D01*
X97064005Y-93520566D01*
X97064008Y-93520568D01*
X97176789Y-93557213D01*
X97288631Y-93593553D01*
X97521903Y-93630500D01*
X97521908Y-93630500D01*
X97758097Y-93630500D01*
X97991368Y-93593553D01*
X98215992Y-93520568D01*
X98426433Y-93413343D01*
X98617510Y-93274517D01*
X98784517Y-93107510D01*
X98923343Y-92916433D01*
X98983583Y-92798204D01*
X99031558Y-92747409D01*
X99094068Y-92730500D01*
X102685932Y-92730500D01*
X102752971Y-92750185D01*
X102796416Y-92798203D01*
X102856657Y-92916433D01*
X102995483Y-93107510D01*
X103162490Y-93274517D01*
X103353567Y-93413343D01*
X103452991Y-93464002D01*
X103564003Y-93520566D01*
X103564005Y-93520566D01*
X103564008Y-93520568D01*
X103676789Y-93557213D01*
X103788631Y-93593553D01*
X104021903Y-93630500D01*
X104021908Y-93630500D01*
X104258097Y-93630500D01*
X104491368Y-93593553D01*
X104715992Y-93520568D01*
X104926433Y-93413343D01*
X105117510Y-93274517D01*
X105284517Y-93107510D01*
X105423343Y-92916433D01*
X105530568Y-92705992D01*
X105603553Y-92481368D01*
X105611377Y-92431971D01*
X105640500Y-92248097D01*
X105640500Y-92011902D01*
X105603553Y-91778631D01*
X105544769Y-91597715D01*
X105530568Y-91554008D01*
X105530566Y-91554005D01*
X105530566Y-91554003D01*
X105460210Y-91415922D01*
X105423343Y-91343567D01*
X105284517Y-91152490D01*
X105117510Y-90985483D01*
X104926433Y-90846657D01*
X104859948Y-90812781D01*
X104715996Y-90739433D01*
X104491368Y-90666446D01*
X104258097Y-90629500D01*
X104258092Y-90629500D01*
X104021908Y-90629500D01*
X104021903Y-90629500D01*
X103788631Y-90666446D01*
X103564003Y-90739433D01*
X103353566Y-90846657D01*
X103244550Y-90925862D01*
X103162490Y-90985483D01*
X103162488Y-90985485D01*
X103162487Y-90985485D01*
X102995485Y-91152487D01*
X102995485Y-91152488D01*
X102995483Y-91152490D01*
X102935862Y-91234550D01*
X102856657Y-91343566D01*
X102824060Y-91407540D01*
X102803361Y-91448167D01*
X102796417Y-91461795D01*
X102748442Y-91512591D01*
X102685932Y-91529500D01*
X99094068Y-91529500D01*
X99027029Y-91509815D01*
X98983583Y-91461795D01*
X98923343Y-91343567D01*
X98784517Y-91152490D01*
X98617510Y-90985483D01*
X98426433Y-90846657D01*
X98359948Y-90812781D01*
X98215996Y-90739433D01*
X97991368Y-90666446D01*
X97758097Y-90629500D01*
X97758092Y-90629500D01*
X97521908Y-90629500D01*
X97521903Y-90629500D01*
X97288631Y-90666446D01*
X97064003Y-90739433D01*
X96853566Y-90846657D01*
X96744550Y-90925862D01*
X96662490Y-90985483D01*
X96662488Y-90985485D01*
X96662487Y-90985485D01*
X96495485Y-91152487D01*
X96495485Y-91152488D01*
X96495483Y-91152490D01*
X96435862Y-91234550D01*
X96356657Y-91343566D01*
X96249433Y-91554003D01*
X96176446Y-91778631D01*
X96140609Y-92004898D01*
X96110680Y-92068033D01*
X96051368Y-92104964D01*
X96018136Y-92109500D01*
X92669602Y-92109500D01*
X92602563Y-92089815D01*
X92559117Y-92041795D01*
X92552284Y-92028385D01*
X92431971Y-91862786D01*
X92287213Y-91718028D01*
X92121613Y-91597715D01*
X92121612Y-91597714D01*
X92121610Y-91597713D01*
X92064653Y-91568691D01*
X91939223Y-91504781D01*
X91744534Y-91441522D01*
X91569995Y-91413878D01*
X91542352Y-91409500D01*
X91337648Y-91409500D01*
X91313329Y-91413351D01*
X91135465Y-91441522D01*
X90940776Y-91504781D01*
X90758386Y-91597715D01*
X90592786Y-91718028D01*
X90448028Y-91862786D01*
X90327715Y-92028385D01*
X90320883Y-92041795D01*
X90272909Y-92092591D01*
X90210398Y-92109500D01*
X87589602Y-92109500D01*
X87522563Y-92089815D01*
X87479117Y-92041795D01*
X87472284Y-92028385D01*
X87351971Y-91862786D01*
X87207213Y-91718028D01*
X87041613Y-91597715D01*
X87041612Y-91597714D01*
X87041610Y-91597713D01*
X86984653Y-91568691D01*
X86859223Y-91504781D01*
X86664534Y-91441522D01*
X86489995Y-91413878D01*
X86462352Y-91409500D01*
X86257648Y-91409500D01*
X86219599Y-91415526D01*
X86055468Y-91441522D01*
X86046717Y-91444365D01*
X86041154Y-91446173D01*
X85971313Y-91448167D01*
X85915157Y-91415922D01*
X85577590Y-91078355D01*
X85577588Y-91078352D01*
X85458717Y-90959481D01*
X85458716Y-90959480D01*
X85364831Y-90905276D01*
X85321785Y-90880423D01*
X85169057Y-90839499D01*
X85010943Y-90839499D01*
X85003347Y-90839499D01*
X85003331Y-90839500D01*
X84269987Y-90839500D01*
X84202948Y-90819815D01*
X84157193Y-90767011D01*
X84147249Y-90697853D01*
X84155426Y-90668048D01*
X84169735Y-90633501D01*
X84169737Y-90633497D01*
X84200500Y-90478842D01*
X84200500Y-90321158D01*
X84200500Y-90321155D01*
X84200499Y-90321153D01*
X84169737Y-90166503D01*
X84144353Y-90105220D01*
X84109397Y-90020827D01*
X84109390Y-90020814D01*
X84021789Y-89889711D01*
X84021786Y-89889707D01*
X83910292Y-89778213D01*
X83910288Y-89778210D01*
X83779185Y-89690609D01*
X83779172Y-89690602D01*
X83633501Y-89630264D01*
X83633491Y-89630261D01*
X83478149Y-89599361D01*
X83416238Y-89566976D01*
X83414660Y-89565425D01*
X82387590Y-88538355D01*
X82387588Y-88538352D01*
X82268717Y-88419481D01*
X82268716Y-88419480D01*
X82181904Y-88369360D01*
X82181904Y-88369359D01*
X82181900Y-88369358D01*
X82131785Y-88340423D01*
X81979057Y-88299499D01*
X81820943Y-88299499D01*
X81813347Y-88299499D01*
X81813331Y-88299500D01*
X81239602Y-88299500D01*
X81172563Y-88279815D01*
X81129117Y-88231795D01*
X81122287Y-88218390D01*
X81122285Y-88218387D01*
X81122284Y-88218385D01*
X81001971Y-88052786D01*
X80857213Y-87908028D01*
X80691614Y-87787715D01*
X80685006Y-87784348D01*
X80598917Y-87740483D01*
X80589764Y-87731838D01*
X80578099Y-87727104D01*
X80564847Y-87708306D01*
X80548123Y-87692511D01*
X80545096Y-87680288D01*
X80537842Y-87669998D01*
X80536856Y-87647017D01*
X80531328Y-87624690D01*
X80535389Y-87612772D01*
X80535171Y-87607682D01*
X85060000Y-87607682D01*
X85060000Y-87812317D01*
X85092009Y-88014417D01*
X85155244Y-88209031D01*
X85248141Y-88391350D01*
X85248147Y-88391359D01*
X85280523Y-88435921D01*
X85280524Y-88435922D01*
X85960000Y-87756446D01*
X85960000Y-87762661D01*
X85987259Y-87864394D01*
X86039920Y-87955606D01*
X86114394Y-88030080D01*
X86205606Y-88082741D01*
X86307339Y-88110000D01*
X86313553Y-88110000D01*
X85634076Y-88789474D01*
X85678650Y-88821859D01*
X85860968Y-88914755D01*
X86055582Y-88977990D01*
X86257683Y-89010000D01*
X86462317Y-89010000D01*
X86664417Y-88977990D01*
X86859031Y-88914755D01*
X87041349Y-88821859D01*
X87085921Y-88789475D01*
X87085921Y-88789473D01*
X86406447Y-88110000D01*
X86412661Y-88110000D01*
X86514394Y-88082741D01*
X86605606Y-88030080D01*
X86680080Y-87955606D01*
X86732741Y-87864394D01*
X86760000Y-87762661D01*
X86760000Y-87756447D01*
X87439474Y-88435921D01*
X87471859Y-88391349D01*
X87564755Y-88209031D01*
X87627990Y-88014417D01*
X87660000Y-87812317D01*
X87660000Y-87607683D01*
X87647137Y-87526474D01*
X87647137Y-87526473D01*
X87644836Y-87511947D01*
X96140000Y-87511947D01*
X96140000Y-87748052D01*
X96176934Y-87981247D01*
X96249897Y-88205802D01*
X96357087Y-88416174D01*
X96417338Y-88499104D01*
X96417340Y-88499105D01*
X97116212Y-87800233D01*
X97127482Y-87842292D01*
X97199890Y-87967708D01*
X97302292Y-88070110D01*
X97427708Y-88142518D01*
X97469765Y-88153787D01*
X96770893Y-88852658D01*
X96853828Y-88912914D01*
X97064197Y-89020102D01*
X97288752Y-89093065D01*
X97288751Y-89093065D01*
X97521948Y-89130000D01*
X97758052Y-89130000D01*
X97991247Y-89093065D01*
X98215802Y-89020102D01*
X98426163Y-88912918D01*
X98426169Y-88912914D01*
X98509104Y-88852658D01*
X98509105Y-88852658D01*
X97810233Y-88153787D01*
X97852292Y-88142518D01*
X97977708Y-88070110D01*
X98080110Y-87967708D01*
X98152518Y-87842292D01*
X98163787Y-87800233D01*
X98862658Y-88499105D01*
X98862658Y-88499104D01*
X98922914Y-88416169D01*
X98922918Y-88416163D01*
X99030102Y-88205802D01*
X99103065Y-87981247D01*
X99140000Y-87748052D01*
X99140000Y-87511947D01*
X102640000Y-87511947D01*
X102640000Y-87748052D01*
X102676934Y-87981247D01*
X102749897Y-88205802D01*
X102857087Y-88416174D01*
X102917338Y-88499104D01*
X102917340Y-88499105D01*
X103616212Y-87800233D01*
X103627482Y-87842292D01*
X103699890Y-87967708D01*
X103802292Y-88070110D01*
X103927708Y-88142518D01*
X103969765Y-88153787D01*
X103270893Y-88852658D01*
X103353828Y-88912914D01*
X103564197Y-89020102D01*
X103788752Y-89093065D01*
X103788751Y-89093065D01*
X104021948Y-89130000D01*
X104258052Y-89130000D01*
X104491247Y-89093065D01*
X104715802Y-89020102D01*
X104926163Y-88912918D01*
X104926169Y-88912914D01*
X105009104Y-88852658D01*
X105009105Y-88852658D01*
X104310233Y-88153787D01*
X104352292Y-88142518D01*
X104477708Y-88070110D01*
X104580110Y-87967708D01*
X104652518Y-87842292D01*
X104663787Y-87800234D01*
X105362658Y-88499105D01*
X105362658Y-88499104D01*
X105422914Y-88416169D01*
X105422918Y-88416163D01*
X105530102Y-88205802D01*
X105603065Y-87981247D01*
X105640000Y-87748052D01*
X105640000Y-87511947D01*
X105603065Y-87278752D01*
X105530102Y-87054197D01*
X105422914Y-86843828D01*
X105362658Y-86760894D01*
X105362658Y-86760893D01*
X104663787Y-87459765D01*
X104652518Y-87417708D01*
X104580110Y-87292292D01*
X104477708Y-87189890D01*
X104352292Y-87117482D01*
X104310234Y-87106212D01*
X105009105Y-86407340D01*
X105009104Y-86407338D01*
X104926174Y-86347087D01*
X104715802Y-86239897D01*
X104491247Y-86166934D01*
X104491248Y-86166934D01*
X104258052Y-86130000D01*
X104021948Y-86130000D01*
X103788752Y-86166934D01*
X103564197Y-86239897D01*
X103353830Y-86347084D01*
X103270894Y-86407340D01*
X103969766Y-87106212D01*
X103927708Y-87117482D01*
X103802292Y-87189890D01*
X103699890Y-87292292D01*
X103627482Y-87417708D01*
X103616212Y-87459766D01*
X102917340Y-86760894D01*
X102857084Y-86843830D01*
X102749897Y-87054197D01*
X102676934Y-87278752D01*
X102640000Y-87511947D01*
X99140000Y-87511947D01*
X99103065Y-87278752D01*
X99030102Y-87054197D01*
X98922914Y-86843828D01*
X98862658Y-86760894D01*
X98862658Y-86760893D01*
X98163787Y-87459765D01*
X98152518Y-87417708D01*
X98080110Y-87292292D01*
X97977708Y-87189890D01*
X97852292Y-87117482D01*
X97810234Y-87106212D01*
X98509105Y-86407340D01*
X98509104Y-86407339D01*
X98426174Y-86347087D01*
X98215802Y-86239897D01*
X97991247Y-86166934D01*
X97991248Y-86166934D01*
X97758052Y-86130000D01*
X97521948Y-86130000D01*
X97288752Y-86166934D01*
X97064197Y-86239897D01*
X96853830Y-86347084D01*
X96770894Y-86407340D01*
X97469766Y-87106212D01*
X97427708Y-87117482D01*
X97302292Y-87189890D01*
X97199890Y-87292292D01*
X97127482Y-87417708D01*
X97116212Y-87459766D01*
X96417340Y-86760894D01*
X96357084Y-86843830D01*
X96249897Y-87054197D01*
X96176934Y-87278752D01*
X96140000Y-87511947D01*
X87644836Y-87511947D01*
X87627989Y-87405582D01*
X87564755Y-87210968D01*
X87471859Y-87028650D01*
X87439474Y-86984077D01*
X87439474Y-86984076D01*
X86760000Y-87663551D01*
X86760000Y-87657339D01*
X86732741Y-87555606D01*
X86680080Y-87464394D01*
X86605606Y-87389920D01*
X86514394Y-87337259D01*
X86412661Y-87310000D01*
X86406446Y-87310000D01*
X87085922Y-86630524D01*
X87085921Y-86630523D01*
X87041359Y-86598147D01*
X87041350Y-86598141D01*
X86859031Y-86505244D01*
X86664417Y-86442009D01*
X86462317Y-86410000D01*
X86257683Y-86410000D01*
X86055582Y-86442009D01*
X85860968Y-86505244D01*
X85678644Y-86598143D01*
X85634077Y-86630523D01*
X85634077Y-86630524D01*
X86313554Y-87310000D01*
X86307339Y-87310000D01*
X86205606Y-87337259D01*
X86114394Y-87389920D01*
X86039920Y-87464394D01*
X85987259Y-87555606D01*
X85960000Y-87657339D01*
X85960000Y-87663553D01*
X85280524Y-86984077D01*
X85280523Y-86984077D01*
X85248143Y-87028644D01*
X85155244Y-87210968D01*
X85092009Y-87405582D01*
X85060000Y-87607682D01*
X80535171Y-87607682D01*
X80534850Y-87600192D01*
X80546445Y-87580326D01*
X80553865Y-87558555D01*
X80564567Y-87549280D01*
X80570073Y-87539850D01*
X80598920Y-87519515D01*
X80613773Y-87511947D01*
X80691610Y-87472287D01*
X80766732Y-87417708D01*
X80857213Y-87351971D01*
X80857215Y-87351968D01*
X80857219Y-87351966D01*
X81001966Y-87207219D01*
X81001968Y-87207215D01*
X81001971Y-87207213D01*
X81094395Y-87080000D01*
X81122287Y-87041610D01*
X81215220Y-86859219D01*
X81278477Y-86664534D01*
X81310500Y-86462352D01*
X81310500Y-86257648D01*
X81278477Y-86055466D01*
X81215220Y-85860781D01*
X81215218Y-85860778D01*
X81215218Y-85860776D01*
X81181503Y-85794607D01*
X81122287Y-85678390D01*
X81114556Y-85667749D01*
X81001971Y-85512786D01*
X80857213Y-85368028D01*
X80691614Y-85247715D01*
X80685006Y-85244348D01*
X80598917Y-85200483D01*
X80548123Y-85152511D01*
X80531328Y-85084690D01*
X80553865Y-85018555D01*
X80598917Y-84979516D01*
X80691610Y-84932287D01*
X80712770Y-84916913D01*
X80857213Y-84811971D01*
X80857215Y-84811968D01*
X80857219Y-84811966D01*
X81001966Y-84667219D01*
X81001968Y-84667215D01*
X81001971Y-84667213D01*
X81057505Y-84590776D01*
X81122287Y-84501610D01*
X81215220Y-84319219D01*
X81278477Y-84124534D01*
X81310500Y-83922352D01*
X81310500Y-83717648D01*
X81278477Y-83515466D01*
X81215220Y-83320781D01*
X81215218Y-83320778D01*
X81215218Y-83320776D01*
X81169787Y-83231614D01*
X81122287Y-83138390D01*
X81114556Y-83127749D01*
X81001971Y-82972786D01*
X80857213Y-82828028D01*
X80691614Y-82707715D01*
X80685006Y-82704348D01*
X80598917Y-82660483D01*
X80592978Y-82654874D01*
X80585209Y-82652349D01*
X85059499Y-82652349D01*
X85091522Y-82854534D01*
X85154781Y-83049223D01*
X85247715Y-83231613D01*
X85368028Y-83397213D01*
X85512786Y-83541971D01*
X85667749Y-83654556D01*
X85678390Y-83662287D01*
X85771080Y-83709515D01*
X85860776Y-83755218D01*
X85860778Y-83755218D01*
X85860781Y-83755220D01*
X85965137Y-83789127D01*
X86055465Y-83818477D01*
X86074697Y-83821523D01*
X86257648Y-83850500D01*
X86257649Y-83850500D01*
X86462351Y-83850500D01*
X86462352Y-83850500D01*
X86664534Y-83818477D01*
X86859219Y-83755220D01*
X87041610Y-83662287D01*
X87134590Y-83594732D01*
X87207213Y-83541971D01*
X87207215Y-83541968D01*
X87207219Y-83541966D01*
X87351966Y-83397219D01*
X87351968Y-83397215D01*
X87351971Y-83397213D01*
X87472284Y-83231614D01*
X87472285Y-83231613D01*
X87472287Y-83231610D01*
X87479117Y-83218204D01*
X87527091Y-83167409D01*
X87589602Y-83150500D01*
X90210398Y-83150500D01*
X90277437Y-83170185D01*
X90320883Y-83218205D01*
X90327715Y-83231614D01*
X90448028Y-83397213D01*
X90592786Y-83541971D01*
X90747749Y-83654556D01*
X90758390Y-83662287D01*
X90849840Y-83708883D01*
X90851080Y-83709515D01*
X90901876Y-83757490D01*
X90918671Y-83825311D01*
X90896134Y-83891446D01*
X90851080Y-83930485D01*
X90758386Y-83977715D01*
X90592786Y-84098028D01*
X90448028Y-84242786D01*
X90327715Y-84408386D01*
X90234781Y-84590776D01*
X90171522Y-84785465D01*
X90139500Y-84987648D01*
X90139500Y-85192351D01*
X90171522Y-85394534D01*
X90234781Y-85589223D01*
X90290971Y-85699500D01*
X90311822Y-85740423D01*
X90327715Y-85771613D01*
X90448028Y-85937213D01*
X90592786Y-86081971D01*
X90709730Y-86166934D01*
X90758390Y-86202287D01*
X90832204Y-86239897D01*
X90940776Y-86295218D01*
X90940778Y-86295218D01*
X90940781Y-86295220D01*
X91045137Y-86329127D01*
X91135465Y-86358477D01*
X91236557Y-86374488D01*
X91337648Y-86390500D01*
X91337649Y-86390500D01*
X91542351Y-86390500D01*
X91542352Y-86390500D01*
X91744534Y-86358477D01*
X91939219Y-86295220D01*
X92121610Y-86202287D01*
X92221105Y-86130000D01*
X92287213Y-86081971D01*
X92287215Y-86081968D01*
X92287219Y-86081966D01*
X92431966Y-85937219D01*
X92431968Y-85937215D01*
X92431971Y-85937213D01*
X92517507Y-85819481D01*
X92552287Y-85771610D01*
X92645220Y-85589219D01*
X92708477Y-85394534D01*
X92740500Y-85192352D01*
X92740500Y-84987648D01*
X92708477Y-84785466D01*
X92645220Y-84590781D01*
X92645218Y-84590778D01*
X92645218Y-84590776D01*
X92611503Y-84524607D01*
X92552287Y-84408390D01*
X92544556Y-84397749D01*
X92431971Y-84242786D01*
X92287213Y-84098028D01*
X92121614Y-83977715D01*
X92115006Y-83974348D01*
X92028917Y-83930483D01*
X91978123Y-83882511D01*
X91961328Y-83814690D01*
X91983865Y-83748555D01*
X92028917Y-83709516D01*
X92121610Y-83662287D01*
X92142770Y-83646913D01*
X92287213Y-83541971D01*
X92287215Y-83541968D01*
X92287219Y-83541966D01*
X92431966Y-83397219D01*
X92431968Y-83397215D01*
X92431971Y-83397213D01*
X92552284Y-83231614D01*
X92552285Y-83231613D01*
X92552287Y-83231610D01*
X92559117Y-83218204D01*
X92607091Y-83167409D01*
X92669602Y-83150500D01*
X96671726Y-83150500D01*
X96738765Y-83170185D01*
X96744602Y-83174175D01*
X96853567Y-83253343D01*
X96952991Y-83304002D01*
X97064003Y-83360566D01*
X97064005Y-83360566D01*
X97064008Y-83360568D01*
X97176789Y-83397213D01*
X97288631Y-83433553D01*
X97521903Y-83470500D01*
X97521908Y-83470500D01*
X97758097Y-83470500D01*
X97991368Y-83433553D01*
X98215992Y-83360568D01*
X98426433Y-83253343D01*
X98617510Y-83114517D01*
X98784517Y-82947510D01*
X98923343Y-82756433D01*
X98983583Y-82638204D01*
X99031558Y-82587409D01*
X99094068Y-82570500D01*
X102685932Y-82570500D01*
X102752971Y-82590185D01*
X102796416Y-82638203D01*
X102856657Y-82756433D01*
X102995483Y-82947510D01*
X103162490Y-83114517D01*
X103353567Y-83253343D01*
X103452991Y-83304002D01*
X103564003Y-83360566D01*
X103564005Y-83360566D01*
X103564008Y-83360568D01*
X103676789Y-83397213D01*
X103788631Y-83433553D01*
X104021903Y-83470500D01*
X104021908Y-83470500D01*
X104258097Y-83470500D01*
X104491368Y-83433553D01*
X104715992Y-83360568D01*
X104926433Y-83253343D01*
X105117510Y-83114517D01*
X105284517Y-82947510D01*
X105423343Y-82756433D01*
X105530568Y-82545992D01*
X105603553Y-82321368D01*
X105611377Y-82271971D01*
X105640500Y-82088097D01*
X105640500Y-81851902D01*
X105603553Y-81618631D01*
X105544769Y-81437715D01*
X105530568Y-81394008D01*
X105530566Y-81394005D01*
X105530566Y-81394003D01*
X105473254Y-81281522D01*
X105423343Y-81183567D01*
X105284517Y-80992490D01*
X105117510Y-80825483D01*
X104926433Y-80686657D01*
X104715996Y-80579433D01*
X104491368Y-80506446D01*
X104258097Y-80469500D01*
X104258092Y-80469500D01*
X104021908Y-80469500D01*
X104021903Y-80469500D01*
X103788631Y-80506446D01*
X103564003Y-80579433D01*
X103353566Y-80686657D01*
X103244550Y-80765862D01*
X103162490Y-80825483D01*
X103162488Y-80825485D01*
X103162487Y-80825485D01*
X102995485Y-80992487D01*
X102995485Y-80992488D01*
X102995483Y-80992490D01*
X102935862Y-81074550D01*
X102856657Y-81183566D01*
X102796417Y-81301795D01*
X102748442Y-81352591D01*
X102685932Y-81369500D01*
X99094068Y-81369500D01*
X99027029Y-81349815D01*
X98983583Y-81301795D01*
X98973254Y-81281523D01*
X98923343Y-81183567D01*
X98784517Y-80992490D01*
X98617510Y-80825483D01*
X98426433Y-80686657D01*
X98215996Y-80579433D01*
X97991368Y-80506446D01*
X97758097Y-80469500D01*
X97758092Y-80469500D01*
X97521908Y-80469500D01*
X97521903Y-80469500D01*
X97288631Y-80506446D01*
X97064003Y-80579433D01*
X96853566Y-80686657D01*
X96744550Y-80765862D01*
X96662490Y-80825483D01*
X96662488Y-80825485D01*
X96662487Y-80825485D01*
X96495485Y-80992487D01*
X96495485Y-80992488D01*
X96495483Y-80992490D01*
X96435862Y-81074550D01*
X96356657Y-81183566D01*
X96249433Y-81394003D01*
X96176446Y-81618631D01*
X96140609Y-81844898D01*
X96110680Y-81908033D01*
X96051368Y-81944964D01*
X96018136Y-81949500D01*
X92669602Y-81949500D01*
X92602563Y-81929815D01*
X92559117Y-81881795D01*
X92552284Y-81868385D01*
X92431971Y-81702786D01*
X92287213Y-81558028D01*
X92121613Y-81437715D01*
X92121612Y-81437714D01*
X92121610Y-81437713D01*
X92064653Y-81408691D01*
X91939223Y-81344781D01*
X91744534Y-81281522D01*
X91569995Y-81253878D01*
X91542352Y-81249500D01*
X91337648Y-81249500D01*
X91313329Y-81253351D01*
X91135465Y-81281522D01*
X90940776Y-81344781D01*
X90758386Y-81437715D01*
X90592786Y-81558028D01*
X90448028Y-81702786D01*
X90327715Y-81868385D01*
X90320883Y-81881795D01*
X90272909Y-81932591D01*
X90210398Y-81949500D01*
X87589602Y-81949500D01*
X87522563Y-81929815D01*
X87479117Y-81881795D01*
X87472284Y-81868385D01*
X87351971Y-81702786D01*
X87207213Y-81558028D01*
X87041613Y-81437715D01*
X87041612Y-81437714D01*
X87041610Y-81437713D01*
X86984653Y-81408691D01*
X86859223Y-81344781D01*
X86664534Y-81281522D01*
X86489995Y-81253878D01*
X86462352Y-81249500D01*
X86257648Y-81249500D01*
X86233329Y-81253351D01*
X86055465Y-81281522D01*
X85860776Y-81344781D01*
X85678386Y-81437715D01*
X85512786Y-81558028D01*
X85368028Y-81702786D01*
X85247715Y-81868386D01*
X85154781Y-82050776D01*
X85091522Y-82245465D01*
X85059500Y-82447648D01*
X85059500Y-82652349D01*
X85059499Y-82652349D01*
X80585209Y-82652349D01*
X80567950Y-82631237D01*
X80548123Y-82612511D01*
X80546158Y-82604579D01*
X80540988Y-82598254D01*
X80537883Y-82571160D01*
X80531328Y-82544690D01*
X80533963Y-82536956D01*
X80533033Y-82528839D01*
X80545068Y-82504369D01*
X80553865Y-82478555D01*
X80561058Y-82471858D01*
X80563870Y-82466142D01*
X80581972Y-82452389D01*
X80591195Y-82443804D01*
X80594976Y-82441524D01*
X80691610Y-82392287D01*
X80857219Y-82271966D01*
X81001966Y-82127219D01*
X81001968Y-82127215D01*
X81001971Y-82127213D01*
X81057505Y-82050776D01*
X81122287Y-81961610D01*
X81215220Y-81779219D01*
X81278477Y-81584534D01*
X81310500Y-81382352D01*
X81310500Y-81177648D01*
X81278477Y-80975465D01*
X81229745Y-80825485D01*
X81215220Y-80780781D01*
X81215218Y-80780778D01*
X81215218Y-80780776D01*
X81167261Y-80686657D01*
X81122287Y-80598390D01*
X81108513Y-80579432D01*
X81001971Y-80432786D01*
X80857213Y-80288028D01*
X80691614Y-80167715D01*
X80685006Y-80164348D01*
X80598917Y-80120483D01*
X80548123Y-80072511D01*
X80531328Y-80004690D01*
X80553865Y-79938555D01*
X80598917Y-79899516D01*
X80691610Y-79852287D01*
X80712770Y-79836913D01*
X80857213Y-79731971D01*
X80857215Y-79731968D01*
X80857219Y-79731966D01*
X81001966Y-79587219D01*
X81001968Y-79587215D01*
X81001971Y-79587213D01*
X81054732Y-79514590D01*
X81122287Y-79421610D01*
X81215220Y-79239219D01*
X81278477Y-79044534D01*
X81310500Y-78842352D01*
X81310500Y-78637648D01*
X81278477Y-78435466D01*
X81215220Y-78240781D01*
X81215218Y-78240778D01*
X81215218Y-78240776D01*
X81181503Y-78174607D01*
X81122287Y-78058390D01*
X81113141Y-78045802D01*
X81001971Y-77892786D01*
X80857213Y-77748028D01*
X80691614Y-77627715D01*
X80685006Y-77624348D01*
X80598917Y-77580483D01*
X80589764Y-77571838D01*
X80578099Y-77567104D01*
X80564847Y-77548306D01*
X80548123Y-77532511D01*
X80545096Y-77520288D01*
X80537842Y-77509998D01*
X80536856Y-77487017D01*
X80531328Y-77464690D01*
X80535389Y-77452772D01*
X80535171Y-77447682D01*
X85060000Y-77447682D01*
X85060000Y-77652317D01*
X85092009Y-77854417D01*
X85155244Y-78049031D01*
X85248141Y-78231350D01*
X85248147Y-78231359D01*
X85280523Y-78275921D01*
X85280524Y-78275922D01*
X85960000Y-77596446D01*
X85960000Y-77602661D01*
X85987259Y-77704394D01*
X86039920Y-77795606D01*
X86114394Y-77870080D01*
X86205606Y-77922741D01*
X86307339Y-77950000D01*
X86313553Y-77950000D01*
X85634076Y-78629474D01*
X85678650Y-78661859D01*
X85860968Y-78754755D01*
X86055582Y-78817990D01*
X86257683Y-78850000D01*
X86462317Y-78850000D01*
X86664417Y-78817990D01*
X86859031Y-78754755D01*
X87041349Y-78661859D01*
X87085921Y-78629475D01*
X87085921Y-78629473D01*
X86406447Y-77950000D01*
X86412661Y-77950000D01*
X86514394Y-77922741D01*
X86605606Y-77870080D01*
X86680080Y-77795606D01*
X86732741Y-77704394D01*
X86760000Y-77602661D01*
X86760000Y-77596447D01*
X87439474Y-78275921D01*
X87471859Y-78231349D01*
X87564755Y-78049031D01*
X87627990Y-77854417D01*
X87660000Y-77652317D01*
X87660000Y-77447683D01*
X87647137Y-77366474D01*
X87647137Y-77366473D01*
X87644836Y-77351947D01*
X96140000Y-77351947D01*
X96140000Y-77588052D01*
X96176934Y-77821247D01*
X96249897Y-78045802D01*
X96357087Y-78256174D01*
X96417338Y-78339104D01*
X96417340Y-78339105D01*
X97116212Y-77640233D01*
X97127482Y-77682292D01*
X97199890Y-77807708D01*
X97302292Y-77910110D01*
X97427708Y-77982518D01*
X97469765Y-77993787D01*
X96770893Y-78692658D01*
X96853828Y-78752914D01*
X97064197Y-78860102D01*
X97288752Y-78933065D01*
X97288751Y-78933065D01*
X97521948Y-78970000D01*
X97758052Y-78970000D01*
X97991247Y-78933065D01*
X98215802Y-78860102D01*
X98426163Y-78752918D01*
X98426169Y-78752914D01*
X98509104Y-78692658D01*
X98509105Y-78692658D01*
X97810233Y-77993787D01*
X97852292Y-77982518D01*
X97977708Y-77910110D01*
X98080110Y-77807708D01*
X98152518Y-77682292D01*
X98163787Y-77640233D01*
X98862658Y-78339105D01*
X98862658Y-78339104D01*
X98922914Y-78256169D01*
X98922918Y-78256163D01*
X99030102Y-78045802D01*
X99103065Y-77821247D01*
X99140000Y-77588052D01*
X99140000Y-77351947D01*
X102640000Y-77351947D01*
X102640000Y-77588052D01*
X102676934Y-77821247D01*
X102749897Y-78045802D01*
X102857087Y-78256174D01*
X102917338Y-78339104D01*
X102917340Y-78339105D01*
X103616212Y-77640233D01*
X103627482Y-77682292D01*
X103699890Y-77807708D01*
X103802292Y-77910110D01*
X103927708Y-77982518D01*
X103969765Y-77993787D01*
X103270893Y-78692658D01*
X103353828Y-78752914D01*
X103564197Y-78860102D01*
X103788752Y-78933065D01*
X103788751Y-78933065D01*
X104021948Y-78970000D01*
X104258052Y-78970000D01*
X104491247Y-78933065D01*
X104715802Y-78860102D01*
X104926163Y-78752918D01*
X104926169Y-78752914D01*
X105009104Y-78692658D01*
X105009105Y-78692658D01*
X104310233Y-77993787D01*
X104352292Y-77982518D01*
X104477708Y-77910110D01*
X104580110Y-77807708D01*
X104652518Y-77682292D01*
X104663787Y-77640234D01*
X105362658Y-78339105D01*
X105362658Y-78339104D01*
X105422914Y-78256169D01*
X105422918Y-78256163D01*
X105530102Y-78045802D01*
X105603065Y-77821247D01*
X105640000Y-77588052D01*
X105640000Y-77351947D01*
X105603065Y-77118752D01*
X105530102Y-76894197D01*
X105422914Y-76683828D01*
X105362658Y-76600894D01*
X105362658Y-76600893D01*
X104663787Y-77299765D01*
X104652518Y-77257708D01*
X104580110Y-77132292D01*
X104477708Y-77029890D01*
X104352292Y-76957482D01*
X104310234Y-76946212D01*
X105009105Y-76247340D01*
X105009104Y-76247338D01*
X104926174Y-76187087D01*
X104715802Y-76079897D01*
X104491247Y-76006934D01*
X104491248Y-76006934D01*
X104258052Y-75970000D01*
X104021948Y-75970000D01*
X103788752Y-76006934D01*
X103564197Y-76079897D01*
X103353830Y-76187084D01*
X103270894Y-76247340D01*
X103969766Y-76946212D01*
X103927708Y-76957482D01*
X103802292Y-77029890D01*
X103699890Y-77132292D01*
X103627482Y-77257708D01*
X103616212Y-77299766D01*
X102917340Y-76600894D01*
X102857084Y-76683830D01*
X102749897Y-76894197D01*
X102676934Y-77118752D01*
X102640000Y-77351947D01*
X99140000Y-77351947D01*
X99103065Y-77118752D01*
X99030102Y-76894197D01*
X98922914Y-76683828D01*
X98862658Y-76600894D01*
X98862658Y-76600893D01*
X98163787Y-77299765D01*
X98152518Y-77257708D01*
X98080110Y-77132292D01*
X97977708Y-77029890D01*
X97852292Y-76957482D01*
X97810234Y-76946212D01*
X98509105Y-76247340D01*
X98509104Y-76247339D01*
X98426174Y-76187087D01*
X98215802Y-76079897D01*
X97991247Y-76006934D01*
X97991248Y-76006934D01*
X97758052Y-75970000D01*
X97521948Y-75970000D01*
X97288752Y-76006934D01*
X97064197Y-76079897D01*
X96853830Y-76187084D01*
X96770894Y-76247340D01*
X97469766Y-76946212D01*
X97427708Y-76957482D01*
X97302292Y-77029890D01*
X97199890Y-77132292D01*
X97127482Y-77257708D01*
X97116212Y-77299766D01*
X96417340Y-76600894D01*
X96357084Y-76683830D01*
X96249897Y-76894197D01*
X96176934Y-77118752D01*
X96140000Y-77351947D01*
X87644836Y-77351947D01*
X87627989Y-77245582D01*
X87564755Y-77050968D01*
X87471859Y-76868650D01*
X87439474Y-76824077D01*
X87439474Y-76824076D01*
X86760000Y-77503551D01*
X86760000Y-77497339D01*
X86732741Y-77395606D01*
X86680080Y-77304394D01*
X86605606Y-77229920D01*
X86514394Y-77177259D01*
X86412661Y-77150000D01*
X86406446Y-77150000D01*
X87085922Y-76470524D01*
X87085921Y-76470523D01*
X87041359Y-76438147D01*
X87041350Y-76438141D01*
X86859031Y-76345244D01*
X86664417Y-76282009D01*
X86462317Y-76250000D01*
X86257683Y-76250000D01*
X86055582Y-76282009D01*
X85860968Y-76345244D01*
X85678644Y-76438143D01*
X85634077Y-76470523D01*
X85634077Y-76470524D01*
X86313554Y-77150000D01*
X86307339Y-77150000D01*
X86205606Y-77177259D01*
X86114394Y-77229920D01*
X86039920Y-77304394D01*
X85987259Y-77395606D01*
X85960000Y-77497339D01*
X85960000Y-77503553D01*
X85280524Y-76824077D01*
X85280523Y-76824077D01*
X85248143Y-76868644D01*
X85155244Y-77050968D01*
X85092009Y-77245582D01*
X85060000Y-77447682D01*
X80535171Y-77447682D01*
X80534850Y-77440192D01*
X80546445Y-77420326D01*
X80553865Y-77398555D01*
X80564567Y-77389280D01*
X80570073Y-77379850D01*
X80598920Y-77359515D01*
X80613773Y-77351947D01*
X80691610Y-77312287D01*
X80766732Y-77257708D01*
X80857213Y-77191971D01*
X80857215Y-77191968D01*
X80857219Y-77191966D01*
X81001966Y-77047219D01*
X81001968Y-77047215D01*
X81001971Y-77047213D01*
X81094395Y-76920000D01*
X81122287Y-76881610D01*
X81215220Y-76699219D01*
X81278477Y-76504534D01*
X81310500Y-76302352D01*
X81310500Y-76097648D01*
X81278477Y-75895466D01*
X81215220Y-75700781D01*
X81215218Y-75700778D01*
X81215218Y-75700776D01*
X81181503Y-75634607D01*
X81122287Y-75518390D01*
X81114556Y-75507749D01*
X81001971Y-75352786D01*
X80857213Y-75208028D01*
X80691614Y-75087715D01*
X80685006Y-75084348D01*
X80598917Y-75040483D01*
X80592978Y-75034874D01*
X80585209Y-75032349D01*
X90139499Y-75032349D01*
X90171522Y-75234534D01*
X90234781Y-75429223D01*
X90327715Y-75611613D01*
X90448028Y-75777213D01*
X90592786Y-75921971D01*
X90709730Y-76006934D01*
X90758390Y-76042287D01*
X90832204Y-76079897D01*
X90940776Y-76135218D01*
X90940778Y-76135218D01*
X90940781Y-76135220D01*
X91045137Y-76169127D01*
X91135465Y-76198477D01*
X91236557Y-76214488D01*
X91337648Y-76230500D01*
X91337649Y-76230500D01*
X91542351Y-76230500D01*
X91542352Y-76230500D01*
X91744534Y-76198477D01*
X91939219Y-76135220D01*
X92121610Y-76042287D01*
X92221105Y-75970000D01*
X92287213Y-75921971D01*
X92287215Y-75921968D01*
X92287219Y-75921966D01*
X92431966Y-75777219D01*
X92431968Y-75777215D01*
X92431971Y-75777213D01*
X92487505Y-75700776D01*
X92552287Y-75611610D01*
X92645220Y-75429219D01*
X92708477Y-75234534D01*
X92740500Y-75032352D01*
X92740500Y-74827648D01*
X92708477Y-74625466D01*
X92645220Y-74430781D01*
X92645218Y-74430778D01*
X92645218Y-74430776D01*
X92611503Y-74364607D01*
X92552287Y-74248390D01*
X92544556Y-74237749D01*
X92431971Y-74082786D01*
X92287213Y-73938028D01*
X92121613Y-73817715D01*
X92121612Y-73817714D01*
X92121610Y-73817713D01*
X92064653Y-73788691D01*
X91939223Y-73724781D01*
X91744534Y-73661522D01*
X91569995Y-73633878D01*
X91542352Y-73629500D01*
X91337648Y-73629500D01*
X91313329Y-73633351D01*
X91135465Y-73661522D01*
X90940776Y-73724781D01*
X90758386Y-73817715D01*
X90592786Y-73938028D01*
X90448028Y-74082786D01*
X90327715Y-74248386D01*
X90234781Y-74430776D01*
X90171522Y-74625465D01*
X90139500Y-74827648D01*
X90139500Y-75032349D01*
X90139499Y-75032349D01*
X80585209Y-75032349D01*
X80567950Y-75011237D01*
X80548123Y-74992511D01*
X80546158Y-74984579D01*
X80540988Y-74978254D01*
X80537883Y-74951160D01*
X80531328Y-74924690D01*
X80533963Y-74916956D01*
X80533033Y-74908839D01*
X80545068Y-74884369D01*
X80553865Y-74858555D01*
X80561058Y-74851858D01*
X80563870Y-74846142D01*
X80581972Y-74832389D01*
X80591195Y-74823804D01*
X80594976Y-74821524D01*
X80691610Y-74772287D01*
X80857219Y-74651966D01*
X81001966Y-74507219D01*
X81001968Y-74507215D01*
X81001971Y-74507213D01*
X81057505Y-74430776D01*
X81122287Y-74341610D01*
X81215220Y-74159219D01*
X81278477Y-73964534D01*
X81310500Y-73762352D01*
X81310500Y-73557648D01*
X81278477Y-73355466D01*
X81215220Y-73160781D01*
X81215218Y-73160778D01*
X81215218Y-73160776D01*
X81181503Y-73094607D01*
X81122287Y-72978390D01*
X81114556Y-72967749D01*
X81001971Y-72812786D01*
X80857213Y-72668028D01*
X80691614Y-72547715D01*
X80685006Y-72544348D01*
X80598917Y-72500483D01*
X80548123Y-72452511D01*
X80531328Y-72384690D01*
X80553865Y-72318555D01*
X80598917Y-72279516D01*
X80691610Y-72232287D01*
X80712770Y-72216913D01*
X80857213Y-72111971D01*
X80857215Y-72111968D01*
X80857219Y-72111966D01*
X81001966Y-71967219D01*
X81001968Y-71967215D01*
X81001971Y-71967213D01*
X81054732Y-71894590D01*
X81122287Y-71801610D01*
X81215220Y-71619219D01*
X81278477Y-71424534D01*
X81310500Y-71222352D01*
X81310500Y-71017648D01*
X81278477Y-70815466D01*
X81215220Y-70620781D01*
X81215218Y-70620778D01*
X81215218Y-70620776D01*
X81181503Y-70554607D01*
X81122287Y-70438390D01*
X81114556Y-70427749D01*
X81001971Y-70272786D01*
X80857213Y-70128028D01*
X80691614Y-70007715D01*
X80685006Y-70004348D01*
X80598917Y-69960483D01*
X80548123Y-69912511D01*
X80531328Y-69844690D01*
X80553865Y-69778555D01*
X80598917Y-69739516D01*
X80691610Y-69692287D01*
X80712770Y-69676913D01*
X80857213Y-69571971D01*
X80857215Y-69571968D01*
X80857219Y-69571966D01*
X81001966Y-69427219D01*
X81001968Y-69427215D01*
X81001971Y-69427213D01*
X81122284Y-69261614D01*
X81122285Y-69261613D01*
X81122287Y-69261610D01*
X81129117Y-69248204D01*
X81177091Y-69197409D01*
X81239602Y-69180500D01*
X83860398Y-69180500D01*
X83927437Y-69200185D01*
X83970883Y-69248205D01*
X83977715Y-69261614D01*
X84098028Y-69427213D01*
X84242786Y-69571971D01*
X84397749Y-69684556D01*
X84408390Y-69692287D01*
X84501080Y-69739515D01*
X84590776Y-69785218D01*
X84590778Y-69785218D01*
X84590781Y-69785220D01*
X84695137Y-69819127D01*
X84785465Y-69848477D01*
X84804697Y-69851523D01*
X84987648Y-69880500D01*
X84987649Y-69880500D01*
X85192351Y-69880500D01*
X85192352Y-69880500D01*
X85394534Y-69848477D01*
X85589219Y-69785220D01*
X85771610Y-69692287D01*
X85916005Y-69587379D01*
X85937213Y-69571971D01*
X85937215Y-69571968D01*
X85937219Y-69571966D01*
X86081966Y-69427219D01*
X86081968Y-69427215D01*
X86081971Y-69427213D01*
X86164207Y-69314023D01*
X86202287Y-69261610D01*
X86295220Y-69079219D01*
X86358477Y-68884534D01*
X86390500Y-68682352D01*
X86390500Y-68477648D01*
X91409500Y-68477648D01*
X91409500Y-68682351D01*
X91441522Y-68884534D01*
X91504781Y-69079223D01*
X91556385Y-69180500D01*
X91590882Y-69248204D01*
X91597715Y-69261613D01*
X91718028Y-69427213D01*
X91862786Y-69571971D01*
X92017749Y-69684556D01*
X92028390Y-69692287D01*
X92121080Y-69739515D01*
X92210776Y-69785218D01*
X92210778Y-69785218D01*
X92210781Y-69785220D01*
X92315137Y-69819127D01*
X92405465Y-69848477D01*
X92424697Y-69851523D01*
X92607648Y-69880500D01*
X92607649Y-69880500D01*
X92812351Y-69880500D01*
X92812352Y-69880500D01*
X93014534Y-69848477D01*
X93209219Y-69785220D01*
X93391610Y-69692287D01*
X93536005Y-69587379D01*
X93557213Y-69571971D01*
X93557215Y-69571968D01*
X93557219Y-69571966D01*
X93701966Y-69427219D01*
X93701968Y-69427215D01*
X93701971Y-69427213D01*
X93822284Y-69261614D01*
X93822285Y-69261613D01*
X93822287Y-69261610D01*
X93829117Y-69248204D01*
X93877091Y-69197409D01*
X93939602Y-69180500D01*
X96448164Y-69180500D01*
X96515203Y-69200185D01*
X96558648Y-69248204D01*
X96592185Y-69314023D01*
X96721752Y-69492358D01*
X96721756Y-69492363D01*
X96877636Y-69648243D01*
X96877641Y-69648247D01*
X97003262Y-69739515D01*
X97055978Y-69777815D01*
X97172501Y-69837187D01*
X97252393Y-69877895D01*
X97252396Y-69877896D01*
X97357221Y-69911955D01*
X97462049Y-69946015D01*
X97679778Y-69980500D01*
X97679779Y-69980500D01*
X97900221Y-69980500D01*
X97900222Y-69980500D01*
X98117951Y-69946015D01*
X98327606Y-69877895D01*
X98524022Y-69777815D01*
X98702365Y-69648242D01*
X98752924Y-69597682D01*
X98814245Y-69564198D01*
X98883936Y-69569182D01*
X98939870Y-69611053D01*
X98956786Y-69642030D01*
X98986646Y-69722087D01*
X98986649Y-69722093D01*
X99072809Y-69837187D01*
X99072812Y-69837190D01*
X99187906Y-69923350D01*
X99187913Y-69923354D01*
X99322620Y-69973596D01*
X99322627Y-69973598D01*
X99382155Y-69979999D01*
X99382172Y-69980000D01*
X100080000Y-69980000D01*
X100080000Y-68955277D01*
X100156306Y-68999333D01*
X100270756Y-69030000D01*
X100389244Y-69030000D01*
X100503694Y-68999333D01*
X100580000Y-68955277D01*
X100580000Y-69980000D01*
X101277828Y-69980000D01*
X101277844Y-69979999D01*
X101337372Y-69973598D01*
X101337379Y-69973596D01*
X101472086Y-69923354D01*
X101472093Y-69923350D01*
X101587187Y-69837190D01*
X101587190Y-69837187D01*
X101673350Y-69722093D01*
X101673354Y-69722086D01*
X101723596Y-69587379D01*
X101723598Y-69587372D01*
X101729999Y-69527844D01*
X101730000Y-69527827D01*
X101730000Y-68830000D01*
X100705278Y-68830000D01*
X100749333Y-68753694D01*
X100780000Y-68639244D01*
X100780000Y-68520756D01*
X100749333Y-68406306D01*
X100705278Y-68330000D01*
X101730000Y-68330000D01*
X101730000Y-67632172D01*
X101729999Y-67632155D01*
X101723598Y-67572627D01*
X101723596Y-67572620D01*
X101673354Y-67437913D01*
X101673350Y-67437906D01*
X101587190Y-67322812D01*
X101587187Y-67322809D01*
X101472093Y-67236649D01*
X101472086Y-67236645D01*
X101337379Y-67186403D01*
X101337372Y-67186401D01*
X101277844Y-67180000D01*
X100580000Y-67180000D01*
X100580000Y-68204722D01*
X100503694Y-68160667D01*
X100389244Y-68130000D01*
X100270756Y-68130000D01*
X100156306Y-68160667D01*
X100080000Y-68204722D01*
X100080000Y-67180000D01*
X99382155Y-67180000D01*
X99322627Y-67186401D01*
X99322620Y-67186403D01*
X99187913Y-67236645D01*
X99187906Y-67236649D01*
X99072812Y-67322809D01*
X99072809Y-67322812D01*
X98986649Y-67437906D01*
X98986643Y-67437918D01*
X98956785Y-67517969D01*
X98914914Y-67573903D01*
X98849449Y-67598319D01*
X98781176Y-67583467D01*
X98752923Y-67562316D01*
X98702363Y-67511756D01*
X98702358Y-67511752D01*
X98524025Y-67382187D01*
X98524024Y-67382186D01*
X98524022Y-67382185D01*
X98461096Y-67350122D01*
X98327606Y-67282104D01*
X98327603Y-67282103D01*
X98117952Y-67213985D01*
X98009086Y-67196742D01*
X97900222Y-67179500D01*
X97679778Y-67179500D01*
X97607201Y-67190995D01*
X97462047Y-67213985D01*
X97252396Y-67282103D01*
X97252393Y-67282104D01*
X97055974Y-67382187D01*
X96877641Y-67511752D01*
X96877636Y-67511756D01*
X96721756Y-67667636D01*
X96721752Y-67667641D01*
X96592185Y-67845976D01*
X96558648Y-67911796D01*
X96510674Y-67962591D01*
X96448164Y-67979500D01*
X93939602Y-67979500D01*
X93872563Y-67959815D01*
X93829117Y-67911795D01*
X93822284Y-67898385D01*
X93701971Y-67732786D01*
X93557213Y-67588028D01*
X93391613Y-67467715D01*
X93391612Y-67467714D01*
X93391610Y-67467713D01*
X93333111Y-67437906D01*
X93209223Y-67374781D01*
X93014534Y-67311522D01*
X92828799Y-67282105D01*
X92812352Y-67279500D01*
X92607648Y-67279500D01*
X92591201Y-67282105D01*
X92405465Y-67311522D01*
X92210776Y-67374781D01*
X92028386Y-67467715D01*
X91862786Y-67588028D01*
X91718028Y-67732786D01*
X91597715Y-67898386D01*
X91504781Y-68080776D01*
X91441522Y-68275465D01*
X91409500Y-68477648D01*
X86390500Y-68477648D01*
X86358477Y-68275465D01*
X86329127Y-68185137D01*
X86295220Y-68080781D01*
X86295218Y-68080778D01*
X86295218Y-68080776D01*
X86261503Y-68014607D01*
X86202287Y-67898390D01*
X86164208Y-67845978D01*
X86081971Y-67732786D01*
X85937213Y-67588028D01*
X85771613Y-67467715D01*
X85771612Y-67467714D01*
X85771610Y-67467713D01*
X85713111Y-67437906D01*
X85589223Y-67374781D01*
X85394534Y-67311522D01*
X85208799Y-67282105D01*
X85192352Y-67279500D01*
X84987648Y-67279500D01*
X84971201Y-67282105D01*
X84785465Y-67311522D01*
X84590776Y-67374781D01*
X84408386Y-67467715D01*
X84242786Y-67588028D01*
X84098028Y-67732786D01*
X83977715Y-67898385D01*
X83970883Y-67911795D01*
X83922909Y-67962591D01*
X83860398Y-67979500D01*
X81239602Y-67979500D01*
X81172563Y-67959815D01*
X81129117Y-67911795D01*
X81122284Y-67898385D01*
X81001971Y-67732786D01*
X80857213Y-67588028D01*
X80691613Y-67467715D01*
X80691612Y-67467714D01*
X80691610Y-67467713D01*
X80633111Y-67437906D01*
X80509223Y-67374781D01*
X80314534Y-67311522D01*
X80128799Y-67282105D01*
X80112352Y-67279500D01*
X79907648Y-67279500D01*
X79891201Y-67282105D01*
X79705465Y-67311522D01*
X79510776Y-67374781D01*
X79328386Y-67467715D01*
X79162786Y-67588028D01*
X79018028Y-67732786D01*
X78897715Y-67898386D01*
X78804781Y-68080776D01*
X78741522Y-68275465D01*
X78709500Y-68477648D01*
X78709500Y-68682351D01*
X78741522Y-68884534D01*
X78804781Y-69079223D01*
X78856385Y-69180500D01*
X78890882Y-69248204D01*
X78897715Y-69261613D01*
X79018028Y-69427213D01*
X79162786Y-69571971D01*
X79317749Y-69684556D01*
X79328390Y-69692287D01*
X79419840Y-69738883D01*
X79421080Y-69739515D01*
X79471876Y-69787490D01*
X79488671Y-69855311D01*
X79466134Y-69921446D01*
X79421080Y-69960485D01*
X79328386Y-70007715D01*
X79162786Y-70128028D01*
X79018028Y-70272786D01*
X78897715Y-70438386D01*
X78804781Y-70620776D01*
X78741522Y-70815465D01*
X78709500Y-71017648D01*
X78709500Y-71222351D01*
X78741522Y-71424534D01*
X78804781Y-71619223D01*
X78897715Y-71801613D01*
X79018028Y-71967213D01*
X79162786Y-72111971D01*
X79317749Y-72224556D01*
X79328390Y-72232287D01*
X79419840Y-72278883D01*
X79421080Y-72279515D01*
X79471876Y-72327490D01*
X79488671Y-72395311D01*
X79466134Y-72461446D01*
X79421080Y-72500485D01*
X79328386Y-72547715D01*
X79162786Y-72668028D01*
X79018028Y-72812786D01*
X78897715Y-72978386D01*
X78804781Y-73160776D01*
X78741522Y-73355465D01*
X78709500Y-73557648D01*
X78709500Y-73762351D01*
X78741522Y-73964534D01*
X78804781Y-74159223D01*
X78897715Y-74341613D01*
X79018028Y-74507213D01*
X79162786Y-74651971D01*
X79255500Y-74719330D01*
X79328390Y-74772287D01*
X79419840Y-74818883D01*
X79421080Y-74819515D01*
X79471876Y-74867490D01*
X79488671Y-74935311D01*
X79466134Y-75001446D01*
X79421080Y-75040485D01*
X79328386Y-75087715D01*
X79162786Y-75208028D01*
X79018028Y-75352786D01*
X78897715Y-75518386D01*
X78804781Y-75700776D01*
X78741522Y-75895465D01*
X78709500Y-76097648D01*
X78709500Y-76302351D01*
X78741522Y-76504534D01*
X78804781Y-76699223D01*
X78868398Y-76824076D01*
X78891106Y-76868644D01*
X78897715Y-76881613D01*
X79018028Y-77047213D01*
X79162786Y-77191971D01*
X79317526Y-77304394D01*
X79328390Y-77312287D01*
X79406227Y-77351947D01*
X79421080Y-77359515D01*
X79471876Y-77407490D01*
X79488671Y-77475311D01*
X79466134Y-77541446D01*
X79421080Y-77580485D01*
X79328386Y-77627715D01*
X79162786Y-77748028D01*
X79018028Y-77892786D01*
X78897715Y-78058386D01*
X78804781Y-78240776D01*
X78741522Y-78435465D01*
X78709500Y-78637648D01*
X78709500Y-78842351D01*
X78741522Y-79044534D01*
X78804781Y-79239223D01*
X78897715Y-79421613D01*
X79018028Y-79587213D01*
X79162786Y-79731971D01*
X79317749Y-79844556D01*
X79328390Y-79852287D01*
X79419840Y-79898883D01*
X79421080Y-79899515D01*
X79471876Y-79947490D01*
X79488671Y-80015311D01*
X79466134Y-80081446D01*
X79421080Y-80120485D01*
X79328386Y-80167715D01*
X79162786Y-80288028D01*
X79018028Y-80432786D01*
X78897715Y-80598386D01*
X78804781Y-80780776D01*
X78741522Y-80975465D01*
X78709500Y-81177648D01*
X78709500Y-81382351D01*
X78741522Y-81584534D01*
X78804781Y-81779223D01*
X78841817Y-81851908D01*
X78889231Y-81944964D01*
X78897715Y-81961613D01*
X79018028Y-82127213D01*
X79162786Y-82271971D01*
X79255500Y-82339330D01*
X79328390Y-82392287D01*
X79419840Y-82438883D01*
X79421080Y-82439515D01*
X79471876Y-82487490D01*
X79488671Y-82555311D01*
X79466134Y-82621446D01*
X79421080Y-82660485D01*
X79328386Y-82707715D01*
X79162786Y-82828028D01*
X79018028Y-82972786D01*
X78897715Y-83138386D01*
X78804781Y-83320776D01*
X78741522Y-83515465D01*
X78709500Y-83717648D01*
X78709500Y-83922351D01*
X78741522Y-84124534D01*
X78804781Y-84319223D01*
X78897715Y-84501613D01*
X79018028Y-84667213D01*
X79162786Y-84811971D01*
X79317749Y-84924556D01*
X79328390Y-84932287D01*
X79419840Y-84978883D01*
X79421080Y-84979515D01*
X79471876Y-85027490D01*
X79488671Y-85095311D01*
X79466134Y-85161446D01*
X79421080Y-85200485D01*
X79328386Y-85247715D01*
X79162786Y-85368028D01*
X79018028Y-85512786D01*
X78897715Y-85678386D01*
X78804781Y-85860776D01*
X78741522Y-86055465D01*
X78709500Y-86257648D01*
X78709500Y-86462351D01*
X78741522Y-86664534D01*
X78804781Y-86859223D01*
X78866415Y-86980185D01*
X78891106Y-87028644D01*
X78897715Y-87041613D01*
X79018028Y-87207213D01*
X79162786Y-87351971D01*
X79317526Y-87464394D01*
X79328390Y-87472287D01*
X79406227Y-87511947D01*
X79421080Y-87519515D01*
X79471876Y-87567490D01*
X79488671Y-87635311D01*
X79466134Y-87701446D01*
X79421080Y-87740485D01*
X79328386Y-87787715D01*
X79162786Y-87908028D01*
X79018028Y-88052786D01*
X78897715Y-88218386D01*
X78804781Y-88400776D01*
X78741522Y-88595465D01*
X78709500Y-88797648D01*
X78709500Y-89002351D01*
X78741522Y-89204534D01*
X78804781Y-89399223D01*
X78865001Y-89517409D01*
X78889466Y-89565425D01*
X78897715Y-89581613D01*
X79018028Y-89747213D01*
X79162786Y-89891971D01*
X79317749Y-90004556D01*
X79328390Y-90012287D01*
X79419840Y-90058883D01*
X79421080Y-90059515D01*
X79471876Y-90107490D01*
X79488671Y-90175311D01*
X79466134Y-90241446D01*
X79421080Y-90280485D01*
X79328386Y-90327715D01*
X79162786Y-90448028D01*
X79018028Y-90592786D01*
X78897715Y-90758386D01*
X78804781Y-90940776D01*
X78741522Y-91135465D01*
X78709500Y-91337648D01*
X78709500Y-91542351D01*
X78741522Y-91744534D01*
X78804781Y-91939223D01*
X78841817Y-92011908D01*
X78889231Y-92104964D01*
X78897715Y-92121613D01*
X79018028Y-92287213D01*
X79162786Y-92431971D01*
X79317749Y-92544556D01*
X79328390Y-92552287D01*
X79419840Y-92598883D01*
X79421080Y-92599515D01*
X79471876Y-92647490D01*
X79488671Y-92715311D01*
X79466134Y-92781446D01*
X79421080Y-92820485D01*
X79328386Y-92867715D01*
X79162786Y-92988028D01*
X79018028Y-93132786D01*
X78897715Y-93298386D01*
X78804781Y-93480776D01*
X78741522Y-93675465D01*
X78709500Y-93877648D01*
X78709500Y-94082351D01*
X78741522Y-94284534D01*
X78779944Y-94402781D01*
X78804780Y-94479219D01*
X78804781Y-94479222D01*
X78806286Y-94483852D01*
X78804964Y-94484281D01*
X78811764Y-94547514D01*
X78780491Y-94609994D01*
X78720403Y-94645648D01*
X78689734Y-94649500D01*
X66090266Y-94649500D01*
X66023227Y-94629815D01*
X65977472Y-94577011D01*
X65967528Y-94507853D01*
X65974080Y-94483970D01*
X65973714Y-94483852D01*
X65975218Y-94479222D01*
X65975220Y-94479219D01*
X66038477Y-94284534D01*
X66070500Y-94082352D01*
X66070500Y-93877648D01*
X66038477Y-93675466D01*
X65975220Y-93480781D01*
X65975218Y-93480778D01*
X65975218Y-93480776D01*
X65929787Y-93391614D01*
X65882287Y-93298390D01*
X65874556Y-93287749D01*
X65761971Y-93132786D01*
X65617213Y-92988028D01*
X65451614Y-92867715D01*
X65445006Y-92864348D01*
X65358917Y-92820483D01*
X65308123Y-92772511D01*
X65291328Y-92704690D01*
X65313865Y-92638555D01*
X65358917Y-92599516D01*
X65451610Y-92552287D01*
X65472770Y-92536913D01*
X65617213Y-92431971D01*
X65617215Y-92431968D01*
X65617219Y-92431966D01*
X65761966Y-92287219D01*
X65761968Y-92287215D01*
X65761971Y-92287213D01*
X65814732Y-92214590D01*
X65882287Y-92121610D01*
X65975220Y-91939219D01*
X66038477Y-91744534D01*
X66070500Y-91542352D01*
X66070500Y-91337648D01*
X66038477Y-91135465D01*
X65989745Y-90985485D01*
X65975220Y-90940781D01*
X65975218Y-90940778D01*
X65975218Y-90940776D01*
X65927261Y-90846657D01*
X65882287Y-90758390D01*
X65838305Y-90697853D01*
X65761971Y-90592786D01*
X65617213Y-90448028D01*
X65451614Y-90327715D01*
X65438735Y-90321153D01*
X65358917Y-90280483D01*
X65308123Y-90232511D01*
X65291328Y-90164690D01*
X65313865Y-90098555D01*
X65358917Y-90059516D01*
X65451610Y-90012287D01*
X65472770Y-89996913D01*
X65617213Y-89891971D01*
X65617215Y-89891968D01*
X65617219Y-89891966D01*
X65761966Y-89747219D01*
X65761968Y-89747215D01*
X65761971Y-89747213D01*
X65818259Y-89669738D01*
X65882287Y-89581610D01*
X65975220Y-89399219D01*
X66038477Y-89204534D01*
X66070500Y-89002352D01*
X66070500Y-88797648D01*
X66038477Y-88595466D01*
X65975220Y-88400781D01*
X65975218Y-88400778D01*
X65975218Y-88400776D01*
X65941503Y-88334607D01*
X65882287Y-88218390D01*
X65873141Y-88205802D01*
X65761971Y-88052786D01*
X65617213Y-87908028D01*
X65451614Y-87787715D01*
X65445006Y-87784348D01*
X65358917Y-87740483D01*
X65308123Y-87692511D01*
X65291328Y-87624690D01*
X65313865Y-87558555D01*
X65358917Y-87519516D01*
X65451610Y-87472287D01*
X65526732Y-87417708D01*
X65617213Y-87351971D01*
X65617215Y-87351968D01*
X65617219Y-87351966D01*
X65761966Y-87207219D01*
X65761968Y-87207215D01*
X65761971Y-87207213D01*
X65854395Y-87080000D01*
X65882287Y-87041610D01*
X65975220Y-86859219D01*
X66038477Y-86664534D01*
X66070500Y-86462352D01*
X66070500Y-86257648D01*
X66038477Y-86055466D01*
X65975220Y-85860781D01*
X65975218Y-85860778D01*
X65975218Y-85860776D01*
X65941503Y-85794607D01*
X65882287Y-85678390D01*
X65874556Y-85667749D01*
X65761971Y-85512786D01*
X65617213Y-85368028D01*
X65451614Y-85247715D01*
X65445006Y-85244348D01*
X65358917Y-85200483D01*
X65308123Y-85152511D01*
X65291328Y-85084690D01*
X65313865Y-85018555D01*
X65358917Y-84979516D01*
X65451610Y-84932287D01*
X65472770Y-84916913D01*
X65617213Y-84811971D01*
X65617215Y-84811968D01*
X65617219Y-84811966D01*
X65761966Y-84667219D01*
X65761968Y-84667215D01*
X65761971Y-84667213D01*
X65817505Y-84590776D01*
X65882287Y-84501610D01*
X65975220Y-84319219D01*
X66038477Y-84124534D01*
X66070500Y-83922352D01*
X66070500Y-83717648D01*
X66038477Y-83515466D01*
X65975220Y-83320781D01*
X65975218Y-83320778D01*
X65975218Y-83320776D01*
X65929787Y-83231614D01*
X65882287Y-83138390D01*
X65874556Y-83127749D01*
X65761971Y-82972786D01*
X65617213Y-82828028D01*
X65451614Y-82707715D01*
X65445006Y-82704348D01*
X65358917Y-82660483D01*
X65308123Y-82612511D01*
X65291328Y-82544690D01*
X65313865Y-82478555D01*
X65358917Y-82439516D01*
X65451610Y-82392287D01*
X65524500Y-82339330D01*
X65617213Y-82271971D01*
X65617215Y-82271968D01*
X65617219Y-82271966D01*
X65761966Y-82127219D01*
X65761968Y-82127215D01*
X65761971Y-82127213D01*
X65817505Y-82050776D01*
X65882287Y-81961610D01*
X65975220Y-81779219D01*
X66038477Y-81584534D01*
X66070500Y-81382352D01*
X66070500Y-81177648D01*
X66038477Y-80975465D01*
X65989745Y-80825485D01*
X65975220Y-80780781D01*
X65975218Y-80780778D01*
X65975218Y-80780776D01*
X65927261Y-80686657D01*
X65882287Y-80598390D01*
X65868513Y-80579432D01*
X65761971Y-80432786D01*
X65617213Y-80288028D01*
X65451614Y-80167715D01*
X65445006Y-80164348D01*
X65358917Y-80120483D01*
X65308123Y-80072511D01*
X65291328Y-80004690D01*
X65313865Y-79938555D01*
X65358917Y-79899516D01*
X65451610Y-79852287D01*
X65472770Y-79836913D01*
X65617213Y-79731971D01*
X65617215Y-79731968D01*
X65617219Y-79731966D01*
X65761966Y-79587219D01*
X65761968Y-79587215D01*
X65761971Y-79587213D01*
X65814732Y-79514590D01*
X65882287Y-79421610D01*
X65975220Y-79239219D01*
X66038477Y-79044534D01*
X66070500Y-78842352D01*
X66070500Y-78637648D01*
X66038477Y-78435466D01*
X65975220Y-78240781D01*
X65975218Y-78240778D01*
X65975218Y-78240776D01*
X65941503Y-78174607D01*
X65882287Y-78058390D01*
X65873141Y-78045802D01*
X65761971Y-77892786D01*
X65617213Y-77748028D01*
X65451614Y-77627715D01*
X65445006Y-77624348D01*
X65358917Y-77580483D01*
X65308123Y-77532511D01*
X65291328Y-77464690D01*
X65313865Y-77398555D01*
X65358917Y-77359516D01*
X65451610Y-77312287D01*
X65526732Y-77257708D01*
X65617213Y-77191971D01*
X65617215Y-77191968D01*
X65617219Y-77191966D01*
X65761966Y-77047219D01*
X65761968Y-77047215D01*
X65761971Y-77047213D01*
X65854395Y-76920000D01*
X65882287Y-76881610D01*
X65975220Y-76699219D01*
X66038477Y-76504534D01*
X66070500Y-76302352D01*
X66070500Y-76097648D01*
X66038477Y-75895466D01*
X65975220Y-75700781D01*
X65975218Y-75700778D01*
X65975218Y-75700776D01*
X65941503Y-75634607D01*
X65882287Y-75518390D01*
X65874556Y-75507749D01*
X65761971Y-75352786D01*
X65617213Y-75208028D01*
X65451614Y-75087715D01*
X65445006Y-75084348D01*
X65358917Y-75040483D01*
X65308123Y-74992511D01*
X65291328Y-74924690D01*
X65313865Y-74858555D01*
X65358917Y-74819516D01*
X65451610Y-74772287D01*
X65524500Y-74719330D01*
X65617213Y-74651971D01*
X65617215Y-74651968D01*
X65617219Y-74651966D01*
X65761966Y-74507219D01*
X65761968Y-74507215D01*
X65761971Y-74507213D01*
X65817505Y-74430776D01*
X65882287Y-74341610D01*
X65975220Y-74159219D01*
X66038477Y-73964534D01*
X66070500Y-73762352D01*
X66070500Y-73557648D01*
X66038477Y-73355466D01*
X65975220Y-73160781D01*
X65975218Y-73160778D01*
X65975218Y-73160776D01*
X65941503Y-73094607D01*
X65882287Y-72978390D01*
X65874556Y-72967749D01*
X65761971Y-72812786D01*
X65617213Y-72668028D01*
X65451614Y-72547715D01*
X65445006Y-72544348D01*
X65358917Y-72500483D01*
X65308123Y-72452511D01*
X65291328Y-72384690D01*
X65313865Y-72318555D01*
X65358917Y-72279516D01*
X65451610Y-72232287D01*
X65472770Y-72216913D01*
X65617213Y-72111971D01*
X65617215Y-72111968D01*
X65617219Y-72111966D01*
X65761966Y-71967219D01*
X65761968Y-71967215D01*
X65761971Y-71967213D01*
X65814732Y-71894590D01*
X65882287Y-71801610D01*
X65975220Y-71619219D01*
X66038477Y-71424534D01*
X66070500Y-71222352D01*
X66070500Y-71017648D01*
X66038477Y-70815466D01*
X65975220Y-70620781D01*
X65975218Y-70620778D01*
X65975218Y-70620776D01*
X65941503Y-70554607D01*
X65882287Y-70438390D01*
X65874556Y-70427749D01*
X65761971Y-70272786D01*
X65617213Y-70128028D01*
X65451614Y-70007715D01*
X65445006Y-70004348D01*
X65358917Y-69960483D01*
X65308123Y-69912511D01*
X65291328Y-69844690D01*
X65313865Y-69778555D01*
X65358917Y-69739516D01*
X65451610Y-69692287D01*
X65472770Y-69676913D01*
X65617213Y-69571971D01*
X65617215Y-69571968D01*
X65617219Y-69571966D01*
X65761966Y-69427219D01*
X65761968Y-69427215D01*
X65761971Y-69427213D01*
X65844207Y-69314023D01*
X65882287Y-69261610D01*
X65975220Y-69079219D01*
X66038477Y-68884534D01*
X66070500Y-68682352D01*
X66070500Y-68477648D01*
X66038477Y-68275465D01*
X66009127Y-68185137D01*
X65975220Y-68080781D01*
X65975218Y-68080778D01*
X65975218Y-68080776D01*
X65941503Y-68014607D01*
X65882287Y-67898390D01*
X65844208Y-67845978D01*
X65761971Y-67732786D01*
X65617213Y-67588028D01*
X65451613Y-67467715D01*
X65451612Y-67467714D01*
X65451610Y-67467713D01*
X65393111Y-67437906D01*
X65269223Y-67374781D01*
X65074534Y-67311522D01*
X64888799Y-67282105D01*
X64872352Y-67279500D01*
X64667648Y-67279500D01*
X64651201Y-67282105D01*
X64465465Y-67311522D01*
X64270776Y-67374781D01*
X64088386Y-67467715D01*
X63922786Y-67588028D01*
X63778028Y-67732786D01*
X63657715Y-67898386D01*
X63564781Y-68080776D01*
X63501522Y-68275465D01*
X63469500Y-68477648D01*
X63469500Y-68682351D01*
X63501522Y-68884534D01*
X63564781Y-69079223D01*
X63616385Y-69180500D01*
X63650882Y-69248204D01*
X63657715Y-69261613D01*
X63778028Y-69427213D01*
X63922786Y-69571971D01*
X64077749Y-69684556D01*
X64088390Y-69692287D01*
X64179840Y-69738883D01*
X64181080Y-69739515D01*
X64231876Y-69787490D01*
X64248671Y-69855311D01*
X64226134Y-69921446D01*
X64181080Y-69960485D01*
X64088386Y-70007715D01*
X63922786Y-70128028D01*
X63778028Y-70272786D01*
X63657715Y-70438386D01*
X63564781Y-70620776D01*
X63501522Y-70815465D01*
X63469500Y-71017648D01*
X63469500Y-71222351D01*
X63501522Y-71424534D01*
X63564781Y-71619223D01*
X63657715Y-71801613D01*
X63778028Y-71967213D01*
X63922786Y-72111971D01*
X64077749Y-72224556D01*
X64088390Y-72232287D01*
X64179840Y-72278883D01*
X64181080Y-72279515D01*
X64231876Y-72327490D01*
X64248671Y-72395311D01*
X64226134Y-72461446D01*
X64181080Y-72500485D01*
X64088386Y-72547715D01*
X63922786Y-72668028D01*
X63778028Y-72812786D01*
X63657715Y-72978386D01*
X63564781Y-73160776D01*
X63501522Y-73355465D01*
X63469500Y-73557648D01*
X63469500Y-73762351D01*
X63501522Y-73964534D01*
X63564781Y-74159223D01*
X63657715Y-74341613D01*
X63778028Y-74507213D01*
X63922786Y-74651971D01*
X64015500Y-74719330D01*
X64088390Y-74772287D01*
X64179840Y-74818883D01*
X64181080Y-74819515D01*
X64231876Y-74867490D01*
X64248671Y-74935311D01*
X64226134Y-75001446D01*
X64181080Y-75040485D01*
X64088386Y-75087715D01*
X63922786Y-75208028D01*
X63778028Y-75352786D01*
X63657715Y-75518386D01*
X63564781Y-75700776D01*
X63501522Y-75895465D01*
X63469500Y-76097648D01*
X63469500Y-76302351D01*
X63501522Y-76504534D01*
X63564781Y-76699223D01*
X63628398Y-76824076D01*
X63651106Y-76868644D01*
X63657715Y-76881613D01*
X63778028Y-77047213D01*
X63922786Y-77191971D01*
X64077526Y-77304394D01*
X64088390Y-77312287D01*
X64166227Y-77351947D01*
X64181080Y-77359515D01*
X64231876Y-77407490D01*
X64248671Y-77475311D01*
X64226134Y-77541446D01*
X64181080Y-77580485D01*
X64088386Y-77627715D01*
X63922786Y-77748028D01*
X63778028Y-77892786D01*
X63657715Y-78058386D01*
X63564781Y-78240776D01*
X63501522Y-78435465D01*
X63469500Y-78637648D01*
X63469500Y-78842351D01*
X63501522Y-79044534D01*
X63564781Y-79239223D01*
X63657715Y-79421613D01*
X63778028Y-79587213D01*
X63922786Y-79731971D01*
X64077749Y-79844556D01*
X64088390Y-79852287D01*
X64179840Y-79898883D01*
X64181080Y-79899515D01*
X64231876Y-79947490D01*
X64248671Y-80015311D01*
X64226134Y-80081446D01*
X64181080Y-80120485D01*
X64088386Y-80167715D01*
X63922786Y-80288028D01*
X63778028Y-80432786D01*
X63657715Y-80598386D01*
X63564781Y-80780776D01*
X63501522Y-80975465D01*
X63469500Y-81177648D01*
X63469500Y-81382351D01*
X63501522Y-81584534D01*
X63564781Y-81779223D01*
X63601817Y-81851908D01*
X63649231Y-81944964D01*
X63657715Y-81961613D01*
X63778028Y-82127213D01*
X63922786Y-82271971D01*
X64015500Y-82339330D01*
X64088390Y-82392287D01*
X64179840Y-82438883D01*
X64181080Y-82439515D01*
X64231876Y-82487490D01*
X64248671Y-82555311D01*
X64226134Y-82621446D01*
X64181080Y-82660485D01*
X64088386Y-82707715D01*
X63922786Y-82828028D01*
X63778028Y-82972786D01*
X63657715Y-83138386D01*
X63564781Y-83320776D01*
X63501522Y-83515465D01*
X63469500Y-83717648D01*
X63469500Y-83922351D01*
X63501522Y-84124534D01*
X63564781Y-84319223D01*
X63657715Y-84501613D01*
X63778028Y-84667213D01*
X63922786Y-84811971D01*
X64077749Y-84924556D01*
X64088390Y-84932287D01*
X64179840Y-84978883D01*
X64181080Y-84979515D01*
X64231876Y-85027490D01*
X64248671Y-85095311D01*
X64226134Y-85161446D01*
X64181080Y-85200485D01*
X64088386Y-85247715D01*
X63922786Y-85368028D01*
X63778028Y-85512786D01*
X63657715Y-85678385D01*
X63650883Y-85691795D01*
X63602909Y-85742591D01*
X63540398Y-85759500D01*
X51542940Y-85759500D01*
X51475901Y-85739815D01*
X51455258Y-85723180D01*
X51410292Y-85678213D01*
X51410288Y-85678210D01*
X51279185Y-85590609D01*
X51279172Y-85590602D01*
X51133501Y-85530264D01*
X51133489Y-85530261D01*
X50978845Y-85499500D01*
X50978842Y-85499500D01*
X50821158Y-85499500D01*
X50821155Y-85499500D01*
X50666510Y-85530261D01*
X50666498Y-85530264D01*
X50520827Y-85590602D01*
X50520814Y-85590609D01*
X50389125Y-85678602D01*
X50322447Y-85699480D01*
X50320234Y-85699500D01*
X49886669Y-85699500D01*
X49886653Y-85699499D01*
X49879057Y-85699499D01*
X49720943Y-85699499D01*
X49568215Y-85740423D01*
X49568214Y-85740423D01*
X49568212Y-85740424D01*
X49535175Y-85759499D01*
X49535172Y-85759500D01*
X49431290Y-85819475D01*
X49431282Y-85819481D01*
X49319478Y-85931286D01*
X38673185Y-96577578D01*
X38611862Y-96611063D01*
X38547186Y-96607828D01*
X38395637Y-96558587D01*
X38285853Y-96541199D01*
X38199361Y-96527500D01*
X38000639Y-96527500D01*
X37935214Y-96537862D01*
X37804362Y-96558587D01*
X37615370Y-96619993D01*
X37615367Y-96619994D01*
X37438305Y-96710213D01*
X37277533Y-96827021D01*
X37137021Y-96967533D01*
X37137021Y-96967534D01*
X37137019Y-96967536D01*
X37126549Y-96981947D01*
X37046817Y-97091688D01*
X36991487Y-97134353D01*
X36921873Y-97140332D01*
X36860078Y-97107726D01*
X36825721Y-97046887D01*
X36822499Y-97018802D01*
X36822499Y-96980129D01*
X36822498Y-96980123D01*
X36822497Y-96980116D01*
X36816091Y-96920517D01*
X36781219Y-96827021D01*
X36765797Y-96785671D01*
X36765793Y-96785664D01*
X36679547Y-96670455D01*
X36679544Y-96670452D01*
X36564335Y-96584206D01*
X36564328Y-96584202D01*
X36429482Y-96533908D01*
X36429483Y-96533908D01*
X36369883Y-96527501D01*
X36369881Y-96527500D01*
X36369873Y-96527500D01*
X36369864Y-96527500D01*
X34750129Y-96527500D01*
X34750123Y-96527501D01*
X34690516Y-96533908D01*
X34555671Y-96584202D01*
X34555664Y-96584206D01*
X34440455Y-96670452D01*
X34440452Y-96670455D01*
X34354206Y-96785664D01*
X34354202Y-96785671D01*
X34303908Y-96920517D01*
X34297501Y-96980116D01*
X34297501Y-96980123D01*
X34297500Y-96980135D01*
X30500500Y-96980135D01*
X30500500Y-62702155D01*
X41930000Y-62702155D01*
X41930000Y-63250000D01*
X42864314Y-63250000D01*
X42859920Y-63254394D01*
X42807259Y-63345606D01*
X42780000Y-63447339D01*
X42780000Y-63552661D01*
X42807259Y-63654394D01*
X42859920Y-63745606D01*
X42864314Y-63750000D01*
X41930000Y-63750000D01*
X41930000Y-64297844D01*
X41936401Y-64357372D01*
X41936403Y-64357379D01*
X41986645Y-64492086D01*
X41986649Y-64492093D01*
X42072809Y-64607187D01*
X42072812Y-64607190D01*
X42187906Y-64693350D01*
X42187913Y-64693354D01*
X42322620Y-64743596D01*
X42322627Y-64743598D01*
X42382155Y-64749999D01*
X42382172Y-64750000D01*
X42930000Y-64750000D01*
X42930000Y-63815686D01*
X42934394Y-63820080D01*
X43025606Y-63872741D01*
X43127339Y-63900000D01*
X43232661Y-63900000D01*
X43334394Y-63872741D01*
X43425606Y-63820080D01*
X43430000Y-63815686D01*
X43430000Y-64750000D01*
X43977828Y-64750000D01*
X43977844Y-64749999D01*
X44037372Y-64743598D01*
X44037379Y-64743596D01*
X44172086Y-64693354D01*
X44172093Y-64693350D01*
X44287187Y-64607190D01*
X44287190Y-64607187D01*
X44373350Y-64492093D01*
X44373354Y-64492086D01*
X44423596Y-64357379D01*
X44423598Y-64357372D01*
X44429999Y-64297844D01*
X44430000Y-64297827D01*
X44430000Y-64233578D01*
X44449685Y-64166539D01*
X44502489Y-64120784D01*
X44571647Y-64110840D01*
X44635203Y-64139865D01*
X44654314Y-64160688D01*
X44766172Y-64314646D01*
X44905354Y-64453828D01*
X45064595Y-64569524D01*
X45138513Y-64607187D01*
X45239970Y-64658882D01*
X45239972Y-64658882D01*
X45239975Y-64658884D01*
X45340317Y-64691487D01*
X45427173Y-64719709D01*
X45621578Y-64750500D01*
X45621583Y-64750500D01*
X45818422Y-64750500D01*
X46012826Y-64719709D01*
X46200025Y-64658884D01*
X46375405Y-64569524D01*
X46534646Y-64453828D01*
X46673828Y-64314646D01*
X46789524Y-64155405D01*
X46878884Y-63980025D01*
X46879515Y-63978787D01*
X46927489Y-63927990D01*
X46995310Y-63911195D01*
X47061445Y-63933732D01*
X47100485Y-63978787D01*
X47190474Y-64155403D01*
X47194317Y-64160692D01*
X47306172Y-64314646D01*
X47445354Y-64453828D01*
X47604595Y-64569524D01*
X47678513Y-64607187D01*
X47779970Y-64658882D01*
X47779972Y-64658882D01*
X47779975Y-64658884D01*
X47880317Y-64691487D01*
X47967173Y-64719709D01*
X48161578Y-64750500D01*
X48161583Y-64750500D01*
X48358422Y-64750500D01*
X48552826Y-64719709D01*
X48740025Y-64658884D01*
X48915405Y-64569524D01*
X49074646Y-64453828D01*
X49213828Y-64314646D01*
X49329524Y-64155405D01*
X49418884Y-63980025D01*
X49419515Y-63978787D01*
X49467489Y-63927990D01*
X49535310Y-63911195D01*
X49601445Y-63933732D01*
X49640485Y-63978787D01*
X49730474Y-64155403D01*
X49734317Y-64160692D01*
X49846172Y-64314646D01*
X49985354Y-64453828D01*
X50144595Y-64569524D01*
X50218513Y-64607187D01*
X50319970Y-64658882D01*
X50319972Y-64658882D01*
X50319975Y-64658884D01*
X50420317Y-64691487D01*
X50507173Y-64719709D01*
X50701578Y-64750500D01*
X50701583Y-64750500D01*
X50898422Y-64750500D01*
X51092826Y-64719709D01*
X51280025Y-64658884D01*
X51455405Y-64569524D01*
X51614646Y-64453828D01*
X51753828Y-64314646D01*
X51869524Y-64155405D01*
X51958884Y-63980025D01*
X52019709Y-63792826D01*
X52027188Y-63745606D01*
X52050500Y-63598422D01*
X52050500Y-63401577D01*
X52019709Y-63207173D01*
X51958882Y-63019970D01*
X51869523Y-62844594D01*
X51865682Y-62839307D01*
X51753828Y-62685354D01*
X51614646Y-62546172D01*
X51455405Y-62430476D01*
X51280029Y-62341117D01*
X51092826Y-62280290D01*
X50898422Y-62249500D01*
X50898417Y-62249500D01*
X50701583Y-62249500D01*
X50701578Y-62249500D01*
X50507173Y-62280290D01*
X50319970Y-62341117D01*
X50144594Y-62430476D01*
X50053741Y-62496485D01*
X49985354Y-62546172D01*
X49985352Y-62546174D01*
X49985351Y-62546174D01*
X49846174Y-62685351D01*
X49846174Y-62685352D01*
X49846172Y-62685354D01*
X49833953Y-62702172D01*
X49730476Y-62844594D01*
X49640485Y-63021213D01*
X49592511Y-63072009D01*
X49524690Y-63088804D01*
X49458555Y-63066267D01*
X49419515Y-63021213D01*
X49329523Y-62844594D01*
X49325682Y-62839307D01*
X49213828Y-62685354D01*
X49074646Y-62546172D01*
X48915405Y-62430476D01*
X48740029Y-62341117D01*
X48552826Y-62280290D01*
X48358422Y-62249500D01*
X48358417Y-62249500D01*
X48161583Y-62249500D01*
X48161578Y-62249500D01*
X47967173Y-62280290D01*
X47779970Y-62341117D01*
X47604594Y-62430476D01*
X47513741Y-62496485D01*
X47445354Y-62546172D01*
X47445352Y-62546174D01*
X47445351Y-62546174D01*
X47306174Y-62685351D01*
X47306174Y-62685352D01*
X47306172Y-62685354D01*
X47293953Y-62702172D01*
X47190476Y-62844594D01*
X47100485Y-63021213D01*
X47052511Y-63072009D01*
X46984690Y-63088804D01*
X46918555Y-63066267D01*
X46879515Y-63021213D01*
X46789523Y-62844594D01*
X46785682Y-62839307D01*
X46673828Y-62685354D01*
X46534646Y-62546172D01*
X46375405Y-62430476D01*
X46200029Y-62341117D01*
X46012826Y-62280290D01*
X45818422Y-62249500D01*
X45818417Y-62249500D01*
X45621583Y-62249500D01*
X45621578Y-62249500D01*
X45427173Y-62280290D01*
X45239970Y-62341117D01*
X45064594Y-62430476D01*
X44973741Y-62496485D01*
X44905354Y-62546172D01*
X44905352Y-62546174D01*
X44905351Y-62546174D01*
X44766174Y-62685351D01*
X44766174Y-62685352D01*
X44766172Y-62685354D01*
X44753953Y-62702172D01*
X44654318Y-62839307D01*
X44598988Y-62881972D01*
X44529374Y-62887951D01*
X44467579Y-62855345D01*
X44433222Y-62794506D01*
X44430000Y-62766421D01*
X44430000Y-62702172D01*
X44429999Y-62702155D01*
X44423598Y-62642627D01*
X44423596Y-62642620D01*
X44373354Y-62507913D01*
X44373350Y-62507906D01*
X44287190Y-62392812D01*
X44287187Y-62392809D01*
X44172093Y-62306649D01*
X44172086Y-62306645D01*
X44037379Y-62256403D01*
X44037372Y-62256401D01*
X43977844Y-62250000D01*
X43430000Y-62250000D01*
X43430000Y-63184314D01*
X43425606Y-63179920D01*
X43334394Y-63127259D01*
X43232661Y-63100000D01*
X43127339Y-63100000D01*
X43025606Y-63127259D01*
X42934394Y-63179920D01*
X42930000Y-63184314D01*
X42930000Y-62250000D01*
X42382155Y-62250000D01*
X42322627Y-62256401D01*
X42322620Y-62256403D01*
X42187913Y-62306645D01*
X42187906Y-62306649D01*
X42072812Y-62392809D01*
X42072809Y-62392812D01*
X41986649Y-62507906D01*
X41986645Y-62507913D01*
X41936403Y-62642620D01*
X41936401Y-62642627D01*
X41930000Y-62702155D01*
X30500500Y-62702155D01*
X30500500Y-60624500D01*
X30520185Y-60557461D01*
X30572989Y-60511706D01*
X30624500Y-60500500D01*
X107375500Y-60500500D01*
X107442539Y-60520185D01*
G37*
G04 #@! TD.AperFunction*
M02*
