G04 #@! TF.GenerationSoftware,KiCad,Pcbnew,9.0.1*
G04 #@! TF.CreationDate,2025-08-05T12:48:43+05:00*
G04 #@! TF.ProjectId,firstPCB,66697273-7450-4434-922e-6b696361645f,rev?*
G04 #@! TF.SameCoordinates,Original*
G04 #@! TF.FileFunction,Legend,Top*
G04 #@! TF.FilePolarity,Positive*
%FSLAX46Y46*%
G04 Gerber Fmt 4.6, Leading zero omitted, Abs format (unit mm)*
G04 Created by KiCad (PCBNEW 9.0.1) date 2025-08-05 12:48:43*
%MOMM*%
%LPD*%
G01*
G04 APERTURE LIST*
%ADD10C,0.200000*%
%ADD11C,0.150000*%
%ADD12C,0.300000*%
%ADD13C,0.151300*%
%ADD14C,0.152400*%
%ADD15C,0.100000*%
%ADD16C,0.000000*%
%ADD17C,0.120000*%
G04 APERTURE END LIST*
D10*
X82369673Y-109867219D02*
X82369673Y-108867219D01*
X82369673Y-108867219D02*
X82703006Y-109581504D01*
X82703006Y-109581504D02*
X83036339Y-108867219D01*
X83036339Y-108867219D02*
X83036339Y-109867219D01*
X83941101Y-109200552D02*
X83941101Y-109867219D01*
X83512530Y-109200552D02*
X83512530Y-109724361D01*
X83512530Y-109724361D02*
X83560149Y-109819600D01*
X83560149Y-109819600D02*
X83655387Y-109867219D01*
X83655387Y-109867219D02*
X83798244Y-109867219D01*
X83798244Y-109867219D02*
X83893482Y-109819600D01*
X83893482Y-109819600D02*
X83941101Y-109771980D01*
X84417292Y-109867219D02*
X84417292Y-108867219D01*
X84845863Y-109867219D02*
X84845863Y-109343409D01*
X84845863Y-109343409D02*
X84798244Y-109248171D01*
X84798244Y-109248171D02*
X84703006Y-109200552D01*
X84703006Y-109200552D02*
X84560149Y-109200552D01*
X84560149Y-109200552D02*
X84464911Y-109248171D01*
X84464911Y-109248171D02*
X84417292Y-109295790D01*
X85750625Y-109867219D02*
X85750625Y-109343409D01*
X85750625Y-109343409D02*
X85703006Y-109248171D01*
X85703006Y-109248171D02*
X85607768Y-109200552D01*
X85607768Y-109200552D02*
X85417292Y-109200552D01*
X85417292Y-109200552D02*
X85322054Y-109248171D01*
X85750625Y-109819600D02*
X85655387Y-109867219D01*
X85655387Y-109867219D02*
X85417292Y-109867219D01*
X85417292Y-109867219D02*
X85322054Y-109819600D01*
X85322054Y-109819600D02*
X85274435Y-109724361D01*
X85274435Y-109724361D02*
X85274435Y-109629123D01*
X85274435Y-109629123D02*
X85322054Y-109533885D01*
X85322054Y-109533885D02*
X85417292Y-109486266D01*
X85417292Y-109486266D02*
X85655387Y-109486266D01*
X85655387Y-109486266D02*
X85750625Y-109438647D01*
X86226816Y-109867219D02*
X86226816Y-109200552D01*
X86226816Y-109295790D02*
X86274435Y-109248171D01*
X86274435Y-109248171D02*
X86369673Y-109200552D01*
X86369673Y-109200552D02*
X86512530Y-109200552D01*
X86512530Y-109200552D02*
X86607768Y-109248171D01*
X86607768Y-109248171D02*
X86655387Y-109343409D01*
X86655387Y-109343409D02*
X86655387Y-109867219D01*
X86655387Y-109343409D02*
X86703006Y-109248171D01*
X86703006Y-109248171D02*
X86798244Y-109200552D01*
X86798244Y-109200552D02*
X86941101Y-109200552D01*
X86941101Y-109200552D02*
X87036340Y-109248171D01*
X87036340Y-109248171D02*
X87083959Y-109343409D01*
X87083959Y-109343409D02*
X87083959Y-109867219D01*
X87560149Y-109867219D02*
X87560149Y-109200552D01*
X87560149Y-109295790D02*
X87607768Y-109248171D01*
X87607768Y-109248171D02*
X87703006Y-109200552D01*
X87703006Y-109200552D02*
X87845863Y-109200552D01*
X87845863Y-109200552D02*
X87941101Y-109248171D01*
X87941101Y-109248171D02*
X87988720Y-109343409D01*
X87988720Y-109343409D02*
X87988720Y-109867219D01*
X87988720Y-109343409D02*
X88036339Y-109248171D01*
X88036339Y-109248171D02*
X88131577Y-109200552D01*
X88131577Y-109200552D02*
X88274434Y-109200552D01*
X88274434Y-109200552D02*
X88369673Y-109248171D01*
X88369673Y-109248171D02*
X88417292Y-109343409D01*
X88417292Y-109343409D02*
X88417292Y-109867219D01*
X89322053Y-109867219D02*
X89322053Y-109343409D01*
X89322053Y-109343409D02*
X89274434Y-109248171D01*
X89274434Y-109248171D02*
X89179196Y-109200552D01*
X89179196Y-109200552D02*
X88988720Y-109200552D01*
X88988720Y-109200552D02*
X88893482Y-109248171D01*
X89322053Y-109819600D02*
X89226815Y-109867219D01*
X89226815Y-109867219D02*
X88988720Y-109867219D01*
X88988720Y-109867219D02*
X88893482Y-109819600D01*
X88893482Y-109819600D02*
X88845863Y-109724361D01*
X88845863Y-109724361D02*
X88845863Y-109629123D01*
X88845863Y-109629123D02*
X88893482Y-109533885D01*
X88893482Y-109533885D02*
X88988720Y-109486266D01*
X88988720Y-109486266D02*
X89226815Y-109486266D01*
X89226815Y-109486266D02*
X89322053Y-109438647D01*
X90226815Y-109867219D02*
X90226815Y-108867219D01*
X90226815Y-109819600D02*
X90131577Y-109867219D01*
X90131577Y-109867219D02*
X89941101Y-109867219D01*
X89941101Y-109867219D02*
X89845863Y-109819600D01*
X89845863Y-109819600D02*
X89798244Y-109771980D01*
X89798244Y-109771980D02*
X89750625Y-109676742D01*
X89750625Y-109676742D02*
X89750625Y-109391028D01*
X89750625Y-109391028D02*
X89798244Y-109295790D01*
X89798244Y-109295790D02*
X89845863Y-109248171D01*
X89845863Y-109248171D02*
X89941101Y-109200552D01*
X89941101Y-109200552D02*
X90131577Y-109200552D01*
X90131577Y-109200552D02*
X90226815Y-109248171D01*
X91464911Y-109867219D02*
X91464911Y-108867219D01*
X91464911Y-109343409D02*
X92036339Y-109343409D01*
X92036339Y-109867219D02*
X92036339Y-108867219D01*
X92941101Y-109867219D02*
X92941101Y-109343409D01*
X92941101Y-109343409D02*
X92893482Y-109248171D01*
X92893482Y-109248171D02*
X92798244Y-109200552D01*
X92798244Y-109200552D02*
X92607768Y-109200552D01*
X92607768Y-109200552D02*
X92512530Y-109248171D01*
X92941101Y-109819600D02*
X92845863Y-109867219D01*
X92845863Y-109867219D02*
X92607768Y-109867219D01*
X92607768Y-109867219D02*
X92512530Y-109819600D01*
X92512530Y-109819600D02*
X92464911Y-109724361D01*
X92464911Y-109724361D02*
X92464911Y-109629123D01*
X92464911Y-109629123D02*
X92512530Y-109533885D01*
X92512530Y-109533885D02*
X92607768Y-109486266D01*
X92607768Y-109486266D02*
X92845863Y-109486266D01*
X92845863Y-109486266D02*
X92941101Y-109438647D01*
X93417292Y-109867219D02*
X93417292Y-109200552D01*
X93417292Y-109295790D02*
X93464911Y-109248171D01*
X93464911Y-109248171D02*
X93560149Y-109200552D01*
X93560149Y-109200552D02*
X93703006Y-109200552D01*
X93703006Y-109200552D02*
X93798244Y-109248171D01*
X93798244Y-109248171D02*
X93845863Y-109343409D01*
X93845863Y-109343409D02*
X93845863Y-109867219D01*
X93845863Y-109343409D02*
X93893482Y-109248171D01*
X93893482Y-109248171D02*
X93988720Y-109200552D01*
X93988720Y-109200552D02*
X94131577Y-109200552D01*
X94131577Y-109200552D02*
X94226816Y-109248171D01*
X94226816Y-109248171D02*
X94274435Y-109343409D01*
X94274435Y-109343409D02*
X94274435Y-109867219D01*
X94750625Y-109867219D02*
X94750625Y-109200552D01*
X94750625Y-109295790D02*
X94798244Y-109248171D01*
X94798244Y-109248171D02*
X94893482Y-109200552D01*
X94893482Y-109200552D02*
X95036339Y-109200552D01*
X95036339Y-109200552D02*
X95131577Y-109248171D01*
X95131577Y-109248171D02*
X95179196Y-109343409D01*
X95179196Y-109343409D02*
X95179196Y-109867219D01*
X95179196Y-109343409D02*
X95226815Y-109248171D01*
X95226815Y-109248171D02*
X95322053Y-109200552D01*
X95322053Y-109200552D02*
X95464910Y-109200552D01*
X95464910Y-109200552D02*
X95560149Y-109248171D01*
X95560149Y-109248171D02*
X95607768Y-109343409D01*
X95607768Y-109343409D02*
X95607768Y-109867219D01*
X96512529Y-109867219D02*
X96512529Y-109343409D01*
X96512529Y-109343409D02*
X96464910Y-109248171D01*
X96464910Y-109248171D02*
X96369672Y-109200552D01*
X96369672Y-109200552D02*
X96179196Y-109200552D01*
X96179196Y-109200552D02*
X96083958Y-109248171D01*
X96512529Y-109819600D02*
X96417291Y-109867219D01*
X96417291Y-109867219D02*
X96179196Y-109867219D01*
X96179196Y-109867219D02*
X96083958Y-109819600D01*
X96083958Y-109819600D02*
X96036339Y-109724361D01*
X96036339Y-109724361D02*
X96036339Y-109629123D01*
X96036339Y-109629123D02*
X96083958Y-109533885D01*
X96083958Y-109533885D02*
X96179196Y-109486266D01*
X96179196Y-109486266D02*
X96417291Y-109486266D01*
X96417291Y-109486266D02*
X96512529Y-109438647D01*
X97417291Y-109867219D02*
X97417291Y-108867219D01*
X97417291Y-109819600D02*
X97322053Y-109867219D01*
X97322053Y-109867219D02*
X97131577Y-109867219D01*
X97131577Y-109867219D02*
X97036339Y-109819600D01*
X97036339Y-109819600D02*
X96988720Y-109771980D01*
X96988720Y-109771980D02*
X96941101Y-109676742D01*
X96941101Y-109676742D02*
X96941101Y-109391028D01*
X96941101Y-109391028D02*
X96988720Y-109295790D01*
X96988720Y-109295790D02*
X97036339Y-109248171D01*
X97036339Y-109248171D02*
X97131577Y-109200552D01*
X97131577Y-109200552D02*
X97322053Y-109200552D01*
X97322053Y-109200552D02*
X97417291Y-109248171D01*
X99083958Y-109200552D02*
X99083958Y-109867219D01*
X98655387Y-109200552D02*
X98655387Y-109724361D01*
X98655387Y-109724361D02*
X98703006Y-109819600D01*
X98703006Y-109819600D02*
X98798244Y-109867219D01*
X98798244Y-109867219D02*
X98941101Y-109867219D01*
X98941101Y-109867219D02*
X99036339Y-109819600D01*
X99036339Y-109819600D02*
X99083958Y-109771980D01*
X99560149Y-109867219D02*
X99560149Y-109200552D01*
X99560149Y-109391028D02*
X99607768Y-109295790D01*
X99607768Y-109295790D02*
X99655387Y-109248171D01*
X99655387Y-109248171D02*
X99750625Y-109200552D01*
X99750625Y-109200552D02*
X99845863Y-109200552D01*
X101512530Y-109867219D02*
X101179197Y-109391028D01*
X100941102Y-109867219D02*
X100941102Y-108867219D01*
X100941102Y-108867219D02*
X101322054Y-108867219D01*
X101322054Y-108867219D02*
X101417292Y-108914838D01*
X101417292Y-108914838D02*
X101464911Y-108962457D01*
X101464911Y-108962457D02*
X101512530Y-109057695D01*
X101512530Y-109057695D02*
X101512530Y-109200552D01*
X101512530Y-109200552D02*
X101464911Y-109295790D01*
X101464911Y-109295790D02*
X101417292Y-109343409D01*
X101417292Y-109343409D02*
X101322054Y-109391028D01*
X101322054Y-109391028D02*
X100941102Y-109391028D01*
X102322054Y-109819600D02*
X102226816Y-109867219D01*
X102226816Y-109867219D02*
X102036340Y-109867219D01*
X102036340Y-109867219D02*
X101941102Y-109819600D01*
X101941102Y-109819600D02*
X101893483Y-109724361D01*
X101893483Y-109724361D02*
X101893483Y-109343409D01*
X101893483Y-109343409D02*
X101941102Y-109248171D01*
X101941102Y-109248171D02*
X102036340Y-109200552D01*
X102036340Y-109200552D02*
X102226816Y-109200552D01*
X102226816Y-109200552D02*
X102322054Y-109248171D01*
X102322054Y-109248171D02*
X102369673Y-109343409D01*
X102369673Y-109343409D02*
X102369673Y-109438647D01*
X102369673Y-109438647D02*
X101893483Y-109533885D01*
X102798245Y-109867219D02*
X102798245Y-108867219D01*
X103226816Y-109867219D02*
X103226816Y-109343409D01*
X103226816Y-109343409D02*
X103179197Y-109248171D01*
X103179197Y-109248171D02*
X103083959Y-109200552D01*
X103083959Y-109200552D02*
X102941102Y-109200552D01*
X102941102Y-109200552D02*
X102845864Y-109248171D01*
X102845864Y-109248171D02*
X102798245Y-109295790D01*
X103703007Y-109867219D02*
X103703007Y-109200552D01*
X103703007Y-109295790D02*
X103750626Y-109248171D01*
X103750626Y-109248171D02*
X103845864Y-109200552D01*
X103845864Y-109200552D02*
X103988721Y-109200552D01*
X103988721Y-109200552D02*
X104083959Y-109248171D01*
X104083959Y-109248171D02*
X104131578Y-109343409D01*
X104131578Y-109343409D02*
X104131578Y-109867219D01*
X104131578Y-109343409D02*
X104179197Y-109248171D01*
X104179197Y-109248171D02*
X104274435Y-109200552D01*
X104274435Y-109200552D02*
X104417292Y-109200552D01*
X104417292Y-109200552D02*
X104512531Y-109248171D01*
X104512531Y-109248171D02*
X104560150Y-109343409D01*
X104560150Y-109343409D02*
X104560150Y-109867219D01*
X105464911Y-109867219D02*
X105464911Y-109343409D01*
X105464911Y-109343409D02*
X105417292Y-109248171D01*
X105417292Y-109248171D02*
X105322054Y-109200552D01*
X105322054Y-109200552D02*
X105131578Y-109200552D01*
X105131578Y-109200552D02*
X105036340Y-109248171D01*
X105464911Y-109819600D02*
X105369673Y-109867219D01*
X105369673Y-109867219D02*
X105131578Y-109867219D01*
X105131578Y-109867219D02*
X105036340Y-109819600D01*
X105036340Y-109819600D02*
X104988721Y-109724361D01*
X104988721Y-109724361D02*
X104988721Y-109629123D01*
X104988721Y-109629123D02*
X105036340Y-109533885D01*
X105036340Y-109533885D02*
X105131578Y-109486266D01*
X105131578Y-109486266D02*
X105369673Y-109486266D01*
X105369673Y-109486266D02*
X105464911Y-109438647D01*
X105941102Y-109200552D02*
X105941102Y-109867219D01*
X105941102Y-109295790D02*
X105988721Y-109248171D01*
X105988721Y-109248171D02*
X106083959Y-109200552D01*
X106083959Y-109200552D02*
X106226816Y-109200552D01*
X106226816Y-109200552D02*
X106322054Y-109248171D01*
X106322054Y-109248171D02*
X106369673Y-109343409D01*
X106369673Y-109343409D02*
X106369673Y-109867219D01*
D11*
X49789160Y-110084104D02*
X50265350Y-110084104D01*
X49693922Y-110369819D02*
X50027255Y-109369819D01*
X50027255Y-109369819D02*
X50360588Y-110369819D01*
X51122493Y-109703152D02*
X51122493Y-110369819D01*
X50693922Y-109703152D02*
X50693922Y-110226961D01*
X50693922Y-110226961D02*
X50741541Y-110322200D01*
X50741541Y-110322200D02*
X50836779Y-110369819D01*
X50836779Y-110369819D02*
X50979636Y-110369819D01*
X50979636Y-110369819D02*
X51074874Y-110322200D01*
X51074874Y-110322200D02*
X51122493Y-110274580D01*
X52027255Y-109703152D02*
X52027255Y-110512676D01*
X52027255Y-110512676D02*
X51979636Y-110607914D01*
X51979636Y-110607914D02*
X51932017Y-110655533D01*
X51932017Y-110655533D02*
X51836779Y-110703152D01*
X51836779Y-110703152D02*
X51693922Y-110703152D01*
X51693922Y-110703152D02*
X51598684Y-110655533D01*
X52027255Y-110322200D02*
X51932017Y-110369819D01*
X51932017Y-110369819D02*
X51741541Y-110369819D01*
X51741541Y-110369819D02*
X51646303Y-110322200D01*
X51646303Y-110322200D02*
X51598684Y-110274580D01*
X51598684Y-110274580D02*
X51551065Y-110179342D01*
X51551065Y-110179342D02*
X51551065Y-109893628D01*
X51551065Y-109893628D02*
X51598684Y-109798390D01*
X51598684Y-109798390D02*
X51646303Y-109750771D01*
X51646303Y-109750771D02*
X51741541Y-109703152D01*
X51741541Y-109703152D02*
X51932017Y-109703152D01*
X51932017Y-109703152D02*
X52027255Y-109750771D01*
X53217731Y-109322200D02*
X52360589Y-110607914D01*
X53741541Y-109369819D02*
X53836779Y-109369819D01*
X53836779Y-109369819D02*
X53932017Y-109417438D01*
X53932017Y-109417438D02*
X53979636Y-109465057D01*
X53979636Y-109465057D02*
X54027255Y-109560295D01*
X54027255Y-109560295D02*
X54074874Y-109750771D01*
X54074874Y-109750771D02*
X54074874Y-109988866D01*
X54074874Y-109988866D02*
X54027255Y-110179342D01*
X54027255Y-110179342D02*
X53979636Y-110274580D01*
X53979636Y-110274580D02*
X53932017Y-110322200D01*
X53932017Y-110322200D02*
X53836779Y-110369819D01*
X53836779Y-110369819D02*
X53741541Y-110369819D01*
X53741541Y-110369819D02*
X53646303Y-110322200D01*
X53646303Y-110322200D02*
X53598684Y-110274580D01*
X53598684Y-110274580D02*
X53551065Y-110179342D01*
X53551065Y-110179342D02*
X53503446Y-109988866D01*
X53503446Y-109988866D02*
X53503446Y-109750771D01*
X53503446Y-109750771D02*
X53551065Y-109560295D01*
X53551065Y-109560295D02*
X53598684Y-109465057D01*
X53598684Y-109465057D02*
X53646303Y-109417438D01*
X53646303Y-109417438D02*
X53741541Y-109369819D01*
X54979636Y-109369819D02*
X54503446Y-109369819D01*
X54503446Y-109369819D02*
X54455827Y-109846009D01*
X54455827Y-109846009D02*
X54503446Y-109798390D01*
X54503446Y-109798390D02*
X54598684Y-109750771D01*
X54598684Y-109750771D02*
X54836779Y-109750771D01*
X54836779Y-109750771D02*
X54932017Y-109798390D01*
X54932017Y-109798390D02*
X54979636Y-109846009D01*
X54979636Y-109846009D02*
X55027255Y-109941247D01*
X55027255Y-109941247D02*
X55027255Y-110179342D01*
X55027255Y-110179342D02*
X54979636Y-110274580D01*
X54979636Y-110274580D02*
X54932017Y-110322200D01*
X54932017Y-110322200D02*
X54836779Y-110369819D01*
X54836779Y-110369819D02*
X54598684Y-110369819D01*
X54598684Y-110369819D02*
X54503446Y-110322200D01*
X54503446Y-110322200D02*
X54455827Y-110274580D01*
X56170112Y-109322200D02*
X55312970Y-110607914D01*
X56455827Y-109465057D02*
X56503446Y-109417438D01*
X56503446Y-109417438D02*
X56598684Y-109369819D01*
X56598684Y-109369819D02*
X56836779Y-109369819D01*
X56836779Y-109369819D02*
X56932017Y-109417438D01*
X56932017Y-109417438D02*
X56979636Y-109465057D01*
X56979636Y-109465057D02*
X57027255Y-109560295D01*
X57027255Y-109560295D02*
X57027255Y-109655533D01*
X57027255Y-109655533D02*
X56979636Y-109798390D01*
X56979636Y-109798390D02*
X56408208Y-110369819D01*
X56408208Y-110369819D02*
X57027255Y-110369819D01*
X57646303Y-109369819D02*
X57741541Y-109369819D01*
X57741541Y-109369819D02*
X57836779Y-109417438D01*
X57836779Y-109417438D02*
X57884398Y-109465057D01*
X57884398Y-109465057D02*
X57932017Y-109560295D01*
X57932017Y-109560295D02*
X57979636Y-109750771D01*
X57979636Y-109750771D02*
X57979636Y-109988866D01*
X57979636Y-109988866D02*
X57932017Y-110179342D01*
X57932017Y-110179342D02*
X57884398Y-110274580D01*
X57884398Y-110274580D02*
X57836779Y-110322200D01*
X57836779Y-110322200D02*
X57741541Y-110369819D01*
X57741541Y-110369819D02*
X57646303Y-110369819D01*
X57646303Y-110369819D02*
X57551065Y-110322200D01*
X57551065Y-110322200D02*
X57503446Y-110274580D01*
X57503446Y-110274580D02*
X57455827Y-110179342D01*
X57455827Y-110179342D02*
X57408208Y-109988866D01*
X57408208Y-109988866D02*
X57408208Y-109750771D01*
X57408208Y-109750771D02*
X57455827Y-109560295D01*
X57455827Y-109560295D02*
X57503446Y-109465057D01*
X57503446Y-109465057D02*
X57551065Y-109417438D01*
X57551065Y-109417438D02*
X57646303Y-109369819D01*
X58360589Y-109465057D02*
X58408208Y-109417438D01*
X58408208Y-109417438D02*
X58503446Y-109369819D01*
X58503446Y-109369819D02*
X58741541Y-109369819D01*
X58741541Y-109369819D02*
X58836779Y-109417438D01*
X58836779Y-109417438D02*
X58884398Y-109465057D01*
X58884398Y-109465057D02*
X58932017Y-109560295D01*
X58932017Y-109560295D02*
X58932017Y-109655533D01*
X58932017Y-109655533D02*
X58884398Y-109798390D01*
X58884398Y-109798390D02*
X58312970Y-110369819D01*
X58312970Y-110369819D02*
X58932017Y-110369819D01*
X59836779Y-109369819D02*
X59360589Y-109369819D01*
X59360589Y-109369819D02*
X59312970Y-109846009D01*
X59312970Y-109846009D02*
X59360589Y-109798390D01*
X59360589Y-109798390D02*
X59455827Y-109750771D01*
X59455827Y-109750771D02*
X59693922Y-109750771D01*
X59693922Y-109750771D02*
X59789160Y-109798390D01*
X59789160Y-109798390D02*
X59836779Y-109846009D01*
X59836779Y-109846009D02*
X59884398Y-109941247D01*
X59884398Y-109941247D02*
X59884398Y-110179342D01*
X59884398Y-110179342D02*
X59836779Y-110274580D01*
X59836779Y-110274580D02*
X59789160Y-110322200D01*
X59789160Y-110322200D02*
X59693922Y-110369819D01*
X59693922Y-110369819D02*
X59455827Y-110369819D01*
X59455827Y-110369819D02*
X59360589Y-110322200D01*
X59360589Y-110322200D02*
X59312970Y-110274580D01*
X60312970Y-109988866D02*
X61074875Y-109988866D01*
X61455827Y-109703152D02*
X61693922Y-110369819D01*
X61693922Y-110369819D02*
X61932017Y-109703152D01*
X62836779Y-110369819D02*
X62265351Y-110369819D01*
X62551065Y-110369819D02*
X62551065Y-109369819D01*
X62551065Y-109369819D02*
X62455827Y-109512676D01*
X62455827Y-109512676D02*
X62360589Y-109607914D01*
X62360589Y-109607914D02*
X62265351Y-109655533D01*
X63265351Y-110274580D02*
X63312970Y-110322200D01*
X63312970Y-110322200D02*
X63265351Y-110369819D01*
X63265351Y-110369819D02*
X63217732Y-110322200D01*
X63217732Y-110322200D02*
X63265351Y-110274580D01*
X63265351Y-110274580D02*
X63265351Y-110369819D01*
X63932017Y-109369819D02*
X64027255Y-109369819D01*
X64027255Y-109369819D02*
X64122493Y-109417438D01*
X64122493Y-109417438D02*
X64170112Y-109465057D01*
X64170112Y-109465057D02*
X64217731Y-109560295D01*
X64217731Y-109560295D02*
X64265350Y-109750771D01*
X64265350Y-109750771D02*
X64265350Y-109988866D01*
X64265350Y-109988866D02*
X64217731Y-110179342D01*
X64217731Y-110179342D02*
X64170112Y-110274580D01*
X64170112Y-110274580D02*
X64122493Y-110322200D01*
X64122493Y-110322200D02*
X64027255Y-110369819D01*
X64027255Y-110369819D02*
X63932017Y-110369819D01*
X63932017Y-110369819D02*
X63836779Y-110322200D01*
X63836779Y-110322200D02*
X63789160Y-110274580D01*
X63789160Y-110274580D02*
X63741541Y-110179342D01*
X63741541Y-110179342D02*
X63693922Y-109988866D01*
X63693922Y-109988866D02*
X63693922Y-109750771D01*
X63693922Y-109750771D02*
X63741541Y-109560295D01*
X63741541Y-109560295D02*
X63789160Y-109465057D01*
X63789160Y-109465057D02*
X63836779Y-109417438D01*
X63836779Y-109417438D02*
X63932017Y-109369819D01*
D12*
X50171428Y-108264114D02*
X50171428Y-106464114D01*
X50171428Y-106464114D02*
X50599999Y-106464114D01*
X50599999Y-106464114D02*
X50857142Y-106549828D01*
X50857142Y-106549828D02*
X51028571Y-106721257D01*
X51028571Y-106721257D02*
X51114285Y-106892685D01*
X51114285Y-106892685D02*
X51199999Y-107235542D01*
X51199999Y-107235542D02*
X51199999Y-107492685D01*
X51199999Y-107492685D02*
X51114285Y-107835542D01*
X51114285Y-107835542D02*
X51028571Y-108006971D01*
X51028571Y-108006971D02*
X50857142Y-108178400D01*
X50857142Y-108178400D02*
X50599999Y-108264114D01*
X50599999Y-108264114D02*
X50171428Y-108264114D01*
X51971428Y-108264114D02*
X51971428Y-106464114D01*
X53171428Y-107406971D02*
X53171428Y-108264114D01*
X52571428Y-106464114D02*
X53171428Y-107406971D01*
X53171428Y-107406971D02*
X53771428Y-106464114D01*
X55657143Y-108178400D02*
X55914286Y-108264114D01*
X55914286Y-108264114D02*
X56342857Y-108264114D01*
X56342857Y-108264114D02*
X56514286Y-108178400D01*
X56514286Y-108178400D02*
X56600000Y-108092685D01*
X56600000Y-108092685D02*
X56685714Y-107921257D01*
X56685714Y-107921257D02*
X56685714Y-107749828D01*
X56685714Y-107749828D02*
X56600000Y-107578400D01*
X56600000Y-107578400D02*
X56514286Y-107492685D01*
X56514286Y-107492685D02*
X56342857Y-107406971D01*
X56342857Y-107406971D02*
X56000000Y-107321257D01*
X56000000Y-107321257D02*
X55828571Y-107235542D01*
X55828571Y-107235542D02*
X55742857Y-107149828D01*
X55742857Y-107149828D02*
X55657143Y-106978400D01*
X55657143Y-106978400D02*
X55657143Y-106806971D01*
X55657143Y-106806971D02*
X55742857Y-106635542D01*
X55742857Y-106635542D02*
X55828571Y-106549828D01*
X55828571Y-106549828D02*
X56000000Y-106464114D01*
X56000000Y-106464114D02*
X56428571Y-106464114D01*
X56428571Y-106464114D02*
X56685714Y-106549828D01*
X57457143Y-108264114D02*
X57457143Y-106464114D01*
X57457143Y-106464114D02*
X58142857Y-106464114D01*
X58142857Y-106464114D02*
X58314286Y-106549828D01*
X58314286Y-106549828D02*
X58400000Y-106635542D01*
X58400000Y-106635542D02*
X58485714Y-106806971D01*
X58485714Y-106806971D02*
X58485714Y-107064114D01*
X58485714Y-107064114D02*
X58400000Y-107235542D01*
X58400000Y-107235542D02*
X58314286Y-107321257D01*
X58314286Y-107321257D02*
X58142857Y-107406971D01*
X58142857Y-107406971D02*
X57457143Y-107406971D01*
X59600000Y-106464114D02*
X59771429Y-106464114D01*
X59771429Y-106464114D02*
X59942857Y-106549828D01*
X59942857Y-106549828D02*
X60028572Y-106635542D01*
X60028572Y-106635542D02*
X60114286Y-106806971D01*
X60114286Y-106806971D02*
X60200000Y-107149828D01*
X60200000Y-107149828D02*
X60200000Y-107578400D01*
X60200000Y-107578400D02*
X60114286Y-107921257D01*
X60114286Y-107921257D02*
X60028572Y-108092685D01*
X60028572Y-108092685D02*
X59942857Y-108178400D01*
X59942857Y-108178400D02*
X59771429Y-108264114D01*
X59771429Y-108264114D02*
X59600000Y-108264114D01*
X59600000Y-108264114D02*
X59428572Y-108178400D01*
X59428572Y-108178400D02*
X59342857Y-108092685D01*
X59342857Y-108092685D02*
X59257143Y-107921257D01*
X59257143Y-107921257D02*
X59171429Y-107578400D01*
X59171429Y-107578400D02*
X59171429Y-107149828D01*
X59171429Y-107149828D02*
X59257143Y-106806971D01*
X59257143Y-106806971D02*
X59342857Y-106635542D01*
X59342857Y-106635542D02*
X59428572Y-106549828D01*
X59428572Y-106549828D02*
X59600000Y-106464114D01*
X60885715Y-106635542D02*
X60971429Y-106549828D01*
X60971429Y-106549828D02*
X61142858Y-106464114D01*
X61142858Y-106464114D02*
X61571429Y-106464114D01*
X61571429Y-106464114D02*
X61742858Y-106549828D01*
X61742858Y-106549828D02*
X61828572Y-106635542D01*
X61828572Y-106635542D02*
X61914286Y-106806971D01*
X61914286Y-106806971D02*
X61914286Y-106978400D01*
X61914286Y-106978400D02*
X61828572Y-107235542D01*
X61828572Y-107235542D02*
X60800000Y-108264114D01*
X60800000Y-108264114D02*
X61914286Y-108264114D01*
D13*
X86892660Y-80781184D02*
X86892660Y-81245641D01*
X86892660Y-81013413D02*
X86079860Y-81013413D01*
X86079860Y-81013413D02*
X86195975Y-81090822D01*
X86195975Y-81090822D02*
X86273384Y-81168232D01*
X86273384Y-81168232D02*
X86312089Y-81245641D01*
X86079860Y-80278023D02*
X86079860Y-80200613D01*
X86079860Y-80200613D02*
X86118565Y-80123204D01*
X86118565Y-80123204D02*
X86157270Y-80084499D01*
X86157270Y-80084499D02*
X86234679Y-80045794D01*
X86234679Y-80045794D02*
X86389498Y-80007089D01*
X86389498Y-80007089D02*
X86583022Y-80007089D01*
X86583022Y-80007089D02*
X86737841Y-80045794D01*
X86737841Y-80045794D02*
X86815251Y-80084499D01*
X86815251Y-80084499D02*
X86853956Y-80123204D01*
X86853956Y-80123204D02*
X86892660Y-80200613D01*
X86892660Y-80200613D02*
X86892660Y-80278023D01*
X86892660Y-80278023D02*
X86853956Y-80355432D01*
X86853956Y-80355432D02*
X86815251Y-80394137D01*
X86815251Y-80394137D02*
X86737841Y-80432842D01*
X86737841Y-80432842D02*
X86583022Y-80471546D01*
X86583022Y-80471546D02*
X86389498Y-80471546D01*
X86389498Y-80471546D02*
X86234679Y-80432842D01*
X86234679Y-80432842D02*
X86157270Y-80394137D01*
X86157270Y-80394137D02*
X86118565Y-80355432D01*
X86118565Y-80355432D02*
X86079860Y-80278023D01*
X86079860Y-79503928D02*
X86079860Y-79426518D01*
X86079860Y-79426518D02*
X86118565Y-79349109D01*
X86118565Y-79349109D02*
X86157270Y-79310404D01*
X86157270Y-79310404D02*
X86234679Y-79271699D01*
X86234679Y-79271699D02*
X86389498Y-79232994D01*
X86389498Y-79232994D02*
X86583022Y-79232994D01*
X86583022Y-79232994D02*
X86737841Y-79271699D01*
X86737841Y-79271699D02*
X86815251Y-79310404D01*
X86815251Y-79310404D02*
X86853956Y-79349109D01*
X86853956Y-79349109D02*
X86892660Y-79426518D01*
X86892660Y-79426518D02*
X86892660Y-79503928D01*
X86892660Y-79503928D02*
X86853956Y-79581337D01*
X86853956Y-79581337D02*
X86815251Y-79620042D01*
X86815251Y-79620042D02*
X86737841Y-79658747D01*
X86737841Y-79658747D02*
X86583022Y-79697451D01*
X86583022Y-79697451D02*
X86389498Y-79697451D01*
X86389498Y-79697451D02*
X86234679Y-79658747D01*
X86234679Y-79658747D02*
X86157270Y-79620042D01*
X86157270Y-79620042D02*
X86118565Y-79581337D01*
X86118565Y-79581337D02*
X86079860Y-79503928D01*
X86350794Y-78884652D02*
X86892660Y-78884652D01*
X86428203Y-78884652D02*
X86389498Y-78845947D01*
X86389498Y-78845947D02*
X86350794Y-78768537D01*
X86350794Y-78768537D02*
X86350794Y-78652423D01*
X86350794Y-78652423D02*
X86389498Y-78575014D01*
X86389498Y-78575014D02*
X86466908Y-78536309D01*
X86466908Y-78536309D02*
X86892660Y-78536309D01*
X86892660Y-91281184D02*
X86892660Y-91745641D01*
X86892660Y-91513413D02*
X86079860Y-91513413D01*
X86079860Y-91513413D02*
X86195975Y-91590822D01*
X86195975Y-91590822D02*
X86273384Y-91668232D01*
X86273384Y-91668232D02*
X86312089Y-91745641D01*
X86079860Y-90778023D02*
X86079860Y-90700613D01*
X86079860Y-90700613D02*
X86118565Y-90623204D01*
X86118565Y-90623204D02*
X86157270Y-90584499D01*
X86157270Y-90584499D02*
X86234679Y-90545794D01*
X86234679Y-90545794D02*
X86389498Y-90507089D01*
X86389498Y-90507089D02*
X86583022Y-90507089D01*
X86583022Y-90507089D02*
X86737841Y-90545794D01*
X86737841Y-90545794D02*
X86815251Y-90584499D01*
X86815251Y-90584499D02*
X86853956Y-90623204D01*
X86853956Y-90623204D02*
X86892660Y-90700613D01*
X86892660Y-90700613D02*
X86892660Y-90778023D01*
X86892660Y-90778023D02*
X86853956Y-90855432D01*
X86853956Y-90855432D02*
X86815251Y-90894137D01*
X86815251Y-90894137D02*
X86737841Y-90932842D01*
X86737841Y-90932842D02*
X86583022Y-90971546D01*
X86583022Y-90971546D02*
X86389498Y-90971546D01*
X86389498Y-90971546D02*
X86234679Y-90932842D01*
X86234679Y-90932842D02*
X86157270Y-90894137D01*
X86157270Y-90894137D02*
X86118565Y-90855432D01*
X86118565Y-90855432D02*
X86079860Y-90778023D01*
X86079860Y-90003928D02*
X86079860Y-89926518D01*
X86079860Y-89926518D02*
X86118565Y-89849109D01*
X86118565Y-89849109D02*
X86157270Y-89810404D01*
X86157270Y-89810404D02*
X86234679Y-89771699D01*
X86234679Y-89771699D02*
X86389498Y-89732994D01*
X86389498Y-89732994D02*
X86583022Y-89732994D01*
X86583022Y-89732994D02*
X86737841Y-89771699D01*
X86737841Y-89771699D02*
X86815251Y-89810404D01*
X86815251Y-89810404D02*
X86853956Y-89849109D01*
X86853956Y-89849109D02*
X86892660Y-89926518D01*
X86892660Y-89926518D02*
X86892660Y-90003928D01*
X86892660Y-90003928D02*
X86853956Y-90081337D01*
X86853956Y-90081337D02*
X86815251Y-90120042D01*
X86815251Y-90120042D02*
X86737841Y-90158747D01*
X86737841Y-90158747D02*
X86583022Y-90197451D01*
X86583022Y-90197451D02*
X86389498Y-90197451D01*
X86389498Y-90197451D02*
X86234679Y-90158747D01*
X86234679Y-90158747D02*
X86157270Y-90120042D01*
X86157270Y-90120042D02*
X86118565Y-90081337D01*
X86118565Y-90081337D02*
X86079860Y-90003928D01*
X86350794Y-89384652D02*
X86892660Y-89384652D01*
X86428203Y-89384652D02*
X86389498Y-89345947D01*
X86389498Y-89345947D02*
X86350794Y-89268537D01*
X86350794Y-89268537D02*
X86350794Y-89152423D01*
X86350794Y-89152423D02*
X86389498Y-89075014D01*
X86389498Y-89075014D02*
X86466908Y-89036309D01*
X86466908Y-89036309D02*
X86892660Y-89036309D01*
X86892660Y-101281184D02*
X86892660Y-101745641D01*
X86892660Y-101513413D02*
X86079860Y-101513413D01*
X86079860Y-101513413D02*
X86195975Y-101590822D01*
X86195975Y-101590822D02*
X86273384Y-101668232D01*
X86273384Y-101668232D02*
X86312089Y-101745641D01*
X86079860Y-100778023D02*
X86079860Y-100700613D01*
X86079860Y-100700613D02*
X86118565Y-100623204D01*
X86118565Y-100623204D02*
X86157270Y-100584499D01*
X86157270Y-100584499D02*
X86234679Y-100545794D01*
X86234679Y-100545794D02*
X86389498Y-100507089D01*
X86389498Y-100507089D02*
X86583022Y-100507089D01*
X86583022Y-100507089D02*
X86737841Y-100545794D01*
X86737841Y-100545794D02*
X86815251Y-100584499D01*
X86815251Y-100584499D02*
X86853956Y-100623204D01*
X86853956Y-100623204D02*
X86892660Y-100700613D01*
X86892660Y-100700613D02*
X86892660Y-100778023D01*
X86892660Y-100778023D02*
X86853956Y-100855432D01*
X86853956Y-100855432D02*
X86815251Y-100894137D01*
X86815251Y-100894137D02*
X86737841Y-100932842D01*
X86737841Y-100932842D02*
X86583022Y-100971546D01*
X86583022Y-100971546D02*
X86389498Y-100971546D01*
X86389498Y-100971546D02*
X86234679Y-100932842D01*
X86234679Y-100932842D02*
X86157270Y-100894137D01*
X86157270Y-100894137D02*
X86118565Y-100855432D01*
X86118565Y-100855432D02*
X86079860Y-100778023D01*
X86079860Y-100003928D02*
X86079860Y-99926518D01*
X86079860Y-99926518D02*
X86118565Y-99849109D01*
X86118565Y-99849109D02*
X86157270Y-99810404D01*
X86157270Y-99810404D02*
X86234679Y-99771699D01*
X86234679Y-99771699D02*
X86389498Y-99732994D01*
X86389498Y-99732994D02*
X86583022Y-99732994D01*
X86583022Y-99732994D02*
X86737841Y-99771699D01*
X86737841Y-99771699D02*
X86815251Y-99810404D01*
X86815251Y-99810404D02*
X86853956Y-99849109D01*
X86853956Y-99849109D02*
X86892660Y-99926518D01*
X86892660Y-99926518D02*
X86892660Y-100003928D01*
X86892660Y-100003928D02*
X86853956Y-100081337D01*
X86853956Y-100081337D02*
X86815251Y-100120042D01*
X86815251Y-100120042D02*
X86737841Y-100158747D01*
X86737841Y-100158747D02*
X86583022Y-100197451D01*
X86583022Y-100197451D02*
X86389498Y-100197451D01*
X86389498Y-100197451D02*
X86234679Y-100158747D01*
X86234679Y-100158747D02*
X86157270Y-100120042D01*
X86157270Y-100120042D02*
X86118565Y-100081337D01*
X86118565Y-100081337D02*
X86079860Y-100003928D01*
X86350794Y-99384652D02*
X86892660Y-99384652D01*
X86428203Y-99384652D02*
X86389498Y-99345947D01*
X86389498Y-99345947D02*
X86350794Y-99268537D01*
X86350794Y-99268537D02*
X86350794Y-99152423D01*
X86350794Y-99152423D02*
X86389498Y-99075014D01*
X86389498Y-99075014D02*
X86466908Y-99036309D01*
X86466908Y-99036309D02*
X86892660Y-99036309D01*
X91892660Y-99281184D02*
X91892660Y-99745641D01*
X91892660Y-99513413D02*
X91079860Y-99513413D01*
X91079860Y-99513413D02*
X91195975Y-99590822D01*
X91195975Y-99590822D02*
X91273384Y-99668232D01*
X91273384Y-99668232D02*
X91312089Y-99745641D01*
X91892660Y-98932842D02*
X91079860Y-98932842D01*
X91583022Y-98855432D02*
X91892660Y-98623204D01*
X91350794Y-98623204D02*
X91660432Y-98932842D01*
X91892660Y-89281184D02*
X91892660Y-89745641D01*
X91892660Y-89513413D02*
X91079860Y-89513413D01*
X91079860Y-89513413D02*
X91195975Y-89590822D01*
X91195975Y-89590822D02*
X91273384Y-89668232D01*
X91273384Y-89668232D02*
X91312089Y-89745641D01*
X91892660Y-88932842D02*
X91079860Y-88932842D01*
X91583022Y-88855432D02*
X91892660Y-88623204D01*
X91350794Y-88623204D02*
X91660432Y-88932842D01*
X91892660Y-78781184D02*
X91892660Y-79245641D01*
X91892660Y-79013413D02*
X91079860Y-79013413D01*
X91079860Y-79013413D02*
X91195975Y-79090822D01*
X91195975Y-79090822D02*
X91273384Y-79168232D01*
X91273384Y-79168232D02*
X91312089Y-79245641D01*
X91892660Y-78432842D02*
X91079860Y-78432842D01*
X91583022Y-78355432D02*
X91892660Y-78123204D01*
X91350794Y-78123204D02*
X91660432Y-78432842D01*
X88718815Y-68892660D02*
X88254358Y-68892660D01*
X88486586Y-68892660D02*
X88486586Y-68079860D01*
X88486586Y-68079860D02*
X88409177Y-68195975D01*
X88409177Y-68195975D02*
X88331767Y-68273384D01*
X88331767Y-68273384D02*
X88254358Y-68312089D01*
X89067157Y-68892660D02*
X89067157Y-68079860D01*
X89144567Y-68583022D02*
X89376795Y-68892660D01*
X89376795Y-68350794D02*
X89067157Y-68660432D01*
D14*
X69255082Y-88060375D02*
X69642129Y-88060375D01*
X69177672Y-88292603D02*
X69448605Y-87479803D01*
X69448605Y-87479803D02*
X69719539Y-88292603D01*
X69990472Y-88292603D02*
X69990472Y-87750737D01*
X69990472Y-87905556D02*
X70029177Y-87828146D01*
X70029177Y-87828146D02*
X70067882Y-87789441D01*
X70067882Y-87789441D02*
X70145291Y-87750737D01*
X70145291Y-87750737D02*
X70222701Y-87750737D01*
X70841977Y-88292603D02*
X70841977Y-87479803D01*
X70841977Y-88253899D02*
X70764568Y-88292603D01*
X70764568Y-88292603D02*
X70609749Y-88292603D01*
X70609749Y-88292603D02*
X70532339Y-88253899D01*
X70532339Y-88253899D02*
X70493634Y-88215194D01*
X70493634Y-88215194D02*
X70454930Y-88137784D01*
X70454930Y-88137784D02*
X70454930Y-87905556D01*
X70454930Y-87905556D02*
X70493634Y-87828146D01*
X70493634Y-87828146D02*
X70532339Y-87789441D01*
X70532339Y-87789441D02*
X70609749Y-87750737D01*
X70609749Y-87750737D02*
X70764568Y-87750737D01*
X70764568Y-87750737D02*
X70841977Y-87789441D01*
X71577367Y-87750737D02*
X71577367Y-88292603D01*
X71229024Y-87750737D02*
X71229024Y-88176489D01*
X71229024Y-88176489D02*
X71267729Y-88253899D01*
X71267729Y-88253899D02*
X71345139Y-88292603D01*
X71345139Y-88292603D02*
X71461253Y-88292603D01*
X71461253Y-88292603D02*
X71538662Y-88253899D01*
X71538662Y-88253899D02*
X71577367Y-88215194D01*
X71964414Y-88292603D02*
X71964414Y-87750737D01*
X71964414Y-87479803D02*
X71925710Y-87518508D01*
X71925710Y-87518508D02*
X71964414Y-87557213D01*
X71964414Y-87557213D02*
X72003119Y-87518508D01*
X72003119Y-87518508D02*
X71964414Y-87479803D01*
X71964414Y-87479803D02*
X71964414Y-87557213D01*
X72351462Y-87750737D02*
X72351462Y-88292603D01*
X72351462Y-87828146D02*
X72390167Y-87789441D01*
X72390167Y-87789441D02*
X72467577Y-87750737D01*
X72467577Y-87750737D02*
X72583691Y-87750737D01*
X72583691Y-87750737D02*
X72661100Y-87789441D01*
X72661100Y-87789441D02*
X72699805Y-87866851D01*
X72699805Y-87866851D02*
X72699805Y-88292603D01*
X73202967Y-88292603D02*
X73125557Y-88253899D01*
X73125557Y-88253899D02*
X73086852Y-88215194D01*
X73086852Y-88215194D02*
X73048148Y-88137784D01*
X73048148Y-88137784D02*
X73048148Y-87905556D01*
X73048148Y-87905556D02*
X73086852Y-87828146D01*
X73086852Y-87828146D02*
X73125557Y-87789441D01*
X73125557Y-87789441D02*
X73202967Y-87750737D01*
X73202967Y-87750737D02*
X73319081Y-87750737D01*
X73319081Y-87750737D02*
X73396490Y-87789441D01*
X73396490Y-87789441D02*
X73435195Y-87828146D01*
X73435195Y-87828146D02*
X73473900Y-87905556D01*
X73473900Y-87905556D02*
X73473900Y-88137784D01*
X73473900Y-88137784D02*
X73435195Y-88215194D01*
X73435195Y-88215194D02*
X73396490Y-88253899D01*
X73396490Y-88253899D02*
X73319081Y-88292603D01*
X73319081Y-88292603D02*
X73202967Y-88292603D01*
X74441518Y-88292603D02*
X74441518Y-87479803D01*
X74441518Y-87479803D02*
X74905975Y-88292603D01*
X74905975Y-88292603D02*
X74905975Y-87479803D01*
X75641366Y-88292603D02*
X75641366Y-87866851D01*
X75641366Y-87866851D02*
X75602661Y-87789441D01*
X75602661Y-87789441D02*
X75525252Y-87750737D01*
X75525252Y-87750737D02*
X75370433Y-87750737D01*
X75370433Y-87750737D02*
X75293023Y-87789441D01*
X75641366Y-88253899D02*
X75563957Y-88292603D01*
X75563957Y-88292603D02*
X75370433Y-88292603D01*
X75370433Y-88292603D02*
X75293023Y-88253899D01*
X75293023Y-88253899D02*
X75254319Y-88176489D01*
X75254319Y-88176489D02*
X75254319Y-88099079D01*
X75254319Y-88099079D02*
X75293023Y-88021670D01*
X75293023Y-88021670D02*
X75370433Y-87982965D01*
X75370433Y-87982965D02*
X75563957Y-87982965D01*
X75563957Y-87982965D02*
X75641366Y-87944260D01*
X76028413Y-87750737D02*
X76028413Y-88292603D01*
X76028413Y-87828146D02*
X76067118Y-87789441D01*
X76067118Y-87789441D02*
X76144528Y-87750737D01*
X76144528Y-87750737D02*
X76260642Y-87750737D01*
X76260642Y-87750737D02*
X76338051Y-87789441D01*
X76338051Y-87789441D02*
X76376756Y-87866851D01*
X76376756Y-87866851D02*
X76376756Y-88292603D01*
X76879918Y-88292603D02*
X76802508Y-88253899D01*
X76802508Y-88253899D02*
X76763803Y-88215194D01*
X76763803Y-88215194D02*
X76725099Y-88137784D01*
X76725099Y-88137784D02*
X76725099Y-87905556D01*
X76725099Y-87905556D02*
X76763803Y-87828146D01*
X76763803Y-87828146D02*
X76802508Y-87789441D01*
X76802508Y-87789441D02*
X76879918Y-87750737D01*
X76879918Y-87750737D02*
X76996032Y-87750737D01*
X76996032Y-87750737D02*
X77073441Y-87789441D01*
X77073441Y-87789441D02*
X77112146Y-87828146D01*
X77112146Y-87828146D02*
X77150851Y-87905556D01*
X77150851Y-87905556D02*
X77150851Y-88137784D01*
X77150851Y-88137784D02*
X77112146Y-88215194D01*
X77112146Y-88215194D02*
X77073441Y-88253899D01*
X77073441Y-88253899D02*
X76996032Y-88292603D01*
X76996032Y-88292603D02*
X76879918Y-88292603D01*
D11*
X42953503Y-75154024D02*
X43069617Y-75192728D01*
X43069617Y-75192728D02*
X43263141Y-75192728D01*
X43263141Y-75192728D02*
X43340550Y-75154024D01*
X43340550Y-75154024D02*
X43379255Y-75115319D01*
X43379255Y-75115319D02*
X43417960Y-75037909D01*
X43417960Y-75037909D02*
X43417960Y-74960500D01*
X43417960Y-74960500D02*
X43379255Y-74883090D01*
X43379255Y-74883090D02*
X43340550Y-74844385D01*
X43340550Y-74844385D02*
X43263141Y-74805681D01*
X43263141Y-74805681D02*
X43108322Y-74766976D01*
X43108322Y-74766976D02*
X43030912Y-74728271D01*
X43030912Y-74728271D02*
X42992207Y-74689566D01*
X42992207Y-74689566D02*
X42953503Y-74612157D01*
X42953503Y-74612157D02*
X42953503Y-74534747D01*
X42953503Y-74534747D02*
X42992207Y-74457338D01*
X42992207Y-74457338D02*
X43030912Y-74418633D01*
X43030912Y-74418633D02*
X43108322Y-74379928D01*
X43108322Y-74379928D02*
X43301845Y-74379928D01*
X43301845Y-74379928D02*
X43417960Y-74418633D01*
X43727598Y-75154024D02*
X43843712Y-75192728D01*
X43843712Y-75192728D02*
X44037236Y-75192728D01*
X44037236Y-75192728D02*
X44114645Y-75154024D01*
X44114645Y-75154024D02*
X44153350Y-75115319D01*
X44153350Y-75115319D02*
X44192055Y-75037909D01*
X44192055Y-75037909D02*
X44192055Y-74960500D01*
X44192055Y-74960500D02*
X44153350Y-74883090D01*
X44153350Y-74883090D02*
X44114645Y-74844385D01*
X44114645Y-74844385D02*
X44037236Y-74805681D01*
X44037236Y-74805681D02*
X43882417Y-74766976D01*
X43882417Y-74766976D02*
X43805007Y-74728271D01*
X43805007Y-74728271D02*
X43766302Y-74689566D01*
X43766302Y-74689566D02*
X43727598Y-74612157D01*
X43727598Y-74612157D02*
X43727598Y-74534747D01*
X43727598Y-74534747D02*
X43766302Y-74457338D01*
X43766302Y-74457338D02*
X43805007Y-74418633D01*
X43805007Y-74418633D02*
X43882417Y-74379928D01*
X43882417Y-74379928D02*
X44075940Y-74379928D01*
X44075940Y-74379928D02*
X44192055Y-74418633D01*
X44540397Y-75192728D02*
X44540397Y-74379928D01*
X44540397Y-74379928D02*
X44733921Y-74379928D01*
X44733921Y-74379928D02*
X44850035Y-74418633D01*
X44850035Y-74418633D02*
X44927445Y-74496043D01*
X44927445Y-74496043D02*
X44966150Y-74573452D01*
X44966150Y-74573452D02*
X45004854Y-74728271D01*
X45004854Y-74728271D02*
X45004854Y-74844385D01*
X45004854Y-74844385D02*
X44966150Y-74999204D01*
X44966150Y-74999204D02*
X44927445Y-75076614D01*
X44927445Y-75076614D02*
X44850035Y-75154024D01*
X44850035Y-75154024D02*
X44733921Y-75192728D01*
X44733921Y-75192728D02*
X44540397Y-75192728D01*
X45778950Y-75192728D02*
X45314493Y-75192728D01*
X45546721Y-75192728D02*
X45546721Y-74379928D01*
X45546721Y-74379928D02*
X45469312Y-74496043D01*
X45469312Y-74496043D02*
X45391902Y-74573452D01*
X45391902Y-74573452D02*
X45314493Y-74612157D01*
X46049883Y-74379928D02*
X46553045Y-74379928D01*
X46553045Y-74379928D02*
X46282111Y-74689566D01*
X46282111Y-74689566D02*
X46398226Y-74689566D01*
X46398226Y-74689566D02*
X46475635Y-74728271D01*
X46475635Y-74728271D02*
X46514340Y-74766976D01*
X46514340Y-74766976D02*
X46553045Y-74844385D01*
X46553045Y-74844385D02*
X46553045Y-75037909D01*
X46553045Y-75037909D02*
X46514340Y-75115319D01*
X46514340Y-75115319D02*
X46475635Y-75154024D01*
X46475635Y-75154024D02*
X46398226Y-75192728D01*
X46398226Y-75192728D02*
X46165997Y-75192728D01*
X46165997Y-75192728D02*
X46088588Y-75154024D01*
X46088588Y-75154024D02*
X46049883Y-75115319D01*
X47056206Y-74379928D02*
X47133616Y-74379928D01*
X47133616Y-74379928D02*
X47211025Y-74418633D01*
X47211025Y-74418633D02*
X47249730Y-74457338D01*
X47249730Y-74457338D02*
X47288435Y-74534747D01*
X47288435Y-74534747D02*
X47327140Y-74689566D01*
X47327140Y-74689566D02*
X47327140Y-74883090D01*
X47327140Y-74883090D02*
X47288435Y-75037909D01*
X47288435Y-75037909D02*
X47249730Y-75115319D01*
X47249730Y-75115319D02*
X47211025Y-75154024D01*
X47211025Y-75154024D02*
X47133616Y-75192728D01*
X47133616Y-75192728D02*
X47056206Y-75192728D01*
X47056206Y-75192728D02*
X46978797Y-75154024D01*
X46978797Y-75154024D02*
X46940092Y-75115319D01*
X46940092Y-75115319D02*
X46901387Y-75037909D01*
X46901387Y-75037909D02*
X46862683Y-74883090D01*
X46862683Y-74883090D02*
X46862683Y-74689566D01*
X46862683Y-74689566D02*
X46901387Y-74534747D01*
X46901387Y-74534747D02*
X46940092Y-74457338D01*
X46940092Y-74457338D02*
X46978797Y-74418633D01*
X46978797Y-74418633D02*
X47056206Y-74379928D01*
X48023825Y-74379928D02*
X47869006Y-74379928D01*
X47869006Y-74379928D02*
X47791597Y-74418633D01*
X47791597Y-74418633D02*
X47752892Y-74457338D01*
X47752892Y-74457338D02*
X47675482Y-74573452D01*
X47675482Y-74573452D02*
X47636778Y-74728271D01*
X47636778Y-74728271D02*
X47636778Y-75037909D01*
X47636778Y-75037909D02*
X47675482Y-75115319D01*
X47675482Y-75115319D02*
X47714187Y-75154024D01*
X47714187Y-75154024D02*
X47791597Y-75192728D01*
X47791597Y-75192728D02*
X47946416Y-75192728D01*
X47946416Y-75192728D02*
X48023825Y-75154024D01*
X48023825Y-75154024D02*
X48062530Y-75115319D01*
X48062530Y-75115319D02*
X48101235Y-75037909D01*
X48101235Y-75037909D02*
X48101235Y-74844385D01*
X48101235Y-74844385D02*
X48062530Y-74766976D01*
X48062530Y-74766976D02*
X48023825Y-74728271D01*
X48023825Y-74728271D02*
X47946416Y-74689566D01*
X47946416Y-74689566D02*
X47791597Y-74689566D01*
X47791597Y-74689566D02*
X47714187Y-74728271D01*
X47714187Y-74728271D02*
X47675482Y-74766976D01*
X47675482Y-74766976D02*
X47636778Y-74844385D01*
X49223672Y-74379928D02*
X49378491Y-74379928D01*
X49378491Y-74379928D02*
X49455901Y-74418633D01*
X49455901Y-74418633D02*
X49533310Y-74496043D01*
X49533310Y-74496043D02*
X49572015Y-74650862D01*
X49572015Y-74650862D02*
X49572015Y-74921795D01*
X49572015Y-74921795D02*
X49533310Y-75076614D01*
X49533310Y-75076614D02*
X49455901Y-75154024D01*
X49455901Y-75154024D02*
X49378491Y-75192728D01*
X49378491Y-75192728D02*
X49223672Y-75192728D01*
X49223672Y-75192728D02*
X49146263Y-75154024D01*
X49146263Y-75154024D02*
X49068853Y-75076614D01*
X49068853Y-75076614D02*
X49030149Y-74921795D01*
X49030149Y-74921795D02*
X49030149Y-74650862D01*
X49030149Y-74650862D02*
X49068853Y-74496043D01*
X49068853Y-74496043D02*
X49146263Y-74418633D01*
X49146263Y-74418633D02*
X49223672Y-74379928D01*
X50307406Y-75192728D02*
X49920358Y-75192728D01*
X49920358Y-75192728D02*
X49920358Y-74379928D01*
X50578339Y-74766976D02*
X50849273Y-74766976D01*
X50965387Y-75192728D02*
X50578339Y-75192728D01*
X50578339Y-75192728D02*
X50578339Y-74379928D01*
X50578339Y-74379928D02*
X50965387Y-74379928D01*
X51313729Y-75192728D02*
X51313729Y-74379928D01*
X51313729Y-74379928D02*
X51507253Y-74379928D01*
X51507253Y-74379928D02*
X51623367Y-74418633D01*
X51623367Y-74418633D02*
X51700777Y-74496043D01*
X51700777Y-74496043D02*
X51739482Y-74573452D01*
X51739482Y-74573452D02*
X51778186Y-74728271D01*
X51778186Y-74728271D02*
X51778186Y-74844385D01*
X51778186Y-74844385D02*
X51739482Y-74999204D01*
X51739482Y-74999204D02*
X51700777Y-75076614D01*
X51700777Y-75076614D02*
X51623367Y-75154024D01*
X51623367Y-75154024D02*
X51507253Y-75192728D01*
X51507253Y-75192728D02*
X51313729Y-75192728D01*
X100104286Y-85084819D02*
X100104286Y-85894342D01*
X100104286Y-85894342D02*
X100151905Y-85989580D01*
X100151905Y-85989580D02*
X100199524Y-86037200D01*
X100199524Y-86037200D02*
X100294762Y-86084819D01*
X100294762Y-86084819D02*
X100485238Y-86084819D01*
X100485238Y-86084819D02*
X100580476Y-86037200D01*
X100580476Y-86037200D02*
X100628095Y-85989580D01*
X100628095Y-85989580D02*
X100675714Y-85894342D01*
X100675714Y-85894342D02*
X100675714Y-85084819D01*
X101151905Y-86084819D02*
X101151905Y-85084819D01*
X101151905Y-85084819D02*
X101532857Y-85084819D01*
X101532857Y-85084819D02*
X101628095Y-85132438D01*
X101628095Y-85132438D02*
X101675714Y-85180057D01*
X101675714Y-85180057D02*
X101723333Y-85275295D01*
X101723333Y-85275295D02*
X101723333Y-85418152D01*
X101723333Y-85418152D02*
X101675714Y-85513390D01*
X101675714Y-85513390D02*
X101628095Y-85561009D01*
X101628095Y-85561009D02*
X101532857Y-85608628D01*
X101532857Y-85608628D02*
X101151905Y-85608628D01*
X96917143Y-72709104D02*
X97393333Y-72709104D01*
X96821905Y-72994819D02*
X97155238Y-71994819D01*
X97155238Y-71994819D02*
X97488571Y-72994819D01*
X98298095Y-72994819D02*
X97821905Y-72994819D01*
X97821905Y-72994819D02*
X97821905Y-71994819D01*
X98583810Y-72709104D02*
X99060000Y-72709104D01*
X98488572Y-72994819D02*
X98821905Y-71994819D01*
X98821905Y-71994819D02*
X99155238Y-72994819D01*
X100060000Y-72994819D02*
X99726667Y-72518628D01*
X99488572Y-72994819D02*
X99488572Y-71994819D01*
X99488572Y-71994819D02*
X99869524Y-71994819D01*
X99869524Y-71994819D02*
X99964762Y-72042438D01*
X99964762Y-72042438D02*
X100012381Y-72090057D01*
X100012381Y-72090057D02*
X100060000Y-72185295D01*
X100060000Y-72185295D02*
X100060000Y-72328152D01*
X100060000Y-72328152D02*
X100012381Y-72423390D01*
X100012381Y-72423390D02*
X99964762Y-72471009D01*
X99964762Y-72471009D02*
X99869524Y-72518628D01*
X99869524Y-72518628D02*
X99488572Y-72518628D01*
X100488572Y-72994819D02*
X100488572Y-71994819D01*
X100488572Y-71994819D02*
X100821905Y-72709104D01*
X100821905Y-72709104D02*
X101155238Y-71994819D01*
X101155238Y-71994819D02*
X101155238Y-72994819D01*
X94264819Y-89066666D02*
X93788628Y-89399999D01*
X94264819Y-89638094D02*
X93264819Y-89638094D01*
X93264819Y-89638094D02*
X93264819Y-89257142D01*
X93264819Y-89257142D02*
X93312438Y-89161904D01*
X93312438Y-89161904D02*
X93360057Y-89114285D01*
X93360057Y-89114285D02*
X93455295Y-89066666D01*
X93455295Y-89066666D02*
X93598152Y-89066666D01*
X93598152Y-89066666D02*
X93693390Y-89114285D01*
X93693390Y-89114285D02*
X93741009Y-89161904D01*
X93741009Y-89161904D02*
X93788628Y-89257142D01*
X93788628Y-89257142D02*
X93788628Y-89638094D01*
X93360057Y-88685713D02*
X93312438Y-88638094D01*
X93312438Y-88638094D02*
X93264819Y-88542856D01*
X93264819Y-88542856D02*
X93264819Y-88304761D01*
X93264819Y-88304761D02*
X93312438Y-88209523D01*
X93312438Y-88209523D02*
X93360057Y-88161904D01*
X93360057Y-88161904D02*
X93455295Y-88114285D01*
X93455295Y-88114285D02*
X93550533Y-88114285D01*
X93550533Y-88114285D02*
X93693390Y-88161904D01*
X93693390Y-88161904D02*
X94264819Y-88733332D01*
X94264819Y-88733332D02*
X94264819Y-88114285D01*
X94264819Y-99226666D02*
X93788628Y-99559999D01*
X94264819Y-99798094D02*
X93264819Y-99798094D01*
X93264819Y-99798094D02*
X93264819Y-99417142D01*
X93264819Y-99417142D02*
X93312438Y-99321904D01*
X93312438Y-99321904D02*
X93360057Y-99274285D01*
X93360057Y-99274285D02*
X93455295Y-99226666D01*
X93455295Y-99226666D02*
X93598152Y-99226666D01*
X93598152Y-99226666D02*
X93693390Y-99274285D01*
X93693390Y-99274285D02*
X93741009Y-99321904D01*
X93741009Y-99321904D02*
X93788628Y-99417142D01*
X93788628Y-99417142D02*
X93788628Y-99798094D01*
X93264819Y-98893332D02*
X93264819Y-98274285D01*
X93264819Y-98274285D02*
X93645771Y-98607618D01*
X93645771Y-98607618D02*
X93645771Y-98464761D01*
X93645771Y-98464761D02*
X93693390Y-98369523D01*
X93693390Y-98369523D02*
X93741009Y-98321904D01*
X93741009Y-98321904D02*
X93836247Y-98274285D01*
X93836247Y-98274285D02*
X94074342Y-98274285D01*
X94074342Y-98274285D02*
X94169580Y-98321904D01*
X94169580Y-98321904D02*
X94217200Y-98369523D01*
X94217200Y-98369523D02*
X94264819Y-98464761D01*
X94264819Y-98464761D02*
X94264819Y-98750475D01*
X94264819Y-98750475D02*
X94217200Y-98845713D01*
X94217200Y-98845713D02*
X94169580Y-98893332D01*
D15*
X33738095Y-93957419D02*
X33738095Y-94766942D01*
X33738095Y-94766942D02*
X33785714Y-94862180D01*
X33785714Y-94862180D02*
X33833333Y-94909800D01*
X33833333Y-94909800D02*
X33928571Y-94957419D01*
X33928571Y-94957419D02*
X34119047Y-94957419D01*
X34119047Y-94957419D02*
X34214285Y-94909800D01*
X34214285Y-94909800D02*
X34261904Y-94862180D01*
X34261904Y-94862180D02*
X34309523Y-94766942D01*
X34309523Y-94766942D02*
X34309523Y-93957419D01*
X35309523Y-94957419D02*
X34738095Y-94957419D01*
X35023809Y-94957419D02*
X35023809Y-93957419D01*
X35023809Y-93957419D02*
X34928571Y-94100276D01*
X34928571Y-94100276D02*
X34833333Y-94195514D01*
X34833333Y-94195514D02*
X34738095Y-94243133D01*
X36049133Y-100637544D02*
X35349133Y-100637544D01*
X36049133Y-100304211D02*
X35349133Y-100304211D01*
X35349133Y-100304211D02*
X36049133Y-99904211D01*
X36049133Y-99904211D02*
X35349133Y-99904211D01*
X35349133Y-99670878D02*
X35349133Y-99270878D01*
X36049133Y-99470878D02*
X35349133Y-99470878D01*
X41015800Y-100670877D02*
X41049133Y-100570877D01*
X41049133Y-100570877D02*
X41049133Y-100404211D01*
X41049133Y-100404211D02*
X41015800Y-100337544D01*
X41015800Y-100337544D02*
X40982466Y-100304211D01*
X40982466Y-100304211D02*
X40915800Y-100270877D01*
X40915800Y-100270877D02*
X40849133Y-100270877D01*
X40849133Y-100270877D02*
X40782466Y-100304211D01*
X40782466Y-100304211D02*
X40749133Y-100337544D01*
X40749133Y-100337544D02*
X40715800Y-100404211D01*
X40715800Y-100404211D02*
X40682466Y-100537544D01*
X40682466Y-100537544D02*
X40649133Y-100604211D01*
X40649133Y-100604211D02*
X40615800Y-100637544D01*
X40615800Y-100637544D02*
X40549133Y-100670877D01*
X40549133Y-100670877D02*
X40482466Y-100670877D01*
X40482466Y-100670877D02*
X40415800Y-100637544D01*
X40415800Y-100637544D02*
X40382466Y-100604211D01*
X40382466Y-100604211D02*
X40349133Y-100537544D01*
X40349133Y-100537544D02*
X40349133Y-100370877D01*
X40349133Y-100370877D02*
X40382466Y-100270877D01*
X40982466Y-99570877D02*
X41015800Y-99604210D01*
X41015800Y-99604210D02*
X41049133Y-99704210D01*
X41049133Y-99704210D02*
X41049133Y-99770877D01*
X41049133Y-99770877D02*
X41015800Y-99870877D01*
X41015800Y-99870877D02*
X40949133Y-99937544D01*
X40949133Y-99937544D02*
X40882466Y-99970877D01*
X40882466Y-99970877D02*
X40749133Y-100004210D01*
X40749133Y-100004210D02*
X40649133Y-100004210D01*
X40649133Y-100004210D02*
X40515800Y-99970877D01*
X40515800Y-99970877D02*
X40449133Y-99937544D01*
X40449133Y-99937544D02*
X40382466Y-99870877D01*
X40382466Y-99870877D02*
X40349133Y-99770877D01*
X40349133Y-99770877D02*
X40349133Y-99704210D01*
X40349133Y-99704210D02*
X40382466Y-99604210D01*
X40382466Y-99604210D02*
X40415800Y-99570877D01*
X41049133Y-98937544D02*
X41049133Y-99270877D01*
X41049133Y-99270877D02*
X40349133Y-99270877D01*
X42882466Y-100270877D02*
X42849133Y-100337544D01*
X42849133Y-100337544D02*
X42849133Y-100437544D01*
X42849133Y-100437544D02*
X42882466Y-100537544D01*
X42882466Y-100537544D02*
X42949133Y-100604211D01*
X42949133Y-100604211D02*
X43015800Y-100637544D01*
X43015800Y-100637544D02*
X43149133Y-100670877D01*
X43149133Y-100670877D02*
X43249133Y-100670877D01*
X43249133Y-100670877D02*
X43382466Y-100637544D01*
X43382466Y-100637544D02*
X43449133Y-100604211D01*
X43449133Y-100604211D02*
X43515800Y-100537544D01*
X43515800Y-100537544D02*
X43549133Y-100437544D01*
X43549133Y-100437544D02*
X43549133Y-100370877D01*
X43549133Y-100370877D02*
X43515800Y-100270877D01*
X43515800Y-100270877D02*
X43482466Y-100237544D01*
X43482466Y-100237544D02*
X43249133Y-100237544D01*
X43249133Y-100237544D02*
X43249133Y-100370877D01*
X43549133Y-99937544D02*
X42849133Y-99937544D01*
X42849133Y-99937544D02*
X43549133Y-99537544D01*
X43549133Y-99537544D02*
X42849133Y-99537544D01*
X43549133Y-99204211D02*
X42849133Y-99204211D01*
X42849133Y-99204211D02*
X42849133Y-99037544D01*
X42849133Y-99037544D02*
X42882466Y-98937544D01*
X42882466Y-98937544D02*
X42949133Y-98870878D01*
X42949133Y-98870878D02*
X43015800Y-98837544D01*
X43015800Y-98837544D02*
X43149133Y-98804211D01*
X43149133Y-98804211D02*
X43249133Y-98804211D01*
X43249133Y-98804211D02*
X43382466Y-98837544D01*
X43382466Y-98837544D02*
X43449133Y-98870878D01*
X43449133Y-98870878D02*
X43515800Y-98937544D01*
X43515800Y-98937544D02*
X43549133Y-99037544D01*
X43549133Y-99037544D02*
X43549133Y-99204211D01*
X45349133Y-100737544D02*
X46049133Y-100504211D01*
X46049133Y-100504211D02*
X45349133Y-100270877D01*
X45982466Y-99637544D02*
X46015800Y-99670877D01*
X46015800Y-99670877D02*
X46049133Y-99770877D01*
X46049133Y-99770877D02*
X46049133Y-99837544D01*
X46049133Y-99837544D02*
X46015800Y-99937544D01*
X46015800Y-99937544D02*
X45949133Y-100004211D01*
X45949133Y-100004211D02*
X45882466Y-100037544D01*
X45882466Y-100037544D02*
X45749133Y-100070877D01*
X45749133Y-100070877D02*
X45649133Y-100070877D01*
X45649133Y-100070877D02*
X45515800Y-100037544D01*
X45515800Y-100037544D02*
X45449133Y-100004211D01*
X45449133Y-100004211D02*
X45382466Y-99937544D01*
X45382466Y-99937544D02*
X45349133Y-99837544D01*
X45349133Y-99837544D02*
X45349133Y-99770877D01*
X45349133Y-99770877D02*
X45382466Y-99670877D01*
X45382466Y-99670877D02*
X45415800Y-99637544D01*
X45982466Y-98937544D02*
X46015800Y-98970877D01*
X46015800Y-98970877D02*
X46049133Y-99070877D01*
X46049133Y-99070877D02*
X46049133Y-99137544D01*
X46049133Y-99137544D02*
X46015800Y-99237544D01*
X46015800Y-99237544D02*
X45949133Y-99304211D01*
X45949133Y-99304211D02*
X45882466Y-99337544D01*
X45882466Y-99337544D02*
X45749133Y-99370877D01*
X45749133Y-99370877D02*
X45649133Y-99370877D01*
X45649133Y-99370877D02*
X45515800Y-99337544D01*
X45515800Y-99337544D02*
X45449133Y-99304211D01*
X45449133Y-99304211D02*
X45382466Y-99237544D01*
X45382466Y-99237544D02*
X45349133Y-99137544D01*
X45349133Y-99137544D02*
X45349133Y-99070877D01*
X45349133Y-99070877D02*
X45382466Y-98970877D01*
X45382466Y-98970877D02*
X45415800Y-98937544D01*
X38515800Y-100670877D02*
X38549133Y-100570877D01*
X38549133Y-100570877D02*
X38549133Y-100404211D01*
X38549133Y-100404211D02*
X38515800Y-100337544D01*
X38515800Y-100337544D02*
X38482466Y-100304211D01*
X38482466Y-100304211D02*
X38415800Y-100270877D01*
X38415800Y-100270877D02*
X38349133Y-100270877D01*
X38349133Y-100270877D02*
X38282466Y-100304211D01*
X38282466Y-100304211D02*
X38249133Y-100337544D01*
X38249133Y-100337544D02*
X38215800Y-100404211D01*
X38215800Y-100404211D02*
X38182466Y-100537544D01*
X38182466Y-100537544D02*
X38149133Y-100604211D01*
X38149133Y-100604211D02*
X38115800Y-100637544D01*
X38115800Y-100637544D02*
X38049133Y-100670877D01*
X38049133Y-100670877D02*
X37982466Y-100670877D01*
X37982466Y-100670877D02*
X37915800Y-100637544D01*
X37915800Y-100637544D02*
X37882466Y-100604211D01*
X37882466Y-100604211D02*
X37849133Y-100537544D01*
X37849133Y-100537544D02*
X37849133Y-100370877D01*
X37849133Y-100370877D02*
X37882466Y-100270877D01*
X38549133Y-99970877D02*
X37849133Y-99970877D01*
X37849133Y-99970877D02*
X37849133Y-99804210D01*
X37849133Y-99804210D02*
X37882466Y-99704210D01*
X37882466Y-99704210D02*
X37949133Y-99637544D01*
X37949133Y-99637544D02*
X38015800Y-99604210D01*
X38015800Y-99604210D02*
X38149133Y-99570877D01*
X38149133Y-99570877D02*
X38249133Y-99570877D01*
X38249133Y-99570877D02*
X38382466Y-99604210D01*
X38382466Y-99604210D02*
X38449133Y-99637544D01*
X38449133Y-99637544D02*
X38515800Y-99704210D01*
X38515800Y-99704210D02*
X38549133Y-99804210D01*
X38549133Y-99804210D02*
X38549133Y-99970877D01*
X38349133Y-99304210D02*
X38349133Y-98970877D01*
X38549133Y-99370877D02*
X37849133Y-99137544D01*
X37849133Y-99137544D02*
X38549133Y-98904210D01*
D11*
X84219580Y-90376666D02*
X84267200Y-90424285D01*
X84267200Y-90424285D02*
X84314819Y-90567142D01*
X84314819Y-90567142D02*
X84314819Y-90662380D01*
X84314819Y-90662380D02*
X84267200Y-90805237D01*
X84267200Y-90805237D02*
X84171961Y-90900475D01*
X84171961Y-90900475D02*
X84076723Y-90948094D01*
X84076723Y-90948094D02*
X83886247Y-90995713D01*
X83886247Y-90995713D02*
X83743390Y-90995713D01*
X83743390Y-90995713D02*
X83552914Y-90948094D01*
X83552914Y-90948094D02*
X83457676Y-90900475D01*
X83457676Y-90900475D02*
X83362438Y-90805237D01*
X83362438Y-90805237D02*
X83314819Y-90662380D01*
X83314819Y-90662380D02*
X83314819Y-90567142D01*
X83314819Y-90567142D02*
X83362438Y-90424285D01*
X83362438Y-90424285D02*
X83410057Y-90376666D01*
X83410057Y-89995713D02*
X83362438Y-89948094D01*
X83362438Y-89948094D02*
X83314819Y-89852856D01*
X83314819Y-89852856D02*
X83314819Y-89614761D01*
X83314819Y-89614761D02*
X83362438Y-89519523D01*
X83362438Y-89519523D02*
X83410057Y-89471904D01*
X83410057Y-89471904D02*
X83505295Y-89424285D01*
X83505295Y-89424285D02*
X83600533Y-89424285D01*
X83600533Y-89424285D02*
X83743390Y-89471904D01*
X83743390Y-89471904D02*
X84314819Y-90043332D01*
X84314819Y-90043332D02*
X84314819Y-89424285D01*
X99223333Y-75924819D02*
X99223333Y-74924819D01*
X99223333Y-74924819D02*
X99556666Y-75639104D01*
X99556666Y-75639104D02*
X99889999Y-74924819D01*
X99889999Y-74924819D02*
X99889999Y-75924819D01*
X100747142Y-75877200D02*
X100651904Y-75924819D01*
X100651904Y-75924819D02*
X100461428Y-75924819D01*
X100461428Y-75924819D02*
X100366190Y-75877200D01*
X100366190Y-75877200D02*
X100318571Y-75781961D01*
X100318571Y-75781961D02*
X100318571Y-75401009D01*
X100318571Y-75401009D02*
X100366190Y-75305771D01*
X100366190Y-75305771D02*
X100461428Y-75258152D01*
X100461428Y-75258152D02*
X100651904Y-75258152D01*
X100651904Y-75258152D02*
X100747142Y-75305771D01*
X100747142Y-75305771D02*
X100794761Y-75401009D01*
X100794761Y-75401009D02*
X100794761Y-75496247D01*
X100794761Y-75496247D02*
X100318571Y-75591485D01*
X101223333Y-75258152D02*
X101223333Y-75924819D01*
X101223333Y-75353390D02*
X101270952Y-75305771D01*
X101270952Y-75305771D02*
X101366190Y-75258152D01*
X101366190Y-75258152D02*
X101509047Y-75258152D01*
X101509047Y-75258152D02*
X101604285Y-75305771D01*
X101604285Y-75305771D02*
X101651904Y-75401009D01*
X101651904Y-75401009D02*
X101651904Y-75924819D01*
X102556666Y-75258152D02*
X102556666Y-75924819D01*
X102128095Y-75258152D02*
X102128095Y-75781961D01*
X102128095Y-75781961D02*
X102175714Y-75877200D01*
X102175714Y-75877200D02*
X102270952Y-75924819D01*
X102270952Y-75924819D02*
X102413809Y-75924819D01*
X102413809Y-75924819D02*
X102509047Y-75877200D01*
X102509047Y-75877200D02*
X102556666Y-75829580D01*
X94264819Y-78906666D02*
X93788628Y-79239999D01*
X94264819Y-79478094D02*
X93264819Y-79478094D01*
X93264819Y-79478094D02*
X93264819Y-79097142D01*
X93264819Y-79097142D02*
X93312438Y-79001904D01*
X93312438Y-79001904D02*
X93360057Y-78954285D01*
X93360057Y-78954285D02*
X93455295Y-78906666D01*
X93455295Y-78906666D02*
X93598152Y-78906666D01*
X93598152Y-78906666D02*
X93693390Y-78954285D01*
X93693390Y-78954285D02*
X93741009Y-79001904D01*
X93741009Y-79001904D02*
X93788628Y-79097142D01*
X93788628Y-79097142D02*
X93788628Y-79478094D01*
X94264819Y-77954285D02*
X94264819Y-78525713D01*
X94264819Y-78239999D02*
X93264819Y-78239999D01*
X93264819Y-78239999D02*
X93407676Y-78335237D01*
X93407676Y-78335237D02*
X93502914Y-78430475D01*
X93502914Y-78430475D02*
X93550533Y-78525713D01*
X84219580Y-100536666D02*
X84267200Y-100584285D01*
X84267200Y-100584285D02*
X84314819Y-100727142D01*
X84314819Y-100727142D02*
X84314819Y-100822380D01*
X84314819Y-100822380D02*
X84267200Y-100965237D01*
X84267200Y-100965237D02*
X84171961Y-101060475D01*
X84171961Y-101060475D02*
X84076723Y-101108094D01*
X84076723Y-101108094D02*
X83886247Y-101155713D01*
X83886247Y-101155713D02*
X83743390Y-101155713D01*
X83743390Y-101155713D02*
X83552914Y-101108094D01*
X83552914Y-101108094D02*
X83457676Y-101060475D01*
X83457676Y-101060475D02*
X83362438Y-100965237D01*
X83362438Y-100965237D02*
X83314819Y-100822380D01*
X83314819Y-100822380D02*
X83314819Y-100727142D01*
X83314819Y-100727142D02*
X83362438Y-100584285D01*
X83362438Y-100584285D02*
X83410057Y-100536666D01*
X83314819Y-100203332D02*
X83314819Y-99584285D01*
X83314819Y-99584285D02*
X83695771Y-99917618D01*
X83695771Y-99917618D02*
X83695771Y-99774761D01*
X83695771Y-99774761D02*
X83743390Y-99679523D01*
X83743390Y-99679523D02*
X83791009Y-99631904D01*
X83791009Y-99631904D02*
X83886247Y-99584285D01*
X83886247Y-99584285D02*
X84124342Y-99584285D01*
X84124342Y-99584285D02*
X84219580Y-99631904D01*
X84219580Y-99631904D02*
X84267200Y-99679523D01*
X84267200Y-99679523D02*
X84314819Y-99774761D01*
X84314819Y-99774761D02*
X84314819Y-100060475D01*
X84314819Y-100060475D02*
X84267200Y-100155713D01*
X84267200Y-100155713D02*
X84219580Y-100203332D01*
D15*
X57658095Y-90897419D02*
X57658095Y-91706942D01*
X57658095Y-91706942D02*
X57705714Y-91802180D01*
X57705714Y-91802180D02*
X57753333Y-91849800D01*
X57753333Y-91849800D02*
X57848571Y-91897419D01*
X57848571Y-91897419D02*
X58039047Y-91897419D01*
X58039047Y-91897419D02*
X58134285Y-91849800D01*
X58134285Y-91849800D02*
X58181904Y-91802180D01*
X58181904Y-91802180D02*
X58229523Y-91706942D01*
X58229523Y-91706942D02*
X58229523Y-90897419D01*
X58658095Y-90992657D02*
X58705714Y-90945038D01*
X58705714Y-90945038D02*
X58800952Y-90897419D01*
X58800952Y-90897419D02*
X59039047Y-90897419D01*
X59039047Y-90897419D02*
X59134285Y-90945038D01*
X59134285Y-90945038D02*
X59181904Y-90992657D01*
X59181904Y-90992657D02*
X59229523Y-91087895D01*
X59229523Y-91087895D02*
X59229523Y-91183133D01*
X59229523Y-91183133D02*
X59181904Y-91325990D01*
X59181904Y-91325990D02*
X58610476Y-91897419D01*
X58610476Y-91897419D02*
X59229523Y-91897419D01*
X48135800Y-68380877D02*
X48169133Y-68280877D01*
X48169133Y-68280877D02*
X48169133Y-68114211D01*
X48169133Y-68114211D02*
X48135800Y-68047544D01*
X48135800Y-68047544D02*
X48102466Y-68014211D01*
X48102466Y-68014211D02*
X48035800Y-67980877D01*
X48035800Y-67980877D02*
X47969133Y-67980877D01*
X47969133Y-67980877D02*
X47902466Y-68014211D01*
X47902466Y-68014211D02*
X47869133Y-68047544D01*
X47869133Y-68047544D02*
X47835800Y-68114211D01*
X47835800Y-68114211D02*
X47802466Y-68247544D01*
X47802466Y-68247544D02*
X47769133Y-68314211D01*
X47769133Y-68314211D02*
X47735800Y-68347544D01*
X47735800Y-68347544D02*
X47669133Y-68380877D01*
X47669133Y-68380877D02*
X47602466Y-68380877D01*
X47602466Y-68380877D02*
X47535800Y-68347544D01*
X47535800Y-68347544D02*
X47502466Y-68314211D01*
X47502466Y-68314211D02*
X47469133Y-68247544D01*
X47469133Y-68247544D02*
X47469133Y-68080877D01*
X47469133Y-68080877D02*
X47502466Y-67980877D01*
X48102466Y-67280877D02*
X48135800Y-67314210D01*
X48135800Y-67314210D02*
X48169133Y-67414210D01*
X48169133Y-67414210D02*
X48169133Y-67480877D01*
X48169133Y-67480877D02*
X48135800Y-67580877D01*
X48135800Y-67580877D02*
X48069133Y-67647544D01*
X48069133Y-67647544D02*
X48002466Y-67680877D01*
X48002466Y-67680877D02*
X47869133Y-67714210D01*
X47869133Y-67714210D02*
X47769133Y-67714210D01*
X47769133Y-67714210D02*
X47635800Y-67680877D01*
X47635800Y-67680877D02*
X47569133Y-67647544D01*
X47569133Y-67647544D02*
X47502466Y-67580877D01*
X47502466Y-67580877D02*
X47469133Y-67480877D01*
X47469133Y-67480877D02*
X47469133Y-67414210D01*
X47469133Y-67414210D02*
X47502466Y-67314210D01*
X47502466Y-67314210D02*
X47535800Y-67280877D01*
X48169133Y-66647544D02*
X48169133Y-66980877D01*
X48169133Y-66980877D02*
X47469133Y-66980877D01*
X44929133Y-68447544D02*
X45629133Y-68214211D01*
X45629133Y-68214211D02*
X44929133Y-67980877D01*
X45562466Y-67347544D02*
X45595800Y-67380877D01*
X45595800Y-67380877D02*
X45629133Y-67480877D01*
X45629133Y-67480877D02*
X45629133Y-67547544D01*
X45629133Y-67547544D02*
X45595800Y-67647544D01*
X45595800Y-67647544D02*
X45529133Y-67714211D01*
X45529133Y-67714211D02*
X45462466Y-67747544D01*
X45462466Y-67747544D02*
X45329133Y-67780877D01*
X45329133Y-67780877D02*
X45229133Y-67780877D01*
X45229133Y-67780877D02*
X45095800Y-67747544D01*
X45095800Y-67747544D02*
X45029133Y-67714211D01*
X45029133Y-67714211D02*
X44962466Y-67647544D01*
X44962466Y-67647544D02*
X44929133Y-67547544D01*
X44929133Y-67547544D02*
X44929133Y-67480877D01*
X44929133Y-67480877D02*
X44962466Y-67380877D01*
X44962466Y-67380877D02*
X44995800Y-67347544D01*
X45562466Y-66647544D02*
X45595800Y-66680877D01*
X45595800Y-66680877D02*
X45629133Y-66780877D01*
X45629133Y-66780877D02*
X45629133Y-66847544D01*
X45629133Y-66847544D02*
X45595800Y-66947544D01*
X45595800Y-66947544D02*
X45529133Y-67014211D01*
X45529133Y-67014211D02*
X45462466Y-67047544D01*
X45462466Y-67047544D02*
X45329133Y-67080877D01*
X45329133Y-67080877D02*
X45229133Y-67080877D01*
X45229133Y-67080877D02*
X45095800Y-67047544D01*
X45095800Y-67047544D02*
X45029133Y-67014211D01*
X45029133Y-67014211D02*
X44962466Y-66947544D01*
X44962466Y-66947544D02*
X44929133Y-66847544D01*
X44929133Y-66847544D02*
X44929133Y-66780877D01*
X44929133Y-66780877D02*
X44962466Y-66680877D01*
X44962466Y-66680877D02*
X44995800Y-66647544D01*
X42422466Y-67980877D02*
X42389133Y-68047544D01*
X42389133Y-68047544D02*
X42389133Y-68147544D01*
X42389133Y-68147544D02*
X42422466Y-68247544D01*
X42422466Y-68247544D02*
X42489133Y-68314211D01*
X42489133Y-68314211D02*
X42555800Y-68347544D01*
X42555800Y-68347544D02*
X42689133Y-68380877D01*
X42689133Y-68380877D02*
X42789133Y-68380877D01*
X42789133Y-68380877D02*
X42922466Y-68347544D01*
X42922466Y-68347544D02*
X42989133Y-68314211D01*
X42989133Y-68314211D02*
X43055800Y-68247544D01*
X43055800Y-68247544D02*
X43089133Y-68147544D01*
X43089133Y-68147544D02*
X43089133Y-68080877D01*
X43089133Y-68080877D02*
X43055800Y-67980877D01*
X43055800Y-67980877D02*
X43022466Y-67947544D01*
X43022466Y-67947544D02*
X42789133Y-67947544D01*
X42789133Y-67947544D02*
X42789133Y-68080877D01*
X43089133Y-67647544D02*
X42389133Y-67647544D01*
X42389133Y-67647544D02*
X43089133Y-67247544D01*
X43089133Y-67247544D02*
X42389133Y-67247544D01*
X43089133Y-66914211D02*
X42389133Y-66914211D01*
X42389133Y-66914211D02*
X42389133Y-66747544D01*
X42389133Y-66747544D02*
X42422466Y-66647544D01*
X42422466Y-66647544D02*
X42489133Y-66580878D01*
X42489133Y-66580878D02*
X42555800Y-66547544D01*
X42555800Y-66547544D02*
X42689133Y-66514211D01*
X42689133Y-66514211D02*
X42789133Y-66514211D01*
X42789133Y-66514211D02*
X42922466Y-66547544D01*
X42922466Y-66547544D02*
X42989133Y-66580878D01*
X42989133Y-66580878D02*
X43055800Y-66647544D01*
X43055800Y-66647544D02*
X43089133Y-66747544D01*
X43089133Y-66747544D02*
X43089133Y-66914211D01*
X50675800Y-68380877D02*
X50709133Y-68280877D01*
X50709133Y-68280877D02*
X50709133Y-68114211D01*
X50709133Y-68114211D02*
X50675800Y-68047544D01*
X50675800Y-68047544D02*
X50642466Y-68014211D01*
X50642466Y-68014211D02*
X50575800Y-67980877D01*
X50575800Y-67980877D02*
X50509133Y-67980877D01*
X50509133Y-67980877D02*
X50442466Y-68014211D01*
X50442466Y-68014211D02*
X50409133Y-68047544D01*
X50409133Y-68047544D02*
X50375800Y-68114211D01*
X50375800Y-68114211D02*
X50342466Y-68247544D01*
X50342466Y-68247544D02*
X50309133Y-68314211D01*
X50309133Y-68314211D02*
X50275800Y-68347544D01*
X50275800Y-68347544D02*
X50209133Y-68380877D01*
X50209133Y-68380877D02*
X50142466Y-68380877D01*
X50142466Y-68380877D02*
X50075800Y-68347544D01*
X50075800Y-68347544D02*
X50042466Y-68314211D01*
X50042466Y-68314211D02*
X50009133Y-68247544D01*
X50009133Y-68247544D02*
X50009133Y-68080877D01*
X50009133Y-68080877D02*
X50042466Y-67980877D01*
X50709133Y-67680877D02*
X50009133Y-67680877D01*
X50009133Y-67680877D02*
X50009133Y-67514210D01*
X50009133Y-67514210D02*
X50042466Y-67414210D01*
X50042466Y-67414210D02*
X50109133Y-67347544D01*
X50109133Y-67347544D02*
X50175800Y-67314210D01*
X50175800Y-67314210D02*
X50309133Y-67280877D01*
X50309133Y-67280877D02*
X50409133Y-67280877D01*
X50409133Y-67280877D02*
X50542466Y-67314210D01*
X50542466Y-67314210D02*
X50609133Y-67347544D01*
X50609133Y-67347544D02*
X50675800Y-67414210D01*
X50675800Y-67414210D02*
X50709133Y-67514210D01*
X50709133Y-67514210D02*
X50709133Y-67680877D01*
X50509133Y-67014210D02*
X50509133Y-66680877D01*
X50709133Y-67080877D02*
X50009133Y-66847544D01*
X50009133Y-66847544D02*
X50709133Y-66614210D01*
D11*
X84219580Y-80216666D02*
X84267200Y-80264285D01*
X84267200Y-80264285D02*
X84314819Y-80407142D01*
X84314819Y-80407142D02*
X84314819Y-80502380D01*
X84314819Y-80502380D02*
X84267200Y-80645237D01*
X84267200Y-80645237D02*
X84171961Y-80740475D01*
X84171961Y-80740475D02*
X84076723Y-80788094D01*
X84076723Y-80788094D02*
X83886247Y-80835713D01*
X83886247Y-80835713D02*
X83743390Y-80835713D01*
X83743390Y-80835713D02*
X83552914Y-80788094D01*
X83552914Y-80788094D02*
X83457676Y-80740475D01*
X83457676Y-80740475D02*
X83362438Y-80645237D01*
X83362438Y-80645237D02*
X83314819Y-80502380D01*
X83314819Y-80502380D02*
X83314819Y-80407142D01*
X83314819Y-80407142D02*
X83362438Y-80264285D01*
X83362438Y-80264285D02*
X83410057Y-80216666D01*
X84314819Y-79264285D02*
X84314819Y-79835713D01*
X84314819Y-79549999D02*
X83314819Y-79549999D01*
X83314819Y-79549999D02*
X83457676Y-79645237D01*
X83457676Y-79645237D02*
X83552914Y-79740475D01*
X83552914Y-79740475D02*
X83600533Y-79835713D01*
X71675714Y-109389104D02*
X72151904Y-109389104D01*
X71580476Y-109674819D02*
X71913809Y-108674819D01*
X71913809Y-108674819D02*
X72247142Y-109674819D01*
X73104285Y-109674819D02*
X72532857Y-109674819D01*
X72818571Y-109674819D02*
X72818571Y-108674819D01*
X72818571Y-108674819D02*
X72723333Y-108817676D01*
X72723333Y-108817676D02*
X72628095Y-108912914D01*
X72628095Y-108912914D02*
X72532857Y-108960533D01*
X73651904Y-69125180D02*
X73651904Y-68315657D01*
X73651904Y-68315657D02*
X73604285Y-68220419D01*
X73604285Y-68220419D02*
X73556666Y-68172800D01*
X73556666Y-68172800D02*
X73461428Y-68125180D01*
X73461428Y-68125180D02*
X73270952Y-68125180D01*
X73270952Y-68125180D02*
X73175714Y-68172800D01*
X73175714Y-68172800D02*
X73128095Y-68220419D01*
X73128095Y-68220419D02*
X73080476Y-68315657D01*
X73080476Y-68315657D02*
X73080476Y-69125180D01*
X72651904Y-68172800D02*
X72509047Y-68125180D01*
X72509047Y-68125180D02*
X72270952Y-68125180D01*
X72270952Y-68125180D02*
X72175714Y-68172800D01*
X72175714Y-68172800D02*
X72128095Y-68220419D01*
X72128095Y-68220419D02*
X72080476Y-68315657D01*
X72080476Y-68315657D02*
X72080476Y-68410895D01*
X72080476Y-68410895D02*
X72128095Y-68506133D01*
X72128095Y-68506133D02*
X72175714Y-68553752D01*
X72175714Y-68553752D02*
X72270952Y-68601371D01*
X72270952Y-68601371D02*
X72461428Y-68648990D01*
X72461428Y-68648990D02*
X72556666Y-68696609D01*
X72556666Y-68696609D02*
X72604285Y-68744228D01*
X72604285Y-68744228D02*
X72651904Y-68839466D01*
X72651904Y-68839466D02*
X72651904Y-68934704D01*
X72651904Y-68934704D02*
X72604285Y-69029942D01*
X72604285Y-69029942D02*
X72556666Y-69077561D01*
X72556666Y-69077561D02*
X72461428Y-69125180D01*
X72461428Y-69125180D02*
X72223333Y-69125180D01*
X72223333Y-69125180D02*
X72080476Y-69077561D01*
X71318571Y-68648990D02*
X71175714Y-68601371D01*
X71175714Y-68601371D02*
X71128095Y-68553752D01*
X71128095Y-68553752D02*
X71080476Y-68458514D01*
X71080476Y-68458514D02*
X71080476Y-68315657D01*
X71080476Y-68315657D02*
X71128095Y-68220419D01*
X71128095Y-68220419D02*
X71175714Y-68172800D01*
X71175714Y-68172800D02*
X71270952Y-68125180D01*
X71270952Y-68125180D02*
X71651904Y-68125180D01*
X71651904Y-68125180D02*
X71651904Y-69125180D01*
X71651904Y-69125180D02*
X71318571Y-69125180D01*
X71318571Y-69125180D02*
X71223333Y-69077561D01*
X71223333Y-69077561D02*
X71175714Y-69029942D01*
X71175714Y-69029942D02*
X71128095Y-68934704D01*
X71128095Y-68934704D02*
X71128095Y-68839466D01*
X71128095Y-68839466D02*
X71175714Y-68744228D01*
X71175714Y-68744228D02*
X71223333Y-68696609D01*
X71223333Y-68696609D02*
X71318571Y-68648990D01*
X71318571Y-68648990D02*
X71651904Y-68648990D01*
X99009048Y-95554819D02*
X99009048Y-94554819D01*
X99009048Y-94554819D02*
X99247143Y-94554819D01*
X99247143Y-94554819D02*
X99390000Y-94602438D01*
X99390000Y-94602438D02*
X99485238Y-94697676D01*
X99485238Y-94697676D02*
X99532857Y-94792914D01*
X99532857Y-94792914D02*
X99580476Y-94983390D01*
X99580476Y-94983390D02*
X99580476Y-95126247D01*
X99580476Y-95126247D02*
X99532857Y-95316723D01*
X99532857Y-95316723D02*
X99485238Y-95411961D01*
X99485238Y-95411961D02*
X99390000Y-95507200D01*
X99390000Y-95507200D02*
X99247143Y-95554819D01*
X99247143Y-95554819D02*
X99009048Y-95554819D01*
X100199524Y-94554819D02*
X100390000Y-94554819D01*
X100390000Y-94554819D02*
X100485238Y-94602438D01*
X100485238Y-94602438D02*
X100580476Y-94697676D01*
X100580476Y-94697676D02*
X100628095Y-94888152D01*
X100628095Y-94888152D02*
X100628095Y-95221485D01*
X100628095Y-95221485D02*
X100580476Y-95411961D01*
X100580476Y-95411961D02*
X100485238Y-95507200D01*
X100485238Y-95507200D02*
X100390000Y-95554819D01*
X100390000Y-95554819D02*
X100199524Y-95554819D01*
X100199524Y-95554819D02*
X100104286Y-95507200D01*
X100104286Y-95507200D02*
X100009048Y-95411961D01*
X100009048Y-95411961D02*
X99961429Y-95221485D01*
X99961429Y-95221485D02*
X99961429Y-94888152D01*
X99961429Y-94888152D02*
X100009048Y-94697676D01*
X100009048Y-94697676D02*
X100104286Y-94602438D01*
X100104286Y-94602438D02*
X100199524Y-94554819D01*
X100961429Y-94554819D02*
X101199524Y-95554819D01*
X101199524Y-95554819D02*
X101390000Y-94840533D01*
X101390000Y-94840533D02*
X101580476Y-95554819D01*
X101580476Y-95554819D02*
X101818572Y-94554819D01*
X102199524Y-95554819D02*
X102199524Y-94554819D01*
X102199524Y-94554819D02*
X102770952Y-95554819D01*
X102770952Y-95554819D02*
X102770952Y-94554819D01*
X88733333Y-66664819D02*
X88400000Y-66188628D01*
X88161905Y-66664819D02*
X88161905Y-65664819D01*
X88161905Y-65664819D02*
X88542857Y-65664819D01*
X88542857Y-65664819D02*
X88638095Y-65712438D01*
X88638095Y-65712438D02*
X88685714Y-65760057D01*
X88685714Y-65760057D02*
X88733333Y-65855295D01*
X88733333Y-65855295D02*
X88733333Y-65998152D01*
X88733333Y-65998152D02*
X88685714Y-66093390D01*
X88685714Y-66093390D02*
X88638095Y-66141009D01*
X88638095Y-66141009D02*
X88542857Y-66188628D01*
X88542857Y-66188628D02*
X88161905Y-66188628D01*
X89590476Y-65998152D02*
X89590476Y-66664819D01*
X89352381Y-65617200D02*
X89114286Y-66331485D01*
X89114286Y-66331485D02*
X89733333Y-66331485D01*
D16*
G36*
X56973924Y-101929240D02*
G01*
X57224688Y-101989413D01*
X57462026Y-102094842D01*
X57690073Y-102243435D01*
X57851165Y-102397052D01*
X57983144Y-102593070D01*
X58083657Y-102826204D01*
X58150351Y-103091166D01*
X58178939Y-103341766D01*
X58178544Y-103675697D01*
X58140170Y-103989214D01*
X58065779Y-104277851D01*
X57957330Y-104537144D01*
X57816786Y-104762629D01*
X57646106Y-104949839D01*
X57447250Y-105094310D01*
X57397613Y-105121085D01*
X57188117Y-105203834D01*
X56948001Y-105259644D01*
X56695710Y-105285718D01*
X56449689Y-105279257D01*
X56396447Y-105272946D01*
X56131295Y-105211052D01*
X55894408Y-105104164D01*
X55687892Y-104955308D01*
X55513855Y-104767510D01*
X55374403Y-104543797D01*
X55271643Y-104287193D01*
X55207681Y-104000725D01*
X55184625Y-103687419D01*
X55185245Y-103661496D01*
X55728368Y-103661496D01*
X55742132Y-103900968D01*
X55785327Y-104131029D01*
X55859429Y-104343013D01*
X55866724Y-104358905D01*
X55952803Y-104500920D01*
X56066755Y-104629678D01*
X56194630Y-104731782D01*
X56318253Y-104792518D01*
X56444071Y-104818770D01*
X56596139Y-104829973D01*
X56756839Y-104826869D01*
X56908557Y-104810195D01*
X57033677Y-104780692D01*
X57082567Y-104760429D01*
X57234429Y-104651133D01*
X57361420Y-104496553D01*
X57461711Y-104300997D01*
X57533472Y-104068771D01*
X57574872Y-103804183D01*
X57584912Y-103577933D01*
X57573313Y-103304454D01*
X57537390Y-103074734D01*
X57475235Y-102882658D01*
X57384942Y-102722106D01*
X57280529Y-102601884D01*
X57128667Y-102492178D01*
X56947663Y-102419305D01*
X56749671Y-102384255D01*
X56546850Y-102388021D01*
X56351353Y-102431594D01*
X56181208Y-102512204D01*
X56049371Y-102626200D01*
X55938112Y-102782770D01*
X55848906Y-102973248D01*
X55783230Y-103188972D01*
X55742559Y-103421276D01*
X55728368Y-103661496D01*
X55185245Y-103661496D01*
X55188210Y-103537456D01*
X55221794Y-103216268D01*
X55287782Y-102934878D01*
X55388516Y-102687405D01*
X55526339Y-102467970D01*
X55686217Y-102287446D01*
X55890589Y-102124252D01*
X56122855Y-102007242D01*
X56384049Y-101936031D01*
X56675203Y-101910233D01*
X56697201Y-101910118D01*
X56973924Y-101929240D01*
G37*
G36*
X54983287Y-97732502D02*
G01*
X55037192Y-97755321D01*
X55098151Y-97804433D01*
X55159552Y-97865709D01*
X55265096Y-97984563D01*
X55396186Y-98148222D01*
X55550983Y-98354162D01*
X55727644Y-98599857D01*
X55924329Y-98882784D01*
X56139196Y-99200418D01*
X56204890Y-99299031D01*
X56442631Y-99662591D01*
X56650355Y-99992616D01*
X56833057Y-100297573D01*
X56995730Y-100585930D01*
X57143369Y-100866155D01*
X57220776Y-101021528D01*
X57303706Y-101198190D01*
X57359261Y-101335783D01*
X57388713Y-101441814D01*
X57393329Y-101523795D01*
X57374380Y-101589235D01*
X57333134Y-101645644D01*
X57327292Y-101651619D01*
X57249775Y-101699486D01*
X57152852Y-101720521D01*
X57057222Y-101713613D01*
X56983587Y-101677649D01*
X56976419Y-101670462D01*
X56949452Y-101629836D01*
X56904027Y-101549797D01*
X56845460Y-101440177D01*
X56779066Y-101310808D01*
X56743628Y-101239838D01*
X56597143Y-100957847D01*
X56421947Y-100644297D01*
X56224519Y-100309483D01*
X56011339Y-99963701D01*
X55788889Y-99617245D01*
X55563647Y-99280411D01*
X55342095Y-98963493D01*
X55130712Y-98676786D01*
X55128398Y-98673748D01*
X54922822Y-98403902D01*
X54859354Y-98482360D01*
X54810730Y-98546690D01*
X54736830Y-98649952D01*
X54642278Y-98785293D01*
X54531701Y-98945862D01*
X54409722Y-99124807D01*
X54280968Y-99315276D01*
X54150061Y-99510417D01*
X54021628Y-99703378D01*
X53900294Y-99887308D01*
X53790682Y-100055354D01*
X53697419Y-100200665D01*
X53667004Y-100248853D01*
X53465148Y-100583184D01*
X53279895Y-100915079D01*
X53114814Y-101237130D01*
X52973474Y-101541927D01*
X52859445Y-101822061D01*
X52776296Y-102070123D01*
X52758601Y-102134494D01*
X52717453Y-102393504D01*
X52720238Y-102673205D01*
X52765554Y-102963712D01*
X52851997Y-103255142D01*
X52949788Y-103482238D01*
X53124390Y-103779762D01*
X53333439Y-104035374D01*
X53579339Y-104251479D01*
X53864497Y-104430478D01*
X53935737Y-104466577D01*
X54128142Y-104552640D01*
X54308033Y-104614605D01*
X54496138Y-104658149D01*
X54713189Y-104688953D01*
X54768567Y-104694752D01*
X54891257Y-104708166D01*
X54973014Y-104722055D01*
X55027441Y-104740929D01*
X55068136Y-104769298D01*
X55103497Y-104805818D01*
X55167184Y-104907105D01*
X55176345Y-105006607D01*
X55130994Y-105103172D01*
X55099842Y-105138486D01*
X55049854Y-105182868D01*
X55000437Y-105206423D01*
X54932136Y-105215043D01*
X54846936Y-105215072D01*
X54718598Y-105208904D01*
X54580388Y-105196797D01*
X54509903Y-105188081D01*
X54165834Y-105111931D01*
X53827916Y-104985883D01*
X53505131Y-104814647D01*
X53206464Y-104602934D01*
X52959315Y-104374992D01*
X52779232Y-104171295D01*
X52633174Y-103969803D01*
X52506111Y-103748563D01*
X52445240Y-103624181D01*
X52351573Y-103405018D01*
X52285520Y-103200829D01*
X52243366Y-102994044D01*
X52221398Y-102767092D01*
X52215815Y-102538966D01*
X52218314Y-102365784D01*
X52227816Y-102215216D01*
X52247010Y-102075287D01*
X52278586Y-101934018D01*
X52325231Y-101779433D01*
X52389635Y-101599555D01*
X52474486Y-101382407D01*
X52476666Y-101376964D01*
X52598716Y-101097742D01*
X52754016Y-100784339D01*
X52938845Y-100442864D01*
X53149486Y-100079429D01*
X53382218Y-99700142D01*
X53633322Y-99311116D01*
X53899078Y-98918461D01*
X54175768Y-98528287D01*
X54373851Y-98260064D01*
X54503250Y-98089736D01*
X54606519Y-97959205D01*
X54688829Y-97863427D01*
X54755354Y-97797364D01*
X54811265Y-97755972D01*
X54861734Y-97734211D01*
X54911934Y-97727041D01*
X54920848Y-97726910D01*
X54983287Y-97732502D01*
G37*
G36*
X59340040Y-103295676D02*
G01*
X59414821Y-103317250D01*
X59559351Y-103391473D01*
X59668714Y-103501266D01*
X59739595Y-103637751D01*
X59768679Y-103792051D01*
X59752651Y-103955286D01*
X59703346Y-104089929D01*
X59657547Y-104166529D01*
X59591891Y-104248357D01*
X59500462Y-104341279D01*
X59377344Y-104451164D01*
X59216618Y-104583880D01*
X59157911Y-104630830D01*
X59046284Y-104724933D01*
X58968537Y-104801992D01*
X58929813Y-104856699D01*
X58926420Y-104869806D01*
X58951793Y-104877162D01*
X59022109Y-104883349D01*
X59127635Y-104887845D01*
X59258636Y-104890130D01*
X59309594Y-104890312D01*
X59461567Y-104890630D01*
X59568777Y-104892644D01*
X59641142Y-104897946D01*
X59688582Y-104908125D01*
X59721014Y-104924773D01*
X59748358Y-104949480D01*
X59760724Y-104962657D01*
X59810492Y-105021405D01*
X59823072Y-105062981D01*
X59800235Y-105108585D01*
X59775550Y-105140189D01*
X59755885Y-105162453D01*
X59732795Y-105178982D01*
X59698375Y-105190716D01*
X59644722Y-105198599D01*
X59563932Y-105203570D01*
X59448100Y-105206574D01*
X59289323Y-105208550D01*
X59194549Y-105209419D01*
X59026721Y-105210162D01*
X58875050Y-105209434D01*
X58749045Y-105207392D01*
X58658215Y-105204195D01*
X58612067Y-105199999D01*
X58611087Y-105199762D01*
X58518883Y-105153241D01*
X58470413Y-105077703D01*
X58468223Y-104980096D01*
X58499402Y-104894798D01*
X58539610Y-104838874D01*
X58612653Y-104757119D01*
X58709221Y-104658544D01*
X58820006Y-104552161D01*
X58935698Y-104446980D01*
X59046986Y-104352012D01*
X59118580Y-104295458D01*
X59250080Y-104185746D01*
X59337880Y-104084644D01*
X59389379Y-103981286D01*
X59411972Y-103864800D01*
X59412017Y-103864257D01*
X59414868Y-103772595D01*
X59400232Y-103710211D01*
X59361775Y-103652850D01*
X59354640Y-103644431D01*
X59303171Y-103594518D01*
X59246882Y-103570833D01*
X59162524Y-103564320D01*
X59148811Y-103564262D01*
X59033549Y-103579566D01*
X58940991Y-103630186D01*
X58861776Y-103723181D01*
X58806817Y-103822252D01*
X58749101Y-103921397D01*
X58691476Y-103973298D01*
X58624752Y-103984603D01*
X58590709Y-103978571D01*
X58521651Y-103936103D01*
X58487421Y-103854770D01*
X58489306Y-103738895D01*
X58501623Y-103679200D01*
X58564550Y-103535134D01*
X58668450Y-103419063D01*
X58805636Y-103334036D01*
X58968420Y-103283098D01*
X59149117Y-103269295D01*
X59340040Y-103295676D01*
G37*
D17*
X97390000Y-89130000D02*
X97390000Y-90630000D01*
X98640000Y-93130000D02*
X103140000Y-93130000D01*
X103140000Y-86630000D02*
X98640000Y-86630000D01*
X104390000Y-90630000D02*
X104390000Y-89130000D01*
X101620000Y-70125000D02*
X101620000Y-67035000D01*
X96070000Y-68579952D02*
G75*
G02*
X101620000Y-67035170I2990000J-48D01*
G01*
X101620000Y-70124830D02*
G75*
G02*
X96070000Y-68580048I-2560000J1544830D01*
G01*
X101560000Y-68580000D02*
G75*
G02*
X96560000Y-68580000I-2500000J0D01*
G01*
X96560000Y-68580000D02*
G75*
G02*
X101560000Y-68580000I2500000J0D01*
G01*
X90070000Y-85630000D02*
X90070000Y-92170000D01*
X90070000Y-92170000D02*
X90400000Y-92170000D01*
X90400000Y-85630000D02*
X90070000Y-85630000D01*
X92480000Y-85630000D02*
X92810000Y-85630000D01*
X92810000Y-85630000D02*
X92810000Y-92170000D01*
X92810000Y-92170000D02*
X92480000Y-92170000D01*
X90070000Y-95790000D02*
X90070000Y-102330000D01*
X90070000Y-102330000D02*
X90400000Y-102330000D01*
X90400000Y-95790000D02*
X90070000Y-95790000D01*
X92480000Y-95790000D02*
X92810000Y-95790000D01*
X92810000Y-95790000D02*
X92810000Y-102330000D01*
X92810000Y-102330000D02*
X92480000Y-102330000D01*
D15*
X33640000Y-95870000D02*
X47640000Y-95870000D01*
X33640000Y-109870000D02*
X33640000Y-95870000D01*
X47640000Y-95870000D02*
X47640000Y-109870000D01*
X47640000Y-109870000D02*
X33640000Y-109870000D01*
D17*
X84990000Y-87740000D02*
X85320000Y-87740000D01*
X84990000Y-92680000D02*
X84990000Y-87740000D01*
X84990000Y-92680000D02*
X85320000Y-92680000D01*
X87400000Y-87740000D02*
X87730000Y-87740000D01*
X87400000Y-92680000D02*
X87730000Y-92680000D01*
X87730000Y-92680000D02*
X87730000Y-87740000D01*
X97390000Y-78970000D02*
X97390000Y-80470000D01*
X98640000Y-82970000D02*
X103140000Y-82970000D01*
X103140000Y-76470000D02*
X98640000Y-76470000D01*
X104390000Y-80470000D02*
X104390000Y-78970000D01*
X90070000Y-75470000D02*
X90070000Y-82010000D01*
X90070000Y-82010000D02*
X90400000Y-82010000D01*
X90400000Y-75470000D02*
X90070000Y-75470000D01*
X92480000Y-75470000D02*
X92810000Y-75470000D01*
X92810000Y-75470000D02*
X92810000Y-82010000D01*
X92810000Y-82010000D02*
X92480000Y-82010000D01*
X84990000Y-97900000D02*
X85320000Y-97900000D01*
X84990000Y-102840000D02*
X84990000Y-97900000D01*
X84990000Y-102840000D02*
X85320000Y-102840000D01*
X87400000Y-97900000D02*
X87730000Y-97900000D01*
X87400000Y-102840000D02*
X87730000Y-102840000D01*
X87730000Y-102840000D02*
X87730000Y-97900000D01*
D15*
X32990000Y-62200000D02*
X60990000Y-62200000D01*
X32990000Y-90200000D02*
X32990000Y-62200000D01*
X60990000Y-62200000D02*
X60990000Y-90200000D01*
X60990000Y-90200000D02*
X32990000Y-90200000D01*
X32990000Y-62200000D02*
X60990000Y-62200000D01*
X60990000Y-90200000D01*
X32990000Y-90200000D01*
X32990000Y-62200000D01*
D17*
X84990000Y-77580000D02*
X85320000Y-77580000D01*
X84990000Y-82520000D02*
X84990000Y-77580000D01*
X84990000Y-82520000D02*
X85320000Y-82520000D01*
X87400000Y-77580000D02*
X87730000Y-77580000D01*
X87400000Y-82520000D02*
X87730000Y-82520000D01*
X87730000Y-82520000D02*
X87730000Y-77580000D01*
X63370000Y-64640000D02*
X63370000Y-108080000D01*
X63370000Y-64640000D02*
X68450000Y-64640000D01*
X63370000Y-108080000D02*
X81410000Y-108080000D01*
X66040000Y-67310000D02*
X63370000Y-67310000D01*
X66040000Y-105410000D02*
X63370000Y-105410000D01*
X66040000Y-105410000D02*
X66040000Y-67310000D01*
X68450000Y-62100000D02*
X76330000Y-62100000D01*
X68450000Y-72520000D02*
X68450000Y-62100000D01*
X76330000Y-62100000D02*
X76330000Y-72520000D01*
X76330000Y-72520000D02*
X68450000Y-72520000D01*
X78740000Y-67310000D02*
X81410000Y-67310000D01*
X78740000Y-102870000D02*
X78740000Y-67310000D01*
X78740000Y-102870000D02*
X78740000Y-105410000D01*
X78740000Y-102870000D02*
X81410000Y-102870000D01*
X78740000Y-105410000D02*
X81410000Y-105410000D01*
X81410000Y-64640000D02*
X76330000Y-64640000D01*
X81410000Y-102870000D02*
X81410000Y-64640000D01*
X81410000Y-108080000D02*
X81410000Y-105410000D01*
X97390000Y-98600000D02*
X97390000Y-100100000D01*
X98640000Y-102600000D02*
X103140000Y-102600000D01*
X103140000Y-96100000D02*
X98640000Y-96100000D01*
X104390000Y-100100000D02*
X104390000Y-98600000D01*
X85630000Y-67210000D02*
X92170000Y-67210000D01*
X85630000Y-67540000D02*
X85630000Y-67210000D01*
X85630000Y-69620000D02*
X85630000Y-69950000D01*
X85630000Y-69950000D02*
X92170000Y-69950000D01*
X92170000Y-67210000D02*
X92170000Y-67540000D01*
X92170000Y-69950000D02*
X92170000Y-69620000D01*
%LPC*%
G36*
X80810000Y-104940000D02*
G01*
X79210000Y-104940000D01*
X79210000Y-103340000D01*
X80810000Y-103340000D01*
X80810000Y-104940000D01*
G37*
G36*
X65002228Y-103374448D02*
G01*
X65147117Y-103434463D01*
X65277515Y-103521592D01*
X65388408Y-103632485D01*
X65475537Y-103762883D01*
X65535552Y-103907772D01*
X65566148Y-104061586D01*
X65566148Y-104218414D01*
X65535552Y-104372228D01*
X65475537Y-104517117D01*
X65388408Y-104647515D01*
X65277515Y-104758408D01*
X65147117Y-104845537D01*
X65002228Y-104905552D01*
X64848414Y-104936148D01*
X64691586Y-104936148D01*
X64537772Y-104905552D01*
X64392883Y-104845537D01*
X64262485Y-104758408D01*
X64151592Y-104647515D01*
X64064463Y-104517117D01*
X64004448Y-104372228D01*
X63973852Y-104218414D01*
X63973852Y-104061586D01*
X64004448Y-103907772D01*
X64064463Y-103762883D01*
X64151592Y-103632485D01*
X64262485Y-103521592D01*
X64392883Y-103434463D01*
X64537772Y-103374448D01*
X64691586Y-103343852D01*
X64848414Y-103343852D01*
X65002228Y-103374448D01*
G37*
G36*
X86592228Y-102104448D02*
G01*
X86737117Y-102164463D01*
X86867515Y-102251592D01*
X86978408Y-102362485D01*
X87065537Y-102492883D01*
X87125552Y-102637772D01*
X87156148Y-102791586D01*
X87156148Y-102948414D01*
X87125552Y-103102228D01*
X87065537Y-103247117D01*
X86978408Y-103377515D01*
X86867515Y-103488408D01*
X86737117Y-103575537D01*
X86592228Y-103635552D01*
X86438414Y-103666148D01*
X86281586Y-103666148D01*
X86127772Y-103635552D01*
X85982883Y-103575537D01*
X85852485Y-103488408D01*
X85741592Y-103377515D01*
X85654463Y-103247117D01*
X85594448Y-103102228D01*
X85563852Y-102948414D01*
X85563852Y-102791586D01*
X85594448Y-102637772D01*
X85654463Y-102492883D01*
X85741592Y-102362485D01*
X85852485Y-102251592D01*
X85982883Y-102164463D01*
X86127772Y-102104448D01*
X86281586Y-102073852D01*
X86438414Y-102073852D01*
X86592228Y-102104448D01*
G37*
G36*
X91672228Y-102104448D02*
G01*
X91817117Y-102164463D01*
X91947515Y-102251592D01*
X92058408Y-102362485D01*
X92145537Y-102492883D01*
X92205552Y-102637772D01*
X92236148Y-102791586D01*
X92236148Y-102948414D01*
X92205552Y-103102228D01*
X92145537Y-103247117D01*
X92058408Y-103377515D01*
X91947515Y-103488408D01*
X91817117Y-103575537D01*
X91672228Y-103635552D01*
X91518414Y-103666148D01*
X91361586Y-103666148D01*
X91207772Y-103635552D01*
X91062883Y-103575537D01*
X90932485Y-103488408D01*
X90821592Y-103377515D01*
X90734463Y-103247117D01*
X90674448Y-103102228D01*
X90643852Y-102948414D01*
X90643852Y-102791586D01*
X90674448Y-102637772D01*
X90734463Y-102492883D01*
X90821592Y-102362485D01*
X90932485Y-102251592D01*
X91062883Y-102164463D01*
X91207772Y-102104448D01*
X91361586Y-102073852D01*
X91518414Y-102073852D01*
X91672228Y-102104448D01*
G37*
G36*
X97930285Y-100643060D02*
G01*
X98111397Y-100718079D01*
X98274393Y-100826990D01*
X98413010Y-100965607D01*
X98521921Y-101128603D01*
X98596940Y-101309715D01*
X98635185Y-101501983D01*
X98635185Y-101698017D01*
X98596940Y-101890285D01*
X98521921Y-102071397D01*
X98413010Y-102234393D01*
X98274393Y-102373010D01*
X98111397Y-102481921D01*
X97930285Y-102556940D01*
X97738017Y-102595185D01*
X97541983Y-102595185D01*
X97349715Y-102556940D01*
X97168603Y-102481921D01*
X97005607Y-102373010D01*
X96866990Y-102234393D01*
X96758079Y-102071397D01*
X96683060Y-101890285D01*
X96644815Y-101698017D01*
X96644815Y-101501983D01*
X96683060Y-101309715D01*
X96758079Y-101128603D01*
X96866990Y-100965607D01*
X97005607Y-100826990D01*
X97168603Y-100718079D01*
X97349715Y-100643060D01*
X97541983Y-100604815D01*
X97738017Y-100604815D01*
X97930285Y-100643060D01*
G37*
G36*
X104430285Y-100643060D02*
G01*
X104611397Y-100718079D01*
X104774393Y-100826990D01*
X104913010Y-100965607D01*
X105021921Y-101128603D01*
X105096940Y-101309715D01*
X105135185Y-101501983D01*
X105135185Y-101698017D01*
X105096940Y-101890285D01*
X105021921Y-102071397D01*
X104913010Y-102234393D01*
X104774393Y-102373010D01*
X104611397Y-102481921D01*
X104430285Y-102556940D01*
X104238017Y-102595185D01*
X104041983Y-102595185D01*
X103849715Y-102556940D01*
X103668603Y-102481921D01*
X103505607Y-102373010D01*
X103366990Y-102234393D01*
X103258079Y-102071397D01*
X103183060Y-101890285D01*
X103144815Y-101698017D01*
X103144815Y-101501983D01*
X103183060Y-101309715D01*
X103258079Y-101128603D01*
X103366990Y-100965607D01*
X103505607Y-100826990D01*
X103668603Y-100718079D01*
X103849715Y-100643060D01*
X104041983Y-100604815D01*
X104238017Y-100604815D01*
X104430285Y-100643060D01*
G37*
G36*
X65002228Y-100834448D02*
G01*
X65147117Y-100894463D01*
X65277515Y-100981592D01*
X65388408Y-101092485D01*
X65475537Y-101222883D01*
X65535552Y-101367772D01*
X65566148Y-101521586D01*
X65566148Y-101678414D01*
X65535552Y-101832228D01*
X65475537Y-101977117D01*
X65388408Y-102107515D01*
X65277515Y-102218408D01*
X65147117Y-102305537D01*
X65002228Y-102365552D01*
X64848414Y-102396148D01*
X64691586Y-102396148D01*
X64537772Y-102365552D01*
X64392883Y-102305537D01*
X64262485Y-102218408D01*
X64151592Y-102107515D01*
X64064463Y-101977117D01*
X64004448Y-101832228D01*
X63973852Y-101678414D01*
X63973852Y-101521586D01*
X64004448Y-101367772D01*
X64064463Y-101222883D01*
X64151592Y-101092485D01*
X64262485Y-100981592D01*
X64392883Y-100894463D01*
X64537772Y-100834448D01*
X64691586Y-100803852D01*
X64848414Y-100803852D01*
X65002228Y-100834448D01*
G37*
G36*
X80242228Y-100834448D02*
G01*
X80387117Y-100894463D01*
X80517515Y-100981592D01*
X80628408Y-101092485D01*
X80715537Y-101222883D01*
X80775552Y-101367772D01*
X80806148Y-101521586D01*
X80806148Y-101678414D01*
X80775552Y-101832228D01*
X80715537Y-101977117D01*
X80628408Y-102107515D01*
X80517515Y-102218408D01*
X80387117Y-102305537D01*
X80242228Y-102365552D01*
X80088414Y-102396148D01*
X79931586Y-102396148D01*
X79777772Y-102365552D01*
X79632883Y-102305537D01*
X79502485Y-102218408D01*
X79391592Y-102107515D01*
X79304463Y-101977117D01*
X79244448Y-101832228D01*
X79213852Y-101678414D01*
X79213852Y-101521586D01*
X79244448Y-101367772D01*
X79304463Y-101222883D01*
X79391592Y-101092485D01*
X79502485Y-100981592D01*
X79632883Y-100894463D01*
X79777772Y-100834448D01*
X79931586Y-100803852D01*
X80088414Y-100803852D01*
X80242228Y-100834448D01*
G37*
G36*
X65002228Y-98294448D02*
G01*
X65147117Y-98354463D01*
X65277515Y-98441592D01*
X65388408Y-98552485D01*
X65475537Y-98682883D01*
X65535552Y-98827772D01*
X65566148Y-98981586D01*
X65566148Y-99138414D01*
X65535552Y-99292228D01*
X65475537Y-99437117D01*
X65388408Y-99567515D01*
X65277515Y-99678408D01*
X65147117Y-99765537D01*
X65002228Y-99825552D01*
X64848414Y-99856148D01*
X64691586Y-99856148D01*
X64537772Y-99825552D01*
X64392883Y-99765537D01*
X64262485Y-99678408D01*
X64151592Y-99567515D01*
X64064463Y-99437117D01*
X64004448Y-99292228D01*
X63973852Y-99138414D01*
X63973852Y-98981586D01*
X64004448Y-98827772D01*
X64064463Y-98682883D01*
X64151592Y-98552485D01*
X64262485Y-98441592D01*
X64392883Y-98354463D01*
X64537772Y-98294448D01*
X64691586Y-98263852D01*
X64848414Y-98263852D01*
X65002228Y-98294448D01*
G37*
G36*
X80242228Y-98294448D02*
G01*
X80387117Y-98354463D01*
X80517515Y-98441592D01*
X80628408Y-98552485D01*
X80715537Y-98682883D01*
X80775552Y-98827772D01*
X80806148Y-98981586D01*
X80806148Y-99138414D01*
X80775552Y-99292228D01*
X80715537Y-99437117D01*
X80628408Y-99567515D01*
X80517515Y-99678408D01*
X80387117Y-99765537D01*
X80242228Y-99825552D01*
X80088414Y-99856148D01*
X79931586Y-99856148D01*
X79777772Y-99825552D01*
X79632883Y-99765537D01*
X79502485Y-99678408D01*
X79391592Y-99567515D01*
X79304463Y-99437117D01*
X79244448Y-99292228D01*
X79213852Y-99138414D01*
X79213852Y-98981586D01*
X79244448Y-98827772D01*
X79304463Y-98682883D01*
X79391592Y-98552485D01*
X79502485Y-98441592D01*
X79632883Y-98354463D01*
X79777772Y-98294448D01*
X79931586Y-98263852D01*
X80088414Y-98263852D01*
X80242228Y-98294448D01*
G37*
G36*
X86592228Y-97104448D02*
G01*
X86737117Y-97164463D01*
X86867515Y-97251592D01*
X86978408Y-97362485D01*
X87065537Y-97492883D01*
X87125552Y-97637772D01*
X87156148Y-97791586D01*
X87156148Y-97948414D01*
X87125552Y-98102228D01*
X87065537Y-98247117D01*
X86978408Y-98377515D01*
X86867515Y-98488408D01*
X86737117Y-98575537D01*
X86592228Y-98635552D01*
X86438414Y-98666148D01*
X86281586Y-98666148D01*
X86127772Y-98635552D01*
X85982883Y-98575537D01*
X85852485Y-98488408D01*
X85741592Y-98377515D01*
X85654463Y-98247117D01*
X85594448Y-98102228D01*
X85563852Y-97948414D01*
X85563852Y-97791586D01*
X85594448Y-97637772D01*
X85654463Y-97492883D01*
X85741592Y-97362485D01*
X85852485Y-97251592D01*
X85982883Y-97164463D01*
X86127772Y-97104448D01*
X86281586Y-97073852D01*
X86438414Y-97073852D01*
X86592228Y-97104448D01*
G37*
G36*
X36322000Y-98552000D02*
G01*
X34798000Y-98552000D01*
X34798000Y-97028000D01*
X36322000Y-97028000D01*
X36322000Y-98552000D01*
G37*
G36*
X38321197Y-97060811D02*
G01*
X38459204Y-97117976D01*
X38583408Y-97200966D01*
X38689034Y-97306592D01*
X38772024Y-97430796D01*
X38829189Y-97568803D01*
X38858331Y-97715311D01*
X38858331Y-97864689D01*
X38829189Y-98011197D01*
X38772024Y-98149204D01*
X38689034Y-98273408D01*
X38583408Y-98379034D01*
X38459204Y-98462024D01*
X38321197Y-98519189D01*
X38174689Y-98548331D01*
X38025311Y-98548331D01*
X37878803Y-98519189D01*
X37740796Y-98462024D01*
X37616592Y-98379034D01*
X37510966Y-98273408D01*
X37427976Y-98149204D01*
X37370811Y-98011197D01*
X37341669Y-97864689D01*
X37341669Y-97715311D01*
X37370811Y-97568803D01*
X37427976Y-97430796D01*
X37510966Y-97306592D01*
X37616592Y-97200966D01*
X37740796Y-97117976D01*
X37878803Y-97060811D01*
X38025311Y-97031669D01*
X38174689Y-97031669D01*
X38321197Y-97060811D01*
G37*
G36*
X40861197Y-97060811D02*
G01*
X40999204Y-97117976D01*
X41123408Y-97200966D01*
X41229034Y-97306592D01*
X41312024Y-97430796D01*
X41369189Y-97568803D01*
X41398331Y-97715311D01*
X41398331Y-97864689D01*
X41369189Y-98011197D01*
X41312024Y-98149204D01*
X41229034Y-98273408D01*
X41123408Y-98379034D01*
X40999204Y-98462024D01*
X40861197Y-98519189D01*
X40714689Y-98548331D01*
X40565311Y-98548331D01*
X40418803Y-98519189D01*
X40280796Y-98462024D01*
X40156592Y-98379034D01*
X40050966Y-98273408D01*
X39967976Y-98149204D01*
X39910811Y-98011197D01*
X39881669Y-97864689D01*
X39881669Y-97715311D01*
X39910811Y-97568803D01*
X39967976Y-97430796D01*
X40050966Y-97306592D01*
X40156592Y-97200966D01*
X40280796Y-97117976D01*
X40418803Y-97060811D01*
X40565311Y-97031669D01*
X40714689Y-97031669D01*
X40861197Y-97060811D01*
G37*
G36*
X43401197Y-97060811D02*
G01*
X43539204Y-97117976D01*
X43663408Y-97200966D01*
X43769034Y-97306592D01*
X43852024Y-97430796D01*
X43909189Y-97568803D01*
X43938331Y-97715311D01*
X43938331Y-97864689D01*
X43909189Y-98011197D01*
X43852024Y-98149204D01*
X43769034Y-98273408D01*
X43663408Y-98379034D01*
X43539204Y-98462024D01*
X43401197Y-98519189D01*
X43254689Y-98548331D01*
X43105311Y-98548331D01*
X42958803Y-98519189D01*
X42820796Y-98462024D01*
X42696592Y-98379034D01*
X42590966Y-98273408D01*
X42507976Y-98149204D01*
X42450811Y-98011197D01*
X42421669Y-97864689D01*
X42421669Y-97715311D01*
X42450811Y-97568803D01*
X42507976Y-97430796D01*
X42590966Y-97306592D01*
X42696592Y-97200966D01*
X42820796Y-97117976D01*
X42958803Y-97060811D01*
X43105311Y-97031669D01*
X43254689Y-97031669D01*
X43401197Y-97060811D01*
G37*
G36*
X45941197Y-97060811D02*
G01*
X46079204Y-97117976D01*
X46203408Y-97200966D01*
X46309034Y-97306592D01*
X46392024Y-97430796D01*
X46449189Y-97568803D01*
X46478331Y-97715311D01*
X46478331Y-97864689D01*
X46449189Y-98011197D01*
X46392024Y-98149204D01*
X46309034Y-98273408D01*
X46203408Y-98379034D01*
X46079204Y-98462024D01*
X45941197Y-98519189D01*
X45794689Y-98548331D01*
X45645311Y-98548331D01*
X45498803Y-98519189D01*
X45360796Y-98462024D01*
X45236592Y-98379034D01*
X45130966Y-98273408D01*
X45047976Y-98149204D01*
X44990811Y-98011197D01*
X44961669Y-97864689D01*
X44961669Y-97715311D01*
X44990811Y-97568803D01*
X45047976Y-97430796D01*
X45130966Y-97306592D01*
X45236592Y-97200966D01*
X45360796Y-97117976D01*
X45498803Y-97060811D01*
X45645311Y-97031669D01*
X45794689Y-97031669D01*
X45941197Y-97060811D01*
G37*
G36*
X97930285Y-96143060D02*
G01*
X98111397Y-96218079D01*
X98274393Y-96326990D01*
X98413010Y-96465607D01*
X98521921Y-96628603D01*
X98596940Y-96809715D01*
X98635185Y-97001983D01*
X98635185Y-97198017D01*
X98596940Y-97390285D01*
X98521921Y-97571397D01*
X98413010Y-97734393D01*
X98274393Y-97873010D01*
X98111397Y-97981921D01*
X97930285Y-98056940D01*
X97738017Y-98095185D01*
X97541983Y-98095185D01*
X97349715Y-98056940D01*
X97168603Y-97981921D01*
X97005607Y-97873010D01*
X96866990Y-97734393D01*
X96758079Y-97571397D01*
X96683060Y-97390285D01*
X96644815Y-97198017D01*
X96644815Y-97001983D01*
X96683060Y-96809715D01*
X96758079Y-96628603D01*
X96866990Y-96465607D01*
X97005607Y-96326990D01*
X97168603Y-96218079D01*
X97349715Y-96143060D01*
X97541983Y-96104815D01*
X97738017Y-96104815D01*
X97930285Y-96143060D01*
G37*
G36*
X104430285Y-96143060D02*
G01*
X104611397Y-96218079D01*
X104774393Y-96326990D01*
X104913010Y-96465607D01*
X105021921Y-96628603D01*
X105096940Y-96809715D01*
X105135185Y-97001983D01*
X105135185Y-97198017D01*
X105096940Y-97390285D01*
X105021921Y-97571397D01*
X104913010Y-97734393D01*
X104774393Y-97873010D01*
X104611397Y-97981921D01*
X104430285Y-98056940D01*
X104238017Y-98095185D01*
X104041983Y-98095185D01*
X103849715Y-98056940D01*
X103668603Y-97981921D01*
X103505607Y-97873010D01*
X103366990Y-97734393D01*
X103258079Y-97571397D01*
X103183060Y-97390285D01*
X103144815Y-97198017D01*
X103144815Y-97001983D01*
X103183060Y-96809715D01*
X103258079Y-96628603D01*
X103366990Y-96465607D01*
X103505607Y-96326990D01*
X103668603Y-96218079D01*
X103849715Y-96143060D01*
X104041983Y-96104815D01*
X104238017Y-96104815D01*
X104430285Y-96143060D01*
G37*
G36*
X65002228Y-95754448D02*
G01*
X65147117Y-95814463D01*
X65277515Y-95901592D01*
X65388408Y-96012485D01*
X65475537Y-96142883D01*
X65535552Y-96287772D01*
X65566148Y-96441586D01*
X65566148Y-96598414D01*
X65535552Y-96752228D01*
X65475537Y-96897117D01*
X65388408Y-97027515D01*
X65277515Y-97138408D01*
X65147117Y-97225537D01*
X65002228Y-97285552D01*
X64848414Y-97316148D01*
X64691586Y-97316148D01*
X64537772Y-97285552D01*
X64392883Y-97225537D01*
X64262485Y-97138408D01*
X64151592Y-97027515D01*
X64064463Y-96897117D01*
X64004448Y-96752228D01*
X63973852Y-96598414D01*
X63973852Y-96441586D01*
X64004448Y-96287772D01*
X64064463Y-96142883D01*
X64151592Y-96012485D01*
X64262485Y-95901592D01*
X64392883Y-95814463D01*
X64537772Y-95754448D01*
X64691586Y-95723852D01*
X64848414Y-95723852D01*
X65002228Y-95754448D01*
G37*
G36*
X80242228Y-95754448D02*
G01*
X80387117Y-95814463D01*
X80517515Y-95901592D01*
X80628408Y-96012485D01*
X80715537Y-96142883D01*
X80775552Y-96287772D01*
X80806148Y-96441586D01*
X80806148Y-96598414D01*
X80775552Y-96752228D01*
X80715537Y-96897117D01*
X80628408Y-97027515D01*
X80517515Y-97138408D01*
X80387117Y-97225537D01*
X80242228Y-97285552D01*
X80088414Y-97316148D01*
X79931586Y-97316148D01*
X79777772Y-97285552D01*
X79632883Y-97225537D01*
X79502485Y-97138408D01*
X79391592Y-97027515D01*
X79304463Y-96897117D01*
X79244448Y-96752228D01*
X79213852Y-96598414D01*
X79213852Y-96441586D01*
X79244448Y-96287772D01*
X79304463Y-96142883D01*
X79391592Y-96012485D01*
X79502485Y-95901592D01*
X79632883Y-95814463D01*
X79777772Y-95754448D01*
X79931586Y-95723852D01*
X80088414Y-95723852D01*
X80242228Y-95754448D01*
G37*
G36*
X91672228Y-94484448D02*
G01*
X91817117Y-94544463D01*
X91947515Y-94631592D01*
X92058408Y-94742485D01*
X92145537Y-94872883D01*
X92205552Y-95017772D01*
X92236148Y-95171586D01*
X92236148Y-95328414D01*
X92205552Y-95482228D01*
X92145537Y-95627117D01*
X92058408Y-95757515D01*
X91947515Y-95868408D01*
X91817117Y-95955537D01*
X91672228Y-96015552D01*
X91518414Y-96046148D01*
X91361586Y-96046148D01*
X91207772Y-96015552D01*
X91062883Y-95955537D01*
X90932485Y-95868408D01*
X90821592Y-95757515D01*
X90734463Y-95627117D01*
X90674448Y-95482228D01*
X90643852Y-95328414D01*
X90643852Y-95171586D01*
X90674448Y-95017772D01*
X90734463Y-94872883D01*
X90821592Y-94742485D01*
X90932485Y-94631592D01*
X91062883Y-94544463D01*
X91207772Y-94484448D01*
X91361586Y-94453852D01*
X91518414Y-94453852D01*
X91672228Y-94484448D01*
G37*
G36*
X65002228Y-93214448D02*
G01*
X65147117Y-93274463D01*
X65277515Y-93361592D01*
X65388408Y-93472485D01*
X65475537Y-93602883D01*
X65535552Y-93747772D01*
X65566148Y-93901586D01*
X65566148Y-94058414D01*
X65535552Y-94212228D01*
X65475537Y-94357117D01*
X65388408Y-94487515D01*
X65277515Y-94598408D01*
X65147117Y-94685537D01*
X65002228Y-94745552D01*
X64848414Y-94776148D01*
X64691586Y-94776148D01*
X64537772Y-94745552D01*
X64392883Y-94685537D01*
X64262485Y-94598408D01*
X64151592Y-94487515D01*
X64064463Y-94357117D01*
X64004448Y-94212228D01*
X63973852Y-94058414D01*
X63973852Y-93901586D01*
X64004448Y-93747772D01*
X64064463Y-93602883D01*
X64151592Y-93472485D01*
X64262485Y-93361592D01*
X64392883Y-93274463D01*
X64537772Y-93214448D01*
X64691586Y-93183852D01*
X64848414Y-93183852D01*
X65002228Y-93214448D01*
G37*
G36*
X80242228Y-93214448D02*
G01*
X80387117Y-93274463D01*
X80517515Y-93361592D01*
X80628408Y-93472485D01*
X80715537Y-93602883D01*
X80775552Y-93747772D01*
X80806148Y-93901586D01*
X80806148Y-94058414D01*
X80775552Y-94212228D01*
X80715537Y-94357117D01*
X80628408Y-94487515D01*
X80517515Y-94598408D01*
X80387117Y-94685537D01*
X80242228Y-94745552D01*
X80088414Y-94776148D01*
X79931586Y-94776148D01*
X79777772Y-94745552D01*
X79632883Y-94685537D01*
X79502485Y-94598408D01*
X79391592Y-94487515D01*
X79304463Y-94357117D01*
X79244448Y-94212228D01*
X79213852Y-94058414D01*
X79213852Y-93901586D01*
X79244448Y-93747772D01*
X79304463Y-93602883D01*
X79391592Y-93472485D01*
X79502485Y-93361592D01*
X79632883Y-93274463D01*
X79777772Y-93214448D01*
X79931586Y-93183852D01*
X80088414Y-93183852D01*
X80242228Y-93214448D01*
G37*
G36*
X86592228Y-91944448D02*
G01*
X86737117Y-92004463D01*
X86867515Y-92091592D01*
X86978408Y-92202485D01*
X87065537Y-92332883D01*
X87125552Y-92477772D01*
X87156148Y-92631586D01*
X87156148Y-92788414D01*
X87125552Y-92942228D01*
X87065537Y-93087117D01*
X86978408Y-93217515D01*
X86867515Y-93328408D01*
X86737117Y-93415537D01*
X86592228Y-93475552D01*
X86438414Y-93506148D01*
X86281586Y-93506148D01*
X86127772Y-93475552D01*
X85982883Y-93415537D01*
X85852485Y-93328408D01*
X85741592Y-93217515D01*
X85654463Y-93087117D01*
X85594448Y-92942228D01*
X85563852Y-92788414D01*
X85563852Y-92631586D01*
X85594448Y-92477772D01*
X85654463Y-92332883D01*
X85741592Y-92202485D01*
X85852485Y-92091592D01*
X85982883Y-92004463D01*
X86127772Y-91944448D01*
X86281586Y-91913852D01*
X86438414Y-91913852D01*
X86592228Y-91944448D01*
G37*
G36*
X91672228Y-91944448D02*
G01*
X91817117Y-92004463D01*
X91947515Y-92091592D01*
X92058408Y-92202485D01*
X92145537Y-92332883D01*
X92205552Y-92477772D01*
X92236148Y-92631586D01*
X92236148Y-92788414D01*
X92205552Y-92942228D01*
X92145537Y-93087117D01*
X92058408Y-93217515D01*
X91947515Y-93328408D01*
X91817117Y-93415537D01*
X91672228Y-93475552D01*
X91518414Y-93506148D01*
X91361586Y-93506148D01*
X91207772Y-93475552D01*
X91062883Y-93415537D01*
X90932485Y-93328408D01*
X90821592Y-93217515D01*
X90734463Y-93087117D01*
X90674448Y-92942228D01*
X90643852Y-92788414D01*
X90643852Y-92631586D01*
X90674448Y-92477772D01*
X90734463Y-92332883D01*
X90821592Y-92202485D01*
X90932485Y-92091592D01*
X91062883Y-92004463D01*
X91207772Y-91944448D01*
X91361586Y-91913852D01*
X91518414Y-91913852D01*
X91672228Y-91944448D01*
G37*
G36*
X97930285Y-91173060D02*
G01*
X98111397Y-91248079D01*
X98274393Y-91356990D01*
X98413010Y-91495607D01*
X98521921Y-91658603D01*
X98596940Y-91839715D01*
X98635185Y-92031983D01*
X98635185Y-92228017D01*
X98596940Y-92420285D01*
X98521921Y-92601397D01*
X98413010Y-92764393D01*
X98274393Y-92903010D01*
X98111397Y-93011921D01*
X97930285Y-93086940D01*
X97738017Y-93125185D01*
X97541983Y-93125185D01*
X97349715Y-93086940D01*
X97168603Y-93011921D01*
X97005607Y-92903010D01*
X96866990Y-92764393D01*
X96758079Y-92601397D01*
X96683060Y-92420285D01*
X96644815Y-92228017D01*
X96644815Y-92031983D01*
X96683060Y-91839715D01*
X96758079Y-91658603D01*
X96866990Y-91495607D01*
X97005607Y-91356990D01*
X97168603Y-91248079D01*
X97349715Y-91173060D01*
X97541983Y-91134815D01*
X97738017Y-91134815D01*
X97930285Y-91173060D01*
G37*
G36*
X104430285Y-91173060D02*
G01*
X104611397Y-91248079D01*
X104774393Y-91356990D01*
X104913010Y-91495607D01*
X105021921Y-91658603D01*
X105096940Y-91839715D01*
X105135185Y-92031983D01*
X105135185Y-92228017D01*
X105096940Y-92420285D01*
X105021921Y-92601397D01*
X104913010Y-92764393D01*
X104774393Y-92903010D01*
X104611397Y-93011921D01*
X104430285Y-93086940D01*
X104238017Y-93125185D01*
X104041983Y-93125185D01*
X103849715Y-93086940D01*
X103668603Y-93011921D01*
X103505607Y-92903010D01*
X103366990Y-92764393D01*
X103258079Y-92601397D01*
X103183060Y-92420285D01*
X103144815Y-92228017D01*
X103144815Y-92031983D01*
X103183060Y-91839715D01*
X103258079Y-91658603D01*
X103366990Y-91495607D01*
X103505607Y-91356990D01*
X103668603Y-91248079D01*
X103849715Y-91173060D01*
X104041983Y-91134815D01*
X104238017Y-91134815D01*
X104430285Y-91173060D01*
G37*
G36*
X65002228Y-90674448D02*
G01*
X65147117Y-90734463D01*
X65277515Y-90821592D01*
X65388408Y-90932485D01*
X65475537Y-91062883D01*
X65535552Y-91207772D01*
X65566148Y-91361586D01*
X65566148Y-91518414D01*
X65535552Y-91672228D01*
X65475537Y-91817117D01*
X65388408Y-91947515D01*
X65277515Y-92058408D01*
X65147117Y-92145537D01*
X65002228Y-92205552D01*
X64848414Y-92236148D01*
X64691586Y-92236148D01*
X64537772Y-92205552D01*
X64392883Y-92145537D01*
X64262485Y-92058408D01*
X64151592Y-91947515D01*
X64064463Y-91817117D01*
X64004448Y-91672228D01*
X63973852Y-91518414D01*
X63973852Y-91361586D01*
X64004448Y-91207772D01*
X64064463Y-91062883D01*
X64151592Y-90932485D01*
X64262485Y-90821592D01*
X64392883Y-90734463D01*
X64537772Y-90674448D01*
X64691586Y-90643852D01*
X64848414Y-90643852D01*
X65002228Y-90674448D01*
G37*
G36*
X80242228Y-90674448D02*
G01*
X80387117Y-90734463D01*
X80517515Y-90821592D01*
X80628408Y-90932485D01*
X80715537Y-91062883D01*
X80775552Y-91207772D01*
X80806148Y-91361586D01*
X80806148Y-91518414D01*
X80775552Y-91672228D01*
X80715537Y-91817117D01*
X80628408Y-91947515D01*
X80517515Y-92058408D01*
X80387117Y-92145537D01*
X80242228Y-92205552D01*
X80088414Y-92236148D01*
X79931586Y-92236148D01*
X79777772Y-92205552D01*
X79632883Y-92145537D01*
X79502485Y-92058408D01*
X79391592Y-91947515D01*
X79304463Y-91817117D01*
X79244448Y-91672228D01*
X79213852Y-91518414D01*
X79213852Y-91361586D01*
X79244448Y-91207772D01*
X79304463Y-91062883D01*
X79391592Y-90932485D01*
X79502485Y-90821592D01*
X79632883Y-90734463D01*
X79777772Y-90674448D01*
X79931586Y-90643852D01*
X80088414Y-90643852D01*
X80242228Y-90674448D01*
G37*
G36*
X65002228Y-88134448D02*
G01*
X65147117Y-88194463D01*
X65277515Y-88281592D01*
X65388408Y-88392485D01*
X65475537Y-88522883D01*
X65535552Y-88667772D01*
X65566148Y-88821586D01*
X65566148Y-88978414D01*
X65535552Y-89132228D01*
X65475537Y-89277117D01*
X65388408Y-89407515D01*
X65277515Y-89518408D01*
X65147117Y-89605537D01*
X65002228Y-89665552D01*
X64848414Y-89696148D01*
X64691586Y-89696148D01*
X64537772Y-89665552D01*
X64392883Y-89605537D01*
X64262485Y-89518408D01*
X64151592Y-89407515D01*
X64064463Y-89277117D01*
X64004448Y-89132228D01*
X63973852Y-88978414D01*
X63973852Y-88821586D01*
X64004448Y-88667772D01*
X64064463Y-88522883D01*
X64151592Y-88392485D01*
X64262485Y-88281592D01*
X64392883Y-88194463D01*
X64537772Y-88134448D01*
X64691586Y-88103852D01*
X64848414Y-88103852D01*
X65002228Y-88134448D01*
G37*
G36*
X80242228Y-88134448D02*
G01*
X80387117Y-88194463D01*
X80517515Y-88281592D01*
X80628408Y-88392485D01*
X80715537Y-88522883D01*
X80775552Y-88667772D01*
X80806148Y-88821586D01*
X80806148Y-88978414D01*
X80775552Y-89132228D01*
X80715537Y-89277117D01*
X80628408Y-89407515D01*
X80517515Y-89518408D01*
X80387117Y-89605537D01*
X80242228Y-89665552D01*
X80088414Y-89696148D01*
X79931586Y-89696148D01*
X79777772Y-89665552D01*
X79632883Y-89605537D01*
X79502485Y-89518408D01*
X79391592Y-89407515D01*
X79304463Y-89277117D01*
X79244448Y-89132228D01*
X79213852Y-88978414D01*
X79213852Y-88821586D01*
X79244448Y-88667772D01*
X79304463Y-88522883D01*
X79391592Y-88392485D01*
X79502485Y-88281592D01*
X79632883Y-88194463D01*
X79777772Y-88134448D01*
X79931586Y-88103852D01*
X80088414Y-88103852D01*
X80242228Y-88134448D01*
G37*
G36*
X97930285Y-86673060D02*
G01*
X98111397Y-86748079D01*
X98274393Y-86856990D01*
X98413010Y-86995607D01*
X98521921Y-87158603D01*
X98596940Y-87339715D01*
X98635185Y-87531983D01*
X98635185Y-87728017D01*
X98596940Y-87920285D01*
X98521921Y-88101397D01*
X98413010Y-88264393D01*
X98274393Y-88403010D01*
X98111397Y-88511921D01*
X97930285Y-88586940D01*
X97738017Y-88625185D01*
X97541983Y-88625185D01*
X97349715Y-88586940D01*
X97168603Y-88511921D01*
X97005607Y-88403010D01*
X96866990Y-88264393D01*
X96758079Y-88101397D01*
X96683060Y-87920285D01*
X96644815Y-87728017D01*
X96644815Y-87531983D01*
X96683060Y-87339715D01*
X96758079Y-87158603D01*
X96866990Y-86995607D01*
X97005607Y-86856990D01*
X97168603Y-86748079D01*
X97349715Y-86673060D01*
X97541983Y-86634815D01*
X97738017Y-86634815D01*
X97930285Y-86673060D01*
G37*
G36*
X104430285Y-86673060D02*
G01*
X104611397Y-86748079D01*
X104774393Y-86856990D01*
X104913010Y-86995607D01*
X105021921Y-87158603D01*
X105096940Y-87339715D01*
X105135185Y-87531983D01*
X105135185Y-87728017D01*
X105096940Y-87920285D01*
X105021921Y-88101397D01*
X104913010Y-88264393D01*
X104774393Y-88403010D01*
X104611397Y-88511921D01*
X104430285Y-88586940D01*
X104238017Y-88625185D01*
X104041983Y-88625185D01*
X103849715Y-88586940D01*
X103668603Y-88511921D01*
X103505607Y-88403010D01*
X103366990Y-88264393D01*
X103258079Y-88101397D01*
X103183060Y-87920285D01*
X103144815Y-87728017D01*
X103144815Y-87531983D01*
X103183060Y-87339715D01*
X103258079Y-87158603D01*
X103366990Y-86995607D01*
X103505607Y-86856990D01*
X103668603Y-86748079D01*
X103849715Y-86673060D01*
X104041983Y-86634815D01*
X104238017Y-86634815D01*
X104430285Y-86673060D01*
G37*
G36*
X86592228Y-86944448D02*
G01*
X86737117Y-87004463D01*
X86867515Y-87091592D01*
X86978408Y-87202485D01*
X87065537Y-87332883D01*
X87125552Y-87477772D01*
X87156148Y-87631586D01*
X87156148Y-87788414D01*
X87125552Y-87942228D01*
X87065537Y-88087117D01*
X86978408Y-88217515D01*
X86867515Y-88328408D01*
X86737117Y-88415537D01*
X86592228Y-88475552D01*
X86438414Y-88506148D01*
X86281586Y-88506148D01*
X86127772Y-88475552D01*
X85982883Y-88415537D01*
X85852485Y-88328408D01*
X85741592Y-88217515D01*
X85654463Y-88087117D01*
X85594448Y-87942228D01*
X85563852Y-87788414D01*
X85563852Y-87631586D01*
X85594448Y-87477772D01*
X85654463Y-87332883D01*
X85741592Y-87202485D01*
X85852485Y-87091592D01*
X85982883Y-87004463D01*
X86127772Y-86944448D01*
X86281586Y-86913852D01*
X86438414Y-86913852D01*
X86592228Y-86944448D01*
G37*
G36*
X65002228Y-85594448D02*
G01*
X65147117Y-85654463D01*
X65277515Y-85741592D01*
X65388408Y-85852485D01*
X65475537Y-85982883D01*
X65535552Y-86127772D01*
X65566148Y-86281586D01*
X65566148Y-86438414D01*
X65535552Y-86592228D01*
X65475537Y-86737117D01*
X65388408Y-86867515D01*
X65277515Y-86978408D01*
X65147117Y-87065537D01*
X65002228Y-87125552D01*
X64848414Y-87156148D01*
X64691586Y-87156148D01*
X64537772Y-87125552D01*
X64392883Y-87065537D01*
X64262485Y-86978408D01*
X64151592Y-86867515D01*
X64064463Y-86737117D01*
X64004448Y-86592228D01*
X63973852Y-86438414D01*
X63973852Y-86281586D01*
X64004448Y-86127772D01*
X64064463Y-85982883D01*
X64151592Y-85852485D01*
X64262485Y-85741592D01*
X64392883Y-85654463D01*
X64537772Y-85594448D01*
X64691586Y-85563852D01*
X64848414Y-85563852D01*
X65002228Y-85594448D01*
G37*
G36*
X80242228Y-85594448D02*
G01*
X80387117Y-85654463D01*
X80517515Y-85741592D01*
X80628408Y-85852485D01*
X80715537Y-85982883D01*
X80775552Y-86127772D01*
X80806148Y-86281586D01*
X80806148Y-86438414D01*
X80775552Y-86592228D01*
X80715537Y-86737117D01*
X80628408Y-86867515D01*
X80517515Y-86978408D01*
X80387117Y-87065537D01*
X80242228Y-87125552D01*
X80088414Y-87156148D01*
X79931586Y-87156148D01*
X79777772Y-87125552D01*
X79632883Y-87065537D01*
X79502485Y-86978408D01*
X79391592Y-86867515D01*
X79304463Y-86737117D01*
X79244448Y-86592228D01*
X79213852Y-86438414D01*
X79213852Y-86281586D01*
X79244448Y-86127772D01*
X79304463Y-85982883D01*
X79391592Y-85852485D01*
X79502485Y-85741592D01*
X79632883Y-85654463D01*
X79777772Y-85594448D01*
X79931586Y-85563852D01*
X80088414Y-85563852D01*
X80242228Y-85594448D01*
G37*
G36*
X91672228Y-84324448D02*
G01*
X91817117Y-84384463D01*
X91947515Y-84471592D01*
X92058408Y-84582485D01*
X92145537Y-84712883D01*
X92205552Y-84857772D01*
X92236148Y-85011586D01*
X92236148Y-85168414D01*
X92205552Y-85322228D01*
X92145537Y-85467117D01*
X92058408Y-85597515D01*
X91947515Y-85708408D01*
X91817117Y-85795537D01*
X91672228Y-85855552D01*
X91518414Y-85886148D01*
X91361586Y-85886148D01*
X91207772Y-85855552D01*
X91062883Y-85795537D01*
X90932485Y-85708408D01*
X90821592Y-85597515D01*
X90734463Y-85467117D01*
X90674448Y-85322228D01*
X90643852Y-85168414D01*
X90643852Y-85011586D01*
X90674448Y-84857772D01*
X90734463Y-84712883D01*
X90821592Y-84582485D01*
X90932485Y-84471592D01*
X91062883Y-84384463D01*
X91207772Y-84324448D01*
X91361586Y-84293852D01*
X91518414Y-84293852D01*
X91672228Y-84324448D01*
G37*
G36*
X65002228Y-83054448D02*
G01*
X65147117Y-83114463D01*
X65277515Y-83201592D01*
X65388408Y-83312485D01*
X65475537Y-83442883D01*
X65535552Y-83587772D01*
X65566148Y-83741586D01*
X65566148Y-83898414D01*
X65535552Y-84052228D01*
X65475537Y-84197117D01*
X65388408Y-84327515D01*
X65277515Y-84438408D01*
X65147117Y-84525537D01*
X65002228Y-84585552D01*
X64848414Y-84616148D01*
X64691586Y-84616148D01*
X64537772Y-84585552D01*
X64392883Y-84525537D01*
X64262485Y-84438408D01*
X64151592Y-84327515D01*
X64064463Y-84197117D01*
X64004448Y-84052228D01*
X63973852Y-83898414D01*
X63973852Y-83741586D01*
X64004448Y-83587772D01*
X64064463Y-83442883D01*
X64151592Y-83312485D01*
X64262485Y-83201592D01*
X64392883Y-83114463D01*
X64537772Y-83054448D01*
X64691586Y-83023852D01*
X64848414Y-83023852D01*
X65002228Y-83054448D01*
G37*
G36*
X80242228Y-83054448D02*
G01*
X80387117Y-83114463D01*
X80517515Y-83201592D01*
X80628408Y-83312485D01*
X80715537Y-83442883D01*
X80775552Y-83587772D01*
X80806148Y-83741586D01*
X80806148Y-83898414D01*
X80775552Y-84052228D01*
X80715537Y-84197117D01*
X80628408Y-84327515D01*
X80517515Y-84438408D01*
X80387117Y-84525537D01*
X80242228Y-84585552D01*
X80088414Y-84616148D01*
X79931586Y-84616148D01*
X79777772Y-84585552D01*
X79632883Y-84525537D01*
X79502485Y-84438408D01*
X79391592Y-84327515D01*
X79304463Y-84197117D01*
X79244448Y-84052228D01*
X79213852Y-83898414D01*
X79213852Y-83741586D01*
X79244448Y-83587772D01*
X79304463Y-83442883D01*
X79391592Y-83312485D01*
X79502485Y-83201592D01*
X79632883Y-83114463D01*
X79777772Y-83054448D01*
X79931586Y-83023852D01*
X80088414Y-83023852D01*
X80242228Y-83054448D01*
G37*
G36*
X86592228Y-81784448D02*
G01*
X86737117Y-81844463D01*
X86867515Y-81931592D01*
X86978408Y-82042485D01*
X87065537Y-82172883D01*
X87125552Y-82317772D01*
X87156148Y-82471586D01*
X87156148Y-82628414D01*
X87125552Y-82782228D01*
X87065537Y-82927117D01*
X86978408Y-83057515D01*
X86867515Y-83168408D01*
X86737117Y-83255537D01*
X86592228Y-83315552D01*
X86438414Y-83346148D01*
X86281586Y-83346148D01*
X86127772Y-83315552D01*
X85982883Y-83255537D01*
X85852485Y-83168408D01*
X85741592Y-83057515D01*
X85654463Y-82927117D01*
X85594448Y-82782228D01*
X85563852Y-82628414D01*
X85563852Y-82471586D01*
X85594448Y-82317772D01*
X85654463Y-82172883D01*
X85741592Y-82042485D01*
X85852485Y-81931592D01*
X85982883Y-81844463D01*
X86127772Y-81784448D01*
X86281586Y-81753852D01*
X86438414Y-81753852D01*
X86592228Y-81784448D01*
G37*
G36*
X91672228Y-81784448D02*
G01*
X91817117Y-81844463D01*
X91947515Y-81931592D01*
X92058408Y-82042485D01*
X92145537Y-82172883D01*
X92205552Y-82317772D01*
X92236148Y-82471586D01*
X92236148Y-82628414D01*
X92205552Y-82782228D01*
X92145537Y-82927117D01*
X92058408Y-83057515D01*
X91947515Y-83168408D01*
X91817117Y-83255537D01*
X91672228Y-83315552D01*
X91518414Y-83346148D01*
X91361586Y-83346148D01*
X91207772Y-83315552D01*
X91062883Y-83255537D01*
X90932485Y-83168408D01*
X90821592Y-83057515D01*
X90734463Y-82927117D01*
X90674448Y-82782228D01*
X90643852Y-82628414D01*
X90643852Y-82471586D01*
X90674448Y-82317772D01*
X90734463Y-82172883D01*
X90821592Y-82042485D01*
X90932485Y-81931592D01*
X91062883Y-81844463D01*
X91207772Y-81784448D01*
X91361586Y-81753852D01*
X91518414Y-81753852D01*
X91672228Y-81784448D01*
G37*
G36*
X97930285Y-81013060D02*
G01*
X98111397Y-81088079D01*
X98274393Y-81196990D01*
X98413010Y-81335607D01*
X98521921Y-81498603D01*
X98596940Y-81679715D01*
X98635185Y-81871983D01*
X98635185Y-82068017D01*
X98596940Y-82260285D01*
X98521921Y-82441397D01*
X98413010Y-82604393D01*
X98274393Y-82743010D01*
X98111397Y-82851921D01*
X97930285Y-82926940D01*
X97738017Y-82965185D01*
X97541983Y-82965185D01*
X97349715Y-82926940D01*
X97168603Y-82851921D01*
X97005607Y-82743010D01*
X96866990Y-82604393D01*
X96758079Y-82441397D01*
X96683060Y-82260285D01*
X96644815Y-82068017D01*
X96644815Y-81871983D01*
X96683060Y-81679715D01*
X96758079Y-81498603D01*
X96866990Y-81335607D01*
X97005607Y-81196990D01*
X97168603Y-81088079D01*
X97349715Y-81013060D01*
X97541983Y-80974815D01*
X97738017Y-80974815D01*
X97930285Y-81013060D01*
G37*
G36*
X104430285Y-81013060D02*
G01*
X104611397Y-81088079D01*
X104774393Y-81196990D01*
X104913010Y-81335607D01*
X105021921Y-81498603D01*
X105096940Y-81679715D01*
X105135185Y-81871983D01*
X105135185Y-82068017D01*
X105096940Y-82260285D01*
X105021921Y-82441397D01*
X104913010Y-82604393D01*
X104774393Y-82743010D01*
X104611397Y-82851921D01*
X104430285Y-82926940D01*
X104238017Y-82965185D01*
X104041983Y-82965185D01*
X103849715Y-82926940D01*
X103668603Y-82851921D01*
X103505607Y-82743010D01*
X103366990Y-82604393D01*
X103258079Y-82441397D01*
X103183060Y-82260285D01*
X103144815Y-82068017D01*
X103144815Y-81871983D01*
X103183060Y-81679715D01*
X103258079Y-81498603D01*
X103366990Y-81335607D01*
X103505607Y-81196990D01*
X103668603Y-81088079D01*
X103849715Y-81013060D01*
X104041983Y-80974815D01*
X104238017Y-80974815D01*
X104430285Y-81013060D01*
G37*
G36*
X65002228Y-80514448D02*
G01*
X65147117Y-80574463D01*
X65277515Y-80661592D01*
X65388408Y-80772485D01*
X65475537Y-80902883D01*
X65535552Y-81047772D01*
X65566148Y-81201586D01*
X65566148Y-81358414D01*
X65535552Y-81512228D01*
X65475537Y-81657117D01*
X65388408Y-81787515D01*
X65277515Y-81898408D01*
X65147117Y-81985537D01*
X65002228Y-82045552D01*
X64848414Y-82076148D01*
X64691586Y-82076148D01*
X64537772Y-82045552D01*
X64392883Y-81985537D01*
X64262485Y-81898408D01*
X64151592Y-81787515D01*
X64064463Y-81657117D01*
X64004448Y-81512228D01*
X63973852Y-81358414D01*
X63973852Y-81201586D01*
X64004448Y-81047772D01*
X64064463Y-80902883D01*
X64151592Y-80772485D01*
X64262485Y-80661592D01*
X64392883Y-80574463D01*
X64537772Y-80514448D01*
X64691586Y-80483852D01*
X64848414Y-80483852D01*
X65002228Y-80514448D01*
G37*
G36*
X80242228Y-80514448D02*
G01*
X80387117Y-80574463D01*
X80517515Y-80661592D01*
X80628408Y-80772485D01*
X80715537Y-80902883D01*
X80775552Y-81047772D01*
X80806148Y-81201586D01*
X80806148Y-81358414D01*
X80775552Y-81512228D01*
X80715537Y-81657117D01*
X80628408Y-81787515D01*
X80517515Y-81898408D01*
X80387117Y-81985537D01*
X80242228Y-82045552D01*
X80088414Y-82076148D01*
X79931586Y-82076148D01*
X79777772Y-82045552D01*
X79632883Y-81985537D01*
X79502485Y-81898408D01*
X79391592Y-81787515D01*
X79304463Y-81657117D01*
X79244448Y-81512228D01*
X79213852Y-81358414D01*
X79213852Y-81201586D01*
X79244448Y-81047772D01*
X79304463Y-80902883D01*
X79391592Y-80772485D01*
X79502485Y-80661592D01*
X79632883Y-80574463D01*
X79777772Y-80514448D01*
X79931586Y-80483852D01*
X80088414Y-80483852D01*
X80242228Y-80514448D01*
G37*
G36*
X65002228Y-77974448D02*
G01*
X65147117Y-78034463D01*
X65277515Y-78121592D01*
X65388408Y-78232485D01*
X65475537Y-78362883D01*
X65535552Y-78507772D01*
X65566148Y-78661586D01*
X65566148Y-78818414D01*
X65535552Y-78972228D01*
X65475537Y-79117117D01*
X65388408Y-79247515D01*
X65277515Y-79358408D01*
X65147117Y-79445537D01*
X65002228Y-79505552D01*
X64848414Y-79536148D01*
X64691586Y-79536148D01*
X64537772Y-79505552D01*
X64392883Y-79445537D01*
X64262485Y-79358408D01*
X64151592Y-79247515D01*
X64064463Y-79117117D01*
X64004448Y-78972228D01*
X63973852Y-78818414D01*
X63973852Y-78661586D01*
X64004448Y-78507772D01*
X64064463Y-78362883D01*
X64151592Y-78232485D01*
X64262485Y-78121592D01*
X64392883Y-78034463D01*
X64537772Y-77974448D01*
X64691586Y-77943852D01*
X64848414Y-77943852D01*
X65002228Y-77974448D01*
G37*
G36*
X80242228Y-77974448D02*
G01*
X80387117Y-78034463D01*
X80517515Y-78121592D01*
X80628408Y-78232485D01*
X80715537Y-78362883D01*
X80775552Y-78507772D01*
X80806148Y-78661586D01*
X80806148Y-78818414D01*
X80775552Y-78972228D01*
X80715537Y-79117117D01*
X80628408Y-79247515D01*
X80517515Y-79358408D01*
X80387117Y-79445537D01*
X80242228Y-79505552D01*
X80088414Y-79536148D01*
X79931586Y-79536148D01*
X79777772Y-79505552D01*
X79632883Y-79445537D01*
X79502485Y-79358408D01*
X79391592Y-79247515D01*
X79304463Y-79117117D01*
X79244448Y-78972228D01*
X79213852Y-78818414D01*
X79213852Y-78661586D01*
X79244448Y-78507772D01*
X79304463Y-78362883D01*
X79391592Y-78232485D01*
X79502485Y-78121592D01*
X79632883Y-78034463D01*
X79777772Y-77974448D01*
X79931586Y-77943852D01*
X80088414Y-77943852D01*
X80242228Y-77974448D01*
G37*
G36*
X97930285Y-76513060D02*
G01*
X98111397Y-76588079D01*
X98274393Y-76696990D01*
X98413010Y-76835607D01*
X98521921Y-76998603D01*
X98596940Y-77179715D01*
X98635185Y-77371983D01*
X98635185Y-77568017D01*
X98596940Y-77760285D01*
X98521921Y-77941397D01*
X98413010Y-78104393D01*
X98274393Y-78243010D01*
X98111397Y-78351921D01*
X97930285Y-78426940D01*
X97738017Y-78465185D01*
X97541983Y-78465185D01*
X97349715Y-78426940D01*
X97168603Y-78351921D01*
X97005607Y-78243010D01*
X96866990Y-78104393D01*
X96758079Y-77941397D01*
X96683060Y-77760285D01*
X96644815Y-77568017D01*
X96644815Y-77371983D01*
X96683060Y-77179715D01*
X96758079Y-76998603D01*
X96866990Y-76835607D01*
X97005607Y-76696990D01*
X97168603Y-76588079D01*
X97349715Y-76513060D01*
X97541983Y-76474815D01*
X97738017Y-76474815D01*
X97930285Y-76513060D01*
G37*
G36*
X104430285Y-76513060D02*
G01*
X104611397Y-76588079D01*
X104774393Y-76696990D01*
X104913010Y-76835607D01*
X105021921Y-76998603D01*
X105096940Y-77179715D01*
X105135185Y-77371983D01*
X105135185Y-77568017D01*
X105096940Y-77760285D01*
X105021921Y-77941397D01*
X104913010Y-78104393D01*
X104774393Y-78243010D01*
X104611397Y-78351921D01*
X104430285Y-78426940D01*
X104238017Y-78465185D01*
X104041983Y-78465185D01*
X103849715Y-78426940D01*
X103668603Y-78351921D01*
X103505607Y-78243010D01*
X103366990Y-78104393D01*
X103258079Y-77941397D01*
X103183060Y-77760285D01*
X103144815Y-77568017D01*
X103144815Y-77371983D01*
X103183060Y-77179715D01*
X103258079Y-76998603D01*
X103366990Y-76835607D01*
X103505607Y-76696990D01*
X103668603Y-76588079D01*
X103849715Y-76513060D01*
X104041983Y-76474815D01*
X104238017Y-76474815D01*
X104430285Y-76513060D01*
G37*
G36*
X86592228Y-76784448D02*
G01*
X86737117Y-76844463D01*
X86867515Y-76931592D01*
X86978408Y-77042485D01*
X87065537Y-77172883D01*
X87125552Y-77317772D01*
X87156148Y-77471586D01*
X87156148Y-77628414D01*
X87125552Y-77782228D01*
X87065537Y-77927117D01*
X86978408Y-78057515D01*
X86867515Y-78168408D01*
X86737117Y-78255537D01*
X86592228Y-78315552D01*
X86438414Y-78346148D01*
X86281586Y-78346148D01*
X86127772Y-78315552D01*
X85982883Y-78255537D01*
X85852485Y-78168408D01*
X85741592Y-78057515D01*
X85654463Y-77927117D01*
X85594448Y-77782228D01*
X85563852Y-77628414D01*
X85563852Y-77471586D01*
X85594448Y-77317772D01*
X85654463Y-77172883D01*
X85741592Y-77042485D01*
X85852485Y-76931592D01*
X85982883Y-76844463D01*
X86127772Y-76784448D01*
X86281586Y-76753852D01*
X86438414Y-76753852D01*
X86592228Y-76784448D01*
G37*
G36*
X65002228Y-75434448D02*
G01*
X65147117Y-75494463D01*
X65277515Y-75581592D01*
X65388408Y-75692485D01*
X65475537Y-75822883D01*
X65535552Y-75967772D01*
X65566148Y-76121586D01*
X65566148Y-76278414D01*
X65535552Y-76432228D01*
X65475537Y-76577117D01*
X65388408Y-76707515D01*
X65277515Y-76818408D01*
X65147117Y-76905537D01*
X65002228Y-76965552D01*
X64848414Y-76996148D01*
X64691586Y-76996148D01*
X64537772Y-76965552D01*
X64392883Y-76905537D01*
X64262485Y-76818408D01*
X64151592Y-76707515D01*
X64064463Y-76577117D01*
X64004448Y-76432228D01*
X63973852Y-76278414D01*
X63973852Y-76121586D01*
X64004448Y-75967772D01*
X64064463Y-75822883D01*
X64151592Y-75692485D01*
X64262485Y-75581592D01*
X64392883Y-75494463D01*
X64537772Y-75434448D01*
X64691586Y-75403852D01*
X64848414Y-75403852D01*
X65002228Y-75434448D01*
G37*
G36*
X80242228Y-75434448D02*
G01*
X80387117Y-75494463D01*
X80517515Y-75581592D01*
X80628408Y-75692485D01*
X80715537Y-75822883D01*
X80775552Y-75967772D01*
X80806148Y-76121586D01*
X80806148Y-76278414D01*
X80775552Y-76432228D01*
X80715537Y-76577117D01*
X80628408Y-76707515D01*
X80517515Y-76818408D01*
X80387117Y-76905537D01*
X80242228Y-76965552D01*
X80088414Y-76996148D01*
X79931586Y-76996148D01*
X79777772Y-76965552D01*
X79632883Y-76905537D01*
X79502485Y-76818408D01*
X79391592Y-76707515D01*
X79304463Y-76577117D01*
X79244448Y-76432228D01*
X79213852Y-76278414D01*
X79213852Y-76121586D01*
X79244448Y-75967772D01*
X79304463Y-75822883D01*
X79391592Y-75692485D01*
X79502485Y-75581592D01*
X79632883Y-75494463D01*
X79777772Y-75434448D01*
X79931586Y-75403852D01*
X80088414Y-75403852D01*
X80242228Y-75434448D01*
G37*
G36*
X91672228Y-74164448D02*
G01*
X91817117Y-74224463D01*
X91947515Y-74311592D01*
X92058408Y-74422485D01*
X92145537Y-74552883D01*
X92205552Y-74697772D01*
X92236148Y-74851586D01*
X92236148Y-75008414D01*
X92205552Y-75162228D01*
X92145537Y-75307117D01*
X92058408Y-75437515D01*
X91947515Y-75548408D01*
X91817117Y-75635537D01*
X91672228Y-75695552D01*
X91518414Y-75726148D01*
X91361586Y-75726148D01*
X91207772Y-75695552D01*
X91062883Y-75635537D01*
X90932485Y-75548408D01*
X90821592Y-75437515D01*
X90734463Y-75307117D01*
X90674448Y-75162228D01*
X90643852Y-75008414D01*
X90643852Y-74851586D01*
X90674448Y-74697772D01*
X90734463Y-74552883D01*
X90821592Y-74422485D01*
X90932485Y-74311592D01*
X91062883Y-74224463D01*
X91207772Y-74164448D01*
X91361586Y-74133852D01*
X91518414Y-74133852D01*
X91672228Y-74164448D01*
G37*
G36*
X65002228Y-72894448D02*
G01*
X65147117Y-72954463D01*
X65277515Y-73041592D01*
X65388408Y-73152485D01*
X65475537Y-73282883D01*
X65535552Y-73427772D01*
X65566148Y-73581586D01*
X65566148Y-73738414D01*
X65535552Y-73892228D01*
X65475537Y-74037117D01*
X65388408Y-74167515D01*
X65277515Y-74278408D01*
X65147117Y-74365537D01*
X65002228Y-74425552D01*
X64848414Y-74456148D01*
X64691586Y-74456148D01*
X64537772Y-74425552D01*
X64392883Y-74365537D01*
X64262485Y-74278408D01*
X64151592Y-74167515D01*
X64064463Y-74037117D01*
X64004448Y-73892228D01*
X63973852Y-73738414D01*
X63973852Y-73581586D01*
X64004448Y-73427772D01*
X64064463Y-73282883D01*
X64151592Y-73152485D01*
X64262485Y-73041592D01*
X64392883Y-72954463D01*
X64537772Y-72894448D01*
X64691586Y-72863852D01*
X64848414Y-72863852D01*
X65002228Y-72894448D01*
G37*
G36*
X80242228Y-72894448D02*
G01*
X80387117Y-72954463D01*
X80517515Y-73041592D01*
X80628408Y-73152485D01*
X80715537Y-73282883D01*
X80775552Y-73427772D01*
X80806148Y-73581586D01*
X80806148Y-73738414D01*
X80775552Y-73892228D01*
X80715537Y-74037117D01*
X80628408Y-74167515D01*
X80517515Y-74278408D01*
X80387117Y-74365537D01*
X80242228Y-74425552D01*
X80088414Y-74456148D01*
X79931586Y-74456148D01*
X79777772Y-74425552D01*
X79632883Y-74365537D01*
X79502485Y-74278408D01*
X79391592Y-74167515D01*
X79304463Y-74037117D01*
X79244448Y-73892228D01*
X79213852Y-73738414D01*
X79213852Y-73581586D01*
X79244448Y-73427772D01*
X79304463Y-73282883D01*
X79391592Y-73152485D01*
X79502485Y-73041592D01*
X79632883Y-72954463D01*
X79777772Y-72894448D01*
X79931586Y-72863852D01*
X80088414Y-72863852D01*
X80242228Y-72894448D01*
G37*
G36*
X65002228Y-70354448D02*
G01*
X65147117Y-70414463D01*
X65277515Y-70501592D01*
X65388408Y-70612485D01*
X65475537Y-70742883D01*
X65535552Y-70887772D01*
X65566148Y-71041586D01*
X65566148Y-71198414D01*
X65535552Y-71352228D01*
X65475537Y-71497117D01*
X65388408Y-71627515D01*
X65277515Y-71738408D01*
X65147117Y-71825537D01*
X65002228Y-71885552D01*
X64848414Y-71916148D01*
X64691586Y-71916148D01*
X64537772Y-71885552D01*
X64392883Y-71825537D01*
X64262485Y-71738408D01*
X64151592Y-71627515D01*
X64064463Y-71497117D01*
X64004448Y-71352228D01*
X63973852Y-71198414D01*
X63973852Y-71041586D01*
X64004448Y-70887772D01*
X64064463Y-70742883D01*
X64151592Y-70612485D01*
X64262485Y-70501592D01*
X64392883Y-70414463D01*
X64537772Y-70354448D01*
X64691586Y-70323852D01*
X64848414Y-70323852D01*
X65002228Y-70354448D01*
G37*
G36*
X80242228Y-70354448D02*
G01*
X80387117Y-70414463D01*
X80517515Y-70501592D01*
X80628408Y-70612485D01*
X80715537Y-70742883D01*
X80775552Y-70887772D01*
X80806148Y-71041586D01*
X80806148Y-71198414D01*
X80775552Y-71352228D01*
X80715537Y-71497117D01*
X80628408Y-71627515D01*
X80517515Y-71738408D01*
X80387117Y-71825537D01*
X80242228Y-71885552D01*
X80088414Y-71916148D01*
X79931586Y-71916148D01*
X79777772Y-71885552D01*
X79632883Y-71825537D01*
X79502485Y-71738408D01*
X79391592Y-71627515D01*
X79304463Y-71497117D01*
X79244448Y-71352228D01*
X79213852Y-71198414D01*
X79213852Y-71041586D01*
X79244448Y-70887772D01*
X79304463Y-70742883D01*
X79391592Y-70612485D01*
X79502485Y-70501592D01*
X79632883Y-70414463D01*
X79777772Y-70354448D01*
X79931586Y-70323852D01*
X80088414Y-70323852D01*
X80242228Y-70354448D01*
G37*
G36*
X101230000Y-69480000D02*
G01*
X99430000Y-69480000D01*
X99430000Y-67680000D01*
X101230000Y-67680000D01*
X101230000Y-69480000D01*
G37*
G36*
X98051256Y-67718754D02*
G01*
X98214257Y-67786271D01*
X98360954Y-67884291D01*
X98485709Y-68009046D01*
X98583729Y-68155743D01*
X98651246Y-68318744D01*
X98685666Y-68491785D01*
X98685666Y-68668215D01*
X98651246Y-68841256D01*
X98583729Y-69004257D01*
X98485709Y-69150954D01*
X98360954Y-69275709D01*
X98214257Y-69373729D01*
X98051256Y-69441246D01*
X97878215Y-69475666D01*
X97701785Y-69475666D01*
X97528744Y-69441246D01*
X97365743Y-69373729D01*
X97219046Y-69275709D01*
X97094291Y-69150954D01*
X96996271Y-69004257D01*
X96928754Y-68841256D01*
X96894334Y-68668215D01*
X96894334Y-68491785D01*
X96928754Y-68318744D01*
X96996271Y-68155743D01*
X97094291Y-68009046D01*
X97219046Y-67884291D01*
X97365743Y-67786271D01*
X97528744Y-67718754D01*
X97701785Y-67684334D01*
X97878215Y-67684334D01*
X98051256Y-67718754D01*
G37*
G36*
X65002228Y-67814448D02*
G01*
X65147117Y-67874463D01*
X65277515Y-67961592D01*
X65388408Y-68072485D01*
X65475537Y-68202883D01*
X65535552Y-68347772D01*
X65566148Y-68501586D01*
X65566148Y-68658414D01*
X65535552Y-68812228D01*
X65475537Y-68957117D01*
X65388408Y-69087515D01*
X65277515Y-69198408D01*
X65147117Y-69285537D01*
X65002228Y-69345552D01*
X64848414Y-69376148D01*
X64691586Y-69376148D01*
X64537772Y-69345552D01*
X64392883Y-69285537D01*
X64262485Y-69198408D01*
X64151592Y-69087515D01*
X64064463Y-68957117D01*
X64004448Y-68812228D01*
X63973852Y-68658414D01*
X63973852Y-68501586D01*
X64004448Y-68347772D01*
X64064463Y-68202883D01*
X64151592Y-68072485D01*
X64262485Y-67961592D01*
X64392883Y-67874463D01*
X64537772Y-67814448D01*
X64691586Y-67783852D01*
X64848414Y-67783852D01*
X65002228Y-67814448D01*
G37*
G36*
X80242228Y-67814448D02*
G01*
X80387117Y-67874463D01*
X80517515Y-67961592D01*
X80628408Y-68072485D01*
X80715537Y-68202883D01*
X80775552Y-68347772D01*
X80806148Y-68501586D01*
X80806148Y-68658414D01*
X80775552Y-68812228D01*
X80715537Y-68957117D01*
X80628408Y-69087515D01*
X80517515Y-69198408D01*
X80387117Y-69285537D01*
X80242228Y-69345552D01*
X80088414Y-69376148D01*
X79931586Y-69376148D01*
X79777772Y-69345552D01*
X79632883Y-69285537D01*
X79502485Y-69198408D01*
X79391592Y-69087515D01*
X79304463Y-68957117D01*
X79244448Y-68812228D01*
X79213852Y-68658414D01*
X79213852Y-68501586D01*
X79244448Y-68347772D01*
X79304463Y-68202883D01*
X79391592Y-68072485D01*
X79502485Y-67961592D01*
X79632883Y-67874463D01*
X79777772Y-67814448D01*
X79931586Y-67783852D01*
X80088414Y-67783852D01*
X80242228Y-67814448D01*
G37*
G36*
X85322228Y-67814448D02*
G01*
X85467117Y-67874463D01*
X85597515Y-67961592D01*
X85708408Y-68072485D01*
X85795537Y-68202883D01*
X85855552Y-68347772D01*
X85886148Y-68501586D01*
X85886148Y-68658414D01*
X85855552Y-68812228D01*
X85795537Y-68957117D01*
X85708408Y-69087515D01*
X85597515Y-69198408D01*
X85467117Y-69285537D01*
X85322228Y-69345552D01*
X85168414Y-69376148D01*
X85011586Y-69376148D01*
X84857772Y-69345552D01*
X84712883Y-69285537D01*
X84582485Y-69198408D01*
X84471592Y-69087515D01*
X84384463Y-68957117D01*
X84324448Y-68812228D01*
X84293852Y-68658414D01*
X84293852Y-68501586D01*
X84324448Y-68347772D01*
X84384463Y-68202883D01*
X84471592Y-68072485D01*
X84582485Y-67961592D01*
X84712883Y-67874463D01*
X84857772Y-67814448D01*
X85011586Y-67783852D01*
X85168414Y-67783852D01*
X85322228Y-67814448D01*
G37*
G36*
X92942228Y-67814448D02*
G01*
X93087117Y-67874463D01*
X93217515Y-67961592D01*
X93328408Y-68072485D01*
X93415537Y-68202883D01*
X93475552Y-68347772D01*
X93506148Y-68501586D01*
X93506148Y-68658414D01*
X93475552Y-68812228D01*
X93415537Y-68957117D01*
X93328408Y-69087515D01*
X93217515Y-69198408D01*
X93087117Y-69285537D01*
X92942228Y-69345552D01*
X92788414Y-69376148D01*
X92631586Y-69376148D01*
X92477772Y-69345552D01*
X92332883Y-69285537D01*
X92202485Y-69198408D01*
X92091592Y-69087515D01*
X92004463Y-68957117D01*
X91944448Y-68812228D01*
X91913852Y-68658414D01*
X91913852Y-68501586D01*
X91944448Y-68347772D01*
X92004463Y-68202883D01*
X92091592Y-68072485D01*
X92202485Y-67961592D01*
X92332883Y-67874463D01*
X92477772Y-67814448D01*
X92631586Y-67783852D01*
X92788414Y-67783852D01*
X92942228Y-67814448D01*
G37*
G36*
X43930000Y-64250000D02*
G01*
X42430000Y-64250000D01*
X42430000Y-62750000D01*
X43930000Y-62750000D01*
X43930000Y-64250000D01*
G37*
G36*
X45937714Y-62782295D02*
G01*
X46073548Y-62838559D01*
X46195795Y-62920242D01*
X46299758Y-63024205D01*
X46381441Y-63146452D01*
X46437705Y-63282286D01*
X46466389Y-63426487D01*
X46466389Y-63573513D01*
X46437705Y-63717714D01*
X46381441Y-63853548D01*
X46299758Y-63975795D01*
X46195795Y-64079758D01*
X46073548Y-64161441D01*
X45937714Y-64217705D01*
X45793513Y-64246389D01*
X45646487Y-64246389D01*
X45502286Y-64217705D01*
X45366452Y-64161441D01*
X45244205Y-64079758D01*
X45140242Y-63975795D01*
X45058559Y-63853548D01*
X45002295Y-63717714D01*
X44973611Y-63573513D01*
X44973611Y-63426487D01*
X45002295Y-63282286D01*
X45058559Y-63146452D01*
X45140242Y-63024205D01*
X45244205Y-62920242D01*
X45366452Y-62838559D01*
X45502286Y-62782295D01*
X45646487Y-62753611D01*
X45793513Y-62753611D01*
X45937714Y-62782295D01*
G37*
G36*
X48477714Y-62782295D02*
G01*
X48613548Y-62838559D01*
X48735795Y-62920242D01*
X48839758Y-63024205D01*
X48921441Y-63146452D01*
X48977705Y-63282286D01*
X49006389Y-63426487D01*
X49006389Y-63573513D01*
X48977705Y-63717714D01*
X48921441Y-63853548D01*
X48839758Y-63975795D01*
X48735795Y-64079758D01*
X48613548Y-64161441D01*
X48477714Y-64217705D01*
X48333513Y-64246389D01*
X48186487Y-64246389D01*
X48042286Y-64217705D01*
X47906452Y-64161441D01*
X47784205Y-64079758D01*
X47680242Y-63975795D01*
X47598559Y-63853548D01*
X47542295Y-63717714D01*
X47513611Y-63573513D01*
X47513611Y-63426487D01*
X47542295Y-63282286D01*
X47598559Y-63146452D01*
X47680242Y-63024205D01*
X47784205Y-62920242D01*
X47906452Y-62838559D01*
X48042286Y-62782295D01*
X48186487Y-62753611D01*
X48333513Y-62753611D01*
X48477714Y-62782295D01*
G37*
G36*
X51017714Y-62782295D02*
G01*
X51153548Y-62838559D01*
X51275795Y-62920242D01*
X51379758Y-63024205D01*
X51461441Y-63146452D01*
X51517705Y-63282286D01*
X51546389Y-63426487D01*
X51546389Y-63573513D01*
X51517705Y-63717714D01*
X51461441Y-63853548D01*
X51379758Y-63975795D01*
X51275795Y-64079758D01*
X51153548Y-64161441D01*
X51017714Y-64217705D01*
X50873513Y-64246389D01*
X50726487Y-64246389D01*
X50582286Y-64217705D01*
X50446452Y-64161441D01*
X50324205Y-64079758D01*
X50220242Y-63975795D01*
X50138559Y-63853548D01*
X50082295Y-63717714D01*
X50053611Y-63573513D01*
X50053611Y-63426487D01*
X50082295Y-63282286D01*
X50138559Y-63146452D01*
X50220242Y-63024205D01*
X50324205Y-62920242D01*
X50446452Y-62838559D01*
X50582286Y-62782295D01*
X50726487Y-62753611D01*
X50873513Y-62753611D01*
X51017714Y-62782295D01*
G37*
%LPD*%
M02*
