G04 #@! TF.GenerationSoftware,KiCad,Pcbnew,9.0.1*
G04 #@! TF.CreationDate,2025-08-05T12:48:42+05:00*
G04 #@! TF.ProjectId,firstPCB,66697273-7450-4434-922e-6b696361645f,rev?*
G04 #@! TF.SameCoordinates,Original*
G04 #@! TF.FileFunction,Copper,L2,Inr*
G04 #@! TF.FilePolarity,Positive*
%FSLAX46Y46*%
G04 Gerber Fmt 4.6, Leading zero omitted, Abs format (unit mm)*
G04 Created by KiCad (PCBNEW 9.0.1) date 2025-08-05 12:48:42*
%MOMM*%
%LPD*%
G01*
G04 APERTURE LIST*
G04 #@! TA.AperFunction,ComponentPad*
%ADD10C,2.000000*%
G04 #@! TD*
G04 #@! TA.AperFunction,ComponentPad*
%ADD11R,1.800000X1.800000*%
G04 #@! TD*
G04 #@! TA.AperFunction,ComponentPad*
%ADD12C,1.800000*%
G04 #@! TD*
G04 #@! TA.AperFunction,ComponentPad*
%ADD13C,1.600000*%
G04 #@! TD*
G04 #@! TA.AperFunction,ComponentPad*
%ADD14O,1.600000X1.600000*%
G04 #@! TD*
G04 #@! TA.AperFunction,ComponentPad*
%ADD15R,1.524000X1.524000*%
G04 #@! TD*
G04 #@! TA.AperFunction,ComponentPad*
%ADD16C,1.524000*%
G04 #@! TD*
G04 #@! TA.AperFunction,ComponentPad*
%ADD17R,1.500000X1.500000*%
G04 #@! TD*
G04 #@! TA.AperFunction,ComponentPad*
%ADD18C,1.500000*%
G04 #@! TD*
G04 #@! TA.AperFunction,ComponentPad*
%ADD19R,1.600000X1.600000*%
G04 #@! TD*
G04 #@! TA.AperFunction,ViaPad*
%ADD20C,0.600000*%
G04 #@! TD*
G04 APERTURE END LIST*
D10*
X97640000Y-87630000D03*
X104140000Y-87630000D03*
X97640000Y-92130000D03*
X104140000Y-92130000D03*
D11*
X100330000Y-68580000D03*
D12*
X97790000Y-68580000D03*
D13*
X91440000Y-85090000D03*
D14*
X91440000Y-92710000D03*
D13*
X91440000Y-95250000D03*
D14*
X91440000Y-102870000D03*
D15*
X35560000Y-97790000D03*
D16*
X38100000Y-97790000D03*
X40640000Y-97790000D03*
X43180000Y-97790000D03*
X45720000Y-97790000D03*
D13*
X86360000Y-92710000D03*
X86360000Y-87710000D03*
D10*
X97640000Y-77470000D03*
X104140000Y-77470000D03*
X97640000Y-81970000D03*
X104140000Y-81970000D03*
D13*
X91440000Y-74930000D03*
D14*
X91440000Y-82550000D03*
D13*
X86360000Y-102870000D03*
X86360000Y-97870000D03*
D17*
X43180000Y-63500000D03*
D18*
X45720000Y-63500000D03*
X48260000Y-63500000D03*
X50800000Y-63500000D03*
D13*
X86360000Y-82550000D03*
X86360000Y-77550000D03*
D19*
X80010000Y-104140000D03*
D14*
X80010000Y-101600000D03*
X80010000Y-99060000D03*
X80010000Y-96520000D03*
X80010000Y-93980000D03*
X80010000Y-91440000D03*
X80010000Y-88900000D03*
X80010000Y-86360000D03*
X80010000Y-83820000D03*
X80010000Y-81280000D03*
X80010000Y-78740000D03*
X80010000Y-76200000D03*
X80010000Y-73660000D03*
X80010000Y-71120000D03*
X80010000Y-68580000D03*
X64770000Y-68580000D03*
X64770000Y-71120000D03*
X64770000Y-73660000D03*
X64770000Y-76200000D03*
X64770000Y-78740000D03*
X64770000Y-81280000D03*
X64770000Y-83820000D03*
X64770000Y-86360000D03*
X64770000Y-88900000D03*
X64770000Y-91440000D03*
X64770000Y-93980000D03*
X64770000Y-96520000D03*
X64770000Y-99060000D03*
X64770000Y-101600000D03*
X64770000Y-104140000D03*
D10*
X97640000Y-97100000D03*
X104140000Y-97100000D03*
X97640000Y-101600000D03*
X104140000Y-101600000D03*
D13*
X85090000Y-68580000D03*
D14*
X92710000Y-68580000D03*
D20*
X48100000Y-88900000D03*
X50900000Y-86300000D03*
X83400000Y-90400000D03*
X84200000Y-93800000D03*
M02*
