%TF.GenerationSoftware,KiCad,Pcbnew,9.0.1*%
%TF.CreationDate,2025-08-05T12:31:28+05:00*%
%TF.ProjectId,firstPCB,66697273-7450-4434-922e-6b696361645f,rev?*%
%TF.SameCoordinates,Original*%
%TF.FileFunction,Drillmap*%
%TF.FilePolarity,Positive*%
%FSLAX45Y45*%
G04 Gerber Fmt 4.5, Leading zero omitted, Abs format (unit mm)*
G04 Created by KiCad (PCBNEW 9.0.1) date 2025-08-05 12:31:28*
%MOMM*%
%LPD*%
G01*
G04 APERTURE LIST*
%ADD10C,0.050000*%
%ADD11C,0.200000*%
G04 APERTURE END LIST*
D10*
X3000000Y-6000000D02*
X3000000Y-11200000D01*
X3000000Y-11200000D02*
X10800000Y-11200000D01*
X10800000Y-11200000D02*
X10800000Y-6000000D01*
X10800000Y-6000000D02*
X3000000Y-6000000D01*
D11*
X3258277Y-11513984D02*
X3258277Y-11313984D01*
X3258277Y-11313984D02*
X3305896Y-11313984D01*
X3305896Y-11313984D02*
X3334467Y-11323508D01*
X3334467Y-11323508D02*
X3353515Y-11342555D01*
X3353515Y-11342555D02*
X3363039Y-11361603D01*
X3363039Y-11361603D02*
X3372562Y-11399698D01*
X3372562Y-11399698D02*
X3372562Y-11428269D01*
X3372562Y-11428269D02*
X3363039Y-11466365D01*
X3363039Y-11466365D02*
X3353515Y-11485412D01*
X3353515Y-11485412D02*
X3334467Y-11504460D01*
X3334467Y-11504460D02*
X3305896Y-11513984D01*
X3305896Y-11513984D02*
X3258277Y-11513984D01*
X3458277Y-11513984D02*
X3458277Y-11380650D01*
X3458277Y-11418746D02*
X3467801Y-11399698D01*
X3467801Y-11399698D02*
X3477324Y-11390174D01*
X3477324Y-11390174D02*
X3496372Y-11380650D01*
X3496372Y-11380650D02*
X3515420Y-11380650D01*
X3582086Y-11513984D02*
X3582086Y-11380650D01*
X3582086Y-11313984D02*
X3572562Y-11323508D01*
X3572562Y-11323508D02*
X3582086Y-11333031D01*
X3582086Y-11333031D02*
X3591610Y-11323508D01*
X3591610Y-11323508D02*
X3582086Y-11313984D01*
X3582086Y-11313984D02*
X3582086Y-11333031D01*
X3705896Y-11513984D02*
X3686848Y-11504460D01*
X3686848Y-11504460D02*
X3677324Y-11485412D01*
X3677324Y-11485412D02*
X3677324Y-11313984D01*
X3810658Y-11513984D02*
X3791610Y-11504460D01*
X3791610Y-11504460D02*
X3782086Y-11485412D01*
X3782086Y-11485412D02*
X3782086Y-11313984D01*
X4039229Y-11513984D02*
X4039229Y-11313984D01*
X4039229Y-11313984D02*
X4105896Y-11456841D01*
X4105896Y-11456841D02*
X4172562Y-11313984D01*
X4172562Y-11313984D02*
X4172562Y-11513984D01*
X4353515Y-11513984D02*
X4353515Y-11409222D01*
X4353515Y-11409222D02*
X4343991Y-11390174D01*
X4343991Y-11390174D02*
X4324944Y-11380650D01*
X4324944Y-11380650D02*
X4286848Y-11380650D01*
X4286848Y-11380650D02*
X4267801Y-11390174D01*
X4353515Y-11504460D02*
X4334467Y-11513984D01*
X4334467Y-11513984D02*
X4286848Y-11513984D01*
X4286848Y-11513984D02*
X4267801Y-11504460D01*
X4267801Y-11504460D02*
X4258277Y-11485412D01*
X4258277Y-11485412D02*
X4258277Y-11466365D01*
X4258277Y-11466365D02*
X4267801Y-11447317D01*
X4267801Y-11447317D02*
X4286848Y-11437793D01*
X4286848Y-11437793D02*
X4334467Y-11437793D01*
X4334467Y-11437793D02*
X4353515Y-11428269D01*
X4448753Y-11380650D02*
X4448753Y-11580650D01*
X4448753Y-11390174D02*
X4467801Y-11380650D01*
X4467801Y-11380650D02*
X4505896Y-11380650D01*
X4505896Y-11380650D02*
X4524944Y-11390174D01*
X4524944Y-11390174D02*
X4534467Y-11399698D01*
X4534467Y-11399698D02*
X4543991Y-11418746D01*
X4543991Y-11418746D02*
X4543991Y-11475888D01*
X4543991Y-11475888D02*
X4534467Y-11494936D01*
X4534467Y-11494936D02*
X4524944Y-11504460D01*
X4524944Y-11504460D02*
X4505896Y-11513984D01*
X4505896Y-11513984D02*
X4467801Y-11513984D01*
X4467801Y-11513984D02*
X4448753Y-11504460D01*
X4629705Y-11494936D02*
X4639229Y-11504460D01*
X4639229Y-11504460D02*
X4629705Y-11513984D01*
X4629705Y-11513984D02*
X4620182Y-11504460D01*
X4620182Y-11504460D02*
X4629705Y-11494936D01*
X4629705Y-11494936D02*
X4629705Y-11513984D01*
X4629705Y-11390174D02*
X4639229Y-11399698D01*
X4639229Y-11399698D02*
X4629705Y-11409222D01*
X4629705Y-11409222D02*
X4620182Y-11399698D01*
X4620182Y-11399698D02*
X4629705Y-11390174D01*
X4629705Y-11390174D02*
X4629705Y-11409222D01*
M02*
