M48
; DRILL file {KiCad 9.0.1} date 2025-08-05T12:31:28+0500
; FORMAT={-:-/ absolute / metric / decimal}
; #@! TF.CreationDate,2025-08-05T12:31:28+05:00
; #@! TF.GenerationSoftware,Kicad,Pcbnew,9.0.1
; #@! TF.FileFunction,Plated,1,4,PTH
FMAT,2
METRIC
; #@! TA.AperFunction,Plated,PTH,ViaDrill
T1C0.300
; #@! TA.AperFunction,Plated,PTH,ComponentDrill
T2C0.762
; #@! TA.AperFunction,Plated,PTH,ComponentDrill
T3C0.800
; #@! TA.AperFunction,Plated,PTH,ComponentDrill
T4C0.900
; #@! TA.AperFunction,Plated,PTH,ComponentDrill
T5C1.000
; #@! TA.AperFunction,Plated,PTH,ComponentDrill
T6C1.100
%
G90
G05
T1
X48.1Y-88.9
X50.9Y-86.3
X83.4Y-90.4
X84.2Y-93.8
T2
X35.56Y-97.79
X38.1Y-97.79
X40.64Y-97.79
X43.18Y-97.79
X45.72Y-97.79
T3
X43.18Y-63.5
X45.72Y-63.5
X48.26Y-63.5
X50.8Y-63.5
X85.09Y-68.58
X86.36Y-77.55
X86.36Y-82.55
X86.36Y-87.71
X86.36Y-92.71
X86.36Y-97.87
X86.36Y-102.87
X91.44Y-74.93
X91.44Y-82.55
X91.44Y-85.09
X91.44Y-92.71
X91.44Y-95.25
X91.44Y-102.87
X92.71Y-68.58
T4
X97.79Y-68.58
X100.33Y-68.58
T5
X64.77Y-68.58
X64.77Y-71.12
X64.77Y-73.66
X64.77Y-76.2
X64.77Y-78.74
X64.77Y-81.28
X64.77Y-83.82
X64.77Y-86.36
X64.77Y-88.9
X64.77Y-91.44
X64.77Y-93.98
X64.77Y-96.52
X64.77Y-99.06
X64.77Y-101.6
X64.77Y-104.14
X80.01Y-68.58
X80.01Y-71.12
X80.01Y-73.66
X80.01Y-76.2
X80.01Y-78.74
X80.01Y-81.28
X80.01Y-83.82
X80.01Y-86.36
X80.01Y-88.9
X80.01Y-91.44
X80.01Y-93.98
X80.01Y-96.52
X80.01Y-99.06
X80.01Y-101.6
X80.01Y-104.14
T6
X97.64Y-77.47
X97.64Y-81.97
X97.64Y-87.63
X97.64Y-92.13
X97.64Y-97.1
X97.64Y-101.6
X104.14Y-77.47
X104.14Y-81.97
X104.14Y-87.63
X104.14Y-92.13
X104.14Y-97.1
X104.14Y-101.6
M30
