G04 #@! TF.GenerationSoftware,KiCad,Pcbnew,9.0.1*
G04 #@! TF.CreationDate,2025-08-21T17:20:25+05:00*
G04 #@! TF.ProjectId,usb_to_uart,7573625f-746f-45f7-9561-72742e6b6963,rev?*
G04 #@! TF.SameCoordinates,Original*
G04 #@! TF.FileFunction,Copper,L2,Bot*
G04 #@! TF.FilePolarity,Positive*
%FSLAX46Y46*%
G04 Gerber Fmt 4.6, Leading zero omitted, Abs format (unit mm)*
G04 Created by KiCad (PCBNEW 9.0.1) date 2025-08-21 17:20:25*
%MOMM*%
%LPD*%
G01*
G04 APERTURE LIST*
G04 #@! TA.AperFunction,ComponentPad*
%ADD10R,1.700000X1.700000*%
G04 #@! TD*
G04 #@! TA.AperFunction,ComponentPad*
%ADD11C,1.700000*%
G04 #@! TD*
G04 #@! TA.AperFunction,HeatsinkPad*
%ADD12O,2.100000X1.000000*%
G04 #@! TD*
G04 #@! TA.AperFunction,HeatsinkPad*
%ADD13O,1.600000X1.000000*%
G04 #@! TD*
G04 #@! TA.AperFunction,ViaPad*
%ADD14C,0.600000*%
G04 #@! TD*
G04 #@! TA.AperFunction,Conductor*
%ADD15C,0.200000*%
G04 #@! TD*
G04 #@! TA.AperFunction,Conductor*
%ADD16C,0.300000*%
G04 #@! TD*
G04 APERTURE END LIST*
D10*
X143215000Y-99120000D03*
D11*
X143215000Y-101660000D03*
X143215000Y-104200000D03*
X143215000Y-106740000D03*
X143215000Y-109280000D03*
D12*
X120770000Y-99930000D03*
D13*
X116590000Y-99930000D03*
D12*
X120770000Y-108570000D03*
D13*
X116590000Y-108570000D03*
D14*
X134500000Y-102888663D03*
X132700000Y-103400000D03*
X127900000Y-104500000D03*
X135100000Y-104888663D03*
X127400000Y-101260000D03*
X134500000Y-103880000D03*
X133930262Y-103891337D03*
X133930262Y-104900000D03*
X132700000Y-104908663D03*
X133930262Y-104411337D03*
X126500000Y-107207500D03*
X132700000Y-103900000D03*
X134500000Y-104888663D03*
X133300000Y-103391337D03*
X132700000Y-104420000D03*
X132700000Y-102908663D03*
X134500000Y-104400000D03*
X133930262Y-103391337D03*
X135100000Y-102888663D03*
X135100000Y-104400000D03*
X129900000Y-107900000D03*
X133300000Y-104900000D03*
X135100000Y-103380000D03*
X133300000Y-102900000D03*
X133300000Y-104411337D03*
X135100000Y-103880000D03*
X133300000Y-103891337D03*
X134500000Y-103380000D03*
X133930262Y-102900000D03*
X136050000Y-99250000D03*
X118396490Y-104241404D03*
X129400000Y-102600000D03*
X130700000Y-107100000D03*
X139200000Y-107800000D03*
X137250000Y-99250000D03*
X136900000Y-108900000D03*
X137300000Y-102000000D03*
X126900000Y-105600000D03*
X123800000Y-104500000D03*
X129100000Y-105200000D03*
X124800000Y-103500000D03*
D15*
X129900000Y-107900000D02*
X129800000Y-107800000D01*
D16*
X122600000Y-106400000D02*
X122600000Y-102300000D01*
X122600000Y-102300000D02*
X123500000Y-101400000D01*
D15*
X129500000Y-104500000D02*
X127900000Y-104500000D01*
X129900000Y-107900000D02*
X129799000Y-107799000D01*
X129799000Y-104799000D02*
X129500000Y-104500000D01*
D16*
X123407500Y-107207500D02*
X122600000Y-106400000D01*
X123500000Y-101400000D02*
X127260000Y-101400000D01*
X126500000Y-107207500D02*
X123407500Y-107207500D01*
D15*
X129799000Y-107799000D02*
X129799000Y-104799000D01*
D16*
X127260000Y-101400000D02*
X127400000Y-101260000D01*
D15*
X141300000Y-99200000D02*
X140700000Y-98600000D01*
X141300000Y-107365000D02*
X141300000Y-99200000D01*
X136700000Y-98600000D02*
X136050000Y-99250000D01*
X140700000Y-98600000D02*
X136700000Y-98600000D01*
X136050000Y-99250000D02*
X136000000Y-99300000D01*
X143215000Y-109280000D02*
X141300000Y-107365000D01*
D16*
X119900000Y-98400000D02*
X128300000Y-98400000D01*
D15*
X129500000Y-102600000D02*
X130200000Y-103300000D01*
X129400000Y-102600000D02*
X129500000Y-102600000D01*
D16*
X118396490Y-99903510D02*
X119900000Y-98400000D01*
X118396490Y-104241404D02*
X118396490Y-99903510D01*
X128300000Y-98400000D02*
X129400000Y-99500000D01*
D15*
X130200000Y-106600000D02*
X130700000Y-107100000D01*
X130200000Y-103300000D02*
X130200000Y-106600000D01*
D16*
X129400000Y-99500000D02*
X129400000Y-102600000D01*
D15*
X139500000Y-107500000D02*
X139200000Y-107800000D01*
X139500000Y-99900000D02*
X139500000Y-107500000D01*
X137250000Y-99250000D02*
X138850000Y-99250000D01*
X138850000Y-99250000D02*
X139500000Y-99900000D01*
X137400000Y-108400000D02*
X137400000Y-102100000D01*
X136900000Y-108900000D02*
X137400000Y-108400000D01*
X137400000Y-102100000D02*
X137300000Y-102000000D01*
X126900000Y-105600000D02*
X126600003Y-105300003D01*
X124600003Y-105300003D02*
X123800000Y-104500000D01*
X126600003Y-105300003D02*
X124600003Y-105300003D01*
X126000000Y-104200000D02*
X125300000Y-103500000D01*
X126349943Y-104200000D02*
X126000000Y-104200000D01*
X129100000Y-105200000D02*
X127349943Y-105200000D01*
X127349943Y-105200000D02*
X126349943Y-104200000D01*
X125300000Y-103500000D02*
X124800000Y-103500000D01*
G04 #@! TA.AperFunction,Conductor*
G36*
X143927971Y-97200482D02*
G01*
X143934049Y-97200484D01*
X143934108Y-97200500D01*
X143990279Y-97200500D01*
X143990291Y-97200503D01*
X144009630Y-97202025D01*
X144042253Y-97207192D01*
X144079146Y-97219179D01*
X144099765Y-97229685D01*
X144131151Y-97252489D01*
X144147510Y-97268848D01*
X144170314Y-97300234D01*
X144180820Y-97320853D01*
X144192808Y-97357748D01*
X144193610Y-97362815D01*
X144197973Y-97390362D01*
X144199500Y-97409755D01*
X144199500Y-97646000D01*
X144179815Y-97713039D01*
X144127011Y-97758794D01*
X144075500Y-97770000D01*
X143465000Y-97770000D01*
X143465000Y-98686988D01*
X143407993Y-98654075D01*
X143280826Y-98620000D01*
X143149174Y-98620000D01*
X143022007Y-98654075D01*
X142965000Y-98686988D01*
X142965000Y-97770000D01*
X142317155Y-97770000D01*
X142257627Y-97776401D01*
X142257620Y-97776403D01*
X142122913Y-97826645D01*
X142122906Y-97826649D01*
X142007812Y-97912809D01*
X142007809Y-97912812D01*
X141921649Y-98027906D01*
X141921645Y-98027913D01*
X141871403Y-98162620D01*
X141871401Y-98162627D01*
X141865000Y-98222155D01*
X141865000Y-98616403D01*
X141845315Y-98683442D01*
X141792511Y-98729197D01*
X141723353Y-98739141D01*
X141659797Y-98710116D01*
X141653319Y-98704084D01*
X141187590Y-98238355D01*
X141187588Y-98238352D01*
X141068717Y-98119481D01*
X141068716Y-98119480D01*
X140981904Y-98069360D01*
X140981904Y-98069359D01*
X140981900Y-98069358D01*
X140931785Y-98040423D01*
X140779057Y-97999499D01*
X140620943Y-97999499D01*
X140613347Y-97999499D01*
X140613331Y-97999500D01*
X136786669Y-97999500D01*
X136786653Y-97999499D01*
X136779057Y-97999499D01*
X136620943Y-97999499D01*
X136514928Y-98027906D01*
X136468210Y-98040424D01*
X136468209Y-98040425D01*
X136418096Y-98069359D01*
X136418095Y-98069360D01*
X136374689Y-98094420D01*
X136331285Y-98119479D01*
X136331282Y-98119481D01*
X136219478Y-98231286D01*
X136035338Y-98415425D01*
X135974015Y-98448910D01*
X135971849Y-98449361D01*
X135816508Y-98480261D01*
X135816498Y-98480264D01*
X135670827Y-98540602D01*
X135670814Y-98540609D01*
X135539711Y-98628210D01*
X135539707Y-98628213D01*
X135428213Y-98739707D01*
X135428210Y-98739711D01*
X135340609Y-98870814D01*
X135340602Y-98870827D01*
X135280264Y-99016498D01*
X135280261Y-99016510D01*
X135249500Y-99171153D01*
X135249500Y-99328846D01*
X135280261Y-99483489D01*
X135280264Y-99483501D01*
X135340602Y-99629172D01*
X135340609Y-99629185D01*
X135428210Y-99760288D01*
X135428213Y-99760292D01*
X135539707Y-99871786D01*
X135539711Y-99871789D01*
X135670814Y-99959390D01*
X135670827Y-99959397D01*
X135816498Y-100019735D01*
X135816503Y-100019737D01*
X135947510Y-100045796D01*
X135971153Y-100050499D01*
X135971156Y-100050500D01*
X135971158Y-100050500D01*
X136128844Y-100050500D01*
X136128845Y-100050499D01*
X136283497Y-100019737D01*
X136429179Y-99959394D01*
X136560289Y-99871789D01*
X136562312Y-99869766D01*
X136563634Y-99869043D01*
X136564999Y-99867924D01*
X136565211Y-99868182D01*
X136623632Y-99836276D01*
X136693324Y-99841255D01*
X136734939Y-99867999D01*
X136735001Y-99867924D01*
X136735648Y-99868454D01*
X136737688Y-99869766D01*
X136739711Y-99871789D01*
X136870814Y-99959390D01*
X136870827Y-99959397D01*
X137016498Y-100019735D01*
X137016503Y-100019737D01*
X137147510Y-100045796D01*
X137171153Y-100050499D01*
X137171156Y-100050500D01*
X137171158Y-100050500D01*
X137328844Y-100050500D01*
X137328845Y-100050499D01*
X137483497Y-100019737D01*
X137629179Y-99959394D01*
X137673170Y-99930000D01*
X137760875Y-99871398D01*
X137827553Y-99850520D01*
X137829766Y-99850500D01*
X138549903Y-99850500D01*
X138616942Y-99870185D01*
X138637584Y-99886819D01*
X138863181Y-100112416D01*
X138896666Y-100173739D01*
X138899500Y-100200097D01*
X138899500Y-106975161D01*
X138879815Y-107042200D01*
X138827011Y-107087955D01*
X138822962Y-107089718D01*
X138820830Y-107090601D01*
X138820814Y-107090609D01*
X138689711Y-107178210D01*
X138689707Y-107178213D01*
X138578213Y-107289707D01*
X138578210Y-107289711D01*
X138490609Y-107420814D01*
X138490602Y-107420827D01*
X138430264Y-107566498D01*
X138430261Y-107566510D01*
X138399500Y-107721153D01*
X138399500Y-107878846D01*
X138430261Y-108033489D01*
X138430264Y-108033501D01*
X138490602Y-108179172D01*
X138490609Y-108179185D01*
X138578210Y-108310288D01*
X138578213Y-108310292D01*
X138689707Y-108421786D01*
X138689711Y-108421789D01*
X138820814Y-108509390D01*
X138820827Y-108509397D01*
X138871785Y-108530504D01*
X138966503Y-108569737D01*
X139121153Y-108600499D01*
X139121156Y-108600500D01*
X139121158Y-108600500D01*
X139278844Y-108600500D01*
X139278845Y-108600499D01*
X139433497Y-108569737D01*
X139551592Y-108520821D01*
X139579172Y-108509397D01*
X139579172Y-108509396D01*
X139579179Y-108509394D01*
X139710289Y-108421789D01*
X139821789Y-108310289D01*
X139909394Y-108179179D01*
X139969737Y-108033497D01*
X140000500Y-107878842D01*
X140000500Y-107867334D01*
X140004649Y-107851845D01*
X140003995Y-107838103D01*
X140017108Y-107805341D01*
X140037453Y-107770104D01*
X140059577Y-107731785D01*
X140100500Y-107579057D01*
X140100500Y-107420943D01*
X140100500Y-99989059D01*
X140100501Y-99989046D01*
X140100501Y-99820945D01*
X140100501Y-99820943D01*
X140059577Y-99668215D01*
X139999448Y-99564069D01*
X139980520Y-99531284D01*
X139868716Y-99419480D01*
X139868713Y-99419478D01*
X139861416Y-99412181D01*
X139861357Y-99412073D01*
X139859263Y-99409711D01*
X139854263Y-99399082D01*
X139827931Y-99350858D01*
X139832915Y-99281166D01*
X139874787Y-99225233D01*
X139940251Y-99200816D01*
X139949097Y-99200500D01*
X140399903Y-99200500D01*
X140466942Y-99220185D01*
X140487584Y-99236819D01*
X140663181Y-99412416D01*
X140696666Y-99473739D01*
X140699500Y-99500097D01*
X140699500Y-107278330D01*
X140699499Y-107278348D01*
X140699499Y-107444054D01*
X140699498Y-107444054D01*
X140699499Y-107444057D01*
X140740423Y-107596785D01*
X140748221Y-107610292D01*
X140769358Y-107646900D01*
X140769359Y-107646904D01*
X140769360Y-107646904D01*
X140808364Y-107714463D01*
X140819479Y-107733714D01*
X140819481Y-107733717D01*
X140938349Y-107852585D01*
X140938355Y-107852590D01*
X141881241Y-108795476D01*
X141914726Y-108856799D01*
X141911492Y-108921473D01*
X141897753Y-108963757D01*
X141870869Y-109133501D01*
X141864500Y-109173713D01*
X141864500Y-109386287D01*
X141868302Y-109410289D01*
X141887510Y-109531569D01*
X141897754Y-109596243D01*
X141931629Y-109700500D01*
X141963444Y-109798414D01*
X142059951Y-109987820D01*
X142184890Y-110159786D01*
X142335213Y-110310109D01*
X142507179Y-110435048D01*
X142507181Y-110435049D01*
X142507184Y-110435051D01*
X142696588Y-110531557D01*
X142898757Y-110597246D01*
X143108713Y-110630500D01*
X143108714Y-110630500D01*
X143321286Y-110630500D01*
X143321287Y-110630500D01*
X143531243Y-110597246D01*
X143733412Y-110531557D01*
X143922816Y-110435051D01*
X144002616Y-110377073D01*
X144068421Y-110353594D01*
X144136475Y-110369419D01*
X144185170Y-110419525D01*
X144199500Y-110477392D01*
X144199500Y-110990244D01*
X144197973Y-111009640D01*
X144197973Y-111009644D01*
X144192808Y-111042251D01*
X144180820Y-111079146D01*
X144170314Y-111099765D01*
X144147510Y-111131151D01*
X144131151Y-111147510D01*
X144099765Y-111170314D01*
X144079146Y-111180820D01*
X144042251Y-111192808D01*
X144029663Y-111194801D01*
X144009638Y-111197973D01*
X143990244Y-111199500D01*
X113709756Y-111199500D01*
X113690360Y-111197973D01*
X113674110Y-111195399D01*
X113657749Y-111192808D01*
X113620853Y-111180820D01*
X113600234Y-111170314D01*
X113568848Y-111147510D01*
X113552489Y-111131151D01*
X113529685Y-111099765D01*
X113519179Y-111079146D01*
X113507192Y-111042253D01*
X113502025Y-111009630D01*
X113500500Y-110990244D01*
X113500500Y-108320000D01*
X115320138Y-108320000D01*
X116123012Y-108320000D01*
X116105795Y-108329940D01*
X116049940Y-108385795D01*
X116010444Y-108454204D01*
X115990000Y-108530504D01*
X115990000Y-108609496D01*
X116010444Y-108685796D01*
X116049940Y-108754205D01*
X116105795Y-108810060D01*
X116123012Y-108820000D01*
X115320138Y-108820000D01*
X115328430Y-108861690D01*
X115328430Y-108861692D01*
X115403807Y-109043671D01*
X115403814Y-109043684D01*
X115513248Y-109207462D01*
X115513251Y-109207466D01*
X115652533Y-109346748D01*
X115652537Y-109346751D01*
X115816315Y-109456185D01*
X115816328Y-109456192D01*
X115998306Y-109531569D01*
X115998318Y-109531572D01*
X116191504Y-109569999D01*
X116191508Y-109570000D01*
X116340000Y-109570000D01*
X116340000Y-108870000D01*
X116840000Y-108870000D01*
X116840000Y-109570000D01*
X116988492Y-109570000D01*
X116988495Y-109569999D01*
X117181681Y-109531572D01*
X117181693Y-109531569D01*
X117363671Y-109456192D01*
X117363684Y-109456185D01*
X117527462Y-109346751D01*
X117527466Y-109346748D01*
X117666748Y-109207466D01*
X117666751Y-109207462D01*
X117776185Y-109043684D01*
X117776192Y-109043671D01*
X117851569Y-108861692D01*
X117851569Y-108861690D01*
X117859862Y-108820000D01*
X117056988Y-108820000D01*
X117074205Y-108810060D01*
X117130060Y-108754205D01*
X117169556Y-108685796D01*
X117190000Y-108609496D01*
X117190000Y-108530504D01*
X117169556Y-108454204D01*
X117130060Y-108385795D01*
X117074205Y-108329940D01*
X117056988Y-108320000D01*
X117859862Y-108320000D01*
X119250138Y-108320000D01*
X120053012Y-108320000D01*
X120035795Y-108329940D01*
X119979940Y-108385795D01*
X119940444Y-108454204D01*
X119920000Y-108530504D01*
X119920000Y-108609496D01*
X119940444Y-108685796D01*
X119979940Y-108754205D01*
X120035795Y-108810060D01*
X120053012Y-108820000D01*
X119250138Y-108820000D01*
X119258430Y-108861690D01*
X119258430Y-108861692D01*
X119333807Y-109043671D01*
X119333814Y-109043684D01*
X119443248Y-109207462D01*
X119443251Y-109207466D01*
X119582533Y-109346748D01*
X119582537Y-109346751D01*
X119746315Y-109456185D01*
X119746328Y-109456192D01*
X119928306Y-109531569D01*
X119928318Y-109531572D01*
X120121504Y-109569999D01*
X120121508Y-109570000D01*
X120520000Y-109570000D01*
X120520000Y-108870000D01*
X121020000Y-108870000D01*
X121020000Y-109570000D01*
X121418492Y-109570000D01*
X121418495Y-109569999D01*
X121611681Y-109531572D01*
X121611693Y-109531569D01*
X121793671Y-109456192D01*
X121793684Y-109456185D01*
X121957462Y-109346751D01*
X121957466Y-109346748D01*
X122096748Y-109207466D01*
X122096751Y-109207462D01*
X122206185Y-109043684D01*
X122206192Y-109043671D01*
X122281569Y-108861692D01*
X122281572Y-108861680D01*
X122289635Y-108821153D01*
X136099500Y-108821153D01*
X136099500Y-108978846D01*
X136130261Y-109133489D01*
X136130264Y-109133501D01*
X136190602Y-109279172D01*
X136190609Y-109279185D01*
X136278210Y-109410288D01*
X136278213Y-109410292D01*
X136389707Y-109521786D01*
X136389711Y-109521789D01*
X136520814Y-109609390D01*
X136520827Y-109609397D01*
X136666498Y-109669735D01*
X136666503Y-109669737D01*
X136821153Y-109700499D01*
X136821156Y-109700500D01*
X136821158Y-109700500D01*
X136978844Y-109700500D01*
X136978845Y-109700499D01*
X137133497Y-109669737D01*
X137279179Y-109609394D01*
X137410289Y-109521789D01*
X137521789Y-109410289D01*
X137609394Y-109279179D01*
X137669737Y-109133497D01*
X137687605Y-109043671D01*
X137700638Y-108978151D01*
X137733023Y-108916240D01*
X137734510Y-108914724D01*
X137880520Y-108768716D01*
X137959577Y-108631784D01*
X138000501Y-108479057D01*
X138000501Y-108320942D01*
X138000501Y-108313347D01*
X138000500Y-108313329D01*
X138000500Y-102425316D01*
X138009939Y-102377864D01*
X138069735Y-102233501D01*
X138069737Y-102233497D01*
X138100500Y-102078842D01*
X138100500Y-101921158D01*
X138100500Y-101921155D01*
X138100499Y-101921153D01*
X138095551Y-101896280D01*
X138069737Y-101766503D01*
X138047727Y-101713365D01*
X138009397Y-101620827D01*
X138009390Y-101620814D01*
X137921789Y-101489711D01*
X137921786Y-101489707D01*
X137810292Y-101378213D01*
X137810288Y-101378210D01*
X137679185Y-101290609D01*
X137679172Y-101290602D01*
X137533501Y-101230264D01*
X137533489Y-101230261D01*
X137378845Y-101199500D01*
X137378842Y-101199500D01*
X137221158Y-101199500D01*
X137221155Y-101199500D01*
X137066510Y-101230261D01*
X137066498Y-101230264D01*
X136920827Y-101290602D01*
X136920814Y-101290609D01*
X136789711Y-101378210D01*
X136789707Y-101378213D01*
X136678213Y-101489707D01*
X136678210Y-101489711D01*
X136590609Y-101620814D01*
X136590602Y-101620827D01*
X136530264Y-101766498D01*
X136530261Y-101766510D01*
X136499500Y-101921153D01*
X136499500Y-102078846D01*
X136530261Y-102233489D01*
X136530264Y-102233501D01*
X136590602Y-102379172D01*
X136590609Y-102379185D01*
X136678209Y-102510287D01*
X136678210Y-102510288D01*
X136678211Y-102510289D01*
X136763182Y-102595260D01*
X136796666Y-102656581D01*
X136799500Y-102682940D01*
X136799500Y-108002044D01*
X136779815Y-108069083D01*
X136727011Y-108114838D01*
X136699691Y-108123661D01*
X136666510Y-108130261D01*
X136666498Y-108130264D01*
X136520827Y-108190602D01*
X136520814Y-108190609D01*
X136389711Y-108278210D01*
X136389707Y-108278213D01*
X136278213Y-108389707D01*
X136278210Y-108389711D01*
X136190609Y-108520814D01*
X136190602Y-108520827D01*
X136130264Y-108666498D01*
X136130261Y-108666510D01*
X136099500Y-108821153D01*
X122289635Y-108821153D01*
X122289864Y-108820000D01*
X121486988Y-108820000D01*
X121504205Y-108810060D01*
X121560060Y-108754205D01*
X121599556Y-108685796D01*
X121620000Y-108609496D01*
X121620000Y-108530504D01*
X121599556Y-108454204D01*
X121560060Y-108385795D01*
X121504205Y-108329940D01*
X121486988Y-108320000D01*
X122289862Y-108320000D01*
X122281569Y-108278309D01*
X122281569Y-108278307D01*
X122206192Y-108096328D01*
X122206185Y-108096315D01*
X122096751Y-107932537D01*
X122096748Y-107932533D01*
X121957466Y-107793251D01*
X121957462Y-107793248D01*
X121793684Y-107683814D01*
X121793671Y-107683807D01*
X121611693Y-107608430D01*
X121611681Y-107608427D01*
X121418495Y-107570000D01*
X121020000Y-107570000D01*
X121020000Y-108270000D01*
X120520000Y-108270000D01*
X120520000Y-107714463D01*
X120539685Y-107647424D01*
X120582000Y-107607076D01*
X120593365Y-107600515D01*
X120700515Y-107493365D01*
X120708702Y-107479185D01*
X120721721Y-107456637D01*
X120776279Y-107362138D01*
X120776281Y-107362135D01*
X120815500Y-107215766D01*
X120815500Y-107064234D01*
X120776281Y-106917865D01*
X120700515Y-106786635D01*
X120593365Y-106679485D01*
X120527750Y-106641602D01*
X120462136Y-106603719D01*
X120388950Y-106584109D01*
X120315766Y-106564500D01*
X120164234Y-106564500D01*
X120017863Y-106603719D01*
X119886635Y-106679485D01*
X119886632Y-106679487D01*
X119779487Y-106786632D01*
X119779485Y-106786635D01*
X119703719Y-106917863D01*
X119664500Y-107064234D01*
X119664500Y-107215765D01*
X119703719Y-107362136D01*
X119737605Y-107420827D01*
X119779485Y-107493365D01*
X119779487Y-107493367D01*
X119784432Y-107499811D01*
X119781612Y-107501974D01*
X119807302Y-107549020D01*
X119802318Y-107618712D01*
X119760446Y-107674645D01*
X119751379Y-107680416D01*
X119751387Y-107680427D01*
X119582536Y-107793248D01*
X119443251Y-107932533D01*
X119443248Y-107932537D01*
X119333814Y-108096315D01*
X119333807Y-108096328D01*
X119258430Y-108278307D01*
X119258430Y-108278309D01*
X119250138Y-108320000D01*
X117859862Y-108320000D01*
X117851569Y-108278309D01*
X117851569Y-108278307D01*
X117776192Y-108096328D01*
X117776185Y-108096315D01*
X117666751Y-107932537D01*
X117666748Y-107932533D01*
X117527466Y-107793251D01*
X117527462Y-107793248D01*
X117363684Y-107683814D01*
X117363671Y-107683807D01*
X117181693Y-107608430D01*
X117181681Y-107608427D01*
X116988495Y-107570000D01*
X116840000Y-107570000D01*
X116840000Y-108270000D01*
X116340000Y-108270000D01*
X116340000Y-107570000D01*
X116191504Y-107570000D01*
X115998318Y-107608427D01*
X115998306Y-107608430D01*
X115816328Y-107683807D01*
X115816315Y-107683814D01*
X115652537Y-107793248D01*
X115652533Y-107793251D01*
X115513251Y-107932533D01*
X115513248Y-107932537D01*
X115403814Y-108096315D01*
X115403807Y-108096328D01*
X115328430Y-108278307D01*
X115328430Y-108278309D01*
X115320138Y-108320000D01*
X113500500Y-108320000D01*
X113500500Y-99680000D01*
X115320138Y-99680000D01*
X116123012Y-99680000D01*
X116105795Y-99689940D01*
X116049940Y-99745795D01*
X116010444Y-99814204D01*
X115990000Y-99890504D01*
X115990000Y-99969496D01*
X116010444Y-100045796D01*
X116049940Y-100114205D01*
X116105795Y-100170060D01*
X116123012Y-100180000D01*
X115320138Y-100180000D01*
X115328430Y-100221690D01*
X115328430Y-100221692D01*
X115403807Y-100403671D01*
X115403814Y-100403684D01*
X115513248Y-100567462D01*
X115513251Y-100567466D01*
X115652533Y-100706748D01*
X115652537Y-100706751D01*
X115816315Y-100816185D01*
X115816328Y-100816192D01*
X115998306Y-100891569D01*
X115998318Y-100891572D01*
X116191504Y-100929999D01*
X116191508Y-100930000D01*
X116340000Y-100930000D01*
X116340000Y-100230000D01*
X116840000Y-100230000D01*
X116840000Y-100930000D01*
X116988492Y-100930000D01*
X116988495Y-100929999D01*
X117181681Y-100891572D01*
X117181693Y-100891569D01*
X117363671Y-100816192D01*
X117363684Y-100816185D01*
X117527462Y-100706751D01*
X117527466Y-100706748D01*
X117534309Y-100699906D01*
X117595632Y-100666421D01*
X117665324Y-100671405D01*
X117721257Y-100713277D01*
X117745674Y-100778741D01*
X117745990Y-100787587D01*
X117745990Y-103736468D01*
X117726305Y-103803507D01*
X117725093Y-103805358D01*
X117687098Y-103862221D01*
X117687092Y-103862232D01*
X117626754Y-104007902D01*
X117626751Y-104007914D01*
X117595990Y-104162557D01*
X117595990Y-104320250D01*
X117626751Y-104474893D01*
X117626754Y-104474905D01*
X117687092Y-104620576D01*
X117687099Y-104620589D01*
X117774700Y-104751692D01*
X117774703Y-104751696D01*
X117886197Y-104863190D01*
X117886201Y-104863193D01*
X118017304Y-104950794D01*
X118017317Y-104950801D01*
X118160936Y-105010289D01*
X118162993Y-105011141D01*
X118306734Y-105039733D01*
X118317643Y-105041903D01*
X118317646Y-105041904D01*
X118317648Y-105041904D01*
X118475334Y-105041904D01*
X118475335Y-105041903D01*
X118629987Y-105011141D01*
X118742656Y-104964471D01*
X118775662Y-104950801D01*
X118775662Y-104950800D01*
X118775669Y-104950798D01*
X118906779Y-104863193D01*
X119018279Y-104751693D01*
X119105884Y-104620583D01*
X119166227Y-104474901D01*
X119196990Y-104320246D01*
X119196990Y-104162562D01*
X119196990Y-104162559D01*
X119196989Y-104162557D01*
X119166228Y-104007914D01*
X119166227Y-104007907D01*
X119105884Y-103862225D01*
X119067886Y-103805357D01*
X119047010Y-103738680D01*
X119046990Y-103736468D01*
X119046990Y-100334620D01*
X119066675Y-100267581D01*
X119119479Y-100221826D01*
X119188637Y-100211882D01*
X119252193Y-100240907D01*
X119285551Y-100287168D01*
X119333807Y-100403671D01*
X119333814Y-100403684D01*
X119443248Y-100567462D01*
X119443251Y-100567466D01*
X119582533Y-100706748D01*
X119582537Y-100706751D01*
X119751387Y-100819574D01*
X119750430Y-100821005D01*
X119794425Y-100864211D01*
X119809895Y-100932346D01*
X119786072Y-100998029D01*
X119784309Y-101000094D01*
X119784432Y-101000189D01*
X119779485Y-101006635D01*
X119703719Y-101137863D01*
X119664500Y-101284234D01*
X119664500Y-101435765D01*
X119703719Y-101582136D01*
X119726050Y-101620814D01*
X119779485Y-101713365D01*
X119886635Y-101820515D01*
X120017865Y-101896281D01*
X120164234Y-101935500D01*
X120164236Y-101935500D01*
X120315764Y-101935500D01*
X120315766Y-101935500D01*
X120462135Y-101896281D01*
X120593365Y-101820515D01*
X120700515Y-101713365D01*
X120776281Y-101582135D01*
X120815500Y-101435766D01*
X120815500Y-101284234D01*
X120776281Y-101137865D01*
X120700515Y-101006635D01*
X120593365Y-100899485D01*
X120581998Y-100892922D01*
X120533783Y-100842354D01*
X120520000Y-100785536D01*
X120520000Y-100230000D01*
X121020000Y-100230000D01*
X121020000Y-100930000D01*
X121418492Y-100930000D01*
X121418495Y-100929999D01*
X121611681Y-100891572D01*
X121611693Y-100891569D01*
X121793671Y-100816192D01*
X121793684Y-100816185D01*
X121957462Y-100706751D01*
X121957466Y-100706748D01*
X122096748Y-100567466D01*
X122096751Y-100567462D01*
X122206185Y-100403684D01*
X122206192Y-100403671D01*
X122281569Y-100221692D01*
X122281569Y-100221690D01*
X122289862Y-100180000D01*
X121486988Y-100180000D01*
X121504205Y-100170060D01*
X121560060Y-100114205D01*
X121599556Y-100045796D01*
X121620000Y-99969496D01*
X121620000Y-99890504D01*
X121599556Y-99814204D01*
X121560060Y-99745795D01*
X121504205Y-99689940D01*
X121486988Y-99680000D01*
X122289862Y-99680000D01*
X122281569Y-99638309D01*
X122281569Y-99638307D01*
X122206192Y-99456328D01*
X122206185Y-99456315D01*
X122096751Y-99292537D01*
X122096748Y-99292533D01*
X122066396Y-99262181D01*
X122032911Y-99200858D01*
X122037895Y-99131166D01*
X122079767Y-99075233D01*
X122145231Y-99050816D01*
X122154077Y-99050500D01*
X127979192Y-99050500D01*
X128046231Y-99070185D01*
X128066873Y-99086819D01*
X128713181Y-99733127D01*
X128746666Y-99794450D01*
X128749500Y-99820808D01*
X128749500Y-102095064D01*
X128729815Y-102162103D01*
X128728603Y-102163954D01*
X128690608Y-102220817D01*
X128690602Y-102220828D01*
X128630264Y-102366498D01*
X128630261Y-102366510D01*
X128599500Y-102521153D01*
X128599500Y-102678846D01*
X128630261Y-102833489D01*
X128630264Y-102833501D01*
X128690602Y-102979172D01*
X128690609Y-102979185D01*
X128778210Y-103110288D01*
X128778213Y-103110292D01*
X128889707Y-103221786D01*
X128889711Y-103221789D01*
X129020814Y-103309390D01*
X129020827Y-103309397D01*
X129166498Y-103369735D01*
X129166503Y-103369737D01*
X129321153Y-103400499D01*
X129321156Y-103400500D01*
X129321158Y-103400500D01*
X129399903Y-103400500D01*
X129429343Y-103409144D01*
X129459330Y-103415668D01*
X129464345Y-103419422D01*
X129466942Y-103420185D01*
X129487584Y-103436819D01*
X129563181Y-103512416D01*
X129596666Y-103573739D01*
X129599500Y-103600097D01*
X129599500Y-104354865D01*
X129579815Y-104421904D01*
X129527011Y-104467659D01*
X129457853Y-104477603D01*
X129428048Y-104469427D01*
X129423780Y-104467659D01*
X129333497Y-104430263D01*
X129333494Y-104430262D01*
X129333491Y-104430261D01*
X129178845Y-104399500D01*
X129178842Y-104399500D01*
X129021158Y-104399500D01*
X129021155Y-104399500D01*
X128866510Y-104430261D01*
X128866498Y-104430264D01*
X128720827Y-104490602D01*
X128720814Y-104490609D01*
X128589125Y-104578602D01*
X128522447Y-104599480D01*
X128520234Y-104599500D01*
X127650041Y-104599500D01*
X127583002Y-104579815D01*
X127562360Y-104563181D01*
X126837533Y-103838355D01*
X126837531Y-103838352D01*
X126718660Y-103719481D01*
X126718652Y-103719475D01*
X126630732Y-103668715D01*
X126630731Y-103668715D01*
X126610020Y-103656757D01*
X126581728Y-103640423D01*
X126429000Y-103599499D01*
X126300096Y-103599499D01*
X126233057Y-103579814D01*
X126212415Y-103563180D01*
X125787590Y-103138355D01*
X125787588Y-103138352D01*
X125668717Y-103019481D01*
X125668709Y-103019475D01*
X125580789Y-102968715D01*
X125580788Y-102968715D01*
X125560077Y-102956757D01*
X125531785Y-102940423D01*
X125443602Y-102916794D01*
X125379054Y-102899498D01*
X125370997Y-102898438D01*
X125371188Y-102896981D01*
X125312725Y-102879814D01*
X125310873Y-102878601D01*
X125179185Y-102790609D01*
X125179172Y-102790602D01*
X125033501Y-102730264D01*
X125033489Y-102730261D01*
X124878845Y-102699500D01*
X124878842Y-102699500D01*
X124721158Y-102699500D01*
X124721155Y-102699500D01*
X124566510Y-102730261D01*
X124566498Y-102730264D01*
X124420827Y-102790602D01*
X124420814Y-102790609D01*
X124289711Y-102878210D01*
X124289707Y-102878213D01*
X124178213Y-102989707D01*
X124178210Y-102989711D01*
X124090609Y-103120814D01*
X124090602Y-103120827D01*
X124030264Y-103266498D01*
X124030261Y-103266510D01*
X123999500Y-103421153D01*
X123999500Y-103575500D01*
X123979815Y-103642539D01*
X123927011Y-103688294D01*
X123875500Y-103699500D01*
X123721155Y-103699500D01*
X123566510Y-103730261D01*
X123566498Y-103730264D01*
X123420827Y-103790602D01*
X123420814Y-103790609D01*
X123289711Y-103878210D01*
X123289707Y-103878213D01*
X123178213Y-103989707D01*
X123178210Y-103989711D01*
X123090609Y-104120814D01*
X123090602Y-104120827D01*
X123030264Y-104266498D01*
X123030261Y-104266510D01*
X122999500Y-104421153D01*
X122999500Y-104578846D01*
X123030261Y-104733489D01*
X123030264Y-104733501D01*
X123090602Y-104879172D01*
X123090609Y-104879185D01*
X123178210Y-105010288D01*
X123178213Y-105010292D01*
X123289707Y-105121786D01*
X123289711Y-105121789D01*
X123420814Y-105209390D01*
X123420827Y-105209397D01*
X123566498Y-105269735D01*
X123566503Y-105269737D01*
X123631147Y-105282595D01*
X123721849Y-105300638D01*
X123783760Y-105333023D01*
X123785339Y-105334574D01*
X124115142Y-105664377D01*
X124115152Y-105664388D01*
X124119482Y-105668718D01*
X124119483Y-105668719D01*
X124231287Y-105780523D01*
X124309192Y-105825501D01*
X124309193Y-105825502D01*
X124368212Y-105859577D01*
X124368213Y-105859577D01*
X124368218Y-105859580D01*
X124520946Y-105900503D01*
X126075163Y-105900503D01*
X126142202Y-105920188D01*
X126187957Y-105972992D01*
X126189722Y-105977046D01*
X126190601Y-105979170D01*
X126190609Y-105979184D01*
X126278210Y-106110289D01*
X126389707Y-106221786D01*
X126389711Y-106221789D01*
X126520814Y-106309390D01*
X126520827Y-106309397D01*
X126666498Y-106369735D01*
X126666503Y-106369737D01*
X126821153Y-106400499D01*
X126821156Y-106400500D01*
X126821158Y-106400500D01*
X126978844Y-106400500D01*
X126978845Y-106400499D01*
X127133497Y-106369737D01*
X127279179Y-106309394D01*
X127410289Y-106221789D01*
X127521789Y-106110289D01*
X127609394Y-105979179D01*
X127613305Y-105969737D01*
X127651698Y-105877048D01*
X127695538Y-105822644D01*
X127761833Y-105800579D01*
X127766259Y-105800500D01*
X128520234Y-105800500D01*
X128587273Y-105820185D01*
X128589125Y-105821398D01*
X128720814Y-105909390D01*
X128720827Y-105909397D01*
X128829425Y-105954379D01*
X128866503Y-105969737D01*
X129021153Y-106000499D01*
X129021156Y-106000500D01*
X129021158Y-106000500D01*
X129178844Y-106000500D01*
X129178845Y-106000499D01*
X129333497Y-105969737D01*
X129428048Y-105930572D01*
X129497517Y-105923104D01*
X129559996Y-105954379D01*
X129595648Y-106014468D01*
X129599500Y-106045134D01*
X129599500Y-106513330D01*
X129599499Y-106513348D01*
X129599499Y-106679054D01*
X129599498Y-106679054D01*
X129599613Y-106679485D01*
X129640423Y-106831785D01*
X129644318Y-106838531D01*
X129644321Y-106838543D01*
X129644324Y-106838542D01*
X129719475Y-106968709D01*
X129719481Y-106968717D01*
X129831284Y-107080520D01*
X129865425Y-107114660D01*
X129898911Y-107175983D01*
X129899362Y-107178151D01*
X129930261Y-107333491D01*
X129930264Y-107333501D01*
X129990602Y-107479172D01*
X129990609Y-107479185D01*
X130078210Y-107610288D01*
X130078213Y-107610292D01*
X130189707Y-107721786D01*
X130189711Y-107721789D01*
X130320814Y-107809390D01*
X130320827Y-107809397D01*
X130466498Y-107869735D01*
X130466503Y-107869737D01*
X130621153Y-107900499D01*
X130621156Y-107900500D01*
X130621158Y-107900500D01*
X130778844Y-107900500D01*
X130778845Y-107900499D01*
X130933497Y-107869737D01*
X131079179Y-107809394D01*
X131210289Y-107721789D01*
X131321789Y-107610289D01*
X131409394Y-107479179D01*
X131469737Y-107333497D01*
X131500500Y-107178842D01*
X131500500Y-107021158D01*
X131500500Y-107021155D01*
X131500499Y-107021153D01*
X131469737Y-106866503D01*
X131458150Y-106838529D01*
X131409397Y-106720827D01*
X131409390Y-106720814D01*
X131321789Y-106589711D01*
X131321786Y-106589707D01*
X131210292Y-106478213D01*
X131210288Y-106478210D01*
X131079185Y-106390609D01*
X131079172Y-106390602D01*
X130933501Y-106330264D01*
X130933489Y-106330261D01*
X130900309Y-106323661D01*
X130838398Y-106291276D01*
X130803824Y-106230561D01*
X130800500Y-106202044D01*
X130800500Y-103220943D01*
X130794754Y-103199500D01*
X130769507Y-103105276D01*
X130759577Y-103068216D01*
X130759574Y-103068210D01*
X130759574Y-103068209D01*
X130680524Y-102931290D01*
X130680521Y-102931286D01*
X130680520Y-102931284D01*
X130568716Y-102819480D01*
X130568715Y-102819479D01*
X130564385Y-102815149D01*
X130564374Y-102815139D01*
X130209743Y-102460508D01*
X130176258Y-102399185D01*
X130175818Y-102397076D01*
X130169737Y-102366503D01*
X130109394Y-102220821D01*
X130071396Y-102163953D01*
X130050520Y-102097276D01*
X130050500Y-102095064D01*
X130050500Y-99435928D01*
X130025502Y-99310261D01*
X130025501Y-99310260D01*
X130025501Y-99310256D01*
X129980169Y-99200816D01*
X129976466Y-99191875D01*
X129976463Y-99191870D01*
X129976276Y-99191591D01*
X129962480Y-99170943D01*
X129905277Y-99085331D01*
X129905275Y-99085329D01*
X129905273Y-99085326D01*
X128714673Y-97894726D01*
X128714669Y-97894723D01*
X128608127Y-97823535D01*
X128489744Y-97774499D01*
X128489738Y-97774497D01*
X128364071Y-97749500D01*
X128364069Y-97749500D01*
X119835931Y-97749500D01*
X119835929Y-97749500D01*
X119710261Y-97774497D01*
X119710255Y-97774499D01*
X119591870Y-97823535D01*
X119485331Y-97894722D01*
X119485324Y-97894728D01*
X117942126Y-99437926D01*
X117880803Y-99471411D01*
X117811111Y-99466427D01*
X117755178Y-99424555D01*
X117751343Y-99419136D01*
X117666751Y-99292537D01*
X117666748Y-99292533D01*
X117527466Y-99153251D01*
X117527462Y-99153248D01*
X117363684Y-99043814D01*
X117363671Y-99043807D01*
X117181693Y-98968430D01*
X117181681Y-98968427D01*
X116988495Y-98930000D01*
X116840000Y-98930000D01*
X116840000Y-99630000D01*
X116340000Y-99630000D01*
X116340000Y-98930000D01*
X116191504Y-98930000D01*
X115998318Y-98968427D01*
X115998306Y-98968430D01*
X115816328Y-99043807D01*
X115816315Y-99043814D01*
X115652537Y-99153248D01*
X115652533Y-99153251D01*
X115513251Y-99292533D01*
X115513248Y-99292537D01*
X115403814Y-99456315D01*
X115403807Y-99456328D01*
X115328430Y-99638307D01*
X115328430Y-99638309D01*
X115320138Y-99680000D01*
X113500500Y-99680000D01*
X113500500Y-97530031D01*
X113504788Y-97494448D01*
X113500500Y-97464437D01*
X113500501Y-97434108D01*
X113500500Y-97434103D01*
X113500452Y-97433738D01*
X113500365Y-97433593D01*
X113499925Y-97429733D01*
X113499440Y-97426046D01*
X113499504Y-97426037D01*
X113496371Y-97398529D01*
X113496908Y-97380257D01*
X113505330Y-97338848D01*
X113515338Y-97313190D01*
X113537181Y-97277012D01*
X113555225Y-97256207D01*
X113587946Y-97229472D01*
X113611929Y-97215936D01*
X113651732Y-97201742D01*
X113689510Y-97195208D01*
X113710659Y-97193395D01*
X143927971Y-97200482D01*
G37*
G04 #@! TD.AperFunction*
M02*
