G04 #@! TF.GenerationSoftware,KiCad,Pcbnew,9.0.1*
G04 #@! TF.CreationDate,2025-08-21T17:20:25+05:00*
G04 #@! TF.ProjectId,usb_to_uart,7573625f-746f-45f7-9561-72742e6b6963,rev?*
G04 #@! TF.SameCoordinates,Original*
G04 #@! TF.FileFunction,Legend,Top*
G04 #@! TF.FilePolarity,Positive*
%FSLAX46Y46*%
G04 Gerber Fmt 4.6, Leading zero omitted, Abs format (unit mm)*
G04 Created by KiCad (PCBNEW 9.0.1) date 2025-08-21 17:20:25*
%MOMM*%
%LPD*%
G01*
G04 APERTURE LIST*
G04 Aperture macros list*
%AMRoundRect*
0 Rectangle with rounded corners*
0 $1 Rounding radius*
0 $2 $3 $4 $5 $6 $7 $8 $9 X,Y pos of 4 corners*
0 Add a 4 corners polygon primitive as box body*
4,1,4,$2,$3,$4,$5,$6,$7,$8,$9,$2,$3,0*
0 Add four circle primitives for the rounded corners*
1,1,$1+$1,$2,$3*
1,1,$1+$1,$4,$5*
1,1,$1+$1,$6,$7*
1,1,$1+$1,$8,$9*
0 Add four rect primitives between the rounded corners*
20,1,$1+$1,$2,$3,$4,$5,0*
20,1,$1+$1,$4,$5,$6,$7,0*
20,1,$1+$1,$6,$7,$8,$9,0*
20,1,$1+$1,$8,$9,$2,$3,0*%
G04 Aperture macros list end*
%ADD10C,0.100000*%
%ADD11C,0.175000*%
%ADD12C,0.080000*%
%ADD13C,0.150000*%
%ADD14C,0.127000*%
%ADD15C,0.200000*%
%ADD16C,0.120000*%
%ADD17RoundRect,0.100000X-0.130000X-0.100000X0.130000X-0.100000X0.130000X0.100000X-0.130000X0.100000X0*%
%ADD18RoundRect,0.102000X0.200000X-0.240000X0.200000X0.240000X-0.200000X0.240000X-0.200000X-0.240000X0*%
%ADD19RoundRect,0.100000X0.130000X0.100000X-0.130000X0.100000X-0.130000X-0.100000X0.130000X-0.100000X0*%
%ADD20RoundRect,0.062500X-0.337500X-0.062500X0.337500X-0.062500X0.337500X0.062500X-0.337500X0.062500X0*%
%ADD21RoundRect,0.062500X-0.062500X-0.337500X0.062500X-0.337500X0.062500X0.337500X-0.062500X0.337500X0*%
%ADD22R,3.350000X3.350000*%
%ADD23R,1.700000X1.700000*%
%ADD24C,1.700000*%
%ADD25RoundRect,0.100000X0.100000X-0.130000X0.100000X0.130000X-0.100000X0.130000X-0.100000X-0.130000X0*%
%ADD26C,0.650000*%
%ADD27R,1.450000X0.600000*%
%ADD28R,1.450000X0.300000*%
%ADD29O,2.100000X1.000000*%
%ADD30O,1.600000X1.000000*%
%ADD31RoundRect,0.102000X-0.200000X0.240000X-0.200000X-0.240000X0.200000X-0.240000X0.200000X0.240000X0*%
G04 APERTURE END LIST*
D10*
X140518169Y-109772419D02*
X140184836Y-109296228D01*
X139946741Y-109772419D02*
X139946741Y-108772419D01*
X139946741Y-108772419D02*
X140327693Y-108772419D01*
X140327693Y-108772419D02*
X140422931Y-108820038D01*
X140422931Y-108820038D02*
X140470550Y-108867657D01*
X140470550Y-108867657D02*
X140518169Y-108962895D01*
X140518169Y-108962895D02*
X140518169Y-109105752D01*
X140518169Y-109105752D02*
X140470550Y-109200990D01*
X140470550Y-109200990D02*
X140422931Y-109248609D01*
X140422931Y-109248609D02*
X140327693Y-109296228D01*
X140327693Y-109296228D02*
X139946741Y-109296228D01*
X140899122Y-109724800D02*
X141041979Y-109772419D01*
X141041979Y-109772419D02*
X141280074Y-109772419D01*
X141280074Y-109772419D02*
X141375312Y-109724800D01*
X141375312Y-109724800D02*
X141422931Y-109677180D01*
X141422931Y-109677180D02*
X141470550Y-109581942D01*
X141470550Y-109581942D02*
X141470550Y-109486704D01*
X141470550Y-109486704D02*
X141422931Y-109391466D01*
X141422931Y-109391466D02*
X141375312Y-109343847D01*
X141375312Y-109343847D02*
X141280074Y-109296228D01*
X141280074Y-109296228D02*
X141089598Y-109248609D01*
X141089598Y-109248609D02*
X140994360Y-109200990D01*
X140994360Y-109200990D02*
X140946741Y-109153371D01*
X140946741Y-109153371D02*
X140899122Y-109058133D01*
X140899122Y-109058133D02*
X140899122Y-108962895D01*
X140899122Y-108962895D02*
X140946741Y-108867657D01*
X140946741Y-108867657D02*
X140994360Y-108820038D01*
X140994360Y-108820038D02*
X141089598Y-108772419D01*
X141089598Y-108772419D02*
X141327693Y-108772419D01*
X141327693Y-108772419D02*
X141470550Y-108820038D01*
X141756265Y-108772419D02*
X142327693Y-108772419D01*
X142041979Y-109772419D02*
X142041979Y-108772419D01*
X140803884Y-106272419D02*
X141375312Y-106272419D01*
X141089598Y-107272419D02*
X141089598Y-106272419D01*
X141613408Y-106272419D02*
X142280074Y-107272419D01*
X142280074Y-106272419D02*
X141613408Y-107272419D01*
X141280074Y-104672419D02*
X140946741Y-104196228D01*
X140708646Y-104672419D02*
X140708646Y-103672419D01*
X140708646Y-103672419D02*
X141089598Y-103672419D01*
X141089598Y-103672419D02*
X141184836Y-103720038D01*
X141184836Y-103720038D02*
X141232455Y-103767657D01*
X141232455Y-103767657D02*
X141280074Y-103862895D01*
X141280074Y-103862895D02*
X141280074Y-104005752D01*
X141280074Y-104005752D02*
X141232455Y-104100990D01*
X141232455Y-104100990D02*
X141184836Y-104148609D01*
X141184836Y-104148609D02*
X141089598Y-104196228D01*
X141089598Y-104196228D02*
X140708646Y-104196228D01*
X141613408Y-103672419D02*
X142280074Y-104672419D01*
X142280074Y-103672419D02*
X141613408Y-104672419D01*
X139661027Y-101272419D02*
X139994360Y-102272419D01*
X139994360Y-102272419D02*
X140327693Y-101272419D01*
X141232455Y-102177180D02*
X141184836Y-102224800D01*
X141184836Y-102224800D02*
X141041979Y-102272419D01*
X141041979Y-102272419D02*
X140946741Y-102272419D01*
X140946741Y-102272419D02*
X140803884Y-102224800D01*
X140803884Y-102224800D02*
X140708646Y-102129561D01*
X140708646Y-102129561D02*
X140661027Y-102034323D01*
X140661027Y-102034323D02*
X140613408Y-101843847D01*
X140613408Y-101843847D02*
X140613408Y-101700990D01*
X140613408Y-101700990D02*
X140661027Y-101510514D01*
X140661027Y-101510514D02*
X140708646Y-101415276D01*
X140708646Y-101415276D02*
X140803884Y-101320038D01*
X140803884Y-101320038D02*
X140946741Y-101272419D01*
X140946741Y-101272419D02*
X141041979Y-101272419D01*
X141041979Y-101272419D02*
X141184836Y-101320038D01*
X141184836Y-101320038D02*
X141232455Y-101367657D01*
X142232455Y-102177180D02*
X142184836Y-102224800D01*
X142184836Y-102224800D02*
X142041979Y-102272419D01*
X142041979Y-102272419D02*
X141946741Y-102272419D01*
X141946741Y-102272419D02*
X141803884Y-102224800D01*
X141803884Y-102224800D02*
X141708646Y-102129561D01*
X141708646Y-102129561D02*
X141661027Y-102034323D01*
X141661027Y-102034323D02*
X141613408Y-101843847D01*
X141613408Y-101843847D02*
X141613408Y-101700990D01*
X141613408Y-101700990D02*
X141661027Y-101510514D01*
X141661027Y-101510514D02*
X141708646Y-101415276D01*
X141708646Y-101415276D02*
X141803884Y-101320038D01*
X141803884Y-101320038D02*
X141946741Y-101272419D01*
X141946741Y-101272419D02*
X142041979Y-101272419D01*
X142041979Y-101272419D02*
X142184836Y-101320038D01*
X142184836Y-101320038D02*
X142232455Y-101367657D01*
X140137217Y-98720038D02*
X140041979Y-98672419D01*
X140041979Y-98672419D02*
X139899122Y-98672419D01*
X139899122Y-98672419D02*
X139756265Y-98720038D01*
X139756265Y-98720038D02*
X139661027Y-98815276D01*
X139661027Y-98815276D02*
X139613408Y-98910514D01*
X139613408Y-98910514D02*
X139565789Y-99100990D01*
X139565789Y-99100990D02*
X139565789Y-99243847D01*
X139565789Y-99243847D02*
X139613408Y-99434323D01*
X139613408Y-99434323D02*
X139661027Y-99529561D01*
X139661027Y-99529561D02*
X139756265Y-99624800D01*
X139756265Y-99624800D02*
X139899122Y-99672419D01*
X139899122Y-99672419D02*
X139994360Y-99672419D01*
X139994360Y-99672419D02*
X140137217Y-99624800D01*
X140137217Y-99624800D02*
X140184836Y-99577180D01*
X140184836Y-99577180D02*
X140184836Y-99243847D01*
X140184836Y-99243847D02*
X139994360Y-99243847D01*
X140613408Y-99672419D02*
X140613408Y-98672419D01*
X140613408Y-98672419D02*
X141184836Y-99672419D01*
X141184836Y-99672419D02*
X141184836Y-98672419D01*
X141661027Y-99672419D02*
X141661027Y-98672419D01*
X141661027Y-98672419D02*
X141899122Y-98672419D01*
X141899122Y-98672419D02*
X142041979Y-98720038D01*
X142041979Y-98720038D02*
X142137217Y-98815276D01*
X142137217Y-98815276D02*
X142184836Y-98910514D01*
X142184836Y-98910514D02*
X142232455Y-99100990D01*
X142232455Y-99100990D02*
X142232455Y-99243847D01*
X142232455Y-99243847D02*
X142184836Y-99434323D01*
X142184836Y-99434323D02*
X142137217Y-99529561D01*
X142137217Y-99529561D02*
X142041979Y-99624800D01*
X142041979Y-99624800D02*
X141899122Y-99672419D01*
X141899122Y-99672419D02*
X141661027Y-99672419D01*
D11*
X120100003Y-110605233D02*
X120100003Y-109905233D01*
X120100003Y-109905233D02*
X120333337Y-110405233D01*
X120333337Y-110405233D02*
X120566670Y-109905233D01*
X120566670Y-109905233D02*
X120566670Y-110605233D01*
X121200003Y-110138566D02*
X121200003Y-110605233D01*
X120900003Y-110138566D02*
X120900003Y-110505233D01*
X120900003Y-110505233D02*
X120933337Y-110571900D01*
X120933337Y-110571900D02*
X121000003Y-110605233D01*
X121000003Y-110605233D02*
X121100003Y-110605233D01*
X121100003Y-110605233D02*
X121166670Y-110571900D01*
X121166670Y-110571900D02*
X121200003Y-110538566D01*
X121533336Y-110605233D02*
X121533336Y-109905233D01*
X121833336Y-110605233D02*
X121833336Y-110238566D01*
X121833336Y-110238566D02*
X121800003Y-110171900D01*
X121800003Y-110171900D02*
X121733336Y-110138566D01*
X121733336Y-110138566D02*
X121633336Y-110138566D01*
X121633336Y-110138566D02*
X121566670Y-110171900D01*
X121566670Y-110171900D02*
X121533336Y-110205233D01*
X122466669Y-110605233D02*
X122466669Y-110238566D01*
X122466669Y-110238566D02*
X122433336Y-110171900D01*
X122433336Y-110171900D02*
X122366669Y-110138566D01*
X122366669Y-110138566D02*
X122233336Y-110138566D01*
X122233336Y-110138566D02*
X122166669Y-110171900D01*
X122466669Y-110571900D02*
X122400003Y-110605233D01*
X122400003Y-110605233D02*
X122233336Y-110605233D01*
X122233336Y-110605233D02*
X122166669Y-110571900D01*
X122166669Y-110571900D02*
X122133336Y-110505233D01*
X122133336Y-110505233D02*
X122133336Y-110438566D01*
X122133336Y-110438566D02*
X122166669Y-110371900D01*
X122166669Y-110371900D02*
X122233336Y-110338566D01*
X122233336Y-110338566D02*
X122400003Y-110338566D01*
X122400003Y-110338566D02*
X122466669Y-110305233D01*
X122800002Y-110605233D02*
X122800002Y-110138566D01*
X122800002Y-110205233D02*
X122833336Y-110171900D01*
X122833336Y-110171900D02*
X122900002Y-110138566D01*
X122900002Y-110138566D02*
X123000002Y-110138566D01*
X123000002Y-110138566D02*
X123066669Y-110171900D01*
X123066669Y-110171900D02*
X123100002Y-110238566D01*
X123100002Y-110238566D02*
X123100002Y-110605233D01*
X123100002Y-110238566D02*
X123133336Y-110171900D01*
X123133336Y-110171900D02*
X123200002Y-110138566D01*
X123200002Y-110138566D02*
X123300002Y-110138566D01*
X123300002Y-110138566D02*
X123366669Y-110171900D01*
X123366669Y-110171900D02*
X123400002Y-110238566D01*
X123400002Y-110238566D02*
X123400002Y-110605233D01*
X123733335Y-110605233D02*
X123733335Y-110138566D01*
X123733335Y-110205233D02*
X123766669Y-110171900D01*
X123766669Y-110171900D02*
X123833335Y-110138566D01*
X123833335Y-110138566D02*
X123933335Y-110138566D01*
X123933335Y-110138566D02*
X124000002Y-110171900D01*
X124000002Y-110171900D02*
X124033335Y-110238566D01*
X124033335Y-110238566D02*
X124033335Y-110605233D01*
X124033335Y-110238566D02*
X124066669Y-110171900D01*
X124066669Y-110171900D02*
X124133335Y-110138566D01*
X124133335Y-110138566D02*
X124233335Y-110138566D01*
X124233335Y-110138566D02*
X124300002Y-110171900D01*
X124300002Y-110171900D02*
X124333335Y-110238566D01*
X124333335Y-110238566D02*
X124333335Y-110605233D01*
X124966668Y-110605233D02*
X124966668Y-110238566D01*
X124966668Y-110238566D02*
X124933335Y-110171900D01*
X124933335Y-110171900D02*
X124866668Y-110138566D01*
X124866668Y-110138566D02*
X124733335Y-110138566D01*
X124733335Y-110138566D02*
X124666668Y-110171900D01*
X124966668Y-110571900D02*
X124900002Y-110605233D01*
X124900002Y-110605233D02*
X124733335Y-110605233D01*
X124733335Y-110605233D02*
X124666668Y-110571900D01*
X124666668Y-110571900D02*
X124633335Y-110505233D01*
X124633335Y-110505233D02*
X124633335Y-110438566D01*
X124633335Y-110438566D02*
X124666668Y-110371900D01*
X124666668Y-110371900D02*
X124733335Y-110338566D01*
X124733335Y-110338566D02*
X124900002Y-110338566D01*
X124900002Y-110338566D02*
X124966668Y-110305233D01*
X125600001Y-110605233D02*
X125600001Y-109905233D01*
X125600001Y-110571900D02*
X125533335Y-110605233D01*
X125533335Y-110605233D02*
X125400001Y-110605233D01*
X125400001Y-110605233D02*
X125333335Y-110571900D01*
X125333335Y-110571900D02*
X125300001Y-110538566D01*
X125300001Y-110538566D02*
X125266668Y-110471900D01*
X125266668Y-110471900D02*
X125266668Y-110271900D01*
X125266668Y-110271900D02*
X125300001Y-110205233D01*
X125300001Y-110205233D02*
X125333335Y-110171900D01*
X125333335Y-110171900D02*
X125400001Y-110138566D01*
X125400001Y-110138566D02*
X125533335Y-110138566D01*
X125533335Y-110138566D02*
X125600001Y-110171900D01*
X126466667Y-110605233D02*
X126466667Y-109905233D01*
X126466667Y-110238566D02*
X126866667Y-110238566D01*
X126866667Y-110605233D02*
X126866667Y-109905233D01*
X127500000Y-110605233D02*
X127500000Y-110238566D01*
X127500000Y-110238566D02*
X127466667Y-110171900D01*
X127466667Y-110171900D02*
X127400000Y-110138566D01*
X127400000Y-110138566D02*
X127266667Y-110138566D01*
X127266667Y-110138566D02*
X127200000Y-110171900D01*
X127500000Y-110571900D02*
X127433334Y-110605233D01*
X127433334Y-110605233D02*
X127266667Y-110605233D01*
X127266667Y-110605233D02*
X127200000Y-110571900D01*
X127200000Y-110571900D02*
X127166667Y-110505233D01*
X127166667Y-110505233D02*
X127166667Y-110438566D01*
X127166667Y-110438566D02*
X127200000Y-110371900D01*
X127200000Y-110371900D02*
X127266667Y-110338566D01*
X127266667Y-110338566D02*
X127433334Y-110338566D01*
X127433334Y-110338566D02*
X127500000Y-110305233D01*
X127833333Y-110605233D02*
X127833333Y-110138566D01*
X127833333Y-110205233D02*
X127866667Y-110171900D01*
X127866667Y-110171900D02*
X127933333Y-110138566D01*
X127933333Y-110138566D02*
X128033333Y-110138566D01*
X128033333Y-110138566D02*
X128100000Y-110171900D01*
X128100000Y-110171900D02*
X128133333Y-110238566D01*
X128133333Y-110238566D02*
X128133333Y-110605233D01*
X128133333Y-110238566D02*
X128166667Y-110171900D01*
X128166667Y-110171900D02*
X128233333Y-110138566D01*
X128233333Y-110138566D02*
X128333333Y-110138566D01*
X128333333Y-110138566D02*
X128400000Y-110171900D01*
X128400000Y-110171900D02*
X128433333Y-110238566D01*
X128433333Y-110238566D02*
X128433333Y-110605233D01*
X128766666Y-110605233D02*
X128766666Y-110138566D01*
X128766666Y-110205233D02*
X128800000Y-110171900D01*
X128800000Y-110171900D02*
X128866666Y-110138566D01*
X128866666Y-110138566D02*
X128966666Y-110138566D01*
X128966666Y-110138566D02*
X129033333Y-110171900D01*
X129033333Y-110171900D02*
X129066666Y-110238566D01*
X129066666Y-110238566D02*
X129066666Y-110605233D01*
X129066666Y-110238566D02*
X129100000Y-110171900D01*
X129100000Y-110171900D02*
X129166666Y-110138566D01*
X129166666Y-110138566D02*
X129266666Y-110138566D01*
X129266666Y-110138566D02*
X129333333Y-110171900D01*
X129333333Y-110171900D02*
X129366666Y-110238566D01*
X129366666Y-110238566D02*
X129366666Y-110605233D01*
X129999999Y-110605233D02*
X129999999Y-110238566D01*
X129999999Y-110238566D02*
X129966666Y-110171900D01*
X129966666Y-110171900D02*
X129899999Y-110138566D01*
X129899999Y-110138566D02*
X129766666Y-110138566D01*
X129766666Y-110138566D02*
X129699999Y-110171900D01*
X129999999Y-110571900D02*
X129933333Y-110605233D01*
X129933333Y-110605233D02*
X129766666Y-110605233D01*
X129766666Y-110605233D02*
X129699999Y-110571900D01*
X129699999Y-110571900D02*
X129666666Y-110505233D01*
X129666666Y-110505233D02*
X129666666Y-110438566D01*
X129666666Y-110438566D02*
X129699999Y-110371900D01*
X129699999Y-110371900D02*
X129766666Y-110338566D01*
X129766666Y-110338566D02*
X129933333Y-110338566D01*
X129933333Y-110338566D02*
X129999999Y-110305233D01*
X130633332Y-110605233D02*
X130633332Y-109905233D01*
X130633332Y-110571900D02*
X130566666Y-110605233D01*
X130566666Y-110605233D02*
X130433332Y-110605233D01*
X130433332Y-110605233D02*
X130366666Y-110571900D01*
X130366666Y-110571900D02*
X130333332Y-110538566D01*
X130333332Y-110538566D02*
X130299999Y-110471900D01*
X130299999Y-110471900D02*
X130299999Y-110271900D01*
X130299999Y-110271900D02*
X130333332Y-110205233D01*
X130333332Y-110205233D02*
X130366666Y-110171900D01*
X130366666Y-110171900D02*
X130433332Y-110138566D01*
X130433332Y-110138566D02*
X130566666Y-110138566D01*
X130566666Y-110138566D02*
X130633332Y-110171900D01*
X131799998Y-110138566D02*
X131799998Y-110605233D01*
X131499998Y-110138566D02*
X131499998Y-110505233D01*
X131499998Y-110505233D02*
X131533332Y-110571900D01*
X131533332Y-110571900D02*
X131599998Y-110605233D01*
X131599998Y-110605233D02*
X131699998Y-110605233D01*
X131699998Y-110605233D02*
X131766665Y-110571900D01*
X131766665Y-110571900D02*
X131799998Y-110538566D01*
X132133331Y-110605233D02*
X132133331Y-110138566D01*
X132133331Y-110271900D02*
X132166665Y-110205233D01*
X132166665Y-110205233D02*
X132199998Y-110171900D01*
X132199998Y-110171900D02*
X132266665Y-110138566D01*
X132266665Y-110138566D02*
X132333331Y-110138566D01*
X133499997Y-110605233D02*
X133266664Y-110271900D01*
X133099997Y-110605233D02*
X133099997Y-109905233D01*
X133099997Y-109905233D02*
X133366664Y-109905233D01*
X133366664Y-109905233D02*
X133433331Y-109938566D01*
X133433331Y-109938566D02*
X133466664Y-109971900D01*
X133466664Y-109971900D02*
X133499997Y-110038566D01*
X133499997Y-110038566D02*
X133499997Y-110138566D01*
X133499997Y-110138566D02*
X133466664Y-110205233D01*
X133466664Y-110205233D02*
X133433331Y-110238566D01*
X133433331Y-110238566D02*
X133366664Y-110271900D01*
X133366664Y-110271900D02*
X133099997Y-110271900D01*
X134066664Y-110571900D02*
X133999997Y-110605233D01*
X133999997Y-110605233D02*
X133866664Y-110605233D01*
X133866664Y-110605233D02*
X133799997Y-110571900D01*
X133799997Y-110571900D02*
X133766664Y-110505233D01*
X133766664Y-110505233D02*
X133766664Y-110238566D01*
X133766664Y-110238566D02*
X133799997Y-110171900D01*
X133799997Y-110171900D02*
X133866664Y-110138566D01*
X133866664Y-110138566D02*
X133999997Y-110138566D01*
X133999997Y-110138566D02*
X134066664Y-110171900D01*
X134066664Y-110171900D02*
X134099997Y-110238566D01*
X134099997Y-110238566D02*
X134099997Y-110305233D01*
X134099997Y-110305233D02*
X133766664Y-110371900D01*
X134399997Y-110605233D02*
X134399997Y-109905233D01*
X134699997Y-110605233D02*
X134699997Y-110238566D01*
X134699997Y-110238566D02*
X134666664Y-110171900D01*
X134666664Y-110171900D02*
X134599997Y-110138566D01*
X134599997Y-110138566D02*
X134499997Y-110138566D01*
X134499997Y-110138566D02*
X134433331Y-110171900D01*
X134433331Y-110171900D02*
X134399997Y-110205233D01*
X135033330Y-110605233D02*
X135033330Y-110138566D01*
X135033330Y-110205233D02*
X135066664Y-110171900D01*
X135066664Y-110171900D02*
X135133330Y-110138566D01*
X135133330Y-110138566D02*
X135233330Y-110138566D01*
X135233330Y-110138566D02*
X135299997Y-110171900D01*
X135299997Y-110171900D02*
X135333330Y-110238566D01*
X135333330Y-110238566D02*
X135333330Y-110605233D01*
X135333330Y-110238566D02*
X135366664Y-110171900D01*
X135366664Y-110171900D02*
X135433330Y-110138566D01*
X135433330Y-110138566D02*
X135533330Y-110138566D01*
X135533330Y-110138566D02*
X135599997Y-110171900D01*
X135599997Y-110171900D02*
X135633330Y-110238566D01*
X135633330Y-110238566D02*
X135633330Y-110605233D01*
X136266663Y-110605233D02*
X136266663Y-110238566D01*
X136266663Y-110238566D02*
X136233330Y-110171900D01*
X136233330Y-110171900D02*
X136166663Y-110138566D01*
X136166663Y-110138566D02*
X136033330Y-110138566D01*
X136033330Y-110138566D02*
X135966663Y-110171900D01*
X136266663Y-110571900D02*
X136199997Y-110605233D01*
X136199997Y-110605233D02*
X136033330Y-110605233D01*
X136033330Y-110605233D02*
X135966663Y-110571900D01*
X135966663Y-110571900D02*
X135933330Y-110505233D01*
X135933330Y-110505233D02*
X135933330Y-110438566D01*
X135933330Y-110438566D02*
X135966663Y-110371900D01*
X135966663Y-110371900D02*
X136033330Y-110338566D01*
X136033330Y-110338566D02*
X136199997Y-110338566D01*
X136199997Y-110338566D02*
X136266663Y-110305233D01*
X136599996Y-110138566D02*
X136599996Y-110605233D01*
X136599996Y-110205233D02*
X136633330Y-110171900D01*
X136633330Y-110171900D02*
X136699996Y-110138566D01*
X136699996Y-110138566D02*
X136799996Y-110138566D01*
X136799996Y-110138566D02*
X136866663Y-110171900D01*
X136866663Y-110171900D02*
X136899996Y-110238566D01*
X136899996Y-110238566D02*
X136899996Y-110605233D01*
G36*
X115619402Y-98248377D02*
G01*
X115628088Y-98257063D01*
X115645835Y-98292556D01*
X115645835Y-98351245D01*
X115628090Y-98386733D01*
X115614836Y-98399987D01*
X115579346Y-98417733D01*
X115420835Y-98417733D01*
X115420835Y-98226066D01*
X115552469Y-98226066D01*
X115619402Y-98248377D01*
G37*
G36*
X115581502Y-97910477D02*
G01*
X115594758Y-97923733D01*
X115612502Y-97959221D01*
X115612502Y-97984576D01*
X115594756Y-98020068D01*
X115581502Y-98033321D01*
X115546014Y-98051066D01*
X115420835Y-98051066D01*
X115420835Y-97892733D01*
X115546014Y-97892733D01*
X115581502Y-97910477D01*
G37*
G36*
X117181502Y-98143811D02*
G01*
X117194756Y-98157065D01*
X117212502Y-98192555D01*
X117212502Y-98351243D01*
X117194756Y-98386734D01*
X117181502Y-98399987D01*
X117146012Y-98417733D01*
X117087323Y-98417733D01*
X117051835Y-98399989D01*
X117038579Y-98386733D01*
X117020835Y-98351245D01*
X117020835Y-98192556D01*
X117038580Y-98157065D01*
X117051833Y-98143811D01*
X117087325Y-98126066D01*
X117146012Y-98126066D01*
X117181502Y-98143811D01*
G37*
G36*
X122214836Y-97910479D02*
G01*
X122254324Y-97949967D01*
X122279167Y-98049337D01*
X122279167Y-98261128D01*
X122254324Y-98360498D01*
X122214836Y-98399986D01*
X122179344Y-98417733D01*
X122087324Y-98417733D01*
X122051830Y-98399986D01*
X122012341Y-98360497D01*
X121987500Y-98261126D01*
X121987500Y-98049339D01*
X122012341Y-97949968D01*
X122051830Y-97910479D01*
X122087324Y-97892733D01*
X122179344Y-97892733D01*
X122214836Y-97910479D01*
G37*
G36*
X119748168Y-97910478D02*
G01*
X119761422Y-97923732D01*
X119779167Y-97959221D01*
X119779167Y-98017909D01*
X119761420Y-98053402D01*
X119748168Y-98066654D01*
X119712678Y-98084400D01*
X119554167Y-98084400D01*
X119554167Y-97892733D01*
X119712678Y-97892733D01*
X119748168Y-97910478D01*
G37*
G36*
X124914833Y-97910478D02*
G01*
X124928087Y-97923732D01*
X124945832Y-97959221D01*
X124945832Y-98017909D01*
X124928085Y-98053402D01*
X124914833Y-98066654D01*
X124879343Y-98084400D01*
X124720832Y-98084400D01*
X124720832Y-97892733D01*
X124879343Y-97892733D01*
X124914833Y-97910478D01*
G37*
G36*
X126781499Y-97910478D02*
G01*
X126794753Y-97923732D01*
X126812498Y-97959221D01*
X126812498Y-98017909D01*
X126794751Y-98053402D01*
X126781499Y-98066654D01*
X126746009Y-98084400D01*
X126587498Y-98084400D01*
X126587498Y-97892733D01*
X126746009Y-97892733D01*
X126781499Y-97910478D01*
G37*
G36*
X119045267Y-98217733D02*
G01*
X118954734Y-98217733D01*
X119000000Y-98081932D01*
X119045267Y-98217733D01*
G37*
G36*
X127074998Y-98680233D02*
G01*
X113758335Y-98680233D01*
X113758335Y-97805233D01*
X113845835Y-97805233D01*
X113845835Y-98371900D01*
X113847516Y-98388970D01*
X113848718Y-98391874D01*
X113848942Y-98395013D01*
X113855073Y-98411032D01*
X113888407Y-98477698D01*
X113893030Y-98485042D01*
X113893915Y-98487178D01*
X113895889Y-98489583D01*
X113897545Y-98492214D01*
X113899289Y-98493726D01*
X113904796Y-98500437D01*
X113938129Y-98533771D01*
X113944841Y-98539280D01*
X113946355Y-98541025D01*
X113948984Y-98542680D01*
X113951388Y-98544653D01*
X113953523Y-98545537D01*
X113960871Y-98550163D01*
X114027539Y-98583496D01*
X114043558Y-98589626D01*
X114046694Y-98589848D01*
X114049599Y-98591052D01*
X114066669Y-98592733D01*
X114200002Y-98592733D01*
X114217072Y-98591052D01*
X114219976Y-98589848D01*
X114223113Y-98589626D01*
X114239133Y-98583496D01*
X114305800Y-98550163D01*
X114313148Y-98545537D01*
X114315283Y-98544653D01*
X114317686Y-98542680D01*
X114320316Y-98541025D01*
X114321829Y-98539280D01*
X114328542Y-98533771D01*
X114361875Y-98500437D01*
X114367382Y-98493726D01*
X114369127Y-98492213D01*
X114370782Y-98489582D01*
X114372756Y-98487178D01*
X114373640Y-98485042D01*
X114378264Y-98477697D01*
X114411597Y-98411031D01*
X114417728Y-98395011D01*
X114417950Y-98391874D01*
X114419154Y-98388970D01*
X114420835Y-98371900D01*
X114420835Y-97938566D01*
X114545835Y-97938566D01*
X114545835Y-98005233D01*
X114547516Y-98022303D01*
X114548719Y-98025207D01*
X114548942Y-98028344D01*
X114555072Y-98044364D01*
X114588405Y-98111031D01*
X114593030Y-98118379D01*
X114593915Y-98120514D01*
X114595887Y-98122917D01*
X114597543Y-98125547D01*
X114599287Y-98127060D01*
X114604797Y-98133773D01*
X114638131Y-98167106D01*
X114644841Y-98172613D01*
X114646355Y-98174358D01*
X114648985Y-98176013D01*
X114651390Y-98177987D01*
X114653525Y-98178871D01*
X114660871Y-98183495D01*
X114727537Y-98216828D01*
X114728785Y-98217305D01*
X114729293Y-98217682D01*
X114736446Y-98220237D01*
X114743557Y-98222959D01*
X114744189Y-98223003D01*
X114745446Y-98223453D01*
X114869461Y-98254457D01*
X114914835Y-98277144D01*
X114928089Y-98290397D01*
X114945835Y-98325889D01*
X114945835Y-98351245D01*
X114928091Y-98386733D01*
X114914835Y-98399989D01*
X114879347Y-98417733D01*
X114747535Y-98417733D01*
X114661005Y-98388890D01*
X114644279Y-98385087D01*
X114610224Y-98387507D01*
X114579687Y-98402776D01*
X114557318Y-98428568D01*
X114546522Y-98460956D01*
X114548942Y-98495011D01*
X114564211Y-98525548D01*
X114590003Y-98547917D01*
X114605665Y-98554910D01*
X114705665Y-98588243D01*
X114714130Y-98590167D01*
X114716265Y-98591052D01*
X114719359Y-98591356D01*
X114722391Y-98592046D01*
X114724695Y-98591882D01*
X114733335Y-98592733D01*
X114900002Y-98592733D01*
X114917072Y-98591052D01*
X114919976Y-98589848D01*
X114923114Y-98589626D01*
X114939133Y-98583495D01*
X115005799Y-98550162D01*
X115013142Y-98545539D01*
X115015281Y-98544654D01*
X115017687Y-98542678D01*
X115020315Y-98541025D01*
X115021827Y-98539281D01*
X115028540Y-98533772D01*
X115061874Y-98500438D01*
X115067381Y-98493726D01*
X115069127Y-98492213D01*
X115070783Y-98489581D01*
X115072755Y-98487179D01*
X115073639Y-98485044D01*
X115078264Y-98477697D01*
X115111597Y-98411031D01*
X115117728Y-98395011D01*
X115117950Y-98391874D01*
X115119154Y-98388970D01*
X115120835Y-98371900D01*
X115120835Y-98305233D01*
X115119154Y-98288163D01*
X115117950Y-98285258D01*
X115117728Y-98282122D01*
X115111598Y-98266103D01*
X115078265Y-98199435D01*
X115073639Y-98192087D01*
X115072755Y-98189952D01*
X115070782Y-98187548D01*
X115069127Y-98184919D01*
X115067382Y-98183405D01*
X115061873Y-98176693D01*
X115028539Y-98143360D01*
X115021828Y-98137853D01*
X115020315Y-98136108D01*
X115017684Y-98134452D01*
X115015280Y-98132479D01*
X115013143Y-98131594D01*
X115005799Y-98126971D01*
X114939133Y-98093638D01*
X114937884Y-98093160D01*
X114937377Y-98092784D01*
X114930232Y-98090231D01*
X114923114Y-98087507D01*
X114922480Y-98087462D01*
X114921224Y-98087013D01*
X114797208Y-98056008D01*
X114751834Y-98033321D01*
X114738580Y-98020067D01*
X114720835Y-97984576D01*
X114720835Y-97959221D01*
X114738579Y-97923733D01*
X114751835Y-97910477D01*
X114787323Y-97892733D01*
X114919135Y-97892733D01*
X115005665Y-97921576D01*
X115022391Y-97925379D01*
X115056446Y-97922959D01*
X115086983Y-97907690D01*
X115109352Y-97881898D01*
X115120148Y-97849510D01*
X115117728Y-97815455D01*
X115112617Y-97805233D01*
X115245835Y-97805233D01*
X115245835Y-98505233D01*
X115247516Y-98522303D01*
X115260581Y-98553845D01*
X115284723Y-98577987D01*
X115316265Y-98591052D01*
X115333335Y-98592733D01*
X115600002Y-98592733D01*
X115617072Y-98591052D01*
X115619976Y-98589848D01*
X115623113Y-98589626D01*
X115639133Y-98583496D01*
X115705800Y-98550163D01*
X115713148Y-98545537D01*
X115715283Y-98544653D01*
X115717686Y-98542680D01*
X115720316Y-98541025D01*
X115721829Y-98539280D01*
X115728542Y-98533771D01*
X115761875Y-98500437D01*
X115767382Y-98493726D01*
X115769127Y-98492213D01*
X115770782Y-98489582D01*
X115772756Y-98487178D01*
X115773640Y-98485042D01*
X115778264Y-98477697D01*
X115811597Y-98411031D01*
X115817728Y-98395011D01*
X115817950Y-98391874D01*
X115819154Y-98388970D01*
X115820835Y-98371900D01*
X115820835Y-98271900D01*
X115819154Y-98254830D01*
X115817950Y-98251925D01*
X115817728Y-98248789D01*
X115811598Y-98232770D01*
X115778265Y-98166102D01*
X115773641Y-98158756D01*
X115772756Y-98156620D01*
X115770781Y-98154214D01*
X115769127Y-98151586D01*
X115767383Y-98150073D01*
X115761874Y-98143361D01*
X115739243Y-98120730D01*
X115739422Y-98120514D01*
X115740306Y-98118378D01*
X115744932Y-98111031D01*
X115778265Y-98044363D01*
X115784395Y-98028344D01*
X115784617Y-98025207D01*
X115785821Y-98022303D01*
X115785900Y-98021496D01*
X116380849Y-98021496D01*
X116380849Y-98055636D01*
X116393914Y-98087178D01*
X116418056Y-98111320D01*
X116449598Y-98124385D01*
X116466668Y-98126066D01*
X116479168Y-98126066D01*
X116479168Y-98405233D01*
X116480849Y-98422303D01*
X116482052Y-98425207D01*
X116482275Y-98428345D01*
X116488406Y-98444365D01*
X116521740Y-98511031D01*
X116523537Y-98513886D01*
X116523986Y-98515233D01*
X116525439Y-98516909D01*
X116530877Y-98525548D01*
X116539169Y-98532739D01*
X116546355Y-98541025D01*
X116554987Y-98546458D01*
X116556669Y-98547917D01*
X116558019Y-98548367D01*
X116560871Y-98550162D01*
X116627537Y-98583495D01*
X116643557Y-98589626D01*
X116646693Y-98589848D01*
X116649598Y-98591052D01*
X116666668Y-98592733D01*
X116733335Y-98592733D01*
X116750405Y-98591052D01*
X116781947Y-98577987D01*
X116806089Y-98553845D01*
X116819154Y-98522303D01*
X116819154Y-98488163D01*
X116806089Y-98456621D01*
X116781947Y-98432479D01*
X116750405Y-98419414D01*
X116733335Y-98417733D01*
X116687323Y-98417733D01*
X116665220Y-98406681D01*
X116654168Y-98384576D01*
X116654168Y-98171900D01*
X116845835Y-98171900D01*
X116845835Y-98371900D01*
X116847516Y-98388970D01*
X116848719Y-98391874D01*
X116848942Y-98395012D01*
X116855073Y-98411031D01*
X116888406Y-98477697D01*
X116893028Y-98485040D01*
X116893914Y-98487179D01*
X116895889Y-98489585D01*
X116897543Y-98492213D01*
X116899286Y-98493725D01*
X116904796Y-98500438D01*
X116938130Y-98533772D01*
X116944841Y-98539279D01*
X116946355Y-98541025D01*
X116948986Y-98542681D01*
X116951389Y-98544653D01*
X116953523Y-98545537D01*
X116960871Y-98550162D01*
X117027537Y-98583495D01*
X117043557Y-98589626D01*
X117046693Y-98589848D01*
X117049598Y-98591052D01*
X117066668Y-98592733D01*
X117166668Y-98592733D01*
X117183738Y-98591052D01*
X117186642Y-98589848D01*
X117189779Y-98589626D01*
X117205799Y-98583496D01*
X117272466Y-98550163D01*
X117279814Y-98545537D01*
X117281949Y-98544653D01*
X117284352Y-98542680D01*
X117286982Y-98541025D01*
X117288495Y-98539280D01*
X117295208Y-98533771D01*
X117328541Y-98500437D01*
X117334047Y-98493726D01*
X117335792Y-98492214D01*
X117337447Y-98489583D01*
X117339422Y-98487178D01*
X117340306Y-98485042D01*
X117344930Y-98477698D01*
X117378264Y-98411032D01*
X117384394Y-98395013D01*
X117384616Y-98391876D01*
X117385821Y-98388970D01*
X117387502Y-98371900D01*
X117387502Y-98171900D01*
X117385821Y-98154830D01*
X117384617Y-98151925D01*
X117384395Y-98148788D01*
X117378264Y-98132768D01*
X117344930Y-98066101D01*
X117340306Y-98058756D01*
X117339422Y-98056620D01*
X117337449Y-98054216D01*
X117335793Y-98051585D01*
X117334046Y-98050070D01*
X117328540Y-98043361D01*
X117295207Y-98010028D01*
X117288497Y-98004521D01*
X117286983Y-98002775D01*
X117284352Y-98001119D01*
X117281948Y-97999146D01*
X117279810Y-97998260D01*
X117272466Y-97993638D01*
X117205800Y-97960304D01*
X117189780Y-97954173D01*
X117186642Y-97953950D01*
X117183738Y-97952747D01*
X117166668Y-97951066D01*
X117066668Y-97951066D01*
X117049598Y-97952747D01*
X117046691Y-97953951D01*
X117043555Y-97954174D01*
X117027536Y-97960304D01*
X116960870Y-97993638D01*
X116953525Y-97998261D01*
X116951390Y-97999146D01*
X116948984Y-98001120D01*
X116946354Y-98002776D01*
X116944841Y-98004520D01*
X116938131Y-98010027D01*
X116904797Y-98043360D01*
X116899287Y-98050072D01*
X116897543Y-98051586D01*
X116895887Y-98054215D01*
X116893915Y-98056619D01*
X116893030Y-98058753D01*
X116888405Y-98066102D01*
X116855072Y-98132769D01*
X116848942Y-98148789D01*
X116848719Y-98151925D01*
X116847516Y-98154830D01*
X116845835Y-98171900D01*
X116654168Y-98171900D01*
X116654168Y-98126066D01*
X116733335Y-98126066D01*
X116750405Y-98124385D01*
X116781947Y-98111320D01*
X116806089Y-98087178D01*
X116819154Y-98055636D01*
X116819154Y-98021496D01*
X116806089Y-97989954D01*
X116781947Y-97965812D01*
X116750405Y-97952747D01*
X116733335Y-97951066D01*
X116654168Y-97951066D01*
X116654168Y-97805233D01*
X118045834Y-97805233D01*
X118045834Y-98371900D01*
X118047515Y-98388970D01*
X118048717Y-98391874D01*
X118048941Y-98395013D01*
X118055072Y-98411032D01*
X118088406Y-98477698D01*
X118093029Y-98485042D01*
X118093914Y-98487178D01*
X118095888Y-98489583D01*
X118097544Y-98492214D01*
X118099288Y-98493726D01*
X118104795Y-98500437D01*
X118138128Y-98533771D01*
X118144840Y-98539280D01*
X118146354Y-98541025D01*
X118148983Y-98542680D01*
X118151387Y-98544653D01*
X118153522Y-98545537D01*
X118160870Y-98550163D01*
X118227538Y-98583496D01*
X118243557Y-98589626D01*
X118246693Y-98589848D01*
X118249598Y-98591052D01*
X118266668Y-98592733D01*
X118400001Y-98592733D01*
X118417071Y-98591052D01*
X118419975Y-98589848D01*
X118423112Y-98589626D01*
X118439132Y-98583496D01*
X118505799Y-98550163D01*
X118513147Y-98545537D01*
X118515282Y-98544653D01*
X118517685Y-98542680D01*
X118520315Y-98541025D01*
X118521828Y-98539280D01*
X118528541Y-98533771D01*
X118561874Y-98500437D01*
X118566919Y-98494289D01*
X118679854Y-98494289D01*
X118682274Y-98528343D01*
X118697543Y-98558881D01*
X118723335Y-98581250D01*
X118755723Y-98592046D01*
X118789777Y-98589626D01*
X118820315Y-98574357D01*
X118842684Y-98548565D01*
X118849677Y-98532903D01*
X118896400Y-98392733D01*
X119103601Y-98392733D01*
X119150324Y-98532903D01*
X119157317Y-98548566D01*
X119179686Y-98574358D01*
X119210224Y-98589626D01*
X119244278Y-98592046D01*
X119276666Y-98581250D01*
X119302458Y-98558881D01*
X119317727Y-98528344D01*
X119320147Y-98494289D01*
X119316344Y-98477563D01*
X119092234Y-97805233D01*
X119379167Y-97805233D01*
X119379167Y-98505233D01*
X119380848Y-98522303D01*
X119393913Y-98553845D01*
X119418055Y-98577987D01*
X119449597Y-98591052D01*
X119483737Y-98591052D01*
X119515279Y-98577987D01*
X119539421Y-98553845D01*
X119552486Y-98522303D01*
X119554167Y-98505233D01*
X119554167Y-98259400D01*
X119587776Y-98259400D01*
X119794984Y-98555411D01*
X119806150Y-98568431D01*
X119834942Y-98586779D01*
X119868564Y-98592713D01*
X119901897Y-98585328D01*
X119929865Y-98565750D01*
X119948213Y-98536958D01*
X119954147Y-98503336D01*
X119946762Y-98470004D01*
X119938350Y-98455055D01*
X119789102Y-98241843D01*
X119839132Y-98216828D01*
X119846476Y-98212205D01*
X119848614Y-98211320D01*
X119851018Y-98209346D01*
X119853649Y-98207691D01*
X119855163Y-98205944D01*
X119861873Y-98200438D01*
X119895206Y-98167105D01*
X119900715Y-98160392D01*
X119902459Y-98158880D01*
X119904113Y-98156251D01*
X119906088Y-98153846D01*
X119906973Y-98151709D01*
X119911597Y-98144364D01*
X119944930Y-98077696D01*
X119951060Y-98061677D01*
X119951282Y-98058540D01*
X119952486Y-98055636D01*
X119954167Y-98038566D01*
X119954167Y-97938566D01*
X119952486Y-97921496D01*
X119951282Y-97918591D01*
X119951060Y-97915455D01*
X119944929Y-97899435D01*
X119911596Y-97832769D01*
X119906972Y-97825423D01*
X119906088Y-97823288D01*
X119904114Y-97820883D01*
X119902459Y-97818253D01*
X119900714Y-97816739D01*
X119895207Y-97810029D01*
X119873342Y-97788163D01*
X119980848Y-97788163D01*
X119980848Y-97822303D01*
X119993913Y-97853845D01*
X120018055Y-97877987D01*
X120049597Y-97891052D01*
X120066667Y-97892733D01*
X120179167Y-97892733D01*
X120179167Y-98505233D01*
X120180848Y-98522303D01*
X120193913Y-98553845D01*
X120218055Y-98577987D01*
X120249597Y-98591052D01*
X120283737Y-98591052D01*
X120315279Y-98577987D01*
X120339421Y-98553845D01*
X120352486Y-98522303D01*
X120354167Y-98505233D01*
X120354167Y-98105233D01*
X121112500Y-98105233D01*
X121112500Y-98205233D01*
X121112793Y-98208209D01*
X121112603Y-98209487D01*
X121113548Y-98215883D01*
X121114181Y-98222303D01*
X121114674Y-98223493D01*
X121115112Y-98226455D01*
X121148445Y-98359787D01*
X121148895Y-98361046D01*
X121148940Y-98361678D01*
X121151657Y-98368777D01*
X121154216Y-98375940D01*
X121154592Y-98376448D01*
X121155071Y-98377698D01*
X121188405Y-98444364D01*
X121193028Y-98451710D01*
X121193913Y-98453845D01*
X121195883Y-98456245D01*
X121197542Y-98458881D01*
X121199291Y-98460398D01*
X121204795Y-98467104D01*
X121271461Y-98533772D01*
X121284720Y-98544653D01*
X121287625Y-98545856D01*
X121290001Y-98547917D01*
X121305663Y-98554910D01*
X121405663Y-98588243D01*
X121414128Y-98590167D01*
X121416263Y-98591052D01*
X121419357Y-98591356D01*
X121422389Y-98592046D01*
X121424693Y-98591882D01*
X121433333Y-98592733D01*
X121500000Y-98592733D01*
X121508639Y-98591882D01*
X121510944Y-98592046D01*
X121513975Y-98591356D01*
X121517070Y-98591052D01*
X121519204Y-98590167D01*
X121527670Y-98588243D01*
X121627670Y-98554910D01*
X121643332Y-98547917D01*
X121645707Y-98545857D01*
X121648614Y-98544653D01*
X121661873Y-98533771D01*
X121695206Y-98500437D01*
X121706087Y-98487178D01*
X121719152Y-98455635D01*
X121719152Y-98421494D01*
X121706086Y-98389952D01*
X121681945Y-98365812D01*
X121650403Y-98352747D01*
X121616261Y-98352747D01*
X121584719Y-98365813D01*
X121571460Y-98376695D01*
X121552733Y-98395422D01*
X121485800Y-98417733D01*
X121447533Y-98417733D01*
X121380598Y-98395421D01*
X121338579Y-98353402D01*
X121315890Y-98308024D01*
X121287500Y-98194459D01*
X121287500Y-98116006D01*
X121306859Y-98038566D01*
X121812500Y-98038566D01*
X121812500Y-98271900D01*
X121812793Y-98274876D01*
X121812603Y-98276154D01*
X121813548Y-98282550D01*
X121814181Y-98288970D01*
X121814674Y-98290160D01*
X121815112Y-98293122D01*
X121848445Y-98426454D01*
X121854216Y-98442607D01*
X121858088Y-98447833D01*
X121860579Y-98453846D01*
X121871461Y-98467105D01*
X121938128Y-98533772D01*
X121944838Y-98539279D01*
X121946353Y-98541025D01*
X121948985Y-98542682D01*
X121951387Y-98544653D01*
X121953519Y-98545536D01*
X121960869Y-98550163D01*
X122027537Y-98583496D01*
X122043556Y-98589626D01*
X122046692Y-98589848D01*
X122049597Y-98591052D01*
X122066667Y-98592733D01*
X122200000Y-98592733D01*
X122217070Y-98591052D01*
X122219974Y-98589848D01*
X122223111Y-98589626D01*
X122239131Y-98583496D01*
X122305798Y-98550163D01*
X122313147Y-98545536D01*
X122315280Y-98544653D01*
X122317680Y-98542682D01*
X122320314Y-98541025D01*
X122321829Y-98539277D01*
X122328539Y-98533771D01*
X122395206Y-98467104D01*
X122406087Y-98453845D01*
X122408576Y-98447833D01*
X122412449Y-98442608D01*
X122418220Y-98426455D01*
X122451554Y-98293122D01*
X122451991Y-98290163D01*
X122452486Y-98288970D01*
X122453118Y-98282542D01*
X122454064Y-98276154D01*
X122453873Y-98274876D01*
X122454167Y-98271900D01*
X122454167Y-98038566D01*
X122453873Y-98035589D01*
X122454064Y-98034312D01*
X122453118Y-98027923D01*
X122452486Y-98021496D01*
X122451991Y-98020302D01*
X122451554Y-98017344D01*
X122418220Y-97884011D01*
X122412449Y-97867858D01*
X122408576Y-97862632D01*
X122406087Y-97856621D01*
X122395206Y-97843362D01*
X122357077Y-97805233D01*
X122579166Y-97805233D01*
X122579166Y-98505233D01*
X122580847Y-98522303D01*
X122593912Y-98553845D01*
X122618054Y-98577987D01*
X122649596Y-98591052D01*
X122683736Y-98591052D01*
X122715278Y-98577987D01*
X122739420Y-98553845D01*
X122752485Y-98522303D01*
X122754166Y-98505233D01*
X122754166Y-98134719D01*
X122990695Y-98548645D01*
X122993247Y-98552241D01*
X122993912Y-98553845D01*
X122995545Y-98555478D01*
X123000623Y-98562632D01*
X123009826Y-98569759D01*
X123018054Y-98577987D01*
X123023206Y-98580121D01*
X123027616Y-98583536D01*
X123038843Y-98586598D01*
X123049596Y-98591052D01*
X123055173Y-98591052D01*
X123060555Y-98592520D01*
X123072101Y-98591052D01*
X123083736Y-98591052D01*
X123088888Y-98588917D01*
X123094423Y-98588214D01*
X123104528Y-98582439D01*
X123115278Y-98577987D01*
X123119221Y-98574043D01*
X123124065Y-98571276D01*
X123131192Y-98562072D01*
X123139420Y-98553845D01*
X123141554Y-98548692D01*
X123144969Y-98544283D01*
X123148031Y-98533055D01*
X123152485Y-98522303D01*
X123153344Y-98513574D01*
X123153953Y-98511344D01*
X123153733Y-98509620D01*
X123154166Y-98505233D01*
X123154166Y-97816177D01*
X123213186Y-97816177D01*
X123216989Y-97832903D01*
X123450323Y-98532903D01*
X123457316Y-98548565D01*
X123461412Y-98553288D01*
X123464209Y-98558881D01*
X123472496Y-98566069D01*
X123479685Y-98574357D01*
X123485277Y-98577153D01*
X123490001Y-98581250D01*
X123500411Y-98584720D01*
X123510223Y-98589626D01*
X123516458Y-98590069D01*
X123522389Y-98592046D01*
X123533333Y-98591268D01*
X123544277Y-98592046D01*
X123550207Y-98590069D01*
X123556444Y-98589626D01*
X123566257Y-98584719D01*
X123576665Y-98581250D01*
X123581388Y-98577153D01*
X123586981Y-98574357D01*
X123594169Y-98566069D01*
X123602457Y-98558881D01*
X123605253Y-98553288D01*
X123609350Y-98548565D01*
X123616343Y-98532903D01*
X123849676Y-97832903D01*
X123853479Y-97816177D01*
X123852701Y-97805233D01*
X123912499Y-97805233D01*
X123912499Y-98505233D01*
X123914180Y-98522303D01*
X123927245Y-98553845D01*
X123951387Y-98577987D01*
X123982929Y-98591052D01*
X123999999Y-98592733D01*
X124333333Y-98592733D01*
X124350403Y-98591052D01*
X124381945Y-98577987D01*
X124406087Y-98553845D01*
X124419152Y-98522303D01*
X124419152Y-98488163D01*
X124406087Y-98456621D01*
X124381945Y-98432479D01*
X124350403Y-98419414D01*
X124333333Y-98417733D01*
X124087499Y-98417733D01*
X124087499Y-98226066D01*
X124233333Y-98226066D01*
X124250403Y-98224385D01*
X124281945Y-98211320D01*
X124306087Y-98187178D01*
X124319152Y-98155636D01*
X124319152Y-98121496D01*
X124306087Y-98089954D01*
X124281945Y-98065812D01*
X124250403Y-98052747D01*
X124233333Y-98051066D01*
X124087499Y-98051066D01*
X124087499Y-97892733D01*
X124333333Y-97892733D01*
X124350403Y-97891052D01*
X124381945Y-97877987D01*
X124406087Y-97853845D01*
X124419152Y-97822303D01*
X124419152Y-97805233D01*
X124545832Y-97805233D01*
X124545832Y-98505233D01*
X124547513Y-98522303D01*
X124560578Y-98553845D01*
X124584720Y-98577987D01*
X124616262Y-98591052D01*
X124650402Y-98591052D01*
X124681944Y-98577987D01*
X124706086Y-98553845D01*
X124719151Y-98522303D01*
X124720832Y-98505233D01*
X124720832Y-98259400D01*
X124754441Y-98259400D01*
X124961649Y-98555411D01*
X124972815Y-98568431D01*
X125001607Y-98586779D01*
X125035229Y-98592713D01*
X125068562Y-98585328D01*
X125096530Y-98565750D01*
X125114878Y-98536958D01*
X125120812Y-98503336D01*
X125113427Y-98470004D01*
X125105015Y-98455055D01*
X124955767Y-98241843D01*
X125005797Y-98216828D01*
X125013141Y-98212205D01*
X125015279Y-98211320D01*
X125017683Y-98209346D01*
X125020314Y-98207691D01*
X125021828Y-98205944D01*
X125028538Y-98200438D01*
X125061871Y-98167105D01*
X125067380Y-98160392D01*
X125069124Y-98158880D01*
X125070778Y-98156251D01*
X125072753Y-98153846D01*
X125073638Y-98151709D01*
X125078262Y-98144364D01*
X125111595Y-98077696D01*
X125117725Y-98061677D01*
X125117947Y-98058540D01*
X125119151Y-98055636D01*
X125120832Y-98038566D01*
X125120832Y-97938566D01*
X125119151Y-97921496D01*
X125117947Y-97918591D01*
X125117725Y-97915455D01*
X125111594Y-97899435D01*
X125078261Y-97832769D01*
X125073637Y-97825423D01*
X125072753Y-97823288D01*
X125070779Y-97820883D01*
X125069124Y-97818253D01*
X125067379Y-97816739D01*
X125061872Y-97810029D01*
X125040007Y-97788163D01*
X125147513Y-97788163D01*
X125147513Y-97822303D01*
X125160578Y-97853845D01*
X125184720Y-97877987D01*
X125216262Y-97891052D01*
X125233332Y-97892733D01*
X125345832Y-97892733D01*
X125345832Y-98505233D01*
X125347513Y-98522303D01*
X125360578Y-98553845D01*
X125384720Y-98577987D01*
X125416262Y-98591052D01*
X125450402Y-98591052D01*
X125481944Y-98577987D01*
X125506086Y-98553845D01*
X125519151Y-98522303D01*
X125520832Y-98505233D01*
X125520832Y-97892733D01*
X125633332Y-97892733D01*
X125650402Y-97891052D01*
X125681944Y-97877987D01*
X125706086Y-97853845D01*
X125719151Y-97822303D01*
X125719151Y-97805233D01*
X125779165Y-97805233D01*
X125779165Y-98505233D01*
X125780846Y-98522303D01*
X125793911Y-98553845D01*
X125818053Y-98577987D01*
X125849595Y-98591052D01*
X125866665Y-98592733D01*
X126199999Y-98592733D01*
X126217069Y-98591052D01*
X126248611Y-98577987D01*
X126272753Y-98553845D01*
X126285818Y-98522303D01*
X126285818Y-98488163D01*
X126272753Y-98456621D01*
X126248611Y-98432479D01*
X126217069Y-98419414D01*
X126199999Y-98417733D01*
X125954165Y-98417733D01*
X125954165Y-98226066D01*
X126099999Y-98226066D01*
X126117069Y-98224385D01*
X126148611Y-98211320D01*
X126172753Y-98187178D01*
X126185818Y-98155636D01*
X126185818Y-98121496D01*
X126172753Y-98089954D01*
X126148611Y-98065812D01*
X126117069Y-98052747D01*
X126099999Y-98051066D01*
X125954165Y-98051066D01*
X125954165Y-97892733D01*
X126199999Y-97892733D01*
X126217069Y-97891052D01*
X126248611Y-97877987D01*
X126272753Y-97853845D01*
X126285818Y-97822303D01*
X126285818Y-97805233D01*
X126412498Y-97805233D01*
X126412498Y-98505233D01*
X126414179Y-98522303D01*
X126427244Y-98553845D01*
X126451386Y-98577987D01*
X126482928Y-98591052D01*
X126517068Y-98591052D01*
X126548610Y-98577987D01*
X126572752Y-98553845D01*
X126585817Y-98522303D01*
X126587498Y-98505233D01*
X126587498Y-98259400D01*
X126621107Y-98259400D01*
X126828315Y-98555411D01*
X126839481Y-98568431D01*
X126868273Y-98586779D01*
X126901895Y-98592713D01*
X126935228Y-98585328D01*
X126963196Y-98565750D01*
X126981544Y-98536958D01*
X126987478Y-98503336D01*
X126980093Y-98470004D01*
X126971681Y-98455055D01*
X126822433Y-98241843D01*
X126872463Y-98216828D01*
X126879807Y-98212205D01*
X126881945Y-98211320D01*
X126884349Y-98209346D01*
X126886980Y-98207691D01*
X126888494Y-98205944D01*
X126895204Y-98200438D01*
X126928537Y-98167105D01*
X126934046Y-98160392D01*
X126935790Y-98158880D01*
X126937444Y-98156251D01*
X126939419Y-98153846D01*
X126940304Y-98151709D01*
X126944928Y-98144364D01*
X126978261Y-98077696D01*
X126984391Y-98061677D01*
X126984613Y-98058540D01*
X126985817Y-98055636D01*
X126987498Y-98038566D01*
X126987498Y-97938566D01*
X126985817Y-97921496D01*
X126984613Y-97918591D01*
X126984391Y-97915455D01*
X126978260Y-97899435D01*
X126944927Y-97832769D01*
X126940303Y-97825423D01*
X126939419Y-97823288D01*
X126937445Y-97820883D01*
X126935790Y-97818253D01*
X126934045Y-97816739D01*
X126928538Y-97810029D01*
X126895205Y-97776695D01*
X126888492Y-97771185D01*
X126886979Y-97769441D01*
X126884349Y-97767785D01*
X126881946Y-97765813D01*
X126879811Y-97764928D01*
X126872463Y-97760303D01*
X126805796Y-97726970D01*
X126789776Y-97720840D01*
X126786639Y-97720617D01*
X126783735Y-97719414D01*
X126766665Y-97717733D01*
X126499998Y-97717733D01*
X126482928Y-97719414D01*
X126451386Y-97732479D01*
X126427244Y-97756621D01*
X126414179Y-97788163D01*
X126412498Y-97805233D01*
X126285818Y-97805233D01*
X126285818Y-97788163D01*
X126272753Y-97756621D01*
X126248611Y-97732479D01*
X126217069Y-97719414D01*
X126199999Y-97717733D01*
X125866665Y-97717733D01*
X125849595Y-97719414D01*
X125818053Y-97732479D01*
X125793911Y-97756621D01*
X125780846Y-97788163D01*
X125779165Y-97805233D01*
X125719151Y-97805233D01*
X125719151Y-97788163D01*
X125706086Y-97756621D01*
X125681944Y-97732479D01*
X125650402Y-97719414D01*
X125633332Y-97717733D01*
X125233332Y-97717733D01*
X125216262Y-97719414D01*
X125184720Y-97732479D01*
X125160578Y-97756621D01*
X125147513Y-97788163D01*
X125040007Y-97788163D01*
X125028539Y-97776695D01*
X125021826Y-97771185D01*
X125020313Y-97769441D01*
X125017683Y-97767785D01*
X125015280Y-97765813D01*
X125013145Y-97764928D01*
X125005797Y-97760303D01*
X124939130Y-97726970D01*
X124923110Y-97720840D01*
X124919973Y-97720617D01*
X124917069Y-97719414D01*
X124899999Y-97717733D01*
X124633332Y-97717733D01*
X124616262Y-97719414D01*
X124584720Y-97732479D01*
X124560578Y-97756621D01*
X124547513Y-97788163D01*
X124545832Y-97805233D01*
X124419152Y-97805233D01*
X124419152Y-97788163D01*
X124406087Y-97756621D01*
X124381945Y-97732479D01*
X124350403Y-97719414D01*
X124333333Y-97717733D01*
X123999999Y-97717733D01*
X123982929Y-97719414D01*
X123951387Y-97732479D01*
X123927245Y-97756621D01*
X123914180Y-97788163D01*
X123912499Y-97805233D01*
X123852701Y-97805233D01*
X123851059Y-97782122D01*
X123835790Y-97751585D01*
X123809998Y-97729216D01*
X123777610Y-97718420D01*
X123743556Y-97720840D01*
X123713018Y-97736108D01*
X123690649Y-97761900D01*
X123683656Y-97777563D01*
X123533332Y-98228533D01*
X123383009Y-97777563D01*
X123376016Y-97761901D01*
X123353647Y-97736109D01*
X123323109Y-97720840D01*
X123289055Y-97718420D01*
X123256667Y-97729216D01*
X123230875Y-97751585D01*
X123215606Y-97782123D01*
X123213186Y-97816177D01*
X123154166Y-97816177D01*
X123154166Y-97805233D01*
X123152485Y-97788163D01*
X123139420Y-97756621D01*
X123115278Y-97732479D01*
X123083736Y-97719414D01*
X123049596Y-97719414D01*
X123018054Y-97732479D01*
X122993912Y-97756621D01*
X122980847Y-97788163D01*
X122979166Y-97805233D01*
X122979166Y-98175746D01*
X122742637Y-97761821D01*
X122740084Y-97758224D01*
X122739420Y-97756621D01*
X122737786Y-97754987D01*
X122732709Y-97747834D01*
X122723505Y-97740706D01*
X122715278Y-97732479D01*
X122710125Y-97730344D01*
X122705716Y-97726930D01*
X122694490Y-97723868D01*
X122683736Y-97719414D01*
X122678156Y-97719414D01*
X122672777Y-97717947D01*
X122661236Y-97719414D01*
X122649596Y-97719414D01*
X122644442Y-97721548D01*
X122638909Y-97722252D01*
X122628803Y-97728026D01*
X122618054Y-97732479D01*
X122614110Y-97736422D01*
X122609267Y-97739190D01*
X122602139Y-97748393D01*
X122593912Y-97756621D01*
X122591777Y-97761773D01*
X122588363Y-97766183D01*
X122585301Y-97777408D01*
X122580847Y-97788163D01*
X122579986Y-97796896D01*
X122579380Y-97799122D01*
X122579598Y-97800841D01*
X122579166Y-97805233D01*
X122357077Y-97805233D01*
X122328539Y-97776695D01*
X122321829Y-97771188D01*
X122320314Y-97769441D01*
X122317680Y-97767783D01*
X122315280Y-97765813D01*
X122313147Y-97764929D01*
X122305798Y-97760303D01*
X122239131Y-97726970D01*
X122223111Y-97720840D01*
X122219974Y-97720617D01*
X122217070Y-97719414D01*
X122200000Y-97717733D01*
X122066667Y-97717733D01*
X122049597Y-97719414D01*
X122046692Y-97720617D01*
X122043556Y-97720840D01*
X122027537Y-97726970D01*
X121960869Y-97760303D01*
X121953519Y-97764929D01*
X121951387Y-97765813D01*
X121948985Y-97767783D01*
X121946353Y-97769441D01*
X121944838Y-97771186D01*
X121938128Y-97776694D01*
X121871461Y-97843361D01*
X121860579Y-97856620D01*
X121858088Y-97862632D01*
X121854216Y-97867859D01*
X121848445Y-97884012D01*
X121815112Y-98017344D01*
X121814674Y-98020305D01*
X121814181Y-98021496D01*
X121813548Y-98027915D01*
X121812603Y-98034312D01*
X121812793Y-98035589D01*
X121812500Y-98038566D01*
X121306859Y-98038566D01*
X121315890Y-98002441D01*
X121338579Y-97957063D01*
X121380598Y-97915044D01*
X121447533Y-97892733D01*
X121485800Y-97892733D01*
X121552733Y-97915043D01*
X121571460Y-97933771D01*
X121584719Y-97944653D01*
X121616261Y-97957719D01*
X121650403Y-97957719D01*
X121681945Y-97944654D01*
X121706086Y-97920514D01*
X121719152Y-97888972D01*
X121719152Y-97854831D01*
X121706087Y-97823288D01*
X121695206Y-97810029D01*
X121661873Y-97776695D01*
X121648614Y-97765813D01*
X121645707Y-97764608D01*
X121643332Y-97762549D01*
X121627670Y-97755556D01*
X121527670Y-97722223D01*
X121519204Y-97720298D01*
X121517070Y-97719414D01*
X121513975Y-97719109D01*
X121510944Y-97718420D01*
X121508639Y-97718583D01*
X121500000Y-97717733D01*
X121433333Y-97717733D01*
X121424693Y-97718583D01*
X121422389Y-97718420D01*
X121419357Y-97719109D01*
X121416263Y-97719414D01*
X121414128Y-97720298D01*
X121405663Y-97722223D01*
X121305663Y-97755556D01*
X121290001Y-97762549D01*
X121287625Y-97764609D01*
X121284720Y-97765813D01*
X121271461Y-97776694D01*
X121204795Y-97843362D01*
X121199291Y-97850067D01*
X121197542Y-97851585D01*
X121195883Y-97854220D01*
X121193913Y-97856621D01*
X121193028Y-97858755D01*
X121188405Y-97866102D01*
X121155071Y-97932768D01*
X121154592Y-97934017D01*
X121154216Y-97934526D01*
X121151657Y-97941688D01*
X121148940Y-97948788D01*
X121148895Y-97949419D01*
X121148445Y-97950679D01*
X121115112Y-98084011D01*
X121114674Y-98086972D01*
X121114181Y-98088163D01*
X121113548Y-98094582D01*
X121112603Y-98100979D01*
X121112793Y-98102256D01*
X121112500Y-98105233D01*
X120354167Y-98105233D01*
X120354167Y-97892733D01*
X120466667Y-97892733D01*
X120483737Y-97891052D01*
X120515279Y-97877987D01*
X120539421Y-97853845D01*
X120552486Y-97822303D01*
X120552486Y-97788163D01*
X120539421Y-97756621D01*
X120515279Y-97732479D01*
X120483737Y-97719414D01*
X120466667Y-97717733D01*
X120066667Y-97717733D01*
X120049597Y-97719414D01*
X120018055Y-97732479D01*
X119993913Y-97756621D01*
X119980848Y-97788163D01*
X119873342Y-97788163D01*
X119861874Y-97776695D01*
X119855161Y-97771185D01*
X119853648Y-97769441D01*
X119851018Y-97767785D01*
X119848615Y-97765813D01*
X119846480Y-97764928D01*
X119839132Y-97760303D01*
X119772465Y-97726970D01*
X119756445Y-97720840D01*
X119753308Y-97720617D01*
X119750404Y-97719414D01*
X119733334Y-97717733D01*
X119466667Y-97717733D01*
X119449597Y-97719414D01*
X119418055Y-97732479D01*
X119393913Y-97756621D01*
X119380848Y-97788163D01*
X119379167Y-97805233D01*
X119092234Y-97805233D01*
X119083011Y-97777563D01*
X119076018Y-97761901D01*
X119071921Y-97757177D01*
X119069125Y-97751585D01*
X119060837Y-97744396D01*
X119053649Y-97736109D01*
X119048056Y-97733312D01*
X119043333Y-97729216D01*
X119032925Y-97725746D01*
X119023112Y-97720840D01*
X119016875Y-97720396D01*
X119010945Y-97718420D01*
X119000001Y-97719197D01*
X118989057Y-97718420D01*
X118983126Y-97720396D01*
X118976891Y-97720840D01*
X118967079Y-97725746D01*
X118956669Y-97729216D01*
X118951945Y-97733312D01*
X118946353Y-97736109D01*
X118939164Y-97744396D01*
X118930877Y-97751585D01*
X118928080Y-97757177D01*
X118923984Y-97761901D01*
X118916991Y-97777563D01*
X118683657Y-98477563D01*
X118679854Y-98494289D01*
X118566919Y-98494289D01*
X118567381Y-98493726D01*
X118569126Y-98492213D01*
X118570781Y-98489582D01*
X118572755Y-98487178D01*
X118573639Y-98485042D01*
X118578263Y-98477697D01*
X118611596Y-98411031D01*
X118617727Y-98395011D01*
X118617949Y-98391874D01*
X118619153Y-98388970D01*
X118620834Y-98371900D01*
X118620834Y-97805233D01*
X118619153Y-97788163D01*
X118606088Y-97756621D01*
X118581946Y-97732479D01*
X118550404Y-97719414D01*
X118516264Y-97719414D01*
X118484722Y-97732479D01*
X118460580Y-97756621D01*
X118447515Y-97788163D01*
X118445834Y-97805233D01*
X118445834Y-98351245D01*
X118428089Y-98386733D01*
X118414835Y-98399987D01*
X118379345Y-98417733D01*
X118287325Y-98417733D01*
X118251832Y-98399987D01*
X118238579Y-98386734D01*
X118220834Y-98351243D01*
X118220834Y-97805233D01*
X118219153Y-97788163D01*
X118206088Y-97756621D01*
X118181946Y-97732479D01*
X118150404Y-97719414D01*
X118116264Y-97719414D01*
X118084722Y-97732479D01*
X118060580Y-97756621D01*
X118047515Y-97788163D01*
X118045834Y-97805233D01*
X116654168Y-97805233D01*
X116652487Y-97788163D01*
X116639422Y-97756621D01*
X116615280Y-97732479D01*
X116583738Y-97719414D01*
X116549598Y-97719414D01*
X116518056Y-97732479D01*
X116493914Y-97756621D01*
X116480849Y-97788163D01*
X116479168Y-97805233D01*
X116479168Y-97951066D01*
X116466668Y-97951066D01*
X116449598Y-97952747D01*
X116418056Y-97965812D01*
X116393914Y-97989954D01*
X116380849Y-98021496D01*
X115785900Y-98021496D01*
X115787502Y-98005233D01*
X115787502Y-97938566D01*
X115785821Y-97921496D01*
X115784617Y-97918591D01*
X115784395Y-97915455D01*
X115778264Y-97899435D01*
X115744931Y-97832769D01*
X115740306Y-97825421D01*
X115739422Y-97823287D01*
X115737450Y-97820884D01*
X115735794Y-97818253D01*
X115734048Y-97816739D01*
X115728541Y-97810028D01*
X115695207Y-97776694D01*
X115688494Y-97771184D01*
X115686982Y-97769441D01*
X115684354Y-97767787D01*
X115681948Y-97765812D01*
X115679809Y-97764926D01*
X115672466Y-97760304D01*
X115605800Y-97726971D01*
X115589781Y-97720840D01*
X115586643Y-97720617D01*
X115583739Y-97719414D01*
X115566669Y-97717733D01*
X115333335Y-97717733D01*
X115316265Y-97719414D01*
X115284723Y-97732479D01*
X115260581Y-97756621D01*
X115247516Y-97788163D01*
X115245835Y-97805233D01*
X115112617Y-97805233D01*
X115102459Y-97784918D01*
X115076667Y-97762549D01*
X115061005Y-97755556D01*
X114961005Y-97722223D01*
X114952539Y-97720298D01*
X114950405Y-97719414D01*
X114947310Y-97719109D01*
X114944279Y-97718420D01*
X114941974Y-97718583D01*
X114933335Y-97717733D01*
X114766668Y-97717733D01*
X114749598Y-97719414D01*
X114746693Y-97720617D01*
X114743557Y-97720840D01*
X114727537Y-97726971D01*
X114660871Y-97760304D01*
X114653523Y-97764928D01*
X114651389Y-97765813D01*
X114648986Y-97767784D01*
X114646355Y-97769441D01*
X114644841Y-97771186D01*
X114638130Y-97776694D01*
X114604796Y-97810028D01*
X114599286Y-97816740D01*
X114597543Y-97818253D01*
X114595889Y-97820880D01*
X114593914Y-97823287D01*
X114593028Y-97825425D01*
X114588406Y-97832769D01*
X114555073Y-97899435D01*
X114548942Y-97915454D01*
X114548719Y-97918591D01*
X114547516Y-97921496D01*
X114545835Y-97938566D01*
X114420835Y-97938566D01*
X114420835Y-97805233D01*
X114419154Y-97788163D01*
X114406089Y-97756621D01*
X114381947Y-97732479D01*
X114350405Y-97719414D01*
X114316265Y-97719414D01*
X114284723Y-97732479D01*
X114260581Y-97756621D01*
X114247516Y-97788163D01*
X114245835Y-97805233D01*
X114245835Y-98351245D01*
X114228090Y-98386733D01*
X114214836Y-98399987D01*
X114179346Y-98417733D01*
X114087326Y-98417733D01*
X114051833Y-98399987D01*
X114038580Y-98386734D01*
X114020835Y-98351243D01*
X114020835Y-97805233D01*
X114019154Y-97788163D01*
X114006089Y-97756621D01*
X113981947Y-97732479D01*
X113950405Y-97719414D01*
X113916265Y-97719414D01*
X113884723Y-97732479D01*
X113860581Y-97756621D01*
X113847516Y-97788163D01*
X113845835Y-97805233D01*
X113758335Y-97805233D01*
X113758335Y-97630233D01*
X127074998Y-97630233D01*
X127074998Y-98680233D01*
G37*
D12*
X122705011Y-108574125D02*
X122743107Y-108536030D01*
X122743107Y-108536030D02*
X122819297Y-108497935D01*
X122819297Y-108497935D02*
X123009773Y-108497935D01*
X123009773Y-108497935D02*
X123085964Y-108536030D01*
X123085964Y-108536030D02*
X123124059Y-108574125D01*
X123124059Y-108574125D02*
X123162154Y-108650316D01*
X123162154Y-108650316D02*
X123162154Y-108726506D01*
X123162154Y-108726506D02*
X123124059Y-108840792D01*
X123124059Y-108840792D02*
X122666916Y-109297935D01*
X122666916Y-109297935D02*
X123162154Y-109297935D01*
X123657393Y-108497935D02*
X123733583Y-108497935D01*
X123733583Y-108497935D02*
X123809774Y-108536030D01*
X123809774Y-108536030D02*
X123847869Y-108574125D01*
X123847869Y-108574125D02*
X123885964Y-108650316D01*
X123885964Y-108650316D02*
X123924059Y-108802697D01*
X123924059Y-108802697D02*
X123924059Y-108993173D01*
X123924059Y-108993173D02*
X123885964Y-109145554D01*
X123885964Y-109145554D02*
X123847869Y-109221744D01*
X123847869Y-109221744D02*
X123809774Y-109259840D01*
X123809774Y-109259840D02*
X123733583Y-109297935D01*
X123733583Y-109297935D02*
X123657393Y-109297935D01*
X123657393Y-109297935D02*
X123581202Y-109259840D01*
X123581202Y-109259840D02*
X123543107Y-109221744D01*
X123543107Y-109221744D02*
X123505012Y-109145554D01*
X123505012Y-109145554D02*
X123466916Y-108993173D01*
X123466916Y-108993173D02*
X123466916Y-108802697D01*
X123466916Y-108802697D02*
X123505012Y-108650316D01*
X123505012Y-108650316D02*
X123543107Y-108574125D01*
X123543107Y-108574125D02*
X123581202Y-108536030D01*
X123581202Y-108536030D02*
X123657393Y-108497935D01*
X124838345Y-108459840D02*
X124152631Y-109488411D01*
X125257393Y-108497935D02*
X125333583Y-108497935D01*
X125333583Y-108497935D02*
X125409774Y-108536030D01*
X125409774Y-108536030D02*
X125447869Y-108574125D01*
X125447869Y-108574125D02*
X125485964Y-108650316D01*
X125485964Y-108650316D02*
X125524059Y-108802697D01*
X125524059Y-108802697D02*
X125524059Y-108993173D01*
X125524059Y-108993173D02*
X125485964Y-109145554D01*
X125485964Y-109145554D02*
X125447869Y-109221744D01*
X125447869Y-109221744D02*
X125409774Y-109259840D01*
X125409774Y-109259840D02*
X125333583Y-109297935D01*
X125333583Y-109297935D02*
X125257393Y-109297935D01*
X125257393Y-109297935D02*
X125181202Y-109259840D01*
X125181202Y-109259840D02*
X125143107Y-109221744D01*
X125143107Y-109221744D02*
X125105012Y-109145554D01*
X125105012Y-109145554D02*
X125066916Y-108993173D01*
X125066916Y-108993173D02*
X125066916Y-108802697D01*
X125066916Y-108802697D02*
X125105012Y-108650316D01*
X125105012Y-108650316D02*
X125143107Y-108574125D01*
X125143107Y-108574125D02*
X125181202Y-108536030D01*
X125181202Y-108536030D02*
X125257393Y-108497935D01*
X125981202Y-108840792D02*
X125905012Y-108802697D01*
X125905012Y-108802697D02*
X125866917Y-108764601D01*
X125866917Y-108764601D02*
X125828821Y-108688411D01*
X125828821Y-108688411D02*
X125828821Y-108650316D01*
X125828821Y-108650316D02*
X125866917Y-108574125D01*
X125866917Y-108574125D02*
X125905012Y-108536030D01*
X125905012Y-108536030D02*
X125981202Y-108497935D01*
X125981202Y-108497935D02*
X126133583Y-108497935D01*
X126133583Y-108497935D02*
X126209774Y-108536030D01*
X126209774Y-108536030D02*
X126247869Y-108574125D01*
X126247869Y-108574125D02*
X126285964Y-108650316D01*
X126285964Y-108650316D02*
X126285964Y-108688411D01*
X126285964Y-108688411D02*
X126247869Y-108764601D01*
X126247869Y-108764601D02*
X126209774Y-108802697D01*
X126209774Y-108802697D02*
X126133583Y-108840792D01*
X126133583Y-108840792D02*
X125981202Y-108840792D01*
X125981202Y-108840792D02*
X125905012Y-108878887D01*
X125905012Y-108878887D02*
X125866917Y-108916982D01*
X125866917Y-108916982D02*
X125828821Y-108993173D01*
X125828821Y-108993173D02*
X125828821Y-109145554D01*
X125828821Y-109145554D02*
X125866917Y-109221744D01*
X125866917Y-109221744D02*
X125905012Y-109259840D01*
X125905012Y-109259840D02*
X125981202Y-109297935D01*
X125981202Y-109297935D02*
X126133583Y-109297935D01*
X126133583Y-109297935D02*
X126209774Y-109259840D01*
X126209774Y-109259840D02*
X126247869Y-109221744D01*
X126247869Y-109221744D02*
X126285964Y-109145554D01*
X126285964Y-109145554D02*
X126285964Y-108993173D01*
X126285964Y-108993173D02*
X126247869Y-108916982D01*
X126247869Y-108916982D02*
X126209774Y-108878887D01*
X126209774Y-108878887D02*
X126133583Y-108840792D01*
X127200250Y-108459840D02*
X126514536Y-109488411D01*
X127428821Y-108574125D02*
X127466917Y-108536030D01*
X127466917Y-108536030D02*
X127543107Y-108497935D01*
X127543107Y-108497935D02*
X127733583Y-108497935D01*
X127733583Y-108497935D02*
X127809774Y-108536030D01*
X127809774Y-108536030D02*
X127847869Y-108574125D01*
X127847869Y-108574125D02*
X127885964Y-108650316D01*
X127885964Y-108650316D02*
X127885964Y-108726506D01*
X127885964Y-108726506D02*
X127847869Y-108840792D01*
X127847869Y-108840792D02*
X127390726Y-109297935D01*
X127390726Y-109297935D02*
X127885964Y-109297935D01*
X128381203Y-108497935D02*
X128457393Y-108497935D01*
X128457393Y-108497935D02*
X128533584Y-108536030D01*
X128533584Y-108536030D02*
X128571679Y-108574125D01*
X128571679Y-108574125D02*
X128609774Y-108650316D01*
X128609774Y-108650316D02*
X128647869Y-108802697D01*
X128647869Y-108802697D02*
X128647869Y-108993173D01*
X128647869Y-108993173D02*
X128609774Y-109145554D01*
X128609774Y-109145554D02*
X128571679Y-109221744D01*
X128571679Y-109221744D02*
X128533584Y-109259840D01*
X128533584Y-109259840D02*
X128457393Y-109297935D01*
X128457393Y-109297935D02*
X128381203Y-109297935D01*
X128381203Y-109297935D02*
X128305012Y-109259840D01*
X128305012Y-109259840D02*
X128266917Y-109221744D01*
X128266917Y-109221744D02*
X128228822Y-109145554D01*
X128228822Y-109145554D02*
X128190726Y-108993173D01*
X128190726Y-108993173D02*
X128190726Y-108802697D01*
X128190726Y-108802697D02*
X128228822Y-108650316D01*
X128228822Y-108650316D02*
X128266917Y-108574125D01*
X128266917Y-108574125D02*
X128305012Y-108536030D01*
X128305012Y-108536030D02*
X128381203Y-108497935D01*
X128952631Y-108574125D02*
X128990727Y-108536030D01*
X128990727Y-108536030D02*
X129066917Y-108497935D01*
X129066917Y-108497935D02*
X129257393Y-108497935D01*
X129257393Y-108497935D02*
X129333584Y-108536030D01*
X129333584Y-108536030D02*
X129371679Y-108574125D01*
X129371679Y-108574125D02*
X129409774Y-108650316D01*
X129409774Y-108650316D02*
X129409774Y-108726506D01*
X129409774Y-108726506D02*
X129371679Y-108840792D01*
X129371679Y-108840792D02*
X128914536Y-109297935D01*
X128914536Y-109297935D02*
X129409774Y-109297935D01*
X130133584Y-108497935D02*
X129752632Y-108497935D01*
X129752632Y-108497935D02*
X129714536Y-108878887D01*
X129714536Y-108878887D02*
X129752632Y-108840792D01*
X129752632Y-108840792D02*
X129828822Y-108802697D01*
X129828822Y-108802697D02*
X130019298Y-108802697D01*
X130019298Y-108802697D02*
X130095489Y-108840792D01*
X130095489Y-108840792D02*
X130133584Y-108878887D01*
X130133584Y-108878887D02*
X130171679Y-108955078D01*
X130171679Y-108955078D02*
X130171679Y-109145554D01*
X130171679Y-109145554D02*
X130133584Y-109221744D01*
X130133584Y-109221744D02*
X130095489Y-109259840D01*
X130095489Y-109259840D02*
X130019298Y-109297935D01*
X130019298Y-109297935D02*
X129828822Y-109297935D01*
X129828822Y-109297935D02*
X129752632Y-109259840D01*
X129752632Y-109259840D02*
X129714536Y-109221744D01*
D13*
X137706905Y-103854819D02*
X137706905Y-102854819D01*
X137706905Y-102854819D02*
X137945000Y-102854819D01*
X137945000Y-102854819D02*
X138087857Y-102902438D01*
X138087857Y-102902438D02*
X138183095Y-102997676D01*
X138183095Y-102997676D02*
X138230714Y-103092914D01*
X138230714Y-103092914D02*
X138278333Y-103283390D01*
X138278333Y-103283390D02*
X138278333Y-103426247D01*
X138278333Y-103426247D02*
X138230714Y-103616723D01*
X138230714Y-103616723D02*
X138183095Y-103711961D01*
X138183095Y-103711961D02*
X138087857Y-103807200D01*
X138087857Y-103807200D02*
X137945000Y-103854819D01*
X137945000Y-103854819D02*
X137706905Y-103854819D01*
X138659286Y-102950057D02*
X138706905Y-102902438D01*
X138706905Y-102902438D02*
X138802143Y-102854819D01*
X138802143Y-102854819D02*
X139040238Y-102854819D01*
X139040238Y-102854819D02*
X139135476Y-102902438D01*
X139135476Y-102902438D02*
X139183095Y-102950057D01*
X139183095Y-102950057D02*
X139230714Y-103045295D01*
X139230714Y-103045295D02*
X139230714Y-103140533D01*
X139230714Y-103140533D02*
X139183095Y-103283390D01*
X139183095Y-103283390D02*
X138611667Y-103854819D01*
X138611667Y-103854819D02*
X139230714Y-103854819D01*
D12*
X126643878Y-106836190D02*
X126323878Y-106836190D01*
X126323878Y-106836190D02*
X126323878Y-106760000D01*
X126323878Y-106760000D02*
X126339116Y-106714285D01*
X126339116Y-106714285D02*
X126369592Y-106683809D01*
X126369592Y-106683809D02*
X126400068Y-106668571D01*
X126400068Y-106668571D02*
X126461020Y-106653333D01*
X126461020Y-106653333D02*
X126506735Y-106653333D01*
X126506735Y-106653333D02*
X126567687Y-106668571D01*
X126567687Y-106668571D02*
X126598163Y-106683809D01*
X126598163Y-106683809D02*
X126628640Y-106714285D01*
X126628640Y-106714285D02*
X126643878Y-106760000D01*
X126643878Y-106760000D02*
X126643878Y-106836190D01*
X126323878Y-106546666D02*
X126323878Y-106348571D01*
X126323878Y-106348571D02*
X126445782Y-106455238D01*
X126445782Y-106455238D02*
X126445782Y-106409523D01*
X126445782Y-106409523D02*
X126461020Y-106379047D01*
X126461020Y-106379047D02*
X126476259Y-106363809D01*
X126476259Y-106363809D02*
X126506735Y-106348571D01*
X126506735Y-106348571D02*
X126582925Y-106348571D01*
X126582925Y-106348571D02*
X126613401Y-106363809D01*
X126613401Y-106363809D02*
X126628640Y-106379047D01*
X126628640Y-106379047D02*
X126643878Y-106409523D01*
X126643878Y-106409523D02*
X126643878Y-106500952D01*
X126643878Y-106500952D02*
X126628640Y-106531428D01*
X126628640Y-106531428D02*
X126613401Y-106546666D01*
D13*
X138353333Y-100654819D02*
X138020000Y-100178628D01*
X137781905Y-100654819D02*
X137781905Y-99654819D01*
X137781905Y-99654819D02*
X138162857Y-99654819D01*
X138162857Y-99654819D02*
X138258095Y-99702438D01*
X138258095Y-99702438D02*
X138305714Y-99750057D01*
X138305714Y-99750057D02*
X138353333Y-99845295D01*
X138353333Y-99845295D02*
X138353333Y-99988152D01*
X138353333Y-99988152D02*
X138305714Y-100083390D01*
X138305714Y-100083390D02*
X138258095Y-100131009D01*
X138258095Y-100131009D02*
X138162857Y-100178628D01*
X138162857Y-100178628D02*
X137781905Y-100178628D01*
X139210476Y-99654819D02*
X139020000Y-99654819D01*
X139020000Y-99654819D02*
X138924762Y-99702438D01*
X138924762Y-99702438D02*
X138877143Y-99750057D01*
X138877143Y-99750057D02*
X138781905Y-99892914D01*
X138781905Y-99892914D02*
X138734286Y-100083390D01*
X138734286Y-100083390D02*
X138734286Y-100464342D01*
X138734286Y-100464342D02*
X138781905Y-100559580D01*
X138781905Y-100559580D02*
X138829524Y-100607200D01*
X138829524Y-100607200D02*
X138924762Y-100654819D01*
X138924762Y-100654819D02*
X139115238Y-100654819D01*
X139115238Y-100654819D02*
X139210476Y-100607200D01*
X139210476Y-100607200D02*
X139258095Y-100559580D01*
X139258095Y-100559580D02*
X139305714Y-100464342D01*
X139305714Y-100464342D02*
X139305714Y-100226247D01*
X139305714Y-100226247D02*
X139258095Y-100131009D01*
X139258095Y-100131009D02*
X139210476Y-100083390D01*
X139210476Y-100083390D02*
X139115238Y-100035771D01*
X139115238Y-100035771D02*
X138924762Y-100035771D01*
X138924762Y-100035771D02*
X138829524Y-100083390D01*
X138829524Y-100083390D02*
X138781905Y-100131009D01*
X138781905Y-100131009D02*
X138734286Y-100226247D01*
X133038095Y-99634819D02*
X133038095Y-100444342D01*
X133038095Y-100444342D02*
X133085714Y-100539580D01*
X133085714Y-100539580D02*
X133133333Y-100587200D01*
X133133333Y-100587200D02*
X133228571Y-100634819D01*
X133228571Y-100634819D02*
X133419047Y-100634819D01*
X133419047Y-100634819D02*
X133514285Y-100587200D01*
X133514285Y-100587200D02*
X133561904Y-100539580D01*
X133561904Y-100539580D02*
X133609523Y-100444342D01*
X133609523Y-100444342D02*
X133609523Y-99634819D01*
X134609523Y-100634819D02*
X134038095Y-100634819D01*
X134323809Y-100634819D02*
X134323809Y-99634819D01*
X134323809Y-99634819D02*
X134228571Y-99777676D01*
X134228571Y-99777676D02*
X134133333Y-99872914D01*
X134133333Y-99872914D02*
X134038095Y-99920533D01*
X138278333Y-108254819D02*
X137945000Y-107778628D01*
X137706905Y-108254819D02*
X137706905Y-107254819D01*
X137706905Y-107254819D02*
X138087857Y-107254819D01*
X138087857Y-107254819D02*
X138183095Y-107302438D01*
X138183095Y-107302438D02*
X138230714Y-107350057D01*
X138230714Y-107350057D02*
X138278333Y-107445295D01*
X138278333Y-107445295D02*
X138278333Y-107588152D01*
X138278333Y-107588152D02*
X138230714Y-107683390D01*
X138230714Y-107683390D02*
X138183095Y-107731009D01*
X138183095Y-107731009D02*
X138087857Y-107778628D01*
X138087857Y-107778628D02*
X137706905Y-107778628D01*
X139135476Y-107588152D02*
X139135476Y-108254819D01*
X138897381Y-107207200D02*
X138659286Y-107921485D01*
X138659286Y-107921485D02*
X139278333Y-107921485D01*
X142881666Y-97304819D02*
X142881666Y-98019104D01*
X142881666Y-98019104D02*
X142834047Y-98161961D01*
X142834047Y-98161961D02*
X142738809Y-98257200D01*
X142738809Y-98257200D02*
X142595952Y-98304819D01*
X142595952Y-98304819D02*
X142500714Y-98304819D01*
X143310238Y-97400057D02*
X143357857Y-97352438D01*
X143357857Y-97352438D02*
X143453095Y-97304819D01*
X143453095Y-97304819D02*
X143691190Y-97304819D01*
X143691190Y-97304819D02*
X143786428Y-97352438D01*
X143786428Y-97352438D02*
X143834047Y-97400057D01*
X143834047Y-97400057D02*
X143881666Y-97495295D01*
X143881666Y-97495295D02*
X143881666Y-97590533D01*
X143881666Y-97590533D02*
X143834047Y-97733390D01*
X143834047Y-97733390D02*
X143262619Y-98304819D01*
X143262619Y-98304819D02*
X143881666Y-98304819D01*
X127154819Y-99886666D02*
X126678628Y-100219999D01*
X127154819Y-100458094D02*
X126154819Y-100458094D01*
X126154819Y-100458094D02*
X126154819Y-100077142D01*
X126154819Y-100077142D02*
X126202438Y-99981904D01*
X126202438Y-99981904D02*
X126250057Y-99934285D01*
X126250057Y-99934285D02*
X126345295Y-99886666D01*
X126345295Y-99886666D02*
X126488152Y-99886666D01*
X126488152Y-99886666D02*
X126583390Y-99934285D01*
X126583390Y-99934285D02*
X126631009Y-99981904D01*
X126631009Y-99981904D02*
X126678628Y-100077142D01*
X126678628Y-100077142D02*
X126678628Y-100458094D01*
X126250057Y-99505713D02*
X126202438Y-99458094D01*
X126202438Y-99458094D02*
X126154819Y-99362856D01*
X126154819Y-99362856D02*
X126154819Y-99124761D01*
X126154819Y-99124761D02*
X126202438Y-99029523D01*
X126202438Y-99029523D02*
X126250057Y-98981904D01*
X126250057Y-98981904D02*
X126345295Y-98934285D01*
X126345295Y-98934285D02*
X126440533Y-98934285D01*
X126440533Y-98934285D02*
X126583390Y-98981904D01*
X126583390Y-98981904D02*
X127154819Y-99553332D01*
X127154819Y-99553332D02*
X127154819Y-98934285D01*
X126509580Y-104266666D02*
X126557200Y-104314285D01*
X126557200Y-104314285D02*
X126604819Y-104457142D01*
X126604819Y-104457142D02*
X126604819Y-104552380D01*
X126604819Y-104552380D02*
X126557200Y-104695237D01*
X126557200Y-104695237D02*
X126461961Y-104790475D01*
X126461961Y-104790475D02*
X126366723Y-104838094D01*
X126366723Y-104838094D02*
X126176247Y-104885713D01*
X126176247Y-104885713D02*
X126033390Y-104885713D01*
X126033390Y-104885713D02*
X125842914Y-104838094D01*
X125842914Y-104838094D02*
X125747676Y-104790475D01*
X125747676Y-104790475D02*
X125652438Y-104695237D01*
X125652438Y-104695237D02*
X125604819Y-104552380D01*
X125604819Y-104552380D02*
X125604819Y-104457142D01*
X125604819Y-104457142D02*
X125652438Y-104314285D01*
X125652438Y-104314285D02*
X125700057Y-104266666D01*
X126604819Y-103314285D02*
X126604819Y-103885713D01*
X126604819Y-103599999D02*
X125604819Y-103599999D01*
X125604819Y-103599999D02*
X125747676Y-103695237D01*
X125747676Y-103695237D02*
X125842914Y-103790475D01*
X125842914Y-103790475D02*
X125890533Y-103885713D01*
X125654819Y-99866666D02*
X125178628Y-100199999D01*
X125654819Y-100438094D02*
X124654819Y-100438094D01*
X124654819Y-100438094D02*
X124654819Y-100057142D01*
X124654819Y-100057142D02*
X124702438Y-99961904D01*
X124702438Y-99961904D02*
X124750057Y-99914285D01*
X124750057Y-99914285D02*
X124845295Y-99866666D01*
X124845295Y-99866666D02*
X124988152Y-99866666D01*
X124988152Y-99866666D02*
X125083390Y-99914285D01*
X125083390Y-99914285D02*
X125131009Y-99961904D01*
X125131009Y-99961904D02*
X125178628Y-100057142D01*
X125178628Y-100057142D02*
X125178628Y-100438094D01*
X125654819Y-98914285D02*
X125654819Y-99485713D01*
X125654819Y-99199999D02*
X124654819Y-99199999D01*
X124654819Y-99199999D02*
X124797676Y-99295237D01*
X124797676Y-99295237D02*
X124892914Y-99390475D01*
X124892914Y-99390475D02*
X124940533Y-99485713D01*
X122739819Y-104583333D02*
X123454104Y-104583333D01*
X123454104Y-104583333D02*
X123596961Y-104630952D01*
X123596961Y-104630952D02*
X123692200Y-104726190D01*
X123692200Y-104726190D02*
X123739819Y-104869047D01*
X123739819Y-104869047D02*
X123739819Y-104964285D01*
X123739819Y-103583333D02*
X123739819Y-104154761D01*
X123739819Y-103869047D02*
X122739819Y-103869047D01*
X122739819Y-103869047D02*
X122882676Y-103964285D01*
X122882676Y-103964285D02*
X122977914Y-104059523D01*
X122977914Y-104059523D02*
X123025533Y-104154761D01*
D12*
X130197078Y-106702190D02*
X129877078Y-106702190D01*
X129877078Y-106702190D02*
X129877078Y-106626000D01*
X129877078Y-106626000D02*
X129892316Y-106580285D01*
X129892316Y-106580285D02*
X129922792Y-106549809D01*
X129922792Y-106549809D02*
X129953268Y-106534571D01*
X129953268Y-106534571D02*
X130014220Y-106519333D01*
X130014220Y-106519333D02*
X130059935Y-106519333D01*
X130059935Y-106519333D02*
X130120887Y-106534571D01*
X130120887Y-106534571D02*
X130151363Y-106549809D01*
X130151363Y-106549809D02*
X130181840Y-106580285D01*
X130181840Y-106580285D02*
X130197078Y-106626000D01*
X130197078Y-106626000D02*
X130197078Y-106702190D01*
X129983744Y-106245047D02*
X130197078Y-106245047D01*
X129861840Y-106321238D02*
X130090411Y-106397428D01*
X130090411Y-106397428D02*
X130090411Y-106199333D01*
D13*
X138278333Y-106154819D02*
X137945000Y-105678628D01*
X137706905Y-106154819D02*
X137706905Y-105154819D01*
X137706905Y-105154819D02*
X138087857Y-105154819D01*
X138087857Y-105154819D02*
X138183095Y-105202438D01*
X138183095Y-105202438D02*
X138230714Y-105250057D01*
X138230714Y-105250057D02*
X138278333Y-105345295D01*
X138278333Y-105345295D02*
X138278333Y-105488152D01*
X138278333Y-105488152D02*
X138230714Y-105583390D01*
X138230714Y-105583390D02*
X138183095Y-105631009D01*
X138183095Y-105631009D02*
X138087857Y-105678628D01*
X138087857Y-105678628D02*
X137706905Y-105678628D01*
X138611667Y-105154819D02*
X139278333Y-105154819D01*
X139278333Y-105154819D02*
X138849762Y-106154819D01*
X138333333Y-110554819D02*
X138000000Y-110078628D01*
X137761905Y-110554819D02*
X137761905Y-109554819D01*
X137761905Y-109554819D02*
X138142857Y-109554819D01*
X138142857Y-109554819D02*
X138238095Y-109602438D01*
X138238095Y-109602438D02*
X138285714Y-109650057D01*
X138285714Y-109650057D02*
X138333333Y-109745295D01*
X138333333Y-109745295D02*
X138333333Y-109888152D01*
X138333333Y-109888152D02*
X138285714Y-109983390D01*
X138285714Y-109983390D02*
X138238095Y-110031009D01*
X138238095Y-110031009D02*
X138142857Y-110078628D01*
X138142857Y-110078628D02*
X137761905Y-110078628D01*
X139238095Y-109554819D02*
X138761905Y-109554819D01*
X138761905Y-109554819D02*
X138714286Y-110031009D01*
X138714286Y-110031009D02*
X138761905Y-109983390D01*
X138761905Y-109983390D02*
X138857143Y-109935771D01*
X138857143Y-109935771D02*
X139095238Y-109935771D01*
X139095238Y-109935771D02*
X139190476Y-109983390D01*
X139190476Y-109983390D02*
X139238095Y-110031009D01*
X139238095Y-110031009D02*
X139285714Y-110126247D01*
X139285714Y-110126247D02*
X139285714Y-110364342D01*
X139285714Y-110364342D02*
X139238095Y-110459580D01*
X139238095Y-110459580D02*
X139190476Y-110507200D01*
X139190476Y-110507200D02*
X139095238Y-110554819D01*
X139095238Y-110554819D02*
X138857143Y-110554819D01*
X138857143Y-110554819D02*
X138761905Y-110507200D01*
X138761905Y-110507200D02*
X138714286Y-110459580D01*
D12*
X124643878Y-106783690D02*
X124323878Y-106783690D01*
X124323878Y-106783690D02*
X124323878Y-106707500D01*
X124323878Y-106707500D02*
X124339116Y-106661785D01*
X124339116Y-106661785D02*
X124369592Y-106631309D01*
X124369592Y-106631309D02*
X124400068Y-106616071D01*
X124400068Y-106616071D02*
X124461020Y-106600833D01*
X124461020Y-106600833D02*
X124506735Y-106600833D01*
X124506735Y-106600833D02*
X124567687Y-106616071D01*
X124567687Y-106616071D02*
X124598163Y-106631309D01*
X124598163Y-106631309D02*
X124628640Y-106661785D01*
X124628640Y-106661785D02*
X124643878Y-106707500D01*
X124643878Y-106707500D02*
X124643878Y-106783690D01*
X124323878Y-106311309D02*
X124323878Y-106463690D01*
X124323878Y-106463690D02*
X124476259Y-106478928D01*
X124476259Y-106478928D02*
X124461020Y-106463690D01*
X124461020Y-106463690D02*
X124445782Y-106433214D01*
X124445782Y-106433214D02*
X124445782Y-106357023D01*
X124445782Y-106357023D02*
X124461020Y-106326547D01*
X124461020Y-106326547D02*
X124476259Y-106311309D01*
X124476259Y-106311309D02*
X124506735Y-106296071D01*
X124506735Y-106296071D02*
X124582925Y-106296071D01*
X124582925Y-106296071D02*
X124613401Y-106311309D01*
X124613401Y-106311309D02*
X124628640Y-106326547D01*
X124628640Y-106326547D02*
X124643878Y-106357023D01*
X124643878Y-106357023D02*
X124643878Y-106433214D01*
X124643878Y-106433214D02*
X124628640Y-106463690D01*
X124628640Y-106463690D02*
X124613401Y-106478928D01*
D13*
X133233333Y-108354819D02*
X132900000Y-107878628D01*
X132661905Y-108354819D02*
X132661905Y-107354819D01*
X132661905Y-107354819D02*
X133042857Y-107354819D01*
X133042857Y-107354819D02*
X133138095Y-107402438D01*
X133138095Y-107402438D02*
X133185714Y-107450057D01*
X133185714Y-107450057D02*
X133233333Y-107545295D01*
X133233333Y-107545295D02*
X133233333Y-107688152D01*
X133233333Y-107688152D02*
X133185714Y-107783390D01*
X133185714Y-107783390D02*
X133138095Y-107831009D01*
X133138095Y-107831009D02*
X133042857Y-107878628D01*
X133042857Y-107878628D02*
X132661905Y-107878628D01*
X133566667Y-107354819D02*
X134185714Y-107354819D01*
X134185714Y-107354819D02*
X133852381Y-107735771D01*
X133852381Y-107735771D02*
X133995238Y-107735771D01*
X133995238Y-107735771D02*
X134090476Y-107783390D01*
X134090476Y-107783390D02*
X134138095Y-107831009D01*
X134138095Y-107831009D02*
X134185714Y-107926247D01*
X134185714Y-107926247D02*
X134185714Y-108164342D01*
X134185714Y-108164342D02*
X134138095Y-108259580D01*
X134138095Y-108259580D02*
X134090476Y-108307200D01*
X134090476Y-108307200D02*
X133995238Y-108354819D01*
X133995238Y-108354819D02*
X133709524Y-108354819D01*
X133709524Y-108354819D02*
X133614286Y-108307200D01*
X133614286Y-108307200D02*
X133566667Y-108259580D01*
X129759580Y-99886666D02*
X129807200Y-99934285D01*
X129807200Y-99934285D02*
X129854819Y-100077142D01*
X129854819Y-100077142D02*
X129854819Y-100172380D01*
X129854819Y-100172380D02*
X129807200Y-100315237D01*
X129807200Y-100315237D02*
X129711961Y-100410475D01*
X129711961Y-100410475D02*
X129616723Y-100458094D01*
X129616723Y-100458094D02*
X129426247Y-100505713D01*
X129426247Y-100505713D02*
X129283390Y-100505713D01*
X129283390Y-100505713D02*
X129092914Y-100458094D01*
X129092914Y-100458094D02*
X128997676Y-100410475D01*
X128997676Y-100410475D02*
X128902438Y-100315237D01*
X128902438Y-100315237D02*
X128854819Y-100172380D01*
X128854819Y-100172380D02*
X128854819Y-100077142D01*
X128854819Y-100077142D02*
X128902438Y-99934285D01*
X128902438Y-99934285D02*
X128950057Y-99886666D01*
X128854819Y-99553332D02*
X128854819Y-98934285D01*
X128854819Y-98934285D02*
X129235771Y-99267618D01*
X129235771Y-99267618D02*
X129235771Y-99124761D01*
X129235771Y-99124761D02*
X129283390Y-99029523D01*
X129283390Y-99029523D02*
X129331009Y-98981904D01*
X129331009Y-98981904D02*
X129426247Y-98934285D01*
X129426247Y-98934285D02*
X129664342Y-98934285D01*
X129664342Y-98934285D02*
X129759580Y-98981904D01*
X129759580Y-98981904D02*
X129807200Y-99029523D01*
X129807200Y-99029523D02*
X129854819Y-99124761D01*
X129854819Y-99124761D02*
X129854819Y-99410475D01*
X129854819Y-99410475D02*
X129807200Y-99505713D01*
X129807200Y-99505713D02*
X129759580Y-99553332D01*
X128459580Y-99866666D02*
X128507200Y-99914285D01*
X128507200Y-99914285D02*
X128554819Y-100057142D01*
X128554819Y-100057142D02*
X128554819Y-100152380D01*
X128554819Y-100152380D02*
X128507200Y-100295237D01*
X128507200Y-100295237D02*
X128411961Y-100390475D01*
X128411961Y-100390475D02*
X128316723Y-100438094D01*
X128316723Y-100438094D02*
X128126247Y-100485713D01*
X128126247Y-100485713D02*
X127983390Y-100485713D01*
X127983390Y-100485713D02*
X127792914Y-100438094D01*
X127792914Y-100438094D02*
X127697676Y-100390475D01*
X127697676Y-100390475D02*
X127602438Y-100295237D01*
X127602438Y-100295237D02*
X127554819Y-100152380D01*
X127554819Y-100152380D02*
X127554819Y-100057142D01*
X127554819Y-100057142D02*
X127602438Y-99914285D01*
X127602438Y-99914285D02*
X127650057Y-99866666D01*
X127888152Y-99009523D02*
X128554819Y-99009523D01*
X127507200Y-99247618D02*
X128221485Y-99485713D01*
X128221485Y-99485713D02*
X128221485Y-98866666D01*
X137761905Y-98454819D02*
X137761905Y-97454819D01*
X137761905Y-97454819D02*
X138000000Y-97454819D01*
X138000000Y-97454819D02*
X138142857Y-97502438D01*
X138142857Y-97502438D02*
X138238095Y-97597676D01*
X138238095Y-97597676D02*
X138285714Y-97692914D01*
X138285714Y-97692914D02*
X138333333Y-97883390D01*
X138333333Y-97883390D02*
X138333333Y-98026247D01*
X138333333Y-98026247D02*
X138285714Y-98216723D01*
X138285714Y-98216723D02*
X138238095Y-98311961D01*
X138238095Y-98311961D02*
X138142857Y-98407200D01*
X138142857Y-98407200D02*
X138000000Y-98454819D01*
X138000000Y-98454819D02*
X137761905Y-98454819D01*
X139285714Y-98454819D02*
X138714286Y-98454819D01*
X139000000Y-98454819D02*
X139000000Y-97454819D01*
X139000000Y-97454819D02*
X138904762Y-97597676D01*
X138904762Y-97597676D02*
X138809524Y-97692914D01*
X138809524Y-97692914D02*
X138714286Y-97740533D01*
X132059580Y-98266666D02*
X132107200Y-98314285D01*
X132107200Y-98314285D02*
X132154819Y-98457142D01*
X132154819Y-98457142D02*
X132154819Y-98552380D01*
X132154819Y-98552380D02*
X132107200Y-98695237D01*
X132107200Y-98695237D02*
X132011961Y-98790475D01*
X132011961Y-98790475D02*
X131916723Y-98838094D01*
X131916723Y-98838094D02*
X131726247Y-98885713D01*
X131726247Y-98885713D02*
X131583390Y-98885713D01*
X131583390Y-98885713D02*
X131392914Y-98838094D01*
X131392914Y-98838094D02*
X131297676Y-98790475D01*
X131297676Y-98790475D02*
X131202438Y-98695237D01*
X131202438Y-98695237D02*
X131154819Y-98552380D01*
X131154819Y-98552380D02*
X131154819Y-98457142D01*
X131154819Y-98457142D02*
X131202438Y-98314285D01*
X131202438Y-98314285D02*
X131250057Y-98266666D01*
X131250057Y-97885713D02*
X131202438Y-97838094D01*
X131202438Y-97838094D02*
X131154819Y-97742856D01*
X131154819Y-97742856D02*
X131154819Y-97504761D01*
X131154819Y-97504761D02*
X131202438Y-97409523D01*
X131202438Y-97409523D02*
X131250057Y-97361904D01*
X131250057Y-97361904D02*
X131345295Y-97314285D01*
X131345295Y-97314285D02*
X131440533Y-97314285D01*
X131440533Y-97314285D02*
X131583390Y-97361904D01*
X131583390Y-97361904D02*
X132154819Y-97933332D01*
X132154819Y-97933332D02*
X132154819Y-97314285D01*
D10*
X137635000Y-102200000D02*
G75*
G02*
X137535000Y-102200000I-50000J0D01*
G01*
X137535000Y-102200000D02*
G75*
G02*
X137635000Y-102200000I50000J0D01*
G01*
D14*
X126980000Y-107160000D02*
X126980000Y-105960000D01*
X128020000Y-105960000D02*
X128020000Y-107160000D01*
D15*
X127600000Y-108060000D02*
G75*
G02*
X127400000Y-108060000I-100000J0D01*
G01*
X127400000Y-108060000D02*
G75*
G02*
X127600000Y-108060000I100000J0D01*
G01*
D16*
X131190000Y-102095000D02*
X131190000Y-101610000D01*
X131190000Y-106590000D02*
X131190000Y-105865000D01*
X131915000Y-101370000D02*
X131490000Y-101370000D01*
X131915000Y-106590000D02*
X131190000Y-106590000D01*
X135685000Y-101370000D02*
X136410000Y-101370000D01*
X135685000Y-106590000D02*
X136410000Y-106590000D01*
X136410000Y-101370000D02*
X136410000Y-102095000D01*
X136410000Y-106590000D02*
X136410000Y-105865000D01*
X131190000Y-101370000D02*
X130950000Y-101040000D01*
X131430000Y-101040000D01*
X131190000Y-101370000D01*
G36*
X131190000Y-101370000D02*
G01*
X130950000Y-101040000D01*
X131430000Y-101040000D01*
X131190000Y-101370000D01*
G37*
X141945000Y-97850000D02*
X143215000Y-97850000D01*
X141945000Y-99120000D02*
X141945000Y-97850000D01*
X144292358Y-101230000D02*
X144605000Y-101230000D01*
X144292358Y-102090000D02*
X144605000Y-102090000D01*
X144292358Y-103770000D02*
X144605000Y-103770000D01*
X144292358Y-104630000D02*
X144605000Y-104630000D01*
X144292358Y-106310000D02*
X144605000Y-106310000D01*
X144292358Y-107170000D02*
X144605000Y-107170000D01*
X144292358Y-108850000D02*
X144605000Y-108850000D01*
X144292358Y-109710000D02*
X144605000Y-109710000D01*
X144375000Y-98690000D02*
X144605000Y-98690000D01*
X144375000Y-99550000D02*
X144605000Y-99550000D01*
X144605000Y-97740000D02*
X144605000Y-110660000D01*
X144605000Y-100390000D02*
X147365000Y-100390000D01*
X144605000Y-102930000D02*
X147365000Y-102930000D01*
X144605000Y-105470000D02*
X147365000Y-105470000D01*
X144605000Y-108010000D02*
X147365000Y-108010000D01*
X144605000Y-110660000D02*
X147365000Y-110660000D01*
X147365000Y-97740000D02*
X144605000Y-97740000D01*
X147365000Y-101230000D02*
X153365000Y-101230000D01*
X147365000Y-103770000D02*
X153365000Y-103770000D01*
X147365000Y-106310000D02*
X153365000Y-106310000D01*
X147365000Y-108850000D02*
X153365000Y-108850000D01*
X147365000Y-110660000D02*
X147365000Y-97740000D01*
X153365000Y-101230000D02*
X153365000Y-102090000D01*
X153365000Y-102090000D02*
X147365000Y-102090000D01*
X153365000Y-103770000D02*
X153365000Y-104630000D01*
X153365000Y-104630000D02*
X147365000Y-104630000D01*
X153365000Y-106310000D02*
X153365000Y-107170000D01*
X153365000Y-107170000D02*
X147365000Y-107170000D01*
X153365000Y-108850000D02*
X153365000Y-109710000D01*
X153365000Y-109710000D02*
X147365000Y-109710000D01*
X147365000Y-98690000D02*
X153365000Y-98690000D01*
X153365000Y-99550000D01*
X147365000Y-99550000D01*
X147365000Y-98690000D01*
G36*
X147365000Y-98690000D02*
G01*
X153365000Y-98690000D01*
X153365000Y-99550000D01*
X147365000Y-99550000D01*
X147365000Y-98690000D01*
G37*
X113740000Y-99550000D02*
X113740000Y-108950000D01*
X115640000Y-99550000D02*
X113740000Y-99550000D01*
X115640000Y-108950000D02*
X113740000Y-108950000D01*
X119540000Y-99550000D02*
X117540000Y-99550000D01*
X119540000Y-108950000D02*
X117540000Y-108950000D01*
D14*
X128580000Y-107200000D02*
X128580000Y-106000000D01*
X129620000Y-106000000D02*
X129620000Y-107200000D01*
D15*
X129200000Y-105100000D02*
G75*
G02*
X129000000Y-105100000I-100000J0D01*
G01*
X129000000Y-105100000D02*
G75*
G02*
X129200000Y-105100000I100000J0D01*
G01*
D14*
X124880000Y-107147500D02*
X124880000Y-105947500D01*
X125920000Y-105947500D02*
X125920000Y-107147500D01*
D15*
X125500000Y-105047500D02*
G75*
G02*
X125300000Y-105047500I-100000J0D01*
G01*
X125300000Y-105047500D02*
G75*
G02*
X125500000Y-105047500I100000J0D01*
G01*
D10*
X137635000Y-99100000D02*
G75*
G02*
X137535000Y-99100000I-50000J0D01*
G01*
X137535000Y-99100000D02*
G75*
G02*
X137635000Y-99100000I50000J0D01*
G01*
%LPC*%
D17*
X138125000Y-102200000D03*
X138765000Y-102200000D03*
D18*
X127500000Y-107220000D03*
X127500000Y-105900000D03*
D19*
X138840000Y-101200000D03*
X138200000Y-101200000D03*
D20*
X131350000Y-102480000D03*
X131350000Y-102980000D03*
X131350000Y-103480000D03*
X131350000Y-103980000D03*
X131350000Y-104480000D03*
X131350000Y-104980000D03*
X131350000Y-105480000D03*
D21*
X132300000Y-106430000D03*
X132800000Y-106430000D03*
X133300000Y-106430000D03*
X133800000Y-106430000D03*
X134300000Y-106430000D03*
X134800000Y-106430000D03*
X135300000Y-106430000D03*
D20*
X136250000Y-105480000D03*
X136250000Y-104980000D03*
X136250000Y-104480000D03*
X136250000Y-103980000D03*
X136250000Y-103480000D03*
X136250000Y-102980000D03*
X136250000Y-102480000D03*
D21*
X135300000Y-101530000D03*
X134800000Y-101530000D03*
X134300000Y-101530000D03*
X133800000Y-101530000D03*
X133300000Y-101530000D03*
X132800000Y-101530000D03*
X132300000Y-101530000D03*
D22*
X133800000Y-103980000D03*
D19*
X138765000Y-106600000D03*
X138125000Y-106600000D03*
D23*
X143215000Y-99120000D03*
D24*
X143215000Y-101660000D03*
X143215000Y-104200000D03*
X143215000Y-106740000D03*
X143215000Y-109280000D03*
D25*
X126700000Y-101920000D03*
X126700000Y-101280000D03*
X127200000Y-104420000D03*
X127200000Y-103780000D03*
X125200000Y-101900000D03*
X125200000Y-101260000D03*
D26*
X120240000Y-101360000D03*
X120240000Y-107140000D03*
D27*
X121685000Y-101000000D03*
X121685000Y-101800000D03*
D28*
X121685000Y-103000000D03*
X121685000Y-104000000D03*
X121685000Y-104500000D03*
X121685000Y-105500000D03*
D27*
X121685000Y-106700000D03*
X121685000Y-107500000D03*
X121685000Y-107500000D03*
X121685000Y-106700000D03*
D28*
X121685000Y-106000000D03*
X121685000Y-105000000D03*
X121685000Y-103500000D03*
X121685000Y-102500000D03*
D27*
X121685000Y-101800000D03*
X121685000Y-101000000D03*
D29*
X120770000Y-99930000D03*
D30*
X116590000Y-99930000D03*
D29*
X120770000Y-108570000D03*
D30*
X116590000Y-108570000D03*
D31*
X129100000Y-105940000D03*
X129100000Y-107260000D03*
D19*
X138775000Y-104600000D03*
X138135000Y-104600000D03*
X138765000Y-108900000D03*
X138125000Y-108900000D03*
D31*
X125400000Y-105887500D03*
X125400000Y-107207500D03*
D17*
X131080000Y-107900000D03*
X131720000Y-107900000D03*
D25*
X129400000Y-101920000D03*
X129400000Y-101280000D03*
X128100000Y-101900000D03*
X128100000Y-101260000D03*
D17*
X138125000Y-99100000D03*
X138765000Y-99100000D03*
D25*
X131600000Y-99920000D03*
X131600000Y-99280000D03*
%LPD*%
M02*
