G04 #@! TF.GenerationSoftware,KiCad,Pcbnew,9.0.1*
G04 #@! TF.CreationDate,2025-08-21T17:20:25+05:00*
G04 #@! TF.ProjectId,usb_to_uart,7573625f-746f-45f7-9561-72742e6b6963,rev?*
G04 #@! TF.SameCoordinates,Original*
G04 #@! TF.FileFunction,Paste,Top*
G04 #@! TF.FilePolarity,Positive*
%FSLAX46Y46*%
G04 Gerber Fmt 4.6, Leading zero omitted, Abs format (unit mm)*
G04 Created by KiCad (PCBNEW 9.0.1) date 2025-08-21 17:20:25*
%MOMM*%
%LPD*%
G01*
G04 APERTURE LIST*
G04 Aperture macros list*
%AMRoundRect*
0 Rectangle with rounded corners*
0 $1 Rounding radius*
0 $2 $3 $4 $5 $6 $7 $8 $9 X,Y pos of 4 corners*
0 Add a 4 corners polygon primitive as box body*
4,1,4,$2,$3,$4,$5,$6,$7,$8,$9,$2,$3,0*
0 Add four circle primitives for the rounded corners*
1,1,$1+$1,$2,$3*
1,1,$1+$1,$4,$5*
1,1,$1+$1,$6,$7*
1,1,$1+$1,$8,$9*
0 Add four rect primitives between the rounded corners*
20,1,$1+$1,$2,$3,$4,$5,0*
20,1,$1+$1,$4,$5,$6,$7,0*
20,1,$1+$1,$6,$7,$8,$9,0*
20,1,$1+$1,$8,$9,$2,$3,0*%
G04 Aperture macros list end*
%ADD10RoundRect,0.079500X-0.079500X-0.100500X0.079500X-0.100500X0.079500X0.100500X-0.079500X0.100500X0*%
%ADD11R,0.400000X0.480000*%
%ADD12RoundRect,0.079500X0.079500X0.100500X-0.079500X0.100500X-0.079500X-0.100500X0.079500X-0.100500X0*%
%ADD13RoundRect,0.225000X-0.225000X-0.225000X0.225000X-0.225000X0.225000X0.225000X-0.225000X0.225000X0*%
%ADD14RoundRect,0.062500X-0.337500X-0.062500X0.337500X-0.062500X0.337500X0.062500X-0.337500X0.062500X0*%
%ADD15RoundRect,0.062500X-0.062500X-0.337500X0.062500X-0.337500X0.062500X0.337500X-0.062500X0.337500X0*%
%ADD16RoundRect,0.079500X0.100500X-0.079500X0.100500X0.079500X-0.100500X0.079500X-0.100500X-0.079500X0*%
%ADD17R,1.450000X0.600000*%
%ADD18R,1.450000X0.300000*%
G04 APERTURE END LIST*
D10*
X138100000Y-102200000D03*
X138790000Y-102200000D03*
D11*
X127500000Y-107220000D03*
X127500000Y-105900000D03*
D12*
X138865000Y-101200000D03*
X138175000Y-101200000D03*
D13*
X132680000Y-102860000D03*
X132680000Y-103980000D03*
X132680000Y-105100000D03*
X133800000Y-102860000D03*
X133800000Y-103980000D03*
X133800000Y-105100000D03*
X134920000Y-102860000D03*
X134920000Y-103980000D03*
X134920000Y-105100000D03*
D14*
X131350000Y-102480000D03*
X131350000Y-102980000D03*
X131350000Y-103480000D03*
X131350000Y-103980000D03*
X131350000Y-104480000D03*
X131350000Y-104980000D03*
X131350000Y-105480000D03*
D15*
X132300000Y-106430000D03*
X132800000Y-106430000D03*
X133300000Y-106430000D03*
X133800000Y-106430000D03*
X134300000Y-106430000D03*
X134800000Y-106430000D03*
X135300000Y-106430000D03*
D14*
X136250000Y-105480000D03*
X136250000Y-104980000D03*
X136250000Y-104480000D03*
X136250000Y-103980000D03*
X136250000Y-103480000D03*
X136250000Y-102980000D03*
X136250000Y-102480000D03*
D15*
X135300000Y-101530000D03*
X134800000Y-101530000D03*
X134300000Y-101530000D03*
X133800000Y-101530000D03*
X133300000Y-101530000D03*
X132800000Y-101530000D03*
X132300000Y-101530000D03*
D12*
X138790000Y-106600000D03*
X138100000Y-106600000D03*
D16*
X126700000Y-101945000D03*
X126700000Y-101255000D03*
X127200000Y-104445000D03*
X127200000Y-103755000D03*
X125200000Y-101925000D03*
X125200000Y-101235000D03*
D17*
X121685000Y-101000000D03*
X121685000Y-101800000D03*
D18*
X121685000Y-103000000D03*
X121685000Y-104000000D03*
X121685000Y-104500000D03*
X121685000Y-105500000D03*
D17*
X121685000Y-106700000D03*
X121685000Y-107500000D03*
X121685000Y-107500000D03*
X121685000Y-106700000D03*
D18*
X121685000Y-106000000D03*
X121685000Y-105000000D03*
X121685000Y-103500000D03*
X121685000Y-102500000D03*
D17*
X121685000Y-101800000D03*
X121685000Y-101000000D03*
D11*
X129100000Y-105940000D03*
X129100000Y-107260000D03*
D12*
X138800000Y-104600000D03*
X138110000Y-104600000D03*
X138790000Y-108900000D03*
X138100000Y-108900000D03*
D11*
X125400000Y-105887500D03*
X125400000Y-107207500D03*
D10*
X131055000Y-107900000D03*
X131745000Y-107900000D03*
D16*
X129400000Y-101945000D03*
X129400000Y-101255000D03*
X128100000Y-101925000D03*
X128100000Y-101235000D03*
D10*
X138100000Y-99100000D03*
X138790000Y-99100000D03*
D16*
X131600000Y-99945000D03*
X131600000Y-99255000D03*
M02*
