M48
; DRILL file {KiCad 9.0.1} date 2025-08-21T17:20:22+0500
; FORMAT={-:-/ absolute / metric / decimal}
; #@! TF.CreationDate,2025-08-21T17:20:22+05:00
; #@! TF.GenerationSoftware,Kicad,Pcbnew,9.0.1
; #@! TF.FileFunction,Plated,1,2,PTH
FMAT,2
METRIC
; #@! TA.AperFunction,Plated,PTH,ViaDrill
T1C0.300
; #@! TA.AperFunction,Plated,PTH,ComponentDrill
T2C0.600
; #@! TA.AperFunction,Plated,PTH,ComponentDrill
T3C1.000
%
G90
G05
T1
X118.396Y-104.241
X123.8Y-104.5
X124.8Y-103.5
X126.5Y-107.207
X126.9Y-105.6
X127.4Y-101.26
X127.9Y-104.5
X129.1Y-105.2
X129.4Y-102.6
X129.9Y-107.9
X130.7Y-107.1
X132.7Y-102.909
X132.7Y-103.4
X132.7Y-103.9
X132.7Y-104.42
X132.7Y-104.909
X133.3Y-102.9
X133.3Y-103.391
X133.3Y-103.891
X133.3Y-104.411
X133.3Y-104.9
X133.93Y-102.9
X133.93Y-103.391
X133.93Y-103.891
X133.93Y-104.411
X133.93Y-104.9
X134.5Y-102.889
X134.5Y-103.38
X134.5Y-103.88
X134.5Y-104.4
X134.5Y-104.889
X135.1Y-102.889
X135.1Y-103.38
X135.1Y-103.88
X135.1Y-104.4
X135.1Y-104.889
X136.05Y-99.25
X136.9Y-108.9
X137.25Y-99.25
X137.3Y-102.0
X139.2Y-107.8
T3
X143.215Y-99.12
X143.215Y-101.66
X143.215Y-104.2
X143.215Y-106.74
X143.215Y-109.28
T2
G00X116.89Y-99.93
M15
G01X116.29Y-99.93
M16
G05
G00X116.89Y-108.57
M15
G01X116.29Y-108.57
M16
G05
G00X121.32Y-99.93
M15
G01X120.22Y-99.93
M16
G05
G00X121.32Y-108.57
M15
G01X120.22Y-108.57
M16
G05
M30
