G04 #@! TF.GenerationSoftware,KiCad,Pcbnew,9.0.1*
G04 #@! TF.CreationDate,2025-08-21T17:20:26+05:00*
G04 #@! TF.ProjectId,usb_to_uart,7573625f-746f-45f7-9561-72742e6b6963,rev?*
G04 #@! TF.SameCoordinates,Original*
G04 #@! TF.FileFunction,Soldermask,Top*
G04 #@! TF.FilePolarity,Negative*
%FSLAX46Y46*%
G04 Gerber Fmt 4.6, Leading zero omitted, Abs format (unit mm)*
G04 Created by KiCad (PCBNEW 9.0.1) date 2025-08-21 17:20:26*
%MOMM*%
%LPD*%
G01*
G04 APERTURE LIST*
G04 Aperture macros list*
%AMRoundRect*
0 Rectangle with rounded corners*
0 $1 Rounding radius*
0 $2 $3 $4 $5 $6 $7 $8 $9 X,Y pos of 4 corners*
0 Add a 4 corners polygon primitive as box body*
4,1,4,$2,$3,$4,$5,$6,$7,$8,$9,$2,$3,0*
0 Add four circle primitives for the rounded corners*
1,1,$1+$1,$2,$3*
1,1,$1+$1,$4,$5*
1,1,$1+$1,$6,$7*
1,1,$1+$1,$8,$9*
0 Add four rect primitives between the rounded corners*
20,1,$1+$1,$2,$3,$4,$5,0*
20,1,$1+$1,$4,$5,$6,$7,0*
20,1,$1+$1,$6,$7,$8,$9,0*
20,1,$1+$1,$8,$9,$2,$3,0*%
G04 Aperture macros list end*
%ADD10RoundRect,0.100000X-0.130000X-0.100000X0.130000X-0.100000X0.130000X0.100000X-0.130000X0.100000X0*%
%ADD11RoundRect,0.102000X0.200000X-0.240000X0.200000X0.240000X-0.200000X0.240000X-0.200000X-0.240000X0*%
%ADD12RoundRect,0.100000X0.130000X0.100000X-0.130000X0.100000X-0.130000X-0.100000X0.130000X-0.100000X0*%
%ADD13RoundRect,0.062500X-0.337500X-0.062500X0.337500X-0.062500X0.337500X0.062500X-0.337500X0.062500X0*%
%ADD14RoundRect,0.062500X-0.062500X-0.337500X0.062500X-0.337500X0.062500X0.337500X-0.062500X0.337500X0*%
%ADD15R,3.350000X3.350000*%
%ADD16R,1.700000X1.700000*%
%ADD17C,1.700000*%
%ADD18RoundRect,0.100000X0.100000X-0.130000X0.100000X0.130000X-0.100000X0.130000X-0.100000X-0.130000X0*%
%ADD19C,0.650000*%
%ADD20R,1.450000X0.600000*%
%ADD21R,1.450000X0.300000*%
%ADD22O,2.100000X1.000000*%
%ADD23O,1.600000X1.000000*%
%ADD24RoundRect,0.102000X-0.200000X0.240000X-0.200000X-0.240000X0.200000X-0.240000X0.200000X0.240000X0*%
G04 APERTURE END LIST*
D10*
X138125000Y-102200000D03*
X138765000Y-102200000D03*
D11*
X127500000Y-107220000D03*
X127500000Y-105900000D03*
D12*
X138840000Y-101200000D03*
X138200000Y-101200000D03*
D13*
X131350000Y-102480000D03*
X131350000Y-102980000D03*
X131350000Y-103480000D03*
X131350000Y-103980000D03*
X131350000Y-104480000D03*
X131350000Y-104980000D03*
X131350000Y-105480000D03*
D14*
X132300000Y-106430000D03*
X132800000Y-106430000D03*
X133300000Y-106430000D03*
X133800000Y-106430000D03*
X134300000Y-106430000D03*
X134800000Y-106430000D03*
X135300000Y-106430000D03*
D13*
X136250000Y-105480000D03*
X136250000Y-104980000D03*
X136250000Y-104480000D03*
X136250000Y-103980000D03*
X136250000Y-103480000D03*
X136250000Y-102980000D03*
X136250000Y-102480000D03*
D14*
X135300000Y-101530000D03*
X134800000Y-101530000D03*
X134300000Y-101530000D03*
X133800000Y-101530000D03*
X133300000Y-101530000D03*
X132800000Y-101530000D03*
X132300000Y-101530000D03*
D15*
X133800000Y-103980000D03*
D12*
X138765000Y-106600000D03*
X138125000Y-106600000D03*
D16*
X143215000Y-99120000D03*
D17*
X143215000Y-101660000D03*
X143215000Y-104200000D03*
X143215000Y-106740000D03*
X143215000Y-109280000D03*
D18*
X126700000Y-101920000D03*
X126700000Y-101280000D03*
X127200000Y-104420000D03*
X127200000Y-103780000D03*
X125200000Y-101900000D03*
X125200000Y-101260000D03*
D19*
X120240000Y-101360000D03*
X120240000Y-107140000D03*
D20*
X121685000Y-101000000D03*
X121685000Y-101800000D03*
D21*
X121685000Y-103000000D03*
X121685000Y-104000000D03*
X121685000Y-104500000D03*
X121685000Y-105500000D03*
D20*
X121685000Y-106700000D03*
X121685000Y-107500000D03*
X121685000Y-107500000D03*
X121685000Y-106700000D03*
D21*
X121685000Y-106000000D03*
X121685000Y-105000000D03*
X121685000Y-103500000D03*
X121685000Y-102500000D03*
D20*
X121685000Y-101800000D03*
X121685000Y-101000000D03*
D22*
X120770000Y-99930000D03*
D23*
X116590000Y-99930000D03*
D22*
X120770000Y-108570000D03*
D23*
X116590000Y-108570000D03*
D24*
X129100000Y-105940000D03*
X129100000Y-107260000D03*
D12*
X138775000Y-104600000D03*
X138135000Y-104600000D03*
X138765000Y-108900000D03*
X138125000Y-108900000D03*
D24*
X125400000Y-105887500D03*
X125400000Y-107207500D03*
D10*
X131080000Y-107900000D03*
X131720000Y-107900000D03*
D18*
X129400000Y-101920000D03*
X129400000Y-101280000D03*
X128100000Y-101900000D03*
X128100000Y-101260000D03*
D10*
X138125000Y-99100000D03*
X138765000Y-99100000D03*
D18*
X131600000Y-99920000D03*
X131600000Y-99280000D03*
M02*
