G04 #@! TF.GenerationSoftware,KiCad,Pcbnew,9.0.1*
G04 #@! TF.CreationDate,2025-08-27T22:36:15+05:00*
G04 #@! TF.ProjectId,30A_home_automation_using_esp32,3330415f-686f-46d6-955f-6175746f6d61,rev?*
G04 #@! TF.SameCoordinates,Original*
G04 #@! TF.FileFunction,Legend,Bot*
G04 #@! TF.FilePolarity,Positive*
%FSLAX46Y46*%
G04 Gerber Fmt 4.6, Leading zero omitted, Abs format (unit mm)*
G04 Created by KiCad (PCBNEW 9.0.1) date 2025-08-27 22:36:15*
%MOMM*%
%LPD*%
G01*
G04 APERTURE LIST*
G04 Aperture macros list*
%AMRoundRect*
0 Rectangle with rounded corners*
0 $1 Rounding radius*
0 $2 $3 $4 $5 $6 $7 $8 $9 X,Y pos of 4 corners*
0 Add a 4 corners polygon primitive as box body*
4,1,4,$2,$3,$4,$5,$6,$7,$8,$9,$2,$3,0*
0 Add four circle primitives for the rounded corners*
1,1,$1+$1,$2,$3*
1,1,$1+$1,$4,$5*
1,1,$1+$1,$6,$7*
1,1,$1+$1,$8,$9*
0 Add four rect primitives between the rounded corners*
20,1,$1+$1,$2,$3,$4,$5,0*
20,1,$1+$1,$4,$5,$6,$7,0*
20,1,$1+$1,$6,$7,$8,$9,0*
20,1,$1+$1,$8,$9,$2,$3,0*%
G04 Aperture macros list end*
%ADD10C,0.300000*%
%ADD11C,0.800000*%
%ADD12C,5.400000*%
%ADD13R,3.000000X3.000000*%
%ADD14C,3.000000*%
%ADD15RoundRect,0.250000X0.550000X-0.550000X0.550000X0.550000X-0.550000X0.550000X-0.550000X-0.550000X0*%
%ADD16C,1.600000*%
%ADD17R,1.600000X1.600000*%
%ADD18O,1.600000X1.600000*%
%ADD19C,2.000000*%
%ADD20R,1.050000X1.500000*%
%ADD21O,1.050000X1.500000*%
%ADD22R,1.500000X1.050000*%
%ADD23O,1.500000X1.050000*%
%ADD24RoundRect,0.500000X-0.500000X-0.500000X0.500000X-0.500000X0.500000X0.500000X-0.500000X0.500000X0*%
%ADD25R,1.700000X1.700000*%
%ADD26C,1.700000*%
%ADD27R,1.700000X2.000000*%
%ADD28O,1.700000X2.000000*%
%ADD29C,2.154000*%
G04 APERTURE END LIST*
D10*
X88359775Y-81700828D02*
X88359775Y-80200828D01*
X87645489Y-81700828D02*
X87645489Y-80200828D01*
X87645489Y-80200828D02*
X86788346Y-81700828D01*
X86788346Y-81700828D02*
X86788346Y-80200828D01*
X85288345Y-81700828D02*
X86145488Y-81700828D01*
X85716917Y-81700828D02*
X85716917Y-80200828D01*
X85716917Y-80200828D02*
X85859774Y-80415114D01*
X85859774Y-80415114D02*
X86002631Y-80557971D01*
X86002631Y-80557971D02*
X86145488Y-80629400D01*
X90931203Y-62500828D02*
X91645489Y-62500828D01*
X91645489Y-62500828D02*
X91645489Y-61000828D01*
X90145488Y-61000828D02*
X89859774Y-61000828D01*
X89859774Y-61000828D02*
X89716917Y-61072257D01*
X89716917Y-61072257D02*
X89574060Y-61215114D01*
X89574060Y-61215114D02*
X89502631Y-61500828D01*
X89502631Y-61500828D02*
X89502631Y-62000828D01*
X89502631Y-62000828D02*
X89574060Y-62286542D01*
X89574060Y-62286542D02*
X89716917Y-62429400D01*
X89716917Y-62429400D02*
X89859774Y-62500828D01*
X89859774Y-62500828D02*
X90145488Y-62500828D01*
X90145488Y-62500828D02*
X90288346Y-62429400D01*
X90288346Y-62429400D02*
X90431203Y-62286542D01*
X90431203Y-62286542D02*
X90502631Y-62000828D01*
X90502631Y-62000828D02*
X90502631Y-61500828D01*
X90502631Y-61500828D02*
X90431203Y-61215114D01*
X90431203Y-61215114D02*
X90288346Y-61072257D01*
X90288346Y-61072257D02*
X90145488Y-61000828D01*
X88931202Y-62072257D02*
X88216917Y-62072257D01*
X89074059Y-62500828D02*
X88574059Y-61000828D01*
X88574059Y-61000828D02*
X88074059Y-62500828D01*
X87574060Y-62500828D02*
X87574060Y-61000828D01*
X87574060Y-61000828D02*
X87216917Y-61000828D01*
X87216917Y-61000828D02*
X87002631Y-61072257D01*
X87002631Y-61072257D02*
X86859774Y-61215114D01*
X86859774Y-61215114D02*
X86788345Y-61357971D01*
X86788345Y-61357971D02*
X86716917Y-61643685D01*
X86716917Y-61643685D02*
X86716917Y-61857971D01*
X86716917Y-61857971D02*
X86788345Y-62143685D01*
X86788345Y-62143685D02*
X86859774Y-62286542D01*
X86859774Y-62286542D02*
X87002631Y-62429400D01*
X87002631Y-62429400D02*
X87216917Y-62500828D01*
X87216917Y-62500828D02*
X87574060Y-62500828D01*
X85288345Y-62500828D02*
X86145488Y-62500828D01*
X85716917Y-62500828D02*
X85716917Y-61000828D01*
X85716917Y-61000828D02*
X85859774Y-61215114D01*
X85859774Y-61215114D02*
X86002631Y-61357971D01*
X86002631Y-61357971D02*
X86145488Y-61429400D01*
X88431203Y-74472257D02*
X88574061Y-74400828D01*
X88574061Y-74400828D02*
X88788346Y-74400828D01*
X88788346Y-74400828D02*
X89002632Y-74472257D01*
X89002632Y-74472257D02*
X89145489Y-74615114D01*
X89145489Y-74615114D02*
X89216918Y-74757971D01*
X89216918Y-74757971D02*
X89288346Y-75043685D01*
X89288346Y-75043685D02*
X89288346Y-75257971D01*
X89288346Y-75257971D02*
X89216918Y-75543685D01*
X89216918Y-75543685D02*
X89145489Y-75686542D01*
X89145489Y-75686542D02*
X89002632Y-75829400D01*
X89002632Y-75829400D02*
X88788346Y-75900828D01*
X88788346Y-75900828D02*
X88645489Y-75900828D01*
X88645489Y-75900828D02*
X88431203Y-75829400D01*
X88431203Y-75829400D02*
X88359775Y-75757971D01*
X88359775Y-75757971D02*
X88359775Y-75257971D01*
X88359775Y-75257971D02*
X88645489Y-75257971D01*
X87716918Y-75900828D02*
X87716918Y-74400828D01*
X87716918Y-74400828D02*
X86859775Y-75900828D01*
X86859775Y-75900828D02*
X86859775Y-74400828D01*
X86145489Y-75900828D02*
X86145489Y-74400828D01*
X86145489Y-74400828D02*
X85788346Y-74400828D01*
X85788346Y-74400828D02*
X85574060Y-74472257D01*
X85574060Y-74472257D02*
X85431203Y-74615114D01*
X85431203Y-74615114D02*
X85359774Y-74757971D01*
X85359774Y-74757971D02*
X85288346Y-75043685D01*
X85288346Y-75043685D02*
X85288346Y-75257971D01*
X85288346Y-75257971D02*
X85359774Y-75543685D01*
X85359774Y-75543685D02*
X85431203Y-75686542D01*
X85431203Y-75686542D02*
X85574060Y-75829400D01*
X85574060Y-75829400D02*
X85788346Y-75900828D01*
X85788346Y-75900828D02*
X86145489Y-75900828D01*
X91359775Y-52400828D02*
X91359775Y-50900828D01*
X91359775Y-50900828D02*
X90788346Y-50900828D01*
X90788346Y-50900828D02*
X90645489Y-50972257D01*
X90645489Y-50972257D02*
X90574060Y-51043685D01*
X90574060Y-51043685D02*
X90502632Y-51186542D01*
X90502632Y-51186542D02*
X90502632Y-51400828D01*
X90502632Y-51400828D02*
X90574060Y-51543685D01*
X90574060Y-51543685D02*
X90645489Y-51615114D01*
X90645489Y-51615114D02*
X90788346Y-51686542D01*
X90788346Y-51686542D02*
X91359775Y-51686542D01*
X89859775Y-52400828D02*
X89859775Y-50900828D01*
X89216918Y-52400828D02*
X89216918Y-51615114D01*
X89216918Y-51615114D02*
X89288346Y-51472257D01*
X89288346Y-51472257D02*
X89431203Y-51400828D01*
X89431203Y-51400828D02*
X89645489Y-51400828D01*
X89645489Y-51400828D02*
X89788346Y-51472257D01*
X89788346Y-51472257D02*
X89859775Y-51543685D01*
X87859775Y-52400828D02*
X87859775Y-51615114D01*
X87859775Y-51615114D02*
X87931203Y-51472257D01*
X87931203Y-51472257D02*
X88074060Y-51400828D01*
X88074060Y-51400828D02*
X88359775Y-51400828D01*
X88359775Y-51400828D02*
X88502632Y-51472257D01*
X87859775Y-52329400D02*
X88002632Y-52400828D01*
X88002632Y-52400828D02*
X88359775Y-52400828D01*
X88359775Y-52400828D02*
X88502632Y-52329400D01*
X88502632Y-52329400D02*
X88574060Y-52186542D01*
X88574060Y-52186542D02*
X88574060Y-52043685D01*
X88574060Y-52043685D02*
X88502632Y-51900828D01*
X88502632Y-51900828D02*
X88359775Y-51829400D01*
X88359775Y-51829400D02*
X88002632Y-51829400D01*
X88002632Y-51829400D02*
X87859775Y-51757971D01*
X87216917Y-52329400D02*
X87074060Y-52400828D01*
X87074060Y-52400828D02*
X86788346Y-52400828D01*
X86788346Y-52400828D02*
X86645489Y-52329400D01*
X86645489Y-52329400D02*
X86574060Y-52186542D01*
X86574060Y-52186542D02*
X86574060Y-52115114D01*
X86574060Y-52115114D02*
X86645489Y-51972257D01*
X86645489Y-51972257D02*
X86788346Y-51900828D01*
X86788346Y-51900828D02*
X87002632Y-51900828D01*
X87002632Y-51900828D02*
X87145489Y-51829400D01*
X87145489Y-51829400D02*
X87216917Y-51686542D01*
X87216917Y-51686542D02*
X87216917Y-51615114D01*
X87216917Y-51615114D02*
X87145489Y-51472257D01*
X87145489Y-51472257D02*
X87002632Y-51400828D01*
X87002632Y-51400828D02*
X86788346Y-51400828D01*
X86788346Y-51400828D02*
X86645489Y-51472257D01*
X85359774Y-52329400D02*
X85502631Y-52400828D01*
X85502631Y-52400828D02*
X85788346Y-52400828D01*
X85788346Y-52400828D02*
X85931203Y-52329400D01*
X85931203Y-52329400D02*
X86002631Y-52186542D01*
X86002631Y-52186542D02*
X86002631Y-51615114D01*
X86002631Y-51615114D02*
X85931203Y-51472257D01*
X85931203Y-51472257D02*
X85788346Y-51400828D01*
X85788346Y-51400828D02*
X85502631Y-51400828D01*
X85502631Y-51400828D02*
X85359774Y-51472257D01*
X85359774Y-51472257D02*
X85288346Y-51615114D01*
X85288346Y-51615114D02*
X85288346Y-51757971D01*
X85288346Y-51757971D02*
X86002631Y-51900828D01*
X92788346Y-57700828D02*
X92788346Y-56200828D01*
X92788346Y-56200828D02*
X91931203Y-57700828D01*
X91931203Y-57700828D02*
X91931203Y-56200828D01*
X90645488Y-57629400D02*
X90788345Y-57700828D01*
X90788345Y-57700828D02*
X91074060Y-57700828D01*
X91074060Y-57700828D02*
X91216917Y-57629400D01*
X91216917Y-57629400D02*
X91288345Y-57486542D01*
X91288345Y-57486542D02*
X91288345Y-56915114D01*
X91288345Y-56915114D02*
X91216917Y-56772257D01*
X91216917Y-56772257D02*
X91074060Y-56700828D01*
X91074060Y-56700828D02*
X90788345Y-56700828D01*
X90788345Y-56700828D02*
X90645488Y-56772257D01*
X90645488Y-56772257D02*
X90574060Y-56915114D01*
X90574060Y-56915114D02*
X90574060Y-57057971D01*
X90574060Y-57057971D02*
X91288345Y-57200828D01*
X89288346Y-56700828D02*
X89288346Y-57700828D01*
X89931203Y-56700828D02*
X89931203Y-57486542D01*
X89931203Y-57486542D02*
X89859774Y-57629400D01*
X89859774Y-57629400D02*
X89716917Y-57700828D01*
X89716917Y-57700828D02*
X89502631Y-57700828D01*
X89502631Y-57700828D02*
X89359774Y-57629400D01*
X89359774Y-57629400D02*
X89288346Y-57557971D01*
X88788345Y-56700828D02*
X88216917Y-56700828D01*
X88574060Y-56200828D02*
X88574060Y-57486542D01*
X88574060Y-57486542D02*
X88502631Y-57629400D01*
X88502631Y-57629400D02*
X88359774Y-57700828D01*
X88359774Y-57700828D02*
X88216917Y-57700828D01*
X87716917Y-57700828D02*
X87716917Y-56700828D01*
X87716917Y-56986542D02*
X87645488Y-56843685D01*
X87645488Y-56843685D02*
X87574060Y-56772257D01*
X87574060Y-56772257D02*
X87431202Y-56700828D01*
X87431202Y-56700828D02*
X87288345Y-56700828D01*
X86145489Y-57700828D02*
X86145489Y-56915114D01*
X86145489Y-56915114D02*
X86216917Y-56772257D01*
X86216917Y-56772257D02*
X86359774Y-56700828D01*
X86359774Y-56700828D02*
X86645489Y-56700828D01*
X86645489Y-56700828D02*
X86788346Y-56772257D01*
X86145489Y-57629400D02*
X86288346Y-57700828D01*
X86288346Y-57700828D02*
X86645489Y-57700828D01*
X86645489Y-57700828D02*
X86788346Y-57629400D01*
X86788346Y-57629400D02*
X86859774Y-57486542D01*
X86859774Y-57486542D02*
X86859774Y-57343685D01*
X86859774Y-57343685D02*
X86788346Y-57200828D01*
X86788346Y-57200828D02*
X86645489Y-57129400D01*
X86645489Y-57129400D02*
X86288346Y-57129400D01*
X86288346Y-57129400D02*
X86145489Y-57057971D01*
X85216917Y-57700828D02*
X85359774Y-57629400D01*
X85359774Y-57629400D02*
X85431203Y-57486542D01*
X85431203Y-57486542D02*
X85431203Y-56200828D01*
X88359775Y-86800828D02*
X88359775Y-85300828D01*
X87645489Y-86800828D02*
X87645489Y-85300828D01*
X87645489Y-85300828D02*
X86788346Y-86800828D01*
X86788346Y-86800828D02*
X86788346Y-85300828D01*
X86145488Y-85443685D02*
X86074060Y-85372257D01*
X86074060Y-85372257D02*
X85931203Y-85300828D01*
X85931203Y-85300828D02*
X85574060Y-85300828D01*
X85574060Y-85300828D02*
X85431203Y-85372257D01*
X85431203Y-85372257D02*
X85359774Y-85443685D01*
X85359774Y-85443685D02*
X85288345Y-85586542D01*
X85288345Y-85586542D02*
X85288345Y-85729400D01*
X85288345Y-85729400D02*
X85359774Y-85943685D01*
X85359774Y-85943685D02*
X86216917Y-86800828D01*
X86216917Y-86800828D02*
X85288345Y-86800828D01*
X90931203Y-68100828D02*
X91645489Y-68100828D01*
X91645489Y-68100828D02*
X91645489Y-66600828D01*
X90145488Y-66600828D02*
X89859774Y-66600828D01*
X89859774Y-66600828D02*
X89716917Y-66672257D01*
X89716917Y-66672257D02*
X89574060Y-66815114D01*
X89574060Y-66815114D02*
X89502631Y-67100828D01*
X89502631Y-67100828D02*
X89502631Y-67600828D01*
X89502631Y-67600828D02*
X89574060Y-67886542D01*
X89574060Y-67886542D02*
X89716917Y-68029400D01*
X89716917Y-68029400D02*
X89859774Y-68100828D01*
X89859774Y-68100828D02*
X90145488Y-68100828D01*
X90145488Y-68100828D02*
X90288346Y-68029400D01*
X90288346Y-68029400D02*
X90431203Y-67886542D01*
X90431203Y-67886542D02*
X90502631Y-67600828D01*
X90502631Y-67600828D02*
X90502631Y-67100828D01*
X90502631Y-67100828D02*
X90431203Y-66815114D01*
X90431203Y-66815114D02*
X90288346Y-66672257D01*
X90288346Y-66672257D02*
X90145488Y-66600828D01*
X88931202Y-67672257D02*
X88216917Y-67672257D01*
X89074059Y-68100828D02*
X88574059Y-66600828D01*
X88574059Y-66600828D02*
X88074059Y-68100828D01*
X87574060Y-68100828D02*
X87574060Y-66600828D01*
X87574060Y-66600828D02*
X87216917Y-66600828D01*
X87216917Y-66600828D02*
X87002631Y-66672257D01*
X87002631Y-66672257D02*
X86859774Y-66815114D01*
X86859774Y-66815114D02*
X86788345Y-66957971D01*
X86788345Y-66957971D02*
X86716917Y-67243685D01*
X86716917Y-67243685D02*
X86716917Y-67457971D01*
X86716917Y-67457971D02*
X86788345Y-67743685D01*
X86788345Y-67743685D02*
X86859774Y-67886542D01*
X86859774Y-67886542D02*
X87002631Y-68029400D01*
X87002631Y-68029400D02*
X87216917Y-68100828D01*
X87216917Y-68100828D02*
X87574060Y-68100828D01*
X86145488Y-66743685D02*
X86074060Y-66672257D01*
X86074060Y-66672257D02*
X85931203Y-66600828D01*
X85931203Y-66600828D02*
X85574060Y-66600828D01*
X85574060Y-66600828D02*
X85431203Y-66672257D01*
X85431203Y-66672257D02*
X85359774Y-66743685D01*
X85359774Y-66743685D02*
X85288345Y-66886542D01*
X85288345Y-66886542D02*
X85288345Y-67029400D01*
X85288345Y-67029400D02*
X85359774Y-67243685D01*
X85359774Y-67243685D02*
X86216917Y-68100828D01*
X86216917Y-68100828D02*
X85288345Y-68100828D01*
%LPC*%
D11*
X152675000Y-115100000D03*
X153268109Y-113668109D03*
X153268109Y-116531891D03*
X154700000Y-113075000D03*
D12*
X154700000Y-115100000D03*
D11*
X154700000Y-117125000D03*
X156131891Y-113668109D03*
X156131891Y-116531891D03*
X156725000Y-115100000D03*
X118975000Y-108800000D03*
X119568109Y-107368109D03*
X119568109Y-110231891D03*
X121000000Y-106775000D03*
D12*
X121000000Y-108800000D03*
D11*
X121000000Y-110825000D03*
X122431891Y-107368109D03*
X122431891Y-110231891D03*
X123025000Y-108800000D03*
D13*
X83200000Y-66920000D03*
D14*
X83200000Y-61840000D03*
X83200000Y-56760000D03*
X83200000Y-51680000D03*
D15*
X122125000Y-88300000D03*
D16*
X124665000Y-88300000D03*
X124665000Y-80680000D03*
X122125000Y-80680000D03*
D17*
X115000000Y-110110000D03*
D18*
X115000000Y-102490000D03*
D13*
X83200000Y-86080000D03*
D14*
X83200000Y-81000000D03*
X83200000Y-75920000D03*
D19*
X155550000Y-101450000D03*
X149050000Y-101450000D03*
X155550000Y-96950000D03*
X149050000Y-96950000D03*
D20*
X111430000Y-76100000D03*
D21*
X112700000Y-76100000D03*
X113970000Y-76100000D03*
D22*
X114160000Y-94440000D03*
D23*
X114160000Y-93170000D03*
X114160000Y-91900000D03*
D14*
X92090000Y-115100000D03*
X89550000Y-97300000D03*
D24*
X104750000Y-111300000D03*
D19*
X104750000Y-101100000D03*
D17*
X111800000Y-88810000D03*
D18*
X111800000Y-81190000D03*
D11*
X153475000Y-50800000D03*
X154068109Y-49368109D03*
X154068109Y-52231891D03*
X155500000Y-48775000D03*
D12*
X155500000Y-50800000D03*
D11*
X155500000Y-52825000D03*
X156931891Y-49368109D03*
X156931891Y-52231891D03*
X157525000Y-50800000D03*
D25*
X149320000Y-73050000D03*
D26*
X149320000Y-75590000D03*
X149320000Y-78130000D03*
X149320000Y-80670000D03*
D27*
X93345000Y-56837500D03*
D28*
X93345000Y-61837500D03*
X122425000Y-51837500D03*
X122425000Y-66837500D03*
D29*
X104700000Y-87000000D03*
X104700000Y-75000000D03*
X106700000Y-81000000D03*
X92500000Y-87000000D03*
X92500000Y-75000000D03*
D19*
X149050000Y-59100000D03*
X155550000Y-59100000D03*
X149050000Y-63600000D03*
X155550000Y-63600000D03*
D11*
X118975000Y-75225000D03*
X119568109Y-73793109D03*
X119568109Y-76656891D03*
X121000000Y-73200000D03*
D12*
X121000000Y-75225000D03*
D11*
X121000000Y-77250000D03*
X122431891Y-73793109D03*
X122431891Y-76656891D03*
X123025000Y-75225000D03*
D15*
X120125000Y-100100000D03*
D16*
X122665000Y-100100000D03*
X122665000Y-92480000D03*
X120125000Y-92480000D03*
%LPD*%
M02*
