%TF.GenerationSoftware,KiCad,Pcbnew,9.0.1*%
%TF.CreationDate,2025-08-27T22:35:59+05:00*%
%TF.ProjectId,30A_home_automation_using_esp32,3330415f-686f-46d6-955f-6175746f6d61,rev?*%
%TF.SameCoordinates,Original*%
%TF.FileFunction,Drillmap*%
%TF.FilePolarity,Positive*%
%FSLAX45Y45*%
G04 Gerber Fmt 4.5, Leading zero omitted, Abs format (unit mm)*
G04 Created by KiCad (PCBNEW 9.0.1) date 2025-08-27 22:35:59*
%MOMM*%
%LPD*%
G01*
G04 APERTURE LIST*
%ADD10C,0.050000*%
%ADD11C,0.200000*%
%ADD12C,0.100000*%
%ADD13C,0.110000*%
%ADD14C,0.130000*%
%ADD15C,0.152000*%
%ADD16C,0.160000*%
%ADD17C,0.270000*%
G04 APERTURE END LIST*
D10*
X7810000Y-4720000D02*
X15890000Y-4720000D01*
X15890000Y-12030000D01*
X7810000Y-12030000D01*
X7810000Y-4720000D01*
D11*
D12*
X13510000Y-10390000D02*
X13530000Y-10410000D01*
X13530000Y-10390000D02*
X13510000Y-10410000D01*
X13510000Y-10542500D02*
X13530000Y-10562500D01*
X13530000Y-10542500D02*
X13510000Y-10562500D01*
X13586250Y-10313750D02*
X13606250Y-10333750D01*
X13606250Y-10313750D02*
X13586250Y-10333750D01*
X13586250Y-10466250D02*
X13606250Y-10486250D01*
X13606250Y-10466250D02*
X13586250Y-10486250D01*
X13586250Y-10618750D02*
X13606250Y-10638750D01*
X13606250Y-10618750D02*
X13586250Y-10638750D01*
X13662500Y-10390000D02*
X13682500Y-10410000D01*
X13682500Y-10390000D02*
X13662500Y-10410000D01*
X13662500Y-10542500D02*
X13682500Y-10562500D01*
X13682500Y-10542500D02*
X13662500Y-10562500D01*
X13738750Y-10313750D02*
X13758750Y-10333750D01*
X13758750Y-10313750D02*
X13738750Y-10333750D01*
X13738750Y-10466250D02*
X13758750Y-10486250D01*
X13758750Y-10466250D02*
X13738750Y-10486250D01*
X13738750Y-10618750D02*
X13758750Y-10638750D01*
X13758750Y-10618750D02*
X13738750Y-10638750D01*
X13815000Y-10390000D02*
X13835000Y-10410000D01*
X13835000Y-10390000D02*
X13815000Y-10410000D01*
X13815000Y-10542500D02*
X13835000Y-10562500D01*
X13835000Y-10542500D02*
X13815000Y-10562500D01*
X12185000Y-9480000D02*
G75*
G02*
X12155000Y-9480000I-15000J0D01*
G01*
X12155000Y-9480000D02*
G75*
G02*
X12185000Y-9480000I15000J0D01*
G01*
X12235000Y-9660000D02*
G75*
G02*
X12205000Y-9660000I-15000J0D01*
G01*
X12205000Y-9660000D02*
G75*
G02*
X12235000Y-9660000I15000J0D01*
G01*
X12525000Y-10310000D02*
G75*
G02*
X12495000Y-10310000I-15000J0D01*
G01*
X12495000Y-10310000D02*
G75*
G02*
X12525000Y-10310000I15000J0D01*
G01*
X13055000Y-10940000D02*
G75*
G02*
X13025000Y-10940000I-15000J0D01*
G01*
X13025000Y-10940000D02*
G75*
G02*
X13055000Y-10940000I15000J0D01*
G01*
X13105000Y-10520000D02*
G75*
G02*
X13075000Y-10520000I-15000J0D01*
G01*
X13075000Y-10520000D02*
G75*
G02*
X13105000Y-10520000I15000J0D01*
G01*
X13135000Y-8990000D02*
G75*
G02*
X13105000Y-8990000I-15000J0D01*
G01*
X13105000Y-8990000D02*
G75*
G02*
X13135000Y-8990000I15000J0D01*
G01*
X13145000Y-9900000D02*
G75*
G02*
X13115000Y-9900000I-15000J0D01*
G01*
X13115000Y-9900000D02*
G75*
G02*
X13145000Y-9900000I15000J0D01*
G01*
X13145000Y-10040000D02*
G75*
G02*
X13115000Y-10040000I-15000J0D01*
G01*
X13115000Y-10040000D02*
G75*
G02*
X13145000Y-10040000I15000J0D01*
G01*
X13175000Y-10640000D02*
G75*
G02*
X13145000Y-10640000I-15000J0D01*
G01*
X13145000Y-10640000D02*
G75*
G02*
X13175000Y-10640000I15000J0D01*
G01*
X13305000Y-8980000D02*
G75*
G02*
X13275000Y-8980000I-15000J0D01*
G01*
X13275000Y-8980000D02*
G75*
G02*
X13305000Y-8980000I15000J0D01*
G01*
X13335000Y-7120000D02*
G75*
G02*
X13305000Y-7120000I-15000J0D01*
G01*
X13305000Y-7120000D02*
G75*
G02*
X13335000Y-7120000I15000J0D01*
G01*
X14025000Y-7060000D02*
G75*
G02*
X13995000Y-7060000I-15000J0D01*
G01*
X13995000Y-7060000D02*
G75*
G02*
X14025000Y-7060000I15000J0D01*
G01*
X14065000Y-7810000D02*
G75*
G02*
X14035000Y-7810000I-15000J0D01*
G01*
X14035000Y-7810000D02*
G75*
G02*
X14065000Y-7810000I15000J0D01*
G01*
X14215000Y-7010000D02*
G75*
G02*
X14185000Y-7010000I-15000J0D01*
G01*
X14185000Y-7010000D02*
G75*
G02*
X14215000Y-7010000I15000J0D01*
G01*
X14295000Y-7820000D02*
G75*
G02*
X14265000Y-7820000I-15000J0D01*
G01*
X14265000Y-7820000D02*
G75*
G02*
X14295000Y-7820000I15000J0D01*
G01*
X14455000Y-5910000D02*
G75*
G02*
X14425000Y-5910000I-15000J0D01*
G01*
X14425000Y-5910000D02*
G75*
G02*
X14455000Y-5910000I15000J0D01*
G01*
X14455000Y-7000000D02*
G75*
G02*
X14425000Y-7000000I-15000J0D01*
G01*
X14425000Y-7000000D02*
G75*
G02*
X14455000Y-7000000I15000J0D01*
G01*
X14545000Y-7840000D02*
G75*
G02*
X14515000Y-7840000I-15000J0D01*
G01*
X14515000Y-7840000D02*
G75*
G02*
X14545000Y-7840000I15000J0D01*
G01*
X15195000Y-10700000D02*
G75*
G02*
X15165000Y-10700000I-15000J0D01*
G01*
X15165000Y-10700000D02*
G75*
G02*
X15195000Y-10700000I15000J0D01*
G01*
X11897500Y-7497500D02*
X11897500Y-7547500D01*
X11872500Y-7522500D02*
X11922500Y-7522500D01*
X11897500Y-10855000D02*
X11897500Y-10905000D01*
X11872500Y-10880000D02*
X11922500Y-10880000D01*
X11956811Y-7354311D02*
X11956811Y-7404311D01*
X11931811Y-7379311D02*
X11981811Y-7379311D01*
X11956811Y-7640689D02*
X11956811Y-7690689D01*
X11931811Y-7665689D02*
X11981811Y-7665689D01*
X11956811Y-10711811D02*
X11956811Y-10761811D01*
X11931811Y-10736811D02*
X11981811Y-10736811D01*
X11956811Y-10998189D02*
X11956811Y-11048189D01*
X11931811Y-11023189D02*
X11981811Y-11023189D01*
X12100000Y-7295000D02*
X12100000Y-7345000D01*
X12075000Y-7320000D02*
X12125000Y-7320000D01*
X12100000Y-7700000D02*
X12100000Y-7750000D01*
X12075000Y-7725000D02*
X12125000Y-7725000D01*
X12100000Y-10652500D02*
X12100000Y-10702500D01*
X12075000Y-10677500D02*
X12125000Y-10677500D01*
X12100000Y-11057500D02*
X12100000Y-11107500D01*
X12075000Y-11082500D02*
X12125000Y-11082500D01*
X12243189Y-7354311D02*
X12243189Y-7404311D01*
X12218189Y-7379311D02*
X12268189Y-7379311D01*
X12243189Y-7640689D02*
X12243189Y-7690689D01*
X12218189Y-7665689D02*
X12268189Y-7665689D01*
X12243189Y-10711811D02*
X12243189Y-10761811D01*
X12218189Y-10736811D02*
X12268189Y-10736811D01*
X12243189Y-10998189D02*
X12243189Y-11048189D01*
X12218189Y-11023189D02*
X12268189Y-11023189D01*
X12302500Y-7497500D02*
X12302500Y-7547500D01*
X12277500Y-7522500D02*
X12327500Y-7522500D01*
X12302500Y-10855000D02*
X12302500Y-10905000D01*
X12277500Y-10880000D02*
X12327500Y-10880000D01*
X15267500Y-11485000D02*
X15267500Y-11535000D01*
X15242500Y-11510000D02*
X15292500Y-11510000D01*
X15326811Y-11341811D02*
X15326811Y-11391811D01*
X15301811Y-11366811D02*
X15351811Y-11366811D01*
X15326811Y-11628189D02*
X15326811Y-11678189D01*
X15301811Y-11653189D02*
X15351811Y-11653189D01*
X15347500Y-5055000D02*
X15347500Y-5105000D01*
X15322500Y-5080000D02*
X15372500Y-5080000D01*
X15406811Y-4911811D02*
X15406811Y-4961811D01*
X15381811Y-4936811D02*
X15431811Y-4936811D01*
X15406811Y-5198189D02*
X15406811Y-5248189D01*
X15381811Y-5223189D02*
X15431811Y-5223189D01*
X15470000Y-11282500D02*
X15470000Y-11332500D01*
X15445000Y-11307500D02*
X15495000Y-11307500D01*
X15470000Y-11687500D02*
X15470000Y-11737500D01*
X15445000Y-11712500D02*
X15495000Y-11712500D01*
X15550000Y-4852500D02*
X15550000Y-4902500D01*
X15525000Y-4877500D02*
X15575000Y-4877500D01*
X15550000Y-5257500D02*
X15550000Y-5307500D01*
X15525000Y-5282500D02*
X15575000Y-5282500D01*
X15613189Y-11341811D02*
X15613189Y-11391811D01*
X15588189Y-11366811D02*
X15638189Y-11366811D01*
X15613189Y-11628189D02*
X15613189Y-11678189D01*
X15588189Y-11653189D02*
X15638189Y-11653189D01*
X15672500Y-11485000D02*
X15672500Y-11535000D01*
X15647500Y-11510000D02*
X15697500Y-11510000D01*
X15693189Y-4911811D02*
X15693189Y-4961811D01*
X15668189Y-4936811D02*
X15718189Y-4936811D01*
X15693189Y-5198189D02*
X15693189Y-5248189D01*
X15668189Y-5223189D02*
X15718189Y-5223189D01*
X15752500Y-5055000D02*
X15752500Y-5105000D01*
X15727500Y-5080000D02*
X15777500Y-5080000D01*
X11169517Y-7636517D02*
X11169517Y-7583483D01*
X11116483Y-7583483D01*
X11116483Y-7636517D01*
X11169517Y-7636517D01*
X11296517Y-7636517D02*
X11296517Y-7583483D01*
X11243483Y-7583483D01*
X11243483Y-7636517D01*
X11296517Y-7636517D01*
X11423517Y-7636517D02*
X11423517Y-7583483D01*
X11370483Y-7583483D01*
X11370483Y-7636517D01*
X11423517Y-7636517D01*
X11442517Y-9216517D02*
X11442517Y-9163483D01*
X11389483Y-9163483D01*
X11389483Y-9216517D01*
X11442517Y-9216517D01*
X11442517Y-9343517D02*
X11442517Y-9290483D01*
X11389483Y-9290483D01*
X11389483Y-9343517D01*
X11442517Y-9343517D01*
X11442517Y-9470517D02*
X11442517Y-9417483D01*
X11389483Y-9417483D01*
X11389483Y-9470517D01*
X11442517Y-9470517D01*
X11180000Y-8159000D02*
X11220000Y-8119000D01*
X11180000Y-8079000D01*
X11140000Y-8119000D01*
X11180000Y-8159000D01*
X11180000Y-8921000D02*
X11220000Y-8881000D01*
X11180000Y-8841000D01*
X11140000Y-8881000D01*
X11180000Y-8921000D01*
X11500000Y-10289000D02*
X11540000Y-10249000D01*
X11500000Y-10209000D01*
X11460000Y-10249000D01*
X11500000Y-10289000D01*
X11500000Y-11051000D02*
X11540000Y-11011000D01*
X11500000Y-10971000D01*
X11460000Y-11011000D01*
X11500000Y-11051000D01*
X12012500Y-9288000D02*
X12052500Y-9248000D01*
X12012500Y-9208000D01*
X11972500Y-9248000D01*
X12012500Y-9288000D01*
X12012500Y-10050000D02*
X12052500Y-10010000D01*
X12012500Y-9970000D01*
X11972500Y-10010000D01*
X12012500Y-10050000D01*
X12212500Y-8108000D02*
X12252500Y-8068000D01*
X12212500Y-8028000D01*
X12172500Y-8068000D01*
X12212500Y-8108000D01*
X12212500Y-8870000D02*
X12252500Y-8830000D01*
X12212500Y-8790000D01*
X12172500Y-8830000D01*
X12212500Y-8870000D01*
X12266500Y-9288000D02*
X12306500Y-9248000D01*
X12266500Y-9208000D01*
X12226500Y-9248000D01*
X12266500Y-9288000D01*
X12266500Y-10050000D02*
X12306500Y-10010000D01*
X12266500Y-9970000D01*
X12226500Y-10010000D01*
X12266500Y-10050000D01*
X12466500Y-8108000D02*
X12506500Y-8068000D01*
X12466500Y-8028000D01*
X12426500Y-8068000D01*
X12466500Y-8108000D01*
X12466500Y-8870000D02*
X12506500Y-8830000D01*
X12466500Y-8790000D01*
X12426500Y-8830000D01*
X12466500Y-8870000D01*
X9284500Y-5633750D02*
X9384500Y-5733750D01*
X9384500Y-5633750D02*
X9284500Y-5733750D01*
X9384500Y-5683750D02*
G75*
G02*
X9284500Y-5683750I-50000J0D01*
G01*
X9284500Y-5683750D02*
G75*
G02*
X9384500Y-5683750I50000J0D01*
G01*
X9284500Y-6133750D02*
X9384500Y-6233750D01*
X9384500Y-6133750D02*
X9284500Y-6233750D01*
X9384500Y-6183750D02*
G75*
G02*
X9284500Y-6183750I-50000J0D01*
G01*
X9284500Y-6183750D02*
G75*
G02*
X9384500Y-6183750I50000J0D01*
G01*
X12192500Y-5133750D02*
X12292500Y-5233750D01*
X12292500Y-5133750D02*
X12192500Y-5233750D01*
X12292500Y-5183750D02*
G75*
G02*
X12192500Y-5183750I-50000J0D01*
G01*
X12192500Y-5183750D02*
G75*
G02*
X12292500Y-5183750I50000J0D01*
G01*
X12192500Y-6633750D02*
X12292500Y-6733750D01*
X12292500Y-6633750D02*
X12192500Y-6733750D01*
X12292500Y-6683750D02*
G75*
G02*
X12192500Y-6683750I-50000J0D01*
G01*
X12192500Y-6683750D02*
G75*
G02*
X12292500Y-6683750I50000J0D01*
G01*
X14882000Y-7255000D02*
X14982000Y-7355000D01*
X14982000Y-7255000D02*
X14882000Y-7355000D01*
X14982000Y-7305000D02*
G75*
G02*
X14882000Y-7305000I-50000J0D01*
G01*
X14882000Y-7305000D02*
G75*
G02*
X14982000Y-7305000I50000J0D01*
G01*
X14882000Y-7509000D02*
X14982000Y-7609000D01*
X14982000Y-7509000D02*
X14882000Y-7609000D01*
X14982000Y-7559000D02*
G75*
G02*
X14882000Y-7559000I-50000J0D01*
G01*
X14882000Y-7559000D02*
G75*
G02*
X14982000Y-7559000I50000J0D01*
G01*
X14882000Y-7763000D02*
X14982000Y-7863000D01*
X14982000Y-7763000D02*
X14882000Y-7863000D01*
X14982000Y-7813000D02*
G75*
G02*
X14882000Y-7813000I-50000J0D01*
G01*
X14882000Y-7813000D02*
G75*
G02*
X14982000Y-7813000I50000J0D01*
G01*
X14882000Y-8017000D02*
X14982000Y-8117000D01*
X14982000Y-8017000D02*
X14882000Y-8117000D01*
X14982000Y-8067000D02*
G75*
G02*
X14882000Y-8067000I-50000J0D01*
G01*
X14882000Y-8067000D02*
G75*
G02*
X14982000Y-8067000I50000J0D01*
G01*
D13*
X10420000Y-10055000D02*
X10530000Y-10165000D01*
X10530000Y-10055000D02*
X10420000Y-10165000D01*
X10475000Y-10055000D02*
X10475000Y-10165000D01*
X10420000Y-10110000D02*
X10530000Y-10110000D01*
X10420000Y-11075000D02*
X10530000Y-11185000D01*
X10530000Y-11075000D02*
X10420000Y-11185000D01*
X10475000Y-11075000D02*
X10475000Y-11185000D01*
X10420000Y-11130000D02*
X10530000Y-11130000D01*
X14850000Y-5855000D02*
X14960000Y-5965000D01*
X14960000Y-5855000D02*
X14850000Y-5965000D01*
X14905000Y-5855000D02*
X14905000Y-5965000D01*
X14850000Y-5910000D02*
X14960000Y-5910000D01*
X14850000Y-6305000D02*
X14960000Y-6415000D01*
X14960000Y-6305000D02*
X14850000Y-6415000D01*
X14905000Y-6305000D02*
X14905000Y-6415000D01*
X14850000Y-6360000D02*
X14960000Y-6360000D01*
X14850000Y-9640000D02*
X14960000Y-9750000D01*
X14960000Y-9640000D02*
X14850000Y-9750000D01*
X14905000Y-9640000D02*
X14905000Y-9750000D01*
X14850000Y-9695000D02*
X14960000Y-9695000D01*
X14850000Y-10090000D02*
X14960000Y-10200000D01*
X14960000Y-10090000D02*
X14850000Y-10200000D01*
X14905000Y-10090000D02*
X14905000Y-10200000D01*
X14850000Y-10145000D02*
X14960000Y-10145000D01*
X15500000Y-5855000D02*
X15610000Y-5965000D01*
X15610000Y-5855000D02*
X15500000Y-5965000D01*
X15555000Y-5855000D02*
X15555000Y-5965000D01*
X15500000Y-5910000D02*
X15610000Y-5910000D01*
X15500000Y-6305000D02*
X15610000Y-6415000D01*
X15610000Y-6305000D02*
X15500000Y-6415000D01*
X15555000Y-6305000D02*
X15555000Y-6415000D01*
X15500000Y-6360000D02*
X15610000Y-6360000D01*
X15500000Y-9640000D02*
X15610000Y-9750000D01*
X15610000Y-9640000D02*
X15500000Y-9750000D01*
X15555000Y-9640000D02*
X15555000Y-9750000D01*
X15500000Y-9695000D02*
X15610000Y-9695000D01*
X15500000Y-10090000D02*
X15610000Y-10200000D01*
X15610000Y-10090000D02*
X15500000Y-10200000D01*
X15555000Y-10090000D02*
X15555000Y-10200000D01*
X15500000Y-10145000D02*
X15610000Y-10145000D01*
D14*
X9185000Y-7435000D02*
X9315000Y-7565000D01*
X9315000Y-7435000D02*
X9185000Y-7565000D01*
X9295962Y-7545962D02*
X9295962Y-7454038D01*
X9204038Y-7454038D01*
X9204038Y-7545962D01*
X9295962Y-7545962D01*
X9185000Y-8635000D02*
X9315000Y-8765000D01*
X9315000Y-8635000D02*
X9185000Y-8765000D01*
X9295962Y-8745962D02*
X9295962Y-8654038D01*
X9204038Y-8654038D01*
X9204038Y-8745962D01*
X9295962Y-8745962D01*
X10405000Y-7435000D02*
X10535000Y-7565000D01*
X10535000Y-7435000D02*
X10405000Y-7565000D01*
X10515962Y-7545962D02*
X10515962Y-7454038D01*
X10424038Y-7454038D01*
X10424038Y-7545962D01*
X10515962Y-7545962D01*
X10405000Y-8635000D02*
X10535000Y-8765000D01*
X10535000Y-8635000D02*
X10405000Y-8765000D01*
X10515962Y-8745962D02*
X10515962Y-8654038D01*
X10424038Y-8654038D01*
X10424038Y-8745962D01*
X10515962Y-8745962D01*
X10605000Y-8035000D02*
X10735000Y-8165000D01*
X10735000Y-8035000D02*
X10605000Y-8165000D01*
X10715962Y-8145962D02*
X10715962Y-8054038D01*
X10624038Y-8054038D01*
X10624038Y-8145962D01*
X10715962Y-8145962D01*
D15*
X8244000Y-5092000D02*
X8396000Y-5244000D01*
X8396000Y-5092000D02*
X8244000Y-5244000D01*
X8320000Y-5244000D02*
X8396000Y-5168000D01*
X8320000Y-5092000D01*
X8244000Y-5168000D01*
X8320000Y-5244000D01*
X8244000Y-5600000D02*
X8396000Y-5752000D01*
X8396000Y-5600000D02*
X8244000Y-5752000D01*
X8320000Y-5752000D02*
X8396000Y-5676000D01*
X8320000Y-5600000D01*
X8244000Y-5676000D01*
X8320000Y-5752000D01*
X8244000Y-6108000D02*
X8396000Y-6260000D01*
X8396000Y-6108000D02*
X8244000Y-6260000D01*
X8320000Y-6260000D02*
X8396000Y-6184000D01*
X8320000Y-6108000D01*
X8244000Y-6184000D01*
X8320000Y-6260000D01*
X8244000Y-6616000D02*
X8396000Y-6768000D01*
X8396000Y-6616000D02*
X8244000Y-6768000D01*
X8320000Y-6768000D02*
X8396000Y-6692000D01*
X8320000Y-6616000D01*
X8244000Y-6692000D01*
X8320000Y-6768000D01*
X8244000Y-7516000D02*
X8396000Y-7668000D01*
X8396000Y-7516000D02*
X8244000Y-7668000D01*
X8320000Y-7668000D02*
X8396000Y-7592000D01*
X8320000Y-7516000D01*
X8244000Y-7592000D01*
X8320000Y-7668000D01*
X8244000Y-8024000D02*
X8396000Y-8176000D01*
X8396000Y-8024000D02*
X8244000Y-8176000D01*
X8320000Y-8176000D02*
X8396000Y-8100000D01*
X8320000Y-8024000D01*
X8244000Y-8100000D01*
X8320000Y-8176000D01*
X8244000Y-8532000D02*
X8396000Y-8684000D01*
X8396000Y-8532000D02*
X8244000Y-8684000D01*
X8320000Y-8684000D02*
X8396000Y-8608000D01*
X8320000Y-8532000D01*
X8244000Y-8608000D01*
X8320000Y-8684000D01*
D16*
X8955000Y-9650000D02*
X8955000Y-9810000D01*
X8875000Y-9730000D02*
X9035000Y-9730000D01*
X9035000Y-9730000D02*
G75*
G02*
X8875000Y-9730000I-80000J0D01*
G01*
X8875000Y-9730000D02*
G75*
G02*
X9035000Y-9730000I80000J0D01*
G01*
X9209000Y-11430000D02*
X9209000Y-11590000D01*
X9129000Y-11510000D02*
X9289000Y-11510000D01*
X9289000Y-11510000D02*
G75*
G02*
X9129000Y-11510000I-80000J0D01*
G01*
X9129000Y-11510000D02*
G75*
G02*
X9289000Y-11510000I80000J0D01*
G01*
D17*
X12195460Y-7617960D02*
X12195460Y-7427040D01*
X12004540Y-7427040D01*
X12004540Y-7617960D01*
X12195460Y-7617960D01*
X12235000Y-7522500D02*
G75*
G02*
X11965000Y-7522500I-135000J0D01*
G01*
X11965000Y-7522500D02*
G75*
G02*
X12235000Y-7522500I135000J0D01*
G01*
X12195460Y-10975460D02*
X12195460Y-10784540D01*
X12004540Y-10784540D01*
X12004540Y-10975460D01*
X12195460Y-10975460D01*
X12235000Y-10880000D02*
G75*
G02*
X11965000Y-10880000I-135000J0D01*
G01*
X11965000Y-10880000D02*
G75*
G02*
X12235000Y-10880000I135000J0D01*
G01*
X15565460Y-11605460D02*
X15565460Y-11414540D01*
X15374540Y-11414540D01*
X15374540Y-11605460D01*
X15565460Y-11605460D01*
X15605000Y-11510000D02*
G75*
G02*
X15335000Y-11510000I-135000J0D01*
G01*
X15335000Y-11510000D02*
G75*
G02*
X15605000Y-11510000I135000J0D01*
G01*
X15645460Y-5175460D02*
X15645460Y-4984540D01*
X15454540Y-4984540D01*
X15454540Y-5175460D01*
X15645460Y-5175460D01*
X15685000Y-5080000D02*
G75*
G02*
X15415000Y-5080000I-135000J0D01*
G01*
X15415000Y-5080000D02*
G75*
G02*
X15685000Y-5080000I135000J0D01*
G01*
D11*
X8068277Y-12343984D02*
X8068277Y-12143984D01*
X8068277Y-12143984D02*
X8115896Y-12143984D01*
X8115896Y-12143984D02*
X8144467Y-12153508D01*
X8144467Y-12153508D02*
X8163515Y-12172555D01*
X8163515Y-12172555D02*
X8173039Y-12191603D01*
X8173039Y-12191603D02*
X8182562Y-12229698D01*
X8182562Y-12229698D02*
X8182562Y-12258269D01*
X8182562Y-12258269D02*
X8173039Y-12296365D01*
X8173039Y-12296365D02*
X8163515Y-12315412D01*
X8163515Y-12315412D02*
X8144467Y-12334460D01*
X8144467Y-12334460D02*
X8115896Y-12343984D01*
X8115896Y-12343984D02*
X8068277Y-12343984D01*
X8268277Y-12343984D02*
X8268277Y-12210650D01*
X8268277Y-12248746D02*
X8277801Y-12229698D01*
X8277801Y-12229698D02*
X8287324Y-12220174D01*
X8287324Y-12220174D02*
X8306372Y-12210650D01*
X8306372Y-12210650D02*
X8325420Y-12210650D01*
X8392086Y-12343984D02*
X8392086Y-12210650D01*
X8392086Y-12143984D02*
X8382562Y-12153508D01*
X8382562Y-12153508D02*
X8392086Y-12163031D01*
X8392086Y-12163031D02*
X8401610Y-12153508D01*
X8401610Y-12153508D02*
X8392086Y-12143984D01*
X8392086Y-12143984D02*
X8392086Y-12163031D01*
X8515896Y-12343984D02*
X8496848Y-12334460D01*
X8496848Y-12334460D02*
X8487324Y-12315412D01*
X8487324Y-12315412D02*
X8487324Y-12143984D01*
X8620658Y-12343984D02*
X8601610Y-12334460D01*
X8601610Y-12334460D02*
X8592086Y-12315412D01*
X8592086Y-12315412D02*
X8592086Y-12143984D01*
X8849229Y-12343984D02*
X8849229Y-12143984D01*
X8849229Y-12143984D02*
X8915896Y-12286841D01*
X8915896Y-12286841D02*
X8982563Y-12143984D01*
X8982563Y-12143984D02*
X8982563Y-12343984D01*
X9163515Y-12343984D02*
X9163515Y-12239222D01*
X9163515Y-12239222D02*
X9153991Y-12220174D01*
X9153991Y-12220174D02*
X9134944Y-12210650D01*
X9134944Y-12210650D02*
X9096848Y-12210650D01*
X9096848Y-12210650D02*
X9077801Y-12220174D01*
X9163515Y-12334460D02*
X9144467Y-12343984D01*
X9144467Y-12343984D02*
X9096848Y-12343984D01*
X9096848Y-12343984D02*
X9077801Y-12334460D01*
X9077801Y-12334460D02*
X9068277Y-12315412D01*
X9068277Y-12315412D02*
X9068277Y-12296365D01*
X9068277Y-12296365D02*
X9077801Y-12277317D01*
X9077801Y-12277317D02*
X9096848Y-12267793D01*
X9096848Y-12267793D02*
X9144467Y-12267793D01*
X9144467Y-12267793D02*
X9163515Y-12258269D01*
X9258753Y-12210650D02*
X9258753Y-12410650D01*
X9258753Y-12220174D02*
X9277801Y-12210650D01*
X9277801Y-12210650D02*
X9315896Y-12210650D01*
X9315896Y-12210650D02*
X9334944Y-12220174D01*
X9334944Y-12220174D02*
X9344467Y-12229698D01*
X9344467Y-12229698D02*
X9353991Y-12248746D01*
X9353991Y-12248746D02*
X9353991Y-12305888D01*
X9353991Y-12305888D02*
X9344467Y-12324936D01*
X9344467Y-12324936D02*
X9334944Y-12334460D01*
X9334944Y-12334460D02*
X9315896Y-12343984D01*
X9315896Y-12343984D02*
X9277801Y-12343984D01*
X9277801Y-12343984D02*
X9258753Y-12334460D01*
X9439705Y-12324936D02*
X9449229Y-12334460D01*
X9449229Y-12334460D02*
X9439705Y-12343984D01*
X9439705Y-12343984D02*
X9430182Y-12334460D01*
X9430182Y-12334460D02*
X9439705Y-12324936D01*
X9439705Y-12324936D02*
X9439705Y-12343984D01*
X9439705Y-12220174D02*
X9449229Y-12229698D01*
X9449229Y-12229698D02*
X9439705Y-12239222D01*
X9439705Y-12239222D02*
X9430182Y-12229698D01*
X9430182Y-12229698D02*
X9439705Y-12220174D01*
X9439705Y-12220174D02*
X9439705Y-12239222D01*
D12*
X7787500Y-12662500D02*
X7807500Y-12682500D01*
X7807500Y-12662500D02*
X7787500Y-12682500D01*
D11*
X8106372Y-12563984D02*
X8125420Y-12563984D01*
X8125420Y-12563984D02*
X8144467Y-12573508D01*
X8144467Y-12573508D02*
X8153991Y-12583031D01*
X8153991Y-12583031D02*
X8163515Y-12602079D01*
X8163515Y-12602079D02*
X8173039Y-12640174D01*
X8173039Y-12640174D02*
X8173039Y-12687793D01*
X8173039Y-12687793D02*
X8163515Y-12725888D01*
X8163515Y-12725888D02*
X8153991Y-12744936D01*
X8153991Y-12744936D02*
X8144467Y-12754460D01*
X8144467Y-12754460D02*
X8125420Y-12763984D01*
X8125420Y-12763984D02*
X8106372Y-12763984D01*
X8106372Y-12763984D02*
X8087324Y-12754460D01*
X8087324Y-12754460D02*
X8077801Y-12744936D01*
X8077801Y-12744936D02*
X8068277Y-12725888D01*
X8068277Y-12725888D02*
X8058753Y-12687793D01*
X8058753Y-12687793D02*
X8058753Y-12640174D01*
X8058753Y-12640174D02*
X8068277Y-12602079D01*
X8068277Y-12602079D02*
X8077801Y-12583031D01*
X8077801Y-12583031D02*
X8087324Y-12573508D01*
X8087324Y-12573508D02*
X8106372Y-12563984D01*
X8258753Y-12744936D02*
X8268277Y-12754460D01*
X8268277Y-12754460D02*
X8258753Y-12763984D01*
X8258753Y-12763984D02*
X8249229Y-12754460D01*
X8249229Y-12754460D02*
X8258753Y-12744936D01*
X8258753Y-12744936D02*
X8258753Y-12763984D01*
X8344467Y-12583031D02*
X8353991Y-12573508D01*
X8353991Y-12573508D02*
X8373039Y-12563984D01*
X8373039Y-12563984D02*
X8420658Y-12563984D01*
X8420658Y-12563984D02*
X8439705Y-12573508D01*
X8439705Y-12573508D02*
X8449229Y-12583031D01*
X8449229Y-12583031D02*
X8458753Y-12602079D01*
X8458753Y-12602079D02*
X8458753Y-12621127D01*
X8458753Y-12621127D02*
X8449229Y-12649698D01*
X8449229Y-12649698D02*
X8334943Y-12763984D01*
X8334943Y-12763984D02*
X8458753Y-12763984D01*
X8582563Y-12563984D02*
X8601610Y-12563984D01*
X8601610Y-12563984D02*
X8620658Y-12573508D01*
X8620658Y-12573508D02*
X8630182Y-12583031D01*
X8630182Y-12583031D02*
X8639705Y-12602079D01*
X8639705Y-12602079D02*
X8649229Y-12640174D01*
X8649229Y-12640174D02*
X8649229Y-12687793D01*
X8649229Y-12687793D02*
X8639705Y-12725888D01*
X8639705Y-12725888D02*
X8630182Y-12744936D01*
X8630182Y-12744936D02*
X8620658Y-12754460D01*
X8620658Y-12754460D02*
X8601610Y-12763984D01*
X8601610Y-12763984D02*
X8582563Y-12763984D01*
X8582563Y-12763984D02*
X8563515Y-12754460D01*
X8563515Y-12754460D02*
X8553991Y-12744936D01*
X8553991Y-12744936D02*
X8544467Y-12725888D01*
X8544467Y-12725888D02*
X8534944Y-12687793D01*
X8534944Y-12687793D02*
X8534944Y-12640174D01*
X8534944Y-12640174D02*
X8544467Y-12602079D01*
X8544467Y-12602079D02*
X8553991Y-12583031D01*
X8553991Y-12583031D02*
X8563515Y-12573508D01*
X8563515Y-12573508D02*
X8582563Y-12563984D01*
X8773039Y-12563984D02*
X8792086Y-12563984D01*
X8792086Y-12563984D02*
X8811134Y-12573508D01*
X8811134Y-12573508D02*
X8820658Y-12583031D01*
X8820658Y-12583031D02*
X8830182Y-12602079D01*
X8830182Y-12602079D02*
X8839705Y-12640174D01*
X8839705Y-12640174D02*
X8839705Y-12687793D01*
X8839705Y-12687793D02*
X8830182Y-12725888D01*
X8830182Y-12725888D02*
X8820658Y-12744936D01*
X8820658Y-12744936D02*
X8811134Y-12754460D01*
X8811134Y-12754460D02*
X8792086Y-12763984D01*
X8792086Y-12763984D02*
X8773039Y-12763984D01*
X8773039Y-12763984D02*
X8753991Y-12754460D01*
X8753991Y-12754460D02*
X8744467Y-12744936D01*
X8744467Y-12744936D02*
X8734944Y-12725888D01*
X8734944Y-12725888D02*
X8725420Y-12687793D01*
X8725420Y-12687793D02*
X8725420Y-12640174D01*
X8725420Y-12640174D02*
X8734944Y-12602079D01*
X8734944Y-12602079D02*
X8744467Y-12583031D01*
X8744467Y-12583031D02*
X8753991Y-12573508D01*
X8753991Y-12573508D02*
X8773039Y-12563984D01*
X8925420Y-12763984D02*
X8925420Y-12630650D01*
X8925420Y-12649698D02*
X8934944Y-12640174D01*
X8934944Y-12640174D02*
X8953991Y-12630650D01*
X8953991Y-12630650D02*
X8982563Y-12630650D01*
X8982563Y-12630650D02*
X9001610Y-12640174D01*
X9001610Y-12640174D02*
X9011134Y-12659222D01*
X9011134Y-12659222D02*
X9011134Y-12763984D01*
X9011134Y-12659222D02*
X9020658Y-12640174D01*
X9020658Y-12640174D02*
X9039705Y-12630650D01*
X9039705Y-12630650D02*
X9068277Y-12630650D01*
X9068277Y-12630650D02*
X9087325Y-12640174D01*
X9087325Y-12640174D02*
X9096848Y-12659222D01*
X9096848Y-12659222D02*
X9096848Y-12763984D01*
X9192086Y-12763984D02*
X9192086Y-12630650D01*
X9192086Y-12649698D02*
X9201610Y-12640174D01*
X9201610Y-12640174D02*
X9220658Y-12630650D01*
X9220658Y-12630650D02*
X9249229Y-12630650D01*
X9249229Y-12630650D02*
X9268277Y-12640174D01*
X9268277Y-12640174D02*
X9277801Y-12659222D01*
X9277801Y-12659222D02*
X9277801Y-12763984D01*
X9277801Y-12659222D02*
X9287325Y-12640174D01*
X9287325Y-12640174D02*
X9306372Y-12630650D01*
X9306372Y-12630650D02*
X9334944Y-12630650D01*
X9334944Y-12630650D02*
X9353991Y-12640174D01*
X9353991Y-12640174D02*
X9363515Y-12659222D01*
X9363515Y-12659222D02*
X9363515Y-12763984D01*
X9753991Y-12554460D02*
X9582563Y-12811603D01*
X10011134Y-12563984D02*
X10030182Y-12563984D01*
X10030182Y-12563984D02*
X10049229Y-12573508D01*
X10049229Y-12573508D02*
X10058753Y-12583031D01*
X10058753Y-12583031D02*
X10068277Y-12602079D01*
X10068277Y-12602079D02*
X10077801Y-12640174D01*
X10077801Y-12640174D02*
X10077801Y-12687793D01*
X10077801Y-12687793D02*
X10068277Y-12725888D01*
X10068277Y-12725888D02*
X10058753Y-12744936D01*
X10058753Y-12744936D02*
X10049229Y-12754460D01*
X10049229Y-12754460D02*
X10030182Y-12763984D01*
X10030182Y-12763984D02*
X10011134Y-12763984D01*
X10011134Y-12763984D02*
X9992087Y-12754460D01*
X9992087Y-12754460D02*
X9982563Y-12744936D01*
X9982563Y-12744936D02*
X9973039Y-12725888D01*
X9973039Y-12725888D02*
X9963515Y-12687793D01*
X9963515Y-12687793D02*
X9963515Y-12640174D01*
X9963515Y-12640174D02*
X9973039Y-12602079D01*
X9973039Y-12602079D02*
X9982563Y-12583031D01*
X9982563Y-12583031D02*
X9992087Y-12573508D01*
X9992087Y-12573508D02*
X10011134Y-12563984D01*
X10163515Y-12744936D02*
X10173039Y-12754460D01*
X10173039Y-12754460D02*
X10163515Y-12763984D01*
X10163515Y-12763984D02*
X10153991Y-12754460D01*
X10153991Y-12754460D02*
X10163515Y-12744936D01*
X10163515Y-12744936D02*
X10163515Y-12763984D01*
X10296848Y-12563984D02*
X10315896Y-12563984D01*
X10315896Y-12563984D02*
X10334944Y-12573508D01*
X10334944Y-12573508D02*
X10344468Y-12583031D01*
X10344468Y-12583031D02*
X10353991Y-12602079D01*
X10353991Y-12602079D02*
X10363515Y-12640174D01*
X10363515Y-12640174D02*
X10363515Y-12687793D01*
X10363515Y-12687793D02*
X10353991Y-12725888D01*
X10353991Y-12725888D02*
X10344468Y-12744936D01*
X10344468Y-12744936D02*
X10334944Y-12754460D01*
X10334944Y-12754460D02*
X10315896Y-12763984D01*
X10315896Y-12763984D02*
X10296848Y-12763984D01*
X10296848Y-12763984D02*
X10277801Y-12754460D01*
X10277801Y-12754460D02*
X10268277Y-12744936D01*
X10268277Y-12744936D02*
X10258753Y-12725888D01*
X10258753Y-12725888D02*
X10249229Y-12687793D01*
X10249229Y-12687793D02*
X10249229Y-12640174D01*
X10249229Y-12640174D02*
X10258753Y-12602079D01*
X10258753Y-12602079D02*
X10268277Y-12583031D01*
X10268277Y-12583031D02*
X10277801Y-12573508D01*
X10277801Y-12573508D02*
X10296848Y-12563984D01*
X10487325Y-12563984D02*
X10506372Y-12563984D01*
X10506372Y-12563984D02*
X10525420Y-12573508D01*
X10525420Y-12573508D02*
X10534944Y-12583031D01*
X10534944Y-12583031D02*
X10544468Y-12602079D01*
X10544468Y-12602079D02*
X10553991Y-12640174D01*
X10553991Y-12640174D02*
X10553991Y-12687793D01*
X10553991Y-12687793D02*
X10544468Y-12725888D01*
X10544468Y-12725888D02*
X10534944Y-12744936D01*
X10534944Y-12744936D02*
X10525420Y-12754460D01*
X10525420Y-12754460D02*
X10506372Y-12763984D01*
X10506372Y-12763984D02*
X10487325Y-12763984D01*
X10487325Y-12763984D02*
X10468277Y-12754460D01*
X10468277Y-12754460D02*
X10458753Y-12744936D01*
X10458753Y-12744936D02*
X10449229Y-12725888D01*
X10449229Y-12725888D02*
X10439706Y-12687793D01*
X10439706Y-12687793D02*
X10439706Y-12640174D01*
X10439706Y-12640174D02*
X10449229Y-12602079D01*
X10449229Y-12602079D02*
X10458753Y-12583031D01*
X10458753Y-12583031D02*
X10468277Y-12573508D01*
X10468277Y-12573508D02*
X10487325Y-12563984D01*
X10620658Y-12563984D02*
X10753991Y-12563984D01*
X10753991Y-12563984D02*
X10668277Y-12763984D01*
X10839706Y-12763984D02*
X10877801Y-12763984D01*
X10877801Y-12763984D02*
X10896849Y-12754460D01*
X10896849Y-12754460D02*
X10906372Y-12744936D01*
X10906372Y-12744936D02*
X10925420Y-12716365D01*
X10925420Y-12716365D02*
X10934944Y-12678269D01*
X10934944Y-12678269D02*
X10934944Y-12602079D01*
X10934944Y-12602079D02*
X10925420Y-12583031D01*
X10925420Y-12583031D02*
X10915896Y-12573508D01*
X10915896Y-12573508D02*
X10896849Y-12563984D01*
X10896849Y-12563984D02*
X10858753Y-12563984D01*
X10858753Y-12563984D02*
X10839706Y-12573508D01*
X10839706Y-12573508D02*
X10830182Y-12583031D01*
X10830182Y-12583031D02*
X10820658Y-12602079D01*
X10820658Y-12602079D02*
X10820658Y-12649698D01*
X10820658Y-12649698D02*
X10830182Y-12668746D01*
X10830182Y-12668746D02*
X10839706Y-12678269D01*
X10839706Y-12678269D02*
X10858753Y-12687793D01*
X10858753Y-12687793D02*
X10896849Y-12687793D01*
X10896849Y-12687793D02*
X10915896Y-12678269D01*
X10915896Y-12678269D02*
X10925420Y-12668746D01*
X10925420Y-12668746D02*
X10934944Y-12649698D01*
X11011134Y-12563984D02*
X11011134Y-12602079D01*
X11087325Y-12563984D02*
X11087325Y-12602079D01*
X11382563Y-12840174D02*
X11373039Y-12830650D01*
X11373039Y-12830650D02*
X11353991Y-12802079D01*
X11353991Y-12802079D02*
X11344468Y-12783031D01*
X11344468Y-12783031D02*
X11334944Y-12754460D01*
X11334944Y-12754460D02*
X11325420Y-12706841D01*
X11325420Y-12706841D02*
X11325420Y-12668746D01*
X11325420Y-12668746D02*
X11334944Y-12621127D01*
X11334944Y-12621127D02*
X11344468Y-12592555D01*
X11344468Y-12592555D02*
X11353991Y-12573508D01*
X11353991Y-12573508D02*
X11373039Y-12544936D01*
X11373039Y-12544936D02*
X11382563Y-12535412D01*
X11563515Y-12763984D02*
X11449229Y-12763984D01*
X11506372Y-12763984D02*
X11506372Y-12563984D01*
X11506372Y-12563984D02*
X11487325Y-12592555D01*
X11487325Y-12592555D02*
X11468277Y-12611603D01*
X11468277Y-12611603D02*
X11449229Y-12621127D01*
X11639706Y-12583031D02*
X11649229Y-12573508D01*
X11649229Y-12573508D02*
X11668277Y-12563984D01*
X11668277Y-12563984D02*
X11715896Y-12563984D01*
X11715896Y-12563984D02*
X11734944Y-12573508D01*
X11734944Y-12573508D02*
X11744468Y-12583031D01*
X11744468Y-12583031D02*
X11753991Y-12602079D01*
X11753991Y-12602079D02*
X11753991Y-12621127D01*
X11753991Y-12621127D02*
X11744468Y-12649698D01*
X11744468Y-12649698D02*
X11630182Y-12763984D01*
X11630182Y-12763984D02*
X11753991Y-12763984D01*
X11992087Y-12763984D02*
X11992087Y-12563984D01*
X12077801Y-12763984D02*
X12077801Y-12659222D01*
X12077801Y-12659222D02*
X12068277Y-12640174D01*
X12068277Y-12640174D02*
X12049230Y-12630650D01*
X12049230Y-12630650D02*
X12020658Y-12630650D01*
X12020658Y-12630650D02*
X12001610Y-12640174D01*
X12001610Y-12640174D02*
X11992087Y-12649698D01*
X12201610Y-12763984D02*
X12182563Y-12754460D01*
X12182563Y-12754460D02*
X12173039Y-12744936D01*
X12173039Y-12744936D02*
X12163515Y-12725888D01*
X12163515Y-12725888D02*
X12163515Y-12668746D01*
X12163515Y-12668746D02*
X12173039Y-12649698D01*
X12173039Y-12649698D02*
X12182563Y-12640174D01*
X12182563Y-12640174D02*
X12201610Y-12630650D01*
X12201610Y-12630650D02*
X12230182Y-12630650D01*
X12230182Y-12630650D02*
X12249230Y-12640174D01*
X12249230Y-12640174D02*
X12258753Y-12649698D01*
X12258753Y-12649698D02*
X12268277Y-12668746D01*
X12268277Y-12668746D02*
X12268277Y-12725888D01*
X12268277Y-12725888D02*
X12258753Y-12744936D01*
X12258753Y-12744936D02*
X12249230Y-12754460D01*
X12249230Y-12754460D02*
X12230182Y-12763984D01*
X12230182Y-12763984D02*
X12201610Y-12763984D01*
X12382563Y-12763984D02*
X12363515Y-12754460D01*
X12363515Y-12754460D02*
X12353991Y-12735412D01*
X12353991Y-12735412D02*
X12353991Y-12563984D01*
X12534944Y-12754460D02*
X12515896Y-12763984D01*
X12515896Y-12763984D02*
X12477801Y-12763984D01*
X12477801Y-12763984D02*
X12458753Y-12754460D01*
X12458753Y-12754460D02*
X12449230Y-12735412D01*
X12449230Y-12735412D02*
X12449230Y-12659222D01*
X12449230Y-12659222D02*
X12458753Y-12640174D01*
X12458753Y-12640174D02*
X12477801Y-12630650D01*
X12477801Y-12630650D02*
X12515896Y-12630650D01*
X12515896Y-12630650D02*
X12534944Y-12640174D01*
X12534944Y-12640174D02*
X12544468Y-12659222D01*
X12544468Y-12659222D02*
X12544468Y-12678269D01*
X12544468Y-12678269D02*
X12449230Y-12697317D01*
X12620658Y-12754460D02*
X12639706Y-12763984D01*
X12639706Y-12763984D02*
X12677801Y-12763984D01*
X12677801Y-12763984D02*
X12696849Y-12754460D01*
X12696849Y-12754460D02*
X12706372Y-12735412D01*
X12706372Y-12735412D02*
X12706372Y-12725888D01*
X12706372Y-12725888D02*
X12696849Y-12706841D01*
X12696849Y-12706841D02*
X12677801Y-12697317D01*
X12677801Y-12697317D02*
X12649230Y-12697317D01*
X12649230Y-12697317D02*
X12630182Y-12687793D01*
X12630182Y-12687793D02*
X12620658Y-12668746D01*
X12620658Y-12668746D02*
X12620658Y-12659222D01*
X12620658Y-12659222D02*
X12630182Y-12640174D01*
X12630182Y-12640174D02*
X12649230Y-12630650D01*
X12649230Y-12630650D02*
X12677801Y-12630650D01*
X12677801Y-12630650D02*
X12696849Y-12640174D01*
X12773039Y-12840174D02*
X12782563Y-12830650D01*
X12782563Y-12830650D02*
X12801611Y-12802079D01*
X12801611Y-12802079D02*
X12811134Y-12783031D01*
X12811134Y-12783031D02*
X12820658Y-12754460D01*
X12820658Y-12754460D02*
X12830182Y-12706841D01*
X12830182Y-12706841D02*
X12830182Y-12668746D01*
X12830182Y-12668746D02*
X12820658Y-12621127D01*
X12820658Y-12621127D02*
X12811134Y-12592555D01*
X12811134Y-12592555D02*
X12801611Y-12573508D01*
X12801611Y-12573508D02*
X12782563Y-12544936D01*
X12782563Y-12544936D02*
X12773039Y-12535412D01*
D12*
X7807500Y-12936500D02*
G75*
G02*
X7777500Y-12936500I-15000J0D01*
G01*
X7777500Y-12936500D02*
G75*
G02*
X7807500Y-12936500I15000J0D01*
G01*
D11*
X8106372Y-12827984D02*
X8125420Y-12827984D01*
X8125420Y-12827984D02*
X8144467Y-12837508D01*
X8144467Y-12837508D02*
X8153991Y-12847031D01*
X8153991Y-12847031D02*
X8163515Y-12866079D01*
X8163515Y-12866079D02*
X8173039Y-12904174D01*
X8173039Y-12904174D02*
X8173039Y-12951793D01*
X8173039Y-12951793D02*
X8163515Y-12989888D01*
X8163515Y-12989888D02*
X8153991Y-13008936D01*
X8153991Y-13008936D02*
X8144467Y-13018460D01*
X8144467Y-13018460D02*
X8125420Y-13027984D01*
X8125420Y-13027984D02*
X8106372Y-13027984D01*
X8106372Y-13027984D02*
X8087324Y-13018460D01*
X8087324Y-13018460D02*
X8077801Y-13008936D01*
X8077801Y-13008936D02*
X8068277Y-12989888D01*
X8068277Y-12989888D02*
X8058753Y-12951793D01*
X8058753Y-12951793D02*
X8058753Y-12904174D01*
X8058753Y-12904174D02*
X8068277Y-12866079D01*
X8068277Y-12866079D02*
X8077801Y-12847031D01*
X8077801Y-12847031D02*
X8087324Y-12837508D01*
X8087324Y-12837508D02*
X8106372Y-12827984D01*
X8258753Y-13008936D02*
X8268277Y-13018460D01*
X8268277Y-13018460D02*
X8258753Y-13027984D01*
X8258753Y-13027984D02*
X8249229Y-13018460D01*
X8249229Y-13018460D02*
X8258753Y-13008936D01*
X8258753Y-13008936D02*
X8258753Y-13027984D01*
X8334943Y-12827984D02*
X8458753Y-12827984D01*
X8458753Y-12827984D02*
X8392086Y-12904174D01*
X8392086Y-12904174D02*
X8420658Y-12904174D01*
X8420658Y-12904174D02*
X8439705Y-12913698D01*
X8439705Y-12913698D02*
X8449229Y-12923222D01*
X8449229Y-12923222D02*
X8458753Y-12942269D01*
X8458753Y-12942269D02*
X8458753Y-12989888D01*
X8458753Y-12989888D02*
X8449229Y-13008936D01*
X8449229Y-13008936D02*
X8439705Y-13018460D01*
X8439705Y-13018460D02*
X8420658Y-13027984D01*
X8420658Y-13027984D02*
X8363515Y-13027984D01*
X8363515Y-13027984D02*
X8344467Y-13018460D01*
X8344467Y-13018460D02*
X8334943Y-13008936D01*
X8582563Y-12827984D02*
X8601610Y-12827984D01*
X8601610Y-12827984D02*
X8620658Y-12837508D01*
X8620658Y-12837508D02*
X8630182Y-12847031D01*
X8630182Y-12847031D02*
X8639705Y-12866079D01*
X8639705Y-12866079D02*
X8649229Y-12904174D01*
X8649229Y-12904174D02*
X8649229Y-12951793D01*
X8649229Y-12951793D02*
X8639705Y-12989888D01*
X8639705Y-12989888D02*
X8630182Y-13008936D01*
X8630182Y-13008936D02*
X8620658Y-13018460D01*
X8620658Y-13018460D02*
X8601610Y-13027984D01*
X8601610Y-13027984D02*
X8582563Y-13027984D01*
X8582563Y-13027984D02*
X8563515Y-13018460D01*
X8563515Y-13018460D02*
X8553991Y-13008936D01*
X8553991Y-13008936D02*
X8544467Y-12989888D01*
X8544467Y-12989888D02*
X8534944Y-12951793D01*
X8534944Y-12951793D02*
X8534944Y-12904174D01*
X8534944Y-12904174D02*
X8544467Y-12866079D01*
X8544467Y-12866079D02*
X8553991Y-12847031D01*
X8553991Y-12847031D02*
X8563515Y-12837508D01*
X8563515Y-12837508D02*
X8582563Y-12827984D01*
X8773039Y-12827984D02*
X8792086Y-12827984D01*
X8792086Y-12827984D02*
X8811134Y-12837508D01*
X8811134Y-12837508D02*
X8820658Y-12847031D01*
X8820658Y-12847031D02*
X8830182Y-12866079D01*
X8830182Y-12866079D02*
X8839705Y-12904174D01*
X8839705Y-12904174D02*
X8839705Y-12951793D01*
X8839705Y-12951793D02*
X8830182Y-12989888D01*
X8830182Y-12989888D02*
X8820658Y-13008936D01*
X8820658Y-13008936D02*
X8811134Y-13018460D01*
X8811134Y-13018460D02*
X8792086Y-13027984D01*
X8792086Y-13027984D02*
X8773039Y-13027984D01*
X8773039Y-13027984D02*
X8753991Y-13018460D01*
X8753991Y-13018460D02*
X8744467Y-13008936D01*
X8744467Y-13008936D02*
X8734944Y-12989888D01*
X8734944Y-12989888D02*
X8725420Y-12951793D01*
X8725420Y-12951793D02*
X8725420Y-12904174D01*
X8725420Y-12904174D02*
X8734944Y-12866079D01*
X8734944Y-12866079D02*
X8744467Y-12847031D01*
X8744467Y-12847031D02*
X8753991Y-12837508D01*
X8753991Y-12837508D02*
X8773039Y-12827984D01*
X8925420Y-13027984D02*
X8925420Y-12894650D01*
X8925420Y-12913698D02*
X8934944Y-12904174D01*
X8934944Y-12904174D02*
X8953991Y-12894650D01*
X8953991Y-12894650D02*
X8982563Y-12894650D01*
X8982563Y-12894650D02*
X9001610Y-12904174D01*
X9001610Y-12904174D02*
X9011134Y-12923222D01*
X9011134Y-12923222D02*
X9011134Y-13027984D01*
X9011134Y-12923222D02*
X9020658Y-12904174D01*
X9020658Y-12904174D02*
X9039705Y-12894650D01*
X9039705Y-12894650D02*
X9068277Y-12894650D01*
X9068277Y-12894650D02*
X9087325Y-12904174D01*
X9087325Y-12904174D02*
X9096848Y-12923222D01*
X9096848Y-12923222D02*
X9096848Y-13027984D01*
X9192086Y-13027984D02*
X9192086Y-12894650D01*
X9192086Y-12913698D02*
X9201610Y-12904174D01*
X9201610Y-12904174D02*
X9220658Y-12894650D01*
X9220658Y-12894650D02*
X9249229Y-12894650D01*
X9249229Y-12894650D02*
X9268277Y-12904174D01*
X9268277Y-12904174D02*
X9277801Y-12923222D01*
X9277801Y-12923222D02*
X9277801Y-13027984D01*
X9277801Y-12923222D02*
X9287325Y-12904174D01*
X9287325Y-12904174D02*
X9306372Y-12894650D01*
X9306372Y-12894650D02*
X9334944Y-12894650D01*
X9334944Y-12894650D02*
X9353991Y-12904174D01*
X9353991Y-12904174D02*
X9363515Y-12923222D01*
X9363515Y-12923222D02*
X9363515Y-13027984D01*
X9753991Y-12818460D02*
X9582563Y-13075603D01*
X10011134Y-12827984D02*
X10030182Y-12827984D01*
X10030182Y-12827984D02*
X10049229Y-12837508D01*
X10049229Y-12837508D02*
X10058753Y-12847031D01*
X10058753Y-12847031D02*
X10068277Y-12866079D01*
X10068277Y-12866079D02*
X10077801Y-12904174D01*
X10077801Y-12904174D02*
X10077801Y-12951793D01*
X10077801Y-12951793D02*
X10068277Y-12989888D01*
X10068277Y-12989888D02*
X10058753Y-13008936D01*
X10058753Y-13008936D02*
X10049229Y-13018460D01*
X10049229Y-13018460D02*
X10030182Y-13027984D01*
X10030182Y-13027984D02*
X10011134Y-13027984D01*
X10011134Y-13027984D02*
X9992087Y-13018460D01*
X9992087Y-13018460D02*
X9982563Y-13008936D01*
X9982563Y-13008936D02*
X9973039Y-12989888D01*
X9973039Y-12989888D02*
X9963515Y-12951793D01*
X9963515Y-12951793D02*
X9963515Y-12904174D01*
X9963515Y-12904174D02*
X9973039Y-12866079D01*
X9973039Y-12866079D02*
X9982563Y-12847031D01*
X9982563Y-12847031D02*
X9992087Y-12837508D01*
X9992087Y-12837508D02*
X10011134Y-12827984D01*
X10163515Y-13008936D02*
X10173039Y-13018460D01*
X10173039Y-13018460D02*
X10163515Y-13027984D01*
X10163515Y-13027984D02*
X10153991Y-13018460D01*
X10153991Y-13018460D02*
X10163515Y-13008936D01*
X10163515Y-13008936D02*
X10163515Y-13027984D01*
X10296848Y-12827984D02*
X10315896Y-12827984D01*
X10315896Y-12827984D02*
X10334944Y-12837508D01*
X10334944Y-12837508D02*
X10344468Y-12847031D01*
X10344468Y-12847031D02*
X10353991Y-12866079D01*
X10353991Y-12866079D02*
X10363515Y-12904174D01*
X10363515Y-12904174D02*
X10363515Y-12951793D01*
X10363515Y-12951793D02*
X10353991Y-12989888D01*
X10353991Y-12989888D02*
X10344468Y-13008936D01*
X10344468Y-13008936D02*
X10334944Y-13018460D01*
X10334944Y-13018460D02*
X10315896Y-13027984D01*
X10315896Y-13027984D02*
X10296848Y-13027984D01*
X10296848Y-13027984D02*
X10277801Y-13018460D01*
X10277801Y-13018460D02*
X10268277Y-13008936D01*
X10268277Y-13008936D02*
X10258753Y-12989888D01*
X10258753Y-12989888D02*
X10249229Y-12951793D01*
X10249229Y-12951793D02*
X10249229Y-12904174D01*
X10249229Y-12904174D02*
X10258753Y-12866079D01*
X10258753Y-12866079D02*
X10268277Y-12847031D01*
X10268277Y-12847031D02*
X10277801Y-12837508D01*
X10277801Y-12837508D02*
X10296848Y-12827984D01*
X10553991Y-13027984D02*
X10439706Y-13027984D01*
X10496848Y-13027984D02*
X10496848Y-12827984D01*
X10496848Y-12827984D02*
X10477801Y-12856555D01*
X10477801Y-12856555D02*
X10458753Y-12875603D01*
X10458753Y-12875603D02*
X10439706Y-12885127D01*
X10744468Y-13027984D02*
X10630182Y-13027984D01*
X10687325Y-13027984D02*
X10687325Y-12827984D01*
X10687325Y-12827984D02*
X10668277Y-12856555D01*
X10668277Y-12856555D02*
X10649229Y-12875603D01*
X10649229Y-12875603D02*
X10630182Y-12885127D01*
X10858753Y-12913698D02*
X10839706Y-12904174D01*
X10839706Y-12904174D02*
X10830182Y-12894650D01*
X10830182Y-12894650D02*
X10820658Y-12875603D01*
X10820658Y-12875603D02*
X10820658Y-12866079D01*
X10820658Y-12866079D02*
X10830182Y-12847031D01*
X10830182Y-12847031D02*
X10839706Y-12837508D01*
X10839706Y-12837508D02*
X10858753Y-12827984D01*
X10858753Y-12827984D02*
X10896849Y-12827984D01*
X10896849Y-12827984D02*
X10915896Y-12837508D01*
X10915896Y-12837508D02*
X10925420Y-12847031D01*
X10925420Y-12847031D02*
X10934944Y-12866079D01*
X10934944Y-12866079D02*
X10934944Y-12875603D01*
X10934944Y-12875603D02*
X10925420Y-12894650D01*
X10925420Y-12894650D02*
X10915896Y-12904174D01*
X10915896Y-12904174D02*
X10896849Y-12913698D01*
X10896849Y-12913698D02*
X10858753Y-12913698D01*
X10858753Y-12913698D02*
X10839706Y-12923222D01*
X10839706Y-12923222D02*
X10830182Y-12932746D01*
X10830182Y-12932746D02*
X10820658Y-12951793D01*
X10820658Y-12951793D02*
X10820658Y-12989888D01*
X10820658Y-12989888D02*
X10830182Y-13008936D01*
X10830182Y-13008936D02*
X10839706Y-13018460D01*
X10839706Y-13018460D02*
X10858753Y-13027984D01*
X10858753Y-13027984D02*
X10896849Y-13027984D01*
X10896849Y-13027984D02*
X10915896Y-13018460D01*
X10915896Y-13018460D02*
X10925420Y-13008936D01*
X10925420Y-13008936D02*
X10934944Y-12989888D01*
X10934944Y-12989888D02*
X10934944Y-12951793D01*
X10934944Y-12951793D02*
X10925420Y-12932746D01*
X10925420Y-12932746D02*
X10915896Y-12923222D01*
X10915896Y-12923222D02*
X10896849Y-12913698D01*
X11011134Y-12827984D02*
X11011134Y-12866079D01*
X11087325Y-12827984D02*
X11087325Y-12866079D01*
X11382563Y-13104174D02*
X11373039Y-13094650D01*
X11373039Y-13094650D02*
X11353991Y-13066079D01*
X11353991Y-13066079D02*
X11344468Y-13047031D01*
X11344468Y-13047031D02*
X11334944Y-13018460D01*
X11334944Y-13018460D02*
X11325420Y-12970841D01*
X11325420Y-12970841D02*
X11325420Y-12932746D01*
X11325420Y-12932746D02*
X11334944Y-12885127D01*
X11334944Y-12885127D02*
X11344468Y-12856555D01*
X11344468Y-12856555D02*
X11353991Y-12837508D01*
X11353991Y-12837508D02*
X11373039Y-12808936D01*
X11373039Y-12808936D02*
X11382563Y-12799412D01*
X11563515Y-13027984D02*
X11449229Y-13027984D01*
X11506372Y-13027984D02*
X11506372Y-12827984D01*
X11506372Y-12827984D02*
X11487325Y-12856555D01*
X11487325Y-12856555D02*
X11468277Y-12875603D01*
X11468277Y-12875603D02*
X11449229Y-12885127D01*
X11658753Y-13027984D02*
X11696848Y-13027984D01*
X11696848Y-13027984D02*
X11715896Y-13018460D01*
X11715896Y-13018460D02*
X11725420Y-13008936D01*
X11725420Y-13008936D02*
X11744468Y-12980365D01*
X11744468Y-12980365D02*
X11753991Y-12942269D01*
X11753991Y-12942269D02*
X11753991Y-12866079D01*
X11753991Y-12866079D02*
X11744468Y-12847031D01*
X11744468Y-12847031D02*
X11734944Y-12837508D01*
X11734944Y-12837508D02*
X11715896Y-12827984D01*
X11715896Y-12827984D02*
X11677801Y-12827984D01*
X11677801Y-12827984D02*
X11658753Y-12837508D01*
X11658753Y-12837508D02*
X11649229Y-12847031D01*
X11649229Y-12847031D02*
X11639706Y-12866079D01*
X11639706Y-12866079D02*
X11639706Y-12913698D01*
X11639706Y-12913698D02*
X11649229Y-12932746D01*
X11649229Y-12932746D02*
X11658753Y-12942269D01*
X11658753Y-12942269D02*
X11677801Y-12951793D01*
X11677801Y-12951793D02*
X11715896Y-12951793D01*
X11715896Y-12951793D02*
X11734944Y-12942269D01*
X11734944Y-12942269D02*
X11744468Y-12932746D01*
X11744468Y-12932746D02*
X11753991Y-12913698D01*
X11992087Y-13027984D02*
X11992087Y-12827984D01*
X12077801Y-13027984D02*
X12077801Y-12923222D01*
X12077801Y-12923222D02*
X12068277Y-12904174D01*
X12068277Y-12904174D02*
X12049230Y-12894650D01*
X12049230Y-12894650D02*
X12020658Y-12894650D01*
X12020658Y-12894650D02*
X12001610Y-12904174D01*
X12001610Y-12904174D02*
X11992087Y-12913698D01*
X12201610Y-13027984D02*
X12182563Y-13018460D01*
X12182563Y-13018460D02*
X12173039Y-13008936D01*
X12173039Y-13008936D02*
X12163515Y-12989888D01*
X12163515Y-12989888D02*
X12163515Y-12932746D01*
X12163515Y-12932746D02*
X12173039Y-12913698D01*
X12173039Y-12913698D02*
X12182563Y-12904174D01*
X12182563Y-12904174D02*
X12201610Y-12894650D01*
X12201610Y-12894650D02*
X12230182Y-12894650D01*
X12230182Y-12894650D02*
X12249230Y-12904174D01*
X12249230Y-12904174D02*
X12258753Y-12913698D01*
X12258753Y-12913698D02*
X12268277Y-12932746D01*
X12268277Y-12932746D02*
X12268277Y-12989888D01*
X12268277Y-12989888D02*
X12258753Y-13008936D01*
X12258753Y-13008936D02*
X12249230Y-13018460D01*
X12249230Y-13018460D02*
X12230182Y-13027984D01*
X12230182Y-13027984D02*
X12201610Y-13027984D01*
X12382563Y-13027984D02*
X12363515Y-13018460D01*
X12363515Y-13018460D02*
X12353991Y-12999412D01*
X12353991Y-12999412D02*
X12353991Y-12827984D01*
X12534944Y-13018460D02*
X12515896Y-13027984D01*
X12515896Y-13027984D02*
X12477801Y-13027984D01*
X12477801Y-13027984D02*
X12458753Y-13018460D01*
X12458753Y-13018460D02*
X12449230Y-12999412D01*
X12449230Y-12999412D02*
X12449230Y-12923222D01*
X12449230Y-12923222D02*
X12458753Y-12904174D01*
X12458753Y-12904174D02*
X12477801Y-12894650D01*
X12477801Y-12894650D02*
X12515896Y-12894650D01*
X12515896Y-12894650D02*
X12534944Y-12904174D01*
X12534944Y-12904174D02*
X12544468Y-12923222D01*
X12544468Y-12923222D02*
X12544468Y-12942269D01*
X12544468Y-12942269D02*
X12449230Y-12961317D01*
X12620658Y-13018460D02*
X12639706Y-13027984D01*
X12639706Y-13027984D02*
X12677801Y-13027984D01*
X12677801Y-13027984D02*
X12696849Y-13018460D01*
X12696849Y-13018460D02*
X12706372Y-12999412D01*
X12706372Y-12999412D02*
X12706372Y-12989888D01*
X12706372Y-12989888D02*
X12696849Y-12970841D01*
X12696849Y-12970841D02*
X12677801Y-12961317D01*
X12677801Y-12961317D02*
X12649230Y-12961317D01*
X12649230Y-12961317D02*
X12630182Y-12951793D01*
X12630182Y-12951793D02*
X12620658Y-12932746D01*
X12620658Y-12932746D02*
X12620658Y-12923222D01*
X12620658Y-12923222D02*
X12630182Y-12904174D01*
X12630182Y-12904174D02*
X12649230Y-12894650D01*
X12649230Y-12894650D02*
X12677801Y-12894650D01*
X12677801Y-12894650D02*
X12696849Y-12904174D01*
X12773039Y-13104174D02*
X12782563Y-13094650D01*
X12782563Y-13094650D02*
X12801611Y-13066079D01*
X12801611Y-13066079D02*
X12811134Y-13047031D01*
X12811134Y-13047031D02*
X12820658Y-13018460D01*
X12820658Y-13018460D02*
X12830182Y-12970841D01*
X12830182Y-12970841D02*
X12830182Y-12932746D01*
X12830182Y-12932746D02*
X12820658Y-12885127D01*
X12820658Y-12885127D02*
X12811134Y-12856555D01*
X12811134Y-12856555D02*
X12801611Y-12837508D01*
X12801611Y-12837508D02*
X12782563Y-12808936D01*
X12782563Y-12808936D02*
X12773039Y-12799412D01*
D12*
X7782500Y-13175500D02*
X7782500Y-13225500D01*
X7757500Y-13200500D02*
X7807500Y-13200500D01*
D11*
X8106372Y-13091984D02*
X8125420Y-13091984D01*
X8125420Y-13091984D02*
X8144467Y-13101508D01*
X8144467Y-13101508D02*
X8153991Y-13111031D01*
X8153991Y-13111031D02*
X8163515Y-13130079D01*
X8163515Y-13130079D02*
X8173039Y-13168174D01*
X8173039Y-13168174D02*
X8173039Y-13215793D01*
X8173039Y-13215793D02*
X8163515Y-13253888D01*
X8163515Y-13253888D02*
X8153991Y-13272936D01*
X8153991Y-13272936D02*
X8144467Y-13282460D01*
X8144467Y-13282460D02*
X8125420Y-13291984D01*
X8125420Y-13291984D02*
X8106372Y-13291984D01*
X8106372Y-13291984D02*
X8087324Y-13282460D01*
X8087324Y-13282460D02*
X8077801Y-13272936D01*
X8077801Y-13272936D02*
X8068277Y-13253888D01*
X8068277Y-13253888D02*
X8058753Y-13215793D01*
X8058753Y-13215793D02*
X8058753Y-13168174D01*
X8058753Y-13168174D02*
X8068277Y-13130079D01*
X8068277Y-13130079D02*
X8077801Y-13111031D01*
X8077801Y-13111031D02*
X8087324Y-13101508D01*
X8087324Y-13101508D02*
X8106372Y-13091984D01*
X8258753Y-13272936D02*
X8268277Y-13282460D01*
X8268277Y-13282460D02*
X8258753Y-13291984D01*
X8258753Y-13291984D02*
X8249229Y-13282460D01*
X8249229Y-13282460D02*
X8258753Y-13272936D01*
X8258753Y-13272936D02*
X8258753Y-13291984D01*
X8449229Y-13091984D02*
X8353991Y-13091984D01*
X8353991Y-13091984D02*
X8344467Y-13187222D01*
X8344467Y-13187222D02*
X8353991Y-13177698D01*
X8353991Y-13177698D02*
X8373039Y-13168174D01*
X8373039Y-13168174D02*
X8420658Y-13168174D01*
X8420658Y-13168174D02*
X8439705Y-13177698D01*
X8439705Y-13177698D02*
X8449229Y-13187222D01*
X8449229Y-13187222D02*
X8458753Y-13206269D01*
X8458753Y-13206269D02*
X8458753Y-13253888D01*
X8458753Y-13253888D02*
X8449229Y-13272936D01*
X8449229Y-13272936D02*
X8439705Y-13282460D01*
X8439705Y-13282460D02*
X8420658Y-13291984D01*
X8420658Y-13291984D02*
X8373039Y-13291984D01*
X8373039Y-13291984D02*
X8353991Y-13282460D01*
X8353991Y-13282460D02*
X8344467Y-13272936D01*
X8582563Y-13091984D02*
X8601610Y-13091984D01*
X8601610Y-13091984D02*
X8620658Y-13101508D01*
X8620658Y-13101508D02*
X8630182Y-13111031D01*
X8630182Y-13111031D02*
X8639705Y-13130079D01*
X8639705Y-13130079D02*
X8649229Y-13168174D01*
X8649229Y-13168174D02*
X8649229Y-13215793D01*
X8649229Y-13215793D02*
X8639705Y-13253888D01*
X8639705Y-13253888D02*
X8630182Y-13272936D01*
X8630182Y-13272936D02*
X8620658Y-13282460D01*
X8620658Y-13282460D02*
X8601610Y-13291984D01*
X8601610Y-13291984D02*
X8582563Y-13291984D01*
X8582563Y-13291984D02*
X8563515Y-13282460D01*
X8563515Y-13282460D02*
X8553991Y-13272936D01*
X8553991Y-13272936D02*
X8544467Y-13253888D01*
X8544467Y-13253888D02*
X8534944Y-13215793D01*
X8534944Y-13215793D02*
X8534944Y-13168174D01*
X8534944Y-13168174D02*
X8544467Y-13130079D01*
X8544467Y-13130079D02*
X8553991Y-13111031D01*
X8553991Y-13111031D02*
X8563515Y-13101508D01*
X8563515Y-13101508D02*
X8582563Y-13091984D01*
X8773039Y-13091984D02*
X8792086Y-13091984D01*
X8792086Y-13091984D02*
X8811134Y-13101508D01*
X8811134Y-13101508D02*
X8820658Y-13111031D01*
X8820658Y-13111031D02*
X8830182Y-13130079D01*
X8830182Y-13130079D02*
X8839705Y-13168174D01*
X8839705Y-13168174D02*
X8839705Y-13215793D01*
X8839705Y-13215793D02*
X8830182Y-13253888D01*
X8830182Y-13253888D02*
X8820658Y-13272936D01*
X8820658Y-13272936D02*
X8811134Y-13282460D01*
X8811134Y-13282460D02*
X8792086Y-13291984D01*
X8792086Y-13291984D02*
X8773039Y-13291984D01*
X8773039Y-13291984D02*
X8753991Y-13282460D01*
X8753991Y-13282460D02*
X8744467Y-13272936D01*
X8744467Y-13272936D02*
X8734944Y-13253888D01*
X8734944Y-13253888D02*
X8725420Y-13215793D01*
X8725420Y-13215793D02*
X8725420Y-13168174D01*
X8725420Y-13168174D02*
X8734944Y-13130079D01*
X8734944Y-13130079D02*
X8744467Y-13111031D01*
X8744467Y-13111031D02*
X8753991Y-13101508D01*
X8753991Y-13101508D02*
X8773039Y-13091984D01*
X8925420Y-13291984D02*
X8925420Y-13158650D01*
X8925420Y-13177698D02*
X8934944Y-13168174D01*
X8934944Y-13168174D02*
X8953991Y-13158650D01*
X8953991Y-13158650D02*
X8982563Y-13158650D01*
X8982563Y-13158650D02*
X9001610Y-13168174D01*
X9001610Y-13168174D02*
X9011134Y-13187222D01*
X9011134Y-13187222D02*
X9011134Y-13291984D01*
X9011134Y-13187222D02*
X9020658Y-13168174D01*
X9020658Y-13168174D02*
X9039705Y-13158650D01*
X9039705Y-13158650D02*
X9068277Y-13158650D01*
X9068277Y-13158650D02*
X9087325Y-13168174D01*
X9087325Y-13168174D02*
X9096848Y-13187222D01*
X9096848Y-13187222D02*
X9096848Y-13291984D01*
X9192086Y-13291984D02*
X9192086Y-13158650D01*
X9192086Y-13177698D02*
X9201610Y-13168174D01*
X9201610Y-13168174D02*
X9220658Y-13158650D01*
X9220658Y-13158650D02*
X9249229Y-13158650D01*
X9249229Y-13158650D02*
X9268277Y-13168174D01*
X9268277Y-13168174D02*
X9277801Y-13187222D01*
X9277801Y-13187222D02*
X9277801Y-13291984D01*
X9277801Y-13187222D02*
X9287325Y-13168174D01*
X9287325Y-13168174D02*
X9306372Y-13158650D01*
X9306372Y-13158650D02*
X9334944Y-13158650D01*
X9334944Y-13158650D02*
X9353991Y-13168174D01*
X9353991Y-13168174D02*
X9363515Y-13187222D01*
X9363515Y-13187222D02*
X9363515Y-13291984D01*
X9753991Y-13082460D02*
X9582563Y-13339603D01*
X10011134Y-13091984D02*
X10030182Y-13091984D01*
X10030182Y-13091984D02*
X10049229Y-13101508D01*
X10049229Y-13101508D02*
X10058753Y-13111031D01*
X10058753Y-13111031D02*
X10068277Y-13130079D01*
X10068277Y-13130079D02*
X10077801Y-13168174D01*
X10077801Y-13168174D02*
X10077801Y-13215793D01*
X10077801Y-13215793D02*
X10068277Y-13253888D01*
X10068277Y-13253888D02*
X10058753Y-13272936D01*
X10058753Y-13272936D02*
X10049229Y-13282460D01*
X10049229Y-13282460D02*
X10030182Y-13291984D01*
X10030182Y-13291984D02*
X10011134Y-13291984D01*
X10011134Y-13291984D02*
X9992087Y-13282460D01*
X9992087Y-13282460D02*
X9982563Y-13272936D01*
X9982563Y-13272936D02*
X9973039Y-13253888D01*
X9973039Y-13253888D02*
X9963515Y-13215793D01*
X9963515Y-13215793D02*
X9963515Y-13168174D01*
X9963515Y-13168174D02*
X9973039Y-13130079D01*
X9973039Y-13130079D02*
X9982563Y-13111031D01*
X9982563Y-13111031D02*
X9992087Y-13101508D01*
X9992087Y-13101508D02*
X10011134Y-13091984D01*
X10163515Y-13272936D02*
X10173039Y-13282460D01*
X10173039Y-13282460D02*
X10163515Y-13291984D01*
X10163515Y-13291984D02*
X10153991Y-13282460D01*
X10153991Y-13282460D02*
X10163515Y-13272936D01*
X10163515Y-13272936D02*
X10163515Y-13291984D01*
X10296848Y-13091984D02*
X10315896Y-13091984D01*
X10315896Y-13091984D02*
X10334944Y-13101508D01*
X10334944Y-13101508D02*
X10344468Y-13111031D01*
X10344468Y-13111031D02*
X10353991Y-13130079D01*
X10353991Y-13130079D02*
X10363515Y-13168174D01*
X10363515Y-13168174D02*
X10363515Y-13215793D01*
X10363515Y-13215793D02*
X10353991Y-13253888D01*
X10353991Y-13253888D02*
X10344468Y-13272936D01*
X10344468Y-13272936D02*
X10334944Y-13282460D01*
X10334944Y-13282460D02*
X10315896Y-13291984D01*
X10315896Y-13291984D02*
X10296848Y-13291984D01*
X10296848Y-13291984D02*
X10277801Y-13282460D01*
X10277801Y-13282460D02*
X10268277Y-13272936D01*
X10268277Y-13272936D02*
X10258753Y-13253888D01*
X10258753Y-13253888D02*
X10249229Y-13215793D01*
X10249229Y-13215793D02*
X10249229Y-13168174D01*
X10249229Y-13168174D02*
X10258753Y-13130079D01*
X10258753Y-13130079D02*
X10268277Y-13111031D01*
X10268277Y-13111031D02*
X10277801Y-13101508D01*
X10277801Y-13101508D02*
X10296848Y-13091984D01*
X10553991Y-13291984D02*
X10439706Y-13291984D01*
X10496848Y-13291984D02*
X10496848Y-13091984D01*
X10496848Y-13091984D02*
X10477801Y-13120555D01*
X10477801Y-13120555D02*
X10458753Y-13139603D01*
X10458753Y-13139603D02*
X10439706Y-13149127D01*
X10649229Y-13291984D02*
X10687325Y-13291984D01*
X10687325Y-13291984D02*
X10706372Y-13282460D01*
X10706372Y-13282460D02*
X10715896Y-13272936D01*
X10715896Y-13272936D02*
X10734944Y-13244365D01*
X10734944Y-13244365D02*
X10744468Y-13206269D01*
X10744468Y-13206269D02*
X10744468Y-13130079D01*
X10744468Y-13130079D02*
X10734944Y-13111031D01*
X10734944Y-13111031D02*
X10725420Y-13101508D01*
X10725420Y-13101508D02*
X10706372Y-13091984D01*
X10706372Y-13091984D02*
X10668277Y-13091984D01*
X10668277Y-13091984D02*
X10649229Y-13101508D01*
X10649229Y-13101508D02*
X10639706Y-13111031D01*
X10639706Y-13111031D02*
X10630182Y-13130079D01*
X10630182Y-13130079D02*
X10630182Y-13177698D01*
X10630182Y-13177698D02*
X10639706Y-13196746D01*
X10639706Y-13196746D02*
X10649229Y-13206269D01*
X10649229Y-13206269D02*
X10668277Y-13215793D01*
X10668277Y-13215793D02*
X10706372Y-13215793D01*
X10706372Y-13215793D02*
X10725420Y-13206269D01*
X10725420Y-13206269D02*
X10734944Y-13196746D01*
X10734944Y-13196746D02*
X10744468Y-13177698D01*
X10811134Y-13091984D02*
X10944468Y-13091984D01*
X10944468Y-13091984D02*
X10858753Y-13291984D01*
X11011134Y-13091984D02*
X11011134Y-13130079D01*
X11087325Y-13091984D02*
X11087325Y-13130079D01*
X11382563Y-13368174D02*
X11373039Y-13358650D01*
X11373039Y-13358650D02*
X11353991Y-13330079D01*
X11353991Y-13330079D02*
X11344468Y-13311031D01*
X11344468Y-13311031D02*
X11334944Y-13282460D01*
X11334944Y-13282460D02*
X11325420Y-13234841D01*
X11325420Y-13234841D02*
X11325420Y-13196746D01*
X11325420Y-13196746D02*
X11334944Y-13149127D01*
X11334944Y-13149127D02*
X11344468Y-13120555D01*
X11344468Y-13120555D02*
X11353991Y-13101508D01*
X11353991Y-13101508D02*
X11373039Y-13072936D01*
X11373039Y-13072936D02*
X11382563Y-13063412D01*
X11439706Y-13091984D02*
X11563515Y-13091984D01*
X11563515Y-13091984D02*
X11496848Y-13168174D01*
X11496848Y-13168174D02*
X11525420Y-13168174D01*
X11525420Y-13168174D02*
X11544468Y-13177698D01*
X11544468Y-13177698D02*
X11553991Y-13187222D01*
X11553991Y-13187222D02*
X11563515Y-13206269D01*
X11563515Y-13206269D02*
X11563515Y-13253888D01*
X11563515Y-13253888D02*
X11553991Y-13272936D01*
X11553991Y-13272936D02*
X11544468Y-13282460D01*
X11544468Y-13282460D02*
X11525420Y-13291984D01*
X11525420Y-13291984D02*
X11468277Y-13291984D01*
X11468277Y-13291984D02*
X11449229Y-13282460D01*
X11449229Y-13282460D02*
X11439706Y-13272936D01*
X11639706Y-13111031D02*
X11649229Y-13101508D01*
X11649229Y-13101508D02*
X11668277Y-13091984D01*
X11668277Y-13091984D02*
X11715896Y-13091984D01*
X11715896Y-13091984D02*
X11734944Y-13101508D01*
X11734944Y-13101508D02*
X11744468Y-13111031D01*
X11744468Y-13111031D02*
X11753991Y-13130079D01*
X11753991Y-13130079D02*
X11753991Y-13149127D01*
X11753991Y-13149127D02*
X11744468Y-13177698D01*
X11744468Y-13177698D02*
X11630182Y-13291984D01*
X11630182Y-13291984D02*
X11753991Y-13291984D01*
X11992087Y-13291984D02*
X11992087Y-13091984D01*
X12077801Y-13291984D02*
X12077801Y-13187222D01*
X12077801Y-13187222D02*
X12068277Y-13168174D01*
X12068277Y-13168174D02*
X12049230Y-13158650D01*
X12049230Y-13158650D02*
X12020658Y-13158650D01*
X12020658Y-13158650D02*
X12001610Y-13168174D01*
X12001610Y-13168174D02*
X11992087Y-13177698D01*
X12201610Y-13291984D02*
X12182563Y-13282460D01*
X12182563Y-13282460D02*
X12173039Y-13272936D01*
X12173039Y-13272936D02*
X12163515Y-13253888D01*
X12163515Y-13253888D02*
X12163515Y-13196746D01*
X12163515Y-13196746D02*
X12173039Y-13177698D01*
X12173039Y-13177698D02*
X12182563Y-13168174D01*
X12182563Y-13168174D02*
X12201610Y-13158650D01*
X12201610Y-13158650D02*
X12230182Y-13158650D01*
X12230182Y-13158650D02*
X12249230Y-13168174D01*
X12249230Y-13168174D02*
X12258753Y-13177698D01*
X12258753Y-13177698D02*
X12268277Y-13196746D01*
X12268277Y-13196746D02*
X12268277Y-13253888D01*
X12268277Y-13253888D02*
X12258753Y-13272936D01*
X12258753Y-13272936D02*
X12249230Y-13282460D01*
X12249230Y-13282460D02*
X12230182Y-13291984D01*
X12230182Y-13291984D02*
X12201610Y-13291984D01*
X12382563Y-13291984D02*
X12363515Y-13282460D01*
X12363515Y-13282460D02*
X12353991Y-13263412D01*
X12353991Y-13263412D02*
X12353991Y-13091984D01*
X12534944Y-13282460D02*
X12515896Y-13291984D01*
X12515896Y-13291984D02*
X12477801Y-13291984D01*
X12477801Y-13291984D02*
X12458753Y-13282460D01*
X12458753Y-13282460D02*
X12449230Y-13263412D01*
X12449230Y-13263412D02*
X12449230Y-13187222D01*
X12449230Y-13187222D02*
X12458753Y-13168174D01*
X12458753Y-13168174D02*
X12477801Y-13158650D01*
X12477801Y-13158650D02*
X12515896Y-13158650D01*
X12515896Y-13158650D02*
X12534944Y-13168174D01*
X12534944Y-13168174D02*
X12544468Y-13187222D01*
X12544468Y-13187222D02*
X12544468Y-13206269D01*
X12544468Y-13206269D02*
X12449230Y-13225317D01*
X12620658Y-13282460D02*
X12639706Y-13291984D01*
X12639706Y-13291984D02*
X12677801Y-13291984D01*
X12677801Y-13291984D02*
X12696849Y-13282460D01*
X12696849Y-13282460D02*
X12706372Y-13263412D01*
X12706372Y-13263412D02*
X12706372Y-13253888D01*
X12706372Y-13253888D02*
X12696849Y-13234841D01*
X12696849Y-13234841D02*
X12677801Y-13225317D01*
X12677801Y-13225317D02*
X12649230Y-13225317D01*
X12649230Y-13225317D02*
X12630182Y-13215793D01*
X12630182Y-13215793D02*
X12620658Y-13196746D01*
X12620658Y-13196746D02*
X12620658Y-13187222D01*
X12620658Y-13187222D02*
X12630182Y-13168174D01*
X12630182Y-13168174D02*
X12649230Y-13158650D01*
X12649230Y-13158650D02*
X12677801Y-13158650D01*
X12677801Y-13158650D02*
X12696849Y-13168174D01*
X12773039Y-13368174D02*
X12782563Y-13358650D01*
X12782563Y-13358650D02*
X12801611Y-13330079D01*
X12801611Y-13330079D02*
X12811134Y-13311031D01*
X12811134Y-13311031D02*
X12820658Y-13282460D01*
X12820658Y-13282460D02*
X12830182Y-13234841D01*
X12830182Y-13234841D02*
X12830182Y-13196746D01*
X12830182Y-13196746D02*
X12820658Y-13149127D01*
X12820658Y-13149127D02*
X12811134Y-13120555D01*
X12811134Y-13120555D02*
X12801611Y-13101508D01*
X12801611Y-13101508D02*
X12782563Y-13072936D01*
X12782563Y-13072936D02*
X12773039Y-13063412D01*
D12*
X7796517Y-13491017D02*
X7796517Y-13437983D01*
X7743483Y-13437983D01*
X7743483Y-13491017D01*
X7796517Y-13491017D01*
D11*
X8106372Y-13355984D02*
X8125420Y-13355984D01*
X8125420Y-13355984D02*
X8144467Y-13365508D01*
X8144467Y-13365508D02*
X8153991Y-13375031D01*
X8153991Y-13375031D02*
X8163515Y-13394079D01*
X8163515Y-13394079D02*
X8173039Y-13432174D01*
X8173039Y-13432174D02*
X8173039Y-13479793D01*
X8173039Y-13479793D02*
X8163515Y-13517888D01*
X8163515Y-13517888D02*
X8153991Y-13536936D01*
X8153991Y-13536936D02*
X8144467Y-13546460D01*
X8144467Y-13546460D02*
X8125420Y-13555984D01*
X8125420Y-13555984D02*
X8106372Y-13555984D01*
X8106372Y-13555984D02*
X8087324Y-13546460D01*
X8087324Y-13546460D02*
X8077801Y-13536936D01*
X8077801Y-13536936D02*
X8068277Y-13517888D01*
X8068277Y-13517888D02*
X8058753Y-13479793D01*
X8058753Y-13479793D02*
X8058753Y-13432174D01*
X8058753Y-13432174D02*
X8068277Y-13394079D01*
X8068277Y-13394079D02*
X8077801Y-13375031D01*
X8077801Y-13375031D02*
X8087324Y-13365508D01*
X8087324Y-13365508D02*
X8106372Y-13355984D01*
X8258753Y-13536936D02*
X8268277Y-13546460D01*
X8268277Y-13546460D02*
X8258753Y-13555984D01*
X8258753Y-13555984D02*
X8249229Y-13546460D01*
X8249229Y-13546460D02*
X8258753Y-13536936D01*
X8258753Y-13536936D02*
X8258753Y-13555984D01*
X8334943Y-13355984D02*
X8468277Y-13355984D01*
X8468277Y-13355984D02*
X8382562Y-13555984D01*
X8639705Y-13355984D02*
X8544467Y-13355984D01*
X8544467Y-13355984D02*
X8534944Y-13451222D01*
X8534944Y-13451222D02*
X8544467Y-13441698D01*
X8544467Y-13441698D02*
X8563515Y-13432174D01*
X8563515Y-13432174D02*
X8611134Y-13432174D01*
X8611134Y-13432174D02*
X8630182Y-13441698D01*
X8630182Y-13441698D02*
X8639705Y-13451222D01*
X8639705Y-13451222D02*
X8649229Y-13470269D01*
X8649229Y-13470269D02*
X8649229Y-13517888D01*
X8649229Y-13517888D02*
X8639705Y-13536936D01*
X8639705Y-13536936D02*
X8630182Y-13546460D01*
X8630182Y-13546460D02*
X8611134Y-13555984D01*
X8611134Y-13555984D02*
X8563515Y-13555984D01*
X8563515Y-13555984D02*
X8544467Y-13546460D01*
X8544467Y-13546460D02*
X8534944Y-13536936D01*
X8773039Y-13355984D02*
X8792086Y-13355984D01*
X8792086Y-13355984D02*
X8811134Y-13365508D01*
X8811134Y-13365508D02*
X8820658Y-13375031D01*
X8820658Y-13375031D02*
X8830182Y-13394079D01*
X8830182Y-13394079D02*
X8839705Y-13432174D01*
X8839705Y-13432174D02*
X8839705Y-13479793D01*
X8839705Y-13479793D02*
X8830182Y-13517888D01*
X8830182Y-13517888D02*
X8820658Y-13536936D01*
X8820658Y-13536936D02*
X8811134Y-13546460D01*
X8811134Y-13546460D02*
X8792086Y-13555984D01*
X8792086Y-13555984D02*
X8773039Y-13555984D01*
X8773039Y-13555984D02*
X8753991Y-13546460D01*
X8753991Y-13546460D02*
X8744467Y-13536936D01*
X8744467Y-13536936D02*
X8734944Y-13517888D01*
X8734944Y-13517888D02*
X8725420Y-13479793D01*
X8725420Y-13479793D02*
X8725420Y-13432174D01*
X8725420Y-13432174D02*
X8734944Y-13394079D01*
X8734944Y-13394079D02*
X8744467Y-13375031D01*
X8744467Y-13375031D02*
X8753991Y-13365508D01*
X8753991Y-13365508D02*
X8773039Y-13355984D01*
X8925420Y-13555984D02*
X8925420Y-13422650D01*
X8925420Y-13441698D02*
X8934944Y-13432174D01*
X8934944Y-13432174D02*
X8953991Y-13422650D01*
X8953991Y-13422650D02*
X8982563Y-13422650D01*
X8982563Y-13422650D02*
X9001610Y-13432174D01*
X9001610Y-13432174D02*
X9011134Y-13451222D01*
X9011134Y-13451222D02*
X9011134Y-13555984D01*
X9011134Y-13451222D02*
X9020658Y-13432174D01*
X9020658Y-13432174D02*
X9039705Y-13422650D01*
X9039705Y-13422650D02*
X9068277Y-13422650D01*
X9068277Y-13422650D02*
X9087325Y-13432174D01*
X9087325Y-13432174D02*
X9096848Y-13451222D01*
X9096848Y-13451222D02*
X9096848Y-13555984D01*
X9192086Y-13555984D02*
X9192086Y-13422650D01*
X9192086Y-13441698D02*
X9201610Y-13432174D01*
X9201610Y-13432174D02*
X9220658Y-13422650D01*
X9220658Y-13422650D02*
X9249229Y-13422650D01*
X9249229Y-13422650D02*
X9268277Y-13432174D01*
X9268277Y-13432174D02*
X9277801Y-13451222D01*
X9277801Y-13451222D02*
X9277801Y-13555984D01*
X9277801Y-13451222D02*
X9287325Y-13432174D01*
X9287325Y-13432174D02*
X9306372Y-13422650D01*
X9306372Y-13422650D02*
X9334944Y-13422650D01*
X9334944Y-13422650D02*
X9353991Y-13432174D01*
X9353991Y-13432174D02*
X9363515Y-13451222D01*
X9363515Y-13451222D02*
X9363515Y-13555984D01*
X9753991Y-13346460D02*
X9582563Y-13603603D01*
X10011134Y-13355984D02*
X10030182Y-13355984D01*
X10030182Y-13355984D02*
X10049229Y-13365508D01*
X10049229Y-13365508D02*
X10058753Y-13375031D01*
X10058753Y-13375031D02*
X10068277Y-13394079D01*
X10068277Y-13394079D02*
X10077801Y-13432174D01*
X10077801Y-13432174D02*
X10077801Y-13479793D01*
X10077801Y-13479793D02*
X10068277Y-13517888D01*
X10068277Y-13517888D02*
X10058753Y-13536936D01*
X10058753Y-13536936D02*
X10049229Y-13546460D01*
X10049229Y-13546460D02*
X10030182Y-13555984D01*
X10030182Y-13555984D02*
X10011134Y-13555984D01*
X10011134Y-13555984D02*
X9992087Y-13546460D01*
X9992087Y-13546460D02*
X9982563Y-13536936D01*
X9982563Y-13536936D02*
X9973039Y-13517888D01*
X9973039Y-13517888D02*
X9963515Y-13479793D01*
X9963515Y-13479793D02*
X9963515Y-13432174D01*
X9963515Y-13432174D02*
X9973039Y-13394079D01*
X9973039Y-13394079D02*
X9982563Y-13375031D01*
X9982563Y-13375031D02*
X9992087Y-13365508D01*
X9992087Y-13365508D02*
X10011134Y-13355984D01*
X10163515Y-13536936D02*
X10173039Y-13546460D01*
X10173039Y-13546460D02*
X10163515Y-13555984D01*
X10163515Y-13555984D02*
X10153991Y-13546460D01*
X10153991Y-13546460D02*
X10163515Y-13536936D01*
X10163515Y-13536936D02*
X10163515Y-13555984D01*
X10296848Y-13355984D02*
X10315896Y-13355984D01*
X10315896Y-13355984D02*
X10334944Y-13365508D01*
X10334944Y-13365508D02*
X10344468Y-13375031D01*
X10344468Y-13375031D02*
X10353991Y-13394079D01*
X10353991Y-13394079D02*
X10363515Y-13432174D01*
X10363515Y-13432174D02*
X10363515Y-13479793D01*
X10363515Y-13479793D02*
X10353991Y-13517888D01*
X10353991Y-13517888D02*
X10344468Y-13536936D01*
X10344468Y-13536936D02*
X10334944Y-13546460D01*
X10334944Y-13546460D02*
X10315896Y-13555984D01*
X10315896Y-13555984D02*
X10296848Y-13555984D01*
X10296848Y-13555984D02*
X10277801Y-13546460D01*
X10277801Y-13546460D02*
X10268277Y-13536936D01*
X10268277Y-13536936D02*
X10258753Y-13517888D01*
X10258753Y-13517888D02*
X10249229Y-13479793D01*
X10249229Y-13479793D02*
X10249229Y-13432174D01*
X10249229Y-13432174D02*
X10258753Y-13394079D01*
X10258753Y-13394079D02*
X10268277Y-13375031D01*
X10268277Y-13375031D02*
X10277801Y-13365508D01*
X10277801Y-13365508D02*
X10296848Y-13355984D01*
X10439706Y-13375031D02*
X10449229Y-13365508D01*
X10449229Y-13365508D02*
X10468277Y-13355984D01*
X10468277Y-13355984D02*
X10515896Y-13355984D01*
X10515896Y-13355984D02*
X10534944Y-13365508D01*
X10534944Y-13365508D02*
X10544468Y-13375031D01*
X10544468Y-13375031D02*
X10553991Y-13394079D01*
X10553991Y-13394079D02*
X10553991Y-13413127D01*
X10553991Y-13413127D02*
X10544468Y-13441698D01*
X10544468Y-13441698D02*
X10430182Y-13555984D01*
X10430182Y-13555984D02*
X10553991Y-13555984D01*
X10649229Y-13555984D02*
X10687325Y-13555984D01*
X10687325Y-13555984D02*
X10706372Y-13546460D01*
X10706372Y-13546460D02*
X10715896Y-13536936D01*
X10715896Y-13536936D02*
X10734944Y-13508365D01*
X10734944Y-13508365D02*
X10744468Y-13470269D01*
X10744468Y-13470269D02*
X10744468Y-13394079D01*
X10744468Y-13394079D02*
X10734944Y-13375031D01*
X10734944Y-13375031D02*
X10725420Y-13365508D01*
X10725420Y-13365508D02*
X10706372Y-13355984D01*
X10706372Y-13355984D02*
X10668277Y-13355984D01*
X10668277Y-13355984D02*
X10649229Y-13365508D01*
X10649229Y-13365508D02*
X10639706Y-13375031D01*
X10639706Y-13375031D02*
X10630182Y-13394079D01*
X10630182Y-13394079D02*
X10630182Y-13441698D01*
X10630182Y-13441698D02*
X10639706Y-13460746D01*
X10639706Y-13460746D02*
X10649229Y-13470269D01*
X10649229Y-13470269D02*
X10668277Y-13479793D01*
X10668277Y-13479793D02*
X10706372Y-13479793D01*
X10706372Y-13479793D02*
X10725420Y-13470269D01*
X10725420Y-13470269D02*
X10734944Y-13460746D01*
X10734944Y-13460746D02*
X10744468Y-13441698D01*
X10925420Y-13355984D02*
X10830182Y-13355984D01*
X10830182Y-13355984D02*
X10820658Y-13451222D01*
X10820658Y-13451222D02*
X10830182Y-13441698D01*
X10830182Y-13441698D02*
X10849229Y-13432174D01*
X10849229Y-13432174D02*
X10896849Y-13432174D01*
X10896849Y-13432174D02*
X10915896Y-13441698D01*
X10915896Y-13441698D02*
X10925420Y-13451222D01*
X10925420Y-13451222D02*
X10934944Y-13470269D01*
X10934944Y-13470269D02*
X10934944Y-13517888D01*
X10934944Y-13517888D02*
X10925420Y-13536936D01*
X10925420Y-13536936D02*
X10915896Y-13546460D01*
X10915896Y-13546460D02*
X10896849Y-13555984D01*
X10896849Y-13555984D02*
X10849229Y-13555984D01*
X10849229Y-13555984D02*
X10830182Y-13546460D01*
X10830182Y-13546460D02*
X10820658Y-13536936D01*
X11011134Y-13355984D02*
X11011134Y-13394079D01*
X11087325Y-13355984D02*
X11087325Y-13394079D01*
X11382563Y-13632174D02*
X11373039Y-13622650D01*
X11373039Y-13622650D02*
X11353991Y-13594079D01*
X11353991Y-13594079D02*
X11344468Y-13575031D01*
X11344468Y-13575031D02*
X11334944Y-13546460D01*
X11334944Y-13546460D02*
X11325420Y-13498841D01*
X11325420Y-13498841D02*
X11325420Y-13460746D01*
X11325420Y-13460746D02*
X11334944Y-13413127D01*
X11334944Y-13413127D02*
X11344468Y-13384555D01*
X11344468Y-13384555D02*
X11353991Y-13365508D01*
X11353991Y-13365508D02*
X11373039Y-13336936D01*
X11373039Y-13336936D02*
X11382563Y-13327412D01*
X11544468Y-13355984D02*
X11506372Y-13355984D01*
X11506372Y-13355984D02*
X11487325Y-13365508D01*
X11487325Y-13365508D02*
X11477801Y-13375031D01*
X11477801Y-13375031D02*
X11458753Y-13403603D01*
X11458753Y-13403603D02*
X11449229Y-13441698D01*
X11449229Y-13441698D02*
X11449229Y-13517888D01*
X11449229Y-13517888D02*
X11458753Y-13536936D01*
X11458753Y-13536936D02*
X11468277Y-13546460D01*
X11468277Y-13546460D02*
X11487325Y-13555984D01*
X11487325Y-13555984D02*
X11525420Y-13555984D01*
X11525420Y-13555984D02*
X11544468Y-13546460D01*
X11544468Y-13546460D02*
X11553991Y-13536936D01*
X11553991Y-13536936D02*
X11563515Y-13517888D01*
X11563515Y-13517888D02*
X11563515Y-13470269D01*
X11563515Y-13470269D02*
X11553991Y-13451222D01*
X11553991Y-13451222D02*
X11544468Y-13441698D01*
X11544468Y-13441698D02*
X11525420Y-13432174D01*
X11525420Y-13432174D02*
X11487325Y-13432174D01*
X11487325Y-13432174D02*
X11468277Y-13441698D01*
X11468277Y-13441698D02*
X11458753Y-13451222D01*
X11458753Y-13451222D02*
X11449229Y-13470269D01*
X11801610Y-13555984D02*
X11801610Y-13355984D01*
X11887325Y-13555984D02*
X11887325Y-13451222D01*
X11887325Y-13451222D02*
X11877801Y-13432174D01*
X11877801Y-13432174D02*
X11858753Y-13422650D01*
X11858753Y-13422650D02*
X11830182Y-13422650D01*
X11830182Y-13422650D02*
X11811134Y-13432174D01*
X11811134Y-13432174D02*
X11801610Y-13441698D01*
X12011134Y-13555984D02*
X11992087Y-13546460D01*
X11992087Y-13546460D02*
X11982563Y-13536936D01*
X11982563Y-13536936D02*
X11973039Y-13517888D01*
X11973039Y-13517888D02*
X11973039Y-13460746D01*
X11973039Y-13460746D02*
X11982563Y-13441698D01*
X11982563Y-13441698D02*
X11992087Y-13432174D01*
X11992087Y-13432174D02*
X12011134Y-13422650D01*
X12011134Y-13422650D02*
X12039706Y-13422650D01*
X12039706Y-13422650D02*
X12058753Y-13432174D01*
X12058753Y-13432174D02*
X12068277Y-13441698D01*
X12068277Y-13441698D02*
X12077801Y-13460746D01*
X12077801Y-13460746D02*
X12077801Y-13517888D01*
X12077801Y-13517888D02*
X12068277Y-13536936D01*
X12068277Y-13536936D02*
X12058753Y-13546460D01*
X12058753Y-13546460D02*
X12039706Y-13555984D01*
X12039706Y-13555984D02*
X12011134Y-13555984D01*
X12192087Y-13555984D02*
X12173039Y-13546460D01*
X12173039Y-13546460D02*
X12163515Y-13527412D01*
X12163515Y-13527412D02*
X12163515Y-13355984D01*
X12344468Y-13546460D02*
X12325420Y-13555984D01*
X12325420Y-13555984D02*
X12287325Y-13555984D01*
X12287325Y-13555984D02*
X12268277Y-13546460D01*
X12268277Y-13546460D02*
X12258753Y-13527412D01*
X12258753Y-13527412D02*
X12258753Y-13451222D01*
X12258753Y-13451222D02*
X12268277Y-13432174D01*
X12268277Y-13432174D02*
X12287325Y-13422650D01*
X12287325Y-13422650D02*
X12325420Y-13422650D01*
X12325420Y-13422650D02*
X12344468Y-13432174D01*
X12344468Y-13432174D02*
X12353991Y-13451222D01*
X12353991Y-13451222D02*
X12353991Y-13470269D01*
X12353991Y-13470269D02*
X12258753Y-13489317D01*
X12430182Y-13546460D02*
X12449230Y-13555984D01*
X12449230Y-13555984D02*
X12487325Y-13555984D01*
X12487325Y-13555984D02*
X12506372Y-13546460D01*
X12506372Y-13546460D02*
X12515896Y-13527412D01*
X12515896Y-13527412D02*
X12515896Y-13517888D01*
X12515896Y-13517888D02*
X12506372Y-13498841D01*
X12506372Y-13498841D02*
X12487325Y-13489317D01*
X12487325Y-13489317D02*
X12458753Y-13489317D01*
X12458753Y-13489317D02*
X12439706Y-13479793D01*
X12439706Y-13479793D02*
X12430182Y-13460746D01*
X12430182Y-13460746D02*
X12430182Y-13451222D01*
X12430182Y-13451222D02*
X12439706Y-13432174D01*
X12439706Y-13432174D02*
X12458753Y-13422650D01*
X12458753Y-13422650D02*
X12487325Y-13422650D01*
X12487325Y-13422650D02*
X12506372Y-13432174D01*
X12582563Y-13632174D02*
X12592087Y-13622650D01*
X12592087Y-13622650D02*
X12611134Y-13594079D01*
X12611134Y-13594079D02*
X12620658Y-13575031D01*
X12620658Y-13575031D02*
X12630182Y-13546460D01*
X12630182Y-13546460D02*
X12639706Y-13498841D01*
X12639706Y-13498841D02*
X12639706Y-13460746D01*
X12639706Y-13460746D02*
X12630182Y-13413127D01*
X12630182Y-13413127D02*
X12620658Y-13384555D01*
X12620658Y-13384555D02*
X12611134Y-13365508D01*
X12611134Y-13365508D02*
X12592087Y-13336936D01*
X12592087Y-13336936D02*
X12582563Y-13327412D01*
D12*
X7767500Y-13768500D02*
X7807500Y-13728500D01*
X7767500Y-13688500D01*
X7727500Y-13728500D01*
X7767500Y-13768500D01*
D11*
X8106372Y-13619984D02*
X8125420Y-13619984D01*
X8125420Y-13619984D02*
X8144467Y-13629508D01*
X8144467Y-13629508D02*
X8153991Y-13639031D01*
X8153991Y-13639031D02*
X8163515Y-13658079D01*
X8163515Y-13658079D02*
X8173039Y-13696174D01*
X8173039Y-13696174D02*
X8173039Y-13743793D01*
X8173039Y-13743793D02*
X8163515Y-13781888D01*
X8163515Y-13781888D02*
X8153991Y-13800936D01*
X8153991Y-13800936D02*
X8144467Y-13810460D01*
X8144467Y-13810460D02*
X8125420Y-13819984D01*
X8125420Y-13819984D02*
X8106372Y-13819984D01*
X8106372Y-13819984D02*
X8087324Y-13810460D01*
X8087324Y-13810460D02*
X8077801Y-13800936D01*
X8077801Y-13800936D02*
X8068277Y-13781888D01*
X8068277Y-13781888D02*
X8058753Y-13743793D01*
X8058753Y-13743793D02*
X8058753Y-13696174D01*
X8058753Y-13696174D02*
X8068277Y-13658079D01*
X8068277Y-13658079D02*
X8077801Y-13639031D01*
X8077801Y-13639031D02*
X8087324Y-13629508D01*
X8087324Y-13629508D02*
X8106372Y-13619984D01*
X8258753Y-13800936D02*
X8268277Y-13810460D01*
X8268277Y-13810460D02*
X8258753Y-13819984D01*
X8258753Y-13819984D02*
X8249229Y-13810460D01*
X8249229Y-13810460D02*
X8258753Y-13800936D01*
X8258753Y-13800936D02*
X8258753Y-13819984D01*
X8382562Y-13705698D02*
X8363515Y-13696174D01*
X8363515Y-13696174D02*
X8353991Y-13686650D01*
X8353991Y-13686650D02*
X8344467Y-13667603D01*
X8344467Y-13667603D02*
X8344467Y-13658079D01*
X8344467Y-13658079D02*
X8353991Y-13639031D01*
X8353991Y-13639031D02*
X8363515Y-13629508D01*
X8363515Y-13629508D02*
X8382562Y-13619984D01*
X8382562Y-13619984D02*
X8420658Y-13619984D01*
X8420658Y-13619984D02*
X8439705Y-13629508D01*
X8439705Y-13629508D02*
X8449229Y-13639031D01*
X8449229Y-13639031D02*
X8458753Y-13658079D01*
X8458753Y-13658079D02*
X8458753Y-13667603D01*
X8458753Y-13667603D02*
X8449229Y-13686650D01*
X8449229Y-13686650D02*
X8439705Y-13696174D01*
X8439705Y-13696174D02*
X8420658Y-13705698D01*
X8420658Y-13705698D02*
X8382562Y-13705698D01*
X8382562Y-13705698D02*
X8363515Y-13715222D01*
X8363515Y-13715222D02*
X8353991Y-13724746D01*
X8353991Y-13724746D02*
X8344467Y-13743793D01*
X8344467Y-13743793D02*
X8344467Y-13781888D01*
X8344467Y-13781888D02*
X8353991Y-13800936D01*
X8353991Y-13800936D02*
X8363515Y-13810460D01*
X8363515Y-13810460D02*
X8382562Y-13819984D01*
X8382562Y-13819984D02*
X8420658Y-13819984D01*
X8420658Y-13819984D02*
X8439705Y-13810460D01*
X8439705Y-13810460D02*
X8449229Y-13800936D01*
X8449229Y-13800936D02*
X8458753Y-13781888D01*
X8458753Y-13781888D02*
X8458753Y-13743793D01*
X8458753Y-13743793D02*
X8449229Y-13724746D01*
X8449229Y-13724746D02*
X8439705Y-13715222D01*
X8439705Y-13715222D02*
X8420658Y-13705698D01*
X8582563Y-13619984D02*
X8601610Y-13619984D01*
X8601610Y-13619984D02*
X8620658Y-13629508D01*
X8620658Y-13629508D02*
X8630182Y-13639031D01*
X8630182Y-13639031D02*
X8639705Y-13658079D01*
X8639705Y-13658079D02*
X8649229Y-13696174D01*
X8649229Y-13696174D02*
X8649229Y-13743793D01*
X8649229Y-13743793D02*
X8639705Y-13781888D01*
X8639705Y-13781888D02*
X8630182Y-13800936D01*
X8630182Y-13800936D02*
X8620658Y-13810460D01*
X8620658Y-13810460D02*
X8601610Y-13819984D01*
X8601610Y-13819984D02*
X8582563Y-13819984D01*
X8582563Y-13819984D02*
X8563515Y-13810460D01*
X8563515Y-13810460D02*
X8553991Y-13800936D01*
X8553991Y-13800936D02*
X8544467Y-13781888D01*
X8544467Y-13781888D02*
X8534944Y-13743793D01*
X8534944Y-13743793D02*
X8534944Y-13696174D01*
X8534944Y-13696174D02*
X8544467Y-13658079D01*
X8544467Y-13658079D02*
X8553991Y-13639031D01*
X8553991Y-13639031D02*
X8563515Y-13629508D01*
X8563515Y-13629508D02*
X8582563Y-13619984D01*
X8773039Y-13619984D02*
X8792086Y-13619984D01*
X8792086Y-13619984D02*
X8811134Y-13629508D01*
X8811134Y-13629508D02*
X8820658Y-13639031D01*
X8820658Y-13639031D02*
X8830182Y-13658079D01*
X8830182Y-13658079D02*
X8839705Y-13696174D01*
X8839705Y-13696174D02*
X8839705Y-13743793D01*
X8839705Y-13743793D02*
X8830182Y-13781888D01*
X8830182Y-13781888D02*
X8820658Y-13800936D01*
X8820658Y-13800936D02*
X8811134Y-13810460D01*
X8811134Y-13810460D02*
X8792086Y-13819984D01*
X8792086Y-13819984D02*
X8773039Y-13819984D01*
X8773039Y-13819984D02*
X8753991Y-13810460D01*
X8753991Y-13810460D02*
X8744467Y-13800936D01*
X8744467Y-13800936D02*
X8734944Y-13781888D01*
X8734944Y-13781888D02*
X8725420Y-13743793D01*
X8725420Y-13743793D02*
X8725420Y-13696174D01*
X8725420Y-13696174D02*
X8734944Y-13658079D01*
X8734944Y-13658079D02*
X8744467Y-13639031D01*
X8744467Y-13639031D02*
X8753991Y-13629508D01*
X8753991Y-13629508D02*
X8773039Y-13619984D01*
X8925420Y-13819984D02*
X8925420Y-13686650D01*
X8925420Y-13705698D02*
X8934944Y-13696174D01*
X8934944Y-13696174D02*
X8953991Y-13686650D01*
X8953991Y-13686650D02*
X8982563Y-13686650D01*
X8982563Y-13686650D02*
X9001610Y-13696174D01*
X9001610Y-13696174D02*
X9011134Y-13715222D01*
X9011134Y-13715222D02*
X9011134Y-13819984D01*
X9011134Y-13715222D02*
X9020658Y-13696174D01*
X9020658Y-13696174D02*
X9039705Y-13686650D01*
X9039705Y-13686650D02*
X9068277Y-13686650D01*
X9068277Y-13686650D02*
X9087325Y-13696174D01*
X9087325Y-13696174D02*
X9096848Y-13715222D01*
X9096848Y-13715222D02*
X9096848Y-13819984D01*
X9192086Y-13819984D02*
X9192086Y-13686650D01*
X9192086Y-13705698D02*
X9201610Y-13696174D01*
X9201610Y-13696174D02*
X9220658Y-13686650D01*
X9220658Y-13686650D02*
X9249229Y-13686650D01*
X9249229Y-13686650D02*
X9268277Y-13696174D01*
X9268277Y-13696174D02*
X9277801Y-13715222D01*
X9277801Y-13715222D02*
X9277801Y-13819984D01*
X9277801Y-13715222D02*
X9287325Y-13696174D01*
X9287325Y-13696174D02*
X9306372Y-13686650D01*
X9306372Y-13686650D02*
X9334944Y-13686650D01*
X9334944Y-13686650D02*
X9353991Y-13696174D01*
X9353991Y-13696174D02*
X9363515Y-13715222D01*
X9363515Y-13715222D02*
X9363515Y-13819984D01*
X9753991Y-13610460D02*
X9582563Y-13867603D01*
X10011134Y-13619984D02*
X10030182Y-13619984D01*
X10030182Y-13619984D02*
X10049229Y-13629508D01*
X10049229Y-13629508D02*
X10058753Y-13639031D01*
X10058753Y-13639031D02*
X10068277Y-13658079D01*
X10068277Y-13658079D02*
X10077801Y-13696174D01*
X10077801Y-13696174D02*
X10077801Y-13743793D01*
X10077801Y-13743793D02*
X10068277Y-13781888D01*
X10068277Y-13781888D02*
X10058753Y-13800936D01*
X10058753Y-13800936D02*
X10049229Y-13810460D01*
X10049229Y-13810460D02*
X10030182Y-13819984D01*
X10030182Y-13819984D02*
X10011134Y-13819984D01*
X10011134Y-13819984D02*
X9992087Y-13810460D01*
X9992087Y-13810460D02*
X9982563Y-13800936D01*
X9982563Y-13800936D02*
X9973039Y-13781888D01*
X9973039Y-13781888D02*
X9963515Y-13743793D01*
X9963515Y-13743793D02*
X9963515Y-13696174D01*
X9963515Y-13696174D02*
X9973039Y-13658079D01*
X9973039Y-13658079D02*
X9982563Y-13639031D01*
X9982563Y-13639031D02*
X9992087Y-13629508D01*
X9992087Y-13629508D02*
X10011134Y-13619984D01*
X10163515Y-13800936D02*
X10173039Y-13810460D01*
X10173039Y-13810460D02*
X10163515Y-13819984D01*
X10163515Y-13819984D02*
X10153991Y-13810460D01*
X10153991Y-13810460D02*
X10163515Y-13800936D01*
X10163515Y-13800936D02*
X10163515Y-13819984D01*
X10296848Y-13619984D02*
X10315896Y-13619984D01*
X10315896Y-13619984D02*
X10334944Y-13629508D01*
X10334944Y-13629508D02*
X10344468Y-13639031D01*
X10344468Y-13639031D02*
X10353991Y-13658079D01*
X10353991Y-13658079D02*
X10363515Y-13696174D01*
X10363515Y-13696174D02*
X10363515Y-13743793D01*
X10363515Y-13743793D02*
X10353991Y-13781888D01*
X10353991Y-13781888D02*
X10344468Y-13800936D01*
X10344468Y-13800936D02*
X10334944Y-13810460D01*
X10334944Y-13810460D02*
X10315896Y-13819984D01*
X10315896Y-13819984D02*
X10296848Y-13819984D01*
X10296848Y-13819984D02*
X10277801Y-13810460D01*
X10277801Y-13810460D02*
X10268277Y-13800936D01*
X10268277Y-13800936D02*
X10258753Y-13781888D01*
X10258753Y-13781888D02*
X10249229Y-13743793D01*
X10249229Y-13743793D02*
X10249229Y-13696174D01*
X10249229Y-13696174D02*
X10258753Y-13658079D01*
X10258753Y-13658079D02*
X10268277Y-13639031D01*
X10268277Y-13639031D02*
X10277801Y-13629508D01*
X10277801Y-13629508D02*
X10296848Y-13619984D01*
X10430182Y-13619984D02*
X10553991Y-13619984D01*
X10553991Y-13619984D02*
X10487325Y-13696174D01*
X10487325Y-13696174D02*
X10515896Y-13696174D01*
X10515896Y-13696174D02*
X10534944Y-13705698D01*
X10534944Y-13705698D02*
X10544468Y-13715222D01*
X10544468Y-13715222D02*
X10553991Y-13734269D01*
X10553991Y-13734269D02*
X10553991Y-13781888D01*
X10553991Y-13781888D02*
X10544468Y-13800936D01*
X10544468Y-13800936D02*
X10534944Y-13810460D01*
X10534944Y-13810460D02*
X10515896Y-13819984D01*
X10515896Y-13819984D02*
X10458753Y-13819984D01*
X10458753Y-13819984D02*
X10439706Y-13810460D01*
X10439706Y-13810460D02*
X10430182Y-13800936D01*
X10744468Y-13819984D02*
X10630182Y-13819984D01*
X10687325Y-13819984D02*
X10687325Y-13619984D01*
X10687325Y-13619984D02*
X10668277Y-13648555D01*
X10668277Y-13648555D02*
X10649229Y-13667603D01*
X10649229Y-13667603D02*
X10630182Y-13677127D01*
X10925420Y-13619984D02*
X10830182Y-13619984D01*
X10830182Y-13619984D02*
X10820658Y-13715222D01*
X10820658Y-13715222D02*
X10830182Y-13705698D01*
X10830182Y-13705698D02*
X10849229Y-13696174D01*
X10849229Y-13696174D02*
X10896849Y-13696174D01*
X10896849Y-13696174D02*
X10915896Y-13705698D01*
X10915896Y-13705698D02*
X10925420Y-13715222D01*
X10925420Y-13715222D02*
X10934944Y-13734269D01*
X10934944Y-13734269D02*
X10934944Y-13781888D01*
X10934944Y-13781888D02*
X10925420Y-13800936D01*
X10925420Y-13800936D02*
X10915896Y-13810460D01*
X10915896Y-13810460D02*
X10896849Y-13819984D01*
X10896849Y-13819984D02*
X10849229Y-13819984D01*
X10849229Y-13819984D02*
X10830182Y-13810460D01*
X10830182Y-13810460D02*
X10820658Y-13800936D01*
X11011134Y-13619984D02*
X11011134Y-13658079D01*
X11087325Y-13619984D02*
X11087325Y-13658079D01*
X11382563Y-13896174D02*
X11373039Y-13886650D01*
X11373039Y-13886650D02*
X11353991Y-13858079D01*
X11353991Y-13858079D02*
X11344468Y-13839031D01*
X11344468Y-13839031D02*
X11334944Y-13810460D01*
X11334944Y-13810460D02*
X11325420Y-13762841D01*
X11325420Y-13762841D02*
X11325420Y-13724746D01*
X11325420Y-13724746D02*
X11334944Y-13677127D01*
X11334944Y-13677127D02*
X11344468Y-13648555D01*
X11344468Y-13648555D02*
X11353991Y-13629508D01*
X11353991Y-13629508D02*
X11373039Y-13600936D01*
X11373039Y-13600936D02*
X11382563Y-13591412D01*
X11563515Y-13819984D02*
X11449229Y-13819984D01*
X11506372Y-13819984D02*
X11506372Y-13619984D01*
X11506372Y-13619984D02*
X11487325Y-13648555D01*
X11487325Y-13648555D02*
X11468277Y-13667603D01*
X11468277Y-13667603D02*
X11449229Y-13677127D01*
X11639706Y-13639031D02*
X11649229Y-13629508D01*
X11649229Y-13629508D02*
X11668277Y-13619984D01*
X11668277Y-13619984D02*
X11715896Y-13619984D01*
X11715896Y-13619984D02*
X11734944Y-13629508D01*
X11734944Y-13629508D02*
X11744468Y-13639031D01*
X11744468Y-13639031D02*
X11753991Y-13658079D01*
X11753991Y-13658079D02*
X11753991Y-13677127D01*
X11753991Y-13677127D02*
X11744468Y-13705698D01*
X11744468Y-13705698D02*
X11630182Y-13819984D01*
X11630182Y-13819984D02*
X11753991Y-13819984D01*
X11992087Y-13819984D02*
X11992087Y-13619984D01*
X12077801Y-13819984D02*
X12077801Y-13715222D01*
X12077801Y-13715222D02*
X12068277Y-13696174D01*
X12068277Y-13696174D02*
X12049230Y-13686650D01*
X12049230Y-13686650D02*
X12020658Y-13686650D01*
X12020658Y-13686650D02*
X12001610Y-13696174D01*
X12001610Y-13696174D02*
X11992087Y-13705698D01*
X12201610Y-13819984D02*
X12182563Y-13810460D01*
X12182563Y-13810460D02*
X12173039Y-13800936D01*
X12173039Y-13800936D02*
X12163515Y-13781888D01*
X12163515Y-13781888D02*
X12163515Y-13724746D01*
X12163515Y-13724746D02*
X12173039Y-13705698D01*
X12173039Y-13705698D02*
X12182563Y-13696174D01*
X12182563Y-13696174D02*
X12201610Y-13686650D01*
X12201610Y-13686650D02*
X12230182Y-13686650D01*
X12230182Y-13686650D02*
X12249230Y-13696174D01*
X12249230Y-13696174D02*
X12258753Y-13705698D01*
X12258753Y-13705698D02*
X12268277Y-13724746D01*
X12268277Y-13724746D02*
X12268277Y-13781888D01*
X12268277Y-13781888D02*
X12258753Y-13800936D01*
X12258753Y-13800936D02*
X12249230Y-13810460D01*
X12249230Y-13810460D02*
X12230182Y-13819984D01*
X12230182Y-13819984D02*
X12201610Y-13819984D01*
X12382563Y-13819984D02*
X12363515Y-13810460D01*
X12363515Y-13810460D02*
X12353991Y-13791412D01*
X12353991Y-13791412D02*
X12353991Y-13619984D01*
X12534944Y-13810460D02*
X12515896Y-13819984D01*
X12515896Y-13819984D02*
X12477801Y-13819984D01*
X12477801Y-13819984D02*
X12458753Y-13810460D01*
X12458753Y-13810460D02*
X12449230Y-13791412D01*
X12449230Y-13791412D02*
X12449230Y-13715222D01*
X12449230Y-13715222D02*
X12458753Y-13696174D01*
X12458753Y-13696174D02*
X12477801Y-13686650D01*
X12477801Y-13686650D02*
X12515896Y-13686650D01*
X12515896Y-13686650D02*
X12534944Y-13696174D01*
X12534944Y-13696174D02*
X12544468Y-13715222D01*
X12544468Y-13715222D02*
X12544468Y-13734269D01*
X12544468Y-13734269D02*
X12449230Y-13753317D01*
X12620658Y-13810460D02*
X12639706Y-13819984D01*
X12639706Y-13819984D02*
X12677801Y-13819984D01*
X12677801Y-13819984D02*
X12696849Y-13810460D01*
X12696849Y-13810460D02*
X12706372Y-13791412D01*
X12706372Y-13791412D02*
X12706372Y-13781888D01*
X12706372Y-13781888D02*
X12696849Y-13762841D01*
X12696849Y-13762841D02*
X12677801Y-13753317D01*
X12677801Y-13753317D02*
X12649230Y-13753317D01*
X12649230Y-13753317D02*
X12630182Y-13743793D01*
X12630182Y-13743793D02*
X12620658Y-13724746D01*
X12620658Y-13724746D02*
X12620658Y-13715222D01*
X12620658Y-13715222D02*
X12630182Y-13696174D01*
X12630182Y-13696174D02*
X12649230Y-13686650D01*
X12649230Y-13686650D02*
X12677801Y-13686650D01*
X12677801Y-13686650D02*
X12696849Y-13696174D01*
X12773039Y-13896174D02*
X12782563Y-13886650D01*
X12782563Y-13886650D02*
X12801611Y-13858079D01*
X12801611Y-13858079D02*
X12811134Y-13839031D01*
X12811134Y-13839031D02*
X12820658Y-13810460D01*
X12820658Y-13810460D02*
X12830182Y-13762841D01*
X12830182Y-13762841D02*
X12830182Y-13724746D01*
X12830182Y-13724746D02*
X12820658Y-13677127D01*
X12820658Y-13677127D02*
X12811134Y-13648555D01*
X12811134Y-13648555D02*
X12801611Y-13629508D01*
X12801611Y-13629508D02*
X12782563Y-13600936D01*
X12782563Y-13600936D02*
X12773039Y-13591412D01*
D12*
X7707500Y-13942500D02*
X7807500Y-14042500D01*
X7807500Y-13942500D02*
X7707500Y-14042500D01*
X7807500Y-13992500D02*
G75*
G02*
X7707500Y-13992500I-50000J0D01*
G01*
X7707500Y-13992500D02*
G75*
G02*
X7807500Y-13992500I50000J0D01*
G01*
D11*
X8173039Y-14083984D02*
X8058753Y-14083984D01*
X8115896Y-14083984D02*
X8115896Y-13883984D01*
X8115896Y-13883984D02*
X8096848Y-13912555D01*
X8096848Y-13912555D02*
X8077801Y-13931603D01*
X8077801Y-13931603D02*
X8058753Y-13941127D01*
X8258753Y-14064936D02*
X8268277Y-14074460D01*
X8268277Y-14074460D02*
X8258753Y-14083984D01*
X8258753Y-14083984D02*
X8249229Y-14074460D01*
X8249229Y-14074460D02*
X8258753Y-14064936D01*
X8258753Y-14064936D02*
X8258753Y-14083984D01*
X8392086Y-13883984D02*
X8411134Y-13883984D01*
X8411134Y-13883984D02*
X8430182Y-13893508D01*
X8430182Y-13893508D02*
X8439705Y-13903031D01*
X8439705Y-13903031D02*
X8449229Y-13922079D01*
X8449229Y-13922079D02*
X8458753Y-13960174D01*
X8458753Y-13960174D02*
X8458753Y-14007793D01*
X8458753Y-14007793D02*
X8449229Y-14045888D01*
X8449229Y-14045888D02*
X8439705Y-14064936D01*
X8439705Y-14064936D02*
X8430182Y-14074460D01*
X8430182Y-14074460D02*
X8411134Y-14083984D01*
X8411134Y-14083984D02*
X8392086Y-14083984D01*
X8392086Y-14083984D02*
X8373039Y-14074460D01*
X8373039Y-14074460D02*
X8363515Y-14064936D01*
X8363515Y-14064936D02*
X8353991Y-14045888D01*
X8353991Y-14045888D02*
X8344467Y-14007793D01*
X8344467Y-14007793D02*
X8344467Y-13960174D01*
X8344467Y-13960174D02*
X8353991Y-13922079D01*
X8353991Y-13922079D02*
X8363515Y-13903031D01*
X8363515Y-13903031D02*
X8373039Y-13893508D01*
X8373039Y-13893508D02*
X8392086Y-13883984D01*
X8582563Y-13883984D02*
X8601610Y-13883984D01*
X8601610Y-13883984D02*
X8620658Y-13893508D01*
X8620658Y-13893508D02*
X8630182Y-13903031D01*
X8630182Y-13903031D02*
X8639705Y-13922079D01*
X8639705Y-13922079D02*
X8649229Y-13960174D01*
X8649229Y-13960174D02*
X8649229Y-14007793D01*
X8649229Y-14007793D02*
X8639705Y-14045888D01*
X8639705Y-14045888D02*
X8630182Y-14064936D01*
X8630182Y-14064936D02*
X8620658Y-14074460D01*
X8620658Y-14074460D02*
X8601610Y-14083984D01*
X8601610Y-14083984D02*
X8582563Y-14083984D01*
X8582563Y-14083984D02*
X8563515Y-14074460D01*
X8563515Y-14074460D02*
X8553991Y-14064936D01*
X8553991Y-14064936D02*
X8544467Y-14045888D01*
X8544467Y-14045888D02*
X8534944Y-14007793D01*
X8534944Y-14007793D02*
X8534944Y-13960174D01*
X8534944Y-13960174D02*
X8544467Y-13922079D01*
X8544467Y-13922079D02*
X8553991Y-13903031D01*
X8553991Y-13903031D02*
X8563515Y-13893508D01*
X8563515Y-13893508D02*
X8582563Y-13883984D01*
X8773039Y-13883984D02*
X8792086Y-13883984D01*
X8792086Y-13883984D02*
X8811134Y-13893508D01*
X8811134Y-13893508D02*
X8820658Y-13903031D01*
X8820658Y-13903031D02*
X8830182Y-13922079D01*
X8830182Y-13922079D02*
X8839705Y-13960174D01*
X8839705Y-13960174D02*
X8839705Y-14007793D01*
X8839705Y-14007793D02*
X8830182Y-14045888D01*
X8830182Y-14045888D02*
X8820658Y-14064936D01*
X8820658Y-14064936D02*
X8811134Y-14074460D01*
X8811134Y-14074460D02*
X8792086Y-14083984D01*
X8792086Y-14083984D02*
X8773039Y-14083984D01*
X8773039Y-14083984D02*
X8753991Y-14074460D01*
X8753991Y-14074460D02*
X8744467Y-14064936D01*
X8744467Y-14064936D02*
X8734944Y-14045888D01*
X8734944Y-14045888D02*
X8725420Y-14007793D01*
X8725420Y-14007793D02*
X8725420Y-13960174D01*
X8725420Y-13960174D02*
X8734944Y-13922079D01*
X8734944Y-13922079D02*
X8744467Y-13903031D01*
X8744467Y-13903031D02*
X8753991Y-13893508D01*
X8753991Y-13893508D02*
X8773039Y-13883984D01*
X8925420Y-14083984D02*
X8925420Y-13950650D01*
X8925420Y-13969698D02*
X8934944Y-13960174D01*
X8934944Y-13960174D02*
X8953991Y-13950650D01*
X8953991Y-13950650D02*
X8982563Y-13950650D01*
X8982563Y-13950650D02*
X9001610Y-13960174D01*
X9001610Y-13960174D02*
X9011134Y-13979222D01*
X9011134Y-13979222D02*
X9011134Y-14083984D01*
X9011134Y-13979222D02*
X9020658Y-13960174D01*
X9020658Y-13960174D02*
X9039705Y-13950650D01*
X9039705Y-13950650D02*
X9068277Y-13950650D01*
X9068277Y-13950650D02*
X9087325Y-13960174D01*
X9087325Y-13960174D02*
X9096848Y-13979222D01*
X9096848Y-13979222D02*
X9096848Y-14083984D01*
X9192086Y-14083984D02*
X9192086Y-13950650D01*
X9192086Y-13969698D02*
X9201610Y-13960174D01*
X9201610Y-13960174D02*
X9220658Y-13950650D01*
X9220658Y-13950650D02*
X9249229Y-13950650D01*
X9249229Y-13950650D02*
X9268277Y-13960174D01*
X9268277Y-13960174D02*
X9277801Y-13979222D01*
X9277801Y-13979222D02*
X9277801Y-14083984D01*
X9277801Y-13979222D02*
X9287325Y-13960174D01*
X9287325Y-13960174D02*
X9306372Y-13950650D01*
X9306372Y-13950650D02*
X9334944Y-13950650D01*
X9334944Y-13950650D02*
X9353991Y-13960174D01*
X9353991Y-13960174D02*
X9363515Y-13979222D01*
X9363515Y-13979222D02*
X9363515Y-14083984D01*
X9753991Y-13874460D02*
X9582563Y-14131603D01*
X10011134Y-13883984D02*
X10030182Y-13883984D01*
X10030182Y-13883984D02*
X10049229Y-13893508D01*
X10049229Y-13893508D02*
X10058753Y-13903031D01*
X10058753Y-13903031D02*
X10068277Y-13922079D01*
X10068277Y-13922079D02*
X10077801Y-13960174D01*
X10077801Y-13960174D02*
X10077801Y-14007793D01*
X10077801Y-14007793D02*
X10068277Y-14045888D01*
X10068277Y-14045888D02*
X10058753Y-14064936D01*
X10058753Y-14064936D02*
X10049229Y-14074460D01*
X10049229Y-14074460D02*
X10030182Y-14083984D01*
X10030182Y-14083984D02*
X10011134Y-14083984D01*
X10011134Y-14083984D02*
X9992087Y-14074460D01*
X9992087Y-14074460D02*
X9982563Y-14064936D01*
X9982563Y-14064936D02*
X9973039Y-14045888D01*
X9973039Y-14045888D02*
X9963515Y-14007793D01*
X9963515Y-14007793D02*
X9963515Y-13960174D01*
X9963515Y-13960174D02*
X9973039Y-13922079D01*
X9973039Y-13922079D02*
X9982563Y-13903031D01*
X9982563Y-13903031D02*
X9992087Y-13893508D01*
X9992087Y-13893508D02*
X10011134Y-13883984D01*
X10163515Y-14064936D02*
X10173039Y-14074460D01*
X10173039Y-14074460D02*
X10163515Y-14083984D01*
X10163515Y-14083984D02*
X10153991Y-14074460D01*
X10153991Y-14074460D02*
X10163515Y-14064936D01*
X10163515Y-14064936D02*
X10163515Y-14083984D01*
X10296848Y-13883984D02*
X10315896Y-13883984D01*
X10315896Y-13883984D02*
X10334944Y-13893508D01*
X10334944Y-13893508D02*
X10344468Y-13903031D01*
X10344468Y-13903031D02*
X10353991Y-13922079D01*
X10353991Y-13922079D02*
X10363515Y-13960174D01*
X10363515Y-13960174D02*
X10363515Y-14007793D01*
X10363515Y-14007793D02*
X10353991Y-14045888D01*
X10353991Y-14045888D02*
X10344468Y-14064936D01*
X10344468Y-14064936D02*
X10334944Y-14074460D01*
X10334944Y-14074460D02*
X10315896Y-14083984D01*
X10315896Y-14083984D02*
X10296848Y-14083984D01*
X10296848Y-14083984D02*
X10277801Y-14074460D01*
X10277801Y-14074460D02*
X10268277Y-14064936D01*
X10268277Y-14064936D02*
X10258753Y-14045888D01*
X10258753Y-14045888D02*
X10249229Y-14007793D01*
X10249229Y-14007793D02*
X10249229Y-13960174D01*
X10249229Y-13960174D02*
X10258753Y-13922079D01*
X10258753Y-13922079D02*
X10268277Y-13903031D01*
X10268277Y-13903031D02*
X10277801Y-13893508D01*
X10277801Y-13893508D02*
X10296848Y-13883984D01*
X10430182Y-13883984D02*
X10553991Y-13883984D01*
X10553991Y-13883984D02*
X10487325Y-13960174D01*
X10487325Y-13960174D02*
X10515896Y-13960174D01*
X10515896Y-13960174D02*
X10534944Y-13969698D01*
X10534944Y-13969698D02*
X10544468Y-13979222D01*
X10544468Y-13979222D02*
X10553991Y-13998269D01*
X10553991Y-13998269D02*
X10553991Y-14045888D01*
X10553991Y-14045888D02*
X10544468Y-14064936D01*
X10544468Y-14064936D02*
X10534944Y-14074460D01*
X10534944Y-14074460D02*
X10515896Y-14083984D01*
X10515896Y-14083984D02*
X10458753Y-14083984D01*
X10458753Y-14083984D02*
X10439706Y-14074460D01*
X10439706Y-14074460D02*
X10430182Y-14064936D01*
X10649229Y-14083984D02*
X10687325Y-14083984D01*
X10687325Y-14083984D02*
X10706372Y-14074460D01*
X10706372Y-14074460D02*
X10715896Y-14064936D01*
X10715896Y-14064936D02*
X10734944Y-14036365D01*
X10734944Y-14036365D02*
X10744468Y-13998269D01*
X10744468Y-13998269D02*
X10744468Y-13922079D01*
X10744468Y-13922079D02*
X10734944Y-13903031D01*
X10734944Y-13903031D02*
X10725420Y-13893508D01*
X10725420Y-13893508D02*
X10706372Y-13883984D01*
X10706372Y-13883984D02*
X10668277Y-13883984D01*
X10668277Y-13883984D02*
X10649229Y-13893508D01*
X10649229Y-13893508D02*
X10639706Y-13903031D01*
X10639706Y-13903031D02*
X10630182Y-13922079D01*
X10630182Y-13922079D02*
X10630182Y-13969698D01*
X10630182Y-13969698D02*
X10639706Y-13988746D01*
X10639706Y-13988746D02*
X10649229Y-13998269D01*
X10649229Y-13998269D02*
X10668277Y-14007793D01*
X10668277Y-14007793D02*
X10706372Y-14007793D01*
X10706372Y-14007793D02*
X10725420Y-13998269D01*
X10725420Y-13998269D02*
X10734944Y-13988746D01*
X10734944Y-13988746D02*
X10744468Y-13969698D01*
X10915896Y-13950650D02*
X10915896Y-14083984D01*
X10868277Y-13874460D02*
X10820658Y-14017317D01*
X10820658Y-14017317D02*
X10944468Y-14017317D01*
X11011134Y-13883984D02*
X11011134Y-13922079D01*
X11087325Y-13883984D02*
X11087325Y-13922079D01*
X11382563Y-14160174D02*
X11373039Y-14150650D01*
X11373039Y-14150650D02*
X11353991Y-14122079D01*
X11353991Y-14122079D02*
X11344468Y-14103031D01*
X11344468Y-14103031D02*
X11334944Y-14074460D01*
X11334944Y-14074460D02*
X11325420Y-14026841D01*
X11325420Y-14026841D02*
X11325420Y-13988746D01*
X11325420Y-13988746D02*
X11334944Y-13941127D01*
X11334944Y-13941127D02*
X11344468Y-13912555D01*
X11344468Y-13912555D02*
X11353991Y-13893508D01*
X11353991Y-13893508D02*
X11373039Y-13864936D01*
X11373039Y-13864936D02*
X11382563Y-13855412D01*
X11487325Y-13969698D02*
X11468277Y-13960174D01*
X11468277Y-13960174D02*
X11458753Y-13950650D01*
X11458753Y-13950650D02*
X11449229Y-13931603D01*
X11449229Y-13931603D02*
X11449229Y-13922079D01*
X11449229Y-13922079D02*
X11458753Y-13903031D01*
X11458753Y-13903031D02*
X11468277Y-13893508D01*
X11468277Y-13893508D02*
X11487325Y-13883984D01*
X11487325Y-13883984D02*
X11525420Y-13883984D01*
X11525420Y-13883984D02*
X11544468Y-13893508D01*
X11544468Y-13893508D02*
X11553991Y-13903031D01*
X11553991Y-13903031D02*
X11563515Y-13922079D01*
X11563515Y-13922079D02*
X11563515Y-13931603D01*
X11563515Y-13931603D02*
X11553991Y-13950650D01*
X11553991Y-13950650D02*
X11544468Y-13960174D01*
X11544468Y-13960174D02*
X11525420Y-13969698D01*
X11525420Y-13969698D02*
X11487325Y-13969698D01*
X11487325Y-13969698D02*
X11468277Y-13979222D01*
X11468277Y-13979222D02*
X11458753Y-13988746D01*
X11458753Y-13988746D02*
X11449229Y-14007793D01*
X11449229Y-14007793D02*
X11449229Y-14045888D01*
X11449229Y-14045888D02*
X11458753Y-14064936D01*
X11458753Y-14064936D02*
X11468277Y-14074460D01*
X11468277Y-14074460D02*
X11487325Y-14083984D01*
X11487325Y-14083984D02*
X11525420Y-14083984D01*
X11525420Y-14083984D02*
X11544468Y-14074460D01*
X11544468Y-14074460D02*
X11553991Y-14064936D01*
X11553991Y-14064936D02*
X11563515Y-14045888D01*
X11563515Y-14045888D02*
X11563515Y-14007793D01*
X11563515Y-14007793D02*
X11553991Y-13988746D01*
X11553991Y-13988746D02*
X11544468Y-13979222D01*
X11544468Y-13979222D02*
X11525420Y-13969698D01*
X11801610Y-14083984D02*
X11801610Y-13883984D01*
X11887325Y-14083984D02*
X11887325Y-13979222D01*
X11887325Y-13979222D02*
X11877801Y-13960174D01*
X11877801Y-13960174D02*
X11858753Y-13950650D01*
X11858753Y-13950650D02*
X11830182Y-13950650D01*
X11830182Y-13950650D02*
X11811134Y-13960174D01*
X11811134Y-13960174D02*
X11801610Y-13969698D01*
X12011134Y-14083984D02*
X11992087Y-14074460D01*
X11992087Y-14074460D02*
X11982563Y-14064936D01*
X11982563Y-14064936D02*
X11973039Y-14045888D01*
X11973039Y-14045888D02*
X11973039Y-13988746D01*
X11973039Y-13988746D02*
X11982563Y-13969698D01*
X11982563Y-13969698D02*
X11992087Y-13960174D01*
X11992087Y-13960174D02*
X12011134Y-13950650D01*
X12011134Y-13950650D02*
X12039706Y-13950650D01*
X12039706Y-13950650D02*
X12058753Y-13960174D01*
X12058753Y-13960174D02*
X12068277Y-13969698D01*
X12068277Y-13969698D02*
X12077801Y-13988746D01*
X12077801Y-13988746D02*
X12077801Y-14045888D01*
X12077801Y-14045888D02*
X12068277Y-14064936D01*
X12068277Y-14064936D02*
X12058753Y-14074460D01*
X12058753Y-14074460D02*
X12039706Y-14083984D01*
X12039706Y-14083984D02*
X12011134Y-14083984D01*
X12192087Y-14083984D02*
X12173039Y-14074460D01*
X12173039Y-14074460D02*
X12163515Y-14055412D01*
X12163515Y-14055412D02*
X12163515Y-13883984D01*
X12344468Y-14074460D02*
X12325420Y-14083984D01*
X12325420Y-14083984D02*
X12287325Y-14083984D01*
X12287325Y-14083984D02*
X12268277Y-14074460D01*
X12268277Y-14074460D02*
X12258753Y-14055412D01*
X12258753Y-14055412D02*
X12258753Y-13979222D01*
X12258753Y-13979222D02*
X12268277Y-13960174D01*
X12268277Y-13960174D02*
X12287325Y-13950650D01*
X12287325Y-13950650D02*
X12325420Y-13950650D01*
X12325420Y-13950650D02*
X12344468Y-13960174D01*
X12344468Y-13960174D02*
X12353991Y-13979222D01*
X12353991Y-13979222D02*
X12353991Y-13998269D01*
X12353991Y-13998269D02*
X12258753Y-14017317D01*
X12430182Y-14074460D02*
X12449230Y-14083984D01*
X12449230Y-14083984D02*
X12487325Y-14083984D01*
X12487325Y-14083984D02*
X12506372Y-14074460D01*
X12506372Y-14074460D02*
X12515896Y-14055412D01*
X12515896Y-14055412D02*
X12515896Y-14045888D01*
X12515896Y-14045888D02*
X12506372Y-14026841D01*
X12506372Y-14026841D02*
X12487325Y-14017317D01*
X12487325Y-14017317D02*
X12458753Y-14017317D01*
X12458753Y-14017317D02*
X12439706Y-14007793D01*
X12439706Y-14007793D02*
X12430182Y-13988746D01*
X12430182Y-13988746D02*
X12430182Y-13979222D01*
X12430182Y-13979222D02*
X12439706Y-13960174D01*
X12439706Y-13960174D02*
X12458753Y-13950650D01*
X12458753Y-13950650D02*
X12487325Y-13950650D01*
X12487325Y-13950650D02*
X12506372Y-13960174D01*
X12582563Y-14160174D02*
X12592087Y-14150650D01*
X12592087Y-14150650D02*
X12611134Y-14122079D01*
X12611134Y-14122079D02*
X12620658Y-14103031D01*
X12620658Y-14103031D02*
X12630182Y-14074460D01*
X12630182Y-14074460D02*
X12639706Y-14026841D01*
X12639706Y-14026841D02*
X12639706Y-13988746D01*
X12639706Y-13988746D02*
X12630182Y-13941127D01*
X12630182Y-13941127D02*
X12620658Y-13912555D01*
X12620658Y-13912555D02*
X12611134Y-13893508D01*
X12611134Y-13893508D02*
X12592087Y-13864936D01*
X12592087Y-13864936D02*
X12582563Y-13855412D01*
D13*
X7697500Y-14201500D02*
X7807500Y-14311500D01*
X7807500Y-14201500D02*
X7697500Y-14311500D01*
X7752500Y-14201500D02*
X7752500Y-14311500D01*
X7697500Y-14256500D02*
X7807500Y-14256500D01*
D11*
X8173039Y-14347984D02*
X8058753Y-14347984D01*
X8115896Y-14347984D02*
X8115896Y-14147984D01*
X8115896Y-14147984D02*
X8096848Y-14176555D01*
X8096848Y-14176555D02*
X8077801Y-14195603D01*
X8077801Y-14195603D02*
X8058753Y-14205127D01*
X8258753Y-14328936D02*
X8268277Y-14338460D01*
X8268277Y-14338460D02*
X8258753Y-14347984D01*
X8258753Y-14347984D02*
X8249229Y-14338460D01*
X8249229Y-14338460D02*
X8258753Y-14328936D01*
X8258753Y-14328936D02*
X8258753Y-14347984D01*
X8458753Y-14347984D02*
X8344467Y-14347984D01*
X8401610Y-14347984D02*
X8401610Y-14147984D01*
X8401610Y-14147984D02*
X8382562Y-14176555D01*
X8382562Y-14176555D02*
X8363515Y-14195603D01*
X8363515Y-14195603D02*
X8344467Y-14205127D01*
X8582563Y-14147984D02*
X8601610Y-14147984D01*
X8601610Y-14147984D02*
X8620658Y-14157508D01*
X8620658Y-14157508D02*
X8630182Y-14167031D01*
X8630182Y-14167031D02*
X8639705Y-14186079D01*
X8639705Y-14186079D02*
X8649229Y-14224174D01*
X8649229Y-14224174D02*
X8649229Y-14271793D01*
X8649229Y-14271793D02*
X8639705Y-14309888D01*
X8639705Y-14309888D02*
X8630182Y-14328936D01*
X8630182Y-14328936D02*
X8620658Y-14338460D01*
X8620658Y-14338460D02*
X8601610Y-14347984D01*
X8601610Y-14347984D02*
X8582563Y-14347984D01*
X8582563Y-14347984D02*
X8563515Y-14338460D01*
X8563515Y-14338460D02*
X8553991Y-14328936D01*
X8553991Y-14328936D02*
X8544467Y-14309888D01*
X8544467Y-14309888D02*
X8534944Y-14271793D01*
X8534944Y-14271793D02*
X8534944Y-14224174D01*
X8534944Y-14224174D02*
X8544467Y-14186079D01*
X8544467Y-14186079D02*
X8553991Y-14167031D01*
X8553991Y-14167031D02*
X8563515Y-14157508D01*
X8563515Y-14157508D02*
X8582563Y-14147984D01*
X8773039Y-14147984D02*
X8792086Y-14147984D01*
X8792086Y-14147984D02*
X8811134Y-14157508D01*
X8811134Y-14157508D02*
X8820658Y-14167031D01*
X8820658Y-14167031D02*
X8830182Y-14186079D01*
X8830182Y-14186079D02*
X8839705Y-14224174D01*
X8839705Y-14224174D02*
X8839705Y-14271793D01*
X8839705Y-14271793D02*
X8830182Y-14309888D01*
X8830182Y-14309888D02*
X8820658Y-14328936D01*
X8820658Y-14328936D02*
X8811134Y-14338460D01*
X8811134Y-14338460D02*
X8792086Y-14347984D01*
X8792086Y-14347984D02*
X8773039Y-14347984D01*
X8773039Y-14347984D02*
X8753991Y-14338460D01*
X8753991Y-14338460D02*
X8744467Y-14328936D01*
X8744467Y-14328936D02*
X8734944Y-14309888D01*
X8734944Y-14309888D02*
X8725420Y-14271793D01*
X8725420Y-14271793D02*
X8725420Y-14224174D01*
X8725420Y-14224174D02*
X8734944Y-14186079D01*
X8734944Y-14186079D02*
X8744467Y-14167031D01*
X8744467Y-14167031D02*
X8753991Y-14157508D01*
X8753991Y-14157508D02*
X8773039Y-14147984D01*
X8925420Y-14347984D02*
X8925420Y-14214650D01*
X8925420Y-14233698D02*
X8934944Y-14224174D01*
X8934944Y-14224174D02*
X8953991Y-14214650D01*
X8953991Y-14214650D02*
X8982563Y-14214650D01*
X8982563Y-14214650D02*
X9001610Y-14224174D01*
X9001610Y-14224174D02*
X9011134Y-14243222D01*
X9011134Y-14243222D02*
X9011134Y-14347984D01*
X9011134Y-14243222D02*
X9020658Y-14224174D01*
X9020658Y-14224174D02*
X9039705Y-14214650D01*
X9039705Y-14214650D02*
X9068277Y-14214650D01*
X9068277Y-14214650D02*
X9087325Y-14224174D01*
X9087325Y-14224174D02*
X9096848Y-14243222D01*
X9096848Y-14243222D02*
X9096848Y-14347984D01*
X9192086Y-14347984D02*
X9192086Y-14214650D01*
X9192086Y-14233698D02*
X9201610Y-14224174D01*
X9201610Y-14224174D02*
X9220658Y-14214650D01*
X9220658Y-14214650D02*
X9249229Y-14214650D01*
X9249229Y-14214650D02*
X9268277Y-14224174D01*
X9268277Y-14224174D02*
X9277801Y-14243222D01*
X9277801Y-14243222D02*
X9277801Y-14347984D01*
X9277801Y-14243222D02*
X9287325Y-14224174D01*
X9287325Y-14224174D02*
X9306372Y-14214650D01*
X9306372Y-14214650D02*
X9334944Y-14214650D01*
X9334944Y-14214650D02*
X9353991Y-14224174D01*
X9353991Y-14224174D02*
X9363515Y-14243222D01*
X9363515Y-14243222D02*
X9363515Y-14347984D01*
X9753991Y-14138460D02*
X9582563Y-14395603D01*
X10011134Y-14147984D02*
X10030182Y-14147984D01*
X10030182Y-14147984D02*
X10049229Y-14157508D01*
X10049229Y-14157508D02*
X10058753Y-14167031D01*
X10058753Y-14167031D02*
X10068277Y-14186079D01*
X10068277Y-14186079D02*
X10077801Y-14224174D01*
X10077801Y-14224174D02*
X10077801Y-14271793D01*
X10077801Y-14271793D02*
X10068277Y-14309888D01*
X10068277Y-14309888D02*
X10058753Y-14328936D01*
X10058753Y-14328936D02*
X10049229Y-14338460D01*
X10049229Y-14338460D02*
X10030182Y-14347984D01*
X10030182Y-14347984D02*
X10011134Y-14347984D01*
X10011134Y-14347984D02*
X9992087Y-14338460D01*
X9992087Y-14338460D02*
X9982563Y-14328936D01*
X9982563Y-14328936D02*
X9973039Y-14309888D01*
X9973039Y-14309888D02*
X9963515Y-14271793D01*
X9963515Y-14271793D02*
X9963515Y-14224174D01*
X9963515Y-14224174D02*
X9973039Y-14186079D01*
X9973039Y-14186079D02*
X9982563Y-14167031D01*
X9982563Y-14167031D02*
X9992087Y-14157508D01*
X9992087Y-14157508D02*
X10011134Y-14147984D01*
X10163515Y-14328936D02*
X10173039Y-14338460D01*
X10173039Y-14338460D02*
X10163515Y-14347984D01*
X10163515Y-14347984D02*
X10153991Y-14338460D01*
X10153991Y-14338460D02*
X10163515Y-14328936D01*
X10163515Y-14328936D02*
X10163515Y-14347984D01*
X10296848Y-14147984D02*
X10315896Y-14147984D01*
X10315896Y-14147984D02*
X10334944Y-14157508D01*
X10334944Y-14157508D02*
X10344468Y-14167031D01*
X10344468Y-14167031D02*
X10353991Y-14186079D01*
X10353991Y-14186079D02*
X10363515Y-14224174D01*
X10363515Y-14224174D02*
X10363515Y-14271793D01*
X10363515Y-14271793D02*
X10353991Y-14309888D01*
X10353991Y-14309888D02*
X10344468Y-14328936D01*
X10344468Y-14328936D02*
X10334944Y-14338460D01*
X10334944Y-14338460D02*
X10315896Y-14347984D01*
X10315896Y-14347984D02*
X10296848Y-14347984D01*
X10296848Y-14347984D02*
X10277801Y-14338460D01*
X10277801Y-14338460D02*
X10268277Y-14328936D01*
X10268277Y-14328936D02*
X10258753Y-14309888D01*
X10258753Y-14309888D02*
X10249229Y-14271793D01*
X10249229Y-14271793D02*
X10249229Y-14224174D01*
X10249229Y-14224174D02*
X10258753Y-14186079D01*
X10258753Y-14186079D02*
X10268277Y-14167031D01*
X10268277Y-14167031D02*
X10277801Y-14157508D01*
X10277801Y-14157508D02*
X10296848Y-14147984D01*
X10534944Y-14214650D02*
X10534944Y-14347984D01*
X10487325Y-14138460D02*
X10439706Y-14281317D01*
X10439706Y-14281317D02*
X10563515Y-14281317D01*
X10620658Y-14147984D02*
X10744468Y-14147984D01*
X10744468Y-14147984D02*
X10677801Y-14224174D01*
X10677801Y-14224174D02*
X10706372Y-14224174D01*
X10706372Y-14224174D02*
X10725420Y-14233698D01*
X10725420Y-14233698D02*
X10734944Y-14243222D01*
X10734944Y-14243222D02*
X10744468Y-14262269D01*
X10744468Y-14262269D02*
X10744468Y-14309888D01*
X10744468Y-14309888D02*
X10734944Y-14328936D01*
X10734944Y-14328936D02*
X10725420Y-14338460D01*
X10725420Y-14338460D02*
X10706372Y-14347984D01*
X10706372Y-14347984D02*
X10649229Y-14347984D01*
X10649229Y-14347984D02*
X10630182Y-14338460D01*
X10630182Y-14338460D02*
X10620658Y-14328936D01*
X10811134Y-14147984D02*
X10934944Y-14147984D01*
X10934944Y-14147984D02*
X10868277Y-14224174D01*
X10868277Y-14224174D02*
X10896849Y-14224174D01*
X10896849Y-14224174D02*
X10915896Y-14233698D01*
X10915896Y-14233698D02*
X10925420Y-14243222D01*
X10925420Y-14243222D02*
X10934944Y-14262269D01*
X10934944Y-14262269D02*
X10934944Y-14309888D01*
X10934944Y-14309888D02*
X10925420Y-14328936D01*
X10925420Y-14328936D02*
X10915896Y-14338460D01*
X10915896Y-14338460D02*
X10896849Y-14347984D01*
X10896849Y-14347984D02*
X10839706Y-14347984D01*
X10839706Y-14347984D02*
X10820658Y-14338460D01*
X10820658Y-14338460D02*
X10811134Y-14328936D01*
X11011134Y-14147984D02*
X11011134Y-14186079D01*
X11087325Y-14147984D02*
X11087325Y-14186079D01*
X11382563Y-14424174D02*
X11373039Y-14414650D01*
X11373039Y-14414650D02*
X11353991Y-14386079D01*
X11353991Y-14386079D02*
X11344468Y-14367031D01*
X11344468Y-14367031D02*
X11334944Y-14338460D01*
X11334944Y-14338460D02*
X11325420Y-14290841D01*
X11325420Y-14290841D02*
X11325420Y-14252746D01*
X11325420Y-14252746D02*
X11334944Y-14205127D01*
X11334944Y-14205127D02*
X11344468Y-14176555D01*
X11344468Y-14176555D02*
X11353991Y-14157508D01*
X11353991Y-14157508D02*
X11373039Y-14128936D01*
X11373039Y-14128936D02*
X11382563Y-14119412D01*
X11563515Y-14347984D02*
X11449229Y-14347984D01*
X11506372Y-14347984D02*
X11506372Y-14147984D01*
X11506372Y-14147984D02*
X11487325Y-14176555D01*
X11487325Y-14176555D02*
X11468277Y-14195603D01*
X11468277Y-14195603D02*
X11449229Y-14205127D01*
X11687325Y-14147984D02*
X11706372Y-14147984D01*
X11706372Y-14147984D02*
X11725420Y-14157508D01*
X11725420Y-14157508D02*
X11734944Y-14167031D01*
X11734944Y-14167031D02*
X11744468Y-14186079D01*
X11744468Y-14186079D02*
X11753991Y-14224174D01*
X11753991Y-14224174D02*
X11753991Y-14271793D01*
X11753991Y-14271793D02*
X11744468Y-14309888D01*
X11744468Y-14309888D02*
X11734944Y-14328936D01*
X11734944Y-14328936D02*
X11725420Y-14338460D01*
X11725420Y-14338460D02*
X11706372Y-14347984D01*
X11706372Y-14347984D02*
X11687325Y-14347984D01*
X11687325Y-14347984D02*
X11668277Y-14338460D01*
X11668277Y-14338460D02*
X11658753Y-14328936D01*
X11658753Y-14328936D02*
X11649229Y-14309888D01*
X11649229Y-14309888D02*
X11639706Y-14271793D01*
X11639706Y-14271793D02*
X11639706Y-14224174D01*
X11639706Y-14224174D02*
X11649229Y-14186079D01*
X11649229Y-14186079D02*
X11658753Y-14167031D01*
X11658753Y-14167031D02*
X11668277Y-14157508D01*
X11668277Y-14157508D02*
X11687325Y-14147984D01*
X11992087Y-14347984D02*
X11992087Y-14147984D01*
X12077801Y-14347984D02*
X12077801Y-14243222D01*
X12077801Y-14243222D02*
X12068277Y-14224174D01*
X12068277Y-14224174D02*
X12049230Y-14214650D01*
X12049230Y-14214650D02*
X12020658Y-14214650D01*
X12020658Y-14214650D02*
X12001610Y-14224174D01*
X12001610Y-14224174D02*
X11992087Y-14233698D01*
X12201610Y-14347984D02*
X12182563Y-14338460D01*
X12182563Y-14338460D02*
X12173039Y-14328936D01*
X12173039Y-14328936D02*
X12163515Y-14309888D01*
X12163515Y-14309888D02*
X12163515Y-14252746D01*
X12163515Y-14252746D02*
X12173039Y-14233698D01*
X12173039Y-14233698D02*
X12182563Y-14224174D01*
X12182563Y-14224174D02*
X12201610Y-14214650D01*
X12201610Y-14214650D02*
X12230182Y-14214650D01*
X12230182Y-14214650D02*
X12249230Y-14224174D01*
X12249230Y-14224174D02*
X12258753Y-14233698D01*
X12258753Y-14233698D02*
X12268277Y-14252746D01*
X12268277Y-14252746D02*
X12268277Y-14309888D01*
X12268277Y-14309888D02*
X12258753Y-14328936D01*
X12258753Y-14328936D02*
X12249230Y-14338460D01*
X12249230Y-14338460D02*
X12230182Y-14347984D01*
X12230182Y-14347984D02*
X12201610Y-14347984D01*
X12382563Y-14347984D02*
X12363515Y-14338460D01*
X12363515Y-14338460D02*
X12353991Y-14319412D01*
X12353991Y-14319412D02*
X12353991Y-14147984D01*
X12534944Y-14338460D02*
X12515896Y-14347984D01*
X12515896Y-14347984D02*
X12477801Y-14347984D01*
X12477801Y-14347984D02*
X12458753Y-14338460D01*
X12458753Y-14338460D02*
X12449230Y-14319412D01*
X12449230Y-14319412D02*
X12449230Y-14243222D01*
X12449230Y-14243222D02*
X12458753Y-14224174D01*
X12458753Y-14224174D02*
X12477801Y-14214650D01*
X12477801Y-14214650D02*
X12515896Y-14214650D01*
X12515896Y-14214650D02*
X12534944Y-14224174D01*
X12534944Y-14224174D02*
X12544468Y-14243222D01*
X12544468Y-14243222D02*
X12544468Y-14262269D01*
X12544468Y-14262269D02*
X12449230Y-14281317D01*
X12620658Y-14338460D02*
X12639706Y-14347984D01*
X12639706Y-14347984D02*
X12677801Y-14347984D01*
X12677801Y-14347984D02*
X12696849Y-14338460D01*
X12696849Y-14338460D02*
X12706372Y-14319412D01*
X12706372Y-14319412D02*
X12706372Y-14309888D01*
X12706372Y-14309888D02*
X12696849Y-14290841D01*
X12696849Y-14290841D02*
X12677801Y-14281317D01*
X12677801Y-14281317D02*
X12649230Y-14281317D01*
X12649230Y-14281317D02*
X12630182Y-14271793D01*
X12630182Y-14271793D02*
X12620658Y-14252746D01*
X12620658Y-14252746D02*
X12620658Y-14243222D01*
X12620658Y-14243222D02*
X12630182Y-14224174D01*
X12630182Y-14224174D02*
X12649230Y-14214650D01*
X12649230Y-14214650D02*
X12677801Y-14214650D01*
X12677801Y-14214650D02*
X12696849Y-14224174D01*
X12773039Y-14424174D02*
X12782563Y-14414650D01*
X12782563Y-14414650D02*
X12801611Y-14386079D01*
X12801611Y-14386079D02*
X12811134Y-14367031D01*
X12811134Y-14367031D02*
X12820658Y-14338460D01*
X12820658Y-14338460D02*
X12830182Y-14290841D01*
X12830182Y-14290841D02*
X12830182Y-14252746D01*
X12830182Y-14252746D02*
X12820658Y-14205127D01*
X12820658Y-14205127D02*
X12811134Y-14176555D01*
X12811134Y-14176555D02*
X12801611Y-14157508D01*
X12801611Y-14157508D02*
X12782563Y-14128936D01*
X12782563Y-14128936D02*
X12773039Y-14119412D01*
D14*
X7677500Y-14455500D02*
X7807500Y-14585500D01*
X7807500Y-14455500D02*
X7677500Y-14585500D01*
X7788462Y-14566462D02*
X7788462Y-14474538D01*
X7696538Y-14474538D01*
X7696538Y-14566462D01*
X7788462Y-14566462D01*
D11*
X8173039Y-14611984D02*
X8058753Y-14611984D01*
X8115896Y-14611984D02*
X8115896Y-14411984D01*
X8115896Y-14411984D02*
X8096848Y-14440555D01*
X8096848Y-14440555D02*
X8077801Y-14459603D01*
X8077801Y-14459603D02*
X8058753Y-14469127D01*
X8258753Y-14592936D02*
X8268277Y-14602460D01*
X8268277Y-14602460D02*
X8258753Y-14611984D01*
X8258753Y-14611984D02*
X8249229Y-14602460D01*
X8249229Y-14602460D02*
X8258753Y-14592936D01*
X8258753Y-14592936D02*
X8258753Y-14611984D01*
X8334943Y-14411984D02*
X8458753Y-14411984D01*
X8458753Y-14411984D02*
X8392086Y-14488174D01*
X8392086Y-14488174D02*
X8420658Y-14488174D01*
X8420658Y-14488174D02*
X8439705Y-14497698D01*
X8439705Y-14497698D02*
X8449229Y-14507222D01*
X8449229Y-14507222D02*
X8458753Y-14526269D01*
X8458753Y-14526269D02*
X8458753Y-14573888D01*
X8458753Y-14573888D02*
X8449229Y-14592936D01*
X8449229Y-14592936D02*
X8439705Y-14602460D01*
X8439705Y-14602460D02*
X8420658Y-14611984D01*
X8420658Y-14611984D02*
X8363515Y-14611984D01*
X8363515Y-14611984D02*
X8344467Y-14602460D01*
X8344467Y-14602460D02*
X8334943Y-14592936D01*
X8582563Y-14411984D02*
X8601610Y-14411984D01*
X8601610Y-14411984D02*
X8620658Y-14421508D01*
X8620658Y-14421508D02*
X8630182Y-14431031D01*
X8630182Y-14431031D02*
X8639705Y-14450079D01*
X8639705Y-14450079D02*
X8649229Y-14488174D01*
X8649229Y-14488174D02*
X8649229Y-14535793D01*
X8649229Y-14535793D02*
X8639705Y-14573888D01*
X8639705Y-14573888D02*
X8630182Y-14592936D01*
X8630182Y-14592936D02*
X8620658Y-14602460D01*
X8620658Y-14602460D02*
X8601610Y-14611984D01*
X8601610Y-14611984D02*
X8582563Y-14611984D01*
X8582563Y-14611984D02*
X8563515Y-14602460D01*
X8563515Y-14602460D02*
X8553991Y-14592936D01*
X8553991Y-14592936D02*
X8544467Y-14573888D01*
X8544467Y-14573888D02*
X8534944Y-14535793D01*
X8534944Y-14535793D02*
X8534944Y-14488174D01*
X8534944Y-14488174D02*
X8544467Y-14450079D01*
X8544467Y-14450079D02*
X8553991Y-14431031D01*
X8553991Y-14431031D02*
X8563515Y-14421508D01*
X8563515Y-14421508D02*
X8582563Y-14411984D01*
X8773039Y-14411984D02*
X8792086Y-14411984D01*
X8792086Y-14411984D02*
X8811134Y-14421508D01*
X8811134Y-14421508D02*
X8820658Y-14431031D01*
X8820658Y-14431031D02*
X8830182Y-14450079D01*
X8830182Y-14450079D02*
X8839705Y-14488174D01*
X8839705Y-14488174D02*
X8839705Y-14535793D01*
X8839705Y-14535793D02*
X8830182Y-14573888D01*
X8830182Y-14573888D02*
X8820658Y-14592936D01*
X8820658Y-14592936D02*
X8811134Y-14602460D01*
X8811134Y-14602460D02*
X8792086Y-14611984D01*
X8792086Y-14611984D02*
X8773039Y-14611984D01*
X8773039Y-14611984D02*
X8753991Y-14602460D01*
X8753991Y-14602460D02*
X8744467Y-14592936D01*
X8744467Y-14592936D02*
X8734944Y-14573888D01*
X8734944Y-14573888D02*
X8725420Y-14535793D01*
X8725420Y-14535793D02*
X8725420Y-14488174D01*
X8725420Y-14488174D02*
X8734944Y-14450079D01*
X8734944Y-14450079D02*
X8744467Y-14431031D01*
X8744467Y-14431031D02*
X8753991Y-14421508D01*
X8753991Y-14421508D02*
X8773039Y-14411984D01*
X8925420Y-14611984D02*
X8925420Y-14478650D01*
X8925420Y-14497698D02*
X8934944Y-14488174D01*
X8934944Y-14488174D02*
X8953991Y-14478650D01*
X8953991Y-14478650D02*
X8982563Y-14478650D01*
X8982563Y-14478650D02*
X9001610Y-14488174D01*
X9001610Y-14488174D02*
X9011134Y-14507222D01*
X9011134Y-14507222D02*
X9011134Y-14611984D01*
X9011134Y-14507222D02*
X9020658Y-14488174D01*
X9020658Y-14488174D02*
X9039705Y-14478650D01*
X9039705Y-14478650D02*
X9068277Y-14478650D01*
X9068277Y-14478650D02*
X9087325Y-14488174D01*
X9087325Y-14488174D02*
X9096848Y-14507222D01*
X9096848Y-14507222D02*
X9096848Y-14611984D01*
X9192086Y-14611984D02*
X9192086Y-14478650D01*
X9192086Y-14497698D02*
X9201610Y-14488174D01*
X9201610Y-14488174D02*
X9220658Y-14478650D01*
X9220658Y-14478650D02*
X9249229Y-14478650D01*
X9249229Y-14478650D02*
X9268277Y-14488174D01*
X9268277Y-14488174D02*
X9277801Y-14507222D01*
X9277801Y-14507222D02*
X9277801Y-14611984D01*
X9277801Y-14507222D02*
X9287325Y-14488174D01*
X9287325Y-14488174D02*
X9306372Y-14478650D01*
X9306372Y-14478650D02*
X9334944Y-14478650D01*
X9334944Y-14478650D02*
X9353991Y-14488174D01*
X9353991Y-14488174D02*
X9363515Y-14507222D01*
X9363515Y-14507222D02*
X9363515Y-14611984D01*
X9753991Y-14402460D02*
X9582563Y-14659603D01*
X10011134Y-14411984D02*
X10030182Y-14411984D01*
X10030182Y-14411984D02*
X10049229Y-14421508D01*
X10049229Y-14421508D02*
X10058753Y-14431031D01*
X10058753Y-14431031D02*
X10068277Y-14450079D01*
X10068277Y-14450079D02*
X10077801Y-14488174D01*
X10077801Y-14488174D02*
X10077801Y-14535793D01*
X10077801Y-14535793D02*
X10068277Y-14573888D01*
X10068277Y-14573888D02*
X10058753Y-14592936D01*
X10058753Y-14592936D02*
X10049229Y-14602460D01*
X10049229Y-14602460D02*
X10030182Y-14611984D01*
X10030182Y-14611984D02*
X10011134Y-14611984D01*
X10011134Y-14611984D02*
X9992087Y-14602460D01*
X9992087Y-14602460D02*
X9982563Y-14592936D01*
X9982563Y-14592936D02*
X9973039Y-14573888D01*
X9973039Y-14573888D02*
X9963515Y-14535793D01*
X9963515Y-14535793D02*
X9963515Y-14488174D01*
X9963515Y-14488174D02*
X9973039Y-14450079D01*
X9973039Y-14450079D02*
X9982563Y-14431031D01*
X9982563Y-14431031D02*
X9992087Y-14421508D01*
X9992087Y-14421508D02*
X10011134Y-14411984D01*
X10163515Y-14592936D02*
X10173039Y-14602460D01*
X10173039Y-14602460D02*
X10163515Y-14611984D01*
X10163515Y-14611984D02*
X10153991Y-14602460D01*
X10153991Y-14602460D02*
X10163515Y-14592936D01*
X10163515Y-14592936D02*
X10163515Y-14611984D01*
X10296848Y-14411984D02*
X10315896Y-14411984D01*
X10315896Y-14411984D02*
X10334944Y-14421508D01*
X10334944Y-14421508D02*
X10344468Y-14431031D01*
X10344468Y-14431031D02*
X10353991Y-14450079D01*
X10353991Y-14450079D02*
X10363515Y-14488174D01*
X10363515Y-14488174D02*
X10363515Y-14535793D01*
X10363515Y-14535793D02*
X10353991Y-14573888D01*
X10353991Y-14573888D02*
X10344468Y-14592936D01*
X10344468Y-14592936D02*
X10334944Y-14602460D01*
X10334944Y-14602460D02*
X10315896Y-14611984D01*
X10315896Y-14611984D02*
X10296848Y-14611984D01*
X10296848Y-14611984D02*
X10277801Y-14602460D01*
X10277801Y-14602460D02*
X10268277Y-14592936D01*
X10268277Y-14592936D02*
X10258753Y-14573888D01*
X10258753Y-14573888D02*
X10249229Y-14535793D01*
X10249229Y-14535793D02*
X10249229Y-14488174D01*
X10249229Y-14488174D02*
X10258753Y-14450079D01*
X10258753Y-14450079D02*
X10268277Y-14431031D01*
X10268277Y-14431031D02*
X10277801Y-14421508D01*
X10277801Y-14421508D02*
X10296848Y-14411984D01*
X10544468Y-14411984D02*
X10449229Y-14411984D01*
X10449229Y-14411984D02*
X10439706Y-14507222D01*
X10439706Y-14507222D02*
X10449229Y-14497698D01*
X10449229Y-14497698D02*
X10468277Y-14488174D01*
X10468277Y-14488174D02*
X10515896Y-14488174D01*
X10515896Y-14488174D02*
X10534944Y-14497698D01*
X10534944Y-14497698D02*
X10544468Y-14507222D01*
X10544468Y-14507222D02*
X10553991Y-14526269D01*
X10553991Y-14526269D02*
X10553991Y-14573888D01*
X10553991Y-14573888D02*
X10544468Y-14592936D01*
X10544468Y-14592936D02*
X10534944Y-14602460D01*
X10534944Y-14602460D02*
X10515896Y-14611984D01*
X10515896Y-14611984D02*
X10468277Y-14611984D01*
X10468277Y-14611984D02*
X10449229Y-14602460D01*
X10449229Y-14602460D02*
X10439706Y-14592936D01*
X10744468Y-14611984D02*
X10630182Y-14611984D01*
X10687325Y-14611984D02*
X10687325Y-14411984D01*
X10687325Y-14411984D02*
X10668277Y-14440555D01*
X10668277Y-14440555D02*
X10649229Y-14459603D01*
X10649229Y-14459603D02*
X10630182Y-14469127D01*
X10820658Y-14431031D02*
X10830182Y-14421508D01*
X10830182Y-14421508D02*
X10849229Y-14411984D01*
X10849229Y-14411984D02*
X10896849Y-14411984D01*
X10896849Y-14411984D02*
X10915896Y-14421508D01*
X10915896Y-14421508D02*
X10925420Y-14431031D01*
X10925420Y-14431031D02*
X10934944Y-14450079D01*
X10934944Y-14450079D02*
X10934944Y-14469127D01*
X10934944Y-14469127D02*
X10925420Y-14497698D01*
X10925420Y-14497698D02*
X10811134Y-14611984D01*
X10811134Y-14611984D02*
X10934944Y-14611984D01*
X11011134Y-14411984D02*
X11011134Y-14450079D01*
X11087325Y-14411984D02*
X11087325Y-14450079D01*
X11382563Y-14688174D02*
X11373039Y-14678650D01*
X11373039Y-14678650D02*
X11353991Y-14650079D01*
X11353991Y-14650079D02*
X11344468Y-14631031D01*
X11344468Y-14631031D02*
X11334944Y-14602460D01*
X11334944Y-14602460D02*
X11325420Y-14554841D01*
X11325420Y-14554841D02*
X11325420Y-14516746D01*
X11325420Y-14516746D02*
X11334944Y-14469127D01*
X11334944Y-14469127D02*
X11344468Y-14440555D01*
X11344468Y-14440555D02*
X11353991Y-14421508D01*
X11353991Y-14421508D02*
X11373039Y-14392936D01*
X11373039Y-14392936D02*
X11382563Y-14383412D01*
X11553991Y-14411984D02*
X11458753Y-14411984D01*
X11458753Y-14411984D02*
X11449229Y-14507222D01*
X11449229Y-14507222D02*
X11458753Y-14497698D01*
X11458753Y-14497698D02*
X11477801Y-14488174D01*
X11477801Y-14488174D02*
X11525420Y-14488174D01*
X11525420Y-14488174D02*
X11544468Y-14497698D01*
X11544468Y-14497698D02*
X11553991Y-14507222D01*
X11553991Y-14507222D02*
X11563515Y-14526269D01*
X11563515Y-14526269D02*
X11563515Y-14573888D01*
X11563515Y-14573888D02*
X11553991Y-14592936D01*
X11553991Y-14592936D02*
X11544468Y-14602460D01*
X11544468Y-14602460D02*
X11525420Y-14611984D01*
X11525420Y-14611984D02*
X11477801Y-14611984D01*
X11477801Y-14611984D02*
X11458753Y-14602460D01*
X11458753Y-14602460D02*
X11449229Y-14592936D01*
X11801610Y-14611984D02*
X11801610Y-14411984D01*
X11887325Y-14611984D02*
X11887325Y-14507222D01*
X11887325Y-14507222D02*
X11877801Y-14488174D01*
X11877801Y-14488174D02*
X11858753Y-14478650D01*
X11858753Y-14478650D02*
X11830182Y-14478650D01*
X11830182Y-14478650D02*
X11811134Y-14488174D01*
X11811134Y-14488174D02*
X11801610Y-14497698D01*
X12011134Y-14611984D02*
X11992087Y-14602460D01*
X11992087Y-14602460D02*
X11982563Y-14592936D01*
X11982563Y-14592936D02*
X11973039Y-14573888D01*
X11973039Y-14573888D02*
X11973039Y-14516746D01*
X11973039Y-14516746D02*
X11982563Y-14497698D01*
X11982563Y-14497698D02*
X11992087Y-14488174D01*
X11992087Y-14488174D02*
X12011134Y-14478650D01*
X12011134Y-14478650D02*
X12039706Y-14478650D01*
X12039706Y-14478650D02*
X12058753Y-14488174D01*
X12058753Y-14488174D02*
X12068277Y-14497698D01*
X12068277Y-14497698D02*
X12077801Y-14516746D01*
X12077801Y-14516746D02*
X12077801Y-14573888D01*
X12077801Y-14573888D02*
X12068277Y-14592936D01*
X12068277Y-14592936D02*
X12058753Y-14602460D01*
X12058753Y-14602460D02*
X12039706Y-14611984D01*
X12039706Y-14611984D02*
X12011134Y-14611984D01*
X12192087Y-14611984D02*
X12173039Y-14602460D01*
X12173039Y-14602460D02*
X12163515Y-14583412D01*
X12163515Y-14583412D02*
X12163515Y-14411984D01*
X12344468Y-14602460D02*
X12325420Y-14611984D01*
X12325420Y-14611984D02*
X12287325Y-14611984D01*
X12287325Y-14611984D02*
X12268277Y-14602460D01*
X12268277Y-14602460D02*
X12258753Y-14583412D01*
X12258753Y-14583412D02*
X12258753Y-14507222D01*
X12258753Y-14507222D02*
X12268277Y-14488174D01*
X12268277Y-14488174D02*
X12287325Y-14478650D01*
X12287325Y-14478650D02*
X12325420Y-14478650D01*
X12325420Y-14478650D02*
X12344468Y-14488174D01*
X12344468Y-14488174D02*
X12353991Y-14507222D01*
X12353991Y-14507222D02*
X12353991Y-14526269D01*
X12353991Y-14526269D02*
X12258753Y-14545317D01*
X12430182Y-14602460D02*
X12449230Y-14611984D01*
X12449230Y-14611984D02*
X12487325Y-14611984D01*
X12487325Y-14611984D02*
X12506372Y-14602460D01*
X12506372Y-14602460D02*
X12515896Y-14583412D01*
X12515896Y-14583412D02*
X12515896Y-14573888D01*
X12515896Y-14573888D02*
X12506372Y-14554841D01*
X12506372Y-14554841D02*
X12487325Y-14545317D01*
X12487325Y-14545317D02*
X12458753Y-14545317D01*
X12458753Y-14545317D02*
X12439706Y-14535793D01*
X12439706Y-14535793D02*
X12430182Y-14516746D01*
X12430182Y-14516746D02*
X12430182Y-14507222D01*
X12430182Y-14507222D02*
X12439706Y-14488174D01*
X12439706Y-14488174D02*
X12458753Y-14478650D01*
X12458753Y-14478650D02*
X12487325Y-14478650D01*
X12487325Y-14478650D02*
X12506372Y-14488174D01*
X12582563Y-14688174D02*
X12592087Y-14678650D01*
X12592087Y-14678650D02*
X12611134Y-14650079D01*
X12611134Y-14650079D02*
X12620658Y-14631031D01*
X12620658Y-14631031D02*
X12630182Y-14602460D01*
X12630182Y-14602460D02*
X12639706Y-14554841D01*
X12639706Y-14554841D02*
X12639706Y-14516746D01*
X12639706Y-14516746D02*
X12630182Y-14469127D01*
X12630182Y-14469127D02*
X12620658Y-14440555D01*
X12620658Y-14440555D02*
X12611134Y-14421508D01*
X12611134Y-14421508D02*
X12592087Y-14392936D01*
X12592087Y-14392936D02*
X12582563Y-14383412D01*
D15*
X7655500Y-14708500D02*
X7807500Y-14860500D01*
X7807500Y-14708500D02*
X7655500Y-14860500D01*
X7731500Y-14860500D02*
X7807500Y-14784500D01*
X7731500Y-14708500D01*
X7655500Y-14784500D01*
X7731500Y-14860500D01*
D11*
X8173039Y-14875984D02*
X8058753Y-14875984D01*
X8115896Y-14875984D02*
X8115896Y-14675984D01*
X8115896Y-14675984D02*
X8096848Y-14704555D01*
X8096848Y-14704555D02*
X8077801Y-14723603D01*
X8077801Y-14723603D02*
X8058753Y-14733127D01*
X8258753Y-14856936D02*
X8268277Y-14866460D01*
X8268277Y-14866460D02*
X8258753Y-14875984D01*
X8258753Y-14875984D02*
X8249229Y-14866460D01*
X8249229Y-14866460D02*
X8258753Y-14856936D01*
X8258753Y-14856936D02*
X8258753Y-14875984D01*
X8449229Y-14675984D02*
X8353991Y-14675984D01*
X8353991Y-14675984D02*
X8344467Y-14771222D01*
X8344467Y-14771222D02*
X8353991Y-14761698D01*
X8353991Y-14761698D02*
X8373039Y-14752174D01*
X8373039Y-14752174D02*
X8420658Y-14752174D01*
X8420658Y-14752174D02*
X8439705Y-14761698D01*
X8439705Y-14761698D02*
X8449229Y-14771222D01*
X8449229Y-14771222D02*
X8458753Y-14790269D01*
X8458753Y-14790269D02*
X8458753Y-14837888D01*
X8458753Y-14837888D02*
X8449229Y-14856936D01*
X8449229Y-14856936D02*
X8439705Y-14866460D01*
X8439705Y-14866460D02*
X8420658Y-14875984D01*
X8420658Y-14875984D02*
X8373039Y-14875984D01*
X8373039Y-14875984D02*
X8353991Y-14866460D01*
X8353991Y-14866460D02*
X8344467Y-14856936D01*
X8534944Y-14695031D02*
X8544467Y-14685508D01*
X8544467Y-14685508D02*
X8563515Y-14675984D01*
X8563515Y-14675984D02*
X8611134Y-14675984D01*
X8611134Y-14675984D02*
X8630182Y-14685508D01*
X8630182Y-14685508D02*
X8639705Y-14695031D01*
X8639705Y-14695031D02*
X8649229Y-14714079D01*
X8649229Y-14714079D02*
X8649229Y-14733127D01*
X8649229Y-14733127D02*
X8639705Y-14761698D01*
X8639705Y-14761698D02*
X8525420Y-14875984D01*
X8525420Y-14875984D02*
X8649229Y-14875984D01*
X8773039Y-14675984D02*
X8792086Y-14675984D01*
X8792086Y-14675984D02*
X8811134Y-14685508D01*
X8811134Y-14685508D02*
X8820658Y-14695031D01*
X8820658Y-14695031D02*
X8830182Y-14714079D01*
X8830182Y-14714079D02*
X8839705Y-14752174D01*
X8839705Y-14752174D02*
X8839705Y-14799793D01*
X8839705Y-14799793D02*
X8830182Y-14837888D01*
X8830182Y-14837888D02*
X8820658Y-14856936D01*
X8820658Y-14856936D02*
X8811134Y-14866460D01*
X8811134Y-14866460D02*
X8792086Y-14875984D01*
X8792086Y-14875984D02*
X8773039Y-14875984D01*
X8773039Y-14875984D02*
X8753991Y-14866460D01*
X8753991Y-14866460D02*
X8744467Y-14856936D01*
X8744467Y-14856936D02*
X8734944Y-14837888D01*
X8734944Y-14837888D02*
X8725420Y-14799793D01*
X8725420Y-14799793D02*
X8725420Y-14752174D01*
X8725420Y-14752174D02*
X8734944Y-14714079D01*
X8734944Y-14714079D02*
X8744467Y-14695031D01*
X8744467Y-14695031D02*
X8753991Y-14685508D01*
X8753991Y-14685508D02*
X8773039Y-14675984D01*
X8925420Y-14875984D02*
X8925420Y-14742650D01*
X8925420Y-14761698D02*
X8934944Y-14752174D01*
X8934944Y-14752174D02*
X8953991Y-14742650D01*
X8953991Y-14742650D02*
X8982563Y-14742650D01*
X8982563Y-14742650D02*
X9001610Y-14752174D01*
X9001610Y-14752174D02*
X9011134Y-14771222D01*
X9011134Y-14771222D02*
X9011134Y-14875984D01*
X9011134Y-14771222D02*
X9020658Y-14752174D01*
X9020658Y-14752174D02*
X9039705Y-14742650D01*
X9039705Y-14742650D02*
X9068277Y-14742650D01*
X9068277Y-14742650D02*
X9087325Y-14752174D01*
X9087325Y-14752174D02*
X9096848Y-14771222D01*
X9096848Y-14771222D02*
X9096848Y-14875984D01*
X9192086Y-14875984D02*
X9192086Y-14742650D01*
X9192086Y-14761698D02*
X9201610Y-14752174D01*
X9201610Y-14752174D02*
X9220658Y-14742650D01*
X9220658Y-14742650D02*
X9249229Y-14742650D01*
X9249229Y-14742650D02*
X9268277Y-14752174D01*
X9268277Y-14752174D02*
X9277801Y-14771222D01*
X9277801Y-14771222D02*
X9277801Y-14875984D01*
X9277801Y-14771222D02*
X9287325Y-14752174D01*
X9287325Y-14752174D02*
X9306372Y-14742650D01*
X9306372Y-14742650D02*
X9334944Y-14742650D01*
X9334944Y-14742650D02*
X9353991Y-14752174D01*
X9353991Y-14752174D02*
X9363515Y-14771222D01*
X9363515Y-14771222D02*
X9363515Y-14875984D01*
X9753991Y-14666460D02*
X9582563Y-14923603D01*
X10011134Y-14675984D02*
X10030182Y-14675984D01*
X10030182Y-14675984D02*
X10049229Y-14685508D01*
X10049229Y-14685508D02*
X10058753Y-14695031D01*
X10058753Y-14695031D02*
X10068277Y-14714079D01*
X10068277Y-14714079D02*
X10077801Y-14752174D01*
X10077801Y-14752174D02*
X10077801Y-14799793D01*
X10077801Y-14799793D02*
X10068277Y-14837888D01*
X10068277Y-14837888D02*
X10058753Y-14856936D01*
X10058753Y-14856936D02*
X10049229Y-14866460D01*
X10049229Y-14866460D02*
X10030182Y-14875984D01*
X10030182Y-14875984D02*
X10011134Y-14875984D01*
X10011134Y-14875984D02*
X9992087Y-14866460D01*
X9992087Y-14866460D02*
X9982563Y-14856936D01*
X9982563Y-14856936D02*
X9973039Y-14837888D01*
X9973039Y-14837888D02*
X9963515Y-14799793D01*
X9963515Y-14799793D02*
X9963515Y-14752174D01*
X9963515Y-14752174D02*
X9973039Y-14714079D01*
X9973039Y-14714079D02*
X9982563Y-14695031D01*
X9982563Y-14695031D02*
X9992087Y-14685508D01*
X9992087Y-14685508D02*
X10011134Y-14675984D01*
X10163515Y-14856936D02*
X10173039Y-14866460D01*
X10173039Y-14866460D02*
X10163515Y-14875984D01*
X10163515Y-14875984D02*
X10153991Y-14866460D01*
X10153991Y-14866460D02*
X10163515Y-14856936D01*
X10163515Y-14856936D02*
X10163515Y-14875984D01*
X10296848Y-14675984D02*
X10315896Y-14675984D01*
X10315896Y-14675984D02*
X10334944Y-14685508D01*
X10334944Y-14685508D02*
X10344468Y-14695031D01*
X10344468Y-14695031D02*
X10353991Y-14714079D01*
X10353991Y-14714079D02*
X10363515Y-14752174D01*
X10363515Y-14752174D02*
X10363515Y-14799793D01*
X10363515Y-14799793D02*
X10353991Y-14837888D01*
X10353991Y-14837888D02*
X10344468Y-14856936D01*
X10344468Y-14856936D02*
X10334944Y-14866460D01*
X10334944Y-14866460D02*
X10315896Y-14875984D01*
X10315896Y-14875984D02*
X10296848Y-14875984D01*
X10296848Y-14875984D02*
X10277801Y-14866460D01*
X10277801Y-14866460D02*
X10268277Y-14856936D01*
X10268277Y-14856936D02*
X10258753Y-14837888D01*
X10258753Y-14837888D02*
X10249229Y-14799793D01*
X10249229Y-14799793D02*
X10249229Y-14752174D01*
X10249229Y-14752174D02*
X10258753Y-14714079D01*
X10258753Y-14714079D02*
X10268277Y-14695031D01*
X10268277Y-14695031D02*
X10277801Y-14685508D01*
X10277801Y-14685508D02*
X10296848Y-14675984D01*
X10544468Y-14675984D02*
X10449229Y-14675984D01*
X10449229Y-14675984D02*
X10439706Y-14771222D01*
X10439706Y-14771222D02*
X10449229Y-14761698D01*
X10449229Y-14761698D02*
X10468277Y-14752174D01*
X10468277Y-14752174D02*
X10515896Y-14752174D01*
X10515896Y-14752174D02*
X10534944Y-14761698D01*
X10534944Y-14761698D02*
X10544468Y-14771222D01*
X10544468Y-14771222D02*
X10553991Y-14790269D01*
X10553991Y-14790269D02*
X10553991Y-14837888D01*
X10553991Y-14837888D02*
X10544468Y-14856936D01*
X10544468Y-14856936D02*
X10534944Y-14866460D01*
X10534944Y-14866460D02*
X10515896Y-14875984D01*
X10515896Y-14875984D02*
X10468277Y-14875984D01*
X10468277Y-14875984D02*
X10449229Y-14866460D01*
X10449229Y-14866460D02*
X10439706Y-14856936D01*
X10649229Y-14875984D02*
X10687325Y-14875984D01*
X10687325Y-14875984D02*
X10706372Y-14866460D01*
X10706372Y-14866460D02*
X10715896Y-14856936D01*
X10715896Y-14856936D02*
X10734944Y-14828365D01*
X10734944Y-14828365D02*
X10744468Y-14790269D01*
X10744468Y-14790269D02*
X10744468Y-14714079D01*
X10744468Y-14714079D02*
X10734944Y-14695031D01*
X10734944Y-14695031D02*
X10725420Y-14685508D01*
X10725420Y-14685508D02*
X10706372Y-14675984D01*
X10706372Y-14675984D02*
X10668277Y-14675984D01*
X10668277Y-14675984D02*
X10649229Y-14685508D01*
X10649229Y-14685508D02*
X10639706Y-14695031D01*
X10639706Y-14695031D02*
X10630182Y-14714079D01*
X10630182Y-14714079D02*
X10630182Y-14761698D01*
X10630182Y-14761698D02*
X10639706Y-14780746D01*
X10639706Y-14780746D02*
X10649229Y-14790269D01*
X10649229Y-14790269D02*
X10668277Y-14799793D01*
X10668277Y-14799793D02*
X10706372Y-14799793D01*
X10706372Y-14799793D02*
X10725420Y-14790269D01*
X10725420Y-14790269D02*
X10734944Y-14780746D01*
X10734944Y-14780746D02*
X10744468Y-14761698D01*
X10858753Y-14761698D02*
X10839706Y-14752174D01*
X10839706Y-14752174D02*
X10830182Y-14742650D01*
X10830182Y-14742650D02*
X10820658Y-14723603D01*
X10820658Y-14723603D02*
X10820658Y-14714079D01*
X10820658Y-14714079D02*
X10830182Y-14695031D01*
X10830182Y-14695031D02*
X10839706Y-14685508D01*
X10839706Y-14685508D02*
X10858753Y-14675984D01*
X10858753Y-14675984D02*
X10896849Y-14675984D01*
X10896849Y-14675984D02*
X10915896Y-14685508D01*
X10915896Y-14685508D02*
X10925420Y-14695031D01*
X10925420Y-14695031D02*
X10934944Y-14714079D01*
X10934944Y-14714079D02*
X10934944Y-14723603D01*
X10934944Y-14723603D02*
X10925420Y-14742650D01*
X10925420Y-14742650D02*
X10915896Y-14752174D01*
X10915896Y-14752174D02*
X10896849Y-14761698D01*
X10896849Y-14761698D02*
X10858753Y-14761698D01*
X10858753Y-14761698D02*
X10839706Y-14771222D01*
X10839706Y-14771222D02*
X10830182Y-14780746D01*
X10830182Y-14780746D02*
X10820658Y-14799793D01*
X10820658Y-14799793D02*
X10820658Y-14837888D01*
X10820658Y-14837888D02*
X10830182Y-14856936D01*
X10830182Y-14856936D02*
X10839706Y-14866460D01*
X10839706Y-14866460D02*
X10858753Y-14875984D01*
X10858753Y-14875984D02*
X10896849Y-14875984D01*
X10896849Y-14875984D02*
X10915896Y-14866460D01*
X10915896Y-14866460D02*
X10925420Y-14856936D01*
X10925420Y-14856936D02*
X10934944Y-14837888D01*
X10934944Y-14837888D02*
X10934944Y-14799793D01*
X10934944Y-14799793D02*
X10925420Y-14780746D01*
X10925420Y-14780746D02*
X10915896Y-14771222D01*
X10915896Y-14771222D02*
X10896849Y-14761698D01*
X11011134Y-14675984D02*
X11011134Y-14714079D01*
X11087325Y-14675984D02*
X11087325Y-14714079D01*
X11382563Y-14952174D02*
X11373039Y-14942650D01*
X11373039Y-14942650D02*
X11353991Y-14914079D01*
X11353991Y-14914079D02*
X11344468Y-14895031D01*
X11344468Y-14895031D02*
X11334944Y-14866460D01*
X11334944Y-14866460D02*
X11325420Y-14818841D01*
X11325420Y-14818841D02*
X11325420Y-14780746D01*
X11325420Y-14780746D02*
X11334944Y-14733127D01*
X11334944Y-14733127D02*
X11344468Y-14704555D01*
X11344468Y-14704555D02*
X11353991Y-14685508D01*
X11353991Y-14685508D02*
X11373039Y-14656936D01*
X11373039Y-14656936D02*
X11382563Y-14647412D01*
X11439706Y-14675984D02*
X11573039Y-14675984D01*
X11573039Y-14675984D02*
X11487325Y-14875984D01*
X11801610Y-14875984D02*
X11801610Y-14675984D01*
X11887325Y-14875984D02*
X11887325Y-14771222D01*
X11887325Y-14771222D02*
X11877801Y-14752174D01*
X11877801Y-14752174D02*
X11858753Y-14742650D01*
X11858753Y-14742650D02*
X11830182Y-14742650D01*
X11830182Y-14742650D02*
X11811134Y-14752174D01*
X11811134Y-14752174D02*
X11801610Y-14761698D01*
X12011134Y-14875984D02*
X11992087Y-14866460D01*
X11992087Y-14866460D02*
X11982563Y-14856936D01*
X11982563Y-14856936D02*
X11973039Y-14837888D01*
X11973039Y-14837888D02*
X11973039Y-14780746D01*
X11973039Y-14780746D02*
X11982563Y-14761698D01*
X11982563Y-14761698D02*
X11992087Y-14752174D01*
X11992087Y-14752174D02*
X12011134Y-14742650D01*
X12011134Y-14742650D02*
X12039706Y-14742650D01*
X12039706Y-14742650D02*
X12058753Y-14752174D01*
X12058753Y-14752174D02*
X12068277Y-14761698D01*
X12068277Y-14761698D02*
X12077801Y-14780746D01*
X12077801Y-14780746D02*
X12077801Y-14837888D01*
X12077801Y-14837888D02*
X12068277Y-14856936D01*
X12068277Y-14856936D02*
X12058753Y-14866460D01*
X12058753Y-14866460D02*
X12039706Y-14875984D01*
X12039706Y-14875984D02*
X12011134Y-14875984D01*
X12192087Y-14875984D02*
X12173039Y-14866460D01*
X12173039Y-14866460D02*
X12163515Y-14847412D01*
X12163515Y-14847412D02*
X12163515Y-14675984D01*
X12344468Y-14866460D02*
X12325420Y-14875984D01*
X12325420Y-14875984D02*
X12287325Y-14875984D01*
X12287325Y-14875984D02*
X12268277Y-14866460D01*
X12268277Y-14866460D02*
X12258753Y-14847412D01*
X12258753Y-14847412D02*
X12258753Y-14771222D01*
X12258753Y-14771222D02*
X12268277Y-14752174D01*
X12268277Y-14752174D02*
X12287325Y-14742650D01*
X12287325Y-14742650D02*
X12325420Y-14742650D01*
X12325420Y-14742650D02*
X12344468Y-14752174D01*
X12344468Y-14752174D02*
X12353991Y-14771222D01*
X12353991Y-14771222D02*
X12353991Y-14790269D01*
X12353991Y-14790269D02*
X12258753Y-14809317D01*
X12430182Y-14866460D02*
X12449230Y-14875984D01*
X12449230Y-14875984D02*
X12487325Y-14875984D01*
X12487325Y-14875984D02*
X12506372Y-14866460D01*
X12506372Y-14866460D02*
X12515896Y-14847412D01*
X12515896Y-14847412D02*
X12515896Y-14837888D01*
X12515896Y-14837888D02*
X12506372Y-14818841D01*
X12506372Y-14818841D02*
X12487325Y-14809317D01*
X12487325Y-14809317D02*
X12458753Y-14809317D01*
X12458753Y-14809317D02*
X12439706Y-14799793D01*
X12439706Y-14799793D02*
X12430182Y-14780746D01*
X12430182Y-14780746D02*
X12430182Y-14771222D01*
X12430182Y-14771222D02*
X12439706Y-14752174D01*
X12439706Y-14752174D02*
X12458753Y-14742650D01*
X12458753Y-14742650D02*
X12487325Y-14742650D01*
X12487325Y-14742650D02*
X12506372Y-14752174D01*
X12582563Y-14952174D02*
X12592087Y-14942650D01*
X12592087Y-14942650D02*
X12611134Y-14914079D01*
X12611134Y-14914079D02*
X12620658Y-14895031D01*
X12620658Y-14895031D02*
X12630182Y-14866460D01*
X12630182Y-14866460D02*
X12639706Y-14818841D01*
X12639706Y-14818841D02*
X12639706Y-14780746D01*
X12639706Y-14780746D02*
X12630182Y-14733127D01*
X12630182Y-14733127D02*
X12620658Y-14704555D01*
X12620658Y-14704555D02*
X12611134Y-14685508D01*
X12611134Y-14685508D02*
X12592087Y-14656936D01*
X12592087Y-14656936D02*
X12582563Y-14647412D01*
D16*
X7727500Y-14976500D02*
X7727500Y-15136500D01*
X7647500Y-15056500D02*
X7807500Y-15056500D01*
X7807500Y-15056500D02*
G75*
G02*
X7647500Y-15056500I-80000J0D01*
G01*
X7647500Y-15056500D02*
G75*
G02*
X7807500Y-15056500I80000J0D01*
G01*
D11*
X8173039Y-15147984D02*
X8058753Y-15147984D01*
X8115896Y-15147984D02*
X8115896Y-14947984D01*
X8115896Y-14947984D02*
X8096848Y-14976555D01*
X8096848Y-14976555D02*
X8077801Y-14995603D01*
X8077801Y-14995603D02*
X8058753Y-15005127D01*
X8258753Y-15128936D02*
X8268277Y-15138460D01*
X8268277Y-15138460D02*
X8258753Y-15147984D01*
X8258753Y-15147984D02*
X8249229Y-15138460D01*
X8249229Y-15138460D02*
X8258753Y-15128936D01*
X8258753Y-15128936D02*
X8258753Y-15147984D01*
X8439705Y-14947984D02*
X8401610Y-14947984D01*
X8401610Y-14947984D02*
X8382562Y-14957508D01*
X8382562Y-14957508D02*
X8373039Y-14967031D01*
X8373039Y-14967031D02*
X8353991Y-14995603D01*
X8353991Y-14995603D02*
X8344467Y-15033698D01*
X8344467Y-15033698D02*
X8344467Y-15109888D01*
X8344467Y-15109888D02*
X8353991Y-15128936D01*
X8353991Y-15128936D02*
X8363515Y-15138460D01*
X8363515Y-15138460D02*
X8382562Y-15147984D01*
X8382562Y-15147984D02*
X8420658Y-15147984D01*
X8420658Y-15147984D02*
X8439705Y-15138460D01*
X8439705Y-15138460D02*
X8449229Y-15128936D01*
X8449229Y-15128936D02*
X8458753Y-15109888D01*
X8458753Y-15109888D02*
X8458753Y-15062269D01*
X8458753Y-15062269D02*
X8449229Y-15043222D01*
X8449229Y-15043222D02*
X8439705Y-15033698D01*
X8439705Y-15033698D02*
X8420658Y-15024174D01*
X8420658Y-15024174D02*
X8382562Y-15024174D01*
X8382562Y-15024174D02*
X8363515Y-15033698D01*
X8363515Y-15033698D02*
X8353991Y-15043222D01*
X8353991Y-15043222D02*
X8344467Y-15062269D01*
X8582563Y-14947984D02*
X8601610Y-14947984D01*
X8601610Y-14947984D02*
X8620658Y-14957508D01*
X8620658Y-14957508D02*
X8630182Y-14967031D01*
X8630182Y-14967031D02*
X8639705Y-14986079D01*
X8639705Y-14986079D02*
X8649229Y-15024174D01*
X8649229Y-15024174D02*
X8649229Y-15071793D01*
X8649229Y-15071793D02*
X8639705Y-15109888D01*
X8639705Y-15109888D02*
X8630182Y-15128936D01*
X8630182Y-15128936D02*
X8620658Y-15138460D01*
X8620658Y-15138460D02*
X8601610Y-15147984D01*
X8601610Y-15147984D02*
X8582563Y-15147984D01*
X8582563Y-15147984D02*
X8563515Y-15138460D01*
X8563515Y-15138460D02*
X8553991Y-15128936D01*
X8553991Y-15128936D02*
X8544467Y-15109888D01*
X8544467Y-15109888D02*
X8534944Y-15071793D01*
X8534944Y-15071793D02*
X8534944Y-15024174D01*
X8534944Y-15024174D02*
X8544467Y-14986079D01*
X8544467Y-14986079D02*
X8553991Y-14967031D01*
X8553991Y-14967031D02*
X8563515Y-14957508D01*
X8563515Y-14957508D02*
X8582563Y-14947984D01*
X8773039Y-14947984D02*
X8792086Y-14947984D01*
X8792086Y-14947984D02*
X8811134Y-14957508D01*
X8811134Y-14957508D02*
X8820658Y-14967031D01*
X8820658Y-14967031D02*
X8830182Y-14986079D01*
X8830182Y-14986079D02*
X8839705Y-15024174D01*
X8839705Y-15024174D02*
X8839705Y-15071793D01*
X8839705Y-15071793D02*
X8830182Y-15109888D01*
X8830182Y-15109888D02*
X8820658Y-15128936D01*
X8820658Y-15128936D02*
X8811134Y-15138460D01*
X8811134Y-15138460D02*
X8792086Y-15147984D01*
X8792086Y-15147984D02*
X8773039Y-15147984D01*
X8773039Y-15147984D02*
X8753991Y-15138460D01*
X8753991Y-15138460D02*
X8744467Y-15128936D01*
X8744467Y-15128936D02*
X8734944Y-15109888D01*
X8734944Y-15109888D02*
X8725420Y-15071793D01*
X8725420Y-15071793D02*
X8725420Y-15024174D01*
X8725420Y-15024174D02*
X8734944Y-14986079D01*
X8734944Y-14986079D02*
X8744467Y-14967031D01*
X8744467Y-14967031D02*
X8753991Y-14957508D01*
X8753991Y-14957508D02*
X8773039Y-14947984D01*
X8925420Y-15147984D02*
X8925420Y-15014650D01*
X8925420Y-15033698D02*
X8934944Y-15024174D01*
X8934944Y-15024174D02*
X8953991Y-15014650D01*
X8953991Y-15014650D02*
X8982563Y-15014650D01*
X8982563Y-15014650D02*
X9001610Y-15024174D01*
X9001610Y-15024174D02*
X9011134Y-15043222D01*
X9011134Y-15043222D02*
X9011134Y-15147984D01*
X9011134Y-15043222D02*
X9020658Y-15024174D01*
X9020658Y-15024174D02*
X9039705Y-15014650D01*
X9039705Y-15014650D02*
X9068277Y-15014650D01*
X9068277Y-15014650D02*
X9087325Y-15024174D01*
X9087325Y-15024174D02*
X9096848Y-15043222D01*
X9096848Y-15043222D02*
X9096848Y-15147984D01*
X9192086Y-15147984D02*
X9192086Y-15014650D01*
X9192086Y-15033698D02*
X9201610Y-15024174D01*
X9201610Y-15024174D02*
X9220658Y-15014650D01*
X9220658Y-15014650D02*
X9249229Y-15014650D01*
X9249229Y-15014650D02*
X9268277Y-15024174D01*
X9268277Y-15024174D02*
X9277801Y-15043222D01*
X9277801Y-15043222D02*
X9277801Y-15147984D01*
X9277801Y-15043222D02*
X9287325Y-15024174D01*
X9287325Y-15024174D02*
X9306372Y-15014650D01*
X9306372Y-15014650D02*
X9334944Y-15014650D01*
X9334944Y-15014650D02*
X9353991Y-15024174D01*
X9353991Y-15024174D02*
X9363515Y-15043222D01*
X9363515Y-15043222D02*
X9363515Y-15147984D01*
X9753991Y-14938460D02*
X9582563Y-15195603D01*
X10011134Y-14947984D02*
X10030182Y-14947984D01*
X10030182Y-14947984D02*
X10049229Y-14957508D01*
X10049229Y-14957508D02*
X10058753Y-14967031D01*
X10058753Y-14967031D02*
X10068277Y-14986079D01*
X10068277Y-14986079D02*
X10077801Y-15024174D01*
X10077801Y-15024174D02*
X10077801Y-15071793D01*
X10077801Y-15071793D02*
X10068277Y-15109888D01*
X10068277Y-15109888D02*
X10058753Y-15128936D01*
X10058753Y-15128936D02*
X10049229Y-15138460D01*
X10049229Y-15138460D02*
X10030182Y-15147984D01*
X10030182Y-15147984D02*
X10011134Y-15147984D01*
X10011134Y-15147984D02*
X9992087Y-15138460D01*
X9992087Y-15138460D02*
X9982563Y-15128936D01*
X9982563Y-15128936D02*
X9973039Y-15109888D01*
X9973039Y-15109888D02*
X9963515Y-15071793D01*
X9963515Y-15071793D02*
X9963515Y-15024174D01*
X9963515Y-15024174D02*
X9973039Y-14986079D01*
X9973039Y-14986079D02*
X9982563Y-14967031D01*
X9982563Y-14967031D02*
X9992087Y-14957508D01*
X9992087Y-14957508D02*
X10011134Y-14947984D01*
X10163515Y-15128936D02*
X10173039Y-15138460D01*
X10173039Y-15138460D02*
X10163515Y-15147984D01*
X10163515Y-15147984D02*
X10153991Y-15138460D01*
X10153991Y-15138460D02*
X10163515Y-15128936D01*
X10163515Y-15128936D02*
X10163515Y-15147984D01*
X10296848Y-14947984D02*
X10315896Y-14947984D01*
X10315896Y-14947984D02*
X10334944Y-14957508D01*
X10334944Y-14957508D02*
X10344468Y-14967031D01*
X10344468Y-14967031D02*
X10353991Y-14986079D01*
X10353991Y-14986079D02*
X10363515Y-15024174D01*
X10363515Y-15024174D02*
X10363515Y-15071793D01*
X10363515Y-15071793D02*
X10353991Y-15109888D01*
X10353991Y-15109888D02*
X10344468Y-15128936D01*
X10344468Y-15128936D02*
X10334944Y-15138460D01*
X10334944Y-15138460D02*
X10315896Y-15147984D01*
X10315896Y-15147984D02*
X10296848Y-15147984D01*
X10296848Y-15147984D02*
X10277801Y-15138460D01*
X10277801Y-15138460D02*
X10268277Y-15128936D01*
X10268277Y-15128936D02*
X10258753Y-15109888D01*
X10258753Y-15109888D02*
X10249229Y-15071793D01*
X10249229Y-15071793D02*
X10249229Y-15024174D01*
X10249229Y-15024174D02*
X10258753Y-14986079D01*
X10258753Y-14986079D02*
X10268277Y-14967031D01*
X10268277Y-14967031D02*
X10277801Y-14957508D01*
X10277801Y-14957508D02*
X10296848Y-14947984D01*
X10534944Y-14947984D02*
X10496848Y-14947984D01*
X10496848Y-14947984D02*
X10477801Y-14957508D01*
X10477801Y-14957508D02*
X10468277Y-14967031D01*
X10468277Y-14967031D02*
X10449229Y-14995603D01*
X10449229Y-14995603D02*
X10439706Y-15033698D01*
X10439706Y-15033698D02*
X10439706Y-15109888D01*
X10439706Y-15109888D02*
X10449229Y-15128936D01*
X10449229Y-15128936D02*
X10458753Y-15138460D01*
X10458753Y-15138460D02*
X10477801Y-15147984D01*
X10477801Y-15147984D02*
X10515896Y-15147984D01*
X10515896Y-15147984D02*
X10534944Y-15138460D01*
X10534944Y-15138460D02*
X10544468Y-15128936D01*
X10544468Y-15128936D02*
X10553991Y-15109888D01*
X10553991Y-15109888D02*
X10553991Y-15062269D01*
X10553991Y-15062269D02*
X10544468Y-15043222D01*
X10544468Y-15043222D02*
X10534944Y-15033698D01*
X10534944Y-15033698D02*
X10515896Y-15024174D01*
X10515896Y-15024174D02*
X10477801Y-15024174D01*
X10477801Y-15024174D02*
X10458753Y-15033698D01*
X10458753Y-15033698D02*
X10449229Y-15043222D01*
X10449229Y-15043222D02*
X10439706Y-15062269D01*
X10620658Y-14947984D02*
X10744468Y-14947984D01*
X10744468Y-14947984D02*
X10677801Y-15024174D01*
X10677801Y-15024174D02*
X10706372Y-15024174D01*
X10706372Y-15024174D02*
X10725420Y-15033698D01*
X10725420Y-15033698D02*
X10734944Y-15043222D01*
X10734944Y-15043222D02*
X10744468Y-15062269D01*
X10744468Y-15062269D02*
X10744468Y-15109888D01*
X10744468Y-15109888D02*
X10734944Y-15128936D01*
X10734944Y-15128936D02*
X10725420Y-15138460D01*
X10725420Y-15138460D02*
X10706372Y-15147984D01*
X10706372Y-15147984D02*
X10649229Y-15147984D01*
X10649229Y-15147984D02*
X10630182Y-15138460D01*
X10630182Y-15138460D02*
X10620658Y-15128936D01*
X10868277Y-14947984D02*
X10887325Y-14947984D01*
X10887325Y-14947984D02*
X10906372Y-14957508D01*
X10906372Y-14957508D02*
X10915896Y-14967031D01*
X10915896Y-14967031D02*
X10925420Y-14986079D01*
X10925420Y-14986079D02*
X10934944Y-15024174D01*
X10934944Y-15024174D02*
X10934944Y-15071793D01*
X10934944Y-15071793D02*
X10925420Y-15109888D01*
X10925420Y-15109888D02*
X10915896Y-15128936D01*
X10915896Y-15128936D02*
X10906372Y-15138460D01*
X10906372Y-15138460D02*
X10887325Y-15147984D01*
X10887325Y-15147984D02*
X10868277Y-15147984D01*
X10868277Y-15147984D02*
X10849229Y-15138460D01*
X10849229Y-15138460D02*
X10839706Y-15128936D01*
X10839706Y-15128936D02*
X10830182Y-15109888D01*
X10830182Y-15109888D02*
X10820658Y-15071793D01*
X10820658Y-15071793D02*
X10820658Y-15024174D01*
X10820658Y-15024174D02*
X10830182Y-14986079D01*
X10830182Y-14986079D02*
X10839706Y-14967031D01*
X10839706Y-14967031D02*
X10849229Y-14957508D01*
X10849229Y-14957508D02*
X10868277Y-14947984D01*
X11011134Y-14947984D02*
X11011134Y-14986079D01*
X11087325Y-14947984D02*
X11087325Y-14986079D01*
X11382563Y-15224174D02*
X11373039Y-15214650D01*
X11373039Y-15214650D02*
X11353991Y-15186079D01*
X11353991Y-15186079D02*
X11344468Y-15167031D01*
X11344468Y-15167031D02*
X11334944Y-15138460D01*
X11334944Y-15138460D02*
X11325420Y-15090841D01*
X11325420Y-15090841D02*
X11325420Y-15052746D01*
X11325420Y-15052746D02*
X11334944Y-15005127D01*
X11334944Y-15005127D02*
X11344468Y-14976555D01*
X11344468Y-14976555D02*
X11353991Y-14957508D01*
X11353991Y-14957508D02*
X11373039Y-14928936D01*
X11373039Y-14928936D02*
X11382563Y-14919412D01*
X11449229Y-14967031D02*
X11458753Y-14957508D01*
X11458753Y-14957508D02*
X11477801Y-14947984D01*
X11477801Y-14947984D02*
X11525420Y-14947984D01*
X11525420Y-14947984D02*
X11544468Y-14957508D01*
X11544468Y-14957508D02*
X11553991Y-14967031D01*
X11553991Y-14967031D02*
X11563515Y-14986079D01*
X11563515Y-14986079D02*
X11563515Y-15005127D01*
X11563515Y-15005127D02*
X11553991Y-15033698D01*
X11553991Y-15033698D02*
X11439706Y-15147984D01*
X11439706Y-15147984D02*
X11563515Y-15147984D01*
X11801610Y-15147984D02*
X11801610Y-14947984D01*
X11887325Y-15147984D02*
X11887325Y-15043222D01*
X11887325Y-15043222D02*
X11877801Y-15024174D01*
X11877801Y-15024174D02*
X11858753Y-15014650D01*
X11858753Y-15014650D02*
X11830182Y-15014650D01*
X11830182Y-15014650D02*
X11811134Y-15024174D01*
X11811134Y-15024174D02*
X11801610Y-15033698D01*
X12011134Y-15147984D02*
X11992087Y-15138460D01*
X11992087Y-15138460D02*
X11982563Y-15128936D01*
X11982563Y-15128936D02*
X11973039Y-15109888D01*
X11973039Y-15109888D02*
X11973039Y-15052746D01*
X11973039Y-15052746D02*
X11982563Y-15033698D01*
X11982563Y-15033698D02*
X11992087Y-15024174D01*
X11992087Y-15024174D02*
X12011134Y-15014650D01*
X12011134Y-15014650D02*
X12039706Y-15014650D01*
X12039706Y-15014650D02*
X12058753Y-15024174D01*
X12058753Y-15024174D02*
X12068277Y-15033698D01*
X12068277Y-15033698D02*
X12077801Y-15052746D01*
X12077801Y-15052746D02*
X12077801Y-15109888D01*
X12077801Y-15109888D02*
X12068277Y-15128936D01*
X12068277Y-15128936D02*
X12058753Y-15138460D01*
X12058753Y-15138460D02*
X12039706Y-15147984D01*
X12039706Y-15147984D02*
X12011134Y-15147984D01*
X12192087Y-15147984D02*
X12173039Y-15138460D01*
X12173039Y-15138460D02*
X12163515Y-15119412D01*
X12163515Y-15119412D02*
X12163515Y-14947984D01*
X12344468Y-15138460D02*
X12325420Y-15147984D01*
X12325420Y-15147984D02*
X12287325Y-15147984D01*
X12287325Y-15147984D02*
X12268277Y-15138460D01*
X12268277Y-15138460D02*
X12258753Y-15119412D01*
X12258753Y-15119412D02*
X12258753Y-15043222D01*
X12258753Y-15043222D02*
X12268277Y-15024174D01*
X12268277Y-15024174D02*
X12287325Y-15014650D01*
X12287325Y-15014650D02*
X12325420Y-15014650D01*
X12325420Y-15014650D02*
X12344468Y-15024174D01*
X12344468Y-15024174D02*
X12353991Y-15043222D01*
X12353991Y-15043222D02*
X12353991Y-15062269D01*
X12353991Y-15062269D02*
X12258753Y-15081317D01*
X12430182Y-15138460D02*
X12449230Y-15147984D01*
X12449230Y-15147984D02*
X12487325Y-15147984D01*
X12487325Y-15147984D02*
X12506372Y-15138460D01*
X12506372Y-15138460D02*
X12515896Y-15119412D01*
X12515896Y-15119412D02*
X12515896Y-15109888D01*
X12515896Y-15109888D02*
X12506372Y-15090841D01*
X12506372Y-15090841D02*
X12487325Y-15081317D01*
X12487325Y-15081317D02*
X12458753Y-15081317D01*
X12458753Y-15081317D02*
X12439706Y-15071793D01*
X12439706Y-15071793D02*
X12430182Y-15052746D01*
X12430182Y-15052746D02*
X12430182Y-15043222D01*
X12430182Y-15043222D02*
X12439706Y-15024174D01*
X12439706Y-15024174D02*
X12458753Y-15014650D01*
X12458753Y-15014650D02*
X12487325Y-15014650D01*
X12487325Y-15014650D02*
X12506372Y-15024174D01*
X12582563Y-15224174D02*
X12592087Y-15214650D01*
X12592087Y-15214650D02*
X12611134Y-15186079D01*
X12611134Y-15186079D02*
X12620658Y-15167031D01*
X12620658Y-15167031D02*
X12630182Y-15138460D01*
X12630182Y-15138460D02*
X12639706Y-15090841D01*
X12639706Y-15090841D02*
X12639706Y-15052746D01*
X12639706Y-15052746D02*
X12630182Y-15005127D01*
X12630182Y-15005127D02*
X12620658Y-14976555D01*
X12620658Y-14976555D02*
X12611134Y-14957508D01*
X12611134Y-14957508D02*
X12592087Y-14928936D01*
X12592087Y-14928936D02*
X12582563Y-14919412D01*
X7778211Y-15407211D02*
X7778211Y-15265789D01*
X7636789Y-15265789D01*
X7636789Y-15407211D01*
X7778211Y-15407211D01*
X7807500Y-15336500D02*
G75*
G02*
X7607500Y-15336500I-100000J0D01*
G01*
X7607500Y-15336500D02*
G75*
G02*
X7807500Y-15336500I100000J0D01*
G01*
X8058753Y-15247031D02*
X8068277Y-15237508D01*
X8068277Y-15237508D02*
X8087324Y-15227984D01*
X8087324Y-15227984D02*
X8134943Y-15227984D01*
X8134943Y-15227984D02*
X8153991Y-15237508D01*
X8153991Y-15237508D02*
X8163515Y-15247031D01*
X8163515Y-15247031D02*
X8173039Y-15266079D01*
X8173039Y-15266079D02*
X8173039Y-15285127D01*
X8173039Y-15285127D02*
X8163515Y-15313698D01*
X8163515Y-15313698D02*
X8049229Y-15427984D01*
X8049229Y-15427984D02*
X8173039Y-15427984D01*
X8258753Y-15408936D02*
X8268277Y-15418460D01*
X8268277Y-15418460D02*
X8258753Y-15427984D01*
X8258753Y-15427984D02*
X8249229Y-15418460D01*
X8249229Y-15418460D02*
X8258753Y-15408936D01*
X8258753Y-15408936D02*
X8258753Y-15427984D01*
X8334943Y-15227984D02*
X8468277Y-15227984D01*
X8468277Y-15227984D02*
X8382562Y-15427984D01*
X8582563Y-15227984D02*
X8601610Y-15227984D01*
X8601610Y-15227984D02*
X8620658Y-15237508D01*
X8620658Y-15237508D02*
X8630182Y-15247031D01*
X8630182Y-15247031D02*
X8639705Y-15266079D01*
X8639705Y-15266079D02*
X8649229Y-15304174D01*
X8649229Y-15304174D02*
X8649229Y-15351793D01*
X8649229Y-15351793D02*
X8639705Y-15389888D01*
X8639705Y-15389888D02*
X8630182Y-15408936D01*
X8630182Y-15408936D02*
X8620658Y-15418460D01*
X8620658Y-15418460D02*
X8601610Y-15427984D01*
X8601610Y-15427984D02*
X8582563Y-15427984D01*
X8582563Y-15427984D02*
X8563515Y-15418460D01*
X8563515Y-15418460D02*
X8553991Y-15408936D01*
X8553991Y-15408936D02*
X8544467Y-15389888D01*
X8544467Y-15389888D02*
X8534944Y-15351793D01*
X8534944Y-15351793D02*
X8534944Y-15304174D01*
X8534944Y-15304174D02*
X8544467Y-15266079D01*
X8544467Y-15266079D02*
X8553991Y-15247031D01*
X8553991Y-15247031D02*
X8563515Y-15237508D01*
X8563515Y-15237508D02*
X8582563Y-15227984D01*
X8773039Y-15227984D02*
X8792086Y-15227984D01*
X8792086Y-15227984D02*
X8811134Y-15237508D01*
X8811134Y-15237508D02*
X8820658Y-15247031D01*
X8820658Y-15247031D02*
X8830182Y-15266079D01*
X8830182Y-15266079D02*
X8839705Y-15304174D01*
X8839705Y-15304174D02*
X8839705Y-15351793D01*
X8839705Y-15351793D02*
X8830182Y-15389888D01*
X8830182Y-15389888D02*
X8820658Y-15408936D01*
X8820658Y-15408936D02*
X8811134Y-15418460D01*
X8811134Y-15418460D02*
X8792086Y-15427984D01*
X8792086Y-15427984D02*
X8773039Y-15427984D01*
X8773039Y-15427984D02*
X8753991Y-15418460D01*
X8753991Y-15418460D02*
X8744467Y-15408936D01*
X8744467Y-15408936D02*
X8734944Y-15389888D01*
X8734944Y-15389888D02*
X8725420Y-15351793D01*
X8725420Y-15351793D02*
X8725420Y-15304174D01*
X8725420Y-15304174D02*
X8734944Y-15266079D01*
X8734944Y-15266079D02*
X8744467Y-15247031D01*
X8744467Y-15247031D02*
X8753991Y-15237508D01*
X8753991Y-15237508D02*
X8773039Y-15227984D01*
X8925420Y-15427984D02*
X8925420Y-15294650D01*
X8925420Y-15313698D02*
X8934944Y-15304174D01*
X8934944Y-15304174D02*
X8953991Y-15294650D01*
X8953991Y-15294650D02*
X8982563Y-15294650D01*
X8982563Y-15294650D02*
X9001610Y-15304174D01*
X9001610Y-15304174D02*
X9011134Y-15323222D01*
X9011134Y-15323222D02*
X9011134Y-15427984D01*
X9011134Y-15323222D02*
X9020658Y-15304174D01*
X9020658Y-15304174D02*
X9039705Y-15294650D01*
X9039705Y-15294650D02*
X9068277Y-15294650D01*
X9068277Y-15294650D02*
X9087325Y-15304174D01*
X9087325Y-15304174D02*
X9096848Y-15323222D01*
X9096848Y-15323222D02*
X9096848Y-15427984D01*
X9192086Y-15427984D02*
X9192086Y-15294650D01*
X9192086Y-15313698D02*
X9201610Y-15304174D01*
X9201610Y-15304174D02*
X9220658Y-15294650D01*
X9220658Y-15294650D02*
X9249229Y-15294650D01*
X9249229Y-15294650D02*
X9268277Y-15304174D01*
X9268277Y-15304174D02*
X9277801Y-15323222D01*
X9277801Y-15323222D02*
X9277801Y-15427984D01*
X9277801Y-15323222D02*
X9287325Y-15304174D01*
X9287325Y-15304174D02*
X9306372Y-15294650D01*
X9306372Y-15294650D02*
X9334944Y-15294650D01*
X9334944Y-15294650D02*
X9353991Y-15304174D01*
X9353991Y-15304174D02*
X9363515Y-15323222D01*
X9363515Y-15323222D02*
X9363515Y-15427984D01*
X9753991Y-15218460D02*
X9582563Y-15475603D01*
X10011134Y-15227984D02*
X10030182Y-15227984D01*
X10030182Y-15227984D02*
X10049229Y-15237508D01*
X10049229Y-15237508D02*
X10058753Y-15247031D01*
X10058753Y-15247031D02*
X10068277Y-15266079D01*
X10068277Y-15266079D02*
X10077801Y-15304174D01*
X10077801Y-15304174D02*
X10077801Y-15351793D01*
X10077801Y-15351793D02*
X10068277Y-15389888D01*
X10068277Y-15389888D02*
X10058753Y-15408936D01*
X10058753Y-15408936D02*
X10049229Y-15418460D01*
X10049229Y-15418460D02*
X10030182Y-15427984D01*
X10030182Y-15427984D02*
X10011134Y-15427984D01*
X10011134Y-15427984D02*
X9992087Y-15418460D01*
X9992087Y-15418460D02*
X9982563Y-15408936D01*
X9982563Y-15408936D02*
X9973039Y-15389888D01*
X9973039Y-15389888D02*
X9963515Y-15351793D01*
X9963515Y-15351793D02*
X9963515Y-15304174D01*
X9963515Y-15304174D02*
X9973039Y-15266079D01*
X9973039Y-15266079D02*
X9982563Y-15247031D01*
X9982563Y-15247031D02*
X9992087Y-15237508D01*
X9992087Y-15237508D02*
X10011134Y-15227984D01*
X10163515Y-15408936D02*
X10173039Y-15418460D01*
X10173039Y-15418460D02*
X10163515Y-15427984D01*
X10163515Y-15427984D02*
X10153991Y-15418460D01*
X10153991Y-15418460D02*
X10163515Y-15408936D01*
X10163515Y-15408936D02*
X10163515Y-15427984D01*
X10363515Y-15427984D02*
X10249229Y-15427984D01*
X10306372Y-15427984D02*
X10306372Y-15227984D01*
X10306372Y-15227984D02*
X10287325Y-15256555D01*
X10287325Y-15256555D02*
X10268277Y-15275603D01*
X10268277Y-15275603D02*
X10249229Y-15285127D01*
X10487325Y-15227984D02*
X10506372Y-15227984D01*
X10506372Y-15227984D02*
X10525420Y-15237508D01*
X10525420Y-15237508D02*
X10534944Y-15247031D01*
X10534944Y-15247031D02*
X10544468Y-15266079D01*
X10544468Y-15266079D02*
X10553991Y-15304174D01*
X10553991Y-15304174D02*
X10553991Y-15351793D01*
X10553991Y-15351793D02*
X10544468Y-15389888D01*
X10544468Y-15389888D02*
X10534944Y-15408936D01*
X10534944Y-15408936D02*
X10525420Y-15418460D01*
X10525420Y-15418460D02*
X10506372Y-15427984D01*
X10506372Y-15427984D02*
X10487325Y-15427984D01*
X10487325Y-15427984D02*
X10468277Y-15418460D01*
X10468277Y-15418460D02*
X10458753Y-15408936D01*
X10458753Y-15408936D02*
X10449229Y-15389888D01*
X10449229Y-15389888D02*
X10439706Y-15351793D01*
X10439706Y-15351793D02*
X10439706Y-15304174D01*
X10439706Y-15304174D02*
X10449229Y-15266079D01*
X10449229Y-15266079D02*
X10458753Y-15247031D01*
X10458753Y-15247031D02*
X10468277Y-15237508D01*
X10468277Y-15237508D02*
X10487325Y-15227984D01*
X10725420Y-15227984D02*
X10687325Y-15227984D01*
X10687325Y-15227984D02*
X10668277Y-15237508D01*
X10668277Y-15237508D02*
X10658753Y-15247031D01*
X10658753Y-15247031D02*
X10639706Y-15275603D01*
X10639706Y-15275603D02*
X10630182Y-15313698D01*
X10630182Y-15313698D02*
X10630182Y-15389888D01*
X10630182Y-15389888D02*
X10639706Y-15408936D01*
X10639706Y-15408936D02*
X10649229Y-15418460D01*
X10649229Y-15418460D02*
X10668277Y-15427984D01*
X10668277Y-15427984D02*
X10706372Y-15427984D01*
X10706372Y-15427984D02*
X10725420Y-15418460D01*
X10725420Y-15418460D02*
X10734944Y-15408936D01*
X10734944Y-15408936D02*
X10744468Y-15389888D01*
X10744468Y-15389888D02*
X10744468Y-15342269D01*
X10744468Y-15342269D02*
X10734944Y-15323222D01*
X10734944Y-15323222D02*
X10725420Y-15313698D01*
X10725420Y-15313698D02*
X10706372Y-15304174D01*
X10706372Y-15304174D02*
X10668277Y-15304174D01*
X10668277Y-15304174D02*
X10649229Y-15313698D01*
X10649229Y-15313698D02*
X10639706Y-15323222D01*
X10639706Y-15323222D02*
X10630182Y-15342269D01*
X10811134Y-15227984D02*
X10934944Y-15227984D01*
X10934944Y-15227984D02*
X10868277Y-15304174D01*
X10868277Y-15304174D02*
X10896849Y-15304174D01*
X10896849Y-15304174D02*
X10915896Y-15313698D01*
X10915896Y-15313698D02*
X10925420Y-15323222D01*
X10925420Y-15323222D02*
X10934944Y-15342269D01*
X10934944Y-15342269D02*
X10934944Y-15389888D01*
X10934944Y-15389888D02*
X10925420Y-15408936D01*
X10925420Y-15408936D02*
X10915896Y-15418460D01*
X10915896Y-15418460D02*
X10896849Y-15427984D01*
X10896849Y-15427984D02*
X10839706Y-15427984D01*
X10839706Y-15427984D02*
X10820658Y-15418460D01*
X10820658Y-15418460D02*
X10811134Y-15408936D01*
X11011134Y-15227984D02*
X11011134Y-15266079D01*
X11087325Y-15227984D02*
X11087325Y-15266079D01*
X11382563Y-15504174D02*
X11373039Y-15494650D01*
X11373039Y-15494650D02*
X11353991Y-15466079D01*
X11353991Y-15466079D02*
X11344468Y-15447031D01*
X11344468Y-15447031D02*
X11334944Y-15418460D01*
X11334944Y-15418460D02*
X11325420Y-15370841D01*
X11325420Y-15370841D02*
X11325420Y-15332746D01*
X11325420Y-15332746D02*
X11334944Y-15285127D01*
X11334944Y-15285127D02*
X11344468Y-15256555D01*
X11344468Y-15256555D02*
X11353991Y-15237508D01*
X11353991Y-15237508D02*
X11373039Y-15208936D01*
X11373039Y-15208936D02*
X11382563Y-15199412D01*
X11544468Y-15294650D02*
X11544468Y-15427984D01*
X11496848Y-15218460D02*
X11449229Y-15361317D01*
X11449229Y-15361317D02*
X11573039Y-15361317D01*
X11801610Y-15427984D02*
X11801610Y-15227984D01*
X11887325Y-15427984D02*
X11887325Y-15323222D01*
X11887325Y-15323222D02*
X11877801Y-15304174D01*
X11877801Y-15304174D02*
X11858753Y-15294650D01*
X11858753Y-15294650D02*
X11830182Y-15294650D01*
X11830182Y-15294650D02*
X11811134Y-15304174D01*
X11811134Y-15304174D02*
X11801610Y-15313698D01*
X12011134Y-15427984D02*
X11992087Y-15418460D01*
X11992087Y-15418460D02*
X11982563Y-15408936D01*
X11982563Y-15408936D02*
X11973039Y-15389888D01*
X11973039Y-15389888D02*
X11973039Y-15332746D01*
X11973039Y-15332746D02*
X11982563Y-15313698D01*
X11982563Y-15313698D02*
X11992087Y-15304174D01*
X11992087Y-15304174D02*
X12011134Y-15294650D01*
X12011134Y-15294650D02*
X12039706Y-15294650D01*
X12039706Y-15294650D02*
X12058753Y-15304174D01*
X12058753Y-15304174D02*
X12068277Y-15313698D01*
X12068277Y-15313698D02*
X12077801Y-15332746D01*
X12077801Y-15332746D02*
X12077801Y-15389888D01*
X12077801Y-15389888D02*
X12068277Y-15408936D01*
X12068277Y-15408936D02*
X12058753Y-15418460D01*
X12058753Y-15418460D02*
X12039706Y-15427984D01*
X12039706Y-15427984D02*
X12011134Y-15427984D01*
X12192087Y-15427984D02*
X12173039Y-15418460D01*
X12173039Y-15418460D02*
X12163515Y-15399412D01*
X12163515Y-15399412D02*
X12163515Y-15227984D01*
X12344468Y-15418460D02*
X12325420Y-15427984D01*
X12325420Y-15427984D02*
X12287325Y-15427984D01*
X12287325Y-15427984D02*
X12268277Y-15418460D01*
X12268277Y-15418460D02*
X12258753Y-15399412D01*
X12258753Y-15399412D02*
X12258753Y-15323222D01*
X12258753Y-15323222D02*
X12268277Y-15304174D01*
X12268277Y-15304174D02*
X12287325Y-15294650D01*
X12287325Y-15294650D02*
X12325420Y-15294650D01*
X12325420Y-15294650D02*
X12344468Y-15304174D01*
X12344468Y-15304174D02*
X12353991Y-15323222D01*
X12353991Y-15323222D02*
X12353991Y-15342269D01*
X12353991Y-15342269D02*
X12258753Y-15361317D01*
X12430182Y-15418460D02*
X12449230Y-15427984D01*
X12449230Y-15427984D02*
X12487325Y-15427984D01*
X12487325Y-15427984D02*
X12506372Y-15418460D01*
X12506372Y-15418460D02*
X12515896Y-15399412D01*
X12515896Y-15399412D02*
X12515896Y-15389888D01*
X12515896Y-15389888D02*
X12506372Y-15370841D01*
X12506372Y-15370841D02*
X12487325Y-15361317D01*
X12487325Y-15361317D02*
X12458753Y-15361317D01*
X12458753Y-15361317D02*
X12439706Y-15351793D01*
X12439706Y-15351793D02*
X12430182Y-15332746D01*
X12430182Y-15332746D02*
X12430182Y-15323222D01*
X12430182Y-15323222D02*
X12439706Y-15304174D01*
X12439706Y-15304174D02*
X12458753Y-15294650D01*
X12458753Y-15294650D02*
X12487325Y-15294650D01*
X12487325Y-15294650D02*
X12506372Y-15304174D01*
X12582563Y-15504174D02*
X12592087Y-15494650D01*
X12592087Y-15494650D02*
X12611134Y-15466079D01*
X12611134Y-15466079D02*
X12620658Y-15447031D01*
X12620658Y-15447031D02*
X12630182Y-15418460D01*
X12630182Y-15418460D02*
X12639706Y-15370841D01*
X12639706Y-15370841D02*
X12639706Y-15332746D01*
X12639706Y-15332746D02*
X12630182Y-15285127D01*
X12630182Y-15285127D02*
X12620658Y-15256555D01*
X12620658Y-15256555D02*
X12611134Y-15237508D01*
X12611134Y-15237508D02*
X12592087Y-15208936D01*
X12592087Y-15208936D02*
X12582563Y-15199412D01*
M02*
