G04 #@! TF.GenerationSoftware,KiCad,Pcbnew,9.0.1*
G04 #@! TF.CreationDate,2025-08-27T22:36:15+05:00*
G04 #@! TF.ProjectId,30A_home_automation_using_esp32,3330415f-686f-46d6-955f-6175746f6d61,rev?*
G04 #@! TF.SameCoordinates,Original*
G04 #@! TF.FileFunction,Soldermask,Top*
G04 #@! TF.FilePolarity,Negative*
%FSLAX46Y46*%
G04 Gerber Fmt 4.6, Leading zero omitted, Abs format (unit mm)*
G04 Created by KiCad (PCBNEW 9.0.1) date 2025-08-27 22:36:15*
%MOMM*%
%LPD*%
G01*
G04 APERTURE LIST*
G04 Aperture macros list*
%AMRoundRect*
0 Rectangle with rounded corners*
0 $1 Rounding radius*
0 $2 $3 $4 $5 $6 $7 $8 $9 X,Y pos of 4 corners*
0 Add a 4 corners polygon primitive as box body*
4,1,4,$2,$3,$4,$5,$6,$7,$8,$9,$2,$3,0*
0 Add four circle primitives for the rounded corners*
1,1,$1+$1,$2,$3*
1,1,$1+$1,$4,$5*
1,1,$1+$1,$6,$7*
1,1,$1+$1,$8,$9*
0 Add four rect primitives between the rounded corners*
20,1,$1+$1,$2,$3,$4,$5,0*
20,1,$1+$1,$4,$5,$6,$7,0*
20,1,$1+$1,$6,$7,$8,$9,0*
20,1,$1+$1,$8,$9,$2,$3,0*%
G04 Aperture macros list end*
%ADD10RoundRect,0.243750X-0.243750X-0.456250X0.243750X-0.456250X0.243750X0.456250X-0.243750X0.456250X0*%
%ADD11C,0.800000*%
%ADD12C,5.400000*%
%ADD13RoundRect,0.250000X-0.262500X-0.450000X0.262500X-0.450000X0.262500X0.450000X-0.262500X0.450000X0*%
%ADD14R,3.000000X3.000000*%
%ADD15C,3.000000*%
%ADD16RoundRect,0.250000X0.550000X-0.550000X0.550000X0.550000X-0.550000X0.550000X-0.550000X-0.550000X0*%
%ADD17C,1.600000*%
%ADD18RoundRect,0.250000X0.250000X0.475000X-0.250000X0.475000X-0.250000X-0.475000X0.250000X-0.475000X0*%
%ADD19R,1.600000X1.600000*%
%ADD20O,1.600000X1.600000*%
%ADD21RoundRect,0.375000X-0.625000X-0.375000X0.625000X-0.375000X0.625000X0.375000X-0.625000X0.375000X0*%
%ADD22RoundRect,0.500000X-0.500000X-1.400000X0.500000X-1.400000X0.500000X1.400000X-0.500000X1.400000X0*%
%ADD23R,1.500000X0.900000*%
%ADD24R,0.900000X1.500000*%
%ADD25C,0.600000*%
%ADD26R,4.200000X4.200000*%
%ADD27RoundRect,0.250000X-0.450000X0.262500X-0.450000X-0.262500X0.450000X-0.262500X0.450000X0.262500X0*%
%ADD28C,2.000000*%
%ADD29R,1.050000X1.500000*%
%ADD30O,1.050000X1.500000*%
%ADD31R,1.500000X1.050000*%
%ADD32O,1.500000X1.050000*%
%ADD33RoundRect,0.500000X-0.500000X-0.500000X0.500000X-0.500000X0.500000X0.500000X-0.500000X0.500000X0*%
%ADD34RoundRect,0.250000X0.262500X0.450000X-0.262500X0.450000X-0.262500X-0.450000X0.262500X-0.450000X0*%
%ADD35R,1.700000X1.700000*%
%ADD36C,1.700000*%
%ADD37R,1.700000X2.000000*%
%ADD38O,1.700000X2.000000*%
%ADD39C,2.154000*%
G04 APERTURE END LIST*
D10*
X130262500Y-63800000D03*
X132137500Y-63800000D03*
D11*
X152675000Y-115100000D03*
X153268109Y-113668109D03*
X153268109Y-116531891D03*
X154700000Y-113075000D03*
D12*
X154700000Y-115100000D03*
D11*
X154700000Y-117125000D03*
X156131891Y-113668109D03*
X156131891Y-116531891D03*
X156725000Y-115100000D03*
D13*
X139887500Y-63755000D03*
X141712500Y-63755000D03*
D11*
X118975000Y-108800000D03*
X119568109Y-107368109D03*
X119568109Y-110231891D03*
X121000000Y-106775000D03*
D12*
X121000000Y-108800000D03*
D11*
X121000000Y-110825000D03*
X122431891Y-107368109D03*
X122431891Y-110231891D03*
X123025000Y-108800000D03*
D13*
X116075000Y-80600000D03*
X117900000Y-80600000D03*
D14*
X83200000Y-66920000D03*
D15*
X83200000Y-61840000D03*
X83200000Y-56760000D03*
X83200000Y-51680000D03*
D16*
X122125000Y-88300000D03*
D17*
X124665000Y-88300000D03*
X124665000Y-80680000D03*
X122125000Y-80680000D03*
D18*
X131950000Y-50900000D03*
X130050000Y-50900000D03*
D19*
X115000000Y-110110000D03*
D20*
X115000000Y-102490000D03*
D21*
X135050000Y-50300000D03*
X135050000Y-52600000D03*
D22*
X141350000Y-52600000D03*
D21*
X135050000Y-54900000D03*
D14*
X83200000Y-86080000D03*
D15*
X83200000Y-81000000D03*
X83200000Y-75920000D03*
D23*
X144795000Y-112102500D03*
X144795000Y-110832500D03*
X144795000Y-109562500D03*
X144795000Y-108292500D03*
X144795000Y-107022500D03*
X144795000Y-105752500D03*
X144795000Y-104482500D03*
X144795000Y-103212500D03*
X144795000Y-101942500D03*
X144795000Y-100672500D03*
X144795000Y-99402500D03*
X144795000Y-98132500D03*
X144795000Y-96862500D03*
X144795000Y-95592500D03*
D24*
X141755000Y-94342500D03*
X140485000Y-94342500D03*
X139215000Y-94342500D03*
X137945000Y-94342500D03*
X136675000Y-94342500D03*
X135405000Y-94342500D03*
X134135000Y-94342500D03*
X132865000Y-94342500D03*
X131595000Y-94342500D03*
X130325000Y-94342500D03*
D23*
X127295000Y-95592500D03*
X127295000Y-96862500D03*
X127295000Y-98132500D03*
X127295000Y-99402500D03*
X127295000Y-100672500D03*
X127295000Y-101942500D03*
X127295000Y-103212500D03*
X127295000Y-104482500D03*
X127295000Y-105752500D03*
X127295000Y-107022500D03*
X127295000Y-108292500D03*
X127295000Y-109562500D03*
X127295000Y-110832500D03*
X127295000Y-112102500D03*
D25*
X138250000Y-105525000D03*
X138250000Y-104000000D03*
X137487500Y-106287500D03*
X137487500Y-104762500D03*
X137487500Y-103237500D03*
X136725000Y-105525000D03*
D26*
X136725000Y-104762500D03*
D25*
X136725000Y-104000000D03*
X135962500Y-106287500D03*
X135962500Y-104762500D03*
X135962500Y-103237500D03*
X135200000Y-105525000D03*
X135200000Y-104000000D03*
D27*
X105500000Y-93387500D03*
X105500000Y-95212500D03*
D18*
X131950000Y-54900000D03*
X130050000Y-54900000D03*
D28*
X155550000Y-101450000D03*
X149050000Y-101450000D03*
X155550000Y-96950000D03*
X149050000Y-96950000D03*
D29*
X111430000Y-76100000D03*
D30*
X112700000Y-76100000D03*
X113970000Y-76100000D03*
D31*
X114160000Y-94440000D03*
D32*
X114160000Y-93170000D03*
X114160000Y-91900000D03*
D15*
X92090000Y-115100000D03*
X89550000Y-97300000D03*
D33*
X104750000Y-111300000D03*
D28*
X104750000Y-101100000D03*
D34*
X137000000Y-59255000D03*
X135175000Y-59255000D03*
X141712500Y-59400000D03*
X139887500Y-59400000D03*
D19*
X111800000Y-88810000D03*
D20*
X111800000Y-81190000D03*
D11*
X153475000Y-50800000D03*
X154068109Y-49368109D03*
X154068109Y-52231891D03*
X155500000Y-48775000D03*
D12*
X155500000Y-50800000D03*
D11*
X155500000Y-52825000D03*
X156931891Y-49368109D03*
X156931891Y-52231891D03*
X157525000Y-50800000D03*
D35*
X149320000Y-73050000D03*
D36*
X149320000Y-75590000D03*
X149320000Y-78130000D03*
X149320000Y-80670000D03*
D37*
X93345000Y-56837500D03*
D38*
X93345000Y-61837500D03*
X122425000Y-51837500D03*
X122425000Y-66837500D03*
D39*
X104700000Y-87000000D03*
X104700000Y-75000000D03*
X106700000Y-81000000D03*
X92500000Y-87000000D03*
X92500000Y-75000000D03*
D13*
X114987500Y-84800000D03*
X116812500Y-84800000D03*
X117787500Y-103800000D03*
X119612500Y-103800000D03*
D28*
X149050000Y-59100000D03*
X155550000Y-59100000D03*
X149050000Y-63600000D03*
X155550000Y-63600000D03*
D11*
X118975000Y-75225000D03*
X119568109Y-73793109D03*
X119568109Y-76656891D03*
X121000000Y-73200000D03*
D12*
X121000000Y-75225000D03*
D11*
X121000000Y-77250000D03*
X122431891Y-73793109D03*
X122431891Y-76656891D03*
X123025000Y-75225000D03*
D34*
X137000000Y-63755000D03*
X135175000Y-63755000D03*
D10*
X130262500Y-59300000D03*
X132137500Y-59300000D03*
D16*
X120125000Y-100100000D03*
D17*
X122665000Y-100100000D03*
X122665000Y-92480000D03*
X120125000Y-92480000D03*
M02*
