M48
; DRILL file {KiCad 9.0.1} date 2025-08-27T22:35:59+0500
; FORMAT={-:-/ absolute / metric / decimal}
; #@! TF.CreationDate,2025-08-27T22:35:59+05:00
; #@! TF.GenerationSoftware,Kicad,Pcbnew,9.0.1
; #@! TF.FileFunction,Plated,1,2,PTH
FMAT,2
METRIC
; #@! TA.AperFunction,Plated,PTH,ComponentDrill
T1C0.200
; #@! TA.AperFunction,Plated,PTH,ViaDrill
T2C0.300
; #@! TA.AperFunction,Plated,PTH,ComponentDrill
T3C0.500
; #@! TA.AperFunction,Plated,PTH,ComponentDrill
T4C0.750
; #@! TA.AperFunction,Plated,PTH,ComponentDrill
T5C0.800
; #@! TA.AperFunction,Plated,PTH,ComponentDrill
T6C1.000
; #@! TA.AperFunction,Plated,PTH,ComponentDrill
T7C1.100
; #@! TA.AperFunction,Plated,PTH,ComponentDrill
T8C1.300
; #@! TA.AperFunction,Plated,PTH,ComponentDrill
T9C1.520
; #@! TA.AperFunction,Plated,PTH,ComponentDrill
T10C1.600
; #@! TA.AperFunction,Plated,PTH,ComponentDrill
T11C2.700
%
G90
G05
T1
X135.2Y-104.0
X135.2Y-105.525
X135.963Y-103.237
X135.963Y-104.762
X135.963Y-106.287
X136.725Y-104.0
X136.725Y-105.525
X137.487Y-103.237
X137.487Y-104.762
X137.487Y-106.287
X138.25Y-104.0
X138.25Y-105.525
T2
X121.7Y-94.8
X122.2Y-96.6
X125.1Y-103.1
X130.4Y-109.4
X130.9Y-105.2
X131.2Y-89.9
X131.3Y-99.0
X131.3Y-100.4
X131.6Y-106.4
X132.9Y-89.8
X133.2Y-71.2
X140.1Y-70.6
X140.5Y-78.1
X142.0Y-70.1
X142.8Y-78.2
X144.4Y-59.1
X144.4Y-70.0
X145.3Y-78.4
X151.8Y-107.0
T3
X118.975Y-75.225
X118.975Y-108.8
X119.568Y-73.793
X119.568Y-76.657
X119.568Y-107.368
X119.568Y-110.232
X121.0Y-73.2
X121.0Y-77.25
X121.0Y-106.775
X121.0Y-110.825
X122.432Y-73.793
X122.432Y-76.657
X122.432Y-107.368
X122.432Y-110.232
X123.025Y-75.225
X123.025Y-108.8
X152.675Y-115.1
X153.268Y-113.668
X153.268Y-116.532
X153.475Y-50.8
X154.068Y-49.368
X154.068Y-52.232
X154.7Y-113.075
X154.7Y-117.125
X155.5Y-48.775
X155.5Y-52.825
X156.132Y-113.668
X156.132Y-116.532
X156.725Y-115.1
X156.932Y-49.368
X156.932Y-52.232
X157.525Y-50.8
T4
X111.43Y-76.1
X112.7Y-76.1
X113.97Y-76.1
X114.16Y-91.9
X114.16Y-93.17
X114.16Y-94.44
T5
X111.8Y-81.19
X111.8Y-88.81
X115.0Y-102.49
X115.0Y-110.11
X120.125Y-92.48
X120.125Y-100.1
X122.125Y-80.68
X122.125Y-88.3
X122.665Y-92.48
X122.665Y-100.1
X124.665Y-80.68
X124.665Y-88.3
T6
X93.345Y-56.837
X93.345Y-61.837
X122.425Y-51.837
X122.425Y-66.837
X149.32Y-73.05
X149.32Y-75.59
X149.32Y-78.13
X149.32Y-80.67
T7
X104.75Y-101.1
X104.75Y-111.3
X149.05Y-59.1
X149.05Y-63.6
X149.05Y-96.95
X149.05Y-101.45
X155.55Y-59.1
X155.55Y-63.6
X155.55Y-96.95
X155.55Y-101.45
T8
X92.5Y-75.0
X92.5Y-87.0
X104.7Y-75.0
X104.7Y-87.0
X106.7Y-81.0
T9
X83.2Y-51.68
X83.2Y-56.76
X83.2Y-61.84
X83.2Y-66.92
X83.2Y-75.92
X83.2Y-81.0
X83.2Y-86.08
T10
X89.55Y-97.3
X92.09Y-115.1
T11
X121.0Y-75.225
X121.0Y-108.8
X154.7Y-115.1
X155.5Y-50.8
M30
