G04 #@! TF.GenerationSoftware,KiCad,Pcbnew,9.0.1*
G04 #@! TF.CreationDate,2025-08-27T22:36:15+05:00*
G04 #@! TF.ProjectId,30A_home_automation_using_esp32,3330415f-686f-46d6-955f-6175746f6d61,rev?*
G04 #@! TF.SameCoordinates,Original*
G04 #@! TF.FileFunction,Copper,L2,Bot*
G04 #@! TF.FilePolarity,Positive*
%FSLAX46Y46*%
G04 Gerber Fmt 4.6, Leading zero omitted, Abs format (unit mm)*
G04 Created by KiCad (PCBNEW 9.0.1) date 2025-08-27 22:36:15*
%MOMM*%
%LPD*%
G01*
G04 APERTURE LIST*
G04 Aperture macros list*
%AMRoundRect*
0 Rectangle with rounded corners*
0 $1 Rounding radius*
0 $2 $3 $4 $5 $6 $7 $8 $9 X,Y pos of 4 corners*
0 Add a 4 corners polygon primitive as box body*
4,1,4,$2,$3,$4,$5,$6,$7,$8,$9,$2,$3,0*
0 Add four circle primitives for the rounded corners*
1,1,$1+$1,$2,$3*
1,1,$1+$1,$4,$5*
1,1,$1+$1,$6,$7*
1,1,$1+$1,$8,$9*
0 Add four rect primitives between the rounded corners*
20,1,$1+$1,$2,$3,$4,$5,0*
20,1,$1+$1,$4,$5,$6,$7,0*
20,1,$1+$1,$6,$7,$8,$9,0*
20,1,$1+$1,$8,$9,$2,$3,0*%
G04 Aperture macros list end*
G04 #@! TA.AperFunction,ComponentPad*
%ADD10C,0.800000*%
G04 #@! TD*
G04 #@! TA.AperFunction,ComponentPad*
%ADD11C,5.400000*%
G04 #@! TD*
G04 #@! TA.AperFunction,ComponentPad*
%ADD12R,3.000000X3.000000*%
G04 #@! TD*
G04 #@! TA.AperFunction,ComponentPad*
%ADD13C,3.000000*%
G04 #@! TD*
G04 #@! TA.AperFunction,ComponentPad*
%ADD14RoundRect,0.250000X0.550000X-0.550000X0.550000X0.550000X-0.550000X0.550000X-0.550000X-0.550000X0*%
G04 #@! TD*
G04 #@! TA.AperFunction,ComponentPad*
%ADD15C,1.600000*%
G04 #@! TD*
G04 #@! TA.AperFunction,ComponentPad*
%ADD16R,1.600000X1.600000*%
G04 #@! TD*
G04 #@! TA.AperFunction,ComponentPad*
%ADD17O,1.600000X1.600000*%
G04 #@! TD*
G04 #@! TA.AperFunction,HeatsinkPad*
%ADD18C,0.600000*%
G04 #@! TD*
G04 #@! TA.AperFunction,ComponentPad*
%ADD19C,2.000000*%
G04 #@! TD*
G04 #@! TA.AperFunction,ComponentPad*
%ADD20R,1.050000X1.500000*%
G04 #@! TD*
G04 #@! TA.AperFunction,ComponentPad*
%ADD21O,1.050000X1.500000*%
G04 #@! TD*
G04 #@! TA.AperFunction,ComponentPad*
%ADD22R,1.500000X1.050000*%
G04 #@! TD*
G04 #@! TA.AperFunction,ComponentPad*
%ADD23O,1.500000X1.050000*%
G04 #@! TD*
G04 #@! TA.AperFunction,ComponentPad*
%ADD24RoundRect,0.500000X-0.500000X-0.500000X0.500000X-0.500000X0.500000X0.500000X-0.500000X0.500000X0*%
G04 #@! TD*
G04 #@! TA.AperFunction,ComponentPad*
%ADD25R,1.700000X1.700000*%
G04 #@! TD*
G04 #@! TA.AperFunction,ComponentPad*
%ADD26C,1.700000*%
G04 #@! TD*
G04 #@! TA.AperFunction,ComponentPad*
%ADD27R,1.700000X2.000000*%
G04 #@! TD*
G04 #@! TA.AperFunction,ComponentPad*
%ADD28O,1.700000X2.000000*%
G04 #@! TD*
G04 #@! TA.AperFunction,ComponentPad*
%ADD29C,1.950000*%
G04 #@! TD*
G04 #@! TA.AperFunction,ViaPad*
%ADD30C,0.600000*%
G04 #@! TD*
G04 #@! TA.AperFunction,Conductor*
%ADD31C,0.500000*%
G04 #@! TD*
G04 #@! TA.AperFunction,Conductor*
%ADD32C,2.500000*%
G04 #@! TD*
G04 APERTURE END LIST*
D10*
X152675000Y-115100000D03*
X153268109Y-113668109D03*
X153268109Y-116531891D03*
X154700000Y-113075000D03*
D11*
X154700000Y-115100000D03*
D10*
X154700000Y-117125000D03*
X156131891Y-113668109D03*
X156131891Y-116531891D03*
X156725000Y-115100000D03*
X118975000Y-108800000D03*
X119568109Y-107368109D03*
X119568109Y-110231891D03*
X121000000Y-106775000D03*
D11*
X121000000Y-108800000D03*
D10*
X121000000Y-110825000D03*
X122431891Y-107368109D03*
X122431891Y-110231891D03*
X123025000Y-108800000D03*
D12*
X83200000Y-66920000D03*
D13*
X83200000Y-61840000D03*
X83200000Y-56760000D03*
X83200000Y-51680000D03*
D14*
X122125000Y-88300000D03*
D15*
X124665000Y-88300000D03*
X124665000Y-80680000D03*
X122125000Y-80680000D03*
D16*
X115000000Y-110110000D03*
D17*
X115000000Y-102490000D03*
D12*
X83200000Y-86080000D03*
D13*
X83200000Y-81000000D03*
X83200000Y-75920000D03*
D18*
X138250000Y-105525000D03*
X138250000Y-104000000D03*
X137487500Y-106287500D03*
X137487500Y-104762500D03*
X137487500Y-103237500D03*
X136725000Y-105525000D03*
X136725000Y-104000000D03*
X135962500Y-106287500D03*
X135962500Y-104762500D03*
X135962500Y-103237500D03*
X135200000Y-105525000D03*
X135200000Y-104000000D03*
D19*
X155550000Y-101450000D03*
X149050000Y-101450000D03*
X155550000Y-96950000D03*
X149050000Y-96950000D03*
D20*
X111430000Y-76100000D03*
D21*
X112700000Y-76100000D03*
X113970000Y-76100000D03*
D22*
X114160000Y-94440000D03*
D23*
X114160000Y-93170000D03*
X114160000Y-91900000D03*
D13*
X92090000Y-115100000D03*
X89550000Y-97300000D03*
D24*
X104750000Y-111300000D03*
D19*
X104750000Y-101100000D03*
D16*
X111800000Y-88810000D03*
D17*
X111800000Y-81190000D03*
D10*
X153475000Y-50800000D03*
X154068109Y-49368109D03*
X154068109Y-52231891D03*
X155500000Y-48775000D03*
D11*
X155500000Y-50800000D03*
D10*
X155500000Y-52825000D03*
X156931891Y-49368109D03*
X156931891Y-52231891D03*
X157525000Y-50800000D03*
D25*
X149320000Y-73050000D03*
D26*
X149320000Y-75590000D03*
X149320000Y-78130000D03*
X149320000Y-80670000D03*
D27*
X93345000Y-56837500D03*
D28*
X93345000Y-61837500D03*
X122425000Y-51837500D03*
X122425000Y-66837500D03*
D29*
X104700000Y-87000000D03*
X104700000Y-75000000D03*
X106700000Y-81000000D03*
X92500000Y-87000000D03*
X92500000Y-75000000D03*
D19*
X149050000Y-59100000D03*
X155550000Y-59100000D03*
X149050000Y-63600000D03*
X155550000Y-63600000D03*
D10*
X118975000Y-75225000D03*
X119568109Y-73793109D03*
X119568109Y-76656891D03*
X121000000Y-73200000D03*
D11*
X121000000Y-75225000D03*
D10*
X121000000Y-77250000D03*
X122431891Y-73793109D03*
X122431891Y-76656891D03*
X123025000Y-75225000D03*
D14*
X120125000Y-100100000D03*
D15*
X122665000Y-100100000D03*
X122665000Y-92480000D03*
X120125000Y-92480000D03*
D30*
X151800000Y-107000000D03*
X130900000Y-105200000D03*
X132900000Y-89800000D03*
X131200000Y-89900000D03*
X131600000Y-106400000D03*
X121700000Y-94800000D03*
X131300000Y-99000000D03*
X131300000Y-100400000D03*
X122200000Y-96600000D03*
X130400000Y-109400000D03*
X125100000Y-103100000D03*
X142000000Y-70100000D03*
X142800000Y-78200000D03*
X140500000Y-78100000D03*
X140100000Y-70600000D03*
X144400000Y-59100000D03*
X133200000Y-71200000D03*
X144400000Y-70000000D03*
X145300000Y-78400000D03*
D31*
X116500000Y-72762500D02*
X116500000Y-86300000D01*
X113990000Y-88810000D02*
X111800000Y-88810000D01*
X122425000Y-66837500D02*
X116500000Y-72762500D01*
X105940000Y-110110000D02*
X104750000Y-111300000D01*
X108200000Y-88800000D02*
X108210000Y-88810000D01*
X106500000Y-88800000D02*
X108200000Y-88800000D01*
X108210000Y-88810000D02*
X111800000Y-88810000D01*
X101800000Y-108350000D02*
X104750000Y-111300000D01*
X116500000Y-86300000D02*
X113990000Y-88810000D01*
X104700000Y-87000000D02*
X106500000Y-88800000D01*
X104700000Y-87000000D02*
X101800000Y-89900000D01*
X101800000Y-89900000D02*
X101800000Y-108350000D01*
X115000000Y-110110000D02*
X105940000Y-110110000D01*
X149320000Y-80670000D02*
X151800000Y-83150000D01*
X151800000Y-83150000D02*
X151800000Y-107000000D01*
X104700000Y-75000000D02*
X106000000Y-73700000D01*
X112200000Y-73700000D02*
X113970000Y-75470000D01*
X106000000Y-73700000D02*
X112200000Y-73700000D01*
X113970000Y-75470000D02*
X113970000Y-76100000D01*
X113970000Y-76100000D02*
X113970000Y-79020000D01*
X113970000Y-79020000D02*
X111800000Y-81190000D01*
X110700000Y-93600000D02*
X110700000Y-102390000D01*
X115000000Y-102490000D02*
X110600000Y-102490000D01*
X106140000Y-102490000D02*
X104750000Y-101100000D01*
X110700000Y-102390000D02*
X110600000Y-102490000D01*
X114160000Y-92230000D02*
X112070000Y-92230000D01*
X110600000Y-102490000D02*
X106140000Y-102490000D01*
X112070000Y-92230000D02*
X110700000Y-93600000D01*
X129700000Y-93000000D02*
X132400000Y-95700000D01*
X131900000Y-88800000D02*
X130300000Y-88800000D01*
X132400000Y-103600000D02*
X130900000Y-105100000D01*
X130300000Y-88800000D02*
X129700000Y-89400000D01*
X132900000Y-89800000D02*
X131900000Y-88800000D01*
X132400000Y-95700000D02*
X132400000Y-103600000D01*
X129700000Y-89400000D02*
X129700000Y-93000000D01*
X130900000Y-105100000D02*
X130900000Y-105200000D01*
X133400000Y-104600000D02*
X131600000Y-106400000D01*
X133400000Y-94600000D02*
X133400000Y-104600000D01*
X131200000Y-89900000D02*
X131200000Y-92400000D01*
X131200000Y-92400000D02*
X133400000Y-94600000D01*
D32*
X88000000Y-91600000D02*
X84700000Y-94900000D01*
X88000000Y-66640000D02*
X88000000Y-91600000D01*
X84700000Y-107710000D02*
X92090000Y-115100000D01*
X83200000Y-61840000D02*
X88000000Y-66640000D01*
X84700000Y-94900000D02*
X84700000Y-107710000D01*
X98900000Y-90500000D02*
X98900000Y-78400000D01*
X98900000Y-76900000D02*
X98900000Y-62392500D01*
X92100000Y-97300000D02*
X98900000Y-90500000D01*
X106700000Y-81000000D02*
X103000000Y-81000000D01*
X83200000Y-51680000D02*
X88187500Y-51680000D01*
X89550000Y-97300000D02*
X92100000Y-97300000D01*
X88187500Y-51680000D02*
X93345000Y-56837500D01*
X98900000Y-62392500D02*
X93345000Y-56837500D01*
X103000000Y-81000000D02*
X99650000Y-77650000D01*
X98900000Y-78400000D02*
X99650000Y-77650000D01*
X99650000Y-77650000D02*
X98900000Y-76900000D01*
D31*
X131300000Y-99000000D02*
X129900000Y-99000000D01*
X129900000Y-99000000D02*
X125700000Y-94800000D01*
X125700000Y-94800000D02*
X121700000Y-94800000D01*
X131300000Y-100400000D02*
X129000000Y-100400000D01*
X129000000Y-100400000D02*
X125200000Y-96600000D01*
X125200000Y-96600000D02*
X122200000Y-96600000D01*
X126700000Y-103100000D02*
X125100000Y-103100000D01*
X130400000Y-106800000D02*
X126700000Y-103100000D01*
X130400000Y-109400000D02*
X130400000Y-106800000D01*
X142900000Y-71000000D02*
X142900000Y-78100000D01*
X142000000Y-70100000D02*
X142900000Y-71000000D01*
X142900000Y-78100000D02*
X142800000Y-78200000D01*
X140100000Y-70600000D02*
X140500000Y-71000000D01*
X140500000Y-71000000D02*
X140500000Y-78100000D01*
X138000000Y-62400000D02*
X138000000Y-66300000D01*
X138000000Y-66300000D02*
X133200000Y-71100000D01*
X138800000Y-61600000D02*
X138000000Y-62400000D01*
X144400000Y-59100000D02*
X141900000Y-61600000D01*
X133200000Y-71100000D02*
X133200000Y-71200000D01*
X141900000Y-61600000D02*
X138800000Y-61600000D01*
X144400000Y-70000000D02*
X145300000Y-70900000D01*
X145300000Y-70900000D02*
X145300000Y-78400000D01*
G04 #@! TA.AperFunction,Conductor*
G36*
X154084690Y-47720185D02*
G01*
X154130445Y-47772989D01*
X154140389Y-47842147D01*
X154111364Y-47905703D01*
X154071452Y-47936220D01*
X153949666Y-47994868D01*
X153645335Y-48186092D01*
X153419634Y-48366081D01*
X154738282Y-49684729D01*
X154620534Y-49770278D01*
X154470278Y-49920534D01*
X154384729Y-50038282D01*
X153066081Y-48719634D01*
X152886092Y-48945335D01*
X152694870Y-49249663D01*
X152538927Y-49573482D01*
X152420220Y-49912729D01*
X152420219Y-49912731D01*
X152340242Y-50263136D01*
X152340240Y-50263148D01*
X152300000Y-50620287D01*
X152300000Y-50979712D01*
X152340240Y-51336851D01*
X152340242Y-51336863D01*
X152420219Y-51687268D01*
X152420220Y-51687270D01*
X152538927Y-52026517D01*
X152694870Y-52350336D01*
X152886092Y-52654664D01*
X153066081Y-52880364D01*
X154384728Y-51561717D01*
X154470278Y-51679466D01*
X154620534Y-51829722D01*
X154738281Y-51915270D01*
X153419634Y-53233916D01*
X153419634Y-53233917D01*
X153645335Y-53413907D01*
X153949663Y-53605129D01*
X154273482Y-53761072D01*
X154612729Y-53879779D01*
X154612731Y-53879780D01*
X154963136Y-53959757D01*
X154963148Y-53959759D01*
X155320287Y-53999999D01*
X155320289Y-54000000D01*
X155679711Y-54000000D01*
X155679712Y-53999999D01*
X156036851Y-53959759D01*
X156036863Y-53959757D01*
X156387268Y-53879780D01*
X156387270Y-53879779D01*
X156726517Y-53761072D01*
X157050336Y-53605129D01*
X157354664Y-53413907D01*
X157580364Y-53233916D01*
X156261718Y-51915270D01*
X156379466Y-51829722D01*
X156529722Y-51679466D01*
X156615270Y-51561718D01*
X157933916Y-52880364D01*
X158113907Y-52654664D01*
X158170506Y-52564589D01*
X158222841Y-52518298D01*
X158291894Y-52507650D01*
X158355742Y-52536025D01*
X158394115Y-52594414D01*
X158399500Y-52630561D01*
X158399500Y-113528500D01*
X158379815Y-113595539D01*
X158327011Y-113641294D01*
X158275500Y-113652500D01*
X157632567Y-113652500D01*
X157565528Y-113632815D01*
X157520846Y-113582301D01*
X157505127Y-113549659D01*
X157313907Y-113245335D01*
X157133916Y-113019634D01*
X156537372Y-113616181D01*
X156476049Y-113649666D01*
X156449691Y-113652500D01*
X156093309Y-113652500D01*
X156026270Y-113632815D01*
X155980515Y-113580011D01*
X155970571Y-113510853D01*
X155999596Y-113447297D01*
X156005628Y-113440819D01*
X156780364Y-112666081D01*
X156554664Y-112486092D01*
X156250336Y-112294870D01*
X155926517Y-112138927D01*
X155587270Y-112020220D01*
X155587268Y-112020219D01*
X155236863Y-111940242D01*
X155236851Y-111940240D01*
X154879712Y-111900000D01*
X154520287Y-111900000D01*
X154163148Y-111940240D01*
X154163136Y-111940242D01*
X153812731Y-112020219D01*
X153812729Y-112020220D01*
X153473482Y-112138927D01*
X153149663Y-112294870D01*
X152845335Y-112486092D01*
X152619634Y-112666081D01*
X153394372Y-113440819D01*
X153427857Y-113502142D01*
X153422873Y-113571834D01*
X153381001Y-113627767D01*
X153315537Y-113652184D01*
X153306691Y-113652500D01*
X152950309Y-113652500D01*
X152883270Y-113632815D01*
X152862628Y-113616181D01*
X152266081Y-113019634D01*
X152086092Y-113245335D01*
X151894872Y-113549659D01*
X151879154Y-113582301D01*
X151832331Y-113634161D01*
X151767433Y-113652500D01*
X112045000Y-113652500D01*
X112045000Y-119675500D01*
X112025315Y-119742539D01*
X111972511Y-119788294D01*
X111921000Y-119799500D01*
X102824000Y-119799500D01*
X102756961Y-119779815D01*
X102711206Y-119727011D01*
X102700000Y-119675500D01*
X102700000Y-110610730D01*
X102719685Y-110543691D01*
X102772489Y-110497936D01*
X102841647Y-110487992D01*
X102905203Y-110517017D01*
X102911681Y-110523049D01*
X103213181Y-110824549D01*
X103246666Y-110885872D01*
X103249500Y-110912230D01*
X103249500Y-111858028D01*
X103249501Y-111858034D01*
X103260113Y-111977415D01*
X103316089Y-112173045D01*
X103316090Y-112173048D01*
X103316091Y-112173049D01*
X103410302Y-112353407D01*
X103410304Y-112353409D01*
X103538890Y-112511109D01*
X103632803Y-112587684D01*
X103696593Y-112639698D01*
X103876951Y-112733909D01*
X104072582Y-112789886D01*
X104191963Y-112800500D01*
X105308036Y-112800499D01*
X105427418Y-112789886D01*
X105623049Y-112733909D01*
X105803407Y-112639698D01*
X105961109Y-112511109D01*
X106089698Y-112353407D01*
X106183909Y-112173049D01*
X106239886Y-111977418D01*
X106250500Y-111858037D01*
X106250499Y-110984499D01*
X106270183Y-110917461D01*
X106322987Y-110871706D01*
X106374499Y-110860500D01*
X113577649Y-110860500D01*
X113644688Y-110880185D01*
X113690443Y-110932989D01*
X113700939Y-110971248D01*
X113705908Y-111017483D01*
X113756202Y-111152328D01*
X113756206Y-111152335D01*
X113842452Y-111267544D01*
X113842455Y-111267547D01*
X113957664Y-111353793D01*
X113957671Y-111353797D01*
X114092517Y-111404091D01*
X114092516Y-111404091D01*
X114099444Y-111404835D01*
X114152127Y-111410500D01*
X115847872Y-111410499D01*
X115907483Y-111404091D01*
X116042331Y-111353796D01*
X116157546Y-111267546D01*
X116243796Y-111152331D01*
X116245280Y-111148350D01*
X116247600Y-111142134D01*
X116247600Y-111142133D01*
X116294091Y-111017483D01*
X116297637Y-110984500D01*
X116300500Y-110957873D01*
X116300499Y-109262128D01*
X116294091Y-109202517D01*
X116261869Y-109116126D01*
X116243797Y-109067671D01*
X116243793Y-109067664D01*
X116157547Y-108952455D01*
X116157544Y-108952452D01*
X116042335Y-108866206D01*
X116042328Y-108866202D01*
X115907482Y-108815908D01*
X115907483Y-108815908D01*
X115847883Y-108809501D01*
X115847881Y-108809500D01*
X115847873Y-108809500D01*
X115847864Y-108809500D01*
X114152129Y-108809500D01*
X114152123Y-108809501D01*
X114092516Y-108815908D01*
X113957671Y-108866202D01*
X113957664Y-108866206D01*
X113842455Y-108952452D01*
X113842452Y-108952455D01*
X113756206Y-109067664D01*
X113756202Y-109067671D01*
X113728164Y-109142847D01*
X113705909Y-109202517D01*
X113700937Y-109248757D01*
X113674201Y-109313306D01*
X113616809Y-109353154D01*
X113577649Y-109359500D01*
X105866080Y-109359500D01*
X105721092Y-109388340D01*
X105721082Y-109388343D01*
X105584511Y-109444912D01*
X105584498Y-109444919D01*
X105461584Y-109527048D01*
X105461580Y-109527051D01*
X105225451Y-109763181D01*
X105164128Y-109796666D01*
X105137770Y-109799500D01*
X104362230Y-109799500D01*
X104295191Y-109779815D01*
X104274549Y-109763181D01*
X103131655Y-108620287D01*
X117800000Y-108620287D01*
X117800000Y-108979712D01*
X117840240Y-109336851D01*
X117840242Y-109336863D01*
X117920219Y-109687268D01*
X117920220Y-109687270D01*
X118038927Y-110026517D01*
X118194870Y-110350336D01*
X118386092Y-110654664D01*
X118566081Y-110880364D01*
X119884728Y-109561717D01*
X119970278Y-109679466D01*
X120120534Y-109829722D01*
X120238281Y-109915270D01*
X118919634Y-111233916D01*
X118919634Y-111233917D01*
X119145335Y-111413907D01*
X119449663Y-111605129D01*
X119773482Y-111761072D01*
X120112729Y-111879779D01*
X120112731Y-111879780D01*
X120463136Y-111959757D01*
X120463148Y-111959759D01*
X120820287Y-111999999D01*
X120820289Y-112000000D01*
X121179711Y-112000000D01*
X121179712Y-111999999D01*
X121536851Y-111959759D01*
X121536863Y-111959757D01*
X121887268Y-111879780D01*
X121887270Y-111879779D01*
X122226517Y-111761072D01*
X122550336Y-111605129D01*
X122854664Y-111413907D01*
X123080364Y-111233916D01*
X121761718Y-109915270D01*
X121879466Y-109829722D01*
X122029722Y-109679466D01*
X122115270Y-109561718D01*
X123433916Y-110880364D01*
X123613907Y-110654664D01*
X123805129Y-110350336D01*
X123961072Y-110026517D01*
X124079779Y-109687270D01*
X124079780Y-109687268D01*
X124159757Y-109336863D01*
X124159759Y-109336851D01*
X124199999Y-108979712D01*
X124200000Y-108979710D01*
X124200000Y-108620289D01*
X124199999Y-108620287D01*
X124159759Y-108263148D01*
X124159757Y-108263136D01*
X124079780Y-107912731D01*
X124079779Y-107912729D01*
X123961072Y-107573482D01*
X123805129Y-107249663D01*
X123613907Y-106945335D01*
X123433916Y-106719634D01*
X122115270Y-108038281D01*
X122029722Y-107920534D01*
X121879466Y-107770278D01*
X121761716Y-107684728D01*
X123080364Y-106366081D01*
X122854664Y-106186092D01*
X122550336Y-105994870D01*
X122226517Y-105838927D01*
X121887270Y-105720220D01*
X121887268Y-105720219D01*
X121536863Y-105640242D01*
X121536851Y-105640240D01*
X121179712Y-105600000D01*
X120820287Y-105600000D01*
X120463148Y-105640240D01*
X120463136Y-105640242D01*
X120112731Y-105720219D01*
X120112729Y-105720220D01*
X119773482Y-105838927D01*
X119449663Y-105994870D01*
X119145335Y-106186092D01*
X118919634Y-106366081D01*
X120238282Y-107684729D01*
X120120534Y-107770278D01*
X119970278Y-107920534D01*
X119884729Y-108038282D01*
X118566081Y-106719634D01*
X118386092Y-106945335D01*
X118194870Y-107249663D01*
X118038927Y-107573482D01*
X117920220Y-107912729D01*
X117920219Y-107912731D01*
X117840242Y-108263136D01*
X117840240Y-108263148D01*
X117800000Y-108620287D01*
X103131655Y-108620287D01*
X102736319Y-108224951D01*
X102702834Y-108163628D01*
X102700000Y-108137270D01*
X102700000Y-100981902D01*
X103249500Y-100981902D01*
X103249500Y-101218097D01*
X103286446Y-101451368D01*
X103359433Y-101675996D01*
X103423314Y-101801368D01*
X103466657Y-101886433D01*
X103605483Y-102077510D01*
X103772490Y-102244517D01*
X103963567Y-102383343D01*
X104050250Y-102427510D01*
X104174003Y-102490566D01*
X104174005Y-102490566D01*
X104174008Y-102490568D01*
X104255505Y-102517048D01*
X104398631Y-102563553D01*
X104631903Y-102600500D01*
X104631908Y-102600500D01*
X104868096Y-102600500D01*
X104963592Y-102585374D01*
X105082834Y-102566488D01*
X105152126Y-102575442D01*
X105189912Y-102601280D01*
X105661584Y-103072952D01*
X105690548Y-103092305D01*
X105719508Y-103111655D01*
X105719510Y-103111656D01*
X105719513Y-103111658D01*
X105784505Y-103155084D01*
X105784506Y-103155084D01*
X105784507Y-103155085D01*
X105921082Y-103211656D01*
X105921087Y-103211658D01*
X105921091Y-103211658D01*
X105921092Y-103211659D01*
X106066079Y-103240500D01*
X106066082Y-103240500D01*
X106066083Y-103240500D01*
X106213918Y-103240500D01*
X110526082Y-103240500D01*
X110526083Y-103240500D01*
X110673917Y-103240500D01*
X113874582Y-103240500D01*
X113941621Y-103260185D01*
X113974900Y-103291615D01*
X114008028Y-103337212D01*
X114008032Y-103337217D01*
X114152786Y-103481971D01*
X114307749Y-103594556D01*
X114318390Y-103602287D01*
X114434607Y-103661503D01*
X114500776Y-103695218D01*
X114500778Y-103695218D01*
X114500781Y-103695220D01*
X114582543Y-103721786D01*
X114695465Y-103758477D01*
X114796557Y-103774488D01*
X114897648Y-103790500D01*
X114897649Y-103790500D01*
X115102351Y-103790500D01*
X115102352Y-103790500D01*
X115304534Y-103758477D01*
X115499219Y-103695220D01*
X115681610Y-103602287D01*
X115774590Y-103534732D01*
X115847213Y-103481971D01*
X115847215Y-103481968D01*
X115847219Y-103481966D01*
X115991966Y-103337219D01*
X115991968Y-103337215D01*
X115991971Y-103337213D01*
X116064220Y-103237769D01*
X116112287Y-103171610D01*
X116205220Y-102989219D01*
X116268477Y-102794534D01*
X116300500Y-102592352D01*
X116300500Y-102387648D01*
X116291411Y-102330261D01*
X116268477Y-102185465D01*
X116205218Y-101990776D01*
X116152052Y-101886433D01*
X116112287Y-101808390D01*
X116062236Y-101739500D01*
X115991971Y-101642786D01*
X115847213Y-101498028D01*
X115681613Y-101377715D01*
X115681612Y-101377714D01*
X115681610Y-101377713D01*
X115624653Y-101348691D01*
X115499223Y-101284781D01*
X115304534Y-101221522D01*
X115129995Y-101193878D01*
X115102352Y-101189500D01*
X114897648Y-101189500D01*
X114873329Y-101193351D01*
X114695465Y-101221522D01*
X114500776Y-101284781D01*
X114318386Y-101377715D01*
X114152786Y-101498028D01*
X114008032Y-101642782D01*
X114008028Y-101642787D01*
X113974900Y-101688385D01*
X113919571Y-101731051D01*
X113874582Y-101739500D01*
X111574500Y-101739500D01*
X111507461Y-101719815D01*
X111461706Y-101667011D01*
X111450500Y-101615500D01*
X111450500Y-99499983D01*
X118824500Y-99499983D01*
X118824500Y-100700001D01*
X118824501Y-100700018D01*
X118835000Y-100802796D01*
X118835001Y-100802799D01*
X118890185Y-100969331D01*
X118890187Y-100969336D01*
X118898585Y-100982951D01*
X118982288Y-101118656D01*
X119106344Y-101242712D01*
X119255666Y-101334814D01*
X119422203Y-101389999D01*
X119524991Y-101400500D01*
X120725008Y-101400499D01*
X120827797Y-101389999D01*
X120994334Y-101334814D01*
X121143656Y-101242712D01*
X121267712Y-101118656D01*
X121359814Y-100969334D01*
X121389698Y-100879149D01*
X121393225Y-100871858D01*
X121411458Y-100851732D01*
X121426919Y-100829401D01*
X121434572Y-100826219D01*
X121440136Y-100820078D01*
X121466356Y-100813004D01*
X121491435Y-100802578D01*
X121499592Y-100804038D01*
X121507594Y-100801880D01*
X121533478Y-100810106D01*
X121560211Y-100814893D01*
X121567222Y-100820830D01*
X121574182Y-100823042D01*
X121575943Y-100825168D01*
X121585524Y-100825922D01*
X122265000Y-100146446D01*
X122265000Y-100152661D01*
X122292259Y-100254394D01*
X122344920Y-100345606D01*
X122419394Y-100420080D01*
X122510606Y-100472741D01*
X122612339Y-100500000D01*
X122618553Y-100500000D01*
X121939076Y-101179474D01*
X121983650Y-101211859D01*
X122165968Y-101304755D01*
X122360582Y-101367990D01*
X122562683Y-101400000D01*
X122767317Y-101400000D01*
X122969417Y-101367990D01*
X123164031Y-101304755D01*
X123346349Y-101211859D01*
X123390921Y-101179474D01*
X122711447Y-100500000D01*
X122717661Y-100500000D01*
X122819394Y-100472741D01*
X122910606Y-100420080D01*
X122985080Y-100345606D01*
X123037741Y-100254394D01*
X123065000Y-100152661D01*
X123065000Y-100146447D01*
X123744474Y-100825921D01*
X123776859Y-100781349D01*
X123869755Y-100599031D01*
X123932990Y-100404417D01*
X123965000Y-100202317D01*
X123965000Y-99997682D01*
X123932990Y-99795582D01*
X123869755Y-99600968D01*
X123776859Y-99418650D01*
X123744474Y-99374077D01*
X123744474Y-99374076D01*
X123065000Y-100053551D01*
X123065000Y-100047339D01*
X123037741Y-99945606D01*
X122985080Y-99854394D01*
X122910606Y-99779920D01*
X122819394Y-99727259D01*
X122717661Y-99700000D01*
X122711446Y-99700000D01*
X123390922Y-99020524D01*
X123390921Y-99020523D01*
X123346359Y-98988147D01*
X123346350Y-98988141D01*
X123164031Y-98895244D01*
X122969417Y-98832009D01*
X122767317Y-98800000D01*
X122562683Y-98800000D01*
X122360582Y-98832009D01*
X122165968Y-98895244D01*
X121983644Y-98988143D01*
X121939077Y-99020523D01*
X121939077Y-99020524D01*
X122618554Y-99700000D01*
X122612339Y-99700000D01*
X122510606Y-99727259D01*
X122419394Y-99779920D01*
X122344920Y-99854394D01*
X122292259Y-99945606D01*
X122265000Y-100047339D01*
X122265000Y-100053553D01*
X121585524Y-99374077D01*
X121568345Y-99375429D01*
X121549840Y-99389699D01*
X121545786Y-99390047D01*
X121542410Y-99392324D01*
X121511261Y-99393012D01*
X121480227Y-99395678D01*
X121476626Y-99393778D01*
X121472557Y-99393868D01*
X121445985Y-99377610D01*
X121418432Y-99363072D01*
X121415434Y-99358918D01*
X121412958Y-99357403D01*
X121407124Y-99347402D01*
X121393225Y-99328140D01*
X121389696Y-99320844D01*
X121359814Y-99230666D01*
X121267712Y-99081344D01*
X121143656Y-98957288D01*
X120994334Y-98865186D01*
X120827797Y-98810001D01*
X120827795Y-98810000D01*
X120725010Y-98799500D01*
X119524998Y-98799500D01*
X119524981Y-98799501D01*
X119422203Y-98810000D01*
X119422200Y-98810001D01*
X119255668Y-98865185D01*
X119255663Y-98865187D01*
X119106342Y-98957289D01*
X118982289Y-99081342D01*
X118890187Y-99230663D01*
X118890186Y-99230666D01*
X118835001Y-99397203D01*
X118835001Y-99397204D01*
X118835000Y-99397204D01*
X118824500Y-99499983D01*
X111450500Y-99499983D01*
X111450500Y-93962229D01*
X111470185Y-93895190D01*
X111486819Y-93874548D01*
X112344548Y-93016819D01*
X112405871Y-92983334D01*
X112432229Y-92980500D01*
X112785500Y-92980500D01*
X112852539Y-93000185D01*
X112898294Y-93052989D01*
X112909500Y-93104500D01*
X112909500Y-93271007D01*
X112948907Y-93469119D01*
X112948910Y-93469131D01*
X112982547Y-93550338D01*
X112990016Y-93619807D01*
X112970405Y-93664864D01*
X112970895Y-93665132D01*
X112967910Y-93670596D01*
X112967260Y-93672092D01*
X112966646Y-93672911D01*
X112966645Y-93672913D01*
X112916403Y-93807620D01*
X112916401Y-93807627D01*
X112910000Y-93867155D01*
X112910000Y-94190000D01*
X113794134Y-94190000D01*
X113818326Y-94192383D01*
X113821123Y-94192939D01*
X113833995Y-94195499D01*
X113833996Y-94195500D01*
X113833997Y-94195500D01*
X113874170Y-94195500D01*
X113859925Y-94209745D01*
X113810556Y-94295255D01*
X113785000Y-94390630D01*
X113785000Y-94489370D01*
X113810556Y-94584745D01*
X113859925Y-94670255D01*
X113879670Y-94690000D01*
X112910000Y-94690000D01*
X112910000Y-95012844D01*
X112916401Y-95072372D01*
X112916403Y-95072379D01*
X112966645Y-95207086D01*
X112966649Y-95207093D01*
X113052809Y-95322187D01*
X113052812Y-95322190D01*
X113167906Y-95408350D01*
X113167913Y-95408354D01*
X113302620Y-95458596D01*
X113302627Y-95458598D01*
X113362155Y-95464999D01*
X113362172Y-95465000D01*
X113910000Y-95465000D01*
X113910000Y-94720330D01*
X113929745Y-94740075D01*
X114015255Y-94789444D01*
X114110630Y-94815000D01*
X114209370Y-94815000D01*
X114304745Y-94789444D01*
X114390255Y-94740075D01*
X114410000Y-94720330D01*
X114410000Y-95465000D01*
X114957828Y-95465000D01*
X114957844Y-95464999D01*
X115017372Y-95458598D01*
X115017379Y-95458596D01*
X115152086Y-95408354D01*
X115152093Y-95408350D01*
X115267187Y-95322190D01*
X115267190Y-95322187D01*
X115353350Y-95207093D01*
X115353354Y-95207086D01*
X115403596Y-95072379D01*
X115403598Y-95072372D01*
X115409999Y-95012844D01*
X115410000Y-95012827D01*
X115410000Y-94721153D01*
X120899500Y-94721153D01*
X120899500Y-94878846D01*
X120930261Y-95033489D01*
X120930264Y-95033501D01*
X120990602Y-95179172D01*
X120990609Y-95179185D01*
X121078210Y-95310288D01*
X121078213Y-95310292D01*
X121189707Y-95421786D01*
X121189711Y-95421789D01*
X121320814Y-95509390D01*
X121320827Y-95509397D01*
X121420060Y-95550500D01*
X121466503Y-95569737D01*
X121621153Y-95600499D01*
X121621156Y-95600500D01*
X121621158Y-95600500D01*
X121778844Y-95600500D01*
X121778845Y-95600499D01*
X121855152Y-95585320D01*
X121933488Y-95569739D01*
X121933489Y-95569738D01*
X121933497Y-95569737D01*
X121957155Y-95559937D01*
X122004604Y-95550500D01*
X125337770Y-95550500D01*
X125404809Y-95570185D01*
X125425451Y-95586819D01*
X125501937Y-95663305D01*
X125535422Y-95724628D01*
X125530438Y-95794320D01*
X125488566Y-95850253D01*
X125423102Y-95874670D01*
X125390064Y-95872603D01*
X125273920Y-95849500D01*
X125273918Y-95849500D01*
X122504604Y-95849500D01*
X122457155Y-95840062D01*
X122433497Y-95830263D01*
X122433493Y-95830262D01*
X122433488Y-95830260D01*
X122278845Y-95799500D01*
X122278842Y-95799500D01*
X122121158Y-95799500D01*
X122121155Y-95799500D01*
X121966510Y-95830261D01*
X121966498Y-95830264D01*
X121820827Y-95890602D01*
X121820814Y-95890609D01*
X121689711Y-95978210D01*
X121689707Y-95978213D01*
X121578213Y-96089707D01*
X121578210Y-96089711D01*
X121490609Y-96220814D01*
X121490602Y-96220827D01*
X121430264Y-96366498D01*
X121430261Y-96366510D01*
X121399500Y-96521153D01*
X121399500Y-96678846D01*
X121430261Y-96833489D01*
X121430264Y-96833501D01*
X121490602Y-96979172D01*
X121490609Y-96979185D01*
X121578210Y-97110288D01*
X121578213Y-97110292D01*
X121689707Y-97221786D01*
X121689711Y-97221789D01*
X121820814Y-97309390D01*
X121820827Y-97309397D01*
X121920060Y-97350500D01*
X121966503Y-97369737D01*
X122121153Y-97400499D01*
X122121156Y-97400500D01*
X122121158Y-97400500D01*
X122278844Y-97400500D01*
X122278845Y-97400499D01*
X122355152Y-97385320D01*
X122433488Y-97369739D01*
X122433489Y-97369738D01*
X122433497Y-97369737D01*
X122457155Y-97359937D01*
X122504604Y-97350500D01*
X124837770Y-97350500D01*
X124904809Y-97370185D01*
X124925451Y-97386819D01*
X126769296Y-99230663D01*
X128417049Y-100878416D01*
X128521584Y-100982951D01*
X128521587Y-100982953D01*
X128521588Y-100982954D01*
X128644503Y-101065083D01*
X128644506Y-101065085D01*
X128694665Y-101085861D01*
X128701080Y-101088518D01*
X128781088Y-101121659D01*
X128897241Y-101144763D01*
X128920380Y-101149365D01*
X128926081Y-101150500D01*
X128926082Y-101150500D01*
X128926083Y-101150500D01*
X129073918Y-101150500D01*
X130995396Y-101150500D01*
X131042844Y-101159937D01*
X131066503Y-101169737D01*
X131066508Y-101169738D01*
X131066511Y-101169739D01*
X131221153Y-101200499D01*
X131221156Y-101200500D01*
X131221158Y-101200500D01*
X131378844Y-101200500D01*
X131501308Y-101176140D01*
X131570900Y-101182367D01*
X131626077Y-101225230D01*
X131649322Y-101291120D01*
X131649500Y-101297757D01*
X131649500Y-103237769D01*
X131629815Y-103304808D01*
X131613181Y-103325450D01*
X130317052Y-104621578D01*
X130317046Y-104621585D01*
X130271527Y-104689710D01*
X130271528Y-104689711D01*
X130234913Y-104744509D01*
X130228687Y-104759540D01*
X130217231Y-104780972D01*
X130190611Y-104820812D01*
X130190602Y-104820828D01*
X130130264Y-104966498D01*
X130130261Y-104966510D01*
X130099500Y-105121153D01*
X130099500Y-105138770D01*
X130079815Y-105205809D01*
X130027011Y-105251564D01*
X129957853Y-105261508D01*
X129894297Y-105232483D01*
X129887819Y-105226451D01*
X127178421Y-102517052D01*
X127178418Y-102517049D01*
X127098900Y-102463918D01*
X127055495Y-102434916D01*
X127055492Y-102434914D01*
X127055491Y-102434914D01*
X126918917Y-102378343D01*
X126918907Y-102378340D01*
X126773920Y-102349500D01*
X126773918Y-102349500D01*
X125404604Y-102349500D01*
X125357155Y-102340062D01*
X125333497Y-102330263D01*
X125333493Y-102330262D01*
X125333488Y-102330260D01*
X125178845Y-102299500D01*
X125178842Y-102299500D01*
X125021158Y-102299500D01*
X125021155Y-102299500D01*
X124866510Y-102330261D01*
X124866498Y-102330264D01*
X124720827Y-102390602D01*
X124720814Y-102390609D01*
X124589711Y-102478210D01*
X124589707Y-102478213D01*
X124478213Y-102589707D01*
X124478210Y-102589711D01*
X124390609Y-102720814D01*
X124390602Y-102720827D01*
X124330264Y-102866498D01*
X124330261Y-102866510D01*
X124299500Y-103021153D01*
X124299500Y-103178846D01*
X124330261Y-103333489D01*
X124330264Y-103333501D01*
X124390602Y-103479172D01*
X124390609Y-103479185D01*
X124478210Y-103610288D01*
X124478213Y-103610292D01*
X124589707Y-103721786D01*
X124589711Y-103721789D01*
X124720814Y-103809390D01*
X124720827Y-103809397D01*
X124820060Y-103850500D01*
X124866503Y-103869737D01*
X125021153Y-103900499D01*
X125021156Y-103900500D01*
X125021158Y-103900500D01*
X125178844Y-103900500D01*
X125178845Y-103900499D01*
X125255152Y-103885320D01*
X125333488Y-103869739D01*
X125333489Y-103869738D01*
X125333497Y-103869737D01*
X125357155Y-103859937D01*
X125404604Y-103850500D01*
X126337770Y-103850500D01*
X126404809Y-103870185D01*
X126425451Y-103886819D01*
X129613181Y-107074548D01*
X129646666Y-107135871D01*
X129649500Y-107162229D01*
X129649500Y-109095396D01*
X129640062Y-109142844D01*
X129635627Y-109153553D01*
X129630262Y-109166506D01*
X129630260Y-109166511D01*
X129599500Y-109321153D01*
X129599500Y-109478846D01*
X129630261Y-109633489D01*
X129630264Y-109633501D01*
X129690602Y-109779172D01*
X129690609Y-109779185D01*
X129778210Y-109910288D01*
X129778213Y-109910292D01*
X129889707Y-110021786D01*
X129889711Y-110021789D01*
X130020814Y-110109390D01*
X130020827Y-110109397D01*
X130118853Y-110150000D01*
X130166503Y-110169737D01*
X130321153Y-110200499D01*
X130321156Y-110200500D01*
X130321158Y-110200500D01*
X130478844Y-110200500D01*
X130478845Y-110200499D01*
X130633497Y-110169737D01*
X130779179Y-110109394D01*
X130910289Y-110021789D01*
X131021789Y-109910289D01*
X131109394Y-109779179D01*
X131169737Y-109633497D01*
X131200500Y-109478842D01*
X131200500Y-109321158D01*
X131200500Y-109321155D01*
X131200499Y-109321153D01*
X131169739Y-109166511D01*
X131169738Y-109166508D01*
X131169737Y-109166503D01*
X131159937Y-109142844D01*
X131150500Y-109095396D01*
X131150500Y-107265844D01*
X131170185Y-107198805D01*
X131222989Y-107153050D01*
X131292147Y-107143106D01*
X131321944Y-107151280D01*
X131366503Y-107169737D01*
X131512637Y-107198805D01*
X131521153Y-107200499D01*
X131521156Y-107200500D01*
X131521158Y-107200500D01*
X131678844Y-107200500D01*
X131678845Y-107200499D01*
X131833497Y-107169737D01*
X131979179Y-107109394D01*
X132110289Y-107021789D01*
X132221789Y-106910289D01*
X132309394Y-106779179D01*
X132319191Y-106755524D01*
X132346069Y-106715297D01*
X133982951Y-105078416D01*
X134065084Y-104955495D01*
X134121658Y-104818913D01*
X134150500Y-104673918D01*
X134150500Y-104526083D01*
X134150500Y-101331902D01*
X147549500Y-101331902D01*
X147549500Y-101568097D01*
X147586446Y-101801368D01*
X147659433Y-102025996D01*
X147740688Y-102185466D01*
X147766657Y-102236433D01*
X147905483Y-102427510D01*
X148072490Y-102594517D01*
X148263567Y-102733343D01*
X148362991Y-102784002D01*
X148474003Y-102840566D01*
X148474005Y-102840566D01*
X148474008Y-102840568D01*
X148553849Y-102866510D01*
X148698631Y-102913553D01*
X148931903Y-102950500D01*
X148931908Y-102950500D01*
X149168097Y-102950500D01*
X149401368Y-102913553D01*
X149625992Y-102840568D01*
X149836433Y-102733343D01*
X150027510Y-102594517D01*
X150194517Y-102427510D01*
X150333343Y-102236433D01*
X150440568Y-102025992D01*
X150513553Y-101801368D01*
X150526470Y-101719815D01*
X150550500Y-101568097D01*
X150550500Y-101331902D01*
X150513553Y-101098631D01*
X150440566Y-100874003D01*
X150376685Y-100748631D01*
X150333343Y-100663567D01*
X150194517Y-100472490D01*
X150027510Y-100305483D01*
X149836433Y-100166657D01*
X149625996Y-100059433D01*
X149401368Y-99986446D01*
X149168097Y-99949500D01*
X149168092Y-99949500D01*
X148931908Y-99949500D01*
X148931903Y-99949500D01*
X148698631Y-99986446D01*
X148474003Y-100059433D01*
X148263566Y-100166657D01*
X148214485Y-100202317D01*
X148072490Y-100305483D01*
X148072488Y-100305485D01*
X148072487Y-100305485D01*
X147905485Y-100472487D01*
X147905485Y-100472488D01*
X147905483Y-100472490D01*
X147868053Y-100524008D01*
X147766657Y-100663566D01*
X147659433Y-100874003D01*
X147586446Y-101098631D01*
X147549500Y-101331902D01*
X134150500Y-101331902D01*
X134150500Y-96831947D01*
X147550000Y-96831947D01*
X147550000Y-97068052D01*
X147586934Y-97301247D01*
X147659897Y-97525802D01*
X147767087Y-97736174D01*
X147827338Y-97819104D01*
X147827340Y-97819105D01*
X148526212Y-97120233D01*
X148537482Y-97162292D01*
X148609890Y-97287708D01*
X148712292Y-97390110D01*
X148837708Y-97462518D01*
X148879765Y-97473787D01*
X148180893Y-98172658D01*
X148263828Y-98232914D01*
X148474197Y-98340102D01*
X148698752Y-98413065D01*
X148698751Y-98413065D01*
X148931948Y-98450000D01*
X149168052Y-98450000D01*
X149401247Y-98413065D01*
X149625802Y-98340102D01*
X149836163Y-98232918D01*
X149836169Y-98232914D01*
X149919104Y-98172658D01*
X149919105Y-98172658D01*
X149220233Y-97473787D01*
X149262292Y-97462518D01*
X149387708Y-97390110D01*
X149490110Y-97287708D01*
X149562518Y-97162292D01*
X149573787Y-97120234D01*
X150272658Y-97819105D01*
X150272658Y-97819104D01*
X150332914Y-97736169D01*
X150332918Y-97736163D01*
X150440102Y-97525802D01*
X150513065Y-97301247D01*
X150550000Y-97068052D01*
X150550000Y-96831947D01*
X150513065Y-96598752D01*
X150440102Y-96374197D01*
X150332914Y-96163828D01*
X150272658Y-96080894D01*
X150272658Y-96080893D01*
X149573787Y-96779765D01*
X149562518Y-96737708D01*
X149490110Y-96612292D01*
X149387708Y-96509890D01*
X149262292Y-96437482D01*
X149220234Y-96426212D01*
X149919105Y-95727340D01*
X149919104Y-95727338D01*
X149836174Y-95667087D01*
X149625802Y-95559897D01*
X149401247Y-95486934D01*
X149401248Y-95486934D01*
X149168052Y-95450000D01*
X148931948Y-95450000D01*
X148698752Y-95486934D01*
X148474197Y-95559897D01*
X148263830Y-95667084D01*
X148180894Y-95727340D01*
X148879766Y-96426212D01*
X148837708Y-96437482D01*
X148712292Y-96509890D01*
X148609890Y-96612292D01*
X148537482Y-96737708D01*
X148526212Y-96779766D01*
X147827340Y-96080894D01*
X147767084Y-96163830D01*
X147659897Y-96374197D01*
X147586934Y-96598752D01*
X147550000Y-96831947D01*
X134150500Y-96831947D01*
X134150500Y-94526082D01*
X134150500Y-94526079D01*
X134121659Y-94381092D01*
X134121658Y-94381091D01*
X134121658Y-94381087D01*
X134065084Y-94244505D01*
X134001604Y-94149500D01*
X133991858Y-94134913D01*
X133982954Y-94121586D01*
X131986819Y-92125451D01*
X131953334Y-92064128D01*
X131950500Y-92037770D01*
X131950500Y-90222901D01*
X131970185Y-90155862D01*
X132022989Y-90110107D01*
X132092147Y-90100163D01*
X132155703Y-90129188D01*
X132189061Y-90175449D01*
X132190605Y-90179178D01*
X132190607Y-90179181D01*
X132278207Y-90310284D01*
X132278213Y-90310292D01*
X132389707Y-90421786D01*
X132389711Y-90421789D01*
X132520814Y-90509390D01*
X132520827Y-90509397D01*
X132666498Y-90569735D01*
X132666503Y-90569737D01*
X132821153Y-90600499D01*
X132821156Y-90600500D01*
X132821158Y-90600500D01*
X132978844Y-90600500D01*
X132978845Y-90600499D01*
X133133497Y-90569737D01*
X133279179Y-90509394D01*
X133410289Y-90421789D01*
X133521789Y-90310289D01*
X133609394Y-90179179D01*
X133669737Y-90033497D01*
X133700500Y-89878842D01*
X133700500Y-89721158D01*
X133700500Y-89721155D01*
X133700499Y-89721153D01*
X133699769Y-89717483D01*
X133669737Y-89566503D01*
X133669735Y-89566498D01*
X133609397Y-89420827D01*
X133609390Y-89420814D01*
X133521789Y-89289711D01*
X133521786Y-89289707D01*
X133410292Y-89178213D01*
X133410284Y-89178207D01*
X133279181Y-89090607D01*
X133279179Y-89090606D01*
X133255521Y-89080806D01*
X133215295Y-89053927D01*
X132378421Y-88217052D01*
X132378414Y-88217046D01*
X132278818Y-88150499D01*
X132278817Y-88150499D01*
X132255495Y-88134916D01*
X132255488Y-88134912D01*
X132118917Y-88078343D01*
X132118907Y-88078340D01*
X131973920Y-88049500D01*
X131973918Y-88049500D01*
X130226082Y-88049500D01*
X130226080Y-88049500D01*
X130081092Y-88078340D01*
X130081082Y-88078343D01*
X129944511Y-88134912D01*
X129944498Y-88134919D01*
X129830178Y-88211307D01*
X129830176Y-88211308D01*
X129821586Y-88217046D01*
X129821582Y-88217050D01*
X129117050Y-88921580D01*
X129117044Y-88921588D01*
X129067812Y-88995268D01*
X129067813Y-88995269D01*
X129034921Y-89044496D01*
X129034914Y-89044508D01*
X128978342Y-89181086D01*
X128978340Y-89181092D01*
X128949500Y-89326079D01*
X128949500Y-89326082D01*
X128949500Y-93073918D01*
X128949500Y-93073920D01*
X128949499Y-93073920D01*
X128978340Y-93218907D01*
X128978343Y-93218917D01*
X129034913Y-93355490D01*
X129034914Y-93355491D01*
X129034916Y-93355495D01*
X129051624Y-93380500D01*
X129112738Y-93471966D01*
X129117051Y-93478420D01*
X129117052Y-93478421D01*
X131613181Y-95974548D01*
X131646666Y-96035871D01*
X131649500Y-96062229D01*
X131649500Y-98102242D01*
X131629815Y-98169281D01*
X131577011Y-98215036D01*
X131507853Y-98224980D01*
X131501309Y-98223859D01*
X131378846Y-98199500D01*
X131378842Y-98199500D01*
X131221158Y-98199500D01*
X131221155Y-98199500D01*
X131066511Y-98230260D01*
X131066506Y-98230262D01*
X131066504Y-98230262D01*
X131066503Y-98230263D01*
X131042844Y-98240062D01*
X130995396Y-98249500D01*
X130262230Y-98249500D01*
X130195191Y-98229815D01*
X130174549Y-98213181D01*
X126178421Y-94217052D01*
X126178414Y-94217046D01*
X126104729Y-94167812D01*
X126104729Y-94167813D01*
X126055491Y-94134913D01*
X125918917Y-94078343D01*
X125918907Y-94078340D01*
X125773920Y-94049500D01*
X125773918Y-94049500D01*
X122004604Y-94049500D01*
X121957155Y-94040062D01*
X121933497Y-94030263D01*
X121933493Y-94030262D01*
X121933488Y-94030260D01*
X121778845Y-93999500D01*
X121778842Y-93999500D01*
X121621158Y-93999500D01*
X121621155Y-93999500D01*
X121466510Y-94030261D01*
X121466498Y-94030264D01*
X121320827Y-94090602D01*
X121320814Y-94090609D01*
X121189711Y-94178210D01*
X121189707Y-94178213D01*
X121078213Y-94289707D01*
X121078210Y-94289711D01*
X120990609Y-94420814D01*
X120990602Y-94420827D01*
X120930264Y-94566498D01*
X120930261Y-94566510D01*
X120899500Y-94721153D01*
X115410000Y-94721153D01*
X115410000Y-94690000D01*
X114440330Y-94690000D01*
X114460075Y-94670255D01*
X114509444Y-94584745D01*
X114535000Y-94489370D01*
X114535000Y-94390630D01*
X114509444Y-94295255D01*
X114460075Y-94209745D01*
X114445830Y-94195500D01*
X114486004Y-94195500D01*
X114486004Y-94195499D01*
X114499473Y-94192820D01*
X114501674Y-94192383D01*
X114525866Y-94190000D01*
X115410000Y-94190000D01*
X115410000Y-93867172D01*
X115409999Y-93867155D01*
X115403598Y-93807627D01*
X115403596Y-93807620D01*
X115353354Y-93672913D01*
X115353353Y-93672911D01*
X115352745Y-93672099D01*
X115352390Y-93671148D01*
X115349103Y-93665128D01*
X115349968Y-93664655D01*
X115348806Y-93661539D01*
X115341128Y-93653292D01*
X115336816Y-93629389D01*
X115328329Y-93606634D01*
X115330402Y-93593837D01*
X115328724Y-93584533D01*
X115337450Y-93550342D01*
X115371091Y-93469127D01*
X115410500Y-93271003D01*
X115410500Y-93068997D01*
X115371091Y-92870873D01*
X115293786Y-92684244D01*
X115240094Y-92603889D01*
X115235604Y-92589548D01*
X115226689Y-92577449D01*
X115225375Y-92556881D01*
X115219217Y-92537214D01*
X115223120Y-92521586D01*
X115222235Y-92507722D01*
X115232638Y-92483483D01*
X115234820Y-92474748D01*
X115237280Y-92470321D01*
X115293786Y-92385756D01*
X115297130Y-92377682D01*
X118825000Y-92377682D01*
X118825000Y-92582317D01*
X118857009Y-92784417D01*
X118920244Y-92979031D01*
X119013141Y-93161350D01*
X119013147Y-93161359D01*
X119045523Y-93205921D01*
X119045524Y-93205922D01*
X119725000Y-92526446D01*
X119725000Y-92532661D01*
X119752259Y-92634394D01*
X119804920Y-92725606D01*
X119879394Y-92800080D01*
X119970606Y-92852741D01*
X120072339Y-92880000D01*
X120078553Y-92880000D01*
X119399076Y-93559474D01*
X119443650Y-93591859D01*
X119625968Y-93684755D01*
X119820582Y-93747990D01*
X120022683Y-93780000D01*
X120227317Y-93780000D01*
X120429417Y-93747990D01*
X120624031Y-93684755D01*
X120806349Y-93591859D01*
X120850921Y-93559474D01*
X120171447Y-92880000D01*
X120177661Y-92880000D01*
X120279394Y-92852741D01*
X120370606Y-92800080D01*
X120445080Y-92725606D01*
X120497741Y-92634394D01*
X120525000Y-92532661D01*
X120525000Y-92526447D01*
X121204474Y-93205921D01*
X121236861Y-93161347D01*
X121236861Y-93161346D01*
X121284234Y-93068371D01*
X121332208Y-93017575D01*
X121400028Y-93000779D01*
X121466164Y-93023316D01*
X121505203Y-93068369D01*
X121552713Y-93161611D01*
X121673028Y-93327213D01*
X121817786Y-93471971D01*
X121938226Y-93559474D01*
X121983390Y-93592287D01*
X122056207Y-93629389D01*
X122165776Y-93685218D01*
X122165778Y-93685218D01*
X122165781Y-93685220D01*
X122270137Y-93719127D01*
X122360465Y-93748477D01*
X122461557Y-93764488D01*
X122562648Y-93780500D01*
X122562649Y-93780500D01*
X122767351Y-93780500D01*
X122767352Y-93780500D01*
X122969534Y-93748477D01*
X123164219Y-93685220D01*
X123346610Y-93592287D01*
X123439590Y-93524732D01*
X123512213Y-93471971D01*
X123512215Y-93471968D01*
X123512219Y-93471966D01*
X123656966Y-93327219D01*
X123656968Y-93327215D01*
X123656971Y-93327213D01*
X123735654Y-93218913D01*
X123777287Y-93161610D01*
X123870220Y-92979219D01*
X123933477Y-92784534D01*
X123965500Y-92582352D01*
X123965500Y-92377648D01*
X123956178Y-92318790D01*
X123933477Y-92175465D01*
X123876791Y-92001004D01*
X123870220Y-91980781D01*
X123870218Y-91980778D01*
X123870218Y-91980776D01*
X123824794Y-91891628D01*
X123777287Y-91798390D01*
X123745092Y-91754077D01*
X123656971Y-91632786D01*
X123512213Y-91488028D01*
X123346613Y-91367715D01*
X123346612Y-91367714D01*
X123346610Y-91367713D01*
X123289653Y-91338691D01*
X123164223Y-91274781D01*
X122969534Y-91211522D01*
X122794995Y-91183878D01*
X122767352Y-91179500D01*
X122562648Y-91179500D01*
X122538329Y-91183351D01*
X122360465Y-91211522D01*
X122165776Y-91274781D01*
X121983386Y-91367715D01*
X121817786Y-91488028D01*
X121673028Y-91632786D01*
X121552713Y-91798388D01*
X121505203Y-91891630D01*
X121457228Y-91942426D01*
X121389407Y-91959220D01*
X121323272Y-91936682D01*
X121284234Y-91891628D01*
X121236861Y-91798652D01*
X121204474Y-91754077D01*
X121204474Y-91754076D01*
X120525000Y-92433551D01*
X120525000Y-92427339D01*
X120497741Y-92325606D01*
X120445080Y-92234394D01*
X120370606Y-92159920D01*
X120279394Y-92107259D01*
X120177661Y-92080000D01*
X120171446Y-92080000D01*
X120850922Y-91400524D01*
X120850921Y-91400523D01*
X120806359Y-91368147D01*
X120806350Y-91368141D01*
X120624031Y-91275244D01*
X120429417Y-91212009D01*
X120227317Y-91180000D01*
X120022683Y-91180000D01*
X119820582Y-91212009D01*
X119625968Y-91275244D01*
X119443644Y-91368143D01*
X119399077Y-91400523D01*
X119399077Y-91400524D01*
X120078554Y-92080000D01*
X120072339Y-92080000D01*
X119970606Y-92107259D01*
X119879394Y-92159920D01*
X119804920Y-92234394D01*
X119752259Y-92325606D01*
X119725000Y-92427339D01*
X119725000Y-92433553D01*
X119045524Y-91754077D01*
X119045523Y-91754077D01*
X119013143Y-91798644D01*
X118920244Y-91980968D01*
X118857009Y-92175582D01*
X118825000Y-92377682D01*
X115297130Y-92377682D01*
X115371091Y-92199127D01*
X115410500Y-92001003D01*
X115410500Y-91798997D01*
X115371091Y-91600873D01*
X115293786Y-91414244D01*
X115293785Y-91414243D01*
X115293782Y-91414237D01*
X115181558Y-91246281D01*
X115038718Y-91103441D01*
X114870762Y-90991217D01*
X114870752Y-90991212D01*
X114684127Y-90913909D01*
X114684119Y-90913907D01*
X114486007Y-90874500D01*
X114486003Y-90874500D01*
X113833997Y-90874500D01*
X113833992Y-90874500D01*
X113635880Y-90913907D01*
X113635872Y-90913909D01*
X113449247Y-90991212D01*
X113449237Y-90991217D01*
X113281281Y-91103441D01*
X113138444Y-91246278D01*
X113138438Y-91246286D01*
X113022829Y-91419309D01*
X113021790Y-91418615D01*
X112977404Y-91463799D01*
X112917011Y-91479500D01*
X111996076Y-91479500D01*
X111967242Y-91485234D01*
X111967243Y-91485235D01*
X111851093Y-91508339D01*
X111851083Y-91508342D01*
X111771081Y-91541479D01*
X111771082Y-91541480D01*
X111771080Y-91541481D01*
X111714505Y-91564916D01*
X111660693Y-91600872D01*
X111640887Y-91614106D01*
X111591582Y-91647049D01*
X110117048Y-93121583D01*
X110097647Y-93150619D01*
X110078375Y-93179464D01*
X110034919Y-93244499D01*
X110034912Y-93244511D01*
X109978343Y-93381082D01*
X109978340Y-93381092D01*
X109949500Y-93526079D01*
X109949500Y-101615500D01*
X109929815Y-101682539D01*
X109877011Y-101728294D01*
X109825500Y-101739500D01*
X106502230Y-101739500D01*
X106472789Y-101730855D01*
X106442803Y-101724332D01*
X106437787Y-101720577D01*
X106435191Y-101719815D01*
X106414549Y-101703181D01*
X106251280Y-101539912D01*
X106217795Y-101478589D01*
X106216488Y-101432836D01*
X106236774Y-101304755D01*
X106250500Y-101218096D01*
X106250500Y-100981902D01*
X106213553Y-100748631D01*
X106179689Y-100644412D01*
X106140568Y-100524008D01*
X106140566Y-100524005D01*
X106140566Y-100524003D01*
X106079633Y-100404417D01*
X106033343Y-100313567D01*
X105894517Y-100122490D01*
X105727510Y-99955483D01*
X105536433Y-99816657D01*
X105464333Y-99779920D01*
X105325996Y-99709433D01*
X105101368Y-99636446D01*
X104868097Y-99599500D01*
X104868092Y-99599500D01*
X104631908Y-99599500D01*
X104631903Y-99599500D01*
X104398631Y-99636446D01*
X104174003Y-99709433D01*
X103963566Y-99816657D01*
X103854550Y-99895862D01*
X103772490Y-99955483D01*
X103772488Y-99955485D01*
X103772487Y-99955485D01*
X103605485Y-100122487D01*
X103605485Y-100122488D01*
X103605483Y-100122490D01*
X103573394Y-100166657D01*
X103466657Y-100313566D01*
X103359433Y-100524003D01*
X103286446Y-100748631D01*
X103249500Y-100981902D01*
X102700000Y-100981902D01*
X102700000Y-90112728D01*
X102719685Y-90045689D01*
X102736312Y-90025055D01*
X104281938Y-88479427D01*
X104343259Y-88445944D01*
X104389011Y-88444637D01*
X104482805Y-88459492D01*
X104583871Y-88475500D01*
X104583876Y-88475500D01*
X104816129Y-88475500D01*
X105010984Y-88444638D01*
X105080278Y-88453593D01*
X105118063Y-88479430D01*
X106021580Y-89382948D01*
X106021584Y-89382951D01*
X106144498Y-89465080D01*
X106144511Y-89465087D01*
X106240279Y-89504755D01*
X106281087Y-89521658D01*
X106281091Y-89521658D01*
X106281092Y-89521659D01*
X106426079Y-89550500D01*
X106426082Y-89550500D01*
X106573917Y-89550500D01*
X108073597Y-89550500D01*
X108097790Y-89552883D01*
X108136081Y-89560500D01*
X108136082Y-89560500D01*
X110377649Y-89560500D01*
X110444688Y-89580185D01*
X110490443Y-89632989D01*
X110500939Y-89671248D01*
X110505908Y-89717483D01*
X110556202Y-89852328D01*
X110556206Y-89852335D01*
X110642452Y-89967544D01*
X110642455Y-89967547D01*
X110757664Y-90053793D01*
X110757671Y-90053797D01*
X110892517Y-90104091D01*
X110892516Y-90104091D01*
X110899444Y-90104835D01*
X110952127Y-90110500D01*
X112647872Y-90110499D01*
X112707483Y-90104091D01*
X112842331Y-90053796D01*
X112957546Y-89967546D01*
X113043796Y-89852331D01*
X113094091Y-89717483D01*
X113099062Y-89671242D01*
X113125799Y-89606694D01*
X113183191Y-89566846D01*
X113222351Y-89560500D01*
X114063920Y-89560500D01*
X114161462Y-89541096D01*
X114208913Y-89531658D01*
X114345495Y-89475084D01*
X114426706Y-89420821D01*
X114468416Y-89392952D01*
X116161385Y-87699983D01*
X120824500Y-87699983D01*
X120824500Y-88900001D01*
X120824501Y-88900018D01*
X120835000Y-89002796D01*
X120835001Y-89002799D01*
X120890185Y-89169331D01*
X120890187Y-89169336D01*
X120897435Y-89181087D01*
X120982288Y-89318656D01*
X121106344Y-89442712D01*
X121255666Y-89534814D01*
X121422203Y-89589999D01*
X121524991Y-89600500D01*
X122725008Y-89600499D01*
X122827797Y-89589999D01*
X122994334Y-89534814D01*
X123143656Y-89442712D01*
X123267712Y-89318656D01*
X123359814Y-89169334D01*
X123389698Y-89079149D01*
X123393225Y-89071858D01*
X123411458Y-89051732D01*
X123426919Y-89029401D01*
X123434572Y-89026219D01*
X123440136Y-89020078D01*
X123466356Y-89013004D01*
X123491435Y-89002578D01*
X123499592Y-89004038D01*
X123507594Y-89001880D01*
X123533478Y-89010106D01*
X123560211Y-89014893D01*
X123567222Y-89020830D01*
X123574182Y-89023042D01*
X123575943Y-89025168D01*
X123585524Y-89025922D01*
X124265000Y-88346446D01*
X124265000Y-88352661D01*
X124292259Y-88454394D01*
X124344920Y-88545606D01*
X124419394Y-88620080D01*
X124510606Y-88672741D01*
X124612339Y-88700000D01*
X124618553Y-88700000D01*
X123939076Y-89379474D01*
X123983650Y-89411859D01*
X124165968Y-89504755D01*
X124360582Y-89567990D01*
X124562683Y-89600000D01*
X124767317Y-89600000D01*
X124969417Y-89567990D01*
X125164031Y-89504755D01*
X125346349Y-89411859D01*
X125390921Y-89379474D01*
X124711447Y-88700000D01*
X124717661Y-88700000D01*
X124819394Y-88672741D01*
X124910606Y-88620080D01*
X124985080Y-88545606D01*
X125037741Y-88454394D01*
X125065000Y-88352661D01*
X125065000Y-88346448D01*
X125744474Y-89025922D01*
X125744474Y-89025921D01*
X125776859Y-88981349D01*
X125869755Y-88799031D01*
X125932990Y-88604417D01*
X125965000Y-88402317D01*
X125965000Y-88197682D01*
X125932990Y-87995582D01*
X125869755Y-87800968D01*
X125776859Y-87618650D01*
X125744474Y-87574077D01*
X125744474Y-87574076D01*
X125065000Y-88253551D01*
X125065000Y-88247339D01*
X125037741Y-88145606D01*
X124985080Y-88054394D01*
X124910606Y-87979920D01*
X124819394Y-87927259D01*
X124717661Y-87900000D01*
X124711446Y-87900000D01*
X125390922Y-87220524D01*
X125390921Y-87220523D01*
X125346359Y-87188147D01*
X125346350Y-87188141D01*
X125164031Y-87095244D01*
X124969417Y-87032009D01*
X124767317Y-87000000D01*
X124562683Y-87000000D01*
X124360582Y-87032009D01*
X124165968Y-87095244D01*
X123983644Y-87188143D01*
X123939077Y-87220523D01*
X123939077Y-87220524D01*
X124618554Y-87900000D01*
X124612339Y-87900000D01*
X124510606Y-87927259D01*
X124419394Y-87979920D01*
X124344920Y-88054394D01*
X124292259Y-88145606D01*
X124265000Y-88247339D01*
X124265000Y-88253553D01*
X123585524Y-87574077D01*
X123568345Y-87575429D01*
X123549840Y-87589699D01*
X123545786Y-87590047D01*
X123542410Y-87592324D01*
X123511261Y-87593012D01*
X123480227Y-87595678D01*
X123476626Y-87593778D01*
X123472557Y-87593868D01*
X123445985Y-87577610D01*
X123418432Y-87563072D01*
X123415434Y-87558918D01*
X123412958Y-87557403D01*
X123407124Y-87547402D01*
X123393225Y-87528140D01*
X123389696Y-87520844D01*
X123359814Y-87430666D01*
X123267712Y-87281344D01*
X123143656Y-87157288D01*
X122994334Y-87065186D01*
X122827797Y-87010001D01*
X122827795Y-87010000D01*
X122725010Y-86999500D01*
X121524998Y-86999500D01*
X121524981Y-86999501D01*
X121422203Y-87010000D01*
X121422200Y-87010001D01*
X121255668Y-87065185D01*
X121255663Y-87065187D01*
X121106342Y-87157289D01*
X120982289Y-87281342D01*
X120890187Y-87430663D01*
X120890186Y-87430666D01*
X120835001Y-87597203D01*
X120835001Y-87597204D01*
X120835000Y-87597204D01*
X120824500Y-87699983D01*
X116161385Y-87699983D01*
X117082952Y-86778416D01*
X117132186Y-86704729D01*
X117165084Y-86655495D01*
X117221658Y-86518913D01*
X117231096Y-86471462D01*
X117250500Y-86373920D01*
X117250500Y-80577682D01*
X120825000Y-80577682D01*
X120825000Y-80782317D01*
X120857009Y-80984417D01*
X120920244Y-81179031D01*
X121013141Y-81361350D01*
X121013147Y-81361359D01*
X121045523Y-81405921D01*
X121045524Y-81405922D01*
X121725000Y-80726446D01*
X121725000Y-80732661D01*
X121752259Y-80834394D01*
X121804920Y-80925606D01*
X121879394Y-81000080D01*
X121970606Y-81052741D01*
X122072339Y-81080000D01*
X122078553Y-81080000D01*
X121399076Y-81759474D01*
X121443650Y-81791859D01*
X121625968Y-81884755D01*
X121820582Y-81947990D01*
X122022683Y-81980000D01*
X122227317Y-81980000D01*
X122429417Y-81947990D01*
X122624031Y-81884755D01*
X122806349Y-81791859D01*
X122850921Y-81759474D01*
X122171447Y-81080000D01*
X122177661Y-81080000D01*
X122279394Y-81052741D01*
X122370606Y-81000080D01*
X122445080Y-80925606D01*
X122497741Y-80834394D01*
X122525000Y-80732661D01*
X122525000Y-80726447D01*
X123204474Y-81405921D01*
X123236861Y-81361347D01*
X123236861Y-81361346D01*
X123284234Y-81268371D01*
X123332208Y-81217575D01*
X123400028Y-81200779D01*
X123466164Y-81223316D01*
X123505203Y-81268369D01*
X123552713Y-81361611D01*
X123673028Y-81527213D01*
X123817786Y-81671971D01*
X123960821Y-81775890D01*
X123983390Y-81792287D01*
X124099607Y-81851503D01*
X124165776Y-81885218D01*
X124165778Y-81885218D01*
X124165781Y-81885220D01*
X124270137Y-81919127D01*
X124360465Y-81948477D01*
X124461557Y-81964488D01*
X124562648Y-81980500D01*
X124562649Y-81980500D01*
X124767351Y-81980500D01*
X124767352Y-81980500D01*
X124969534Y-81948477D01*
X125164219Y-81885220D01*
X125346610Y-81792287D01*
X125439590Y-81724732D01*
X125512213Y-81671971D01*
X125512215Y-81671968D01*
X125512219Y-81671966D01*
X125656966Y-81527219D01*
X125656968Y-81527215D01*
X125656971Y-81527213D01*
X125709732Y-81454590D01*
X125777287Y-81361610D01*
X125870220Y-81179219D01*
X125933477Y-80984534D01*
X125965500Y-80782352D01*
X125965500Y-80577648D01*
X125933477Y-80375466D01*
X125870220Y-80180781D01*
X125870218Y-80180778D01*
X125870218Y-80180776D01*
X125817704Y-80077713D01*
X125777287Y-79998390D01*
X125750982Y-79962184D01*
X125656971Y-79832786D01*
X125512213Y-79688028D01*
X125346613Y-79567715D01*
X125346612Y-79567714D01*
X125346610Y-79567713D01*
X125289653Y-79538691D01*
X125164223Y-79474781D01*
X124969534Y-79411522D01*
X124794995Y-79383878D01*
X124767352Y-79379500D01*
X124562648Y-79379500D01*
X124538329Y-79383351D01*
X124360465Y-79411522D01*
X124165776Y-79474781D01*
X123983386Y-79567715D01*
X123817786Y-79688028D01*
X123673028Y-79832786D01*
X123552713Y-79998388D01*
X123505203Y-80091630D01*
X123457228Y-80142426D01*
X123389407Y-80159220D01*
X123323272Y-80136682D01*
X123284234Y-80091628D01*
X123236861Y-79998652D01*
X123204474Y-79954077D01*
X123204474Y-79954076D01*
X122525000Y-80633551D01*
X122525000Y-80627339D01*
X122497741Y-80525606D01*
X122445080Y-80434394D01*
X122370606Y-80359920D01*
X122279394Y-80307259D01*
X122177661Y-80280000D01*
X122171446Y-80280000D01*
X122850922Y-79600524D01*
X122850921Y-79600523D01*
X122806359Y-79568147D01*
X122806350Y-79568141D01*
X122624031Y-79475244D01*
X122429417Y-79412009D01*
X122227317Y-79380000D01*
X122022683Y-79380000D01*
X121820582Y-79412009D01*
X121625968Y-79475244D01*
X121443644Y-79568143D01*
X121399077Y-79600523D01*
X121399077Y-79600524D01*
X122078554Y-80280000D01*
X122072339Y-80280000D01*
X121970606Y-80307259D01*
X121879394Y-80359920D01*
X121804920Y-80434394D01*
X121752259Y-80525606D01*
X121725000Y-80627339D01*
X121725000Y-80633553D01*
X121045524Y-79954077D01*
X121045523Y-79954077D01*
X121013143Y-79998644D01*
X120920244Y-80180968D01*
X120857009Y-80375582D01*
X120825000Y-80577682D01*
X117250500Y-80577682D01*
X117250500Y-75045287D01*
X117800000Y-75045287D01*
X117800000Y-75404712D01*
X117840240Y-75761851D01*
X117840242Y-75761863D01*
X117920219Y-76112268D01*
X117920220Y-76112270D01*
X118038927Y-76451517D01*
X118194870Y-76775336D01*
X118386092Y-77079664D01*
X118566081Y-77305364D01*
X119884728Y-75986717D01*
X119970278Y-76104466D01*
X120120534Y-76254722D01*
X120238281Y-76340270D01*
X118919634Y-77658916D01*
X118919634Y-77658917D01*
X119145335Y-77838907D01*
X119449663Y-78030129D01*
X119773482Y-78186072D01*
X120112729Y-78304779D01*
X120112731Y-78304780D01*
X120463136Y-78384757D01*
X120463148Y-78384759D01*
X120820287Y-78424999D01*
X120820289Y-78425000D01*
X121179711Y-78425000D01*
X121179712Y-78424999D01*
X121536851Y-78384759D01*
X121536863Y-78384757D01*
X121887268Y-78304780D01*
X121887270Y-78304779D01*
X122226517Y-78186072D01*
X122550336Y-78030129D01*
X122854664Y-77838907D01*
X123080364Y-77658916D01*
X121761718Y-76340270D01*
X121879466Y-76254722D01*
X122029722Y-76104466D01*
X122115270Y-75986718D01*
X123433916Y-77305364D01*
X123613907Y-77079664D01*
X123805129Y-76775336D01*
X123961072Y-76451517D01*
X124079779Y-76112270D01*
X124079780Y-76112268D01*
X124159757Y-75761863D01*
X124159759Y-75761851D01*
X124199999Y-75404712D01*
X124200000Y-75404710D01*
X124200000Y-75045289D01*
X124199999Y-75045287D01*
X124159759Y-74688148D01*
X124159757Y-74688136D01*
X124079780Y-74337731D01*
X124079779Y-74337729D01*
X123961072Y-73998482D01*
X123805129Y-73674663D01*
X123613907Y-73370335D01*
X123433916Y-73144634D01*
X122115270Y-74463281D01*
X122029722Y-74345534D01*
X121879466Y-74195278D01*
X121761716Y-74109728D01*
X123080364Y-72791081D01*
X122854664Y-72611092D01*
X122550336Y-72419870D01*
X122226517Y-72263927D01*
X121887270Y-72145220D01*
X121887268Y-72145219D01*
X121536863Y-72065242D01*
X121536851Y-72065240D01*
X121179712Y-72025000D01*
X120820287Y-72025000D01*
X120463148Y-72065240D01*
X120463136Y-72065242D01*
X120112731Y-72145219D01*
X120112729Y-72145220D01*
X119773482Y-72263927D01*
X119449663Y-72419870D01*
X119145335Y-72611092D01*
X118919634Y-72791081D01*
X120238282Y-74109729D01*
X120120534Y-74195278D01*
X119970278Y-74345534D01*
X119884729Y-74463282D01*
X118566081Y-73144634D01*
X118386092Y-73370335D01*
X118194870Y-73674663D01*
X118038927Y-73998482D01*
X117920220Y-74337729D01*
X117920219Y-74337731D01*
X117840242Y-74688136D01*
X117840240Y-74688148D01*
X117800000Y-75045287D01*
X117250500Y-75045287D01*
X117250500Y-73124728D01*
X117270185Y-73057689D01*
X117286814Y-73037052D01*
X119202713Y-71121153D01*
X132399500Y-71121153D01*
X132399500Y-71278846D01*
X132430261Y-71433489D01*
X132430264Y-71433501D01*
X132490602Y-71579172D01*
X132490609Y-71579185D01*
X132578210Y-71710288D01*
X132578213Y-71710292D01*
X132689707Y-71821786D01*
X132689711Y-71821789D01*
X132820814Y-71909390D01*
X132820827Y-71909397D01*
X132966498Y-71969735D01*
X132966503Y-71969737D01*
X133121153Y-72000499D01*
X133121156Y-72000500D01*
X133121158Y-72000500D01*
X133278844Y-72000500D01*
X133278845Y-72000499D01*
X133433497Y-71969737D01*
X133579179Y-71909394D01*
X133710289Y-71821789D01*
X133821789Y-71710289D01*
X133909394Y-71579179D01*
X133969737Y-71433497D01*
X133972793Y-71418128D01*
X134005176Y-71356218D01*
X134006674Y-71354692D01*
X134840213Y-70521153D01*
X139299500Y-70521153D01*
X139299500Y-70678846D01*
X139330261Y-70833489D01*
X139330264Y-70833501D01*
X139390602Y-70979172D01*
X139390609Y-70979185D01*
X139478210Y-71110288D01*
X139478213Y-71110292D01*
X139589710Y-71221789D01*
X139694391Y-71291734D01*
X139739196Y-71345346D01*
X139749500Y-71394836D01*
X139749500Y-77795396D01*
X139740062Y-77842844D01*
X139730263Y-77866503D01*
X139730262Y-77866506D01*
X139730260Y-77866511D01*
X139699500Y-78021153D01*
X139699500Y-78178846D01*
X139730261Y-78333489D01*
X139730264Y-78333501D01*
X139790602Y-78479172D01*
X139790609Y-78479185D01*
X139878210Y-78610288D01*
X139878213Y-78610292D01*
X139989707Y-78721786D01*
X139989711Y-78721789D01*
X140120814Y-78809390D01*
X140120827Y-78809397D01*
X140266498Y-78869735D01*
X140266503Y-78869737D01*
X140421153Y-78900499D01*
X140421156Y-78900500D01*
X140421158Y-78900500D01*
X140578844Y-78900500D01*
X140578845Y-78900499D01*
X140733497Y-78869737D01*
X140879179Y-78809394D01*
X141010289Y-78721789D01*
X141121789Y-78610289D01*
X141209394Y-78479179D01*
X141269737Y-78333497D01*
X141300500Y-78178842D01*
X141300500Y-78021158D01*
X141300500Y-78021155D01*
X141300499Y-78021153D01*
X141269739Y-77866511D01*
X141269738Y-77866508D01*
X141269737Y-77866503D01*
X141259937Y-77842844D01*
X141250500Y-77795396D01*
X141250500Y-70926079D01*
X141220470Y-70775113D01*
X141222730Y-70774663D01*
X141222191Y-70715066D01*
X141259431Y-70655948D01*
X141322721Y-70626348D01*
X141391967Y-70635664D01*
X141429161Y-70661240D01*
X141489710Y-70721789D01*
X141546209Y-70759540D01*
X141620821Y-70809394D01*
X141620826Y-70809396D01*
X141620828Y-70809397D01*
X141644473Y-70819191D01*
X141684705Y-70846072D01*
X142113181Y-71274548D01*
X142146666Y-71335871D01*
X142149500Y-71362229D01*
X142149500Y-77695064D01*
X142129815Y-77762103D01*
X142128603Y-77763954D01*
X142090608Y-77820817D01*
X142090602Y-77820828D01*
X142030264Y-77966498D01*
X142030261Y-77966510D01*
X141999500Y-78121153D01*
X141999500Y-78278846D01*
X142030261Y-78433489D01*
X142030264Y-78433501D01*
X142090602Y-78579172D01*
X142090609Y-78579185D01*
X142178210Y-78710288D01*
X142178213Y-78710292D01*
X142289707Y-78821786D01*
X142289711Y-78821789D01*
X142420814Y-78909390D01*
X142420827Y-78909397D01*
X142566498Y-78969735D01*
X142566503Y-78969737D01*
X142721153Y-79000499D01*
X142721156Y-79000500D01*
X142721158Y-79000500D01*
X142878844Y-79000500D01*
X142878845Y-79000499D01*
X143033497Y-78969737D01*
X143179179Y-78909394D01*
X143310289Y-78821789D01*
X143421789Y-78710289D01*
X143509394Y-78579179D01*
X143548682Y-78484327D01*
X143560137Y-78462897D01*
X143565084Y-78455495D01*
X143621658Y-78318913D01*
X143638102Y-78236246D01*
X143650500Y-78173920D01*
X143650500Y-70926079D01*
X143621659Y-70781092D01*
X143621658Y-70781091D01*
X143621658Y-70781087D01*
X143621610Y-70780972D01*
X143565087Y-70644511D01*
X143565080Y-70644498D01*
X143482952Y-70521585D01*
X143438207Y-70476840D01*
X143378416Y-70417049D01*
X142882520Y-69921153D01*
X143599500Y-69921153D01*
X143599500Y-70078846D01*
X143630261Y-70233489D01*
X143630264Y-70233501D01*
X143690602Y-70379172D01*
X143690609Y-70379185D01*
X143778210Y-70510288D01*
X143778213Y-70510292D01*
X143889710Y-70621789D01*
X143975097Y-70678842D01*
X144020821Y-70709394D01*
X144020826Y-70709396D01*
X144020828Y-70709397D01*
X144044473Y-70719191D01*
X144084705Y-70746072D01*
X144513181Y-71174548D01*
X144546666Y-71235871D01*
X144549500Y-71262229D01*
X144549500Y-78095396D01*
X144540062Y-78142844D01*
X144530263Y-78166503D01*
X144530262Y-78166506D01*
X144530260Y-78166511D01*
X144499500Y-78321153D01*
X144499500Y-78478846D01*
X144530261Y-78633489D01*
X144530264Y-78633501D01*
X144590602Y-78779172D01*
X144590609Y-78779185D01*
X144678210Y-78910288D01*
X144678213Y-78910292D01*
X144789707Y-79021786D01*
X144789711Y-79021789D01*
X144920814Y-79109390D01*
X144920827Y-79109397D01*
X145066498Y-79169735D01*
X145066503Y-79169737D01*
X145221153Y-79200499D01*
X145221156Y-79200500D01*
X145221158Y-79200500D01*
X145378844Y-79200500D01*
X145378845Y-79200499D01*
X145533497Y-79169737D01*
X145679179Y-79109394D01*
X145810289Y-79021789D01*
X145921789Y-78910289D01*
X146009394Y-78779179D01*
X146069737Y-78633497D01*
X146100500Y-78478842D01*
X146100500Y-78321158D01*
X146100500Y-78321155D01*
X146100499Y-78321153D01*
X146069739Y-78166511D01*
X146069738Y-78166508D01*
X146069737Y-78166503D01*
X146059937Y-78142844D01*
X146058311Y-78134670D01*
X146055523Y-78130331D01*
X146050500Y-78095396D01*
X146050500Y-72152135D01*
X147969500Y-72152135D01*
X147969500Y-73947870D01*
X147969501Y-73947876D01*
X147975908Y-74007483D01*
X148026202Y-74142328D01*
X148026206Y-74142335D01*
X148112452Y-74257544D01*
X148112455Y-74257547D01*
X148227664Y-74343793D01*
X148227671Y-74343797D01*
X148359082Y-74392810D01*
X148415016Y-74434681D01*
X148439433Y-74500145D01*
X148424582Y-74568418D01*
X148403431Y-74596673D01*
X148289889Y-74710215D01*
X148164951Y-74882179D01*
X148068444Y-75071585D01*
X148002753Y-75273760D01*
X147969500Y-75483713D01*
X147969500Y-75696287D01*
X148002754Y-75906243D01*
X148049668Y-76050630D01*
X148068444Y-76108414D01*
X148164951Y-76297820D01*
X148289890Y-76469786D01*
X148440213Y-76620109D01*
X148612179Y-76745048D01*
X148612181Y-76745049D01*
X148612184Y-76745051D01*
X148621493Y-76749794D01*
X148672290Y-76797766D01*
X148689087Y-76865587D01*
X148666552Y-76931722D01*
X148621505Y-76970760D01*
X148612446Y-76975376D01*
X148612440Y-76975380D01*
X148558282Y-77014727D01*
X148558282Y-77014728D01*
X149190591Y-77647037D01*
X149127007Y-77664075D01*
X149012993Y-77729901D01*
X148919901Y-77822993D01*
X148854075Y-77937007D01*
X148837037Y-78000591D01*
X148204728Y-77368282D01*
X148204727Y-77368282D01*
X148165380Y-77422439D01*
X148068904Y-77611782D01*
X148003242Y-77813869D01*
X148003242Y-77813872D01*
X147970000Y-78023753D01*
X147970000Y-78236246D01*
X148003242Y-78446127D01*
X148003242Y-78446130D01*
X148068904Y-78648217D01*
X148165375Y-78837550D01*
X148204728Y-78891716D01*
X148837037Y-78259408D01*
X148854075Y-78322993D01*
X148919901Y-78437007D01*
X149012993Y-78530099D01*
X149127007Y-78595925D01*
X149190590Y-78612962D01*
X148558282Y-79245269D01*
X148558282Y-79245270D01*
X148612452Y-79284626D01*
X148612451Y-79284626D01*
X148621495Y-79289234D01*
X148672292Y-79337208D01*
X148689087Y-79405029D01*
X148666550Y-79471164D01*
X148621499Y-79510202D01*
X148612182Y-79514949D01*
X148440213Y-79639890D01*
X148289890Y-79790213D01*
X148164951Y-79962179D01*
X148068444Y-80151585D01*
X148002753Y-80353760D01*
X147999297Y-80375582D01*
X147969500Y-80563713D01*
X147969500Y-80776287D01*
X147970461Y-80782352D01*
X148002464Y-80984417D01*
X148002754Y-80986243D01*
X148065457Y-81179223D01*
X148068444Y-81188414D01*
X148164951Y-81377820D01*
X148289890Y-81549786D01*
X148440213Y-81700109D01*
X148612179Y-81825048D01*
X148612181Y-81825049D01*
X148612184Y-81825051D01*
X148801588Y-81921557D01*
X149003757Y-81987246D01*
X149213713Y-82020500D01*
X149213714Y-82020500D01*
X149426286Y-82020500D01*
X149426287Y-82020500D01*
X149521728Y-82005383D01*
X149591021Y-82014337D01*
X149628807Y-82040175D01*
X151013181Y-83424548D01*
X151046666Y-83485871D01*
X151049500Y-83512229D01*
X151049500Y-106695396D01*
X151040062Y-106742844D01*
X151030263Y-106766503D01*
X151030262Y-106766506D01*
X151030260Y-106766511D01*
X150999500Y-106921153D01*
X150999500Y-107078846D01*
X151030261Y-107233489D01*
X151030264Y-107233501D01*
X151090602Y-107379172D01*
X151090609Y-107379185D01*
X151178210Y-107510288D01*
X151178213Y-107510292D01*
X151289707Y-107621786D01*
X151289711Y-107621789D01*
X151420814Y-107709390D01*
X151420827Y-107709397D01*
X151560011Y-107767048D01*
X151566503Y-107769737D01*
X151721153Y-107800499D01*
X151721156Y-107800500D01*
X151721158Y-107800500D01*
X151878844Y-107800500D01*
X151878845Y-107800499D01*
X152033497Y-107769737D01*
X152179179Y-107709394D01*
X152310289Y-107621789D01*
X152421789Y-107510289D01*
X152509394Y-107379179D01*
X152569737Y-107233497D01*
X152600500Y-107078842D01*
X152600500Y-106921158D01*
X152600500Y-106921155D01*
X152600499Y-106921153D01*
X152569739Y-106766511D01*
X152569738Y-106766508D01*
X152569737Y-106766503D01*
X152559937Y-106742844D01*
X152550500Y-106695396D01*
X152550500Y-101331902D01*
X154049500Y-101331902D01*
X154049500Y-101568097D01*
X154086446Y-101801368D01*
X154159433Y-102025996D01*
X154240688Y-102185466D01*
X154266657Y-102236433D01*
X154405483Y-102427510D01*
X154572490Y-102594517D01*
X154763567Y-102733343D01*
X154862991Y-102784002D01*
X154974003Y-102840566D01*
X154974005Y-102840566D01*
X154974008Y-102840568D01*
X155053849Y-102866510D01*
X155198631Y-102913553D01*
X155431903Y-102950500D01*
X155431908Y-102950500D01*
X155668097Y-102950500D01*
X155901368Y-102913553D01*
X156125992Y-102840568D01*
X156336433Y-102733343D01*
X156527510Y-102594517D01*
X156694517Y-102427510D01*
X156833343Y-102236433D01*
X156940568Y-102025992D01*
X157013553Y-101801368D01*
X157026470Y-101719815D01*
X157050500Y-101568097D01*
X157050500Y-101331902D01*
X157013553Y-101098631D01*
X156940566Y-100874003D01*
X156876685Y-100748631D01*
X156833343Y-100663567D01*
X156694517Y-100472490D01*
X156527510Y-100305483D01*
X156336433Y-100166657D01*
X156125996Y-100059433D01*
X155901368Y-99986446D01*
X155668097Y-99949500D01*
X155668092Y-99949500D01*
X155431908Y-99949500D01*
X155431903Y-99949500D01*
X155198631Y-99986446D01*
X154974003Y-100059433D01*
X154763566Y-100166657D01*
X154714485Y-100202317D01*
X154572490Y-100305483D01*
X154572488Y-100305485D01*
X154572487Y-100305485D01*
X154405485Y-100472487D01*
X154405485Y-100472488D01*
X154405483Y-100472490D01*
X154368053Y-100524008D01*
X154266657Y-100663566D01*
X154159433Y-100874003D01*
X154086446Y-101098631D01*
X154049500Y-101331902D01*
X152550500Y-101331902D01*
X152550500Y-96831947D01*
X154050000Y-96831947D01*
X154050000Y-97068052D01*
X154086934Y-97301247D01*
X154159897Y-97525802D01*
X154267087Y-97736174D01*
X154327338Y-97819104D01*
X154327340Y-97819105D01*
X155026212Y-97120233D01*
X155037482Y-97162292D01*
X155109890Y-97287708D01*
X155212292Y-97390110D01*
X155337708Y-97462518D01*
X155379765Y-97473787D01*
X154680893Y-98172658D01*
X154763828Y-98232914D01*
X154974197Y-98340102D01*
X155198752Y-98413065D01*
X155198751Y-98413065D01*
X155431948Y-98450000D01*
X155668052Y-98450000D01*
X155901247Y-98413065D01*
X156125802Y-98340102D01*
X156336163Y-98232918D01*
X156336169Y-98232914D01*
X156419104Y-98172658D01*
X156419105Y-98172658D01*
X155720233Y-97473787D01*
X155762292Y-97462518D01*
X155887708Y-97390110D01*
X155990110Y-97287708D01*
X156062518Y-97162292D01*
X156073787Y-97120234D01*
X156772658Y-97819105D01*
X156772658Y-97819104D01*
X156832914Y-97736169D01*
X156832918Y-97736163D01*
X156940102Y-97525802D01*
X157013065Y-97301247D01*
X157050000Y-97068052D01*
X157050000Y-96831947D01*
X157013065Y-96598752D01*
X156940102Y-96374197D01*
X156832914Y-96163828D01*
X156772658Y-96080894D01*
X156772658Y-96080893D01*
X156073787Y-96779765D01*
X156062518Y-96737708D01*
X155990110Y-96612292D01*
X155887708Y-96509890D01*
X155762292Y-96437482D01*
X155720234Y-96426212D01*
X156419105Y-95727340D01*
X156419104Y-95727338D01*
X156336174Y-95667087D01*
X156125802Y-95559897D01*
X155901247Y-95486934D01*
X155901248Y-95486934D01*
X155668052Y-95450000D01*
X155431948Y-95450000D01*
X155198752Y-95486934D01*
X154974197Y-95559897D01*
X154763830Y-95667084D01*
X154680894Y-95727340D01*
X155379766Y-96426212D01*
X155337708Y-96437482D01*
X155212292Y-96509890D01*
X155109890Y-96612292D01*
X155037482Y-96737708D01*
X155026212Y-96779766D01*
X154327340Y-96080894D01*
X154267084Y-96163830D01*
X154159897Y-96374197D01*
X154086934Y-96598752D01*
X154050000Y-96831947D01*
X152550500Y-96831947D01*
X152550500Y-83076081D01*
X152544763Y-83047242D01*
X152544763Y-83047240D01*
X152521660Y-82931095D01*
X152521659Y-82931088D01*
X152467408Y-82800117D01*
X152465764Y-82795522D01*
X152382954Y-82671588D01*
X152382953Y-82671587D01*
X152382951Y-82671584D01*
X152278416Y-82567049D01*
X151487243Y-81775876D01*
X150690175Y-80978807D01*
X150656690Y-80917484D01*
X150655383Y-80871728D01*
X150669539Y-80782352D01*
X150670500Y-80776287D01*
X150670500Y-80563713D01*
X150637246Y-80353757D01*
X150571557Y-80151588D01*
X150475051Y-79962184D01*
X150475049Y-79962181D01*
X150475048Y-79962179D01*
X150350109Y-79790213D01*
X150199786Y-79639890D01*
X150027817Y-79514949D01*
X150018504Y-79510204D01*
X149967707Y-79462230D01*
X149950912Y-79394409D01*
X149973449Y-79328274D01*
X150018507Y-79289232D01*
X150027555Y-79284622D01*
X150081716Y-79245270D01*
X150081717Y-79245270D01*
X149449408Y-78612962D01*
X149512993Y-78595925D01*
X149627007Y-78530099D01*
X149720099Y-78437007D01*
X149785925Y-78322993D01*
X149802962Y-78259408D01*
X150435270Y-78891717D01*
X150435270Y-78891716D01*
X150474622Y-78837554D01*
X150571095Y-78648217D01*
X150636757Y-78446130D01*
X150636757Y-78446127D01*
X150670000Y-78236246D01*
X150670000Y-78023753D01*
X150636757Y-77813872D01*
X150636757Y-77813869D01*
X150571095Y-77611782D01*
X150474624Y-77422449D01*
X150435270Y-77368282D01*
X150435269Y-77368282D01*
X149802962Y-78000590D01*
X149785925Y-77937007D01*
X149720099Y-77822993D01*
X149627007Y-77729901D01*
X149512993Y-77664075D01*
X149449409Y-77647037D01*
X150081716Y-77014728D01*
X150027547Y-76975373D01*
X150027547Y-76975372D01*
X150018500Y-76970763D01*
X149967706Y-76922788D01*
X149950912Y-76854966D01*
X149973451Y-76788832D01*
X150018508Y-76749793D01*
X150027816Y-76745051D01*
X150123700Y-76675388D01*
X150199786Y-76620109D01*
X150199788Y-76620106D01*
X150199792Y-76620104D01*
X150350104Y-76469792D01*
X150350106Y-76469788D01*
X150350109Y-76469786D01*
X150475048Y-76297820D01*
X150475047Y-76297820D01*
X150475051Y-76297816D01*
X150571557Y-76108412D01*
X150637246Y-75906243D01*
X150670500Y-75696287D01*
X150670500Y-75483713D01*
X150637246Y-75273757D01*
X150571557Y-75071588D01*
X150475051Y-74882184D01*
X150475049Y-74882181D01*
X150475048Y-74882179D01*
X150350109Y-74710213D01*
X150236569Y-74596673D01*
X150203084Y-74535350D01*
X150208068Y-74465658D01*
X150249940Y-74409725D01*
X150280915Y-74392810D01*
X150412331Y-74343796D01*
X150527546Y-74257546D01*
X150613796Y-74142331D01*
X150664091Y-74007483D01*
X150670500Y-73947873D01*
X150670499Y-72152128D01*
X150664091Y-72092517D01*
X150653917Y-72065240D01*
X150613797Y-71957671D01*
X150613793Y-71957664D01*
X150527547Y-71842455D01*
X150527544Y-71842452D01*
X150412335Y-71756206D01*
X150412328Y-71756202D01*
X150277482Y-71705908D01*
X150277483Y-71705908D01*
X150217883Y-71699501D01*
X150217881Y-71699500D01*
X150217873Y-71699500D01*
X150217864Y-71699500D01*
X148422129Y-71699500D01*
X148422123Y-71699501D01*
X148362516Y-71705908D01*
X148227671Y-71756202D01*
X148227664Y-71756206D01*
X148112455Y-71842452D01*
X148112452Y-71842455D01*
X148026206Y-71957664D01*
X148026202Y-71957671D01*
X147975908Y-72092517D01*
X147969501Y-72152116D01*
X147969501Y-72152123D01*
X147969500Y-72152135D01*
X146050500Y-72152135D01*
X146050500Y-70826079D01*
X146021659Y-70681092D01*
X146021658Y-70681088D01*
X146021658Y-70681087D01*
X146006505Y-70644505D01*
X145965087Y-70544511D01*
X145965080Y-70544498D01*
X145882952Y-70421585D01*
X145836804Y-70375437D01*
X145778416Y-70317049D01*
X145146072Y-69684705D01*
X145119191Y-69644473D01*
X145109397Y-69620828D01*
X145109396Y-69620826D01*
X145109394Y-69620821D01*
X145080324Y-69577315D01*
X145021789Y-69489710D01*
X144910292Y-69378213D01*
X144910288Y-69378210D01*
X144779185Y-69290609D01*
X144779172Y-69290602D01*
X144633501Y-69230264D01*
X144633489Y-69230261D01*
X144478845Y-69199500D01*
X144478842Y-69199500D01*
X144321158Y-69199500D01*
X144321155Y-69199500D01*
X144166510Y-69230261D01*
X144166498Y-69230264D01*
X144020827Y-69290602D01*
X144020814Y-69290609D01*
X143889711Y-69378210D01*
X143889707Y-69378213D01*
X143778213Y-69489707D01*
X143778210Y-69489711D01*
X143690609Y-69620814D01*
X143690602Y-69620827D01*
X143630264Y-69766498D01*
X143630261Y-69766510D01*
X143599500Y-69921153D01*
X142882520Y-69921153D01*
X142746072Y-69784705D01*
X142719191Y-69744473D01*
X142709397Y-69720828D01*
X142709396Y-69720826D01*
X142709394Y-69720821D01*
X142642581Y-69620828D01*
X142621789Y-69589710D01*
X142510292Y-69478213D01*
X142510288Y-69478210D01*
X142379185Y-69390609D01*
X142379172Y-69390602D01*
X142233501Y-69330264D01*
X142233489Y-69330261D01*
X142078845Y-69299500D01*
X142078842Y-69299500D01*
X141921158Y-69299500D01*
X141921155Y-69299500D01*
X141766510Y-69330261D01*
X141766498Y-69330264D01*
X141620827Y-69390602D01*
X141620814Y-69390609D01*
X141489711Y-69478210D01*
X141489707Y-69478213D01*
X141378213Y-69589707D01*
X141378210Y-69589711D01*
X141290609Y-69720814D01*
X141290602Y-69720827D01*
X141230264Y-69866498D01*
X141230261Y-69866510D01*
X141199500Y-70021153D01*
X141199500Y-70178846D01*
X141230261Y-70333489D01*
X141232031Y-70339324D01*
X141229921Y-70339963D01*
X141230067Y-70341321D01*
X141235470Y-70351215D01*
X141233737Y-70375437D01*
X141236335Y-70399582D01*
X141231290Y-70409662D01*
X141230486Y-70420906D01*
X141215934Y-70440345D01*
X141205065Y-70462063D01*
X141195369Y-70467816D01*
X141188615Y-70476840D01*
X141165864Y-70485325D01*
X141144979Y-70497720D01*
X141133712Y-70497318D01*
X141123151Y-70501258D01*
X141099420Y-70496096D01*
X141075153Y-70495231D01*
X141064122Y-70488417D01*
X141054878Y-70486407D01*
X141026624Y-70465256D01*
X140978417Y-70417050D01*
X140846072Y-70284705D01*
X140819191Y-70244473D01*
X140809397Y-70220828D01*
X140809396Y-70220826D01*
X140809394Y-70220821D01*
X140780324Y-70177315D01*
X140721789Y-70089710D01*
X140610292Y-69978213D01*
X140610288Y-69978210D01*
X140479185Y-69890609D01*
X140479172Y-69890602D01*
X140333501Y-69830264D01*
X140333489Y-69830261D01*
X140178845Y-69799500D01*
X140178842Y-69799500D01*
X140021158Y-69799500D01*
X140021155Y-69799500D01*
X139866510Y-69830261D01*
X139866498Y-69830264D01*
X139720827Y-69890602D01*
X139720814Y-69890609D01*
X139589711Y-69978210D01*
X139589707Y-69978213D01*
X139478213Y-70089707D01*
X139478210Y-70089711D01*
X139390609Y-70220814D01*
X139390602Y-70220827D01*
X139330264Y-70366498D01*
X139330261Y-70366510D01*
X139299500Y-70521153D01*
X134840213Y-70521153D01*
X138582951Y-66778416D01*
X138609315Y-66738959D01*
X138665084Y-66655495D01*
X138721658Y-66518913D01*
X138750500Y-66373918D01*
X138750500Y-63481947D01*
X147550000Y-63481947D01*
X147550000Y-63718052D01*
X147586934Y-63951247D01*
X147659897Y-64175802D01*
X147767087Y-64386174D01*
X147827338Y-64469104D01*
X147827340Y-64469105D01*
X148526212Y-63770233D01*
X148537482Y-63812292D01*
X148609890Y-63937708D01*
X148712292Y-64040110D01*
X148837708Y-64112518D01*
X148879765Y-64123787D01*
X148180893Y-64822658D01*
X148263828Y-64882914D01*
X148474197Y-64990102D01*
X148698752Y-65063065D01*
X148698751Y-65063065D01*
X148931948Y-65100000D01*
X149168052Y-65100000D01*
X149401247Y-65063065D01*
X149625802Y-64990102D01*
X149836163Y-64882918D01*
X149836169Y-64882914D01*
X149919104Y-64822658D01*
X149919105Y-64822658D01*
X149220233Y-64123787D01*
X149262292Y-64112518D01*
X149387708Y-64040110D01*
X149490110Y-63937708D01*
X149562518Y-63812292D01*
X149573787Y-63770234D01*
X150272658Y-64469105D01*
X150272658Y-64469104D01*
X150332914Y-64386169D01*
X150332918Y-64386163D01*
X150440102Y-64175802D01*
X150513065Y-63951247D01*
X150550000Y-63718052D01*
X150550000Y-63481947D01*
X154050000Y-63481947D01*
X154050000Y-63718052D01*
X154086934Y-63951247D01*
X154159897Y-64175802D01*
X154267087Y-64386174D01*
X154327338Y-64469104D01*
X154327340Y-64469105D01*
X155026212Y-63770233D01*
X155037482Y-63812292D01*
X155109890Y-63937708D01*
X155212292Y-64040110D01*
X155337708Y-64112518D01*
X155379765Y-64123787D01*
X154680893Y-64822658D01*
X154763828Y-64882914D01*
X154974197Y-64990102D01*
X155198752Y-65063065D01*
X155198751Y-65063065D01*
X155431948Y-65100000D01*
X155668052Y-65100000D01*
X155901247Y-65063065D01*
X156125802Y-64990102D01*
X156336163Y-64882918D01*
X156336169Y-64882914D01*
X156419104Y-64822658D01*
X156419105Y-64822658D01*
X155720233Y-64123787D01*
X155762292Y-64112518D01*
X155887708Y-64040110D01*
X155990110Y-63937708D01*
X156062518Y-63812292D01*
X156073787Y-63770234D01*
X156772658Y-64469105D01*
X156772658Y-64469104D01*
X156832914Y-64386169D01*
X156832918Y-64386163D01*
X156940102Y-64175802D01*
X157013065Y-63951247D01*
X157050000Y-63718052D01*
X157050000Y-63481947D01*
X157013065Y-63248752D01*
X156940102Y-63024197D01*
X156832914Y-62813828D01*
X156772658Y-62730894D01*
X156772658Y-62730893D01*
X156073787Y-63429765D01*
X156062518Y-63387708D01*
X155990110Y-63262292D01*
X155887708Y-63159890D01*
X155762292Y-63087482D01*
X155720234Y-63076212D01*
X156419105Y-62377340D01*
X156419104Y-62377338D01*
X156336174Y-62317087D01*
X156125802Y-62209897D01*
X155901247Y-62136934D01*
X155901248Y-62136934D01*
X155668052Y-62100000D01*
X155431948Y-62100000D01*
X155198752Y-62136934D01*
X154974197Y-62209897D01*
X154763830Y-62317084D01*
X154680894Y-62377340D01*
X155379766Y-63076212D01*
X155337708Y-63087482D01*
X155212292Y-63159890D01*
X155109890Y-63262292D01*
X155037482Y-63387708D01*
X155026212Y-63429766D01*
X154327340Y-62730894D01*
X154267084Y-62813830D01*
X154159897Y-63024197D01*
X154086934Y-63248752D01*
X154050000Y-63481947D01*
X150550000Y-63481947D01*
X150513065Y-63248752D01*
X150440102Y-63024197D01*
X150332914Y-62813828D01*
X150272658Y-62730894D01*
X150272658Y-62730893D01*
X149573787Y-63429765D01*
X149562518Y-63387708D01*
X149490110Y-63262292D01*
X149387708Y-63159890D01*
X149262292Y-63087482D01*
X149220234Y-63076212D01*
X149919105Y-62377340D01*
X149919104Y-62377339D01*
X149836174Y-62317087D01*
X149625802Y-62209897D01*
X149401247Y-62136934D01*
X149401248Y-62136934D01*
X149168052Y-62100000D01*
X148931948Y-62100000D01*
X148698752Y-62136934D01*
X148474197Y-62209897D01*
X148263830Y-62317084D01*
X148180894Y-62377340D01*
X148879766Y-63076212D01*
X148837708Y-63087482D01*
X148712292Y-63159890D01*
X148609890Y-63262292D01*
X148537482Y-63387708D01*
X148526212Y-63429766D01*
X147827340Y-62730894D01*
X147767084Y-62813830D01*
X147659897Y-63024197D01*
X147586934Y-63248752D01*
X147550000Y-63481947D01*
X138750500Y-63481947D01*
X138750500Y-62762230D01*
X138770185Y-62695191D01*
X138786819Y-62674549D01*
X139074549Y-62386819D01*
X139135872Y-62353334D01*
X139162230Y-62350500D01*
X141973920Y-62350500D01*
X142071462Y-62331096D01*
X142118913Y-62321658D01*
X142255495Y-62265084D01*
X142304729Y-62232186D01*
X142378416Y-62182952D01*
X144715297Y-59846069D01*
X144755524Y-59819191D01*
X144779179Y-59809394D01*
X144910289Y-59721789D01*
X145021789Y-59610289D01*
X145109394Y-59479179D01*
X145169737Y-59333497D01*
X145200500Y-59178842D01*
X145200500Y-59021158D01*
X145200500Y-59021155D01*
X145196536Y-59001228D01*
X145196536Y-59001227D01*
X145192692Y-58981902D01*
X147549500Y-58981902D01*
X147549500Y-59218097D01*
X147586446Y-59451368D01*
X147659433Y-59675996D01*
X147732395Y-59819190D01*
X147766657Y-59886433D01*
X147905483Y-60077510D01*
X148072490Y-60244517D01*
X148263567Y-60383343D01*
X148362991Y-60434002D01*
X148474003Y-60490566D01*
X148474005Y-60490566D01*
X148474008Y-60490568D01*
X148594412Y-60529689D01*
X148698631Y-60563553D01*
X148931903Y-60600500D01*
X148931908Y-60600500D01*
X149168097Y-60600500D01*
X149401368Y-60563553D01*
X149625992Y-60490568D01*
X149836433Y-60383343D01*
X150027510Y-60244517D01*
X150194517Y-60077510D01*
X150333343Y-59886433D01*
X150440568Y-59675992D01*
X150513553Y-59451368D01*
X150550500Y-59218097D01*
X150550500Y-58981902D01*
X154049500Y-58981902D01*
X154049500Y-59218097D01*
X154086446Y-59451368D01*
X154159433Y-59675996D01*
X154232395Y-59819190D01*
X154266657Y-59886433D01*
X154405483Y-60077510D01*
X154572490Y-60244517D01*
X154763567Y-60383343D01*
X154862991Y-60434002D01*
X154974003Y-60490566D01*
X154974005Y-60490566D01*
X154974008Y-60490568D01*
X155094412Y-60529689D01*
X155198631Y-60563553D01*
X155431903Y-60600500D01*
X155431908Y-60600500D01*
X155668097Y-60600500D01*
X155901368Y-60563553D01*
X156125992Y-60490568D01*
X156336433Y-60383343D01*
X156527510Y-60244517D01*
X156694517Y-60077510D01*
X156833343Y-59886433D01*
X156940568Y-59675992D01*
X157013553Y-59451368D01*
X157050500Y-59218097D01*
X157050500Y-58981902D01*
X157013553Y-58748631D01*
X156979689Y-58644412D01*
X156940568Y-58524008D01*
X156940566Y-58524005D01*
X156940566Y-58524003D01*
X156872594Y-58390602D01*
X156833343Y-58313567D01*
X156694517Y-58122490D01*
X156527510Y-57955483D01*
X156336433Y-57816657D01*
X156125996Y-57709433D01*
X155901368Y-57636446D01*
X155668097Y-57599500D01*
X155668092Y-57599500D01*
X155431908Y-57599500D01*
X155431903Y-57599500D01*
X155198631Y-57636446D01*
X154974003Y-57709433D01*
X154763566Y-57816657D01*
X154654550Y-57895862D01*
X154572490Y-57955483D01*
X154572488Y-57955485D01*
X154572487Y-57955485D01*
X154405485Y-58122487D01*
X154405485Y-58122488D01*
X154405483Y-58122490D01*
X154345862Y-58204550D01*
X154266657Y-58313566D01*
X154159433Y-58524003D01*
X154086446Y-58748631D01*
X154049500Y-58981902D01*
X150550500Y-58981902D01*
X150513553Y-58748631D01*
X150479689Y-58644412D01*
X150440568Y-58524008D01*
X150440566Y-58524005D01*
X150440566Y-58524003D01*
X150372594Y-58390602D01*
X150333343Y-58313567D01*
X150194517Y-58122490D01*
X150027510Y-57955483D01*
X149836433Y-57816657D01*
X149625996Y-57709433D01*
X149401368Y-57636446D01*
X149168097Y-57599500D01*
X149168092Y-57599500D01*
X148931908Y-57599500D01*
X148931903Y-57599500D01*
X148698631Y-57636446D01*
X148474003Y-57709433D01*
X148263566Y-57816657D01*
X148154550Y-57895862D01*
X148072490Y-57955483D01*
X148072488Y-57955485D01*
X148072487Y-57955485D01*
X147905485Y-58122487D01*
X147905485Y-58122488D01*
X147905483Y-58122490D01*
X147845862Y-58204550D01*
X147766657Y-58313566D01*
X147659433Y-58524003D01*
X147586446Y-58748631D01*
X147549500Y-58981902D01*
X145192692Y-58981902D01*
X145169738Y-58866510D01*
X145169737Y-58866503D01*
X145135855Y-58784703D01*
X145109397Y-58720827D01*
X145109390Y-58720814D01*
X145021789Y-58589711D01*
X145021786Y-58589707D01*
X144910292Y-58478213D01*
X144910288Y-58478210D01*
X144779185Y-58390609D01*
X144779172Y-58390602D01*
X144633501Y-58330264D01*
X144633489Y-58330261D01*
X144478845Y-58299500D01*
X144478842Y-58299500D01*
X144321158Y-58299500D01*
X144321155Y-58299500D01*
X144166510Y-58330261D01*
X144166498Y-58330264D01*
X144020827Y-58390602D01*
X144020814Y-58390609D01*
X143889711Y-58478210D01*
X143889707Y-58478213D01*
X143778213Y-58589707D01*
X143778207Y-58589715D01*
X143690607Y-58720818D01*
X143690606Y-58720819D01*
X143680805Y-58744480D01*
X143653927Y-58784703D01*
X141625451Y-60813181D01*
X141564128Y-60846666D01*
X141537770Y-60849500D01*
X138726080Y-60849500D01*
X138581092Y-60878340D01*
X138581086Y-60878342D01*
X138444508Y-60934914D01*
X138444496Y-60934921D01*
X138395269Y-60967813D01*
X138321588Y-61017044D01*
X138321580Y-61017050D01*
X137417049Y-61921582D01*
X137417049Y-61921583D01*
X137394390Y-61955495D01*
X137334914Y-62044508D01*
X137278343Y-62181082D01*
X137278340Y-62181092D01*
X137249500Y-62326079D01*
X137249500Y-65937769D01*
X137229815Y-66004808D01*
X137213181Y-66025450D01*
X132617052Y-70621578D01*
X132617049Y-70621581D01*
X132577289Y-70681088D01*
X132534915Y-70744504D01*
X132534913Y-70744509D01*
X132528687Y-70759540D01*
X132517231Y-70780972D01*
X132490611Y-70820812D01*
X132490602Y-70820828D01*
X132430264Y-70966498D01*
X132430261Y-70966510D01*
X132399500Y-71121153D01*
X119202713Y-71121153D01*
X121987373Y-68336492D01*
X122048694Y-68303009D01*
X122103251Y-68306800D01*
X122104018Y-68303608D01*
X122108745Y-68304742D01*
X122108757Y-68304746D01*
X122318713Y-68338000D01*
X122318714Y-68338000D01*
X122531286Y-68338000D01*
X122531287Y-68338000D01*
X122741243Y-68304746D01*
X122943412Y-68239057D01*
X123132816Y-68142551D01*
X123154789Y-68126586D01*
X123304786Y-68017609D01*
X123304788Y-68017606D01*
X123304792Y-68017604D01*
X123455104Y-67867292D01*
X123455106Y-67867288D01*
X123455109Y-67867286D01*
X123580048Y-67695320D01*
X123580047Y-67695320D01*
X123580051Y-67695316D01*
X123676557Y-67505912D01*
X123742246Y-67303743D01*
X123775500Y-67093787D01*
X123775500Y-66581213D01*
X123742246Y-66371257D01*
X123676557Y-66169088D01*
X123580051Y-65979684D01*
X123580049Y-65979681D01*
X123580048Y-65979679D01*
X123455109Y-65807713D01*
X123304786Y-65657390D01*
X123132820Y-65532451D01*
X122943414Y-65435944D01*
X122943413Y-65435943D01*
X122943412Y-65435943D01*
X122741243Y-65370254D01*
X122741241Y-65370253D01*
X122741240Y-65370253D01*
X122579957Y-65344708D01*
X122531287Y-65337000D01*
X122318713Y-65337000D01*
X122270042Y-65344708D01*
X122108760Y-65370253D01*
X121906585Y-65435944D01*
X121717179Y-65532451D01*
X121545213Y-65657390D01*
X121394890Y-65807713D01*
X121269951Y-65979679D01*
X121173444Y-66169085D01*
X121107753Y-66371260D01*
X121074500Y-66581213D01*
X121074500Y-67075269D01*
X121054815Y-67142308D01*
X121038181Y-67162950D01*
X115917050Y-72284080D01*
X115917044Y-72284088D01*
X115867812Y-72357768D01*
X115867813Y-72357769D01*
X115834921Y-72406996D01*
X115834914Y-72407008D01*
X115778342Y-72543586D01*
X115778340Y-72543592D01*
X115749500Y-72688579D01*
X115749500Y-85937770D01*
X115729815Y-86004809D01*
X115713181Y-86025451D01*
X113715451Y-88023181D01*
X113654128Y-88056666D01*
X113627770Y-88059500D01*
X113222351Y-88059500D01*
X113155312Y-88039815D01*
X113109557Y-87987011D01*
X113099061Y-87948752D01*
X113094091Y-87902516D01*
X113043797Y-87767671D01*
X113043793Y-87767664D01*
X112957547Y-87652455D01*
X112957544Y-87652452D01*
X112842335Y-87566206D01*
X112842328Y-87566202D01*
X112707482Y-87515908D01*
X112707483Y-87515908D01*
X112647883Y-87509501D01*
X112647881Y-87509500D01*
X112647873Y-87509500D01*
X112647864Y-87509500D01*
X110952129Y-87509500D01*
X110952123Y-87509501D01*
X110892516Y-87515908D01*
X110757671Y-87566202D01*
X110757664Y-87566206D01*
X110642455Y-87652452D01*
X110642452Y-87652455D01*
X110556206Y-87767664D01*
X110556202Y-87767671D01*
X110505910Y-87902513D01*
X110505909Y-87902517D01*
X110500937Y-87948757D01*
X110474201Y-88013306D01*
X110416809Y-88053154D01*
X110377649Y-88059500D01*
X108336403Y-88059500D01*
X108312210Y-88057117D01*
X108273919Y-88049500D01*
X108273918Y-88049500D01*
X106862229Y-88049500D01*
X106795190Y-88029815D01*
X106774548Y-88013181D01*
X106179430Y-87418063D01*
X106145945Y-87356740D01*
X106144638Y-87310984D01*
X106175500Y-87116129D01*
X106175500Y-86883870D01*
X106147127Y-86704735D01*
X106139169Y-86654486D01*
X106067400Y-86433604D01*
X106067398Y-86433601D01*
X106067398Y-86433599D01*
X105961960Y-86226668D01*
X105825449Y-86038776D01*
X105661224Y-85874551D01*
X105473331Y-85738039D01*
X105266400Y-85632601D01*
X105045514Y-85560831D01*
X104816129Y-85524500D01*
X104816124Y-85524500D01*
X104583876Y-85524500D01*
X104583871Y-85524500D01*
X104354485Y-85560831D01*
X104133599Y-85632601D01*
X103926668Y-85738039D01*
X103738773Y-85874553D01*
X103574553Y-86038773D01*
X103438039Y-86226668D01*
X103332601Y-86433599D01*
X103260831Y-86654485D01*
X103224500Y-86883870D01*
X103224500Y-87116130D01*
X103255361Y-87310984D01*
X103246406Y-87380277D01*
X103220569Y-87418062D01*
X102911681Y-87726951D01*
X102850358Y-87760436D01*
X102780667Y-87755452D01*
X102724733Y-87713581D01*
X102700316Y-87648116D01*
X102700000Y-87639270D01*
X102700000Y-82867503D01*
X102719685Y-82800464D01*
X102772489Y-82754709D01*
X102840183Y-82744564D01*
X102885266Y-82750500D01*
X102885268Y-82750500D01*
X106814727Y-82750500D01*
X106814734Y-82750500D01*
X107042238Y-82720548D01*
X107263887Y-82661158D01*
X107475888Y-82573344D01*
X107674612Y-82458611D01*
X107856661Y-82318919D01*
X107856665Y-82318914D01*
X107856670Y-82318911D01*
X108018911Y-82156670D01*
X108018914Y-82156665D01*
X108018919Y-82156661D01*
X108158611Y-81974612D01*
X108273344Y-81775888D01*
X108361158Y-81563887D01*
X108420548Y-81342238D01*
X108450500Y-81114734D01*
X108450500Y-80885266D01*
X108420548Y-80657762D01*
X108361158Y-80436113D01*
X108273344Y-80224112D01*
X108158611Y-80025388D01*
X108158608Y-80025385D01*
X108158607Y-80025382D01*
X108018918Y-79843338D01*
X108018911Y-79843330D01*
X107856670Y-79681089D01*
X107856661Y-79681081D01*
X107674617Y-79541392D01*
X107475890Y-79426657D01*
X107475876Y-79426650D01*
X107263887Y-79338842D01*
X107224446Y-79328274D01*
X107042238Y-79279452D01*
X107004215Y-79274446D01*
X106814741Y-79249500D01*
X106814734Y-79249500D01*
X103776443Y-79249500D01*
X103709404Y-79229815D01*
X103688762Y-79213181D01*
X102736319Y-78260738D01*
X102702834Y-78199415D01*
X102700000Y-78173057D01*
X102700000Y-74883870D01*
X103224500Y-74883870D01*
X103224500Y-75116129D01*
X103260831Y-75345514D01*
X103332601Y-75566400D01*
X103432190Y-75761851D01*
X103438039Y-75773331D01*
X103574551Y-75961224D01*
X103738776Y-76125449D01*
X103926669Y-76261961D01*
X103997038Y-76297816D01*
X104133599Y-76367398D01*
X104133601Y-76367398D01*
X104133604Y-76367400D01*
X104354486Y-76439169D01*
X104472668Y-76457886D01*
X104583871Y-76475500D01*
X104583876Y-76475500D01*
X104816129Y-76475500D01*
X104917502Y-76459443D01*
X105045514Y-76439169D01*
X105266396Y-76367400D01*
X105473331Y-76261961D01*
X105661224Y-76125449D01*
X105825449Y-75961224D01*
X105961961Y-75773331D01*
X106067400Y-75566396D01*
X106139169Y-75345514D01*
X106149632Y-75279453D01*
X106175500Y-75116129D01*
X106175500Y-74883870D01*
X106144638Y-74689015D01*
X106145339Y-74683589D01*
X106143427Y-74678462D01*
X106149769Y-74649305D01*
X106153593Y-74619721D01*
X106157424Y-74614117D01*
X106158279Y-74610190D01*
X106179426Y-74581940D01*
X106274549Y-74486817D01*
X106335872Y-74453334D01*
X106362229Y-74450500D01*
X111837770Y-74450500D01*
X111904809Y-74470185D01*
X111925451Y-74486819D01*
X112076951Y-74638319D01*
X112110436Y-74699642D01*
X112105452Y-74769334D01*
X112063580Y-74825267D01*
X111998116Y-74849684D01*
X111989270Y-74850000D01*
X111680000Y-74850000D01*
X111680000Y-75734134D01*
X111677617Y-75758326D01*
X111674500Y-75773995D01*
X111674500Y-75814170D01*
X111660255Y-75799925D01*
X111574745Y-75750556D01*
X111479370Y-75725000D01*
X111380630Y-75725000D01*
X111285255Y-75750556D01*
X111199745Y-75799925D01*
X111180000Y-75819670D01*
X111180000Y-74850000D01*
X110857155Y-74850000D01*
X110797627Y-74856401D01*
X110797620Y-74856403D01*
X110662913Y-74906645D01*
X110662906Y-74906649D01*
X110547812Y-74992809D01*
X110547809Y-74992812D01*
X110461649Y-75107906D01*
X110461645Y-75107913D01*
X110411403Y-75242620D01*
X110411401Y-75242627D01*
X110405000Y-75302155D01*
X110405000Y-75850000D01*
X111149670Y-75850000D01*
X111129925Y-75869745D01*
X111080556Y-75955255D01*
X111055000Y-76050630D01*
X111055000Y-76149370D01*
X111080556Y-76244745D01*
X111129925Y-76330255D01*
X111149670Y-76350000D01*
X110405000Y-76350000D01*
X110405000Y-76897844D01*
X110411401Y-76957372D01*
X110411403Y-76957379D01*
X110461645Y-77092086D01*
X110461649Y-77092093D01*
X110547809Y-77207187D01*
X110547812Y-77207190D01*
X110662906Y-77293350D01*
X110662913Y-77293354D01*
X110797620Y-77343596D01*
X110797627Y-77343598D01*
X110857155Y-77349999D01*
X110857172Y-77350000D01*
X111180000Y-77350000D01*
X111180000Y-76380330D01*
X111199745Y-76400075D01*
X111285255Y-76449444D01*
X111380630Y-76475000D01*
X111479370Y-76475000D01*
X111574745Y-76449444D01*
X111660255Y-76400075D01*
X111674500Y-76385830D01*
X111674500Y-76426002D01*
X111677617Y-76441671D01*
X111680000Y-76465865D01*
X111680000Y-77350000D01*
X112002828Y-77350000D01*
X112002844Y-77349999D01*
X112062372Y-77343598D01*
X112062376Y-77343597D01*
X112197089Y-77293352D01*
X112197896Y-77292748D01*
X112198845Y-77292393D01*
X112204876Y-77289101D01*
X112205349Y-77289967D01*
X112263360Y-77268329D01*
X112319661Y-77277451D01*
X112400873Y-77311091D01*
X112564288Y-77343596D01*
X112598992Y-77350499D01*
X112598996Y-77350500D01*
X112598997Y-77350500D01*
X112801004Y-77350500D01*
X112801005Y-77350499D01*
X112999127Y-77311091D01*
X113048048Y-77290826D01*
X113117516Y-77283358D01*
X113179995Y-77314632D01*
X113215648Y-77374721D01*
X113219500Y-77405388D01*
X113219500Y-78657770D01*
X113199815Y-78724809D01*
X113183181Y-78745451D01*
X112065105Y-79863526D01*
X112003782Y-79897011D01*
X111958026Y-79898318D01*
X111902352Y-79889500D01*
X111697648Y-79889500D01*
X111673329Y-79893351D01*
X111495465Y-79921522D01*
X111300776Y-79984781D01*
X111118386Y-80077715D01*
X110952786Y-80198028D01*
X110808028Y-80342786D01*
X110687715Y-80508386D01*
X110594781Y-80690776D01*
X110531522Y-80885465D01*
X110499500Y-81087648D01*
X110499500Y-81292351D01*
X110531522Y-81494534D01*
X110594781Y-81689223D01*
X110638934Y-81775876D01*
X110663988Y-81825048D01*
X110687715Y-81871613D01*
X110808028Y-82037213D01*
X110952786Y-82181971D01*
X111107749Y-82294556D01*
X111118390Y-82302287D01*
X111234607Y-82361503D01*
X111300776Y-82395218D01*
X111300778Y-82395218D01*
X111300781Y-82395220D01*
X111405137Y-82429127D01*
X111495465Y-82458477D01*
X111596557Y-82474488D01*
X111697648Y-82490500D01*
X111697649Y-82490500D01*
X111902351Y-82490500D01*
X111902352Y-82490500D01*
X112104534Y-82458477D01*
X112299219Y-82395220D01*
X112481610Y-82302287D01*
X112574590Y-82234732D01*
X112647213Y-82181971D01*
X112647215Y-82181968D01*
X112647219Y-82181966D01*
X112791966Y-82037219D01*
X112791968Y-82037215D01*
X112791971Y-82037213D01*
X112856794Y-81947990D01*
X112912287Y-81871610D01*
X113005220Y-81689219D01*
X113068477Y-81494534D01*
X113100500Y-81292352D01*
X113100500Y-81087648D01*
X113091681Y-81031971D01*
X113100635Y-80962679D01*
X113126470Y-80924895D01*
X114552951Y-79498416D01*
X114635084Y-79375495D01*
X114691658Y-79238913D01*
X114705418Y-79169737D01*
X114717421Y-79109397D01*
X114720500Y-79093919D01*
X114720500Y-77076138D01*
X114740185Y-77009099D01*
X114756822Y-76988454D01*
X114766558Y-76978718D01*
X114878782Y-76810762D01*
X114878782Y-76810761D01*
X114878786Y-76810756D01*
X114956091Y-76624127D01*
X114995500Y-76426003D01*
X114995500Y-75773997D01*
X114956091Y-75575873D01*
X114878786Y-75389244D01*
X114878784Y-75389241D01*
X114878782Y-75389237D01*
X114766559Y-75221283D01*
X114766558Y-75221282D01*
X114623718Y-75078442D01*
X114621231Y-75076780D01*
X114619114Y-75074663D01*
X114619003Y-75074572D01*
X114619011Y-75074561D01*
X114587015Y-75042565D01*
X114552952Y-74991584D01*
X113631745Y-74070377D01*
X112678421Y-73117052D01*
X112678414Y-73117046D01*
X112604729Y-73067812D01*
X112604729Y-73067813D01*
X112555491Y-73034913D01*
X112418917Y-72978343D01*
X112418907Y-72978340D01*
X112273920Y-72949500D01*
X112273918Y-72949500D01*
X105926082Y-72949500D01*
X105926079Y-72949500D01*
X105916237Y-72951458D01*
X105916232Y-72951459D01*
X105781095Y-72978338D01*
X105781095Y-72978339D01*
X105781092Y-72978340D01*
X105781088Y-72978341D01*
X105701080Y-73011481D01*
X105701078Y-73011481D01*
X105644505Y-73034915D01*
X105562372Y-73089795D01*
X105521585Y-73117047D01*
X105521581Y-73117050D01*
X105118062Y-73520569D01*
X105056739Y-73554054D01*
X105010984Y-73555361D01*
X104816131Y-73524500D01*
X104816124Y-73524500D01*
X104583876Y-73524500D01*
X104583871Y-73524500D01*
X104354485Y-73560831D01*
X104133599Y-73632601D01*
X103926668Y-73738039D01*
X103738773Y-73874553D01*
X103574553Y-74038773D01*
X103438039Y-74226668D01*
X103332601Y-74433599D01*
X103260831Y-74654485D01*
X103224500Y-74883870D01*
X102700000Y-74883870D01*
X102700000Y-51581253D01*
X121075000Y-51581253D01*
X121075000Y-51587500D01*
X121991988Y-51587500D01*
X121959075Y-51644507D01*
X121925000Y-51771674D01*
X121925000Y-51903326D01*
X121959075Y-52030493D01*
X121991988Y-52087500D01*
X121075000Y-52087500D01*
X121075000Y-52093746D01*
X121108242Y-52303627D01*
X121108242Y-52303630D01*
X121173904Y-52505717D01*
X121270379Y-52695057D01*
X121395272Y-52866959D01*
X121395276Y-52866964D01*
X121545535Y-53017223D01*
X121545540Y-53017227D01*
X121717442Y-53142120D01*
X121906782Y-53238595D01*
X122108871Y-53304257D01*
X122175000Y-53314731D01*
X122175000Y-52270512D01*
X122232007Y-52303425D01*
X122359174Y-52337500D01*
X122490826Y-52337500D01*
X122617993Y-52303425D01*
X122675000Y-52270512D01*
X122675000Y-53314730D01*
X122741126Y-53304257D01*
X122741129Y-53304257D01*
X122943217Y-53238595D01*
X123132557Y-53142120D01*
X123210969Y-53085152D01*
X123304459Y-53017227D01*
X123304464Y-53017223D01*
X123454723Y-52866964D01*
X123454727Y-52866959D01*
X123579620Y-52695057D01*
X123676095Y-52505717D01*
X123741757Y-52303630D01*
X123741757Y-52303627D01*
X123775000Y-52093746D01*
X123775000Y-52087500D01*
X122858012Y-52087500D01*
X122890925Y-52030493D01*
X122925000Y-51903326D01*
X122925000Y-51771674D01*
X122890925Y-51644507D01*
X122858012Y-51587500D01*
X123775000Y-51587500D01*
X123775000Y-51581253D01*
X123741757Y-51371372D01*
X123741757Y-51371369D01*
X123676095Y-51169282D01*
X123579620Y-50979942D01*
X123454727Y-50808040D01*
X123454723Y-50808035D01*
X123304464Y-50657776D01*
X123304459Y-50657772D01*
X123132557Y-50532879D01*
X122943215Y-50436403D01*
X122741124Y-50370741D01*
X122675000Y-50360268D01*
X122675000Y-51404488D01*
X122617993Y-51371575D01*
X122490826Y-51337500D01*
X122359174Y-51337500D01*
X122232007Y-51371575D01*
X122175000Y-51404488D01*
X122175000Y-50360268D01*
X122174999Y-50360268D01*
X122108875Y-50370741D01*
X121906784Y-50436403D01*
X121717442Y-50532879D01*
X121545540Y-50657772D01*
X121545535Y-50657776D01*
X121395276Y-50808035D01*
X121395272Y-50808040D01*
X121270379Y-50979942D01*
X121173904Y-51169282D01*
X121108242Y-51371369D01*
X121108242Y-51371372D01*
X121075000Y-51581253D01*
X102700000Y-51581253D01*
X102700000Y-47824500D01*
X102719685Y-47757461D01*
X102772489Y-47711706D01*
X102824000Y-47700500D01*
X154017651Y-47700500D01*
X154084690Y-47720185D01*
G37*
G04 #@! TD.AperFunction*
G04 #@! TA.AperFunction,Conductor*
G36*
X158342539Y-47720185D02*
G01*
X158388294Y-47772989D01*
X158399500Y-47824500D01*
X158399500Y-48969438D01*
X158379815Y-49036477D01*
X158327011Y-49082232D01*
X158257853Y-49092176D01*
X158194297Y-49063151D01*
X158170506Y-49035410D01*
X158113908Y-48945335D01*
X157933916Y-48719634D01*
X156615270Y-50038281D01*
X156529722Y-49920534D01*
X156379466Y-49770278D01*
X156261716Y-49684728D01*
X157580364Y-48366081D01*
X157354664Y-48186092D01*
X157050333Y-47994868D01*
X156928548Y-47936220D01*
X156876688Y-47889398D01*
X156858375Y-47821971D01*
X156879423Y-47755347D01*
X156933149Y-47710678D01*
X156982349Y-47700500D01*
X158275500Y-47700500D01*
X158342539Y-47720185D01*
G37*
G04 #@! TD.AperFunction*
M02*
