%TF.GenerationSoftware,KiCad,Pcbnew,9.0.1*%
%TF.CreationDate,2025-08-27T22:35:59+05:00*%
%TF.ProjectId,30A_home_automation_using_esp32,3330415f-686f-46d6-955f-6175746f6d61,rev?*%
%TF.SameCoordinates,Original*%
%TF.FileFunction,Drillmap*%
%TF.FilePolarity,Positive*%
%FSLAX45Y45*%
G04 Gerber Fmt 4.5, Leading zero omitted, Abs format (unit mm)*
G04 Created by KiCad (PCBNEW 9.0.1) date 2025-08-27 22:35:59*
%MOMM*%
%LPD*%
G01*
G04 APERTURE LIST*
%ADD10C,0.050000*%
%ADD11C,0.200000*%
G04 APERTURE END LIST*
D10*
X7810000Y-4720000D02*
X15890000Y-4720000D01*
X15890000Y-12030000D01*
X7810000Y-12030000D01*
X7810000Y-4720000D01*
D11*
X8068277Y-12343984D02*
X8068277Y-12143984D01*
X8068277Y-12143984D02*
X8115896Y-12143984D01*
X8115896Y-12143984D02*
X8144467Y-12153508D01*
X8144467Y-12153508D02*
X8163515Y-12172555D01*
X8163515Y-12172555D02*
X8173039Y-12191603D01*
X8173039Y-12191603D02*
X8182562Y-12229698D01*
X8182562Y-12229698D02*
X8182562Y-12258269D01*
X8182562Y-12258269D02*
X8173039Y-12296365D01*
X8173039Y-12296365D02*
X8163515Y-12315412D01*
X8163515Y-12315412D02*
X8144467Y-12334460D01*
X8144467Y-12334460D02*
X8115896Y-12343984D01*
X8115896Y-12343984D02*
X8068277Y-12343984D01*
X8268277Y-12343984D02*
X8268277Y-12210650D01*
X8268277Y-12248746D02*
X8277801Y-12229698D01*
X8277801Y-12229698D02*
X8287324Y-12220174D01*
X8287324Y-12220174D02*
X8306372Y-12210650D01*
X8306372Y-12210650D02*
X8325420Y-12210650D01*
X8392086Y-12343984D02*
X8392086Y-12210650D01*
X8392086Y-12143984D02*
X8382562Y-12153508D01*
X8382562Y-12153508D02*
X8392086Y-12163031D01*
X8392086Y-12163031D02*
X8401610Y-12153508D01*
X8401610Y-12153508D02*
X8392086Y-12143984D01*
X8392086Y-12143984D02*
X8392086Y-12163031D01*
X8515896Y-12343984D02*
X8496848Y-12334460D01*
X8496848Y-12334460D02*
X8487324Y-12315412D01*
X8487324Y-12315412D02*
X8487324Y-12143984D01*
X8620658Y-12343984D02*
X8601610Y-12334460D01*
X8601610Y-12334460D02*
X8592086Y-12315412D01*
X8592086Y-12315412D02*
X8592086Y-12143984D01*
X8849229Y-12343984D02*
X8849229Y-12143984D01*
X8849229Y-12143984D02*
X8915896Y-12286841D01*
X8915896Y-12286841D02*
X8982563Y-12143984D01*
X8982563Y-12143984D02*
X8982563Y-12343984D01*
X9163515Y-12343984D02*
X9163515Y-12239222D01*
X9163515Y-12239222D02*
X9153991Y-12220174D01*
X9153991Y-12220174D02*
X9134944Y-12210650D01*
X9134944Y-12210650D02*
X9096848Y-12210650D01*
X9096848Y-12210650D02*
X9077801Y-12220174D01*
X9163515Y-12334460D02*
X9144467Y-12343984D01*
X9144467Y-12343984D02*
X9096848Y-12343984D01*
X9096848Y-12343984D02*
X9077801Y-12334460D01*
X9077801Y-12334460D02*
X9068277Y-12315412D01*
X9068277Y-12315412D02*
X9068277Y-12296365D01*
X9068277Y-12296365D02*
X9077801Y-12277317D01*
X9077801Y-12277317D02*
X9096848Y-12267793D01*
X9096848Y-12267793D02*
X9144467Y-12267793D01*
X9144467Y-12267793D02*
X9163515Y-12258269D01*
X9258753Y-12210650D02*
X9258753Y-12410650D01*
X9258753Y-12220174D02*
X9277801Y-12210650D01*
X9277801Y-12210650D02*
X9315896Y-12210650D01*
X9315896Y-12210650D02*
X9334944Y-12220174D01*
X9334944Y-12220174D02*
X9344467Y-12229698D01*
X9344467Y-12229698D02*
X9353991Y-12248746D01*
X9353991Y-12248746D02*
X9353991Y-12305888D01*
X9353991Y-12305888D02*
X9344467Y-12324936D01*
X9344467Y-12324936D02*
X9334944Y-12334460D01*
X9334944Y-12334460D02*
X9315896Y-12343984D01*
X9315896Y-12343984D02*
X9277801Y-12343984D01*
X9277801Y-12343984D02*
X9258753Y-12334460D01*
X9439705Y-12324936D02*
X9449229Y-12334460D01*
X9449229Y-12334460D02*
X9439705Y-12343984D01*
X9439705Y-12343984D02*
X9430182Y-12334460D01*
X9430182Y-12334460D02*
X9439705Y-12324936D01*
X9439705Y-12324936D02*
X9439705Y-12343984D01*
X9439705Y-12220174D02*
X9449229Y-12229698D01*
X9449229Y-12229698D02*
X9439705Y-12239222D01*
X9439705Y-12239222D02*
X9430182Y-12229698D01*
X9430182Y-12229698D02*
X9439705Y-12220174D01*
X9439705Y-12220174D02*
X9439705Y-12239222D01*
M02*
