G04 #@! TF.GenerationSoftware,KiCad,Pcbnew,9.0.1*
G04 #@! TF.CreationDate,2025-08-27T22:36:15+05:00*
G04 #@! TF.ProjectId,30A_home_automation_using_esp32,3330415f-686f-46d6-955f-6175746f6d61,rev?*
G04 #@! TF.SameCoordinates,Original*
G04 #@! TF.FileFunction,Copper,L1,Top*
G04 #@! TF.FilePolarity,Positive*
%FSLAX46Y46*%
G04 Gerber Fmt 4.6, Leading zero omitted, Abs format (unit mm)*
G04 Created by KiCad (PCBNEW 9.0.1) date 2025-08-27 22:36:15*
%MOMM*%
%LPD*%
G01*
G04 APERTURE LIST*
G04 Aperture macros list*
%AMRoundRect*
0 Rectangle with rounded corners*
0 $1 Rounding radius*
0 $2 $3 $4 $5 $6 $7 $8 $9 X,Y pos of 4 corners*
0 Add a 4 corners polygon primitive as box body*
4,1,4,$2,$3,$4,$5,$6,$7,$8,$9,$2,$3,0*
0 Add four circle primitives for the rounded corners*
1,1,$1+$1,$2,$3*
1,1,$1+$1,$4,$5*
1,1,$1+$1,$6,$7*
1,1,$1+$1,$8,$9*
0 Add four rect primitives between the rounded corners*
20,1,$1+$1,$2,$3,$4,$5,0*
20,1,$1+$1,$4,$5,$6,$7,0*
20,1,$1+$1,$6,$7,$8,$9,0*
20,1,$1+$1,$8,$9,$2,$3,0*%
G04 Aperture macros list end*
G04 #@! TA.AperFunction,SMDPad,CuDef*
%ADD10RoundRect,0.243750X-0.243750X-0.456250X0.243750X-0.456250X0.243750X0.456250X-0.243750X0.456250X0*%
G04 #@! TD*
G04 #@! TA.AperFunction,ComponentPad*
%ADD11C,0.800000*%
G04 #@! TD*
G04 #@! TA.AperFunction,ComponentPad*
%ADD12C,5.400000*%
G04 #@! TD*
G04 #@! TA.AperFunction,SMDPad,CuDef*
%ADD13RoundRect,0.250000X-0.262500X-0.450000X0.262500X-0.450000X0.262500X0.450000X-0.262500X0.450000X0*%
G04 #@! TD*
G04 #@! TA.AperFunction,ComponentPad*
%ADD14R,3.000000X3.000000*%
G04 #@! TD*
G04 #@! TA.AperFunction,ComponentPad*
%ADD15C,3.000000*%
G04 #@! TD*
G04 #@! TA.AperFunction,ComponentPad*
%ADD16RoundRect,0.250000X0.550000X-0.550000X0.550000X0.550000X-0.550000X0.550000X-0.550000X-0.550000X0*%
G04 #@! TD*
G04 #@! TA.AperFunction,ComponentPad*
%ADD17C,1.600000*%
G04 #@! TD*
G04 #@! TA.AperFunction,SMDPad,CuDef*
%ADD18RoundRect,0.250000X0.250000X0.475000X-0.250000X0.475000X-0.250000X-0.475000X0.250000X-0.475000X0*%
G04 #@! TD*
G04 #@! TA.AperFunction,ComponentPad*
%ADD19R,1.600000X1.600000*%
G04 #@! TD*
G04 #@! TA.AperFunction,ComponentPad*
%ADD20O,1.600000X1.600000*%
G04 #@! TD*
G04 #@! TA.AperFunction,SMDPad,CuDef*
%ADD21RoundRect,0.375000X-0.625000X-0.375000X0.625000X-0.375000X0.625000X0.375000X-0.625000X0.375000X0*%
G04 #@! TD*
G04 #@! TA.AperFunction,SMDPad,CuDef*
%ADD22RoundRect,0.500000X-0.500000X-1.400000X0.500000X-1.400000X0.500000X1.400000X-0.500000X1.400000X0*%
G04 #@! TD*
G04 #@! TA.AperFunction,SMDPad,CuDef*
%ADD23R,1.500000X0.900000*%
G04 #@! TD*
G04 #@! TA.AperFunction,SMDPad,CuDef*
%ADD24R,0.900000X1.500000*%
G04 #@! TD*
G04 #@! TA.AperFunction,SMDPad,CuDef*
%ADD25R,1.050000X1.050000*%
G04 #@! TD*
G04 #@! TA.AperFunction,HeatsinkPad*
%ADD26C,0.600000*%
G04 #@! TD*
G04 #@! TA.AperFunction,HeatsinkPad*
%ADD27R,4.200000X4.200000*%
G04 #@! TD*
G04 #@! TA.AperFunction,SMDPad,CuDef*
%ADD28RoundRect,0.250000X-0.450000X0.262500X-0.450000X-0.262500X0.450000X-0.262500X0.450000X0.262500X0*%
G04 #@! TD*
G04 #@! TA.AperFunction,ComponentPad*
%ADD29C,2.000000*%
G04 #@! TD*
G04 #@! TA.AperFunction,ComponentPad*
%ADD30R,1.050000X1.500000*%
G04 #@! TD*
G04 #@! TA.AperFunction,ComponentPad*
%ADD31O,1.050000X1.500000*%
G04 #@! TD*
G04 #@! TA.AperFunction,ComponentPad*
%ADD32R,1.500000X1.050000*%
G04 #@! TD*
G04 #@! TA.AperFunction,ComponentPad*
%ADD33O,1.500000X1.050000*%
G04 #@! TD*
G04 #@! TA.AperFunction,ComponentPad*
%ADD34RoundRect,0.500000X-0.500000X-0.500000X0.500000X-0.500000X0.500000X0.500000X-0.500000X0.500000X0*%
G04 #@! TD*
G04 #@! TA.AperFunction,SMDPad,CuDef*
%ADD35RoundRect,0.250000X0.262500X0.450000X-0.262500X0.450000X-0.262500X-0.450000X0.262500X-0.450000X0*%
G04 #@! TD*
G04 #@! TA.AperFunction,ComponentPad*
%ADD36R,1.700000X1.700000*%
G04 #@! TD*
G04 #@! TA.AperFunction,ComponentPad*
%ADD37C,1.700000*%
G04 #@! TD*
G04 #@! TA.AperFunction,ComponentPad*
%ADD38R,1.700000X2.000000*%
G04 #@! TD*
G04 #@! TA.AperFunction,ComponentPad*
%ADD39O,1.700000X2.000000*%
G04 #@! TD*
G04 #@! TA.AperFunction,ComponentPad*
%ADD40C,1.950000*%
G04 #@! TD*
G04 #@! TA.AperFunction,ViaPad*
%ADD41C,0.600000*%
G04 #@! TD*
G04 #@! TA.AperFunction,Conductor*
%ADD42C,0.500000*%
G04 #@! TD*
G04 #@! TA.AperFunction,Conductor*
%ADD43C,2.500000*%
G04 #@! TD*
G04 APERTURE END LIST*
D10*
X130262500Y-63800000D03*
X132137500Y-63800000D03*
D11*
X152675000Y-115100000D03*
X153268109Y-113668109D03*
X153268109Y-116531891D03*
X154700000Y-113075000D03*
D12*
X154700000Y-115100000D03*
D11*
X154700000Y-117125000D03*
X156131891Y-113668109D03*
X156131891Y-116531891D03*
X156725000Y-115100000D03*
D13*
X139887500Y-63755000D03*
X141712500Y-63755000D03*
D11*
X118975000Y-108800000D03*
X119568109Y-107368109D03*
X119568109Y-110231891D03*
X121000000Y-106775000D03*
D12*
X121000000Y-108800000D03*
D11*
X121000000Y-110825000D03*
X122431891Y-107368109D03*
X122431891Y-110231891D03*
X123025000Y-108800000D03*
D13*
X116075000Y-80600000D03*
X117900000Y-80600000D03*
D14*
X83200000Y-66920000D03*
D15*
X83200000Y-61840000D03*
X83200000Y-56760000D03*
X83200000Y-51680000D03*
D16*
X122125000Y-88300000D03*
D17*
X124665000Y-88300000D03*
X124665000Y-80680000D03*
X122125000Y-80680000D03*
D18*
X131950000Y-50900000D03*
X130050000Y-50900000D03*
D19*
X115000000Y-110110000D03*
D20*
X115000000Y-102490000D03*
D21*
X135050000Y-50300000D03*
X135050000Y-52600000D03*
D22*
X141350000Y-52600000D03*
D21*
X135050000Y-54900000D03*
D14*
X83200000Y-86080000D03*
D15*
X83200000Y-81000000D03*
X83200000Y-75920000D03*
D23*
X144795000Y-112102500D03*
X144795000Y-110832500D03*
X144795000Y-109562500D03*
X144795000Y-108292500D03*
X144795000Y-107022500D03*
X144795000Y-105752500D03*
X144795000Y-104482500D03*
X144795000Y-103212500D03*
X144795000Y-101942500D03*
X144795000Y-100672500D03*
X144795000Y-99402500D03*
X144795000Y-98132500D03*
X144795000Y-96862500D03*
X144795000Y-95592500D03*
D24*
X141755000Y-94342500D03*
X140485000Y-94342500D03*
X139215000Y-94342500D03*
X137945000Y-94342500D03*
X136675000Y-94342500D03*
X135405000Y-94342500D03*
X134135000Y-94342500D03*
X132865000Y-94342500D03*
X131595000Y-94342500D03*
X130325000Y-94342500D03*
D23*
X127295000Y-95592500D03*
X127295000Y-96862500D03*
X127295000Y-98132500D03*
X127295000Y-99402500D03*
X127295000Y-100672500D03*
X127295000Y-101942500D03*
X127295000Y-103212500D03*
X127295000Y-104482500D03*
X127295000Y-105752500D03*
X127295000Y-107022500D03*
X127295000Y-108292500D03*
X127295000Y-109562500D03*
X127295000Y-110832500D03*
X127295000Y-112102500D03*
D25*
X138250000Y-106287500D03*
D26*
X138250000Y-105525000D03*
D25*
X138250000Y-104762500D03*
D26*
X138250000Y-104000000D03*
D25*
X138250000Y-103237500D03*
D26*
X137487500Y-106287500D03*
X137487500Y-104762500D03*
X137487500Y-103237500D03*
D25*
X136725000Y-106287500D03*
D26*
X136725000Y-105525000D03*
D25*
X136725000Y-104762500D03*
D27*
X136725000Y-104762500D03*
D26*
X136725000Y-104000000D03*
D25*
X136725000Y-103237500D03*
D26*
X135962500Y-106287500D03*
X135962500Y-104762500D03*
X135962500Y-103237500D03*
D25*
X135200000Y-106287500D03*
D26*
X135200000Y-105525000D03*
D25*
X135200000Y-104762500D03*
D26*
X135200000Y-104000000D03*
D25*
X135200000Y-103237500D03*
D28*
X105500000Y-93387500D03*
X105500000Y-95212500D03*
D18*
X131950000Y-54900000D03*
X130050000Y-54900000D03*
D29*
X155550000Y-101450000D03*
X149050000Y-101450000D03*
X155550000Y-96950000D03*
X149050000Y-96950000D03*
D30*
X111430000Y-76100000D03*
D31*
X112700000Y-76100000D03*
X113970000Y-76100000D03*
D32*
X114160000Y-94440000D03*
D33*
X114160000Y-93170000D03*
X114160000Y-91900000D03*
D15*
X92090000Y-115100000D03*
X89550000Y-97300000D03*
D34*
X104750000Y-111300000D03*
D29*
X104750000Y-101100000D03*
D35*
X137000000Y-59255000D03*
X135175000Y-59255000D03*
X141712500Y-59400000D03*
X139887500Y-59400000D03*
D19*
X111800000Y-88810000D03*
D20*
X111800000Y-81190000D03*
D11*
X153475000Y-50800000D03*
X154068109Y-49368109D03*
X154068109Y-52231891D03*
X155500000Y-48775000D03*
D12*
X155500000Y-50800000D03*
D11*
X155500000Y-52825000D03*
X156931891Y-49368109D03*
X156931891Y-52231891D03*
X157525000Y-50800000D03*
D36*
X149320000Y-73050000D03*
D37*
X149320000Y-75590000D03*
X149320000Y-78130000D03*
X149320000Y-80670000D03*
D38*
X93345000Y-56837500D03*
D39*
X93345000Y-61837500D03*
X122425000Y-51837500D03*
X122425000Y-66837500D03*
D40*
X104700000Y-87000000D03*
X104700000Y-75000000D03*
X106700000Y-81000000D03*
X92500000Y-87000000D03*
X92500000Y-75000000D03*
D13*
X114987500Y-84800000D03*
X116812500Y-84800000D03*
X117787500Y-103800000D03*
X119612500Y-103800000D03*
D29*
X149050000Y-59100000D03*
X155550000Y-59100000D03*
X149050000Y-63600000D03*
X155550000Y-63600000D03*
D11*
X118975000Y-75225000D03*
X119568109Y-73793109D03*
X119568109Y-76656891D03*
X121000000Y-73200000D03*
D12*
X121000000Y-75225000D03*
D11*
X121000000Y-77250000D03*
X122431891Y-73793109D03*
X122431891Y-76656891D03*
X123025000Y-75225000D03*
D35*
X137000000Y-63755000D03*
X135175000Y-63755000D03*
D10*
X130262500Y-59300000D03*
X132137500Y-59300000D03*
D16*
X120125000Y-100100000D03*
D17*
X122665000Y-100100000D03*
X122665000Y-92480000D03*
X120125000Y-92480000D03*
D41*
X151800000Y-107000000D03*
X130900000Y-105200000D03*
X132900000Y-89800000D03*
X131200000Y-89900000D03*
X131600000Y-106400000D03*
X121700000Y-94800000D03*
X131300000Y-99000000D03*
X131300000Y-100400000D03*
X122200000Y-96600000D03*
X130400000Y-109400000D03*
X125100000Y-103100000D03*
X142000000Y-70100000D03*
X142800000Y-78200000D03*
X140500000Y-78100000D03*
X140100000Y-70600000D03*
X144400000Y-59100000D03*
X133200000Y-71200000D03*
X144400000Y-70000000D03*
X145300000Y-78400000D03*
D42*
X134750000Y-50000000D02*
X135050000Y-50300000D01*
X83200000Y-75920000D02*
X84700000Y-77420000D01*
X96980000Y-77420000D02*
X102000000Y-72400000D01*
X102000000Y-72400000D02*
X109400000Y-72400000D01*
X84700000Y-77420000D02*
X96980000Y-77420000D01*
X111430000Y-74430000D02*
X111430000Y-76100000D01*
X109400000Y-72400000D02*
X111430000Y-74430000D01*
X135050000Y-54900000D02*
X131950000Y-54900000D01*
X122425000Y-66837500D02*
X122425000Y-61775000D01*
X122425000Y-61775000D02*
X127500000Y-56700000D01*
X127500000Y-56700000D02*
X130150000Y-56700000D01*
X130150000Y-56700000D02*
X131950000Y-54900000D01*
X144300000Y-67300000D02*
X155300000Y-67300000D01*
X141712500Y-64712500D02*
X144300000Y-67300000D01*
X155300000Y-67300000D02*
X156600000Y-68600000D01*
X139887500Y-59400000D02*
X139887500Y-60187500D01*
X141712500Y-63755000D02*
X141712500Y-64712500D01*
X139887500Y-54062500D02*
X141350000Y-52600000D01*
X144795000Y-110832500D02*
X147967500Y-110832500D01*
X139887500Y-59400000D02*
X139887500Y-54062500D01*
X133650000Y-52600000D02*
X131950000Y-50900000D01*
X135050000Y-52600000D02*
X133650000Y-52600000D01*
X139887500Y-60187500D02*
X141712500Y-62012500D01*
X141712500Y-62012500D02*
X141712500Y-63755000D01*
X156600000Y-68600000D02*
X156600000Y-80600000D01*
X147967500Y-110832500D02*
X151800000Y-107000000D01*
X155400000Y-81800000D02*
X150450000Y-81800000D01*
X156600000Y-80600000D02*
X155400000Y-81800000D01*
X150450000Y-81800000D02*
X149320000Y-80670000D01*
X132137500Y-59300000D02*
X135130000Y-59300000D01*
X135130000Y-59300000D02*
X135175000Y-59255000D01*
X135175000Y-63755000D02*
X132182500Y-63755000D01*
X132182500Y-63755000D02*
X132137500Y-63800000D01*
X132900000Y-79700000D02*
X132900000Y-89800000D01*
X137010000Y-75590000D02*
X132900000Y-79700000D01*
X127295000Y-107022500D02*
X128977500Y-107022500D01*
X149320000Y-75590000D02*
X137010000Y-75590000D01*
X130800000Y-105200000D02*
X130900000Y-105200000D01*
X128977500Y-107022500D02*
X130800000Y-105200000D01*
X131200000Y-79100000D02*
X131200000Y-89900000D01*
X137250000Y-73050000D02*
X131200000Y-79100000D01*
X129607500Y-108292500D02*
X131500000Y-106400000D01*
X149320000Y-73050000D02*
X137250000Y-73050000D01*
X127295000Y-108292500D02*
X129607500Y-108292500D01*
X131500000Y-106400000D02*
X131600000Y-106400000D01*
D43*
X88267500Y-56760000D02*
X93345000Y-61837500D01*
X83200000Y-56760000D02*
X88267500Y-56760000D01*
X83200000Y-66920000D02*
X83200000Y-67257143D01*
X90942857Y-75000000D02*
X92500000Y-75000000D01*
X83200000Y-67257143D02*
X90942857Y-75000000D01*
D42*
X96500000Y-84200000D02*
X96500000Y-95200000D01*
X144795000Y-104482500D02*
X143182500Y-104482500D01*
X143182500Y-104482500D02*
X142500000Y-103800000D01*
X139900000Y-99000000D02*
X141100000Y-100200000D01*
X131300000Y-99000000D02*
X139900000Y-99000000D01*
X98500000Y-97200000D02*
X116100000Y-97200000D01*
X141100000Y-100200000D02*
X141100000Y-102400000D01*
X141100000Y-102400000D02*
X142750000Y-104050000D01*
X118100000Y-95200000D02*
X121300000Y-95200000D01*
X116100000Y-97200000D02*
X118100000Y-95200000D01*
X121300000Y-95200000D02*
X121700000Y-94800000D01*
X96500000Y-95200000D02*
X98500000Y-97200000D01*
X83200000Y-81000000D02*
X93300000Y-81000000D01*
X93300000Y-81000000D02*
X96500000Y-84200000D01*
X131300000Y-100400000D02*
X133000000Y-100400000D01*
X144795000Y-105752500D02*
X142152500Y-105752500D01*
X117900000Y-97200000D02*
X121600000Y-97200000D01*
X140000000Y-101200000D02*
X140000000Y-103600000D01*
X83303533Y-86080000D02*
X96123533Y-98900000D01*
X83200000Y-86080000D02*
X83303533Y-86080000D01*
X121600000Y-97200000D02*
X122200000Y-96600000D01*
X139200000Y-100400000D02*
X140000000Y-101200000D01*
X116200000Y-98900000D02*
X117900000Y-97200000D01*
X142152500Y-105752500D02*
X141000000Y-104600000D01*
X96123533Y-98900000D02*
X116200000Y-98900000D01*
X131300000Y-100400000D02*
X139200000Y-100400000D01*
X140000000Y-103600000D02*
X141200000Y-104800000D01*
X105500000Y-93387500D02*
X114047500Y-93387500D01*
X115100000Y-72900000D02*
X115987500Y-73787500D01*
X113900000Y-72900000D02*
X115100000Y-72900000D01*
X112700000Y-74100000D02*
X113900000Y-72900000D01*
X115987500Y-73787500D02*
X115987500Y-80400000D01*
X112700000Y-76100000D02*
X112700000Y-74100000D01*
X124600000Y-105900000D02*
X124600000Y-108117500D01*
X119612500Y-103800000D02*
X122500000Y-103800000D01*
X124600000Y-108117500D02*
X126045000Y-109562500D01*
X122500000Y-103800000D02*
X124600000Y-105900000D01*
X126045000Y-109562500D02*
X127295000Y-109562500D01*
X118200000Y-100100000D02*
X117787500Y-100512500D01*
X119230000Y-100100000D02*
X118200000Y-100100000D01*
X117787500Y-100512500D02*
X117787500Y-103800000D01*
X130400000Y-109400000D02*
X128967500Y-110832500D01*
X128967500Y-110832500D02*
X127295000Y-110832500D01*
X125100000Y-92000000D02*
X125100000Y-103100000D01*
X116812500Y-84800000D02*
X116812500Y-86012500D01*
X123400000Y-90300000D02*
X125100000Y-92000000D01*
X116812500Y-86012500D02*
X117000000Y-86200000D01*
X117000000Y-87800000D02*
X119500000Y-90300000D01*
X117000000Y-86200000D02*
X117000000Y-87800000D01*
X119500000Y-90300000D02*
X123400000Y-90300000D01*
X122125000Y-84825000D02*
X122125000Y-89105000D01*
X120400000Y-83100000D02*
X122125000Y-84825000D01*
X114987500Y-84800000D02*
X116687500Y-83100000D01*
X116687500Y-83100000D02*
X120400000Y-83100000D01*
X122665000Y-92480000D02*
X121414000Y-93731000D01*
X121414000Y-93731000D02*
X117376000Y-93731000D01*
X115107000Y-96000000D02*
X106287500Y-96000000D01*
X106287500Y-96000000D02*
X105500000Y-95212500D01*
X117376000Y-93731000D02*
X115107000Y-96000000D01*
X119400000Y-79100000D02*
X123085000Y-79100000D01*
X117900000Y-80600000D02*
X119400000Y-79100000D01*
X123085000Y-79100000D02*
X124665000Y-80680000D01*
X142000000Y-70000000D02*
X142000000Y-70100000D01*
X144795000Y-95592500D02*
X144795000Y-92595000D01*
X137000000Y-60000000D02*
X138400000Y-61400000D01*
X144795000Y-92595000D02*
X142800000Y-90600000D01*
X138400000Y-61400000D02*
X138400000Y-66400000D01*
X138400000Y-66400000D02*
X142000000Y-70000000D01*
X142800000Y-90600000D02*
X142800000Y-78200000D01*
X137000000Y-59255000D02*
X137000000Y-60000000D01*
X137000000Y-63755000D02*
X137000000Y-67500000D01*
X140485000Y-78115000D02*
X140500000Y-78100000D01*
X137000000Y-67500000D02*
X140100000Y-70600000D01*
X140485000Y-94342500D02*
X140485000Y-78115000D01*
X127295000Y-95592500D02*
X129424000Y-93463500D01*
X129424000Y-93463500D02*
X129424000Y-93141500D01*
X129424000Y-93141500D02*
X129500000Y-93141500D01*
X144400000Y-59100000D02*
X142012500Y-59100000D01*
X129500000Y-74900000D02*
X133200000Y-71200000D01*
X155550000Y-59100000D02*
X149050000Y-59100000D01*
X149050000Y-59100000D02*
X144400000Y-59100000D01*
X142012500Y-59100000D02*
X141712500Y-59400000D01*
X129500000Y-93141500D02*
X129500000Y-74900000D01*
X147137500Y-109562500D02*
X144795000Y-109562500D01*
X149050000Y-101450000D02*
X149050000Y-107650000D01*
X145300000Y-85800000D02*
X145300000Y-78400000D01*
X149050000Y-107650000D02*
X147137500Y-109562500D01*
X139887500Y-65487500D02*
X144300000Y-69900000D01*
X155550000Y-101450000D02*
X149050000Y-101450000D01*
X149800000Y-94285787D02*
X149800000Y-90500000D01*
X149800000Y-90500000D02*
X148800000Y-89500000D01*
X148800000Y-89500000D02*
X148800000Y-89300000D01*
X139887500Y-63755000D02*
X139887500Y-65487500D01*
X155550000Y-100035787D02*
X149800000Y-94285787D01*
X148800000Y-89300000D02*
X145300000Y-85800000D01*
X155550000Y-101450000D02*
X155550000Y-100035787D01*
G04 #@! TA.AperFunction,Conductor*
G36*
X154084690Y-47720185D02*
G01*
X154130445Y-47772989D01*
X154140389Y-47842147D01*
X154111364Y-47905703D01*
X154071452Y-47936220D01*
X153949666Y-47994868D01*
X153645335Y-48186092D01*
X153419634Y-48366081D01*
X154738282Y-49684729D01*
X154620534Y-49770278D01*
X154470278Y-49920534D01*
X154384729Y-50038282D01*
X153066081Y-48719634D01*
X152886092Y-48945335D01*
X152694870Y-49249663D01*
X152538927Y-49573482D01*
X152420220Y-49912729D01*
X152420219Y-49912731D01*
X152340242Y-50263136D01*
X152340240Y-50263148D01*
X152300000Y-50620287D01*
X152300000Y-50979712D01*
X152340240Y-51336851D01*
X152340242Y-51336863D01*
X152420219Y-51687268D01*
X152420220Y-51687270D01*
X152538927Y-52026517D01*
X152694870Y-52350336D01*
X152886092Y-52654664D01*
X153066081Y-52880364D01*
X154384728Y-51561717D01*
X154470278Y-51679466D01*
X154620534Y-51829722D01*
X154738281Y-51915270D01*
X153419634Y-53233916D01*
X153419634Y-53233917D01*
X153645335Y-53413907D01*
X153949663Y-53605129D01*
X154273482Y-53761072D01*
X154612729Y-53879779D01*
X154612731Y-53879780D01*
X154963136Y-53959757D01*
X154963148Y-53959759D01*
X155320287Y-53999999D01*
X155320289Y-54000000D01*
X155679711Y-54000000D01*
X155679712Y-53999999D01*
X156036851Y-53959759D01*
X156036863Y-53959757D01*
X156387268Y-53879780D01*
X156387270Y-53879779D01*
X156726517Y-53761072D01*
X157050336Y-53605129D01*
X157354664Y-53413907D01*
X157580364Y-53233916D01*
X156261718Y-51915270D01*
X156379466Y-51829722D01*
X156529722Y-51679466D01*
X156615270Y-51561718D01*
X157933916Y-52880364D01*
X158113907Y-52654664D01*
X158170506Y-52564589D01*
X158222841Y-52518298D01*
X158291894Y-52507650D01*
X158355742Y-52536025D01*
X158394115Y-52594414D01*
X158399500Y-52630561D01*
X158399500Y-113528500D01*
X158379815Y-113595539D01*
X158327011Y-113641294D01*
X158275500Y-113652500D01*
X157632567Y-113652500D01*
X157565528Y-113632815D01*
X157520846Y-113582301D01*
X157505127Y-113549659D01*
X157313907Y-113245335D01*
X157133916Y-113019634D01*
X156537372Y-113616181D01*
X156476049Y-113649666D01*
X156449691Y-113652500D01*
X156093309Y-113652500D01*
X156026270Y-113632815D01*
X155980515Y-113580011D01*
X155970571Y-113510853D01*
X155999596Y-113447297D01*
X156005628Y-113440819D01*
X156780364Y-112666081D01*
X156554664Y-112486092D01*
X156250336Y-112294870D01*
X155926517Y-112138927D01*
X155587270Y-112020220D01*
X155587268Y-112020219D01*
X155236863Y-111940242D01*
X155236851Y-111940240D01*
X154879712Y-111900000D01*
X154520287Y-111900000D01*
X154163148Y-111940240D01*
X154163136Y-111940242D01*
X153812731Y-112020219D01*
X153812729Y-112020220D01*
X153473482Y-112138927D01*
X153149663Y-112294870D01*
X152845335Y-112486092D01*
X152619634Y-112666081D01*
X153394372Y-113440819D01*
X153427857Y-113502142D01*
X153422873Y-113571834D01*
X153381001Y-113627767D01*
X153315537Y-113652184D01*
X153306691Y-113652500D01*
X152950309Y-113652500D01*
X152883270Y-113632815D01*
X152862628Y-113616181D01*
X152266081Y-113019634D01*
X152086092Y-113245335D01*
X151894872Y-113549659D01*
X151879154Y-113582301D01*
X151832331Y-113634161D01*
X151767433Y-113652500D01*
X112045000Y-113652500D01*
X112045000Y-119675500D01*
X112025315Y-119742539D01*
X111972511Y-119788294D01*
X111921000Y-119799500D01*
X102824000Y-119799500D01*
X102756961Y-119779815D01*
X102711206Y-119727011D01*
X102700000Y-119675500D01*
X102700000Y-110741966D01*
X103249500Y-110741966D01*
X103249500Y-111858028D01*
X103249501Y-111858034D01*
X103260113Y-111977415D01*
X103316089Y-112173045D01*
X103316090Y-112173047D01*
X103316091Y-112173049D01*
X103410302Y-112353407D01*
X103410304Y-112353409D01*
X103538890Y-112511109D01*
X103632803Y-112587684D01*
X103696593Y-112639698D01*
X103876951Y-112733909D01*
X104072582Y-112789886D01*
X104191963Y-112800500D01*
X105308036Y-112800499D01*
X105427418Y-112789886D01*
X105623049Y-112733909D01*
X105803407Y-112639698D01*
X105851671Y-112600344D01*
X126045000Y-112600344D01*
X126051401Y-112659872D01*
X126051403Y-112659879D01*
X126101645Y-112794586D01*
X126101649Y-112794593D01*
X126187809Y-112909687D01*
X126187812Y-112909690D01*
X126302906Y-112995850D01*
X126302913Y-112995854D01*
X126437620Y-113046096D01*
X126437627Y-113046098D01*
X126497155Y-113052499D01*
X126497172Y-113052500D01*
X127045000Y-113052500D01*
X127545000Y-113052500D01*
X128092828Y-113052500D01*
X128092844Y-113052499D01*
X128152372Y-113046098D01*
X128152379Y-113046096D01*
X128287086Y-112995854D01*
X128287093Y-112995850D01*
X128402187Y-112909690D01*
X128402190Y-112909687D01*
X128488350Y-112794593D01*
X128488354Y-112794586D01*
X128538596Y-112659879D01*
X128538598Y-112659872D01*
X128544999Y-112600344D01*
X143545000Y-112600344D01*
X143551401Y-112659872D01*
X143551403Y-112659879D01*
X143601645Y-112794586D01*
X143601649Y-112794593D01*
X143687809Y-112909687D01*
X143687812Y-112909690D01*
X143802906Y-112995850D01*
X143802913Y-112995854D01*
X143937620Y-113046096D01*
X143937627Y-113046098D01*
X143997155Y-113052499D01*
X143997172Y-113052500D01*
X144545000Y-113052500D01*
X145045000Y-113052500D01*
X145592828Y-113052500D01*
X145592844Y-113052499D01*
X145652372Y-113046098D01*
X145652379Y-113046096D01*
X145787086Y-112995854D01*
X145787093Y-112995850D01*
X145902187Y-112909690D01*
X145902190Y-112909687D01*
X145988350Y-112794593D01*
X145988354Y-112794586D01*
X146038596Y-112659879D01*
X146038598Y-112659872D01*
X146044999Y-112600344D01*
X146045000Y-112600327D01*
X146045000Y-112352500D01*
X145045000Y-112352500D01*
X145045000Y-113052500D01*
X144545000Y-113052500D01*
X144545000Y-112352500D01*
X143545000Y-112352500D01*
X143545000Y-112600344D01*
X128544999Y-112600344D01*
X128545000Y-112600327D01*
X128545000Y-112352500D01*
X127545000Y-112352500D01*
X127545000Y-113052500D01*
X127045000Y-113052500D01*
X127045000Y-112352500D01*
X126045000Y-112352500D01*
X126045000Y-112600344D01*
X105851671Y-112600344D01*
X105961109Y-112511109D01*
X106089698Y-112353407D01*
X106183909Y-112173049D01*
X106239886Y-111977418D01*
X106250500Y-111858037D01*
X106250499Y-110741964D01*
X106239886Y-110622582D01*
X106183909Y-110426951D01*
X106089698Y-110246593D01*
X105993512Y-110128630D01*
X105961109Y-110088890D01*
X105803409Y-109960304D01*
X105803410Y-109960304D01*
X105803407Y-109960302D01*
X105623049Y-109866091D01*
X105623048Y-109866090D01*
X105623045Y-109866089D01*
X105495945Y-109829722D01*
X105427418Y-109810114D01*
X105427415Y-109810113D01*
X105427413Y-109810113D01*
X105361102Y-109804217D01*
X105308037Y-109799500D01*
X105308032Y-109799500D01*
X104191971Y-109799500D01*
X104191965Y-109799500D01*
X104191964Y-109799501D01*
X104180316Y-109800536D01*
X104072584Y-109810113D01*
X103876954Y-109866089D01*
X103823962Y-109893770D01*
X103696593Y-109960302D01*
X103696591Y-109960303D01*
X103696590Y-109960304D01*
X103538890Y-110088890D01*
X103410304Y-110246590D01*
X103410302Y-110246593D01*
X103364323Y-110334616D01*
X103316089Y-110426954D01*
X103260114Y-110622583D01*
X103260113Y-110622586D01*
X103249500Y-110741966D01*
X102700000Y-110741966D01*
X102700000Y-109262135D01*
X113699500Y-109262135D01*
X113699500Y-110957870D01*
X113699501Y-110957876D01*
X113705908Y-111017483D01*
X113756202Y-111152328D01*
X113756206Y-111152335D01*
X113842452Y-111267544D01*
X113842455Y-111267547D01*
X113957664Y-111353793D01*
X113957671Y-111353797D01*
X114092517Y-111404091D01*
X114092516Y-111404091D01*
X114099444Y-111404835D01*
X114152127Y-111410500D01*
X115847872Y-111410499D01*
X115907483Y-111404091D01*
X116042331Y-111353796D01*
X116157546Y-111267546D01*
X116243796Y-111152331D01*
X116245280Y-111148350D01*
X116247600Y-111142134D01*
X116247600Y-111142133D01*
X116294091Y-111017483D01*
X116300500Y-110957873D01*
X116300499Y-109262128D01*
X116294091Y-109202517D01*
X116280661Y-109166510D01*
X116243797Y-109067671D01*
X116243793Y-109067664D01*
X116157547Y-108952455D01*
X116157544Y-108952452D01*
X116042335Y-108866206D01*
X116042328Y-108866202D01*
X115907482Y-108815908D01*
X115907483Y-108815908D01*
X115847883Y-108809501D01*
X115847881Y-108809500D01*
X115847873Y-108809500D01*
X115847864Y-108809500D01*
X114152129Y-108809500D01*
X114152123Y-108809501D01*
X114092516Y-108815908D01*
X113957671Y-108866202D01*
X113957664Y-108866206D01*
X113842455Y-108952452D01*
X113842452Y-108952455D01*
X113756206Y-109067664D01*
X113756202Y-109067671D01*
X113705908Y-109202517D01*
X113699501Y-109262116D01*
X113699501Y-109262123D01*
X113699500Y-109262135D01*
X102700000Y-109262135D01*
X102700000Y-99774500D01*
X102719685Y-99707461D01*
X102772489Y-99661706D01*
X102824000Y-99650500D01*
X103810630Y-99650500D01*
X103877669Y-99670185D01*
X103923424Y-99722989D01*
X103933368Y-99792147D01*
X103904343Y-99855703D01*
X103883517Y-99874816D01*
X103772490Y-99955483D01*
X103772488Y-99955485D01*
X103772487Y-99955485D01*
X103605485Y-100122487D01*
X103605485Y-100122488D01*
X103605483Y-100122490D01*
X103565381Y-100177686D01*
X103466657Y-100313566D01*
X103359433Y-100524003D01*
X103286446Y-100748631D01*
X103249500Y-100981902D01*
X103249500Y-101218097D01*
X103286446Y-101451368D01*
X103359433Y-101675996D01*
X103423314Y-101801368D01*
X103466657Y-101886433D01*
X103605483Y-102077510D01*
X103772490Y-102244517D01*
X103963567Y-102383343D01*
X104050250Y-102427510D01*
X104174003Y-102490566D01*
X104174005Y-102490566D01*
X104174008Y-102490568D01*
X104294412Y-102529689D01*
X104398631Y-102563553D01*
X104631903Y-102600500D01*
X104631908Y-102600500D01*
X104868097Y-102600500D01*
X105101368Y-102563553D01*
X105139565Y-102551142D01*
X105325992Y-102490568D01*
X105527984Y-102387648D01*
X113699500Y-102387648D01*
X113699500Y-102592352D01*
X113699843Y-102594517D01*
X113731522Y-102794534D01*
X113794781Y-102989223D01*
X113840191Y-103078343D01*
X113876956Y-103150499D01*
X113887715Y-103171613D01*
X114008028Y-103337213D01*
X114152786Y-103481971D01*
X114284250Y-103577483D01*
X114318390Y-103602287D01*
X114434607Y-103661503D01*
X114500776Y-103695218D01*
X114500778Y-103695218D01*
X114500781Y-103695220D01*
X114582543Y-103721786D01*
X114695465Y-103758477D01*
X114768098Y-103769981D01*
X114897648Y-103790500D01*
X114897649Y-103790500D01*
X115102351Y-103790500D01*
X115102352Y-103790500D01*
X115304534Y-103758477D01*
X115499219Y-103695220D01*
X115681610Y-103602287D01*
X115775104Y-103534360D01*
X115847213Y-103481971D01*
X115847215Y-103481968D01*
X115847219Y-103481966D01*
X115991966Y-103337219D01*
X115991968Y-103337215D01*
X115991971Y-103337213D01*
X116044732Y-103264590D01*
X116112287Y-103171610D01*
X116205220Y-102989219D01*
X116268477Y-102794534D01*
X116300500Y-102592352D01*
X116300500Y-102387648D01*
X116277830Y-102244517D01*
X116268477Y-102185465D01*
X116229052Y-102064128D01*
X116205220Y-101990781D01*
X116205218Y-101990778D01*
X116205218Y-101990776D01*
X116152052Y-101886433D01*
X116112287Y-101808390D01*
X116104556Y-101797749D01*
X115991971Y-101642786D01*
X115847213Y-101498028D01*
X115681613Y-101377715D01*
X115681612Y-101377714D01*
X115681610Y-101377713D01*
X115624653Y-101348691D01*
X115499223Y-101284781D01*
X115304534Y-101221522D01*
X115129995Y-101193878D01*
X115102352Y-101189500D01*
X114897648Y-101189500D01*
X114873329Y-101193351D01*
X114695465Y-101221522D01*
X114500776Y-101284781D01*
X114318386Y-101377715D01*
X114152786Y-101498028D01*
X114008028Y-101642786D01*
X113887715Y-101808386D01*
X113794781Y-101990776D01*
X113731522Y-102185465D01*
X113700182Y-102383342D01*
X113699500Y-102387648D01*
X105527984Y-102387648D01*
X105536433Y-102383343D01*
X105727510Y-102244517D01*
X105894517Y-102077510D01*
X106033343Y-101886433D01*
X106140568Y-101675992D01*
X106213553Y-101451368D01*
X106224062Y-101385017D01*
X106250500Y-101218097D01*
X106250500Y-100981902D01*
X106213553Y-100748631D01*
X106176141Y-100633489D01*
X106140568Y-100524008D01*
X106140566Y-100524005D01*
X106140566Y-100524003D01*
X106079633Y-100404417D01*
X106033343Y-100313567D01*
X105894517Y-100122490D01*
X105727510Y-99955483D01*
X105616483Y-99874817D01*
X105573819Y-99819488D01*
X105567840Y-99749874D01*
X105600446Y-99688079D01*
X105661285Y-99653722D01*
X105689370Y-99650500D01*
X116273920Y-99650500D01*
X116371462Y-99631096D01*
X116418913Y-99621658D01*
X116555495Y-99565084D01*
X116637502Y-99510289D01*
X116678416Y-99482952D01*
X118174549Y-97986819D01*
X118235872Y-97953334D01*
X118262230Y-97950500D01*
X121673920Y-97950500D01*
X121771462Y-97931096D01*
X121818913Y-97921658D01*
X121955495Y-97865084D01*
X122004729Y-97832186D01*
X122024309Y-97819104D01*
X122029071Y-97815921D01*
X122078416Y-97782952D01*
X122515297Y-97346069D01*
X122555522Y-97319192D01*
X122579179Y-97309394D01*
X122710289Y-97221789D01*
X122821789Y-97110289D01*
X122909394Y-96979179D01*
X122969737Y-96833497D01*
X123000500Y-96678842D01*
X123000500Y-96521158D01*
X123000500Y-96521155D01*
X123000499Y-96521153D01*
X122986246Y-96449500D01*
X122969737Y-96366503D01*
X122945444Y-96307853D01*
X122909397Y-96220827D01*
X122909390Y-96220814D01*
X122821789Y-96089711D01*
X122821786Y-96089707D01*
X122710292Y-95978213D01*
X122710288Y-95978210D01*
X122579185Y-95890609D01*
X122579172Y-95890602D01*
X122433501Y-95830264D01*
X122433489Y-95830261D01*
X122278845Y-95799500D01*
X122278842Y-95799500D01*
X122121158Y-95799500D01*
X122073571Y-95808965D01*
X122039832Y-95805945D01*
X122006047Y-95803529D01*
X122005124Y-95802838D01*
X122003979Y-95802736D01*
X121977235Y-95781960D01*
X121950114Y-95761657D01*
X121949711Y-95760578D01*
X121948802Y-95759872D01*
X121937533Y-95727926D01*
X121925697Y-95696193D01*
X121925941Y-95695067D01*
X121925559Y-95693982D01*
X121933346Y-95661030D01*
X121940549Y-95627920D01*
X121941457Y-95626705D01*
X121941628Y-95625986D01*
X121961698Y-95599668D01*
X122015295Y-95546070D01*
X122055525Y-95519190D01*
X122079179Y-95509394D01*
X122210289Y-95421789D01*
X122321789Y-95310289D01*
X122409394Y-95179179D01*
X122469737Y-95033497D01*
X122500500Y-94878842D01*
X122500500Y-94721158D01*
X122500500Y-94721155D01*
X122500499Y-94721153D01*
X122494302Y-94690000D01*
X122469737Y-94566503D01*
X122468981Y-94564677D01*
X122409397Y-94420827D01*
X122409390Y-94420814D01*
X122321789Y-94289711D01*
X122321786Y-94289707D01*
X122206903Y-94174824D01*
X122173418Y-94113501D01*
X122178402Y-94043809D01*
X122206899Y-93999466D01*
X122399894Y-93806471D01*
X122461215Y-93772988D01*
X122506970Y-93771681D01*
X122562648Y-93780500D01*
X122562649Y-93780500D01*
X122767351Y-93780500D01*
X122767352Y-93780500D01*
X122969534Y-93748477D01*
X123164219Y-93685220D01*
X123346610Y-93592287D01*
X123439590Y-93524732D01*
X123512213Y-93471971D01*
X123512215Y-93471968D01*
X123512219Y-93471966D01*
X123656966Y-93327219D01*
X123656968Y-93327215D01*
X123656971Y-93327213D01*
X123724000Y-93234954D01*
X123777287Y-93161610D01*
X123870220Y-92979219D01*
X123933477Y-92784534D01*
X123965500Y-92582352D01*
X123965500Y-92377648D01*
X123940367Y-92218967D01*
X123949321Y-92149675D01*
X123994318Y-92096223D01*
X124061069Y-92075583D01*
X124128383Y-92094308D01*
X124150521Y-92111889D01*
X124313181Y-92274549D01*
X124346666Y-92335872D01*
X124349500Y-92362230D01*
X124349500Y-102795396D01*
X124340062Y-102842844D01*
X124336705Y-102850951D01*
X124330262Y-102866506D01*
X124330260Y-102866511D01*
X124299500Y-103021153D01*
X124299500Y-103178846D01*
X124330261Y-103333489D01*
X124330264Y-103333501D01*
X124390602Y-103479172D01*
X124390609Y-103479185D01*
X124478210Y-103610288D01*
X124478213Y-103610292D01*
X124589707Y-103721786D01*
X124589711Y-103721789D01*
X124720814Y-103809390D01*
X124720827Y-103809397D01*
X124866498Y-103869735D01*
X124866503Y-103869737D01*
X125021153Y-103900499D01*
X125021156Y-103900500D01*
X125021158Y-103900500D01*
X125178844Y-103900500D01*
X125178845Y-103900499D01*
X125333497Y-103869737D01*
X125456198Y-103818913D01*
X125479172Y-103809397D01*
X125479172Y-103809396D01*
X125479179Y-103809394D01*
X125610289Y-103721789D01*
X125721789Y-103610289D01*
X125809394Y-103479179D01*
X125809396Y-103479171D01*
X125811135Y-103475921D01*
X125812500Y-103474530D01*
X125812779Y-103474114D01*
X125812857Y-103474166D01*
X125860091Y-103426071D01*
X125928227Y-103410602D01*
X125993910Y-103434426D01*
X126036285Y-103489979D01*
X126044500Y-103534360D01*
X126044500Y-103710369D01*
X126044501Y-103710376D01*
X126050908Y-103769981D01*
X126063659Y-103804169D01*
X126068642Y-103873861D01*
X126063659Y-103890831D01*
X126050908Y-103925018D01*
X126047632Y-103955495D01*
X126044501Y-103984623D01*
X126044500Y-103984635D01*
X126044500Y-104980370D01*
X126044501Y-104980376D01*
X126050908Y-105039981D01*
X126063659Y-105074169D01*
X126068642Y-105143861D01*
X126063659Y-105160831D01*
X126050908Y-105195018D01*
X126044501Y-105254616D01*
X126044501Y-105254623D01*
X126044500Y-105254635D01*
X126044500Y-106250370D01*
X126044501Y-106250376D01*
X126050908Y-106309981D01*
X126063659Y-106344169D01*
X126068642Y-106413861D01*
X126063659Y-106430831D01*
X126050908Y-106465018D01*
X126046825Y-106503000D01*
X126044501Y-106524623D01*
X126044500Y-106524635D01*
X126044500Y-107520370D01*
X126044501Y-107520376D01*
X126050908Y-107579981D01*
X126063659Y-107614169D01*
X126068642Y-107683861D01*
X126063659Y-107700831D01*
X126050908Y-107735018D01*
X126044501Y-107794616D01*
X126044501Y-107794623D01*
X126044500Y-107794635D01*
X126044500Y-108201270D01*
X126024815Y-108268309D01*
X125972011Y-108314064D01*
X125902853Y-108324008D01*
X125839297Y-108294983D01*
X125832819Y-108288951D01*
X125386819Y-107842951D01*
X125353334Y-107781628D01*
X125350500Y-107755270D01*
X125350500Y-105826079D01*
X125321659Y-105681092D01*
X125321658Y-105681091D01*
X125321658Y-105681087D01*
X125310902Y-105655120D01*
X125265087Y-105544511D01*
X125265080Y-105544498D01*
X125182952Y-105421585D01*
X125156239Y-105394872D01*
X125078416Y-105317049D01*
X124582181Y-104820814D01*
X122978421Y-103217052D01*
X122978414Y-103217046D01*
X122878818Y-103150499D01*
X122878817Y-103150499D01*
X122855495Y-103134916D01*
X122855488Y-103134912D01*
X122718917Y-103078343D01*
X122718907Y-103078340D01*
X122573920Y-103049500D01*
X122573918Y-103049500D01*
X120640638Y-103049500D01*
X120573599Y-103029815D01*
X120535099Y-102990597D01*
X120533189Y-102987500D01*
X120467712Y-102881344D01*
X120343656Y-102757288D01*
X120194334Y-102665186D01*
X120027797Y-102610001D01*
X120027795Y-102610000D01*
X119925010Y-102599500D01*
X119299998Y-102599500D01*
X119299980Y-102599501D01*
X119197203Y-102610000D01*
X119197200Y-102610001D01*
X119030668Y-102665185D01*
X119030663Y-102665187D01*
X118881342Y-102757289D01*
X118787681Y-102850951D01*
X118779735Y-102855289D01*
X118774310Y-102862537D01*
X118749550Y-102871771D01*
X118726358Y-102884436D01*
X118717328Y-102883790D01*
X118708846Y-102886954D01*
X118683025Y-102881337D01*
X118656666Y-102879452D01*
X118647612Y-102873633D01*
X118640573Y-102872102D01*
X118612319Y-102850951D01*
X118574319Y-102812951D01*
X118540834Y-102751628D01*
X118538000Y-102725270D01*
X118538000Y-100974500D01*
X118557685Y-100907461D01*
X118610489Y-100861706D01*
X118662000Y-100850500D01*
X118761267Y-100850500D01*
X118828306Y-100870185D01*
X118874061Y-100922989D01*
X118878972Y-100935494D01*
X118890184Y-100969328D01*
X118890187Y-100969336D01*
X118922538Y-101021786D01*
X118982288Y-101118656D01*
X119106344Y-101242712D01*
X119255666Y-101334814D01*
X119422203Y-101389999D01*
X119524991Y-101400500D01*
X120725008Y-101400499D01*
X120827797Y-101389999D01*
X120994334Y-101334814D01*
X121143656Y-101242712D01*
X121267712Y-101118656D01*
X121359814Y-100969334D01*
X121389698Y-100879149D01*
X121393225Y-100871858D01*
X121411458Y-100851732D01*
X121426919Y-100829401D01*
X121434572Y-100826219D01*
X121440136Y-100820078D01*
X121466356Y-100813004D01*
X121491435Y-100802578D01*
X121499592Y-100804038D01*
X121507594Y-100801880D01*
X121533478Y-100810106D01*
X121560211Y-100814893D01*
X121567222Y-100820830D01*
X121574182Y-100823042D01*
X121575943Y-100825168D01*
X121585524Y-100825922D01*
X122265000Y-100146446D01*
X122265000Y-100152661D01*
X122292259Y-100254394D01*
X122344920Y-100345606D01*
X122419394Y-100420080D01*
X122510606Y-100472741D01*
X122612339Y-100500000D01*
X122618553Y-100500000D01*
X121939076Y-101179474D01*
X121983650Y-101211859D01*
X122165968Y-101304755D01*
X122360582Y-101367990D01*
X122562683Y-101400000D01*
X122767317Y-101400000D01*
X122969417Y-101367990D01*
X123164031Y-101304755D01*
X123346349Y-101211859D01*
X123390921Y-101179474D01*
X122711447Y-100500000D01*
X122717661Y-100500000D01*
X122819394Y-100472741D01*
X122910606Y-100420080D01*
X122985080Y-100345606D01*
X123037741Y-100254394D01*
X123065000Y-100152661D01*
X123065000Y-100146447D01*
X123744474Y-100825921D01*
X123776859Y-100781349D01*
X123869755Y-100599031D01*
X123932990Y-100404417D01*
X123965000Y-100202317D01*
X123965000Y-99997682D01*
X123932990Y-99795582D01*
X123869755Y-99600968D01*
X123776859Y-99418650D01*
X123744474Y-99374077D01*
X123744474Y-99374076D01*
X123065000Y-100053551D01*
X123065000Y-100047339D01*
X123037741Y-99945606D01*
X122985080Y-99854394D01*
X122910606Y-99779920D01*
X122819394Y-99727259D01*
X122717661Y-99700000D01*
X122711446Y-99700000D01*
X123390922Y-99020524D01*
X123390921Y-99020523D01*
X123346359Y-98988147D01*
X123346350Y-98988141D01*
X123164031Y-98895244D01*
X122969417Y-98832009D01*
X122767317Y-98800000D01*
X122562683Y-98800000D01*
X122360582Y-98832009D01*
X122165968Y-98895244D01*
X121983644Y-98988143D01*
X121939077Y-99020523D01*
X121939077Y-99020524D01*
X122618554Y-99700000D01*
X122612339Y-99700000D01*
X122510606Y-99727259D01*
X122419394Y-99779920D01*
X122344920Y-99854394D01*
X122292259Y-99945606D01*
X122265000Y-100047339D01*
X122265000Y-100053553D01*
X121585524Y-99374077D01*
X121568345Y-99375429D01*
X121549840Y-99389699D01*
X121545786Y-99390047D01*
X121542410Y-99392324D01*
X121511261Y-99393012D01*
X121480227Y-99395678D01*
X121476626Y-99393778D01*
X121472557Y-99393868D01*
X121445985Y-99377610D01*
X121418432Y-99363072D01*
X121415434Y-99358918D01*
X121412958Y-99357403D01*
X121407124Y-99347402D01*
X121393225Y-99328140D01*
X121389696Y-99320844D01*
X121359814Y-99230666D01*
X121267712Y-99081344D01*
X121143656Y-98957288D01*
X120994334Y-98865186D01*
X120827797Y-98810001D01*
X120827795Y-98810000D01*
X120725010Y-98799500D01*
X119524998Y-98799500D01*
X119524981Y-98799501D01*
X119422203Y-98810000D01*
X119422200Y-98810001D01*
X119255668Y-98865185D01*
X119255663Y-98865187D01*
X119106342Y-98957289D01*
X118982289Y-99081342D01*
X118890187Y-99230663D01*
X118890184Y-99230671D01*
X118878972Y-99264506D01*
X118839199Y-99321950D01*
X118774683Y-99348772D01*
X118761267Y-99349500D01*
X118126080Y-99349500D01*
X117981092Y-99378340D01*
X117981082Y-99378343D01*
X117844511Y-99434912D01*
X117844499Y-99434919D01*
X117772614Y-99482952D01*
X117772613Y-99482953D01*
X117721581Y-99517050D01*
X117721580Y-99517051D01*
X117204552Y-100034078D01*
X117204549Y-100034081D01*
X117163958Y-100094830D01*
X117163959Y-100094831D01*
X117122414Y-100157008D01*
X117065843Y-100293582D01*
X117065840Y-100293592D01*
X117037000Y-100438579D01*
X117037000Y-102725270D01*
X117017315Y-102792309D01*
X117000681Y-102812951D01*
X116932289Y-102881342D01*
X116840187Y-103030663D01*
X116840186Y-103030666D01*
X116785001Y-103197203D01*
X116785001Y-103197204D01*
X116785000Y-103197204D01*
X116774500Y-103299983D01*
X116774500Y-104300001D01*
X116774501Y-104300019D01*
X116785000Y-104402796D01*
X116785001Y-104402799D01*
X116840185Y-104569331D01*
X116840187Y-104569336D01*
X116850971Y-104586819D01*
X116932288Y-104718656D01*
X117056344Y-104842712D01*
X117205666Y-104934814D01*
X117372203Y-104989999D01*
X117474991Y-105000500D01*
X118100008Y-105000499D01*
X118100016Y-105000498D01*
X118100019Y-105000498D01*
X118156302Y-104994748D01*
X118202797Y-104989999D01*
X118369334Y-104934814D01*
X118518656Y-104842712D01*
X118612319Y-104749049D01*
X118673642Y-104715564D01*
X118743334Y-104720548D01*
X118787681Y-104749049D01*
X118881344Y-104842712D01*
X119030666Y-104934814D01*
X119197203Y-104989999D01*
X119299991Y-105000500D01*
X119925008Y-105000499D01*
X119925016Y-105000498D01*
X119925019Y-105000498D01*
X119981302Y-104994748D01*
X120027797Y-104989999D01*
X120194334Y-104934814D01*
X120343656Y-104842712D01*
X120467712Y-104718656D01*
X120535099Y-104609402D01*
X120587047Y-104562679D01*
X120640638Y-104550500D01*
X122137770Y-104550500D01*
X122204809Y-104570185D01*
X122225451Y-104586819D01*
X123813181Y-106174548D01*
X123846666Y-106235871D01*
X123849500Y-106262229D01*
X123849500Y-106889864D01*
X123829815Y-106956903D01*
X123777011Y-107002658D01*
X123707853Y-107012602D01*
X123644297Y-106983577D01*
X123620506Y-106955836D01*
X123613908Y-106945335D01*
X123433916Y-106719634D01*
X122115270Y-108038281D01*
X122029722Y-107920534D01*
X121879466Y-107770278D01*
X121761716Y-107684728D01*
X123080364Y-106366081D01*
X122854664Y-106186092D01*
X122550336Y-105994870D01*
X122226517Y-105838927D01*
X121887270Y-105720220D01*
X121887268Y-105720219D01*
X121536863Y-105640242D01*
X121536851Y-105640240D01*
X121179712Y-105600000D01*
X120820287Y-105600000D01*
X120463148Y-105640240D01*
X120463136Y-105640242D01*
X120112731Y-105720219D01*
X120112729Y-105720220D01*
X119773482Y-105838927D01*
X119449663Y-105994870D01*
X119145335Y-106186092D01*
X118919634Y-106366081D01*
X120238282Y-107684729D01*
X120120534Y-107770278D01*
X119970278Y-107920534D01*
X119884729Y-108038282D01*
X118566081Y-106719634D01*
X118386092Y-106945335D01*
X118194870Y-107249663D01*
X118038927Y-107573482D01*
X117920220Y-107912729D01*
X117920219Y-107912731D01*
X117840242Y-108263136D01*
X117840240Y-108263148D01*
X117800000Y-108620287D01*
X117800000Y-108979712D01*
X117840240Y-109336851D01*
X117840242Y-109336863D01*
X117920219Y-109687268D01*
X117920220Y-109687270D01*
X118038927Y-110026517D01*
X118194870Y-110350336D01*
X118386092Y-110654664D01*
X118566081Y-110880364D01*
X119884728Y-109561717D01*
X119970278Y-109679466D01*
X120120534Y-109829722D01*
X120238281Y-109915270D01*
X118919634Y-111233916D01*
X118919634Y-111233917D01*
X119145335Y-111413907D01*
X119449663Y-111605129D01*
X119773482Y-111761072D01*
X120112729Y-111879779D01*
X120112731Y-111879780D01*
X120463136Y-111959757D01*
X120463148Y-111959759D01*
X120820287Y-111999999D01*
X120820289Y-112000000D01*
X121179711Y-112000000D01*
X121179712Y-111999999D01*
X121536851Y-111959759D01*
X121536863Y-111959757D01*
X121887268Y-111879780D01*
X121887270Y-111879779D01*
X122226517Y-111761072D01*
X122550336Y-111605129D01*
X122854664Y-111413907D01*
X123080364Y-111233916D01*
X121761718Y-109915270D01*
X121879466Y-109829722D01*
X122029722Y-109679466D01*
X122115270Y-109561718D01*
X123433916Y-110880364D01*
X123613907Y-110654664D01*
X123805129Y-110350336D01*
X123961072Y-110026517D01*
X124079779Y-109687270D01*
X124079780Y-109687268D01*
X124159757Y-109336863D01*
X124159760Y-109336849D01*
X124191508Y-109055074D01*
X124218574Y-108990660D01*
X124276169Y-108951105D01*
X124346006Y-108948967D01*
X124402407Y-108981275D01*
X125462049Y-110040916D01*
X125566584Y-110145451D01*
X125566587Y-110145453D01*
X125566588Y-110145454D01*
X125689503Y-110227583D01*
X125689506Y-110227585D01*
X125720463Y-110240407D01*
X125735397Y-110246593D01*
X125826088Y-110284159D01*
X125942241Y-110307263D01*
X125947725Y-110308354D01*
X125953060Y-110309924D01*
X125971359Y-110321700D01*
X126006584Y-110340117D01*
X126010409Y-110346832D01*
X126011814Y-110347736D01*
X126015376Y-110355550D01*
X126041170Y-110400825D01*
X126044500Y-110429367D01*
X126044500Y-111330370D01*
X126044501Y-111330376D01*
X126050908Y-111389983D01*
X126063925Y-111424881D01*
X126068909Y-111494572D01*
X126063925Y-111511547D01*
X126051403Y-111545119D01*
X126051401Y-111545127D01*
X126045000Y-111604655D01*
X126045000Y-111852500D01*
X128545000Y-111852500D01*
X128545000Y-111707000D01*
X128564685Y-111639961D01*
X128617489Y-111594206D01*
X128669000Y-111583000D01*
X129041420Y-111583000D01*
X129138962Y-111563596D01*
X129186413Y-111554158D01*
X129322995Y-111497584D01*
X129372229Y-111464686D01*
X129445916Y-111415452D01*
X130715297Y-110146069D01*
X130755524Y-110119191D01*
X130779179Y-110109394D01*
X130910289Y-110021789D01*
X131021789Y-109910289D01*
X131109394Y-109779179D01*
X131169737Y-109633497D01*
X131200500Y-109478842D01*
X131200500Y-109321158D01*
X131200500Y-109321155D01*
X131200499Y-109321153D01*
X131199916Y-109318220D01*
X131169737Y-109166503D01*
X131164373Y-109153553D01*
X131109397Y-109020827D01*
X131109390Y-109020814D01*
X131021789Y-108889711D01*
X131021786Y-108889707D01*
X130910292Y-108778213D01*
X130910288Y-108778210D01*
X130779185Y-108690609D01*
X130779172Y-108690602D01*
X130633501Y-108630264D01*
X130633494Y-108630262D01*
X130608801Y-108625350D01*
X130546891Y-108592963D01*
X130512318Y-108532247D01*
X130516059Y-108462477D01*
X130545311Y-108416056D01*
X131754637Y-107206728D01*
X131815958Y-107173245D01*
X131818079Y-107172803D01*
X131833497Y-107169737D01*
X131979179Y-107109394D01*
X132110289Y-107021789D01*
X132221789Y-106910289D01*
X132255161Y-106860344D01*
X134175000Y-106860344D01*
X134181401Y-106919872D01*
X134181403Y-106919879D01*
X134231645Y-107054586D01*
X134231649Y-107054593D01*
X134317809Y-107169687D01*
X134317812Y-107169690D01*
X134432906Y-107255850D01*
X134432913Y-107255854D01*
X134567620Y-107306096D01*
X134567627Y-107306098D01*
X134627155Y-107312499D01*
X134627172Y-107312500D01*
X134950000Y-107312500D01*
X135450000Y-107312500D01*
X135772828Y-107312500D01*
X135772844Y-107312499D01*
X135832377Y-107306097D01*
X135832379Y-107306097D01*
X135919165Y-107273727D01*
X135988857Y-107268741D01*
X136005835Y-107273727D01*
X136092621Y-107306097D01*
X136152155Y-107312499D01*
X136152172Y-107312500D01*
X136475000Y-107312500D01*
X136975000Y-107312500D01*
X137297828Y-107312500D01*
X137297844Y-107312499D01*
X137357377Y-107306097D01*
X137357379Y-107306097D01*
X137444165Y-107273727D01*
X137513857Y-107268741D01*
X137530835Y-107273727D01*
X137617621Y-107306097D01*
X137677155Y-107312499D01*
X137677172Y-107312500D01*
X138000000Y-107312500D01*
X138500000Y-107312500D01*
X138822828Y-107312500D01*
X138822844Y-107312499D01*
X138882372Y-107306098D01*
X138882379Y-107306096D01*
X139017086Y-107255854D01*
X139017093Y-107255850D01*
X139132187Y-107169690D01*
X139132190Y-107169687D01*
X139218350Y-107054593D01*
X139218354Y-107054586D01*
X139268596Y-106919879D01*
X139268598Y-106919872D01*
X139274999Y-106860344D01*
X139275000Y-106860327D01*
X139275000Y-106537500D01*
X138500000Y-106537500D01*
X138500000Y-107312500D01*
X138000000Y-107312500D01*
X138000000Y-106537500D01*
X136975000Y-106537500D01*
X136975000Y-107312500D01*
X136475000Y-107312500D01*
X136475000Y-106537500D01*
X135450000Y-106537500D01*
X135450000Y-107312500D01*
X134950000Y-107312500D01*
X134950000Y-106537500D01*
X134175000Y-106537500D01*
X134175000Y-106860344D01*
X132255161Y-106860344D01*
X132309394Y-106779179D01*
X132369737Y-106633497D01*
X132400500Y-106478842D01*
X132400500Y-106321158D01*
X132400500Y-106321155D01*
X132400499Y-106321153D01*
X132383535Y-106235871D01*
X132369737Y-106166503D01*
X132369735Y-106166498D01*
X132309397Y-106020827D01*
X132309390Y-106020814D01*
X132221789Y-105889711D01*
X132221786Y-105889707D01*
X132110292Y-105778213D01*
X132110288Y-105778210D01*
X131979185Y-105690609D01*
X131979172Y-105690602D01*
X131833501Y-105630264D01*
X131833489Y-105630261D01*
X131755094Y-105614667D01*
X131693183Y-105582282D01*
X131658609Y-105521566D01*
X131662348Y-105451797D01*
X131664717Y-105445616D01*
X131669737Y-105433497D01*
X131689261Y-105335344D01*
X134175000Y-105335344D01*
X134181401Y-105394872D01*
X134181403Y-105394883D01*
X134213772Y-105481668D01*
X134218756Y-105551359D01*
X134213772Y-105568332D01*
X134181403Y-105655116D01*
X134181401Y-105655127D01*
X134175000Y-105714655D01*
X134175000Y-106037500D01*
X134950000Y-106037500D01*
X135450000Y-106037500D01*
X136475000Y-106037500D01*
X136975000Y-106037500D01*
X138000000Y-106037500D01*
X138500000Y-106037500D01*
X139275000Y-106037500D01*
X139275000Y-105714672D01*
X139274999Y-105714655D01*
X139268597Y-105655122D01*
X139268597Y-105655120D01*
X139236227Y-105568335D01*
X139231241Y-105498643D01*
X139236227Y-105481665D01*
X139268597Y-105394879D01*
X139268597Y-105394877D01*
X139274999Y-105335344D01*
X139275000Y-105335327D01*
X139275000Y-105012500D01*
X138500000Y-105012500D01*
X138500000Y-106037500D01*
X138000000Y-106037500D01*
X138000000Y-105012500D01*
X136975000Y-105012500D01*
X136975000Y-106037500D01*
X136475000Y-106037500D01*
X136475000Y-105012500D01*
X135450000Y-105012500D01*
X135450000Y-106037500D01*
X134950000Y-106037500D01*
X134950000Y-105012500D01*
X134175000Y-105012500D01*
X134175000Y-105335344D01*
X131689261Y-105335344D01*
X131700500Y-105278842D01*
X131700500Y-105121158D01*
X131700500Y-105121155D01*
X131673482Y-104985330D01*
X131673481Y-104985329D01*
X131669737Y-104966503D01*
X131656610Y-104934812D01*
X131609397Y-104820827D01*
X131609390Y-104820814D01*
X131521789Y-104689711D01*
X131521786Y-104689707D01*
X131410292Y-104578213D01*
X131410288Y-104578210D01*
X131279185Y-104490609D01*
X131279172Y-104490602D01*
X131133501Y-104430264D01*
X131133489Y-104430261D01*
X130978845Y-104399500D01*
X130978842Y-104399500D01*
X130821158Y-104399500D01*
X130821155Y-104399500D01*
X130666510Y-104430261D01*
X130666498Y-104430264D01*
X130520828Y-104490602D01*
X130520812Y-104490611D01*
X130480972Y-104517231D01*
X130459540Y-104528687D01*
X130444509Y-104534913D01*
X130321581Y-104617050D01*
X128757180Y-106181451D01*
X128695857Y-106214936D01*
X128626165Y-106209952D01*
X128570232Y-106168080D01*
X128545815Y-106102616D01*
X128545499Y-106093793D01*
X128545499Y-105254628D01*
X128539091Y-105195017D01*
X128526340Y-105160832D01*
X128521357Y-105091142D01*
X128526340Y-105074169D01*
X128539091Y-105039983D01*
X128545500Y-104980373D01*
X128545499Y-103984628D01*
X128539091Y-103925017D01*
X128526340Y-103890832D01*
X128521357Y-103821142D01*
X128524527Y-103810344D01*
X134175000Y-103810344D01*
X134181401Y-103869872D01*
X134181403Y-103869883D01*
X134213772Y-103956668D01*
X134218756Y-104026359D01*
X134213772Y-104043332D01*
X134181403Y-104130116D01*
X134181401Y-104130127D01*
X134175000Y-104189655D01*
X134175000Y-104512500D01*
X134950000Y-104512500D01*
X135450000Y-104512500D01*
X136475000Y-104512500D01*
X136975000Y-104512500D01*
X138000000Y-104512500D01*
X138000000Y-103487500D01*
X136975000Y-103487500D01*
X136975000Y-104512500D01*
X136475000Y-104512500D01*
X136475000Y-103487500D01*
X135450000Y-103487500D01*
X135450000Y-104512500D01*
X134950000Y-104512500D01*
X134950000Y-103487500D01*
X134175000Y-103487500D01*
X134175000Y-103810344D01*
X128524527Y-103810344D01*
X128526340Y-103804169D01*
X128539091Y-103769983D01*
X128545500Y-103710373D01*
X128545499Y-103197204D01*
X128545499Y-102714629D01*
X128545498Y-102714620D01*
X128542186Y-102683811D01*
X128540127Y-102664655D01*
X134175000Y-102664655D01*
X134175000Y-102987500D01*
X134950000Y-102987500D01*
X135450000Y-102987500D01*
X136475000Y-102987500D01*
X136975000Y-102987500D01*
X138000000Y-102987500D01*
X138000000Y-102212500D01*
X137677155Y-102212500D01*
X137617627Y-102218901D01*
X137617616Y-102218903D01*
X137530832Y-102251272D01*
X137461141Y-102256256D01*
X137444168Y-102251272D01*
X137357383Y-102218903D01*
X137357372Y-102218901D01*
X137297844Y-102212500D01*
X136975000Y-102212500D01*
X136975000Y-102987500D01*
X136475000Y-102987500D01*
X136475000Y-102212500D01*
X136152155Y-102212500D01*
X136092627Y-102218901D01*
X136092616Y-102218903D01*
X136005832Y-102251272D01*
X135936141Y-102256256D01*
X135919168Y-102251272D01*
X135832383Y-102218903D01*
X135832372Y-102218901D01*
X135772844Y-102212500D01*
X135450000Y-102212500D01*
X135450000Y-102987500D01*
X134950000Y-102987500D01*
X134950000Y-102212500D01*
X134627155Y-102212500D01*
X134567627Y-102218901D01*
X134567620Y-102218903D01*
X134432913Y-102269145D01*
X134432906Y-102269149D01*
X134317812Y-102355309D01*
X134317809Y-102355312D01*
X134231649Y-102470406D01*
X134231645Y-102470413D01*
X134181403Y-102605120D01*
X134181401Y-102605127D01*
X134175000Y-102664655D01*
X128540127Y-102664655D01*
X128539091Y-102655017D01*
X128524154Y-102614969D01*
X128522570Y-102608921D01*
X128523420Y-102580002D01*
X128521357Y-102551142D01*
X128524594Y-102540114D01*
X128524625Y-102539081D01*
X128525102Y-102538383D01*
X128526340Y-102534169D01*
X128539091Y-102499983D01*
X128545500Y-102440373D01*
X128545499Y-101444628D01*
X128539091Y-101385017D01*
X128526340Y-101350832D01*
X128521357Y-101281142D01*
X128526340Y-101264169D01*
X128539091Y-101229983D01*
X128545500Y-101170373D01*
X128545499Y-100174628D01*
X128539091Y-100115017D01*
X128526340Y-100080832D01*
X128521357Y-100011142D01*
X128526340Y-99994169D01*
X128539091Y-99959983D01*
X128545500Y-99900373D01*
X128545499Y-98921153D01*
X130499500Y-98921153D01*
X130499500Y-99078846D01*
X130530261Y-99233489D01*
X130530264Y-99233501D01*
X130590602Y-99379172D01*
X130590609Y-99379185D01*
X130678210Y-99510288D01*
X130678213Y-99510292D01*
X130780240Y-99612319D01*
X130813725Y-99673642D01*
X130808741Y-99743334D01*
X130780240Y-99787681D01*
X130678213Y-99889707D01*
X130678210Y-99889711D01*
X130590609Y-100020814D01*
X130590602Y-100020827D01*
X130530264Y-100166498D01*
X130530261Y-100166510D01*
X130499500Y-100321153D01*
X130499500Y-100478846D01*
X130530261Y-100633489D01*
X130530264Y-100633501D01*
X130590602Y-100779172D01*
X130590609Y-100779185D01*
X130678210Y-100910288D01*
X130678213Y-100910292D01*
X130789707Y-101021786D01*
X130789711Y-101021789D01*
X130920814Y-101109390D01*
X130920827Y-101109397D01*
X131020060Y-101150500D01*
X131066503Y-101169737D01*
X131165858Y-101189500D01*
X131221153Y-101200499D01*
X131221156Y-101200500D01*
X131221158Y-101200500D01*
X131378844Y-101200500D01*
X131378845Y-101200499D01*
X131455152Y-101185320D01*
X131533488Y-101169739D01*
X131533489Y-101169738D01*
X131533497Y-101169737D01*
X131557155Y-101159937D01*
X131604604Y-101150500D01*
X138837770Y-101150500D01*
X138904809Y-101170185D01*
X138925451Y-101186819D01*
X139213181Y-101474549D01*
X139246666Y-101535872D01*
X139249500Y-101562230D01*
X139249500Y-102195407D01*
X139229815Y-102262446D01*
X139177011Y-102308201D01*
X139107853Y-102318145D01*
X139051189Y-102294674D01*
X139017089Y-102269147D01*
X139017086Y-102269145D01*
X138882379Y-102218903D01*
X138882372Y-102218901D01*
X138822844Y-102212500D01*
X138500000Y-102212500D01*
X138500000Y-104512500D01*
X139275000Y-104512500D01*
X139275000Y-104235730D01*
X139294685Y-104168691D01*
X139347489Y-104122936D01*
X139416647Y-104112992D01*
X139480203Y-104142017D01*
X139486681Y-104148049D01*
X140412707Y-105074074D01*
X140412728Y-105074097D01*
X141569549Y-106230916D01*
X141629235Y-106290602D01*
X141674085Y-106335452D01*
X141796998Y-106417580D01*
X141797011Y-106417587D01*
X141911521Y-106465018D01*
X141933587Y-106474158D01*
X141933591Y-106474158D01*
X141933592Y-106474159D01*
X142078579Y-106503000D01*
X142078582Y-106503000D01*
X142078583Y-106503000D01*
X142226417Y-106503000D01*
X143420500Y-106503000D01*
X143487539Y-106522685D01*
X143533294Y-106575489D01*
X143544500Y-106627000D01*
X143544500Y-107520370D01*
X143544501Y-107520376D01*
X143550908Y-107579981D01*
X143563659Y-107614169D01*
X143568642Y-107683861D01*
X143563659Y-107700831D01*
X143550908Y-107735018D01*
X143544501Y-107794616D01*
X143544501Y-107794623D01*
X143544500Y-107794635D01*
X143544500Y-108790370D01*
X143544501Y-108790376D01*
X143550908Y-108849981D01*
X143563659Y-108884169D01*
X143568642Y-108953861D01*
X143563659Y-108970831D01*
X143550908Y-109005018D01*
X143544501Y-109064616D01*
X143544500Y-109064635D01*
X143544500Y-110060370D01*
X143544501Y-110060376D01*
X143550908Y-110119981D01*
X143563659Y-110154169D01*
X143568642Y-110223861D01*
X143563659Y-110240831D01*
X143550908Y-110275018D01*
X143544501Y-110334616D01*
X143544500Y-110334635D01*
X143544500Y-111330370D01*
X143544501Y-111330376D01*
X143550908Y-111389983D01*
X143563925Y-111424881D01*
X143568909Y-111494572D01*
X143563925Y-111511547D01*
X143551403Y-111545119D01*
X143551401Y-111545127D01*
X143545000Y-111604655D01*
X143545000Y-111852500D01*
X146045000Y-111852500D01*
X146045000Y-111707000D01*
X146064685Y-111639961D01*
X146117489Y-111594206D01*
X146169000Y-111583000D01*
X148041420Y-111583000D01*
X148138962Y-111563596D01*
X148186413Y-111554158D01*
X148322995Y-111497584D01*
X148372229Y-111464686D01*
X148445916Y-111415452D01*
X152115295Y-107746070D01*
X152155519Y-107719193D01*
X152179179Y-107709394D01*
X152310289Y-107621789D01*
X152421789Y-107510289D01*
X152509394Y-107379179D01*
X152569737Y-107233497D01*
X152600500Y-107078842D01*
X152600500Y-106921158D01*
X152600500Y-106921155D01*
X152600499Y-106921153D01*
X152588400Y-106860327D01*
X152569737Y-106766503D01*
X152569735Y-106766498D01*
X152509397Y-106620827D01*
X152509390Y-106620814D01*
X152421789Y-106489711D01*
X152421786Y-106489707D01*
X152310292Y-106378213D01*
X152310288Y-106378210D01*
X152179185Y-106290609D01*
X152179172Y-106290602D01*
X152033501Y-106230264D01*
X152033489Y-106230261D01*
X151878845Y-106199500D01*
X151878842Y-106199500D01*
X151721158Y-106199500D01*
X151721155Y-106199500D01*
X151566510Y-106230261D01*
X151566498Y-106230264D01*
X151420827Y-106290602D01*
X151420814Y-106290609D01*
X151289711Y-106378210D01*
X151289707Y-106378213D01*
X151178213Y-106489707D01*
X151178207Y-106489715D01*
X151090607Y-106620818D01*
X151090605Y-106620822D01*
X151080805Y-106644480D01*
X151053927Y-106684704D01*
X150012181Y-107726451D01*
X149950858Y-107759936D01*
X149881166Y-107754952D01*
X149825233Y-107713080D01*
X149800816Y-107647616D01*
X149800500Y-107638770D01*
X149800500Y-102822631D01*
X149820185Y-102755592D01*
X149851614Y-102722313D01*
X149862182Y-102714635D01*
X150027510Y-102594517D01*
X150194517Y-102427510D01*
X150322313Y-102251613D01*
X150377643Y-102208949D01*
X150422631Y-102200500D01*
X154177369Y-102200500D01*
X154244408Y-102220185D01*
X154277685Y-102251613D01*
X154405483Y-102427510D01*
X154572490Y-102594517D01*
X154763567Y-102733343D01*
X154850511Y-102777643D01*
X154974003Y-102840566D01*
X154974005Y-102840566D01*
X154974008Y-102840568D01*
X155075771Y-102873633D01*
X155198631Y-102913553D01*
X155431903Y-102950500D01*
X155431908Y-102950500D01*
X155668097Y-102950500D01*
X155901368Y-102913553D01*
X156125992Y-102840568D01*
X156336433Y-102733343D01*
X156527510Y-102594517D01*
X156694517Y-102427510D01*
X156833343Y-102236433D01*
X156940568Y-102025992D01*
X157013553Y-101801368D01*
X157033410Y-101675996D01*
X157050500Y-101568097D01*
X157050500Y-101331902D01*
X157013553Y-101098631D01*
X156952356Y-100910288D01*
X156940568Y-100874008D01*
X156940566Y-100874005D01*
X156940566Y-100874003D01*
X156851911Y-100700009D01*
X156833343Y-100663567D01*
X156694517Y-100472490D01*
X156527510Y-100305483D01*
X156457192Y-100254394D01*
X156351614Y-100177686D01*
X156308949Y-100122355D01*
X156300500Y-100077368D01*
X156300500Y-99961866D01*
X156271659Y-99816879D01*
X156271658Y-99816878D01*
X156271658Y-99816874D01*
X156215084Y-99680292D01*
X156175857Y-99621584D01*
X156175857Y-99621583D01*
X156132950Y-99557368D01*
X155218961Y-98643379D01*
X155185476Y-98582056D01*
X155190460Y-98512364D01*
X155232332Y-98456431D01*
X155297796Y-98432014D01*
X155326041Y-98433225D01*
X155431949Y-98450000D01*
X155668052Y-98450000D01*
X155901247Y-98413065D01*
X156125802Y-98340102D01*
X156336163Y-98232918D01*
X156336169Y-98232914D01*
X156419104Y-98172658D01*
X156419105Y-98172658D01*
X155720233Y-97473787D01*
X155762292Y-97462518D01*
X155887708Y-97390110D01*
X155990110Y-97287708D01*
X156062518Y-97162292D01*
X156073787Y-97120234D01*
X156772658Y-97819105D01*
X156772658Y-97819104D01*
X156832914Y-97736169D01*
X156832918Y-97736163D01*
X156940102Y-97525802D01*
X157013065Y-97301247D01*
X157050000Y-97068052D01*
X157050000Y-96831947D01*
X157013065Y-96598752D01*
X156940102Y-96374197D01*
X156832914Y-96163828D01*
X156772658Y-96080894D01*
X156772658Y-96080893D01*
X156073787Y-96779765D01*
X156062518Y-96737708D01*
X155990110Y-96612292D01*
X155887708Y-96509890D01*
X155762292Y-96437482D01*
X155720234Y-96426212D01*
X156419105Y-95727340D01*
X156419104Y-95727338D01*
X156336174Y-95667087D01*
X156125802Y-95559897D01*
X155901247Y-95486934D01*
X155901248Y-95486934D01*
X155668052Y-95450000D01*
X155431948Y-95450000D01*
X155198752Y-95486934D01*
X154974197Y-95559897D01*
X154763830Y-95667084D01*
X154680894Y-95727340D01*
X155379766Y-96426212D01*
X155337708Y-96437482D01*
X155212292Y-96509890D01*
X155109890Y-96612292D01*
X155037482Y-96737708D01*
X155026212Y-96779766D01*
X154327340Y-96080894D01*
X154267084Y-96163830D01*
X154159897Y-96374197D01*
X154086934Y-96598752D01*
X154050000Y-96831947D01*
X154050000Y-97068052D01*
X154066774Y-97173960D01*
X154057819Y-97243254D01*
X154012823Y-97296706D01*
X153946071Y-97317345D01*
X153878758Y-97298620D01*
X153856620Y-97281039D01*
X150586819Y-94011238D01*
X150553334Y-93949915D01*
X150550500Y-93923557D01*
X150550500Y-90426080D01*
X150541550Y-90381089D01*
X150541550Y-90381087D01*
X150521660Y-90281094D01*
X150521659Y-90281088D01*
X150465084Y-90144506D01*
X150465084Y-90144505D01*
X150390911Y-90033497D01*
X150390139Y-90032342D01*
X150390124Y-90032318D01*
X150382955Y-90021589D01*
X150382950Y-90021583D01*
X149567921Y-89206554D01*
X149534436Y-89145231D01*
X149534012Y-89143199D01*
X149521658Y-89081087D01*
X149489230Y-89002799D01*
X149465087Y-88944511D01*
X149465080Y-88944498D01*
X149382952Y-88821585D01*
X149360398Y-88799031D01*
X149278416Y-88717049D01*
X147718655Y-87157288D01*
X146086819Y-85525451D01*
X146053334Y-85464128D01*
X146050500Y-85437770D01*
X146050500Y-78704604D01*
X146059939Y-78657151D01*
X146069737Y-78633497D01*
X146100500Y-78478842D01*
X146100500Y-78321158D01*
X146100500Y-78321155D01*
X146100499Y-78321153D01*
X146095228Y-78294653D01*
X146069737Y-78166503D01*
X146050955Y-78121158D01*
X146028246Y-78066333D01*
X146009397Y-78020827D01*
X146009390Y-78020814D01*
X145921789Y-77889711D01*
X145921786Y-77889707D01*
X145810292Y-77778213D01*
X145810288Y-77778210D01*
X145679185Y-77690609D01*
X145679172Y-77690602D01*
X145533501Y-77630264D01*
X145533489Y-77630261D01*
X145378845Y-77599500D01*
X145378842Y-77599500D01*
X145221158Y-77599500D01*
X145221155Y-77599500D01*
X145066510Y-77630261D01*
X145066498Y-77630264D01*
X144920827Y-77690602D01*
X144920814Y-77690609D01*
X144789711Y-77778210D01*
X144789707Y-77778213D01*
X144678213Y-77889707D01*
X144678210Y-77889711D01*
X144590609Y-78020814D01*
X144590602Y-78020827D01*
X144530264Y-78166498D01*
X144530261Y-78166510D01*
X144499500Y-78321153D01*
X144499500Y-78478846D01*
X144530261Y-78633489D01*
X144530263Y-78633497D01*
X144540061Y-78657151D01*
X144549500Y-78704604D01*
X144549500Y-85873918D01*
X144549500Y-85873920D01*
X144549499Y-85873920D01*
X144578340Y-86018907D01*
X144578343Y-86018917D01*
X144634914Y-86155492D01*
X144667812Y-86204727D01*
X144667813Y-86204730D01*
X144717046Y-86278414D01*
X144717052Y-86278421D01*
X148032076Y-89593443D01*
X148065561Y-89654766D01*
X148066012Y-89656932D01*
X148078340Y-89718907D01*
X148078342Y-89718915D01*
X148134914Y-89855492D01*
X148167812Y-89904727D01*
X148167813Y-89904730D01*
X148217046Y-89978414D01*
X148217052Y-89978421D01*
X149013181Y-90774548D01*
X149046666Y-90835871D01*
X149049500Y-90862229D01*
X149049500Y-94359705D01*
X149049500Y-94359707D01*
X149049499Y-94359707D01*
X149078340Y-94504694D01*
X149078343Y-94504704D01*
X149134914Y-94641279D01*
X149134915Y-94641281D01*
X149134916Y-94641282D01*
X149167468Y-94690000D01*
X149167812Y-94690514D01*
X149167813Y-94690517D01*
X149217046Y-94764201D01*
X149217052Y-94764208D01*
X149861111Y-95408267D01*
X149894596Y-95469590D01*
X149889612Y-95539282D01*
X149847740Y-95595215D01*
X149782276Y-95619632D01*
X149717136Y-95606433D01*
X149625805Y-95559898D01*
X149401247Y-95486934D01*
X149401248Y-95486934D01*
X149168052Y-95450000D01*
X148931948Y-95450000D01*
X148698752Y-95486934D01*
X148474197Y-95559897D01*
X148263830Y-95667084D01*
X148180894Y-95727340D01*
X148879766Y-96426212D01*
X148837708Y-96437482D01*
X148712292Y-96509890D01*
X148609890Y-96612292D01*
X148537482Y-96737708D01*
X148526212Y-96779766D01*
X147827340Y-96080894D01*
X147767084Y-96163830D01*
X147659897Y-96374197D01*
X147586934Y-96598752D01*
X147550000Y-96831947D01*
X147550000Y-97068052D01*
X147586934Y-97301247D01*
X147659897Y-97525802D01*
X147767087Y-97736174D01*
X147827338Y-97819104D01*
X147827340Y-97819105D01*
X148526212Y-97120233D01*
X148537482Y-97162292D01*
X148609890Y-97287708D01*
X148712292Y-97390110D01*
X148837708Y-97462518D01*
X148879765Y-97473787D01*
X148180893Y-98172658D01*
X148263828Y-98232914D01*
X148474197Y-98340102D01*
X148698752Y-98413065D01*
X148698751Y-98413065D01*
X148931948Y-98450000D01*
X149168052Y-98450000D01*
X149401247Y-98413065D01*
X149625802Y-98340102D01*
X149836163Y-98232918D01*
X149836169Y-98232914D01*
X149919104Y-98172658D01*
X149919105Y-98172658D01*
X149220233Y-97473787D01*
X149262292Y-97462518D01*
X149387708Y-97390110D01*
X149490110Y-97287708D01*
X149562518Y-97162292D01*
X149573787Y-97120233D01*
X150272658Y-97819105D01*
X150272658Y-97819104D01*
X150332914Y-97736169D01*
X150332918Y-97736163D01*
X150440102Y-97525802D01*
X150513065Y-97301247D01*
X150550000Y-97068052D01*
X150550000Y-96831947D01*
X150513065Y-96598752D01*
X150440101Y-96374194D01*
X150393566Y-96282862D01*
X150380670Y-96214193D01*
X150406947Y-96149453D01*
X150464053Y-96109196D01*
X150533859Y-96106204D01*
X150591732Y-96138887D01*
X154577868Y-100125023D01*
X154611353Y-100186346D01*
X154606369Y-100256038D01*
X154574918Y-100301021D01*
X154575935Y-100302038D01*
X154405485Y-100472487D01*
X154405485Y-100472488D01*
X154405483Y-100472490D01*
X154277687Y-100648386D01*
X154222357Y-100691051D01*
X154177369Y-100699500D01*
X150422631Y-100699500D01*
X150355592Y-100679815D01*
X150322313Y-100648386D01*
X150194517Y-100472490D01*
X150027510Y-100305483D01*
X149836433Y-100166657D01*
X149817490Y-100157005D01*
X149625996Y-100059433D01*
X149401368Y-99986446D01*
X149168097Y-99949500D01*
X149168092Y-99949500D01*
X148931908Y-99949500D01*
X148931903Y-99949500D01*
X148698631Y-99986446D01*
X148474003Y-100059433D01*
X148263566Y-100166657D01*
X148214485Y-100202317D01*
X148072490Y-100305483D01*
X148072488Y-100305485D01*
X148072487Y-100305485D01*
X147905485Y-100472487D01*
X147905485Y-100472488D01*
X147905483Y-100472490D01*
X147868053Y-100524008D01*
X147766657Y-100663566D01*
X147659433Y-100874003D01*
X147586446Y-101098631D01*
X147549500Y-101331902D01*
X147549500Y-101568097D01*
X147586446Y-101801368D01*
X147659433Y-102025996D01*
X147757724Y-102218901D01*
X147766657Y-102236433D01*
X147905483Y-102427510D01*
X148072490Y-102594517D01*
X148237818Y-102714635D01*
X148248386Y-102722313D01*
X148291051Y-102777643D01*
X148299500Y-102822631D01*
X148299500Y-107287770D01*
X148279815Y-107354809D01*
X148263181Y-107375451D01*
X146862951Y-108775681D01*
X146801628Y-108809166D01*
X146775270Y-108812000D01*
X146169500Y-108812000D01*
X146102461Y-108792315D01*
X146056706Y-108739511D01*
X146045500Y-108688000D01*
X146045499Y-107794629D01*
X146045498Y-107794623D01*
X146045497Y-107794616D01*
X146039091Y-107735017D01*
X146026340Y-107700832D01*
X146021357Y-107631142D01*
X146026340Y-107614169D01*
X146039091Y-107579983D01*
X146045500Y-107520373D01*
X146045499Y-106524628D01*
X146039091Y-106465017D01*
X146026340Y-106430832D01*
X146021357Y-106361142D01*
X146026340Y-106344169D01*
X146039091Y-106309983D01*
X146045500Y-106250373D01*
X146045499Y-105254628D01*
X146039091Y-105195017D01*
X146026340Y-105160832D01*
X146021357Y-105091142D01*
X146026340Y-105074169D01*
X146039091Y-105039983D01*
X146045500Y-104980373D01*
X146045499Y-103984628D01*
X146039091Y-103925017D01*
X146026340Y-103890832D01*
X146021357Y-103821142D01*
X146026340Y-103804169D01*
X146039091Y-103769983D01*
X146045500Y-103710373D01*
X146045499Y-102714628D01*
X146039091Y-102655017D01*
X146026340Y-102620832D01*
X146021357Y-102551142D01*
X146026340Y-102534169D01*
X146039091Y-102499983D01*
X146045500Y-102440373D01*
X146045499Y-101444628D01*
X146039091Y-101385017D01*
X146026340Y-101350832D01*
X146021357Y-101281142D01*
X146026340Y-101264169D01*
X146039091Y-101229983D01*
X146045500Y-101170373D01*
X146045499Y-100174628D01*
X146039091Y-100115017D01*
X146026340Y-100080832D01*
X146021357Y-100011142D01*
X146026340Y-99994169D01*
X146039091Y-99959983D01*
X146045500Y-99900373D01*
X146045499Y-98904628D01*
X146039091Y-98845017D01*
X146026340Y-98810832D01*
X146021357Y-98741142D01*
X146026340Y-98724169D01*
X146039091Y-98689983D01*
X146045500Y-98630373D01*
X146045499Y-97634628D01*
X146039091Y-97575017D01*
X146026340Y-97540832D01*
X146021357Y-97471142D01*
X146026340Y-97454169D01*
X146039091Y-97419983D01*
X146045500Y-97360373D01*
X146045499Y-96364628D01*
X146039091Y-96305017D01*
X146026340Y-96270832D01*
X146021357Y-96201142D01*
X146026340Y-96184169D01*
X146039091Y-96149983D01*
X146045500Y-96090373D01*
X146045499Y-95094628D01*
X146039091Y-95035017D01*
X146029286Y-95008729D01*
X145988797Y-94900171D01*
X145988793Y-94900164D01*
X145902547Y-94784955D01*
X145902544Y-94784952D01*
X145787335Y-94698706D01*
X145787328Y-94698702D01*
X145652482Y-94648408D01*
X145644938Y-94646626D01*
X145645474Y-94644353D01*
X145591688Y-94622071D01*
X145551843Y-94564677D01*
X145545500Y-94525524D01*
X145545500Y-92521079D01*
X145516659Y-92376092D01*
X145516658Y-92376091D01*
X145516658Y-92376087D01*
X145510918Y-92362230D01*
X145460085Y-92239507D01*
X145456669Y-92234394D01*
X145396604Y-92144500D01*
X145390386Y-92135194D01*
X145377954Y-92116586D01*
X143586819Y-90325451D01*
X143553334Y-90264128D01*
X143550500Y-90237770D01*
X143550500Y-78504604D01*
X143559939Y-78457151D01*
X143564505Y-78446127D01*
X143569737Y-78433497D01*
X143600500Y-78278842D01*
X143600500Y-78121158D01*
X143600500Y-78121155D01*
X143600499Y-78121153D01*
X143599032Y-78113780D01*
X143569737Y-77966503D01*
X143569735Y-77966498D01*
X143509397Y-77820827D01*
X143509390Y-77820814D01*
X143421789Y-77689711D01*
X143421786Y-77689707D01*
X143310292Y-77578213D01*
X143310288Y-77578210D01*
X143179185Y-77490609D01*
X143179172Y-77490602D01*
X143033501Y-77430264D01*
X143033489Y-77430261D01*
X142878845Y-77399500D01*
X142878842Y-77399500D01*
X142721158Y-77399500D01*
X142721155Y-77399500D01*
X142566510Y-77430261D01*
X142566498Y-77430264D01*
X142420827Y-77490602D01*
X142420814Y-77490609D01*
X142289711Y-77578210D01*
X142289707Y-77578213D01*
X142178213Y-77689707D01*
X142178210Y-77689711D01*
X142090609Y-77820814D01*
X142090602Y-77820827D01*
X142030264Y-77966498D01*
X142030261Y-77966510D01*
X141999500Y-78121153D01*
X141999500Y-78278846D01*
X142030261Y-78433489D01*
X142030263Y-78433497D01*
X142040061Y-78457151D01*
X142049500Y-78504604D01*
X142049500Y-90673918D01*
X142049500Y-90673920D01*
X142049499Y-90673920D01*
X142078340Y-90818907D01*
X142078343Y-90818917D01*
X142134913Y-90955490D01*
X142134914Y-90955492D01*
X142158783Y-90991214D01*
X142158784Y-90991216D01*
X142217043Y-91078410D01*
X142217047Y-91078415D01*
X144008181Y-92869549D01*
X144041666Y-92930872D01*
X144044500Y-92957230D01*
X144044500Y-94525523D01*
X144024815Y-94592562D01*
X143972011Y-94638317D01*
X143944865Y-94645766D01*
X143945068Y-94646624D01*
X143937520Y-94648407D01*
X143802671Y-94698702D01*
X143802664Y-94698706D01*
X143687455Y-94784952D01*
X143687452Y-94784955D01*
X143601206Y-94900164D01*
X143601202Y-94900171D01*
X143550908Y-95035017D01*
X143545840Y-95082165D01*
X143544501Y-95094623D01*
X143544500Y-95094635D01*
X143544500Y-96090370D01*
X143544501Y-96090376D01*
X143550908Y-96149981D01*
X143563659Y-96184169D01*
X143568642Y-96253861D01*
X143563659Y-96270831D01*
X143550908Y-96305018D01*
X143544501Y-96364616D01*
X143544501Y-96364623D01*
X143544500Y-96364635D01*
X143544500Y-97360370D01*
X143544501Y-97360376D01*
X143550908Y-97419981D01*
X143563659Y-97454169D01*
X143568642Y-97523861D01*
X143563659Y-97540831D01*
X143550908Y-97575018D01*
X143544501Y-97634616D01*
X143544501Y-97634623D01*
X143544500Y-97634635D01*
X143544500Y-98630370D01*
X143544501Y-98630376D01*
X143550908Y-98689981D01*
X143563659Y-98724169D01*
X143568642Y-98793861D01*
X143563659Y-98810831D01*
X143550908Y-98845018D01*
X143548740Y-98865187D01*
X143544501Y-98904623D01*
X143544500Y-98904635D01*
X143544500Y-99900370D01*
X143544501Y-99900376D01*
X143550908Y-99959981D01*
X143563659Y-99994169D01*
X143568642Y-100063861D01*
X143563659Y-100080831D01*
X143550908Y-100115018D01*
X143545357Y-100166657D01*
X143544501Y-100174623D01*
X143544500Y-100174635D01*
X143544500Y-101170370D01*
X143544501Y-101170376D01*
X143550908Y-101229981D01*
X143563659Y-101264169D01*
X143568642Y-101333861D01*
X143563659Y-101350831D01*
X143550908Y-101385018D01*
X143549244Y-101400499D01*
X143544501Y-101444623D01*
X143544500Y-101444635D01*
X143544500Y-102440370D01*
X143544501Y-102440376D01*
X143550908Y-102499981D01*
X143563659Y-102534169D01*
X143568642Y-102603861D01*
X143563659Y-102620831D01*
X143550908Y-102655018D01*
X143547813Y-102683811D01*
X143544501Y-102714623D01*
X143544500Y-102714635D01*
X143544500Y-103483770D01*
X143524815Y-103550809D01*
X143472011Y-103596564D01*
X143402853Y-103606508D01*
X143339297Y-103577483D01*
X143332819Y-103571451D01*
X142974097Y-103212728D01*
X142974074Y-103212707D01*
X141886819Y-102125451D01*
X141853334Y-102064128D01*
X141850500Y-102037770D01*
X141850500Y-100126079D01*
X141821659Y-99981092D01*
X141821658Y-99981091D01*
X141821658Y-99981087D01*
X141813698Y-99961869D01*
X141765087Y-99844511D01*
X141765080Y-99844498D01*
X141682952Y-99721585D01*
X141631552Y-99670185D01*
X141578416Y-99617049D01*
X141283317Y-99321950D01*
X140378421Y-98417052D01*
X140378414Y-98417046D01*
X140304729Y-98367812D01*
X140304729Y-98367813D01*
X140255491Y-98334913D01*
X140118917Y-98278343D01*
X140118907Y-98278340D01*
X139973920Y-98249500D01*
X139973918Y-98249500D01*
X131604604Y-98249500D01*
X131557155Y-98240062D01*
X131533497Y-98230263D01*
X131533493Y-98230262D01*
X131533488Y-98230260D01*
X131378845Y-98199500D01*
X131378842Y-98199500D01*
X131221158Y-98199500D01*
X131221155Y-98199500D01*
X131066510Y-98230261D01*
X131066498Y-98230264D01*
X130920827Y-98290602D01*
X130920814Y-98290609D01*
X130789711Y-98378210D01*
X130789707Y-98378213D01*
X130678213Y-98489707D01*
X130678210Y-98489711D01*
X130590609Y-98620814D01*
X130590602Y-98620827D01*
X130530264Y-98766498D01*
X130530261Y-98766510D01*
X130499500Y-98921153D01*
X128545499Y-98921153D01*
X128545499Y-98904628D01*
X128539091Y-98845017D01*
X128522513Y-98800569D01*
X128520544Y-98789798D01*
X128523099Y-98765504D01*
X128521357Y-98741142D01*
X128526340Y-98724169D01*
X128539091Y-98689983D01*
X128545500Y-98630373D01*
X128545499Y-97634628D01*
X128539091Y-97575017D01*
X128526340Y-97540832D01*
X128521357Y-97471142D01*
X128526340Y-97454169D01*
X128539091Y-97419983D01*
X128545500Y-97360373D01*
X128545499Y-96364628D01*
X128539091Y-96305017D01*
X128526340Y-96270832D01*
X128521357Y-96201142D01*
X128526340Y-96184169D01*
X128539091Y-96149983D01*
X128545500Y-96090373D01*
X128545499Y-95454728D01*
X128565183Y-95387690D01*
X128581814Y-95367052D01*
X129162821Y-94786044D01*
X129224142Y-94752561D01*
X129293833Y-94757545D01*
X129349767Y-94799416D01*
X129374184Y-94864881D01*
X129374500Y-94873727D01*
X129374500Y-95140369D01*
X129374501Y-95140376D01*
X129380908Y-95199983D01*
X129431202Y-95334828D01*
X129431206Y-95334835D01*
X129517452Y-95450044D01*
X129517455Y-95450047D01*
X129632664Y-95536293D01*
X129632671Y-95536297D01*
X129767517Y-95586591D01*
X129767516Y-95586591D01*
X129774444Y-95587335D01*
X129827127Y-95593000D01*
X130822872Y-95592999D01*
X130882483Y-95586591D01*
X130916667Y-95573840D01*
X130986358Y-95568857D01*
X131003327Y-95573838D01*
X131037517Y-95586591D01*
X131097127Y-95593000D01*
X132092872Y-95592999D01*
X132152483Y-95586591D01*
X132186667Y-95573840D01*
X132256358Y-95568857D01*
X132273327Y-95573838D01*
X132307517Y-95586591D01*
X132367127Y-95593000D01*
X133362872Y-95592999D01*
X133422483Y-95586591D01*
X133456667Y-95573840D01*
X133526358Y-95568857D01*
X133543327Y-95573838D01*
X133577517Y-95586591D01*
X133637127Y-95593000D01*
X134632872Y-95592999D01*
X134692483Y-95586591D01*
X134726667Y-95573840D01*
X134796358Y-95568857D01*
X134813327Y-95573838D01*
X134847517Y-95586591D01*
X134907127Y-95593000D01*
X135902872Y-95592999D01*
X135962483Y-95586591D01*
X135996667Y-95573840D01*
X136066358Y-95568857D01*
X136083327Y-95573838D01*
X136117517Y-95586591D01*
X136177127Y-95593000D01*
X137172872Y-95592999D01*
X137232483Y-95586591D01*
X137266667Y-95573840D01*
X137336358Y-95568857D01*
X137353327Y-95573838D01*
X137387517Y-95586591D01*
X137447127Y-95593000D01*
X138442872Y-95592999D01*
X138502483Y-95586591D01*
X138536667Y-95573840D01*
X138606358Y-95568857D01*
X138623327Y-95573838D01*
X138657517Y-95586591D01*
X138717127Y-95593000D01*
X139712872Y-95592999D01*
X139772483Y-95586591D01*
X139806667Y-95573840D01*
X139876358Y-95568857D01*
X139893327Y-95573838D01*
X139927517Y-95586591D01*
X139987127Y-95593000D01*
X140982872Y-95592999D01*
X141042483Y-95586591D01*
X141077381Y-95573574D01*
X141147069Y-95568589D01*
X141164050Y-95573575D01*
X141197623Y-95586098D01*
X141257155Y-95592499D01*
X141257172Y-95592500D01*
X141505000Y-95592500D01*
X142005000Y-95592500D01*
X142252828Y-95592500D01*
X142252844Y-95592499D01*
X142312372Y-95586098D01*
X142312379Y-95586096D01*
X142447086Y-95535854D01*
X142447093Y-95535850D01*
X142562187Y-95449690D01*
X142562190Y-95449687D01*
X142648350Y-95334593D01*
X142648354Y-95334586D01*
X142698596Y-95199879D01*
X142698598Y-95199872D01*
X142704999Y-95140344D01*
X142705000Y-95140327D01*
X142705000Y-94592500D01*
X142005000Y-94592500D01*
X142005000Y-95592500D01*
X141505000Y-95592500D01*
X141505000Y-94092500D01*
X142005000Y-94092500D01*
X142705000Y-94092500D01*
X142705000Y-93544672D01*
X142704999Y-93544655D01*
X142698598Y-93485127D01*
X142698596Y-93485120D01*
X142648354Y-93350413D01*
X142648350Y-93350406D01*
X142562190Y-93235312D01*
X142562187Y-93235309D01*
X142447093Y-93149149D01*
X142447086Y-93149145D01*
X142312379Y-93098903D01*
X142312372Y-93098901D01*
X142252844Y-93092500D01*
X142005000Y-93092500D01*
X142005000Y-94092500D01*
X141505000Y-94092500D01*
X141505000Y-93092500D01*
X141359500Y-93092500D01*
X141292461Y-93072815D01*
X141246706Y-93020011D01*
X141235500Y-92968500D01*
X141235500Y-78440817D01*
X141244939Y-78393364D01*
X141251161Y-78378343D01*
X141269737Y-78333497D01*
X141300500Y-78178842D01*
X141300500Y-78021158D01*
X141300500Y-78021155D01*
X141300499Y-78021153D01*
X141274353Y-77889711D01*
X141269737Y-77866503D01*
X141269735Y-77866498D01*
X141209397Y-77720827D01*
X141209390Y-77720814D01*
X141121789Y-77589711D01*
X141121786Y-77589707D01*
X141010292Y-77478213D01*
X141010288Y-77478210D01*
X140879185Y-77390609D01*
X140879172Y-77390602D01*
X140733501Y-77330264D01*
X140733489Y-77330261D01*
X140578845Y-77299500D01*
X140578842Y-77299500D01*
X140421158Y-77299500D01*
X140421155Y-77299500D01*
X140266510Y-77330261D01*
X140266498Y-77330264D01*
X140120827Y-77390602D01*
X140120814Y-77390609D01*
X139989711Y-77478210D01*
X139989707Y-77478213D01*
X139878213Y-77589707D01*
X139878210Y-77589711D01*
X139790609Y-77720814D01*
X139790602Y-77720827D01*
X139730264Y-77866498D01*
X139730261Y-77866510D01*
X139699500Y-78021153D01*
X139699500Y-78178846D01*
X139731451Y-78339472D01*
X139730609Y-78339639D01*
X139734500Y-78365858D01*
X139734500Y-92968000D01*
X139714815Y-93035039D01*
X139662011Y-93080794D01*
X139610500Y-93092000D01*
X138717129Y-93092000D01*
X138717123Y-93092001D01*
X138657518Y-93098408D01*
X138623331Y-93111159D01*
X138553639Y-93116142D01*
X138536669Y-93111159D01*
X138510151Y-93101269D01*
X138502483Y-93098409D01*
X138502482Y-93098408D01*
X138442883Y-93092001D01*
X138442881Y-93092000D01*
X138442873Y-93092000D01*
X138442864Y-93092000D01*
X137447129Y-93092000D01*
X137447123Y-93092001D01*
X137387518Y-93098408D01*
X137353331Y-93111159D01*
X137283639Y-93116142D01*
X137266669Y-93111159D01*
X137240151Y-93101269D01*
X137232483Y-93098409D01*
X137232482Y-93098408D01*
X137172883Y-93092001D01*
X137172881Y-93092000D01*
X137172873Y-93092000D01*
X137172864Y-93092000D01*
X136177129Y-93092000D01*
X136177123Y-93092001D01*
X136117518Y-93098408D01*
X136083331Y-93111159D01*
X136013639Y-93116142D01*
X135996669Y-93111159D01*
X135970151Y-93101269D01*
X135962483Y-93098409D01*
X135962482Y-93098408D01*
X135902883Y-93092001D01*
X135902881Y-93092000D01*
X135902873Y-93092000D01*
X135902864Y-93092000D01*
X134907129Y-93092000D01*
X134907123Y-93092001D01*
X134847518Y-93098408D01*
X134813331Y-93111159D01*
X134743639Y-93116142D01*
X134726669Y-93111159D01*
X134700151Y-93101269D01*
X134692483Y-93098409D01*
X134692482Y-93098408D01*
X134632883Y-93092001D01*
X134632881Y-93092000D01*
X134632873Y-93092000D01*
X134632864Y-93092000D01*
X133637129Y-93092000D01*
X133637123Y-93092001D01*
X133577518Y-93098408D01*
X133543331Y-93111159D01*
X133473639Y-93116142D01*
X133456669Y-93111159D01*
X133430151Y-93101269D01*
X133422483Y-93098409D01*
X133422482Y-93098408D01*
X133362883Y-93092001D01*
X133362881Y-93092000D01*
X133362873Y-93092000D01*
X133362864Y-93092000D01*
X132367129Y-93092000D01*
X132367123Y-93092001D01*
X132307518Y-93098408D01*
X132273331Y-93111159D01*
X132203639Y-93116142D01*
X132186669Y-93111159D01*
X132160151Y-93101269D01*
X132152483Y-93098409D01*
X132152482Y-93098408D01*
X132092883Y-93092001D01*
X132092881Y-93092000D01*
X132092873Y-93092000D01*
X132092864Y-93092000D01*
X131097129Y-93092000D01*
X131097123Y-93092001D01*
X131037518Y-93098408D01*
X131003331Y-93111159D01*
X130933639Y-93116142D01*
X130916669Y-93111159D01*
X130890151Y-93101269D01*
X130882483Y-93098409D01*
X130882482Y-93098408D01*
X130822883Y-93092001D01*
X130822881Y-93092000D01*
X130822873Y-93092000D01*
X130822865Y-93092000D01*
X130374500Y-93092000D01*
X130307461Y-93072315D01*
X130261706Y-93019511D01*
X130250500Y-92968000D01*
X130250500Y-90322902D01*
X130270185Y-90255863D01*
X130322989Y-90210108D01*
X130392147Y-90200164D01*
X130455703Y-90229189D01*
X130489062Y-90275451D01*
X130490605Y-90279178D01*
X130490609Y-90279185D01*
X130578210Y-90410288D01*
X130578213Y-90410292D01*
X130689707Y-90521786D01*
X130689711Y-90521789D01*
X130820814Y-90609390D01*
X130820827Y-90609397D01*
X130966498Y-90669735D01*
X130966503Y-90669737D01*
X131121153Y-90700499D01*
X131121156Y-90700500D01*
X131121158Y-90700500D01*
X131278844Y-90700500D01*
X131278845Y-90700499D01*
X131433497Y-90669737D01*
X131579179Y-90609394D01*
X131710289Y-90521789D01*
X131821789Y-90410289D01*
X131909394Y-90279179D01*
X131909395Y-90279176D01*
X131909397Y-90279173D01*
X131942123Y-90200164D01*
X131956149Y-90166300D01*
X131999989Y-90111897D01*
X132066283Y-90089832D01*
X132133983Y-90107111D01*
X132181593Y-90158248D01*
X132185271Y-90166299D01*
X132190606Y-90179179D01*
X132190609Y-90179185D01*
X132278210Y-90310288D01*
X132278213Y-90310292D01*
X132389707Y-90421786D01*
X132389711Y-90421789D01*
X132520814Y-90509390D01*
X132520827Y-90509397D01*
X132666498Y-90569735D01*
X132666503Y-90569737D01*
X132821153Y-90600499D01*
X132821156Y-90600500D01*
X132821158Y-90600500D01*
X132978844Y-90600500D01*
X132978845Y-90600499D01*
X133133497Y-90569737D01*
X133279179Y-90509394D01*
X133410289Y-90421789D01*
X133521789Y-90310289D01*
X133609394Y-90179179D01*
X133669737Y-90033497D01*
X133700500Y-89878842D01*
X133700500Y-89721158D01*
X133700500Y-89721155D01*
X133700499Y-89721153D01*
X133669739Y-89566511D01*
X133669738Y-89566508D01*
X133669737Y-89566503D01*
X133659937Y-89542844D01*
X133650500Y-89495396D01*
X133650500Y-80062230D01*
X133670185Y-79995191D01*
X133686819Y-79974549D01*
X137284549Y-76376819D01*
X137345872Y-76343334D01*
X137372230Y-76340500D01*
X148132779Y-76340500D01*
X148199818Y-76360185D01*
X148233097Y-76391615D01*
X148289892Y-76469788D01*
X148440213Y-76620109D01*
X148612179Y-76745048D01*
X148612181Y-76745049D01*
X148612184Y-76745051D01*
X148621493Y-76749794D01*
X148672290Y-76797766D01*
X148689087Y-76865587D01*
X148666552Y-76931722D01*
X148621505Y-76970760D01*
X148612446Y-76975376D01*
X148612440Y-76975380D01*
X148558282Y-77014727D01*
X148558282Y-77014728D01*
X149190591Y-77647037D01*
X149127007Y-77664075D01*
X149012993Y-77729901D01*
X148919901Y-77822993D01*
X148854075Y-77937007D01*
X148837037Y-78000591D01*
X148204728Y-77368282D01*
X148204727Y-77368282D01*
X148165380Y-77422439D01*
X148068904Y-77611782D01*
X148003242Y-77813869D01*
X148003242Y-77813872D01*
X147970000Y-78023753D01*
X147970000Y-78236246D01*
X148003242Y-78446127D01*
X148003242Y-78446130D01*
X148068904Y-78648217D01*
X148165375Y-78837550D01*
X148204728Y-78891716D01*
X148837037Y-78259408D01*
X148854075Y-78322993D01*
X148919901Y-78437007D01*
X149012993Y-78530099D01*
X149127007Y-78595925D01*
X149190590Y-78612962D01*
X148558282Y-79245269D01*
X148558282Y-79245270D01*
X148612452Y-79284626D01*
X148612451Y-79284626D01*
X148621495Y-79289234D01*
X148672292Y-79337208D01*
X148689087Y-79405029D01*
X148666550Y-79471164D01*
X148621499Y-79510202D01*
X148612182Y-79514949D01*
X148440213Y-79639890D01*
X148289890Y-79790213D01*
X148164951Y-79962179D01*
X148068444Y-80151585D01*
X148002753Y-80353760D01*
X147999297Y-80375582D01*
X147969500Y-80563713D01*
X147969500Y-80776287D01*
X147970461Y-80782352D01*
X148002464Y-80984417D01*
X148002754Y-80986243D01*
X148065457Y-81179223D01*
X148068444Y-81188414D01*
X148164951Y-81377820D01*
X148289890Y-81549786D01*
X148440213Y-81700109D01*
X148612179Y-81825048D01*
X148612181Y-81825049D01*
X148612184Y-81825051D01*
X148801588Y-81921557D01*
X149003757Y-81987246D01*
X149213713Y-82020500D01*
X149213714Y-82020500D01*
X149426284Y-82020500D01*
X149426287Y-82020500D01*
X149521731Y-82005382D01*
X149591020Y-82014336D01*
X149628807Y-82040174D01*
X149971580Y-82382948D01*
X149971584Y-82382951D01*
X150094498Y-82465080D01*
X150094511Y-82465087D01*
X150219957Y-82517048D01*
X150231087Y-82521658D01*
X150231091Y-82521658D01*
X150231092Y-82521659D01*
X150376079Y-82550500D01*
X150376082Y-82550500D01*
X155473920Y-82550500D01*
X155571462Y-82531096D01*
X155618913Y-82521658D01*
X155755495Y-82465084D01*
X155804729Y-82432186D01*
X155878416Y-82382952D01*
X157182951Y-81078416D01*
X157265084Y-80955495D01*
X157321658Y-80818913D01*
X157347147Y-80690776D01*
X157350500Y-80673920D01*
X157350500Y-68526081D01*
X157344763Y-68497242D01*
X157344763Y-68497240D01*
X157321660Y-68381095D01*
X157321659Y-68381088D01*
X157267408Y-68250117D01*
X157265764Y-68245522D01*
X157182954Y-68121588D01*
X157182953Y-68121587D01*
X157182951Y-68121584D01*
X157078416Y-68017049D01*
X156756683Y-67695316D01*
X155778421Y-66717052D01*
X155778414Y-66717046D01*
X155704729Y-66667812D01*
X155704729Y-66667813D01*
X155655491Y-66634913D01*
X155518917Y-66578343D01*
X155518907Y-66578340D01*
X155373920Y-66549500D01*
X155373918Y-66549500D01*
X144662229Y-66549500D01*
X144595190Y-66529815D01*
X144574548Y-66513181D01*
X142924448Y-64863080D01*
X142695450Y-64634082D01*
X142661965Y-64572759D01*
X142665424Y-64507402D01*
X142714999Y-64357797D01*
X142725500Y-64255009D01*
X142725499Y-63481947D01*
X147550000Y-63481947D01*
X147550000Y-63718052D01*
X147586934Y-63951247D01*
X147659897Y-64175802D01*
X147767087Y-64386174D01*
X147827338Y-64469104D01*
X147827340Y-64469105D01*
X148526212Y-63770233D01*
X148537482Y-63812292D01*
X148609890Y-63937708D01*
X148712292Y-64040110D01*
X148837708Y-64112518D01*
X148879765Y-64123787D01*
X148180893Y-64822658D01*
X148263828Y-64882914D01*
X148474197Y-64990102D01*
X148698752Y-65063065D01*
X148698751Y-65063065D01*
X148931948Y-65100000D01*
X149168052Y-65100000D01*
X149401247Y-65063065D01*
X149625802Y-64990102D01*
X149836163Y-64882918D01*
X149836169Y-64882914D01*
X149919104Y-64822658D01*
X149919105Y-64822658D01*
X149220233Y-64123787D01*
X149262292Y-64112518D01*
X149387708Y-64040110D01*
X149490110Y-63937708D01*
X149562518Y-63812292D01*
X149573787Y-63770234D01*
X150272658Y-64469105D01*
X150272658Y-64469104D01*
X150332914Y-64386169D01*
X150332918Y-64386163D01*
X150440102Y-64175802D01*
X150513065Y-63951247D01*
X150550000Y-63718052D01*
X150550000Y-63481947D01*
X154050000Y-63481947D01*
X154050000Y-63718052D01*
X154086934Y-63951247D01*
X154159897Y-64175802D01*
X154267087Y-64386174D01*
X154327338Y-64469104D01*
X154327340Y-64469105D01*
X155026212Y-63770233D01*
X155037482Y-63812292D01*
X155109890Y-63937708D01*
X155212292Y-64040110D01*
X155337708Y-64112518D01*
X155379765Y-64123787D01*
X154680893Y-64822658D01*
X154763828Y-64882914D01*
X154974197Y-64990102D01*
X155198752Y-65063065D01*
X155198751Y-65063065D01*
X155431948Y-65100000D01*
X155668052Y-65100000D01*
X155901247Y-65063065D01*
X156125802Y-64990102D01*
X156336163Y-64882918D01*
X156336169Y-64882914D01*
X156419104Y-64822658D01*
X156419105Y-64822658D01*
X155720233Y-64123787D01*
X155762292Y-64112518D01*
X155887708Y-64040110D01*
X155990110Y-63937708D01*
X156062518Y-63812292D01*
X156073787Y-63770234D01*
X156772658Y-64469105D01*
X156772658Y-64469104D01*
X156832914Y-64386169D01*
X156832918Y-64386163D01*
X156940102Y-64175802D01*
X157013065Y-63951247D01*
X157050000Y-63718052D01*
X157050000Y-63481947D01*
X157013065Y-63248752D01*
X156940102Y-63024197D01*
X156832914Y-62813828D01*
X156772658Y-62730894D01*
X156772658Y-62730893D01*
X156073787Y-63429765D01*
X156062518Y-63387708D01*
X155990110Y-63262292D01*
X155887708Y-63159890D01*
X155762292Y-63087482D01*
X155720234Y-63076212D01*
X156419105Y-62377340D01*
X156419104Y-62377338D01*
X156336174Y-62317087D01*
X156125802Y-62209897D01*
X155901247Y-62136934D01*
X155901248Y-62136934D01*
X155668052Y-62100000D01*
X155431948Y-62100000D01*
X155198752Y-62136934D01*
X154974197Y-62209897D01*
X154763830Y-62317084D01*
X154680894Y-62377340D01*
X155379766Y-63076212D01*
X155337708Y-63087482D01*
X155212292Y-63159890D01*
X155109890Y-63262292D01*
X155037482Y-63387708D01*
X155026212Y-63429766D01*
X154327340Y-62730894D01*
X154267084Y-62813830D01*
X154159897Y-63024197D01*
X154086934Y-63248752D01*
X154050000Y-63481947D01*
X150550000Y-63481947D01*
X150513065Y-63248752D01*
X150440102Y-63024197D01*
X150332914Y-62813828D01*
X150272658Y-62730894D01*
X150272658Y-62730893D01*
X149573787Y-63429765D01*
X149562518Y-63387708D01*
X149490110Y-63262292D01*
X149387708Y-63159890D01*
X149262292Y-63087482D01*
X149220234Y-63076212D01*
X149919105Y-62377340D01*
X149919104Y-62377339D01*
X149836174Y-62317087D01*
X149625802Y-62209897D01*
X149401247Y-62136934D01*
X149401248Y-62136934D01*
X149168052Y-62100000D01*
X148931948Y-62100000D01*
X148698752Y-62136934D01*
X148474197Y-62209897D01*
X148263830Y-62317084D01*
X148180894Y-62377340D01*
X148879766Y-63076212D01*
X148837708Y-63087482D01*
X148712292Y-63159890D01*
X148609890Y-63262292D01*
X148537482Y-63387708D01*
X148526212Y-63429766D01*
X147827340Y-62730894D01*
X147767084Y-62813830D01*
X147659897Y-63024197D01*
X147586934Y-63248752D01*
X147550000Y-63481947D01*
X142725499Y-63481947D01*
X142725499Y-63254992D01*
X142714999Y-63152203D01*
X142659814Y-62985666D01*
X142567712Y-62836344D01*
X142499319Y-62767951D01*
X142465834Y-62706628D01*
X142463000Y-62680270D01*
X142463000Y-61938580D01*
X142451032Y-61878417D01*
X142451032Y-61878416D01*
X142434159Y-61793588D01*
X142377584Y-61657006D01*
X142377584Y-61657005D01*
X142310154Y-61556088D01*
X142295452Y-61534084D01*
X141573548Y-60812180D01*
X141540063Y-60750857D01*
X141545047Y-60681165D01*
X141586919Y-60625232D01*
X141652383Y-60600815D01*
X141661212Y-60600499D01*
X142025008Y-60600499D01*
X142025016Y-60600498D01*
X142025019Y-60600498D01*
X142081302Y-60594748D01*
X142127797Y-60589999D01*
X142294334Y-60534814D01*
X142443656Y-60442712D01*
X142567712Y-60318656D01*
X142659814Y-60169334D01*
X142714999Y-60002797D01*
X142719177Y-59961896D01*
X142745573Y-59897207D01*
X142802753Y-59857055D01*
X142842535Y-59850500D01*
X144095396Y-59850500D01*
X144142844Y-59859937D01*
X144166503Y-59869737D01*
X144166508Y-59869738D01*
X144166511Y-59869739D01*
X144321153Y-59900499D01*
X144321156Y-59900500D01*
X144321158Y-59900500D01*
X144478844Y-59900500D01*
X144478845Y-59900499D01*
X144555152Y-59885320D01*
X144633488Y-59869739D01*
X144633489Y-59869738D01*
X144633497Y-59869737D01*
X144657155Y-59859937D01*
X144704604Y-59850500D01*
X147677369Y-59850500D01*
X147744408Y-59870185D01*
X147777685Y-59901613D01*
X147905483Y-60077510D01*
X148072490Y-60244517D01*
X148263567Y-60383343D01*
X148362991Y-60434002D01*
X148474003Y-60490566D01*
X148474005Y-60490566D01*
X148474008Y-60490568D01*
X148594412Y-60529689D01*
X148698631Y-60563553D01*
X148931903Y-60600500D01*
X148931908Y-60600500D01*
X149168097Y-60600500D01*
X149401368Y-60563553D01*
X149625992Y-60490568D01*
X149836433Y-60383343D01*
X150027510Y-60244517D01*
X150194517Y-60077510D01*
X150322313Y-59901613D01*
X150377643Y-59858949D01*
X150422631Y-59850500D01*
X154177369Y-59850500D01*
X154244408Y-59870185D01*
X154277685Y-59901613D01*
X154405483Y-60077510D01*
X154572490Y-60244517D01*
X154763567Y-60383343D01*
X154862991Y-60434002D01*
X154974003Y-60490566D01*
X154974005Y-60490566D01*
X154974008Y-60490568D01*
X155094412Y-60529689D01*
X155198631Y-60563553D01*
X155431903Y-60600500D01*
X155431908Y-60600500D01*
X155668097Y-60600500D01*
X155901368Y-60563553D01*
X156125992Y-60490568D01*
X156336433Y-60383343D01*
X156527510Y-60244517D01*
X156694517Y-60077510D01*
X156833343Y-59886433D01*
X156940568Y-59675992D01*
X157013553Y-59451368D01*
X157050500Y-59218097D01*
X157050500Y-58981902D01*
X157013553Y-58748631D01*
X156948851Y-58549500D01*
X156940568Y-58524008D01*
X156940566Y-58524005D01*
X156940566Y-58524003D01*
X156852736Y-58351628D01*
X156833343Y-58313567D01*
X156694517Y-58122490D01*
X156527510Y-57955483D01*
X156336433Y-57816657D01*
X156125996Y-57709433D01*
X155901368Y-57636446D01*
X155668097Y-57599500D01*
X155668092Y-57599500D01*
X155431908Y-57599500D01*
X155431903Y-57599500D01*
X155198631Y-57636446D01*
X154974003Y-57709433D01*
X154763566Y-57816657D01*
X154654550Y-57895862D01*
X154572490Y-57955483D01*
X154572488Y-57955485D01*
X154572487Y-57955485D01*
X154405485Y-58122487D01*
X154405485Y-58122488D01*
X154405483Y-58122490D01*
X154301806Y-58265189D01*
X154277687Y-58298386D01*
X154222357Y-58341051D01*
X154177369Y-58349500D01*
X150422631Y-58349500D01*
X150355592Y-58329815D01*
X150322313Y-58298386D01*
X150298194Y-58265189D01*
X150194517Y-58122490D01*
X150027510Y-57955483D01*
X149836433Y-57816657D01*
X149625996Y-57709433D01*
X149401368Y-57636446D01*
X149168097Y-57599500D01*
X149168092Y-57599500D01*
X148931908Y-57599500D01*
X148931903Y-57599500D01*
X148698631Y-57636446D01*
X148474003Y-57709433D01*
X148263566Y-57816657D01*
X148154550Y-57895862D01*
X148072490Y-57955483D01*
X148072488Y-57955485D01*
X148072487Y-57955485D01*
X147905485Y-58122487D01*
X147905485Y-58122488D01*
X147905483Y-58122490D01*
X147801806Y-58265189D01*
X147777687Y-58298386D01*
X147722357Y-58341051D01*
X147677369Y-58349500D01*
X144704604Y-58349500D01*
X144657155Y-58340062D01*
X144633497Y-58330263D01*
X144633493Y-58330262D01*
X144633488Y-58330260D01*
X144478845Y-58299500D01*
X144478842Y-58299500D01*
X144321158Y-58299500D01*
X144321155Y-58299500D01*
X144166511Y-58330260D01*
X144166506Y-58330262D01*
X144166504Y-58330262D01*
X144166503Y-58330263D01*
X144142844Y-58340062D01*
X144095396Y-58349500D01*
X142466196Y-58349500D01*
X142401100Y-58331039D01*
X142294340Y-58265189D01*
X142294335Y-58265187D01*
X142294334Y-58265186D01*
X142127797Y-58210001D01*
X142127795Y-58210000D01*
X142025010Y-58199500D01*
X141399998Y-58199500D01*
X141399980Y-58199501D01*
X141297203Y-58210000D01*
X141297200Y-58210001D01*
X141130668Y-58265185D01*
X141130663Y-58265187D01*
X140981342Y-58357289D01*
X140887681Y-58450951D01*
X140879735Y-58455289D01*
X140874310Y-58462537D01*
X140849550Y-58471771D01*
X140826358Y-58484436D01*
X140817328Y-58483790D01*
X140808846Y-58486954D01*
X140783025Y-58481337D01*
X140756666Y-58479452D01*
X140747612Y-58473633D01*
X140740573Y-58472102D01*
X140712319Y-58450951D01*
X140674319Y-58412951D01*
X140640834Y-58351628D01*
X140638000Y-58325270D01*
X140638000Y-55122325D01*
X140657685Y-55055286D01*
X140710489Y-55009531D01*
X140772979Y-54998812D01*
X140791963Y-55000500D01*
X141908036Y-55000499D01*
X142027418Y-54989886D01*
X142223049Y-54933909D01*
X142403407Y-54839698D01*
X142561109Y-54711109D01*
X142689698Y-54553407D01*
X142783909Y-54373049D01*
X142839886Y-54177418D01*
X142850500Y-54058037D01*
X142850499Y-52594414D01*
X142850499Y-51141971D01*
X142850499Y-51141964D01*
X142839886Y-51022582D01*
X142783909Y-50826951D01*
X142689698Y-50646593D01*
X142610937Y-50550000D01*
X142561109Y-50488890D01*
X142445933Y-50394977D01*
X142403407Y-50360302D01*
X142223049Y-50266091D01*
X142223048Y-50266090D01*
X142223045Y-50266089D01*
X142105829Y-50232550D01*
X142027418Y-50210114D01*
X142027415Y-50210113D01*
X142027413Y-50210113D01*
X141961102Y-50204217D01*
X141908037Y-50199500D01*
X141908032Y-50199500D01*
X140791971Y-50199500D01*
X140791965Y-50199500D01*
X140791964Y-50199501D01*
X140780316Y-50200536D01*
X140672584Y-50210113D01*
X140476954Y-50266089D01*
X140386772Y-50313196D01*
X140296593Y-50360302D01*
X140296591Y-50360303D01*
X140296590Y-50360304D01*
X140138890Y-50488890D01*
X140010304Y-50646590D01*
X140010302Y-50646593D01*
X139995870Y-50674222D01*
X139916089Y-50826954D01*
X139860114Y-51022583D01*
X139860113Y-51022586D01*
X139849500Y-51141966D01*
X139849500Y-52987769D01*
X139829815Y-53054808D01*
X139813181Y-53075450D01*
X139304548Y-53584083D01*
X139282621Y-53616900D01*
X139260839Y-53649501D01*
X139254259Y-53659349D01*
X139222416Y-53707004D01*
X139222412Y-53707011D01*
X139165843Y-53843582D01*
X139165840Y-53843592D01*
X139137000Y-53988579D01*
X139137000Y-58325270D01*
X139117315Y-58392309D01*
X139100681Y-58412951D01*
X139032289Y-58481342D01*
X138940187Y-58630663D01*
X138940186Y-58630666D01*
X138885001Y-58797203D01*
X138885001Y-58797204D01*
X138885000Y-58797204D01*
X138874500Y-58899983D01*
X138874500Y-59900001D01*
X138874501Y-59900019D01*
X138885000Y-60002796D01*
X138885001Y-60002799D01*
X138940185Y-60169331D01*
X138940187Y-60169336D01*
X138972056Y-60221004D01*
X139019368Y-60297710D01*
X139032289Y-60318657D01*
X139156343Y-60442711D01*
X139162011Y-60447193D01*
X139161123Y-60448315D01*
X139166227Y-60453736D01*
X139178422Y-60460516D01*
X139192243Y-60481372D01*
X139199358Y-60488930D01*
X139202273Y-60494367D01*
X139222416Y-60542995D01*
X139249114Y-60582951D01*
X139252455Y-60587951D01*
X139252456Y-60587953D01*
X139304543Y-60665910D01*
X139304547Y-60665915D01*
X140925681Y-62287049D01*
X140959166Y-62348372D01*
X140962000Y-62374730D01*
X140962000Y-62680270D01*
X140953355Y-62709710D01*
X140946832Y-62739697D01*
X140943077Y-62744712D01*
X140942315Y-62747309D01*
X140925681Y-62767951D01*
X140887681Y-62805951D01*
X140826358Y-62839436D01*
X140756666Y-62834452D01*
X140712319Y-62805951D01*
X140618657Y-62712289D01*
X140618656Y-62712288D01*
X140469334Y-62620186D01*
X140302797Y-62565001D01*
X140302795Y-62565000D01*
X140200010Y-62554500D01*
X139574998Y-62554500D01*
X139574980Y-62554501D01*
X139472203Y-62565000D01*
X139472200Y-62565001D01*
X139368092Y-62599500D01*
X139313503Y-62617589D01*
X139243676Y-62619991D01*
X139183634Y-62584259D01*
X139152441Y-62521739D01*
X139150500Y-62499883D01*
X139150500Y-61326079D01*
X139121659Y-61181092D01*
X139121658Y-61181091D01*
X139121658Y-61181087D01*
X139065084Y-61044505D01*
X139032186Y-60995270D01*
X139032185Y-60995268D01*
X138982956Y-60921589D01*
X138982952Y-60921584D01*
X138035494Y-59974126D01*
X138002009Y-59912803D01*
X138001931Y-59864544D01*
X138001811Y-59864532D01*
X138001929Y-59863370D01*
X138001925Y-59860476D01*
X138002497Y-59857802D01*
X138002499Y-59857797D01*
X138013000Y-59755009D01*
X138012999Y-58754992D01*
X138012349Y-58748632D01*
X138002499Y-58652203D01*
X138002498Y-58652200D01*
X137976659Y-58574223D01*
X137947314Y-58485666D01*
X137855212Y-58336344D01*
X137731156Y-58212288D01*
X137638388Y-58155069D01*
X137581836Y-58120187D01*
X137581831Y-58120185D01*
X137550832Y-58109913D01*
X137415297Y-58065001D01*
X137415295Y-58065000D01*
X137312510Y-58054500D01*
X136687498Y-58054500D01*
X136687480Y-58054501D01*
X136584703Y-58065000D01*
X136584700Y-58065001D01*
X136418168Y-58120185D01*
X136418163Y-58120187D01*
X136268842Y-58212289D01*
X136175181Y-58305951D01*
X136113858Y-58339436D01*
X136044166Y-58334452D01*
X135999819Y-58305951D01*
X135906157Y-58212289D01*
X135906156Y-58212288D01*
X135813388Y-58155069D01*
X135756836Y-58120187D01*
X135756831Y-58120185D01*
X135725832Y-58109913D01*
X135590297Y-58065001D01*
X135590295Y-58065000D01*
X135487510Y-58054500D01*
X134862498Y-58054500D01*
X134862480Y-58054501D01*
X134759703Y-58065000D01*
X134759700Y-58065001D01*
X134593168Y-58120185D01*
X134593163Y-58120187D01*
X134443842Y-58212289D01*
X134319789Y-58336342D01*
X134319788Y-58336344D01*
X134228844Y-58483790D01*
X134224645Y-58490597D01*
X134172697Y-58537321D01*
X134119106Y-58549500D01*
X133143400Y-58549500D01*
X133076361Y-58529815D01*
X133037863Y-58490599D01*
X132969026Y-58378997D01*
X132846003Y-58255974D01*
X132845999Y-58255971D01*
X132697933Y-58164642D01*
X132697927Y-58164639D01*
X132697925Y-58164638D01*
X132697922Y-58164637D01*
X132532776Y-58109913D01*
X132430855Y-58099500D01*
X132430848Y-58099500D01*
X131844152Y-58099500D01*
X131844144Y-58099500D01*
X131742223Y-58109913D01*
X131577077Y-58164637D01*
X131577066Y-58164642D01*
X131429000Y-58255971D01*
X131428996Y-58255974D01*
X131305974Y-58378996D01*
X131305967Y-58379005D01*
X131305234Y-58380194D01*
X131304519Y-58380836D01*
X131301493Y-58384664D01*
X131300838Y-58384146D01*
X131253280Y-58426911D01*
X131184316Y-58438123D01*
X131120238Y-58410271D01*
X131098238Y-58384877D01*
X131098112Y-58384977D01*
X131095885Y-58382161D01*
X131094163Y-58380173D01*
X131093630Y-58379309D01*
X130970691Y-58256370D01*
X130822714Y-58165096D01*
X130822709Y-58165094D01*
X130657673Y-58110407D01*
X130555815Y-58100000D01*
X130512500Y-58100000D01*
X130512500Y-60500000D01*
X130555803Y-60500000D01*
X130555815Y-60499999D01*
X130657673Y-60489592D01*
X130822709Y-60434905D01*
X130822714Y-60434903D01*
X130970691Y-60343629D01*
X131093628Y-60220692D01*
X131094159Y-60219832D01*
X131094680Y-60219363D01*
X131098112Y-60215023D01*
X131098853Y-60215608D01*
X131146101Y-60173102D01*
X131215063Y-60161872D01*
X131279148Y-60189708D01*
X131301413Y-60215398D01*
X131301493Y-60215336D01*
X131302890Y-60217103D01*
X131305238Y-60219812D01*
X131305968Y-60220995D01*
X131305974Y-60221003D01*
X131428996Y-60344025D01*
X131429000Y-60344028D01*
X131577066Y-60435357D01*
X131577069Y-60435358D01*
X131577075Y-60435362D01*
X131742225Y-60490087D01*
X131844152Y-60500500D01*
X131844157Y-60500500D01*
X132430843Y-60500500D01*
X132430848Y-60500500D01*
X132532775Y-60490087D01*
X132697925Y-60435362D01*
X132846003Y-60344026D01*
X132969026Y-60221003D01*
X133037863Y-60109400D01*
X133089809Y-60062679D01*
X133143400Y-60050500D01*
X134174618Y-60050500D01*
X134241657Y-60070185D01*
X134280155Y-60109401D01*
X134319788Y-60173656D01*
X134443844Y-60297712D01*
X134593166Y-60389814D01*
X134759703Y-60444999D01*
X134862491Y-60455500D01*
X135487508Y-60455499D01*
X135487516Y-60455498D01*
X135487519Y-60455498D01*
X135557835Y-60448315D01*
X135590297Y-60444999D01*
X135756834Y-60389814D01*
X135906156Y-60297712D01*
X135999819Y-60204049D01*
X136004893Y-60201278D01*
X136008112Y-60196475D01*
X136035214Y-60184721D01*
X136061142Y-60170564D01*
X136066909Y-60170976D01*
X136072214Y-60168676D01*
X136101365Y-60173440D01*
X136130834Y-60175548D01*
X136136949Y-60179256D01*
X136141168Y-60179946D01*
X136159442Y-60192896D01*
X136170488Y-60199594D01*
X136172884Y-60201752D01*
X136268844Y-60297712D01*
X136302403Y-60318411D01*
X136310741Y-60325921D01*
X136320781Y-60342224D01*
X136329667Y-60351675D01*
X136331531Y-60350430D01*
X136357846Y-60389813D01*
X136357846Y-60389814D01*
X136417046Y-60478414D01*
X136417052Y-60478421D01*
X137613181Y-61674549D01*
X137646666Y-61735872D01*
X137649500Y-61762230D01*
X137649500Y-62470888D01*
X137629815Y-62537927D01*
X137577011Y-62583682D01*
X137507853Y-62593626D01*
X137486497Y-62588594D01*
X137415299Y-62565001D01*
X137415295Y-62565000D01*
X137312510Y-62554500D01*
X136687498Y-62554500D01*
X136687480Y-62554501D01*
X136584703Y-62565000D01*
X136584700Y-62565001D01*
X136418168Y-62620185D01*
X136418163Y-62620187D01*
X136268842Y-62712289D01*
X136175181Y-62805951D01*
X136113858Y-62839436D01*
X136044166Y-62834452D01*
X135999819Y-62805951D01*
X135906157Y-62712289D01*
X135906156Y-62712288D01*
X135756834Y-62620186D01*
X135590297Y-62565001D01*
X135590295Y-62565000D01*
X135487510Y-62554500D01*
X134862498Y-62554500D01*
X134862480Y-62554501D01*
X134759703Y-62565000D01*
X134759700Y-62565001D01*
X134593168Y-62620185D01*
X134593163Y-62620187D01*
X134443842Y-62712289D01*
X134319789Y-62836342D01*
X134252401Y-62945597D01*
X134200453Y-62992321D01*
X134146862Y-63004500D01*
X133115644Y-63004500D01*
X133048605Y-62984815D01*
X133010106Y-62945597D01*
X132969028Y-62879000D01*
X132969025Y-62878996D01*
X132846003Y-62755974D01*
X132845999Y-62755971D01*
X132697933Y-62664642D01*
X132697927Y-62664639D01*
X132697925Y-62664638D01*
X132689729Y-62661922D01*
X132532776Y-62609913D01*
X132430855Y-62599500D01*
X132430848Y-62599500D01*
X131844152Y-62599500D01*
X131844144Y-62599500D01*
X131742223Y-62609913D01*
X131577077Y-62664637D01*
X131577066Y-62664642D01*
X131429000Y-62755971D01*
X131428996Y-62755974D01*
X131305974Y-62878996D01*
X131305967Y-62879005D01*
X131305234Y-62880194D01*
X131304519Y-62880836D01*
X131301493Y-62884664D01*
X131300838Y-62884146D01*
X131253280Y-62926911D01*
X131184316Y-62938123D01*
X131120238Y-62910271D01*
X131098238Y-62884877D01*
X131098112Y-62884977D01*
X131095885Y-62882161D01*
X131094163Y-62880173D01*
X131093630Y-62879309D01*
X130970691Y-62756370D01*
X130822714Y-62665096D01*
X130822709Y-62665094D01*
X130657673Y-62610407D01*
X130555815Y-62600000D01*
X130512500Y-62600000D01*
X130512500Y-65000000D01*
X130555803Y-65000000D01*
X130555815Y-64999999D01*
X130657673Y-64989592D01*
X130822709Y-64934905D01*
X130822714Y-64934903D01*
X130970691Y-64843629D01*
X131093628Y-64720692D01*
X131094159Y-64719832D01*
X131094680Y-64719363D01*
X131098112Y-64715023D01*
X131098853Y-64715608D01*
X131146101Y-64673102D01*
X131215063Y-64661872D01*
X131279148Y-64689708D01*
X131301413Y-64715398D01*
X131301493Y-64715336D01*
X131302890Y-64717103D01*
X131305238Y-64719812D01*
X131305968Y-64720995D01*
X131305974Y-64721003D01*
X131428996Y-64844025D01*
X131429000Y-64844028D01*
X131577066Y-64935357D01*
X131577069Y-64935358D01*
X131577075Y-64935362D01*
X131742225Y-64990087D01*
X131844152Y-65000500D01*
X131844157Y-65000500D01*
X132430843Y-65000500D01*
X132430848Y-65000500D01*
X132532775Y-64990087D01*
X132697925Y-64935362D01*
X132846003Y-64844026D01*
X132969026Y-64721003D01*
X133022640Y-64634082D01*
X133064154Y-64566778D01*
X133066326Y-64568117D01*
X133104572Y-64524667D01*
X133170799Y-64505500D01*
X134146862Y-64505500D01*
X134213901Y-64525185D01*
X134252399Y-64564401D01*
X134319788Y-64673656D01*
X134443844Y-64797712D01*
X134593166Y-64889814D01*
X134759703Y-64944999D01*
X134862491Y-64955500D01*
X135487508Y-64955499D01*
X135487516Y-64955498D01*
X135487519Y-64955498D01*
X135543802Y-64949748D01*
X135590297Y-64944999D01*
X135756834Y-64889814D01*
X135906156Y-64797712D01*
X135999819Y-64704049D01*
X136007764Y-64699710D01*
X136013190Y-64692463D01*
X136037949Y-64683228D01*
X136061142Y-64670564D01*
X136070171Y-64671209D01*
X136078654Y-64668046D01*
X136104474Y-64673662D01*
X136130834Y-64675548D01*
X136139887Y-64681366D01*
X136146927Y-64682898D01*
X136175181Y-64704049D01*
X136213181Y-64742049D01*
X136246666Y-64803372D01*
X136249500Y-64829730D01*
X136249500Y-67573918D01*
X136249500Y-67573920D01*
X136249499Y-67573920D01*
X136278340Y-67718907D01*
X136278343Y-67718917D01*
X136334914Y-67855491D01*
X136334916Y-67855495D01*
X136353262Y-67882952D01*
X136353261Y-67882952D01*
X136417046Y-67978414D01*
X136417052Y-67978421D01*
X139353927Y-70915295D01*
X139380807Y-70955523D01*
X139390604Y-70979175D01*
X139390609Y-70979185D01*
X139478210Y-71110288D01*
X139478213Y-71110292D01*
X139589707Y-71221786D01*
X139589711Y-71221789D01*
X139720814Y-71309390D01*
X139720827Y-71309397D01*
X139866498Y-71369735D01*
X139866503Y-71369737D01*
X140021153Y-71400499D01*
X140021156Y-71400500D01*
X140021158Y-71400500D01*
X140178844Y-71400500D01*
X140178845Y-71400499D01*
X140333497Y-71369737D01*
X140479179Y-71309394D01*
X140610289Y-71221789D01*
X140721789Y-71110289D01*
X140809394Y-70979179D01*
X140869737Y-70833497D01*
X140900500Y-70678842D01*
X140900500Y-70521158D01*
X140900500Y-70521155D01*
X140900499Y-70521153D01*
X140882419Y-70430261D01*
X140869737Y-70366503D01*
X140856067Y-70333501D01*
X140809397Y-70220827D01*
X140809392Y-70220818D01*
X140803951Y-70212675D01*
X140783072Y-70145998D01*
X140801555Y-70078617D01*
X140853533Y-70031926D01*
X140922503Y-70020748D01*
X140986567Y-70048633D01*
X140994733Y-70056101D01*
X141193269Y-70254637D01*
X141226754Y-70315960D01*
X141227205Y-70318127D01*
X141230260Y-70333490D01*
X141230263Y-70333499D01*
X141290602Y-70479172D01*
X141290609Y-70479185D01*
X141378210Y-70610288D01*
X141378213Y-70610292D01*
X141489707Y-70721786D01*
X141489711Y-70721789D01*
X141620814Y-70809390D01*
X141620827Y-70809397D01*
X141766498Y-70869735D01*
X141766503Y-70869737D01*
X141921153Y-70900499D01*
X141921156Y-70900500D01*
X141921158Y-70900500D01*
X142078844Y-70900500D01*
X142078845Y-70900499D01*
X142233497Y-70869737D01*
X142351599Y-70820818D01*
X142379172Y-70809397D01*
X142379172Y-70809396D01*
X142379179Y-70809394D01*
X142510289Y-70721789D01*
X142621789Y-70610289D01*
X142709394Y-70479179D01*
X142769737Y-70333497D01*
X142800500Y-70178842D01*
X142800500Y-70021158D01*
X142800500Y-70021155D01*
X142800499Y-70021153D01*
X142791957Y-69978211D01*
X142769737Y-69866503D01*
X142757219Y-69836281D01*
X142709397Y-69720827D01*
X142709390Y-69720814D01*
X142703949Y-69712671D01*
X142683071Y-69645993D01*
X142701556Y-69578613D01*
X142753534Y-69531923D01*
X142822504Y-69520747D01*
X142886568Y-69548633D01*
X142894732Y-69556099D01*
X143653926Y-70315293D01*
X143680805Y-70355519D01*
X143690603Y-70379172D01*
X143690606Y-70379178D01*
X143690609Y-70379185D01*
X143778210Y-70510288D01*
X143778213Y-70510292D01*
X143889707Y-70621786D01*
X143889711Y-70621789D01*
X144020814Y-70709390D01*
X144020827Y-70709397D01*
X144166498Y-70769735D01*
X144166503Y-70769737D01*
X144321153Y-70800499D01*
X144321156Y-70800500D01*
X144321158Y-70800500D01*
X144478844Y-70800500D01*
X144478845Y-70800499D01*
X144633497Y-70769737D01*
X144779179Y-70709394D01*
X144910289Y-70621789D01*
X145021789Y-70510289D01*
X145109394Y-70379179D01*
X145169737Y-70233497D01*
X145200500Y-70078842D01*
X145200500Y-69921158D01*
X145200500Y-69921155D01*
X145200499Y-69921153D01*
X145189627Y-69866498D01*
X145169737Y-69766503D01*
X145144372Y-69705266D01*
X145109397Y-69620827D01*
X145109390Y-69620814D01*
X145021789Y-69489711D01*
X145021786Y-69489707D01*
X144910292Y-69378213D01*
X144910288Y-69378210D01*
X144779185Y-69290609D01*
X144779180Y-69290607D01*
X144779179Y-69290606D01*
X144755519Y-69280805D01*
X144715293Y-69253926D01*
X140674319Y-65212951D01*
X140640834Y-65151628D01*
X140638000Y-65125270D01*
X140638000Y-64829730D01*
X140646644Y-64800289D01*
X140653168Y-64770303D01*
X140656922Y-64765287D01*
X140657685Y-64762691D01*
X140674319Y-64742049D01*
X140712319Y-64704049D01*
X140773642Y-64670564D01*
X140843334Y-64675548D01*
X140887681Y-64704049D01*
X140933402Y-64749770D01*
X140966887Y-64811093D01*
X140967338Y-64813258D01*
X140990841Y-64931408D01*
X140990843Y-64931417D01*
X141047414Y-65067992D01*
X141080312Y-65117227D01*
X141080313Y-65117230D01*
X141129546Y-65190914D01*
X141129552Y-65190921D01*
X143717049Y-67778416D01*
X143821584Y-67882951D01*
X143821587Y-67882953D01*
X143821588Y-67882954D01*
X143944503Y-67965083D01*
X143944506Y-67965085D01*
X143994665Y-67985861D01*
X144001080Y-67988518D01*
X144081088Y-68021659D01*
X144197241Y-68044763D01*
X144220380Y-68049365D01*
X144226081Y-68050500D01*
X144226082Y-68050500D01*
X144226083Y-68050500D01*
X144373918Y-68050500D01*
X154937770Y-68050500D01*
X155004809Y-68070185D01*
X155025451Y-68086819D01*
X155813181Y-68874548D01*
X155846666Y-68935871D01*
X155849500Y-68962229D01*
X155849500Y-80237770D01*
X155829815Y-80304809D01*
X155813181Y-80325451D01*
X155125451Y-81013181D01*
X155064128Y-81046666D01*
X155037770Y-81049500D01*
X150812229Y-81049500D01*
X150782788Y-81040855D01*
X150752802Y-81034332D01*
X150747786Y-81030577D01*
X150745190Y-81029815D01*
X150724548Y-81013181D01*
X150690174Y-80978807D01*
X150656689Y-80917484D01*
X150655382Y-80871733D01*
X150670500Y-80776287D01*
X150670500Y-80563713D01*
X150637246Y-80353757D01*
X150571557Y-80151588D01*
X150475051Y-79962184D01*
X150475049Y-79962181D01*
X150475048Y-79962179D01*
X150350109Y-79790213D01*
X150199786Y-79639890D01*
X150027817Y-79514949D01*
X150018504Y-79510204D01*
X149967707Y-79462230D01*
X149950912Y-79394409D01*
X149973449Y-79328274D01*
X150018507Y-79289232D01*
X150027555Y-79284622D01*
X150081716Y-79245270D01*
X150081717Y-79245270D01*
X149449408Y-78612962D01*
X149512993Y-78595925D01*
X149627007Y-78530099D01*
X149720099Y-78437007D01*
X149785925Y-78322993D01*
X149802962Y-78259408D01*
X150435270Y-78891717D01*
X150435270Y-78891716D01*
X150474622Y-78837554D01*
X150571095Y-78648217D01*
X150636757Y-78446130D01*
X150636757Y-78446127D01*
X150670000Y-78236246D01*
X150670000Y-78023753D01*
X150636757Y-77813872D01*
X150636757Y-77813869D01*
X150571095Y-77611782D01*
X150474624Y-77422449D01*
X150435270Y-77368282D01*
X150435269Y-77368282D01*
X149802962Y-78000590D01*
X149785925Y-77937007D01*
X149720099Y-77822993D01*
X149627007Y-77729901D01*
X149512993Y-77664075D01*
X149449409Y-77647037D01*
X150081716Y-77014728D01*
X150027547Y-76975373D01*
X150027547Y-76975372D01*
X150018500Y-76970763D01*
X149967706Y-76922788D01*
X149950912Y-76854966D01*
X149973451Y-76788832D01*
X150018508Y-76749793D01*
X150027816Y-76745051D01*
X150107007Y-76687515D01*
X150199786Y-76620109D01*
X150199788Y-76620106D01*
X150199792Y-76620104D01*
X150350104Y-76469792D01*
X150350106Y-76469788D01*
X150350109Y-76469786D01*
X150475048Y-76297820D01*
X150475047Y-76297820D01*
X150475051Y-76297816D01*
X150571557Y-76108412D01*
X150637246Y-75906243D01*
X150670500Y-75696287D01*
X150670500Y-75483713D01*
X150637246Y-75273757D01*
X150571557Y-75071588D01*
X150475051Y-74882184D01*
X150475049Y-74882181D01*
X150475048Y-74882179D01*
X150350109Y-74710213D01*
X150236569Y-74596673D01*
X150203084Y-74535350D01*
X150208068Y-74465658D01*
X150249940Y-74409725D01*
X150280915Y-74392810D01*
X150412331Y-74343796D01*
X150527546Y-74257546D01*
X150613796Y-74142331D01*
X150664091Y-74007483D01*
X150670500Y-73947873D01*
X150670499Y-72152128D01*
X150664091Y-72092517D01*
X150653917Y-72065240D01*
X150613797Y-71957671D01*
X150613793Y-71957664D01*
X150527547Y-71842455D01*
X150527544Y-71842452D01*
X150412335Y-71756206D01*
X150412328Y-71756202D01*
X150277482Y-71705908D01*
X150277483Y-71705908D01*
X150217883Y-71699501D01*
X150217881Y-71699500D01*
X150217873Y-71699500D01*
X150217864Y-71699500D01*
X148422129Y-71699500D01*
X148422123Y-71699501D01*
X148362516Y-71705908D01*
X148227671Y-71756202D01*
X148227664Y-71756206D01*
X148112455Y-71842452D01*
X148112452Y-71842455D01*
X148026206Y-71957664D01*
X148026202Y-71957671D01*
X147975908Y-72092517D01*
X147969782Y-72149500D01*
X147969501Y-72152123D01*
X147969500Y-72152135D01*
X147969500Y-72175500D01*
X147949815Y-72242539D01*
X147897011Y-72288294D01*
X147845500Y-72299500D01*
X137176080Y-72299500D01*
X137031092Y-72328340D01*
X137031082Y-72328343D01*
X136894509Y-72384913D01*
X136894507Y-72384914D01*
X136853645Y-72412218D01*
X136853643Y-72412219D01*
X136771589Y-72467043D01*
X136771584Y-72467047D01*
X130617045Y-78621586D01*
X130584336Y-78670541D01*
X130584332Y-78670548D01*
X130580379Y-78676465D01*
X130534916Y-78744505D01*
X130487122Y-78859888D01*
X130484811Y-78864391D01*
X130464091Y-78886193D01*
X130445220Y-78909612D01*
X130440272Y-78911258D01*
X130436680Y-78915039D01*
X130407464Y-78922178D01*
X130378926Y-78931677D01*
X130373872Y-78930387D01*
X130368807Y-78931625D01*
X130340368Y-78921835D01*
X130311227Y-78914398D01*
X130307673Y-78910581D01*
X130302742Y-78908884D01*
X130284110Y-78885273D01*
X130263616Y-78863261D01*
X130262280Y-78857609D01*
X130259460Y-78854035D01*
X130258079Y-78839832D01*
X130250500Y-78807756D01*
X130250500Y-75262228D01*
X130270185Y-75195189D01*
X130286814Y-75174552D01*
X133515295Y-71946070D01*
X133555519Y-71919193D01*
X133579179Y-71909394D01*
X133710289Y-71821789D01*
X133821789Y-71710289D01*
X133909394Y-71579179D01*
X133969737Y-71433497D01*
X134000500Y-71278842D01*
X134000500Y-71121158D01*
X134000500Y-71121155D01*
X134000499Y-71121153D01*
X133998338Y-71110288D01*
X133969737Y-70966503D01*
X133942398Y-70900500D01*
X133909397Y-70820827D01*
X133909390Y-70820814D01*
X133821789Y-70689711D01*
X133821786Y-70689707D01*
X133710292Y-70578213D01*
X133710288Y-70578210D01*
X133579185Y-70490609D01*
X133579172Y-70490602D01*
X133433501Y-70430264D01*
X133433489Y-70430261D01*
X133278845Y-70399500D01*
X133278842Y-70399500D01*
X133121158Y-70399500D01*
X133121155Y-70399500D01*
X132966510Y-70430261D01*
X132966498Y-70430264D01*
X132820827Y-70490602D01*
X132820814Y-70490609D01*
X132689711Y-70578210D01*
X132689707Y-70578213D01*
X132578213Y-70689707D01*
X132578207Y-70689715D01*
X132490607Y-70820818D01*
X132490605Y-70820822D01*
X132480805Y-70844480D01*
X132453927Y-70884704D01*
X128917049Y-74421582D01*
X128917049Y-74421583D01*
X128894390Y-74455495D01*
X128834914Y-74544508D01*
X128778343Y-74681082D01*
X128778340Y-74681092D01*
X128749500Y-74826079D01*
X128749500Y-92784071D01*
X128740061Y-92831523D01*
X128702343Y-92922582D01*
X128702340Y-92922592D01*
X128673500Y-93067579D01*
X128673500Y-93101269D01*
X128653815Y-93168308D01*
X128637181Y-93188950D01*
X127220449Y-94605681D01*
X127159126Y-94639166D01*
X127132768Y-94642000D01*
X126497129Y-94642000D01*
X126497123Y-94642001D01*
X126437516Y-94648408D01*
X126302671Y-94698702D01*
X126302664Y-94698706D01*
X126187455Y-94784952D01*
X126187452Y-94784955D01*
X126101206Y-94900164D01*
X126101203Y-94900169D01*
X126090682Y-94928379D01*
X126048810Y-94984312D01*
X125983346Y-95008729D01*
X125915073Y-94993877D01*
X125865668Y-94944472D01*
X125850500Y-94885045D01*
X125850500Y-91926079D01*
X125821659Y-91781092D01*
X125821658Y-91781091D01*
X125821658Y-91781087D01*
X125810470Y-91754076D01*
X125765087Y-91644511D01*
X125765085Y-91644507D01*
X125765084Y-91644505D01*
X125721649Y-91579500D01*
X125682952Y-91521584D01*
X123878416Y-89717048D01*
X123878413Y-89717045D01*
X123833027Y-89686721D01*
X123802768Y-89666503D01*
X123755495Y-89634916D01*
X123755494Y-89634915D01*
X123755492Y-89634914D01*
X123755490Y-89634913D01*
X123618917Y-89578343D01*
X123618907Y-89578340D01*
X123473920Y-89549500D01*
X123473918Y-89549500D01*
X123336230Y-89549500D01*
X123269191Y-89529815D01*
X123223436Y-89477011D01*
X123213492Y-89407853D01*
X123242517Y-89344297D01*
X123248549Y-89337819D01*
X123267712Y-89318656D01*
X123359814Y-89169334D01*
X123387148Y-89086845D01*
X123426919Y-89029401D01*
X123491435Y-89002578D01*
X123560211Y-89014893D01*
X123571976Y-89024855D01*
X123585524Y-89025922D01*
X124265000Y-88346446D01*
X124265000Y-88352661D01*
X124292259Y-88454394D01*
X124344920Y-88545606D01*
X124419394Y-88620080D01*
X124510606Y-88672741D01*
X124612339Y-88700000D01*
X124618553Y-88700000D01*
X123948980Y-89369570D01*
X123954526Y-89390699D01*
X123983650Y-89411859D01*
X124165968Y-89504755D01*
X124360582Y-89567990D01*
X124562683Y-89600000D01*
X124767317Y-89600000D01*
X124969417Y-89567990D01*
X125164031Y-89504755D01*
X125346349Y-89411859D01*
X125390921Y-89379474D01*
X124711447Y-88700000D01*
X124717661Y-88700000D01*
X124819394Y-88672741D01*
X124910606Y-88620080D01*
X124985080Y-88545606D01*
X125037741Y-88454394D01*
X125065000Y-88352661D01*
X125065000Y-88346448D01*
X125744474Y-89025922D01*
X125744474Y-89025921D01*
X125776859Y-88981349D01*
X125869755Y-88799031D01*
X125932990Y-88604417D01*
X125965000Y-88402317D01*
X125965000Y-88197682D01*
X125932990Y-87995582D01*
X125869755Y-87800968D01*
X125776859Y-87618650D01*
X125744474Y-87574077D01*
X125744474Y-87574076D01*
X125065000Y-88253551D01*
X125065000Y-88247339D01*
X125037741Y-88145606D01*
X124985080Y-88054394D01*
X124910606Y-87979920D01*
X124819394Y-87927259D01*
X124717661Y-87900000D01*
X124711446Y-87900000D01*
X125390922Y-87220524D01*
X125390921Y-87220523D01*
X125346359Y-87188147D01*
X125346350Y-87188141D01*
X125164031Y-87095244D01*
X124969417Y-87032009D01*
X124767317Y-87000000D01*
X124562683Y-87000000D01*
X124360582Y-87032009D01*
X124165968Y-87095244D01*
X123983644Y-87188143D01*
X123939077Y-87220523D01*
X123939077Y-87220524D01*
X124618554Y-87900000D01*
X124612339Y-87900000D01*
X124510606Y-87927259D01*
X124419394Y-87979920D01*
X124344920Y-88054394D01*
X124292259Y-88145606D01*
X124265000Y-88247339D01*
X124265000Y-88253553D01*
X123585524Y-87574077D01*
X123568345Y-87575429D01*
X123549840Y-87589699D01*
X123545786Y-87590047D01*
X123542410Y-87592324D01*
X123511261Y-87593012D01*
X123480227Y-87595678D01*
X123476626Y-87593778D01*
X123472557Y-87593868D01*
X123445985Y-87577610D01*
X123418432Y-87563072D01*
X123415434Y-87558918D01*
X123412958Y-87557403D01*
X123407124Y-87547402D01*
X123393225Y-87528140D01*
X123389696Y-87520844D01*
X123359814Y-87430666D01*
X123267712Y-87281344D01*
X123143656Y-87157288D01*
X122994334Y-87065186D01*
X122994328Y-87065184D01*
X122960494Y-87053972D01*
X122903050Y-87014199D01*
X122876228Y-86949683D01*
X122875500Y-86936267D01*
X122875500Y-84751079D01*
X122846659Y-84606092D01*
X122846658Y-84606091D01*
X122846658Y-84606087D01*
X122846656Y-84606082D01*
X122790087Y-84469511D01*
X122790080Y-84469498D01*
X122707952Y-84346585D01*
X122661347Y-84299980D01*
X122603416Y-84242049D01*
X122211867Y-83850500D01*
X120878421Y-82517052D01*
X120878414Y-82517046D01*
X120800645Y-82465083D01*
X120800645Y-82465084D01*
X120755495Y-82434916D01*
X120755492Y-82434914D01*
X120755491Y-82434914D01*
X120618917Y-82378343D01*
X120618907Y-82378340D01*
X120473920Y-82349500D01*
X120473918Y-82349500D01*
X116613582Y-82349500D01*
X116613580Y-82349500D01*
X116468592Y-82378340D01*
X116468582Y-82378343D01*
X116332008Y-82434914D01*
X116332005Y-82434915D01*
X116332005Y-82434916D01*
X116286855Y-82465084D01*
X116286854Y-82465083D01*
X116209085Y-82517046D01*
X116209078Y-82517052D01*
X115162949Y-83563181D01*
X115101626Y-83596666D01*
X115075268Y-83599500D01*
X114674998Y-83599500D01*
X114674980Y-83599501D01*
X114572203Y-83610000D01*
X114572200Y-83610001D01*
X114405668Y-83665185D01*
X114405663Y-83665187D01*
X114256342Y-83757289D01*
X114132289Y-83881342D01*
X114040187Y-84030663D01*
X114040186Y-84030666D01*
X113985001Y-84197203D01*
X113985001Y-84197204D01*
X113985000Y-84197204D01*
X113974500Y-84299983D01*
X113974500Y-85300001D01*
X113974501Y-85300019D01*
X113985000Y-85402796D01*
X113985001Y-85402799D01*
X114037368Y-85560831D01*
X114040186Y-85569334D01*
X114132288Y-85718656D01*
X114256344Y-85842712D01*
X114405666Y-85934814D01*
X114572203Y-85989999D01*
X114674991Y-86000500D01*
X115300008Y-86000499D01*
X115300016Y-86000498D01*
X115300019Y-86000498D01*
X115356302Y-85994748D01*
X115402797Y-85989999D01*
X115569334Y-85934814D01*
X115718656Y-85842712D01*
X115812319Y-85749049D01*
X115820264Y-85744710D01*
X115825690Y-85737463D01*
X115850449Y-85728228D01*
X115873642Y-85715564D01*
X115882671Y-85716209D01*
X115891154Y-85713046D01*
X115916974Y-85718662D01*
X115943334Y-85720548D01*
X115952387Y-85726366D01*
X115959427Y-85727898D01*
X115987681Y-85749049D01*
X116025681Y-85787049D01*
X116059166Y-85848372D01*
X116062000Y-85874730D01*
X116062000Y-86086418D01*
X116062000Y-86086420D01*
X116061999Y-86086420D01*
X116090840Y-86231407D01*
X116090843Y-86231417D01*
X116147414Y-86367992D01*
X116147415Y-86367994D01*
X116147416Y-86367995D01*
X116180313Y-86417229D01*
X116228603Y-86489503D01*
X116249114Y-86555008D01*
X116249480Y-86556177D01*
X116249500Y-86558390D01*
X116249500Y-87873918D01*
X116249500Y-87873920D01*
X116249499Y-87873920D01*
X116278340Y-88018907D01*
X116278343Y-88018917D01*
X116334914Y-88155492D01*
X116334915Y-88155494D01*
X116334916Y-88155495D01*
X116363104Y-88197682D01*
X116367812Y-88204727D01*
X116367813Y-88204730D01*
X116417046Y-88278414D01*
X116417052Y-88278421D01*
X119021584Y-90882952D01*
X119021586Y-90882954D01*
X119051058Y-90902645D01*
X119095270Y-90932186D01*
X119144505Y-90965084D01*
X119144506Y-90965084D01*
X119144507Y-90965085D01*
X119144509Y-90965086D01*
X119281082Y-91021656D01*
X119281087Y-91021658D01*
X119281091Y-91021658D01*
X119281092Y-91021659D01*
X119426079Y-91050500D01*
X119426082Y-91050500D01*
X119426083Y-91050500D01*
X119550558Y-91050500D01*
X119617597Y-91070185D01*
X119663352Y-91122989D01*
X119673296Y-91192147D01*
X119644271Y-91255703D01*
X119606853Y-91284985D01*
X119443644Y-91368143D01*
X119399077Y-91400523D01*
X119399077Y-91400524D01*
X120078554Y-92080000D01*
X120072339Y-92080000D01*
X119970606Y-92107259D01*
X119879394Y-92159920D01*
X119804920Y-92234394D01*
X119752259Y-92325606D01*
X119725000Y-92427339D01*
X119725000Y-92433553D01*
X119045524Y-91754077D01*
X119045523Y-91754077D01*
X119013143Y-91798644D01*
X118920244Y-91980968D01*
X118857009Y-92175582D01*
X118825000Y-92377682D01*
X118825000Y-92582317D01*
X118857010Y-92784418D01*
X118857011Y-92784425D01*
X118867980Y-92818183D01*
X118869975Y-92888024D01*
X118833894Y-92947856D01*
X118771193Y-92978684D01*
X118750049Y-92980500D01*
X117302081Y-92980500D01*
X117290559Y-92982792D01*
X117279037Y-92985084D01*
X117279036Y-92985084D01*
X117157095Y-93009338D01*
X117157095Y-93009339D01*
X117157092Y-93009340D01*
X117157088Y-93009341D01*
X117077080Y-93042481D01*
X117077078Y-93042481D01*
X117020506Y-93065915D01*
X116981466Y-93092001D01*
X116897582Y-93148049D01*
X116897579Y-93148052D01*
X115391951Y-94653681D01*
X115330628Y-94687166D01*
X115304270Y-94690000D01*
X114440330Y-94690000D01*
X114460075Y-94670255D01*
X114509444Y-94584745D01*
X114535000Y-94489370D01*
X114535000Y-94390630D01*
X114509444Y-94295255D01*
X114460075Y-94209745D01*
X114445830Y-94195500D01*
X114486004Y-94195500D01*
X114486004Y-94195499D01*
X114499473Y-94192820D01*
X114501674Y-94192383D01*
X114525866Y-94190000D01*
X115410000Y-94190000D01*
X115410000Y-93867172D01*
X115409999Y-93867155D01*
X115403598Y-93807627D01*
X115403596Y-93807620D01*
X115353354Y-93672913D01*
X115353353Y-93672911D01*
X115352745Y-93672099D01*
X115352390Y-93671148D01*
X115349103Y-93665128D01*
X115349968Y-93664655D01*
X115328329Y-93606634D01*
X115337451Y-93550339D01*
X115371091Y-93469127D01*
X115410500Y-93271003D01*
X115410500Y-93068997D01*
X115371091Y-92870873D01*
X115293786Y-92684244D01*
X115240094Y-92603889D01*
X115219217Y-92537214D01*
X115237701Y-92469834D01*
X115240078Y-92466134D01*
X115293786Y-92385756D01*
X115371091Y-92199127D01*
X115410500Y-92001003D01*
X115410500Y-91798997D01*
X115371091Y-91600873D01*
X115293786Y-91414244D01*
X115293784Y-91414241D01*
X115293782Y-91414237D01*
X115181558Y-91246281D01*
X115038718Y-91103441D01*
X114870762Y-90991217D01*
X114870752Y-90991212D01*
X114684127Y-90913909D01*
X114684119Y-90913907D01*
X114486007Y-90874500D01*
X114486003Y-90874500D01*
X113833997Y-90874500D01*
X113833992Y-90874500D01*
X113635880Y-90913907D01*
X113635872Y-90913909D01*
X113449247Y-90991212D01*
X113449237Y-90991217D01*
X113281281Y-91103441D01*
X113138441Y-91246281D01*
X113026217Y-91414237D01*
X113026212Y-91414247D01*
X112948909Y-91600872D01*
X112948907Y-91600880D01*
X112909500Y-91798992D01*
X112909500Y-92001007D01*
X112948907Y-92199119D01*
X112948909Y-92199127D01*
X113026214Y-92385757D01*
X113065204Y-92444110D01*
X113086082Y-92510787D01*
X113067597Y-92578167D01*
X113015618Y-92624857D01*
X112962102Y-92637000D01*
X106574730Y-92637000D01*
X106507691Y-92617315D01*
X106487049Y-92600681D01*
X106418657Y-92532289D01*
X106418656Y-92532288D01*
X106269334Y-92440186D01*
X106102797Y-92385001D01*
X106102795Y-92385000D01*
X106000010Y-92374500D01*
X104999998Y-92374500D01*
X104999980Y-92374501D01*
X104897203Y-92385000D01*
X104897200Y-92385001D01*
X104730668Y-92440185D01*
X104730663Y-92440187D01*
X104581342Y-92532289D01*
X104457289Y-92656342D01*
X104365187Y-92805663D01*
X104365186Y-92805666D01*
X104310001Y-92972203D01*
X104310001Y-92972204D01*
X104310000Y-92972204D01*
X104299500Y-93074983D01*
X104299500Y-93700001D01*
X104299501Y-93700019D01*
X104310000Y-93802796D01*
X104310001Y-93802799D01*
X104350017Y-93923557D01*
X104365186Y-93969334D01*
X104454108Y-94113501D01*
X104457289Y-94118657D01*
X104550951Y-94212319D01*
X104584436Y-94273642D01*
X104579452Y-94343334D01*
X104550951Y-94387681D01*
X104457289Y-94481342D01*
X104365187Y-94630663D01*
X104365185Y-94630668D01*
X104352067Y-94670255D01*
X104310001Y-94797203D01*
X104310001Y-94797204D01*
X104310000Y-94797204D01*
X104299500Y-94899983D01*
X104299500Y-95525001D01*
X104299501Y-95525019D01*
X104310000Y-95627796D01*
X104310001Y-95627799D01*
X104365185Y-95794331D01*
X104365187Y-95794336D01*
X104374210Y-95808965D01*
X104457288Y-95943656D01*
X104581344Y-96067712D01*
X104730666Y-96159814D01*
X104875462Y-96207794D01*
X104932906Y-96247567D01*
X104959729Y-96312082D01*
X104947414Y-96380858D01*
X104899871Y-96432058D01*
X104836457Y-96449500D01*
X102824000Y-96449500D01*
X102756961Y-96429815D01*
X102711206Y-96377011D01*
X102700000Y-96325500D01*
X102700000Y-86883870D01*
X103224500Y-86883870D01*
X103224500Y-87116129D01*
X103260831Y-87345514D01*
X103332601Y-87566400D01*
X103435154Y-87767669D01*
X103438039Y-87773331D01*
X103574551Y-87961224D01*
X103738776Y-88125449D01*
X103926669Y-88261961D01*
X104024436Y-88311776D01*
X104133599Y-88367398D01*
X104133601Y-88367398D01*
X104133604Y-88367400D01*
X104354486Y-88439169D01*
X104472668Y-88457886D01*
X104583871Y-88475500D01*
X104583876Y-88475500D01*
X104816129Y-88475500D01*
X104917502Y-88459443D01*
X105045514Y-88439169D01*
X105266396Y-88367400D01*
X105473331Y-88261961D01*
X105661224Y-88125449D01*
X105824538Y-87962135D01*
X110499500Y-87962135D01*
X110499500Y-89657870D01*
X110499501Y-89657876D01*
X110505908Y-89717483D01*
X110556202Y-89852328D01*
X110556206Y-89852335D01*
X110642452Y-89967544D01*
X110642455Y-89967547D01*
X110757664Y-90053793D01*
X110757671Y-90053797D01*
X110892517Y-90104091D01*
X110892516Y-90104091D01*
X110899444Y-90104835D01*
X110952127Y-90110500D01*
X112647872Y-90110499D01*
X112707483Y-90104091D01*
X112842331Y-90053796D01*
X112957546Y-89967546D01*
X113043796Y-89852331D01*
X113094091Y-89717483D01*
X113100500Y-89657873D01*
X113100499Y-87962128D01*
X113094091Y-87902517D01*
X113093152Y-87900000D01*
X113043797Y-87767671D01*
X113043793Y-87767664D01*
X112957547Y-87652455D01*
X112957544Y-87652452D01*
X112842335Y-87566206D01*
X112842328Y-87566202D01*
X112707482Y-87515908D01*
X112707483Y-87515908D01*
X112647883Y-87509501D01*
X112647881Y-87509500D01*
X112647873Y-87509500D01*
X112647864Y-87509500D01*
X110952129Y-87509500D01*
X110952123Y-87509501D01*
X110892516Y-87515908D01*
X110757671Y-87566202D01*
X110757664Y-87566206D01*
X110642455Y-87652452D01*
X110642452Y-87652455D01*
X110556206Y-87767664D01*
X110556202Y-87767671D01*
X110505908Y-87902517D01*
X110499597Y-87961224D01*
X110499501Y-87962123D01*
X110499500Y-87962135D01*
X105824538Y-87962135D01*
X105825449Y-87961224D01*
X105961961Y-87773331D01*
X106067400Y-87566396D01*
X106139169Y-87345514D01*
X106164094Y-87188141D01*
X106175500Y-87116129D01*
X106175500Y-86883870D01*
X106156232Y-86762222D01*
X106139169Y-86654486D01*
X106067400Y-86433604D01*
X106067398Y-86433601D01*
X106067398Y-86433599D01*
X105988330Y-86278421D01*
X105961961Y-86226669D01*
X105825449Y-86038776D01*
X105661224Y-85874551D01*
X105473331Y-85738039D01*
X105435290Y-85718656D01*
X105266400Y-85632601D01*
X105045514Y-85560831D01*
X104816129Y-85524500D01*
X104816124Y-85524500D01*
X104583876Y-85524500D01*
X104583871Y-85524500D01*
X104354485Y-85560831D01*
X104133599Y-85632601D01*
X103926668Y-85738039D01*
X103738773Y-85874553D01*
X103574553Y-86038773D01*
X103438039Y-86226668D01*
X103332601Y-86433599D01*
X103260831Y-86654485D01*
X103224500Y-86883870D01*
X102700000Y-86883870D01*
X102700000Y-80883870D01*
X105224500Y-80883870D01*
X105224500Y-81116129D01*
X105260831Y-81345514D01*
X105332601Y-81566400D01*
X105430978Y-81759474D01*
X105438039Y-81773331D01*
X105574551Y-81961224D01*
X105738776Y-82125449D01*
X105926669Y-82261961D01*
X106005807Y-82302284D01*
X106133599Y-82367398D01*
X106133601Y-82367398D01*
X106133604Y-82367400D01*
X106354486Y-82439169D01*
X106472668Y-82457886D01*
X106583871Y-82475500D01*
X106583876Y-82475500D01*
X106816129Y-82475500D01*
X106923605Y-82458477D01*
X107045514Y-82439169D01*
X107266396Y-82367400D01*
X107473331Y-82261961D01*
X107661224Y-82125449D01*
X107825449Y-81961224D01*
X107961961Y-81773331D01*
X108067400Y-81566396D01*
X108139169Y-81345514D01*
X108164051Y-81188412D01*
X108175500Y-81116129D01*
X108175500Y-81087648D01*
X110499500Y-81087648D01*
X110499500Y-81292351D01*
X110531522Y-81494534D01*
X110594781Y-81689223D01*
X110658691Y-81814653D01*
X110663988Y-81825048D01*
X110687715Y-81871613D01*
X110808028Y-82037213D01*
X110952786Y-82181971D01*
X111107749Y-82294556D01*
X111118390Y-82302287D01*
X111211051Y-82349500D01*
X111300776Y-82395218D01*
X111300778Y-82395218D01*
X111300781Y-82395220D01*
X111405137Y-82429127D01*
X111495465Y-82458477D01*
X111537199Y-82465087D01*
X111697648Y-82490500D01*
X111697649Y-82490500D01*
X111902351Y-82490500D01*
X111902352Y-82490500D01*
X112104534Y-82458477D01*
X112299219Y-82395220D01*
X112481610Y-82302287D01*
X112574590Y-82234732D01*
X112647213Y-82181971D01*
X112647215Y-82181968D01*
X112647219Y-82181966D01*
X112791966Y-82037219D01*
X112791968Y-82037215D01*
X112791971Y-82037213D01*
X112856794Y-81947990D01*
X112912287Y-81871610D01*
X113005220Y-81689219D01*
X113068477Y-81494534D01*
X113100500Y-81292352D01*
X113100500Y-81087648D01*
X113068477Y-80885466D01*
X113067960Y-80883876D01*
X113033001Y-80776283D01*
X113005220Y-80690781D01*
X113005218Y-80690778D01*
X113005218Y-80690776D01*
X112947593Y-80577682D01*
X112912287Y-80508390D01*
X112876817Y-80459569D01*
X112791971Y-80342786D01*
X112647213Y-80198028D01*
X112481613Y-80077715D01*
X112481612Y-80077714D01*
X112481610Y-80077713D01*
X112405186Y-80038773D01*
X112299223Y-79984781D01*
X112104534Y-79921522D01*
X111929995Y-79893878D01*
X111902352Y-79889500D01*
X111697648Y-79889500D01*
X111673329Y-79893351D01*
X111495465Y-79921522D01*
X111300776Y-79984781D01*
X111118386Y-80077715D01*
X110952786Y-80198028D01*
X110808028Y-80342786D01*
X110687715Y-80508386D01*
X110594781Y-80690776D01*
X110531522Y-80885465D01*
X110499500Y-81087648D01*
X108175500Y-81087648D01*
X108175500Y-80883870D01*
X108151550Y-80732661D01*
X108139169Y-80654486D01*
X108067400Y-80433604D01*
X108067398Y-80433601D01*
X108067398Y-80433599D01*
X108001775Y-80304809D01*
X107961961Y-80226669D01*
X107825449Y-80038776D01*
X107661224Y-79874551D01*
X107473331Y-79738039D01*
X107266400Y-79632601D01*
X107045514Y-79560831D01*
X106816129Y-79524500D01*
X106816124Y-79524500D01*
X106583876Y-79524500D01*
X106583871Y-79524500D01*
X106354485Y-79560831D01*
X106133599Y-79632601D01*
X105926668Y-79738039D01*
X105738773Y-79874553D01*
X105574553Y-80038773D01*
X105438039Y-80226668D01*
X105332601Y-80433599D01*
X105260831Y-80654485D01*
X105224500Y-80883870D01*
X102700000Y-80883870D01*
X102700000Y-74883870D01*
X103224500Y-74883870D01*
X103224500Y-75116129D01*
X103260831Y-75345514D01*
X103332601Y-75566400D01*
X103432190Y-75761851D01*
X103438039Y-75773331D01*
X103574551Y-75961224D01*
X103738776Y-76125449D01*
X103926669Y-76261961D01*
X103997038Y-76297816D01*
X104133599Y-76367398D01*
X104133601Y-76367398D01*
X104133604Y-76367400D01*
X104354486Y-76439169D01*
X104472668Y-76457886D01*
X104583871Y-76475500D01*
X104583876Y-76475500D01*
X104816129Y-76475500D01*
X104917502Y-76459443D01*
X105045514Y-76439169D01*
X105266396Y-76367400D01*
X105473331Y-76261961D01*
X105661224Y-76125449D01*
X105825449Y-75961224D01*
X105961961Y-75773331D01*
X106067400Y-75566396D01*
X106139169Y-75345514D01*
X106146036Y-75302155D01*
X110405000Y-75302155D01*
X110405000Y-75850000D01*
X111149670Y-75850000D01*
X111129925Y-75869745D01*
X111080556Y-75955255D01*
X111055000Y-76050630D01*
X111055000Y-76149370D01*
X111080556Y-76244745D01*
X111129925Y-76330255D01*
X111149670Y-76350000D01*
X110405000Y-76350000D01*
X110405000Y-76897844D01*
X110411401Y-76957372D01*
X110411403Y-76957379D01*
X110461645Y-77092086D01*
X110461649Y-77092093D01*
X110547809Y-77207187D01*
X110547812Y-77207190D01*
X110662906Y-77293350D01*
X110662913Y-77293354D01*
X110797620Y-77343596D01*
X110797627Y-77343598D01*
X110857155Y-77349999D01*
X110857172Y-77350000D01*
X111180000Y-77350000D01*
X111180000Y-76380330D01*
X111199745Y-76400075D01*
X111285255Y-76449444D01*
X111380630Y-76475000D01*
X111479370Y-76475000D01*
X111574745Y-76449444D01*
X111660255Y-76400075D01*
X111674500Y-76385830D01*
X111674500Y-76426002D01*
X111677617Y-76441671D01*
X111680000Y-76465865D01*
X111680000Y-77350000D01*
X112002828Y-77350000D01*
X112002844Y-77349999D01*
X112062372Y-77343598D01*
X112062376Y-77343597D01*
X112197089Y-77293352D01*
X112197896Y-77292748D01*
X112198845Y-77292393D01*
X112204876Y-77289101D01*
X112205349Y-77289967D01*
X112263360Y-77268329D01*
X112319661Y-77277451D01*
X112400873Y-77311091D01*
X112564288Y-77343596D01*
X112598992Y-77350499D01*
X112598996Y-77350500D01*
X112598997Y-77350500D01*
X112801004Y-77350500D01*
X112801005Y-77350499D01*
X112999127Y-77311091D01*
X113185756Y-77233786D01*
X113266110Y-77180094D01*
X113332786Y-77159217D01*
X113400166Y-77177701D01*
X113403865Y-77180078D01*
X113484244Y-77233786D01*
X113670873Y-77311091D01*
X113834288Y-77343596D01*
X113868992Y-77350499D01*
X113868996Y-77350500D01*
X113868997Y-77350500D01*
X114071004Y-77350500D01*
X114071005Y-77350499D01*
X114269127Y-77311091D01*
X114455756Y-77233786D01*
X114623718Y-77121558D01*
X114766558Y-76978718D01*
X114878786Y-76810756D01*
X114956091Y-76624127D01*
X114976070Y-76523684D01*
X114991383Y-76446703D01*
X115023768Y-76384792D01*
X115084483Y-76350218D01*
X115154253Y-76353957D01*
X115210925Y-76394823D01*
X115236506Y-76459841D01*
X115237000Y-76470894D01*
X115237000Y-79618272D01*
X115218539Y-79683368D01*
X115127689Y-79830659D01*
X115127685Y-79830668D01*
X115113144Y-79874551D01*
X115072501Y-79997203D01*
X115072501Y-79997204D01*
X115072500Y-79997204D01*
X115062000Y-80099983D01*
X115062000Y-81100001D01*
X115062001Y-81100019D01*
X115072500Y-81202796D01*
X115072501Y-81202799D01*
X115127685Y-81369331D01*
X115127687Y-81369336D01*
X115162499Y-81425776D01*
X115219788Y-81518656D01*
X115343844Y-81642712D01*
X115493166Y-81734814D01*
X115659703Y-81789999D01*
X115762491Y-81800500D01*
X116387508Y-81800499D01*
X116387516Y-81800498D01*
X116387519Y-81800498D01*
X116443802Y-81794748D01*
X116490297Y-81789999D01*
X116656834Y-81734814D01*
X116806156Y-81642712D01*
X116899819Y-81549049D01*
X116961142Y-81515564D01*
X117030834Y-81520548D01*
X117075181Y-81549049D01*
X117168844Y-81642712D01*
X117318166Y-81734814D01*
X117484703Y-81789999D01*
X117587491Y-81800500D01*
X118212508Y-81800499D01*
X118212516Y-81800498D01*
X118212519Y-81800498D01*
X118268802Y-81794748D01*
X118315297Y-81789999D01*
X118481834Y-81734814D01*
X118631156Y-81642712D01*
X118755212Y-81518656D01*
X118847314Y-81369334D01*
X118902499Y-81202797D01*
X118913000Y-81100009D01*
X118912999Y-80699728D01*
X118932683Y-80632690D01*
X118949313Y-80612053D01*
X119674548Y-79886819D01*
X119735871Y-79853334D01*
X119762229Y-79850500D01*
X120886277Y-79850500D01*
X120953316Y-79870185D01*
X120999071Y-79922989D01*
X121009015Y-79992147D01*
X120996762Y-80030795D01*
X120920244Y-80180968D01*
X120857009Y-80375582D01*
X120825000Y-80577682D01*
X120825000Y-80782317D01*
X120857009Y-80984417D01*
X120920244Y-81179031D01*
X121013141Y-81361350D01*
X121013147Y-81361359D01*
X121045523Y-81405921D01*
X121045524Y-81405922D01*
X121725000Y-80726446D01*
X121725000Y-80732661D01*
X121752259Y-80834394D01*
X121804920Y-80925606D01*
X121879394Y-81000080D01*
X121970606Y-81052741D01*
X122072339Y-81080000D01*
X122078553Y-81080000D01*
X121399076Y-81759474D01*
X121443650Y-81791859D01*
X121625968Y-81884755D01*
X121820582Y-81947990D01*
X122022683Y-81980000D01*
X122227317Y-81980000D01*
X122429417Y-81947990D01*
X122624031Y-81884755D01*
X122806349Y-81791859D01*
X122850921Y-81759474D01*
X122171447Y-81080000D01*
X122177661Y-81080000D01*
X122279394Y-81052741D01*
X122370606Y-81000080D01*
X122445080Y-80925606D01*
X122497741Y-80834394D01*
X122525000Y-80732661D01*
X122525000Y-80726447D01*
X123204474Y-81405921D01*
X123236861Y-81361347D01*
X123236861Y-81361346D01*
X123284234Y-81268371D01*
X123332208Y-81217575D01*
X123400028Y-81200779D01*
X123466164Y-81223316D01*
X123505203Y-81268369D01*
X123552713Y-81361611D01*
X123673028Y-81527213D01*
X123817786Y-81671971D01*
X123938226Y-81759474D01*
X123983390Y-81792287D01*
X124099607Y-81851503D01*
X124165776Y-81885218D01*
X124165778Y-81885218D01*
X124165781Y-81885220D01*
X124270137Y-81919127D01*
X124360465Y-81948477D01*
X124440946Y-81961224D01*
X124562648Y-81980500D01*
X124562649Y-81980500D01*
X124767351Y-81980500D01*
X124767352Y-81980500D01*
X124969534Y-81948477D01*
X125164219Y-81885220D01*
X125346610Y-81792287D01*
X125439590Y-81724732D01*
X125512213Y-81671971D01*
X125512215Y-81671968D01*
X125512219Y-81671966D01*
X125656966Y-81527219D01*
X125656968Y-81527215D01*
X125656971Y-81527213D01*
X125730668Y-81425776D01*
X125777287Y-81361610D01*
X125870220Y-81179219D01*
X125933477Y-80984534D01*
X125965500Y-80782352D01*
X125965500Y-80577648D01*
X125946798Y-80459569D01*
X125933477Y-80375465D01*
X125885130Y-80226669D01*
X125870220Y-80180781D01*
X125870218Y-80180778D01*
X125870218Y-80180776D01*
X125809815Y-80062230D01*
X125777287Y-79998390D01*
X125750982Y-79962184D01*
X125656971Y-79832786D01*
X125512213Y-79688028D01*
X125346613Y-79567715D01*
X125346612Y-79567714D01*
X125346610Y-79567713D01*
X125261800Y-79524500D01*
X125164223Y-79474781D01*
X124969534Y-79411522D01*
X124794995Y-79383878D01*
X124767352Y-79379500D01*
X124562648Y-79379500D01*
X124506971Y-79388318D01*
X124437678Y-79379363D01*
X124399893Y-79353526D01*
X123563421Y-78517052D01*
X123563418Y-78517049D01*
X123484126Y-78464069D01*
X123473772Y-78457151D01*
X123440495Y-78434916D01*
X123440492Y-78434914D01*
X123440491Y-78434914D01*
X123303917Y-78378343D01*
X123303907Y-78378340D01*
X123158920Y-78349500D01*
X123158918Y-78349500D01*
X122430436Y-78349500D01*
X122363397Y-78329815D01*
X122317642Y-78277011D01*
X122307698Y-78207853D01*
X122336723Y-78144297D01*
X122376635Y-78113780D01*
X122550333Y-78030131D01*
X122854664Y-77838907D01*
X123080364Y-77658916D01*
X121761718Y-76340270D01*
X121879466Y-76254722D01*
X122029722Y-76104466D01*
X122115270Y-75986718D01*
X123433916Y-77305364D01*
X123613907Y-77079664D01*
X123805129Y-76775336D01*
X123961072Y-76451517D01*
X124079779Y-76112270D01*
X124079780Y-76112268D01*
X124159757Y-75761863D01*
X124159759Y-75761851D01*
X124199999Y-75404712D01*
X124200000Y-75404710D01*
X124200000Y-75045289D01*
X124199999Y-75045287D01*
X124159759Y-74688148D01*
X124159757Y-74688136D01*
X124079780Y-74337731D01*
X124079779Y-74337729D01*
X123961072Y-73998482D01*
X123805129Y-73674663D01*
X123613907Y-73370335D01*
X123433916Y-73144634D01*
X122115270Y-74463281D01*
X122029722Y-74345534D01*
X121879466Y-74195278D01*
X121761716Y-74109728D01*
X123080364Y-72791081D01*
X122854664Y-72611092D01*
X122550336Y-72419870D01*
X122226517Y-72263927D01*
X121887270Y-72145220D01*
X121887268Y-72145219D01*
X121536863Y-72065242D01*
X121536851Y-72065240D01*
X121179712Y-72025000D01*
X120820287Y-72025000D01*
X120463148Y-72065240D01*
X120463136Y-72065242D01*
X120112731Y-72145219D01*
X120112729Y-72145220D01*
X119773482Y-72263927D01*
X119449663Y-72419870D01*
X119145335Y-72611092D01*
X118919634Y-72791081D01*
X120238282Y-74109729D01*
X120120534Y-74195278D01*
X119970278Y-74345534D01*
X119884729Y-74463282D01*
X118566081Y-73144634D01*
X118386092Y-73370335D01*
X118194870Y-73674663D01*
X118038927Y-73998482D01*
X117920220Y-74337729D01*
X117920219Y-74337731D01*
X117840242Y-74688136D01*
X117840240Y-74688148D01*
X117800000Y-75045287D01*
X117800000Y-75404712D01*
X117840240Y-75761851D01*
X117840242Y-75761863D01*
X117920219Y-76112268D01*
X117920220Y-76112270D01*
X118038927Y-76451517D01*
X118194870Y-76775336D01*
X118386092Y-77079664D01*
X118566081Y-77305364D01*
X119884728Y-75986717D01*
X119970278Y-76104466D01*
X120120534Y-76254722D01*
X120238281Y-76340270D01*
X118919634Y-77658916D01*
X118919634Y-77658917D01*
X119145335Y-77838907D01*
X119449666Y-78030131D01*
X119623365Y-78113780D01*
X119675225Y-78160602D01*
X119693538Y-78228029D01*
X119672490Y-78294653D01*
X119618764Y-78339322D01*
X119569564Y-78349500D01*
X119326080Y-78349500D01*
X119181092Y-78378340D01*
X119181082Y-78378343D01*
X119044511Y-78434912D01*
X119044498Y-78434919D01*
X118921584Y-78517048D01*
X118921580Y-78517051D01*
X118075450Y-79363181D01*
X118014127Y-79396666D01*
X117987769Y-79399500D01*
X117587498Y-79399500D01*
X117587480Y-79399501D01*
X117484703Y-79410000D01*
X117484700Y-79410001D01*
X117318168Y-79465185D01*
X117318163Y-79465187D01*
X117168842Y-79557289D01*
X117075181Y-79650951D01*
X117069105Y-79654268D01*
X117065148Y-79659949D01*
X117038832Y-79670798D01*
X117013858Y-79684436D01*
X117006954Y-79683942D01*
X117000554Y-79686581D01*
X116972555Y-79681482D01*
X116944166Y-79679452D01*
X116936977Y-79675003D01*
X116931814Y-79674063D01*
X116910026Y-79658324D01*
X116902856Y-79653887D01*
X116901323Y-79652455D01*
X116806156Y-79557288D01*
X116786385Y-79545093D01*
X116777356Y-79536659D01*
X116765612Y-79516791D01*
X116750178Y-79499632D01*
X116746873Y-79485092D01*
X116741802Y-79476512D01*
X116742242Y-79464712D01*
X116738000Y-79446042D01*
X116738000Y-73713580D01*
X116730258Y-73674663D01*
X116721961Y-73632951D01*
X116709159Y-73568588D01*
X116673686Y-73482951D01*
X116652584Y-73432005D01*
X116597456Y-73349500D01*
X116570452Y-73309085D01*
X116570450Y-73309082D01*
X116188577Y-72927209D01*
X115578421Y-72317052D01*
X115578414Y-72317046D01*
X115504729Y-72267812D01*
X115504729Y-72267813D01*
X115455491Y-72234913D01*
X115318917Y-72178343D01*
X115318907Y-72178340D01*
X115173920Y-72149500D01*
X115173918Y-72149500D01*
X113973917Y-72149500D01*
X113826082Y-72149500D01*
X113826080Y-72149500D01*
X113681092Y-72178340D01*
X113681082Y-72178343D01*
X113544511Y-72234912D01*
X113544498Y-72234919D01*
X113421584Y-72317048D01*
X113421580Y-72317051D01*
X112117052Y-73621578D01*
X112117051Y-73621579D01*
X112109687Y-73632601D01*
X112073461Y-73686819D01*
X112072818Y-73687781D01*
X112072817Y-73687782D01*
X112034919Y-73744499D01*
X112034912Y-73744511D01*
X111978343Y-73881082D01*
X111978340Y-73881092D01*
X111949500Y-74026079D01*
X111949500Y-74726000D01*
X111929815Y-74793039D01*
X111877011Y-74838794D01*
X111825500Y-74850000D01*
X111680000Y-74850000D01*
X111680000Y-75734134D01*
X111677617Y-75758326D01*
X111674500Y-75773995D01*
X111674500Y-75814170D01*
X111660255Y-75799925D01*
X111574745Y-75750556D01*
X111479370Y-75725000D01*
X111380630Y-75725000D01*
X111285255Y-75750556D01*
X111199745Y-75799925D01*
X111180000Y-75819670D01*
X111180000Y-74850000D01*
X110857155Y-74850000D01*
X110797627Y-74856401D01*
X110797620Y-74856403D01*
X110662913Y-74906645D01*
X110662906Y-74906649D01*
X110547812Y-74992809D01*
X110547809Y-74992812D01*
X110461649Y-75107906D01*
X110461645Y-75107913D01*
X110411403Y-75242620D01*
X110411401Y-75242627D01*
X110405000Y-75302155D01*
X106146036Y-75302155D01*
X106149632Y-75279453D01*
X106175500Y-75116129D01*
X106175500Y-74883870D01*
X106144500Y-74688148D01*
X106139169Y-74654486D01*
X106067400Y-74433604D01*
X106067398Y-74433601D01*
X106067398Y-74433599D01*
X105977694Y-74257547D01*
X105961961Y-74226669D01*
X105825449Y-74038776D01*
X105661224Y-73874551D01*
X105473331Y-73738039D01*
X105425328Y-73713580D01*
X105266400Y-73632601D01*
X105045514Y-73560831D01*
X104816129Y-73524500D01*
X104816124Y-73524500D01*
X104583876Y-73524500D01*
X104583871Y-73524500D01*
X104354485Y-73560831D01*
X104133599Y-73632601D01*
X103926668Y-73738039D01*
X103738773Y-73874553D01*
X103574553Y-74038773D01*
X103438039Y-74226668D01*
X103332601Y-74433599D01*
X103260831Y-74654485D01*
X103224500Y-74883870D01*
X102700000Y-74883870D01*
X102700000Y-66581213D01*
X121074500Y-66581213D01*
X121074500Y-67093786D01*
X121107753Y-67303739D01*
X121173444Y-67505914D01*
X121269951Y-67695320D01*
X121394890Y-67867286D01*
X121545213Y-68017609D01*
X121717179Y-68142548D01*
X121717181Y-68142549D01*
X121717184Y-68142551D01*
X121906588Y-68239057D01*
X122108757Y-68304746D01*
X122318713Y-68338000D01*
X122318714Y-68338000D01*
X122531286Y-68338000D01*
X122531287Y-68338000D01*
X122741243Y-68304746D01*
X122943412Y-68239057D01*
X123132816Y-68142551D01*
X123232420Y-68070185D01*
X123304786Y-68017609D01*
X123304788Y-68017606D01*
X123304792Y-68017604D01*
X123455104Y-67867292D01*
X123455106Y-67867288D01*
X123455109Y-67867286D01*
X123580048Y-67695320D01*
X123580047Y-67695320D01*
X123580051Y-67695316D01*
X123676557Y-67505912D01*
X123742246Y-67303743D01*
X123775500Y-67093787D01*
X123775500Y-66581213D01*
X123742246Y-66371257D01*
X123676557Y-66169088D01*
X123580051Y-65979684D01*
X123580049Y-65979681D01*
X123580048Y-65979679D01*
X123455109Y-65807713D01*
X123304794Y-65657398D01*
X123304788Y-65657393D01*
X123226615Y-65600597D01*
X123183949Y-65545267D01*
X123175500Y-65500279D01*
X123175500Y-64305815D01*
X129275000Y-64305815D01*
X129285407Y-64407673D01*
X129340094Y-64572709D01*
X129340096Y-64572714D01*
X129431370Y-64720691D01*
X129554308Y-64843629D01*
X129702285Y-64934903D01*
X129702290Y-64934905D01*
X129867326Y-64989592D01*
X129969184Y-64999999D01*
X129969197Y-65000000D01*
X130012500Y-65000000D01*
X130012500Y-64050000D01*
X129275000Y-64050000D01*
X129275000Y-64305815D01*
X123175500Y-64305815D01*
X123175500Y-63294184D01*
X129275000Y-63294184D01*
X129275000Y-63550000D01*
X130012500Y-63550000D01*
X130012500Y-62600000D01*
X129969184Y-62600000D01*
X129867326Y-62610407D01*
X129702290Y-62665094D01*
X129702285Y-62665096D01*
X129554308Y-62756370D01*
X129431370Y-62879308D01*
X129340096Y-63027285D01*
X129340094Y-63027290D01*
X129285407Y-63192326D01*
X129275000Y-63294184D01*
X123175500Y-63294184D01*
X123175500Y-62137230D01*
X123195185Y-62070191D01*
X123211819Y-62049549D01*
X125455553Y-59805815D01*
X129275000Y-59805815D01*
X129285407Y-59907673D01*
X129340094Y-60072709D01*
X129340096Y-60072714D01*
X129431370Y-60220691D01*
X129554308Y-60343629D01*
X129702285Y-60434903D01*
X129702290Y-60434905D01*
X129867326Y-60489592D01*
X129969184Y-60499999D01*
X129969197Y-60500000D01*
X130012500Y-60500000D01*
X130012500Y-59550000D01*
X129275000Y-59550000D01*
X129275000Y-59805815D01*
X125455553Y-59805815D01*
X126467184Y-58794184D01*
X129275000Y-58794184D01*
X129275000Y-59050000D01*
X130012500Y-59050000D01*
X130012500Y-58100000D01*
X129969184Y-58100000D01*
X129867326Y-58110407D01*
X129702290Y-58165094D01*
X129702285Y-58165096D01*
X129554308Y-58256370D01*
X129431370Y-58379308D01*
X129340096Y-58527285D01*
X129340094Y-58527290D01*
X129285407Y-58692326D01*
X129275000Y-58794184D01*
X126467184Y-58794184D01*
X127774549Y-57486819D01*
X127835872Y-57453334D01*
X127862230Y-57450500D01*
X130223920Y-57450500D01*
X130321462Y-57431096D01*
X130368913Y-57421658D01*
X130505495Y-57365084D01*
X130554729Y-57332186D01*
X130628416Y-57282952D01*
X131749548Y-56161817D01*
X131810871Y-56128333D01*
X131837229Y-56125499D01*
X132250002Y-56125499D01*
X132250008Y-56125499D01*
X132352797Y-56114999D01*
X132519334Y-56059814D01*
X132668656Y-55967712D01*
X132792712Y-55843656D01*
X132875519Y-55709402D01*
X132927467Y-55662679D01*
X132981058Y-55650500D01*
X133557058Y-55650500D01*
X133624097Y-55670185D01*
X133668146Y-55719406D01*
X133682969Y-55749295D01*
X133802277Y-55897721D01*
X133802278Y-55897722D01*
X133950704Y-56017030D01*
X133950707Y-56017032D01*
X134121302Y-56101639D01*
X134121303Y-56101639D01*
X134121307Y-56101641D01*
X134306111Y-56147600D01*
X134348877Y-56150500D01*
X135751122Y-56150499D01*
X135793889Y-56147600D01*
X135978693Y-56101641D01*
X136149296Y-56017030D01*
X136297722Y-55897722D01*
X136417030Y-55749296D01*
X136501641Y-55578693D01*
X136547600Y-55393889D01*
X136550500Y-55351123D01*
X136550499Y-54448878D01*
X136547600Y-54406111D01*
X136501641Y-54221307D01*
X136457303Y-54131907D01*
X136417032Y-54050707D01*
X136417030Y-54050704D01*
X136297722Y-53902278D01*
X136297721Y-53902277D01*
X136228514Y-53846647D01*
X136188595Y-53789304D01*
X136186015Y-53719482D01*
X136221594Y-53659349D01*
X136228514Y-53653353D01*
X136237909Y-53645800D01*
X136297722Y-53597722D01*
X136417030Y-53449296D01*
X136501641Y-53278693D01*
X136547600Y-53093889D01*
X136550500Y-53051123D01*
X136550499Y-52148878D01*
X136547600Y-52106111D01*
X136501641Y-51921307D01*
X136492723Y-51903326D01*
X136417032Y-51750707D01*
X136417030Y-51750704D01*
X136297724Y-51602280D01*
X136297722Y-51602278D01*
X136228112Y-51546324D01*
X136188196Y-51488985D01*
X136185616Y-51419163D01*
X136221194Y-51359030D01*
X136228115Y-51353033D01*
X136297366Y-51297367D01*
X136297367Y-51297366D01*
X136416607Y-51149025D01*
X136416609Y-51149022D01*
X136501168Y-50978523D01*
X136547102Y-50793824D01*
X136550000Y-50751096D01*
X136550000Y-50550000D01*
X133550000Y-50550000D01*
X133550000Y-50751096D01*
X133552897Y-50793824D01*
X133598831Y-50978523D01*
X133683390Y-51149022D01*
X133683392Y-51149025D01*
X133802630Y-51297364D01*
X133871884Y-51353031D01*
X133911803Y-51410375D01*
X133914383Y-51480197D01*
X133878805Y-51540329D01*
X133871882Y-51546328D01*
X133839845Y-51572079D01*
X133775261Y-51598736D01*
X133706517Y-51586244D01*
X133674479Y-51563111D01*
X132986818Y-50875450D01*
X132953333Y-50814127D01*
X132950499Y-50787769D01*
X132950499Y-50374998D01*
X132950498Y-50374981D01*
X132939999Y-50272203D01*
X132939998Y-50272200D01*
X132936994Y-50263136D01*
X132884814Y-50105666D01*
X132792712Y-49956344D01*
X132685271Y-49848903D01*
X133550000Y-49848903D01*
X133550000Y-50050000D01*
X134800000Y-50050000D01*
X135300000Y-50050000D01*
X136550000Y-50050000D01*
X136550000Y-49848903D01*
X136547102Y-49806175D01*
X136501168Y-49621476D01*
X136416609Y-49450977D01*
X136416607Y-49450974D01*
X136297367Y-49302633D01*
X136297366Y-49302632D01*
X136149025Y-49183392D01*
X136149022Y-49183390D01*
X135978523Y-49098831D01*
X135793824Y-49052897D01*
X135751097Y-49050000D01*
X135300000Y-49050000D01*
X135300000Y-50050000D01*
X134800000Y-50050000D01*
X134800000Y-49050000D01*
X134348903Y-49050000D01*
X134306175Y-49052897D01*
X134121476Y-49098831D01*
X133950977Y-49183390D01*
X133950974Y-49183392D01*
X133802633Y-49302632D01*
X133802632Y-49302633D01*
X133683392Y-49450974D01*
X133683390Y-49450977D01*
X133598831Y-49621476D01*
X133552897Y-49806175D01*
X133550000Y-49848903D01*
X132685271Y-49848903D01*
X132668656Y-49832288D01*
X132519334Y-49740186D01*
X132352797Y-49685001D01*
X132352795Y-49685000D01*
X132250010Y-49674500D01*
X131649998Y-49674500D01*
X131649980Y-49674501D01*
X131547203Y-49685000D01*
X131547200Y-49685001D01*
X131380668Y-49740185D01*
X131380663Y-49740187D01*
X131231342Y-49832289D01*
X131107288Y-49956343D01*
X131107283Y-49956349D01*
X131105241Y-49959661D01*
X131103247Y-49961453D01*
X131102807Y-49962011D01*
X131102711Y-49961935D01*
X131053291Y-50006383D01*
X130984328Y-50017602D01*
X130920247Y-49989755D01*
X130894168Y-49959656D01*
X130892319Y-49956659D01*
X130892316Y-49956655D01*
X130768345Y-49832684D01*
X130619124Y-49740643D01*
X130619119Y-49740641D01*
X130452697Y-49685494D01*
X130452690Y-49685493D01*
X130349986Y-49675000D01*
X130300000Y-49675000D01*
X130300000Y-52124999D01*
X130349972Y-52124999D01*
X130349986Y-52124998D01*
X130452697Y-52114505D01*
X130619119Y-52059358D01*
X130619124Y-52059356D01*
X130768345Y-51967315D01*
X130892318Y-51843342D01*
X130894165Y-51840348D01*
X130895969Y-51838724D01*
X130896798Y-51837677D01*
X130896976Y-51837818D01*
X130946110Y-51793621D01*
X131015073Y-51782396D01*
X131079156Y-51810236D01*
X131105243Y-51840341D01*
X131107288Y-51843656D01*
X131231344Y-51967712D01*
X131380666Y-52059814D01*
X131547203Y-52114999D01*
X131649991Y-52125500D01*
X132062769Y-52125499D01*
X132129808Y-52145183D01*
X132150450Y-52161818D01*
X133171586Y-53182954D01*
X133201058Y-53202645D01*
X133245270Y-53232186D01*
X133294505Y-53265084D01*
X133294506Y-53265084D01*
X133294507Y-53265085D01*
X133294509Y-53265086D01*
X133431082Y-53321656D01*
X133431087Y-53321658D01*
X133431091Y-53321658D01*
X133431092Y-53321659D01*
X133580504Y-53351380D01*
X133642415Y-53383765D01*
X133667398Y-53417899D01*
X133682970Y-53449296D01*
X133682972Y-53449298D01*
X133802277Y-53597721D01*
X133802278Y-53597722D01*
X133871486Y-53653353D01*
X133911405Y-53710696D01*
X133913985Y-53780518D01*
X133878406Y-53840651D01*
X133871486Y-53846647D01*
X133802278Y-53902277D01*
X133802277Y-53902278D01*
X133682969Y-54050704D01*
X133668146Y-54080594D01*
X133620725Y-54131907D01*
X133557058Y-54149500D01*
X132981058Y-54149500D01*
X132914019Y-54129815D01*
X132875519Y-54090597D01*
X132792712Y-53956344D01*
X132668656Y-53832288D01*
X132519334Y-53740186D01*
X132352797Y-53685001D01*
X132352795Y-53685000D01*
X132250010Y-53674500D01*
X131649998Y-53674500D01*
X131649980Y-53674501D01*
X131547203Y-53685000D01*
X131547200Y-53685001D01*
X131380668Y-53740185D01*
X131380663Y-53740187D01*
X131231342Y-53832289D01*
X131107288Y-53956343D01*
X131107283Y-53956349D01*
X131105241Y-53959661D01*
X131103247Y-53961453D01*
X131102807Y-53962011D01*
X131102711Y-53961935D01*
X131053291Y-54006383D01*
X130984328Y-54017602D01*
X130920247Y-53989755D01*
X130894168Y-53959656D01*
X130892319Y-53956659D01*
X130892316Y-53956655D01*
X130768345Y-53832684D01*
X130619124Y-53740643D01*
X130619119Y-53740641D01*
X130452697Y-53685494D01*
X130452690Y-53685493D01*
X130349986Y-53675000D01*
X130300000Y-53675000D01*
X130300000Y-54776000D01*
X130280315Y-54843039D01*
X130227511Y-54888794D01*
X130176000Y-54900000D01*
X130050000Y-54900000D01*
X130050000Y-55026000D01*
X130030315Y-55093039D01*
X129977511Y-55138794D01*
X129926000Y-55150000D01*
X129050001Y-55150000D01*
X129050001Y-55424986D01*
X129060494Y-55527697D01*
X129115641Y-55694119D01*
X129115643Y-55694124D01*
X129156525Y-55760403D01*
X129174965Y-55827796D01*
X129154042Y-55894459D01*
X129100401Y-55939229D01*
X129050986Y-55949500D01*
X127426080Y-55949500D01*
X127281092Y-55978340D01*
X127281086Y-55978342D01*
X127144508Y-56034914D01*
X127144496Y-56034921D01*
X127095269Y-56067813D01*
X127021588Y-56117044D01*
X127021580Y-56117050D01*
X121842050Y-61296581D01*
X121842048Y-61296584D01*
X121822339Y-61326082D01*
X121759914Y-61419507D01*
X121703343Y-61556082D01*
X121703340Y-61556092D01*
X121674500Y-61701079D01*
X121674500Y-65500279D01*
X121654815Y-65567318D01*
X121623385Y-65600597D01*
X121545211Y-65657393D01*
X121545205Y-65657398D01*
X121394890Y-65807713D01*
X121269951Y-65979679D01*
X121173444Y-66169085D01*
X121107753Y-66371260D01*
X121074500Y-66581213D01*
X102700000Y-66581213D01*
X102700000Y-54375013D01*
X129050000Y-54375013D01*
X129050000Y-54650000D01*
X129800000Y-54650000D01*
X129800000Y-53675000D01*
X129799999Y-53674999D01*
X129750029Y-53675000D01*
X129750011Y-53675001D01*
X129647302Y-53685494D01*
X129480880Y-53740641D01*
X129480875Y-53740643D01*
X129331654Y-53832684D01*
X129207684Y-53956654D01*
X129115643Y-54105875D01*
X129115641Y-54105880D01*
X129060494Y-54272302D01*
X129060493Y-54272309D01*
X129050000Y-54375013D01*
X102700000Y-54375013D01*
X102700000Y-51581253D01*
X121075000Y-51581253D01*
X121075000Y-51587500D01*
X121991988Y-51587500D01*
X121959075Y-51644507D01*
X121925000Y-51771674D01*
X121925000Y-51903326D01*
X121959075Y-52030493D01*
X121991988Y-52087500D01*
X121075000Y-52087500D01*
X121075000Y-52093746D01*
X121108242Y-52303627D01*
X121108242Y-52303630D01*
X121173904Y-52505717D01*
X121270379Y-52695057D01*
X121395272Y-52866959D01*
X121395276Y-52866964D01*
X121545535Y-53017223D01*
X121545540Y-53017227D01*
X121717442Y-53142120D01*
X121906782Y-53238595D01*
X122108871Y-53304257D01*
X122175000Y-53314731D01*
X122175000Y-52270512D01*
X122232007Y-52303425D01*
X122359174Y-52337500D01*
X122490826Y-52337500D01*
X122617993Y-52303425D01*
X122675000Y-52270512D01*
X122675000Y-53314730D01*
X122741126Y-53304257D01*
X122741129Y-53304257D01*
X122943217Y-53238595D01*
X123132557Y-53142120D01*
X123304459Y-53017227D01*
X123304464Y-53017223D01*
X123454723Y-52866964D01*
X123454727Y-52866959D01*
X123579620Y-52695057D01*
X123676095Y-52505717D01*
X123741757Y-52303630D01*
X123741757Y-52303627D01*
X123775000Y-52093746D01*
X123775000Y-52087500D01*
X122858012Y-52087500D01*
X122890925Y-52030493D01*
X122925000Y-51903326D01*
X122925000Y-51771674D01*
X122890925Y-51644507D01*
X122858012Y-51587500D01*
X123775000Y-51587500D01*
X123775000Y-51581253D01*
X123750249Y-51424986D01*
X129050001Y-51424986D01*
X129060494Y-51527697D01*
X129115641Y-51694119D01*
X129115643Y-51694124D01*
X129207684Y-51843345D01*
X129331654Y-51967315D01*
X129480875Y-52059356D01*
X129480880Y-52059358D01*
X129647302Y-52114505D01*
X129647309Y-52114506D01*
X129750019Y-52124999D01*
X129799999Y-52124998D01*
X129800000Y-52124998D01*
X129800000Y-51150000D01*
X129050001Y-51150000D01*
X129050001Y-51424986D01*
X123750249Y-51424986D01*
X123741757Y-51371372D01*
X123741757Y-51371369D01*
X123676095Y-51169282D01*
X123668784Y-51154933D01*
X123579620Y-50979942D01*
X123454727Y-50808040D01*
X123454723Y-50808035D01*
X123304464Y-50657776D01*
X123304459Y-50657772D01*
X123132557Y-50532879D01*
X123033388Y-50482349D01*
X122943214Y-50436403D01*
X122943216Y-50436403D01*
X122754272Y-50375013D01*
X129050000Y-50375013D01*
X129050000Y-50650000D01*
X129800000Y-50650000D01*
X129800000Y-49675000D01*
X129799999Y-49674999D01*
X129750029Y-49675000D01*
X129750011Y-49675001D01*
X129647302Y-49685494D01*
X129480880Y-49740641D01*
X129480875Y-49740643D01*
X129331654Y-49832684D01*
X129207684Y-49956654D01*
X129115643Y-50105875D01*
X129115641Y-50105880D01*
X129060494Y-50272302D01*
X129060493Y-50272309D01*
X129050000Y-50375013D01*
X122754272Y-50375013D01*
X122741124Y-50370741D01*
X122675000Y-50360268D01*
X122675000Y-51404488D01*
X122617993Y-51371575D01*
X122490826Y-51337500D01*
X122359174Y-51337500D01*
X122232007Y-51371575D01*
X122175000Y-51404488D01*
X122175000Y-50360268D01*
X122174999Y-50360268D01*
X122108875Y-50370741D01*
X121906784Y-50436403D01*
X121717442Y-50532879D01*
X121545540Y-50657772D01*
X121545535Y-50657776D01*
X121395276Y-50808035D01*
X121395272Y-50808040D01*
X121270379Y-50979942D01*
X121173904Y-51169282D01*
X121108242Y-51371369D01*
X121108242Y-51371372D01*
X121075000Y-51581253D01*
X102700000Y-51581253D01*
X102700000Y-47824500D01*
X102719685Y-47757461D01*
X102772489Y-47711706D01*
X102824000Y-47700500D01*
X154017651Y-47700500D01*
X154084690Y-47720185D01*
G37*
G04 #@! TD.AperFunction*
G04 #@! TA.AperFunction,Conductor*
G36*
X112873677Y-94157685D02*
G01*
X112894319Y-94174319D01*
X112910000Y-94190000D01*
X113794134Y-94190000D01*
X113818326Y-94192383D01*
X113821123Y-94192939D01*
X113833995Y-94195499D01*
X113833996Y-94195500D01*
X113833997Y-94195500D01*
X113874170Y-94195500D01*
X113859925Y-94209745D01*
X113810556Y-94295255D01*
X113785000Y-94390630D01*
X113785000Y-94489370D01*
X113810556Y-94584745D01*
X113859925Y-94670255D01*
X113879670Y-94690000D01*
X112910000Y-94690000D01*
X112910000Y-95012844D01*
X112916401Y-95072372D01*
X112916403Y-95072380D01*
X112920053Y-95082165D01*
X112925039Y-95151856D01*
X112891555Y-95213180D01*
X112830232Y-95246666D01*
X112803872Y-95249500D01*
X106824500Y-95249500D01*
X106757461Y-95229815D01*
X106711706Y-95177011D01*
X106700500Y-95125501D01*
X106700499Y-94899999D01*
X106700498Y-94899980D01*
X106689999Y-94797203D01*
X106689998Y-94797200D01*
X106685939Y-94784952D01*
X106634814Y-94630666D01*
X106542712Y-94481344D01*
X106449049Y-94387681D01*
X106444710Y-94379735D01*
X106437463Y-94374310D01*
X106428228Y-94349550D01*
X106415564Y-94326358D01*
X106416209Y-94317328D01*
X106413046Y-94308846D01*
X106418662Y-94283025D01*
X106420548Y-94256666D01*
X106426366Y-94247612D01*
X106427898Y-94240573D01*
X106449049Y-94212319D01*
X106487049Y-94174319D01*
X106548372Y-94140834D01*
X106574730Y-94138000D01*
X112806638Y-94138000D01*
X112873677Y-94157685D01*
G37*
G04 #@! TD.AperFunction*
G04 #@! TA.AperFunction,Conductor*
G36*
X122156496Y-91070185D02*
G01*
X122202251Y-91122989D01*
X122212195Y-91192147D01*
X122183170Y-91255703D01*
X122145752Y-91284985D01*
X121983386Y-91367715D01*
X121817786Y-91488028D01*
X121673028Y-91632786D01*
X121552713Y-91798388D01*
X121505203Y-91891630D01*
X121457228Y-91942426D01*
X121389407Y-91959220D01*
X121323272Y-91936682D01*
X121284234Y-91891628D01*
X121236861Y-91798652D01*
X121204474Y-91754077D01*
X121204474Y-91754076D01*
X120525000Y-92433551D01*
X120525000Y-92427339D01*
X120497741Y-92325606D01*
X120445080Y-92234394D01*
X120370606Y-92159920D01*
X120279394Y-92107259D01*
X120177661Y-92080000D01*
X120171446Y-92080000D01*
X120850922Y-91400524D01*
X120850921Y-91400523D01*
X120806359Y-91368147D01*
X120806350Y-91368141D01*
X120643147Y-91284985D01*
X120592351Y-91237010D01*
X120575556Y-91169189D01*
X120598093Y-91103055D01*
X120652808Y-91059603D01*
X120699442Y-91050500D01*
X122089457Y-91050500D01*
X122156496Y-91070185D01*
G37*
G04 #@! TD.AperFunction*
G04 #@! TA.AperFunction,Conductor*
G36*
X158342539Y-47720185D02*
G01*
X158388294Y-47772989D01*
X158399500Y-47824500D01*
X158399500Y-48969438D01*
X158379815Y-49036477D01*
X158327011Y-49082232D01*
X158257853Y-49092176D01*
X158194297Y-49063151D01*
X158170506Y-49035410D01*
X158113908Y-48945335D01*
X157933916Y-48719634D01*
X156615270Y-50038281D01*
X156529722Y-49920534D01*
X156379466Y-49770278D01*
X156261716Y-49684728D01*
X157580364Y-48366081D01*
X157354664Y-48186092D01*
X157050333Y-47994868D01*
X156928548Y-47936220D01*
X156876688Y-47889398D01*
X156858375Y-47821971D01*
X156879423Y-47755347D01*
X156933149Y-47710678D01*
X156982349Y-47700500D01*
X158275500Y-47700500D01*
X158342539Y-47720185D01*
G37*
G04 #@! TD.AperFunction*
M02*
