G04 #@! TF.GenerationSoftware,KiCad,Pcbnew,9.0.1*
G04 #@! TF.CreationDate,2025-08-14T10:09:53+05:00*
G04 #@! TF.ProjectId,ac_to_dc_converter,61635f74-6f5f-4646-935f-636f6e766572,rev?*
G04 #@! TF.SameCoordinates,Original*
G04 #@! TF.FileFunction,Legend,Top*
G04 #@! TF.FilePolarity,Positive*
%FSLAX46Y46*%
G04 Gerber Fmt 4.6, Leading zero omitted, Abs format (unit mm)*
G04 Created by KiCad (PCBNEW 9.0.1) date 2025-08-14 10:09:53*
%MOMM*%
%LPD*%
G01*
G04 APERTURE LIST*
%ADD10C,0.150000*%
%ADD11C,0.100000*%
%ADD12C,0.120000*%
G04 APERTURE END LIST*
D10*
X114836779Y-115169819D02*
X114836779Y-114169819D01*
X114836779Y-114169819D02*
X115074874Y-114169819D01*
X115074874Y-114169819D02*
X115217731Y-114217438D01*
X115217731Y-114217438D02*
X115312969Y-114312676D01*
X115312969Y-114312676D02*
X115360588Y-114407914D01*
X115360588Y-114407914D02*
X115408207Y-114598390D01*
X115408207Y-114598390D02*
X115408207Y-114741247D01*
X115408207Y-114741247D02*
X115360588Y-114931723D01*
X115360588Y-114931723D02*
X115312969Y-115026961D01*
X115312969Y-115026961D02*
X115217731Y-115122200D01*
X115217731Y-115122200D02*
X115074874Y-115169819D01*
X115074874Y-115169819D02*
X114836779Y-115169819D01*
X116408207Y-115074580D02*
X116360588Y-115122200D01*
X116360588Y-115122200D02*
X116217731Y-115169819D01*
X116217731Y-115169819D02*
X116122493Y-115169819D01*
X116122493Y-115169819D02*
X115979636Y-115122200D01*
X115979636Y-115122200D02*
X115884398Y-115026961D01*
X115884398Y-115026961D02*
X115836779Y-114931723D01*
X115836779Y-114931723D02*
X115789160Y-114741247D01*
X115789160Y-114741247D02*
X115789160Y-114598390D01*
X115789160Y-114598390D02*
X115836779Y-114407914D01*
X115836779Y-114407914D02*
X115884398Y-114312676D01*
X115884398Y-114312676D02*
X115979636Y-114217438D01*
X115979636Y-114217438D02*
X116122493Y-114169819D01*
X116122493Y-114169819D02*
X116217731Y-114169819D01*
X116217731Y-114169819D02*
X116360588Y-114217438D01*
X116360588Y-114217438D02*
X116408207Y-114265057D01*
X117789160Y-114169819D02*
X117979636Y-114169819D01*
X117979636Y-114169819D02*
X118074874Y-114217438D01*
X118074874Y-114217438D02*
X118170112Y-114312676D01*
X118170112Y-114312676D02*
X118217731Y-114503152D01*
X118217731Y-114503152D02*
X118217731Y-114836485D01*
X118217731Y-114836485D02*
X118170112Y-115026961D01*
X118170112Y-115026961D02*
X118074874Y-115122200D01*
X118074874Y-115122200D02*
X117979636Y-115169819D01*
X117979636Y-115169819D02*
X117789160Y-115169819D01*
X117789160Y-115169819D02*
X117693922Y-115122200D01*
X117693922Y-115122200D02*
X117598684Y-115026961D01*
X117598684Y-115026961D02*
X117551065Y-114836485D01*
X117551065Y-114836485D02*
X117551065Y-114503152D01*
X117551065Y-114503152D02*
X117598684Y-114312676D01*
X117598684Y-114312676D02*
X117693922Y-114217438D01*
X117693922Y-114217438D02*
X117789160Y-114169819D01*
X118646303Y-114169819D02*
X118646303Y-114979342D01*
X118646303Y-114979342D02*
X118693922Y-115074580D01*
X118693922Y-115074580D02*
X118741541Y-115122200D01*
X118741541Y-115122200D02*
X118836779Y-115169819D01*
X118836779Y-115169819D02*
X119027255Y-115169819D01*
X119027255Y-115169819D02*
X119122493Y-115122200D01*
X119122493Y-115122200D02*
X119170112Y-115074580D01*
X119170112Y-115074580D02*
X119217731Y-114979342D01*
X119217731Y-114979342D02*
X119217731Y-114169819D01*
X119551065Y-114169819D02*
X120122493Y-114169819D01*
X119836779Y-115169819D02*
X119836779Y-114169819D01*
D11*
X153162475Y-105228571D02*
X152162475Y-105228571D01*
X152162475Y-105228571D02*
X152876760Y-104895238D01*
X152876760Y-104895238D02*
X152162475Y-104561905D01*
X152162475Y-104561905D02*
X153162475Y-104561905D01*
X152495808Y-103657143D02*
X153162475Y-103657143D01*
X152495808Y-104085714D02*
X153019617Y-104085714D01*
X153019617Y-104085714D02*
X153114856Y-104038095D01*
X153114856Y-104038095D02*
X153162475Y-103942857D01*
X153162475Y-103942857D02*
X153162475Y-103800000D01*
X153162475Y-103800000D02*
X153114856Y-103704762D01*
X153114856Y-103704762D02*
X153067236Y-103657143D01*
X153162475Y-103180952D02*
X152162475Y-103180952D01*
X153162475Y-102752381D02*
X152638665Y-102752381D01*
X152638665Y-102752381D02*
X152543427Y-102800000D01*
X152543427Y-102800000D02*
X152495808Y-102895238D01*
X152495808Y-102895238D02*
X152495808Y-103038095D01*
X152495808Y-103038095D02*
X152543427Y-103133333D01*
X152543427Y-103133333D02*
X152591046Y-103180952D01*
X153162475Y-101847619D02*
X152638665Y-101847619D01*
X152638665Y-101847619D02*
X152543427Y-101895238D01*
X152543427Y-101895238D02*
X152495808Y-101990476D01*
X152495808Y-101990476D02*
X152495808Y-102180952D01*
X152495808Y-102180952D02*
X152543427Y-102276190D01*
X153114856Y-101847619D02*
X153162475Y-101942857D01*
X153162475Y-101942857D02*
X153162475Y-102180952D01*
X153162475Y-102180952D02*
X153114856Y-102276190D01*
X153114856Y-102276190D02*
X153019617Y-102323809D01*
X153019617Y-102323809D02*
X152924379Y-102323809D01*
X152924379Y-102323809D02*
X152829141Y-102276190D01*
X152829141Y-102276190D02*
X152781522Y-102180952D01*
X152781522Y-102180952D02*
X152781522Y-101942857D01*
X152781522Y-101942857D02*
X152733903Y-101847619D01*
X153162475Y-101371428D02*
X152495808Y-101371428D01*
X152591046Y-101371428D02*
X152543427Y-101323809D01*
X152543427Y-101323809D02*
X152495808Y-101228571D01*
X152495808Y-101228571D02*
X152495808Y-101085714D01*
X152495808Y-101085714D02*
X152543427Y-100990476D01*
X152543427Y-100990476D02*
X152638665Y-100942857D01*
X152638665Y-100942857D02*
X153162475Y-100942857D01*
X152638665Y-100942857D02*
X152543427Y-100895238D01*
X152543427Y-100895238D02*
X152495808Y-100800000D01*
X152495808Y-100800000D02*
X152495808Y-100657143D01*
X152495808Y-100657143D02*
X152543427Y-100561904D01*
X152543427Y-100561904D02*
X152638665Y-100514285D01*
X152638665Y-100514285D02*
X153162475Y-100514285D01*
X153162475Y-100038095D02*
X152495808Y-100038095D01*
X152591046Y-100038095D02*
X152543427Y-99990476D01*
X152543427Y-99990476D02*
X152495808Y-99895238D01*
X152495808Y-99895238D02*
X152495808Y-99752381D01*
X152495808Y-99752381D02*
X152543427Y-99657143D01*
X152543427Y-99657143D02*
X152638665Y-99609524D01*
X152638665Y-99609524D02*
X153162475Y-99609524D01*
X152638665Y-99609524D02*
X152543427Y-99561905D01*
X152543427Y-99561905D02*
X152495808Y-99466667D01*
X152495808Y-99466667D02*
X152495808Y-99323810D01*
X152495808Y-99323810D02*
X152543427Y-99228571D01*
X152543427Y-99228571D02*
X152638665Y-99180952D01*
X152638665Y-99180952D02*
X153162475Y-99180952D01*
X153162475Y-98276191D02*
X152638665Y-98276191D01*
X152638665Y-98276191D02*
X152543427Y-98323810D01*
X152543427Y-98323810D02*
X152495808Y-98419048D01*
X152495808Y-98419048D02*
X152495808Y-98609524D01*
X152495808Y-98609524D02*
X152543427Y-98704762D01*
X153114856Y-98276191D02*
X153162475Y-98371429D01*
X153162475Y-98371429D02*
X153162475Y-98609524D01*
X153162475Y-98609524D02*
X153114856Y-98704762D01*
X153114856Y-98704762D02*
X153019617Y-98752381D01*
X153019617Y-98752381D02*
X152924379Y-98752381D01*
X152924379Y-98752381D02*
X152829141Y-98704762D01*
X152829141Y-98704762D02*
X152781522Y-98609524D01*
X152781522Y-98609524D02*
X152781522Y-98371429D01*
X152781522Y-98371429D02*
X152733903Y-98276191D01*
X153162475Y-97371429D02*
X152162475Y-97371429D01*
X153114856Y-97371429D02*
X153162475Y-97466667D01*
X153162475Y-97466667D02*
X153162475Y-97657143D01*
X153162475Y-97657143D02*
X153114856Y-97752381D01*
X153114856Y-97752381D02*
X153067236Y-97800000D01*
X153067236Y-97800000D02*
X152971998Y-97847619D01*
X152971998Y-97847619D02*
X152686284Y-97847619D01*
X152686284Y-97847619D02*
X152591046Y-97800000D01*
X152591046Y-97800000D02*
X152543427Y-97752381D01*
X152543427Y-97752381D02*
X152495808Y-97657143D01*
X152495808Y-97657143D02*
X152495808Y-97466667D01*
X152495808Y-97466667D02*
X152543427Y-97371429D01*
X154772419Y-108752381D02*
X153772419Y-108752381D01*
X154248609Y-108752381D02*
X154248609Y-108180953D01*
X154772419Y-108180953D02*
X153772419Y-108180953D01*
X154772419Y-107276191D02*
X154248609Y-107276191D01*
X154248609Y-107276191D02*
X154153371Y-107323810D01*
X154153371Y-107323810D02*
X154105752Y-107419048D01*
X154105752Y-107419048D02*
X154105752Y-107609524D01*
X154105752Y-107609524D02*
X154153371Y-107704762D01*
X154724800Y-107276191D02*
X154772419Y-107371429D01*
X154772419Y-107371429D02*
X154772419Y-107609524D01*
X154772419Y-107609524D02*
X154724800Y-107704762D01*
X154724800Y-107704762D02*
X154629561Y-107752381D01*
X154629561Y-107752381D02*
X154534323Y-107752381D01*
X154534323Y-107752381D02*
X154439085Y-107704762D01*
X154439085Y-107704762D02*
X154391466Y-107609524D01*
X154391466Y-107609524D02*
X154391466Y-107371429D01*
X154391466Y-107371429D02*
X154343847Y-107276191D01*
X154772419Y-106800000D02*
X154105752Y-106800000D01*
X154200990Y-106800000D02*
X154153371Y-106752381D01*
X154153371Y-106752381D02*
X154105752Y-106657143D01*
X154105752Y-106657143D02*
X154105752Y-106514286D01*
X154105752Y-106514286D02*
X154153371Y-106419048D01*
X154153371Y-106419048D02*
X154248609Y-106371429D01*
X154248609Y-106371429D02*
X154772419Y-106371429D01*
X154248609Y-106371429D02*
X154153371Y-106323810D01*
X154153371Y-106323810D02*
X154105752Y-106228572D01*
X154105752Y-106228572D02*
X154105752Y-106085715D01*
X154105752Y-106085715D02*
X154153371Y-105990476D01*
X154153371Y-105990476D02*
X154248609Y-105942857D01*
X154248609Y-105942857D02*
X154772419Y-105942857D01*
X154772419Y-105466667D02*
X154105752Y-105466667D01*
X154200990Y-105466667D02*
X154153371Y-105419048D01*
X154153371Y-105419048D02*
X154105752Y-105323810D01*
X154105752Y-105323810D02*
X154105752Y-105180953D01*
X154105752Y-105180953D02*
X154153371Y-105085715D01*
X154153371Y-105085715D02*
X154248609Y-105038096D01*
X154248609Y-105038096D02*
X154772419Y-105038096D01*
X154248609Y-105038096D02*
X154153371Y-104990477D01*
X154153371Y-104990477D02*
X154105752Y-104895239D01*
X154105752Y-104895239D02*
X154105752Y-104752382D01*
X154105752Y-104752382D02*
X154153371Y-104657143D01*
X154153371Y-104657143D02*
X154248609Y-104609524D01*
X154248609Y-104609524D02*
X154772419Y-104609524D01*
X154772419Y-103704763D02*
X154248609Y-103704763D01*
X154248609Y-103704763D02*
X154153371Y-103752382D01*
X154153371Y-103752382D02*
X154105752Y-103847620D01*
X154105752Y-103847620D02*
X154105752Y-104038096D01*
X154105752Y-104038096D02*
X154153371Y-104133334D01*
X154724800Y-103704763D02*
X154772419Y-103800001D01*
X154772419Y-103800001D02*
X154772419Y-104038096D01*
X154772419Y-104038096D02*
X154724800Y-104133334D01*
X154724800Y-104133334D02*
X154629561Y-104180953D01*
X154629561Y-104180953D02*
X154534323Y-104180953D01*
X154534323Y-104180953D02*
X154439085Y-104133334D01*
X154439085Y-104133334D02*
X154391466Y-104038096D01*
X154391466Y-104038096D02*
X154391466Y-103800001D01*
X154391466Y-103800001D02*
X154343847Y-103704763D01*
X154772419Y-102800001D02*
X153772419Y-102800001D01*
X154724800Y-102800001D02*
X154772419Y-102895239D01*
X154772419Y-102895239D02*
X154772419Y-103085715D01*
X154772419Y-103085715D02*
X154724800Y-103180953D01*
X154724800Y-103180953D02*
X154677180Y-103228572D01*
X154677180Y-103228572D02*
X154581942Y-103276191D01*
X154581942Y-103276191D02*
X154296228Y-103276191D01*
X154296228Y-103276191D02*
X154200990Y-103228572D01*
X154200990Y-103228572D02*
X154153371Y-103180953D01*
X154153371Y-103180953D02*
X154105752Y-103085715D01*
X154105752Y-103085715D02*
X154105752Y-102895239D01*
X154105752Y-102895239D02*
X154153371Y-102800001D01*
X154105752Y-101133334D02*
X154772419Y-101133334D01*
X154105752Y-101561905D02*
X154629561Y-101561905D01*
X154629561Y-101561905D02*
X154724800Y-101514286D01*
X154724800Y-101514286D02*
X154772419Y-101419048D01*
X154772419Y-101419048D02*
X154772419Y-101276191D01*
X154772419Y-101276191D02*
X154724800Y-101180953D01*
X154724800Y-101180953D02*
X154677180Y-101133334D01*
X154772419Y-100657143D02*
X154105752Y-100657143D01*
X154296228Y-100657143D02*
X154200990Y-100609524D01*
X154200990Y-100609524D02*
X154153371Y-100561905D01*
X154153371Y-100561905D02*
X154105752Y-100466667D01*
X154105752Y-100466667D02*
X154105752Y-100371429D01*
X154772419Y-98704762D02*
X154296228Y-99038095D01*
X154772419Y-99276190D02*
X153772419Y-99276190D01*
X153772419Y-99276190D02*
X153772419Y-98895238D01*
X153772419Y-98895238D02*
X153820038Y-98800000D01*
X153820038Y-98800000D02*
X153867657Y-98752381D01*
X153867657Y-98752381D02*
X153962895Y-98704762D01*
X153962895Y-98704762D02*
X154105752Y-98704762D01*
X154105752Y-98704762D02*
X154200990Y-98752381D01*
X154200990Y-98752381D02*
X154248609Y-98800000D01*
X154248609Y-98800000D02*
X154296228Y-98895238D01*
X154296228Y-98895238D02*
X154296228Y-99276190D01*
X154724800Y-97895238D02*
X154772419Y-97990476D01*
X154772419Y-97990476D02*
X154772419Y-98180952D01*
X154772419Y-98180952D02*
X154724800Y-98276190D01*
X154724800Y-98276190D02*
X154629561Y-98323809D01*
X154629561Y-98323809D02*
X154248609Y-98323809D01*
X154248609Y-98323809D02*
X154153371Y-98276190D01*
X154153371Y-98276190D02*
X154105752Y-98180952D01*
X154105752Y-98180952D02*
X154105752Y-97990476D01*
X154105752Y-97990476D02*
X154153371Y-97895238D01*
X154153371Y-97895238D02*
X154248609Y-97847619D01*
X154248609Y-97847619D02*
X154343847Y-97847619D01*
X154343847Y-97847619D02*
X154439085Y-98323809D01*
X154772419Y-97419047D02*
X153772419Y-97419047D01*
X154772419Y-96990476D02*
X154248609Y-96990476D01*
X154248609Y-96990476D02*
X154153371Y-97038095D01*
X154153371Y-97038095D02*
X154105752Y-97133333D01*
X154105752Y-97133333D02*
X154105752Y-97276190D01*
X154105752Y-97276190D02*
X154153371Y-97371428D01*
X154153371Y-97371428D02*
X154200990Y-97419047D01*
X154772419Y-96514285D02*
X154105752Y-96514285D01*
X154200990Y-96514285D02*
X154153371Y-96466666D01*
X154153371Y-96466666D02*
X154105752Y-96371428D01*
X154105752Y-96371428D02*
X154105752Y-96228571D01*
X154105752Y-96228571D02*
X154153371Y-96133333D01*
X154153371Y-96133333D02*
X154248609Y-96085714D01*
X154248609Y-96085714D02*
X154772419Y-96085714D01*
X154248609Y-96085714D02*
X154153371Y-96038095D01*
X154153371Y-96038095D02*
X154105752Y-95942857D01*
X154105752Y-95942857D02*
X154105752Y-95800000D01*
X154105752Y-95800000D02*
X154153371Y-95704761D01*
X154153371Y-95704761D02*
X154248609Y-95657142D01*
X154248609Y-95657142D02*
X154772419Y-95657142D01*
X154772419Y-94752381D02*
X154248609Y-94752381D01*
X154248609Y-94752381D02*
X154153371Y-94800000D01*
X154153371Y-94800000D02*
X154105752Y-94895238D01*
X154105752Y-94895238D02*
X154105752Y-95085714D01*
X154105752Y-95085714D02*
X154153371Y-95180952D01*
X154724800Y-94752381D02*
X154772419Y-94847619D01*
X154772419Y-94847619D02*
X154772419Y-95085714D01*
X154772419Y-95085714D02*
X154724800Y-95180952D01*
X154724800Y-95180952D02*
X154629561Y-95228571D01*
X154629561Y-95228571D02*
X154534323Y-95228571D01*
X154534323Y-95228571D02*
X154439085Y-95180952D01*
X154439085Y-95180952D02*
X154391466Y-95085714D01*
X154391466Y-95085714D02*
X154391466Y-94847619D01*
X154391466Y-94847619D02*
X154343847Y-94752381D01*
X154105752Y-94276190D02*
X154772419Y-94276190D01*
X154200990Y-94276190D02*
X154153371Y-94228571D01*
X154153371Y-94228571D02*
X154105752Y-94133333D01*
X154105752Y-94133333D02*
X154105752Y-93990476D01*
X154105752Y-93990476D02*
X154153371Y-93895238D01*
X154153371Y-93895238D02*
X154248609Y-93847619D01*
X154248609Y-93847619D02*
X154772419Y-93847619D01*
D10*
X124189160Y-116984104D02*
X124665350Y-116984104D01*
X124093922Y-117269819D02*
X124427255Y-116269819D01*
X124427255Y-116269819D02*
X124760588Y-117269819D01*
X125665350Y-117174580D02*
X125617731Y-117222200D01*
X125617731Y-117222200D02*
X125474874Y-117269819D01*
X125474874Y-117269819D02*
X125379636Y-117269819D01*
X125379636Y-117269819D02*
X125236779Y-117222200D01*
X125236779Y-117222200D02*
X125141541Y-117126961D01*
X125141541Y-117126961D02*
X125093922Y-117031723D01*
X125093922Y-117031723D02*
X125046303Y-116841247D01*
X125046303Y-116841247D02*
X125046303Y-116698390D01*
X125046303Y-116698390D02*
X125093922Y-116507914D01*
X125093922Y-116507914D02*
X125141541Y-116412676D01*
X125141541Y-116412676D02*
X125236779Y-116317438D01*
X125236779Y-116317438D02*
X125379636Y-116269819D01*
X125379636Y-116269819D02*
X125474874Y-116269819D01*
X125474874Y-116269819D02*
X125617731Y-116317438D01*
X125617731Y-116317438D02*
X125665350Y-116365057D01*
X126712970Y-116603152D02*
X127093922Y-116603152D01*
X126855827Y-116269819D02*
X126855827Y-117126961D01*
X126855827Y-117126961D02*
X126903446Y-117222200D01*
X126903446Y-117222200D02*
X126998684Y-117269819D01*
X126998684Y-117269819D02*
X127093922Y-117269819D01*
X127570113Y-117269819D02*
X127474875Y-117222200D01*
X127474875Y-117222200D02*
X127427256Y-117174580D01*
X127427256Y-117174580D02*
X127379637Y-117079342D01*
X127379637Y-117079342D02*
X127379637Y-116793628D01*
X127379637Y-116793628D02*
X127427256Y-116698390D01*
X127427256Y-116698390D02*
X127474875Y-116650771D01*
X127474875Y-116650771D02*
X127570113Y-116603152D01*
X127570113Y-116603152D02*
X127712970Y-116603152D01*
X127712970Y-116603152D02*
X127808208Y-116650771D01*
X127808208Y-116650771D02*
X127855827Y-116698390D01*
X127855827Y-116698390D02*
X127903446Y-116793628D01*
X127903446Y-116793628D02*
X127903446Y-117079342D01*
X127903446Y-117079342D02*
X127855827Y-117174580D01*
X127855827Y-117174580D02*
X127808208Y-117222200D01*
X127808208Y-117222200D02*
X127712970Y-117269819D01*
X127712970Y-117269819D02*
X127570113Y-117269819D01*
X129093923Y-117269819D02*
X129093923Y-116269819D01*
X129093923Y-116269819D02*
X129332018Y-116269819D01*
X129332018Y-116269819D02*
X129474875Y-116317438D01*
X129474875Y-116317438D02*
X129570113Y-116412676D01*
X129570113Y-116412676D02*
X129617732Y-116507914D01*
X129617732Y-116507914D02*
X129665351Y-116698390D01*
X129665351Y-116698390D02*
X129665351Y-116841247D01*
X129665351Y-116841247D02*
X129617732Y-117031723D01*
X129617732Y-117031723D02*
X129570113Y-117126961D01*
X129570113Y-117126961D02*
X129474875Y-117222200D01*
X129474875Y-117222200D02*
X129332018Y-117269819D01*
X129332018Y-117269819D02*
X129093923Y-117269819D01*
X130665351Y-117174580D02*
X130617732Y-117222200D01*
X130617732Y-117222200D02*
X130474875Y-117269819D01*
X130474875Y-117269819D02*
X130379637Y-117269819D01*
X130379637Y-117269819D02*
X130236780Y-117222200D01*
X130236780Y-117222200D02*
X130141542Y-117126961D01*
X130141542Y-117126961D02*
X130093923Y-117031723D01*
X130093923Y-117031723D02*
X130046304Y-116841247D01*
X130046304Y-116841247D02*
X130046304Y-116698390D01*
X130046304Y-116698390D02*
X130093923Y-116507914D01*
X130093923Y-116507914D02*
X130141542Y-116412676D01*
X130141542Y-116412676D02*
X130236780Y-116317438D01*
X130236780Y-116317438D02*
X130379637Y-116269819D01*
X130379637Y-116269819D02*
X130474875Y-116269819D01*
X130474875Y-116269819D02*
X130617732Y-116317438D01*
X130617732Y-116317438D02*
X130665351Y-116365057D01*
X132427256Y-117174580D02*
X132379637Y-117222200D01*
X132379637Y-117222200D02*
X132236780Y-117269819D01*
X132236780Y-117269819D02*
X132141542Y-117269819D01*
X132141542Y-117269819D02*
X131998685Y-117222200D01*
X131998685Y-117222200D02*
X131903447Y-117126961D01*
X131903447Y-117126961D02*
X131855828Y-117031723D01*
X131855828Y-117031723D02*
X131808209Y-116841247D01*
X131808209Y-116841247D02*
X131808209Y-116698390D01*
X131808209Y-116698390D02*
X131855828Y-116507914D01*
X131855828Y-116507914D02*
X131903447Y-116412676D01*
X131903447Y-116412676D02*
X131998685Y-116317438D01*
X131998685Y-116317438D02*
X132141542Y-116269819D01*
X132141542Y-116269819D02*
X132236780Y-116269819D01*
X132236780Y-116269819D02*
X132379637Y-116317438D01*
X132379637Y-116317438D02*
X132427256Y-116365057D01*
X132998685Y-117269819D02*
X132903447Y-117222200D01*
X132903447Y-117222200D02*
X132855828Y-117174580D01*
X132855828Y-117174580D02*
X132808209Y-117079342D01*
X132808209Y-117079342D02*
X132808209Y-116793628D01*
X132808209Y-116793628D02*
X132855828Y-116698390D01*
X132855828Y-116698390D02*
X132903447Y-116650771D01*
X132903447Y-116650771D02*
X132998685Y-116603152D01*
X132998685Y-116603152D02*
X133141542Y-116603152D01*
X133141542Y-116603152D02*
X133236780Y-116650771D01*
X133236780Y-116650771D02*
X133284399Y-116698390D01*
X133284399Y-116698390D02*
X133332018Y-116793628D01*
X133332018Y-116793628D02*
X133332018Y-117079342D01*
X133332018Y-117079342D02*
X133284399Y-117174580D01*
X133284399Y-117174580D02*
X133236780Y-117222200D01*
X133236780Y-117222200D02*
X133141542Y-117269819D01*
X133141542Y-117269819D02*
X132998685Y-117269819D01*
X133760590Y-116603152D02*
X133760590Y-117269819D01*
X133760590Y-116698390D02*
X133808209Y-116650771D01*
X133808209Y-116650771D02*
X133903447Y-116603152D01*
X133903447Y-116603152D02*
X134046304Y-116603152D01*
X134046304Y-116603152D02*
X134141542Y-116650771D01*
X134141542Y-116650771D02*
X134189161Y-116746009D01*
X134189161Y-116746009D02*
X134189161Y-117269819D01*
X134570114Y-116603152D02*
X134808209Y-117269819D01*
X134808209Y-117269819D02*
X135046304Y-116603152D01*
X135808209Y-117222200D02*
X135712971Y-117269819D01*
X135712971Y-117269819D02*
X135522495Y-117269819D01*
X135522495Y-117269819D02*
X135427257Y-117222200D01*
X135427257Y-117222200D02*
X135379638Y-117126961D01*
X135379638Y-117126961D02*
X135379638Y-116746009D01*
X135379638Y-116746009D02*
X135427257Y-116650771D01*
X135427257Y-116650771D02*
X135522495Y-116603152D01*
X135522495Y-116603152D02*
X135712971Y-116603152D01*
X135712971Y-116603152D02*
X135808209Y-116650771D01*
X135808209Y-116650771D02*
X135855828Y-116746009D01*
X135855828Y-116746009D02*
X135855828Y-116841247D01*
X135855828Y-116841247D02*
X135379638Y-116936485D01*
X136284400Y-117269819D02*
X136284400Y-116603152D01*
X136284400Y-116793628D02*
X136332019Y-116698390D01*
X136332019Y-116698390D02*
X136379638Y-116650771D01*
X136379638Y-116650771D02*
X136474876Y-116603152D01*
X136474876Y-116603152D02*
X136570114Y-116603152D01*
X136760591Y-116603152D02*
X137141543Y-116603152D01*
X136903448Y-116269819D02*
X136903448Y-117126961D01*
X136903448Y-117126961D02*
X136951067Y-117222200D01*
X136951067Y-117222200D02*
X137046305Y-117269819D01*
X137046305Y-117269819D02*
X137141543Y-117269819D01*
X137855829Y-117222200D02*
X137760591Y-117269819D01*
X137760591Y-117269819D02*
X137570115Y-117269819D01*
X137570115Y-117269819D02*
X137474877Y-117222200D01*
X137474877Y-117222200D02*
X137427258Y-117126961D01*
X137427258Y-117126961D02*
X137427258Y-116746009D01*
X137427258Y-116746009D02*
X137474877Y-116650771D01*
X137474877Y-116650771D02*
X137570115Y-116603152D01*
X137570115Y-116603152D02*
X137760591Y-116603152D01*
X137760591Y-116603152D02*
X137855829Y-116650771D01*
X137855829Y-116650771D02*
X137903448Y-116746009D01*
X137903448Y-116746009D02*
X137903448Y-116841247D01*
X137903448Y-116841247D02*
X137427258Y-116936485D01*
X138332020Y-117269819D02*
X138332020Y-116603152D01*
X138332020Y-116793628D02*
X138379639Y-116698390D01*
X138379639Y-116698390D02*
X138427258Y-116650771D01*
X138427258Y-116650771D02*
X138522496Y-116603152D01*
X138522496Y-116603152D02*
X138617734Y-116603152D01*
D11*
X156872419Y-105569925D02*
X156872419Y-106141353D01*
X156872419Y-105855639D02*
X155872419Y-105855639D01*
X155872419Y-105855639D02*
X156015276Y-105950877D01*
X156015276Y-105950877D02*
X156110514Y-106046115D01*
X156110514Y-106046115D02*
X156158133Y-106141353D01*
X155872419Y-105236591D02*
X155872419Y-104617544D01*
X155872419Y-104617544D02*
X156253371Y-104950877D01*
X156253371Y-104950877D02*
X156253371Y-104808020D01*
X156253371Y-104808020D02*
X156300990Y-104712782D01*
X156300990Y-104712782D02*
X156348609Y-104665163D01*
X156348609Y-104665163D02*
X156443847Y-104617544D01*
X156443847Y-104617544D02*
X156681942Y-104617544D01*
X156681942Y-104617544D02*
X156777180Y-104665163D01*
X156777180Y-104665163D02*
X156824800Y-104712782D01*
X156824800Y-104712782D02*
X156872419Y-104808020D01*
X156872419Y-104808020D02*
X156872419Y-105093734D01*
X156872419Y-105093734D02*
X156824800Y-105188972D01*
X156824800Y-105188972D02*
X156777180Y-105236591D01*
X156491466Y-104188972D02*
X156491466Y-103427068D01*
X155872419Y-102760401D02*
X155872419Y-102665163D01*
X155872419Y-102665163D02*
X155920038Y-102569925D01*
X155920038Y-102569925D02*
X155967657Y-102522306D01*
X155967657Y-102522306D02*
X156062895Y-102474687D01*
X156062895Y-102474687D02*
X156253371Y-102427068D01*
X156253371Y-102427068D02*
X156491466Y-102427068D01*
X156491466Y-102427068D02*
X156681942Y-102474687D01*
X156681942Y-102474687D02*
X156777180Y-102522306D01*
X156777180Y-102522306D02*
X156824800Y-102569925D01*
X156824800Y-102569925D02*
X156872419Y-102665163D01*
X156872419Y-102665163D02*
X156872419Y-102760401D01*
X156872419Y-102760401D02*
X156824800Y-102855639D01*
X156824800Y-102855639D02*
X156777180Y-102903258D01*
X156777180Y-102903258D02*
X156681942Y-102950877D01*
X156681942Y-102950877D02*
X156491466Y-102998496D01*
X156491466Y-102998496D02*
X156253371Y-102998496D01*
X156253371Y-102998496D02*
X156062895Y-102950877D01*
X156062895Y-102950877D02*
X155967657Y-102903258D01*
X155967657Y-102903258D02*
X155920038Y-102855639D01*
X155920038Y-102855639D02*
X155872419Y-102760401D01*
X156300990Y-101855639D02*
X156253371Y-101950877D01*
X156253371Y-101950877D02*
X156205752Y-101998496D01*
X156205752Y-101998496D02*
X156110514Y-102046115D01*
X156110514Y-102046115D02*
X156062895Y-102046115D01*
X156062895Y-102046115D02*
X155967657Y-101998496D01*
X155967657Y-101998496D02*
X155920038Y-101950877D01*
X155920038Y-101950877D02*
X155872419Y-101855639D01*
X155872419Y-101855639D02*
X155872419Y-101665163D01*
X155872419Y-101665163D02*
X155920038Y-101569925D01*
X155920038Y-101569925D02*
X155967657Y-101522306D01*
X155967657Y-101522306D02*
X156062895Y-101474687D01*
X156062895Y-101474687D02*
X156110514Y-101474687D01*
X156110514Y-101474687D02*
X156205752Y-101522306D01*
X156205752Y-101522306D02*
X156253371Y-101569925D01*
X156253371Y-101569925D02*
X156300990Y-101665163D01*
X156300990Y-101665163D02*
X156300990Y-101855639D01*
X156300990Y-101855639D02*
X156348609Y-101950877D01*
X156348609Y-101950877D02*
X156396228Y-101998496D01*
X156396228Y-101998496D02*
X156491466Y-102046115D01*
X156491466Y-102046115D02*
X156681942Y-102046115D01*
X156681942Y-102046115D02*
X156777180Y-101998496D01*
X156777180Y-101998496D02*
X156824800Y-101950877D01*
X156824800Y-101950877D02*
X156872419Y-101855639D01*
X156872419Y-101855639D02*
X156872419Y-101665163D01*
X156872419Y-101665163D02*
X156824800Y-101569925D01*
X156824800Y-101569925D02*
X156777180Y-101522306D01*
X156777180Y-101522306D02*
X156681942Y-101474687D01*
X156681942Y-101474687D02*
X156491466Y-101474687D01*
X156491466Y-101474687D02*
X156396228Y-101522306D01*
X156396228Y-101522306D02*
X156348609Y-101569925D01*
X156348609Y-101569925D02*
X156300990Y-101665163D01*
X156491466Y-101046115D02*
X156491466Y-100284211D01*
X155967657Y-99855639D02*
X155920038Y-99808020D01*
X155920038Y-99808020D02*
X155872419Y-99712782D01*
X155872419Y-99712782D02*
X155872419Y-99474687D01*
X155872419Y-99474687D02*
X155920038Y-99379449D01*
X155920038Y-99379449D02*
X155967657Y-99331830D01*
X155967657Y-99331830D02*
X156062895Y-99284211D01*
X156062895Y-99284211D02*
X156158133Y-99284211D01*
X156158133Y-99284211D02*
X156300990Y-99331830D01*
X156300990Y-99331830D02*
X156872419Y-99903258D01*
X156872419Y-99903258D02*
X156872419Y-99284211D01*
X155872419Y-98665163D02*
X155872419Y-98569925D01*
X155872419Y-98569925D02*
X155920038Y-98474687D01*
X155920038Y-98474687D02*
X155967657Y-98427068D01*
X155967657Y-98427068D02*
X156062895Y-98379449D01*
X156062895Y-98379449D02*
X156253371Y-98331830D01*
X156253371Y-98331830D02*
X156491466Y-98331830D01*
X156491466Y-98331830D02*
X156681942Y-98379449D01*
X156681942Y-98379449D02*
X156777180Y-98427068D01*
X156777180Y-98427068D02*
X156824800Y-98474687D01*
X156824800Y-98474687D02*
X156872419Y-98569925D01*
X156872419Y-98569925D02*
X156872419Y-98665163D01*
X156872419Y-98665163D02*
X156824800Y-98760401D01*
X156824800Y-98760401D02*
X156777180Y-98808020D01*
X156777180Y-98808020D02*
X156681942Y-98855639D01*
X156681942Y-98855639D02*
X156491466Y-98903258D01*
X156491466Y-98903258D02*
X156253371Y-98903258D01*
X156253371Y-98903258D02*
X156062895Y-98855639D01*
X156062895Y-98855639D02*
X155967657Y-98808020D01*
X155967657Y-98808020D02*
X155920038Y-98760401D01*
X155920038Y-98760401D02*
X155872419Y-98665163D01*
X155967657Y-97950877D02*
X155920038Y-97903258D01*
X155920038Y-97903258D02*
X155872419Y-97808020D01*
X155872419Y-97808020D02*
X155872419Y-97569925D01*
X155872419Y-97569925D02*
X155920038Y-97474687D01*
X155920038Y-97474687D02*
X155967657Y-97427068D01*
X155967657Y-97427068D02*
X156062895Y-97379449D01*
X156062895Y-97379449D02*
X156158133Y-97379449D01*
X156158133Y-97379449D02*
X156300990Y-97427068D01*
X156300990Y-97427068D02*
X156872419Y-97998496D01*
X156872419Y-97998496D02*
X156872419Y-97379449D01*
X155872419Y-96474687D02*
X155872419Y-96950877D01*
X155872419Y-96950877D02*
X156348609Y-96998496D01*
X156348609Y-96998496D02*
X156300990Y-96950877D01*
X156300990Y-96950877D02*
X156253371Y-96855639D01*
X156253371Y-96855639D02*
X156253371Y-96617544D01*
X156253371Y-96617544D02*
X156300990Y-96522306D01*
X156300990Y-96522306D02*
X156348609Y-96474687D01*
X156348609Y-96474687D02*
X156443847Y-96427068D01*
X156443847Y-96427068D02*
X156681942Y-96427068D01*
X156681942Y-96427068D02*
X156777180Y-96474687D01*
X156777180Y-96474687D02*
X156824800Y-96522306D01*
X156824800Y-96522306D02*
X156872419Y-96617544D01*
X156872419Y-96617544D02*
X156872419Y-96855639D01*
X156872419Y-96855639D02*
X156824800Y-96950877D01*
X156824800Y-96950877D02*
X156777180Y-96998496D01*
D10*
X115589160Y-86684104D02*
X116065350Y-86684104D01*
X115493922Y-86969819D02*
X115827255Y-85969819D01*
X115827255Y-85969819D02*
X116160588Y-86969819D01*
X117065350Y-86874580D02*
X117017731Y-86922200D01*
X117017731Y-86922200D02*
X116874874Y-86969819D01*
X116874874Y-86969819D02*
X116779636Y-86969819D01*
X116779636Y-86969819D02*
X116636779Y-86922200D01*
X116636779Y-86922200D02*
X116541541Y-86826961D01*
X116541541Y-86826961D02*
X116493922Y-86731723D01*
X116493922Y-86731723D02*
X116446303Y-86541247D01*
X116446303Y-86541247D02*
X116446303Y-86398390D01*
X116446303Y-86398390D02*
X116493922Y-86207914D01*
X116493922Y-86207914D02*
X116541541Y-86112676D01*
X116541541Y-86112676D02*
X116636779Y-86017438D01*
X116636779Y-86017438D02*
X116779636Y-85969819D01*
X116779636Y-85969819D02*
X116874874Y-85969819D01*
X116874874Y-85969819D02*
X117017731Y-86017438D01*
X117017731Y-86017438D02*
X117065350Y-86065057D01*
X118255827Y-86969819D02*
X118255827Y-85969819D01*
X118732017Y-86969819D02*
X118732017Y-85969819D01*
X118732017Y-85969819D02*
X119303445Y-86969819D01*
X119303445Y-86969819D02*
X119303445Y-85969819D01*
X137024819Y-109338094D02*
X136024819Y-109338094D01*
X136024819Y-109338094D02*
X136024819Y-109099999D01*
X136024819Y-109099999D02*
X136072438Y-108957142D01*
X136072438Y-108957142D02*
X136167676Y-108861904D01*
X136167676Y-108861904D02*
X136262914Y-108814285D01*
X136262914Y-108814285D02*
X136453390Y-108766666D01*
X136453390Y-108766666D02*
X136596247Y-108766666D01*
X136596247Y-108766666D02*
X136786723Y-108814285D01*
X136786723Y-108814285D02*
X136881961Y-108861904D01*
X136881961Y-108861904D02*
X136977200Y-108957142D01*
X136977200Y-108957142D02*
X137024819Y-109099999D01*
X137024819Y-109099999D02*
X137024819Y-109338094D01*
X136358152Y-107909523D02*
X137024819Y-107909523D01*
X135977200Y-108147618D02*
X136691485Y-108385713D01*
X136691485Y-108385713D02*
X136691485Y-107766666D01*
X136654819Y-103781904D02*
X135654819Y-103781904D01*
X136654819Y-103210476D02*
X136083390Y-103639047D01*
X135654819Y-103210476D02*
X136226247Y-103781904D01*
X143923333Y-100184819D02*
X143590000Y-99708628D01*
X143351905Y-100184819D02*
X143351905Y-99184819D01*
X143351905Y-99184819D02*
X143732857Y-99184819D01*
X143732857Y-99184819D02*
X143828095Y-99232438D01*
X143828095Y-99232438D02*
X143875714Y-99280057D01*
X143875714Y-99280057D02*
X143923333Y-99375295D01*
X143923333Y-99375295D02*
X143923333Y-99518152D01*
X143923333Y-99518152D02*
X143875714Y-99613390D01*
X143875714Y-99613390D02*
X143828095Y-99661009D01*
X143828095Y-99661009D02*
X143732857Y-99708628D01*
X143732857Y-99708628D02*
X143351905Y-99708628D01*
X144875714Y-100184819D02*
X144304286Y-100184819D01*
X144590000Y-100184819D02*
X144590000Y-99184819D01*
X144590000Y-99184819D02*
X144494762Y-99327676D01*
X144494762Y-99327676D02*
X144399524Y-99422914D01*
X144399524Y-99422914D02*
X144304286Y-99470533D01*
X120054819Y-111033333D02*
X120769104Y-111033333D01*
X120769104Y-111033333D02*
X120911961Y-111080952D01*
X120911961Y-111080952D02*
X121007200Y-111176190D01*
X121007200Y-111176190D02*
X121054819Y-111319047D01*
X121054819Y-111319047D02*
X121054819Y-111414285D01*
X120150057Y-110604761D02*
X120102438Y-110557142D01*
X120102438Y-110557142D02*
X120054819Y-110461904D01*
X120054819Y-110461904D02*
X120054819Y-110223809D01*
X120054819Y-110223809D02*
X120102438Y-110128571D01*
X120102438Y-110128571D02*
X120150057Y-110080952D01*
X120150057Y-110080952D02*
X120245295Y-110033333D01*
X120245295Y-110033333D02*
X120340533Y-110033333D01*
X120340533Y-110033333D02*
X120483390Y-110080952D01*
X120483390Y-110080952D02*
X121054819Y-110652380D01*
X121054819Y-110652380D02*
X121054819Y-110033333D01*
X143424819Y-92666666D02*
X142948628Y-92999999D01*
X143424819Y-93238094D02*
X142424819Y-93238094D01*
X142424819Y-93238094D02*
X142424819Y-92857142D01*
X142424819Y-92857142D02*
X142472438Y-92761904D01*
X142472438Y-92761904D02*
X142520057Y-92714285D01*
X142520057Y-92714285D02*
X142615295Y-92666666D01*
X142615295Y-92666666D02*
X142758152Y-92666666D01*
X142758152Y-92666666D02*
X142853390Y-92714285D01*
X142853390Y-92714285D02*
X142901009Y-92761904D01*
X142901009Y-92761904D02*
X142948628Y-92857142D01*
X142948628Y-92857142D02*
X142948628Y-93238094D01*
X142520057Y-92285713D02*
X142472438Y-92238094D01*
X142472438Y-92238094D02*
X142424819Y-92142856D01*
X142424819Y-92142856D02*
X142424819Y-91904761D01*
X142424819Y-91904761D02*
X142472438Y-91809523D01*
X142472438Y-91809523D02*
X142520057Y-91761904D01*
X142520057Y-91761904D02*
X142615295Y-91714285D01*
X142615295Y-91714285D02*
X142710533Y-91714285D01*
X142710533Y-91714285D02*
X142853390Y-91761904D01*
X142853390Y-91761904D02*
X143424819Y-92333332D01*
X143424819Y-92333332D02*
X143424819Y-91714285D01*
X147291905Y-91294819D02*
X147291905Y-90294819D01*
X147291905Y-90294819D02*
X147530000Y-90294819D01*
X147530000Y-90294819D02*
X147672857Y-90342438D01*
X147672857Y-90342438D02*
X147768095Y-90437676D01*
X147768095Y-90437676D02*
X147815714Y-90532914D01*
X147815714Y-90532914D02*
X147863333Y-90723390D01*
X147863333Y-90723390D02*
X147863333Y-90866247D01*
X147863333Y-90866247D02*
X147815714Y-91056723D01*
X147815714Y-91056723D02*
X147768095Y-91151961D01*
X147768095Y-91151961D02*
X147672857Y-91247200D01*
X147672857Y-91247200D02*
X147530000Y-91294819D01*
X147530000Y-91294819D02*
X147291905Y-91294819D01*
X148768095Y-90294819D02*
X148291905Y-90294819D01*
X148291905Y-90294819D02*
X148244286Y-90771009D01*
X148244286Y-90771009D02*
X148291905Y-90723390D01*
X148291905Y-90723390D02*
X148387143Y-90675771D01*
X148387143Y-90675771D02*
X148625238Y-90675771D01*
X148625238Y-90675771D02*
X148720476Y-90723390D01*
X148720476Y-90723390D02*
X148768095Y-90771009D01*
X148768095Y-90771009D02*
X148815714Y-90866247D01*
X148815714Y-90866247D02*
X148815714Y-91104342D01*
X148815714Y-91104342D02*
X148768095Y-91199580D01*
X148768095Y-91199580D02*
X148720476Y-91247200D01*
X148720476Y-91247200D02*
X148625238Y-91294819D01*
X148625238Y-91294819D02*
X148387143Y-91294819D01*
X148387143Y-91294819D02*
X148291905Y-91247200D01*
X148291905Y-91247200D02*
X148244286Y-91199580D01*
X129724819Y-94518094D02*
X128724819Y-94518094D01*
X128724819Y-94518094D02*
X128724819Y-94279999D01*
X128724819Y-94279999D02*
X128772438Y-94137142D01*
X128772438Y-94137142D02*
X128867676Y-94041904D01*
X128867676Y-94041904D02*
X128962914Y-93994285D01*
X128962914Y-93994285D02*
X129153390Y-93946666D01*
X129153390Y-93946666D02*
X129296247Y-93946666D01*
X129296247Y-93946666D02*
X129486723Y-93994285D01*
X129486723Y-93994285D02*
X129581961Y-94041904D01*
X129581961Y-94041904D02*
X129677200Y-94137142D01*
X129677200Y-94137142D02*
X129724819Y-94279999D01*
X129724819Y-94279999D02*
X129724819Y-94518094D01*
X129724819Y-92994285D02*
X129724819Y-93565713D01*
X129724819Y-93279999D02*
X128724819Y-93279999D01*
X128724819Y-93279999D02*
X128867676Y-93375237D01*
X128867676Y-93375237D02*
X128962914Y-93470475D01*
X128962914Y-93470475D02*
X129010533Y-93565713D01*
X129354819Y-88961904D02*
X128354819Y-88961904D01*
X129354819Y-88390476D02*
X128783390Y-88819047D01*
X128354819Y-88390476D02*
X128926247Y-88961904D01*
X114854819Y-101633333D02*
X115569104Y-101633333D01*
X115569104Y-101633333D02*
X115711961Y-101680952D01*
X115711961Y-101680952D02*
X115807200Y-101776190D01*
X115807200Y-101776190D02*
X115854819Y-101919047D01*
X115854819Y-101919047D02*
X115854819Y-102014285D01*
X115854819Y-100633333D02*
X115854819Y-101204761D01*
X115854819Y-100919047D02*
X114854819Y-100919047D01*
X114854819Y-100919047D02*
X114997676Y-101014285D01*
X114997676Y-101014285D02*
X115092914Y-101109523D01*
X115092914Y-101109523D02*
X115140533Y-101204761D01*
X130054819Y-109938094D02*
X129054819Y-109938094D01*
X129054819Y-109938094D02*
X129054819Y-109699999D01*
X129054819Y-109699999D02*
X129102438Y-109557142D01*
X129102438Y-109557142D02*
X129197676Y-109461904D01*
X129197676Y-109461904D02*
X129292914Y-109414285D01*
X129292914Y-109414285D02*
X129483390Y-109366666D01*
X129483390Y-109366666D02*
X129626247Y-109366666D01*
X129626247Y-109366666D02*
X129816723Y-109414285D01*
X129816723Y-109414285D02*
X129911961Y-109461904D01*
X129911961Y-109461904D02*
X130007200Y-109557142D01*
X130007200Y-109557142D02*
X130054819Y-109699999D01*
X130054819Y-109699999D02*
X130054819Y-109938094D01*
X129150057Y-108985713D02*
X129102438Y-108938094D01*
X129102438Y-108938094D02*
X129054819Y-108842856D01*
X129054819Y-108842856D02*
X129054819Y-108604761D01*
X129054819Y-108604761D02*
X129102438Y-108509523D01*
X129102438Y-108509523D02*
X129150057Y-108461904D01*
X129150057Y-108461904D02*
X129245295Y-108414285D01*
X129245295Y-108414285D02*
X129340533Y-108414285D01*
X129340533Y-108414285D02*
X129483390Y-108461904D01*
X129483390Y-108461904D02*
X130054819Y-109033332D01*
X130054819Y-109033332D02*
X130054819Y-108414285D01*
X129354819Y-103861904D02*
X128354819Y-103861904D01*
X129354819Y-103290476D02*
X128783390Y-103719047D01*
X128354819Y-103290476D02*
X128926247Y-103861904D01*
X143583333Y-106909580D02*
X143535714Y-106957200D01*
X143535714Y-106957200D02*
X143392857Y-107004819D01*
X143392857Y-107004819D02*
X143297619Y-107004819D01*
X143297619Y-107004819D02*
X143154762Y-106957200D01*
X143154762Y-106957200D02*
X143059524Y-106861961D01*
X143059524Y-106861961D02*
X143011905Y-106766723D01*
X143011905Y-106766723D02*
X142964286Y-106576247D01*
X142964286Y-106576247D02*
X142964286Y-106433390D01*
X142964286Y-106433390D02*
X143011905Y-106242914D01*
X143011905Y-106242914D02*
X143059524Y-106147676D01*
X143059524Y-106147676D02*
X143154762Y-106052438D01*
X143154762Y-106052438D02*
X143297619Y-106004819D01*
X143297619Y-106004819D02*
X143392857Y-106004819D01*
X143392857Y-106004819D02*
X143535714Y-106052438D01*
X143535714Y-106052438D02*
X143583333Y-106100057D01*
X144535714Y-107004819D02*
X143964286Y-107004819D01*
X144250000Y-107004819D02*
X144250000Y-106004819D01*
X144250000Y-106004819D02*
X144154762Y-106147676D01*
X144154762Y-106147676D02*
X144059524Y-106242914D01*
X144059524Y-106242914D02*
X143964286Y-106290533D01*
D12*
X132630000Y-105880000D02*
X132630000Y-111320000D01*
X132630000Y-111320000D02*
X135570000Y-111320000D01*
X134100000Y-104860000D02*
X134100000Y-105880000D01*
X134100000Y-112340000D02*
X134100000Y-111320000D01*
X135570000Y-105880000D02*
X132630000Y-105880000D01*
X135570000Y-106660000D02*
X132630000Y-106660000D01*
X135570000Y-106780000D02*
X132630000Y-106780000D01*
X135570000Y-106900000D02*
X132630000Y-106900000D01*
X135570000Y-111320000D02*
X135570000Y-105880000D01*
X140820000Y-100730000D02*
X147360000Y-100730000D01*
X140820000Y-101060000D02*
X140820000Y-100730000D01*
X140820000Y-103140000D02*
X140820000Y-103470000D01*
X140820000Y-103470000D02*
X147360000Y-103470000D01*
X147360000Y-100730000D02*
X147360000Y-101060000D01*
X147360000Y-103470000D02*
X147360000Y-103140000D01*
X111790000Y-103120000D02*
X111790000Y-113280000D01*
X111790000Y-113280000D02*
X119410000Y-113280000D01*
X118140000Y-103120000D02*
X118140000Y-113280000D01*
X119410000Y-103120000D02*
X111790000Y-103120000D01*
X119410000Y-113280000D02*
X119410000Y-103120000D01*
X139230000Y-89230000D02*
X139230000Y-95770000D01*
X139230000Y-95770000D02*
X139560000Y-95770000D01*
X139560000Y-89230000D02*
X139230000Y-89230000D01*
X141640000Y-89230000D02*
X141970000Y-89230000D01*
X141970000Y-89230000D02*
X141970000Y-95770000D01*
X141970000Y-95770000D02*
X141640000Y-95770000D01*
X145470000Y-93255000D02*
X145470000Y-96345000D01*
X145470000Y-93255170D02*
G75*
G02*
X151020000Y-94799952I2560000J-1544830D01*
G01*
X151020000Y-94800048D02*
G75*
G02*
X145470000Y-96344830I-2990000J48D01*
G01*
X150530000Y-94800000D02*
G75*
G02*
X145530000Y-94800000I-2500000J0D01*
G01*
X145530000Y-94800000D02*
G75*
G02*
X150530000Y-94800000I2500000J0D01*
G01*
X125330000Y-91060000D02*
X125330000Y-96500000D01*
X125330000Y-96500000D02*
X128270000Y-96500000D01*
X126800000Y-90040000D02*
X126800000Y-91060000D01*
X126800000Y-97520000D02*
X126800000Y-96500000D01*
X128270000Y-91060000D02*
X125330000Y-91060000D01*
X128270000Y-91840000D02*
X125330000Y-91840000D01*
X128270000Y-91960000D02*
X125330000Y-91960000D01*
X128270000Y-92080000D02*
X125330000Y-92080000D01*
X128270000Y-96500000D02*
X128270000Y-91060000D01*
X111890000Y-89460000D02*
X111890000Y-99620000D01*
X111890000Y-99620000D02*
X119510000Y-99620000D01*
X118240000Y-89460000D02*
X118240000Y-99620000D01*
X119510000Y-89460000D02*
X111890000Y-89460000D01*
X119510000Y-99620000D02*
X119510000Y-89460000D01*
X132630000Y-91080000D02*
X132630000Y-96520000D01*
X132630000Y-96520000D02*
X135570000Y-96520000D01*
X134100000Y-90060000D02*
X134100000Y-91080000D01*
X134100000Y-97540000D02*
X134100000Y-96520000D01*
X135570000Y-91080000D02*
X132630000Y-91080000D01*
X135570000Y-91860000D02*
X132630000Y-91860000D01*
X135570000Y-91980000D02*
X132630000Y-91980000D01*
X135570000Y-92100000D02*
X132630000Y-92100000D01*
X135570000Y-96520000D02*
X135570000Y-91080000D01*
X125330000Y-105960000D02*
X125330000Y-111400000D01*
X125330000Y-111400000D02*
X128270000Y-111400000D01*
X126800000Y-104940000D02*
X126800000Y-105960000D01*
X126800000Y-112420000D02*
X126800000Y-111400000D01*
X128270000Y-105960000D02*
X125330000Y-105960000D01*
X128270000Y-106740000D02*
X125330000Y-106740000D01*
X128270000Y-106860000D02*
X125330000Y-106860000D01*
X128270000Y-106980000D02*
X125330000Y-106980000D01*
X128270000Y-111400000D02*
X128270000Y-105960000D01*
X147870000Y-111800000D02*
G75*
G02*
X139630000Y-111800000I-4120000J0D01*
G01*
X139630000Y-111800000D02*
G75*
G02*
X147870000Y-111800000I4120000J0D01*
G01*
M02*
