%TF.GenerationSoftware,KiCad,Pcbnew,9.0.1*%
%TF.CreationDate,2025-08-14T10:08:24+05:00*%
%TF.ProjectId,ac_to_dc_converter,61635f74-6f5f-4646-935f-636f6e766572,rev?*%
%TF.SameCoordinates,Original*%
%TF.FileFunction,Drillmap*%
%TF.FilePolarity,Positive*%
%FSLAX45Y45*%
G04 Gerber Fmt 4.5, Leading zero omitted, Abs format (unit mm)*
G04 Created by KiCad (PCBNEW 9.0.1) date 2025-08-14 10:08:24*
%MOMM*%
%LPD*%
G01*
G04 APERTURE LIST*
%ADD10C,0.050000*%
%ADD11C,0.200000*%
%ADD12C,0.100000*%
%ADD13C,0.110000*%
%ADD14C,0.152000*%
G04 APERTURE END LIST*
D10*
X11410000Y-8660000D02*
G75*
G02*
X11110000Y-8660000I-150000J0D01*
G01*
X11110000Y-8660000D02*
G75*
G02*
X11410000Y-8660000I150000J0D01*
G01*
X15720000Y-11620000D02*
G75*
G02*
X15420000Y-11620000I-150000J0D01*
G01*
X15420000Y-11620000D02*
G75*
G02*
X15720000Y-11620000I150000J0D01*
G01*
X11050000Y-8450000D02*
X15800000Y-8450000D01*
X15800000Y-11850000D01*
X11050000Y-11850000D01*
X11050000Y-8450000D01*
X15720000Y-8650000D02*
G75*
G02*
X15420000Y-8650000I-150000J0D01*
G01*
X15420000Y-8650000D02*
G75*
G02*
X15720000Y-8650000I150000J0D01*
G01*
X11410000Y-11620000D02*
G75*
G02*
X11110000Y-11620000I-150000J0D01*
G01*
X11110000Y-11620000D02*
G75*
G02*
X11410000Y-11620000I150000J0D01*
G01*
D11*
D12*
X13988000Y-10170000D02*
X14068000Y-10250000D01*
X14068000Y-10170000D02*
X13988000Y-10250000D01*
X14020000Y-8829000D02*
X14100000Y-8909000D01*
X14100000Y-8829000D02*
X14020000Y-8909000D01*
X14020000Y-9591000D02*
X14100000Y-9671000D01*
X14100000Y-9591000D02*
X14020000Y-9671000D01*
X14160000Y-11140000D02*
X14240000Y-11220000D01*
X14240000Y-11140000D02*
X14160000Y-11220000D01*
X14510000Y-11140000D02*
X14590000Y-11220000D01*
X14590000Y-11140000D02*
X14510000Y-11220000D01*
X14750000Y-10170000D02*
X14830000Y-10250000D01*
X14830000Y-10170000D02*
X14750000Y-10250000D01*
X14721000Y-9480000D02*
G75*
G02*
X14631000Y-9480000I-45000J0D01*
G01*
X14631000Y-9480000D02*
G75*
G02*
X14721000Y-9480000I45000J0D01*
G01*
X14975000Y-9480000D02*
G75*
G02*
X14885000Y-9480000I-45000J0D01*
G01*
X14885000Y-9480000D02*
G75*
G02*
X14975000Y-9480000I45000J0D01*
G01*
D13*
X12680000Y-8815000D02*
X12680000Y-8925000D01*
X12625000Y-8870000D02*
X12735000Y-8870000D01*
X12680000Y-9831000D02*
X12680000Y-9941000D01*
X12625000Y-9886000D02*
X12735000Y-9886000D01*
X12680000Y-10305000D02*
X12680000Y-10415000D01*
X12625000Y-10360000D02*
X12735000Y-10360000D01*
X12680000Y-11321000D02*
X12680000Y-11431000D01*
X12625000Y-11376000D02*
X12735000Y-11376000D01*
X13410000Y-8817000D02*
X13410000Y-8927000D01*
X13355000Y-8872000D02*
X13465000Y-8872000D01*
X13410000Y-9833000D02*
X13410000Y-9943000D01*
X13355000Y-9888000D02*
X13465000Y-9888000D01*
X13410000Y-10297000D02*
X13410000Y-10407000D01*
X13355000Y-10352000D02*
X13465000Y-10352000D01*
X13410000Y-11313000D02*
X13410000Y-11423000D01*
X13355000Y-11368000D02*
X13465000Y-11368000D01*
D14*
X11613741Y-10619741D02*
X11613741Y-10512259D01*
X11506259Y-10512259D01*
X11506259Y-10619741D01*
X11613741Y-10619741D01*
X11613741Y-11127741D02*
X11613741Y-11020259D01*
X11506259Y-11020259D01*
X11506259Y-11127741D01*
X11613741Y-11127741D01*
X11623741Y-9253741D02*
X11623741Y-9146259D01*
X11516259Y-9146259D01*
X11516259Y-9253741D01*
X11623741Y-9253741D01*
X11623741Y-9761741D02*
X11623741Y-9654259D01*
X11516259Y-9654259D01*
X11516259Y-9761741D01*
X11623741Y-9761741D01*
D11*
X11308277Y-12163984D02*
X11308277Y-11963984D01*
X11308277Y-11963984D02*
X11355896Y-11963984D01*
X11355896Y-11963984D02*
X11384467Y-11973508D01*
X11384467Y-11973508D02*
X11403515Y-11992555D01*
X11403515Y-11992555D02*
X11413039Y-12011603D01*
X11413039Y-12011603D02*
X11422562Y-12049698D01*
X11422562Y-12049698D02*
X11422562Y-12078269D01*
X11422562Y-12078269D02*
X11413039Y-12116365D01*
X11413039Y-12116365D02*
X11403515Y-12135412D01*
X11403515Y-12135412D02*
X11384467Y-12154460D01*
X11384467Y-12154460D02*
X11355896Y-12163984D01*
X11355896Y-12163984D02*
X11308277Y-12163984D01*
X11508277Y-12163984D02*
X11508277Y-12030650D01*
X11508277Y-12068746D02*
X11517801Y-12049698D01*
X11517801Y-12049698D02*
X11527324Y-12040174D01*
X11527324Y-12040174D02*
X11546372Y-12030650D01*
X11546372Y-12030650D02*
X11565420Y-12030650D01*
X11632086Y-12163984D02*
X11632086Y-12030650D01*
X11632086Y-11963984D02*
X11622562Y-11973508D01*
X11622562Y-11973508D02*
X11632086Y-11983031D01*
X11632086Y-11983031D02*
X11641610Y-11973508D01*
X11641610Y-11973508D02*
X11632086Y-11963984D01*
X11632086Y-11963984D02*
X11632086Y-11983031D01*
X11755896Y-12163984D02*
X11736848Y-12154460D01*
X11736848Y-12154460D02*
X11727324Y-12135412D01*
X11727324Y-12135412D02*
X11727324Y-11963984D01*
X11860658Y-12163984D02*
X11841610Y-12154460D01*
X11841610Y-12154460D02*
X11832086Y-12135412D01*
X11832086Y-12135412D02*
X11832086Y-11963984D01*
X12089229Y-12163984D02*
X12089229Y-11963984D01*
X12089229Y-11963984D02*
X12155896Y-12106841D01*
X12155896Y-12106841D02*
X12222562Y-11963984D01*
X12222562Y-11963984D02*
X12222562Y-12163984D01*
X12403515Y-12163984D02*
X12403515Y-12059222D01*
X12403515Y-12059222D02*
X12393991Y-12040174D01*
X12393991Y-12040174D02*
X12374943Y-12030650D01*
X12374943Y-12030650D02*
X12336848Y-12030650D01*
X12336848Y-12030650D02*
X12317801Y-12040174D01*
X12403515Y-12154460D02*
X12384467Y-12163984D01*
X12384467Y-12163984D02*
X12336848Y-12163984D01*
X12336848Y-12163984D02*
X12317801Y-12154460D01*
X12317801Y-12154460D02*
X12308277Y-12135412D01*
X12308277Y-12135412D02*
X12308277Y-12116365D01*
X12308277Y-12116365D02*
X12317801Y-12097317D01*
X12317801Y-12097317D02*
X12336848Y-12087793D01*
X12336848Y-12087793D02*
X12384467Y-12087793D01*
X12384467Y-12087793D02*
X12403515Y-12078269D01*
X12498753Y-12030650D02*
X12498753Y-12230650D01*
X12498753Y-12040174D02*
X12517801Y-12030650D01*
X12517801Y-12030650D02*
X12555896Y-12030650D01*
X12555896Y-12030650D02*
X12574943Y-12040174D01*
X12574943Y-12040174D02*
X12584467Y-12049698D01*
X12584467Y-12049698D02*
X12593991Y-12068746D01*
X12593991Y-12068746D02*
X12593991Y-12125888D01*
X12593991Y-12125888D02*
X12584467Y-12144936D01*
X12584467Y-12144936D02*
X12574943Y-12154460D01*
X12574943Y-12154460D02*
X12555896Y-12163984D01*
X12555896Y-12163984D02*
X12517801Y-12163984D01*
X12517801Y-12163984D02*
X12498753Y-12154460D01*
X12679705Y-12144936D02*
X12689229Y-12154460D01*
X12689229Y-12154460D02*
X12679705Y-12163984D01*
X12679705Y-12163984D02*
X12670182Y-12154460D01*
X12670182Y-12154460D02*
X12679705Y-12144936D01*
X12679705Y-12144936D02*
X12679705Y-12163984D01*
X12679705Y-12040174D02*
X12689229Y-12049698D01*
X12689229Y-12049698D02*
X12679705Y-12059222D01*
X12679705Y-12059222D02*
X12670182Y-12049698D01*
X12670182Y-12049698D02*
X12679705Y-12040174D01*
X12679705Y-12040174D02*
X12679705Y-12059222D01*
D12*
X10967500Y-12452500D02*
X11047500Y-12532500D01*
X11047500Y-12452500D02*
X10967500Y-12532500D01*
D11*
X11346372Y-12383984D02*
X11365420Y-12383984D01*
X11365420Y-12383984D02*
X11384467Y-12393508D01*
X11384467Y-12393508D02*
X11393991Y-12403031D01*
X11393991Y-12403031D02*
X11403515Y-12422079D01*
X11403515Y-12422079D02*
X11413039Y-12460174D01*
X11413039Y-12460174D02*
X11413039Y-12507793D01*
X11413039Y-12507793D02*
X11403515Y-12545888D01*
X11403515Y-12545888D02*
X11393991Y-12564936D01*
X11393991Y-12564936D02*
X11384467Y-12574460D01*
X11384467Y-12574460D02*
X11365420Y-12583984D01*
X11365420Y-12583984D02*
X11346372Y-12583984D01*
X11346372Y-12583984D02*
X11327324Y-12574460D01*
X11327324Y-12574460D02*
X11317801Y-12564936D01*
X11317801Y-12564936D02*
X11308277Y-12545888D01*
X11308277Y-12545888D02*
X11298753Y-12507793D01*
X11298753Y-12507793D02*
X11298753Y-12460174D01*
X11298753Y-12460174D02*
X11308277Y-12422079D01*
X11308277Y-12422079D02*
X11317801Y-12403031D01*
X11317801Y-12403031D02*
X11327324Y-12393508D01*
X11327324Y-12393508D02*
X11346372Y-12383984D01*
X11498753Y-12564936D02*
X11508277Y-12574460D01*
X11508277Y-12574460D02*
X11498753Y-12583984D01*
X11498753Y-12583984D02*
X11489229Y-12574460D01*
X11489229Y-12574460D02*
X11498753Y-12564936D01*
X11498753Y-12564936D02*
X11498753Y-12583984D01*
X11622562Y-12469698D02*
X11603515Y-12460174D01*
X11603515Y-12460174D02*
X11593991Y-12450650D01*
X11593991Y-12450650D02*
X11584467Y-12431603D01*
X11584467Y-12431603D02*
X11584467Y-12422079D01*
X11584467Y-12422079D02*
X11593991Y-12403031D01*
X11593991Y-12403031D02*
X11603515Y-12393508D01*
X11603515Y-12393508D02*
X11622562Y-12383984D01*
X11622562Y-12383984D02*
X11660658Y-12383984D01*
X11660658Y-12383984D02*
X11679705Y-12393508D01*
X11679705Y-12393508D02*
X11689229Y-12403031D01*
X11689229Y-12403031D02*
X11698753Y-12422079D01*
X11698753Y-12422079D02*
X11698753Y-12431603D01*
X11698753Y-12431603D02*
X11689229Y-12450650D01*
X11689229Y-12450650D02*
X11679705Y-12460174D01*
X11679705Y-12460174D02*
X11660658Y-12469698D01*
X11660658Y-12469698D02*
X11622562Y-12469698D01*
X11622562Y-12469698D02*
X11603515Y-12479222D01*
X11603515Y-12479222D02*
X11593991Y-12488746D01*
X11593991Y-12488746D02*
X11584467Y-12507793D01*
X11584467Y-12507793D02*
X11584467Y-12545888D01*
X11584467Y-12545888D02*
X11593991Y-12564936D01*
X11593991Y-12564936D02*
X11603515Y-12574460D01*
X11603515Y-12574460D02*
X11622562Y-12583984D01*
X11622562Y-12583984D02*
X11660658Y-12583984D01*
X11660658Y-12583984D02*
X11679705Y-12574460D01*
X11679705Y-12574460D02*
X11689229Y-12564936D01*
X11689229Y-12564936D02*
X11698753Y-12545888D01*
X11698753Y-12545888D02*
X11698753Y-12507793D01*
X11698753Y-12507793D02*
X11689229Y-12488746D01*
X11689229Y-12488746D02*
X11679705Y-12479222D01*
X11679705Y-12479222D02*
X11660658Y-12469698D01*
X11822562Y-12383984D02*
X11841610Y-12383984D01*
X11841610Y-12383984D02*
X11860658Y-12393508D01*
X11860658Y-12393508D02*
X11870182Y-12403031D01*
X11870182Y-12403031D02*
X11879705Y-12422079D01*
X11879705Y-12422079D02*
X11889229Y-12460174D01*
X11889229Y-12460174D02*
X11889229Y-12507793D01*
X11889229Y-12507793D02*
X11879705Y-12545888D01*
X11879705Y-12545888D02*
X11870182Y-12564936D01*
X11870182Y-12564936D02*
X11860658Y-12574460D01*
X11860658Y-12574460D02*
X11841610Y-12583984D01*
X11841610Y-12583984D02*
X11822562Y-12583984D01*
X11822562Y-12583984D02*
X11803515Y-12574460D01*
X11803515Y-12574460D02*
X11793991Y-12564936D01*
X11793991Y-12564936D02*
X11784467Y-12545888D01*
X11784467Y-12545888D02*
X11774943Y-12507793D01*
X11774943Y-12507793D02*
X11774943Y-12460174D01*
X11774943Y-12460174D02*
X11784467Y-12422079D01*
X11784467Y-12422079D02*
X11793991Y-12403031D01*
X11793991Y-12403031D02*
X11803515Y-12393508D01*
X11803515Y-12393508D02*
X11822562Y-12383984D01*
X12013039Y-12383984D02*
X12032086Y-12383984D01*
X12032086Y-12383984D02*
X12051134Y-12393508D01*
X12051134Y-12393508D02*
X12060658Y-12403031D01*
X12060658Y-12403031D02*
X12070182Y-12422079D01*
X12070182Y-12422079D02*
X12079705Y-12460174D01*
X12079705Y-12460174D02*
X12079705Y-12507793D01*
X12079705Y-12507793D02*
X12070182Y-12545888D01*
X12070182Y-12545888D02*
X12060658Y-12564936D01*
X12060658Y-12564936D02*
X12051134Y-12574460D01*
X12051134Y-12574460D02*
X12032086Y-12583984D01*
X12032086Y-12583984D02*
X12013039Y-12583984D01*
X12013039Y-12583984D02*
X11993991Y-12574460D01*
X11993991Y-12574460D02*
X11984467Y-12564936D01*
X11984467Y-12564936D02*
X11974943Y-12545888D01*
X11974943Y-12545888D02*
X11965420Y-12507793D01*
X11965420Y-12507793D02*
X11965420Y-12460174D01*
X11965420Y-12460174D02*
X11974943Y-12422079D01*
X11974943Y-12422079D02*
X11984467Y-12403031D01*
X11984467Y-12403031D02*
X11993991Y-12393508D01*
X11993991Y-12393508D02*
X12013039Y-12383984D01*
X12165420Y-12583984D02*
X12165420Y-12450650D01*
X12165420Y-12469698D02*
X12174943Y-12460174D01*
X12174943Y-12460174D02*
X12193991Y-12450650D01*
X12193991Y-12450650D02*
X12222563Y-12450650D01*
X12222563Y-12450650D02*
X12241610Y-12460174D01*
X12241610Y-12460174D02*
X12251134Y-12479222D01*
X12251134Y-12479222D02*
X12251134Y-12583984D01*
X12251134Y-12479222D02*
X12260658Y-12460174D01*
X12260658Y-12460174D02*
X12279705Y-12450650D01*
X12279705Y-12450650D02*
X12308277Y-12450650D01*
X12308277Y-12450650D02*
X12327324Y-12460174D01*
X12327324Y-12460174D02*
X12336848Y-12479222D01*
X12336848Y-12479222D02*
X12336848Y-12583984D01*
X12432086Y-12583984D02*
X12432086Y-12450650D01*
X12432086Y-12469698D02*
X12441610Y-12460174D01*
X12441610Y-12460174D02*
X12460658Y-12450650D01*
X12460658Y-12450650D02*
X12489229Y-12450650D01*
X12489229Y-12450650D02*
X12508277Y-12460174D01*
X12508277Y-12460174D02*
X12517801Y-12479222D01*
X12517801Y-12479222D02*
X12517801Y-12583984D01*
X12517801Y-12479222D02*
X12527324Y-12460174D01*
X12527324Y-12460174D02*
X12546372Y-12450650D01*
X12546372Y-12450650D02*
X12574943Y-12450650D01*
X12574943Y-12450650D02*
X12593991Y-12460174D01*
X12593991Y-12460174D02*
X12603515Y-12479222D01*
X12603515Y-12479222D02*
X12603515Y-12583984D01*
X12993991Y-12374460D02*
X12822563Y-12631603D01*
X13251134Y-12383984D02*
X13270182Y-12383984D01*
X13270182Y-12383984D02*
X13289229Y-12393508D01*
X13289229Y-12393508D02*
X13298753Y-12403031D01*
X13298753Y-12403031D02*
X13308277Y-12422079D01*
X13308277Y-12422079D02*
X13317801Y-12460174D01*
X13317801Y-12460174D02*
X13317801Y-12507793D01*
X13317801Y-12507793D02*
X13308277Y-12545888D01*
X13308277Y-12545888D02*
X13298753Y-12564936D01*
X13298753Y-12564936D02*
X13289229Y-12574460D01*
X13289229Y-12574460D02*
X13270182Y-12583984D01*
X13270182Y-12583984D02*
X13251134Y-12583984D01*
X13251134Y-12583984D02*
X13232086Y-12574460D01*
X13232086Y-12574460D02*
X13222563Y-12564936D01*
X13222563Y-12564936D02*
X13213039Y-12545888D01*
X13213039Y-12545888D02*
X13203515Y-12507793D01*
X13203515Y-12507793D02*
X13203515Y-12460174D01*
X13203515Y-12460174D02*
X13213039Y-12422079D01*
X13213039Y-12422079D02*
X13222563Y-12403031D01*
X13222563Y-12403031D02*
X13232086Y-12393508D01*
X13232086Y-12393508D02*
X13251134Y-12383984D01*
X13403515Y-12564936D02*
X13413039Y-12574460D01*
X13413039Y-12574460D02*
X13403515Y-12583984D01*
X13403515Y-12583984D02*
X13393991Y-12574460D01*
X13393991Y-12574460D02*
X13403515Y-12564936D01*
X13403515Y-12564936D02*
X13403515Y-12583984D01*
X13536848Y-12383984D02*
X13555896Y-12383984D01*
X13555896Y-12383984D02*
X13574944Y-12393508D01*
X13574944Y-12393508D02*
X13584467Y-12403031D01*
X13584467Y-12403031D02*
X13593991Y-12422079D01*
X13593991Y-12422079D02*
X13603515Y-12460174D01*
X13603515Y-12460174D02*
X13603515Y-12507793D01*
X13603515Y-12507793D02*
X13593991Y-12545888D01*
X13593991Y-12545888D02*
X13584467Y-12564936D01*
X13584467Y-12564936D02*
X13574944Y-12574460D01*
X13574944Y-12574460D02*
X13555896Y-12583984D01*
X13555896Y-12583984D02*
X13536848Y-12583984D01*
X13536848Y-12583984D02*
X13517801Y-12574460D01*
X13517801Y-12574460D02*
X13508277Y-12564936D01*
X13508277Y-12564936D02*
X13498753Y-12545888D01*
X13498753Y-12545888D02*
X13489229Y-12507793D01*
X13489229Y-12507793D02*
X13489229Y-12460174D01*
X13489229Y-12460174D02*
X13498753Y-12422079D01*
X13498753Y-12422079D02*
X13508277Y-12403031D01*
X13508277Y-12403031D02*
X13517801Y-12393508D01*
X13517801Y-12393508D02*
X13536848Y-12383984D01*
X13670182Y-12383984D02*
X13793991Y-12383984D01*
X13793991Y-12383984D02*
X13727325Y-12460174D01*
X13727325Y-12460174D02*
X13755896Y-12460174D01*
X13755896Y-12460174D02*
X13774944Y-12469698D01*
X13774944Y-12469698D02*
X13784467Y-12479222D01*
X13784467Y-12479222D02*
X13793991Y-12498269D01*
X13793991Y-12498269D02*
X13793991Y-12545888D01*
X13793991Y-12545888D02*
X13784467Y-12564936D01*
X13784467Y-12564936D02*
X13774944Y-12574460D01*
X13774944Y-12574460D02*
X13755896Y-12583984D01*
X13755896Y-12583984D02*
X13698753Y-12583984D01*
X13698753Y-12583984D02*
X13679706Y-12574460D01*
X13679706Y-12574460D02*
X13670182Y-12564936D01*
X13984467Y-12583984D02*
X13870182Y-12583984D01*
X13927325Y-12583984D02*
X13927325Y-12383984D01*
X13927325Y-12383984D02*
X13908277Y-12412555D01*
X13908277Y-12412555D02*
X13889229Y-12431603D01*
X13889229Y-12431603D02*
X13870182Y-12441127D01*
X14165420Y-12383984D02*
X14070182Y-12383984D01*
X14070182Y-12383984D02*
X14060658Y-12479222D01*
X14060658Y-12479222D02*
X14070182Y-12469698D01*
X14070182Y-12469698D02*
X14089229Y-12460174D01*
X14089229Y-12460174D02*
X14136848Y-12460174D01*
X14136848Y-12460174D02*
X14155896Y-12469698D01*
X14155896Y-12469698D02*
X14165420Y-12479222D01*
X14165420Y-12479222D02*
X14174944Y-12498269D01*
X14174944Y-12498269D02*
X14174944Y-12545888D01*
X14174944Y-12545888D02*
X14165420Y-12564936D01*
X14165420Y-12564936D02*
X14155896Y-12574460D01*
X14155896Y-12574460D02*
X14136848Y-12583984D01*
X14136848Y-12583984D02*
X14089229Y-12583984D01*
X14089229Y-12583984D02*
X14070182Y-12574460D01*
X14070182Y-12574460D02*
X14060658Y-12564936D01*
X14251134Y-12383984D02*
X14251134Y-12422079D01*
X14327325Y-12383984D02*
X14327325Y-12422079D01*
X14622563Y-12660174D02*
X14613039Y-12650650D01*
X14613039Y-12650650D02*
X14593991Y-12622079D01*
X14593991Y-12622079D02*
X14584468Y-12603031D01*
X14584468Y-12603031D02*
X14574944Y-12574460D01*
X14574944Y-12574460D02*
X14565420Y-12526841D01*
X14565420Y-12526841D02*
X14565420Y-12488746D01*
X14565420Y-12488746D02*
X14574944Y-12441127D01*
X14574944Y-12441127D02*
X14584468Y-12412555D01*
X14584468Y-12412555D02*
X14593991Y-12393508D01*
X14593991Y-12393508D02*
X14613039Y-12364936D01*
X14613039Y-12364936D02*
X14622563Y-12355412D01*
X14784468Y-12383984D02*
X14746372Y-12383984D01*
X14746372Y-12383984D02*
X14727325Y-12393508D01*
X14727325Y-12393508D02*
X14717801Y-12403031D01*
X14717801Y-12403031D02*
X14698753Y-12431603D01*
X14698753Y-12431603D02*
X14689229Y-12469698D01*
X14689229Y-12469698D02*
X14689229Y-12545888D01*
X14689229Y-12545888D02*
X14698753Y-12564936D01*
X14698753Y-12564936D02*
X14708277Y-12574460D01*
X14708277Y-12574460D02*
X14727325Y-12583984D01*
X14727325Y-12583984D02*
X14765420Y-12583984D01*
X14765420Y-12583984D02*
X14784468Y-12574460D01*
X14784468Y-12574460D02*
X14793991Y-12564936D01*
X14793991Y-12564936D02*
X14803515Y-12545888D01*
X14803515Y-12545888D02*
X14803515Y-12498269D01*
X14803515Y-12498269D02*
X14793991Y-12479222D01*
X14793991Y-12479222D02*
X14784468Y-12469698D01*
X14784468Y-12469698D02*
X14765420Y-12460174D01*
X14765420Y-12460174D02*
X14727325Y-12460174D01*
X14727325Y-12460174D02*
X14708277Y-12469698D01*
X14708277Y-12469698D02*
X14698753Y-12479222D01*
X14698753Y-12479222D02*
X14689229Y-12498269D01*
X15041610Y-12583984D02*
X15041610Y-12383984D01*
X15127325Y-12583984D02*
X15127325Y-12479222D01*
X15127325Y-12479222D02*
X15117801Y-12460174D01*
X15117801Y-12460174D02*
X15098753Y-12450650D01*
X15098753Y-12450650D02*
X15070182Y-12450650D01*
X15070182Y-12450650D02*
X15051134Y-12460174D01*
X15051134Y-12460174D02*
X15041610Y-12469698D01*
X15251134Y-12583984D02*
X15232087Y-12574460D01*
X15232087Y-12574460D02*
X15222563Y-12564936D01*
X15222563Y-12564936D02*
X15213039Y-12545888D01*
X15213039Y-12545888D02*
X15213039Y-12488746D01*
X15213039Y-12488746D02*
X15222563Y-12469698D01*
X15222563Y-12469698D02*
X15232087Y-12460174D01*
X15232087Y-12460174D02*
X15251134Y-12450650D01*
X15251134Y-12450650D02*
X15279706Y-12450650D01*
X15279706Y-12450650D02*
X15298753Y-12460174D01*
X15298753Y-12460174D02*
X15308277Y-12469698D01*
X15308277Y-12469698D02*
X15317801Y-12488746D01*
X15317801Y-12488746D02*
X15317801Y-12545888D01*
X15317801Y-12545888D02*
X15308277Y-12564936D01*
X15308277Y-12564936D02*
X15298753Y-12574460D01*
X15298753Y-12574460D02*
X15279706Y-12583984D01*
X15279706Y-12583984D02*
X15251134Y-12583984D01*
X15432087Y-12583984D02*
X15413039Y-12574460D01*
X15413039Y-12574460D02*
X15403515Y-12555412D01*
X15403515Y-12555412D02*
X15403515Y-12383984D01*
X15584468Y-12574460D02*
X15565420Y-12583984D01*
X15565420Y-12583984D02*
X15527325Y-12583984D01*
X15527325Y-12583984D02*
X15508277Y-12574460D01*
X15508277Y-12574460D02*
X15498753Y-12555412D01*
X15498753Y-12555412D02*
X15498753Y-12479222D01*
X15498753Y-12479222D02*
X15508277Y-12460174D01*
X15508277Y-12460174D02*
X15527325Y-12450650D01*
X15527325Y-12450650D02*
X15565420Y-12450650D01*
X15565420Y-12450650D02*
X15584468Y-12460174D01*
X15584468Y-12460174D02*
X15593991Y-12479222D01*
X15593991Y-12479222D02*
X15593991Y-12498269D01*
X15593991Y-12498269D02*
X15498753Y-12517317D01*
X15670182Y-12574460D02*
X15689230Y-12583984D01*
X15689230Y-12583984D02*
X15727325Y-12583984D01*
X15727325Y-12583984D02*
X15746372Y-12574460D01*
X15746372Y-12574460D02*
X15755896Y-12555412D01*
X15755896Y-12555412D02*
X15755896Y-12545888D01*
X15755896Y-12545888D02*
X15746372Y-12526841D01*
X15746372Y-12526841D02*
X15727325Y-12517317D01*
X15727325Y-12517317D02*
X15698753Y-12517317D01*
X15698753Y-12517317D02*
X15679706Y-12507793D01*
X15679706Y-12507793D02*
X15670182Y-12488746D01*
X15670182Y-12488746D02*
X15670182Y-12479222D01*
X15670182Y-12479222D02*
X15679706Y-12460174D01*
X15679706Y-12460174D02*
X15698753Y-12450650D01*
X15698753Y-12450650D02*
X15727325Y-12450650D01*
X15727325Y-12450650D02*
X15746372Y-12460174D01*
X15822563Y-12660174D02*
X15832087Y-12650650D01*
X15832087Y-12650650D02*
X15851134Y-12622079D01*
X15851134Y-12622079D02*
X15860658Y-12603031D01*
X15860658Y-12603031D02*
X15870182Y-12574460D01*
X15870182Y-12574460D02*
X15879706Y-12526841D01*
X15879706Y-12526841D02*
X15879706Y-12488746D01*
X15879706Y-12488746D02*
X15870182Y-12441127D01*
X15870182Y-12441127D02*
X15860658Y-12412555D01*
X15860658Y-12412555D02*
X15851134Y-12393508D01*
X15851134Y-12393508D02*
X15832087Y-12364936D01*
X15832087Y-12364936D02*
X15822563Y-12355412D01*
D12*
X11047500Y-12756500D02*
G75*
G02*
X10957500Y-12756500I-45000J0D01*
G01*
X10957500Y-12756500D02*
G75*
G02*
X11047500Y-12756500I45000J0D01*
G01*
D11*
X11346372Y-12647984D02*
X11365420Y-12647984D01*
X11365420Y-12647984D02*
X11384467Y-12657508D01*
X11384467Y-12657508D02*
X11393991Y-12667031D01*
X11393991Y-12667031D02*
X11403515Y-12686079D01*
X11403515Y-12686079D02*
X11413039Y-12724174D01*
X11413039Y-12724174D02*
X11413039Y-12771793D01*
X11413039Y-12771793D02*
X11403515Y-12809888D01*
X11403515Y-12809888D02*
X11393991Y-12828936D01*
X11393991Y-12828936D02*
X11384467Y-12838460D01*
X11384467Y-12838460D02*
X11365420Y-12847984D01*
X11365420Y-12847984D02*
X11346372Y-12847984D01*
X11346372Y-12847984D02*
X11327324Y-12838460D01*
X11327324Y-12838460D02*
X11317801Y-12828936D01*
X11317801Y-12828936D02*
X11308277Y-12809888D01*
X11308277Y-12809888D02*
X11298753Y-12771793D01*
X11298753Y-12771793D02*
X11298753Y-12724174D01*
X11298753Y-12724174D02*
X11308277Y-12686079D01*
X11308277Y-12686079D02*
X11317801Y-12667031D01*
X11317801Y-12667031D02*
X11327324Y-12657508D01*
X11327324Y-12657508D02*
X11346372Y-12647984D01*
X11498753Y-12828936D02*
X11508277Y-12838460D01*
X11508277Y-12838460D02*
X11498753Y-12847984D01*
X11498753Y-12847984D02*
X11489229Y-12838460D01*
X11489229Y-12838460D02*
X11498753Y-12828936D01*
X11498753Y-12828936D02*
X11498753Y-12847984D01*
X11603515Y-12847984D02*
X11641610Y-12847984D01*
X11641610Y-12847984D02*
X11660658Y-12838460D01*
X11660658Y-12838460D02*
X11670182Y-12828936D01*
X11670182Y-12828936D02*
X11689229Y-12800365D01*
X11689229Y-12800365D02*
X11698753Y-12762269D01*
X11698753Y-12762269D02*
X11698753Y-12686079D01*
X11698753Y-12686079D02*
X11689229Y-12667031D01*
X11689229Y-12667031D02*
X11679705Y-12657508D01*
X11679705Y-12657508D02*
X11660658Y-12647984D01*
X11660658Y-12647984D02*
X11622562Y-12647984D01*
X11622562Y-12647984D02*
X11603515Y-12657508D01*
X11603515Y-12657508D02*
X11593991Y-12667031D01*
X11593991Y-12667031D02*
X11584467Y-12686079D01*
X11584467Y-12686079D02*
X11584467Y-12733698D01*
X11584467Y-12733698D02*
X11593991Y-12752746D01*
X11593991Y-12752746D02*
X11603515Y-12762269D01*
X11603515Y-12762269D02*
X11622562Y-12771793D01*
X11622562Y-12771793D02*
X11660658Y-12771793D01*
X11660658Y-12771793D02*
X11679705Y-12762269D01*
X11679705Y-12762269D02*
X11689229Y-12752746D01*
X11689229Y-12752746D02*
X11698753Y-12733698D01*
X11822562Y-12647984D02*
X11841610Y-12647984D01*
X11841610Y-12647984D02*
X11860658Y-12657508D01*
X11860658Y-12657508D02*
X11870182Y-12667031D01*
X11870182Y-12667031D02*
X11879705Y-12686079D01*
X11879705Y-12686079D02*
X11889229Y-12724174D01*
X11889229Y-12724174D02*
X11889229Y-12771793D01*
X11889229Y-12771793D02*
X11879705Y-12809888D01*
X11879705Y-12809888D02*
X11870182Y-12828936D01*
X11870182Y-12828936D02*
X11860658Y-12838460D01*
X11860658Y-12838460D02*
X11841610Y-12847984D01*
X11841610Y-12847984D02*
X11822562Y-12847984D01*
X11822562Y-12847984D02*
X11803515Y-12838460D01*
X11803515Y-12838460D02*
X11793991Y-12828936D01*
X11793991Y-12828936D02*
X11784467Y-12809888D01*
X11784467Y-12809888D02*
X11774943Y-12771793D01*
X11774943Y-12771793D02*
X11774943Y-12724174D01*
X11774943Y-12724174D02*
X11784467Y-12686079D01*
X11784467Y-12686079D02*
X11793991Y-12667031D01*
X11793991Y-12667031D02*
X11803515Y-12657508D01*
X11803515Y-12657508D02*
X11822562Y-12647984D01*
X12013039Y-12647984D02*
X12032086Y-12647984D01*
X12032086Y-12647984D02*
X12051134Y-12657508D01*
X12051134Y-12657508D02*
X12060658Y-12667031D01*
X12060658Y-12667031D02*
X12070182Y-12686079D01*
X12070182Y-12686079D02*
X12079705Y-12724174D01*
X12079705Y-12724174D02*
X12079705Y-12771793D01*
X12079705Y-12771793D02*
X12070182Y-12809888D01*
X12070182Y-12809888D02*
X12060658Y-12828936D01*
X12060658Y-12828936D02*
X12051134Y-12838460D01*
X12051134Y-12838460D02*
X12032086Y-12847984D01*
X12032086Y-12847984D02*
X12013039Y-12847984D01*
X12013039Y-12847984D02*
X11993991Y-12838460D01*
X11993991Y-12838460D02*
X11984467Y-12828936D01*
X11984467Y-12828936D02*
X11974943Y-12809888D01*
X11974943Y-12809888D02*
X11965420Y-12771793D01*
X11965420Y-12771793D02*
X11965420Y-12724174D01*
X11965420Y-12724174D02*
X11974943Y-12686079D01*
X11974943Y-12686079D02*
X11984467Y-12667031D01*
X11984467Y-12667031D02*
X11993991Y-12657508D01*
X11993991Y-12657508D02*
X12013039Y-12647984D01*
X12165420Y-12847984D02*
X12165420Y-12714650D01*
X12165420Y-12733698D02*
X12174943Y-12724174D01*
X12174943Y-12724174D02*
X12193991Y-12714650D01*
X12193991Y-12714650D02*
X12222563Y-12714650D01*
X12222563Y-12714650D02*
X12241610Y-12724174D01*
X12241610Y-12724174D02*
X12251134Y-12743222D01*
X12251134Y-12743222D02*
X12251134Y-12847984D01*
X12251134Y-12743222D02*
X12260658Y-12724174D01*
X12260658Y-12724174D02*
X12279705Y-12714650D01*
X12279705Y-12714650D02*
X12308277Y-12714650D01*
X12308277Y-12714650D02*
X12327324Y-12724174D01*
X12327324Y-12724174D02*
X12336848Y-12743222D01*
X12336848Y-12743222D02*
X12336848Y-12847984D01*
X12432086Y-12847984D02*
X12432086Y-12714650D01*
X12432086Y-12733698D02*
X12441610Y-12724174D01*
X12441610Y-12724174D02*
X12460658Y-12714650D01*
X12460658Y-12714650D02*
X12489229Y-12714650D01*
X12489229Y-12714650D02*
X12508277Y-12724174D01*
X12508277Y-12724174D02*
X12517801Y-12743222D01*
X12517801Y-12743222D02*
X12517801Y-12847984D01*
X12517801Y-12743222D02*
X12527324Y-12724174D01*
X12527324Y-12724174D02*
X12546372Y-12714650D01*
X12546372Y-12714650D02*
X12574943Y-12714650D01*
X12574943Y-12714650D02*
X12593991Y-12724174D01*
X12593991Y-12724174D02*
X12603515Y-12743222D01*
X12603515Y-12743222D02*
X12603515Y-12847984D01*
X12993991Y-12638460D02*
X12822563Y-12895603D01*
X13251134Y-12647984D02*
X13270182Y-12647984D01*
X13270182Y-12647984D02*
X13289229Y-12657508D01*
X13289229Y-12657508D02*
X13298753Y-12667031D01*
X13298753Y-12667031D02*
X13308277Y-12686079D01*
X13308277Y-12686079D02*
X13317801Y-12724174D01*
X13317801Y-12724174D02*
X13317801Y-12771793D01*
X13317801Y-12771793D02*
X13308277Y-12809888D01*
X13308277Y-12809888D02*
X13298753Y-12828936D01*
X13298753Y-12828936D02*
X13289229Y-12838460D01*
X13289229Y-12838460D02*
X13270182Y-12847984D01*
X13270182Y-12847984D02*
X13251134Y-12847984D01*
X13251134Y-12847984D02*
X13232086Y-12838460D01*
X13232086Y-12838460D02*
X13222563Y-12828936D01*
X13222563Y-12828936D02*
X13213039Y-12809888D01*
X13213039Y-12809888D02*
X13203515Y-12771793D01*
X13203515Y-12771793D02*
X13203515Y-12724174D01*
X13203515Y-12724174D02*
X13213039Y-12686079D01*
X13213039Y-12686079D02*
X13222563Y-12667031D01*
X13222563Y-12667031D02*
X13232086Y-12657508D01*
X13232086Y-12657508D02*
X13251134Y-12647984D01*
X13403515Y-12828936D02*
X13413039Y-12838460D01*
X13413039Y-12838460D02*
X13403515Y-12847984D01*
X13403515Y-12847984D02*
X13393991Y-12838460D01*
X13393991Y-12838460D02*
X13403515Y-12828936D01*
X13403515Y-12828936D02*
X13403515Y-12847984D01*
X13536848Y-12647984D02*
X13555896Y-12647984D01*
X13555896Y-12647984D02*
X13574944Y-12657508D01*
X13574944Y-12657508D02*
X13584467Y-12667031D01*
X13584467Y-12667031D02*
X13593991Y-12686079D01*
X13593991Y-12686079D02*
X13603515Y-12724174D01*
X13603515Y-12724174D02*
X13603515Y-12771793D01*
X13603515Y-12771793D02*
X13593991Y-12809888D01*
X13593991Y-12809888D02*
X13584467Y-12828936D01*
X13584467Y-12828936D02*
X13574944Y-12838460D01*
X13574944Y-12838460D02*
X13555896Y-12847984D01*
X13555896Y-12847984D02*
X13536848Y-12847984D01*
X13536848Y-12847984D02*
X13517801Y-12838460D01*
X13517801Y-12838460D02*
X13508277Y-12828936D01*
X13508277Y-12828936D02*
X13498753Y-12809888D01*
X13498753Y-12809888D02*
X13489229Y-12771793D01*
X13489229Y-12771793D02*
X13489229Y-12724174D01*
X13489229Y-12724174D02*
X13498753Y-12686079D01*
X13498753Y-12686079D02*
X13508277Y-12667031D01*
X13508277Y-12667031D02*
X13517801Y-12657508D01*
X13517801Y-12657508D02*
X13536848Y-12647984D01*
X13670182Y-12647984D02*
X13793991Y-12647984D01*
X13793991Y-12647984D02*
X13727325Y-12724174D01*
X13727325Y-12724174D02*
X13755896Y-12724174D01*
X13755896Y-12724174D02*
X13774944Y-12733698D01*
X13774944Y-12733698D02*
X13784467Y-12743222D01*
X13784467Y-12743222D02*
X13793991Y-12762269D01*
X13793991Y-12762269D02*
X13793991Y-12809888D01*
X13793991Y-12809888D02*
X13784467Y-12828936D01*
X13784467Y-12828936D02*
X13774944Y-12838460D01*
X13774944Y-12838460D02*
X13755896Y-12847984D01*
X13755896Y-12847984D02*
X13698753Y-12847984D01*
X13698753Y-12847984D02*
X13679706Y-12838460D01*
X13679706Y-12838460D02*
X13670182Y-12828936D01*
X13974944Y-12647984D02*
X13879706Y-12647984D01*
X13879706Y-12647984D02*
X13870182Y-12743222D01*
X13870182Y-12743222D02*
X13879706Y-12733698D01*
X13879706Y-12733698D02*
X13898753Y-12724174D01*
X13898753Y-12724174D02*
X13946372Y-12724174D01*
X13946372Y-12724174D02*
X13965420Y-12733698D01*
X13965420Y-12733698D02*
X13974944Y-12743222D01*
X13974944Y-12743222D02*
X13984467Y-12762269D01*
X13984467Y-12762269D02*
X13984467Y-12809888D01*
X13984467Y-12809888D02*
X13974944Y-12828936D01*
X13974944Y-12828936D02*
X13965420Y-12838460D01*
X13965420Y-12838460D02*
X13946372Y-12847984D01*
X13946372Y-12847984D02*
X13898753Y-12847984D01*
X13898753Y-12847984D02*
X13879706Y-12838460D01*
X13879706Y-12838460D02*
X13870182Y-12828936D01*
X14155896Y-12714650D02*
X14155896Y-12847984D01*
X14108277Y-12638460D02*
X14060658Y-12781317D01*
X14060658Y-12781317D02*
X14184467Y-12781317D01*
X14251134Y-12647984D02*
X14251134Y-12686079D01*
X14327325Y-12647984D02*
X14327325Y-12686079D01*
X14622563Y-12924174D02*
X14613039Y-12914650D01*
X14613039Y-12914650D02*
X14593991Y-12886079D01*
X14593991Y-12886079D02*
X14584468Y-12867031D01*
X14584468Y-12867031D02*
X14574944Y-12838460D01*
X14574944Y-12838460D02*
X14565420Y-12790841D01*
X14565420Y-12790841D02*
X14565420Y-12752746D01*
X14565420Y-12752746D02*
X14574944Y-12705127D01*
X14574944Y-12705127D02*
X14584468Y-12676555D01*
X14584468Y-12676555D02*
X14593991Y-12657508D01*
X14593991Y-12657508D02*
X14613039Y-12628936D01*
X14613039Y-12628936D02*
X14622563Y-12619412D01*
X14689229Y-12667031D02*
X14698753Y-12657508D01*
X14698753Y-12657508D02*
X14717801Y-12647984D01*
X14717801Y-12647984D02*
X14765420Y-12647984D01*
X14765420Y-12647984D02*
X14784468Y-12657508D01*
X14784468Y-12657508D02*
X14793991Y-12667031D01*
X14793991Y-12667031D02*
X14803515Y-12686079D01*
X14803515Y-12686079D02*
X14803515Y-12705127D01*
X14803515Y-12705127D02*
X14793991Y-12733698D01*
X14793991Y-12733698D02*
X14679706Y-12847984D01*
X14679706Y-12847984D02*
X14803515Y-12847984D01*
X15041610Y-12847984D02*
X15041610Y-12647984D01*
X15127325Y-12847984D02*
X15127325Y-12743222D01*
X15127325Y-12743222D02*
X15117801Y-12724174D01*
X15117801Y-12724174D02*
X15098753Y-12714650D01*
X15098753Y-12714650D02*
X15070182Y-12714650D01*
X15070182Y-12714650D02*
X15051134Y-12724174D01*
X15051134Y-12724174D02*
X15041610Y-12733698D01*
X15251134Y-12847984D02*
X15232087Y-12838460D01*
X15232087Y-12838460D02*
X15222563Y-12828936D01*
X15222563Y-12828936D02*
X15213039Y-12809888D01*
X15213039Y-12809888D02*
X15213039Y-12752746D01*
X15213039Y-12752746D02*
X15222563Y-12733698D01*
X15222563Y-12733698D02*
X15232087Y-12724174D01*
X15232087Y-12724174D02*
X15251134Y-12714650D01*
X15251134Y-12714650D02*
X15279706Y-12714650D01*
X15279706Y-12714650D02*
X15298753Y-12724174D01*
X15298753Y-12724174D02*
X15308277Y-12733698D01*
X15308277Y-12733698D02*
X15317801Y-12752746D01*
X15317801Y-12752746D02*
X15317801Y-12809888D01*
X15317801Y-12809888D02*
X15308277Y-12828936D01*
X15308277Y-12828936D02*
X15298753Y-12838460D01*
X15298753Y-12838460D02*
X15279706Y-12847984D01*
X15279706Y-12847984D02*
X15251134Y-12847984D01*
X15432087Y-12847984D02*
X15413039Y-12838460D01*
X15413039Y-12838460D02*
X15403515Y-12819412D01*
X15403515Y-12819412D02*
X15403515Y-12647984D01*
X15584468Y-12838460D02*
X15565420Y-12847984D01*
X15565420Y-12847984D02*
X15527325Y-12847984D01*
X15527325Y-12847984D02*
X15508277Y-12838460D01*
X15508277Y-12838460D02*
X15498753Y-12819412D01*
X15498753Y-12819412D02*
X15498753Y-12743222D01*
X15498753Y-12743222D02*
X15508277Y-12724174D01*
X15508277Y-12724174D02*
X15527325Y-12714650D01*
X15527325Y-12714650D02*
X15565420Y-12714650D01*
X15565420Y-12714650D02*
X15584468Y-12724174D01*
X15584468Y-12724174D02*
X15593991Y-12743222D01*
X15593991Y-12743222D02*
X15593991Y-12762269D01*
X15593991Y-12762269D02*
X15498753Y-12781317D01*
X15670182Y-12838460D02*
X15689230Y-12847984D01*
X15689230Y-12847984D02*
X15727325Y-12847984D01*
X15727325Y-12847984D02*
X15746372Y-12838460D01*
X15746372Y-12838460D02*
X15755896Y-12819412D01*
X15755896Y-12819412D02*
X15755896Y-12809888D01*
X15755896Y-12809888D02*
X15746372Y-12790841D01*
X15746372Y-12790841D02*
X15727325Y-12781317D01*
X15727325Y-12781317D02*
X15698753Y-12781317D01*
X15698753Y-12781317D02*
X15679706Y-12771793D01*
X15679706Y-12771793D02*
X15670182Y-12752746D01*
X15670182Y-12752746D02*
X15670182Y-12743222D01*
X15670182Y-12743222D02*
X15679706Y-12724174D01*
X15679706Y-12724174D02*
X15698753Y-12714650D01*
X15698753Y-12714650D02*
X15727325Y-12714650D01*
X15727325Y-12714650D02*
X15746372Y-12724174D01*
X15822563Y-12924174D02*
X15832087Y-12914650D01*
X15832087Y-12914650D02*
X15851134Y-12886079D01*
X15851134Y-12886079D02*
X15860658Y-12867031D01*
X15860658Y-12867031D02*
X15870182Y-12838460D01*
X15870182Y-12838460D02*
X15879706Y-12790841D01*
X15879706Y-12790841D02*
X15879706Y-12752746D01*
X15879706Y-12752746D02*
X15870182Y-12705127D01*
X15870182Y-12705127D02*
X15860658Y-12676555D01*
X15860658Y-12676555D02*
X15851134Y-12657508D01*
X15851134Y-12657508D02*
X15832087Y-12628936D01*
X15832087Y-12628936D02*
X15822563Y-12619412D01*
D13*
X10992500Y-12965500D02*
X10992500Y-13075500D01*
X10937500Y-13020500D02*
X11047500Y-13020500D01*
D11*
X11413039Y-13111984D02*
X11298753Y-13111984D01*
X11355896Y-13111984D02*
X11355896Y-12911984D01*
X11355896Y-12911984D02*
X11336848Y-12940555D01*
X11336848Y-12940555D02*
X11317801Y-12959603D01*
X11317801Y-12959603D02*
X11298753Y-12969127D01*
X11498753Y-13092936D02*
X11508277Y-13102460D01*
X11508277Y-13102460D02*
X11498753Y-13111984D01*
X11498753Y-13111984D02*
X11489229Y-13102460D01*
X11489229Y-13102460D02*
X11498753Y-13092936D01*
X11498753Y-13092936D02*
X11498753Y-13111984D01*
X11698753Y-13111984D02*
X11584467Y-13111984D01*
X11641610Y-13111984D02*
X11641610Y-12911984D01*
X11641610Y-12911984D02*
X11622562Y-12940555D01*
X11622562Y-12940555D02*
X11603515Y-12959603D01*
X11603515Y-12959603D02*
X11584467Y-12969127D01*
X11822562Y-12911984D02*
X11841610Y-12911984D01*
X11841610Y-12911984D02*
X11860658Y-12921508D01*
X11860658Y-12921508D02*
X11870182Y-12931031D01*
X11870182Y-12931031D02*
X11879705Y-12950079D01*
X11879705Y-12950079D02*
X11889229Y-12988174D01*
X11889229Y-12988174D02*
X11889229Y-13035793D01*
X11889229Y-13035793D02*
X11879705Y-13073888D01*
X11879705Y-13073888D02*
X11870182Y-13092936D01*
X11870182Y-13092936D02*
X11860658Y-13102460D01*
X11860658Y-13102460D02*
X11841610Y-13111984D01*
X11841610Y-13111984D02*
X11822562Y-13111984D01*
X11822562Y-13111984D02*
X11803515Y-13102460D01*
X11803515Y-13102460D02*
X11793991Y-13092936D01*
X11793991Y-13092936D02*
X11784467Y-13073888D01*
X11784467Y-13073888D02*
X11774943Y-13035793D01*
X11774943Y-13035793D02*
X11774943Y-12988174D01*
X11774943Y-12988174D02*
X11784467Y-12950079D01*
X11784467Y-12950079D02*
X11793991Y-12931031D01*
X11793991Y-12931031D02*
X11803515Y-12921508D01*
X11803515Y-12921508D02*
X11822562Y-12911984D01*
X12013039Y-12911984D02*
X12032086Y-12911984D01*
X12032086Y-12911984D02*
X12051134Y-12921508D01*
X12051134Y-12921508D02*
X12060658Y-12931031D01*
X12060658Y-12931031D02*
X12070182Y-12950079D01*
X12070182Y-12950079D02*
X12079705Y-12988174D01*
X12079705Y-12988174D02*
X12079705Y-13035793D01*
X12079705Y-13035793D02*
X12070182Y-13073888D01*
X12070182Y-13073888D02*
X12060658Y-13092936D01*
X12060658Y-13092936D02*
X12051134Y-13102460D01*
X12051134Y-13102460D02*
X12032086Y-13111984D01*
X12032086Y-13111984D02*
X12013039Y-13111984D01*
X12013039Y-13111984D02*
X11993991Y-13102460D01*
X11993991Y-13102460D02*
X11984467Y-13092936D01*
X11984467Y-13092936D02*
X11974943Y-13073888D01*
X11974943Y-13073888D02*
X11965420Y-13035793D01*
X11965420Y-13035793D02*
X11965420Y-12988174D01*
X11965420Y-12988174D02*
X11974943Y-12950079D01*
X11974943Y-12950079D02*
X11984467Y-12931031D01*
X11984467Y-12931031D02*
X11993991Y-12921508D01*
X11993991Y-12921508D02*
X12013039Y-12911984D01*
X12165420Y-13111984D02*
X12165420Y-12978650D01*
X12165420Y-12997698D02*
X12174943Y-12988174D01*
X12174943Y-12988174D02*
X12193991Y-12978650D01*
X12193991Y-12978650D02*
X12222563Y-12978650D01*
X12222563Y-12978650D02*
X12241610Y-12988174D01*
X12241610Y-12988174D02*
X12251134Y-13007222D01*
X12251134Y-13007222D02*
X12251134Y-13111984D01*
X12251134Y-13007222D02*
X12260658Y-12988174D01*
X12260658Y-12988174D02*
X12279705Y-12978650D01*
X12279705Y-12978650D02*
X12308277Y-12978650D01*
X12308277Y-12978650D02*
X12327324Y-12988174D01*
X12327324Y-12988174D02*
X12336848Y-13007222D01*
X12336848Y-13007222D02*
X12336848Y-13111984D01*
X12432086Y-13111984D02*
X12432086Y-12978650D01*
X12432086Y-12997698D02*
X12441610Y-12988174D01*
X12441610Y-12988174D02*
X12460658Y-12978650D01*
X12460658Y-12978650D02*
X12489229Y-12978650D01*
X12489229Y-12978650D02*
X12508277Y-12988174D01*
X12508277Y-12988174D02*
X12517801Y-13007222D01*
X12517801Y-13007222D02*
X12517801Y-13111984D01*
X12517801Y-13007222D02*
X12527324Y-12988174D01*
X12527324Y-12988174D02*
X12546372Y-12978650D01*
X12546372Y-12978650D02*
X12574943Y-12978650D01*
X12574943Y-12978650D02*
X12593991Y-12988174D01*
X12593991Y-12988174D02*
X12603515Y-13007222D01*
X12603515Y-13007222D02*
X12603515Y-13111984D01*
X12993991Y-12902460D02*
X12822563Y-13159603D01*
X13251134Y-12911984D02*
X13270182Y-12911984D01*
X13270182Y-12911984D02*
X13289229Y-12921508D01*
X13289229Y-12921508D02*
X13298753Y-12931031D01*
X13298753Y-12931031D02*
X13308277Y-12950079D01*
X13308277Y-12950079D02*
X13317801Y-12988174D01*
X13317801Y-12988174D02*
X13317801Y-13035793D01*
X13317801Y-13035793D02*
X13308277Y-13073888D01*
X13308277Y-13073888D02*
X13298753Y-13092936D01*
X13298753Y-13092936D02*
X13289229Y-13102460D01*
X13289229Y-13102460D02*
X13270182Y-13111984D01*
X13270182Y-13111984D02*
X13251134Y-13111984D01*
X13251134Y-13111984D02*
X13232086Y-13102460D01*
X13232086Y-13102460D02*
X13222563Y-13092936D01*
X13222563Y-13092936D02*
X13213039Y-13073888D01*
X13213039Y-13073888D02*
X13203515Y-13035793D01*
X13203515Y-13035793D02*
X13203515Y-12988174D01*
X13203515Y-12988174D02*
X13213039Y-12950079D01*
X13213039Y-12950079D02*
X13222563Y-12931031D01*
X13222563Y-12931031D02*
X13232086Y-12921508D01*
X13232086Y-12921508D02*
X13251134Y-12911984D01*
X13403515Y-13092936D02*
X13413039Y-13102460D01*
X13413039Y-13102460D02*
X13403515Y-13111984D01*
X13403515Y-13111984D02*
X13393991Y-13102460D01*
X13393991Y-13102460D02*
X13403515Y-13092936D01*
X13403515Y-13092936D02*
X13403515Y-13111984D01*
X13536848Y-12911984D02*
X13555896Y-12911984D01*
X13555896Y-12911984D02*
X13574944Y-12921508D01*
X13574944Y-12921508D02*
X13584467Y-12931031D01*
X13584467Y-12931031D02*
X13593991Y-12950079D01*
X13593991Y-12950079D02*
X13603515Y-12988174D01*
X13603515Y-12988174D02*
X13603515Y-13035793D01*
X13603515Y-13035793D02*
X13593991Y-13073888D01*
X13593991Y-13073888D02*
X13584467Y-13092936D01*
X13584467Y-13092936D02*
X13574944Y-13102460D01*
X13574944Y-13102460D02*
X13555896Y-13111984D01*
X13555896Y-13111984D02*
X13536848Y-13111984D01*
X13536848Y-13111984D02*
X13517801Y-13102460D01*
X13517801Y-13102460D02*
X13508277Y-13092936D01*
X13508277Y-13092936D02*
X13498753Y-13073888D01*
X13498753Y-13073888D02*
X13489229Y-13035793D01*
X13489229Y-13035793D02*
X13489229Y-12988174D01*
X13489229Y-12988174D02*
X13498753Y-12950079D01*
X13498753Y-12950079D02*
X13508277Y-12931031D01*
X13508277Y-12931031D02*
X13517801Y-12921508D01*
X13517801Y-12921508D02*
X13536848Y-12911984D01*
X13774944Y-12978650D02*
X13774944Y-13111984D01*
X13727325Y-12902460D02*
X13679706Y-13045317D01*
X13679706Y-13045317D02*
X13803515Y-13045317D01*
X13860658Y-12911984D02*
X13984467Y-12911984D01*
X13984467Y-12911984D02*
X13917801Y-12988174D01*
X13917801Y-12988174D02*
X13946372Y-12988174D01*
X13946372Y-12988174D02*
X13965420Y-12997698D01*
X13965420Y-12997698D02*
X13974944Y-13007222D01*
X13974944Y-13007222D02*
X13984467Y-13026269D01*
X13984467Y-13026269D02*
X13984467Y-13073888D01*
X13984467Y-13073888D02*
X13974944Y-13092936D01*
X13974944Y-13092936D02*
X13965420Y-13102460D01*
X13965420Y-13102460D02*
X13946372Y-13111984D01*
X13946372Y-13111984D02*
X13889229Y-13111984D01*
X13889229Y-13111984D02*
X13870182Y-13102460D01*
X13870182Y-13102460D02*
X13860658Y-13092936D01*
X14051134Y-12911984D02*
X14174944Y-12911984D01*
X14174944Y-12911984D02*
X14108277Y-12988174D01*
X14108277Y-12988174D02*
X14136848Y-12988174D01*
X14136848Y-12988174D02*
X14155896Y-12997698D01*
X14155896Y-12997698D02*
X14165420Y-13007222D01*
X14165420Y-13007222D02*
X14174944Y-13026269D01*
X14174944Y-13026269D02*
X14174944Y-13073888D01*
X14174944Y-13073888D02*
X14165420Y-13092936D01*
X14165420Y-13092936D02*
X14155896Y-13102460D01*
X14155896Y-13102460D02*
X14136848Y-13111984D01*
X14136848Y-13111984D02*
X14079706Y-13111984D01*
X14079706Y-13111984D02*
X14060658Y-13102460D01*
X14060658Y-13102460D02*
X14051134Y-13092936D01*
X14251134Y-12911984D02*
X14251134Y-12950079D01*
X14327325Y-12911984D02*
X14327325Y-12950079D01*
X14622563Y-13188174D02*
X14613039Y-13178650D01*
X14613039Y-13178650D02*
X14593991Y-13150079D01*
X14593991Y-13150079D02*
X14584468Y-13131031D01*
X14584468Y-13131031D02*
X14574944Y-13102460D01*
X14574944Y-13102460D02*
X14565420Y-13054841D01*
X14565420Y-13054841D02*
X14565420Y-13016746D01*
X14565420Y-13016746D02*
X14574944Y-12969127D01*
X14574944Y-12969127D02*
X14584468Y-12940555D01*
X14584468Y-12940555D02*
X14593991Y-12921508D01*
X14593991Y-12921508D02*
X14613039Y-12892936D01*
X14613039Y-12892936D02*
X14622563Y-12883412D01*
X14727325Y-12997698D02*
X14708277Y-12988174D01*
X14708277Y-12988174D02*
X14698753Y-12978650D01*
X14698753Y-12978650D02*
X14689229Y-12959603D01*
X14689229Y-12959603D02*
X14689229Y-12950079D01*
X14689229Y-12950079D02*
X14698753Y-12931031D01*
X14698753Y-12931031D02*
X14708277Y-12921508D01*
X14708277Y-12921508D02*
X14727325Y-12911984D01*
X14727325Y-12911984D02*
X14765420Y-12911984D01*
X14765420Y-12911984D02*
X14784468Y-12921508D01*
X14784468Y-12921508D02*
X14793991Y-12931031D01*
X14793991Y-12931031D02*
X14803515Y-12950079D01*
X14803515Y-12950079D02*
X14803515Y-12959603D01*
X14803515Y-12959603D02*
X14793991Y-12978650D01*
X14793991Y-12978650D02*
X14784468Y-12988174D01*
X14784468Y-12988174D02*
X14765420Y-12997698D01*
X14765420Y-12997698D02*
X14727325Y-12997698D01*
X14727325Y-12997698D02*
X14708277Y-13007222D01*
X14708277Y-13007222D02*
X14698753Y-13016746D01*
X14698753Y-13016746D02*
X14689229Y-13035793D01*
X14689229Y-13035793D02*
X14689229Y-13073888D01*
X14689229Y-13073888D02*
X14698753Y-13092936D01*
X14698753Y-13092936D02*
X14708277Y-13102460D01*
X14708277Y-13102460D02*
X14727325Y-13111984D01*
X14727325Y-13111984D02*
X14765420Y-13111984D01*
X14765420Y-13111984D02*
X14784468Y-13102460D01*
X14784468Y-13102460D02*
X14793991Y-13092936D01*
X14793991Y-13092936D02*
X14803515Y-13073888D01*
X14803515Y-13073888D02*
X14803515Y-13035793D01*
X14803515Y-13035793D02*
X14793991Y-13016746D01*
X14793991Y-13016746D02*
X14784468Y-13007222D01*
X14784468Y-13007222D02*
X14765420Y-12997698D01*
X15041610Y-13111984D02*
X15041610Y-12911984D01*
X15127325Y-13111984D02*
X15127325Y-13007222D01*
X15127325Y-13007222D02*
X15117801Y-12988174D01*
X15117801Y-12988174D02*
X15098753Y-12978650D01*
X15098753Y-12978650D02*
X15070182Y-12978650D01*
X15070182Y-12978650D02*
X15051134Y-12988174D01*
X15051134Y-12988174D02*
X15041610Y-12997698D01*
X15251134Y-13111984D02*
X15232087Y-13102460D01*
X15232087Y-13102460D02*
X15222563Y-13092936D01*
X15222563Y-13092936D02*
X15213039Y-13073888D01*
X15213039Y-13073888D02*
X15213039Y-13016746D01*
X15213039Y-13016746D02*
X15222563Y-12997698D01*
X15222563Y-12997698D02*
X15232087Y-12988174D01*
X15232087Y-12988174D02*
X15251134Y-12978650D01*
X15251134Y-12978650D02*
X15279706Y-12978650D01*
X15279706Y-12978650D02*
X15298753Y-12988174D01*
X15298753Y-12988174D02*
X15308277Y-12997698D01*
X15308277Y-12997698D02*
X15317801Y-13016746D01*
X15317801Y-13016746D02*
X15317801Y-13073888D01*
X15317801Y-13073888D02*
X15308277Y-13092936D01*
X15308277Y-13092936D02*
X15298753Y-13102460D01*
X15298753Y-13102460D02*
X15279706Y-13111984D01*
X15279706Y-13111984D02*
X15251134Y-13111984D01*
X15432087Y-13111984D02*
X15413039Y-13102460D01*
X15413039Y-13102460D02*
X15403515Y-13083412D01*
X15403515Y-13083412D02*
X15403515Y-12911984D01*
X15584468Y-13102460D02*
X15565420Y-13111984D01*
X15565420Y-13111984D02*
X15527325Y-13111984D01*
X15527325Y-13111984D02*
X15508277Y-13102460D01*
X15508277Y-13102460D02*
X15498753Y-13083412D01*
X15498753Y-13083412D02*
X15498753Y-13007222D01*
X15498753Y-13007222D02*
X15508277Y-12988174D01*
X15508277Y-12988174D02*
X15527325Y-12978650D01*
X15527325Y-12978650D02*
X15565420Y-12978650D01*
X15565420Y-12978650D02*
X15584468Y-12988174D01*
X15584468Y-12988174D02*
X15593991Y-13007222D01*
X15593991Y-13007222D02*
X15593991Y-13026269D01*
X15593991Y-13026269D02*
X15498753Y-13045317D01*
X15670182Y-13102460D02*
X15689230Y-13111984D01*
X15689230Y-13111984D02*
X15727325Y-13111984D01*
X15727325Y-13111984D02*
X15746372Y-13102460D01*
X15746372Y-13102460D02*
X15755896Y-13083412D01*
X15755896Y-13083412D02*
X15755896Y-13073888D01*
X15755896Y-13073888D02*
X15746372Y-13054841D01*
X15746372Y-13054841D02*
X15727325Y-13045317D01*
X15727325Y-13045317D02*
X15698753Y-13045317D01*
X15698753Y-13045317D02*
X15679706Y-13035793D01*
X15679706Y-13035793D02*
X15670182Y-13016746D01*
X15670182Y-13016746D02*
X15670182Y-13007222D01*
X15670182Y-13007222D02*
X15679706Y-12988174D01*
X15679706Y-12988174D02*
X15698753Y-12978650D01*
X15698753Y-12978650D02*
X15727325Y-12978650D01*
X15727325Y-12978650D02*
X15746372Y-12988174D01*
X15822563Y-13188174D02*
X15832087Y-13178650D01*
X15832087Y-13178650D02*
X15851134Y-13150079D01*
X15851134Y-13150079D02*
X15860658Y-13131031D01*
X15860658Y-13131031D02*
X15870182Y-13102460D01*
X15870182Y-13102460D02*
X15879706Y-13054841D01*
X15879706Y-13054841D02*
X15879706Y-13016746D01*
X15879706Y-13016746D02*
X15870182Y-12969127D01*
X15870182Y-12969127D02*
X15860658Y-12940555D01*
X15860658Y-12940555D02*
X15851134Y-12921508D01*
X15851134Y-12921508D02*
X15832087Y-12892936D01*
X15832087Y-12892936D02*
X15822563Y-12883412D01*
D14*
X11025241Y-13338241D02*
X11025241Y-13230759D01*
X10917759Y-13230759D01*
X10917759Y-13338241D01*
X11025241Y-13338241D01*
D11*
X11413039Y-13375984D02*
X11298753Y-13375984D01*
X11355896Y-13375984D02*
X11355896Y-13175984D01*
X11355896Y-13175984D02*
X11336848Y-13204555D01*
X11336848Y-13204555D02*
X11317801Y-13223603D01*
X11317801Y-13223603D02*
X11298753Y-13233127D01*
X11498753Y-13356936D02*
X11508277Y-13366460D01*
X11508277Y-13366460D02*
X11498753Y-13375984D01*
X11498753Y-13375984D02*
X11489229Y-13366460D01*
X11489229Y-13366460D02*
X11498753Y-13356936D01*
X11498753Y-13356936D02*
X11498753Y-13375984D01*
X11689229Y-13175984D02*
X11593991Y-13175984D01*
X11593991Y-13175984D02*
X11584467Y-13271222D01*
X11584467Y-13271222D02*
X11593991Y-13261698D01*
X11593991Y-13261698D02*
X11613039Y-13252174D01*
X11613039Y-13252174D02*
X11660658Y-13252174D01*
X11660658Y-13252174D02*
X11679705Y-13261698D01*
X11679705Y-13261698D02*
X11689229Y-13271222D01*
X11689229Y-13271222D02*
X11698753Y-13290269D01*
X11698753Y-13290269D02*
X11698753Y-13337888D01*
X11698753Y-13337888D02*
X11689229Y-13356936D01*
X11689229Y-13356936D02*
X11679705Y-13366460D01*
X11679705Y-13366460D02*
X11660658Y-13375984D01*
X11660658Y-13375984D02*
X11613039Y-13375984D01*
X11613039Y-13375984D02*
X11593991Y-13366460D01*
X11593991Y-13366460D02*
X11584467Y-13356936D01*
X11774943Y-13195031D02*
X11784467Y-13185508D01*
X11784467Y-13185508D02*
X11803515Y-13175984D01*
X11803515Y-13175984D02*
X11851134Y-13175984D01*
X11851134Y-13175984D02*
X11870182Y-13185508D01*
X11870182Y-13185508D02*
X11879705Y-13195031D01*
X11879705Y-13195031D02*
X11889229Y-13214079D01*
X11889229Y-13214079D02*
X11889229Y-13233127D01*
X11889229Y-13233127D02*
X11879705Y-13261698D01*
X11879705Y-13261698D02*
X11765420Y-13375984D01*
X11765420Y-13375984D02*
X11889229Y-13375984D01*
X12013039Y-13175984D02*
X12032086Y-13175984D01*
X12032086Y-13175984D02*
X12051134Y-13185508D01*
X12051134Y-13185508D02*
X12060658Y-13195031D01*
X12060658Y-13195031D02*
X12070182Y-13214079D01*
X12070182Y-13214079D02*
X12079705Y-13252174D01*
X12079705Y-13252174D02*
X12079705Y-13299793D01*
X12079705Y-13299793D02*
X12070182Y-13337888D01*
X12070182Y-13337888D02*
X12060658Y-13356936D01*
X12060658Y-13356936D02*
X12051134Y-13366460D01*
X12051134Y-13366460D02*
X12032086Y-13375984D01*
X12032086Y-13375984D02*
X12013039Y-13375984D01*
X12013039Y-13375984D02*
X11993991Y-13366460D01*
X11993991Y-13366460D02*
X11984467Y-13356936D01*
X11984467Y-13356936D02*
X11974943Y-13337888D01*
X11974943Y-13337888D02*
X11965420Y-13299793D01*
X11965420Y-13299793D02*
X11965420Y-13252174D01*
X11965420Y-13252174D02*
X11974943Y-13214079D01*
X11974943Y-13214079D02*
X11984467Y-13195031D01*
X11984467Y-13195031D02*
X11993991Y-13185508D01*
X11993991Y-13185508D02*
X12013039Y-13175984D01*
X12165420Y-13375984D02*
X12165420Y-13242650D01*
X12165420Y-13261698D02*
X12174943Y-13252174D01*
X12174943Y-13252174D02*
X12193991Y-13242650D01*
X12193991Y-13242650D02*
X12222563Y-13242650D01*
X12222563Y-13242650D02*
X12241610Y-13252174D01*
X12241610Y-13252174D02*
X12251134Y-13271222D01*
X12251134Y-13271222D02*
X12251134Y-13375984D01*
X12251134Y-13271222D02*
X12260658Y-13252174D01*
X12260658Y-13252174D02*
X12279705Y-13242650D01*
X12279705Y-13242650D02*
X12308277Y-13242650D01*
X12308277Y-13242650D02*
X12327324Y-13252174D01*
X12327324Y-13252174D02*
X12336848Y-13271222D01*
X12336848Y-13271222D02*
X12336848Y-13375984D01*
X12432086Y-13375984D02*
X12432086Y-13242650D01*
X12432086Y-13261698D02*
X12441610Y-13252174D01*
X12441610Y-13252174D02*
X12460658Y-13242650D01*
X12460658Y-13242650D02*
X12489229Y-13242650D01*
X12489229Y-13242650D02*
X12508277Y-13252174D01*
X12508277Y-13252174D02*
X12517801Y-13271222D01*
X12517801Y-13271222D02*
X12517801Y-13375984D01*
X12517801Y-13271222D02*
X12527324Y-13252174D01*
X12527324Y-13252174D02*
X12546372Y-13242650D01*
X12546372Y-13242650D02*
X12574943Y-13242650D01*
X12574943Y-13242650D02*
X12593991Y-13252174D01*
X12593991Y-13252174D02*
X12603515Y-13271222D01*
X12603515Y-13271222D02*
X12603515Y-13375984D01*
X12993991Y-13166460D02*
X12822563Y-13423603D01*
X13251134Y-13175984D02*
X13270182Y-13175984D01*
X13270182Y-13175984D02*
X13289229Y-13185508D01*
X13289229Y-13185508D02*
X13298753Y-13195031D01*
X13298753Y-13195031D02*
X13308277Y-13214079D01*
X13308277Y-13214079D02*
X13317801Y-13252174D01*
X13317801Y-13252174D02*
X13317801Y-13299793D01*
X13317801Y-13299793D02*
X13308277Y-13337888D01*
X13308277Y-13337888D02*
X13298753Y-13356936D01*
X13298753Y-13356936D02*
X13289229Y-13366460D01*
X13289229Y-13366460D02*
X13270182Y-13375984D01*
X13270182Y-13375984D02*
X13251134Y-13375984D01*
X13251134Y-13375984D02*
X13232086Y-13366460D01*
X13232086Y-13366460D02*
X13222563Y-13356936D01*
X13222563Y-13356936D02*
X13213039Y-13337888D01*
X13213039Y-13337888D02*
X13203515Y-13299793D01*
X13203515Y-13299793D02*
X13203515Y-13252174D01*
X13203515Y-13252174D02*
X13213039Y-13214079D01*
X13213039Y-13214079D02*
X13222563Y-13195031D01*
X13222563Y-13195031D02*
X13232086Y-13185508D01*
X13232086Y-13185508D02*
X13251134Y-13175984D01*
X13403515Y-13356936D02*
X13413039Y-13366460D01*
X13413039Y-13366460D02*
X13403515Y-13375984D01*
X13403515Y-13375984D02*
X13393991Y-13366460D01*
X13393991Y-13366460D02*
X13403515Y-13356936D01*
X13403515Y-13356936D02*
X13403515Y-13375984D01*
X13536848Y-13175984D02*
X13555896Y-13175984D01*
X13555896Y-13175984D02*
X13574944Y-13185508D01*
X13574944Y-13185508D02*
X13584467Y-13195031D01*
X13584467Y-13195031D02*
X13593991Y-13214079D01*
X13593991Y-13214079D02*
X13603515Y-13252174D01*
X13603515Y-13252174D02*
X13603515Y-13299793D01*
X13603515Y-13299793D02*
X13593991Y-13337888D01*
X13593991Y-13337888D02*
X13584467Y-13356936D01*
X13584467Y-13356936D02*
X13574944Y-13366460D01*
X13574944Y-13366460D02*
X13555896Y-13375984D01*
X13555896Y-13375984D02*
X13536848Y-13375984D01*
X13536848Y-13375984D02*
X13517801Y-13366460D01*
X13517801Y-13366460D02*
X13508277Y-13356936D01*
X13508277Y-13356936D02*
X13498753Y-13337888D01*
X13498753Y-13337888D02*
X13489229Y-13299793D01*
X13489229Y-13299793D02*
X13489229Y-13252174D01*
X13489229Y-13252174D02*
X13498753Y-13214079D01*
X13498753Y-13214079D02*
X13508277Y-13195031D01*
X13508277Y-13195031D02*
X13517801Y-13185508D01*
X13517801Y-13185508D02*
X13536848Y-13175984D01*
X13784467Y-13175984D02*
X13689229Y-13175984D01*
X13689229Y-13175984D02*
X13679706Y-13271222D01*
X13679706Y-13271222D02*
X13689229Y-13261698D01*
X13689229Y-13261698D02*
X13708277Y-13252174D01*
X13708277Y-13252174D02*
X13755896Y-13252174D01*
X13755896Y-13252174D02*
X13774944Y-13261698D01*
X13774944Y-13261698D02*
X13784467Y-13271222D01*
X13784467Y-13271222D02*
X13793991Y-13290269D01*
X13793991Y-13290269D02*
X13793991Y-13337888D01*
X13793991Y-13337888D02*
X13784467Y-13356936D01*
X13784467Y-13356936D02*
X13774944Y-13366460D01*
X13774944Y-13366460D02*
X13755896Y-13375984D01*
X13755896Y-13375984D02*
X13708277Y-13375984D01*
X13708277Y-13375984D02*
X13689229Y-13366460D01*
X13689229Y-13366460D02*
X13679706Y-13356936D01*
X13889229Y-13375984D02*
X13927325Y-13375984D01*
X13927325Y-13375984D02*
X13946372Y-13366460D01*
X13946372Y-13366460D02*
X13955896Y-13356936D01*
X13955896Y-13356936D02*
X13974944Y-13328365D01*
X13974944Y-13328365D02*
X13984467Y-13290269D01*
X13984467Y-13290269D02*
X13984467Y-13214079D01*
X13984467Y-13214079D02*
X13974944Y-13195031D01*
X13974944Y-13195031D02*
X13965420Y-13185508D01*
X13965420Y-13185508D02*
X13946372Y-13175984D01*
X13946372Y-13175984D02*
X13908277Y-13175984D01*
X13908277Y-13175984D02*
X13889229Y-13185508D01*
X13889229Y-13185508D02*
X13879706Y-13195031D01*
X13879706Y-13195031D02*
X13870182Y-13214079D01*
X13870182Y-13214079D02*
X13870182Y-13261698D01*
X13870182Y-13261698D02*
X13879706Y-13280746D01*
X13879706Y-13280746D02*
X13889229Y-13290269D01*
X13889229Y-13290269D02*
X13908277Y-13299793D01*
X13908277Y-13299793D02*
X13946372Y-13299793D01*
X13946372Y-13299793D02*
X13965420Y-13290269D01*
X13965420Y-13290269D02*
X13974944Y-13280746D01*
X13974944Y-13280746D02*
X13984467Y-13261698D01*
X14098753Y-13261698D02*
X14079706Y-13252174D01*
X14079706Y-13252174D02*
X14070182Y-13242650D01*
X14070182Y-13242650D02*
X14060658Y-13223603D01*
X14060658Y-13223603D02*
X14060658Y-13214079D01*
X14060658Y-13214079D02*
X14070182Y-13195031D01*
X14070182Y-13195031D02*
X14079706Y-13185508D01*
X14079706Y-13185508D02*
X14098753Y-13175984D01*
X14098753Y-13175984D02*
X14136848Y-13175984D01*
X14136848Y-13175984D02*
X14155896Y-13185508D01*
X14155896Y-13185508D02*
X14165420Y-13195031D01*
X14165420Y-13195031D02*
X14174944Y-13214079D01*
X14174944Y-13214079D02*
X14174944Y-13223603D01*
X14174944Y-13223603D02*
X14165420Y-13242650D01*
X14165420Y-13242650D02*
X14155896Y-13252174D01*
X14155896Y-13252174D02*
X14136848Y-13261698D01*
X14136848Y-13261698D02*
X14098753Y-13261698D01*
X14098753Y-13261698D02*
X14079706Y-13271222D01*
X14079706Y-13271222D02*
X14070182Y-13280746D01*
X14070182Y-13280746D02*
X14060658Y-13299793D01*
X14060658Y-13299793D02*
X14060658Y-13337888D01*
X14060658Y-13337888D02*
X14070182Y-13356936D01*
X14070182Y-13356936D02*
X14079706Y-13366460D01*
X14079706Y-13366460D02*
X14098753Y-13375984D01*
X14098753Y-13375984D02*
X14136848Y-13375984D01*
X14136848Y-13375984D02*
X14155896Y-13366460D01*
X14155896Y-13366460D02*
X14165420Y-13356936D01*
X14165420Y-13356936D02*
X14174944Y-13337888D01*
X14174944Y-13337888D02*
X14174944Y-13299793D01*
X14174944Y-13299793D02*
X14165420Y-13280746D01*
X14165420Y-13280746D02*
X14155896Y-13271222D01*
X14155896Y-13271222D02*
X14136848Y-13261698D01*
X14251134Y-13175984D02*
X14251134Y-13214079D01*
X14327325Y-13175984D02*
X14327325Y-13214079D01*
X14622563Y-13452174D02*
X14613039Y-13442650D01*
X14613039Y-13442650D02*
X14593991Y-13414079D01*
X14593991Y-13414079D02*
X14584468Y-13395031D01*
X14584468Y-13395031D02*
X14574944Y-13366460D01*
X14574944Y-13366460D02*
X14565420Y-13318841D01*
X14565420Y-13318841D02*
X14565420Y-13280746D01*
X14565420Y-13280746D02*
X14574944Y-13233127D01*
X14574944Y-13233127D02*
X14584468Y-13204555D01*
X14584468Y-13204555D02*
X14593991Y-13185508D01*
X14593991Y-13185508D02*
X14613039Y-13156936D01*
X14613039Y-13156936D02*
X14622563Y-13147412D01*
X14784468Y-13242650D02*
X14784468Y-13375984D01*
X14736848Y-13166460D02*
X14689229Y-13309317D01*
X14689229Y-13309317D02*
X14813039Y-13309317D01*
X15041610Y-13375984D02*
X15041610Y-13175984D01*
X15127325Y-13375984D02*
X15127325Y-13271222D01*
X15127325Y-13271222D02*
X15117801Y-13252174D01*
X15117801Y-13252174D02*
X15098753Y-13242650D01*
X15098753Y-13242650D02*
X15070182Y-13242650D01*
X15070182Y-13242650D02*
X15051134Y-13252174D01*
X15051134Y-13252174D02*
X15041610Y-13261698D01*
X15251134Y-13375984D02*
X15232087Y-13366460D01*
X15232087Y-13366460D02*
X15222563Y-13356936D01*
X15222563Y-13356936D02*
X15213039Y-13337888D01*
X15213039Y-13337888D02*
X15213039Y-13280746D01*
X15213039Y-13280746D02*
X15222563Y-13261698D01*
X15222563Y-13261698D02*
X15232087Y-13252174D01*
X15232087Y-13252174D02*
X15251134Y-13242650D01*
X15251134Y-13242650D02*
X15279706Y-13242650D01*
X15279706Y-13242650D02*
X15298753Y-13252174D01*
X15298753Y-13252174D02*
X15308277Y-13261698D01*
X15308277Y-13261698D02*
X15317801Y-13280746D01*
X15317801Y-13280746D02*
X15317801Y-13337888D01*
X15317801Y-13337888D02*
X15308277Y-13356936D01*
X15308277Y-13356936D02*
X15298753Y-13366460D01*
X15298753Y-13366460D02*
X15279706Y-13375984D01*
X15279706Y-13375984D02*
X15251134Y-13375984D01*
X15432087Y-13375984D02*
X15413039Y-13366460D01*
X15413039Y-13366460D02*
X15403515Y-13347412D01*
X15403515Y-13347412D02*
X15403515Y-13175984D01*
X15584468Y-13366460D02*
X15565420Y-13375984D01*
X15565420Y-13375984D02*
X15527325Y-13375984D01*
X15527325Y-13375984D02*
X15508277Y-13366460D01*
X15508277Y-13366460D02*
X15498753Y-13347412D01*
X15498753Y-13347412D02*
X15498753Y-13271222D01*
X15498753Y-13271222D02*
X15508277Y-13252174D01*
X15508277Y-13252174D02*
X15527325Y-13242650D01*
X15527325Y-13242650D02*
X15565420Y-13242650D01*
X15565420Y-13242650D02*
X15584468Y-13252174D01*
X15584468Y-13252174D02*
X15593991Y-13271222D01*
X15593991Y-13271222D02*
X15593991Y-13290269D01*
X15593991Y-13290269D02*
X15498753Y-13309317D01*
X15670182Y-13366460D02*
X15689230Y-13375984D01*
X15689230Y-13375984D02*
X15727325Y-13375984D01*
X15727325Y-13375984D02*
X15746372Y-13366460D01*
X15746372Y-13366460D02*
X15755896Y-13347412D01*
X15755896Y-13347412D02*
X15755896Y-13337888D01*
X15755896Y-13337888D02*
X15746372Y-13318841D01*
X15746372Y-13318841D02*
X15727325Y-13309317D01*
X15727325Y-13309317D02*
X15698753Y-13309317D01*
X15698753Y-13309317D02*
X15679706Y-13299793D01*
X15679706Y-13299793D02*
X15670182Y-13280746D01*
X15670182Y-13280746D02*
X15670182Y-13271222D01*
X15670182Y-13271222D02*
X15679706Y-13252174D01*
X15679706Y-13252174D02*
X15698753Y-13242650D01*
X15698753Y-13242650D02*
X15727325Y-13242650D01*
X15727325Y-13242650D02*
X15746372Y-13252174D01*
X15822563Y-13452174D02*
X15832087Y-13442650D01*
X15832087Y-13442650D02*
X15851134Y-13414079D01*
X15851134Y-13414079D02*
X15860658Y-13395031D01*
X15860658Y-13395031D02*
X15870182Y-13366460D01*
X15870182Y-13366460D02*
X15879706Y-13318841D01*
X15879706Y-13318841D02*
X15879706Y-13280746D01*
X15879706Y-13280746D02*
X15870182Y-13233127D01*
X15870182Y-13233127D02*
X15860658Y-13204555D01*
X15860658Y-13204555D02*
X15851134Y-13185508D01*
X15851134Y-13185508D02*
X15832087Y-13156936D01*
X15832087Y-13156936D02*
X15822563Y-13147412D01*
M02*
