M48
; DRILL file {KiCad 9.0.1} date 2025-08-14T10:08:24+0500
; FORMAT={-:-/ absolute / metric / decimal}
; #@! TF.CreationDate,2025-08-14T10:08:24+05:00
; #@! TF.GenerationSoftware,Kicad,Pcbnew,9.0.1
; #@! TF.FileFunction,Plated,1,2,PTH
FMAT,2
METRIC
; #@! TA.AperFunction,Plated,PTH,ComponentDrill
T1C0.800
; #@! TA.AperFunction,Plated,PTH,ComponentDrill
T2C0.900
; #@! TA.AperFunction,Plated,PTH,ComponentDrill
T3C1.100
; #@! TA.AperFunction,Plated,PTH,ComponentDrill
T4C1.520
%
G90
G05
T1
X140.28Y-102.1
X140.6Y-88.69
X140.6Y-96.31
X142.0Y-111.8
X145.5Y-111.8
X147.9Y-102.1
T2
X146.76Y-94.8
X149.3Y-94.8
T3
X126.8Y-88.7
X126.8Y-98.86
X126.8Y-103.6
X126.8Y-113.76
X134.1Y-88.72
X134.1Y-98.88
X134.1Y-103.52
X134.1Y-113.68
T4
X115.6Y-105.66
X115.6Y-110.74
X115.7Y-92.0
X115.7Y-97.08
M30
