G04 #@! TF.GenerationSoftware,KiCad,Pcbnew,9.0.1*
G04 #@! TF.CreationDate,2025-08-14T10:09:53+05:00*
G04 #@! TF.ProjectId,ac_to_dc_converter,61635f74-6f5f-4646-935f-636f6e766572,rev?*
G04 #@! TF.SameCoordinates,Original*
G04 #@! TF.FileFunction,Copper,L2,Bot*
G04 #@! TF.FilePolarity,Positive*
%FSLAX46Y46*%
G04 Gerber Fmt 4.6, Leading zero omitted, Abs format (unit mm)*
G04 Created by KiCad (PCBNEW 9.0.1) date 2025-08-14 10:09:53*
%MOMM*%
%LPD*%
G01*
G04 APERTURE LIST*
G04 #@! TA.AperFunction,ComponentPad*
%ADD10R,2.200000X2.200000*%
G04 #@! TD*
G04 #@! TA.AperFunction,ComponentPad*
%ADD11O,2.200000X2.200000*%
G04 #@! TD*
G04 #@! TA.AperFunction,ComponentPad*
%ADD12C,1.600000*%
G04 #@! TD*
G04 #@! TA.AperFunction,ComponentPad*
%ADD13O,1.600000X1.600000*%
G04 #@! TD*
G04 #@! TA.AperFunction,ComponentPad*
%ADD14R,3.000000X3.000000*%
G04 #@! TD*
G04 #@! TA.AperFunction,ComponentPad*
%ADD15C,3.000000*%
G04 #@! TD*
G04 #@! TA.AperFunction,ComponentPad*
%ADD16R,1.800000X1.800000*%
G04 #@! TD*
G04 #@! TA.AperFunction,ComponentPad*
%ADD17C,1.800000*%
G04 #@! TD*
G04 #@! TA.AperFunction,Conductor*
%ADD18C,1.000000*%
G04 #@! TD*
G04 #@! TA.AperFunction,Conductor*
%ADD19C,0.500000*%
G04 #@! TD*
G04 APERTURE END LIST*
D10*
X134100000Y-103520000D03*
D11*
X134100000Y-113680000D03*
D12*
X140280000Y-102100000D03*
D13*
X147900000Y-102100000D03*
D14*
X115600000Y-110740000D03*
D15*
X115600000Y-105660000D03*
D12*
X140600000Y-88690000D03*
D13*
X140600000Y-96310000D03*
D16*
X146760000Y-94800000D03*
D17*
X149300000Y-94800000D03*
D10*
X126800000Y-88700000D03*
D11*
X126800000Y-98860000D03*
D14*
X115700000Y-97080000D03*
D15*
X115700000Y-92000000D03*
D10*
X134100000Y-88720000D03*
D11*
X134100000Y-98880000D03*
D10*
X126800000Y-103600000D03*
D11*
X126800000Y-113760000D03*
D12*
X142000000Y-111800000D03*
X145500000Y-111800000D03*
D18*
X112300000Y-102360000D02*
X112300000Y-90500000D01*
X115600000Y-105660000D02*
X112300000Y-102360000D01*
X137700000Y-99520000D02*
X140280000Y-102100000D01*
X112300000Y-90500000D02*
X114100000Y-88700000D01*
X140280000Y-102100000D02*
X140280000Y-102280000D01*
X140280000Y-102280000D02*
X142000000Y-104000000D01*
X136300000Y-88720000D02*
X140570000Y-88720000D01*
X134100000Y-88720000D02*
X136300000Y-88720000D01*
X142000000Y-104000000D02*
X142000000Y-111800000D01*
X136300000Y-88720000D02*
X136300000Y-88800000D01*
X137700000Y-90200000D02*
X137700000Y-99520000D01*
X114100000Y-88700000D02*
X126800000Y-88700000D01*
X134080000Y-88700000D02*
X134100000Y-88720000D01*
X140570000Y-88720000D02*
X140600000Y-88690000D01*
X140580000Y-88720000D02*
X140600000Y-88700000D01*
X136300000Y-88800000D02*
X137700000Y-90200000D01*
X126800000Y-88700000D02*
X134080000Y-88700000D01*
X134020000Y-113760000D02*
X134100000Y-113680000D01*
X130600000Y-107500000D02*
X130700000Y-107600000D01*
X115700000Y-97080000D02*
X119480000Y-97080000D01*
X119480000Y-97080000D02*
X121600000Y-99200000D01*
X121600000Y-99200000D02*
X121600000Y-105200000D01*
X130700000Y-107600000D02*
X134100000Y-104200000D01*
X134100000Y-98880000D02*
X134100000Y-103520000D01*
X121600000Y-105200000D02*
X123900000Y-107500000D01*
X123900000Y-107500000D02*
X130600000Y-107500000D01*
X134100000Y-104200000D02*
X134100000Y-103520000D01*
X123700000Y-92000000D02*
X126800000Y-95100000D01*
X126800000Y-95100000D02*
X126800000Y-98860000D01*
X115700000Y-92000000D02*
X123700000Y-92000000D01*
X126800000Y-98860000D02*
X126800000Y-103600000D01*
D19*
X149300000Y-94800000D02*
X149300000Y-100700000D01*
X149300000Y-100700000D02*
X147900000Y-102100000D01*
G04 #@! TA.AperFunction,Conductor*
G36*
X154144625Y-85020185D02*
G01*
X154190380Y-85072989D01*
X154200324Y-85142147D01*
X154175961Y-85199987D01*
X154033075Y-85386196D01*
X153901958Y-85613299D01*
X153901953Y-85613309D01*
X153801605Y-85855571D01*
X153801602Y-85855581D01*
X153733730Y-86108885D01*
X153699500Y-86368872D01*
X153699500Y-86631127D01*
X153720436Y-86790140D01*
X153733730Y-86891116D01*
X153798831Y-87134076D01*
X153801602Y-87144418D01*
X153801605Y-87144428D01*
X153901953Y-87386690D01*
X153901958Y-87386700D01*
X154033075Y-87613803D01*
X154192718Y-87821851D01*
X154192726Y-87821860D01*
X154378140Y-88007274D01*
X154378148Y-88007281D01*
X154586196Y-88166924D01*
X154813299Y-88298041D01*
X154813309Y-88298046D01*
X155024358Y-88385465D01*
X155055581Y-88398398D01*
X155308884Y-88466270D01*
X155568880Y-88500500D01*
X155568887Y-88500500D01*
X155831113Y-88500500D01*
X155831120Y-88500500D01*
X156091116Y-88466270D01*
X156344419Y-88398398D01*
X156586697Y-88298043D01*
X156813803Y-88166924D01*
X157021851Y-88007282D01*
X157021855Y-88007277D01*
X157021860Y-88007274D01*
X157207273Y-87821860D01*
X157207282Y-87821851D01*
X157277127Y-87730827D01*
X157333552Y-87689628D01*
X157403298Y-87685473D01*
X157464219Y-87719686D01*
X157496971Y-87781403D01*
X157499500Y-87806317D01*
X157499500Y-114893682D01*
X157479815Y-114960721D01*
X157427011Y-115006476D01*
X157357853Y-115016420D01*
X157294297Y-114987395D01*
X157277125Y-114969169D01*
X157207281Y-114878148D01*
X157207274Y-114878140D01*
X157021860Y-114692726D01*
X157021851Y-114692718D01*
X156813803Y-114533075D01*
X156586700Y-114401958D01*
X156586690Y-114401953D01*
X156344428Y-114301605D01*
X156344421Y-114301603D01*
X156344419Y-114301602D01*
X156091116Y-114233730D01*
X156033339Y-114226123D01*
X155831127Y-114199500D01*
X155831120Y-114199500D01*
X155568880Y-114199500D01*
X155568872Y-114199500D01*
X155337772Y-114229926D01*
X155308884Y-114233730D01*
X155055581Y-114301602D01*
X155055571Y-114301605D01*
X154813309Y-114401953D01*
X154813299Y-114401958D01*
X154586196Y-114533075D01*
X154378148Y-114692718D01*
X154192718Y-114878148D01*
X154033075Y-115086196D01*
X153901958Y-115313299D01*
X153901953Y-115313309D01*
X153801605Y-115555571D01*
X153801602Y-115555581D01*
X153733730Y-115808885D01*
X153699500Y-116068872D01*
X153699500Y-116331127D01*
X153720436Y-116490140D01*
X153733730Y-116591116D01*
X153755178Y-116671161D01*
X153801602Y-116844418D01*
X153801605Y-116844428D01*
X153901953Y-117086690D01*
X153901958Y-117086700D01*
X154033075Y-117313803D01*
X154192718Y-117521851D01*
X154192726Y-117521860D01*
X154378140Y-117707274D01*
X154378148Y-117707281D01*
X154469169Y-117777125D01*
X154510372Y-117833553D01*
X154514526Y-117903299D01*
X154480313Y-117964219D01*
X154418595Y-117996971D01*
X154393682Y-117999500D01*
X113906318Y-117999500D01*
X113839279Y-117979815D01*
X113793524Y-117927011D01*
X113783580Y-117857853D01*
X113812605Y-117794297D01*
X113830831Y-117777125D01*
X113856478Y-117757444D01*
X113921851Y-117707282D01*
X113921855Y-117707277D01*
X113921860Y-117707274D01*
X114107274Y-117521860D01*
X114107277Y-117521855D01*
X114107282Y-117521851D01*
X114266924Y-117313803D01*
X114398043Y-117086697D01*
X114498398Y-116844419D01*
X114566270Y-116591116D01*
X114600500Y-116331120D01*
X114600500Y-116068880D01*
X114566270Y-115808884D01*
X114498398Y-115555581D01*
X114445294Y-115427376D01*
X114398046Y-115313309D01*
X114398041Y-115313299D01*
X114266924Y-115086196D01*
X114107281Y-114878148D01*
X114107274Y-114878140D01*
X113921860Y-114692726D01*
X113921851Y-114692718D01*
X113713803Y-114533075D01*
X113486700Y-114401958D01*
X113486690Y-114401953D01*
X113244428Y-114301605D01*
X113244421Y-114301603D01*
X113244419Y-114301602D01*
X112991116Y-114233730D01*
X112933339Y-114226123D01*
X112731127Y-114199500D01*
X112731120Y-114199500D01*
X112468880Y-114199500D01*
X112468872Y-114199500D01*
X112237772Y-114229926D01*
X112208884Y-114233730D01*
X111955581Y-114301602D01*
X111955571Y-114301605D01*
X111713309Y-114401953D01*
X111713299Y-114401958D01*
X111486196Y-114533075D01*
X111278148Y-114692718D01*
X111212181Y-114758685D01*
X111150858Y-114792170D01*
X111081166Y-114787186D01*
X111025233Y-114745314D01*
X111000816Y-114679850D01*
X111000500Y-114671004D01*
X111000500Y-113510000D01*
X125219652Y-113510000D01*
X126309252Y-113510000D01*
X126287482Y-113547708D01*
X126250000Y-113687591D01*
X126250000Y-113832409D01*
X126287482Y-113972292D01*
X126309252Y-114010000D01*
X125219652Y-114010000D01*
X125239397Y-114134668D01*
X125239397Y-114134671D01*
X125317219Y-114374184D01*
X125431557Y-114598583D01*
X125579590Y-114802331D01*
X125579590Y-114802332D01*
X125757667Y-114980409D01*
X125961416Y-115128442D01*
X126185815Y-115242780D01*
X126425329Y-115320602D01*
X126550000Y-115340348D01*
X126550000Y-114250747D01*
X126587708Y-114272518D01*
X126727591Y-114310000D01*
X126872409Y-114310000D01*
X127012292Y-114272518D01*
X127050000Y-114250747D01*
X127050000Y-115340347D01*
X127174668Y-115320602D01*
X127174671Y-115320602D01*
X127414184Y-115242780D01*
X127638583Y-115128442D01*
X127842331Y-114980409D01*
X127842332Y-114980409D01*
X128020409Y-114802332D01*
X128020409Y-114802331D01*
X128168442Y-114598583D01*
X128282780Y-114374184D01*
X128360602Y-114134671D01*
X128360602Y-114134668D01*
X128380348Y-114010000D01*
X127290748Y-114010000D01*
X127312518Y-113972292D01*
X127350000Y-113832409D01*
X127350000Y-113687591D01*
X127312518Y-113547708D01*
X127290748Y-113510000D01*
X128380348Y-113510000D01*
X128376620Y-113486461D01*
X128367677Y-113430000D01*
X132519652Y-113430000D01*
X133609252Y-113430000D01*
X133587482Y-113467708D01*
X133550000Y-113607591D01*
X133550000Y-113752409D01*
X133587482Y-113892292D01*
X133609252Y-113930000D01*
X132519652Y-113930000D01*
X132539397Y-114054668D01*
X132539397Y-114054671D01*
X132617219Y-114294184D01*
X132731557Y-114518583D01*
X132879590Y-114722331D01*
X132879590Y-114722332D01*
X133057667Y-114900409D01*
X133261416Y-115048442D01*
X133485815Y-115162780D01*
X133725329Y-115240602D01*
X133850000Y-115260348D01*
X133850000Y-114170747D01*
X133887708Y-114192518D01*
X134027591Y-114230000D01*
X134172409Y-114230000D01*
X134312292Y-114192518D01*
X134350000Y-114170747D01*
X134350000Y-115260347D01*
X134474668Y-115240602D01*
X134474671Y-115240602D01*
X134714184Y-115162780D01*
X134938583Y-115048442D01*
X135142331Y-114900409D01*
X135142332Y-114900409D01*
X135320409Y-114722332D01*
X135320409Y-114722331D01*
X135468442Y-114518583D01*
X135582780Y-114294184D01*
X135660602Y-114054671D01*
X135660602Y-114054668D01*
X135680348Y-113930000D01*
X134590748Y-113930000D01*
X134612518Y-113892292D01*
X134650000Y-113752409D01*
X134650000Y-113607591D01*
X134612518Y-113467708D01*
X134590748Y-113430000D01*
X135680348Y-113430000D01*
X135660602Y-113305331D01*
X135660602Y-113305328D01*
X135582780Y-113065815D01*
X135468442Y-112841416D01*
X135320409Y-112637668D01*
X135320409Y-112637667D01*
X135142332Y-112459590D01*
X134938583Y-112311557D01*
X134714184Y-112197219D01*
X134474670Y-112119397D01*
X134350000Y-112099650D01*
X134350000Y-113189252D01*
X134312292Y-113167482D01*
X134172409Y-113130000D01*
X134027591Y-113130000D01*
X133887708Y-113167482D01*
X133850000Y-113189252D01*
X133850000Y-112099650D01*
X133725330Y-112119397D01*
X133725327Y-112119397D01*
X133485815Y-112197219D01*
X133261416Y-112311557D01*
X133057668Y-112459590D01*
X133057667Y-112459590D01*
X132879590Y-112637667D01*
X132879590Y-112637668D01*
X132731557Y-112841416D01*
X132617219Y-113065815D01*
X132539397Y-113305328D01*
X132539397Y-113305331D01*
X132519652Y-113430000D01*
X128367677Y-113430000D01*
X128360602Y-113385331D01*
X128360602Y-113385328D01*
X128282780Y-113145815D01*
X128168442Y-112921416D01*
X128020409Y-112717668D01*
X128020409Y-112717667D01*
X127842332Y-112539590D01*
X127638583Y-112391557D01*
X127414184Y-112277219D01*
X127174670Y-112199397D01*
X127050000Y-112179650D01*
X127050000Y-113269252D01*
X127012292Y-113247482D01*
X126872409Y-113210000D01*
X126727591Y-113210000D01*
X126587708Y-113247482D01*
X126550000Y-113269252D01*
X126550000Y-112179650D01*
X126425330Y-112199397D01*
X126425327Y-112199397D01*
X126185815Y-112277219D01*
X125961416Y-112391557D01*
X125757668Y-112539590D01*
X125757667Y-112539590D01*
X125579590Y-112717667D01*
X125579590Y-112717668D01*
X125431557Y-112921416D01*
X125317219Y-113145815D01*
X125239397Y-113385328D01*
X125239397Y-113385331D01*
X125219652Y-113510000D01*
X111000500Y-113510000D01*
X111000500Y-109192155D01*
X113600000Y-109192155D01*
X113600000Y-110490000D01*
X114880936Y-110490000D01*
X114869207Y-110518316D01*
X114840000Y-110665147D01*
X114840000Y-110814853D01*
X114869207Y-110961684D01*
X114880936Y-110990000D01*
X113600000Y-110990000D01*
X113600000Y-112287844D01*
X113606401Y-112347372D01*
X113606403Y-112347379D01*
X113656645Y-112482086D01*
X113656649Y-112482093D01*
X113742809Y-112597187D01*
X113742812Y-112597190D01*
X113857906Y-112683350D01*
X113857913Y-112683354D01*
X113992620Y-112733596D01*
X113992627Y-112733598D01*
X114052155Y-112739999D01*
X114052172Y-112740000D01*
X115350000Y-112740000D01*
X115350000Y-111459064D01*
X115378316Y-111470793D01*
X115525147Y-111500000D01*
X115674853Y-111500000D01*
X115821684Y-111470793D01*
X115850000Y-111459064D01*
X115850000Y-112740000D01*
X117147828Y-112740000D01*
X117147844Y-112739999D01*
X117207372Y-112733598D01*
X117207379Y-112733596D01*
X117342086Y-112683354D01*
X117342093Y-112683350D01*
X117457187Y-112597190D01*
X117457190Y-112597187D01*
X117543350Y-112482093D01*
X117543354Y-112482086D01*
X117593596Y-112347379D01*
X117593598Y-112347372D01*
X117599999Y-112287844D01*
X117600000Y-112287827D01*
X117600000Y-110990000D01*
X116319064Y-110990000D01*
X116330793Y-110961684D01*
X116360000Y-110814853D01*
X116360000Y-110665147D01*
X116330793Y-110518316D01*
X116319064Y-110490000D01*
X117600000Y-110490000D01*
X117600000Y-109192172D01*
X117599999Y-109192155D01*
X117593598Y-109132627D01*
X117593596Y-109132620D01*
X117543354Y-108997913D01*
X117543350Y-108997906D01*
X117457190Y-108882812D01*
X117457187Y-108882809D01*
X117342093Y-108796649D01*
X117342086Y-108796645D01*
X117207379Y-108746403D01*
X117207372Y-108746401D01*
X117147844Y-108740000D01*
X115850000Y-108740000D01*
X115850000Y-110020935D01*
X115821684Y-110009207D01*
X115674853Y-109980000D01*
X115525147Y-109980000D01*
X115378316Y-110009207D01*
X115350000Y-110020935D01*
X115350000Y-108740000D01*
X114052155Y-108740000D01*
X113992627Y-108746401D01*
X113992620Y-108746403D01*
X113857913Y-108796645D01*
X113857906Y-108796649D01*
X113742812Y-108882809D01*
X113742809Y-108882812D01*
X113656649Y-108997906D01*
X113656645Y-108997913D01*
X113606403Y-109132620D01*
X113606401Y-109132627D01*
X113600000Y-109192155D01*
X111000500Y-109192155D01*
X111000500Y-88128996D01*
X111020185Y-88061957D01*
X111072989Y-88016202D01*
X111142147Y-88006258D01*
X111205703Y-88035283D01*
X111212181Y-88041315D01*
X111278140Y-88107274D01*
X111278148Y-88107281D01*
X111486196Y-88266924D01*
X111713299Y-88398041D01*
X111713309Y-88398046D01*
X111878017Y-88466270D01*
X111955581Y-88498398D01*
X112208884Y-88566270D01*
X112468880Y-88600500D01*
X112468887Y-88600500D01*
X112485216Y-88600500D01*
X112552255Y-88620185D01*
X112598010Y-88672989D01*
X112607954Y-88742147D01*
X112578929Y-88805703D01*
X112572897Y-88812181D01*
X112013469Y-89371610D01*
X111662220Y-89722859D01*
X111662218Y-89722861D01*
X111625076Y-89760003D01*
X111522859Y-89862219D01*
X111413371Y-90026079D01*
X111413364Y-90026092D01*
X111337950Y-90208160D01*
X111337947Y-90208170D01*
X111299500Y-90401456D01*
X111299500Y-102458544D01*
X111334274Y-102633365D01*
X111337948Y-102651832D01*
X111337950Y-102651840D01*
X111413364Y-102833907D01*
X111413371Y-102833920D01*
X111522859Y-102997780D01*
X111522860Y-102997781D01*
X111522861Y-102997782D01*
X111662218Y-103137139D01*
X111662219Y-103137139D01*
X111669286Y-103144206D01*
X111669285Y-103144206D01*
X111669289Y-103144209D01*
X113616968Y-105091888D01*
X113650453Y-105153211D01*
X113649062Y-105211660D01*
X113633733Y-105268872D01*
X113633730Y-105268884D01*
X113633730Y-105268885D01*
X113633729Y-105268892D01*
X113599500Y-105528872D01*
X113599500Y-105791127D01*
X113623990Y-105977139D01*
X113633730Y-106051116D01*
X113701602Y-106304418D01*
X113701605Y-106304428D01*
X113801953Y-106546690D01*
X113801958Y-106546700D01*
X113933075Y-106773803D01*
X114092718Y-106981851D01*
X114092726Y-106981860D01*
X114278140Y-107167274D01*
X114278148Y-107167281D01*
X114486196Y-107326924D01*
X114713299Y-107458041D01*
X114713309Y-107458046D01*
X114955571Y-107558394D01*
X114955581Y-107558398D01*
X115208884Y-107626270D01*
X115468880Y-107660500D01*
X115468887Y-107660500D01*
X115731113Y-107660500D01*
X115731120Y-107660500D01*
X115991116Y-107626270D01*
X116244419Y-107558398D01*
X116486697Y-107458043D01*
X116713803Y-107326924D01*
X116921851Y-107167282D01*
X116921855Y-107167277D01*
X116921860Y-107167274D01*
X117107274Y-106981860D01*
X117107277Y-106981855D01*
X117107282Y-106981851D01*
X117266924Y-106773803D01*
X117398043Y-106546697D01*
X117498398Y-106304419D01*
X117566270Y-106051116D01*
X117600500Y-105791120D01*
X117600500Y-105528880D01*
X117566270Y-105268884D01*
X117498398Y-105015581D01*
X117482644Y-104977547D01*
X117398046Y-104773309D01*
X117398041Y-104773299D01*
X117266924Y-104546196D01*
X117107281Y-104338148D01*
X117107274Y-104338140D01*
X116921860Y-104152726D01*
X116921851Y-104152718D01*
X116713803Y-103993075D01*
X116486700Y-103861958D01*
X116486690Y-103861953D01*
X116244428Y-103761605D01*
X116244421Y-103761603D01*
X116244419Y-103761602D01*
X115991116Y-103693730D01*
X115933339Y-103686123D01*
X115731127Y-103659500D01*
X115731120Y-103659500D01*
X115468880Y-103659500D01*
X115468872Y-103659500D01*
X115221402Y-103692081D01*
X115208884Y-103693730D01*
X115208875Y-103693732D01*
X115208872Y-103693733D01*
X115151660Y-103709062D01*
X115081810Y-103707398D01*
X115031888Y-103676968D01*
X114188840Y-102833920D01*
X113336819Y-101981898D01*
X113303334Y-101920575D01*
X113300500Y-101894217D01*
X113300500Y-95532135D01*
X113699500Y-95532135D01*
X113699500Y-98627870D01*
X113699501Y-98627876D01*
X113705908Y-98687483D01*
X113756202Y-98822328D01*
X113756206Y-98822335D01*
X113842452Y-98937544D01*
X113842455Y-98937547D01*
X113957664Y-99023793D01*
X113957671Y-99023797D01*
X114092517Y-99074091D01*
X114092516Y-99074091D01*
X114099444Y-99074835D01*
X114152127Y-99080500D01*
X117247872Y-99080499D01*
X117307483Y-99074091D01*
X117442331Y-99023796D01*
X117557546Y-98937546D01*
X117643796Y-98822331D01*
X117694091Y-98687483D01*
X117700500Y-98627873D01*
X117700500Y-98204500D01*
X117720185Y-98137461D01*
X117772989Y-98091706D01*
X117824500Y-98080500D01*
X119014218Y-98080500D01*
X119081257Y-98100185D01*
X119101899Y-98116819D01*
X120563181Y-99578101D01*
X120596666Y-99639424D01*
X120599500Y-99665782D01*
X120599500Y-105298541D01*
X120599500Y-105298543D01*
X120599499Y-105298543D01*
X120637947Y-105491829D01*
X120637950Y-105491839D01*
X120713364Y-105673907D01*
X120713371Y-105673920D01*
X120822860Y-105837781D01*
X120822863Y-105837785D01*
X120966537Y-105981459D01*
X120966559Y-105981479D01*
X123119735Y-108134655D01*
X123119764Y-108134686D01*
X123262214Y-108277136D01*
X123262218Y-108277139D01*
X123426079Y-108386628D01*
X123426092Y-108386635D01*
X123554833Y-108439961D01*
X123597744Y-108457735D01*
X123608164Y-108462051D01*
X123704812Y-108481275D01*
X123753135Y-108490887D01*
X123801458Y-108500500D01*
X123801459Y-108500500D01*
X123801460Y-108500500D01*
X123998540Y-108500500D01*
X130234903Y-108500500D01*
X130282355Y-108509938D01*
X130408164Y-108562051D01*
X130601454Y-108600499D01*
X130601457Y-108600500D01*
X130601459Y-108600500D01*
X130798542Y-108600500D01*
X130798543Y-108600499D01*
X130991836Y-108562051D01*
X131173914Y-108486631D01*
X131337781Y-108377139D01*
X134558101Y-105156817D01*
X134619424Y-105123333D01*
X134645782Y-105120499D01*
X135247871Y-105120499D01*
X135247872Y-105120499D01*
X135307483Y-105114091D01*
X135442331Y-105063796D01*
X135557546Y-104977546D01*
X135643796Y-104862331D01*
X135694091Y-104727483D01*
X135700500Y-104667873D01*
X135700499Y-102372128D01*
X135694091Y-102312517D01*
X135658350Y-102216691D01*
X135643797Y-102177671D01*
X135643793Y-102177664D01*
X135557547Y-102062455D01*
X135557544Y-102062452D01*
X135442335Y-101976206D01*
X135442328Y-101976202D01*
X135307482Y-101925908D01*
X135307483Y-101925908D01*
X135247883Y-101919501D01*
X135247881Y-101919500D01*
X135247873Y-101919500D01*
X135247865Y-101919500D01*
X135224500Y-101919500D01*
X135157461Y-101899815D01*
X135111706Y-101847011D01*
X135100500Y-101795500D01*
X135100500Y-100193962D01*
X135120185Y-100126923D01*
X135139623Y-100104650D01*
X135139211Y-100104238D01*
X135162656Y-100080793D01*
X135320793Y-99922656D01*
X135468870Y-99718845D01*
X135583241Y-99494379D01*
X135661090Y-99254785D01*
X135700500Y-99005962D01*
X135700500Y-98754038D01*
X135661090Y-98505215D01*
X135583241Y-98265621D01*
X135583239Y-98265618D01*
X135583239Y-98265616D01*
X135517940Y-98137461D01*
X135468870Y-98041155D01*
X135449952Y-98015117D01*
X135320798Y-97837350D01*
X135320794Y-97837345D01*
X135142654Y-97659205D01*
X135142649Y-97659201D01*
X134938848Y-97511132D01*
X134938847Y-97511131D01*
X134938845Y-97511130D01*
X134868747Y-97475413D01*
X134714383Y-97396760D01*
X134474785Y-97318910D01*
X134365381Y-97301582D01*
X134225962Y-97279500D01*
X133974038Y-97279500D01*
X133849626Y-97299205D01*
X133725214Y-97318910D01*
X133485616Y-97396760D01*
X133261151Y-97511132D01*
X133057350Y-97659201D01*
X133057345Y-97659205D01*
X132879205Y-97837345D01*
X132879201Y-97837350D01*
X132731132Y-98041151D01*
X132616760Y-98265616D01*
X132538910Y-98505214D01*
X132510041Y-98687483D01*
X132499500Y-98754038D01*
X132499500Y-99005962D01*
X132535742Y-99234785D01*
X132538910Y-99254785D01*
X132616760Y-99494383D01*
X132680023Y-99618542D01*
X132707456Y-99672383D01*
X132731132Y-99718848D01*
X132879201Y-99922649D01*
X132879205Y-99922654D01*
X133060789Y-100104238D01*
X133059714Y-100105312D01*
X133094225Y-100158180D01*
X133099500Y-100193962D01*
X133099500Y-101795500D01*
X133079815Y-101862539D01*
X133027011Y-101908294D01*
X132975505Y-101919500D01*
X132952132Y-101919500D01*
X132952123Y-101919501D01*
X132892516Y-101925908D01*
X132757671Y-101976202D01*
X132757664Y-101976206D01*
X132642455Y-102062452D01*
X132642452Y-102062455D01*
X132556206Y-102177664D01*
X132556202Y-102177671D01*
X132505908Y-102312517D01*
X132499501Y-102372116D01*
X132499501Y-102372123D01*
X132499500Y-102372135D01*
X132499500Y-104334217D01*
X132479815Y-104401256D01*
X132463181Y-104421898D01*
X130421899Y-106463181D01*
X130360576Y-106496666D01*
X130334218Y-106499500D01*
X124365782Y-106499500D01*
X124298743Y-106479815D01*
X124278101Y-106463181D01*
X122636819Y-104821899D01*
X122603334Y-104760576D01*
X122600500Y-104734218D01*
X122600500Y-99101456D01*
X122562052Y-98908170D01*
X122562051Y-98908169D01*
X122562051Y-98908165D01*
X122562049Y-98908160D01*
X122486635Y-98726092D01*
X122486628Y-98726079D01*
X122377140Y-98562219D01*
X122320135Y-98505214D01*
X122237782Y-98422861D01*
X122237781Y-98422860D01*
X120264208Y-96449288D01*
X120264206Y-96449285D01*
X120264206Y-96449286D01*
X120257139Y-96442219D01*
X120257139Y-96442218D01*
X120117782Y-96302861D01*
X120117781Y-96302860D01*
X120117780Y-96302859D01*
X119953920Y-96193371D01*
X119953911Y-96193366D01*
X119833170Y-96143354D01*
X119825165Y-96140038D01*
X119771836Y-96117949D01*
X119671018Y-96097895D01*
X119666512Y-96096998D01*
X119666506Y-96096997D01*
X119578543Y-96079500D01*
X119578541Y-96079500D01*
X117824499Y-96079500D01*
X117757460Y-96059815D01*
X117711705Y-96007011D01*
X117700499Y-95955500D01*
X117700499Y-95532129D01*
X117700498Y-95532123D01*
X117700497Y-95532116D01*
X117694091Y-95472517D01*
X117690580Y-95463104D01*
X117643797Y-95337671D01*
X117643793Y-95337664D01*
X117557547Y-95222455D01*
X117557544Y-95222452D01*
X117442335Y-95136206D01*
X117442328Y-95136202D01*
X117307482Y-95085908D01*
X117307483Y-95085908D01*
X117247883Y-95079501D01*
X117247881Y-95079500D01*
X117247873Y-95079500D01*
X117247864Y-95079500D01*
X114152129Y-95079500D01*
X114152123Y-95079501D01*
X114092516Y-95085908D01*
X113957671Y-95136202D01*
X113957664Y-95136206D01*
X113842455Y-95222452D01*
X113842452Y-95222455D01*
X113756206Y-95337664D01*
X113756202Y-95337671D01*
X113705908Y-95472517D01*
X113699501Y-95532116D01*
X113699501Y-95532123D01*
X113699500Y-95532135D01*
X113300500Y-95532135D01*
X113300500Y-91868872D01*
X113699500Y-91868872D01*
X113699500Y-92131127D01*
X113726123Y-92333339D01*
X113733730Y-92391116D01*
X113801602Y-92644418D01*
X113801605Y-92644428D01*
X113901953Y-92886690D01*
X113901958Y-92886700D01*
X114033075Y-93113803D01*
X114192718Y-93321851D01*
X114192726Y-93321860D01*
X114378140Y-93507274D01*
X114378148Y-93507281D01*
X114586196Y-93666924D01*
X114813299Y-93798041D01*
X114813309Y-93798046D01*
X115029599Y-93887636D01*
X115055581Y-93898398D01*
X115308884Y-93966270D01*
X115568880Y-94000500D01*
X115568887Y-94000500D01*
X115831113Y-94000500D01*
X115831120Y-94000500D01*
X116091116Y-93966270D01*
X116344419Y-93898398D01*
X116521340Y-93825114D01*
X116586690Y-93798046D01*
X116586691Y-93798045D01*
X116586697Y-93798043D01*
X116813803Y-93666924D01*
X117021851Y-93507282D01*
X117021855Y-93507277D01*
X117021860Y-93507274D01*
X117207274Y-93321860D01*
X117207277Y-93321855D01*
X117207282Y-93321851D01*
X117366924Y-93113803D01*
X117396544Y-93062500D01*
X117447111Y-93014285D01*
X117503931Y-93000500D01*
X123234218Y-93000500D01*
X123301257Y-93020185D01*
X123321899Y-93036819D01*
X125763181Y-95478101D01*
X125796666Y-95539424D01*
X125799500Y-95565782D01*
X125799500Y-97546037D01*
X125779815Y-97613076D01*
X125760376Y-97635350D01*
X125760788Y-97635762D01*
X125579205Y-97817345D01*
X125579201Y-97817350D01*
X125431132Y-98021151D01*
X125316760Y-98245616D01*
X125238910Y-98485214D01*
X125216313Y-98627883D01*
X125199500Y-98734038D01*
X125199500Y-98985962D01*
X125214486Y-99080576D01*
X125238910Y-99234785D01*
X125316760Y-99474383D01*
X125369608Y-99578101D01*
X125419478Y-99675977D01*
X125431132Y-99698848D01*
X125579201Y-99902649D01*
X125579205Y-99902654D01*
X125760789Y-100084238D01*
X125759714Y-100085312D01*
X125794225Y-100138180D01*
X125799500Y-100173962D01*
X125799500Y-101875500D01*
X125779815Y-101942539D01*
X125727011Y-101988294D01*
X125675505Y-101999500D01*
X125652132Y-101999500D01*
X125652123Y-101999501D01*
X125592516Y-102005908D01*
X125457671Y-102056202D01*
X125457664Y-102056206D01*
X125342455Y-102142452D01*
X125342452Y-102142455D01*
X125256206Y-102257664D01*
X125256202Y-102257671D01*
X125205908Y-102392517D01*
X125199501Y-102452116D01*
X125199501Y-102452123D01*
X125199500Y-102452135D01*
X125199500Y-104747870D01*
X125199501Y-104747876D01*
X125205908Y-104807483D01*
X125256202Y-104942328D01*
X125256206Y-104942335D01*
X125342452Y-105057544D01*
X125342455Y-105057547D01*
X125457664Y-105143793D01*
X125457671Y-105143797D01*
X125592517Y-105194091D01*
X125592516Y-105194091D01*
X125599444Y-105194835D01*
X125652127Y-105200500D01*
X127947872Y-105200499D01*
X128007483Y-105194091D01*
X128142331Y-105143796D01*
X128257546Y-105057546D01*
X128343796Y-104942331D01*
X128394091Y-104807483D01*
X128400500Y-104747873D01*
X128400499Y-102452128D01*
X128394091Y-102392517D01*
X128386486Y-102372128D01*
X128343797Y-102257671D01*
X128343793Y-102257664D01*
X128257547Y-102142455D01*
X128257544Y-102142452D01*
X128142335Y-102056206D01*
X128142328Y-102056202D01*
X128007482Y-102005908D01*
X128007483Y-102005908D01*
X127947883Y-101999501D01*
X127947881Y-101999500D01*
X127947873Y-101999500D01*
X127947865Y-101999500D01*
X127924500Y-101999500D01*
X127857461Y-101979815D01*
X127811706Y-101927011D01*
X127800500Y-101875500D01*
X127800500Y-100173962D01*
X127820185Y-100106923D01*
X127839623Y-100084650D01*
X127839211Y-100084238D01*
X127929543Y-99993906D01*
X128020793Y-99902656D01*
X128168870Y-99698845D01*
X128283241Y-99474379D01*
X128361090Y-99234785D01*
X128400500Y-98985962D01*
X128400500Y-98734038D01*
X128361090Y-98485215D01*
X128283241Y-98245621D01*
X128283239Y-98245618D01*
X128283239Y-98245616D01*
X128217613Y-98116819D01*
X128168870Y-98021155D01*
X128149952Y-97995117D01*
X128020798Y-97817350D01*
X128020794Y-97817345D01*
X127839212Y-97635762D01*
X127840285Y-97634688D01*
X127805774Y-97581815D01*
X127800500Y-97546037D01*
X127800500Y-95001456D01*
X127762052Y-94808170D01*
X127762051Y-94808169D01*
X127762051Y-94808165D01*
X127762049Y-94808160D01*
X127686635Y-94626092D01*
X127686628Y-94626079D01*
X127577139Y-94462218D01*
X127577136Y-94462214D01*
X127434686Y-94319764D01*
X127434655Y-94319735D01*
X124481479Y-91366559D01*
X124481459Y-91366537D01*
X124337785Y-91222863D01*
X124337781Y-91222860D01*
X124173920Y-91113371D01*
X124173911Y-91113366D01*
X124101315Y-91083296D01*
X124045165Y-91060038D01*
X123991836Y-91037949D01*
X123991832Y-91037948D01*
X123991828Y-91037946D01*
X123895188Y-91018724D01*
X123798544Y-90999500D01*
X123798541Y-90999500D01*
X117503931Y-90999500D01*
X117436892Y-90979815D01*
X117396544Y-90937500D01*
X117366924Y-90886196D01*
X117207281Y-90678148D01*
X117207274Y-90678140D01*
X117021860Y-90492726D01*
X117021851Y-90492718D01*
X116813803Y-90333075D01*
X116586700Y-90201958D01*
X116586690Y-90201953D01*
X116344428Y-90101605D01*
X116344421Y-90101603D01*
X116344419Y-90101602D01*
X116091116Y-90033730D01*
X116033002Y-90026079D01*
X115831127Y-89999500D01*
X115831120Y-89999500D01*
X115568880Y-89999500D01*
X115568872Y-89999500D01*
X115337772Y-90029926D01*
X115308884Y-90033730D01*
X115056126Y-90101456D01*
X115055581Y-90101602D01*
X115055571Y-90101605D01*
X114813309Y-90201953D01*
X114813299Y-90201958D01*
X114586196Y-90333075D01*
X114378148Y-90492718D01*
X114192718Y-90678148D01*
X114033075Y-90886196D01*
X113901958Y-91113299D01*
X113901953Y-91113309D01*
X113801605Y-91355571D01*
X113801602Y-91355581D01*
X113733730Y-91608885D01*
X113699500Y-91868872D01*
X113300500Y-91868872D01*
X113300500Y-90965782D01*
X113320185Y-90898743D01*
X113336819Y-90878101D01*
X114478102Y-89736819D01*
X114539425Y-89703334D01*
X114565783Y-89700500D01*
X125075501Y-89700500D01*
X125142540Y-89720185D01*
X125188295Y-89772989D01*
X125199501Y-89824500D01*
X125199501Y-89847876D01*
X125205908Y-89907483D01*
X125256202Y-90042328D01*
X125256206Y-90042335D01*
X125342452Y-90157544D01*
X125342455Y-90157547D01*
X125457664Y-90243793D01*
X125457671Y-90243797D01*
X125592517Y-90294091D01*
X125592516Y-90294091D01*
X125599444Y-90294835D01*
X125652127Y-90300500D01*
X127947872Y-90300499D01*
X128007483Y-90294091D01*
X128142331Y-90243796D01*
X128257546Y-90157546D01*
X128343796Y-90042331D01*
X128394091Y-89907483D01*
X128400500Y-89847873D01*
X128400500Y-89824500D01*
X128420185Y-89757461D01*
X128472989Y-89711706D01*
X128524500Y-89700500D01*
X132375501Y-89700500D01*
X132442540Y-89720185D01*
X132488295Y-89772989D01*
X132499501Y-89824500D01*
X132499501Y-89867876D01*
X132505908Y-89927483D01*
X132556202Y-90062328D01*
X132556206Y-90062335D01*
X132642452Y-90177544D01*
X132642455Y-90177547D01*
X132757664Y-90263793D01*
X132757671Y-90263797D01*
X132892517Y-90314091D01*
X132892516Y-90314091D01*
X132899444Y-90314835D01*
X132952127Y-90320500D01*
X135247872Y-90320499D01*
X135307483Y-90314091D01*
X135442331Y-90263796D01*
X135557546Y-90177546D01*
X135643796Y-90062331D01*
X135694091Y-89927483D01*
X135697302Y-89897614D01*
X135724039Y-89833067D01*
X135781432Y-89793219D01*
X135851257Y-89790725D01*
X135908272Y-89823192D01*
X136663181Y-90578101D01*
X136696666Y-90639424D01*
X136699500Y-90665782D01*
X136699500Y-99618541D01*
X136710925Y-99675977D01*
X136737949Y-99811836D01*
X136758107Y-99860500D01*
X136761372Y-99868383D01*
X136761373Y-99868386D01*
X136813364Y-99993906D01*
X136813371Y-99993919D01*
X136922860Y-100157782D01*
X137066537Y-100301459D01*
X137066559Y-100301479D01*
X138953281Y-102188201D01*
X138986766Y-102249524D01*
X138988073Y-102256483D01*
X139011523Y-102404535D01*
X139074781Y-102599223D01*
X139167715Y-102781613D01*
X139288028Y-102947213D01*
X139432786Y-103091971D01*
X139587749Y-103204556D01*
X139598390Y-103212287D01*
X139717620Y-103273037D01*
X139780780Y-103305220D01*
X139780786Y-103305222D01*
X139914698Y-103348732D01*
X139964062Y-103378982D01*
X140963181Y-104378101D01*
X140996666Y-104439424D01*
X140999500Y-104465782D01*
X140999500Y-110924237D01*
X140979815Y-110991276D01*
X140975818Y-110997122D01*
X140887715Y-111118386D01*
X140794781Y-111300776D01*
X140731522Y-111495465D01*
X140699500Y-111697648D01*
X140699500Y-111902351D01*
X140731522Y-112104534D01*
X140794781Y-112299223D01*
X140858691Y-112424653D01*
X140887585Y-112481359D01*
X140887715Y-112481613D01*
X141008028Y-112647213D01*
X141152786Y-112791971D01*
X141273226Y-112879474D01*
X141318390Y-112912287D01*
X141434607Y-112971503D01*
X141500776Y-113005218D01*
X141500778Y-113005218D01*
X141500781Y-113005220D01*
X141605137Y-113039127D01*
X141695465Y-113068477D01*
X141796557Y-113084488D01*
X141897648Y-113100500D01*
X141897649Y-113100500D01*
X142102351Y-113100500D01*
X142102352Y-113100500D01*
X142304534Y-113068477D01*
X142499219Y-113005220D01*
X142681610Y-112912287D01*
X142779156Y-112841416D01*
X142847213Y-112791971D01*
X142847215Y-112791968D01*
X142847219Y-112791966D01*
X142991966Y-112647219D01*
X142991968Y-112647215D01*
X142991971Y-112647213D01*
X143070162Y-112539590D01*
X143112287Y-112481610D01*
X143205220Y-112299219D01*
X143268477Y-112104534D01*
X143300500Y-111902352D01*
X143300500Y-111697682D01*
X144200000Y-111697682D01*
X144200000Y-111902317D01*
X144232009Y-112104417D01*
X144295244Y-112299031D01*
X144388141Y-112481350D01*
X144388147Y-112481359D01*
X144420523Y-112525921D01*
X144420524Y-112525922D01*
X145100000Y-111846446D01*
X145100000Y-111852661D01*
X145127259Y-111954394D01*
X145179920Y-112045606D01*
X145254394Y-112120080D01*
X145345606Y-112172741D01*
X145447339Y-112200000D01*
X145453553Y-112200000D01*
X144774076Y-112879474D01*
X144818650Y-112911859D01*
X145000968Y-113004755D01*
X145195582Y-113067990D01*
X145397683Y-113100000D01*
X145602317Y-113100000D01*
X145804417Y-113067990D01*
X145999031Y-113004755D01*
X146181349Y-112911859D01*
X146225921Y-112879474D01*
X145546447Y-112200000D01*
X145552661Y-112200000D01*
X145654394Y-112172741D01*
X145745606Y-112120080D01*
X145820080Y-112045606D01*
X145872741Y-111954394D01*
X145900000Y-111852661D01*
X145900000Y-111846448D01*
X146579474Y-112525922D01*
X146579474Y-112525921D01*
X146611859Y-112481349D01*
X146704755Y-112299031D01*
X146767990Y-112104417D01*
X146800000Y-111902317D01*
X146800000Y-111697682D01*
X146767990Y-111495582D01*
X146704755Y-111300968D01*
X146611859Y-111118650D01*
X146579474Y-111074077D01*
X146579474Y-111074076D01*
X145900000Y-111753551D01*
X145900000Y-111747339D01*
X145872741Y-111645606D01*
X145820080Y-111554394D01*
X145745606Y-111479920D01*
X145654394Y-111427259D01*
X145552661Y-111400000D01*
X145546446Y-111400000D01*
X146225922Y-110720524D01*
X146225921Y-110720523D01*
X146181359Y-110688147D01*
X146181350Y-110688141D01*
X145999031Y-110595244D01*
X145804417Y-110532009D01*
X145602317Y-110500000D01*
X145397683Y-110500000D01*
X145195582Y-110532009D01*
X145000968Y-110595244D01*
X144818644Y-110688143D01*
X144774077Y-110720523D01*
X144774077Y-110720524D01*
X145453554Y-111400000D01*
X145447339Y-111400000D01*
X145345606Y-111427259D01*
X145254394Y-111479920D01*
X145179920Y-111554394D01*
X145127259Y-111645606D01*
X145100000Y-111747339D01*
X145100000Y-111753553D01*
X144420524Y-111074077D01*
X144420523Y-111074077D01*
X144388143Y-111118644D01*
X144295244Y-111300968D01*
X144232009Y-111495582D01*
X144200000Y-111697682D01*
X143300500Y-111697682D01*
X143300500Y-111697648D01*
X143292257Y-111645606D01*
X143268477Y-111495465D01*
X143214821Y-111330330D01*
X143205220Y-111300781D01*
X143205218Y-111300778D01*
X143205218Y-111300776D01*
X143171503Y-111234607D01*
X143112287Y-111118390D01*
X143080091Y-111074076D01*
X143024182Y-110997122D01*
X143017029Y-110977077D01*
X143005523Y-110959172D01*
X143002068Y-110935145D01*
X143000702Y-110931316D01*
X143000500Y-110924237D01*
X143000500Y-103901462D01*
X143000500Y-103901459D01*
X142998586Y-103891835D01*
X142962051Y-103708164D01*
X142961734Y-103707398D01*
X142924928Y-103618540D01*
X142886635Y-103526092D01*
X142886628Y-103526079D01*
X142777140Y-103362219D01*
X142720139Y-103305218D01*
X142637782Y-103222861D01*
X142637781Y-103222860D01*
X141616819Y-102201898D01*
X141602115Y-102174970D01*
X141585523Y-102149152D01*
X141584631Y-102142951D01*
X141583334Y-102140575D01*
X141580500Y-102114217D01*
X141580500Y-101997648D01*
X141548477Y-101795465D01*
X141485218Y-101600776D01*
X141451503Y-101534607D01*
X141392287Y-101418390D01*
X141384556Y-101407749D01*
X141271971Y-101252786D01*
X141127213Y-101108028D01*
X140961613Y-100987715D01*
X140961612Y-100987714D01*
X140961610Y-100987713D01*
X140904653Y-100958691D01*
X140779223Y-100894781D01*
X140584535Y-100831523D01*
X140436483Y-100808073D01*
X140373349Y-100778143D01*
X140368201Y-100773281D01*
X138736819Y-99141899D01*
X138703334Y-99080576D01*
X138700500Y-99054218D01*
X138700500Y-96060000D01*
X139323391Y-96060000D01*
X140284314Y-96060000D01*
X140279920Y-96064394D01*
X140227259Y-96155606D01*
X140200000Y-96257339D01*
X140200000Y-96362661D01*
X140227259Y-96464394D01*
X140279920Y-96555606D01*
X140284314Y-96560000D01*
X139323391Y-96560000D01*
X139332009Y-96614413D01*
X139395244Y-96809029D01*
X139488140Y-96991349D01*
X139608417Y-97156894D01*
X139608417Y-97156895D01*
X139753104Y-97301582D01*
X139918650Y-97421859D01*
X140100968Y-97514754D01*
X140295578Y-97577988D01*
X140350000Y-97586607D01*
X140350000Y-96625686D01*
X140354394Y-96630080D01*
X140445606Y-96682741D01*
X140547339Y-96710000D01*
X140652661Y-96710000D01*
X140754394Y-96682741D01*
X140845606Y-96630080D01*
X140850000Y-96625686D01*
X140850000Y-97586606D01*
X140904421Y-97577988D01*
X141099031Y-97514754D01*
X141281349Y-97421859D01*
X141446894Y-97301582D01*
X141446895Y-97301582D01*
X141591582Y-97156895D01*
X141591582Y-97156894D01*
X141711859Y-96991349D01*
X141804755Y-96809029D01*
X141867990Y-96614413D01*
X141876609Y-96560000D01*
X140915686Y-96560000D01*
X140920080Y-96555606D01*
X140972741Y-96464394D01*
X141000000Y-96362661D01*
X141000000Y-96257339D01*
X140972741Y-96155606D01*
X140920080Y-96064394D01*
X140915686Y-96060000D01*
X141876609Y-96060000D01*
X141867990Y-96005586D01*
X141804755Y-95810970D01*
X141711859Y-95628650D01*
X141591582Y-95463105D01*
X141591582Y-95463104D01*
X141446895Y-95318417D01*
X141281349Y-95198140D01*
X141106642Y-95109123D01*
X141106640Y-95109121D01*
X141099031Y-95105244D01*
X140904413Y-95042009D01*
X140850000Y-95033390D01*
X140850000Y-95994314D01*
X140845606Y-95989920D01*
X140754394Y-95937259D01*
X140652661Y-95910000D01*
X140547339Y-95910000D01*
X140445606Y-95937259D01*
X140354394Y-95989920D01*
X140350000Y-95994314D01*
X140350000Y-95033390D01*
X140295586Y-95042009D01*
X140100970Y-95105244D01*
X139918650Y-95198140D01*
X139753105Y-95318417D01*
X139753104Y-95318417D01*
X139608417Y-95463104D01*
X139608417Y-95463105D01*
X139488140Y-95628650D01*
X139395244Y-95810970D01*
X139332009Y-96005586D01*
X139323391Y-96060000D01*
X138700500Y-96060000D01*
X138700500Y-93852155D01*
X145360000Y-93852155D01*
X145360000Y-94550000D01*
X146384722Y-94550000D01*
X146340667Y-94626306D01*
X146310000Y-94740756D01*
X146310000Y-94859244D01*
X146340667Y-94973694D01*
X146384722Y-95050000D01*
X145360000Y-95050000D01*
X145360000Y-95747844D01*
X145366401Y-95807372D01*
X145366403Y-95807379D01*
X145416645Y-95942086D01*
X145416649Y-95942093D01*
X145502809Y-96057187D01*
X145502812Y-96057190D01*
X145617906Y-96143350D01*
X145617913Y-96143354D01*
X145752620Y-96193596D01*
X145752627Y-96193598D01*
X145812155Y-96199999D01*
X145812172Y-96200000D01*
X146510000Y-96200000D01*
X146510000Y-95175277D01*
X146586306Y-95219333D01*
X146700756Y-95250000D01*
X146819244Y-95250000D01*
X146933694Y-95219333D01*
X147010000Y-95175277D01*
X147010000Y-96200000D01*
X147707828Y-96200000D01*
X147707844Y-96199999D01*
X147767372Y-96193598D01*
X147767379Y-96193596D01*
X147902086Y-96143354D01*
X147902093Y-96143350D01*
X148017187Y-96057190D01*
X148017190Y-96057187D01*
X148103350Y-95942093D01*
X148103354Y-95942086D01*
X148133213Y-95862031D01*
X148150538Y-95838886D01*
X148165443Y-95814105D01*
X148171222Y-95811255D01*
X148175084Y-95806097D01*
X148202177Y-95795991D01*
X148228109Y-95783205D01*
X148234510Y-95783931D01*
X148240548Y-95781680D01*
X148268805Y-95787826D01*
X148297532Y-95791089D01*
X148304095Y-95795503D01*
X148308821Y-95796531D01*
X148327777Y-95809280D01*
X148332640Y-95813247D01*
X148387635Y-95868242D01*
X148501190Y-95950744D01*
X148503882Y-95952940D01*
X148521751Y-95979008D01*
X148541051Y-96004035D01*
X148541859Y-96008340D01*
X148543387Y-96010569D01*
X148543595Y-96017584D01*
X148549500Y-96049024D01*
X148549500Y-100337769D01*
X148529815Y-100404808D01*
X148513181Y-100425450D01*
X148165104Y-100773526D01*
X148103781Y-100807011D01*
X148058025Y-100808318D01*
X148002352Y-100799500D01*
X147797648Y-100799500D01*
X147783310Y-100801771D01*
X147595465Y-100831522D01*
X147400776Y-100894781D01*
X147218386Y-100987715D01*
X147052786Y-101108028D01*
X146908028Y-101252786D01*
X146787715Y-101418386D01*
X146694781Y-101600776D01*
X146631522Y-101795465D01*
X146599500Y-101997648D01*
X146599500Y-102202351D01*
X146631522Y-102404534D01*
X146694781Y-102599223D01*
X146787715Y-102781613D01*
X146908028Y-102947213D01*
X147052786Y-103091971D01*
X147207749Y-103204556D01*
X147218390Y-103212287D01*
X147334607Y-103271503D01*
X147400776Y-103305218D01*
X147400778Y-103305218D01*
X147400781Y-103305220D01*
X147505137Y-103339127D01*
X147595465Y-103368477D01*
X147661791Y-103378982D01*
X147797648Y-103400500D01*
X147797649Y-103400500D01*
X148002351Y-103400500D01*
X148002352Y-103400500D01*
X148204534Y-103368477D01*
X148399219Y-103305220D01*
X148581610Y-103212287D01*
X148685043Y-103137139D01*
X148747213Y-103091971D01*
X148747215Y-103091968D01*
X148747219Y-103091966D01*
X148891966Y-102947219D01*
X148891968Y-102947215D01*
X148891971Y-102947213D01*
X148974291Y-102833907D01*
X149012287Y-102781610D01*
X149105220Y-102599219D01*
X149168477Y-102404534D01*
X149200500Y-102202352D01*
X149200500Y-101997648D01*
X149191681Y-101941971D01*
X149200635Y-101872680D01*
X149226470Y-101834896D01*
X149882952Y-101178416D01*
X149935681Y-101099500D01*
X149965084Y-101055495D01*
X150021658Y-100918913D01*
X150031096Y-100871462D01*
X150050500Y-100773920D01*
X150050500Y-96049024D01*
X150070185Y-95981985D01*
X150101616Y-95948705D01*
X150110727Y-95942086D01*
X150212365Y-95868242D01*
X150368242Y-95712365D01*
X150497815Y-95534022D01*
X150597895Y-95337606D01*
X150666015Y-95127951D01*
X150700500Y-94910222D01*
X150700500Y-94689778D01*
X150666015Y-94472049D01*
X150631955Y-94367221D01*
X150597896Y-94262396D01*
X150597895Y-94262393D01*
X150563237Y-94194375D01*
X150497815Y-94065978D01*
X150450242Y-94000499D01*
X150368247Y-93887641D01*
X150368243Y-93887636D01*
X150212363Y-93731756D01*
X150212358Y-93731752D01*
X150034025Y-93602187D01*
X150034024Y-93602186D01*
X150034022Y-93602185D01*
X149971096Y-93570122D01*
X149837606Y-93502104D01*
X149837603Y-93502103D01*
X149627952Y-93433985D01*
X149519086Y-93416742D01*
X149410222Y-93399500D01*
X149189778Y-93399500D01*
X149117201Y-93410995D01*
X148972047Y-93433985D01*
X148762396Y-93502103D01*
X148762393Y-93502104D01*
X148565974Y-93602187D01*
X148387641Y-93731752D01*
X148387636Y-93731756D01*
X148337075Y-93782317D01*
X148275752Y-93815801D01*
X148206060Y-93810816D01*
X148150127Y-93768945D01*
X148133213Y-93737968D01*
X148103354Y-93657913D01*
X148103350Y-93657906D01*
X148017190Y-93542812D01*
X148017187Y-93542809D01*
X147902093Y-93456649D01*
X147902086Y-93456645D01*
X147767379Y-93406403D01*
X147767372Y-93406401D01*
X147707844Y-93400000D01*
X147010000Y-93400000D01*
X147010000Y-94424722D01*
X146933694Y-94380667D01*
X146819244Y-94350000D01*
X146700756Y-94350000D01*
X146586306Y-94380667D01*
X146510000Y-94424722D01*
X146510000Y-93400000D01*
X145812155Y-93400000D01*
X145752627Y-93406401D01*
X145752620Y-93406403D01*
X145617913Y-93456645D01*
X145617906Y-93456649D01*
X145502812Y-93542809D01*
X145502809Y-93542812D01*
X145416649Y-93657906D01*
X145416645Y-93657913D01*
X145366403Y-93792620D01*
X145366401Y-93792627D01*
X145360000Y-93852155D01*
X138700500Y-93852155D01*
X138700500Y-90101456D01*
X138662052Y-89908170D01*
X138662051Y-89908169D01*
X138662051Y-89908165D01*
X138655335Y-89891951D01*
X138647868Y-89822481D01*
X138679143Y-89760003D01*
X138739233Y-89724351D01*
X138769897Y-89720500D01*
X139765529Y-89720500D01*
X139832568Y-89740185D01*
X139838414Y-89744182D01*
X139878064Y-89772989D01*
X139918390Y-89802287D01*
X140007877Y-89847883D01*
X140100776Y-89895218D01*
X140100778Y-89895218D01*
X140100781Y-89895220D01*
X140200076Y-89927483D01*
X140295465Y-89958477D01*
X140396557Y-89974488D01*
X140497648Y-89990500D01*
X140497649Y-89990500D01*
X140702351Y-89990500D01*
X140702352Y-89990500D01*
X140904534Y-89958477D01*
X141099219Y-89895220D01*
X141281610Y-89802287D01*
X141390930Y-89722862D01*
X141447213Y-89681971D01*
X141447215Y-89681968D01*
X141447219Y-89681966D01*
X141591966Y-89537219D01*
X141591968Y-89537215D01*
X141591971Y-89537213D01*
X141644732Y-89464590D01*
X141712287Y-89371610D01*
X141805220Y-89189219D01*
X141868477Y-88994534D01*
X141900500Y-88792352D01*
X141900500Y-88587648D01*
X141868477Y-88385466D01*
X141805220Y-88190781D01*
X141805218Y-88190778D01*
X141805218Y-88190776D01*
X141762675Y-88107282D01*
X141712287Y-88008390D01*
X141704556Y-87997749D01*
X141591971Y-87842786D01*
X141447213Y-87698028D01*
X141281613Y-87577715D01*
X141281612Y-87577714D01*
X141281610Y-87577713D01*
X141224653Y-87548691D01*
X141099223Y-87484781D01*
X140904534Y-87421522D01*
X140729995Y-87393878D01*
X140702352Y-87389500D01*
X140497648Y-87389500D01*
X140473329Y-87393351D01*
X140295465Y-87421522D01*
X140100776Y-87484781D01*
X139918386Y-87577715D01*
X139755830Y-87695818D01*
X139690023Y-87719298D01*
X139682945Y-87719500D01*
X135824499Y-87719500D01*
X135757460Y-87699815D01*
X135711705Y-87647011D01*
X135700499Y-87595500D01*
X135700499Y-87572129D01*
X135700498Y-87572123D01*
X135700497Y-87572116D01*
X135694091Y-87512517D01*
X135686631Y-87492517D01*
X135643797Y-87377671D01*
X135643793Y-87377664D01*
X135557547Y-87262455D01*
X135557544Y-87262452D01*
X135442335Y-87176206D01*
X135442328Y-87176202D01*
X135307482Y-87125908D01*
X135307483Y-87125908D01*
X135247883Y-87119501D01*
X135247881Y-87119500D01*
X135247873Y-87119500D01*
X135247864Y-87119500D01*
X132952129Y-87119500D01*
X132952123Y-87119501D01*
X132892516Y-87125908D01*
X132757671Y-87176202D01*
X132757664Y-87176206D01*
X132642455Y-87262452D01*
X132642452Y-87262455D01*
X132556206Y-87377664D01*
X132556202Y-87377671D01*
X132505908Y-87512517D01*
X132499501Y-87572116D01*
X132499501Y-87572123D01*
X132499500Y-87572135D01*
X132499500Y-87575500D01*
X132479815Y-87642539D01*
X132427011Y-87688294D01*
X132375500Y-87699500D01*
X128524499Y-87699500D01*
X128457460Y-87679815D01*
X128411705Y-87627011D01*
X128400499Y-87575500D01*
X128400499Y-87552129D01*
X128400498Y-87552123D01*
X128400497Y-87552116D01*
X128394091Y-87492517D01*
X128391920Y-87486697D01*
X128343797Y-87357671D01*
X128343793Y-87357664D01*
X128257547Y-87242455D01*
X128257544Y-87242452D01*
X128142335Y-87156206D01*
X128142328Y-87156202D01*
X128007482Y-87105908D01*
X128007483Y-87105908D01*
X127947883Y-87099501D01*
X127947881Y-87099500D01*
X127947873Y-87099500D01*
X127947864Y-87099500D01*
X125652129Y-87099500D01*
X125652123Y-87099501D01*
X125592516Y-87105908D01*
X125457671Y-87156202D01*
X125457664Y-87156206D01*
X125342455Y-87242452D01*
X125342452Y-87242455D01*
X125256206Y-87357664D01*
X125256202Y-87357671D01*
X125205908Y-87492517D01*
X125199501Y-87552116D01*
X125199501Y-87552123D01*
X125199500Y-87552135D01*
X125199500Y-87575500D01*
X125179815Y-87642539D01*
X125127011Y-87688294D01*
X125075500Y-87699500D01*
X114489955Y-87699500D01*
X114422916Y-87679815D01*
X114377161Y-87627011D01*
X114367217Y-87557853D01*
X114382566Y-87513503D01*
X114398043Y-87486697D01*
X114498398Y-87244419D01*
X114566270Y-86991116D01*
X114600500Y-86731120D01*
X114600500Y-86468880D01*
X114566270Y-86208884D01*
X114498398Y-85955581D01*
X114456977Y-85855581D01*
X114398046Y-85713309D01*
X114398041Y-85713299D01*
X114266924Y-85486196D01*
X114107281Y-85278148D01*
X114107274Y-85278140D01*
X114041315Y-85212181D01*
X114007830Y-85150858D01*
X114012814Y-85081166D01*
X114054686Y-85025233D01*
X114120150Y-85000816D01*
X114128996Y-85000500D01*
X154077586Y-85000500D01*
X154144625Y-85020185D01*
G37*
G04 #@! TD.AperFunction*
M02*
