%TF.GenerationSoftware,KiCad,Pcbnew,9.0.1*%
%TF.CreationDate,2025-08-14T10:08:24+05:00*%
%TF.ProjectId,ac_to_dc_converter,61635f74-6f5f-4646-935f-636f6e766572,rev?*%
%TF.SameCoordinates,Original*%
%TF.FileFunction,Drillmap*%
%TF.FilePolarity,Positive*%
%FSLAX45Y45*%
G04 Gerber Fmt 4.5, Leading zero omitted, Abs format (unit mm)*
G04 Created by KiCad (PCBNEW 9.0.1) date 2025-08-14 10:08:24*
%MOMM*%
%LPD*%
G01*
G04 APERTURE LIST*
%ADD10C,0.050000*%
%ADD11C,0.200000*%
G04 APERTURE END LIST*
D10*
X11410000Y-8660000D02*
G75*
G02*
X11110000Y-8660000I-150000J0D01*
G01*
X11110000Y-8660000D02*
G75*
G02*
X11410000Y-8660000I150000J0D01*
G01*
X15720000Y-11620000D02*
G75*
G02*
X15420000Y-11620000I-150000J0D01*
G01*
X15420000Y-11620000D02*
G75*
G02*
X15720000Y-11620000I150000J0D01*
G01*
X11050000Y-8450000D02*
X15800000Y-8450000D01*
X15800000Y-11850000D01*
X11050000Y-11850000D01*
X11050000Y-8450000D01*
X15720000Y-8650000D02*
G75*
G02*
X15420000Y-8650000I-150000J0D01*
G01*
X15420000Y-8650000D02*
G75*
G02*
X15720000Y-8650000I150000J0D01*
G01*
X11410000Y-11620000D02*
G75*
G02*
X11110000Y-11620000I-150000J0D01*
G01*
X11110000Y-11620000D02*
G75*
G02*
X11410000Y-11620000I150000J0D01*
G01*
D11*
X11308277Y-12163984D02*
X11308277Y-11963984D01*
X11308277Y-11963984D02*
X11355896Y-11963984D01*
X11355896Y-11963984D02*
X11384467Y-11973508D01*
X11384467Y-11973508D02*
X11403515Y-11992555D01*
X11403515Y-11992555D02*
X11413039Y-12011603D01*
X11413039Y-12011603D02*
X11422562Y-12049698D01*
X11422562Y-12049698D02*
X11422562Y-12078269D01*
X11422562Y-12078269D02*
X11413039Y-12116365D01*
X11413039Y-12116365D02*
X11403515Y-12135412D01*
X11403515Y-12135412D02*
X11384467Y-12154460D01*
X11384467Y-12154460D02*
X11355896Y-12163984D01*
X11355896Y-12163984D02*
X11308277Y-12163984D01*
X11508277Y-12163984D02*
X11508277Y-12030650D01*
X11508277Y-12068746D02*
X11517801Y-12049698D01*
X11517801Y-12049698D02*
X11527324Y-12040174D01*
X11527324Y-12040174D02*
X11546372Y-12030650D01*
X11546372Y-12030650D02*
X11565420Y-12030650D01*
X11632086Y-12163984D02*
X11632086Y-12030650D01*
X11632086Y-11963984D02*
X11622562Y-11973508D01*
X11622562Y-11973508D02*
X11632086Y-11983031D01*
X11632086Y-11983031D02*
X11641610Y-11973508D01*
X11641610Y-11973508D02*
X11632086Y-11963984D01*
X11632086Y-11963984D02*
X11632086Y-11983031D01*
X11755896Y-12163984D02*
X11736848Y-12154460D01*
X11736848Y-12154460D02*
X11727324Y-12135412D01*
X11727324Y-12135412D02*
X11727324Y-11963984D01*
X11860658Y-12163984D02*
X11841610Y-12154460D01*
X11841610Y-12154460D02*
X11832086Y-12135412D01*
X11832086Y-12135412D02*
X11832086Y-11963984D01*
X12089229Y-12163984D02*
X12089229Y-11963984D01*
X12089229Y-11963984D02*
X12155896Y-12106841D01*
X12155896Y-12106841D02*
X12222562Y-11963984D01*
X12222562Y-11963984D02*
X12222562Y-12163984D01*
X12403515Y-12163984D02*
X12403515Y-12059222D01*
X12403515Y-12059222D02*
X12393991Y-12040174D01*
X12393991Y-12040174D02*
X12374943Y-12030650D01*
X12374943Y-12030650D02*
X12336848Y-12030650D01*
X12336848Y-12030650D02*
X12317801Y-12040174D01*
X12403515Y-12154460D02*
X12384467Y-12163984D01*
X12384467Y-12163984D02*
X12336848Y-12163984D01*
X12336848Y-12163984D02*
X12317801Y-12154460D01*
X12317801Y-12154460D02*
X12308277Y-12135412D01*
X12308277Y-12135412D02*
X12308277Y-12116365D01*
X12308277Y-12116365D02*
X12317801Y-12097317D01*
X12317801Y-12097317D02*
X12336848Y-12087793D01*
X12336848Y-12087793D02*
X12384467Y-12087793D01*
X12384467Y-12087793D02*
X12403515Y-12078269D01*
X12498753Y-12030650D02*
X12498753Y-12230650D01*
X12498753Y-12040174D02*
X12517801Y-12030650D01*
X12517801Y-12030650D02*
X12555896Y-12030650D01*
X12555896Y-12030650D02*
X12574943Y-12040174D01*
X12574943Y-12040174D02*
X12584467Y-12049698D01*
X12584467Y-12049698D02*
X12593991Y-12068746D01*
X12593991Y-12068746D02*
X12593991Y-12125888D01*
X12593991Y-12125888D02*
X12584467Y-12144936D01*
X12584467Y-12144936D02*
X12574943Y-12154460D01*
X12574943Y-12154460D02*
X12555896Y-12163984D01*
X12555896Y-12163984D02*
X12517801Y-12163984D01*
X12517801Y-12163984D02*
X12498753Y-12154460D01*
X12679705Y-12144936D02*
X12689229Y-12154460D01*
X12689229Y-12154460D02*
X12679705Y-12163984D01*
X12679705Y-12163984D02*
X12670182Y-12154460D01*
X12670182Y-12154460D02*
X12679705Y-12144936D01*
X12679705Y-12144936D02*
X12679705Y-12163984D01*
X12679705Y-12040174D02*
X12689229Y-12049698D01*
X12689229Y-12049698D02*
X12679705Y-12059222D01*
X12679705Y-12059222D02*
X12670182Y-12049698D01*
X12670182Y-12049698D02*
X12679705Y-12040174D01*
X12679705Y-12040174D02*
X12679705Y-12059222D01*
M02*
