G04 #@! TF.GenerationSoftware,KiCad,Pcbnew,9.0.1*
G04 #@! TF.CreationDate,2025-08-14T10:09:53+05:00*
G04 #@! TF.ProjectId,ac_to_dc_converter,61635f74-6f5f-4646-935f-636f6e766572,rev?*
G04 #@! TF.SameCoordinates,Original*
G04 #@! TF.FileFunction,Legend,Bot*
G04 #@! TF.FilePolarity,Positive*
%FSLAX46Y46*%
G04 Gerber Fmt 4.6, Leading zero omitted, Abs format (unit mm)*
G04 Created by KiCad (PCBNEW 9.0.1) date 2025-08-14 10:09:53*
%MOMM*%
%LPD*%
G01*
G04 APERTURE LIST*
%ADD10C,0.010000*%
G04 APERTURE END LIST*
D10*
X125855406Y-110874949D02*
X125881127Y-110890647D01*
X125907778Y-110912227D01*
X125907778Y-111559684D01*
X125881127Y-111581264D01*
X125849767Y-111598739D01*
X125813966Y-111599575D01*
X125782528Y-111579082D01*
X125778652Y-111574416D01*
X125773186Y-111564949D01*
X125768979Y-111551267D01*
X125765867Y-111530748D01*
X125763687Y-111500768D01*
X125762276Y-111458704D01*
X125761471Y-111401932D01*
X125761107Y-111327830D01*
X125761022Y-111233773D01*
X125761022Y-110912227D01*
X125787673Y-110890647D01*
X125811386Y-110875877D01*
X125834400Y-110869067D01*
X125855406Y-110874949D01*
G36*
X125855406Y-110874949D02*
G01*
X125881127Y-110890647D01*
X125907778Y-110912227D01*
X125907778Y-111559684D01*
X125881127Y-111581264D01*
X125849767Y-111598739D01*
X125813966Y-111599575D01*
X125782528Y-111579082D01*
X125778652Y-111574416D01*
X125773186Y-111564949D01*
X125768979Y-111551267D01*
X125765867Y-111530748D01*
X125763687Y-111500768D01*
X125762276Y-111458704D01*
X125761471Y-111401932D01*
X125761107Y-111327830D01*
X125761022Y-111233773D01*
X125761022Y-110912227D01*
X125787673Y-110890647D01*
X125811386Y-110875877D01*
X125834400Y-110869067D01*
X125855406Y-110874949D01*
G37*
X132986137Y-110873463D02*
X133020291Y-110896776D01*
X133048000Y-110924485D01*
X133048000Y-111237537D01*
X133047959Y-111321567D01*
X133047701Y-111395789D01*
X133047030Y-111452541D01*
X133045752Y-111494512D01*
X133043673Y-111524389D01*
X133040599Y-111544861D01*
X133036334Y-111558614D01*
X133030684Y-111568337D01*
X133023455Y-111576717D01*
X132991991Y-111598181D01*
X132956826Y-111599947D01*
X132923822Y-111580267D01*
X132918516Y-111574398D01*
X132913066Y-111565314D01*
X132908900Y-111551973D01*
X132905846Y-111531757D01*
X132903732Y-111502049D01*
X132902386Y-111460232D01*
X132901638Y-111403689D01*
X132901314Y-111329802D01*
X132901245Y-111235956D01*
X132901284Y-111160294D01*
X132901539Y-111082385D01*
X132902183Y-111022375D01*
X132903387Y-110977648D01*
X132905324Y-110945585D01*
X132908164Y-110923571D01*
X132912079Y-110908987D01*
X132917242Y-110899218D01*
X132923822Y-110891645D01*
X132953006Y-110872623D01*
X132986137Y-110873463D01*
G36*
X132986137Y-110873463D02*
G01*
X133020291Y-110896776D01*
X133048000Y-110924485D01*
X133048000Y-111237537D01*
X133047959Y-111321567D01*
X133047701Y-111395789D01*
X133047030Y-111452541D01*
X133045752Y-111494512D01*
X133043673Y-111524389D01*
X133040599Y-111544861D01*
X133036334Y-111558614D01*
X133030684Y-111568337D01*
X133023455Y-111576717D01*
X132991991Y-111598181D01*
X132956826Y-111599947D01*
X132923822Y-111580267D01*
X132918516Y-111574398D01*
X132913066Y-111565314D01*
X132908900Y-111551973D01*
X132905846Y-111531757D01*
X132903732Y-111502049D01*
X132902386Y-111460232D01*
X132901638Y-111403689D01*
X132901314Y-111329802D01*
X132901245Y-111235956D01*
X132901284Y-111160294D01*
X132901539Y-111082385D01*
X132902183Y-111022375D01*
X132903387Y-110977648D01*
X132905324Y-110945585D01*
X132908164Y-110923571D01*
X132912079Y-110908987D01*
X132917242Y-110899218D01*
X132923822Y-110891645D01*
X132953006Y-110872623D01*
X132986137Y-110873463D01*
G37*
X132454562Y-105632850D02*
X132537313Y-105660053D01*
X132612406Y-105705484D01*
X132684298Y-105771302D01*
X132722846Y-105815567D01*
X132762256Y-105873961D01*
X132787446Y-105934586D01*
X132800861Y-106003865D01*
X132804948Y-106088222D01*
X132804669Y-106134307D01*
X132802460Y-106175450D01*
X132796894Y-106207582D01*
X132786586Y-106238122D01*
X132770148Y-106274489D01*
X132756200Y-106301728D01*
X132697665Y-106387429D01*
X132625619Y-106456617D01*
X132541947Y-106507741D01*
X132448531Y-106539250D01*
X132415434Y-106546225D01*
X132374960Y-106553094D01*
X132341999Y-106554919D01*
X132307698Y-106551947D01*
X132263200Y-106544426D01*
X132211934Y-106532002D01*
X132121434Y-106494112D01*
X132042345Y-106439836D01*
X131976528Y-106371770D01*
X131925840Y-106292511D01*
X131892140Y-106204654D01*
X131877286Y-106110795D01*
X131883136Y-106013530D01*
X131909399Y-105917220D01*
X131954418Y-105828494D01*
X132015373Y-105753419D01*
X132090184Y-105693641D01*
X132176768Y-105650809D01*
X132273043Y-105626571D01*
X132376928Y-105622576D01*
X132454562Y-105632850D01*
G36*
X132454562Y-105632850D02*
G01*
X132537313Y-105660053D01*
X132612406Y-105705484D01*
X132684298Y-105771302D01*
X132722846Y-105815567D01*
X132762256Y-105873961D01*
X132787446Y-105934586D01*
X132800861Y-106003865D01*
X132804948Y-106088222D01*
X132804669Y-106134307D01*
X132802460Y-106175450D01*
X132796894Y-106207582D01*
X132786586Y-106238122D01*
X132770148Y-106274489D01*
X132756200Y-106301728D01*
X132697665Y-106387429D01*
X132625619Y-106456617D01*
X132541947Y-106507741D01*
X132448531Y-106539250D01*
X132415434Y-106546225D01*
X132374960Y-106553094D01*
X132341999Y-106554919D01*
X132307698Y-106551947D01*
X132263200Y-106544426D01*
X132211934Y-106532002D01*
X132121434Y-106494112D01*
X132042345Y-106439836D01*
X131976528Y-106371770D01*
X131925840Y-106292511D01*
X131892140Y-106204654D01*
X131877286Y-106110795D01*
X131883136Y-106013530D01*
X131909399Y-105917220D01*
X131954418Y-105828494D01*
X132015373Y-105753419D01*
X132090184Y-105693641D01*
X132176768Y-105650809D01*
X132273043Y-105626571D01*
X132376928Y-105622576D01*
X132454562Y-105632850D01*
G37*
X125155767Y-110869068D02*
X125249890Y-110869158D01*
X125324405Y-110869498D01*
X125381811Y-110870239D01*
X125424611Y-110871535D01*
X125455304Y-110873537D01*
X125476391Y-110876396D01*
X125490373Y-110880266D01*
X125499750Y-110885298D01*
X125507022Y-110891645D01*
X125525828Y-110924362D01*
X125527275Y-110961939D01*
X125510917Y-110995178D01*
X125509557Y-110996631D01*
X125498354Y-111004992D01*
X125481252Y-111010547D01*
X125454082Y-111013840D01*
X125412678Y-111015418D01*
X125352873Y-111015822D01*
X125213511Y-111015822D01*
X125213511Y-111279589D01*
X125213436Y-111355417D01*
X125213028Y-111422083D01*
X125212046Y-111471867D01*
X125210250Y-111507784D01*
X125207399Y-111532850D01*
X125203253Y-111550081D01*
X125197571Y-111562492D01*
X125190114Y-111573100D01*
X125187824Y-111575906D01*
X125156646Y-111598548D01*
X125122266Y-111600112D01*
X125089334Y-111580267D01*
X125082355Y-111572191D01*
X125076883Y-111561593D01*
X125072863Y-111545749D01*
X125070072Y-111521773D01*
X125068288Y-111486774D01*
X125067289Y-111437864D01*
X125066852Y-111372154D01*
X125066756Y-111286756D01*
X125066756Y-111015822D01*
X124920820Y-111015822D01*
X124909720Y-111015821D01*
X124853202Y-111015596D01*
X124814358Y-111014457D01*
X124788965Y-111011657D01*
X124772804Y-111006450D01*
X124761652Y-110998089D01*
X124751289Y-110985826D01*
X124735441Y-110955138D01*
X124738543Y-110921358D01*
X124764187Y-110888822D01*
X124769129Y-110885105D01*
X124779338Y-110880269D01*
X124794764Y-110876506D01*
X124817886Y-110873683D01*
X124851183Y-110871670D01*
X124897137Y-110870333D01*
X124958228Y-110869542D01*
X125036935Y-110869163D01*
X125135740Y-110869067D01*
X125155767Y-110869068D01*
G36*
X125155767Y-110869068D02*
G01*
X125249890Y-110869158D01*
X125324405Y-110869498D01*
X125381811Y-110870239D01*
X125424611Y-110871535D01*
X125455304Y-110873537D01*
X125476391Y-110876396D01*
X125490373Y-110880266D01*
X125499750Y-110885298D01*
X125507022Y-110891645D01*
X125525828Y-110924362D01*
X125527275Y-110961939D01*
X125510917Y-110995178D01*
X125509557Y-110996631D01*
X125498354Y-111004992D01*
X125481252Y-111010547D01*
X125454082Y-111013840D01*
X125412678Y-111015418D01*
X125352873Y-111015822D01*
X125213511Y-111015822D01*
X125213511Y-111279589D01*
X125213436Y-111355417D01*
X125213028Y-111422083D01*
X125212046Y-111471867D01*
X125210250Y-111507784D01*
X125207399Y-111532850D01*
X125203253Y-111550081D01*
X125197571Y-111562492D01*
X125190114Y-111573100D01*
X125187824Y-111575906D01*
X125156646Y-111598548D01*
X125122266Y-111600112D01*
X125089334Y-111580267D01*
X125082355Y-111572191D01*
X125076883Y-111561593D01*
X125072863Y-111545749D01*
X125070072Y-111521773D01*
X125068288Y-111486774D01*
X125067289Y-111437864D01*
X125066852Y-111372154D01*
X125066756Y-111286756D01*
X125066756Y-111015822D01*
X124920820Y-111015822D01*
X124909720Y-111015821D01*
X124853202Y-111015596D01*
X124814358Y-111014457D01*
X124788965Y-111011657D01*
X124772804Y-111006450D01*
X124761652Y-110998089D01*
X124751289Y-110985826D01*
X124735441Y-110955138D01*
X124738543Y-110921358D01*
X124764187Y-110888822D01*
X124769129Y-110885105D01*
X124779338Y-110880269D01*
X124794764Y-110876506D01*
X124817886Y-110873683D01*
X124851183Y-110871670D01*
X124897137Y-110870333D01*
X124958228Y-110869542D01*
X125036935Y-110869163D01*
X125135740Y-110869067D01*
X125155767Y-110869068D01*
G37*
X124479734Y-110891645D02*
X124485366Y-110897835D01*
X124490456Y-110906041D01*
X124494543Y-110917817D01*
X124497721Y-110935276D01*
X124500087Y-110960530D01*
X124501738Y-110995690D01*
X124502769Y-111042869D01*
X124503277Y-111104177D01*
X124503359Y-111181727D01*
X124503109Y-111277631D01*
X124502625Y-111394000D01*
X124502557Y-111408175D01*
X124501971Y-111469937D01*
X124500648Y-111513620D01*
X124498103Y-111543001D01*
X124493848Y-111561855D01*
X124487396Y-111573959D01*
X124478262Y-111583089D01*
X124444804Y-111600506D01*
X124409856Y-111597604D01*
X124378953Y-111573100D01*
X124369944Y-111559897D01*
X124362492Y-111541361D01*
X124358124Y-111515333D01*
X124356069Y-111476787D01*
X124355556Y-111420700D01*
X124355556Y-111298045D01*
X123858845Y-111298045D01*
X123858845Y-111432871D01*
X123858772Y-111468662D01*
X123858009Y-111514992D01*
X123855833Y-111545526D01*
X123851536Y-111564557D01*
X123844412Y-111576374D01*
X123833755Y-111585271D01*
X123801504Y-111600341D01*
X123766217Y-111597673D01*
X123735486Y-111573100D01*
X123730831Y-111566845D01*
X123724895Y-111556321D01*
X123720364Y-111542391D01*
X123717048Y-111522317D01*
X123714759Y-111493360D01*
X123713308Y-111452780D01*
X123712505Y-111397840D01*
X123712162Y-111325799D01*
X123712089Y-111233920D01*
X123712089Y-110924485D01*
X123739798Y-110896776D01*
X123771177Y-110874533D01*
X123804406Y-110871844D01*
X123836267Y-110891645D01*
X123844553Y-110901415D01*
X123851965Y-110917307D01*
X123856302Y-110941275D01*
X123858338Y-110978148D01*
X123858845Y-111032756D01*
X123858845Y-111151289D01*
X124355556Y-111151289D01*
X124355556Y-111035776D01*
X124355994Y-110984078D01*
X124357958Y-110949554D01*
X124362474Y-110926978D01*
X124370567Y-110911126D01*
X124383265Y-110896776D01*
X124414643Y-110874533D01*
X124447872Y-110871844D01*
X124479734Y-110891645D01*
G36*
X124479734Y-110891645D02*
G01*
X124485366Y-110897835D01*
X124490456Y-110906041D01*
X124494543Y-110917817D01*
X124497721Y-110935276D01*
X124500087Y-110960530D01*
X124501738Y-110995690D01*
X124502769Y-111042869D01*
X124503277Y-111104177D01*
X124503359Y-111181727D01*
X124503109Y-111277631D01*
X124502625Y-111394000D01*
X124502557Y-111408175D01*
X124501971Y-111469937D01*
X124500648Y-111513620D01*
X124498103Y-111543001D01*
X124493848Y-111561855D01*
X124487396Y-111573959D01*
X124478262Y-111583089D01*
X124444804Y-111600506D01*
X124409856Y-111597604D01*
X124378953Y-111573100D01*
X124369944Y-111559897D01*
X124362492Y-111541361D01*
X124358124Y-111515333D01*
X124356069Y-111476787D01*
X124355556Y-111420700D01*
X124355556Y-111298045D01*
X123858845Y-111298045D01*
X123858845Y-111432871D01*
X123858772Y-111468662D01*
X123858009Y-111514992D01*
X123855833Y-111545526D01*
X123851536Y-111564557D01*
X123844412Y-111576374D01*
X123833755Y-111585271D01*
X123801504Y-111600341D01*
X123766217Y-111597673D01*
X123735486Y-111573100D01*
X123730831Y-111566845D01*
X123724895Y-111556321D01*
X123720364Y-111542391D01*
X123717048Y-111522317D01*
X123714759Y-111493360D01*
X123713308Y-111452780D01*
X123712505Y-111397840D01*
X123712162Y-111325799D01*
X123712089Y-111233920D01*
X123712089Y-110924485D01*
X123739798Y-110896776D01*
X123771177Y-110874533D01*
X123804406Y-110871844D01*
X123836267Y-110891645D01*
X123844553Y-110901415D01*
X123851965Y-110917307D01*
X123856302Y-110941275D01*
X123858338Y-110978148D01*
X123858845Y-111032756D01*
X123858845Y-111151289D01*
X124355556Y-111151289D01*
X124355556Y-111035776D01*
X124355994Y-110984078D01*
X124357958Y-110949554D01*
X124362474Y-110926978D01*
X124370567Y-110911126D01*
X124383265Y-110896776D01*
X124414643Y-110874533D01*
X124447872Y-110871844D01*
X124479734Y-110891645D01*
G37*
X129185133Y-111480396D02*
X129183163Y-111513175D01*
X129180235Y-111536095D01*
X129176158Y-111551897D01*
X129170743Y-111563319D01*
X129163803Y-111573100D01*
X129140406Y-111602845D01*
X128974714Y-111602251D01*
X128939918Y-111601953D01*
X128841435Y-111598522D01*
X128760473Y-111590839D01*
X128693379Y-111578282D01*
X128636496Y-111560227D01*
X128586169Y-111536052D01*
X128582810Y-111534135D01*
X128524998Y-111497417D01*
X128482644Y-111460451D01*
X128449828Y-111416966D01*
X128420628Y-111360689D01*
X128416346Y-111351073D01*
X128393769Y-111287887D01*
X128388034Y-111242333D01*
X128537279Y-111242333D01*
X128542892Y-111267061D01*
X128548618Y-111282939D01*
X128581548Y-111342847D01*
X128628886Y-111388600D01*
X128692652Y-111421736D01*
X128774861Y-111443790D01*
X128777655Y-111444292D01*
X128823940Y-111450255D01*
X128880336Y-111454483D01*
X128935274Y-111456089D01*
X129029156Y-111456089D01*
X129029156Y-111015822D01*
X128941667Y-111016270D01*
X128874747Y-111018746D01*
X128782349Y-111029998D01*
X128703034Y-111049537D01*
X128641060Y-111076511D01*
X128610120Y-111097240D01*
X128582000Y-111127006D01*
X128558660Y-111169434D01*
X128551533Y-111185400D01*
X128539709Y-111217902D01*
X128537279Y-111242333D01*
X128388034Y-111242333D01*
X128386797Y-111232509D01*
X128395399Y-111177483D01*
X128419541Y-111115351D01*
X128420337Y-111113658D01*
X128460788Y-111044236D01*
X128511473Y-110987638D01*
X128574198Y-110943070D01*
X128650774Y-110909741D01*
X128743009Y-110886861D01*
X128852712Y-110873636D01*
X128981691Y-110869275D01*
X128985263Y-110869270D01*
X129045283Y-110869410D01*
X129087214Y-110870446D01*
X129115328Y-110873040D01*
X129133897Y-110877853D01*
X129147194Y-110885544D01*
X129159491Y-110896776D01*
X129187200Y-110924485D01*
X129187200Y-111233920D01*
X129187175Y-111295526D01*
X129186950Y-111374311D01*
X129186332Y-111435021D01*
X129185775Y-111456089D01*
X129185133Y-111480396D01*
G36*
X129185133Y-111480396D02*
G01*
X129183163Y-111513175D01*
X129180235Y-111536095D01*
X129176158Y-111551897D01*
X129170743Y-111563319D01*
X129163803Y-111573100D01*
X129140406Y-111602845D01*
X128974714Y-111602251D01*
X128939918Y-111601953D01*
X128841435Y-111598522D01*
X128760473Y-111590839D01*
X128693379Y-111578282D01*
X128636496Y-111560227D01*
X128586169Y-111536052D01*
X128582810Y-111534135D01*
X128524998Y-111497417D01*
X128482644Y-111460451D01*
X128449828Y-111416966D01*
X128420628Y-111360689D01*
X128416346Y-111351073D01*
X128393769Y-111287887D01*
X128388034Y-111242333D01*
X128537279Y-111242333D01*
X128542892Y-111267061D01*
X128548618Y-111282939D01*
X128581548Y-111342847D01*
X128628886Y-111388600D01*
X128692652Y-111421736D01*
X128774861Y-111443790D01*
X128777655Y-111444292D01*
X128823940Y-111450255D01*
X128880336Y-111454483D01*
X128935274Y-111456089D01*
X129029156Y-111456089D01*
X129029156Y-111015822D01*
X128941667Y-111016270D01*
X128874747Y-111018746D01*
X128782349Y-111029998D01*
X128703034Y-111049537D01*
X128641060Y-111076511D01*
X128610120Y-111097240D01*
X128582000Y-111127006D01*
X128558660Y-111169434D01*
X128551533Y-111185400D01*
X128539709Y-111217902D01*
X128537279Y-111242333D01*
X128388034Y-111242333D01*
X128386797Y-111232509D01*
X128395399Y-111177483D01*
X128419541Y-111115351D01*
X128420337Y-111113658D01*
X128460788Y-111044236D01*
X128511473Y-110987638D01*
X128574198Y-110943070D01*
X128650774Y-110909741D01*
X128743009Y-110886861D01*
X128852712Y-110873636D01*
X128981691Y-110869275D01*
X128985263Y-110869270D01*
X129045283Y-110869410D01*
X129087214Y-110870446D01*
X129115328Y-110873040D01*
X129133897Y-110877853D01*
X129147194Y-110885544D01*
X129159491Y-110896776D01*
X129187200Y-110924485D01*
X129187200Y-111233920D01*
X129187175Y-111295526D01*
X129186950Y-111374311D01*
X129186332Y-111435021D01*
X129185775Y-111456089D01*
X129185133Y-111480396D01*
G37*
X136276817Y-111054427D02*
X136276870Y-111135041D01*
X136276622Y-111235956D01*
X136276583Y-111311617D01*
X136276328Y-111389526D01*
X136275684Y-111449536D01*
X136274480Y-111494264D01*
X136272543Y-111526326D01*
X136269703Y-111548340D01*
X136265788Y-111562924D01*
X136260626Y-111572694D01*
X136254045Y-111580267D01*
X136247077Y-111586501D01*
X136234079Y-111593801D01*
X136214931Y-111598554D01*
X136185528Y-111601292D01*
X136141762Y-111602545D01*
X136079528Y-111602845D01*
X136030582Y-111602469D01*
X135923722Y-111598041D01*
X135834494Y-111587953D01*
X135759696Y-111571365D01*
X135696125Y-111547435D01*
X135640579Y-111515321D01*
X135589854Y-111474182D01*
X135583866Y-111468330D01*
X135546999Y-111419821D01*
X135515899Y-111359013D01*
X135494417Y-111294769D01*
X135489136Y-111256026D01*
X135636353Y-111256026D01*
X135654635Y-111306961D01*
X135684305Y-111352878D01*
X135731002Y-111395287D01*
X135792392Y-111425090D01*
X135871538Y-111444226D01*
X135873028Y-111444464D01*
X135921999Y-111450256D01*
X135980693Y-111454396D01*
X136036734Y-111456004D01*
X136129867Y-111456089D01*
X136129867Y-111015822D01*
X136053667Y-111015808D01*
X136050639Y-111015817D01*
X135999519Y-111017782D01*
X135939416Y-111022507D01*
X135882708Y-111029035D01*
X135832750Y-111038331D01*
X135757998Y-111064600D01*
X135700489Y-111103899D01*
X135658988Y-111156933D01*
X135637771Y-111208200D01*
X135636353Y-111256026D01*
X135489136Y-111256026D01*
X135486400Y-111235956D01*
X135487679Y-111214739D01*
X135499991Y-111157323D01*
X135522520Y-111097413D01*
X135551750Y-111043363D01*
X135584167Y-111003532D01*
X135603708Y-110986510D01*
X135658420Y-110947322D01*
X135718723Y-110917193D01*
X135787919Y-110895232D01*
X135869311Y-110880550D01*
X135966200Y-110872259D01*
X136081889Y-110869467D01*
X136121371Y-110869066D01*
X136167082Y-110868653D01*
X136202883Y-110870457D01*
X136229974Y-110876739D01*
X136249556Y-110889759D01*
X136262830Y-110911778D01*
X136270998Y-110945055D01*
X136275260Y-110991851D01*
X136275857Y-111015822D01*
X136276817Y-111054427D01*
G36*
X136276817Y-111054427D02*
G01*
X136276870Y-111135041D01*
X136276622Y-111235956D01*
X136276583Y-111311617D01*
X136276328Y-111389526D01*
X136275684Y-111449536D01*
X136274480Y-111494264D01*
X136272543Y-111526326D01*
X136269703Y-111548340D01*
X136265788Y-111562924D01*
X136260626Y-111572694D01*
X136254045Y-111580267D01*
X136247077Y-111586501D01*
X136234079Y-111593801D01*
X136214931Y-111598554D01*
X136185528Y-111601292D01*
X136141762Y-111602545D01*
X136079528Y-111602845D01*
X136030582Y-111602469D01*
X135923722Y-111598041D01*
X135834494Y-111587953D01*
X135759696Y-111571365D01*
X135696125Y-111547435D01*
X135640579Y-111515321D01*
X135589854Y-111474182D01*
X135583866Y-111468330D01*
X135546999Y-111419821D01*
X135515899Y-111359013D01*
X135494417Y-111294769D01*
X135489136Y-111256026D01*
X135636353Y-111256026D01*
X135654635Y-111306961D01*
X135684305Y-111352878D01*
X135731002Y-111395287D01*
X135792392Y-111425090D01*
X135871538Y-111444226D01*
X135873028Y-111444464D01*
X135921999Y-111450256D01*
X135980693Y-111454396D01*
X136036734Y-111456004D01*
X136129867Y-111456089D01*
X136129867Y-111015822D01*
X136053667Y-111015808D01*
X136050639Y-111015817D01*
X135999519Y-111017782D01*
X135939416Y-111022507D01*
X135882708Y-111029035D01*
X135832750Y-111038331D01*
X135757998Y-111064600D01*
X135700489Y-111103899D01*
X135658988Y-111156933D01*
X135637771Y-111208200D01*
X135636353Y-111256026D01*
X135489136Y-111256026D01*
X135486400Y-111235956D01*
X135487679Y-111214739D01*
X135499991Y-111157323D01*
X135522520Y-111097413D01*
X135551750Y-111043363D01*
X135584167Y-111003532D01*
X135603708Y-110986510D01*
X135658420Y-110947322D01*
X135718723Y-110917193D01*
X135787919Y-110895232D01*
X135869311Y-110880550D01*
X135966200Y-110872259D01*
X136081889Y-110869467D01*
X136121371Y-110869066D01*
X136167082Y-110868653D01*
X136202883Y-110870457D01*
X136229974Y-110876739D01*
X136249556Y-110889759D01*
X136262830Y-110911778D01*
X136270998Y-110945055D01*
X136275260Y-110991851D01*
X136275857Y-111015822D01*
X136276817Y-111054427D01*
G37*
X131331893Y-110867892D02*
X131343301Y-110874029D01*
X131353850Y-110884691D01*
X131365136Y-110898811D01*
X131369589Y-110904772D01*
X131375588Y-110915268D01*
X131380167Y-110929093D01*
X131383519Y-110948998D01*
X131385833Y-110977732D01*
X131387301Y-111018045D01*
X131388113Y-111072687D01*
X131388460Y-111144407D01*
X131388534Y-111235956D01*
X131388511Y-111294486D01*
X131388292Y-111373573D01*
X131387683Y-111434516D01*
X131386492Y-111480062D01*
X131384529Y-111512963D01*
X131381603Y-111535968D01*
X131377523Y-111551826D01*
X131372097Y-111563286D01*
X131365136Y-111573100D01*
X131334708Y-111597493D01*
X131299765Y-111600372D01*
X131262784Y-111581282D01*
X131258600Y-111577807D01*
X131250424Y-111569279D01*
X131244364Y-111557728D01*
X131239981Y-111539896D01*
X131236839Y-111512524D01*
X131234502Y-111472354D01*
X131232531Y-111416128D01*
X131230489Y-111340589D01*
X131224845Y-111121458D01*
X130959556Y-111362099D01*
X130885722Y-111428875D01*
X130820542Y-111486991D01*
X130768348Y-111531949D01*
X130727273Y-111564871D01*
X130695455Y-111586879D01*
X130671026Y-111599094D01*
X130652124Y-111602639D01*
X130636883Y-111598636D01*
X130623439Y-111588207D01*
X130609927Y-111572474D01*
X130603682Y-111563991D01*
X130598050Y-111553413D01*
X130593839Y-111539255D01*
X130590887Y-111518803D01*
X130589032Y-111489342D01*
X130588113Y-111448161D01*
X130587968Y-111392544D01*
X130588435Y-111319779D01*
X130589352Y-111227151D01*
X130592667Y-110912199D01*
X130619318Y-110890633D01*
X130645383Y-110874441D01*
X130678241Y-110871670D01*
X130712772Y-110890623D01*
X130717084Y-110894208D01*
X130725216Y-110902737D01*
X130731245Y-110914329D01*
X130735606Y-110932235D01*
X130738734Y-110959706D01*
X130741063Y-110999994D01*
X130743029Y-111056351D01*
X130745067Y-111132029D01*
X130750711Y-111351878D01*
X130931334Y-111188084D01*
X131018072Y-111109451D01*
X131093843Y-111041058D01*
X131155980Y-110985708D01*
X131206078Y-110942338D01*
X131245735Y-110909881D01*
X131276548Y-110887273D01*
X131300114Y-110873448D01*
X131318030Y-110867343D01*
X131331893Y-110867892D01*
G36*
X131331893Y-110867892D02*
G01*
X131343301Y-110874029D01*
X131353850Y-110884691D01*
X131365136Y-110898811D01*
X131369589Y-110904772D01*
X131375588Y-110915268D01*
X131380167Y-110929093D01*
X131383519Y-110948998D01*
X131385833Y-110977732D01*
X131387301Y-111018045D01*
X131388113Y-111072687D01*
X131388460Y-111144407D01*
X131388534Y-111235956D01*
X131388511Y-111294486D01*
X131388292Y-111373573D01*
X131387683Y-111434516D01*
X131386492Y-111480062D01*
X131384529Y-111512963D01*
X131381603Y-111535968D01*
X131377523Y-111551826D01*
X131372097Y-111563286D01*
X131365136Y-111573100D01*
X131334708Y-111597493D01*
X131299765Y-111600372D01*
X131262784Y-111581282D01*
X131258600Y-111577807D01*
X131250424Y-111569279D01*
X131244364Y-111557728D01*
X131239981Y-111539896D01*
X131236839Y-111512524D01*
X131234502Y-111472354D01*
X131232531Y-111416128D01*
X131230489Y-111340589D01*
X131224845Y-111121458D01*
X130959556Y-111362099D01*
X130885722Y-111428875D01*
X130820542Y-111486991D01*
X130768348Y-111531949D01*
X130727273Y-111564871D01*
X130695455Y-111586879D01*
X130671026Y-111599094D01*
X130652124Y-111602639D01*
X130636883Y-111598636D01*
X130623439Y-111588207D01*
X130609927Y-111572474D01*
X130603682Y-111563991D01*
X130598050Y-111553413D01*
X130593839Y-111539255D01*
X130590887Y-111518803D01*
X130589032Y-111489342D01*
X130588113Y-111448161D01*
X130587968Y-111392544D01*
X130588435Y-111319779D01*
X130589352Y-111227151D01*
X130592667Y-110912199D01*
X130619318Y-110890633D01*
X130645383Y-110874441D01*
X130678241Y-110871670D01*
X130712772Y-110890623D01*
X130717084Y-110894208D01*
X130725216Y-110902737D01*
X130731245Y-110914329D01*
X130735606Y-110932235D01*
X130738734Y-110959706D01*
X130741063Y-110999994D01*
X130743029Y-111056351D01*
X130745067Y-111132029D01*
X130750711Y-111351878D01*
X130931334Y-111188084D01*
X131018072Y-111109451D01*
X131093843Y-111041058D01*
X131155980Y-110985708D01*
X131206078Y-110942338D01*
X131245735Y-110909881D01*
X131276548Y-110887273D01*
X131300114Y-110873448D01*
X131318030Y-110867343D01*
X131331893Y-110867892D01*
G37*
X132129150Y-110874179D02*
X132235157Y-110890494D01*
X132328969Y-110918545D01*
X132407765Y-110957452D01*
X132468719Y-111006334D01*
X132494789Y-111039195D01*
X132524297Y-111088394D01*
X132549568Y-111142252D01*
X132567218Y-111193419D01*
X132573858Y-111234544D01*
X132572298Y-111254259D01*
X132559357Y-111305592D01*
X132536194Y-111362118D01*
X132506302Y-111416035D01*
X132473173Y-111459539D01*
X132462977Y-111469887D01*
X132395892Y-111521662D01*
X132315766Y-111561554D01*
X132229556Y-111585956D01*
X132174592Y-111594068D01*
X132081139Y-111600673D01*
X131991358Y-111598586D01*
X131908869Y-111588340D01*
X131837286Y-111570470D01*
X131780228Y-111545508D01*
X131741311Y-111513988D01*
X131739936Y-111512012D01*
X131732848Y-111486786D01*
X131728609Y-111439535D01*
X131727200Y-111370071D01*
X131728060Y-111307838D01*
X131732780Y-111260456D01*
X131744470Y-111228353D01*
X131766239Y-111208800D01*
X131801198Y-111199070D01*
X131852456Y-111196433D01*
X131923123Y-111198161D01*
X131971743Y-111201173D01*
X132021939Y-111209366D01*
X132054433Y-111223419D01*
X132071892Y-111244654D01*
X132076983Y-111274394D01*
X132076877Y-111278936D01*
X132068175Y-111313730D01*
X132044165Y-111337147D01*
X132002900Y-111350347D01*
X131942431Y-111354489D01*
X131873956Y-111354489D01*
X131873956Y-111392841D01*
X131874006Y-111401976D01*
X131876227Y-111419227D01*
X131885494Y-111429521D01*
X131906875Y-111436459D01*
X131945436Y-111443641D01*
X131950910Y-111444575D01*
X132047860Y-111454478D01*
X132137852Y-111451559D01*
X132218760Y-111436829D01*
X132288459Y-111411299D01*
X132344824Y-111375978D01*
X132385729Y-111331879D01*
X132409051Y-111280012D01*
X132412663Y-111221388D01*
X132407145Y-111192494D01*
X132380461Y-111136604D01*
X132334273Y-111090945D01*
X132269291Y-111056108D01*
X132186229Y-111032690D01*
X132161555Y-111028241D01*
X132072226Y-111017742D01*
X131992419Y-111018971D01*
X131914326Y-111031906D01*
X131879183Y-111038696D01*
X131833745Y-111039713D01*
X131802430Y-111027182D01*
X131782277Y-111000395D01*
X131775893Y-110972148D01*
X131785379Y-110940924D01*
X131794708Y-110927499D01*
X131828943Y-110903967D01*
X131881565Y-110886095D01*
X131950081Y-110874599D01*
X132032000Y-110870192D01*
X132129150Y-110874179D01*
G36*
X132129150Y-110874179D02*
G01*
X132235157Y-110890494D01*
X132328969Y-110918545D01*
X132407765Y-110957452D01*
X132468719Y-111006334D01*
X132494789Y-111039195D01*
X132524297Y-111088394D01*
X132549568Y-111142252D01*
X132567218Y-111193419D01*
X132573858Y-111234544D01*
X132572298Y-111254259D01*
X132559357Y-111305592D01*
X132536194Y-111362118D01*
X132506302Y-111416035D01*
X132473173Y-111459539D01*
X132462977Y-111469887D01*
X132395892Y-111521662D01*
X132315766Y-111561554D01*
X132229556Y-111585956D01*
X132174592Y-111594068D01*
X132081139Y-111600673D01*
X131991358Y-111598586D01*
X131908869Y-111588340D01*
X131837286Y-111570470D01*
X131780228Y-111545508D01*
X131741311Y-111513988D01*
X131739936Y-111512012D01*
X131732848Y-111486786D01*
X131728609Y-111439535D01*
X131727200Y-111370071D01*
X131728060Y-111307838D01*
X131732780Y-111260456D01*
X131744470Y-111228353D01*
X131766239Y-111208800D01*
X131801198Y-111199070D01*
X131852456Y-111196433D01*
X131923123Y-111198161D01*
X131971743Y-111201173D01*
X132021939Y-111209366D01*
X132054433Y-111223419D01*
X132071892Y-111244654D01*
X132076983Y-111274394D01*
X132076877Y-111278936D01*
X132068175Y-111313730D01*
X132044165Y-111337147D01*
X132002900Y-111350347D01*
X131942431Y-111354489D01*
X131873956Y-111354489D01*
X131873956Y-111392841D01*
X131874006Y-111401976D01*
X131876227Y-111419227D01*
X131885494Y-111429521D01*
X131906875Y-111436459D01*
X131945436Y-111443641D01*
X131950910Y-111444575D01*
X132047860Y-111454478D01*
X132137852Y-111451559D01*
X132218760Y-111436829D01*
X132288459Y-111411299D01*
X132344824Y-111375978D01*
X132385729Y-111331879D01*
X132409051Y-111280012D01*
X132412663Y-111221388D01*
X132407145Y-111192494D01*
X132380461Y-111136604D01*
X132334273Y-111090945D01*
X132269291Y-111056108D01*
X132186229Y-111032690D01*
X132161555Y-111028241D01*
X132072226Y-111017742D01*
X131992419Y-111018971D01*
X131914326Y-111031906D01*
X131879183Y-111038696D01*
X131833745Y-111039713D01*
X131802430Y-111027182D01*
X131782277Y-111000395D01*
X131775893Y-110972148D01*
X131785379Y-110940924D01*
X131794708Y-110927499D01*
X131828943Y-110903967D01*
X131881565Y-110886095D01*
X131950081Y-110874599D01*
X132032000Y-110870192D01*
X132129150Y-110874179D01*
G37*
X130179803Y-110898811D02*
X130184752Y-110905495D01*
X130190596Y-110916066D01*
X130195057Y-110930153D01*
X130198321Y-110950478D01*
X130200574Y-110979765D01*
X130202002Y-111020737D01*
X130202792Y-111076117D01*
X130203129Y-111148628D01*
X130203200Y-111240994D01*
X130203171Y-111306911D01*
X130202939Y-111385228D01*
X130202319Y-111445496D01*
X130201126Y-111490393D01*
X130199179Y-111522602D01*
X130196294Y-111544800D01*
X130192288Y-111559669D01*
X130186979Y-111569889D01*
X130180183Y-111578138D01*
X130175668Y-111582795D01*
X130167438Y-111589282D01*
X130156078Y-111594194D01*
X130138810Y-111597749D01*
X130112855Y-111600167D01*
X130075436Y-111601667D01*
X130023773Y-111602467D01*
X129955089Y-111602787D01*
X129866606Y-111602845D01*
X129846931Y-111602838D01*
X129759906Y-111602572D01*
X129692254Y-111601806D01*
X129641299Y-111600392D01*
X129604367Y-111598180D01*
X129578783Y-111595022D01*
X129561871Y-111590769D01*
X129550957Y-111585271D01*
X129540464Y-111575285D01*
X129527203Y-111544168D01*
X129528386Y-111508280D01*
X129544550Y-111476733D01*
X129546739Y-111474457D01*
X129555427Y-111468189D01*
X129568769Y-111463523D01*
X129589752Y-111460227D01*
X129621363Y-111458068D01*
X129666590Y-111456814D01*
X129728420Y-111456231D01*
X129809839Y-111456089D01*
X130056445Y-111456089D01*
X130056445Y-111298045D01*
X129894006Y-111298045D01*
X129858338Y-111297964D01*
X129802568Y-111297167D01*
X129763430Y-111295162D01*
X129736976Y-111291521D01*
X129719259Y-111285812D01*
X129706329Y-111277607D01*
X129702686Y-111274423D01*
X129684278Y-111243448D01*
X129683644Y-111207112D01*
X129701183Y-111173493D01*
X129701245Y-111173424D01*
X129710916Y-111164798D01*
X129724209Y-111158742D01*
X129744917Y-111154811D01*
X129776828Y-111152556D01*
X129823734Y-111151531D01*
X129889424Y-111151289D01*
X130057571Y-111151289D01*
X130054186Y-111086378D01*
X130050800Y-111021467D01*
X129808723Y-111018414D01*
X129783707Y-111018086D01*
X129702087Y-111016606D01*
X129639768Y-111014222D01*
X129594154Y-111010227D01*
X129562652Y-111003913D01*
X129542667Y-110994574D01*
X129531604Y-110981503D01*
X129526869Y-110963992D01*
X129525867Y-110941335D01*
X129525873Y-110938970D01*
X129527027Y-110918939D01*
X129531824Y-110903146D01*
X129542632Y-110891090D01*
X129561817Y-110882267D01*
X129591745Y-110876175D01*
X129634783Y-110872311D01*
X129693299Y-110870174D01*
X129769657Y-110869260D01*
X129866226Y-110869067D01*
X130156406Y-110869067D01*
X130179803Y-110898811D01*
G36*
X130179803Y-110898811D02*
G01*
X130184752Y-110905495D01*
X130190596Y-110916066D01*
X130195057Y-110930153D01*
X130198321Y-110950478D01*
X130200574Y-110979765D01*
X130202002Y-111020737D01*
X130202792Y-111076117D01*
X130203129Y-111148628D01*
X130203200Y-111240994D01*
X130203171Y-111306911D01*
X130202939Y-111385228D01*
X130202319Y-111445496D01*
X130201126Y-111490393D01*
X130199179Y-111522602D01*
X130196294Y-111544800D01*
X130192288Y-111559669D01*
X130186979Y-111569889D01*
X130180183Y-111578138D01*
X130175668Y-111582795D01*
X130167438Y-111589282D01*
X130156078Y-111594194D01*
X130138810Y-111597749D01*
X130112855Y-111600167D01*
X130075436Y-111601667D01*
X130023773Y-111602467D01*
X129955089Y-111602787D01*
X129866606Y-111602845D01*
X129846931Y-111602838D01*
X129759906Y-111602572D01*
X129692254Y-111601806D01*
X129641299Y-111600392D01*
X129604367Y-111598180D01*
X129578783Y-111595022D01*
X129561871Y-111590769D01*
X129550957Y-111585271D01*
X129540464Y-111575285D01*
X129527203Y-111544168D01*
X129528386Y-111508280D01*
X129544550Y-111476733D01*
X129546739Y-111474457D01*
X129555427Y-111468189D01*
X129568769Y-111463523D01*
X129589752Y-111460227D01*
X129621363Y-111458068D01*
X129666590Y-111456814D01*
X129728420Y-111456231D01*
X129809839Y-111456089D01*
X130056445Y-111456089D01*
X130056445Y-111298045D01*
X129894006Y-111298045D01*
X129858338Y-111297964D01*
X129802568Y-111297167D01*
X129763430Y-111295162D01*
X129736976Y-111291521D01*
X129719259Y-111285812D01*
X129706329Y-111277607D01*
X129702686Y-111274423D01*
X129684278Y-111243448D01*
X129683644Y-111207112D01*
X129701183Y-111173493D01*
X129701245Y-111173424D01*
X129710916Y-111164798D01*
X129724209Y-111158742D01*
X129744917Y-111154811D01*
X129776828Y-111152556D01*
X129823734Y-111151531D01*
X129889424Y-111151289D01*
X130057571Y-111151289D01*
X130054186Y-111086378D01*
X130050800Y-111021467D01*
X129808723Y-111018414D01*
X129783707Y-111018086D01*
X129702087Y-111016606D01*
X129639768Y-111014222D01*
X129594154Y-111010227D01*
X129562652Y-111003913D01*
X129542667Y-110994574D01*
X129531604Y-110981503D01*
X129526869Y-110963992D01*
X129525867Y-110941335D01*
X129525873Y-110938970D01*
X129527027Y-110918939D01*
X129531824Y-110903146D01*
X129542632Y-110891090D01*
X129561817Y-110882267D01*
X129591745Y-110876175D01*
X129634783Y-110872311D01*
X129693299Y-110870174D01*
X129769657Y-110869260D01*
X129866226Y-110869067D01*
X130156406Y-110869067D01*
X130179803Y-110898811D01*
G37*
X134856734Y-110869083D02*
X134933831Y-110869275D01*
X134992777Y-110869860D01*
X135036364Y-110871051D01*
X135067383Y-110873064D01*
X135088625Y-110876112D01*
X135102882Y-110880409D01*
X135112945Y-110886172D01*
X135121606Y-110893612D01*
X135123391Y-110895293D01*
X135130635Y-110902832D01*
X135136277Y-110911850D01*
X135140517Y-110924984D01*
X135143556Y-110944872D01*
X135145594Y-110974151D01*
X135146830Y-111015458D01*
X135147465Y-111071431D01*
X135147700Y-111144707D01*
X135147734Y-111237923D01*
X135147697Y-111310713D01*
X135147448Y-111388889D01*
X135146812Y-111449103D01*
X135145615Y-111493982D01*
X135143684Y-111526152D01*
X135140846Y-111548239D01*
X135136927Y-111562870D01*
X135131755Y-111572670D01*
X135125156Y-111580267D01*
X135121822Y-111583444D01*
X135113300Y-111589554D01*
X135101298Y-111594229D01*
X135083087Y-111597659D01*
X135055940Y-111600036D01*
X135017129Y-111601552D01*
X134963924Y-111602398D01*
X134893598Y-111602765D01*
X134803422Y-111602845D01*
X134761314Y-111602833D01*
X134680167Y-111602651D01*
X134617675Y-111602098D01*
X134571109Y-111600982D01*
X134537741Y-111599113D01*
X134514844Y-111596298D01*
X134499688Y-111592346D01*
X134489546Y-111587066D01*
X134481689Y-111580267D01*
X134466963Y-111558667D01*
X134459111Y-111529467D01*
X134464610Y-111505560D01*
X134481689Y-111478667D01*
X134486668Y-111474059D01*
X134496443Y-111467772D01*
X134510559Y-111463146D01*
X134532054Y-111459930D01*
X134563968Y-111457870D01*
X134609342Y-111456712D01*
X134671213Y-111456202D01*
X134752622Y-111456089D01*
X135000978Y-111456089D01*
X135000978Y-111298045D01*
X134839801Y-111298045D01*
X134803983Y-111297899D01*
X134738359Y-111296176D01*
X134691118Y-111291741D01*
X134659383Y-111283637D01*
X134640277Y-111270906D01*
X134630923Y-111252592D01*
X134628445Y-111227738D01*
X134629242Y-111207482D01*
X134634494Y-111185656D01*
X134647288Y-111170304D01*
X134670628Y-111160309D01*
X134707517Y-111154553D01*
X134760959Y-111151919D01*
X134833958Y-111151289D01*
X135002105Y-111151289D01*
X134998719Y-111086378D01*
X134995334Y-111021467D01*
X134747617Y-111018418D01*
X134685026Y-111017539D01*
X134616565Y-111016095D01*
X134565661Y-111014164D01*
X134529408Y-111011514D01*
X134504901Y-111007910D01*
X134489235Y-111003121D01*
X134479506Y-110996913D01*
X134473491Y-110990510D01*
X134460482Y-110958828D01*
X134464043Y-110923142D01*
X134483818Y-110892084D01*
X134487069Y-110889161D01*
X134496049Y-110882810D01*
X134508153Y-110877957D01*
X134526159Y-110874403D01*
X134552847Y-110871946D01*
X134590997Y-110870385D01*
X134643386Y-110869518D01*
X134712794Y-110869146D01*
X134802001Y-110869067D01*
X134856734Y-110869083D01*
G36*
X134856734Y-110869083D02*
G01*
X134933831Y-110869275D01*
X134992777Y-110869860D01*
X135036364Y-110871051D01*
X135067383Y-110873064D01*
X135088625Y-110876112D01*
X135102882Y-110880409D01*
X135112945Y-110886172D01*
X135121606Y-110893612D01*
X135123391Y-110895293D01*
X135130635Y-110902832D01*
X135136277Y-110911850D01*
X135140517Y-110924984D01*
X135143556Y-110944872D01*
X135145594Y-110974151D01*
X135146830Y-111015458D01*
X135147465Y-111071431D01*
X135147700Y-111144707D01*
X135147734Y-111237923D01*
X135147697Y-111310713D01*
X135147448Y-111388889D01*
X135146812Y-111449103D01*
X135145615Y-111493982D01*
X135143684Y-111526152D01*
X135140846Y-111548239D01*
X135136927Y-111562870D01*
X135131755Y-111572670D01*
X135125156Y-111580267D01*
X135121822Y-111583444D01*
X135113300Y-111589554D01*
X135101298Y-111594229D01*
X135083087Y-111597659D01*
X135055940Y-111600036D01*
X135017129Y-111601552D01*
X134963924Y-111602398D01*
X134893598Y-111602765D01*
X134803422Y-111602845D01*
X134761314Y-111602833D01*
X134680167Y-111602651D01*
X134617675Y-111602098D01*
X134571109Y-111600982D01*
X134537741Y-111599113D01*
X134514844Y-111596298D01*
X134499688Y-111592346D01*
X134489546Y-111587066D01*
X134481689Y-111580267D01*
X134466963Y-111558667D01*
X134459111Y-111529467D01*
X134464610Y-111505560D01*
X134481689Y-111478667D01*
X134486668Y-111474059D01*
X134496443Y-111467772D01*
X134510559Y-111463146D01*
X134532054Y-111459930D01*
X134563968Y-111457870D01*
X134609342Y-111456712D01*
X134671213Y-111456202D01*
X134752622Y-111456089D01*
X135000978Y-111456089D01*
X135000978Y-111298045D01*
X134839801Y-111298045D01*
X134803983Y-111297899D01*
X134738359Y-111296176D01*
X134691118Y-111291741D01*
X134659383Y-111283637D01*
X134640277Y-111270906D01*
X134630923Y-111252592D01*
X134628445Y-111227738D01*
X134629242Y-111207482D01*
X134634494Y-111185656D01*
X134647288Y-111170304D01*
X134670628Y-111160309D01*
X134707517Y-111154553D01*
X134760959Y-111151919D01*
X134833958Y-111151289D01*
X135002105Y-111151289D01*
X134998719Y-111086378D01*
X134995334Y-111021467D01*
X134747617Y-111018418D01*
X134685026Y-111017539D01*
X134616565Y-111016095D01*
X134565661Y-111014164D01*
X134529408Y-111011514D01*
X134504901Y-111007910D01*
X134489235Y-111003121D01*
X134479506Y-110996913D01*
X134473491Y-110990510D01*
X134460482Y-110958828D01*
X134464043Y-110923142D01*
X134483818Y-110892084D01*
X134487069Y-110889161D01*
X134496049Y-110882810D01*
X134508153Y-110877957D01*
X134526159Y-110874403D01*
X134552847Y-110871946D01*
X134590997Y-110870385D01*
X134643386Y-110869518D01*
X134712794Y-110869146D01*
X134802001Y-110869067D01*
X134856734Y-110869083D01*
G37*
X126289702Y-110878478D02*
X126307663Y-110896989D01*
X126328263Y-110928071D01*
X126353095Y-110973756D01*
X126383750Y-111036078D01*
X126421820Y-111117071D01*
X126436454Y-111148454D01*
X126466203Y-111211638D01*
X126492297Y-111266244D01*
X126513292Y-111309290D01*
X126527739Y-111337793D01*
X126534191Y-111348770D01*
X126535550Y-111348189D01*
X126545542Y-111334242D01*
X126562833Y-111304704D01*
X126585430Y-111263087D01*
X126611338Y-111212903D01*
X126627311Y-111181414D01*
X126656261Y-111126061D01*
X126678749Y-111087044D01*
X126696965Y-111061566D01*
X126713096Y-111046831D01*
X126729330Y-111040042D01*
X126747857Y-111038400D01*
X126758360Y-111038875D01*
X126774476Y-111043082D01*
X126789790Y-111053946D01*
X126806388Y-111074219D01*
X126826357Y-111106654D01*
X126851783Y-111154004D01*
X126884752Y-111219022D01*
X126894485Y-111238277D01*
X126918943Y-111284946D01*
X126939178Y-111321109D01*
X126953311Y-111343497D01*
X126959460Y-111348845D01*
X126960827Y-111345573D01*
X126970202Y-111324664D01*
X126987062Y-111287725D01*
X127009979Y-111237874D01*
X127037520Y-111178226D01*
X127068255Y-111111898D01*
X127094970Y-111054677D01*
X127124593Y-110992688D01*
X127147664Y-110946949D01*
X127165643Y-110914908D01*
X127179990Y-110894014D01*
X127192166Y-110881718D01*
X127203632Y-110875466D01*
X127213042Y-110872574D01*
X127238147Y-110872425D01*
X127265290Y-110887768D01*
X127266590Y-110888753D01*
X127288674Y-110911388D01*
X127299723Y-110933613D01*
X127299769Y-110934253D01*
X127295228Y-110951915D01*
X127282364Y-110986481D01*
X127262605Y-111034826D01*
X127237381Y-111093825D01*
X127208119Y-111160355D01*
X127176250Y-111231291D01*
X127143201Y-111303507D01*
X127110401Y-111373880D01*
X127079280Y-111439285D01*
X127051265Y-111496597D01*
X127027786Y-111542692D01*
X127010272Y-111574446D01*
X127000151Y-111588733D01*
X126965743Y-111602102D01*
X126924046Y-111595741D01*
X126918681Y-111591044D01*
X126902852Y-111568893D01*
X126880650Y-111532132D01*
X126854233Y-111484415D01*
X126825760Y-111429393D01*
X126745986Y-111270150D01*
X126672799Y-111416742D01*
X126663103Y-111436032D01*
X126636125Y-111488380D01*
X126612096Y-111533170D01*
X126593332Y-111566154D01*
X126582146Y-111583089D01*
X126581000Y-111584332D01*
X126552879Y-111599619D01*
X126517817Y-111601302D01*
X126486776Y-111588733D01*
X126484350Y-111585884D01*
X126472090Y-111565259D01*
X126452352Y-111527708D01*
X126426448Y-111475880D01*
X126395685Y-111412423D01*
X126361375Y-111339985D01*
X126324825Y-111261216D01*
X126304585Y-111217093D01*
X126267812Y-111136365D01*
X126239355Y-111072687D01*
X126218331Y-111023752D01*
X126203854Y-110987257D01*
X126195039Y-110960895D01*
X126191004Y-110942361D01*
X126190862Y-110929352D01*
X126193730Y-110919561D01*
X126208387Y-110898678D01*
X126234990Y-110878377D01*
X126235745Y-110878035D01*
X126255335Y-110871034D01*
X126272790Y-110870504D01*
X126289702Y-110878478D01*
G36*
X126289702Y-110878478D02*
G01*
X126307663Y-110896989D01*
X126328263Y-110928071D01*
X126353095Y-110973756D01*
X126383750Y-111036078D01*
X126421820Y-111117071D01*
X126436454Y-111148454D01*
X126466203Y-111211638D01*
X126492297Y-111266244D01*
X126513292Y-111309290D01*
X126527739Y-111337793D01*
X126534191Y-111348770D01*
X126535550Y-111348189D01*
X126545542Y-111334242D01*
X126562833Y-111304704D01*
X126585430Y-111263087D01*
X126611338Y-111212903D01*
X126627311Y-111181414D01*
X126656261Y-111126061D01*
X126678749Y-111087044D01*
X126696965Y-111061566D01*
X126713096Y-111046831D01*
X126729330Y-111040042D01*
X126747857Y-111038400D01*
X126758360Y-111038875D01*
X126774476Y-111043082D01*
X126789790Y-111053946D01*
X126806388Y-111074219D01*
X126826357Y-111106654D01*
X126851783Y-111154004D01*
X126884752Y-111219022D01*
X126894485Y-111238277D01*
X126918943Y-111284946D01*
X126939178Y-111321109D01*
X126953311Y-111343497D01*
X126959460Y-111348845D01*
X126960827Y-111345573D01*
X126970202Y-111324664D01*
X126987062Y-111287725D01*
X127009979Y-111237874D01*
X127037520Y-111178226D01*
X127068255Y-111111898D01*
X127094970Y-111054677D01*
X127124593Y-110992688D01*
X127147664Y-110946949D01*
X127165643Y-110914908D01*
X127179990Y-110894014D01*
X127192166Y-110881718D01*
X127203632Y-110875466D01*
X127213042Y-110872574D01*
X127238147Y-110872425D01*
X127265290Y-110887768D01*
X127266590Y-110888753D01*
X127288674Y-110911388D01*
X127299723Y-110933613D01*
X127299769Y-110934253D01*
X127295228Y-110951915D01*
X127282364Y-110986481D01*
X127262605Y-111034826D01*
X127237381Y-111093825D01*
X127208119Y-111160355D01*
X127176250Y-111231291D01*
X127143201Y-111303507D01*
X127110401Y-111373880D01*
X127079280Y-111439285D01*
X127051265Y-111496597D01*
X127027786Y-111542692D01*
X127010272Y-111574446D01*
X127000151Y-111588733D01*
X126965743Y-111602102D01*
X126924046Y-111595741D01*
X126918681Y-111591044D01*
X126902852Y-111568893D01*
X126880650Y-111532132D01*
X126854233Y-111484415D01*
X126825760Y-111429393D01*
X126745986Y-111270150D01*
X126672799Y-111416742D01*
X126663103Y-111436032D01*
X126636125Y-111488380D01*
X126612096Y-111533170D01*
X126593332Y-111566154D01*
X126582146Y-111583089D01*
X126581000Y-111584332D01*
X126552879Y-111599619D01*
X126517817Y-111601302D01*
X126486776Y-111588733D01*
X126484350Y-111585884D01*
X126472090Y-111565259D01*
X126452352Y-111527708D01*
X126426448Y-111475880D01*
X126395685Y-111412423D01*
X126361375Y-111339985D01*
X126324825Y-111261216D01*
X126304585Y-111217093D01*
X126267812Y-111136365D01*
X126239355Y-111072687D01*
X126218331Y-111023752D01*
X126203854Y-110987257D01*
X126195039Y-110960895D01*
X126191004Y-110942361D01*
X126190862Y-110929352D01*
X126193730Y-110919561D01*
X126208387Y-110898678D01*
X126234990Y-110878377D01*
X126235745Y-110878035D01*
X126255335Y-110871034D01*
X126272790Y-110870504D01*
X126289702Y-110878478D01*
G37*
X133840853Y-110869936D02*
X133907100Y-110875366D01*
X133962400Y-110884964D01*
X134013283Y-110899825D01*
X134084595Y-110932958D01*
X134135752Y-110975640D01*
X134166575Y-111027705D01*
X134176889Y-111088983D01*
X134175952Y-111120232D01*
X134170160Y-111145029D01*
X134155353Y-111166699D01*
X134127380Y-111194049D01*
X134119402Y-111201378D01*
X134095692Y-111222281D01*
X134073298Y-111239251D01*
X134049265Y-111253205D01*
X134020637Y-111265056D01*
X133984460Y-111275720D01*
X133937780Y-111286111D01*
X133877641Y-111297146D01*
X133801090Y-111309738D01*
X133705171Y-111324804D01*
X133686808Y-111327838D01*
X133624478Y-111341458D01*
X133579260Y-111357192D01*
X133552976Y-111374263D01*
X133547447Y-111391897D01*
X133550068Y-111396168D01*
X133568000Y-111411233D01*
X133596126Y-111427867D01*
X133608926Y-111433857D01*
X133630224Y-111441050D01*
X133656610Y-111445827D01*
X133692454Y-111448646D01*
X133742128Y-111449964D01*
X133810000Y-111450237D01*
X133827785Y-111450164D01*
X133895406Y-111449053D01*
X133960345Y-111446828D01*
X134015970Y-111443762D01*
X134055651Y-111440127D01*
X134091162Y-111436059D01*
X134120415Y-111435276D01*
X134139315Y-111439876D01*
X134154429Y-111450551D01*
X134158085Y-111454144D01*
X134174427Y-111485918D01*
X134173107Y-111521572D01*
X134154150Y-111552190D01*
X134133780Y-111563796D01*
X134097796Y-111576491D01*
X134055372Y-111586541D01*
X134051922Y-111587140D01*
X134009252Y-111592356D01*
X133951866Y-111596730D01*
X133886849Y-111599818D01*
X133821289Y-111601177D01*
X133805057Y-111601218D01*
X133706744Y-111598741D01*
X133626692Y-111590735D01*
X133561513Y-111576203D01*
X133507817Y-111554149D01*
X133462216Y-111523576D01*
X133421323Y-111483486D01*
X133401202Y-111457259D01*
X133389576Y-111427712D01*
X133386667Y-111387995D01*
X133386808Y-111376026D01*
X133390681Y-111343345D01*
X133403065Y-111316819D01*
X133428230Y-111285971D01*
X133449442Y-111263831D01*
X133475838Y-111241285D01*
X133505555Y-111222917D01*
X133541785Y-111207661D01*
X133587717Y-111194449D01*
X133646544Y-111182214D01*
X133721456Y-111169889D01*
X133815645Y-111156406D01*
X133860957Y-111149396D01*
X133928911Y-111134837D01*
X133978047Y-111118337D01*
X134007614Y-111100439D01*
X134016864Y-111081685D01*
X134005048Y-111062615D01*
X133971416Y-111043771D01*
X133968370Y-111042557D01*
X133922011Y-111030479D01*
X133859361Y-111022279D01*
X133785927Y-111018119D01*
X133707217Y-111018161D01*
X133628739Y-111022569D01*
X133556000Y-111031505D01*
X133552073Y-111032154D01*
X133503257Y-111039861D01*
X133471005Y-111043473D01*
X133450008Y-111042876D01*
X133434954Y-111037954D01*
X133420534Y-111028596D01*
X133419364Y-111027725D01*
X133394847Y-110997351D01*
X133390054Y-110961850D01*
X133405860Y-110927269D01*
X133410406Y-110922813D01*
X133440020Y-110907673D01*
X133487002Y-110894550D01*
X133547306Y-110883750D01*
X133616888Y-110875581D01*
X133691703Y-110870351D01*
X133767706Y-110868367D01*
X133840853Y-110869936D01*
G36*
X133840853Y-110869936D02*
G01*
X133907100Y-110875366D01*
X133962400Y-110884964D01*
X134013283Y-110899825D01*
X134084595Y-110932958D01*
X134135752Y-110975640D01*
X134166575Y-111027705D01*
X134176889Y-111088983D01*
X134175952Y-111120232D01*
X134170160Y-111145029D01*
X134155353Y-111166699D01*
X134127380Y-111194049D01*
X134119402Y-111201378D01*
X134095692Y-111222281D01*
X134073298Y-111239251D01*
X134049265Y-111253205D01*
X134020637Y-111265056D01*
X133984460Y-111275720D01*
X133937780Y-111286111D01*
X133877641Y-111297146D01*
X133801090Y-111309738D01*
X133705171Y-111324804D01*
X133686808Y-111327838D01*
X133624478Y-111341458D01*
X133579260Y-111357192D01*
X133552976Y-111374263D01*
X133547447Y-111391897D01*
X133550068Y-111396168D01*
X133568000Y-111411233D01*
X133596126Y-111427867D01*
X133608926Y-111433857D01*
X133630224Y-111441050D01*
X133656610Y-111445827D01*
X133692454Y-111448646D01*
X133742128Y-111449964D01*
X133810000Y-111450237D01*
X133827785Y-111450164D01*
X133895406Y-111449053D01*
X133960345Y-111446828D01*
X134015970Y-111443762D01*
X134055651Y-111440127D01*
X134091162Y-111436059D01*
X134120415Y-111435276D01*
X134139315Y-111439876D01*
X134154429Y-111450551D01*
X134158085Y-111454144D01*
X134174427Y-111485918D01*
X134173107Y-111521572D01*
X134154150Y-111552190D01*
X134133780Y-111563796D01*
X134097796Y-111576491D01*
X134055372Y-111586541D01*
X134051922Y-111587140D01*
X134009252Y-111592356D01*
X133951866Y-111596730D01*
X133886849Y-111599818D01*
X133821289Y-111601177D01*
X133805057Y-111601218D01*
X133706744Y-111598741D01*
X133626692Y-111590735D01*
X133561513Y-111576203D01*
X133507817Y-111554149D01*
X133462216Y-111523576D01*
X133421323Y-111483486D01*
X133401202Y-111457259D01*
X133389576Y-111427712D01*
X133386667Y-111387995D01*
X133386808Y-111376026D01*
X133390681Y-111343345D01*
X133403065Y-111316819D01*
X133428230Y-111285971D01*
X133449442Y-111263831D01*
X133475838Y-111241285D01*
X133505555Y-111222917D01*
X133541785Y-111207661D01*
X133587717Y-111194449D01*
X133646544Y-111182214D01*
X133721456Y-111169889D01*
X133815645Y-111156406D01*
X133860957Y-111149396D01*
X133928911Y-111134837D01*
X133978047Y-111118337D01*
X134007614Y-111100439D01*
X134016864Y-111081685D01*
X134005048Y-111062615D01*
X133971416Y-111043771D01*
X133968370Y-111042557D01*
X133922011Y-111030479D01*
X133859361Y-111022279D01*
X133785927Y-111018119D01*
X133707217Y-111018161D01*
X133628739Y-111022569D01*
X133556000Y-111031505D01*
X133552073Y-111032154D01*
X133503257Y-111039861D01*
X133471005Y-111043473D01*
X133450008Y-111042876D01*
X133434954Y-111037954D01*
X133420534Y-111028596D01*
X133419364Y-111027725D01*
X133394847Y-110997351D01*
X133390054Y-110961850D01*
X133405860Y-110927269D01*
X133410406Y-110922813D01*
X133440020Y-110907673D01*
X133487002Y-110894550D01*
X133547306Y-110883750D01*
X133616888Y-110875581D01*
X133691703Y-110870351D01*
X133767706Y-110868367D01*
X133840853Y-110869936D01*
G37*
X129988711Y-106562033D02*
X130084268Y-106579523D01*
X130248558Y-106624564D01*
X130402589Y-106687656D01*
X130548509Y-106769915D01*
X130688466Y-106872457D01*
X130824608Y-106996399D01*
X130868473Y-107041661D01*
X130980758Y-107173865D01*
X131073972Y-107311832D01*
X131150719Y-107459750D01*
X131213603Y-107621803D01*
X131217420Y-107633391D01*
X131267507Y-107819392D01*
X131300899Y-108015521D01*
X131317584Y-108217568D01*
X131317551Y-108421325D01*
X131300791Y-108622581D01*
X131267292Y-108817128D01*
X131217044Y-109000756D01*
X131173190Y-109118053D01*
X131095348Y-109280951D01*
X131001828Y-109434866D01*
X130894822Y-109576671D01*
X130776519Y-109703239D01*
X130649111Y-109811441D01*
X130571606Y-109864120D01*
X130444725Y-109933750D01*
X130307243Y-109992468D01*
X130165716Y-110037587D01*
X130026702Y-110066422D01*
X130012597Y-110068106D01*
X129969153Y-110071434D01*
X129911723Y-110074275D01*
X129846122Y-110076373D01*
X129778167Y-110077468D01*
X129651378Y-110075140D01*
X129503673Y-110062136D01*
X129365779Y-110037133D01*
X129232014Y-109999318D01*
X129208562Y-109990889D01*
X129160612Y-109971408D01*
X129104140Y-109946473D01*
X129042379Y-109917722D01*
X128978563Y-109886790D01*
X128915926Y-109855315D01*
X128857703Y-109824934D01*
X128807127Y-109797283D01*
X128767433Y-109773999D01*
X128741854Y-109756718D01*
X128733625Y-109747079D01*
X128735076Y-109743984D01*
X128746250Y-109724079D01*
X128767134Y-109688420D01*
X128796265Y-109639459D01*
X128832181Y-109579646D01*
X128873420Y-109511433D01*
X128918517Y-109437271D01*
X129099785Y-109140008D01*
X129146315Y-109184539D01*
X129237723Y-109262865D01*
X129351334Y-109337439D01*
X129469122Y-109391474D01*
X129589559Y-109424290D01*
X129711117Y-109435211D01*
X129752585Y-109433868D01*
X129870080Y-109415612D01*
X129980089Y-109376617D01*
X130081430Y-109317670D01*
X130172921Y-109239557D01*
X130253380Y-109143064D01*
X130321627Y-109028978D01*
X130337908Y-108994724D01*
X130383982Y-108871240D01*
X130419106Y-108732918D01*
X130443197Y-108583561D01*
X130456173Y-108426973D01*
X130457949Y-108266956D01*
X130448443Y-108107314D01*
X130427572Y-107951850D01*
X130395252Y-107804366D01*
X130351399Y-107668667D01*
X130313982Y-107582076D01*
X130249185Y-107468688D01*
X130173772Y-107375070D01*
X130087418Y-107300959D01*
X129989795Y-107246094D01*
X129880577Y-107210212D01*
X129759439Y-107193051D01*
X129690038Y-107191880D01*
X129567168Y-107206141D01*
X129451664Y-107241241D01*
X129344953Y-107296682D01*
X129248464Y-107371964D01*
X129232720Y-107386440D01*
X129202150Y-107412962D01*
X129179809Y-107430138D01*
X129169691Y-107434787D01*
X129167706Y-107432597D01*
X129153241Y-107413721D01*
X129129400Y-107380397D01*
X129098029Y-107335380D01*
X129060974Y-107281425D01*
X129020083Y-107221285D01*
X128977202Y-107157718D01*
X128934178Y-107093476D01*
X128892857Y-107031315D01*
X128855086Y-106973991D01*
X128822712Y-106924257D01*
X128797582Y-106884868D01*
X128781542Y-106858580D01*
X128776439Y-106848147D01*
X128781050Y-106843941D01*
X128800267Y-106838933D01*
X128809838Y-106836386D01*
X128837809Y-106825249D01*
X128879448Y-106806802D01*
X128930995Y-106782725D01*
X128988690Y-106754699D01*
X128999957Y-106749154D01*
X129177687Y-106669889D01*
X129347490Y-106610385D01*
X129511430Y-106570245D01*
X129671571Y-106549071D01*
X129829977Y-106546466D01*
X129988711Y-106562033D01*
G36*
X129988711Y-106562033D02*
G01*
X130084268Y-106579523D01*
X130248558Y-106624564D01*
X130402589Y-106687656D01*
X130548509Y-106769915D01*
X130688466Y-106872457D01*
X130824608Y-106996399D01*
X130868473Y-107041661D01*
X130980758Y-107173865D01*
X131073972Y-107311832D01*
X131150719Y-107459750D01*
X131213603Y-107621803D01*
X131217420Y-107633391D01*
X131267507Y-107819392D01*
X131300899Y-108015521D01*
X131317584Y-108217568D01*
X131317551Y-108421325D01*
X131300791Y-108622581D01*
X131267292Y-108817128D01*
X131217044Y-109000756D01*
X131173190Y-109118053D01*
X131095348Y-109280951D01*
X131001828Y-109434866D01*
X130894822Y-109576671D01*
X130776519Y-109703239D01*
X130649111Y-109811441D01*
X130571606Y-109864120D01*
X130444725Y-109933750D01*
X130307243Y-109992468D01*
X130165716Y-110037587D01*
X130026702Y-110066422D01*
X130012597Y-110068106D01*
X129969153Y-110071434D01*
X129911723Y-110074275D01*
X129846122Y-110076373D01*
X129778167Y-110077468D01*
X129651378Y-110075140D01*
X129503673Y-110062136D01*
X129365779Y-110037133D01*
X129232014Y-109999318D01*
X129208562Y-109990889D01*
X129160612Y-109971408D01*
X129104140Y-109946473D01*
X129042379Y-109917722D01*
X128978563Y-109886790D01*
X128915926Y-109855315D01*
X128857703Y-109824934D01*
X128807127Y-109797283D01*
X128767433Y-109773999D01*
X128741854Y-109756718D01*
X128733625Y-109747079D01*
X128735076Y-109743984D01*
X128746250Y-109724079D01*
X128767134Y-109688420D01*
X128796265Y-109639459D01*
X128832181Y-109579646D01*
X128873420Y-109511433D01*
X128918517Y-109437271D01*
X129099785Y-109140008D01*
X129146315Y-109184539D01*
X129237723Y-109262865D01*
X129351334Y-109337439D01*
X129469122Y-109391474D01*
X129589559Y-109424290D01*
X129711117Y-109435211D01*
X129752585Y-109433868D01*
X129870080Y-109415612D01*
X129980089Y-109376617D01*
X130081430Y-109317670D01*
X130172921Y-109239557D01*
X130253380Y-109143064D01*
X130321627Y-109028978D01*
X130337908Y-108994724D01*
X130383982Y-108871240D01*
X130419106Y-108732918D01*
X130443197Y-108583561D01*
X130456173Y-108426973D01*
X130457949Y-108266956D01*
X130448443Y-108107314D01*
X130427572Y-107951850D01*
X130395252Y-107804366D01*
X130351399Y-107668667D01*
X130313982Y-107582076D01*
X130249185Y-107468688D01*
X130173772Y-107375070D01*
X130087418Y-107300959D01*
X129989795Y-107246094D01*
X129880577Y-107210212D01*
X129759439Y-107193051D01*
X129690038Y-107191880D01*
X129567168Y-107206141D01*
X129451664Y-107241241D01*
X129344953Y-107296682D01*
X129248464Y-107371964D01*
X129232720Y-107386440D01*
X129202150Y-107412962D01*
X129179809Y-107430138D01*
X129169691Y-107434787D01*
X129167706Y-107432597D01*
X129153241Y-107413721D01*
X129129400Y-107380397D01*
X129098029Y-107335380D01*
X129060974Y-107281425D01*
X129020083Y-107221285D01*
X128977202Y-107157718D01*
X128934178Y-107093476D01*
X128892857Y-107031315D01*
X128855086Y-106973991D01*
X128822712Y-106924257D01*
X128797582Y-106884868D01*
X128781542Y-106858580D01*
X128776439Y-106848147D01*
X128781050Y-106843941D01*
X128800267Y-106838933D01*
X128809838Y-106836386D01*
X128837809Y-106825249D01*
X128879448Y-106806802D01*
X128930995Y-106782725D01*
X128988690Y-106754699D01*
X128999957Y-106749154D01*
X129177687Y-106669889D01*
X129347490Y-106610385D01*
X129511430Y-106570245D01*
X129671571Y-106549071D01*
X129829977Y-106546466D01*
X129988711Y-106562033D01*
G37*
X126185994Y-108842711D02*
X126185268Y-108920158D01*
X126176689Y-109071594D01*
X126157833Y-109208283D01*
X126127837Y-109334276D01*
X126085836Y-109453625D01*
X126030969Y-109570381D01*
X125964167Y-109681179D01*
X125873363Y-109794739D01*
X125769708Y-109890211D01*
X125653887Y-109967073D01*
X125526586Y-110024797D01*
X125388489Y-110062858D01*
X125350793Y-110068666D01*
X125271752Y-110074396D01*
X125183629Y-110074583D01*
X125094236Y-110069539D01*
X125011384Y-110059578D01*
X124942887Y-110045012D01*
X124912035Y-110035364D01*
X124834730Y-110005123D01*
X124757679Y-109967617D01*
X124688200Y-109926614D01*
X124633615Y-109885879D01*
X124610916Y-109866505D01*
X124588201Y-109848662D01*
X124576779Y-109841778D01*
X124575537Y-109843424D01*
X124572728Y-109861205D01*
X124570776Y-109894370D01*
X124570045Y-109937733D01*
X124570045Y-110033689D01*
X123711896Y-110033689D01*
X123746161Y-109972974D01*
X123751355Y-109963868D01*
X123759715Y-109949249D01*
X123767288Y-109935173D01*
X123774112Y-109920540D01*
X123780227Y-109904249D01*
X123785673Y-109885198D01*
X123790487Y-109862286D01*
X123794708Y-109834413D01*
X123798377Y-109800478D01*
X123801531Y-109759379D01*
X123804211Y-109710015D01*
X123806454Y-109651286D01*
X123808299Y-109582090D01*
X123809787Y-109501326D01*
X123810955Y-109407894D01*
X123811844Y-109300692D01*
X123812491Y-109178620D01*
X123812936Y-109040576D01*
X123813218Y-108885459D01*
X123813375Y-108712168D01*
X123813448Y-108519603D01*
X123813474Y-108306662D01*
X123813485Y-108170530D01*
X124615200Y-108170530D01*
X124615200Y-109320721D01*
X124685756Y-109367089D01*
X124726417Y-109390791D01*
X124780546Y-109416639D01*
X124829689Y-109434829D01*
X124893165Y-109450551D01*
X124989331Y-109461541D01*
X125073900Y-109453365D01*
X125147219Y-109425805D01*
X125209637Y-109378642D01*
X125261502Y-109311658D01*
X125303160Y-109224633D01*
X125334962Y-109117350D01*
X125337545Y-109105009D01*
X125346000Y-109043772D01*
X125351663Y-108966692D01*
X125354576Y-108879002D01*
X125354783Y-108785934D01*
X125352330Y-108692720D01*
X125347261Y-108604594D01*
X125339619Y-108526788D01*
X125329448Y-108464533D01*
X125328167Y-108458666D01*
X125299126Y-108348121D01*
X125264610Y-108257575D01*
X125223456Y-108184953D01*
X125174499Y-108128181D01*
X125116574Y-108085184D01*
X125084620Y-108069615D01*
X125011784Y-108050722D01*
X124930443Y-108047465D01*
X124845319Y-108059389D01*
X124761133Y-108086040D01*
X124682608Y-108126962D01*
X124615200Y-108170530D01*
X123813485Y-108170530D01*
X123813493Y-108072245D01*
X123813689Y-106387378D01*
X124719017Y-106387378D01*
X124694585Y-106424067D01*
X124688318Y-106433647D01*
X124662208Y-106479981D01*
X124644469Y-106527102D01*
X124632908Y-106582251D01*
X124625331Y-106652667D01*
X124624839Y-106659650D01*
X124623062Y-106697641D01*
X124621444Y-106751576D01*
X124619999Y-106818703D01*
X124618740Y-106896271D01*
X124617680Y-106981528D01*
X124616829Y-107071724D01*
X124616203Y-107164107D01*
X124615812Y-107255925D01*
X124615670Y-107344427D01*
X124615790Y-107426862D01*
X124616183Y-107500479D01*
X124616862Y-107562526D01*
X124617841Y-107610251D01*
X124619132Y-107640904D01*
X124620747Y-107651733D01*
X124628957Y-107647333D01*
X124650647Y-107632362D01*
X124680014Y-107610448D01*
X124728879Y-107576236D01*
X124817125Y-107529714D01*
X124915916Y-107496046D01*
X125028510Y-107474231D01*
X125158164Y-107463265D01*
X125250670Y-107462219D01*
X125372011Y-107472014D01*
X125482099Y-107496174D01*
X125585389Y-107535785D01*
X125686338Y-107591932D01*
X125731503Y-107622883D01*
X125836911Y-107714115D01*
X125928538Y-107823106D01*
X126006332Y-107949726D01*
X126070241Y-108093845D01*
X126120214Y-108255332D01*
X126156198Y-108434059D01*
X126178143Y-108629895D01*
X126183900Y-108785934D01*
X126185994Y-108842711D01*
G36*
X126185994Y-108842711D02*
G01*
X126185268Y-108920158D01*
X126176689Y-109071594D01*
X126157833Y-109208283D01*
X126127837Y-109334276D01*
X126085836Y-109453625D01*
X126030969Y-109570381D01*
X125964167Y-109681179D01*
X125873363Y-109794739D01*
X125769708Y-109890211D01*
X125653887Y-109967073D01*
X125526586Y-110024797D01*
X125388489Y-110062858D01*
X125350793Y-110068666D01*
X125271752Y-110074396D01*
X125183629Y-110074583D01*
X125094236Y-110069539D01*
X125011384Y-110059578D01*
X124942887Y-110045012D01*
X124912035Y-110035364D01*
X124834730Y-110005123D01*
X124757679Y-109967617D01*
X124688200Y-109926614D01*
X124633615Y-109885879D01*
X124610916Y-109866505D01*
X124588201Y-109848662D01*
X124576779Y-109841778D01*
X124575537Y-109843424D01*
X124572728Y-109861205D01*
X124570776Y-109894370D01*
X124570045Y-109937733D01*
X124570045Y-110033689D01*
X123711896Y-110033689D01*
X123746161Y-109972974D01*
X123751355Y-109963868D01*
X123759715Y-109949249D01*
X123767288Y-109935173D01*
X123774112Y-109920540D01*
X123780227Y-109904249D01*
X123785673Y-109885198D01*
X123790487Y-109862286D01*
X123794708Y-109834413D01*
X123798377Y-109800478D01*
X123801531Y-109759379D01*
X123804211Y-109710015D01*
X123806454Y-109651286D01*
X123808299Y-109582090D01*
X123809787Y-109501326D01*
X123810955Y-109407894D01*
X123811844Y-109300692D01*
X123812491Y-109178620D01*
X123812936Y-109040576D01*
X123813218Y-108885459D01*
X123813375Y-108712168D01*
X123813448Y-108519603D01*
X123813474Y-108306662D01*
X123813485Y-108170530D01*
X124615200Y-108170530D01*
X124615200Y-109320721D01*
X124685756Y-109367089D01*
X124726417Y-109390791D01*
X124780546Y-109416639D01*
X124829689Y-109434829D01*
X124893165Y-109450551D01*
X124989331Y-109461541D01*
X125073900Y-109453365D01*
X125147219Y-109425805D01*
X125209637Y-109378642D01*
X125261502Y-109311658D01*
X125303160Y-109224633D01*
X125334962Y-109117350D01*
X125337545Y-109105009D01*
X125346000Y-109043772D01*
X125351663Y-108966692D01*
X125354576Y-108879002D01*
X125354783Y-108785934D01*
X125352330Y-108692720D01*
X125347261Y-108604594D01*
X125339619Y-108526788D01*
X125329448Y-108464533D01*
X125328167Y-108458666D01*
X125299126Y-108348121D01*
X125264610Y-108257575D01*
X125223456Y-108184953D01*
X125174499Y-108128181D01*
X125116574Y-108085184D01*
X125084620Y-108069615D01*
X125011784Y-108050722D01*
X124930443Y-108047465D01*
X124845319Y-108059389D01*
X124761133Y-108086040D01*
X124682608Y-108126962D01*
X124615200Y-108170530D01*
X123813485Y-108170530D01*
X123813493Y-108072245D01*
X123813689Y-106387378D01*
X124719017Y-106387378D01*
X124694585Y-106424067D01*
X124688318Y-106433647D01*
X124662208Y-106479981D01*
X124644469Y-106527102D01*
X124632908Y-106582251D01*
X124625331Y-106652667D01*
X124624839Y-106659650D01*
X124623062Y-106697641D01*
X124621444Y-106751576D01*
X124619999Y-106818703D01*
X124618740Y-106896271D01*
X124617680Y-106981528D01*
X124616829Y-107071724D01*
X124616203Y-107164107D01*
X124615812Y-107255925D01*
X124615670Y-107344427D01*
X124615790Y-107426862D01*
X124616183Y-107500479D01*
X124616862Y-107562526D01*
X124617841Y-107610251D01*
X124619132Y-107640904D01*
X124620747Y-107651733D01*
X124628957Y-107647333D01*
X124650647Y-107632362D01*
X124680014Y-107610448D01*
X124728879Y-107576236D01*
X124817125Y-107529714D01*
X124915916Y-107496046D01*
X125028510Y-107474231D01*
X125158164Y-107463265D01*
X125250670Y-107462219D01*
X125372011Y-107472014D01*
X125482099Y-107496174D01*
X125585389Y-107535785D01*
X125686338Y-107591932D01*
X125731503Y-107622883D01*
X125836911Y-107714115D01*
X125928538Y-107823106D01*
X126006332Y-107949726D01*
X126070241Y-108093845D01*
X126120214Y-108255332D01*
X126156198Y-108434059D01*
X126178143Y-108629895D01*
X126183900Y-108785934D01*
X126185994Y-108842711D01*
G37*
X128727755Y-109243467D02*
X128727261Y-109277363D01*
X128723632Y-109352202D01*
X128716022Y-109414401D01*
X128703688Y-109470984D01*
X128659313Y-109597076D01*
X128596400Y-109711679D01*
X128516238Y-109812568D01*
X128419740Y-109898924D01*
X128307822Y-109969932D01*
X128181397Y-110024776D01*
X128041378Y-110062638D01*
X128005149Y-110068351D01*
X127926155Y-110074313D01*
X127837841Y-110074646D01*
X127748075Y-110069659D01*
X127664722Y-110059666D01*
X127595651Y-110044978D01*
X127509187Y-110014749D01*
X127399286Y-109960057D01*
X127301956Y-109892543D01*
X127239867Y-109841556D01*
X127236605Y-109937622D01*
X127233343Y-110033689D01*
X126810450Y-110033689D01*
X126799543Y-110033686D01*
X126705056Y-110033380D01*
X126618331Y-110032616D01*
X126541837Y-110031451D01*
X126478043Y-110029942D01*
X126429418Y-110028147D01*
X126398433Y-110026121D01*
X126387556Y-110023922D01*
X126387578Y-110023463D01*
X126394614Y-110007910D01*
X126410434Y-109985071D01*
X126414734Y-109979638D01*
X126425777Y-109965606D01*
X126435311Y-109952186D01*
X126443461Y-109937722D01*
X126450352Y-109920556D01*
X126456111Y-109899034D01*
X126460862Y-109871498D01*
X126464731Y-109836292D01*
X126467844Y-109791760D01*
X126470325Y-109736246D01*
X126472300Y-109668093D01*
X126473894Y-109585645D01*
X126475234Y-109487246D01*
X126476444Y-109371239D01*
X126477649Y-109235968D01*
X126478595Y-109124586D01*
X127279378Y-109124586D01*
X127279378Y-109320462D01*
X127324048Y-109376973D01*
X127336785Y-109392212D01*
X127383604Y-109434844D01*
X127444255Y-109470672D01*
X127454897Y-109475850D01*
X127493676Y-109492745D01*
X127528692Y-109502909D01*
X127568722Y-109508325D01*
X127622541Y-109510978D01*
X127640648Y-109511383D01*
X127716011Y-109508540D01*
X127776743Y-109496620D01*
X127828452Y-109474037D01*
X127876746Y-109439211D01*
X127881803Y-109434798D01*
X127930272Y-109379160D01*
X127958459Y-109315333D01*
X127967752Y-109240282D01*
X127960520Y-109168693D01*
X127935796Y-109105645D01*
X127891249Y-109047758D01*
X127836319Y-109000808D01*
X127763894Y-108960961D01*
X127677340Y-108933263D01*
X127574670Y-108917096D01*
X127453894Y-108911842D01*
X127445007Y-108911857D01*
X127389660Y-108912655D01*
X127342736Y-108914488D01*
X127308953Y-108917111D01*
X127293028Y-108920274D01*
X127288943Y-108926741D01*
X127284572Y-108948875D01*
X127281604Y-108987988D01*
X127279914Y-109045939D01*
X127279378Y-109124586D01*
X126478595Y-109124586D01*
X126478975Y-109079778D01*
X126480228Y-108937012D01*
X126481651Y-108791942D01*
X126483176Y-108666027D01*
X126484933Y-108557436D01*
X126487051Y-108464334D01*
X126489660Y-108384891D01*
X126492890Y-108317273D01*
X126496869Y-108259649D01*
X126501728Y-108210185D01*
X126507597Y-108167050D01*
X126514604Y-108128410D01*
X126522880Y-108092434D01*
X126532554Y-108057289D01*
X126543756Y-108021142D01*
X126556616Y-107982161D01*
X126572090Y-107939091D01*
X126614994Y-107846871D01*
X126668735Y-107767099D01*
X126737576Y-107692965D01*
X126815185Y-107629405D01*
X126919761Y-107567725D01*
X127039244Y-107520202D01*
X127174508Y-107486567D01*
X127326426Y-107466552D01*
X127495872Y-107459889D01*
X127553890Y-107460287D01*
X127619398Y-107462335D01*
X127680693Y-107466704D01*
X127742097Y-107474035D01*
X127807932Y-107484969D01*
X127882520Y-107500147D01*
X127970184Y-107520209D01*
X128075245Y-107545797D01*
X128103806Y-107552820D01*
X128179054Y-107570776D01*
X128249388Y-107586820D01*
X128310567Y-107600028D01*
X128358354Y-107609474D01*
X128388511Y-107614231D01*
X128416783Y-107617910D01*
X128443060Y-107623187D01*
X128453059Y-107627942D01*
X128449952Y-107636781D01*
X128439194Y-107664072D01*
X128421864Y-107706906D01*
X128399126Y-107762425D01*
X128372147Y-107827772D01*
X128342090Y-107900089D01*
X128335493Y-107915879D01*
X128296907Y-108006484D01*
X128265768Y-108076217D01*
X128241917Y-108125405D01*
X128225198Y-108154374D01*
X128215454Y-108163452D01*
X128207766Y-108161405D01*
X128181415Y-108151760D01*
X128142982Y-108136190D01*
X128097822Y-108116815D01*
X128003293Y-108078814D01*
X127866480Y-108037780D01*
X127725289Y-108012612D01*
X127687314Y-108008611D01*
X127584059Y-108006447D01*
X127496952Y-108019622D01*
X127425129Y-108048756D01*
X127367731Y-108094466D01*
X127323896Y-108157372D01*
X127292762Y-108238092D01*
X127273470Y-108337245D01*
X127266050Y-108396224D01*
X127427936Y-108389445D01*
X127554495Y-108387813D01*
X127705951Y-108394194D01*
X127854396Y-108408777D01*
X127990578Y-108430882D01*
X128055245Y-108445821D01*
X128187490Y-108488741D01*
X128309762Y-108545340D01*
X128419685Y-108614017D01*
X128514883Y-108693170D01*
X128592980Y-108781196D01*
X128651599Y-108876493D01*
X128675595Y-108928864D01*
X128701232Y-108999590D01*
X128717478Y-109070812D01*
X128725822Y-109149712D01*
X128727690Y-109240282D01*
X128727755Y-109243467D01*
G36*
X128727755Y-109243467D02*
G01*
X128727261Y-109277363D01*
X128723632Y-109352202D01*
X128716022Y-109414401D01*
X128703688Y-109470984D01*
X128659313Y-109597076D01*
X128596400Y-109711679D01*
X128516238Y-109812568D01*
X128419740Y-109898924D01*
X128307822Y-109969932D01*
X128181397Y-110024776D01*
X128041378Y-110062638D01*
X128005149Y-110068351D01*
X127926155Y-110074313D01*
X127837841Y-110074646D01*
X127748075Y-110069659D01*
X127664722Y-110059666D01*
X127595651Y-110044978D01*
X127509187Y-110014749D01*
X127399286Y-109960057D01*
X127301956Y-109892543D01*
X127239867Y-109841556D01*
X127236605Y-109937622D01*
X127233343Y-110033689D01*
X126810450Y-110033689D01*
X126799543Y-110033686D01*
X126705056Y-110033380D01*
X126618331Y-110032616D01*
X126541837Y-110031451D01*
X126478043Y-110029942D01*
X126429418Y-110028147D01*
X126398433Y-110026121D01*
X126387556Y-110023922D01*
X126387578Y-110023463D01*
X126394614Y-110007910D01*
X126410434Y-109985071D01*
X126414734Y-109979638D01*
X126425777Y-109965606D01*
X126435311Y-109952186D01*
X126443461Y-109937722D01*
X126450352Y-109920556D01*
X126456111Y-109899034D01*
X126460862Y-109871498D01*
X126464731Y-109836292D01*
X126467844Y-109791760D01*
X126470325Y-109736246D01*
X126472300Y-109668093D01*
X126473894Y-109585645D01*
X126475234Y-109487246D01*
X126476444Y-109371239D01*
X126477649Y-109235968D01*
X126478595Y-109124586D01*
X127279378Y-109124586D01*
X127279378Y-109320462D01*
X127324048Y-109376973D01*
X127336785Y-109392212D01*
X127383604Y-109434844D01*
X127444255Y-109470672D01*
X127454897Y-109475850D01*
X127493676Y-109492745D01*
X127528692Y-109502909D01*
X127568722Y-109508325D01*
X127622541Y-109510978D01*
X127640648Y-109511383D01*
X127716011Y-109508540D01*
X127776743Y-109496620D01*
X127828452Y-109474037D01*
X127876746Y-109439211D01*
X127881803Y-109434798D01*
X127930272Y-109379160D01*
X127958459Y-109315333D01*
X127967752Y-109240282D01*
X127960520Y-109168693D01*
X127935796Y-109105645D01*
X127891249Y-109047758D01*
X127836319Y-109000808D01*
X127763894Y-108960961D01*
X127677340Y-108933263D01*
X127574670Y-108917096D01*
X127453894Y-108911842D01*
X127445007Y-108911857D01*
X127389660Y-108912655D01*
X127342736Y-108914488D01*
X127308953Y-108917111D01*
X127293028Y-108920274D01*
X127288943Y-108926741D01*
X127284572Y-108948875D01*
X127281604Y-108987988D01*
X127279914Y-109045939D01*
X127279378Y-109124586D01*
X126478595Y-109124586D01*
X126478975Y-109079778D01*
X126480228Y-108937012D01*
X126481651Y-108791942D01*
X126483176Y-108666027D01*
X126484933Y-108557436D01*
X126487051Y-108464334D01*
X126489660Y-108384891D01*
X126492890Y-108317273D01*
X126496869Y-108259649D01*
X126501728Y-108210185D01*
X126507597Y-108167050D01*
X126514604Y-108128410D01*
X126522880Y-108092434D01*
X126532554Y-108057289D01*
X126543756Y-108021142D01*
X126556616Y-107982161D01*
X126572090Y-107939091D01*
X126614994Y-107846871D01*
X126668735Y-107767099D01*
X126737576Y-107692965D01*
X126815185Y-107629405D01*
X126919761Y-107567725D01*
X127039244Y-107520202D01*
X127174508Y-107486567D01*
X127326426Y-107466552D01*
X127495872Y-107459889D01*
X127553890Y-107460287D01*
X127619398Y-107462335D01*
X127680693Y-107466704D01*
X127742097Y-107474035D01*
X127807932Y-107484969D01*
X127882520Y-107500147D01*
X127970184Y-107520209D01*
X128075245Y-107545797D01*
X128103806Y-107552820D01*
X128179054Y-107570776D01*
X128249388Y-107586820D01*
X128310567Y-107600028D01*
X128358354Y-107609474D01*
X128388511Y-107614231D01*
X128416783Y-107617910D01*
X128443060Y-107623187D01*
X128453059Y-107627942D01*
X128449952Y-107636781D01*
X128439194Y-107664072D01*
X128421864Y-107706906D01*
X128399126Y-107762425D01*
X128372147Y-107827772D01*
X128342090Y-107900089D01*
X128335493Y-107915879D01*
X128296907Y-108006484D01*
X128265768Y-108076217D01*
X128241917Y-108125405D01*
X128225198Y-108154374D01*
X128215454Y-108163452D01*
X128207766Y-108161405D01*
X128181415Y-108151760D01*
X128142982Y-108136190D01*
X128097822Y-108116815D01*
X128003293Y-108078814D01*
X127866480Y-108037780D01*
X127725289Y-108012612D01*
X127687314Y-108008611D01*
X127584059Y-108006447D01*
X127496952Y-108019622D01*
X127425129Y-108048756D01*
X127367731Y-108094466D01*
X127323896Y-108157372D01*
X127292762Y-108238092D01*
X127273470Y-108337245D01*
X127266050Y-108396224D01*
X127427936Y-108389445D01*
X127554495Y-108387813D01*
X127705951Y-108394194D01*
X127854396Y-108408777D01*
X127990578Y-108430882D01*
X128055245Y-108445821D01*
X128187490Y-108488741D01*
X128309762Y-108545340D01*
X128419685Y-108614017D01*
X128514883Y-108693170D01*
X128592980Y-108781196D01*
X128651599Y-108876493D01*
X128675595Y-108928864D01*
X128701232Y-108999590D01*
X128717478Y-109070812D01*
X128725822Y-109149712D01*
X128727690Y-109240282D01*
X128727755Y-109243467D01*
G37*
X136275614Y-106711792D02*
X136276059Y-106843011D01*
X136276362Y-106990216D01*
X136276548Y-107154349D01*
X136276642Y-107336352D01*
X136276671Y-107537165D01*
X136276661Y-107757732D01*
X136276636Y-107998992D01*
X136276622Y-108261889D01*
X136276622Y-108304040D01*
X136276646Y-108564668D01*
X136276685Y-108803796D01*
X136276708Y-109022360D01*
X136276687Y-109221295D01*
X136276593Y-109401535D01*
X136276395Y-109564015D01*
X136276063Y-109709670D01*
X136275569Y-109839434D01*
X136274883Y-109954243D01*
X136273976Y-110055030D01*
X136272817Y-110142730D01*
X136271378Y-110218279D01*
X136269629Y-110282611D01*
X136267540Y-110336661D01*
X136265083Y-110381363D01*
X136262227Y-110417652D01*
X136258943Y-110446463D01*
X136255202Y-110468731D01*
X136250974Y-110485390D01*
X136246229Y-110497375D01*
X136240939Y-110505621D01*
X136235073Y-110511062D01*
X136228602Y-110514634D01*
X136221497Y-110517270D01*
X136213728Y-110519906D01*
X136205266Y-110523477D01*
X136200908Y-110525145D01*
X136192395Y-110527111D01*
X136179694Y-110528911D01*
X136161885Y-110530555D01*
X136138049Y-110532047D01*
X136107266Y-110533397D01*
X136068617Y-110534611D01*
X136021182Y-110535697D01*
X135964043Y-110536661D01*
X135896279Y-110537511D01*
X135816971Y-110538253D01*
X135725199Y-110538897D01*
X135620044Y-110539447D01*
X135500587Y-110539913D01*
X135365908Y-110540300D01*
X135215088Y-110540616D01*
X135047206Y-110540869D01*
X134861345Y-110541066D01*
X134656583Y-110541213D01*
X134432002Y-110541318D01*
X134186682Y-110541389D01*
X133919704Y-110541432D01*
X133881321Y-110541437D01*
X133615922Y-110541480D01*
X133372050Y-110541525D01*
X133148783Y-110541548D01*
X132945196Y-110541524D01*
X132760367Y-110541430D01*
X132593373Y-110541243D01*
X132443290Y-110540939D01*
X132309196Y-110540494D01*
X132190166Y-110539885D01*
X132085279Y-110539089D01*
X131993610Y-110538080D01*
X131914237Y-110536837D01*
X131846237Y-110535335D01*
X131788686Y-110533551D01*
X131740662Y-110531461D01*
X131701240Y-110529042D01*
X131669499Y-110526270D01*
X131644514Y-110523121D01*
X131625364Y-110519572D01*
X131611123Y-110515598D01*
X131600871Y-110511178D01*
X131593682Y-110506286D01*
X131588635Y-110500900D01*
X131584805Y-110494996D01*
X131581271Y-110488549D01*
X131577108Y-110481537D01*
X131576025Y-110479687D01*
X131573813Y-110474180D01*
X131571786Y-110465868D01*
X131569938Y-110453809D01*
X131568261Y-110437063D01*
X131566745Y-110414687D01*
X131565383Y-110385740D01*
X131564167Y-110349280D01*
X131563089Y-110304367D01*
X131562140Y-110250057D01*
X131561312Y-110185410D01*
X131560597Y-110109484D01*
X131559987Y-110021338D01*
X131559942Y-110012493D01*
X131851378Y-110012493D01*
X131855260Y-110013765D01*
X131878520Y-110015791D01*
X131920874Y-110017626D01*
X131980132Y-110019227D01*
X132054107Y-110020549D01*
X132140610Y-110021548D01*
X132237452Y-110022180D01*
X132342445Y-110022400D01*
X133040651Y-110022400D01*
X134195090Y-110022400D01*
X134194456Y-109946200D01*
X134195574Y-109904160D01*
X134201304Y-109868334D01*
X134213890Y-109830772D01*
X134235568Y-109782577D01*
X134238789Y-109775897D01*
X134264188Y-109726359D01*
X134290996Y-109678369D01*
X134313917Y-109641466D01*
X134318485Y-109634834D01*
X134340516Y-109603593D01*
X134372693Y-109558654D01*
X134413457Y-109502147D01*
X134461245Y-109436204D01*
X134514498Y-109362957D01*
X134571655Y-109284536D01*
X134631155Y-109203072D01*
X134691437Y-109120698D01*
X134750940Y-109039544D01*
X134808105Y-108961742D01*
X134861370Y-108889423D01*
X134909174Y-108824718D01*
X134949957Y-108769759D01*
X134982158Y-108726676D01*
X135004216Y-108697602D01*
X135014571Y-108684667D01*
X135019044Y-108680351D01*
X135023236Y-108678312D01*
X135026643Y-108680926D01*
X135029325Y-108689986D01*
X135031341Y-108707285D01*
X135032748Y-108734614D01*
X135033605Y-108773765D01*
X135033970Y-108826533D01*
X135033903Y-108894707D01*
X135033460Y-108980082D01*
X135032702Y-109084449D01*
X135031685Y-109209600D01*
X135031308Y-109254300D01*
X135030169Y-109375395D01*
X135028972Y-109476688D01*
X135027636Y-109560262D01*
X135026077Y-109628204D01*
X135024215Y-109682599D01*
X135021966Y-109725532D01*
X135019248Y-109759089D01*
X135015979Y-109785355D01*
X135012078Y-109806416D01*
X135007461Y-109824357D01*
X134999192Y-109850770D01*
X134975583Y-109912772D01*
X134949685Y-109965573D01*
X134924535Y-110002645D01*
X134923339Y-110004075D01*
X134921168Y-110008424D01*
X134923328Y-110012026D01*
X134931644Y-110014951D01*
X134947940Y-110017269D01*
X134974041Y-110019051D01*
X135011771Y-110020367D01*
X135062956Y-110021286D01*
X135129420Y-110021878D01*
X135212987Y-110022215D01*
X135315483Y-110022365D01*
X135438732Y-110022400D01*
X135970296Y-110022400D01*
X135931523Y-109964783D01*
X135925432Y-109955893D01*
X135914976Y-109941069D01*
X135905579Y-109927422D01*
X135897183Y-109913765D01*
X135889733Y-109898911D01*
X135883173Y-109881670D01*
X135877446Y-109860855D01*
X135872495Y-109835280D01*
X135868266Y-109803755D01*
X135864701Y-109765093D01*
X135861744Y-109718107D01*
X135859340Y-109661608D01*
X135857431Y-109594409D01*
X135855962Y-109515322D01*
X135854876Y-109423160D01*
X135854118Y-109316734D01*
X135853630Y-109194857D01*
X135853358Y-109056341D01*
X135853243Y-108899999D01*
X135853231Y-108724642D01*
X135853265Y-108529082D01*
X135853289Y-108312133D01*
X135853280Y-108189513D01*
X135853243Y-107984447D01*
X135853227Y-107800116D01*
X135853288Y-107635334D01*
X135853484Y-107488916D01*
X135853870Y-107359674D01*
X135854505Y-107246422D01*
X135855444Y-107147975D01*
X135856745Y-107063144D01*
X135858464Y-106990744D01*
X135860659Y-106929589D01*
X135863385Y-106878492D01*
X135866701Y-106836267D01*
X135870662Y-106801727D01*
X135875325Y-106773686D01*
X135880747Y-106750958D01*
X135886986Y-106732356D01*
X135894097Y-106716693D01*
X135902138Y-106702784D01*
X135911166Y-106689441D01*
X135921236Y-106675479D01*
X135932407Y-106659711D01*
X135972197Y-106601867D01*
X134912314Y-106601867D01*
X134950311Y-106664966D01*
X134964993Y-106690005D01*
X134979531Y-106717586D01*
X134991627Y-106745700D01*
X135001532Y-106776551D01*
X135009494Y-106812344D01*
X135015761Y-106855283D01*
X135020582Y-106907574D01*
X135024206Y-106971419D01*
X135026881Y-107049025D01*
X135028857Y-107142594D01*
X135030382Y-107254333D01*
X135031704Y-107386445D01*
X135032613Y-107506434D01*
X135033020Y-107623063D01*
X135032767Y-107718531D01*
X135031857Y-107792556D01*
X135030293Y-107844855D01*
X135028079Y-107875149D01*
X135025220Y-107883156D01*
X135022161Y-107879858D01*
X135004006Y-107858408D01*
X134974275Y-107821889D01*
X134934639Y-107772442D01*
X134886771Y-107712207D01*
X134832343Y-107643327D01*
X134773027Y-107567943D01*
X134710495Y-107488196D01*
X134646421Y-107406228D01*
X134582475Y-107324180D01*
X134520331Y-107244194D01*
X134461661Y-107168411D01*
X134408137Y-107098973D01*
X134361430Y-107038021D01*
X134323214Y-106987696D01*
X134295161Y-106950140D01*
X134278943Y-106927495D01*
X134233635Y-106855212D01*
X134193661Y-106775463D01*
X134172130Y-106707188D01*
X134168827Y-106649844D01*
X134174116Y-106601867D01*
X133042356Y-106602117D01*
X133081867Y-106632722D01*
X133091248Y-106640089D01*
X133154183Y-106694438D01*
X133222997Y-106762259D01*
X133299596Y-106845516D01*
X133385888Y-106946178D01*
X133403052Y-106966847D01*
X133443833Y-107016409D01*
X133493588Y-107077326D01*
X133550955Y-107147898D01*
X133614569Y-107226424D01*
X133683069Y-107311204D01*
X133755090Y-107400537D01*
X133829270Y-107492722D01*
X133844517Y-107511702D01*
X133904246Y-107586060D01*
X133978653Y-107678848D01*
X134051131Y-107769388D01*
X134120314Y-107855978D01*
X134184841Y-107936918D01*
X134243347Y-108010506D01*
X134294470Y-108075044D01*
X134336847Y-108128829D01*
X134369115Y-108170162D01*
X134389910Y-108197342D01*
X134397869Y-108208668D01*
X134396111Y-108212771D01*
X134383230Y-108233334D01*
X134358885Y-108269561D01*
X134324247Y-108319824D01*
X134280486Y-108382492D01*
X134228775Y-108455936D01*
X134170284Y-108538527D01*
X134106184Y-108628636D01*
X134037646Y-108724631D01*
X133965843Y-108824885D01*
X133891944Y-108927768D01*
X133817121Y-109031650D01*
X133742545Y-109134901D01*
X133669387Y-109235892D01*
X133598819Y-109332994D01*
X133532011Y-109424577D01*
X133470135Y-109509011D01*
X133414361Y-109584667D01*
X133365862Y-109649916D01*
X133325807Y-109703128D01*
X133295369Y-109742673D01*
X133274944Y-109768026D01*
X133228899Y-109822295D01*
X133178612Y-109878775D01*
X133131815Y-109928669D01*
X133040651Y-110022400D01*
X132342445Y-110022400D01*
X132411356Y-110022349D01*
X132509607Y-110022091D01*
X132599030Y-110021637D01*
X132677333Y-110021010D01*
X132742223Y-110020235D01*
X132791411Y-110019335D01*
X132822604Y-110018334D01*
X132833511Y-110017257D01*
X132832322Y-110014037D01*
X132822176Y-109996452D01*
X132805040Y-109970158D01*
X132796540Y-109957691D01*
X132787329Y-109943622D01*
X132779233Y-109929351D01*
X132772185Y-109913479D01*
X132766117Y-109894609D01*
X132760961Y-109871341D01*
X132756651Y-109842278D01*
X132753119Y-109806021D01*
X132750297Y-109761170D01*
X132748118Y-109706328D01*
X132746514Y-109640097D01*
X132745419Y-109561077D01*
X132744765Y-109467871D01*
X132744484Y-109359079D01*
X132744509Y-109233303D01*
X132744772Y-109089145D01*
X132745206Y-108925207D01*
X132745745Y-108740089D01*
X132746279Y-108561232D01*
X132746805Y-108402374D01*
X132747350Y-108263316D01*
X132747945Y-108142665D01*
X132748619Y-108039028D01*
X132749403Y-107951011D01*
X132750326Y-107877223D01*
X132751419Y-107816269D01*
X132752712Y-107766757D01*
X132754235Y-107727293D01*
X132756019Y-107696484D01*
X132758092Y-107672938D01*
X132760486Y-107655260D01*
X132763230Y-107642059D01*
X132766356Y-107631940D01*
X132769892Y-107623511D01*
X132773791Y-107615375D01*
X132793438Y-107578544D01*
X132812225Y-107548391D01*
X132813272Y-107546908D01*
X132827602Y-107524659D01*
X132833511Y-107511702D01*
X132832504Y-107511249D01*
X132815305Y-107509803D01*
X132778656Y-107508480D01*
X132724962Y-107507316D01*
X132656630Y-107506347D01*
X132576064Y-107505611D01*
X132485670Y-107505142D01*
X132387853Y-107504978D01*
X131942195Y-107504978D01*
X131939120Y-108681845D01*
X131936045Y-109858711D01*
X131909407Y-109917622D01*
X131897485Y-109942183D01*
X131880246Y-109972434D01*
X131867074Y-109989560D01*
X131859076Y-109997591D01*
X131851378Y-110012493D01*
X131559942Y-110012493D01*
X131559474Y-109920029D01*
X131559050Y-109804617D01*
X131558706Y-109674160D01*
X131558434Y-109527716D01*
X131558227Y-109364344D01*
X131558076Y-109183101D01*
X131557972Y-108983048D01*
X131557908Y-108763241D01*
X131557876Y-108522739D01*
X131557867Y-108260602D01*
X131557867Y-106069031D01*
X131596249Y-106030649D01*
X131623355Y-106006911D01*
X131650253Y-105995111D01*
X131686560Y-105992267D01*
X131738489Y-105992267D01*
X131738489Y-106080206D01*
X131740427Y-106130102D01*
X131759199Y-106240523D01*
X131796217Y-106341987D01*
X131849369Y-106433152D01*
X131916546Y-106512673D01*
X131995638Y-106579205D01*
X132084534Y-106631406D01*
X132181125Y-106667930D01*
X132283300Y-106687434D01*
X132388950Y-106688573D01*
X132495964Y-106670005D01*
X132602232Y-106630384D01*
X132699219Y-106572516D01*
X132784293Y-106497684D01*
X132853015Y-106409615D01*
X132903918Y-106310616D01*
X132935535Y-106202993D01*
X132946400Y-106089054D01*
X132946400Y-105992267D01*
X134566753Y-105992267D01*
X134777897Y-105992280D01*
X134982020Y-105992330D01*
X135165686Y-105992430D01*
X135329991Y-105992592D01*
X135476029Y-105992829D01*
X135604894Y-105993153D01*
X135717683Y-105993575D01*
X135815488Y-105994109D01*
X135899404Y-105994767D01*
X135970527Y-105995561D01*
X136029950Y-105996504D01*
X136078768Y-105997608D01*
X136118077Y-105998884D01*
X136148969Y-106000347D01*
X136172541Y-106002007D01*
X136189886Y-106003878D01*
X136202099Y-106005972D01*
X136210275Y-106008300D01*
X136215508Y-106010876D01*
X136221504Y-106014445D01*
X136228279Y-106017978D01*
X136234478Y-106021488D01*
X136240126Y-106025918D01*
X136245247Y-106032208D01*
X136249869Y-106041301D01*
X136254015Y-106054139D01*
X136257713Y-106071662D01*
X136260987Y-106094813D01*
X136263863Y-106124534D01*
X136266367Y-106161765D01*
X136268524Y-106207449D01*
X136270360Y-106262527D01*
X136271900Y-106327941D01*
X136273170Y-106404633D01*
X136274195Y-106493544D01*
X136275001Y-106595617D01*
X136275034Y-106601867D01*
X136275614Y-106711792D01*
G36*
X136275614Y-106711792D02*
G01*
X136276059Y-106843011D01*
X136276362Y-106990216D01*
X136276548Y-107154349D01*
X136276642Y-107336352D01*
X136276671Y-107537165D01*
X136276661Y-107757732D01*
X136276636Y-107998992D01*
X136276622Y-108261889D01*
X136276622Y-108304040D01*
X136276646Y-108564668D01*
X136276685Y-108803796D01*
X136276708Y-109022360D01*
X136276687Y-109221295D01*
X136276593Y-109401535D01*
X136276395Y-109564015D01*
X136276063Y-109709670D01*
X136275569Y-109839434D01*
X136274883Y-109954243D01*
X136273976Y-110055030D01*
X136272817Y-110142730D01*
X136271378Y-110218279D01*
X136269629Y-110282611D01*
X136267540Y-110336661D01*
X136265083Y-110381363D01*
X136262227Y-110417652D01*
X136258943Y-110446463D01*
X136255202Y-110468731D01*
X136250974Y-110485390D01*
X136246229Y-110497375D01*
X136240939Y-110505621D01*
X136235073Y-110511062D01*
X136228602Y-110514634D01*
X136221497Y-110517270D01*
X136213728Y-110519906D01*
X136205266Y-110523477D01*
X136200908Y-110525145D01*
X136192395Y-110527111D01*
X136179694Y-110528911D01*
X136161885Y-110530555D01*
X136138049Y-110532047D01*
X136107266Y-110533397D01*
X136068617Y-110534611D01*
X136021182Y-110535697D01*
X135964043Y-110536661D01*
X135896279Y-110537511D01*
X135816971Y-110538253D01*
X135725199Y-110538897D01*
X135620044Y-110539447D01*
X135500587Y-110539913D01*
X135365908Y-110540300D01*
X135215088Y-110540616D01*
X135047206Y-110540869D01*
X134861345Y-110541066D01*
X134656583Y-110541213D01*
X134432002Y-110541318D01*
X134186682Y-110541389D01*
X133919704Y-110541432D01*
X133881321Y-110541437D01*
X133615922Y-110541480D01*
X133372050Y-110541525D01*
X133148783Y-110541548D01*
X132945196Y-110541524D01*
X132760367Y-110541430D01*
X132593373Y-110541243D01*
X132443290Y-110540939D01*
X132309196Y-110540494D01*
X132190166Y-110539885D01*
X132085279Y-110539089D01*
X131993610Y-110538080D01*
X131914237Y-110536837D01*
X131846237Y-110535335D01*
X131788686Y-110533551D01*
X131740662Y-110531461D01*
X131701240Y-110529042D01*
X131669499Y-110526270D01*
X131644514Y-110523121D01*
X131625364Y-110519572D01*
X131611123Y-110515598D01*
X131600871Y-110511178D01*
X131593682Y-110506286D01*
X131588635Y-110500900D01*
X131584805Y-110494996D01*
X131581271Y-110488549D01*
X131577108Y-110481537D01*
X131576025Y-110479687D01*
X131573813Y-110474180D01*
X131571786Y-110465868D01*
X131569938Y-110453809D01*
X131568261Y-110437063D01*
X131566745Y-110414687D01*
X131565383Y-110385740D01*
X131564167Y-110349280D01*
X131563089Y-110304367D01*
X131562140Y-110250057D01*
X131561312Y-110185410D01*
X131560597Y-110109484D01*
X131559987Y-110021338D01*
X131559942Y-110012493D01*
X131851378Y-110012493D01*
X131855260Y-110013765D01*
X131878520Y-110015791D01*
X131920874Y-110017626D01*
X131980132Y-110019227D01*
X132054107Y-110020549D01*
X132140610Y-110021548D01*
X132237452Y-110022180D01*
X132342445Y-110022400D01*
X133040651Y-110022400D01*
X134195090Y-110022400D01*
X134194456Y-109946200D01*
X134195574Y-109904160D01*
X134201304Y-109868334D01*
X134213890Y-109830772D01*
X134235568Y-109782577D01*
X134238789Y-109775897D01*
X134264188Y-109726359D01*
X134290996Y-109678369D01*
X134313917Y-109641466D01*
X134318485Y-109634834D01*
X134340516Y-109603593D01*
X134372693Y-109558654D01*
X134413457Y-109502147D01*
X134461245Y-109436204D01*
X134514498Y-109362957D01*
X134571655Y-109284536D01*
X134631155Y-109203072D01*
X134691437Y-109120698D01*
X134750940Y-109039544D01*
X134808105Y-108961742D01*
X134861370Y-108889423D01*
X134909174Y-108824718D01*
X134949957Y-108769759D01*
X134982158Y-108726676D01*
X135004216Y-108697602D01*
X135014571Y-108684667D01*
X135019044Y-108680351D01*
X135023236Y-108678312D01*
X135026643Y-108680926D01*
X135029325Y-108689986D01*
X135031341Y-108707285D01*
X135032748Y-108734614D01*
X135033605Y-108773765D01*
X135033970Y-108826533D01*
X135033903Y-108894707D01*
X135033460Y-108980082D01*
X135032702Y-109084449D01*
X135031685Y-109209600D01*
X135031308Y-109254300D01*
X135030169Y-109375395D01*
X135028972Y-109476688D01*
X135027636Y-109560262D01*
X135026077Y-109628204D01*
X135024215Y-109682599D01*
X135021966Y-109725532D01*
X135019248Y-109759089D01*
X135015979Y-109785355D01*
X135012078Y-109806416D01*
X135007461Y-109824357D01*
X134999192Y-109850770D01*
X134975583Y-109912772D01*
X134949685Y-109965573D01*
X134924535Y-110002645D01*
X134923339Y-110004075D01*
X134921168Y-110008424D01*
X134923328Y-110012026D01*
X134931644Y-110014951D01*
X134947940Y-110017269D01*
X134974041Y-110019051D01*
X135011771Y-110020367D01*
X135062956Y-110021286D01*
X135129420Y-110021878D01*
X135212987Y-110022215D01*
X135315483Y-110022365D01*
X135438732Y-110022400D01*
X135970296Y-110022400D01*
X135931523Y-109964783D01*
X135925432Y-109955893D01*
X135914976Y-109941069D01*
X135905579Y-109927422D01*
X135897183Y-109913765D01*
X135889733Y-109898911D01*
X135883173Y-109881670D01*
X135877446Y-109860855D01*
X135872495Y-109835280D01*
X135868266Y-109803755D01*
X135864701Y-109765093D01*
X135861744Y-109718107D01*
X135859340Y-109661608D01*
X135857431Y-109594409D01*
X135855962Y-109515322D01*
X135854876Y-109423160D01*
X135854118Y-109316734D01*
X135853630Y-109194857D01*
X135853358Y-109056341D01*
X135853243Y-108899999D01*
X135853231Y-108724642D01*
X135853265Y-108529082D01*
X135853289Y-108312133D01*
X135853280Y-108189513D01*
X135853243Y-107984447D01*
X135853227Y-107800116D01*
X135853288Y-107635334D01*
X135853484Y-107488916D01*
X135853870Y-107359674D01*
X135854505Y-107246422D01*
X135855444Y-107147975D01*
X135856745Y-107063144D01*
X135858464Y-106990744D01*
X135860659Y-106929589D01*
X135863385Y-106878492D01*
X135866701Y-106836267D01*
X135870662Y-106801727D01*
X135875325Y-106773686D01*
X135880747Y-106750958D01*
X135886986Y-106732356D01*
X135894097Y-106716693D01*
X135902138Y-106702784D01*
X135911166Y-106689441D01*
X135921236Y-106675479D01*
X135932407Y-106659711D01*
X135972197Y-106601867D01*
X134912314Y-106601867D01*
X134950311Y-106664966D01*
X134964993Y-106690005D01*
X134979531Y-106717586D01*
X134991627Y-106745700D01*
X135001532Y-106776551D01*
X135009494Y-106812344D01*
X135015761Y-106855283D01*
X135020582Y-106907574D01*
X135024206Y-106971419D01*
X135026881Y-107049025D01*
X135028857Y-107142594D01*
X135030382Y-107254333D01*
X135031704Y-107386445D01*
X135032613Y-107506434D01*
X135033020Y-107623063D01*
X135032767Y-107718531D01*
X135031857Y-107792556D01*
X135030293Y-107844855D01*
X135028079Y-107875149D01*
X135025220Y-107883156D01*
X135022161Y-107879858D01*
X135004006Y-107858408D01*
X134974275Y-107821889D01*
X134934639Y-107772442D01*
X134886771Y-107712207D01*
X134832343Y-107643327D01*
X134773027Y-107567943D01*
X134710495Y-107488196D01*
X134646421Y-107406228D01*
X134582475Y-107324180D01*
X134520331Y-107244194D01*
X134461661Y-107168411D01*
X134408137Y-107098973D01*
X134361430Y-107038021D01*
X134323214Y-106987696D01*
X134295161Y-106950140D01*
X134278943Y-106927495D01*
X134233635Y-106855212D01*
X134193661Y-106775463D01*
X134172130Y-106707188D01*
X134168827Y-106649844D01*
X134174116Y-106601867D01*
X133042356Y-106602117D01*
X133081867Y-106632722D01*
X133091248Y-106640089D01*
X133154183Y-106694438D01*
X133222997Y-106762259D01*
X133299596Y-106845516D01*
X133385888Y-106946178D01*
X133403052Y-106966847D01*
X133443833Y-107016409D01*
X133493588Y-107077326D01*
X133550955Y-107147898D01*
X133614569Y-107226424D01*
X133683069Y-107311204D01*
X133755090Y-107400537D01*
X133829270Y-107492722D01*
X133844517Y-107511702D01*
X133904246Y-107586060D01*
X133978653Y-107678848D01*
X134051131Y-107769388D01*
X134120314Y-107855978D01*
X134184841Y-107936918D01*
X134243347Y-108010506D01*
X134294470Y-108075044D01*
X134336847Y-108128829D01*
X134369115Y-108170162D01*
X134389910Y-108197342D01*
X134397869Y-108208668D01*
X134396111Y-108212771D01*
X134383230Y-108233334D01*
X134358885Y-108269561D01*
X134324247Y-108319824D01*
X134280486Y-108382492D01*
X134228775Y-108455936D01*
X134170284Y-108538527D01*
X134106184Y-108628636D01*
X134037646Y-108724631D01*
X133965843Y-108824885D01*
X133891944Y-108927768D01*
X133817121Y-109031650D01*
X133742545Y-109134901D01*
X133669387Y-109235892D01*
X133598819Y-109332994D01*
X133532011Y-109424577D01*
X133470135Y-109509011D01*
X133414361Y-109584667D01*
X133365862Y-109649916D01*
X133325807Y-109703128D01*
X133295369Y-109742673D01*
X133274944Y-109768026D01*
X133228899Y-109822295D01*
X133178612Y-109878775D01*
X133131815Y-109928669D01*
X133040651Y-110022400D01*
X132342445Y-110022400D01*
X132411356Y-110022349D01*
X132509607Y-110022091D01*
X132599030Y-110021637D01*
X132677333Y-110021010D01*
X132742223Y-110020235D01*
X132791411Y-110019335D01*
X132822604Y-110018334D01*
X132833511Y-110017257D01*
X132832322Y-110014037D01*
X132822176Y-109996452D01*
X132805040Y-109970158D01*
X132796540Y-109957691D01*
X132787329Y-109943622D01*
X132779233Y-109929351D01*
X132772185Y-109913479D01*
X132766117Y-109894609D01*
X132760961Y-109871341D01*
X132756651Y-109842278D01*
X132753119Y-109806021D01*
X132750297Y-109761170D01*
X132748118Y-109706328D01*
X132746514Y-109640097D01*
X132745419Y-109561077D01*
X132744765Y-109467871D01*
X132744484Y-109359079D01*
X132744509Y-109233303D01*
X132744772Y-109089145D01*
X132745206Y-108925207D01*
X132745745Y-108740089D01*
X132746279Y-108561232D01*
X132746805Y-108402374D01*
X132747350Y-108263316D01*
X132747945Y-108142665D01*
X132748619Y-108039028D01*
X132749403Y-107951011D01*
X132750326Y-107877223D01*
X132751419Y-107816269D01*
X132752712Y-107766757D01*
X132754235Y-107727293D01*
X132756019Y-107696484D01*
X132758092Y-107672938D01*
X132760486Y-107655260D01*
X132763230Y-107642059D01*
X132766356Y-107631940D01*
X132769892Y-107623511D01*
X132773791Y-107615375D01*
X132793438Y-107578544D01*
X132812225Y-107548391D01*
X132813272Y-107546908D01*
X132827602Y-107524659D01*
X132833511Y-107511702D01*
X132832504Y-107511249D01*
X132815305Y-107509803D01*
X132778656Y-107508480D01*
X132724962Y-107507316D01*
X132656630Y-107506347D01*
X132576064Y-107505611D01*
X132485670Y-107505142D01*
X132387853Y-107504978D01*
X131942195Y-107504978D01*
X131939120Y-108681845D01*
X131936045Y-109858711D01*
X131909407Y-109917622D01*
X131897485Y-109942183D01*
X131880246Y-109972434D01*
X131867074Y-109989560D01*
X131859076Y-109997591D01*
X131851378Y-110012493D01*
X131559942Y-110012493D01*
X131559474Y-109920029D01*
X131559050Y-109804617D01*
X131558706Y-109674160D01*
X131558434Y-109527716D01*
X131558227Y-109364344D01*
X131558076Y-109183101D01*
X131557972Y-108983048D01*
X131557908Y-108763241D01*
X131557876Y-108522739D01*
X131557867Y-108260602D01*
X131557867Y-106069031D01*
X131596249Y-106030649D01*
X131623355Y-106006911D01*
X131650253Y-105995111D01*
X131686560Y-105992267D01*
X131738489Y-105992267D01*
X131738489Y-106080206D01*
X131740427Y-106130102D01*
X131759199Y-106240523D01*
X131796217Y-106341987D01*
X131849369Y-106433152D01*
X131916546Y-106512673D01*
X131995638Y-106579205D01*
X132084534Y-106631406D01*
X132181125Y-106667930D01*
X132283300Y-106687434D01*
X132388950Y-106688573D01*
X132495964Y-106670005D01*
X132602232Y-106630384D01*
X132699219Y-106572516D01*
X132784293Y-106497684D01*
X132853015Y-106409615D01*
X132903918Y-106310616D01*
X132935535Y-106202993D01*
X132946400Y-106089054D01*
X132946400Y-105992267D01*
X134566753Y-105992267D01*
X134777897Y-105992280D01*
X134982020Y-105992330D01*
X135165686Y-105992430D01*
X135329991Y-105992592D01*
X135476029Y-105992829D01*
X135604894Y-105993153D01*
X135717683Y-105993575D01*
X135815488Y-105994109D01*
X135899404Y-105994767D01*
X135970527Y-105995561D01*
X136029950Y-105996504D01*
X136078768Y-105997608D01*
X136118077Y-105998884D01*
X136148969Y-106000347D01*
X136172541Y-106002007D01*
X136189886Y-106003878D01*
X136202099Y-106005972D01*
X136210275Y-106008300D01*
X136215508Y-106010876D01*
X136221504Y-106014445D01*
X136228279Y-106017978D01*
X136234478Y-106021488D01*
X136240126Y-106025918D01*
X136245247Y-106032208D01*
X136249869Y-106041301D01*
X136254015Y-106054139D01*
X136257713Y-106071662D01*
X136260987Y-106094813D01*
X136263863Y-106124534D01*
X136266367Y-106161765D01*
X136268524Y-106207449D01*
X136270360Y-106262527D01*
X136271900Y-106327941D01*
X136273170Y-106404633D01*
X136274195Y-106493544D01*
X136275001Y-106595617D01*
X136275034Y-106601867D01*
X136275614Y-106711792D01*
G37*
M02*
