%TF.GenerationSoftware,KiCad,Pcbnew,9.0.1*%
%TF.CreationDate,2025-08-17T13:00:44+05:00*%
%TF.ProjectId,servo_tester,73657276-6f5f-4746-9573-7465722e6b69,rev?*%
%TF.SameCoordinates,Original*%
%TF.FileFunction,Drillmap*%
%TF.FilePolarity,Positive*%
%FSLAX45Y45*%
G04 Gerber Fmt 4.5, Leading zero omitted, Abs format (unit mm)*
G04 Created by KiCad (PCBNEW 9.0.1) date 2025-08-17 13:00:44*
%MOMM*%
%LPD*%
G01*
G04 APERTURE LIST*
%ADD10C,0.050000*%
%ADD11C,0.200000*%
%ADD12C,0.100000*%
%ADD13C,0.120000*%
G04 APERTURE END LIST*
D10*
X13090000Y-7630000D02*
X16360000Y-7630000D01*
X16360000Y-10590000D01*
X13090000Y-10590000D01*
X13090000Y-7630000D01*
X13435000Y-7825000D02*
G75*
G02*
X13135000Y-7825000I-150000J0D01*
G01*
X13135000Y-7825000D02*
G75*
G02*
X13435000Y-7825000I150000J0D01*
G01*
X13435000Y-10390000D02*
G75*
G02*
X13135000Y-10390000I-150000J0D01*
G01*
X13135000Y-10390000D02*
G75*
G02*
X13435000Y-10390000I150000J0D01*
G01*
X16325000Y-10390000D02*
G75*
G02*
X16025000Y-10390000I-150000J0D01*
G01*
X16025000Y-10390000D02*
G75*
G02*
X16325000Y-10390000I150000J0D01*
G01*
X16325000Y-7825000D02*
G75*
G02*
X16025000Y-7825000I-150000J0D01*
G01*
X16025000Y-7825000D02*
G75*
G02*
X16325000Y-7825000I150000J0D01*
G01*
D11*
D12*
X13715000Y-7865000D02*
X13785000Y-7935000D01*
X13785000Y-7865000D02*
X13715000Y-7935000D01*
X13715000Y-8627000D02*
X13785000Y-8697000D01*
X13785000Y-8627000D02*
X13715000Y-8697000D01*
X14063000Y-10216000D02*
X14133000Y-10286000D01*
X14133000Y-10216000D02*
X14063000Y-10286000D01*
X14825000Y-10216000D02*
X14895000Y-10286000D01*
X14895000Y-10216000D02*
X14825000Y-10286000D01*
X15134000Y-8966000D02*
X15204000Y-9036000D01*
X15204000Y-8966000D02*
X15134000Y-9036000D01*
X15896000Y-8966000D02*
X15966000Y-9036000D01*
X15966000Y-8966000D02*
X15896000Y-9036000D01*
X13760000Y-9490000D02*
G75*
G02*
X13680000Y-9490000I-40000J0D01*
G01*
X13680000Y-9490000D02*
G75*
G02*
X13760000Y-9490000I40000J0D01*
G01*
X13760000Y-10252000D02*
G75*
G02*
X13680000Y-10252000I-40000J0D01*
G01*
X13680000Y-10252000D02*
G75*
G02*
X13760000Y-10252000I40000J0D01*
G01*
X14098000Y-9048000D02*
G75*
G02*
X14018000Y-9048000I-40000J0D01*
G01*
X14018000Y-9048000D02*
G75*
G02*
X14098000Y-9048000I40000J0D01*
G01*
X14098000Y-9302000D02*
G75*
G02*
X14018000Y-9302000I-40000J0D01*
G01*
X14018000Y-9302000D02*
G75*
G02*
X14098000Y-9302000I40000J0D01*
G01*
X14098000Y-9556000D02*
G75*
G02*
X14018000Y-9556000I-40000J0D01*
G01*
X14018000Y-9556000D02*
G75*
G02*
X14098000Y-9556000I40000J0D01*
G01*
X14098000Y-9810000D02*
G75*
G02*
X14018000Y-9810000I-40000J0D01*
G01*
X14018000Y-9810000D02*
G75*
G02*
X14098000Y-9810000I40000J0D01*
G01*
X14860000Y-9048000D02*
G75*
G02*
X14780000Y-9048000I-40000J0D01*
G01*
X14780000Y-9048000D02*
G75*
G02*
X14860000Y-9048000I40000J0D01*
G01*
X14860000Y-9302000D02*
G75*
G02*
X14780000Y-9302000I-40000J0D01*
G01*
X14780000Y-9302000D02*
G75*
G02*
X14860000Y-9302000I40000J0D01*
G01*
X14860000Y-9556000D02*
G75*
G02*
X14780000Y-9556000I-40000J0D01*
G01*
X14780000Y-9556000D02*
G75*
G02*
X14860000Y-9556000I40000J0D01*
G01*
X14860000Y-9810000D02*
G75*
G02*
X14780000Y-9810000I-40000J0D01*
G01*
X14780000Y-9810000D02*
G75*
G02*
X14860000Y-9810000I40000J0D01*
G01*
X15440000Y-9751000D02*
G75*
G02*
X15360000Y-9751000I-40000J0D01*
G01*
X15360000Y-9751000D02*
G75*
G02*
X15440000Y-9751000I40000J0D01*
G01*
X15440000Y-10251000D02*
G75*
G02*
X15360000Y-10251000I-40000J0D01*
G01*
X15360000Y-10251000D02*
G75*
G02*
X15440000Y-10251000I40000J0D01*
G01*
X13325000Y-9018000D02*
X13325000Y-9108000D01*
X13280000Y-9063000D02*
X13370000Y-9063000D01*
X13325000Y-9272000D02*
X13325000Y-9362000D01*
X13280000Y-9317000D02*
X13370000Y-9317000D01*
X13273856Y-8368856D02*
X13273856Y-8298144D01*
X13203144Y-8298144D01*
X13203144Y-8368856D01*
X13273856Y-8368856D01*
X13273856Y-8622856D02*
X13273856Y-8552144D01*
X13203144Y-8552144D01*
X13203144Y-8622856D01*
X13273856Y-8622856D01*
X16246856Y-9411356D02*
X16246856Y-9340644D01*
X16176144Y-9340644D01*
X16176144Y-9411356D01*
X16246856Y-9411356D01*
X16246856Y-9665356D02*
X16246856Y-9594644D01*
X16176144Y-9594644D01*
X16176144Y-9665356D01*
X16246856Y-9665356D01*
X16246856Y-9919356D02*
X16246856Y-9848644D01*
X16176144Y-9848644D01*
X16176144Y-9919356D01*
X16246856Y-9919356D01*
D13*
X14520000Y-8100000D02*
X14580000Y-8040000D01*
X14520000Y-7980000D01*
X14460000Y-8040000D01*
X14520000Y-8100000D01*
X15020000Y-8100000D02*
X15080000Y-8040000D01*
X15020000Y-7980000D01*
X14960000Y-8040000D01*
X15020000Y-8100000D01*
X15520000Y-8100000D02*
X15580000Y-8040000D01*
X15520000Y-7980000D01*
X15460000Y-8040000D01*
X15520000Y-8100000D01*
D11*
X13348277Y-10903984D02*
X13348277Y-10703984D01*
X13348277Y-10703984D02*
X13395896Y-10703984D01*
X13395896Y-10703984D02*
X13424467Y-10713508D01*
X13424467Y-10713508D02*
X13443515Y-10732555D01*
X13443515Y-10732555D02*
X13453039Y-10751603D01*
X13453039Y-10751603D02*
X13462562Y-10789698D01*
X13462562Y-10789698D02*
X13462562Y-10818270D01*
X13462562Y-10818270D02*
X13453039Y-10856365D01*
X13453039Y-10856365D02*
X13443515Y-10875412D01*
X13443515Y-10875412D02*
X13424467Y-10894460D01*
X13424467Y-10894460D02*
X13395896Y-10903984D01*
X13395896Y-10903984D02*
X13348277Y-10903984D01*
X13548277Y-10903984D02*
X13548277Y-10770650D01*
X13548277Y-10808746D02*
X13557801Y-10789698D01*
X13557801Y-10789698D02*
X13567324Y-10780174D01*
X13567324Y-10780174D02*
X13586372Y-10770650D01*
X13586372Y-10770650D02*
X13605420Y-10770650D01*
X13672086Y-10903984D02*
X13672086Y-10770650D01*
X13672086Y-10703984D02*
X13662562Y-10713508D01*
X13662562Y-10713508D02*
X13672086Y-10723031D01*
X13672086Y-10723031D02*
X13681610Y-10713508D01*
X13681610Y-10713508D02*
X13672086Y-10703984D01*
X13672086Y-10703984D02*
X13672086Y-10723031D01*
X13795896Y-10903984D02*
X13776848Y-10894460D01*
X13776848Y-10894460D02*
X13767324Y-10875412D01*
X13767324Y-10875412D02*
X13767324Y-10703984D01*
X13900658Y-10903984D02*
X13881610Y-10894460D01*
X13881610Y-10894460D02*
X13872086Y-10875412D01*
X13872086Y-10875412D02*
X13872086Y-10703984D01*
X14129229Y-10903984D02*
X14129229Y-10703984D01*
X14129229Y-10703984D02*
X14195896Y-10846841D01*
X14195896Y-10846841D02*
X14262562Y-10703984D01*
X14262562Y-10703984D02*
X14262562Y-10903984D01*
X14443515Y-10903984D02*
X14443515Y-10799222D01*
X14443515Y-10799222D02*
X14433991Y-10780174D01*
X14433991Y-10780174D02*
X14414943Y-10770650D01*
X14414943Y-10770650D02*
X14376848Y-10770650D01*
X14376848Y-10770650D02*
X14357801Y-10780174D01*
X14443515Y-10894460D02*
X14424467Y-10903984D01*
X14424467Y-10903984D02*
X14376848Y-10903984D01*
X14376848Y-10903984D02*
X14357801Y-10894460D01*
X14357801Y-10894460D02*
X14348277Y-10875412D01*
X14348277Y-10875412D02*
X14348277Y-10856365D01*
X14348277Y-10856365D02*
X14357801Y-10837317D01*
X14357801Y-10837317D02*
X14376848Y-10827793D01*
X14376848Y-10827793D02*
X14424467Y-10827793D01*
X14424467Y-10827793D02*
X14443515Y-10818270D01*
X14538753Y-10770650D02*
X14538753Y-10970650D01*
X14538753Y-10780174D02*
X14557801Y-10770650D01*
X14557801Y-10770650D02*
X14595896Y-10770650D01*
X14595896Y-10770650D02*
X14614943Y-10780174D01*
X14614943Y-10780174D02*
X14624467Y-10789698D01*
X14624467Y-10789698D02*
X14633991Y-10808746D01*
X14633991Y-10808746D02*
X14633991Y-10865889D01*
X14633991Y-10865889D02*
X14624467Y-10884936D01*
X14624467Y-10884936D02*
X14614943Y-10894460D01*
X14614943Y-10894460D02*
X14595896Y-10903984D01*
X14595896Y-10903984D02*
X14557801Y-10903984D01*
X14557801Y-10903984D02*
X14538753Y-10894460D01*
X14719705Y-10884936D02*
X14729229Y-10894460D01*
X14729229Y-10894460D02*
X14719705Y-10903984D01*
X14719705Y-10903984D02*
X14710182Y-10894460D01*
X14710182Y-10894460D02*
X14719705Y-10884936D01*
X14719705Y-10884936D02*
X14719705Y-10903984D01*
X14719705Y-10780174D02*
X14729229Y-10789698D01*
X14729229Y-10789698D02*
X14719705Y-10799222D01*
X14719705Y-10799222D02*
X14710182Y-10789698D01*
X14710182Y-10789698D02*
X14719705Y-10780174D01*
X14719705Y-10780174D02*
X14719705Y-10799222D01*
D12*
X13017500Y-11197500D02*
X13087500Y-11267500D01*
X13087500Y-11197500D02*
X13017500Y-11267500D01*
D11*
X13386372Y-11123984D02*
X13405420Y-11123984D01*
X13405420Y-11123984D02*
X13424467Y-11133508D01*
X13424467Y-11133508D02*
X13433991Y-11143031D01*
X13433991Y-11143031D02*
X13443515Y-11162079D01*
X13443515Y-11162079D02*
X13453039Y-11200174D01*
X13453039Y-11200174D02*
X13453039Y-11247793D01*
X13453039Y-11247793D02*
X13443515Y-11285888D01*
X13443515Y-11285888D02*
X13433991Y-11304936D01*
X13433991Y-11304936D02*
X13424467Y-11314460D01*
X13424467Y-11314460D02*
X13405420Y-11323984D01*
X13405420Y-11323984D02*
X13386372Y-11323984D01*
X13386372Y-11323984D02*
X13367324Y-11314460D01*
X13367324Y-11314460D02*
X13357801Y-11304936D01*
X13357801Y-11304936D02*
X13348277Y-11285888D01*
X13348277Y-11285888D02*
X13338753Y-11247793D01*
X13338753Y-11247793D02*
X13338753Y-11200174D01*
X13338753Y-11200174D02*
X13348277Y-11162079D01*
X13348277Y-11162079D02*
X13357801Y-11143031D01*
X13357801Y-11143031D02*
X13367324Y-11133508D01*
X13367324Y-11133508D02*
X13386372Y-11123984D01*
X13538753Y-11304936D02*
X13548277Y-11314460D01*
X13548277Y-11314460D02*
X13538753Y-11323984D01*
X13538753Y-11323984D02*
X13529229Y-11314460D01*
X13529229Y-11314460D02*
X13538753Y-11304936D01*
X13538753Y-11304936D02*
X13538753Y-11323984D01*
X13614943Y-11123984D02*
X13748277Y-11123984D01*
X13748277Y-11123984D02*
X13662562Y-11323984D01*
X13862562Y-11123984D02*
X13881610Y-11123984D01*
X13881610Y-11123984D02*
X13900658Y-11133508D01*
X13900658Y-11133508D02*
X13910182Y-11143031D01*
X13910182Y-11143031D02*
X13919705Y-11162079D01*
X13919705Y-11162079D02*
X13929229Y-11200174D01*
X13929229Y-11200174D02*
X13929229Y-11247793D01*
X13929229Y-11247793D02*
X13919705Y-11285888D01*
X13919705Y-11285888D02*
X13910182Y-11304936D01*
X13910182Y-11304936D02*
X13900658Y-11314460D01*
X13900658Y-11314460D02*
X13881610Y-11323984D01*
X13881610Y-11323984D02*
X13862562Y-11323984D01*
X13862562Y-11323984D02*
X13843515Y-11314460D01*
X13843515Y-11314460D02*
X13833991Y-11304936D01*
X13833991Y-11304936D02*
X13824467Y-11285888D01*
X13824467Y-11285888D02*
X13814943Y-11247793D01*
X13814943Y-11247793D02*
X13814943Y-11200174D01*
X13814943Y-11200174D02*
X13824467Y-11162079D01*
X13824467Y-11162079D02*
X13833991Y-11143031D01*
X13833991Y-11143031D02*
X13843515Y-11133508D01*
X13843515Y-11133508D02*
X13862562Y-11123984D01*
X14053039Y-11123984D02*
X14072086Y-11123984D01*
X14072086Y-11123984D02*
X14091134Y-11133508D01*
X14091134Y-11133508D02*
X14100658Y-11143031D01*
X14100658Y-11143031D02*
X14110182Y-11162079D01*
X14110182Y-11162079D02*
X14119705Y-11200174D01*
X14119705Y-11200174D02*
X14119705Y-11247793D01*
X14119705Y-11247793D02*
X14110182Y-11285888D01*
X14110182Y-11285888D02*
X14100658Y-11304936D01*
X14100658Y-11304936D02*
X14091134Y-11314460D01*
X14091134Y-11314460D02*
X14072086Y-11323984D01*
X14072086Y-11323984D02*
X14053039Y-11323984D01*
X14053039Y-11323984D02*
X14033991Y-11314460D01*
X14033991Y-11314460D02*
X14024467Y-11304936D01*
X14024467Y-11304936D02*
X14014943Y-11285888D01*
X14014943Y-11285888D02*
X14005420Y-11247793D01*
X14005420Y-11247793D02*
X14005420Y-11200174D01*
X14005420Y-11200174D02*
X14014943Y-11162079D01*
X14014943Y-11162079D02*
X14024467Y-11143031D01*
X14024467Y-11143031D02*
X14033991Y-11133508D01*
X14033991Y-11133508D02*
X14053039Y-11123984D01*
X14205420Y-11323984D02*
X14205420Y-11190650D01*
X14205420Y-11209698D02*
X14214943Y-11200174D01*
X14214943Y-11200174D02*
X14233991Y-11190650D01*
X14233991Y-11190650D02*
X14262563Y-11190650D01*
X14262563Y-11190650D02*
X14281610Y-11200174D01*
X14281610Y-11200174D02*
X14291134Y-11219222D01*
X14291134Y-11219222D02*
X14291134Y-11323984D01*
X14291134Y-11219222D02*
X14300658Y-11200174D01*
X14300658Y-11200174D02*
X14319705Y-11190650D01*
X14319705Y-11190650D02*
X14348277Y-11190650D01*
X14348277Y-11190650D02*
X14367324Y-11200174D01*
X14367324Y-11200174D02*
X14376848Y-11219222D01*
X14376848Y-11219222D02*
X14376848Y-11323984D01*
X14472086Y-11323984D02*
X14472086Y-11190650D01*
X14472086Y-11209698D02*
X14481610Y-11200174D01*
X14481610Y-11200174D02*
X14500658Y-11190650D01*
X14500658Y-11190650D02*
X14529229Y-11190650D01*
X14529229Y-11190650D02*
X14548277Y-11200174D01*
X14548277Y-11200174D02*
X14557801Y-11219222D01*
X14557801Y-11219222D02*
X14557801Y-11323984D01*
X14557801Y-11219222D02*
X14567324Y-11200174D01*
X14567324Y-11200174D02*
X14586372Y-11190650D01*
X14586372Y-11190650D02*
X14614943Y-11190650D01*
X14614943Y-11190650D02*
X14633991Y-11200174D01*
X14633991Y-11200174D02*
X14643515Y-11219222D01*
X14643515Y-11219222D02*
X14643515Y-11323984D01*
X15033991Y-11114460D02*
X14862563Y-11371603D01*
X15291134Y-11123984D02*
X15310182Y-11123984D01*
X15310182Y-11123984D02*
X15329229Y-11133508D01*
X15329229Y-11133508D02*
X15338753Y-11143031D01*
X15338753Y-11143031D02*
X15348277Y-11162079D01*
X15348277Y-11162079D02*
X15357801Y-11200174D01*
X15357801Y-11200174D02*
X15357801Y-11247793D01*
X15357801Y-11247793D02*
X15348277Y-11285888D01*
X15348277Y-11285888D02*
X15338753Y-11304936D01*
X15338753Y-11304936D02*
X15329229Y-11314460D01*
X15329229Y-11314460D02*
X15310182Y-11323984D01*
X15310182Y-11323984D02*
X15291134Y-11323984D01*
X15291134Y-11323984D02*
X15272086Y-11314460D01*
X15272086Y-11314460D02*
X15262563Y-11304936D01*
X15262563Y-11304936D02*
X15253039Y-11285888D01*
X15253039Y-11285888D02*
X15243515Y-11247793D01*
X15243515Y-11247793D02*
X15243515Y-11200174D01*
X15243515Y-11200174D02*
X15253039Y-11162079D01*
X15253039Y-11162079D02*
X15262563Y-11143031D01*
X15262563Y-11143031D02*
X15272086Y-11133508D01*
X15272086Y-11133508D02*
X15291134Y-11123984D01*
X15443515Y-11304936D02*
X15453039Y-11314460D01*
X15453039Y-11314460D02*
X15443515Y-11323984D01*
X15443515Y-11323984D02*
X15433991Y-11314460D01*
X15433991Y-11314460D02*
X15443515Y-11304936D01*
X15443515Y-11304936D02*
X15443515Y-11323984D01*
X15576848Y-11123984D02*
X15595896Y-11123984D01*
X15595896Y-11123984D02*
X15614944Y-11133508D01*
X15614944Y-11133508D02*
X15624467Y-11143031D01*
X15624467Y-11143031D02*
X15633991Y-11162079D01*
X15633991Y-11162079D02*
X15643515Y-11200174D01*
X15643515Y-11200174D02*
X15643515Y-11247793D01*
X15643515Y-11247793D02*
X15633991Y-11285888D01*
X15633991Y-11285888D02*
X15624467Y-11304936D01*
X15624467Y-11304936D02*
X15614944Y-11314460D01*
X15614944Y-11314460D02*
X15595896Y-11323984D01*
X15595896Y-11323984D02*
X15576848Y-11323984D01*
X15576848Y-11323984D02*
X15557801Y-11314460D01*
X15557801Y-11314460D02*
X15548277Y-11304936D01*
X15548277Y-11304936D02*
X15538753Y-11285888D01*
X15538753Y-11285888D02*
X15529229Y-11247793D01*
X15529229Y-11247793D02*
X15529229Y-11200174D01*
X15529229Y-11200174D02*
X15538753Y-11162079D01*
X15538753Y-11162079D02*
X15548277Y-11143031D01*
X15548277Y-11143031D02*
X15557801Y-11133508D01*
X15557801Y-11133508D02*
X15576848Y-11123984D01*
X15719706Y-11143031D02*
X15729229Y-11133508D01*
X15729229Y-11133508D02*
X15748277Y-11123984D01*
X15748277Y-11123984D02*
X15795896Y-11123984D01*
X15795896Y-11123984D02*
X15814944Y-11133508D01*
X15814944Y-11133508D02*
X15824467Y-11143031D01*
X15824467Y-11143031D02*
X15833991Y-11162079D01*
X15833991Y-11162079D02*
X15833991Y-11181127D01*
X15833991Y-11181127D02*
X15824467Y-11209698D01*
X15824467Y-11209698D02*
X15710182Y-11323984D01*
X15710182Y-11323984D02*
X15833991Y-11323984D01*
X15900658Y-11123984D02*
X16033991Y-11123984D01*
X16033991Y-11123984D02*
X15948277Y-11323984D01*
X16195896Y-11123984D02*
X16157801Y-11123984D01*
X16157801Y-11123984D02*
X16138753Y-11133508D01*
X16138753Y-11133508D02*
X16129229Y-11143031D01*
X16129229Y-11143031D02*
X16110182Y-11171603D01*
X16110182Y-11171603D02*
X16100658Y-11209698D01*
X16100658Y-11209698D02*
X16100658Y-11285888D01*
X16100658Y-11285888D02*
X16110182Y-11304936D01*
X16110182Y-11304936D02*
X16119706Y-11314460D01*
X16119706Y-11314460D02*
X16138753Y-11323984D01*
X16138753Y-11323984D02*
X16176848Y-11323984D01*
X16176848Y-11323984D02*
X16195896Y-11314460D01*
X16195896Y-11314460D02*
X16205420Y-11304936D01*
X16205420Y-11304936D02*
X16214944Y-11285888D01*
X16214944Y-11285888D02*
X16214944Y-11238269D01*
X16214944Y-11238269D02*
X16205420Y-11219222D01*
X16205420Y-11219222D02*
X16195896Y-11209698D01*
X16195896Y-11209698D02*
X16176848Y-11200174D01*
X16176848Y-11200174D02*
X16138753Y-11200174D01*
X16138753Y-11200174D02*
X16119706Y-11209698D01*
X16119706Y-11209698D02*
X16110182Y-11219222D01*
X16110182Y-11219222D02*
X16100658Y-11238269D01*
X16291134Y-11123984D02*
X16291134Y-11162079D01*
X16367325Y-11123984D02*
X16367325Y-11162079D01*
X16662563Y-11400174D02*
X16653039Y-11390650D01*
X16653039Y-11390650D02*
X16633991Y-11362079D01*
X16633991Y-11362079D02*
X16624468Y-11343031D01*
X16624468Y-11343031D02*
X16614944Y-11314460D01*
X16614944Y-11314460D02*
X16605420Y-11266841D01*
X16605420Y-11266841D02*
X16605420Y-11228746D01*
X16605420Y-11228746D02*
X16614944Y-11181127D01*
X16614944Y-11181127D02*
X16624468Y-11152555D01*
X16624468Y-11152555D02*
X16633991Y-11133508D01*
X16633991Y-11133508D02*
X16653039Y-11104936D01*
X16653039Y-11104936D02*
X16662563Y-11095412D01*
X16824468Y-11123984D02*
X16786372Y-11123984D01*
X16786372Y-11123984D02*
X16767325Y-11133508D01*
X16767325Y-11133508D02*
X16757801Y-11143031D01*
X16757801Y-11143031D02*
X16738753Y-11171603D01*
X16738753Y-11171603D02*
X16729229Y-11209698D01*
X16729229Y-11209698D02*
X16729229Y-11285888D01*
X16729229Y-11285888D02*
X16738753Y-11304936D01*
X16738753Y-11304936D02*
X16748277Y-11314460D01*
X16748277Y-11314460D02*
X16767325Y-11323984D01*
X16767325Y-11323984D02*
X16805420Y-11323984D01*
X16805420Y-11323984D02*
X16824468Y-11314460D01*
X16824468Y-11314460D02*
X16833991Y-11304936D01*
X16833991Y-11304936D02*
X16843515Y-11285888D01*
X16843515Y-11285888D02*
X16843515Y-11238269D01*
X16843515Y-11238269D02*
X16833991Y-11219222D01*
X16833991Y-11219222D02*
X16824468Y-11209698D01*
X16824468Y-11209698D02*
X16805420Y-11200174D01*
X16805420Y-11200174D02*
X16767325Y-11200174D01*
X16767325Y-11200174D02*
X16748277Y-11209698D01*
X16748277Y-11209698D02*
X16738753Y-11219222D01*
X16738753Y-11219222D02*
X16729229Y-11238269D01*
X17081611Y-11323984D02*
X17081611Y-11123984D01*
X17167325Y-11323984D02*
X17167325Y-11219222D01*
X17167325Y-11219222D02*
X17157801Y-11200174D01*
X17157801Y-11200174D02*
X17138753Y-11190650D01*
X17138753Y-11190650D02*
X17110182Y-11190650D01*
X17110182Y-11190650D02*
X17091134Y-11200174D01*
X17091134Y-11200174D02*
X17081611Y-11209698D01*
X17291134Y-11323984D02*
X17272087Y-11314460D01*
X17272087Y-11314460D02*
X17262563Y-11304936D01*
X17262563Y-11304936D02*
X17253039Y-11285888D01*
X17253039Y-11285888D02*
X17253039Y-11228746D01*
X17253039Y-11228746D02*
X17262563Y-11209698D01*
X17262563Y-11209698D02*
X17272087Y-11200174D01*
X17272087Y-11200174D02*
X17291134Y-11190650D01*
X17291134Y-11190650D02*
X17319706Y-11190650D01*
X17319706Y-11190650D02*
X17338753Y-11200174D01*
X17338753Y-11200174D02*
X17348277Y-11209698D01*
X17348277Y-11209698D02*
X17357801Y-11228746D01*
X17357801Y-11228746D02*
X17357801Y-11285888D01*
X17357801Y-11285888D02*
X17348277Y-11304936D01*
X17348277Y-11304936D02*
X17338753Y-11314460D01*
X17338753Y-11314460D02*
X17319706Y-11323984D01*
X17319706Y-11323984D02*
X17291134Y-11323984D01*
X17472087Y-11323984D02*
X17453039Y-11314460D01*
X17453039Y-11314460D02*
X17443515Y-11295412D01*
X17443515Y-11295412D02*
X17443515Y-11123984D01*
X17624468Y-11314460D02*
X17605420Y-11323984D01*
X17605420Y-11323984D02*
X17567325Y-11323984D01*
X17567325Y-11323984D02*
X17548277Y-11314460D01*
X17548277Y-11314460D02*
X17538753Y-11295412D01*
X17538753Y-11295412D02*
X17538753Y-11219222D01*
X17538753Y-11219222D02*
X17548277Y-11200174D01*
X17548277Y-11200174D02*
X17567325Y-11190650D01*
X17567325Y-11190650D02*
X17605420Y-11190650D01*
X17605420Y-11190650D02*
X17624468Y-11200174D01*
X17624468Y-11200174D02*
X17633992Y-11219222D01*
X17633992Y-11219222D02*
X17633992Y-11238269D01*
X17633992Y-11238269D02*
X17538753Y-11257317D01*
X17710182Y-11314460D02*
X17729230Y-11323984D01*
X17729230Y-11323984D02*
X17767325Y-11323984D01*
X17767325Y-11323984D02*
X17786373Y-11314460D01*
X17786373Y-11314460D02*
X17795896Y-11295412D01*
X17795896Y-11295412D02*
X17795896Y-11285888D01*
X17795896Y-11285888D02*
X17786373Y-11266841D01*
X17786373Y-11266841D02*
X17767325Y-11257317D01*
X17767325Y-11257317D02*
X17738753Y-11257317D01*
X17738753Y-11257317D02*
X17719706Y-11247793D01*
X17719706Y-11247793D02*
X17710182Y-11228746D01*
X17710182Y-11228746D02*
X17710182Y-11219222D01*
X17710182Y-11219222D02*
X17719706Y-11200174D01*
X17719706Y-11200174D02*
X17738753Y-11190650D01*
X17738753Y-11190650D02*
X17767325Y-11190650D01*
X17767325Y-11190650D02*
X17786373Y-11200174D01*
X17862563Y-11400174D02*
X17872087Y-11390650D01*
X17872087Y-11390650D02*
X17891134Y-11362079D01*
X17891134Y-11362079D02*
X17900658Y-11343031D01*
X17900658Y-11343031D02*
X17910182Y-11314460D01*
X17910182Y-11314460D02*
X17919706Y-11266841D01*
X17919706Y-11266841D02*
X17919706Y-11228746D01*
X17919706Y-11228746D02*
X17910182Y-11181127D01*
X17910182Y-11181127D02*
X17900658Y-11152555D01*
X17900658Y-11152555D02*
X17891134Y-11133508D01*
X17891134Y-11133508D02*
X17872087Y-11104936D01*
X17872087Y-11104936D02*
X17862563Y-11095412D01*
D12*
X13087500Y-11496500D02*
G75*
G02*
X13007500Y-11496500I-40000J0D01*
G01*
X13007500Y-11496500D02*
G75*
G02*
X13087500Y-11496500I40000J0D01*
G01*
D11*
X13386372Y-11387984D02*
X13405420Y-11387984D01*
X13405420Y-11387984D02*
X13424467Y-11397508D01*
X13424467Y-11397508D02*
X13433991Y-11407031D01*
X13433991Y-11407031D02*
X13443515Y-11426079D01*
X13443515Y-11426079D02*
X13453039Y-11464174D01*
X13453039Y-11464174D02*
X13453039Y-11511793D01*
X13453039Y-11511793D02*
X13443515Y-11549888D01*
X13443515Y-11549888D02*
X13433991Y-11568936D01*
X13433991Y-11568936D02*
X13424467Y-11578460D01*
X13424467Y-11578460D02*
X13405420Y-11587984D01*
X13405420Y-11587984D02*
X13386372Y-11587984D01*
X13386372Y-11587984D02*
X13367324Y-11578460D01*
X13367324Y-11578460D02*
X13357801Y-11568936D01*
X13357801Y-11568936D02*
X13348277Y-11549888D01*
X13348277Y-11549888D02*
X13338753Y-11511793D01*
X13338753Y-11511793D02*
X13338753Y-11464174D01*
X13338753Y-11464174D02*
X13348277Y-11426079D01*
X13348277Y-11426079D02*
X13357801Y-11407031D01*
X13357801Y-11407031D02*
X13367324Y-11397508D01*
X13367324Y-11397508D02*
X13386372Y-11387984D01*
X13538753Y-11568936D02*
X13548277Y-11578460D01*
X13548277Y-11578460D02*
X13538753Y-11587984D01*
X13538753Y-11587984D02*
X13529229Y-11578460D01*
X13529229Y-11578460D02*
X13538753Y-11568936D01*
X13538753Y-11568936D02*
X13538753Y-11587984D01*
X13662562Y-11473698D02*
X13643515Y-11464174D01*
X13643515Y-11464174D02*
X13633991Y-11454650D01*
X13633991Y-11454650D02*
X13624467Y-11435603D01*
X13624467Y-11435603D02*
X13624467Y-11426079D01*
X13624467Y-11426079D02*
X13633991Y-11407031D01*
X13633991Y-11407031D02*
X13643515Y-11397508D01*
X13643515Y-11397508D02*
X13662562Y-11387984D01*
X13662562Y-11387984D02*
X13700658Y-11387984D01*
X13700658Y-11387984D02*
X13719705Y-11397508D01*
X13719705Y-11397508D02*
X13729229Y-11407031D01*
X13729229Y-11407031D02*
X13738753Y-11426079D01*
X13738753Y-11426079D02*
X13738753Y-11435603D01*
X13738753Y-11435603D02*
X13729229Y-11454650D01*
X13729229Y-11454650D02*
X13719705Y-11464174D01*
X13719705Y-11464174D02*
X13700658Y-11473698D01*
X13700658Y-11473698D02*
X13662562Y-11473698D01*
X13662562Y-11473698D02*
X13643515Y-11483222D01*
X13643515Y-11483222D02*
X13633991Y-11492746D01*
X13633991Y-11492746D02*
X13624467Y-11511793D01*
X13624467Y-11511793D02*
X13624467Y-11549888D01*
X13624467Y-11549888D02*
X13633991Y-11568936D01*
X13633991Y-11568936D02*
X13643515Y-11578460D01*
X13643515Y-11578460D02*
X13662562Y-11587984D01*
X13662562Y-11587984D02*
X13700658Y-11587984D01*
X13700658Y-11587984D02*
X13719705Y-11578460D01*
X13719705Y-11578460D02*
X13729229Y-11568936D01*
X13729229Y-11568936D02*
X13738753Y-11549888D01*
X13738753Y-11549888D02*
X13738753Y-11511793D01*
X13738753Y-11511793D02*
X13729229Y-11492746D01*
X13729229Y-11492746D02*
X13719705Y-11483222D01*
X13719705Y-11483222D02*
X13700658Y-11473698D01*
X13862562Y-11387984D02*
X13881610Y-11387984D01*
X13881610Y-11387984D02*
X13900658Y-11397508D01*
X13900658Y-11397508D02*
X13910182Y-11407031D01*
X13910182Y-11407031D02*
X13919705Y-11426079D01*
X13919705Y-11426079D02*
X13929229Y-11464174D01*
X13929229Y-11464174D02*
X13929229Y-11511793D01*
X13929229Y-11511793D02*
X13919705Y-11549888D01*
X13919705Y-11549888D02*
X13910182Y-11568936D01*
X13910182Y-11568936D02*
X13900658Y-11578460D01*
X13900658Y-11578460D02*
X13881610Y-11587984D01*
X13881610Y-11587984D02*
X13862562Y-11587984D01*
X13862562Y-11587984D02*
X13843515Y-11578460D01*
X13843515Y-11578460D02*
X13833991Y-11568936D01*
X13833991Y-11568936D02*
X13824467Y-11549888D01*
X13824467Y-11549888D02*
X13814943Y-11511793D01*
X13814943Y-11511793D02*
X13814943Y-11464174D01*
X13814943Y-11464174D02*
X13824467Y-11426079D01*
X13824467Y-11426079D02*
X13833991Y-11407031D01*
X13833991Y-11407031D02*
X13843515Y-11397508D01*
X13843515Y-11397508D02*
X13862562Y-11387984D01*
X14053039Y-11387984D02*
X14072086Y-11387984D01*
X14072086Y-11387984D02*
X14091134Y-11397508D01*
X14091134Y-11397508D02*
X14100658Y-11407031D01*
X14100658Y-11407031D02*
X14110182Y-11426079D01*
X14110182Y-11426079D02*
X14119705Y-11464174D01*
X14119705Y-11464174D02*
X14119705Y-11511793D01*
X14119705Y-11511793D02*
X14110182Y-11549888D01*
X14110182Y-11549888D02*
X14100658Y-11568936D01*
X14100658Y-11568936D02*
X14091134Y-11578460D01*
X14091134Y-11578460D02*
X14072086Y-11587984D01*
X14072086Y-11587984D02*
X14053039Y-11587984D01*
X14053039Y-11587984D02*
X14033991Y-11578460D01*
X14033991Y-11578460D02*
X14024467Y-11568936D01*
X14024467Y-11568936D02*
X14014943Y-11549888D01*
X14014943Y-11549888D02*
X14005420Y-11511793D01*
X14005420Y-11511793D02*
X14005420Y-11464174D01*
X14005420Y-11464174D02*
X14014943Y-11426079D01*
X14014943Y-11426079D02*
X14024467Y-11407031D01*
X14024467Y-11407031D02*
X14033991Y-11397508D01*
X14033991Y-11397508D02*
X14053039Y-11387984D01*
X14205420Y-11587984D02*
X14205420Y-11454650D01*
X14205420Y-11473698D02*
X14214943Y-11464174D01*
X14214943Y-11464174D02*
X14233991Y-11454650D01*
X14233991Y-11454650D02*
X14262563Y-11454650D01*
X14262563Y-11454650D02*
X14281610Y-11464174D01*
X14281610Y-11464174D02*
X14291134Y-11483222D01*
X14291134Y-11483222D02*
X14291134Y-11587984D01*
X14291134Y-11483222D02*
X14300658Y-11464174D01*
X14300658Y-11464174D02*
X14319705Y-11454650D01*
X14319705Y-11454650D02*
X14348277Y-11454650D01*
X14348277Y-11454650D02*
X14367324Y-11464174D01*
X14367324Y-11464174D02*
X14376848Y-11483222D01*
X14376848Y-11483222D02*
X14376848Y-11587984D01*
X14472086Y-11587984D02*
X14472086Y-11454650D01*
X14472086Y-11473698D02*
X14481610Y-11464174D01*
X14481610Y-11464174D02*
X14500658Y-11454650D01*
X14500658Y-11454650D02*
X14529229Y-11454650D01*
X14529229Y-11454650D02*
X14548277Y-11464174D01*
X14548277Y-11464174D02*
X14557801Y-11483222D01*
X14557801Y-11483222D02*
X14557801Y-11587984D01*
X14557801Y-11483222D02*
X14567324Y-11464174D01*
X14567324Y-11464174D02*
X14586372Y-11454650D01*
X14586372Y-11454650D02*
X14614943Y-11454650D01*
X14614943Y-11454650D02*
X14633991Y-11464174D01*
X14633991Y-11464174D02*
X14643515Y-11483222D01*
X14643515Y-11483222D02*
X14643515Y-11587984D01*
X15033991Y-11378460D02*
X14862563Y-11635603D01*
X15291134Y-11387984D02*
X15310182Y-11387984D01*
X15310182Y-11387984D02*
X15329229Y-11397508D01*
X15329229Y-11397508D02*
X15338753Y-11407031D01*
X15338753Y-11407031D02*
X15348277Y-11426079D01*
X15348277Y-11426079D02*
X15357801Y-11464174D01*
X15357801Y-11464174D02*
X15357801Y-11511793D01*
X15357801Y-11511793D02*
X15348277Y-11549888D01*
X15348277Y-11549888D02*
X15338753Y-11568936D01*
X15338753Y-11568936D02*
X15329229Y-11578460D01*
X15329229Y-11578460D02*
X15310182Y-11587984D01*
X15310182Y-11587984D02*
X15291134Y-11587984D01*
X15291134Y-11587984D02*
X15272086Y-11578460D01*
X15272086Y-11578460D02*
X15262563Y-11568936D01*
X15262563Y-11568936D02*
X15253039Y-11549888D01*
X15253039Y-11549888D02*
X15243515Y-11511793D01*
X15243515Y-11511793D02*
X15243515Y-11464174D01*
X15243515Y-11464174D02*
X15253039Y-11426079D01*
X15253039Y-11426079D02*
X15262563Y-11407031D01*
X15262563Y-11407031D02*
X15272086Y-11397508D01*
X15272086Y-11397508D02*
X15291134Y-11387984D01*
X15443515Y-11568936D02*
X15453039Y-11578460D01*
X15453039Y-11578460D02*
X15443515Y-11587984D01*
X15443515Y-11587984D02*
X15433991Y-11578460D01*
X15433991Y-11578460D02*
X15443515Y-11568936D01*
X15443515Y-11568936D02*
X15443515Y-11587984D01*
X15576848Y-11387984D02*
X15595896Y-11387984D01*
X15595896Y-11387984D02*
X15614944Y-11397508D01*
X15614944Y-11397508D02*
X15624467Y-11407031D01*
X15624467Y-11407031D02*
X15633991Y-11426079D01*
X15633991Y-11426079D02*
X15643515Y-11464174D01*
X15643515Y-11464174D02*
X15643515Y-11511793D01*
X15643515Y-11511793D02*
X15633991Y-11549888D01*
X15633991Y-11549888D02*
X15624467Y-11568936D01*
X15624467Y-11568936D02*
X15614944Y-11578460D01*
X15614944Y-11578460D02*
X15595896Y-11587984D01*
X15595896Y-11587984D02*
X15576848Y-11587984D01*
X15576848Y-11587984D02*
X15557801Y-11578460D01*
X15557801Y-11578460D02*
X15548277Y-11568936D01*
X15548277Y-11568936D02*
X15538753Y-11549888D01*
X15538753Y-11549888D02*
X15529229Y-11511793D01*
X15529229Y-11511793D02*
X15529229Y-11464174D01*
X15529229Y-11464174D02*
X15538753Y-11426079D01*
X15538753Y-11426079D02*
X15548277Y-11407031D01*
X15548277Y-11407031D02*
X15557801Y-11397508D01*
X15557801Y-11397508D02*
X15576848Y-11387984D01*
X15710182Y-11387984D02*
X15833991Y-11387984D01*
X15833991Y-11387984D02*
X15767325Y-11464174D01*
X15767325Y-11464174D02*
X15795896Y-11464174D01*
X15795896Y-11464174D02*
X15814944Y-11473698D01*
X15814944Y-11473698D02*
X15824467Y-11483222D01*
X15824467Y-11483222D02*
X15833991Y-11502269D01*
X15833991Y-11502269D02*
X15833991Y-11549888D01*
X15833991Y-11549888D02*
X15824467Y-11568936D01*
X15824467Y-11568936D02*
X15814944Y-11578460D01*
X15814944Y-11578460D02*
X15795896Y-11587984D01*
X15795896Y-11587984D02*
X15738753Y-11587984D01*
X15738753Y-11587984D02*
X15719706Y-11578460D01*
X15719706Y-11578460D02*
X15710182Y-11568936D01*
X16024467Y-11587984D02*
X15910182Y-11587984D01*
X15967325Y-11587984D02*
X15967325Y-11387984D01*
X15967325Y-11387984D02*
X15948277Y-11416555D01*
X15948277Y-11416555D02*
X15929229Y-11435603D01*
X15929229Y-11435603D02*
X15910182Y-11445127D01*
X16205420Y-11387984D02*
X16110182Y-11387984D01*
X16110182Y-11387984D02*
X16100658Y-11483222D01*
X16100658Y-11483222D02*
X16110182Y-11473698D01*
X16110182Y-11473698D02*
X16129229Y-11464174D01*
X16129229Y-11464174D02*
X16176848Y-11464174D01*
X16176848Y-11464174D02*
X16195896Y-11473698D01*
X16195896Y-11473698D02*
X16205420Y-11483222D01*
X16205420Y-11483222D02*
X16214944Y-11502269D01*
X16214944Y-11502269D02*
X16214944Y-11549888D01*
X16214944Y-11549888D02*
X16205420Y-11568936D01*
X16205420Y-11568936D02*
X16195896Y-11578460D01*
X16195896Y-11578460D02*
X16176848Y-11587984D01*
X16176848Y-11587984D02*
X16129229Y-11587984D01*
X16129229Y-11587984D02*
X16110182Y-11578460D01*
X16110182Y-11578460D02*
X16100658Y-11568936D01*
X16291134Y-11387984D02*
X16291134Y-11426079D01*
X16367325Y-11387984D02*
X16367325Y-11426079D01*
X16662563Y-11664174D02*
X16653039Y-11654650D01*
X16653039Y-11654650D02*
X16633991Y-11626079D01*
X16633991Y-11626079D02*
X16624468Y-11607031D01*
X16624468Y-11607031D02*
X16614944Y-11578460D01*
X16614944Y-11578460D02*
X16605420Y-11530841D01*
X16605420Y-11530841D02*
X16605420Y-11492746D01*
X16605420Y-11492746D02*
X16614944Y-11445127D01*
X16614944Y-11445127D02*
X16624468Y-11416555D01*
X16624468Y-11416555D02*
X16633991Y-11397508D01*
X16633991Y-11397508D02*
X16653039Y-11368936D01*
X16653039Y-11368936D02*
X16662563Y-11359412D01*
X16843515Y-11587984D02*
X16729229Y-11587984D01*
X16786372Y-11587984D02*
X16786372Y-11387984D01*
X16786372Y-11387984D02*
X16767325Y-11416555D01*
X16767325Y-11416555D02*
X16748277Y-11435603D01*
X16748277Y-11435603D02*
X16729229Y-11445127D01*
X16919706Y-11407031D02*
X16929230Y-11397508D01*
X16929230Y-11397508D02*
X16948277Y-11387984D01*
X16948277Y-11387984D02*
X16995896Y-11387984D01*
X16995896Y-11387984D02*
X17014944Y-11397508D01*
X17014944Y-11397508D02*
X17024468Y-11407031D01*
X17024468Y-11407031D02*
X17033991Y-11426079D01*
X17033991Y-11426079D02*
X17033991Y-11445127D01*
X17033991Y-11445127D02*
X17024468Y-11473698D01*
X17024468Y-11473698D02*
X16910182Y-11587984D01*
X16910182Y-11587984D02*
X17033991Y-11587984D01*
X17272087Y-11587984D02*
X17272087Y-11387984D01*
X17357801Y-11587984D02*
X17357801Y-11483222D01*
X17357801Y-11483222D02*
X17348277Y-11464174D01*
X17348277Y-11464174D02*
X17329230Y-11454650D01*
X17329230Y-11454650D02*
X17300658Y-11454650D01*
X17300658Y-11454650D02*
X17281611Y-11464174D01*
X17281611Y-11464174D02*
X17272087Y-11473698D01*
X17481611Y-11587984D02*
X17462563Y-11578460D01*
X17462563Y-11578460D02*
X17453039Y-11568936D01*
X17453039Y-11568936D02*
X17443515Y-11549888D01*
X17443515Y-11549888D02*
X17443515Y-11492746D01*
X17443515Y-11492746D02*
X17453039Y-11473698D01*
X17453039Y-11473698D02*
X17462563Y-11464174D01*
X17462563Y-11464174D02*
X17481611Y-11454650D01*
X17481611Y-11454650D02*
X17510182Y-11454650D01*
X17510182Y-11454650D02*
X17529230Y-11464174D01*
X17529230Y-11464174D02*
X17538753Y-11473698D01*
X17538753Y-11473698D02*
X17548277Y-11492746D01*
X17548277Y-11492746D02*
X17548277Y-11549888D01*
X17548277Y-11549888D02*
X17538753Y-11568936D01*
X17538753Y-11568936D02*
X17529230Y-11578460D01*
X17529230Y-11578460D02*
X17510182Y-11587984D01*
X17510182Y-11587984D02*
X17481611Y-11587984D01*
X17662563Y-11587984D02*
X17643515Y-11578460D01*
X17643515Y-11578460D02*
X17633992Y-11559412D01*
X17633992Y-11559412D02*
X17633992Y-11387984D01*
X17814944Y-11578460D02*
X17795896Y-11587984D01*
X17795896Y-11587984D02*
X17757801Y-11587984D01*
X17757801Y-11587984D02*
X17738753Y-11578460D01*
X17738753Y-11578460D02*
X17729230Y-11559412D01*
X17729230Y-11559412D02*
X17729230Y-11483222D01*
X17729230Y-11483222D02*
X17738753Y-11464174D01*
X17738753Y-11464174D02*
X17757801Y-11454650D01*
X17757801Y-11454650D02*
X17795896Y-11454650D01*
X17795896Y-11454650D02*
X17814944Y-11464174D01*
X17814944Y-11464174D02*
X17824468Y-11483222D01*
X17824468Y-11483222D02*
X17824468Y-11502269D01*
X17824468Y-11502269D02*
X17729230Y-11521317D01*
X17900658Y-11578460D02*
X17919706Y-11587984D01*
X17919706Y-11587984D02*
X17957801Y-11587984D01*
X17957801Y-11587984D02*
X17976849Y-11578460D01*
X17976849Y-11578460D02*
X17986373Y-11559412D01*
X17986373Y-11559412D02*
X17986373Y-11549888D01*
X17986373Y-11549888D02*
X17976849Y-11530841D01*
X17976849Y-11530841D02*
X17957801Y-11521317D01*
X17957801Y-11521317D02*
X17929230Y-11521317D01*
X17929230Y-11521317D02*
X17910182Y-11511793D01*
X17910182Y-11511793D02*
X17900658Y-11492746D01*
X17900658Y-11492746D02*
X17900658Y-11483222D01*
X17900658Y-11483222D02*
X17910182Y-11464174D01*
X17910182Y-11464174D02*
X17929230Y-11454650D01*
X17929230Y-11454650D02*
X17957801Y-11454650D01*
X17957801Y-11454650D02*
X17976849Y-11464174D01*
X18053039Y-11664174D02*
X18062563Y-11654650D01*
X18062563Y-11654650D02*
X18081611Y-11626079D01*
X18081611Y-11626079D02*
X18091134Y-11607031D01*
X18091134Y-11607031D02*
X18100658Y-11578460D01*
X18100658Y-11578460D02*
X18110182Y-11530841D01*
X18110182Y-11530841D02*
X18110182Y-11492746D01*
X18110182Y-11492746D02*
X18100658Y-11445127D01*
X18100658Y-11445127D02*
X18091134Y-11416555D01*
X18091134Y-11416555D02*
X18081611Y-11397508D01*
X18081611Y-11397508D02*
X18062563Y-11368936D01*
X18062563Y-11368936D02*
X18053039Y-11359412D01*
D12*
X13042500Y-11715500D02*
X13042500Y-11805500D01*
X12997500Y-11760500D02*
X13087500Y-11760500D01*
D11*
X13386372Y-11651984D02*
X13405420Y-11651984D01*
X13405420Y-11651984D02*
X13424467Y-11661508D01*
X13424467Y-11661508D02*
X13433991Y-11671031D01*
X13433991Y-11671031D02*
X13443515Y-11690079D01*
X13443515Y-11690079D02*
X13453039Y-11728174D01*
X13453039Y-11728174D02*
X13453039Y-11775793D01*
X13453039Y-11775793D02*
X13443515Y-11813888D01*
X13443515Y-11813888D02*
X13433991Y-11832936D01*
X13433991Y-11832936D02*
X13424467Y-11842460D01*
X13424467Y-11842460D02*
X13405420Y-11851984D01*
X13405420Y-11851984D02*
X13386372Y-11851984D01*
X13386372Y-11851984D02*
X13367324Y-11842460D01*
X13367324Y-11842460D02*
X13357801Y-11832936D01*
X13357801Y-11832936D02*
X13348277Y-11813888D01*
X13348277Y-11813888D02*
X13338753Y-11775793D01*
X13338753Y-11775793D02*
X13338753Y-11728174D01*
X13338753Y-11728174D02*
X13348277Y-11690079D01*
X13348277Y-11690079D02*
X13357801Y-11671031D01*
X13357801Y-11671031D02*
X13367324Y-11661508D01*
X13367324Y-11661508D02*
X13386372Y-11651984D01*
X13538753Y-11832936D02*
X13548277Y-11842460D01*
X13548277Y-11842460D02*
X13538753Y-11851984D01*
X13538753Y-11851984D02*
X13529229Y-11842460D01*
X13529229Y-11842460D02*
X13538753Y-11832936D01*
X13538753Y-11832936D02*
X13538753Y-11851984D01*
X13643515Y-11851984D02*
X13681610Y-11851984D01*
X13681610Y-11851984D02*
X13700658Y-11842460D01*
X13700658Y-11842460D02*
X13710182Y-11832936D01*
X13710182Y-11832936D02*
X13729229Y-11804365D01*
X13729229Y-11804365D02*
X13738753Y-11766269D01*
X13738753Y-11766269D02*
X13738753Y-11690079D01*
X13738753Y-11690079D02*
X13729229Y-11671031D01*
X13729229Y-11671031D02*
X13719705Y-11661508D01*
X13719705Y-11661508D02*
X13700658Y-11651984D01*
X13700658Y-11651984D02*
X13662562Y-11651984D01*
X13662562Y-11651984D02*
X13643515Y-11661508D01*
X13643515Y-11661508D02*
X13633991Y-11671031D01*
X13633991Y-11671031D02*
X13624467Y-11690079D01*
X13624467Y-11690079D02*
X13624467Y-11737698D01*
X13624467Y-11737698D02*
X13633991Y-11756746D01*
X13633991Y-11756746D02*
X13643515Y-11766269D01*
X13643515Y-11766269D02*
X13662562Y-11775793D01*
X13662562Y-11775793D02*
X13700658Y-11775793D01*
X13700658Y-11775793D02*
X13719705Y-11766269D01*
X13719705Y-11766269D02*
X13729229Y-11756746D01*
X13729229Y-11756746D02*
X13738753Y-11737698D01*
X13862562Y-11651984D02*
X13881610Y-11651984D01*
X13881610Y-11651984D02*
X13900658Y-11661508D01*
X13900658Y-11661508D02*
X13910182Y-11671031D01*
X13910182Y-11671031D02*
X13919705Y-11690079D01*
X13919705Y-11690079D02*
X13929229Y-11728174D01*
X13929229Y-11728174D02*
X13929229Y-11775793D01*
X13929229Y-11775793D02*
X13919705Y-11813888D01*
X13919705Y-11813888D02*
X13910182Y-11832936D01*
X13910182Y-11832936D02*
X13900658Y-11842460D01*
X13900658Y-11842460D02*
X13881610Y-11851984D01*
X13881610Y-11851984D02*
X13862562Y-11851984D01*
X13862562Y-11851984D02*
X13843515Y-11842460D01*
X13843515Y-11842460D02*
X13833991Y-11832936D01*
X13833991Y-11832936D02*
X13824467Y-11813888D01*
X13824467Y-11813888D02*
X13814943Y-11775793D01*
X13814943Y-11775793D02*
X13814943Y-11728174D01*
X13814943Y-11728174D02*
X13824467Y-11690079D01*
X13824467Y-11690079D02*
X13833991Y-11671031D01*
X13833991Y-11671031D02*
X13843515Y-11661508D01*
X13843515Y-11661508D02*
X13862562Y-11651984D01*
X14053039Y-11651984D02*
X14072086Y-11651984D01*
X14072086Y-11651984D02*
X14091134Y-11661508D01*
X14091134Y-11661508D02*
X14100658Y-11671031D01*
X14100658Y-11671031D02*
X14110182Y-11690079D01*
X14110182Y-11690079D02*
X14119705Y-11728174D01*
X14119705Y-11728174D02*
X14119705Y-11775793D01*
X14119705Y-11775793D02*
X14110182Y-11813888D01*
X14110182Y-11813888D02*
X14100658Y-11832936D01*
X14100658Y-11832936D02*
X14091134Y-11842460D01*
X14091134Y-11842460D02*
X14072086Y-11851984D01*
X14072086Y-11851984D02*
X14053039Y-11851984D01*
X14053039Y-11851984D02*
X14033991Y-11842460D01*
X14033991Y-11842460D02*
X14024467Y-11832936D01*
X14024467Y-11832936D02*
X14014943Y-11813888D01*
X14014943Y-11813888D02*
X14005420Y-11775793D01*
X14005420Y-11775793D02*
X14005420Y-11728174D01*
X14005420Y-11728174D02*
X14014943Y-11690079D01*
X14014943Y-11690079D02*
X14024467Y-11671031D01*
X14024467Y-11671031D02*
X14033991Y-11661508D01*
X14033991Y-11661508D02*
X14053039Y-11651984D01*
X14205420Y-11851984D02*
X14205420Y-11718650D01*
X14205420Y-11737698D02*
X14214943Y-11728174D01*
X14214943Y-11728174D02*
X14233991Y-11718650D01*
X14233991Y-11718650D02*
X14262563Y-11718650D01*
X14262563Y-11718650D02*
X14281610Y-11728174D01*
X14281610Y-11728174D02*
X14291134Y-11747222D01*
X14291134Y-11747222D02*
X14291134Y-11851984D01*
X14291134Y-11747222D02*
X14300658Y-11728174D01*
X14300658Y-11728174D02*
X14319705Y-11718650D01*
X14319705Y-11718650D02*
X14348277Y-11718650D01*
X14348277Y-11718650D02*
X14367324Y-11728174D01*
X14367324Y-11728174D02*
X14376848Y-11747222D01*
X14376848Y-11747222D02*
X14376848Y-11851984D01*
X14472086Y-11851984D02*
X14472086Y-11718650D01*
X14472086Y-11737698D02*
X14481610Y-11728174D01*
X14481610Y-11728174D02*
X14500658Y-11718650D01*
X14500658Y-11718650D02*
X14529229Y-11718650D01*
X14529229Y-11718650D02*
X14548277Y-11728174D01*
X14548277Y-11728174D02*
X14557801Y-11747222D01*
X14557801Y-11747222D02*
X14557801Y-11851984D01*
X14557801Y-11747222D02*
X14567324Y-11728174D01*
X14567324Y-11728174D02*
X14586372Y-11718650D01*
X14586372Y-11718650D02*
X14614943Y-11718650D01*
X14614943Y-11718650D02*
X14633991Y-11728174D01*
X14633991Y-11728174D02*
X14643515Y-11747222D01*
X14643515Y-11747222D02*
X14643515Y-11851984D01*
X15033991Y-11642460D02*
X14862563Y-11899603D01*
X15291134Y-11651984D02*
X15310182Y-11651984D01*
X15310182Y-11651984D02*
X15329229Y-11661508D01*
X15329229Y-11661508D02*
X15338753Y-11671031D01*
X15338753Y-11671031D02*
X15348277Y-11690079D01*
X15348277Y-11690079D02*
X15357801Y-11728174D01*
X15357801Y-11728174D02*
X15357801Y-11775793D01*
X15357801Y-11775793D02*
X15348277Y-11813888D01*
X15348277Y-11813888D02*
X15338753Y-11832936D01*
X15338753Y-11832936D02*
X15329229Y-11842460D01*
X15329229Y-11842460D02*
X15310182Y-11851984D01*
X15310182Y-11851984D02*
X15291134Y-11851984D01*
X15291134Y-11851984D02*
X15272086Y-11842460D01*
X15272086Y-11842460D02*
X15262563Y-11832936D01*
X15262563Y-11832936D02*
X15253039Y-11813888D01*
X15253039Y-11813888D02*
X15243515Y-11775793D01*
X15243515Y-11775793D02*
X15243515Y-11728174D01*
X15243515Y-11728174D02*
X15253039Y-11690079D01*
X15253039Y-11690079D02*
X15262563Y-11671031D01*
X15262563Y-11671031D02*
X15272086Y-11661508D01*
X15272086Y-11661508D02*
X15291134Y-11651984D01*
X15443515Y-11832936D02*
X15453039Y-11842460D01*
X15453039Y-11842460D02*
X15443515Y-11851984D01*
X15443515Y-11851984D02*
X15433991Y-11842460D01*
X15433991Y-11842460D02*
X15443515Y-11832936D01*
X15443515Y-11832936D02*
X15443515Y-11851984D01*
X15576848Y-11651984D02*
X15595896Y-11651984D01*
X15595896Y-11651984D02*
X15614944Y-11661508D01*
X15614944Y-11661508D02*
X15624467Y-11671031D01*
X15624467Y-11671031D02*
X15633991Y-11690079D01*
X15633991Y-11690079D02*
X15643515Y-11728174D01*
X15643515Y-11728174D02*
X15643515Y-11775793D01*
X15643515Y-11775793D02*
X15633991Y-11813888D01*
X15633991Y-11813888D02*
X15624467Y-11832936D01*
X15624467Y-11832936D02*
X15614944Y-11842460D01*
X15614944Y-11842460D02*
X15595896Y-11851984D01*
X15595896Y-11851984D02*
X15576848Y-11851984D01*
X15576848Y-11851984D02*
X15557801Y-11842460D01*
X15557801Y-11842460D02*
X15548277Y-11832936D01*
X15548277Y-11832936D02*
X15538753Y-11813888D01*
X15538753Y-11813888D02*
X15529229Y-11775793D01*
X15529229Y-11775793D02*
X15529229Y-11728174D01*
X15529229Y-11728174D02*
X15538753Y-11690079D01*
X15538753Y-11690079D02*
X15548277Y-11671031D01*
X15548277Y-11671031D02*
X15557801Y-11661508D01*
X15557801Y-11661508D02*
X15576848Y-11651984D01*
X15710182Y-11651984D02*
X15833991Y-11651984D01*
X15833991Y-11651984D02*
X15767325Y-11728174D01*
X15767325Y-11728174D02*
X15795896Y-11728174D01*
X15795896Y-11728174D02*
X15814944Y-11737698D01*
X15814944Y-11737698D02*
X15824467Y-11747222D01*
X15824467Y-11747222D02*
X15833991Y-11766269D01*
X15833991Y-11766269D02*
X15833991Y-11813888D01*
X15833991Y-11813888D02*
X15824467Y-11832936D01*
X15824467Y-11832936D02*
X15814944Y-11842460D01*
X15814944Y-11842460D02*
X15795896Y-11851984D01*
X15795896Y-11851984D02*
X15738753Y-11851984D01*
X15738753Y-11851984D02*
X15719706Y-11842460D01*
X15719706Y-11842460D02*
X15710182Y-11832936D01*
X16014944Y-11651984D02*
X15919706Y-11651984D01*
X15919706Y-11651984D02*
X15910182Y-11747222D01*
X15910182Y-11747222D02*
X15919706Y-11737698D01*
X15919706Y-11737698D02*
X15938753Y-11728174D01*
X15938753Y-11728174D02*
X15986372Y-11728174D01*
X15986372Y-11728174D02*
X16005420Y-11737698D01*
X16005420Y-11737698D02*
X16014944Y-11747222D01*
X16014944Y-11747222D02*
X16024467Y-11766269D01*
X16024467Y-11766269D02*
X16024467Y-11813888D01*
X16024467Y-11813888D02*
X16014944Y-11832936D01*
X16014944Y-11832936D02*
X16005420Y-11842460D01*
X16005420Y-11842460D02*
X15986372Y-11851984D01*
X15986372Y-11851984D02*
X15938753Y-11851984D01*
X15938753Y-11851984D02*
X15919706Y-11842460D01*
X15919706Y-11842460D02*
X15910182Y-11832936D01*
X16195896Y-11718650D02*
X16195896Y-11851984D01*
X16148277Y-11642460D02*
X16100658Y-11785317D01*
X16100658Y-11785317D02*
X16224467Y-11785317D01*
X16291134Y-11651984D02*
X16291134Y-11690079D01*
X16367325Y-11651984D02*
X16367325Y-11690079D01*
X16662563Y-11928174D02*
X16653039Y-11918650D01*
X16653039Y-11918650D02*
X16633991Y-11890079D01*
X16633991Y-11890079D02*
X16624468Y-11871031D01*
X16624468Y-11871031D02*
X16614944Y-11842460D01*
X16614944Y-11842460D02*
X16605420Y-11794841D01*
X16605420Y-11794841D02*
X16605420Y-11756746D01*
X16605420Y-11756746D02*
X16614944Y-11709127D01*
X16614944Y-11709127D02*
X16624468Y-11680555D01*
X16624468Y-11680555D02*
X16633991Y-11661508D01*
X16633991Y-11661508D02*
X16653039Y-11632936D01*
X16653039Y-11632936D02*
X16662563Y-11623412D01*
X16729229Y-11671031D02*
X16738753Y-11661508D01*
X16738753Y-11661508D02*
X16757801Y-11651984D01*
X16757801Y-11651984D02*
X16805420Y-11651984D01*
X16805420Y-11651984D02*
X16824468Y-11661508D01*
X16824468Y-11661508D02*
X16833991Y-11671031D01*
X16833991Y-11671031D02*
X16843515Y-11690079D01*
X16843515Y-11690079D02*
X16843515Y-11709127D01*
X16843515Y-11709127D02*
X16833991Y-11737698D01*
X16833991Y-11737698D02*
X16719706Y-11851984D01*
X16719706Y-11851984D02*
X16843515Y-11851984D01*
X17081611Y-11851984D02*
X17081611Y-11651984D01*
X17167325Y-11851984D02*
X17167325Y-11747222D01*
X17167325Y-11747222D02*
X17157801Y-11728174D01*
X17157801Y-11728174D02*
X17138753Y-11718650D01*
X17138753Y-11718650D02*
X17110182Y-11718650D01*
X17110182Y-11718650D02*
X17091134Y-11728174D01*
X17091134Y-11728174D02*
X17081611Y-11737698D01*
X17291134Y-11851984D02*
X17272087Y-11842460D01*
X17272087Y-11842460D02*
X17262563Y-11832936D01*
X17262563Y-11832936D02*
X17253039Y-11813888D01*
X17253039Y-11813888D02*
X17253039Y-11756746D01*
X17253039Y-11756746D02*
X17262563Y-11737698D01*
X17262563Y-11737698D02*
X17272087Y-11728174D01*
X17272087Y-11728174D02*
X17291134Y-11718650D01*
X17291134Y-11718650D02*
X17319706Y-11718650D01*
X17319706Y-11718650D02*
X17338753Y-11728174D01*
X17338753Y-11728174D02*
X17348277Y-11737698D01*
X17348277Y-11737698D02*
X17357801Y-11756746D01*
X17357801Y-11756746D02*
X17357801Y-11813888D01*
X17357801Y-11813888D02*
X17348277Y-11832936D01*
X17348277Y-11832936D02*
X17338753Y-11842460D01*
X17338753Y-11842460D02*
X17319706Y-11851984D01*
X17319706Y-11851984D02*
X17291134Y-11851984D01*
X17472087Y-11851984D02*
X17453039Y-11842460D01*
X17453039Y-11842460D02*
X17443515Y-11823412D01*
X17443515Y-11823412D02*
X17443515Y-11651984D01*
X17624468Y-11842460D02*
X17605420Y-11851984D01*
X17605420Y-11851984D02*
X17567325Y-11851984D01*
X17567325Y-11851984D02*
X17548277Y-11842460D01*
X17548277Y-11842460D02*
X17538753Y-11823412D01*
X17538753Y-11823412D02*
X17538753Y-11747222D01*
X17538753Y-11747222D02*
X17548277Y-11728174D01*
X17548277Y-11728174D02*
X17567325Y-11718650D01*
X17567325Y-11718650D02*
X17605420Y-11718650D01*
X17605420Y-11718650D02*
X17624468Y-11728174D01*
X17624468Y-11728174D02*
X17633992Y-11747222D01*
X17633992Y-11747222D02*
X17633992Y-11766269D01*
X17633992Y-11766269D02*
X17538753Y-11785317D01*
X17710182Y-11842460D02*
X17729230Y-11851984D01*
X17729230Y-11851984D02*
X17767325Y-11851984D01*
X17767325Y-11851984D02*
X17786373Y-11842460D01*
X17786373Y-11842460D02*
X17795896Y-11823412D01*
X17795896Y-11823412D02*
X17795896Y-11813888D01*
X17795896Y-11813888D02*
X17786373Y-11794841D01*
X17786373Y-11794841D02*
X17767325Y-11785317D01*
X17767325Y-11785317D02*
X17738753Y-11785317D01*
X17738753Y-11785317D02*
X17719706Y-11775793D01*
X17719706Y-11775793D02*
X17710182Y-11756746D01*
X17710182Y-11756746D02*
X17710182Y-11747222D01*
X17710182Y-11747222D02*
X17719706Y-11728174D01*
X17719706Y-11728174D02*
X17738753Y-11718650D01*
X17738753Y-11718650D02*
X17767325Y-11718650D01*
X17767325Y-11718650D02*
X17786373Y-11728174D01*
X17862563Y-11928174D02*
X17872087Y-11918650D01*
X17872087Y-11918650D02*
X17891134Y-11890079D01*
X17891134Y-11890079D02*
X17900658Y-11871031D01*
X17900658Y-11871031D02*
X17910182Y-11842460D01*
X17910182Y-11842460D02*
X17919706Y-11794841D01*
X17919706Y-11794841D02*
X17919706Y-11756746D01*
X17919706Y-11756746D02*
X17910182Y-11709127D01*
X17910182Y-11709127D02*
X17900658Y-11680555D01*
X17900658Y-11680555D02*
X17891134Y-11661508D01*
X17891134Y-11661508D02*
X17872087Y-11632936D01*
X17872087Y-11632936D02*
X17862563Y-11623412D01*
D12*
X13072856Y-12059856D02*
X13072856Y-11989144D01*
X13002144Y-11989144D01*
X13002144Y-12059856D01*
X13072856Y-12059856D01*
D11*
X13453039Y-12115984D02*
X13338753Y-12115984D01*
X13395896Y-12115984D02*
X13395896Y-11915984D01*
X13395896Y-11915984D02*
X13376848Y-11944555D01*
X13376848Y-11944555D02*
X13357801Y-11963603D01*
X13357801Y-11963603D02*
X13338753Y-11973127D01*
X13538753Y-12096936D02*
X13548277Y-12106460D01*
X13548277Y-12106460D02*
X13538753Y-12115984D01*
X13538753Y-12115984D02*
X13529229Y-12106460D01*
X13529229Y-12106460D02*
X13538753Y-12096936D01*
X13538753Y-12096936D02*
X13538753Y-12115984D01*
X13672086Y-11915984D02*
X13691134Y-11915984D01*
X13691134Y-11915984D02*
X13710182Y-11925508D01*
X13710182Y-11925508D02*
X13719705Y-11935031D01*
X13719705Y-11935031D02*
X13729229Y-11954079D01*
X13729229Y-11954079D02*
X13738753Y-11992174D01*
X13738753Y-11992174D02*
X13738753Y-12039793D01*
X13738753Y-12039793D02*
X13729229Y-12077888D01*
X13729229Y-12077888D02*
X13719705Y-12096936D01*
X13719705Y-12096936D02*
X13710182Y-12106460D01*
X13710182Y-12106460D02*
X13691134Y-12115984D01*
X13691134Y-12115984D02*
X13672086Y-12115984D01*
X13672086Y-12115984D02*
X13653039Y-12106460D01*
X13653039Y-12106460D02*
X13643515Y-12096936D01*
X13643515Y-12096936D02*
X13633991Y-12077888D01*
X13633991Y-12077888D02*
X13624467Y-12039793D01*
X13624467Y-12039793D02*
X13624467Y-11992174D01*
X13624467Y-11992174D02*
X13633991Y-11954079D01*
X13633991Y-11954079D02*
X13643515Y-11935031D01*
X13643515Y-11935031D02*
X13653039Y-11925508D01*
X13653039Y-11925508D02*
X13672086Y-11915984D01*
X13862562Y-11915984D02*
X13881610Y-11915984D01*
X13881610Y-11915984D02*
X13900658Y-11925508D01*
X13900658Y-11925508D02*
X13910182Y-11935031D01*
X13910182Y-11935031D02*
X13919705Y-11954079D01*
X13919705Y-11954079D02*
X13929229Y-11992174D01*
X13929229Y-11992174D02*
X13929229Y-12039793D01*
X13929229Y-12039793D02*
X13919705Y-12077888D01*
X13919705Y-12077888D02*
X13910182Y-12096936D01*
X13910182Y-12096936D02*
X13900658Y-12106460D01*
X13900658Y-12106460D02*
X13881610Y-12115984D01*
X13881610Y-12115984D02*
X13862562Y-12115984D01*
X13862562Y-12115984D02*
X13843515Y-12106460D01*
X13843515Y-12106460D02*
X13833991Y-12096936D01*
X13833991Y-12096936D02*
X13824467Y-12077888D01*
X13824467Y-12077888D02*
X13814943Y-12039793D01*
X13814943Y-12039793D02*
X13814943Y-11992174D01*
X13814943Y-11992174D02*
X13824467Y-11954079D01*
X13824467Y-11954079D02*
X13833991Y-11935031D01*
X13833991Y-11935031D02*
X13843515Y-11925508D01*
X13843515Y-11925508D02*
X13862562Y-11915984D01*
X14053039Y-11915984D02*
X14072086Y-11915984D01*
X14072086Y-11915984D02*
X14091134Y-11925508D01*
X14091134Y-11925508D02*
X14100658Y-11935031D01*
X14100658Y-11935031D02*
X14110182Y-11954079D01*
X14110182Y-11954079D02*
X14119705Y-11992174D01*
X14119705Y-11992174D02*
X14119705Y-12039793D01*
X14119705Y-12039793D02*
X14110182Y-12077888D01*
X14110182Y-12077888D02*
X14100658Y-12096936D01*
X14100658Y-12096936D02*
X14091134Y-12106460D01*
X14091134Y-12106460D02*
X14072086Y-12115984D01*
X14072086Y-12115984D02*
X14053039Y-12115984D01*
X14053039Y-12115984D02*
X14033991Y-12106460D01*
X14033991Y-12106460D02*
X14024467Y-12096936D01*
X14024467Y-12096936D02*
X14014943Y-12077888D01*
X14014943Y-12077888D02*
X14005420Y-12039793D01*
X14005420Y-12039793D02*
X14005420Y-11992174D01*
X14005420Y-11992174D02*
X14014943Y-11954079D01*
X14014943Y-11954079D02*
X14024467Y-11935031D01*
X14024467Y-11935031D02*
X14033991Y-11925508D01*
X14033991Y-11925508D02*
X14053039Y-11915984D01*
X14205420Y-12115984D02*
X14205420Y-11982650D01*
X14205420Y-12001698D02*
X14214943Y-11992174D01*
X14214943Y-11992174D02*
X14233991Y-11982650D01*
X14233991Y-11982650D02*
X14262563Y-11982650D01*
X14262563Y-11982650D02*
X14281610Y-11992174D01*
X14281610Y-11992174D02*
X14291134Y-12011222D01*
X14291134Y-12011222D02*
X14291134Y-12115984D01*
X14291134Y-12011222D02*
X14300658Y-11992174D01*
X14300658Y-11992174D02*
X14319705Y-11982650D01*
X14319705Y-11982650D02*
X14348277Y-11982650D01*
X14348277Y-11982650D02*
X14367324Y-11992174D01*
X14367324Y-11992174D02*
X14376848Y-12011222D01*
X14376848Y-12011222D02*
X14376848Y-12115984D01*
X14472086Y-12115984D02*
X14472086Y-11982650D01*
X14472086Y-12001698D02*
X14481610Y-11992174D01*
X14481610Y-11992174D02*
X14500658Y-11982650D01*
X14500658Y-11982650D02*
X14529229Y-11982650D01*
X14529229Y-11982650D02*
X14548277Y-11992174D01*
X14548277Y-11992174D02*
X14557801Y-12011222D01*
X14557801Y-12011222D02*
X14557801Y-12115984D01*
X14557801Y-12011222D02*
X14567324Y-11992174D01*
X14567324Y-11992174D02*
X14586372Y-11982650D01*
X14586372Y-11982650D02*
X14614943Y-11982650D01*
X14614943Y-11982650D02*
X14633991Y-11992174D01*
X14633991Y-11992174D02*
X14643515Y-12011222D01*
X14643515Y-12011222D02*
X14643515Y-12115984D01*
X15033991Y-11906460D02*
X14862563Y-12163603D01*
X15291134Y-11915984D02*
X15310182Y-11915984D01*
X15310182Y-11915984D02*
X15329229Y-11925508D01*
X15329229Y-11925508D02*
X15338753Y-11935031D01*
X15338753Y-11935031D02*
X15348277Y-11954079D01*
X15348277Y-11954079D02*
X15357801Y-11992174D01*
X15357801Y-11992174D02*
X15357801Y-12039793D01*
X15357801Y-12039793D02*
X15348277Y-12077888D01*
X15348277Y-12077888D02*
X15338753Y-12096936D01*
X15338753Y-12096936D02*
X15329229Y-12106460D01*
X15329229Y-12106460D02*
X15310182Y-12115984D01*
X15310182Y-12115984D02*
X15291134Y-12115984D01*
X15291134Y-12115984D02*
X15272086Y-12106460D01*
X15272086Y-12106460D02*
X15262563Y-12096936D01*
X15262563Y-12096936D02*
X15253039Y-12077888D01*
X15253039Y-12077888D02*
X15243515Y-12039793D01*
X15243515Y-12039793D02*
X15243515Y-11992174D01*
X15243515Y-11992174D02*
X15253039Y-11954079D01*
X15253039Y-11954079D02*
X15262563Y-11935031D01*
X15262563Y-11935031D02*
X15272086Y-11925508D01*
X15272086Y-11925508D02*
X15291134Y-11915984D01*
X15443515Y-12096936D02*
X15453039Y-12106460D01*
X15453039Y-12106460D02*
X15443515Y-12115984D01*
X15443515Y-12115984D02*
X15433991Y-12106460D01*
X15433991Y-12106460D02*
X15443515Y-12096936D01*
X15443515Y-12096936D02*
X15443515Y-12115984D01*
X15576848Y-11915984D02*
X15595896Y-11915984D01*
X15595896Y-11915984D02*
X15614944Y-11925508D01*
X15614944Y-11925508D02*
X15624467Y-11935031D01*
X15624467Y-11935031D02*
X15633991Y-11954079D01*
X15633991Y-11954079D02*
X15643515Y-11992174D01*
X15643515Y-11992174D02*
X15643515Y-12039793D01*
X15643515Y-12039793D02*
X15633991Y-12077888D01*
X15633991Y-12077888D02*
X15624467Y-12096936D01*
X15624467Y-12096936D02*
X15614944Y-12106460D01*
X15614944Y-12106460D02*
X15595896Y-12115984D01*
X15595896Y-12115984D02*
X15576848Y-12115984D01*
X15576848Y-12115984D02*
X15557801Y-12106460D01*
X15557801Y-12106460D02*
X15548277Y-12096936D01*
X15548277Y-12096936D02*
X15538753Y-12077888D01*
X15538753Y-12077888D02*
X15529229Y-12039793D01*
X15529229Y-12039793D02*
X15529229Y-11992174D01*
X15529229Y-11992174D02*
X15538753Y-11954079D01*
X15538753Y-11954079D02*
X15548277Y-11935031D01*
X15548277Y-11935031D02*
X15557801Y-11925508D01*
X15557801Y-11925508D02*
X15576848Y-11915984D01*
X15710182Y-11915984D02*
X15833991Y-11915984D01*
X15833991Y-11915984D02*
X15767325Y-11992174D01*
X15767325Y-11992174D02*
X15795896Y-11992174D01*
X15795896Y-11992174D02*
X15814944Y-12001698D01*
X15814944Y-12001698D02*
X15824467Y-12011222D01*
X15824467Y-12011222D02*
X15833991Y-12030269D01*
X15833991Y-12030269D02*
X15833991Y-12077888D01*
X15833991Y-12077888D02*
X15824467Y-12096936D01*
X15824467Y-12096936D02*
X15814944Y-12106460D01*
X15814944Y-12106460D02*
X15795896Y-12115984D01*
X15795896Y-12115984D02*
X15738753Y-12115984D01*
X15738753Y-12115984D02*
X15719706Y-12106460D01*
X15719706Y-12106460D02*
X15710182Y-12096936D01*
X15929229Y-12115984D02*
X15967325Y-12115984D01*
X15967325Y-12115984D02*
X15986372Y-12106460D01*
X15986372Y-12106460D02*
X15995896Y-12096936D01*
X15995896Y-12096936D02*
X16014944Y-12068365D01*
X16014944Y-12068365D02*
X16024467Y-12030269D01*
X16024467Y-12030269D02*
X16024467Y-11954079D01*
X16024467Y-11954079D02*
X16014944Y-11935031D01*
X16014944Y-11935031D02*
X16005420Y-11925508D01*
X16005420Y-11925508D02*
X15986372Y-11915984D01*
X15986372Y-11915984D02*
X15948277Y-11915984D01*
X15948277Y-11915984D02*
X15929229Y-11925508D01*
X15929229Y-11925508D02*
X15919706Y-11935031D01*
X15919706Y-11935031D02*
X15910182Y-11954079D01*
X15910182Y-11954079D02*
X15910182Y-12001698D01*
X15910182Y-12001698D02*
X15919706Y-12020746D01*
X15919706Y-12020746D02*
X15929229Y-12030269D01*
X15929229Y-12030269D02*
X15948277Y-12039793D01*
X15948277Y-12039793D02*
X15986372Y-12039793D01*
X15986372Y-12039793D02*
X16005420Y-12030269D01*
X16005420Y-12030269D02*
X16014944Y-12020746D01*
X16014944Y-12020746D02*
X16024467Y-12001698D01*
X16195896Y-11982650D02*
X16195896Y-12115984D01*
X16148277Y-11906460D02*
X16100658Y-12049317D01*
X16100658Y-12049317D02*
X16224467Y-12049317D01*
X16291134Y-11915984D02*
X16291134Y-11954079D01*
X16367325Y-11915984D02*
X16367325Y-11954079D01*
X16662563Y-12192174D02*
X16653039Y-12182650D01*
X16653039Y-12182650D02*
X16633991Y-12154079D01*
X16633991Y-12154079D02*
X16624468Y-12135031D01*
X16624468Y-12135031D02*
X16614944Y-12106460D01*
X16614944Y-12106460D02*
X16605420Y-12058841D01*
X16605420Y-12058841D02*
X16605420Y-12020746D01*
X16605420Y-12020746D02*
X16614944Y-11973127D01*
X16614944Y-11973127D02*
X16624468Y-11944555D01*
X16624468Y-11944555D02*
X16633991Y-11925508D01*
X16633991Y-11925508D02*
X16653039Y-11896936D01*
X16653039Y-11896936D02*
X16662563Y-11887412D01*
X16833991Y-11915984D02*
X16738753Y-11915984D01*
X16738753Y-11915984D02*
X16729229Y-12011222D01*
X16729229Y-12011222D02*
X16738753Y-12001698D01*
X16738753Y-12001698D02*
X16757801Y-11992174D01*
X16757801Y-11992174D02*
X16805420Y-11992174D01*
X16805420Y-11992174D02*
X16824468Y-12001698D01*
X16824468Y-12001698D02*
X16833991Y-12011222D01*
X16833991Y-12011222D02*
X16843515Y-12030269D01*
X16843515Y-12030269D02*
X16843515Y-12077888D01*
X16843515Y-12077888D02*
X16833991Y-12096936D01*
X16833991Y-12096936D02*
X16824468Y-12106460D01*
X16824468Y-12106460D02*
X16805420Y-12115984D01*
X16805420Y-12115984D02*
X16757801Y-12115984D01*
X16757801Y-12115984D02*
X16738753Y-12106460D01*
X16738753Y-12106460D02*
X16729229Y-12096936D01*
X17081611Y-12115984D02*
X17081611Y-11915984D01*
X17167325Y-12115984D02*
X17167325Y-12011222D01*
X17167325Y-12011222D02*
X17157801Y-11992174D01*
X17157801Y-11992174D02*
X17138753Y-11982650D01*
X17138753Y-11982650D02*
X17110182Y-11982650D01*
X17110182Y-11982650D02*
X17091134Y-11992174D01*
X17091134Y-11992174D02*
X17081611Y-12001698D01*
X17291134Y-12115984D02*
X17272087Y-12106460D01*
X17272087Y-12106460D02*
X17262563Y-12096936D01*
X17262563Y-12096936D02*
X17253039Y-12077888D01*
X17253039Y-12077888D02*
X17253039Y-12020746D01*
X17253039Y-12020746D02*
X17262563Y-12001698D01*
X17262563Y-12001698D02*
X17272087Y-11992174D01*
X17272087Y-11992174D02*
X17291134Y-11982650D01*
X17291134Y-11982650D02*
X17319706Y-11982650D01*
X17319706Y-11982650D02*
X17338753Y-11992174D01*
X17338753Y-11992174D02*
X17348277Y-12001698D01*
X17348277Y-12001698D02*
X17357801Y-12020746D01*
X17357801Y-12020746D02*
X17357801Y-12077888D01*
X17357801Y-12077888D02*
X17348277Y-12096936D01*
X17348277Y-12096936D02*
X17338753Y-12106460D01*
X17338753Y-12106460D02*
X17319706Y-12115984D01*
X17319706Y-12115984D02*
X17291134Y-12115984D01*
X17472087Y-12115984D02*
X17453039Y-12106460D01*
X17453039Y-12106460D02*
X17443515Y-12087412D01*
X17443515Y-12087412D02*
X17443515Y-11915984D01*
X17624468Y-12106460D02*
X17605420Y-12115984D01*
X17605420Y-12115984D02*
X17567325Y-12115984D01*
X17567325Y-12115984D02*
X17548277Y-12106460D01*
X17548277Y-12106460D02*
X17538753Y-12087412D01*
X17538753Y-12087412D02*
X17538753Y-12011222D01*
X17538753Y-12011222D02*
X17548277Y-11992174D01*
X17548277Y-11992174D02*
X17567325Y-11982650D01*
X17567325Y-11982650D02*
X17605420Y-11982650D01*
X17605420Y-11982650D02*
X17624468Y-11992174D01*
X17624468Y-11992174D02*
X17633992Y-12011222D01*
X17633992Y-12011222D02*
X17633992Y-12030269D01*
X17633992Y-12030269D02*
X17538753Y-12049317D01*
X17710182Y-12106460D02*
X17729230Y-12115984D01*
X17729230Y-12115984D02*
X17767325Y-12115984D01*
X17767325Y-12115984D02*
X17786373Y-12106460D01*
X17786373Y-12106460D02*
X17795896Y-12087412D01*
X17795896Y-12087412D02*
X17795896Y-12077888D01*
X17795896Y-12077888D02*
X17786373Y-12058841D01*
X17786373Y-12058841D02*
X17767325Y-12049317D01*
X17767325Y-12049317D02*
X17738753Y-12049317D01*
X17738753Y-12049317D02*
X17719706Y-12039793D01*
X17719706Y-12039793D02*
X17710182Y-12020746D01*
X17710182Y-12020746D02*
X17710182Y-12011222D01*
X17710182Y-12011222D02*
X17719706Y-11992174D01*
X17719706Y-11992174D02*
X17738753Y-11982650D01*
X17738753Y-11982650D02*
X17767325Y-11982650D01*
X17767325Y-11982650D02*
X17786373Y-11992174D01*
X17862563Y-12192174D02*
X17872087Y-12182650D01*
X17872087Y-12182650D02*
X17891134Y-12154079D01*
X17891134Y-12154079D02*
X17900658Y-12135031D01*
X17900658Y-12135031D02*
X17910182Y-12106460D01*
X17910182Y-12106460D02*
X17919706Y-12058841D01*
X17919706Y-12058841D02*
X17919706Y-12020746D01*
X17919706Y-12020746D02*
X17910182Y-11973127D01*
X17910182Y-11973127D02*
X17900658Y-11944555D01*
X17900658Y-11944555D02*
X17891134Y-11925508D01*
X17891134Y-11925508D02*
X17872087Y-11896936D01*
X17872087Y-11896936D02*
X17862563Y-11887412D01*
D13*
X13027500Y-12348500D02*
X13087500Y-12288500D01*
X13027500Y-12228500D01*
X12967500Y-12288500D01*
X13027500Y-12348500D01*
D11*
X13453039Y-12379984D02*
X13338753Y-12379984D01*
X13395896Y-12379984D02*
X13395896Y-12179984D01*
X13395896Y-12179984D02*
X13376848Y-12208555D01*
X13376848Y-12208555D02*
X13357801Y-12227603D01*
X13357801Y-12227603D02*
X13338753Y-12237127D01*
X13538753Y-12360936D02*
X13548277Y-12370460D01*
X13548277Y-12370460D02*
X13538753Y-12379984D01*
X13538753Y-12379984D02*
X13529229Y-12370460D01*
X13529229Y-12370460D02*
X13538753Y-12360936D01*
X13538753Y-12360936D02*
X13538753Y-12379984D01*
X13624467Y-12199031D02*
X13633991Y-12189508D01*
X13633991Y-12189508D02*
X13653039Y-12179984D01*
X13653039Y-12179984D02*
X13700658Y-12179984D01*
X13700658Y-12179984D02*
X13719705Y-12189508D01*
X13719705Y-12189508D02*
X13729229Y-12199031D01*
X13729229Y-12199031D02*
X13738753Y-12218079D01*
X13738753Y-12218079D02*
X13738753Y-12237127D01*
X13738753Y-12237127D02*
X13729229Y-12265698D01*
X13729229Y-12265698D02*
X13614943Y-12379984D01*
X13614943Y-12379984D02*
X13738753Y-12379984D01*
X13862562Y-12179984D02*
X13881610Y-12179984D01*
X13881610Y-12179984D02*
X13900658Y-12189508D01*
X13900658Y-12189508D02*
X13910182Y-12199031D01*
X13910182Y-12199031D02*
X13919705Y-12218079D01*
X13919705Y-12218079D02*
X13929229Y-12256174D01*
X13929229Y-12256174D02*
X13929229Y-12303793D01*
X13929229Y-12303793D02*
X13919705Y-12341888D01*
X13919705Y-12341888D02*
X13910182Y-12360936D01*
X13910182Y-12360936D02*
X13900658Y-12370460D01*
X13900658Y-12370460D02*
X13881610Y-12379984D01*
X13881610Y-12379984D02*
X13862562Y-12379984D01*
X13862562Y-12379984D02*
X13843515Y-12370460D01*
X13843515Y-12370460D02*
X13833991Y-12360936D01*
X13833991Y-12360936D02*
X13824467Y-12341888D01*
X13824467Y-12341888D02*
X13814943Y-12303793D01*
X13814943Y-12303793D02*
X13814943Y-12256174D01*
X13814943Y-12256174D02*
X13824467Y-12218079D01*
X13824467Y-12218079D02*
X13833991Y-12199031D01*
X13833991Y-12199031D02*
X13843515Y-12189508D01*
X13843515Y-12189508D02*
X13862562Y-12179984D01*
X14053039Y-12179984D02*
X14072086Y-12179984D01*
X14072086Y-12179984D02*
X14091134Y-12189508D01*
X14091134Y-12189508D02*
X14100658Y-12199031D01*
X14100658Y-12199031D02*
X14110182Y-12218079D01*
X14110182Y-12218079D02*
X14119705Y-12256174D01*
X14119705Y-12256174D02*
X14119705Y-12303793D01*
X14119705Y-12303793D02*
X14110182Y-12341888D01*
X14110182Y-12341888D02*
X14100658Y-12360936D01*
X14100658Y-12360936D02*
X14091134Y-12370460D01*
X14091134Y-12370460D02*
X14072086Y-12379984D01*
X14072086Y-12379984D02*
X14053039Y-12379984D01*
X14053039Y-12379984D02*
X14033991Y-12370460D01*
X14033991Y-12370460D02*
X14024467Y-12360936D01*
X14024467Y-12360936D02*
X14014943Y-12341888D01*
X14014943Y-12341888D02*
X14005420Y-12303793D01*
X14005420Y-12303793D02*
X14005420Y-12256174D01*
X14005420Y-12256174D02*
X14014943Y-12218079D01*
X14014943Y-12218079D02*
X14024467Y-12199031D01*
X14024467Y-12199031D02*
X14033991Y-12189508D01*
X14033991Y-12189508D02*
X14053039Y-12179984D01*
X14205420Y-12379984D02*
X14205420Y-12246650D01*
X14205420Y-12265698D02*
X14214943Y-12256174D01*
X14214943Y-12256174D02*
X14233991Y-12246650D01*
X14233991Y-12246650D02*
X14262563Y-12246650D01*
X14262563Y-12246650D02*
X14281610Y-12256174D01*
X14281610Y-12256174D02*
X14291134Y-12275222D01*
X14291134Y-12275222D02*
X14291134Y-12379984D01*
X14291134Y-12275222D02*
X14300658Y-12256174D01*
X14300658Y-12256174D02*
X14319705Y-12246650D01*
X14319705Y-12246650D02*
X14348277Y-12246650D01*
X14348277Y-12246650D02*
X14367324Y-12256174D01*
X14367324Y-12256174D02*
X14376848Y-12275222D01*
X14376848Y-12275222D02*
X14376848Y-12379984D01*
X14472086Y-12379984D02*
X14472086Y-12246650D01*
X14472086Y-12265698D02*
X14481610Y-12256174D01*
X14481610Y-12256174D02*
X14500658Y-12246650D01*
X14500658Y-12246650D02*
X14529229Y-12246650D01*
X14529229Y-12246650D02*
X14548277Y-12256174D01*
X14548277Y-12256174D02*
X14557801Y-12275222D01*
X14557801Y-12275222D02*
X14557801Y-12379984D01*
X14557801Y-12275222D02*
X14567324Y-12256174D01*
X14567324Y-12256174D02*
X14586372Y-12246650D01*
X14586372Y-12246650D02*
X14614943Y-12246650D01*
X14614943Y-12246650D02*
X14633991Y-12256174D01*
X14633991Y-12256174D02*
X14643515Y-12275222D01*
X14643515Y-12275222D02*
X14643515Y-12379984D01*
X15033991Y-12170460D02*
X14862563Y-12427603D01*
X15291134Y-12179984D02*
X15310182Y-12179984D01*
X15310182Y-12179984D02*
X15329229Y-12189508D01*
X15329229Y-12189508D02*
X15338753Y-12199031D01*
X15338753Y-12199031D02*
X15348277Y-12218079D01*
X15348277Y-12218079D02*
X15357801Y-12256174D01*
X15357801Y-12256174D02*
X15357801Y-12303793D01*
X15357801Y-12303793D02*
X15348277Y-12341888D01*
X15348277Y-12341888D02*
X15338753Y-12360936D01*
X15338753Y-12360936D02*
X15329229Y-12370460D01*
X15329229Y-12370460D02*
X15310182Y-12379984D01*
X15310182Y-12379984D02*
X15291134Y-12379984D01*
X15291134Y-12379984D02*
X15272086Y-12370460D01*
X15272086Y-12370460D02*
X15262563Y-12360936D01*
X15262563Y-12360936D02*
X15253039Y-12341888D01*
X15253039Y-12341888D02*
X15243515Y-12303793D01*
X15243515Y-12303793D02*
X15243515Y-12256174D01*
X15243515Y-12256174D02*
X15253039Y-12218079D01*
X15253039Y-12218079D02*
X15262563Y-12199031D01*
X15262563Y-12199031D02*
X15272086Y-12189508D01*
X15272086Y-12189508D02*
X15291134Y-12179984D01*
X15443515Y-12360936D02*
X15453039Y-12370460D01*
X15453039Y-12370460D02*
X15443515Y-12379984D01*
X15443515Y-12379984D02*
X15433991Y-12370460D01*
X15433991Y-12370460D02*
X15443515Y-12360936D01*
X15443515Y-12360936D02*
X15443515Y-12379984D01*
X15576848Y-12179984D02*
X15595896Y-12179984D01*
X15595896Y-12179984D02*
X15614944Y-12189508D01*
X15614944Y-12189508D02*
X15624467Y-12199031D01*
X15624467Y-12199031D02*
X15633991Y-12218079D01*
X15633991Y-12218079D02*
X15643515Y-12256174D01*
X15643515Y-12256174D02*
X15643515Y-12303793D01*
X15643515Y-12303793D02*
X15633991Y-12341888D01*
X15633991Y-12341888D02*
X15624467Y-12360936D01*
X15624467Y-12360936D02*
X15614944Y-12370460D01*
X15614944Y-12370460D02*
X15595896Y-12379984D01*
X15595896Y-12379984D02*
X15576848Y-12379984D01*
X15576848Y-12379984D02*
X15557801Y-12370460D01*
X15557801Y-12370460D02*
X15548277Y-12360936D01*
X15548277Y-12360936D02*
X15538753Y-12341888D01*
X15538753Y-12341888D02*
X15529229Y-12303793D01*
X15529229Y-12303793D02*
X15529229Y-12256174D01*
X15529229Y-12256174D02*
X15538753Y-12218079D01*
X15538753Y-12218079D02*
X15548277Y-12199031D01*
X15548277Y-12199031D02*
X15557801Y-12189508D01*
X15557801Y-12189508D02*
X15576848Y-12179984D01*
X15814944Y-12246650D02*
X15814944Y-12379984D01*
X15767325Y-12170460D02*
X15719706Y-12313317D01*
X15719706Y-12313317D02*
X15843515Y-12313317D01*
X15900658Y-12179984D02*
X16033991Y-12179984D01*
X16033991Y-12179984D02*
X15948277Y-12379984D01*
X16100658Y-12199031D02*
X16110182Y-12189508D01*
X16110182Y-12189508D02*
X16129229Y-12179984D01*
X16129229Y-12179984D02*
X16176848Y-12179984D01*
X16176848Y-12179984D02*
X16195896Y-12189508D01*
X16195896Y-12189508D02*
X16205420Y-12199031D01*
X16205420Y-12199031D02*
X16214944Y-12218079D01*
X16214944Y-12218079D02*
X16214944Y-12237127D01*
X16214944Y-12237127D02*
X16205420Y-12265698D01*
X16205420Y-12265698D02*
X16091134Y-12379984D01*
X16091134Y-12379984D02*
X16214944Y-12379984D01*
X16291134Y-12179984D02*
X16291134Y-12218079D01*
X16367325Y-12179984D02*
X16367325Y-12218079D01*
X16662563Y-12456174D02*
X16653039Y-12446650D01*
X16653039Y-12446650D02*
X16633991Y-12418079D01*
X16633991Y-12418079D02*
X16624468Y-12399031D01*
X16624468Y-12399031D02*
X16614944Y-12370460D01*
X16614944Y-12370460D02*
X16605420Y-12322841D01*
X16605420Y-12322841D02*
X16605420Y-12284746D01*
X16605420Y-12284746D02*
X16614944Y-12237127D01*
X16614944Y-12237127D02*
X16624468Y-12208555D01*
X16624468Y-12208555D02*
X16633991Y-12189508D01*
X16633991Y-12189508D02*
X16653039Y-12160936D01*
X16653039Y-12160936D02*
X16662563Y-12151412D01*
X16719706Y-12179984D02*
X16843515Y-12179984D01*
X16843515Y-12179984D02*
X16776848Y-12256174D01*
X16776848Y-12256174D02*
X16805420Y-12256174D01*
X16805420Y-12256174D02*
X16824468Y-12265698D01*
X16824468Y-12265698D02*
X16833991Y-12275222D01*
X16833991Y-12275222D02*
X16843515Y-12294269D01*
X16843515Y-12294269D02*
X16843515Y-12341888D01*
X16843515Y-12341888D02*
X16833991Y-12360936D01*
X16833991Y-12360936D02*
X16824468Y-12370460D01*
X16824468Y-12370460D02*
X16805420Y-12379984D01*
X16805420Y-12379984D02*
X16748277Y-12379984D01*
X16748277Y-12379984D02*
X16729229Y-12370460D01*
X16729229Y-12370460D02*
X16719706Y-12360936D01*
X17081611Y-12379984D02*
X17081611Y-12179984D01*
X17167325Y-12379984D02*
X17167325Y-12275222D01*
X17167325Y-12275222D02*
X17157801Y-12256174D01*
X17157801Y-12256174D02*
X17138753Y-12246650D01*
X17138753Y-12246650D02*
X17110182Y-12246650D01*
X17110182Y-12246650D02*
X17091134Y-12256174D01*
X17091134Y-12256174D02*
X17081611Y-12265698D01*
X17291134Y-12379984D02*
X17272087Y-12370460D01*
X17272087Y-12370460D02*
X17262563Y-12360936D01*
X17262563Y-12360936D02*
X17253039Y-12341888D01*
X17253039Y-12341888D02*
X17253039Y-12284746D01*
X17253039Y-12284746D02*
X17262563Y-12265698D01*
X17262563Y-12265698D02*
X17272087Y-12256174D01*
X17272087Y-12256174D02*
X17291134Y-12246650D01*
X17291134Y-12246650D02*
X17319706Y-12246650D01*
X17319706Y-12246650D02*
X17338753Y-12256174D01*
X17338753Y-12256174D02*
X17348277Y-12265698D01*
X17348277Y-12265698D02*
X17357801Y-12284746D01*
X17357801Y-12284746D02*
X17357801Y-12341888D01*
X17357801Y-12341888D02*
X17348277Y-12360936D01*
X17348277Y-12360936D02*
X17338753Y-12370460D01*
X17338753Y-12370460D02*
X17319706Y-12379984D01*
X17319706Y-12379984D02*
X17291134Y-12379984D01*
X17472087Y-12379984D02*
X17453039Y-12370460D01*
X17453039Y-12370460D02*
X17443515Y-12351412D01*
X17443515Y-12351412D02*
X17443515Y-12179984D01*
X17624468Y-12370460D02*
X17605420Y-12379984D01*
X17605420Y-12379984D02*
X17567325Y-12379984D01*
X17567325Y-12379984D02*
X17548277Y-12370460D01*
X17548277Y-12370460D02*
X17538753Y-12351412D01*
X17538753Y-12351412D02*
X17538753Y-12275222D01*
X17538753Y-12275222D02*
X17548277Y-12256174D01*
X17548277Y-12256174D02*
X17567325Y-12246650D01*
X17567325Y-12246650D02*
X17605420Y-12246650D01*
X17605420Y-12246650D02*
X17624468Y-12256174D01*
X17624468Y-12256174D02*
X17633992Y-12275222D01*
X17633992Y-12275222D02*
X17633992Y-12294269D01*
X17633992Y-12294269D02*
X17538753Y-12313317D01*
X17710182Y-12370460D02*
X17729230Y-12379984D01*
X17729230Y-12379984D02*
X17767325Y-12379984D01*
X17767325Y-12379984D02*
X17786373Y-12370460D01*
X17786373Y-12370460D02*
X17795896Y-12351412D01*
X17795896Y-12351412D02*
X17795896Y-12341888D01*
X17795896Y-12341888D02*
X17786373Y-12322841D01*
X17786373Y-12322841D02*
X17767325Y-12313317D01*
X17767325Y-12313317D02*
X17738753Y-12313317D01*
X17738753Y-12313317D02*
X17719706Y-12303793D01*
X17719706Y-12303793D02*
X17710182Y-12284746D01*
X17710182Y-12284746D02*
X17710182Y-12275222D01*
X17710182Y-12275222D02*
X17719706Y-12256174D01*
X17719706Y-12256174D02*
X17738753Y-12246650D01*
X17738753Y-12246650D02*
X17767325Y-12246650D01*
X17767325Y-12246650D02*
X17786373Y-12256174D01*
X17862563Y-12456174D02*
X17872087Y-12446650D01*
X17872087Y-12446650D02*
X17891134Y-12418079D01*
X17891134Y-12418079D02*
X17900658Y-12399031D01*
X17900658Y-12399031D02*
X17910182Y-12370460D01*
X17910182Y-12370460D02*
X17919706Y-12322841D01*
X17919706Y-12322841D02*
X17919706Y-12284746D01*
X17919706Y-12284746D02*
X17910182Y-12237127D01*
X17910182Y-12237127D02*
X17900658Y-12208555D01*
X17900658Y-12208555D02*
X17891134Y-12189508D01*
X17891134Y-12189508D02*
X17872087Y-12160936D01*
X17872087Y-12160936D02*
X17862563Y-12151412D01*
M02*
