G04 #@! TF.GenerationSoftware,KiCad,Pcbnew,9.0.1*
G04 #@! TF.CreationDate,2025-08-18T15:29:20+05:00*
G04 #@! TF.ProjectId,servo_tester,73657276-6f5f-4746-9573-7465722e6b69,rev?*
G04 #@! TF.SameCoordinates,Original*
G04 #@! TF.FileFunction,Copper,L1,Top*
G04 #@! TF.FilePolarity,Positive*
%FSLAX46Y46*%
G04 Gerber Fmt 4.6, Leading zero omitted, Abs format (unit mm)*
G04 Created by KiCad (PCBNEW 9.0.1) date 2025-08-18 15:29:20*
%MOMM*%
%LPD*%
G01*
G04 APERTURE LIST*
G04 Aperture macros list*
%AMRoundRect*
0 Rectangle with rounded corners*
0 $1 Rounding radius*
0 $2 $3 $4 $5 $6 $7 $8 $9 X,Y pos of 4 corners*
0 Add a 4 corners polygon primitive as box body*
4,1,4,$2,$3,$4,$5,$6,$7,$8,$9,$2,$3,0*
0 Add four circle primitives for the rounded corners*
1,1,$1+$1,$2,$3*
1,1,$1+$1,$4,$5*
1,1,$1+$1,$6,$7*
1,1,$1+$1,$8,$9*
0 Add four rect primitives between the rounded corners*
20,1,$1+$1,$2,$3,$4,$5,0*
20,1,$1+$1,$4,$5,$6,$7,0*
20,1,$1+$1,$6,$7,$8,$9,0*
20,1,$1+$1,$8,$9,$2,$3,0*%
G04 Aperture macros list end*
G04 #@! TA.AperFunction,ComponentPad*
%ADD10C,1.400000*%
G04 #@! TD*
G04 #@! TA.AperFunction,ComponentPad*
%ADD11O,1.400000X1.400000*%
G04 #@! TD*
G04 #@! TA.AperFunction,ComponentPad*
%ADD12R,1.700000X1.700000*%
G04 #@! TD*
G04 #@! TA.AperFunction,ComponentPad*
%ADD13C,1.700000*%
G04 #@! TD*
G04 #@! TA.AperFunction,ComponentPad*
%ADD14R,1.600000X1.600000*%
G04 #@! TD*
G04 #@! TA.AperFunction,ComponentPad*
%ADD15O,1.600000X1.600000*%
G04 #@! TD*
G04 #@! TA.AperFunction,ComponentPad*
%ADD16RoundRect,0.250000X-0.550000X-0.550000X0.550000X-0.550000X0.550000X0.550000X-0.550000X0.550000X0*%
G04 #@! TD*
G04 #@! TA.AperFunction,ComponentPad*
%ADD17C,1.600000*%
G04 #@! TD*
G04 #@! TA.AperFunction,ComponentPad*
%ADD18R,1.800000X1.800000*%
G04 #@! TD*
G04 #@! TA.AperFunction,ComponentPad*
%ADD19C,1.800000*%
G04 #@! TD*
G04 #@! TA.AperFunction,ComponentPad*
%ADD20R,3.000000X3.000000*%
G04 #@! TD*
G04 #@! TA.AperFunction,ComponentPad*
%ADD21C,3.000000*%
G04 #@! TD*
G04 #@! TA.AperFunction,Conductor*
%ADD22C,0.500000*%
G04 #@! TD*
G04 APERTURE END LIST*
D10*
X140980000Y-102510000D03*
D11*
X148600000Y-102510000D03*
D12*
X162115000Y-93760000D03*
D13*
X162115000Y-96300000D03*
X162115000Y-98840000D03*
D14*
X137200000Y-94900000D03*
D15*
X137200000Y-102520000D03*
D16*
X140580000Y-90480000D03*
D17*
X140580000Y-93020000D03*
X140580000Y-95560000D03*
X140580000Y-98100000D03*
X148200000Y-98100000D03*
X148200000Y-95560000D03*
X148200000Y-93020000D03*
X148200000Y-90480000D03*
D12*
X132385000Y-85875000D03*
D13*
X132385000Y-83335000D03*
D10*
X137500000Y-79000000D03*
D11*
X137500000Y-86620000D03*
D18*
X133250000Y-93170000D03*
D19*
X133250000Y-90630000D03*
D17*
X154000000Y-102510000D03*
X154000000Y-97510000D03*
D10*
X151690000Y-90010000D03*
D11*
X159310000Y-90010000D03*
D20*
X155200000Y-80400000D03*
D21*
X150200000Y-80400000D03*
X145200000Y-80400000D03*
D22*
X142120000Y-93020000D02*
X144660000Y-95560000D01*
X140580000Y-93020000D02*
X142120000Y-93020000D01*
X144660000Y-95560000D02*
X148200000Y-95560000D01*
X140580000Y-86320000D02*
X140580000Y-90480000D01*
X140600000Y-86300000D02*
X140580000Y-86320000D01*
X137635000Y-83335000D02*
X140600000Y-86300000D01*
X132385000Y-83335000D02*
X137635000Y-83335000D01*
X148200000Y-90480000D02*
X151880000Y-86800000D01*
X151880000Y-86800000D02*
X156100000Y-86800000D01*
X156100000Y-86800000D02*
X159310000Y-90010000D01*
X161155000Y-99800000D02*
X144800000Y-99800000D01*
X162115000Y-98840000D02*
X161155000Y-99800000D01*
X144800000Y-99780000D02*
X140580000Y-95560000D01*
X144800000Y-99800000D02*
X144800000Y-99780000D01*
G04 #@! TA.AperFunction,Conductor*
G36*
X160156258Y-76820185D02*
G01*
X160202013Y-76872989D01*
X160211957Y-76942147D01*
X160187595Y-76999985D01*
X160145206Y-77055227D01*
X160083072Y-77136201D01*
X159951958Y-77363299D01*
X159951953Y-77363309D01*
X159851605Y-77605571D01*
X159851602Y-77605581D01*
X159791722Y-77829060D01*
X159783730Y-77858885D01*
X159749500Y-78118872D01*
X159749500Y-78381127D01*
X159770741Y-78542455D01*
X159783730Y-78641116D01*
X159851602Y-78894418D01*
X159851605Y-78894428D01*
X159951953Y-79136690D01*
X159951958Y-79136700D01*
X160083075Y-79363803D01*
X160242718Y-79571851D01*
X160242726Y-79571860D01*
X160428140Y-79757274D01*
X160428148Y-79757281D01*
X160636196Y-79916924D01*
X160863299Y-80048041D01*
X160863309Y-80048046D01*
X161019024Y-80112545D01*
X161105581Y-80148398D01*
X161358884Y-80216270D01*
X161618880Y-80250500D01*
X161618887Y-80250500D01*
X161881113Y-80250500D01*
X161881120Y-80250500D01*
X162141116Y-80216270D01*
X162394419Y-80148398D01*
X162636697Y-80048043D01*
X162863803Y-79916924D01*
X162900013Y-79889139D01*
X162965182Y-79863944D01*
X163033627Y-79877982D01*
X163083617Y-79926795D01*
X163099500Y-79987514D01*
X163099500Y-92286000D01*
X163079815Y-92353039D01*
X163027011Y-92398794D01*
X162975500Y-92410000D01*
X162365000Y-92410000D01*
X162365000Y-93326988D01*
X162307993Y-93294075D01*
X162180826Y-93260000D01*
X162049174Y-93260000D01*
X161922007Y-93294075D01*
X161865000Y-93326988D01*
X161865000Y-92410000D01*
X161217155Y-92410000D01*
X161157627Y-92416401D01*
X161157620Y-92416403D01*
X161022913Y-92466645D01*
X161022906Y-92466649D01*
X160907812Y-92552809D01*
X160907809Y-92552812D01*
X160821649Y-92667906D01*
X160821645Y-92667913D01*
X160771403Y-92802620D01*
X160771401Y-92802627D01*
X160765000Y-92862155D01*
X160765000Y-93510000D01*
X161681988Y-93510000D01*
X161649075Y-93567007D01*
X161615000Y-93694174D01*
X161615000Y-93825826D01*
X161649075Y-93952993D01*
X161681988Y-94010000D01*
X160765000Y-94010000D01*
X160765000Y-94657844D01*
X160771401Y-94717372D01*
X160771403Y-94717379D01*
X160821645Y-94852086D01*
X160821649Y-94852093D01*
X160907809Y-94967187D01*
X160907812Y-94967190D01*
X161022906Y-95053350D01*
X161022913Y-95053354D01*
X161154470Y-95102422D01*
X161210404Y-95144293D01*
X161234821Y-95209758D01*
X161219969Y-95278031D01*
X161198819Y-95306285D01*
X161084889Y-95420215D01*
X160959951Y-95592179D01*
X160863444Y-95781585D01*
X160863443Y-95781587D01*
X160863443Y-95781588D01*
X160855029Y-95807483D01*
X160797753Y-95983760D01*
X160772406Y-96143796D01*
X160764500Y-96193713D01*
X160764500Y-96406287D01*
X160797754Y-96616243D01*
X160846897Y-96767490D01*
X160863444Y-96818414D01*
X160959951Y-97007820D01*
X161084890Y-97179786D01*
X161235213Y-97330109D01*
X161407182Y-97455050D01*
X161415946Y-97459516D01*
X161466742Y-97507491D01*
X161483536Y-97575312D01*
X161460998Y-97641447D01*
X161415946Y-97680484D01*
X161407182Y-97684949D01*
X161235213Y-97809890D01*
X161084890Y-97960213D01*
X160959951Y-98132179D01*
X160863444Y-98321585D01*
X160797753Y-98523760D01*
X160764500Y-98733713D01*
X160764500Y-98925500D01*
X160744815Y-98992539D01*
X160692011Y-99038294D01*
X160640500Y-99049500D01*
X154165741Y-99049500D01*
X154098702Y-99029815D01*
X154052947Y-98977011D01*
X154043003Y-98907853D01*
X154072028Y-98844297D01*
X154130806Y-98806523D01*
X154146343Y-98803027D01*
X154304417Y-98777990D01*
X154499031Y-98714755D01*
X154681349Y-98621859D01*
X154725921Y-98589474D01*
X154046447Y-97910000D01*
X154052661Y-97910000D01*
X154154394Y-97882741D01*
X154245606Y-97830080D01*
X154320080Y-97755606D01*
X154372741Y-97664394D01*
X154400000Y-97562661D01*
X154400000Y-97556447D01*
X155079474Y-98235921D01*
X155111859Y-98191349D01*
X155204755Y-98009031D01*
X155267990Y-97814417D01*
X155300000Y-97612317D01*
X155300000Y-97407682D01*
X155267990Y-97205582D01*
X155204755Y-97010968D01*
X155111859Y-96828650D01*
X155079474Y-96784077D01*
X155079474Y-96784076D01*
X154400000Y-97463551D01*
X154400000Y-97457339D01*
X154372741Y-97355606D01*
X154320080Y-97264394D01*
X154245606Y-97189920D01*
X154154394Y-97137259D01*
X154052661Y-97110000D01*
X154046446Y-97110000D01*
X154725922Y-96430524D01*
X154725921Y-96430523D01*
X154681359Y-96398147D01*
X154681350Y-96398141D01*
X154499031Y-96305244D01*
X154304417Y-96242009D01*
X154102317Y-96210000D01*
X153897683Y-96210000D01*
X153695582Y-96242009D01*
X153500968Y-96305244D01*
X153318644Y-96398143D01*
X153274077Y-96430523D01*
X153274077Y-96430524D01*
X153953554Y-97110000D01*
X153947339Y-97110000D01*
X153845606Y-97137259D01*
X153754394Y-97189920D01*
X153679920Y-97264394D01*
X153627259Y-97355606D01*
X153600000Y-97457339D01*
X153600000Y-97463553D01*
X152920524Y-96784077D01*
X152920523Y-96784077D01*
X152888143Y-96828644D01*
X152795244Y-97010968D01*
X152732009Y-97205582D01*
X152700000Y-97407682D01*
X152700000Y-97612317D01*
X152732009Y-97814417D01*
X152795244Y-98009031D01*
X152888141Y-98191350D01*
X152888147Y-98191359D01*
X152920523Y-98235921D01*
X152920524Y-98235922D01*
X153600000Y-97556446D01*
X153600000Y-97562661D01*
X153627259Y-97664394D01*
X153679920Y-97755606D01*
X153754394Y-97830080D01*
X153845606Y-97882741D01*
X153947339Y-97910000D01*
X153953553Y-97910000D01*
X153274076Y-98589474D01*
X153318650Y-98621859D01*
X153500968Y-98714755D01*
X153695582Y-98777990D01*
X153853657Y-98803027D01*
X153916792Y-98832956D01*
X153953723Y-98892268D01*
X153952725Y-98962130D01*
X153914115Y-99020363D01*
X153850151Y-99048477D01*
X153834259Y-99049500D01*
X149361018Y-99049500D01*
X149293979Y-99029815D01*
X149248224Y-98977011D01*
X149238280Y-98907853D01*
X149260700Y-98852615D01*
X149294187Y-98806523D01*
X149312287Y-98781610D01*
X149405220Y-98599219D01*
X149468477Y-98404534D01*
X149500500Y-98202352D01*
X149500500Y-97997648D01*
X149479261Y-97863553D01*
X149468477Y-97795465D01*
X149405218Y-97600776D01*
X149357686Y-97507491D01*
X149312287Y-97418390D01*
X149312286Y-97418388D01*
X149191971Y-97252786D01*
X149047213Y-97108028D01*
X148881614Y-96987715D01*
X148875006Y-96984348D01*
X148788917Y-96940483D01*
X148738123Y-96892511D01*
X148721328Y-96824690D01*
X148743865Y-96758555D01*
X148788917Y-96719516D01*
X148881610Y-96672287D01*
X148958754Y-96616239D01*
X149047213Y-96551971D01*
X149047215Y-96551968D01*
X149047219Y-96551966D01*
X149191966Y-96407219D01*
X149193652Y-96404898D01*
X149193653Y-96404898D01*
X149262236Y-96310500D01*
X149312287Y-96241610D01*
X149405220Y-96059219D01*
X149468477Y-95864534D01*
X149500500Y-95662352D01*
X149500500Y-95457648D01*
X149468477Y-95255466D01*
X149405220Y-95060781D01*
X149405218Y-95060778D01*
X149405218Y-95060776D01*
X149348519Y-94949500D01*
X149312287Y-94878390D01*
X149262236Y-94809500D01*
X149191971Y-94712786D01*
X149047213Y-94568028D01*
X148881614Y-94447715D01*
X148841331Y-94427190D01*
X148788917Y-94400483D01*
X148738123Y-94352511D01*
X148721328Y-94284690D01*
X148743865Y-94218555D01*
X148788917Y-94179516D01*
X148881610Y-94132287D01*
X148991939Y-94052129D01*
X149047213Y-94011971D01*
X149047215Y-94011968D01*
X149047219Y-94011966D01*
X149191966Y-93867219D01*
X149191968Y-93867215D01*
X149191971Y-93867213D01*
X149257008Y-93777695D01*
X149312287Y-93701610D01*
X149405220Y-93519219D01*
X149468477Y-93324534D01*
X149500500Y-93122352D01*
X149500500Y-92917648D01*
X149474052Y-92750667D01*
X149468477Y-92715465D01*
X149439127Y-92625137D01*
X149405220Y-92520781D01*
X149405218Y-92520778D01*
X149405218Y-92520776D01*
X149362555Y-92437046D01*
X149312287Y-92338390D01*
X149304556Y-92327749D01*
X149191971Y-92172786D01*
X149047213Y-92028028D01*
X148881614Y-91907715D01*
X148874884Y-91904286D01*
X148788917Y-91860483D01*
X148738123Y-91812511D01*
X148721328Y-91744690D01*
X148743865Y-91678555D01*
X148788917Y-91639516D01*
X148881610Y-91592287D01*
X148902770Y-91576913D01*
X149047213Y-91471971D01*
X149047215Y-91471968D01*
X149047219Y-91471966D01*
X149191966Y-91327219D01*
X149191968Y-91327215D01*
X149191971Y-91327213D01*
X149244732Y-91254590D01*
X149312287Y-91161610D01*
X149405220Y-90979219D01*
X149468477Y-90784534D01*
X149500500Y-90582352D01*
X149500500Y-90377648D01*
X149491681Y-90321971D01*
X149500635Y-90252680D01*
X149526470Y-90214896D01*
X150424074Y-89317292D01*
X150485395Y-89283809D01*
X150555087Y-89288793D01*
X150611020Y-89330665D01*
X150635437Y-89396129D01*
X150622238Y-89461269D01*
X150577455Y-89549160D01*
X150519059Y-89728881D01*
X150489500Y-89915513D01*
X150489500Y-90104486D01*
X150519059Y-90291118D01*
X150577454Y-90470836D01*
X150634275Y-90582352D01*
X150663240Y-90639199D01*
X150774310Y-90792073D01*
X150907927Y-90925690D01*
X151060801Y-91036760D01*
X151140347Y-91077290D01*
X151229163Y-91122545D01*
X151229165Y-91122545D01*
X151229168Y-91122547D01*
X151325497Y-91153846D01*
X151408881Y-91180940D01*
X151595514Y-91210500D01*
X151595519Y-91210500D01*
X151784486Y-91210500D01*
X151971118Y-91180940D01*
X152150832Y-91122547D01*
X152319199Y-91036760D01*
X152472073Y-90925690D01*
X152605690Y-90792073D01*
X152716760Y-90639199D01*
X152802547Y-90470832D01*
X152860940Y-90291118D01*
X152873013Y-90214893D01*
X152890500Y-90104486D01*
X152890500Y-89915513D01*
X152860940Y-89728881D01*
X152829715Y-89632781D01*
X152802547Y-89549168D01*
X152802545Y-89549165D01*
X152802545Y-89549163D01*
X152716759Y-89380800D01*
X152707251Y-89367713D01*
X152605690Y-89227927D01*
X152472073Y-89094310D01*
X152319199Y-88983240D01*
X152264038Y-88955134D01*
X152150836Y-88897454D01*
X151971118Y-88839059D01*
X151784486Y-88809500D01*
X151784481Y-88809500D01*
X151595519Y-88809500D01*
X151595514Y-88809500D01*
X151408881Y-88839059D01*
X151229160Y-88897455D01*
X151141269Y-88942238D01*
X151072599Y-88955134D01*
X151007859Y-88928857D01*
X150967603Y-88871750D01*
X150964611Y-88801944D01*
X150997291Y-88744075D01*
X152154549Y-87586819D01*
X152215872Y-87553334D01*
X152242230Y-87550500D01*
X155737770Y-87550500D01*
X155804809Y-87570185D01*
X155825451Y-87586819D01*
X158073181Y-89834548D01*
X158106666Y-89895871D01*
X158109500Y-89922229D01*
X158109500Y-90104486D01*
X158139059Y-90291118D01*
X158197454Y-90470836D01*
X158254275Y-90582352D01*
X158283240Y-90639199D01*
X158394310Y-90792073D01*
X158527927Y-90925690D01*
X158680801Y-91036760D01*
X158760347Y-91077290D01*
X158849163Y-91122545D01*
X158849165Y-91122545D01*
X158849168Y-91122547D01*
X158945497Y-91153846D01*
X159028881Y-91180940D01*
X159215514Y-91210500D01*
X159215519Y-91210500D01*
X159404486Y-91210500D01*
X159591118Y-91180940D01*
X159770832Y-91122547D01*
X159939199Y-91036760D01*
X160092073Y-90925690D01*
X160225690Y-90792073D01*
X160336760Y-90639199D01*
X160422547Y-90470832D01*
X160480940Y-90291118D01*
X160493013Y-90214893D01*
X160510500Y-90104486D01*
X160510500Y-89915513D01*
X160480940Y-89728881D01*
X160449715Y-89632781D01*
X160422547Y-89549168D01*
X160422545Y-89549165D01*
X160422545Y-89549163D01*
X160336759Y-89380800D01*
X160327251Y-89367713D01*
X160225690Y-89227927D01*
X160092073Y-89094310D01*
X159939199Y-88983240D01*
X159884038Y-88955134D01*
X159770836Y-88897454D01*
X159591118Y-88839059D01*
X159404486Y-88809500D01*
X159404481Y-88809500D01*
X159222229Y-88809500D01*
X159155190Y-88789815D01*
X159134548Y-88773181D01*
X156578421Y-86217052D01*
X156578414Y-86217046D01*
X156491791Y-86159167D01*
X156491791Y-86159168D01*
X156455495Y-86134916D01*
X156455492Y-86134914D01*
X156455491Y-86134914D01*
X156318917Y-86078343D01*
X156318907Y-86078340D01*
X156173920Y-86049500D01*
X156173918Y-86049500D01*
X151806082Y-86049500D01*
X151806080Y-86049500D01*
X151661092Y-86078340D01*
X151661082Y-86078343D01*
X151524508Y-86134914D01*
X151524505Y-86134915D01*
X151524505Y-86134916D01*
X151488209Y-86159168D01*
X151488208Y-86159167D01*
X151401585Y-86217046D01*
X151401578Y-86217052D01*
X148465104Y-89153526D01*
X148403781Y-89187011D01*
X148358025Y-89188318D01*
X148302352Y-89179500D01*
X148097648Y-89179500D01*
X148073329Y-89183351D01*
X147895465Y-89211522D01*
X147700776Y-89274781D01*
X147518386Y-89367715D01*
X147352786Y-89488028D01*
X147208028Y-89632786D01*
X147087715Y-89798386D01*
X146994781Y-89980776D01*
X146931522Y-90175465D01*
X146899500Y-90377648D01*
X146899500Y-90582351D01*
X146931522Y-90784534D01*
X146994781Y-90979223D01*
X147046117Y-91079973D01*
X147067809Y-91122547D01*
X147087715Y-91161613D01*
X147208028Y-91327213D01*
X147352786Y-91471971D01*
X147507749Y-91584556D01*
X147518390Y-91592287D01*
X147609840Y-91638883D01*
X147611080Y-91639515D01*
X147661876Y-91687490D01*
X147678671Y-91755311D01*
X147656134Y-91821446D01*
X147611080Y-91860485D01*
X147518386Y-91907715D01*
X147352786Y-92028028D01*
X147208028Y-92172786D01*
X147087715Y-92338386D01*
X146994781Y-92520776D01*
X146931522Y-92715465D01*
X146899500Y-92917648D01*
X146899500Y-93122351D01*
X146931522Y-93324534D01*
X146994781Y-93519223D01*
X147054283Y-93636000D01*
X147083924Y-93694174D01*
X147087715Y-93701613D01*
X147208028Y-93867213D01*
X147352786Y-94011971D01*
X147498487Y-94117827D01*
X147518390Y-94132287D01*
X147606874Y-94177372D01*
X147611080Y-94179515D01*
X147661876Y-94227490D01*
X147678671Y-94295311D01*
X147656134Y-94361446D01*
X147611080Y-94400485D01*
X147518386Y-94447715D01*
X147352786Y-94568028D01*
X147208032Y-94712782D01*
X147208028Y-94712787D01*
X147174900Y-94758385D01*
X147119571Y-94801051D01*
X147074582Y-94809500D01*
X145022229Y-94809500D01*
X144955190Y-94789815D01*
X144934548Y-94773181D01*
X142598421Y-92437052D01*
X142598414Y-92437046D01*
X142524729Y-92387812D01*
X142524729Y-92387813D01*
X142475491Y-92354913D01*
X142338917Y-92298343D01*
X142338907Y-92298340D01*
X142193920Y-92269500D01*
X142193918Y-92269500D01*
X141705418Y-92269500D01*
X141638379Y-92249815D01*
X141605100Y-92218385D01*
X141571971Y-92172787D01*
X141571967Y-92172782D01*
X141427217Y-92028032D01*
X141427212Y-92028028D01*
X141333051Y-91959616D01*
X141290385Y-91904286D01*
X141284406Y-91834673D01*
X141317012Y-91772878D01*
X141366933Y-91741592D01*
X141449117Y-91714359D01*
X141449124Y-91714356D01*
X141598345Y-91622315D01*
X141722315Y-91498345D01*
X141814356Y-91349124D01*
X141814358Y-91349119D01*
X141869505Y-91182697D01*
X141869506Y-91182690D01*
X141879999Y-91079986D01*
X141880000Y-91079973D01*
X141880000Y-90730000D01*
X140895686Y-90730000D01*
X140900080Y-90725606D01*
X140952741Y-90634394D01*
X140980000Y-90532661D01*
X140980000Y-90427339D01*
X140952741Y-90325606D01*
X140900080Y-90234394D01*
X140895686Y-90230000D01*
X141879999Y-90230000D01*
X141879999Y-89880028D01*
X141879998Y-89880013D01*
X141869505Y-89777302D01*
X141814358Y-89610880D01*
X141814356Y-89610875D01*
X141722315Y-89461654D01*
X141598345Y-89337684D01*
X141449124Y-89245643D01*
X141449119Y-89245641D01*
X141282697Y-89190494D01*
X141282690Y-89190493D01*
X141179986Y-89180000D01*
X140830000Y-89180000D01*
X140830000Y-90164314D01*
X140825606Y-90159920D01*
X140734394Y-90107259D01*
X140632661Y-90080000D01*
X140527339Y-90080000D01*
X140425606Y-90107259D01*
X140334394Y-90159920D01*
X140330000Y-90164314D01*
X140330000Y-89180000D01*
X139980028Y-89180000D01*
X139980012Y-89180001D01*
X139877302Y-89190494D01*
X139710880Y-89245641D01*
X139710875Y-89245643D01*
X139561654Y-89337684D01*
X139437684Y-89461654D01*
X139345643Y-89610875D01*
X139345641Y-89610880D01*
X139290494Y-89777302D01*
X139290493Y-89777309D01*
X139280000Y-89880013D01*
X139280000Y-90230000D01*
X140264314Y-90230000D01*
X140259920Y-90234394D01*
X140207259Y-90325606D01*
X140180000Y-90427339D01*
X140180000Y-90532661D01*
X140207259Y-90634394D01*
X140259920Y-90725606D01*
X140264314Y-90730000D01*
X139280001Y-90730000D01*
X139280001Y-91079986D01*
X139290494Y-91182697D01*
X139345641Y-91349119D01*
X139345643Y-91349124D01*
X139437684Y-91498345D01*
X139561654Y-91622315D01*
X139710875Y-91714356D01*
X139710882Y-91714359D01*
X139793067Y-91741592D01*
X139850512Y-91781364D01*
X139877336Y-91845880D01*
X139865021Y-91914656D01*
X139826949Y-91959616D01*
X139732787Y-92028028D01*
X139732782Y-92028032D01*
X139588028Y-92172786D01*
X139467715Y-92338386D01*
X139374781Y-92520776D01*
X139311522Y-92715465D01*
X139279500Y-92917648D01*
X139279500Y-93122351D01*
X139311522Y-93324534D01*
X139374781Y-93519223D01*
X139434283Y-93636000D01*
X139463924Y-93694174D01*
X139467715Y-93701613D01*
X139588028Y-93867213D01*
X139732786Y-94011971D01*
X139878487Y-94117827D01*
X139898390Y-94132287D01*
X139986874Y-94177372D01*
X139991080Y-94179515D01*
X140041876Y-94227490D01*
X140058671Y-94295311D01*
X140036134Y-94361446D01*
X139991080Y-94400485D01*
X139898386Y-94447715D01*
X139732786Y-94568028D01*
X139588028Y-94712786D01*
X139467715Y-94878386D01*
X139374781Y-95060776D01*
X139311522Y-95255465D01*
X139279500Y-95457648D01*
X139279500Y-95662351D01*
X139311522Y-95864534D01*
X139374781Y-96059223D01*
X139438691Y-96184653D01*
X139446766Y-96200500D01*
X139467715Y-96241613D01*
X139588028Y-96407213D01*
X139732786Y-96551971D01*
X139821251Y-96616243D01*
X139898390Y-96672287D01*
X139989840Y-96718883D01*
X139991080Y-96719515D01*
X140041876Y-96767490D01*
X140058671Y-96835311D01*
X140036134Y-96901446D01*
X139991080Y-96940485D01*
X139898386Y-96987715D01*
X139732786Y-97108028D01*
X139588028Y-97252786D01*
X139467715Y-97418386D01*
X139374781Y-97600776D01*
X139311522Y-97795465D01*
X139279500Y-97997648D01*
X139279500Y-98202351D01*
X139311522Y-98404534D01*
X139374781Y-98599223D01*
X139467715Y-98781613D01*
X139588028Y-98947213D01*
X139732786Y-99091971D01*
X139887749Y-99204556D01*
X139898390Y-99212287D01*
X140014607Y-99271503D01*
X140080776Y-99305218D01*
X140080778Y-99305218D01*
X140080781Y-99305220D01*
X140185137Y-99339127D01*
X140275465Y-99368477D01*
X140376557Y-99384488D01*
X140477648Y-99400500D01*
X140477649Y-99400500D01*
X140682351Y-99400500D01*
X140682352Y-99400500D01*
X140884534Y-99368477D01*
X141079219Y-99305220D01*
X141261610Y-99212287D01*
X141354590Y-99144732D01*
X141427213Y-99091971D01*
X141427215Y-99091968D01*
X141427219Y-99091966D01*
X141571966Y-98947219D01*
X141571968Y-98947215D01*
X141571971Y-98947213D01*
X141640699Y-98852615D01*
X141692287Y-98781610D01*
X141785220Y-98599219D01*
X141848477Y-98404534D01*
X141880500Y-98202352D01*
X141880500Y-98202345D01*
X141880779Y-98200584D01*
X141910708Y-98137450D01*
X141970019Y-98100518D01*
X142039882Y-98101516D01*
X142090933Y-98132301D01*
X144168138Y-100209505D01*
X144183559Y-100228295D01*
X144217048Y-100278416D01*
X144321580Y-100382948D01*
X144321584Y-100382951D01*
X144444498Y-100465080D01*
X144444511Y-100465087D01*
X144581082Y-100521656D01*
X144581087Y-100521658D01*
X144581091Y-100521658D01*
X144581092Y-100521659D01*
X144726079Y-100550500D01*
X144726082Y-100550500D01*
X161228920Y-100550500D01*
X161326462Y-100531096D01*
X161373913Y-100521658D01*
X161510495Y-100465084D01*
X161559729Y-100432186D01*
X161633416Y-100382952D01*
X161806195Y-100210171D01*
X161867514Y-100176689D01*
X161913265Y-100175382D01*
X162008713Y-100190500D01*
X162008715Y-100190500D01*
X162221286Y-100190500D01*
X162221287Y-100190500D01*
X162431243Y-100157246D01*
X162633412Y-100091557D01*
X162822816Y-99995051D01*
X162902616Y-99937073D01*
X162968421Y-99913594D01*
X163036475Y-99929419D01*
X163085170Y-99979525D01*
X163099500Y-100037392D01*
X163099500Y-102162485D01*
X163079815Y-102229524D01*
X163027011Y-102275279D01*
X162957853Y-102285223D01*
X162900014Y-102260861D01*
X162863802Y-102233075D01*
X162636700Y-102101958D01*
X162636690Y-102101953D01*
X162394428Y-102001605D01*
X162394421Y-102001603D01*
X162394419Y-102001602D01*
X162141116Y-101933730D01*
X162083339Y-101926123D01*
X161881127Y-101899500D01*
X161881120Y-101899500D01*
X161618880Y-101899500D01*
X161618872Y-101899500D01*
X161387772Y-101929926D01*
X161358884Y-101933730D01*
X161105581Y-102001602D01*
X161105571Y-102001605D01*
X160863309Y-102101953D01*
X160863299Y-102101958D01*
X160636196Y-102233075D01*
X160428148Y-102392718D01*
X160242718Y-102578148D01*
X160083075Y-102786196D01*
X159951958Y-103013299D01*
X159951953Y-103013309D01*
X159851605Y-103255571D01*
X159851602Y-103255581D01*
X159785583Y-103501971D01*
X159783730Y-103508885D01*
X159749500Y-103768872D01*
X159749500Y-104031127D01*
X159770436Y-104190140D01*
X159783730Y-104291116D01*
X159805178Y-104371161D01*
X159851602Y-104544418D01*
X159851605Y-104544428D01*
X159951953Y-104786690D01*
X159951958Y-104786700D01*
X160083075Y-105013803D01*
X160225961Y-105200013D01*
X160251156Y-105265182D01*
X160237118Y-105333627D01*
X160188304Y-105383617D01*
X160127586Y-105399500D01*
X134472414Y-105399500D01*
X134405375Y-105379815D01*
X134359620Y-105327011D01*
X134349676Y-105257853D01*
X134374039Y-105200013D01*
X134516924Y-105013803D01*
X134648041Y-104786700D01*
X134648046Y-104786690D01*
X134748394Y-104544428D01*
X134748398Y-104544419D01*
X134816270Y-104291116D01*
X134850500Y-104031120D01*
X134850500Y-103768880D01*
X134816270Y-103508884D01*
X134748398Y-103255581D01*
X134726044Y-103201613D01*
X134648046Y-103013309D01*
X134648041Y-103013299D01*
X134516924Y-102786196D01*
X134357281Y-102578148D01*
X134357274Y-102578140D01*
X134196782Y-102417648D01*
X135899500Y-102417648D01*
X135899500Y-102622351D01*
X135931522Y-102824534D01*
X135994781Y-103019223D01*
X136049889Y-103127376D01*
X136082619Y-103191613D01*
X136087715Y-103201613D01*
X136208028Y-103367213D01*
X136352786Y-103511971D01*
X136504622Y-103622284D01*
X136518390Y-103632287D01*
X136613877Y-103680940D01*
X136700776Y-103725218D01*
X136700778Y-103725218D01*
X136700781Y-103725220D01*
X136805137Y-103759127D01*
X136895465Y-103788477D01*
X136996557Y-103804488D01*
X137097648Y-103820500D01*
X137097649Y-103820500D01*
X137302351Y-103820500D01*
X137302352Y-103820500D01*
X137504534Y-103788477D01*
X137699219Y-103725220D01*
X137881610Y-103632287D01*
X138013093Y-103536760D01*
X138047213Y-103511971D01*
X138047215Y-103511968D01*
X138047219Y-103511966D01*
X138191966Y-103367219D01*
X138191968Y-103367215D01*
X138191971Y-103367213D01*
X138246562Y-103292073D01*
X138312287Y-103201610D01*
X138405220Y-103019219D01*
X138468477Y-102824534D01*
X138500500Y-102622352D01*
X138500500Y-102417648D01*
X138500162Y-102415513D01*
X139779500Y-102415513D01*
X139779500Y-102604486D01*
X139809059Y-102791118D01*
X139867454Y-102970836D01*
X139892107Y-103019219D01*
X139953240Y-103139199D01*
X140064310Y-103292073D01*
X140197927Y-103425690D01*
X140350801Y-103536760D01*
X140430347Y-103577290D01*
X140519163Y-103622545D01*
X140519165Y-103622545D01*
X140519168Y-103622547D01*
X140615497Y-103653846D01*
X140698881Y-103680940D01*
X140885514Y-103710500D01*
X140885519Y-103710500D01*
X141074486Y-103710500D01*
X141261118Y-103680940D01*
X141440832Y-103622547D01*
X141609199Y-103536760D01*
X141762073Y-103425690D01*
X141895690Y-103292073D01*
X142006760Y-103139199D01*
X142092547Y-102970832D01*
X142150940Y-102791118D01*
X142177670Y-102622351D01*
X142180500Y-102604486D01*
X142180500Y-102415513D01*
X147399500Y-102415513D01*
X147399500Y-102604486D01*
X147429059Y-102791118D01*
X147487454Y-102970836D01*
X147512107Y-103019219D01*
X147573240Y-103139199D01*
X147684310Y-103292073D01*
X147817927Y-103425690D01*
X147970801Y-103536760D01*
X148050347Y-103577290D01*
X148139163Y-103622545D01*
X148139165Y-103622545D01*
X148139168Y-103622547D01*
X148235497Y-103653846D01*
X148318881Y-103680940D01*
X148505514Y-103710500D01*
X148505519Y-103710500D01*
X148694486Y-103710500D01*
X148881118Y-103680940D01*
X149060832Y-103622547D01*
X149229199Y-103536760D01*
X149382073Y-103425690D01*
X149515690Y-103292073D01*
X149626760Y-103139199D01*
X149712547Y-102970832D01*
X149770940Y-102791118D01*
X149797670Y-102622351D01*
X149800500Y-102604486D01*
X149800500Y-102415513D01*
X149799254Y-102407648D01*
X152699500Y-102407648D01*
X152699500Y-102612351D01*
X152731522Y-102814534D01*
X152794781Y-103009223D01*
X152887715Y-103191613D01*
X153008028Y-103357213D01*
X153152786Y-103501971D01*
X153307749Y-103614556D01*
X153318390Y-103622287D01*
X153433503Y-103680940D01*
X153500776Y-103715218D01*
X153500778Y-103715218D01*
X153500781Y-103715220D01*
X153605137Y-103749127D01*
X153695465Y-103778477D01*
X153758602Y-103788477D01*
X153897648Y-103810500D01*
X153897649Y-103810500D01*
X154102351Y-103810500D01*
X154102352Y-103810500D01*
X154304534Y-103778477D01*
X154499219Y-103715220D01*
X154681610Y-103622287D01*
X154799330Y-103536759D01*
X154847213Y-103501971D01*
X154847215Y-103501968D01*
X154847219Y-103501966D01*
X154991966Y-103357219D01*
X154991968Y-103357215D01*
X154991971Y-103357213D01*
X155058295Y-103265924D01*
X155112287Y-103191610D01*
X155205220Y-103009219D01*
X155268477Y-102814534D01*
X155300500Y-102612352D01*
X155300500Y-102407648D01*
X155293395Y-102362789D01*
X155268477Y-102205465D01*
X155234844Y-102101953D01*
X155205220Y-102010781D01*
X155205218Y-102010778D01*
X155205218Y-102010776D01*
X155148519Y-101899500D01*
X155112287Y-101828390D01*
X155104556Y-101817749D01*
X154991971Y-101662786D01*
X154847213Y-101518028D01*
X154681613Y-101397715D01*
X154681612Y-101397714D01*
X154681610Y-101397713D01*
X154624653Y-101368691D01*
X154499223Y-101304781D01*
X154304534Y-101241522D01*
X154129995Y-101213878D01*
X154102352Y-101209500D01*
X153897648Y-101209500D01*
X153873329Y-101213351D01*
X153695465Y-101241522D01*
X153500776Y-101304781D01*
X153318386Y-101397715D01*
X153152786Y-101518028D01*
X153008028Y-101662786D01*
X152887715Y-101828386D01*
X152794781Y-102010776D01*
X152731522Y-102205465D01*
X152699500Y-102407648D01*
X149799254Y-102407648D01*
X149770940Y-102228881D01*
X149743846Y-102145497D01*
X149712547Y-102049168D01*
X149712545Y-102049165D01*
X149712545Y-102049163D01*
X149667290Y-101960347D01*
X149626760Y-101880801D01*
X149515690Y-101727927D01*
X149382073Y-101594310D01*
X149229199Y-101483240D01*
X149060836Y-101397454D01*
X148881118Y-101339059D01*
X148694486Y-101309500D01*
X148694481Y-101309500D01*
X148505519Y-101309500D01*
X148505514Y-101309500D01*
X148318881Y-101339059D01*
X148139163Y-101397454D01*
X147970800Y-101483240D01*
X147883579Y-101546610D01*
X147817927Y-101594310D01*
X147817925Y-101594312D01*
X147817924Y-101594312D01*
X147684312Y-101727924D01*
X147684312Y-101727925D01*
X147684310Y-101727927D01*
X147636610Y-101793579D01*
X147573240Y-101880800D01*
X147487454Y-102049163D01*
X147429059Y-102228881D01*
X147399500Y-102415513D01*
X142180500Y-102415513D01*
X142150940Y-102228881D01*
X142123846Y-102145497D01*
X142092547Y-102049168D01*
X142092545Y-102049165D01*
X142092545Y-102049163D01*
X142047290Y-101960347D01*
X142006760Y-101880801D01*
X141895690Y-101727927D01*
X141762073Y-101594310D01*
X141609199Y-101483240D01*
X141440836Y-101397454D01*
X141261118Y-101339059D01*
X141074486Y-101309500D01*
X141074481Y-101309500D01*
X140885519Y-101309500D01*
X140885514Y-101309500D01*
X140698881Y-101339059D01*
X140519163Y-101397454D01*
X140350800Y-101483240D01*
X140263579Y-101546610D01*
X140197927Y-101594310D01*
X140197925Y-101594312D01*
X140197924Y-101594312D01*
X140064312Y-101727924D01*
X140064312Y-101727925D01*
X140064310Y-101727927D01*
X140016610Y-101793579D01*
X139953240Y-101880800D01*
X139867454Y-102049163D01*
X139809059Y-102228881D01*
X139779500Y-102415513D01*
X138500162Y-102415513D01*
X138468477Y-102215466D01*
X138465227Y-102205465D01*
X138405218Y-102020776D01*
X138343424Y-101899500D01*
X138312287Y-101838390D01*
X138232032Y-101727927D01*
X138191971Y-101672786D01*
X138047213Y-101528028D01*
X137881613Y-101407715D01*
X137881612Y-101407714D01*
X137881610Y-101407713D01*
X137824653Y-101378691D01*
X137699223Y-101314781D01*
X137504534Y-101251522D01*
X137329995Y-101223878D01*
X137302352Y-101219500D01*
X137097648Y-101219500D01*
X137073329Y-101223351D01*
X136895465Y-101251522D01*
X136700776Y-101314781D01*
X136518386Y-101407715D01*
X136352786Y-101528028D01*
X136208028Y-101672786D01*
X136087715Y-101838386D01*
X135994781Y-102020776D01*
X135931522Y-102215465D01*
X135899500Y-102417648D01*
X134196782Y-102417648D01*
X134171860Y-102392726D01*
X134171851Y-102392718D01*
X133963803Y-102233075D01*
X133736700Y-102101958D01*
X133736690Y-102101953D01*
X133494428Y-102001605D01*
X133494421Y-102001603D01*
X133494419Y-102001602D01*
X133241116Y-101933730D01*
X133183339Y-101926123D01*
X132981127Y-101899500D01*
X132981120Y-101899500D01*
X132718880Y-101899500D01*
X132718872Y-101899500D01*
X132487772Y-101929926D01*
X132458884Y-101933730D01*
X132205581Y-102001602D01*
X132205571Y-102001605D01*
X131963309Y-102101953D01*
X131963299Y-102101958D01*
X131736201Y-102233072D01*
X131681197Y-102275279D01*
X131599985Y-102337595D01*
X131534818Y-102362789D01*
X131466373Y-102348751D01*
X131416383Y-102299937D01*
X131400500Y-102239219D01*
X131400500Y-90519778D01*
X131849500Y-90519778D01*
X131849500Y-90740222D01*
X131857713Y-90792074D01*
X131883985Y-90957952D01*
X131952103Y-91167603D01*
X131952104Y-91167606D01*
X132020122Y-91301096D01*
X132044591Y-91349119D01*
X132052187Y-91364025D01*
X132181752Y-91542358D01*
X132181756Y-91542363D01*
X132232316Y-91592923D01*
X132265801Y-91654246D01*
X132260817Y-91723938D01*
X132218945Y-91779871D01*
X132187969Y-91796785D01*
X132107918Y-91826643D01*
X132107906Y-91826649D01*
X131992812Y-91912809D01*
X131992809Y-91912812D01*
X131906649Y-92027906D01*
X131906645Y-92027913D01*
X131856403Y-92162620D01*
X131856401Y-92162627D01*
X131850000Y-92222155D01*
X131850000Y-92920000D01*
X132874722Y-92920000D01*
X132830667Y-92996306D01*
X132800000Y-93110756D01*
X132800000Y-93229244D01*
X132830667Y-93343694D01*
X132874722Y-93420000D01*
X131850000Y-93420000D01*
X131850000Y-94117844D01*
X131856401Y-94177372D01*
X131856403Y-94177379D01*
X131906645Y-94312086D01*
X131906649Y-94312093D01*
X131992809Y-94427187D01*
X131992812Y-94427190D01*
X132107906Y-94513350D01*
X132107913Y-94513354D01*
X132242620Y-94563596D01*
X132242627Y-94563598D01*
X132302155Y-94569999D01*
X132302172Y-94570000D01*
X133000000Y-94570000D01*
X133000000Y-93545277D01*
X133076306Y-93589333D01*
X133190756Y-93620000D01*
X133309244Y-93620000D01*
X133423694Y-93589333D01*
X133500000Y-93545277D01*
X133500000Y-94570000D01*
X134197828Y-94570000D01*
X134197844Y-94569999D01*
X134257372Y-94563598D01*
X134257379Y-94563596D01*
X134392086Y-94513354D01*
X134392093Y-94513350D01*
X134507187Y-94427190D01*
X134507190Y-94427187D01*
X134593350Y-94312093D01*
X134593354Y-94312086D01*
X134643596Y-94177379D01*
X134643598Y-94177372D01*
X134649999Y-94117844D01*
X134650000Y-94117827D01*
X134650000Y-94052135D01*
X135899500Y-94052135D01*
X135899500Y-95747870D01*
X135899501Y-95747876D01*
X135905908Y-95807483D01*
X135956202Y-95942328D01*
X135956206Y-95942335D01*
X136042452Y-96057544D01*
X136042455Y-96057547D01*
X136157664Y-96143793D01*
X136157671Y-96143797D01*
X136292517Y-96194091D01*
X136292516Y-96194091D01*
X136299444Y-96194835D01*
X136352127Y-96200500D01*
X138047872Y-96200499D01*
X138107483Y-96194091D01*
X138242331Y-96143796D01*
X138357546Y-96057546D01*
X138443796Y-95942331D01*
X138494091Y-95807483D01*
X138500500Y-95747873D01*
X138500499Y-94052128D01*
X138494091Y-93992517D01*
X138447355Y-93867212D01*
X138443797Y-93857671D01*
X138443793Y-93857664D01*
X138357547Y-93742455D01*
X138357544Y-93742452D01*
X138242335Y-93656206D01*
X138242328Y-93656202D01*
X138107482Y-93605908D01*
X138107483Y-93605908D01*
X138047883Y-93599501D01*
X138047881Y-93599500D01*
X138047873Y-93599500D01*
X138047864Y-93599500D01*
X136352129Y-93599500D01*
X136352123Y-93599501D01*
X136292516Y-93605908D01*
X136157671Y-93656202D01*
X136157664Y-93656206D01*
X136042455Y-93742452D01*
X136042452Y-93742455D01*
X135956206Y-93857664D01*
X135956202Y-93857671D01*
X135905908Y-93992517D01*
X135903817Y-94011971D01*
X135899501Y-94052123D01*
X135899500Y-94052135D01*
X134650000Y-94052135D01*
X134650000Y-93420000D01*
X133625278Y-93420000D01*
X133669333Y-93343694D01*
X133700000Y-93229244D01*
X133700000Y-93110756D01*
X133669333Y-92996306D01*
X133625278Y-92920000D01*
X134650000Y-92920000D01*
X134650000Y-92222172D01*
X134649999Y-92222155D01*
X134643598Y-92162627D01*
X134643596Y-92162620D01*
X134593354Y-92027913D01*
X134593350Y-92027906D01*
X134507190Y-91912812D01*
X134507187Y-91912809D01*
X134392093Y-91826649D01*
X134392087Y-91826646D01*
X134312030Y-91796786D01*
X134256097Y-91754914D01*
X134231680Y-91689450D01*
X134246532Y-91621177D01*
X134267681Y-91592925D01*
X134318242Y-91542365D01*
X134447815Y-91364022D01*
X134547895Y-91167606D01*
X134616015Y-90957951D01*
X134650500Y-90740222D01*
X134650500Y-90519778D01*
X134616015Y-90302049D01*
X134551824Y-90104486D01*
X134547896Y-90092396D01*
X134547895Y-90092393D01*
X134466760Y-89933159D01*
X134466759Y-89933157D01*
X134447814Y-89895976D01*
X134318247Y-89717641D01*
X134318243Y-89717636D01*
X134162363Y-89561756D01*
X134162358Y-89561752D01*
X133984025Y-89432187D01*
X133984024Y-89432186D01*
X133984022Y-89432185D01*
X133913259Y-89396129D01*
X133787606Y-89332104D01*
X133787603Y-89332103D01*
X133577952Y-89263985D01*
X133469086Y-89246742D01*
X133360222Y-89229500D01*
X133139778Y-89229500D01*
X133067201Y-89240995D01*
X132922047Y-89263985D01*
X132712396Y-89332103D01*
X132712393Y-89332104D01*
X132515974Y-89432187D01*
X132337641Y-89561752D01*
X132337636Y-89561756D01*
X132181756Y-89717636D01*
X132181752Y-89717641D01*
X132052187Y-89895974D01*
X131952104Y-90092393D01*
X131952103Y-90092396D01*
X131883985Y-90302047D01*
X131883985Y-90302049D01*
X131849500Y-90519778D01*
X131400500Y-90519778D01*
X131400500Y-87349499D01*
X131420185Y-87282460D01*
X131472989Y-87236705D01*
X131524495Y-87225499D01*
X133282872Y-87225499D01*
X133342483Y-87219091D01*
X133477331Y-87168796D01*
X133592546Y-87082546D01*
X133678796Y-86967331D01*
X133729091Y-86832483D01*
X133735500Y-86772873D01*
X133735500Y-86525513D01*
X136299500Y-86525513D01*
X136299500Y-86714486D01*
X136329059Y-86901118D01*
X136387454Y-87080836D01*
X136432273Y-87168797D01*
X136473240Y-87249199D01*
X136584310Y-87402073D01*
X136717927Y-87535690D01*
X136870801Y-87646760D01*
X136950347Y-87687290D01*
X137039163Y-87732545D01*
X137039165Y-87732545D01*
X137039168Y-87732547D01*
X137135497Y-87763846D01*
X137218881Y-87790940D01*
X137405514Y-87820500D01*
X137405519Y-87820500D01*
X137594486Y-87820500D01*
X137781118Y-87790940D01*
X137960832Y-87732547D01*
X138129199Y-87646760D01*
X138282073Y-87535690D01*
X138415690Y-87402073D01*
X138526760Y-87249199D01*
X138612547Y-87080832D01*
X138670940Y-86901118D01*
X138681811Y-86832482D01*
X138700500Y-86714486D01*
X138700500Y-86525513D01*
X138670940Y-86338881D01*
X138612545Y-86159163D01*
X138567290Y-86070347D01*
X138526760Y-85990801D01*
X138415690Y-85837927D01*
X138282073Y-85704310D01*
X138129199Y-85593240D01*
X137960836Y-85507454D01*
X137781118Y-85449059D01*
X137594486Y-85419500D01*
X137594481Y-85419500D01*
X137405519Y-85419500D01*
X137405514Y-85419500D01*
X137218881Y-85449059D01*
X137039163Y-85507454D01*
X136870800Y-85593240D01*
X136783579Y-85656610D01*
X136717927Y-85704310D01*
X136717925Y-85704312D01*
X136717924Y-85704312D01*
X136584312Y-85837924D01*
X136584312Y-85837925D01*
X136584310Y-85837927D01*
X136536610Y-85903579D01*
X136473240Y-85990800D01*
X136387454Y-86159163D01*
X136329059Y-86338881D01*
X136299500Y-86525513D01*
X133735500Y-86525513D01*
X133735499Y-85837927D01*
X133735499Y-84977129D01*
X133735498Y-84977123D01*
X133729091Y-84917516D01*
X133678797Y-84782671D01*
X133678793Y-84782664D01*
X133592547Y-84667455D01*
X133592544Y-84667452D01*
X133477335Y-84581206D01*
X133477328Y-84581202D01*
X133342482Y-84530908D01*
X133342483Y-84530908D01*
X133282883Y-84524501D01*
X133282881Y-84524500D01*
X133282873Y-84524500D01*
X133282865Y-84524500D01*
X133272309Y-84524500D01*
X133205270Y-84504815D01*
X133184628Y-84488181D01*
X132514409Y-83817962D01*
X132577993Y-83800925D01*
X132692007Y-83735099D01*
X132785099Y-83642007D01*
X132850925Y-83527993D01*
X132867962Y-83464408D01*
X133500270Y-84096717D01*
X133500270Y-84096716D01*
X133539622Y-84042554D01*
X133636095Y-83853217D01*
X133701757Y-83651130D01*
X133701757Y-83651127D01*
X133735000Y-83441246D01*
X133735000Y-83228753D01*
X133701757Y-83018872D01*
X133701757Y-83018869D01*
X133636095Y-82816782D01*
X133539624Y-82627449D01*
X133500270Y-82573282D01*
X133500269Y-82573282D01*
X132867962Y-83205590D01*
X132850925Y-83142007D01*
X132785099Y-83027993D01*
X132692007Y-82934901D01*
X132577993Y-82869075D01*
X132514407Y-82852036D01*
X133146716Y-82219728D01*
X133092550Y-82180375D01*
X132903217Y-82083904D01*
X132701129Y-82018242D01*
X132491246Y-81985000D01*
X132278754Y-81985000D01*
X132068872Y-82018242D01*
X132068869Y-82018242D01*
X131866782Y-82083904D01*
X131677446Y-82180376D01*
X131597385Y-82238544D01*
X131531578Y-82262023D01*
X131463524Y-82246197D01*
X131414830Y-82196091D01*
X131400500Y-82138225D01*
X131400500Y-80268872D01*
X143199500Y-80268872D01*
X143199500Y-80531127D01*
X143226123Y-80733339D01*
X143233730Y-80791116D01*
X143301602Y-81044418D01*
X143301605Y-81044428D01*
X143401953Y-81286690D01*
X143401958Y-81286700D01*
X143533075Y-81513803D01*
X143692718Y-81721851D01*
X143692726Y-81721860D01*
X143878140Y-81907274D01*
X143878148Y-81907281D01*
X144086196Y-82066924D01*
X144313299Y-82198041D01*
X144313309Y-82198046D01*
X144555571Y-82298394D01*
X144555581Y-82298398D01*
X144808884Y-82366270D01*
X145057188Y-82398960D01*
X145068864Y-82400498D01*
X145068880Y-82400500D01*
X145068887Y-82400500D01*
X145331113Y-82400500D01*
X145331120Y-82400500D01*
X145591116Y-82366270D01*
X145844419Y-82298398D01*
X146086697Y-82198043D01*
X146313803Y-82066924D01*
X146521851Y-81907282D01*
X146521855Y-81907277D01*
X146521860Y-81907274D01*
X146707274Y-81721860D01*
X146707277Y-81721855D01*
X146707282Y-81721851D01*
X146866924Y-81513803D01*
X146998043Y-81286697D01*
X147098398Y-81044419D01*
X147166270Y-80791116D01*
X147200500Y-80531120D01*
X147200500Y-80268880D01*
X147200499Y-80268872D01*
X148199500Y-80268872D01*
X148199500Y-80531127D01*
X148226123Y-80733339D01*
X148233730Y-80791116D01*
X148301602Y-81044418D01*
X148301605Y-81044428D01*
X148401953Y-81286690D01*
X148401958Y-81286700D01*
X148533075Y-81513803D01*
X148692718Y-81721851D01*
X148692726Y-81721860D01*
X148878140Y-81907274D01*
X148878148Y-81907281D01*
X149086196Y-82066924D01*
X149313299Y-82198041D01*
X149313309Y-82198046D01*
X149555571Y-82298394D01*
X149555581Y-82298398D01*
X149808884Y-82366270D01*
X150057188Y-82398960D01*
X150068864Y-82400498D01*
X150068880Y-82400500D01*
X150068887Y-82400500D01*
X150331113Y-82400500D01*
X150331120Y-82400500D01*
X150591116Y-82366270D01*
X150844419Y-82298398D01*
X151086697Y-82198043D01*
X151313803Y-82066924D01*
X151521851Y-81907282D01*
X151521855Y-81907277D01*
X151521860Y-81907274D01*
X151707274Y-81721860D01*
X151707277Y-81721855D01*
X151707282Y-81721851D01*
X151866924Y-81513803D01*
X151998043Y-81286697D01*
X152098398Y-81044419D01*
X152166270Y-80791116D01*
X152200500Y-80531120D01*
X152200500Y-80268880D01*
X152166270Y-80008884D01*
X152098398Y-79755581D01*
X152046049Y-79629199D01*
X151998046Y-79513309D01*
X151998041Y-79513299D01*
X151866924Y-79286196D01*
X151707281Y-79078148D01*
X151707274Y-79078140D01*
X151521860Y-78892726D01*
X151521851Y-78892718D01*
X151468963Y-78852135D01*
X153199500Y-78852135D01*
X153199500Y-81947870D01*
X153199501Y-81947876D01*
X153205908Y-82007483D01*
X153256202Y-82142328D01*
X153256206Y-82142335D01*
X153342452Y-82257544D01*
X153342455Y-82257547D01*
X153457664Y-82343793D01*
X153457671Y-82343797D01*
X153592517Y-82394091D01*
X153592516Y-82394091D01*
X153599444Y-82394835D01*
X153652127Y-82400500D01*
X156747872Y-82400499D01*
X156807483Y-82394091D01*
X156942331Y-82343796D01*
X157057546Y-82257546D01*
X157143796Y-82142331D01*
X157194091Y-82007483D01*
X157200500Y-81947873D01*
X157200499Y-78852128D01*
X157194091Y-78792517D01*
X157143796Y-78657669D01*
X157143795Y-78657668D01*
X157143793Y-78657664D01*
X157057547Y-78542455D01*
X157057544Y-78542452D01*
X156942335Y-78456206D01*
X156942328Y-78456202D01*
X156807482Y-78405908D01*
X156807483Y-78405908D01*
X156747883Y-78399501D01*
X156747881Y-78399500D01*
X156747873Y-78399500D01*
X156747864Y-78399500D01*
X153652129Y-78399500D01*
X153652123Y-78399501D01*
X153592516Y-78405908D01*
X153457671Y-78456202D01*
X153457664Y-78456206D01*
X153342455Y-78542452D01*
X153342452Y-78542455D01*
X153256206Y-78657664D01*
X153256202Y-78657671D01*
X153205908Y-78792517D01*
X153199501Y-78852116D01*
X153199501Y-78852123D01*
X153199500Y-78852135D01*
X151468963Y-78852135D01*
X151313803Y-78733075D01*
X151086700Y-78601958D01*
X151086690Y-78601953D01*
X150844428Y-78501605D01*
X150844421Y-78501603D01*
X150844419Y-78501602D01*
X150591116Y-78433730D01*
X150533339Y-78426123D01*
X150331127Y-78399500D01*
X150331120Y-78399500D01*
X150068880Y-78399500D01*
X150068872Y-78399500D01*
X149837772Y-78429926D01*
X149808884Y-78433730D01*
X149555581Y-78501602D01*
X149555571Y-78501605D01*
X149313309Y-78601953D01*
X149313299Y-78601958D01*
X149086196Y-78733075D01*
X148878148Y-78892718D01*
X148692718Y-79078148D01*
X148533075Y-79286196D01*
X148401958Y-79513299D01*
X148401953Y-79513309D01*
X148301605Y-79755571D01*
X148301602Y-79755581D01*
X148258371Y-79916924D01*
X148233730Y-80008885D01*
X148199500Y-80268872D01*
X147200499Y-80268872D01*
X147166270Y-80008884D01*
X147098398Y-79755581D01*
X147046049Y-79629199D01*
X146998046Y-79513309D01*
X146998041Y-79513299D01*
X146866924Y-79286196D01*
X146707281Y-79078148D01*
X146707274Y-79078140D01*
X146521860Y-78892726D01*
X146521851Y-78892718D01*
X146313803Y-78733075D01*
X146086700Y-78601958D01*
X146086690Y-78601953D01*
X145844428Y-78501605D01*
X145844421Y-78501603D01*
X145844419Y-78501602D01*
X145591116Y-78433730D01*
X145533339Y-78426123D01*
X145331127Y-78399500D01*
X145331120Y-78399500D01*
X145068880Y-78399500D01*
X145068872Y-78399500D01*
X144837772Y-78429926D01*
X144808884Y-78433730D01*
X144555581Y-78501602D01*
X144555571Y-78501605D01*
X144313309Y-78601953D01*
X144313299Y-78601958D01*
X144086196Y-78733075D01*
X143878148Y-78892718D01*
X143692718Y-79078148D01*
X143533075Y-79286196D01*
X143401958Y-79513299D01*
X143401953Y-79513309D01*
X143301605Y-79755571D01*
X143301602Y-79755581D01*
X143258371Y-79916924D01*
X143233730Y-80008885D01*
X143199500Y-80268872D01*
X131400500Y-80268872D01*
X131400500Y-79910780D01*
X131420185Y-79843741D01*
X131472989Y-79797986D01*
X131542147Y-79788042D01*
X131599985Y-79812404D01*
X131640824Y-79843741D01*
X131736196Y-79916924D01*
X131963299Y-80048041D01*
X131963309Y-80048046D01*
X132119024Y-80112545D01*
X132205581Y-80148398D01*
X132458884Y-80216270D01*
X132718880Y-80250500D01*
X132718887Y-80250500D01*
X132981113Y-80250500D01*
X132981120Y-80250500D01*
X133241116Y-80216270D01*
X133494419Y-80148398D01*
X133736697Y-80048043D01*
X133963803Y-79916924D01*
X134171851Y-79757282D01*
X134171855Y-79757277D01*
X134171860Y-79757274D01*
X134357274Y-79571860D01*
X134357277Y-79571855D01*
X134357282Y-79571851D01*
X134516924Y-79363803D01*
X134648043Y-79136697D01*
X134665530Y-79094481D01*
X134743800Y-78905519D01*
X134743802Y-78905513D01*
X136299500Y-78905513D01*
X136299500Y-79094486D01*
X136329059Y-79281118D01*
X136387454Y-79460836D01*
X136444024Y-79571860D01*
X136473240Y-79629199D01*
X136584310Y-79782073D01*
X136717927Y-79915690D01*
X136870801Y-80026760D01*
X136950347Y-80067290D01*
X137039163Y-80112545D01*
X137039165Y-80112545D01*
X137039168Y-80112547D01*
X137135497Y-80143846D01*
X137218881Y-80170940D01*
X137405514Y-80200500D01*
X137405519Y-80200500D01*
X137594486Y-80200500D01*
X137781118Y-80170940D01*
X137855136Y-80146890D01*
X137863896Y-80144043D01*
X137960832Y-80112547D01*
X138129199Y-80026760D01*
X138282073Y-79915690D01*
X138415690Y-79782073D01*
X138526760Y-79629199D01*
X138612547Y-79460832D01*
X138670940Y-79281118D01*
X138676710Y-79244687D01*
X138700500Y-79094486D01*
X138700500Y-78905513D01*
X138670940Y-78718881D01*
X138632949Y-78601958D01*
X138612547Y-78539168D01*
X138612545Y-78539165D01*
X138612545Y-78539163D01*
X138532021Y-78381127D01*
X138526760Y-78370801D01*
X138415690Y-78217927D01*
X138282073Y-78084310D01*
X138129199Y-77973240D01*
X137960836Y-77887454D01*
X137781118Y-77829059D01*
X137594486Y-77799500D01*
X137594481Y-77799500D01*
X137405519Y-77799500D01*
X137405514Y-77799500D01*
X137218881Y-77829059D01*
X137039163Y-77887454D01*
X136870800Y-77973240D01*
X136783579Y-78036610D01*
X136717927Y-78084310D01*
X136717925Y-78084312D01*
X136717924Y-78084312D01*
X136584312Y-78217924D01*
X136584312Y-78217925D01*
X136584310Y-78217927D01*
X136536610Y-78283579D01*
X136473240Y-78370800D01*
X136387454Y-78539163D01*
X136329059Y-78718881D01*
X136299500Y-78905513D01*
X134743802Y-78905513D01*
X134748398Y-78894419D01*
X134816270Y-78641116D01*
X134850500Y-78381120D01*
X134850500Y-78118880D01*
X134816270Y-77858884D01*
X134748398Y-77605581D01*
X134650204Y-77368520D01*
X134648046Y-77363309D01*
X134648041Y-77363299D01*
X134516927Y-77136201D01*
X134516924Y-77136197D01*
X134412404Y-76999985D01*
X134387211Y-76934818D01*
X134401249Y-76866373D01*
X134450063Y-76816383D01*
X134510781Y-76800500D01*
X160089219Y-76800500D01*
X160156258Y-76820185D01*
G37*
G04 #@! TD.AperFunction*
M02*
