G04 #@! TF.GenerationSoftware,KiCad,Pcbnew,9.0.1*
G04 #@! TF.CreationDate,2025-08-17T13:01:09+05:00*
G04 #@! TF.ProjectId,servo_tester,73657276-6f5f-4746-9573-7465722e6b69,rev?*
G04 #@! TF.SameCoordinates,Original*
G04 #@! TF.FileFunction,Copper,L2,Bot*
G04 #@! TF.FilePolarity,Positive*
%FSLAX46Y46*%
G04 Gerber Fmt 4.6, Leading zero omitted, Abs format (unit mm)*
G04 Created by KiCad (PCBNEW 9.0.1) date 2025-08-17 13:01:09*
%MOMM*%
%LPD*%
G01*
G04 APERTURE LIST*
G04 Aperture macros list*
%AMRoundRect*
0 Rectangle with rounded corners*
0 $1 Rounding radius*
0 $2 $3 $4 $5 $6 $7 $8 $9 X,Y pos of 4 corners*
0 Add a 4 corners polygon primitive as box body*
4,1,4,$2,$3,$4,$5,$6,$7,$8,$9,$2,$3,0*
0 Add four circle primitives for the rounded corners*
1,1,$1+$1,$2,$3*
1,1,$1+$1,$4,$5*
1,1,$1+$1,$6,$7*
1,1,$1+$1,$8,$9*
0 Add four rect primitives between the rounded corners*
20,1,$1+$1,$2,$3,$4,$5,0*
20,1,$1+$1,$4,$5,$6,$7,0*
20,1,$1+$1,$6,$7,$8,$9,0*
20,1,$1+$1,$8,$9,$2,$3,0*%
G04 Aperture macros list end*
G04 #@! TA.AperFunction,ComponentPad*
%ADD10C,1.400000*%
G04 #@! TD*
G04 #@! TA.AperFunction,ComponentPad*
%ADD11O,1.400000X1.400000*%
G04 #@! TD*
G04 #@! TA.AperFunction,ComponentPad*
%ADD12R,1.700000X1.700000*%
G04 #@! TD*
G04 #@! TA.AperFunction,ComponentPad*
%ADD13C,1.700000*%
G04 #@! TD*
G04 #@! TA.AperFunction,ComponentPad*
%ADD14R,1.600000X1.600000*%
G04 #@! TD*
G04 #@! TA.AperFunction,ComponentPad*
%ADD15O,1.600000X1.600000*%
G04 #@! TD*
G04 #@! TA.AperFunction,ComponentPad*
%ADD16RoundRect,0.250000X-0.550000X-0.550000X0.550000X-0.550000X0.550000X0.550000X-0.550000X0.550000X0*%
G04 #@! TD*
G04 #@! TA.AperFunction,ComponentPad*
%ADD17C,1.600000*%
G04 #@! TD*
G04 #@! TA.AperFunction,ComponentPad*
%ADD18R,1.800000X1.800000*%
G04 #@! TD*
G04 #@! TA.AperFunction,ComponentPad*
%ADD19C,1.800000*%
G04 #@! TD*
G04 #@! TA.AperFunction,ComponentPad*
%ADD20R,3.000000X3.000000*%
G04 #@! TD*
G04 #@! TA.AperFunction,ComponentPad*
%ADD21C,3.000000*%
G04 #@! TD*
G04 #@! TA.AperFunction,Conductor*
%ADD22C,0.500000*%
G04 #@! TD*
G04 APERTURE END LIST*
D10*
X140980000Y-102510000D03*
D11*
X148600000Y-102510000D03*
D12*
X162115000Y-93760000D03*
D13*
X162115000Y-96300000D03*
X162115000Y-98840000D03*
D14*
X137200000Y-94900000D03*
D15*
X137200000Y-102520000D03*
D16*
X140580000Y-90480000D03*
D17*
X140580000Y-93020000D03*
X140580000Y-95560000D03*
X140580000Y-98100000D03*
X148200000Y-98100000D03*
X148200000Y-95560000D03*
X148200000Y-93020000D03*
X148200000Y-90480000D03*
D12*
X132385000Y-85875000D03*
D13*
X132385000Y-83335000D03*
D10*
X137500000Y-79000000D03*
D11*
X137500000Y-86620000D03*
D18*
X133250000Y-93170000D03*
D19*
X133250000Y-90630000D03*
D17*
X154000000Y-102510000D03*
X154000000Y-97510000D03*
D10*
X151690000Y-90010000D03*
D11*
X159310000Y-90010000D03*
D20*
X155200000Y-80400000D03*
D21*
X150200000Y-80400000D03*
X145200000Y-80400000D03*
D22*
X155200000Y-80400000D02*
X155200000Y-86500000D01*
X155200000Y-86500000D02*
X151690000Y-90010000D01*
X150200000Y-80400000D02*
X153100000Y-77500000D01*
X144400000Y-99090000D02*
X140980000Y-102510000D01*
X146380000Y-93020000D02*
X144400000Y-95000000D01*
X158750000Y-86950000D02*
X158750000Y-79650000D01*
X144400000Y-95000000D02*
X144400000Y-99090000D01*
X152680000Y-93020000D02*
X158750000Y-86950000D01*
X145200000Y-80400000D02*
X150200000Y-80400000D01*
X153100000Y-77500000D02*
X156600000Y-77500000D01*
X148200000Y-93020000D02*
X146380000Y-93020000D01*
X148200000Y-93020000D02*
X152680000Y-93020000D01*
X158750000Y-79650000D02*
X156600000Y-77500000D01*
X137210000Y-102510000D02*
X137200000Y-102520000D01*
X140980000Y-102510000D02*
X137210000Y-102510000D01*
X151600000Y-97300000D02*
X151600000Y-101610000D01*
X152500000Y-102510000D02*
X154000000Y-102510000D01*
X149860000Y-95560000D02*
X151600000Y-97300000D01*
X139080000Y-93020000D02*
X137200000Y-94900000D01*
X140580000Y-93020000D02*
X139080000Y-93020000D01*
X148600000Y-102510000D02*
X152500000Y-102510000D01*
X148200000Y-95560000D02*
X149860000Y-95560000D01*
X151600000Y-101610000D02*
X152500000Y-102510000D01*
X137500000Y-89200000D02*
X136070000Y-90630000D01*
X137500000Y-86620000D02*
X137500000Y-89200000D01*
X136070000Y-90630000D02*
X133250000Y-90630000D01*
X149490000Y-89190000D02*
X148200000Y-87900000D01*
X162115000Y-96300000D02*
X159310000Y-93495000D01*
X159310000Y-93495000D02*
X159310000Y-90010000D01*
X137500000Y-79000000D02*
X136700000Y-79800000D01*
X148200000Y-87900000D02*
X147200000Y-87900000D01*
X136700000Y-84200000D02*
X137700000Y-84200000D01*
X136700000Y-83200000D02*
X137700000Y-84200000D01*
X142900000Y-92200000D02*
X142900000Y-96900000D01*
X141700000Y-98100000D02*
X140580000Y-98100000D01*
X137700000Y-84200000D02*
X144500000Y-84200000D01*
X135025000Y-85875000D02*
X136700000Y-84200000D01*
X148200000Y-90480000D02*
X149490000Y-89190000D01*
X136700000Y-79800000D02*
X136700000Y-83200000D01*
X142900000Y-96900000D02*
X141700000Y-98100000D01*
X147200000Y-87900000D02*
X142900000Y-92200000D01*
X144500000Y-84200000D02*
X148200000Y-87900000D01*
X132385000Y-85875000D02*
X135025000Y-85875000D01*
M02*
