G04 #@! TF.GenerationSoftware,KiCad,Pcbnew,9.0.1*
G04 #@! TF.CreationDate,2025-08-22T15:47:16+05:00*
G04 #@! TF.ProjectId,dc_boost_converter,64635f62-6f6f-4737-945f-636f6e766572,rev?*
G04 #@! TF.SameCoordinates,Original*
G04 #@! TF.FileFunction,Copper,L1,Top*
G04 #@! TF.FilePolarity,Positive*
%FSLAX46Y46*%
G04 Gerber Fmt 4.6, Leading zero omitted, Abs format (unit mm)*
G04 Created by KiCad (PCBNEW 9.0.1) date 2025-08-22 15:47:16*
%MOMM*%
%LPD*%
G01*
G04 APERTURE LIST*
G04 Aperture macros list*
%AMRoundRect*
0 Rectangle with rounded corners*
0 $1 Rounding radius*
0 $2 $3 $4 $5 $6 $7 $8 $9 X,Y pos of 4 corners*
0 Add a 4 corners polygon primitive as box body*
4,1,4,$2,$3,$4,$5,$6,$7,$8,$9,$2,$3,0*
0 Add four circle primitives for the rounded corners*
1,1,$1+$1,$2,$3*
1,1,$1+$1,$4,$5*
1,1,$1+$1,$6,$7*
1,1,$1+$1,$8,$9*
0 Add four rect primitives between the rounded corners*
20,1,$1+$1,$2,$3,$4,$5,0*
20,1,$1+$1,$4,$5,$6,$7,0*
20,1,$1+$1,$6,$7,$8,$9,0*
20,1,$1+$1,$8,$9,$2,$3,0*%
G04 Aperture macros list end*
G04 #@! TA.AperFunction,ComponentPad*
%ADD10R,1.700000X1.700000*%
G04 #@! TD*
G04 #@! TA.AperFunction,SMDPad,CuDef*
%ADD11R,2.900000X5.400000*%
G04 #@! TD*
G04 #@! TA.AperFunction,SMDPad,CuDef*
%ADD12R,1.050000X3.210000*%
G04 #@! TD*
G04 #@! TA.AperFunction,SMDPad,CuDef*
%ADD13R,10.530000X8.460000*%
G04 #@! TD*
G04 #@! TA.AperFunction,SMDPad,CuDef*
%ADD14RoundRect,0.250000X0.312500X0.625000X-0.312500X0.625000X-0.312500X-0.625000X0.312500X-0.625000X0*%
G04 #@! TD*
G04 #@! TA.AperFunction,ComponentPad*
%ADD15C,1.440000*%
G04 #@! TD*
G04 #@! TA.AperFunction,SMDPad,CuDef*
%ADD16RoundRect,0.250000X-0.250000X-0.475000X0.250000X-0.475000X0.250000X0.475000X-0.250000X0.475000X0*%
G04 #@! TD*
G04 #@! TA.AperFunction,SMDPad,CuDef*
%ADD17RoundRect,0.250000X0.250000X0.475000X-0.250000X0.475000X-0.250000X-0.475000X0.250000X-0.475000X0*%
G04 #@! TD*
G04 #@! TA.AperFunction,SMDPad,CuDef*
%ADD18RoundRect,0.250000X1.000000X0.650000X-1.000000X0.650000X-1.000000X-0.650000X1.000000X-0.650000X0*%
G04 #@! TD*
G04 #@! TA.AperFunction,ComponentPad*
%ADD19R,1.600000X1.600000*%
G04 #@! TD*
G04 #@! TA.AperFunction,ComponentPad*
%ADD20C,1.600000*%
G04 #@! TD*
G04 #@! TA.AperFunction,ViaPad*
%ADD21C,0.900000*%
G04 #@! TD*
G04 #@! TA.AperFunction,Conductor*
%ADD22C,1.000000*%
G04 #@! TD*
G04 APERTURE END LIST*
D10*
X181100000Y-75200000D03*
D11*
X159750000Y-81000000D03*
X169650000Y-81000000D03*
D12*
X146700000Y-88718500D03*
X148400000Y-88718500D03*
X150100000Y-88718500D03*
X151800000Y-88718500D03*
X153500000Y-88718500D03*
D13*
X150100000Y-79088500D03*
D14*
X157262500Y-92600000D03*
X154337500Y-92600000D03*
D10*
X137100000Y-94100000D03*
D15*
X166380000Y-92500000D03*
X163840000Y-92500000D03*
X161300000Y-92500000D03*
D16*
X173550000Y-77900000D03*
X175450000Y-77900000D03*
D17*
X142650000Y-87200000D03*
X140750000Y-87200000D03*
D18*
X143900000Y-90400000D03*
X139900000Y-90400000D03*
D19*
X141682380Y-82100000D03*
D20*
X139182380Y-82100000D03*
D19*
X174517621Y-83500000D03*
D20*
X177017621Y-83500000D03*
D10*
X137100000Y-75200000D03*
X181100000Y-94200000D03*
D21*
X153900000Y-84900000D03*
X144600000Y-87600000D03*
X161300000Y-92600000D03*
X148200000Y-93600000D03*
X150600000Y-78900000D03*
X146100000Y-78000000D03*
X154200000Y-78900000D03*
X152400000Y-83400000D03*
X151500000Y-78900000D03*
X149700000Y-77100000D03*
X151500000Y-81600000D03*
X155100000Y-83400000D03*
X147000000Y-82500000D03*
X148800000Y-78900000D03*
X153300000Y-82500000D03*
X148800000Y-83400000D03*
X153300000Y-83400000D03*
X154200000Y-78000000D03*
X150600000Y-79800000D03*
X146100000Y-77100000D03*
X149700000Y-82500000D03*
X152400000Y-79800000D03*
X154200000Y-76200000D03*
X142000000Y-93100000D03*
X155100000Y-79800000D03*
X149700000Y-76200000D03*
X145200000Y-75300000D03*
X147000000Y-78000000D03*
X149700000Y-75300000D03*
X146100000Y-75300000D03*
X146100000Y-82500000D03*
X154200000Y-82500000D03*
X147000000Y-77100000D03*
X148800000Y-81600000D03*
X151500000Y-77100000D03*
X153300000Y-75300000D03*
X155100000Y-78900000D03*
X154200000Y-77100000D03*
X150600000Y-80700000D03*
X146100000Y-79800000D03*
X151500000Y-78000000D03*
X153300000Y-76200000D03*
X153300000Y-78900000D03*
X155100000Y-80700000D03*
X148800000Y-82500000D03*
X145200000Y-77100000D03*
X145200000Y-81600000D03*
X145200000Y-80700000D03*
X150600000Y-77100000D03*
X150600000Y-75300000D03*
X147000000Y-76200000D03*
X154200000Y-83400000D03*
X147000000Y-83400000D03*
X151500000Y-80700000D03*
X147000000Y-81600000D03*
X145200000Y-78000000D03*
X154200000Y-81600000D03*
X147900000Y-83400000D03*
X155100000Y-75300000D03*
X154200000Y-80700000D03*
X149700000Y-78000000D03*
X149700000Y-83400000D03*
X147000000Y-79800000D03*
X153300000Y-77100000D03*
X147000000Y-80700000D03*
X150600000Y-78000000D03*
X153300000Y-81600000D03*
X152400000Y-82500000D03*
X153300000Y-79800000D03*
X150600000Y-81600000D03*
X147900000Y-78000000D03*
X147900000Y-80700000D03*
X153300000Y-78000000D03*
X147900000Y-77100000D03*
X155100000Y-82500000D03*
X155100000Y-76200000D03*
X151500000Y-75300000D03*
X146100000Y-78900000D03*
X150600000Y-82500000D03*
X146100000Y-76200000D03*
X147900000Y-76200000D03*
X146100000Y-83400000D03*
X148800000Y-78000000D03*
X152400000Y-78900000D03*
X154200000Y-79800000D03*
X147900000Y-78900000D03*
X149700000Y-78900000D03*
X145200000Y-82500000D03*
X151500000Y-79800000D03*
X146100000Y-81600000D03*
X152400000Y-75300000D03*
X150600000Y-83400000D03*
X148800000Y-77100000D03*
X151500000Y-83400000D03*
X155100000Y-78000000D03*
X148800000Y-76200000D03*
X147000000Y-78900000D03*
X147900000Y-79800000D03*
X152400000Y-76200000D03*
X152400000Y-80700000D03*
X149700000Y-80700000D03*
X147000000Y-75300000D03*
X155100000Y-77100000D03*
X152400000Y-77100000D03*
X148800000Y-75300000D03*
X151500000Y-76200000D03*
X152400000Y-81600000D03*
X145200000Y-79800000D03*
X145200000Y-76200000D03*
X150600000Y-76200000D03*
X151500000Y-82500000D03*
X149700000Y-79800000D03*
X147900000Y-82500000D03*
X146100000Y-80700000D03*
X147900000Y-75300000D03*
X147900000Y-81600000D03*
X145200000Y-78900000D03*
X145200000Y-83400000D03*
X152400000Y-78000000D03*
X155100000Y-81600000D03*
X154200000Y-75300000D03*
X148800000Y-80700000D03*
X148800000Y-79800000D03*
X153300000Y-80700000D03*
X149700000Y-81600000D03*
D22*
X146700000Y-90550500D02*
X147849500Y-91700000D01*
X147849500Y-91700000D02*
X153437500Y-91700000D01*
X146700000Y-88718500D02*
X146700000Y-90550500D01*
X153437500Y-91700000D02*
X154337500Y-92600000D01*
X142650000Y-83067620D02*
X142650000Y-87200000D01*
X141700000Y-77200000D02*
X141682380Y-77217620D01*
X159750000Y-81000000D02*
X155850000Y-84900000D01*
X151800000Y-85600000D02*
X151800000Y-88718500D01*
X152500000Y-84900000D02*
X151800000Y-85600000D01*
X144100000Y-87200000D02*
X144500000Y-87600000D01*
X142650000Y-87200000D02*
X144100000Y-87200000D01*
X139700000Y-75200000D02*
X141700000Y-77200000D01*
X141682380Y-77217620D02*
X141682380Y-82100000D01*
X141682380Y-82100000D02*
X142650000Y-83067620D01*
X153900000Y-84900000D02*
X152500000Y-84900000D01*
X155850000Y-84900000D02*
X153900000Y-84900000D01*
X137100000Y-75200000D02*
X139700000Y-75200000D01*
X145700000Y-93600000D02*
X148200000Y-93600000D01*
X164100000Y-94400000D02*
X163840000Y-94140000D01*
X174517621Y-83500000D02*
X174517621Y-87482379D01*
X161300000Y-92500000D02*
X163840000Y-92500000D01*
X143900000Y-91800000D02*
X145700000Y-93600000D01*
X173550000Y-77900000D02*
X173550000Y-82532379D01*
X173550000Y-82532379D02*
X174517621Y-83500000D01*
X175300000Y-75200000D02*
X173550000Y-76950000D01*
X181100000Y-75200000D02*
X175300000Y-75200000D01*
X173550000Y-76950000D02*
X173550000Y-77900000D01*
X163840000Y-94140000D02*
X163840000Y-92500000D01*
X167600000Y-94400000D02*
X164100000Y-94400000D01*
X174517621Y-87482379D02*
X167600000Y-94400000D01*
X143900000Y-90400000D02*
X143900000Y-91800000D01*
X139900000Y-91000000D02*
X141900000Y-93000000D01*
X164850000Y-76200000D02*
X154200000Y-76200000D01*
X139900000Y-90400000D02*
X139900000Y-91000000D01*
X150100000Y-88718500D02*
X150100000Y-79088500D01*
X169650000Y-81000000D02*
X164850000Y-76200000D01*
X157262500Y-89962500D02*
X157262500Y-92600000D01*
X166380000Y-92500000D02*
X166380000Y-89580000D01*
X153500000Y-88718500D02*
X156018500Y-88718500D01*
X166380000Y-89580000D02*
X165518500Y-88718500D01*
X165518500Y-88718500D02*
X156018500Y-88718500D01*
X156018500Y-88718500D02*
X157262500Y-89962500D01*
G04 #@! TA.AperFunction,Conductor*
G36*
X179717823Y-73901749D02*
G01*
X179722154Y-73900798D01*
X179751044Y-73911504D01*
X179780607Y-73920185D01*
X179783510Y-73923535D01*
X179787669Y-73925077D01*
X179806187Y-73949706D01*
X179826362Y-73972989D01*
X179826993Y-73977377D01*
X179829658Y-73980922D01*
X179831920Y-74011646D01*
X179836306Y-74042147D01*
X179834489Y-74046532D01*
X179834789Y-74050603D01*
X179822525Y-74083698D01*
X179818227Y-74091607D01*
X179806204Y-74107669D01*
X179798984Y-74127026D01*
X179794816Y-74134698D01*
X179776080Y-74153512D01*
X179760171Y-74174766D01*
X179751811Y-74177884D01*
X179745515Y-74184207D01*
X179711443Y-74192941D01*
X179694707Y-74199184D01*
X179690587Y-74198287D01*
X179685859Y-74199500D01*
X175201455Y-74199500D01*
X175104812Y-74218724D01*
X175008167Y-74237947D01*
X175008161Y-74237949D01*
X174954834Y-74260037D01*
X174954834Y-74260038D01*
X174909315Y-74278892D01*
X174826089Y-74313366D01*
X174749698Y-74364409D01*
X174662216Y-74422861D01*
X174662213Y-74422864D01*
X173304020Y-75781059D01*
X172912220Y-76172859D01*
X172912218Y-76172861D01*
X172864894Y-76220185D01*
X172772859Y-76312219D01*
X172663371Y-76476079D01*
X172663366Y-76476088D01*
X172616303Y-76589711D01*
X172587949Y-76658162D01*
X172587949Y-76658164D01*
X172571634Y-76740186D01*
X172549500Y-76851456D01*
X172549500Y-82630920D01*
X172553718Y-82652124D01*
X172553718Y-82652128D01*
X172578315Y-82775784D01*
X172587947Y-82824208D01*
X172587949Y-82824216D01*
X172663364Y-83006286D01*
X172663371Y-83006299D01*
X172772859Y-83170159D01*
X172772860Y-83170160D01*
X172772861Y-83170161D01*
X172912218Y-83309518D01*
X172912219Y-83309518D01*
X172919286Y-83316585D01*
X172919285Y-83316585D01*
X172919289Y-83316588D01*
X173180802Y-83578101D01*
X173214287Y-83639424D01*
X173217121Y-83665782D01*
X173217121Y-84347870D01*
X173217122Y-84347876D01*
X173223529Y-84407483D01*
X173273823Y-84542328D01*
X173273827Y-84542335D01*
X173342979Y-84634709D01*
X173360075Y-84657546D01*
X173467432Y-84737914D01*
X173509303Y-84793847D01*
X173517121Y-84837180D01*
X173517121Y-87016595D01*
X173497436Y-87083634D01*
X173480802Y-87104276D01*
X167797237Y-92787840D01*
X167735914Y-92821325D01*
X167666222Y-92816341D01*
X167610289Y-92774469D01*
X167585872Y-92709005D01*
X167587082Y-92680768D01*
X167600500Y-92596055D01*
X167600500Y-92403945D01*
X167570447Y-92214199D01*
X167540424Y-92121797D01*
X167511083Y-92031493D01*
X167499900Y-92009545D01*
X167423865Y-91860319D01*
X167404181Y-91833227D01*
X167380702Y-91767422D01*
X167380500Y-91760342D01*
X167380500Y-89481457D01*
X167375361Y-89455628D01*
X167361275Y-89384812D01*
X167342051Y-89288164D01*
X167302390Y-89192414D01*
X167294123Y-89172456D01*
X167266635Y-89106092D01*
X167266628Y-89106079D01*
X167157139Y-88942218D01*
X167157136Y-88942214D01*
X167014686Y-88799764D01*
X167014655Y-88799735D01*
X166299979Y-88085059D01*
X166299959Y-88085037D01*
X166156285Y-87941363D01*
X166156281Y-87941360D01*
X165992420Y-87831871D01*
X165992407Y-87831864D01*
X165861650Y-87777704D01*
X165861649Y-87777703D01*
X165853224Y-87774214D01*
X165810336Y-87756449D01*
X165652272Y-87725008D01*
X165636282Y-87721827D01*
X165617042Y-87718000D01*
X165617041Y-87718000D01*
X156117041Y-87718000D01*
X154649499Y-87718000D01*
X154582460Y-87698315D01*
X154536705Y-87645511D01*
X154525499Y-87594000D01*
X154525499Y-87065629D01*
X154525498Y-87065623D01*
X154519091Y-87006016D01*
X154468797Y-86871171D01*
X154468793Y-86871164D01*
X154382547Y-86755955D01*
X154382544Y-86755952D01*
X154267335Y-86669706D01*
X154267328Y-86669702D01*
X154132482Y-86619408D01*
X154132483Y-86619408D01*
X154072883Y-86613001D01*
X154072881Y-86613000D01*
X154072873Y-86613000D01*
X154072865Y-86613000D01*
X152924500Y-86613000D01*
X152857461Y-86593315D01*
X152811706Y-86540511D01*
X152800500Y-86489000D01*
X152800500Y-86065783D01*
X152809146Y-86036337D01*
X152815669Y-86006355D01*
X152819422Y-86001341D01*
X152820185Y-85998744D01*
X152836820Y-85978101D01*
X152878104Y-85936818D01*
X152939427Y-85903333D01*
X152965784Y-85900500D01*
X155948542Y-85900500D01*
X155979566Y-85894328D01*
X156045188Y-85881275D01*
X156141836Y-85862051D01*
X156195165Y-85839961D01*
X156323914Y-85786632D01*
X156487782Y-85677139D01*
X156627139Y-85537782D01*
X156627140Y-85537779D01*
X156634206Y-85530714D01*
X156634209Y-85530710D01*
X157974703Y-84190215D01*
X158036024Y-84156732D01*
X158105715Y-84161716D01*
X158192517Y-84194091D01*
X158192516Y-84194091D01*
X158199444Y-84194835D01*
X158252127Y-84200500D01*
X161247872Y-84200499D01*
X161307483Y-84194091D01*
X161442331Y-84143796D01*
X161557546Y-84057546D01*
X161643796Y-83942331D01*
X161694091Y-83807483D01*
X161700500Y-83747873D01*
X161700499Y-78252128D01*
X161694091Y-78192517D01*
X161678233Y-78150000D01*
X161643797Y-78057671D01*
X161643793Y-78057664D01*
X161557547Y-77942455D01*
X161557544Y-77942452D01*
X161442335Y-77856206D01*
X161442328Y-77856202D01*
X161307482Y-77805908D01*
X161307483Y-77805908D01*
X161247883Y-77799501D01*
X161247881Y-77799500D01*
X161247873Y-77799500D01*
X161247864Y-77799500D01*
X158252129Y-77799500D01*
X158252123Y-77799501D01*
X158192516Y-77805908D01*
X158057671Y-77856202D01*
X158057664Y-77856206D01*
X157942455Y-77942452D01*
X157942452Y-77942455D01*
X157856206Y-78057664D01*
X157856202Y-78057671D01*
X157805908Y-78192517D01*
X157799501Y-78252116D01*
X157799501Y-78252123D01*
X157799500Y-78252135D01*
X157799500Y-81484217D01*
X157779815Y-81551256D01*
X157763181Y-81571898D01*
X156203294Y-83131784D01*
X156174505Y-83147503D01*
X156146280Y-83164251D01*
X156143985Y-83164169D01*
X156141971Y-83165269D01*
X156109248Y-83162928D01*
X156076455Y-83161758D01*
X156074569Y-83160448D01*
X156072279Y-83160285D01*
X156046014Y-83140623D01*
X156019062Y-83121910D01*
X156017499Y-83119276D01*
X156016346Y-83118413D01*
X156001054Y-83091561D01*
X155962071Y-82997449D01*
X155954603Y-82927985D01*
X155962068Y-82902557D01*
X156013973Y-82777251D01*
X156050500Y-82593616D01*
X156050500Y-82406384D01*
X156013973Y-82222749D01*
X155962071Y-82097449D01*
X155954603Y-82027985D01*
X155962068Y-82002557D01*
X156013973Y-81877251D01*
X156050500Y-81693616D01*
X156050500Y-81506384D01*
X156013973Y-81322749D01*
X155962071Y-81197449D01*
X155954603Y-81127985D01*
X155962068Y-81102557D01*
X156013973Y-80977251D01*
X156050500Y-80793616D01*
X156050500Y-80606384D01*
X156013973Y-80422749D01*
X155962071Y-80297449D01*
X155954603Y-80227985D01*
X155962068Y-80202557D01*
X156013973Y-80077251D01*
X156050500Y-79893616D01*
X156050500Y-79706384D01*
X156013973Y-79522749D01*
X155962071Y-79397449D01*
X155954603Y-79327985D01*
X155962068Y-79302557D01*
X156013973Y-79177251D01*
X156050500Y-78993616D01*
X156050500Y-78806384D01*
X156013973Y-78622749D01*
X155962071Y-78497449D01*
X155954603Y-78427985D01*
X155962068Y-78402557D01*
X156013973Y-78277251D01*
X156050500Y-78093616D01*
X156050500Y-77906384D01*
X156013973Y-77722749D01*
X155962071Y-77597449D01*
X155959266Y-77571363D01*
X155952699Y-77545966D01*
X155955260Y-77534100D01*
X155954603Y-77527985D01*
X155958855Y-77511213D01*
X155960296Y-77506835D01*
X156013973Y-77377251D01*
X156030753Y-77292889D01*
X156033117Y-77285713D01*
X156048832Y-77262925D01*
X156061662Y-77238398D01*
X156068389Y-77234567D01*
X156072784Y-77228195D01*
X156098324Y-77217520D01*
X156122378Y-77203824D01*
X156134471Y-77202414D01*
X156137250Y-77201253D01*
X156140101Y-77201758D01*
X156150895Y-77200500D01*
X164384218Y-77200500D01*
X164451257Y-77220185D01*
X164471899Y-77236819D01*
X167663181Y-80428101D01*
X167696666Y-80489424D01*
X167699500Y-80515782D01*
X167699500Y-83747870D01*
X167699501Y-83747876D01*
X167705908Y-83807483D01*
X167756202Y-83942328D01*
X167756206Y-83942335D01*
X167842452Y-84057544D01*
X167842455Y-84057547D01*
X167957664Y-84143793D01*
X167957671Y-84143797D01*
X168092517Y-84194091D01*
X168092516Y-84194091D01*
X168099444Y-84194835D01*
X168152127Y-84200500D01*
X171147872Y-84200499D01*
X171207483Y-84194091D01*
X171342331Y-84143796D01*
X171457546Y-84057546D01*
X171543796Y-83942331D01*
X171594091Y-83807483D01*
X171600500Y-83747873D01*
X171600499Y-78252128D01*
X171594091Y-78192517D01*
X171578233Y-78150000D01*
X171543797Y-78057671D01*
X171543793Y-78057664D01*
X171457547Y-77942455D01*
X171457544Y-77942452D01*
X171342335Y-77856206D01*
X171342328Y-77856202D01*
X171207482Y-77805908D01*
X171207483Y-77805908D01*
X171147883Y-77799501D01*
X171147881Y-77799500D01*
X171147873Y-77799500D01*
X171147864Y-77799500D01*
X168152129Y-77799500D01*
X168152123Y-77799501D01*
X168092516Y-77805908D01*
X168005716Y-77838283D01*
X167936024Y-77843267D01*
X167874702Y-77809782D01*
X165631479Y-75566559D01*
X165631459Y-75566537D01*
X165487785Y-75422863D01*
X165487781Y-75422860D01*
X165323920Y-75313371D01*
X165323907Y-75313364D01*
X165177878Y-75252878D01*
X165177876Y-75252877D01*
X165169722Y-75249500D01*
X165141836Y-75237949D01*
X165045188Y-75218724D01*
X165041884Y-75218066D01*
X165041881Y-75218066D01*
X164948544Y-75199500D01*
X164948541Y-75199500D01*
X156150895Y-75199500D01*
X156083856Y-75179815D01*
X156038101Y-75127011D01*
X156029278Y-75099691D01*
X156013974Y-75022756D01*
X156013973Y-75022749D01*
X155942322Y-74849769D01*
X155942321Y-74849768D01*
X155942318Y-74849762D01*
X155845329Y-74704608D01*
X155832249Y-74679049D01*
X155808798Y-74616173D01*
X155808793Y-74616164D01*
X155722547Y-74500955D01*
X155722544Y-74500952D01*
X155607335Y-74414706D01*
X155607328Y-74414702D01*
X155472482Y-74364408D01*
X155472483Y-74364408D01*
X155412883Y-74358001D01*
X155412881Y-74358000D01*
X155412873Y-74358000D01*
X155412865Y-74358000D01*
X155248560Y-74358000D01*
X155224368Y-74355617D01*
X155209320Y-74352623D01*
X155193617Y-74349500D01*
X155193616Y-74349500D01*
X155006384Y-74349500D01*
X155006383Y-74349500D01*
X154988054Y-74353145D01*
X154975630Y-74355617D01*
X154951440Y-74358000D01*
X154348560Y-74358000D01*
X154324369Y-74355617D01*
X154311945Y-74353145D01*
X154293617Y-74349500D01*
X154293616Y-74349500D01*
X154106384Y-74349500D01*
X154075631Y-74355617D01*
X154075626Y-74355618D01*
X154051436Y-74358000D01*
X153448560Y-74358000D01*
X153424369Y-74355617D01*
X153411945Y-74353145D01*
X153393617Y-74349500D01*
X153393616Y-74349500D01*
X153206384Y-74349500D01*
X153175631Y-74355617D01*
X153175626Y-74355618D01*
X153151436Y-74358000D01*
X152548564Y-74358000D01*
X152524374Y-74355618D01*
X152524369Y-74355617D01*
X152493616Y-74349500D01*
X152306384Y-74349500D01*
X152289804Y-74352797D01*
X152275624Y-74355618D01*
X152251435Y-74358000D01*
X151648564Y-74358000D01*
X151624374Y-74355618D01*
X151624369Y-74355617D01*
X151593616Y-74349500D01*
X151406384Y-74349500D01*
X151389804Y-74352797D01*
X151375624Y-74355618D01*
X151351435Y-74358000D01*
X150748564Y-74358000D01*
X150724374Y-74355618D01*
X150724369Y-74355617D01*
X150693616Y-74349500D01*
X150506384Y-74349500D01*
X150479295Y-74354887D01*
X150475624Y-74355618D01*
X150451435Y-74358000D01*
X149848565Y-74358000D01*
X149824376Y-74355618D01*
X149810195Y-74352797D01*
X149793616Y-74349500D01*
X149606384Y-74349500D01*
X149579295Y-74354887D01*
X149575624Y-74355618D01*
X149551435Y-74358000D01*
X148948565Y-74358000D01*
X148924376Y-74355618D01*
X148910195Y-74352797D01*
X148893616Y-74349500D01*
X148706384Y-74349500D01*
X148679295Y-74354887D01*
X148675624Y-74355618D01*
X148651435Y-74358000D01*
X148048565Y-74358000D01*
X148024376Y-74355618D01*
X148020704Y-74354887D01*
X147993616Y-74349500D01*
X147806384Y-74349500D01*
X147775622Y-74355618D01*
X147751435Y-74358000D01*
X147148565Y-74358000D01*
X147124376Y-74355618D01*
X147120704Y-74354887D01*
X147093616Y-74349500D01*
X146906384Y-74349500D01*
X146875622Y-74355618D01*
X146851435Y-74358000D01*
X146248565Y-74358000D01*
X146224377Y-74355618D01*
X146193616Y-74349500D01*
X146006384Y-74349500D01*
X146006383Y-74349500D01*
X145975623Y-74355618D01*
X145951435Y-74358000D01*
X145348565Y-74358000D01*
X145324377Y-74355618D01*
X145293616Y-74349500D01*
X145106384Y-74349500D01*
X145106381Y-74349500D01*
X145075621Y-74355618D01*
X145051434Y-74358000D01*
X144787130Y-74358000D01*
X144787123Y-74358001D01*
X144727516Y-74364408D01*
X144592671Y-74414702D01*
X144592664Y-74414706D01*
X144477455Y-74500952D01*
X144477452Y-74500955D01*
X144391206Y-74616164D01*
X144391202Y-74616171D01*
X144340908Y-74751017D01*
X144334501Y-74810616D01*
X144334500Y-74810635D01*
X144334500Y-74881059D01*
X144325061Y-74928511D01*
X144286028Y-75022744D01*
X144286025Y-75022756D01*
X144249500Y-75206379D01*
X144249500Y-75393620D01*
X144286025Y-75577243D01*
X144286027Y-75577251D01*
X144325061Y-75671486D01*
X144326687Y-75679663D01*
X144329477Y-75684004D01*
X144334500Y-75718939D01*
X144334500Y-75781059D01*
X144325061Y-75828511D01*
X144286028Y-75922744D01*
X144286025Y-75922756D01*
X144249500Y-76106379D01*
X144249500Y-76293620D01*
X144286025Y-76477243D01*
X144286027Y-76477251D01*
X144325061Y-76571487D01*
X144326687Y-76579664D01*
X144329477Y-76584005D01*
X144334500Y-76618940D01*
X144334500Y-76681060D01*
X144325061Y-76728512D01*
X144286027Y-76822747D01*
X144286024Y-76822756D01*
X144249500Y-77006379D01*
X144249500Y-77193620D01*
X144286025Y-77377243D01*
X144286027Y-77377251D01*
X144325061Y-77471487D01*
X144326687Y-77479664D01*
X144329477Y-77484005D01*
X144334500Y-77518940D01*
X144334500Y-77581060D01*
X144325061Y-77628512D01*
X144286027Y-77722747D01*
X144286024Y-77722756D01*
X144249500Y-77906379D01*
X144249500Y-78093620D01*
X144286025Y-78277243D01*
X144286027Y-78277251D01*
X144325061Y-78371487D01*
X144326687Y-78379664D01*
X144329477Y-78384005D01*
X144334500Y-78418940D01*
X144334500Y-78481060D01*
X144325061Y-78528512D01*
X144286027Y-78622747D01*
X144286024Y-78622756D01*
X144249500Y-78806379D01*
X144249500Y-78993620D01*
X144286025Y-79177243D01*
X144286027Y-79177251D01*
X144325061Y-79271487D01*
X144326687Y-79279664D01*
X144329477Y-79284005D01*
X144334500Y-79318940D01*
X144334500Y-79381060D01*
X144325061Y-79428512D01*
X144286027Y-79522747D01*
X144286024Y-79522756D01*
X144249500Y-79706379D01*
X144249500Y-79893620D01*
X144286024Y-80077243D01*
X144286026Y-80077247D01*
X144286027Y-80077251D01*
X144325061Y-80171489D01*
X144326687Y-80179663D01*
X144329477Y-80184004D01*
X144334500Y-80218939D01*
X144334500Y-80281059D01*
X144325061Y-80328511D01*
X144286027Y-80422747D01*
X144286024Y-80422756D01*
X144249500Y-80606379D01*
X144249500Y-80793620D01*
X144286024Y-80977243D01*
X144286026Y-80977247D01*
X144286027Y-80977251D01*
X144325061Y-81071489D01*
X144326687Y-81079663D01*
X144329477Y-81084004D01*
X144334500Y-81118939D01*
X144334500Y-81181059D01*
X144325061Y-81228511D01*
X144286027Y-81322747D01*
X144286024Y-81322756D01*
X144249500Y-81506379D01*
X144249500Y-81693620D01*
X144286024Y-81877243D01*
X144286026Y-81877247D01*
X144286027Y-81877251D01*
X144325061Y-81971489D01*
X144326687Y-81979663D01*
X144329477Y-81984004D01*
X144334500Y-82018939D01*
X144334500Y-82081059D01*
X144325061Y-82128511D01*
X144286027Y-82222747D01*
X144286024Y-82222756D01*
X144249500Y-82406379D01*
X144249500Y-82593620D01*
X144286024Y-82777243D01*
X144286026Y-82777247D01*
X144286027Y-82777251D01*
X144325061Y-82871489D01*
X144326687Y-82879663D01*
X144329477Y-82884004D01*
X144334500Y-82918939D01*
X144334500Y-82981059D01*
X144325061Y-83028511D01*
X144286027Y-83122747D01*
X144286024Y-83122756D01*
X144249500Y-83306379D01*
X144249500Y-83493620D01*
X144286025Y-83677243D01*
X144286027Y-83677251D01*
X144357676Y-83850228D01*
X144357681Y-83850237D01*
X144461697Y-84005907D01*
X144461700Y-84005911D01*
X144594088Y-84138299D01*
X144594092Y-84138302D01*
X144749762Y-84242318D01*
X144749768Y-84242321D01*
X144749769Y-84242322D01*
X144922749Y-84313973D01*
X145093162Y-84347870D01*
X145106379Y-84350499D01*
X145106383Y-84350500D01*
X145106384Y-84350500D01*
X145293617Y-84350500D01*
X145293618Y-84350499D01*
X145477251Y-84313973D01*
X145602550Y-84262071D01*
X145672015Y-84254603D01*
X145697442Y-84262068D01*
X145822749Y-84313973D01*
X145993162Y-84347870D01*
X146006379Y-84350499D01*
X146006383Y-84350500D01*
X146006384Y-84350500D01*
X146193617Y-84350500D01*
X146193618Y-84350499D01*
X146377251Y-84313973D01*
X146502550Y-84262071D01*
X146572015Y-84254603D01*
X146597442Y-84262068D01*
X146722749Y-84313973D01*
X146893162Y-84347870D01*
X146906379Y-84350499D01*
X146906383Y-84350500D01*
X146906384Y-84350500D01*
X147093617Y-84350500D01*
X147093618Y-84350499D01*
X147277251Y-84313973D01*
X147402550Y-84262071D01*
X147472015Y-84254603D01*
X147497442Y-84262068D01*
X147622749Y-84313973D01*
X147793162Y-84347870D01*
X147806379Y-84350499D01*
X147806383Y-84350500D01*
X147806384Y-84350500D01*
X147993617Y-84350500D01*
X147993618Y-84350499D01*
X148177251Y-84313973D01*
X148302550Y-84262071D01*
X148372015Y-84254603D01*
X148397442Y-84262068D01*
X148522749Y-84313973D01*
X148693162Y-84347870D01*
X148706379Y-84350499D01*
X148706383Y-84350500D01*
X148706384Y-84350500D01*
X148893617Y-84350500D01*
X148893617Y-84350499D01*
X148951309Y-84339024D01*
X149020899Y-84345251D01*
X149076077Y-84388113D01*
X149099322Y-84454003D01*
X149099500Y-84460641D01*
X149099500Y-86489000D01*
X149079815Y-86556039D01*
X149027011Y-86601794D01*
X148975500Y-86613000D01*
X147827129Y-86613000D01*
X147827123Y-86613001D01*
X147767516Y-86619408D01*
X147632671Y-86669702D01*
X147632666Y-86669705D01*
X147623890Y-86676275D01*
X147558425Y-86700689D01*
X147490152Y-86685835D01*
X147475276Y-86676274D01*
X147467095Y-86670150D01*
X147467086Y-86670145D01*
X147332379Y-86619903D01*
X147332372Y-86619901D01*
X147272844Y-86613500D01*
X146950000Y-86613500D01*
X146950000Y-90823500D01*
X147272828Y-90823500D01*
X147272844Y-90823499D01*
X147332372Y-90817098D01*
X147332376Y-90817097D01*
X147467089Y-90766851D01*
X147475268Y-90760729D01*
X147540732Y-90736309D01*
X147609005Y-90751158D01*
X147623894Y-90760727D01*
X147626265Y-90762502D01*
X147632668Y-90767296D01*
X147632670Y-90767297D01*
X147767517Y-90817591D01*
X147767516Y-90817591D01*
X147774444Y-90818335D01*
X147827127Y-90824000D01*
X148972872Y-90823999D01*
X149032483Y-90817591D01*
X149167331Y-90767296D01*
X149175687Y-90761039D01*
X149241149Y-90736621D01*
X149309422Y-90751470D01*
X149324304Y-90761034D01*
X149332669Y-90767296D01*
X149332672Y-90767297D01*
X149467517Y-90817591D01*
X149467516Y-90817591D01*
X149474444Y-90818335D01*
X149527127Y-90824000D01*
X150672872Y-90823999D01*
X150732483Y-90817591D01*
X150867331Y-90767296D01*
X150875687Y-90761039D01*
X150941149Y-90736621D01*
X151009422Y-90751470D01*
X151024304Y-90761034D01*
X151032669Y-90767296D01*
X151032672Y-90767297D01*
X151167517Y-90817591D01*
X151167516Y-90817591D01*
X151174444Y-90818335D01*
X151227127Y-90824000D01*
X152372872Y-90823999D01*
X152432483Y-90817591D01*
X152567331Y-90767296D01*
X152575687Y-90761039D01*
X152641149Y-90736621D01*
X152709422Y-90751470D01*
X152724304Y-90761034D01*
X152732669Y-90767296D01*
X152732672Y-90767297D01*
X152867517Y-90817591D01*
X152867516Y-90817591D01*
X152874444Y-90818335D01*
X152927127Y-90824000D01*
X154072872Y-90823999D01*
X154132483Y-90817591D01*
X154267331Y-90767296D01*
X154382546Y-90681046D01*
X154468796Y-90565831D01*
X154519091Y-90430983D01*
X154525500Y-90371373D01*
X154525500Y-89843000D01*
X154545185Y-89775961D01*
X154597989Y-89730206D01*
X154649500Y-89719000D01*
X155552718Y-89719000D01*
X155619757Y-89738685D01*
X155640399Y-89755319D01*
X156225681Y-90340601D01*
X156259166Y-90401924D01*
X156262000Y-90428282D01*
X156262000Y-91645270D01*
X156255706Y-91684273D01*
X156210002Y-91822199D01*
X156210000Y-91822209D01*
X156199500Y-91924983D01*
X156199500Y-93275001D01*
X156199501Y-93275018D01*
X156210000Y-93377796D01*
X156210001Y-93377799D01*
X156257184Y-93520185D01*
X156265186Y-93544334D01*
X156357288Y-93693656D01*
X156481344Y-93817712D01*
X156630666Y-93909814D01*
X156797203Y-93964999D01*
X156899991Y-93975500D01*
X157625008Y-93975499D01*
X157625016Y-93975498D01*
X157625019Y-93975498D01*
X157681302Y-93969748D01*
X157727797Y-93964999D01*
X157894334Y-93909814D01*
X158043656Y-93817712D01*
X158167712Y-93693656D01*
X158259814Y-93544334D01*
X158314999Y-93377797D01*
X158325500Y-93275009D01*
X158325499Y-91924992D01*
X158318892Y-91860318D01*
X158314999Y-91822203D01*
X158314998Y-91822200D01*
X158269294Y-91684273D01*
X158263000Y-91645269D01*
X158263000Y-89863958D01*
X158262403Y-89857896D01*
X158264496Y-89857689D01*
X158269864Y-89797615D01*
X158312720Y-89742432D01*
X158378606Y-89719179D01*
X158385260Y-89719000D01*
X165052718Y-89719000D01*
X165119757Y-89738685D01*
X165140399Y-89755319D01*
X165343181Y-89958101D01*
X165376666Y-90019424D01*
X165379500Y-90045782D01*
X165379500Y-91760342D01*
X165359815Y-91827381D01*
X165355822Y-91833220D01*
X165350043Y-91841176D01*
X165336135Y-91860318D01*
X165248916Y-92031493D01*
X165227931Y-92096081D01*
X165188494Y-92153756D01*
X165124135Y-92180955D01*
X165055289Y-92169041D01*
X165003813Y-92121797D01*
X164992069Y-92096081D01*
X164971083Y-92031493D01*
X164959900Y-92009545D01*
X164883865Y-91860319D01*
X164770945Y-91704898D01*
X164635102Y-91569055D01*
X164479681Y-91456135D01*
X164308506Y-91368916D01*
X164125802Y-91309553D01*
X164030928Y-91294526D01*
X163936055Y-91279500D01*
X163743945Y-91279500D01*
X163694048Y-91287403D01*
X163554197Y-91309553D01*
X163371493Y-91368916D01*
X163200318Y-91456135D01*
X163173228Y-91475818D01*
X163107422Y-91499298D01*
X163100342Y-91499500D01*
X162039658Y-91499500D01*
X161972619Y-91479815D01*
X161966772Y-91475818D01*
X161939681Y-91456135D01*
X161768506Y-91368916D01*
X161585802Y-91309553D01*
X161490928Y-91294526D01*
X161396055Y-91279500D01*
X161203945Y-91279500D01*
X161154048Y-91287403D01*
X161014197Y-91309553D01*
X160831493Y-91368916D01*
X160660318Y-91456135D01*
X160574266Y-91518656D01*
X160504898Y-91569055D01*
X160504896Y-91569057D01*
X160504895Y-91569057D01*
X160369057Y-91704895D01*
X160369057Y-91704896D01*
X160369055Y-91704898D01*
X160347320Y-91734814D01*
X160256135Y-91860318D01*
X160168916Y-92031493D01*
X160109553Y-92214197D01*
X160109553Y-92214199D01*
X160079500Y-92403945D01*
X160079500Y-92596055D01*
X160086135Y-92637947D01*
X160109553Y-92785802D01*
X160168916Y-92968506D01*
X160188216Y-93006383D01*
X160256135Y-93139681D01*
X160369055Y-93295102D01*
X160504898Y-93430945D01*
X160660319Y-93543865D01*
X160818573Y-93624500D01*
X160831493Y-93631083D01*
X160922845Y-93660764D01*
X161014199Y-93690447D01*
X161203945Y-93720500D01*
X161203946Y-93720500D01*
X161396054Y-93720500D01*
X161396055Y-93720500D01*
X161585801Y-93690447D01*
X161768509Y-93631082D01*
X161939681Y-93543865D01*
X161966772Y-93524181D01*
X162032578Y-93500702D01*
X162039658Y-93500500D01*
X162715500Y-93500500D01*
X162782539Y-93520185D01*
X162828294Y-93572989D01*
X162839500Y-93624500D01*
X162839500Y-94238544D01*
X162877947Y-94431833D01*
X162877949Y-94431837D01*
X162888993Y-94458500D01*
X162900038Y-94485165D01*
X162911970Y-94513971D01*
X162953366Y-94613911D01*
X162953371Y-94613920D01*
X163062859Y-94777780D01*
X163062860Y-94777781D01*
X163062861Y-94777782D01*
X163202218Y-94917139D01*
X163202219Y-94917140D01*
X163462216Y-95177138D01*
X163465273Y-95179647D01*
X163466443Y-95181365D01*
X163466526Y-95181448D01*
X163466510Y-95181463D01*
X163504607Y-95237393D01*
X163506478Y-95307238D01*
X163470290Y-95367006D01*
X163407534Y-95397722D01*
X163386608Y-95399500D01*
X138485808Y-95399500D01*
X138418769Y-95379815D01*
X138373014Y-95327011D01*
X138363070Y-95257853D01*
X138386540Y-95201190D01*
X138393353Y-95192088D01*
X138393354Y-95192086D01*
X138443596Y-95057379D01*
X138443598Y-95057372D01*
X138449999Y-94997844D01*
X138450000Y-94997827D01*
X138450000Y-94350000D01*
X137533012Y-94350000D01*
X137565925Y-94292993D01*
X137600000Y-94165826D01*
X137600000Y-94034174D01*
X137565925Y-93907007D01*
X137533012Y-93850000D01*
X138450000Y-93850000D01*
X138450000Y-93202172D01*
X138449999Y-93202155D01*
X138443598Y-93142627D01*
X138443596Y-93142620D01*
X138393354Y-93007913D01*
X138393350Y-93007906D01*
X138307190Y-92892812D01*
X138307187Y-92892809D01*
X138192093Y-92806649D01*
X138192086Y-92806645D01*
X138057379Y-92756403D01*
X138057372Y-92756401D01*
X137997844Y-92750000D01*
X137350000Y-92750000D01*
X137350000Y-93666988D01*
X137292993Y-93634075D01*
X137165826Y-93600000D01*
X137034174Y-93600000D01*
X136907007Y-93634075D01*
X136850000Y-93666988D01*
X136850000Y-92750000D01*
X136202155Y-92750000D01*
X136142627Y-92756401D01*
X136142620Y-92756403D01*
X136007913Y-92806645D01*
X136007911Y-92806646D01*
X135998810Y-92813460D01*
X135933345Y-92837876D01*
X135865072Y-92823024D01*
X135815667Y-92773618D01*
X135800500Y-92714192D01*
X135800500Y-89699983D01*
X138149500Y-89699983D01*
X138149500Y-91100001D01*
X138149501Y-91100018D01*
X138160000Y-91202796D01*
X138160001Y-91202799D01*
X138208357Y-91348726D01*
X138215186Y-91369334D01*
X138307288Y-91518656D01*
X138431344Y-91642712D01*
X138580666Y-91734814D01*
X138747203Y-91789999D01*
X138849991Y-91800500D01*
X139234217Y-91800499D01*
X139301256Y-91820183D01*
X139321898Y-91836818D01*
X141262215Y-93777136D01*
X141262223Y-93777142D01*
X141426084Y-93886630D01*
X141426087Y-93886632D01*
X141520924Y-93925914D01*
X141542367Y-93937376D01*
X141549769Y-93942322D01*
X141722749Y-94013973D01*
X141860937Y-94041460D01*
X141906379Y-94050499D01*
X141906383Y-94050500D01*
X141906384Y-94050500D01*
X142093617Y-94050500D01*
X142093618Y-94050499D01*
X142277251Y-94013973D01*
X142450231Y-93942322D01*
X142605908Y-93838302D01*
X142738302Y-93705908D01*
X142842322Y-93550231D01*
X142913973Y-93377251D01*
X142950500Y-93193616D01*
X142950500Y-93006384D01*
X142913973Y-92822749D01*
X142842322Y-92649769D01*
X142837376Y-92642367D01*
X142825914Y-92620924D01*
X142786632Y-92526087D01*
X142786630Y-92526084D01*
X142677142Y-92362223D01*
X142677136Y-92362215D01*
X141663646Y-91348726D01*
X141630161Y-91287403D01*
X141633622Y-91222038D01*
X141639999Y-91202797D01*
X141650500Y-91100009D01*
X141650499Y-89699992D01*
X141650498Y-89699983D01*
X142149500Y-89699983D01*
X142149500Y-91100001D01*
X142149501Y-91100018D01*
X142160000Y-91202796D01*
X142160001Y-91202799D01*
X142208357Y-91348726D01*
X142215186Y-91369334D01*
X142307288Y-91518656D01*
X142431344Y-91642712D01*
X142580666Y-91734814D01*
X142747203Y-91789999D01*
X142785483Y-91793909D01*
X142789479Y-91794318D01*
X142813247Y-91804016D01*
X142838232Y-91809919D01*
X142845063Y-91816998D01*
X142854170Y-91820714D01*
X142868923Y-91841724D01*
X142886749Y-91860197D01*
X142891651Y-91874091D01*
X142894322Y-91877895D01*
X142898492Y-91893480D01*
X142904759Y-91924981D01*
X142904955Y-91925965D01*
X142925946Y-92031493D01*
X142937521Y-92089687D01*
X142937949Y-92091837D01*
X142937949Y-92091838D01*
X143013364Y-92273907D01*
X143013371Y-92273920D01*
X143122859Y-92437780D01*
X143122860Y-92437781D01*
X143122861Y-92437782D01*
X143262218Y-92577139D01*
X143262219Y-92577139D01*
X143269286Y-92584206D01*
X143269285Y-92584206D01*
X143269288Y-92584208D01*
X144922860Y-94237781D01*
X144922861Y-94237782D01*
X145011079Y-94326000D01*
X145062219Y-94377140D01*
X145144073Y-94431833D01*
X145226086Y-94486632D01*
X145292094Y-94513973D01*
X145408164Y-94562051D01*
X145598945Y-94600000D01*
X145601454Y-94600499D01*
X145601457Y-94600500D01*
X145601459Y-94600500D01*
X148298543Y-94600500D01*
X148472359Y-94565925D01*
X148491835Y-94562051D01*
X148673914Y-94486632D01*
X148837782Y-94377139D01*
X148977139Y-94237782D01*
X149086632Y-94073914D01*
X149162051Y-93891835D01*
X149200210Y-93700000D01*
X149200500Y-93698543D01*
X149200500Y-93501456D01*
X149162052Y-93308170D01*
X149162051Y-93308169D01*
X149162051Y-93308165D01*
X149148320Y-93275016D01*
X149148308Y-93274986D01*
X153275001Y-93274986D01*
X153285494Y-93377697D01*
X153340641Y-93544119D01*
X153340643Y-93544124D01*
X153432684Y-93693345D01*
X153556654Y-93817315D01*
X153705875Y-93909356D01*
X153705880Y-93909358D01*
X153872302Y-93964505D01*
X153872309Y-93964506D01*
X153975019Y-93974999D01*
X154087499Y-93974999D01*
X154587500Y-93974999D01*
X154699972Y-93974999D01*
X154699986Y-93974998D01*
X154802697Y-93964505D01*
X154969119Y-93909358D01*
X154969124Y-93909356D01*
X155118345Y-93817315D01*
X155242315Y-93693345D01*
X155334356Y-93544124D01*
X155334358Y-93544119D01*
X155389505Y-93377697D01*
X155389506Y-93377690D01*
X155399999Y-93274986D01*
X155400000Y-93274973D01*
X155400000Y-92850000D01*
X154587500Y-92850000D01*
X154587500Y-93974999D01*
X154087499Y-93974999D01*
X154087500Y-93974998D01*
X154087500Y-92850000D01*
X153275001Y-92850000D01*
X153275001Y-93274986D01*
X149148308Y-93274986D01*
X149086635Y-93126092D01*
X149086628Y-93126079D01*
X148977139Y-92962218D01*
X148977136Y-92962214D01*
X148837785Y-92822863D01*
X148837781Y-92822860D01*
X148673920Y-92713371D01*
X148673907Y-92713364D01*
X148491839Y-92637950D01*
X148491829Y-92637947D01*
X148298543Y-92599500D01*
X148298541Y-92599500D01*
X146165783Y-92599500D01*
X146098744Y-92579815D01*
X146078102Y-92563181D01*
X145864921Y-92350000D01*
X145439933Y-91925013D01*
X153275000Y-91925013D01*
X153275000Y-92350000D01*
X154087500Y-92350000D01*
X154587500Y-92350000D01*
X155399999Y-92350000D01*
X155399999Y-91925028D01*
X155399998Y-91925013D01*
X155389505Y-91822302D01*
X155334358Y-91655880D01*
X155334356Y-91655875D01*
X155242315Y-91506654D01*
X155118345Y-91382684D01*
X154969124Y-91290643D01*
X154969119Y-91290641D01*
X154802697Y-91235494D01*
X154802690Y-91235493D01*
X154699986Y-91225000D01*
X154587500Y-91225000D01*
X154587500Y-92350000D01*
X154087500Y-92350000D01*
X154087500Y-91225000D01*
X153975027Y-91225000D01*
X153975012Y-91225001D01*
X153872302Y-91235494D01*
X153705880Y-91290641D01*
X153705875Y-91290643D01*
X153556654Y-91382684D01*
X153432684Y-91506654D01*
X153340643Y-91655875D01*
X153340641Y-91655880D01*
X153285494Y-91822302D01*
X153285493Y-91822309D01*
X153275000Y-91925013D01*
X145439933Y-91925013D01*
X145349027Y-91834107D01*
X145315543Y-91772785D01*
X145320527Y-91703093D01*
X145362399Y-91647160D01*
X145366939Y-91644069D01*
X145368654Y-91642713D01*
X145368653Y-91642713D01*
X145368656Y-91642712D01*
X145492712Y-91518656D01*
X145584814Y-91369334D01*
X145639999Y-91202797D01*
X145650500Y-91100009D01*
X145650499Y-90803158D01*
X145670183Y-90736122D01*
X145722987Y-90690367D01*
X145792146Y-90680423D01*
X145848811Y-90703895D01*
X145932910Y-90766852D01*
X145932913Y-90766854D01*
X146067620Y-90817096D01*
X146067627Y-90817098D01*
X146127155Y-90823499D01*
X146127172Y-90823500D01*
X146450000Y-90823500D01*
X146450000Y-88968500D01*
X145675000Y-88968500D01*
X145675000Y-89164270D01*
X145655315Y-89231309D01*
X145602511Y-89277064D01*
X145533353Y-89287008D01*
X145469797Y-89257983D01*
X145463319Y-89251951D01*
X145368657Y-89157289D01*
X145368656Y-89157288D01*
X145219334Y-89065186D01*
X145052797Y-89010001D01*
X145052795Y-89010000D01*
X144950010Y-88999500D01*
X142849998Y-88999500D01*
X142849981Y-88999501D01*
X142747203Y-89010000D01*
X142747200Y-89010001D01*
X142580668Y-89065185D01*
X142580663Y-89065187D01*
X142431342Y-89157289D01*
X142307289Y-89281342D01*
X142215187Y-89430663D01*
X142215186Y-89430666D01*
X142160001Y-89597203D01*
X142160001Y-89597204D01*
X142160000Y-89597204D01*
X142149500Y-89699983D01*
X141650498Y-89699983D01*
X141639999Y-89597203D01*
X141584814Y-89430666D01*
X141492712Y-89281344D01*
X141368656Y-89157288D01*
X141219334Y-89065186D01*
X141052797Y-89010001D01*
X141052795Y-89010000D01*
X140950010Y-88999500D01*
X138849998Y-88999500D01*
X138849981Y-88999501D01*
X138747203Y-89010000D01*
X138747200Y-89010001D01*
X138580668Y-89065185D01*
X138580663Y-89065187D01*
X138431342Y-89157289D01*
X138307289Y-89281342D01*
X138215187Y-89430663D01*
X138215186Y-89430666D01*
X138160001Y-89597203D01*
X138160001Y-89597204D01*
X138160000Y-89597204D01*
X138149500Y-89699983D01*
X135800500Y-89699983D01*
X135800500Y-87724986D01*
X139750001Y-87724986D01*
X139760494Y-87827697D01*
X139815641Y-87994119D01*
X139815643Y-87994124D01*
X139907684Y-88143345D01*
X140031654Y-88267315D01*
X140180875Y-88359356D01*
X140180880Y-88359358D01*
X140347302Y-88414505D01*
X140347309Y-88414506D01*
X140450019Y-88424999D01*
X140499999Y-88424998D01*
X140500000Y-88424998D01*
X140500000Y-87450000D01*
X139750001Y-87450000D01*
X139750001Y-87724986D01*
X135800500Y-87724986D01*
X135800500Y-86675013D01*
X139750000Y-86675013D01*
X139750000Y-86950000D01*
X140500000Y-86950000D01*
X140500000Y-85975000D01*
X140499999Y-85974999D01*
X140450029Y-85975000D01*
X140450011Y-85975001D01*
X140347302Y-85985494D01*
X140180880Y-86040641D01*
X140180875Y-86040643D01*
X140031654Y-86132684D01*
X139907684Y-86256654D01*
X139815643Y-86405875D01*
X139815641Y-86405880D01*
X139760494Y-86572302D01*
X139760493Y-86572309D01*
X139750000Y-86675013D01*
X135800500Y-86675013D01*
X135800500Y-76586431D01*
X135820185Y-76519392D01*
X135872989Y-76473637D01*
X135942147Y-76463693D01*
X135998813Y-76487166D01*
X136007669Y-76493796D01*
X136007670Y-76493796D01*
X136007671Y-76493797D01*
X136142517Y-76544091D01*
X136142516Y-76544091D01*
X136149444Y-76544835D01*
X136202127Y-76550500D01*
X137997872Y-76550499D01*
X138057483Y-76544091D01*
X138192331Y-76493796D01*
X138307546Y-76407546D01*
X138393796Y-76292331D01*
X138397960Y-76281165D01*
X138439829Y-76225234D01*
X138505293Y-76200816D01*
X138514141Y-76200500D01*
X139234218Y-76200500D01*
X139301257Y-76220185D01*
X139321899Y-76236819D01*
X140645561Y-77560481D01*
X140679046Y-77621804D01*
X140681880Y-77648162D01*
X140681880Y-80762819D01*
X140662195Y-80829858D01*
X140632192Y-80862085D01*
X140524832Y-80942455D01*
X140438586Y-81057664D01*
X140438582Y-81057671D01*
X140388288Y-81192517D01*
X140384419Y-81228511D01*
X140381881Y-81252123D01*
X140381702Y-81255452D01*
X140380121Y-81255367D01*
X140362195Y-81316419D01*
X140309391Y-81362174D01*
X140266106Y-81369824D01*
X139582380Y-82053551D01*
X139582380Y-82047339D01*
X139555121Y-81945606D01*
X139502460Y-81854394D01*
X139427986Y-81779920D01*
X139336774Y-81727259D01*
X139235041Y-81700000D01*
X139228826Y-81700000D01*
X139908302Y-81020524D01*
X139908301Y-81020523D01*
X139863739Y-80988147D01*
X139863730Y-80988141D01*
X139681411Y-80895244D01*
X139486797Y-80832009D01*
X139284697Y-80800000D01*
X139080063Y-80800000D01*
X138877962Y-80832009D01*
X138683348Y-80895244D01*
X138501024Y-80988143D01*
X138456457Y-81020523D01*
X138456457Y-81020524D01*
X139135934Y-81700000D01*
X139129719Y-81700000D01*
X139027986Y-81727259D01*
X138936774Y-81779920D01*
X138862300Y-81854394D01*
X138809639Y-81945606D01*
X138782380Y-82047339D01*
X138782380Y-82053553D01*
X138102904Y-81374077D01*
X138102903Y-81374077D01*
X138070523Y-81418644D01*
X137977624Y-81600968D01*
X137914389Y-81795582D01*
X137882380Y-81997682D01*
X137882380Y-82202317D01*
X137914389Y-82404417D01*
X137977624Y-82599031D01*
X138070521Y-82781350D01*
X138070527Y-82781359D01*
X138102903Y-82825921D01*
X138102904Y-82825922D01*
X138782380Y-82146446D01*
X138782380Y-82152661D01*
X138809639Y-82254394D01*
X138862300Y-82345606D01*
X138936774Y-82420080D01*
X139027986Y-82472741D01*
X139129719Y-82500000D01*
X139135933Y-82500000D01*
X138456456Y-83179474D01*
X138501030Y-83211859D01*
X138683348Y-83304755D01*
X138877962Y-83367990D01*
X139080063Y-83400000D01*
X139284697Y-83400000D01*
X139486797Y-83367990D01*
X139681411Y-83304755D01*
X139863729Y-83211859D01*
X139908301Y-83179474D01*
X139228827Y-82500000D01*
X139235041Y-82500000D01*
X139336774Y-82472741D01*
X139427986Y-82420080D01*
X139502460Y-82345606D01*
X139555121Y-82254394D01*
X139582380Y-82152661D01*
X139582380Y-82146447D01*
X140266863Y-82830931D01*
X140316527Y-82841364D01*
X140366285Y-82890415D01*
X140380380Y-82944634D01*
X140381479Y-82944576D01*
X140381526Y-82944571D01*
X140381526Y-82944573D01*
X140381704Y-82944564D01*
X140381881Y-82947876D01*
X140388288Y-83007483D01*
X140438582Y-83142328D01*
X140438586Y-83142335D01*
X140524832Y-83257544D01*
X140524835Y-83257547D01*
X140640044Y-83343793D01*
X140640051Y-83343797D01*
X140684998Y-83360561D01*
X140774897Y-83394091D01*
X140834507Y-83400500D01*
X141516595Y-83400499D01*
X141546030Y-83409141D01*
X141576016Y-83415663D01*
X141581034Y-83419419D01*
X141583634Y-83420183D01*
X141604271Y-83436813D01*
X141613176Y-83445717D01*
X141646665Y-83507038D01*
X141649500Y-83533403D01*
X141649500Y-86022246D01*
X141629815Y-86089285D01*
X141577011Y-86135040D01*
X141507853Y-86144984D01*
X141460403Y-86127785D01*
X141319124Y-86040643D01*
X141319119Y-86040641D01*
X141152697Y-85985494D01*
X141152690Y-85985493D01*
X141049986Y-85975000D01*
X141000000Y-85975000D01*
X141000000Y-88424999D01*
X141049972Y-88424999D01*
X141049986Y-88424998D01*
X141152697Y-88414505D01*
X141319119Y-88359358D01*
X141319124Y-88359356D01*
X141468345Y-88267315D01*
X141592318Y-88143342D01*
X141594165Y-88140348D01*
X141595969Y-88138724D01*
X141596798Y-88137677D01*
X141596976Y-88137818D01*
X141646110Y-88093621D01*
X141715073Y-88082396D01*
X141779156Y-88110236D01*
X141805243Y-88140341D01*
X141807288Y-88143656D01*
X141931344Y-88267712D01*
X142080666Y-88359814D01*
X142247203Y-88414999D01*
X142349991Y-88425500D01*
X142950008Y-88425499D01*
X142950016Y-88425498D01*
X142950019Y-88425498D01*
X143006302Y-88419748D01*
X143052797Y-88414999D01*
X143219334Y-88359814D01*
X143368656Y-88267712D01*
X143399549Y-88236819D01*
X143426476Y-88222115D01*
X143452295Y-88205523D01*
X143458495Y-88204631D01*
X143460872Y-88203334D01*
X143487230Y-88200500D01*
X143634217Y-88200500D01*
X143701256Y-88220185D01*
X143721893Y-88236814D01*
X143823378Y-88338299D01*
X143862219Y-88377140D01*
X144026078Y-88486627D01*
X144026082Y-88486629D01*
X144026085Y-88486631D01*
X144208164Y-88562051D01*
X144401454Y-88600499D01*
X144401457Y-88600500D01*
X144401459Y-88600500D01*
X144598542Y-88600500D01*
X144598543Y-88600499D01*
X144791835Y-88562051D01*
X144973914Y-88486631D01*
X145013762Y-88460004D01*
X145035187Y-88448553D01*
X145050231Y-88442322D01*
X145205908Y-88338302D01*
X145338302Y-88205908D01*
X145402228Y-88110236D01*
X145445707Y-88045166D01*
X145447013Y-88046038D01*
X145490594Y-88001665D01*
X145558730Y-87986198D01*
X145624412Y-88010024D01*
X145666786Y-88065577D01*
X145675000Y-88109957D01*
X145675000Y-88468500D01*
X146450000Y-88468500D01*
X146450000Y-86613500D01*
X146127155Y-86613500D01*
X146067627Y-86619901D01*
X146067620Y-86619903D01*
X145932913Y-86670145D01*
X145932906Y-86670149D01*
X145817812Y-86756309D01*
X145817809Y-86756312D01*
X145731649Y-86871406D01*
X145731645Y-86871413D01*
X145681403Y-87006120D01*
X145681401Y-87006127D01*
X145675000Y-87065655D01*
X145675000Y-87090042D01*
X145655315Y-87157081D01*
X145602511Y-87202836D01*
X145533353Y-87212780D01*
X145469797Y-87183755D01*
X145446356Y-87154400D01*
X145445707Y-87154834D01*
X145338302Y-86994092D01*
X145338299Y-86994088D01*
X145205910Y-86861699D01*
X145180529Y-86844741D01*
X145127789Y-86809501D01*
X145109003Y-86794083D01*
X144884209Y-86569289D01*
X144884206Y-86569285D01*
X144884206Y-86569286D01*
X144877139Y-86562219D01*
X144877139Y-86562218D01*
X144737782Y-86422861D01*
X144737781Y-86422860D01*
X144737780Y-86422859D01*
X144573920Y-86313371D01*
X144573907Y-86313364D01*
X144443543Y-86259367D01*
X144436245Y-86256344D01*
X144391836Y-86237949D01*
X144295188Y-86218724D01*
X144290989Y-86217888D01*
X144290979Y-86217886D01*
X144198544Y-86199500D01*
X144198541Y-86199500D01*
X143774500Y-86199500D01*
X143707461Y-86179815D01*
X143661706Y-86127011D01*
X143650500Y-86075500D01*
X143650500Y-82969076D01*
X143632714Y-82879663D01*
X143629244Y-82862218D01*
X143612051Y-82775784D01*
X143560831Y-82652128D01*
X143555679Y-82639690D01*
X143536635Y-82593712D01*
X143536628Y-82593699D01*
X143427140Y-82429839D01*
X143385442Y-82388141D01*
X143287782Y-82290481D01*
X143287781Y-82290480D01*
X143019198Y-82021897D01*
X142985713Y-81960574D01*
X142982879Y-81934216D01*
X142982879Y-81252129D01*
X142982878Y-81252123D01*
X142982877Y-81252116D01*
X142976471Y-81192517D01*
X142972197Y-81181059D01*
X142926177Y-81057671D01*
X142926173Y-81057664D01*
X142839927Y-80942455D01*
X142732568Y-80862085D01*
X142690698Y-80806151D01*
X142682880Y-80762819D01*
X142682880Y-77399333D01*
X142685263Y-77375141D01*
X142685286Y-77375028D01*
X142700500Y-77298541D01*
X142700500Y-77101460D01*
X142697430Y-77086027D01*
X142662051Y-76908164D01*
X142586631Y-76726086D01*
X142586629Y-76726083D01*
X142586627Y-76726079D01*
X142477139Y-76562219D01*
X142477136Y-76562215D01*
X140481479Y-74566559D01*
X140481459Y-74566537D01*
X140337785Y-74422863D01*
X140337781Y-74422860D01*
X140173920Y-74313371D01*
X140173911Y-74313366D01*
X140101315Y-74283296D01*
X140045165Y-74260038D01*
X139991836Y-74237949D01*
X139991832Y-74237948D01*
X139991828Y-74237946D01*
X139895188Y-74218724D01*
X139798544Y-74199500D01*
X139798541Y-74199500D01*
X138514141Y-74199500D01*
X138447102Y-74179815D01*
X138401347Y-74127011D01*
X138397969Y-74118859D01*
X138393796Y-74107669D01*
X138393793Y-74107665D01*
X138393793Y-74107664D01*
X138387165Y-74098810D01*
X138362748Y-74033346D01*
X138377600Y-73965073D01*
X138427005Y-73915668D01*
X138486432Y-73900500D01*
X179713568Y-73900500D01*
X179717823Y-73901749D01*
G37*
G04 #@! TD.AperFunction*
G04 #@! TA.AperFunction,Conductor*
G36*
X179752898Y-76220185D02*
G01*
X179798653Y-76272989D01*
X179802030Y-76281140D01*
X179806204Y-76292331D01*
X179806205Y-76292332D01*
X179806206Y-76292335D01*
X179892452Y-76407544D01*
X179892455Y-76407547D01*
X180007664Y-76493793D01*
X180007671Y-76493797D01*
X180142517Y-76544091D01*
X180142516Y-76544091D01*
X180149444Y-76544835D01*
X180202127Y-76550500D01*
X181997872Y-76550499D01*
X182057483Y-76544091D01*
X182192331Y-76493796D01*
X182201186Y-76487166D01*
X182266649Y-76462747D01*
X182334923Y-76477596D01*
X182384330Y-76527000D01*
X182399500Y-76586431D01*
X182399500Y-92814192D01*
X182379815Y-92881231D01*
X182327011Y-92926986D01*
X182257853Y-92936930D01*
X182201190Y-92913460D01*
X182192088Y-92906646D01*
X182192086Y-92906645D01*
X182057379Y-92856403D01*
X182057372Y-92856401D01*
X181997844Y-92850000D01*
X181350000Y-92850000D01*
X181350000Y-93766988D01*
X181292993Y-93734075D01*
X181165826Y-93700000D01*
X181034174Y-93700000D01*
X180907007Y-93734075D01*
X180850000Y-93766988D01*
X180850000Y-92850000D01*
X180202155Y-92850000D01*
X180142627Y-92856401D01*
X180142620Y-92856403D01*
X180007913Y-92906645D01*
X180007906Y-92906649D01*
X179892812Y-92992809D01*
X179892809Y-92992812D01*
X179806649Y-93107906D01*
X179806645Y-93107913D01*
X179756403Y-93242620D01*
X179756401Y-93242627D01*
X179750000Y-93302155D01*
X179750000Y-93950000D01*
X180666988Y-93950000D01*
X180634075Y-94007007D01*
X180600000Y-94134174D01*
X180600000Y-94265826D01*
X180634075Y-94392993D01*
X180666988Y-94450000D01*
X179750000Y-94450000D01*
X179750000Y-95097844D01*
X179756401Y-95157372D01*
X179756403Y-95157379D01*
X179784297Y-95232167D01*
X179789281Y-95301859D01*
X179755796Y-95363182D01*
X179694473Y-95396666D01*
X179668115Y-95399500D01*
X168313392Y-95399500D01*
X168291898Y-95393188D01*
X168269558Y-95391494D01*
X168259020Y-95383534D01*
X168246353Y-95379815D01*
X168231685Y-95362887D01*
X168213805Y-95349382D01*
X168209243Y-95336988D01*
X168200598Y-95327011D01*
X168197409Y-95304838D01*
X168189671Y-95283813D01*
X168192533Y-95270922D01*
X168190654Y-95257853D01*
X168199960Y-95237474D01*
X168204817Y-95215604D01*
X168216195Y-95201924D01*
X168219679Y-95194297D01*
X168226090Y-95187441D01*
X168233792Y-95179804D01*
X168237782Y-95177139D01*
X168377139Y-95037782D01*
X168377140Y-95037779D01*
X175294760Y-88120161D01*
X175404252Y-87956294D01*
X175404253Y-87956293D01*
X175448432Y-87849634D01*
X175479672Y-87774215D01*
X175518121Y-87580920D01*
X175518121Y-87383839D01*
X175518121Y-84837180D01*
X175537806Y-84770141D01*
X175567808Y-84737914D01*
X175675167Y-84657546D01*
X175761417Y-84542331D01*
X175811712Y-84407483D01*
X175818121Y-84347873D01*
X175818120Y-84335612D01*
X175821696Y-84321052D01*
X175831963Y-84303380D01*
X175837688Y-84283760D01*
X175849160Y-84273783D01*
X175856798Y-84260640D01*
X175874988Y-84251325D01*
X175890413Y-84237913D01*
X175906901Y-84234984D01*
X175918988Y-84228795D01*
X175933639Y-84230234D01*
X175933875Y-84230192D01*
X176617621Y-83546446D01*
X176617621Y-83552661D01*
X176644880Y-83654394D01*
X176697541Y-83745606D01*
X176772015Y-83820080D01*
X176863227Y-83872741D01*
X176964960Y-83900000D01*
X176971174Y-83900000D01*
X176291697Y-84579474D01*
X176336271Y-84611859D01*
X176518589Y-84704755D01*
X176713203Y-84767990D01*
X176915304Y-84800000D01*
X177119938Y-84800000D01*
X177322038Y-84767990D01*
X177516652Y-84704755D01*
X177698970Y-84611859D01*
X177743542Y-84579474D01*
X177064068Y-83900000D01*
X177070282Y-83900000D01*
X177172015Y-83872741D01*
X177263227Y-83820080D01*
X177337701Y-83745606D01*
X177390362Y-83654394D01*
X177417621Y-83552661D01*
X177417621Y-83546448D01*
X178097095Y-84225922D01*
X178097095Y-84225921D01*
X178129480Y-84181349D01*
X178222376Y-83999031D01*
X178285611Y-83804417D01*
X178317621Y-83602317D01*
X178317621Y-83397682D01*
X178285611Y-83195582D01*
X178222376Y-83000968D01*
X178129480Y-82818650D01*
X178097095Y-82774077D01*
X178097095Y-82774076D01*
X177417621Y-83453551D01*
X177417621Y-83447339D01*
X177390362Y-83345606D01*
X177337701Y-83254394D01*
X177263227Y-83179920D01*
X177172015Y-83127259D01*
X177070282Y-83100000D01*
X177064067Y-83100000D01*
X177743543Y-82420524D01*
X177743542Y-82420523D01*
X177698980Y-82388147D01*
X177698971Y-82388141D01*
X177516652Y-82295244D01*
X177322038Y-82232009D01*
X177119938Y-82200000D01*
X176915304Y-82200000D01*
X176713203Y-82232009D01*
X176518589Y-82295244D01*
X176336265Y-82388143D01*
X176291698Y-82420523D01*
X176291698Y-82420524D01*
X176971175Y-83100000D01*
X176964960Y-83100000D01*
X176863227Y-83127259D01*
X176772015Y-83179920D01*
X176697541Y-83254394D01*
X176644880Y-83345606D01*
X176617621Y-83447339D01*
X176617621Y-83453553D01*
X175933134Y-82769066D01*
X175883470Y-82758633D01*
X175833714Y-82709581D01*
X175821697Y-82678947D01*
X175818120Y-82664378D01*
X175818120Y-82652128D01*
X175811712Y-82592517D01*
X175778833Y-82504365D01*
X175778832Y-82504359D01*
X175761418Y-82457671D01*
X175761414Y-82457664D01*
X175675168Y-82342455D01*
X175675165Y-82342452D01*
X175559956Y-82256206D01*
X175559949Y-82256202D01*
X175425103Y-82205908D01*
X175425104Y-82205908D01*
X175365504Y-82199501D01*
X175365502Y-82199500D01*
X175365494Y-82199500D01*
X175365486Y-82199500D01*
X174683404Y-82199500D01*
X174653965Y-82190855D01*
X174623971Y-82184329D01*
X174618959Y-82180576D01*
X174616365Y-82179815D01*
X174595718Y-82163176D01*
X174586814Y-82154271D01*
X174553332Y-82092946D01*
X174550500Y-82066595D01*
X174550500Y-79077753D01*
X174570185Y-79010714D01*
X174622989Y-78964959D01*
X174692147Y-78955015D01*
X174739597Y-78972215D01*
X174880869Y-79059353D01*
X174880880Y-79059358D01*
X175047302Y-79114505D01*
X175047309Y-79114506D01*
X175150019Y-79124999D01*
X175700000Y-79124999D01*
X175749972Y-79124999D01*
X175749986Y-79124998D01*
X175852697Y-79114505D01*
X176019119Y-79059358D01*
X176019124Y-79059356D01*
X176168345Y-78967315D01*
X176292315Y-78843345D01*
X176384356Y-78694124D01*
X176384358Y-78694119D01*
X176439505Y-78527697D01*
X176439506Y-78527690D01*
X176449999Y-78424986D01*
X176450000Y-78424973D01*
X176450000Y-78150000D01*
X175700000Y-78150000D01*
X175700000Y-79124999D01*
X175150019Y-79124999D01*
X175199999Y-79124998D01*
X175200000Y-79124998D01*
X175200000Y-77650000D01*
X175700000Y-77650000D01*
X176449999Y-77650000D01*
X176449999Y-77375028D01*
X176449998Y-77375013D01*
X176439505Y-77272302D01*
X176384358Y-77105880D01*
X176384356Y-77105875D01*
X176292315Y-76956654D01*
X176168345Y-76832684D01*
X176019124Y-76740643D01*
X176019119Y-76740641D01*
X175852697Y-76685494D01*
X175852690Y-76685493D01*
X175749986Y-76675000D01*
X175700000Y-76675000D01*
X175700000Y-77650000D01*
X175200000Y-77650000D01*
X175200000Y-76766282D01*
X175208644Y-76736841D01*
X175215168Y-76706855D01*
X175218922Y-76701839D01*
X175219685Y-76699243D01*
X175236316Y-76678604D01*
X175678102Y-76236819D01*
X175739425Y-76203334D01*
X175765783Y-76200500D01*
X179685859Y-76200500D01*
X179752898Y-76220185D01*
G37*
G04 #@! TD.AperFunction*
M02*
