G04 #@! TF.GenerationSoftware,KiCad,Pcbnew,9.0.1*
G04 #@! TF.CreationDate,2025-08-22T15:47:16+05:00*
G04 #@! TF.ProjectId,dc_boost_converter,64635f62-6f6f-4737-945f-636f6e766572,rev?*
G04 #@! TF.SameCoordinates,Original*
G04 #@! TF.FileFunction,Copper,L2,Bot*
G04 #@! TF.FilePolarity,Positive*
%FSLAX46Y46*%
G04 Gerber Fmt 4.6, Leading zero omitted, Abs format (unit mm)*
G04 Created by KiCad (PCBNEW 9.0.1) date 2025-08-22 15:47:16*
%MOMM*%
%LPD*%
G01*
G04 APERTURE LIST*
G04 #@! TA.AperFunction,ComponentPad*
%ADD10R,1.700000X1.700000*%
G04 #@! TD*
G04 #@! TA.AperFunction,ComponentPad*
%ADD11C,1.440000*%
G04 #@! TD*
G04 #@! TA.AperFunction,ComponentPad*
%ADD12R,1.600000X1.600000*%
G04 #@! TD*
G04 #@! TA.AperFunction,ComponentPad*
%ADD13C,1.600000*%
G04 #@! TD*
G04 #@! TA.AperFunction,ViaPad*
%ADD14C,0.900000*%
G04 #@! TD*
G04 #@! TA.AperFunction,Conductor*
%ADD15C,1.000000*%
G04 #@! TD*
G04 APERTURE END LIST*
D10*
X181100000Y-75200000D03*
X137100000Y-94100000D03*
D11*
X166380000Y-92500000D03*
X163840000Y-92500000D03*
X161300000Y-92500000D03*
D12*
X141682380Y-82100000D03*
D13*
X139182380Y-82100000D03*
D12*
X174517621Y-83500000D03*
D13*
X177017621Y-83500000D03*
D10*
X137100000Y-75200000D03*
X181100000Y-94200000D03*
D14*
X153900000Y-84900000D03*
X144600000Y-87600000D03*
X161300000Y-92600000D03*
X148200000Y-93600000D03*
X150600000Y-78900000D03*
X146100000Y-78000000D03*
X154200000Y-78900000D03*
X152400000Y-83400000D03*
X151500000Y-78900000D03*
X149700000Y-77100000D03*
X151500000Y-81600000D03*
X155100000Y-83400000D03*
X147000000Y-82500000D03*
X148800000Y-78900000D03*
X153300000Y-82500000D03*
X148800000Y-83400000D03*
X153300000Y-83400000D03*
X154200000Y-78000000D03*
X150600000Y-79800000D03*
X146100000Y-77100000D03*
X149700000Y-82500000D03*
X152400000Y-79800000D03*
X154200000Y-76200000D03*
X142000000Y-93100000D03*
X155100000Y-79800000D03*
X149700000Y-76200000D03*
X145200000Y-75300000D03*
X147000000Y-78000000D03*
X149700000Y-75300000D03*
X146100000Y-75300000D03*
X146100000Y-82500000D03*
X154200000Y-82500000D03*
X147000000Y-77100000D03*
X148800000Y-81600000D03*
X151500000Y-77100000D03*
X153300000Y-75300000D03*
X155100000Y-78900000D03*
X154200000Y-77100000D03*
X150600000Y-80700000D03*
X146100000Y-79800000D03*
X151500000Y-78000000D03*
X153300000Y-76200000D03*
X153300000Y-78900000D03*
X155100000Y-80700000D03*
X148800000Y-82500000D03*
X145200000Y-77100000D03*
X145200000Y-81600000D03*
X145200000Y-80700000D03*
X150600000Y-77100000D03*
X150600000Y-75300000D03*
X147000000Y-76200000D03*
X154200000Y-83400000D03*
X147000000Y-83400000D03*
X151500000Y-80700000D03*
X147000000Y-81600000D03*
X145200000Y-78000000D03*
X154200000Y-81600000D03*
X147900000Y-83400000D03*
X155100000Y-75300000D03*
X154200000Y-80700000D03*
X149700000Y-78000000D03*
X149700000Y-83400000D03*
X147000000Y-79800000D03*
X153300000Y-77100000D03*
X147000000Y-80700000D03*
X150600000Y-78000000D03*
X153300000Y-81600000D03*
X152400000Y-82500000D03*
X153300000Y-79800000D03*
X150600000Y-81600000D03*
X147900000Y-78000000D03*
X147900000Y-80700000D03*
X153300000Y-78000000D03*
X147900000Y-77100000D03*
X155100000Y-82500000D03*
X155100000Y-76200000D03*
X151500000Y-75300000D03*
X146100000Y-78900000D03*
X150600000Y-82500000D03*
X146100000Y-76200000D03*
X147900000Y-76200000D03*
X146100000Y-83400000D03*
X148800000Y-78000000D03*
X152400000Y-78900000D03*
X154200000Y-79800000D03*
X147900000Y-78900000D03*
X149700000Y-78900000D03*
X145200000Y-82500000D03*
X151500000Y-79800000D03*
X146100000Y-81600000D03*
X152400000Y-75300000D03*
X150600000Y-83400000D03*
X148800000Y-77100000D03*
X151500000Y-83400000D03*
X155100000Y-78000000D03*
X148800000Y-76200000D03*
X147000000Y-78900000D03*
X147900000Y-79800000D03*
X152400000Y-76200000D03*
X152400000Y-80700000D03*
X149700000Y-80700000D03*
X147000000Y-75300000D03*
X155100000Y-77100000D03*
X152400000Y-77100000D03*
X148800000Y-75300000D03*
X151500000Y-76200000D03*
X152400000Y-81600000D03*
X145200000Y-79800000D03*
X145200000Y-76200000D03*
X150600000Y-76200000D03*
X151500000Y-82500000D03*
X149700000Y-79800000D03*
X147900000Y-82500000D03*
X146100000Y-80700000D03*
X147900000Y-75300000D03*
X147900000Y-81600000D03*
X145200000Y-78900000D03*
X145200000Y-83400000D03*
X152400000Y-78000000D03*
X155100000Y-81600000D03*
X154200000Y-75300000D03*
X148800000Y-80700000D03*
X148800000Y-79800000D03*
X153300000Y-80700000D03*
X149700000Y-81600000D03*
D15*
X151200000Y-87600000D02*
X153900000Y-84900000D01*
X144600000Y-87600000D02*
X151200000Y-87600000D01*
X149200000Y-92600000D02*
X148200000Y-93600000D01*
X161300000Y-92600000D02*
X149200000Y-92600000D01*
X146100000Y-83400000D02*
X146400000Y-83400000D01*
X145700000Y-83400000D02*
X143100000Y-86000000D01*
X143100000Y-86000000D02*
X140600000Y-86000000D01*
X140600000Y-86000000D02*
X139500000Y-87100000D01*
X139500000Y-90600000D02*
X142000000Y-93100000D01*
X139500000Y-87100000D02*
X139500000Y-90600000D01*
X146400000Y-83400000D02*
X145700000Y-83400000D01*
G04 #@! TA.AperFunction,Conductor*
G36*
X179726491Y-73904294D02*
G01*
X179739926Y-73903334D01*
X179759361Y-73913946D01*
X179780607Y-73920185D01*
X179789426Y-73930363D01*
X179801249Y-73936819D01*
X179811861Y-73956255D01*
X179826362Y-73972989D01*
X179828278Y-73986320D01*
X179834734Y-73998142D01*
X179833154Y-74020228D01*
X179836306Y-74042147D01*
X179830602Y-74055916D01*
X179829750Y-74067834D01*
X179812835Y-74098810D01*
X179806206Y-74107665D01*
X179806202Y-74107671D01*
X179755908Y-74242517D01*
X179749501Y-74302116D01*
X179749501Y-74302123D01*
X179749500Y-74302135D01*
X179749500Y-76097870D01*
X179749501Y-76097876D01*
X179755908Y-76157483D01*
X179806202Y-76292328D01*
X179806206Y-76292335D01*
X179892452Y-76407544D01*
X179892455Y-76407547D01*
X180007664Y-76493793D01*
X180007671Y-76493797D01*
X180142517Y-76544091D01*
X180142516Y-76544091D01*
X180149444Y-76544835D01*
X180202127Y-76550500D01*
X181997872Y-76550499D01*
X182057483Y-76544091D01*
X182192331Y-76493796D01*
X182201186Y-76487166D01*
X182266649Y-76462747D01*
X182334923Y-76477596D01*
X182384330Y-76527000D01*
X182399500Y-76586431D01*
X182399500Y-92814192D01*
X182379815Y-92881231D01*
X182327011Y-92926986D01*
X182257853Y-92936930D01*
X182201190Y-92913460D01*
X182192088Y-92906646D01*
X182192086Y-92906645D01*
X182057379Y-92856403D01*
X182057372Y-92856401D01*
X181997844Y-92850000D01*
X181350000Y-92850000D01*
X181350000Y-93766988D01*
X181292993Y-93734075D01*
X181165826Y-93700000D01*
X181034174Y-93700000D01*
X180907007Y-93734075D01*
X180850000Y-93766988D01*
X180850000Y-92850000D01*
X180202155Y-92850000D01*
X180142627Y-92856401D01*
X180142620Y-92856403D01*
X180007913Y-92906645D01*
X180007906Y-92906649D01*
X179892812Y-92992809D01*
X179892809Y-92992812D01*
X179806649Y-93107906D01*
X179806645Y-93107913D01*
X179756403Y-93242620D01*
X179756401Y-93242627D01*
X179750000Y-93302155D01*
X179750000Y-93950000D01*
X180666988Y-93950000D01*
X180634075Y-94007007D01*
X180600000Y-94134174D01*
X180600000Y-94265826D01*
X180634075Y-94392993D01*
X180666988Y-94450000D01*
X179750000Y-94450000D01*
X179750000Y-95097844D01*
X179756401Y-95157372D01*
X179756403Y-95157379D01*
X179784297Y-95232167D01*
X179789281Y-95301859D01*
X179755796Y-95363182D01*
X179694473Y-95396666D01*
X179668115Y-95399500D01*
X138485808Y-95399500D01*
X138418769Y-95379815D01*
X138373014Y-95327011D01*
X138363070Y-95257853D01*
X138386540Y-95201190D01*
X138393353Y-95192088D01*
X138393354Y-95192086D01*
X138443596Y-95057379D01*
X138443598Y-95057372D01*
X138449999Y-94997844D01*
X138450000Y-94997827D01*
X138450000Y-94350000D01*
X137533012Y-94350000D01*
X137565925Y-94292993D01*
X137600000Y-94165826D01*
X137600000Y-94034174D01*
X137565925Y-93907007D01*
X137533012Y-93850000D01*
X138450000Y-93850000D01*
X138450000Y-93202172D01*
X138449999Y-93202155D01*
X138443598Y-93142627D01*
X138443596Y-93142620D01*
X138393354Y-93007913D01*
X138393350Y-93007906D01*
X138307190Y-92892812D01*
X138307187Y-92892809D01*
X138192093Y-92806649D01*
X138192086Y-92806645D01*
X138057379Y-92756403D01*
X138057372Y-92756401D01*
X137997844Y-92750000D01*
X137350000Y-92750000D01*
X137350000Y-93666988D01*
X137292993Y-93634075D01*
X137165826Y-93600000D01*
X137034174Y-93600000D01*
X136907007Y-93634075D01*
X136850000Y-93666988D01*
X136850000Y-92750000D01*
X136202155Y-92750000D01*
X136142627Y-92756401D01*
X136142620Y-92756403D01*
X136007913Y-92806645D01*
X136007911Y-92806646D01*
X135998810Y-92813460D01*
X135933345Y-92837876D01*
X135865072Y-92823024D01*
X135815667Y-92773618D01*
X135800500Y-92714192D01*
X135800500Y-90698543D01*
X138499499Y-90698543D01*
X138537947Y-90891829D01*
X138537950Y-90891839D01*
X138613364Y-91073907D01*
X138613371Y-91073920D01*
X138722860Y-91237781D01*
X138722863Y-91237785D01*
X138866537Y-91381459D01*
X138866559Y-91381479D01*
X141362215Y-93877136D01*
X141362219Y-93877139D01*
X141526079Y-93986627D01*
X141526083Y-93986629D01*
X141526086Y-93986631D01*
X141708164Y-94062051D01*
X141898946Y-94100000D01*
X141901455Y-94100499D01*
X141901458Y-94100500D01*
X141901460Y-94100500D01*
X142098542Y-94100500D01*
X142098543Y-94100499D01*
X142291836Y-94062051D01*
X142473914Y-93986631D01*
X142637781Y-93877139D01*
X142777139Y-93737781D01*
X142886631Y-93573914D01*
X142916645Y-93501455D01*
X147199500Y-93501455D01*
X147199500Y-93698544D01*
X147237947Y-93891828D01*
X147237949Y-93891836D01*
X147313367Y-94073910D01*
X147313372Y-94073920D01*
X147422860Y-94237780D01*
X147422863Y-94237784D01*
X147562215Y-94377136D01*
X147562219Y-94377139D01*
X147726079Y-94486627D01*
X147726083Y-94486629D01*
X147726086Y-94486631D01*
X147908164Y-94562051D01*
X148098946Y-94600000D01*
X148101455Y-94600499D01*
X148101458Y-94600500D01*
X148101460Y-94600500D01*
X148298542Y-94600500D01*
X148298543Y-94600499D01*
X148491836Y-94562051D01*
X148673914Y-94486631D01*
X148837781Y-94377139D01*
X149578102Y-93636819D01*
X149639425Y-93603334D01*
X149665783Y-93600500D01*
X160741700Y-93600500D01*
X160797995Y-93614015D01*
X160831493Y-93631083D01*
X160922845Y-93660764D01*
X161014199Y-93690447D01*
X161203945Y-93720500D01*
X161203946Y-93720500D01*
X161396054Y-93720500D01*
X161396055Y-93720500D01*
X161585801Y-93690447D01*
X161768509Y-93631082D01*
X161939681Y-93543865D01*
X162095102Y-93430945D01*
X162230945Y-93295102D01*
X162343865Y-93139681D01*
X162431082Y-92968509D01*
X162444574Y-92926986D01*
X162452069Y-92903919D01*
X162491506Y-92846243D01*
X162555864Y-92819044D01*
X162624711Y-92830958D01*
X162676187Y-92878202D01*
X162687931Y-92903919D01*
X162708915Y-92968504D01*
X162721301Y-92992812D01*
X162796135Y-93139681D01*
X162909055Y-93295102D01*
X163044898Y-93430945D01*
X163200319Y-93543865D01*
X163371491Y-93631082D01*
X163371493Y-93631083D01*
X163462845Y-93660764D01*
X163554199Y-93690447D01*
X163743945Y-93720500D01*
X163743946Y-93720500D01*
X163936054Y-93720500D01*
X163936055Y-93720500D01*
X164125801Y-93690447D01*
X164308509Y-93631082D01*
X164479681Y-93543865D01*
X164635102Y-93430945D01*
X164770945Y-93295102D01*
X164883865Y-93139681D01*
X164971082Y-92968509D01*
X164984574Y-92926986D01*
X164992069Y-92903919D01*
X165031506Y-92846243D01*
X165095864Y-92819044D01*
X165164711Y-92830958D01*
X165216187Y-92878202D01*
X165227931Y-92903919D01*
X165248915Y-92968504D01*
X165261301Y-92992812D01*
X165336135Y-93139681D01*
X165449055Y-93295102D01*
X165584898Y-93430945D01*
X165740319Y-93543865D01*
X165911491Y-93631082D01*
X165911493Y-93631083D01*
X166002845Y-93660764D01*
X166094199Y-93690447D01*
X166283945Y-93720500D01*
X166283946Y-93720500D01*
X166476054Y-93720500D01*
X166476055Y-93720500D01*
X166665801Y-93690447D01*
X166848509Y-93631082D01*
X167019681Y-93543865D01*
X167175102Y-93430945D01*
X167310945Y-93295102D01*
X167423865Y-93139681D01*
X167511082Y-92968509D01*
X167570447Y-92785801D01*
X167600500Y-92596055D01*
X167600500Y-92403945D01*
X167570447Y-92214199D01*
X167540424Y-92121797D01*
X167511083Y-92031493D01*
X167423864Y-91860318D01*
X167310945Y-91704898D01*
X167175102Y-91569055D01*
X167019681Y-91456135D01*
X166848506Y-91368916D01*
X166665802Y-91309553D01*
X166570928Y-91294526D01*
X166476055Y-91279500D01*
X166283945Y-91279500D01*
X166220696Y-91289517D01*
X166094197Y-91309553D01*
X165911493Y-91368916D01*
X165740318Y-91456135D01*
X165651645Y-91520560D01*
X165584898Y-91569055D01*
X165584896Y-91569057D01*
X165584895Y-91569057D01*
X165449057Y-91704895D01*
X165449057Y-91704896D01*
X165449055Y-91704898D01*
X165442899Y-91713371D01*
X165336135Y-91860318D01*
X165248916Y-92031493D01*
X165227931Y-92096081D01*
X165188494Y-92153756D01*
X165124135Y-92180955D01*
X165055289Y-92169041D01*
X165003813Y-92121797D01*
X164992069Y-92096081D01*
X164971083Y-92031493D01*
X164883864Y-91860318D01*
X164770945Y-91704898D01*
X164635102Y-91569055D01*
X164479681Y-91456135D01*
X164308506Y-91368916D01*
X164125802Y-91309553D01*
X164030928Y-91294526D01*
X163936055Y-91279500D01*
X163743945Y-91279500D01*
X163680696Y-91289517D01*
X163554197Y-91309553D01*
X163371493Y-91368916D01*
X163200318Y-91456135D01*
X163111645Y-91520560D01*
X163044898Y-91569055D01*
X163044896Y-91569057D01*
X163044895Y-91569057D01*
X162909057Y-91704895D01*
X162909057Y-91704896D01*
X162909055Y-91704898D01*
X162902899Y-91713371D01*
X162796135Y-91860318D01*
X162708916Y-92031493D01*
X162687931Y-92096081D01*
X162648494Y-92153756D01*
X162584135Y-92180955D01*
X162515289Y-92169041D01*
X162463813Y-92121797D01*
X162452069Y-92096081D01*
X162431083Y-92031493D01*
X162343864Y-91860318D01*
X162230945Y-91704898D01*
X162095102Y-91569055D01*
X161939681Y-91456135D01*
X161768506Y-91368916D01*
X161585802Y-91309553D01*
X161490928Y-91294526D01*
X161396055Y-91279500D01*
X161203945Y-91279500D01*
X161140696Y-91289517D01*
X161014197Y-91309553D01*
X160831493Y-91368916D01*
X160660318Y-91456135D01*
X160504895Y-91569057D01*
X160504039Y-91569789D01*
X160503646Y-91569964D01*
X160500957Y-91571919D01*
X160500546Y-91571353D01*
X160440278Y-91598360D01*
X160423506Y-91599500D01*
X149304675Y-91599500D01*
X149304655Y-91599499D01*
X149298541Y-91599499D01*
X149101460Y-91599499D01*
X149101457Y-91599499D01*
X148908172Y-91637946D01*
X148908164Y-91637948D01*
X148726088Y-91713366D01*
X148726079Y-91713371D01*
X148562219Y-91822859D01*
X148562215Y-91822862D01*
X147422863Y-92962215D01*
X147422860Y-92962219D01*
X147313372Y-93126079D01*
X147313367Y-93126089D01*
X147237949Y-93308163D01*
X147237947Y-93308171D01*
X147199500Y-93501455D01*
X142916645Y-93501455D01*
X142962051Y-93391836D01*
X143000500Y-93198540D01*
X143000500Y-93001460D01*
X143000500Y-93001457D01*
X143000499Y-93001455D01*
X142981098Y-92903919D01*
X142962051Y-92808164D01*
X142886631Y-92626086D01*
X142886629Y-92626083D01*
X142886627Y-92626079D01*
X142777139Y-92462219D01*
X142777136Y-92462215D01*
X140536819Y-90221898D01*
X140503334Y-90160575D01*
X140500500Y-90134217D01*
X140500500Y-87565782D01*
X140520185Y-87498743D01*
X140536819Y-87478101D01*
X140978101Y-87036819D01*
X141039424Y-87003334D01*
X141065782Y-87000500D01*
X143198543Y-87000500D01*
X143231440Y-86993955D01*
X143310594Y-86978211D01*
X143391836Y-86962051D01*
X143445165Y-86939961D01*
X143573914Y-86886632D01*
X143596562Y-86871499D01*
X143663236Y-86850621D01*
X143730617Y-86869104D01*
X143777308Y-86921082D01*
X143788486Y-86990052D01*
X143768555Y-87043491D01*
X143713370Y-87126081D01*
X143713364Y-87126092D01*
X143637950Y-87308160D01*
X143637947Y-87308170D01*
X143599500Y-87501456D01*
X143599500Y-87501459D01*
X143599500Y-87698541D01*
X143599500Y-87698543D01*
X143599499Y-87698543D01*
X143637947Y-87891829D01*
X143637950Y-87891839D01*
X143713364Y-88073907D01*
X143713371Y-88073920D01*
X143822860Y-88237781D01*
X143822863Y-88237785D01*
X143962214Y-88377136D01*
X143962218Y-88377139D01*
X144126079Y-88486628D01*
X144126092Y-88486635D01*
X144308160Y-88562049D01*
X144308165Y-88562051D01*
X144308169Y-88562051D01*
X144308170Y-88562052D01*
X144501456Y-88600500D01*
X144501459Y-88600500D01*
X151298542Y-88600500D01*
X151329566Y-88594328D01*
X151395188Y-88581275D01*
X151491836Y-88562051D01*
X151545165Y-88539961D01*
X151673914Y-88486632D01*
X151837782Y-88377139D01*
X151977139Y-88237782D01*
X151977139Y-88237780D01*
X151987347Y-88227573D01*
X151987348Y-88227570D01*
X154677140Y-85537781D01*
X154786632Y-85373914D01*
X154862052Y-85191835D01*
X154900501Y-84998540D01*
X154900501Y-84801459D01*
X154900501Y-84801456D01*
X154900500Y-84801454D01*
X154899035Y-84794091D01*
X154862052Y-84608164D01*
X154821558Y-84510405D01*
X154814090Y-84440937D01*
X154845365Y-84378457D01*
X154905454Y-84342805D01*
X154960311Y-84341336D01*
X154991328Y-84347505D01*
X155006381Y-84350499D01*
X155006383Y-84350500D01*
X155006384Y-84350500D01*
X155193617Y-84350500D01*
X155193618Y-84350499D01*
X155377251Y-84313973D01*
X155550231Y-84242322D01*
X155705908Y-84138302D01*
X155838302Y-84005908D01*
X155942322Y-83850231D01*
X156013973Y-83677251D01*
X156050500Y-83493616D01*
X156050500Y-83306384D01*
X156013973Y-83122749D01*
X155962071Y-82997449D01*
X155954603Y-82927985D01*
X155962068Y-82902557D01*
X156013973Y-82777251D01*
X156038860Y-82652135D01*
X173217121Y-82652135D01*
X173217121Y-84347870D01*
X173217122Y-84347876D01*
X173223529Y-84407483D01*
X173273823Y-84542328D01*
X173273827Y-84542335D01*
X173360073Y-84657544D01*
X173360076Y-84657547D01*
X173475285Y-84743793D01*
X173475292Y-84743797D01*
X173610138Y-84794091D01*
X173610137Y-84794091D01*
X173617065Y-84794835D01*
X173669748Y-84800500D01*
X175365493Y-84800499D01*
X175425104Y-84794091D01*
X175559952Y-84743796D01*
X175675167Y-84657546D01*
X175761417Y-84542331D01*
X175811712Y-84407483D01*
X175818121Y-84347873D01*
X175818120Y-84335612D01*
X175821696Y-84321052D01*
X175831963Y-84303380D01*
X175837688Y-84283760D01*
X175849160Y-84273783D01*
X175856798Y-84260640D01*
X175874988Y-84251325D01*
X175890413Y-84237913D01*
X175906901Y-84234984D01*
X175918988Y-84228795D01*
X175933639Y-84230234D01*
X175933875Y-84230192D01*
X176617621Y-83546446D01*
X176617621Y-83552661D01*
X176644880Y-83654394D01*
X176697541Y-83745606D01*
X176772015Y-83820080D01*
X176863227Y-83872741D01*
X176964960Y-83900000D01*
X176971174Y-83900000D01*
X176291697Y-84579474D01*
X176336271Y-84611859D01*
X176518589Y-84704755D01*
X176713203Y-84767990D01*
X176915304Y-84800000D01*
X177119938Y-84800000D01*
X177322038Y-84767990D01*
X177516652Y-84704755D01*
X177698970Y-84611859D01*
X177743542Y-84579474D01*
X177064068Y-83900000D01*
X177070282Y-83900000D01*
X177172015Y-83872741D01*
X177263227Y-83820080D01*
X177337701Y-83745606D01*
X177390362Y-83654394D01*
X177417621Y-83552661D01*
X177417621Y-83546448D01*
X178097095Y-84225922D01*
X178097095Y-84225921D01*
X178129480Y-84181349D01*
X178222376Y-83999031D01*
X178285611Y-83804417D01*
X178317621Y-83602317D01*
X178317621Y-83397682D01*
X178285611Y-83195582D01*
X178222376Y-83000968D01*
X178129480Y-82818650D01*
X178097095Y-82774077D01*
X178097095Y-82774076D01*
X177417621Y-83453551D01*
X177417621Y-83447339D01*
X177390362Y-83345606D01*
X177337701Y-83254394D01*
X177263227Y-83179920D01*
X177172015Y-83127259D01*
X177070282Y-83100000D01*
X177064067Y-83100000D01*
X177743543Y-82420524D01*
X177743542Y-82420523D01*
X177698980Y-82388147D01*
X177698971Y-82388141D01*
X177516652Y-82295244D01*
X177322038Y-82232009D01*
X177119938Y-82200000D01*
X176915304Y-82200000D01*
X176713203Y-82232009D01*
X176518589Y-82295244D01*
X176336265Y-82388143D01*
X176291698Y-82420523D01*
X176291698Y-82420524D01*
X176971175Y-83100000D01*
X176964960Y-83100000D01*
X176863227Y-83127259D01*
X176772015Y-83179920D01*
X176697541Y-83254394D01*
X176644880Y-83345606D01*
X176617621Y-83447339D01*
X176617621Y-83453553D01*
X175933134Y-82769066D01*
X175883470Y-82758633D01*
X175833714Y-82709581D01*
X175821697Y-82678947D01*
X175818120Y-82664378D01*
X175818120Y-82652128D01*
X175811712Y-82592517D01*
X175778833Y-82504365D01*
X175778832Y-82504359D01*
X175761418Y-82457671D01*
X175761414Y-82457664D01*
X175675168Y-82342455D01*
X175675165Y-82342452D01*
X175559956Y-82256206D01*
X175559949Y-82256202D01*
X175425103Y-82205908D01*
X175425104Y-82205908D01*
X175365504Y-82199501D01*
X175365502Y-82199500D01*
X175365494Y-82199500D01*
X175365485Y-82199500D01*
X173669750Y-82199500D01*
X173669744Y-82199501D01*
X173610137Y-82205908D01*
X173475292Y-82256202D01*
X173475285Y-82256206D01*
X173360076Y-82342452D01*
X173360073Y-82342455D01*
X173273827Y-82457664D01*
X173273823Y-82457671D01*
X173223529Y-82592517D01*
X173217122Y-82652116D01*
X173217121Y-82652135D01*
X156038860Y-82652135D01*
X156050500Y-82593616D01*
X156050500Y-82406384D01*
X156013973Y-82222749D01*
X155962071Y-82097449D01*
X155954603Y-82027985D01*
X155962068Y-82002557D01*
X156013973Y-81877251D01*
X156050500Y-81693616D01*
X156050500Y-81506384D01*
X156013973Y-81322749D01*
X155962071Y-81197449D01*
X155954603Y-81127985D01*
X155962068Y-81102557D01*
X156013973Y-80977251D01*
X156050500Y-80793616D01*
X156050500Y-80606384D01*
X156013973Y-80422749D01*
X155962071Y-80297449D01*
X155954603Y-80227985D01*
X155962068Y-80202557D01*
X156013973Y-80077251D01*
X156050500Y-79893616D01*
X156050500Y-79706384D01*
X156013973Y-79522749D01*
X155962071Y-79397449D01*
X155954603Y-79327985D01*
X155962068Y-79302557D01*
X156013973Y-79177251D01*
X156050500Y-78993616D01*
X156050500Y-78806384D01*
X156013973Y-78622749D01*
X155962071Y-78497449D01*
X155954603Y-78427985D01*
X155962068Y-78402557D01*
X156013973Y-78277251D01*
X156050500Y-78093616D01*
X156050500Y-77906384D01*
X156013973Y-77722749D01*
X155962071Y-77597449D01*
X155954603Y-77527985D01*
X155962068Y-77502557D01*
X156013973Y-77377251D01*
X156050500Y-77193616D01*
X156050500Y-77006384D01*
X156013973Y-76822749D01*
X155962071Y-76697449D01*
X155954603Y-76627985D01*
X155962068Y-76602557D01*
X156013973Y-76477251D01*
X156050500Y-76293616D01*
X156050500Y-76106384D01*
X156013973Y-75922749D01*
X155962071Y-75797449D01*
X155954603Y-75727985D01*
X155962068Y-75702557D01*
X156013973Y-75577251D01*
X156050500Y-75393616D01*
X156050500Y-75206384D01*
X156013973Y-75022749D01*
X155942322Y-74849769D01*
X155942321Y-74849768D01*
X155942318Y-74849762D01*
X155838302Y-74694092D01*
X155838299Y-74694088D01*
X155705911Y-74561700D01*
X155705907Y-74561697D01*
X155550237Y-74457681D01*
X155550228Y-74457676D01*
X155377251Y-74386027D01*
X155377243Y-74386025D01*
X155193620Y-74349500D01*
X155193616Y-74349500D01*
X155006384Y-74349500D01*
X155006379Y-74349500D01*
X154822756Y-74386025D01*
X154822744Y-74386028D01*
X154697452Y-74437926D01*
X154627983Y-74445395D01*
X154602548Y-74437926D01*
X154477255Y-74386028D01*
X154477243Y-74386025D01*
X154293620Y-74349500D01*
X154293616Y-74349500D01*
X154106384Y-74349500D01*
X154106379Y-74349500D01*
X153922756Y-74386025D01*
X153922744Y-74386028D01*
X153797452Y-74437926D01*
X153727983Y-74445395D01*
X153702548Y-74437926D01*
X153577255Y-74386028D01*
X153577243Y-74386025D01*
X153393620Y-74349500D01*
X153393616Y-74349500D01*
X153206384Y-74349500D01*
X153206379Y-74349500D01*
X153022756Y-74386025D01*
X153022744Y-74386028D01*
X152897452Y-74437926D01*
X152827983Y-74445395D01*
X152802548Y-74437926D01*
X152677255Y-74386028D01*
X152677243Y-74386025D01*
X152493620Y-74349500D01*
X152493616Y-74349500D01*
X152306384Y-74349500D01*
X152306379Y-74349500D01*
X152122756Y-74386025D01*
X152122744Y-74386028D01*
X151997452Y-74437926D01*
X151927983Y-74445395D01*
X151902548Y-74437926D01*
X151777255Y-74386028D01*
X151777243Y-74386025D01*
X151593620Y-74349500D01*
X151593616Y-74349500D01*
X151406384Y-74349500D01*
X151406379Y-74349500D01*
X151222756Y-74386025D01*
X151222744Y-74386028D01*
X151097452Y-74437926D01*
X151027983Y-74445395D01*
X151002548Y-74437926D01*
X150877255Y-74386028D01*
X150877243Y-74386025D01*
X150693620Y-74349500D01*
X150693616Y-74349500D01*
X150506384Y-74349500D01*
X150506379Y-74349500D01*
X150322756Y-74386025D01*
X150322744Y-74386028D01*
X150197452Y-74437926D01*
X150127983Y-74445395D01*
X150102548Y-74437926D01*
X149977255Y-74386028D01*
X149977243Y-74386025D01*
X149793620Y-74349500D01*
X149793616Y-74349500D01*
X149606384Y-74349500D01*
X149606379Y-74349500D01*
X149422756Y-74386025D01*
X149422744Y-74386028D01*
X149297452Y-74437926D01*
X149227983Y-74445395D01*
X149202548Y-74437926D01*
X149077255Y-74386028D01*
X149077243Y-74386025D01*
X148893620Y-74349500D01*
X148893616Y-74349500D01*
X148706384Y-74349500D01*
X148706379Y-74349500D01*
X148522756Y-74386025D01*
X148522744Y-74386028D01*
X148397452Y-74437926D01*
X148327983Y-74445395D01*
X148302548Y-74437926D01*
X148177255Y-74386028D01*
X148177243Y-74386025D01*
X147993620Y-74349500D01*
X147993616Y-74349500D01*
X147806384Y-74349500D01*
X147806379Y-74349500D01*
X147622756Y-74386025D01*
X147622744Y-74386028D01*
X147497452Y-74437926D01*
X147427983Y-74445395D01*
X147402548Y-74437926D01*
X147277255Y-74386028D01*
X147277243Y-74386025D01*
X147093620Y-74349500D01*
X147093616Y-74349500D01*
X146906384Y-74349500D01*
X146906379Y-74349500D01*
X146722756Y-74386025D01*
X146722744Y-74386028D01*
X146597452Y-74437926D01*
X146527983Y-74445395D01*
X146502548Y-74437926D01*
X146377255Y-74386028D01*
X146377243Y-74386025D01*
X146193620Y-74349500D01*
X146193616Y-74349500D01*
X146006384Y-74349500D01*
X146006379Y-74349500D01*
X145822756Y-74386025D01*
X145822744Y-74386028D01*
X145697452Y-74437926D01*
X145627983Y-74445395D01*
X145602548Y-74437926D01*
X145477255Y-74386028D01*
X145477243Y-74386025D01*
X145293620Y-74349500D01*
X145293616Y-74349500D01*
X145106384Y-74349500D01*
X145106379Y-74349500D01*
X144922756Y-74386025D01*
X144922748Y-74386027D01*
X144749771Y-74457676D01*
X144749762Y-74457681D01*
X144594092Y-74561697D01*
X144594088Y-74561700D01*
X144461700Y-74694088D01*
X144461697Y-74694092D01*
X144357681Y-74849762D01*
X144357676Y-74849771D01*
X144286027Y-75022748D01*
X144286025Y-75022756D01*
X144249500Y-75206379D01*
X144249500Y-75393620D01*
X144286025Y-75577243D01*
X144286028Y-75577255D01*
X144337926Y-75702548D01*
X144345395Y-75772017D01*
X144337926Y-75797452D01*
X144286028Y-75922744D01*
X144286025Y-75922756D01*
X144249500Y-76106379D01*
X144249500Y-76293620D01*
X144286025Y-76477243D01*
X144286028Y-76477255D01*
X144337926Y-76602548D01*
X144345395Y-76672017D01*
X144337926Y-76697452D01*
X144286028Y-76822744D01*
X144286025Y-76822756D01*
X144249500Y-77006379D01*
X144249500Y-77193620D01*
X144286025Y-77377243D01*
X144286028Y-77377255D01*
X144337926Y-77502548D01*
X144345395Y-77572017D01*
X144337926Y-77597452D01*
X144286028Y-77722744D01*
X144286025Y-77722756D01*
X144249500Y-77906379D01*
X144249500Y-78093620D01*
X144286025Y-78277243D01*
X144286028Y-78277255D01*
X144337926Y-78402548D01*
X144345395Y-78472017D01*
X144337926Y-78497452D01*
X144286028Y-78622744D01*
X144286025Y-78622756D01*
X144249500Y-78806379D01*
X144249500Y-78993620D01*
X144286025Y-79177243D01*
X144286028Y-79177255D01*
X144337926Y-79302548D01*
X144345395Y-79372017D01*
X144337926Y-79397452D01*
X144286028Y-79522744D01*
X144286025Y-79522756D01*
X144249500Y-79706379D01*
X144249500Y-79893620D01*
X144286025Y-80077243D01*
X144286028Y-80077255D01*
X144337926Y-80202548D01*
X144345395Y-80272017D01*
X144337926Y-80297452D01*
X144286028Y-80422744D01*
X144286025Y-80422756D01*
X144249500Y-80606379D01*
X144249500Y-80793620D01*
X144286025Y-80977243D01*
X144286028Y-80977255D01*
X144337926Y-81102548D01*
X144345395Y-81172017D01*
X144337926Y-81197452D01*
X144286028Y-81322744D01*
X144286025Y-81322756D01*
X144249500Y-81506379D01*
X144249500Y-81693620D01*
X144286025Y-81877243D01*
X144286028Y-81877255D01*
X144337926Y-82002548D01*
X144345395Y-82072017D01*
X144337926Y-82097452D01*
X144286028Y-82222744D01*
X144286025Y-82222756D01*
X144249500Y-82406379D01*
X144249500Y-82593620D01*
X144286025Y-82777243D01*
X144286028Y-82777255D01*
X144337926Y-82902548D01*
X144345395Y-82972017D01*
X144337926Y-82997452D01*
X144286028Y-83122744D01*
X144286025Y-83122756D01*
X144249500Y-83306379D01*
X144249500Y-83384217D01*
X144229815Y-83451256D01*
X144213181Y-83471898D01*
X142721899Y-84963181D01*
X142660576Y-84996666D01*
X142634218Y-84999500D01*
X140501455Y-84999500D01*
X140404812Y-85018724D01*
X140308167Y-85037947D01*
X140308161Y-85037949D01*
X140254834Y-85060037D01*
X140254834Y-85060038D01*
X140209315Y-85078892D01*
X140126089Y-85113366D01*
X140126079Y-85113371D01*
X139962219Y-85222859D01*
X139892540Y-85292538D01*
X139822861Y-85362218D01*
X139822858Y-85362221D01*
X138862221Y-86322858D01*
X138862218Y-86322861D01*
X138792538Y-86392540D01*
X138722859Y-86462219D01*
X138613371Y-86626080D01*
X138613364Y-86626093D01*
X138603670Y-86649499D01*
X138603670Y-86649500D01*
X138537949Y-86808163D01*
X138532042Y-86837857D01*
X138522341Y-86886631D01*
X138499500Y-87001459D01*
X138499500Y-90698541D01*
X138499500Y-90698543D01*
X138499499Y-90698543D01*
X135800500Y-90698543D01*
X135800500Y-81997682D01*
X137882380Y-81997682D01*
X137882380Y-82202317D01*
X137914389Y-82404417D01*
X137977624Y-82599031D01*
X138070521Y-82781350D01*
X138070527Y-82781359D01*
X138102903Y-82825921D01*
X138102904Y-82825922D01*
X138782380Y-82146446D01*
X138782380Y-82152661D01*
X138809639Y-82254394D01*
X138862300Y-82345606D01*
X138936774Y-82420080D01*
X139027986Y-82472741D01*
X139129719Y-82500000D01*
X139135933Y-82500000D01*
X138456456Y-83179474D01*
X138501030Y-83211859D01*
X138683348Y-83304755D01*
X138877962Y-83367990D01*
X139080063Y-83400000D01*
X139284697Y-83400000D01*
X139486797Y-83367990D01*
X139681411Y-83304755D01*
X139863729Y-83211859D01*
X139908301Y-83179474D01*
X139228827Y-82500000D01*
X139235041Y-82500000D01*
X139336774Y-82472741D01*
X139427986Y-82420080D01*
X139502460Y-82345606D01*
X139555121Y-82254394D01*
X139582380Y-82152661D01*
X139582380Y-82146447D01*
X140266863Y-82830931D01*
X140316527Y-82841364D01*
X140366285Y-82890415D01*
X140380380Y-82944634D01*
X140381479Y-82944576D01*
X140381526Y-82944571D01*
X140381526Y-82944573D01*
X140381704Y-82944564D01*
X140381881Y-82947876D01*
X140388288Y-83007483D01*
X140438582Y-83142328D01*
X140438586Y-83142335D01*
X140524832Y-83257544D01*
X140524835Y-83257547D01*
X140640044Y-83343793D01*
X140640051Y-83343797D01*
X140774897Y-83394091D01*
X140774896Y-83394091D01*
X140781824Y-83394835D01*
X140834507Y-83400500D01*
X142530252Y-83400499D01*
X142589863Y-83394091D01*
X142724711Y-83343796D01*
X142839926Y-83257546D01*
X142926176Y-83142331D01*
X142976471Y-83007483D01*
X142982880Y-82947873D01*
X142982879Y-81252128D01*
X142977002Y-81197454D01*
X142976471Y-81192516D01*
X142926177Y-81057671D01*
X142926173Y-81057664D01*
X142839927Y-80942455D01*
X142839924Y-80942452D01*
X142724715Y-80856206D01*
X142724708Y-80856202D01*
X142589862Y-80805908D01*
X142589863Y-80805908D01*
X142530263Y-80799501D01*
X142530261Y-80799500D01*
X142530253Y-80799500D01*
X142530244Y-80799500D01*
X140834509Y-80799500D01*
X140834503Y-80799501D01*
X140774896Y-80805908D01*
X140640051Y-80856202D01*
X140640044Y-80856206D01*
X140524835Y-80942452D01*
X140524832Y-80942455D01*
X140438586Y-81057664D01*
X140438582Y-81057671D01*
X140388288Y-81192517D01*
X140381881Y-81252116D01*
X140381881Y-81252123D01*
X140381702Y-81255452D01*
X140380121Y-81255367D01*
X140362195Y-81316419D01*
X140309391Y-81362174D01*
X140266106Y-81369824D01*
X139582380Y-82053551D01*
X139582380Y-82047339D01*
X139555121Y-81945606D01*
X139502460Y-81854394D01*
X139427986Y-81779920D01*
X139336774Y-81727259D01*
X139235041Y-81700000D01*
X139228826Y-81700000D01*
X139908302Y-81020524D01*
X139908301Y-81020523D01*
X139863739Y-80988147D01*
X139863730Y-80988141D01*
X139681411Y-80895244D01*
X139486797Y-80832009D01*
X139284697Y-80800000D01*
X139080063Y-80800000D01*
X138877962Y-80832009D01*
X138683348Y-80895244D01*
X138501024Y-80988143D01*
X138456457Y-81020523D01*
X138456457Y-81020524D01*
X139135934Y-81700000D01*
X139129719Y-81700000D01*
X139027986Y-81727259D01*
X138936774Y-81779920D01*
X138862300Y-81854394D01*
X138809639Y-81945606D01*
X138782380Y-82047339D01*
X138782380Y-82053553D01*
X138102904Y-81374077D01*
X138102903Y-81374077D01*
X138070523Y-81418644D01*
X137977624Y-81600968D01*
X137914389Y-81795582D01*
X137882380Y-81997682D01*
X135800500Y-81997682D01*
X135800500Y-76586431D01*
X135820185Y-76519392D01*
X135872989Y-76473637D01*
X135942147Y-76463693D01*
X135998813Y-76487166D01*
X136007669Y-76493796D01*
X136007670Y-76493796D01*
X136007671Y-76493797D01*
X136142517Y-76544091D01*
X136142516Y-76544091D01*
X136149444Y-76544835D01*
X136202127Y-76550500D01*
X137997872Y-76550499D01*
X138057483Y-76544091D01*
X138192331Y-76493796D01*
X138307546Y-76407546D01*
X138393796Y-76292331D01*
X138444091Y-76157483D01*
X138450500Y-76097873D01*
X138450499Y-74302128D01*
X138444091Y-74242517D01*
X138393796Y-74107669D01*
X138393749Y-74107607D01*
X138387165Y-74098810D01*
X138362748Y-74033346D01*
X138377600Y-73965073D01*
X138427005Y-73915668D01*
X138486432Y-73900500D01*
X179713568Y-73900500D01*
X179726491Y-73904294D01*
G37*
G04 #@! TD.AperFunction*
M02*
