G04 #@! TF.GenerationSoftware,KiCad,Pcbnew,9.0.1*
G04 #@! TF.CreationDate,2025-08-22T15:47:16+05:00*
G04 #@! TF.ProjectId,dc_boost_converter,64635f62-6f6f-4737-945f-636f6e766572,rev?*
G04 #@! TF.SameCoordinates,Original*
G04 #@! TF.FileFunction,Paste,Top*
G04 #@! TF.FilePolarity,Positive*
%FSLAX46Y46*%
G04 Gerber Fmt 4.6, Leading zero omitted, Abs format (unit mm)*
G04 Created by KiCad (PCBNEW 9.0.1) date 2025-08-22 15:47:16*
%MOMM*%
%LPD*%
G01*
G04 APERTURE LIST*
G04 Aperture macros list*
%AMRoundRect*
0 Rectangle with rounded corners*
0 $1 Rounding radius*
0 $2 $3 $4 $5 $6 $7 $8 $9 X,Y pos of 4 corners*
0 Add a 4 corners polygon primitive as box body*
4,1,4,$2,$3,$4,$5,$6,$7,$8,$9,$2,$3,0*
0 Add four circle primitives for the rounded corners*
1,1,$1+$1,$2,$3*
1,1,$1+$1,$4,$5*
1,1,$1+$1,$6,$7*
1,1,$1+$1,$8,$9*
0 Add four rect primitives between the rounded corners*
20,1,$1+$1,$2,$3,$4,$5,0*
20,1,$1+$1,$4,$5,$6,$7,0*
20,1,$1+$1,$6,$7,$8,$9,0*
20,1,$1+$1,$8,$9,$2,$3,0*%
G04 Aperture macros list end*
%ADD10C,0.010000*%
%ADD11R,2.900000X5.400000*%
%ADD12R,1.050000X3.210000*%
%ADD13RoundRect,0.250000X0.312500X0.625000X-0.312500X0.625000X-0.312500X-0.625000X0.312500X-0.625000X0*%
%ADD14RoundRect,0.250000X-0.250000X-0.475000X0.250000X-0.475000X0.250000X0.475000X-0.250000X0.475000X0*%
%ADD15RoundRect,0.250000X0.250000X0.475000X-0.250000X0.475000X-0.250000X-0.475000X0.250000X-0.475000X0*%
%ADD16RoundRect,0.250000X1.000000X0.650000X-1.000000X0.650000X-1.000000X-0.650000X1.000000X-0.650000X0*%
G04 APERTURE END LIST*
D10*
X146590000Y-76538500D02*
X145170000Y-76538500D01*
X145170000Y-75278500D01*
X146590000Y-75278500D01*
X146590000Y-76538500D01*
G36*
X146590000Y-76538500D02*
G01*
X145170000Y-76538500D01*
X145170000Y-75278500D01*
X146590000Y-75278500D01*
X146590000Y-76538500D01*
G37*
X146590000Y-78658500D02*
X145170000Y-78658500D01*
X145170000Y-77398500D01*
X146590000Y-77398500D01*
X146590000Y-78658500D01*
G36*
X146590000Y-78658500D02*
G01*
X145170000Y-78658500D01*
X145170000Y-77398500D01*
X146590000Y-77398500D01*
X146590000Y-78658500D01*
G37*
X146590000Y-80778500D02*
X145170000Y-80778500D01*
X145170000Y-79518500D01*
X146590000Y-79518500D01*
X146590000Y-80778500D01*
G36*
X146590000Y-80778500D02*
G01*
X145170000Y-80778500D01*
X145170000Y-79518500D01*
X146590000Y-79518500D01*
X146590000Y-80778500D01*
G37*
X146590000Y-82898500D02*
X145170000Y-82898500D01*
X145170000Y-81638500D01*
X146590000Y-81638500D01*
X146590000Y-82898500D01*
G36*
X146590000Y-82898500D02*
G01*
X145170000Y-82898500D01*
X145170000Y-81638500D01*
X146590000Y-81638500D01*
X146590000Y-82898500D01*
G37*
X148700000Y-76538500D02*
X147280000Y-76538500D01*
X147280000Y-75278500D01*
X148700000Y-75278500D01*
X148700000Y-76538500D01*
G36*
X148700000Y-76538500D02*
G01*
X147280000Y-76538500D01*
X147280000Y-75278500D01*
X148700000Y-75278500D01*
X148700000Y-76538500D01*
G37*
X148700000Y-78658500D02*
X147280000Y-78658500D01*
X147280000Y-77398500D01*
X148700000Y-77398500D01*
X148700000Y-78658500D01*
G36*
X148700000Y-78658500D02*
G01*
X147280000Y-78658500D01*
X147280000Y-77398500D01*
X148700000Y-77398500D01*
X148700000Y-78658500D01*
G37*
X148700000Y-80778500D02*
X147280000Y-80778500D01*
X147280000Y-79518500D01*
X148700000Y-79518500D01*
X148700000Y-80778500D01*
G36*
X148700000Y-80778500D02*
G01*
X147280000Y-80778500D01*
X147280000Y-79518500D01*
X148700000Y-79518500D01*
X148700000Y-80778500D01*
G37*
X148700000Y-82898500D02*
X147280000Y-82898500D01*
X147280000Y-81638500D01*
X148700000Y-81638500D01*
X148700000Y-82898500D01*
G36*
X148700000Y-82898500D02*
G01*
X147280000Y-82898500D01*
X147280000Y-81638500D01*
X148700000Y-81638500D01*
X148700000Y-82898500D01*
G37*
X150810000Y-76538500D02*
X149390000Y-76538500D01*
X149390000Y-75278500D01*
X150810000Y-75278500D01*
X150810000Y-76538500D01*
G36*
X150810000Y-76538500D02*
G01*
X149390000Y-76538500D01*
X149390000Y-75278500D01*
X150810000Y-75278500D01*
X150810000Y-76538500D01*
G37*
X150810000Y-78658500D02*
X149390000Y-78658500D01*
X149390000Y-77398500D01*
X150810000Y-77398500D01*
X150810000Y-78658500D01*
G36*
X150810000Y-78658500D02*
G01*
X149390000Y-78658500D01*
X149390000Y-77398500D01*
X150810000Y-77398500D01*
X150810000Y-78658500D01*
G37*
X150810000Y-80778500D02*
X149390000Y-80778500D01*
X149390000Y-79518500D01*
X150810000Y-79518500D01*
X150810000Y-80778500D01*
G36*
X150810000Y-80778500D02*
G01*
X149390000Y-80778500D01*
X149390000Y-79518500D01*
X150810000Y-79518500D01*
X150810000Y-80778500D01*
G37*
X150810000Y-82898500D02*
X149390000Y-82898500D01*
X149390000Y-81638500D01*
X150810000Y-81638500D01*
X150810000Y-82898500D01*
G36*
X150810000Y-82898500D02*
G01*
X149390000Y-82898500D01*
X149390000Y-81638500D01*
X150810000Y-81638500D01*
X150810000Y-82898500D01*
G37*
X152920000Y-76538500D02*
X151500000Y-76538500D01*
X151500000Y-75278500D01*
X152920000Y-75278500D01*
X152920000Y-76538500D01*
G36*
X152920000Y-76538500D02*
G01*
X151500000Y-76538500D01*
X151500000Y-75278500D01*
X152920000Y-75278500D01*
X152920000Y-76538500D01*
G37*
X152920000Y-78658500D02*
X151500000Y-78658500D01*
X151500000Y-77398500D01*
X152920000Y-77398500D01*
X152920000Y-78658500D01*
G36*
X152920000Y-78658500D02*
G01*
X151500000Y-78658500D01*
X151500000Y-77398500D01*
X152920000Y-77398500D01*
X152920000Y-78658500D01*
G37*
X152920000Y-80778500D02*
X151500000Y-80778500D01*
X151500000Y-79518500D01*
X152920000Y-79518500D01*
X152920000Y-80778500D01*
G36*
X152920000Y-80778500D02*
G01*
X151500000Y-80778500D01*
X151500000Y-79518500D01*
X152920000Y-79518500D01*
X152920000Y-80778500D01*
G37*
X152920000Y-82898500D02*
X151500000Y-82898500D01*
X151500000Y-81638500D01*
X152920000Y-81638500D01*
X152920000Y-82898500D01*
G36*
X152920000Y-82898500D02*
G01*
X151500000Y-82898500D01*
X151500000Y-81638500D01*
X152920000Y-81638500D01*
X152920000Y-82898500D01*
G37*
X155030000Y-76538500D02*
X153610000Y-76538500D01*
X153610000Y-75278500D01*
X155030000Y-75278500D01*
X155030000Y-76538500D01*
G36*
X155030000Y-76538500D02*
G01*
X153610000Y-76538500D01*
X153610000Y-75278500D01*
X155030000Y-75278500D01*
X155030000Y-76538500D01*
G37*
X155030000Y-78658500D02*
X153610000Y-78658500D01*
X153610000Y-77398500D01*
X155030000Y-77398500D01*
X155030000Y-78658500D01*
G36*
X155030000Y-78658500D02*
G01*
X153610000Y-78658500D01*
X153610000Y-77398500D01*
X155030000Y-77398500D01*
X155030000Y-78658500D01*
G37*
X155030000Y-80778500D02*
X153610000Y-80778500D01*
X153610000Y-79518500D01*
X155030000Y-79518500D01*
X155030000Y-80778500D01*
G36*
X155030000Y-80778500D02*
G01*
X153610000Y-80778500D01*
X153610000Y-79518500D01*
X155030000Y-79518500D01*
X155030000Y-80778500D01*
G37*
X155030000Y-82898500D02*
X153610000Y-82898500D01*
X153610000Y-81638500D01*
X155030000Y-81638500D01*
X155030000Y-82898500D01*
G36*
X155030000Y-82898500D02*
G01*
X153610000Y-82898500D01*
X153610000Y-81638500D01*
X155030000Y-81638500D01*
X155030000Y-82898500D01*
G37*
D11*
X159750000Y-81000000D03*
X169650000Y-81000000D03*
D12*
X146700000Y-88718500D03*
X148400000Y-88718500D03*
X150100000Y-88718500D03*
X151800000Y-88718500D03*
X153500000Y-88718500D03*
D13*
X157262500Y-92600000D03*
X154337500Y-92600000D03*
D14*
X173550000Y-77900000D03*
X175450000Y-77900000D03*
D15*
X142650000Y-87200000D03*
X140750000Y-87200000D03*
D16*
X143900000Y-90400000D03*
X139900000Y-90400000D03*
M02*
