M48
; DRILL file {KiCad 9.0.1} date 2025-08-22T15:46:59+0500
; FORMAT={-:-/ absolute / metric / decimal}
; #@! TF.CreationDate,2025-08-22T15:46:59+05:00
; #@! TF.GenerationSoftware,Kicad,Pcbnew,9.0.1
; #@! TF.FileFunction,Plated,1,2,PTH
FMAT,2
METRIC
; #@! TA.AperFunction,Plated,PTH,ViaDrill
T1C0.600
; #@! TA.AperFunction,Plated,PTH,ComponentDrill
T2C0.800
; #@! TA.AperFunction,Plated,PTH,ComponentDrill
T3C1.000
%
G90
G05
T1
X142.0Y-93.1
X144.6Y-87.6
X145.2Y-75.3
X145.2Y-76.2
X145.2Y-77.1
X145.2Y-78.0
X145.2Y-78.9
X145.2Y-79.8
X145.2Y-80.7
X145.2Y-81.6
X145.2Y-82.5
X145.2Y-83.4
X146.1Y-75.3
X146.1Y-76.2
X146.1Y-77.1
X146.1Y-78.0
X146.1Y-78.9
X146.1Y-79.8
X146.1Y-80.7
X146.1Y-81.6
X146.1Y-82.5
X146.1Y-83.4
X147.0Y-75.3
X147.0Y-76.2
X147.0Y-77.1
X147.0Y-78.0
X147.0Y-78.9
X147.0Y-79.8
X147.0Y-80.7
X147.0Y-81.6
X147.0Y-82.5
X147.0Y-83.4
X147.9Y-75.3
X147.9Y-76.2
X147.9Y-77.1
X147.9Y-78.0
X147.9Y-78.9
X147.9Y-79.8
X147.9Y-80.7
X147.9Y-81.6
X147.9Y-82.5
X147.9Y-83.4
X148.2Y-93.6
X148.8Y-75.3
X148.8Y-76.2
X148.8Y-77.1
X148.8Y-78.0
X148.8Y-78.9
X148.8Y-79.8
X148.8Y-80.7
X148.8Y-81.6
X148.8Y-82.5
X148.8Y-83.4
X149.7Y-75.3
X149.7Y-76.2
X149.7Y-77.1
X149.7Y-78.0
X149.7Y-78.9
X149.7Y-79.8
X149.7Y-80.7
X149.7Y-81.6
X149.7Y-82.5
X149.7Y-83.4
X150.6Y-75.3
X150.6Y-76.2
X150.6Y-77.1
X150.6Y-78.0
X150.6Y-78.9
X150.6Y-79.8
X150.6Y-80.7
X150.6Y-81.6
X150.6Y-82.5
X150.6Y-83.4
X151.5Y-75.3
X151.5Y-76.2
X151.5Y-77.1
X151.5Y-78.0
X151.5Y-78.9
X151.5Y-79.8
X151.5Y-80.7
X151.5Y-81.6
X151.5Y-82.5
X151.5Y-83.4
X152.4Y-75.3
X152.4Y-76.2
X152.4Y-77.1
X152.4Y-78.0
X152.4Y-78.9
X152.4Y-79.8
X152.4Y-80.7
X152.4Y-81.6
X152.4Y-82.5
X152.4Y-83.4
X153.3Y-75.3
X153.3Y-76.2
X153.3Y-77.1
X153.3Y-78.0
X153.3Y-78.9
X153.3Y-79.8
X153.3Y-80.7
X153.3Y-81.6
X153.3Y-82.5
X153.3Y-83.4
X153.9Y-84.9
X154.2Y-75.3
X154.2Y-76.2
X154.2Y-77.1
X154.2Y-78.0
X154.2Y-78.9
X154.2Y-79.8
X154.2Y-80.7
X154.2Y-81.6
X154.2Y-82.5
X154.2Y-83.4
X155.1Y-75.3
X155.1Y-76.2
X155.1Y-77.1
X155.1Y-78.0
X155.1Y-78.9
X155.1Y-79.8
X155.1Y-80.7
X155.1Y-81.6
X155.1Y-82.5
X155.1Y-83.4
X161.3Y-92.6
T2
X139.182Y-82.1
X141.682Y-82.1
X161.3Y-92.5
X163.84Y-92.5
X166.38Y-92.5
X174.518Y-83.5
X177.018Y-83.5
T3
X137.1Y-75.2
X137.1Y-94.1
X181.1Y-75.2
X181.1Y-94.2
M30
