M48
; DRILL file {KiCad 9.0.1} date 2025-08-23T10:31:37+0500
; FORMAT={-:-/ absolute / metric / decimal}
; #@! TF.CreationDate,2025-08-23T10:31:37+05:00
; #@! TF.GenerationSoftware,Kicad,Pcbnew,9.0.1
; #@! TF.FileFunction,Plated,1,2,PTH
FMAT,2
METRIC
; #@! TA.AperFunction,Plated,PTH,ComponentDrill
T1C0.200
; #@! TA.AperFunction,Plated,PTH,ViaDrill
T2C0.300
; #@! TA.AperFunction,Plated,PTH,ComponentDrill
T3C1.000
%
G90
G05
T1
X156.9Y-94.2
X156.9Y-95.7
X156.9Y-97.2
X158.4Y-94.2
X158.4Y-95.7
X158.4Y-97.2
T2
X150.8Y-96.6
X163.1Y-101.05
X163.75Y-90.95
X164.55Y-94.65
X166.1Y-99.06
T3
X148.45Y-89.54
X148.45Y-92.08
X148.45Y-94.62
X148.45Y-97.16
X148.45Y-99.7
X148.45Y-102.24
X168.95Y-89.52
X168.95Y-92.06
X168.95Y-94.6
X168.95Y-97.14
X168.95Y-99.68
X168.95Y-102.22
M30
