%TF.GenerationSoftware,KiCad,Pcbnew,9.0.1*%
%TF.CreationDate,2025-08-23T10:31:38+05:00*%
%TF.ProjectId,motor_driver,6d6f746f-725f-4647-9269-7665722e6b69,rev?*%
%TF.SameCoordinates,Original*%
%TF.FileFunction,Drillmap*%
%TF.FilePolarity,Positive*%
%FSLAX45Y45*%
G04 Gerber Fmt 4.5, Leading zero omitted, Abs format (unit mm)*
G04 Created by KiCad (PCBNEW 9.0.1) date 2025-08-23 10:31:38*
%MOMM*%
%LPD*%
G01*
G04 APERTURE LIST*
%ADD10C,0.050000*%
%ADD11C,0.200000*%
G04 APERTURE END LIST*
D10*
X14670000Y-8775000D02*
X17070000Y-8775000D01*
X17070000Y-10400000D01*
X14670000Y-10400000D01*
X14670000Y-8775000D01*
D11*
X14928277Y-10713984D02*
X14928277Y-10513984D01*
X14928277Y-10513984D02*
X14975896Y-10513984D01*
X14975896Y-10513984D02*
X15004467Y-10523508D01*
X15004467Y-10523508D02*
X15023515Y-10542555D01*
X15023515Y-10542555D02*
X15033039Y-10561603D01*
X15033039Y-10561603D02*
X15042562Y-10599698D01*
X15042562Y-10599698D02*
X15042562Y-10628270D01*
X15042562Y-10628270D02*
X15033039Y-10666365D01*
X15033039Y-10666365D02*
X15023515Y-10685412D01*
X15023515Y-10685412D02*
X15004467Y-10704460D01*
X15004467Y-10704460D02*
X14975896Y-10713984D01*
X14975896Y-10713984D02*
X14928277Y-10713984D01*
X15128277Y-10713984D02*
X15128277Y-10580650D01*
X15128277Y-10618746D02*
X15137801Y-10599698D01*
X15137801Y-10599698D02*
X15147324Y-10590174D01*
X15147324Y-10590174D02*
X15166372Y-10580650D01*
X15166372Y-10580650D02*
X15185420Y-10580650D01*
X15252086Y-10713984D02*
X15252086Y-10580650D01*
X15252086Y-10513984D02*
X15242562Y-10523508D01*
X15242562Y-10523508D02*
X15252086Y-10533031D01*
X15252086Y-10533031D02*
X15261610Y-10523508D01*
X15261610Y-10523508D02*
X15252086Y-10513984D01*
X15252086Y-10513984D02*
X15252086Y-10533031D01*
X15375896Y-10713984D02*
X15356848Y-10704460D01*
X15356848Y-10704460D02*
X15347324Y-10685412D01*
X15347324Y-10685412D02*
X15347324Y-10513984D01*
X15480658Y-10713984D02*
X15461610Y-10704460D01*
X15461610Y-10704460D02*
X15452086Y-10685412D01*
X15452086Y-10685412D02*
X15452086Y-10513984D01*
X15709229Y-10713984D02*
X15709229Y-10513984D01*
X15709229Y-10513984D02*
X15775896Y-10656841D01*
X15775896Y-10656841D02*
X15842562Y-10513984D01*
X15842562Y-10513984D02*
X15842562Y-10713984D01*
X16023515Y-10713984D02*
X16023515Y-10609222D01*
X16023515Y-10609222D02*
X16013991Y-10590174D01*
X16013991Y-10590174D02*
X15994943Y-10580650D01*
X15994943Y-10580650D02*
X15956848Y-10580650D01*
X15956848Y-10580650D02*
X15937801Y-10590174D01*
X16023515Y-10704460D02*
X16004467Y-10713984D01*
X16004467Y-10713984D02*
X15956848Y-10713984D01*
X15956848Y-10713984D02*
X15937801Y-10704460D01*
X15937801Y-10704460D02*
X15928277Y-10685412D01*
X15928277Y-10685412D02*
X15928277Y-10666365D01*
X15928277Y-10666365D02*
X15937801Y-10647317D01*
X15937801Y-10647317D02*
X15956848Y-10637793D01*
X15956848Y-10637793D02*
X16004467Y-10637793D01*
X16004467Y-10637793D02*
X16023515Y-10628270D01*
X16118753Y-10580650D02*
X16118753Y-10780650D01*
X16118753Y-10590174D02*
X16137801Y-10580650D01*
X16137801Y-10580650D02*
X16175896Y-10580650D01*
X16175896Y-10580650D02*
X16194943Y-10590174D01*
X16194943Y-10590174D02*
X16204467Y-10599698D01*
X16204467Y-10599698D02*
X16213991Y-10618746D01*
X16213991Y-10618746D02*
X16213991Y-10675889D01*
X16213991Y-10675889D02*
X16204467Y-10694936D01*
X16204467Y-10694936D02*
X16194943Y-10704460D01*
X16194943Y-10704460D02*
X16175896Y-10713984D01*
X16175896Y-10713984D02*
X16137801Y-10713984D01*
X16137801Y-10713984D02*
X16118753Y-10704460D01*
X16299705Y-10694936D02*
X16309229Y-10704460D01*
X16309229Y-10704460D02*
X16299705Y-10713984D01*
X16299705Y-10713984D02*
X16290182Y-10704460D01*
X16290182Y-10704460D02*
X16299705Y-10694936D01*
X16299705Y-10694936D02*
X16299705Y-10713984D01*
X16299705Y-10590174D02*
X16309229Y-10599698D01*
X16309229Y-10599698D02*
X16299705Y-10609222D01*
X16299705Y-10609222D02*
X16290182Y-10599698D01*
X16290182Y-10599698D02*
X16299705Y-10590174D01*
X16299705Y-10590174D02*
X16299705Y-10609222D01*
M02*
