G04 #@! TF.GenerationSoftware,KiCad,Pcbnew,9.0.1*
G04 #@! TF.CreationDate,2025-08-23T10:31:58+05:00*
G04 #@! TF.ProjectId,motor_driver,6d6f746f-725f-4647-9269-7665722e6b69,rev?*
G04 #@! TF.SameCoordinates,Original*
G04 #@! TF.FileFunction,Legend,Bot*
G04 #@! TF.FilePolarity,Positive*
%FSLAX46Y46*%
G04 Gerber Fmt 4.6, Leading zero omitted, Abs format (unit mm)*
G04 Created by KiCad (PCBNEW 9.0.1) date 2025-08-23 10:31:58*
%MOMM*%
%LPD*%
G01*
G04 APERTURE LIST*
%ADD10C,0.100000*%
%ADD11R,1.700000X1.700000*%
%ADD12C,1.700000*%
G04 APERTURE END LIST*
D10*
X166738972Y-102248609D02*
X166596115Y-102296228D01*
X166596115Y-102296228D02*
X166548496Y-102343847D01*
X166548496Y-102343847D02*
X166500877Y-102439085D01*
X166500877Y-102439085D02*
X166500877Y-102581942D01*
X166500877Y-102581942D02*
X166548496Y-102677180D01*
X166548496Y-102677180D02*
X166596115Y-102724800D01*
X166596115Y-102724800D02*
X166691353Y-102772419D01*
X166691353Y-102772419D02*
X167072305Y-102772419D01*
X167072305Y-102772419D02*
X167072305Y-101772419D01*
X167072305Y-101772419D02*
X166738972Y-101772419D01*
X166738972Y-101772419D02*
X166643734Y-101820038D01*
X166643734Y-101820038D02*
X166596115Y-101867657D01*
X166596115Y-101867657D02*
X166548496Y-101962895D01*
X166548496Y-101962895D02*
X166548496Y-102058133D01*
X166548496Y-102058133D02*
X166596115Y-102153371D01*
X166596115Y-102153371D02*
X166643734Y-102200990D01*
X166643734Y-102200990D02*
X166738972Y-102248609D01*
X166738972Y-102248609D02*
X167072305Y-102248609D01*
X166072305Y-102772419D02*
X166072305Y-101772419D01*
X165596115Y-102772419D02*
X165596115Y-101772419D01*
X165596115Y-101772419D02*
X165024687Y-102772419D01*
X165024687Y-102772419D02*
X165024687Y-101772419D01*
X164596115Y-101867657D02*
X164548496Y-101820038D01*
X164548496Y-101820038D02*
X164453258Y-101772419D01*
X164453258Y-101772419D02*
X164215163Y-101772419D01*
X164215163Y-101772419D02*
X164119925Y-101820038D01*
X164119925Y-101820038D02*
X164072306Y-101867657D01*
X164072306Y-101867657D02*
X164024687Y-101962895D01*
X164024687Y-101962895D02*
X164024687Y-102058133D01*
X164024687Y-102058133D02*
X164072306Y-102200990D01*
X164072306Y-102200990D02*
X164643734Y-102772419D01*
X164643734Y-102772419D02*
X164024687Y-102772419D01*
X166738972Y-99948609D02*
X166596115Y-99996228D01*
X166596115Y-99996228D02*
X166548496Y-100043847D01*
X166548496Y-100043847D02*
X166500877Y-100139085D01*
X166500877Y-100139085D02*
X166500877Y-100281942D01*
X166500877Y-100281942D02*
X166548496Y-100377180D01*
X166548496Y-100377180D02*
X166596115Y-100424800D01*
X166596115Y-100424800D02*
X166691353Y-100472419D01*
X166691353Y-100472419D02*
X167072305Y-100472419D01*
X167072305Y-100472419D02*
X167072305Y-99472419D01*
X167072305Y-99472419D02*
X166738972Y-99472419D01*
X166738972Y-99472419D02*
X166643734Y-99520038D01*
X166643734Y-99520038D02*
X166596115Y-99567657D01*
X166596115Y-99567657D02*
X166548496Y-99662895D01*
X166548496Y-99662895D02*
X166548496Y-99758133D01*
X166548496Y-99758133D02*
X166596115Y-99853371D01*
X166596115Y-99853371D02*
X166643734Y-99900990D01*
X166643734Y-99900990D02*
X166738972Y-99948609D01*
X166738972Y-99948609D02*
X167072305Y-99948609D01*
X166072305Y-100472419D02*
X166072305Y-99472419D01*
X165596115Y-100472419D02*
X165596115Y-99472419D01*
X165596115Y-99472419D02*
X165024687Y-100472419D01*
X165024687Y-100472419D02*
X165024687Y-99472419D01*
X164024687Y-100472419D02*
X164596115Y-100472419D01*
X164310401Y-100472419D02*
X164310401Y-99472419D01*
X164310401Y-99472419D02*
X164405639Y-99615276D01*
X164405639Y-99615276D02*
X164500877Y-99710514D01*
X164500877Y-99710514D02*
X164596115Y-99758133D01*
X166119925Y-96720038D02*
X166215163Y-96672419D01*
X166215163Y-96672419D02*
X166358020Y-96672419D01*
X166358020Y-96672419D02*
X166500877Y-96720038D01*
X166500877Y-96720038D02*
X166596115Y-96815276D01*
X166596115Y-96815276D02*
X166643734Y-96910514D01*
X166643734Y-96910514D02*
X166691353Y-97100990D01*
X166691353Y-97100990D02*
X166691353Y-97243847D01*
X166691353Y-97243847D02*
X166643734Y-97434323D01*
X166643734Y-97434323D02*
X166596115Y-97529561D01*
X166596115Y-97529561D02*
X166500877Y-97624800D01*
X166500877Y-97624800D02*
X166358020Y-97672419D01*
X166358020Y-97672419D02*
X166262782Y-97672419D01*
X166262782Y-97672419D02*
X166119925Y-97624800D01*
X166119925Y-97624800D02*
X166072306Y-97577180D01*
X166072306Y-97577180D02*
X166072306Y-97243847D01*
X166072306Y-97243847D02*
X166262782Y-97243847D01*
X165643734Y-97672419D02*
X165643734Y-96672419D01*
X165643734Y-96672419D02*
X165072306Y-97672419D01*
X165072306Y-97672419D02*
X165072306Y-96672419D01*
X164596115Y-97672419D02*
X164596115Y-96672419D01*
X164596115Y-96672419D02*
X164358020Y-96672419D01*
X164358020Y-96672419D02*
X164215163Y-96720038D01*
X164215163Y-96720038D02*
X164119925Y-96815276D01*
X164119925Y-96815276D02*
X164072306Y-96910514D01*
X164072306Y-96910514D02*
X164024687Y-97100990D01*
X164024687Y-97100990D02*
X164024687Y-97243847D01*
X164024687Y-97243847D02*
X164072306Y-97434323D01*
X164072306Y-97434323D02*
X164119925Y-97529561D01*
X164119925Y-97529561D02*
X164215163Y-97624800D01*
X164215163Y-97624800D02*
X164358020Y-97672419D01*
X164358020Y-97672419D02*
X164596115Y-97672419D01*
X166596115Y-94072419D02*
X166262782Y-95072419D01*
X166262782Y-95072419D02*
X165929449Y-94072419D01*
X165024687Y-94977180D02*
X165072306Y-95024800D01*
X165072306Y-95024800D02*
X165215163Y-95072419D01*
X165215163Y-95072419D02*
X165310401Y-95072419D01*
X165310401Y-95072419D02*
X165453258Y-95024800D01*
X165453258Y-95024800D02*
X165548496Y-94929561D01*
X165548496Y-94929561D02*
X165596115Y-94834323D01*
X165596115Y-94834323D02*
X165643734Y-94643847D01*
X165643734Y-94643847D02*
X165643734Y-94500990D01*
X165643734Y-94500990D02*
X165596115Y-94310514D01*
X165596115Y-94310514D02*
X165548496Y-94215276D01*
X165548496Y-94215276D02*
X165453258Y-94120038D01*
X165453258Y-94120038D02*
X165310401Y-94072419D01*
X165310401Y-94072419D02*
X165215163Y-94072419D01*
X165215163Y-94072419D02*
X165072306Y-94120038D01*
X165072306Y-94120038D02*
X165024687Y-94167657D01*
X164024687Y-94977180D02*
X164072306Y-95024800D01*
X164072306Y-95024800D02*
X164215163Y-95072419D01*
X164215163Y-95072419D02*
X164310401Y-95072419D01*
X164310401Y-95072419D02*
X164453258Y-95024800D01*
X164453258Y-95024800D02*
X164548496Y-94929561D01*
X164548496Y-94929561D02*
X164596115Y-94834323D01*
X164596115Y-94834323D02*
X164643734Y-94643847D01*
X164643734Y-94643847D02*
X164643734Y-94500990D01*
X164643734Y-94500990D02*
X164596115Y-94310514D01*
X164596115Y-94310514D02*
X164548496Y-94215276D01*
X164548496Y-94215276D02*
X164453258Y-94120038D01*
X164453258Y-94120038D02*
X164310401Y-94072419D01*
X164310401Y-94072419D02*
X164215163Y-94072419D01*
X164215163Y-94072419D02*
X164072306Y-94120038D01*
X164072306Y-94120038D02*
X164024687Y-94167657D01*
X166977067Y-92386704D02*
X166500877Y-92386704D01*
X167072305Y-92672419D02*
X166738972Y-91672419D01*
X166738972Y-91672419D02*
X166405639Y-92672419D01*
X166072305Y-92672419D02*
X166072305Y-91672419D01*
X165596115Y-92672419D02*
X165596115Y-91672419D01*
X165596115Y-91672419D02*
X165024687Y-92672419D01*
X165024687Y-92672419D02*
X165024687Y-91672419D01*
X164596115Y-91767657D02*
X164548496Y-91720038D01*
X164548496Y-91720038D02*
X164453258Y-91672419D01*
X164453258Y-91672419D02*
X164215163Y-91672419D01*
X164215163Y-91672419D02*
X164119925Y-91720038D01*
X164119925Y-91720038D02*
X164072306Y-91767657D01*
X164072306Y-91767657D02*
X164024687Y-91862895D01*
X164024687Y-91862895D02*
X164024687Y-91958133D01*
X164024687Y-91958133D02*
X164072306Y-92100990D01*
X164072306Y-92100990D02*
X164643734Y-92672419D01*
X164643734Y-92672419D02*
X164024687Y-92672419D01*
X166977067Y-89836704D02*
X166500877Y-89836704D01*
X167072305Y-90122419D02*
X166738972Y-89122419D01*
X166738972Y-89122419D02*
X166405639Y-90122419D01*
X166072305Y-90122419D02*
X166072305Y-89122419D01*
X165596115Y-90122419D02*
X165596115Y-89122419D01*
X165596115Y-89122419D02*
X165024687Y-90122419D01*
X165024687Y-90122419D02*
X165024687Y-89122419D01*
X164024687Y-90122419D02*
X164596115Y-90122419D01*
X164310401Y-90122419D02*
X164310401Y-89122419D01*
X164310401Y-89122419D02*
X164405639Y-89265276D01*
X164405639Y-89265276D02*
X164500877Y-89360514D01*
X164500877Y-89360514D02*
X164596115Y-89408133D01*
X153738973Y-102248609D02*
X154072306Y-102248609D01*
X154072306Y-102772419D02*
X154072306Y-101772419D01*
X154072306Y-101772419D02*
X153596116Y-101772419D01*
X153262782Y-102486704D02*
X152786592Y-102486704D01*
X153358020Y-102772419D02*
X153024687Y-101772419D01*
X153024687Y-101772419D02*
X152691354Y-102772419D01*
X152358020Y-101772419D02*
X152358020Y-102581942D01*
X152358020Y-102581942D02*
X152310401Y-102677180D01*
X152310401Y-102677180D02*
X152262782Y-102724800D01*
X152262782Y-102724800D02*
X152167544Y-102772419D01*
X152167544Y-102772419D02*
X151977068Y-102772419D01*
X151977068Y-102772419D02*
X151881830Y-102724800D01*
X151881830Y-102724800D02*
X151834211Y-102677180D01*
X151834211Y-102677180D02*
X151786592Y-102581942D01*
X151786592Y-102581942D02*
X151786592Y-101772419D01*
X150834211Y-102772419D02*
X151310401Y-102772419D01*
X151310401Y-102772419D02*
X151310401Y-101772419D01*
X150643734Y-101772419D02*
X150072306Y-101772419D01*
X150358020Y-102772419D02*
X150358020Y-101772419D01*
X154215163Y-97148609D02*
X154072306Y-97196228D01*
X154072306Y-97196228D02*
X154024687Y-97243847D01*
X154024687Y-97243847D02*
X153977068Y-97339085D01*
X153977068Y-97339085D02*
X153977068Y-97481942D01*
X153977068Y-97481942D02*
X154024687Y-97577180D01*
X154024687Y-97577180D02*
X154072306Y-97624800D01*
X154072306Y-97624800D02*
X154167544Y-97672419D01*
X154167544Y-97672419D02*
X154548496Y-97672419D01*
X154548496Y-97672419D02*
X154548496Y-96672419D01*
X154548496Y-96672419D02*
X154215163Y-96672419D01*
X154215163Y-96672419D02*
X154119925Y-96720038D01*
X154119925Y-96720038D02*
X154072306Y-96767657D01*
X154072306Y-96767657D02*
X154024687Y-96862895D01*
X154024687Y-96862895D02*
X154024687Y-96958133D01*
X154024687Y-96958133D02*
X154072306Y-97053371D01*
X154072306Y-97053371D02*
X154119925Y-97100990D01*
X154119925Y-97100990D02*
X154215163Y-97148609D01*
X154215163Y-97148609D02*
X154548496Y-97148609D01*
X153358020Y-96672419D02*
X153167544Y-96672419D01*
X153167544Y-96672419D02*
X153072306Y-96720038D01*
X153072306Y-96720038D02*
X152977068Y-96815276D01*
X152977068Y-96815276D02*
X152929449Y-97005752D01*
X152929449Y-97005752D02*
X152929449Y-97339085D01*
X152929449Y-97339085D02*
X152977068Y-97529561D01*
X152977068Y-97529561D02*
X153072306Y-97624800D01*
X153072306Y-97624800D02*
X153167544Y-97672419D01*
X153167544Y-97672419D02*
X153358020Y-97672419D01*
X153358020Y-97672419D02*
X153453258Y-97624800D01*
X153453258Y-97624800D02*
X153548496Y-97529561D01*
X153548496Y-97529561D02*
X153596115Y-97339085D01*
X153596115Y-97339085D02*
X153596115Y-97005752D01*
X153596115Y-97005752D02*
X153548496Y-96815276D01*
X153548496Y-96815276D02*
X153453258Y-96720038D01*
X153453258Y-96720038D02*
X153358020Y-96672419D01*
X152500877Y-96672419D02*
X152500877Y-97481942D01*
X152500877Y-97481942D02*
X152453258Y-97577180D01*
X152453258Y-97577180D02*
X152405639Y-97624800D01*
X152405639Y-97624800D02*
X152310401Y-97672419D01*
X152310401Y-97672419D02*
X152119925Y-97672419D01*
X152119925Y-97672419D02*
X152024687Y-97624800D01*
X152024687Y-97624800D02*
X151977068Y-97577180D01*
X151977068Y-97577180D02*
X151929449Y-97481942D01*
X151929449Y-97481942D02*
X151929449Y-96672419D01*
X151596115Y-96672419D02*
X151024687Y-96672419D01*
X151310401Y-97672419D02*
X151310401Y-96672419D01*
X150167544Y-97672419D02*
X150738972Y-97672419D01*
X150453258Y-97672419D02*
X150453258Y-96672419D01*
X150453258Y-96672419D02*
X150548496Y-96815276D01*
X150548496Y-96815276D02*
X150643734Y-96910514D01*
X150643734Y-96910514D02*
X150738972Y-96958133D01*
X154215163Y-99548609D02*
X154072306Y-99596228D01*
X154072306Y-99596228D02*
X154024687Y-99643847D01*
X154024687Y-99643847D02*
X153977068Y-99739085D01*
X153977068Y-99739085D02*
X153977068Y-99881942D01*
X153977068Y-99881942D02*
X154024687Y-99977180D01*
X154024687Y-99977180D02*
X154072306Y-100024800D01*
X154072306Y-100024800D02*
X154167544Y-100072419D01*
X154167544Y-100072419D02*
X154548496Y-100072419D01*
X154548496Y-100072419D02*
X154548496Y-99072419D01*
X154548496Y-99072419D02*
X154215163Y-99072419D01*
X154215163Y-99072419D02*
X154119925Y-99120038D01*
X154119925Y-99120038D02*
X154072306Y-99167657D01*
X154072306Y-99167657D02*
X154024687Y-99262895D01*
X154024687Y-99262895D02*
X154024687Y-99358133D01*
X154024687Y-99358133D02*
X154072306Y-99453371D01*
X154072306Y-99453371D02*
X154119925Y-99500990D01*
X154119925Y-99500990D02*
X154215163Y-99548609D01*
X154215163Y-99548609D02*
X154548496Y-99548609D01*
X153358020Y-99072419D02*
X153167544Y-99072419D01*
X153167544Y-99072419D02*
X153072306Y-99120038D01*
X153072306Y-99120038D02*
X152977068Y-99215276D01*
X152977068Y-99215276D02*
X152929449Y-99405752D01*
X152929449Y-99405752D02*
X152929449Y-99739085D01*
X152929449Y-99739085D02*
X152977068Y-99929561D01*
X152977068Y-99929561D02*
X153072306Y-100024800D01*
X153072306Y-100024800D02*
X153167544Y-100072419D01*
X153167544Y-100072419D02*
X153358020Y-100072419D01*
X153358020Y-100072419D02*
X153453258Y-100024800D01*
X153453258Y-100024800D02*
X153548496Y-99929561D01*
X153548496Y-99929561D02*
X153596115Y-99739085D01*
X153596115Y-99739085D02*
X153596115Y-99405752D01*
X153596115Y-99405752D02*
X153548496Y-99215276D01*
X153548496Y-99215276D02*
X153453258Y-99120038D01*
X153453258Y-99120038D02*
X153358020Y-99072419D01*
X152500877Y-99072419D02*
X152500877Y-99881942D01*
X152500877Y-99881942D02*
X152453258Y-99977180D01*
X152453258Y-99977180D02*
X152405639Y-100024800D01*
X152405639Y-100024800D02*
X152310401Y-100072419D01*
X152310401Y-100072419D02*
X152119925Y-100072419D01*
X152119925Y-100072419D02*
X152024687Y-100024800D01*
X152024687Y-100024800D02*
X151977068Y-99977180D01*
X151977068Y-99977180D02*
X151929449Y-99881942D01*
X151929449Y-99881942D02*
X151929449Y-99072419D01*
X151596115Y-99072419D02*
X151024687Y-99072419D01*
X151310401Y-100072419D02*
X151310401Y-99072419D01*
X150738972Y-99167657D02*
X150691353Y-99120038D01*
X150691353Y-99120038D02*
X150596115Y-99072419D01*
X150596115Y-99072419D02*
X150358020Y-99072419D01*
X150358020Y-99072419D02*
X150262782Y-99120038D01*
X150262782Y-99120038D02*
X150215163Y-99167657D01*
X150215163Y-99167657D02*
X150167544Y-99262895D01*
X150167544Y-99262895D02*
X150167544Y-99358133D01*
X150167544Y-99358133D02*
X150215163Y-99500990D01*
X150215163Y-99500990D02*
X150786591Y-100072419D01*
X150786591Y-100072419D02*
X150167544Y-100072419D01*
X154453258Y-94886704D02*
X153977068Y-94886704D01*
X154548496Y-95172419D02*
X154215163Y-94172419D01*
X154215163Y-94172419D02*
X153881830Y-95172419D01*
X153358020Y-94172419D02*
X153167544Y-94172419D01*
X153167544Y-94172419D02*
X153072306Y-94220038D01*
X153072306Y-94220038D02*
X152977068Y-94315276D01*
X152977068Y-94315276D02*
X152929449Y-94505752D01*
X152929449Y-94505752D02*
X152929449Y-94839085D01*
X152929449Y-94839085D02*
X152977068Y-95029561D01*
X152977068Y-95029561D02*
X153072306Y-95124800D01*
X153072306Y-95124800D02*
X153167544Y-95172419D01*
X153167544Y-95172419D02*
X153358020Y-95172419D01*
X153358020Y-95172419D02*
X153453258Y-95124800D01*
X153453258Y-95124800D02*
X153548496Y-95029561D01*
X153548496Y-95029561D02*
X153596115Y-94839085D01*
X153596115Y-94839085D02*
X153596115Y-94505752D01*
X153596115Y-94505752D02*
X153548496Y-94315276D01*
X153548496Y-94315276D02*
X153453258Y-94220038D01*
X153453258Y-94220038D02*
X153358020Y-94172419D01*
X152500877Y-94172419D02*
X152500877Y-94981942D01*
X152500877Y-94981942D02*
X152453258Y-95077180D01*
X152453258Y-95077180D02*
X152405639Y-95124800D01*
X152405639Y-95124800D02*
X152310401Y-95172419D01*
X152310401Y-95172419D02*
X152119925Y-95172419D01*
X152119925Y-95172419D02*
X152024687Y-95124800D01*
X152024687Y-95124800D02*
X151977068Y-95077180D01*
X151977068Y-95077180D02*
X151929449Y-94981942D01*
X151929449Y-94981942D02*
X151929449Y-94172419D01*
X151596115Y-94172419D02*
X151024687Y-94172419D01*
X151310401Y-95172419D02*
X151310401Y-94172419D01*
X150738972Y-94267657D02*
X150691353Y-94220038D01*
X150691353Y-94220038D02*
X150596115Y-94172419D01*
X150596115Y-94172419D02*
X150358020Y-94172419D01*
X150358020Y-94172419D02*
X150262782Y-94220038D01*
X150262782Y-94220038D02*
X150215163Y-94267657D01*
X150215163Y-94267657D02*
X150167544Y-94362895D01*
X150167544Y-94362895D02*
X150167544Y-94458133D01*
X150167544Y-94458133D02*
X150215163Y-94600990D01*
X150215163Y-94600990D02*
X150786591Y-95172419D01*
X150786591Y-95172419D02*
X150167544Y-95172419D01*
X154453258Y-92486704D02*
X153977068Y-92486704D01*
X154548496Y-92772419D02*
X154215163Y-91772419D01*
X154215163Y-91772419D02*
X153881830Y-92772419D01*
X153358020Y-91772419D02*
X153167544Y-91772419D01*
X153167544Y-91772419D02*
X153072306Y-91820038D01*
X153072306Y-91820038D02*
X152977068Y-91915276D01*
X152977068Y-91915276D02*
X152929449Y-92105752D01*
X152929449Y-92105752D02*
X152929449Y-92439085D01*
X152929449Y-92439085D02*
X152977068Y-92629561D01*
X152977068Y-92629561D02*
X153072306Y-92724800D01*
X153072306Y-92724800D02*
X153167544Y-92772419D01*
X153167544Y-92772419D02*
X153358020Y-92772419D01*
X153358020Y-92772419D02*
X153453258Y-92724800D01*
X153453258Y-92724800D02*
X153548496Y-92629561D01*
X153548496Y-92629561D02*
X153596115Y-92439085D01*
X153596115Y-92439085D02*
X153596115Y-92105752D01*
X153596115Y-92105752D02*
X153548496Y-91915276D01*
X153548496Y-91915276D02*
X153453258Y-91820038D01*
X153453258Y-91820038D02*
X153358020Y-91772419D01*
X152500877Y-91772419D02*
X152500877Y-92581942D01*
X152500877Y-92581942D02*
X152453258Y-92677180D01*
X152453258Y-92677180D02*
X152405639Y-92724800D01*
X152405639Y-92724800D02*
X152310401Y-92772419D01*
X152310401Y-92772419D02*
X152119925Y-92772419D01*
X152119925Y-92772419D02*
X152024687Y-92724800D01*
X152024687Y-92724800D02*
X151977068Y-92677180D01*
X151977068Y-92677180D02*
X151929449Y-92581942D01*
X151929449Y-92581942D02*
X151929449Y-91772419D01*
X151596115Y-91772419D02*
X151024687Y-91772419D01*
X151310401Y-92772419D02*
X151310401Y-91772419D01*
X150167544Y-92772419D02*
X150738972Y-92772419D01*
X150453258Y-92772419D02*
X150453258Y-91772419D01*
X150453258Y-91772419D02*
X150548496Y-91915276D01*
X150548496Y-91915276D02*
X150643734Y-92010514D01*
X150643734Y-92010514D02*
X150738972Y-92058133D01*
X154358020Y-90124800D02*
X154215163Y-90172419D01*
X154215163Y-90172419D02*
X153977068Y-90172419D01*
X153977068Y-90172419D02*
X153881830Y-90124800D01*
X153881830Y-90124800D02*
X153834211Y-90077180D01*
X153834211Y-90077180D02*
X153786592Y-89981942D01*
X153786592Y-89981942D02*
X153786592Y-89886704D01*
X153786592Y-89886704D02*
X153834211Y-89791466D01*
X153834211Y-89791466D02*
X153881830Y-89743847D01*
X153881830Y-89743847D02*
X153977068Y-89696228D01*
X153977068Y-89696228D02*
X154167544Y-89648609D01*
X154167544Y-89648609D02*
X154262782Y-89600990D01*
X154262782Y-89600990D02*
X154310401Y-89553371D01*
X154310401Y-89553371D02*
X154358020Y-89458133D01*
X154358020Y-89458133D02*
X154358020Y-89362895D01*
X154358020Y-89362895D02*
X154310401Y-89267657D01*
X154310401Y-89267657D02*
X154262782Y-89220038D01*
X154262782Y-89220038D02*
X154167544Y-89172419D01*
X154167544Y-89172419D02*
X153929449Y-89172419D01*
X153929449Y-89172419D02*
X153786592Y-89220038D01*
X152881830Y-90172419D02*
X153358020Y-90172419D01*
X153358020Y-90172419D02*
X153358020Y-89172419D01*
X152548496Y-89648609D02*
X152215163Y-89648609D01*
X152072306Y-90172419D02*
X152548496Y-90172419D01*
X152548496Y-90172419D02*
X152548496Y-89172419D01*
X152548496Y-89172419D02*
X152072306Y-89172419D01*
X151643734Y-89648609D02*
X151310401Y-89648609D01*
X151167544Y-90172419D02*
X151643734Y-90172419D01*
X151643734Y-90172419D02*
X151643734Y-89172419D01*
X151643734Y-89172419D02*
X151167544Y-89172419D01*
X150738972Y-90172419D02*
X150738972Y-89172419D01*
X150738972Y-89172419D02*
X150358020Y-89172419D01*
X150358020Y-89172419D02*
X150262782Y-89220038D01*
X150262782Y-89220038D02*
X150215163Y-89267657D01*
X150215163Y-89267657D02*
X150167544Y-89362895D01*
X150167544Y-89362895D02*
X150167544Y-89505752D01*
X150167544Y-89505752D02*
X150215163Y-89600990D01*
X150215163Y-89600990D02*
X150262782Y-89648609D01*
X150262782Y-89648609D02*
X150358020Y-89696228D01*
X150358020Y-89696228D02*
X150738972Y-89696228D01*
%LPC*%
D11*
X148450000Y-89540000D03*
D12*
X148450000Y-92080000D03*
X148450000Y-94620000D03*
X148450000Y-97160000D03*
X148450000Y-99700000D03*
X148450000Y-102240000D03*
D11*
X168950000Y-89520000D03*
D12*
X168950000Y-92060000D03*
X168950000Y-94600000D03*
X168950000Y-97140000D03*
X168950000Y-99680000D03*
X168950000Y-102220000D03*
%LPD*%
M02*
