G04 #@! TF.GenerationSoftware,KiCad,Pcbnew,9.0.1*
G04 #@! TF.CreationDate,2025-08-23T10:31:58+05:00*
G04 #@! TF.ProjectId,motor_driver,6d6f746f-725f-4647-9269-7665722e6b69,rev?*
G04 #@! TF.SameCoordinates,Original*
G04 #@! TF.FileFunction,Copper,L1,Top*
G04 #@! TF.FilePolarity,Positive*
%FSLAX46Y46*%
G04 Gerber Fmt 4.6, Leading zero omitted, Abs format (unit mm)*
G04 Created by KiCad (PCBNEW 9.0.1) date 2025-08-23 10:31:58*
%MOMM*%
%LPD*%
G01*
G04 APERTURE LIST*
G04 Aperture macros list*
%AMRoundRect*
0 Rectangle with rounded corners*
0 $1 Rounding radius*
0 $2 $3 $4 $5 $6 $7 $8 $9 X,Y pos of 4 corners*
0 Add a 4 corners polygon primitive as box body*
4,1,4,$2,$3,$4,$5,$6,$7,$8,$9,$2,$3,0*
0 Add four circle primitives for the rounded corners*
1,1,$1+$1,$2,$3*
1,1,$1+$1,$4,$5*
1,1,$1+$1,$6,$7*
1,1,$1+$1,$8,$9*
0 Add four rect primitives between the rounded corners*
20,1,$1+$1,$2,$3,$4,$5,0*
20,1,$1+$1,$4,$5,$6,$7,0*
20,1,$1+$1,$6,$7,$8,$9,0*
20,1,$1+$1,$8,$9,$2,$3,0*%
G04 Aperture macros list end*
G04 #@! TA.AperFunction,ComponentPad*
%ADD10R,1.700000X1.700000*%
G04 #@! TD*
G04 #@! TA.AperFunction,ComponentPad*
%ADD11C,1.700000*%
G04 #@! TD*
G04 #@! TA.AperFunction,SMDPad,CuDef*
%ADD12RoundRect,0.250000X-0.250000X-0.475000X0.250000X-0.475000X0.250000X0.475000X-0.250000X0.475000X0*%
G04 #@! TD*
G04 #@! TA.AperFunction,SMDPad,CuDef*
%ADD13RoundRect,0.250000X-0.475000X0.250000X-0.475000X-0.250000X0.475000X-0.250000X0.475000X0.250000X0*%
G04 #@! TD*
G04 #@! TA.AperFunction,SMDPad,CuDef*
%ADD14RoundRect,0.250000X-0.262500X-0.450000X0.262500X-0.450000X0.262500X0.450000X-0.262500X0.450000X0*%
G04 #@! TD*
G04 #@! TA.AperFunction,SMDPad,CuDef*
%ADD15RoundRect,0.100000X-0.687500X-0.100000X0.687500X-0.100000X0.687500X0.100000X-0.687500X0.100000X0*%
G04 #@! TD*
G04 #@! TA.AperFunction,HeatsinkPad*
%ADD16C,0.500000*%
G04 #@! TD*
G04 #@! TA.AperFunction,HeatsinkPad*
%ADD17R,3.400000X5.000000*%
G04 #@! TD*
G04 #@! TA.AperFunction,SMDPad,CuDef*
%ADD18RoundRect,0.243750X0.243750X0.456250X-0.243750X0.456250X-0.243750X-0.456250X0.243750X-0.456250X0*%
G04 #@! TD*
G04 #@! TA.AperFunction,SMDPad,CuDef*
%ADD19RoundRect,0.250000X-0.785000X-0.945000X0.785000X-0.945000X0.785000X0.945000X-0.785000X0.945000X0*%
G04 #@! TD*
G04 #@! TA.AperFunction,ViaPad*
%ADD20C,0.600000*%
G04 #@! TD*
G04 #@! TA.AperFunction,Conductor*
%ADD21C,0.300000*%
G04 #@! TD*
G04 APERTURE END LIST*
D10*
X148450000Y-89540000D03*
D11*
X148450000Y-92080000D03*
X148450000Y-94620000D03*
X148450000Y-97160000D03*
X148450000Y-99700000D03*
X148450000Y-102240000D03*
D12*
X162050000Y-89515000D03*
X163950000Y-89515000D03*
D13*
X165500000Y-95850000D03*
X165500000Y-97750000D03*
D14*
X156875000Y-89545000D03*
X158700000Y-89545000D03*
D15*
X154787500Y-93425000D03*
X154787500Y-94075000D03*
X154787500Y-94725000D03*
X154787500Y-95375000D03*
X154787500Y-96025000D03*
X154787500Y-96675000D03*
X154787500Y-97325000D03*
X154787500Y-97975000D03*
X160512500Y-97975000D03*
X160512500Y-97325000D03*
X160512500Y-96675000D03*
X160512500Y-96025000D03*
X160512500Y-95375000D03*
X160512500Y-94725000D03*
X160512500Y-94075000D03*
X160512500Y-93425000D03*
D16*
X156900000Y-94200000D03*
X156900000Y-95700000D03*
X156900000Y-97200000D03*
D17*
X157650000Y-95700000D03*
D16*
X158400000Y-94200000D03*
X158400000Y-95700000D03*
X158400000Y-97200000D03*
D18*
X153737500Y-89500000D03*
X151862500Y-89500000D03*
D19*
X154980000Y-101000000D03*
X159920000Y-101000000D03*
D10*
X168950000Y-89520000D03*
D11*
X168950000Y-92060000D03*
X168950000Y-94600000D03*
X168950000Y-97140000D03*
X168950000Y-99680000D03*
X168950000Y-102220000D03*
D20*
X163750000Y-90950000D03*
X164550000Y-94650000D03*
X163100000Y-101050000D03*
X166100000Y-99060000D03*
X150800000Y-96600000D03*
D21*
X162050000Y-89515000D02*
X158730000Y-89515000D01*
X158730000Y-89515000D02*
X158700000Y-89545000D01*
X163200000Y-91500000D02*
X163750000Y-90950000D01*
X163750000Y-90950000D02*
X163950000Y-90750000D01*
X151862500Y-89500000D02*
X151862500Y-90762500D01*
X159970000Y-101300000D02*
X162850000Y-101300000D01*
X151862500Y-90762500D02*
X152600000Y-91500000D01*
X166900000Y-93300000D02*
X168230000Y-94630000D01*
X165950000Y-93300000D02*
X166900000Y-93300000D01*
X164550000Y-94650000D02*
X164600000Y-94650000D01*
X164600000Y-94650000D02*
X165950000Y-93300000D01*
X152600000Y-91500000D02*
X163200000Y-91500000D01*
X168230000Y-94630000D02*
X168900000Y-94630000D01*
X163175000Y-96025000D02*
X164550000Y-94650000D01*
X160512500Y-96025000D02*
X163175000Y-96025000D01*
X162850000Y-101300000D02*
X163100000Y-101050000D01*
X163950000Y-90750000D02*
X163950000Y-89515000D01*
X163675000Y-96675000D02*
X160512500Y-96675000D01*
X164750000Y-97750000D02*
X163675000Y-96675000D01*
X165500000Y-97750000D02*
X164750000Y-97750000D01*
X153737500Y-89500000D02*
X156830000Y-89500000D01*
X156830000Y-89500000D02*
X156875000Y-89545000D01*
X164660000Y-99060000D02*
X166100000Y-99060000D01*
X163225000Y-97325000D02*
X164300000Y-98400000D01*
X164300000Y-98400000D02*
X164300000Y-98700000D01*
X164300000Y-98700000D02*
X164660000Y-99060000D01*
X160512500Y-97325000D02*
X163225000Y-97325000D01*
X163500000Y-93400000D02*
X160537500Y-93400000D01*
X167450000Y-91000000D02*
X165900000Y-91000000D01*
X160537500Y-93400000D02*
X160512500Y-93425000D01*
X165900000Y-91000000D02*
X163500000Y-93400000D01*
X168900000Y-89550000D02*
X167450000Y-91000000D01*
X166110000Y-92090000D02*
X164125000Y-94075000D01*
X164125000Y-94075000D02*
X160512500Y-94075000D01*
X168900000Y-92090000D02*
X166110000Y-92090000D01*
X160512500Y-97975000D02*
X162247500Y-99710000D01*
X162247500Y-99710000D02*
X168900000Y-99710000D01*
X148790000Y-92090000D02*
X150775000Y-94075000D01*
X150775000Y-94075000D02*
X154787500Y-94075000D01*
X148400000Y-92090000D02*
X148790000Y-92090000D01*
X148555000Y-97325000D02*
X154787500Y-97325000D01*
X148400000Y-97170000D02*
X148555000Y-97325000D01*
X150200000Y-90900000D02*
X150200000Y-92400000D01*
X148400000Y-89550000D02*
X148950000Y-90100000D01*
X150200000Y-92400000D02*
X151225000Y-93425000D01*
X151225000Y-93425000D02*
X154787500Y-93425000D01*
X149400000Y-90100000D02*
X150200000Y-90900000D01*
X148950000Y-90100000D02*
X149400000Y-90100000D01*
X152400000Y-98700000D02*
X152400000Y-101000000D01*
X150000000Y-101900000D02*
X149650000Y-102250000D01*
X152400000Y-101000000D02*
X151500000Y-101900000D01*
X149650000Y-102250000D02*
X148400000Y-102250000D01*
X154787500Y-97975000D02*
X153125000Y-97975000D01*
X153125000Y-97975000D02*
X152400000Y-98700000D01*
X151500000Y-101900000D02*
X150000000Y-101900000D01*
X149145000Y-95375000D02*
X154787500Y-95375000D01*
X148400000Y-94630000D02*
X149145000Y-95375000D01*
X154787500Y-96025000D02*
X153675000Y-96025000D01*
X151000000Y-96400000D02*
X150800000Y-96600000D01*
X153300000Y-96400000D02*
X151000000Y-96400000D01*
X153675000Y-96025000D02*
X153300000Y-96400000D01*
G04 #@! TA.AperFunction,Conductor*
G36*
X151127148Y-88270185D02*
G01*
X151172903Y-88322989D01*
X151182847Y-88392147D01*
X151153822Y-88455703D01*
X151147790Y-88462181D01*
X151030974Y-88578996D01*
X151030971Y-88579000D01*
X150939642Y-88727066D01*
X150939637Y-88727077D01*
X150884913Y-88892223D01*
X150874500Y-88994144D01*
X150874500Y-90005855D01*
X150884913Y-90107776D01*
X150939637Y-90272922D01*
X150939642Y-90272933D01*
X151030971Y-90420999D01*
X151030974Y-90421003D01*
X151153998Y-90544027D01*
X151159666Y-90548509D01*
X151158711Y-90549716D01*
X151199816Y-90595406D01*
X151212000Y-90649009D01*
X151212000Y-90826569D01*
X151212000Y-90826571D01*
X151211999Y-90826571D01*
X151231288Y-90923535D01*
X151231288Y-90923536D01*
X151236996Y-90952237D01*
X151236998Y-90952242D01*
X151286034Y-91070625D01*
X151357226Y-91177173D01*
X152185325Y-92005272D01*
X152185331Y-92005277D01*
X152291874Y-92076466D01*
X152361221Y-92105189D01*
X152410256Y-92125501D01*
X152410259Y-92125501D01*
X152410260Y-92125502D01*
X152535928Y-92150500D01*
X152535931Y-92150500D01*
X163264071Y-92150500D01*
X163348615Y-92133682D01*
X163389744Y-92125501D01*
X163508127Y-92076465D01*
X163614669Y-92005277D01*
X163852932Y-91767012D01*
X163869527Y-91757951D01*
X163883137Y-91744819D01*
X163912629Y-91734415D01*
X163914251Y-91733530D01*
X163916337Y-91733095D01*
X163928138Y-91730748D01*
X163997728Y-91736977D01*
X164052904Y-91779841D01*
X164076147Y-91845732D01*
X164060078Y-91913728D01*
X164040006Y-91940047D01*
X163266873Y-92713181D01*
X163205550Y-92746666D01*
X163179192Y-92749500D01*
X161404468Y-92749500D01*
X161364736Y-92741597D01*
X161364613Y-92742060D01*
X161357557Y-92740169D01*
X161357018Y-92740062D01*
X161356762Y-92739956D01*
X161356760Y-92739955D01*
X161239370Y-92724501D01*
X161239367Y-92724500D01*
X161239361Y-92724500D01*
X161239354Y-92724500D01*
X159785636Y-92724500D01*
X159668246Y-92739953D01*
X159668237Y-92739956D01*
X159522160Y-92800463D01*
X159396718Y-92896718D01*
X159300463Y-93022160D01*
X159239956Y-93168237D01*
X159239955Y-93168239D01*
X159224500Y-93285638D01*
X159224500Y-93564363D01*
X159239953Y-93681753D01*
X159239957Y-93681765D01*
X159248566Y-93702550D01*
X159251844Y-93733051D01*
X159257294Y-93763255D01*
X159255743Y-93769328D01*
X159256033Y-93772019D01*
X159248565Y-93797453D01*
X159244444Y-93807402D01*
X159200603Y-93861805D01*
X159134309Y-93883870D01*
X159105693Y-93881567D01*
X159077577Y-93875974D01*
X158753554Y-94199999D01*
X158753554Y-94200001D01*
X159077577Y-94524024D01*
X159138959Y-94511814D01*
X159180172Y-94510605D01*
X159292521Y-94526174D01*
X159316894Y-94537154D01*
X159342539Y-94544685D01*
X159351109Y-94552569D01*
X159356224Y-94554874D01*
X159360103Y-94560843D01*
X159373875Y-94573513D01*
X159396715Y-94603279D01*
X159396716Y-94603280D01*
X159396718Y-94603282D01*
X159522159Y-94699536D01*
X159522160Y-94699536D01*
X159526184Y-94702624D01*
X159567386Y-94759052D01*
X159571541Y-94828798D01*
X159537329Y-94889719D01*
X159475611Y-94922471D01*
X159450697Y-94925000D01*
X159232990Y-94925000D01*
X159232988Y-94925001D01*
X159240442Y-94981627D01*
X159240443Y-94981629D01*
X159249108Y-95002549D01*
X159256906Y-95070101D01*
X159223360Y-95274305D01*
X159212421Y-95297039D01*
X159205315Y-95321243D01*
X159197533Y-95327985D01*
X159193068Y-95337267D01*
X159171573Y-95350480D01*
X159152511Y-95366998D01*
X159142320Y-95368463D01*
X159133546Y-95373857D01*
X159108321Y-95373351D01*
X159083353Y-95376942D01*
X159077595Y-95375956D01*
X158753554Y-95699999D01*
X158753554Y-95700001D01*
X159077978Y-96024425D01*
X159145899Y-96030503D01*
X159201077Y-96073365D01*
X159222862Y-96125807D01*
X159224500Y-96135791D01*
X159224501Y-96164360D01*
X159239956Y-96281762D01*
X159254045Y-96315777D01*
X159256366Y-96329914D01*
X159253768Y-96350947D01*
X159256033Y-96372019D01*
X159248566Y-96397450D01*
X159239957Y-96418234D01*
X159239955Y-96418239D01*
X159224500Y-96535638D01*
X159224500Y-96754105D01*
X159204815Y-96821144D01*
X159152011Y-96866899D01*
X159082853Y-96876843D01*
X159077607Y-96875944D01*
X158753554Y-97199999D01*
X158753554Y-97200001D01*
X159077577Y-97524024D01*
X159105690Y-97518432D01*
X159137306Y-97521261D01*
X159169040Y-97522394D01*
X159171861Y-97524352D01*
X159175282Y-97524659D01*
X159200355Y-97544136D01*
X159226432Y-97562242D01*
X159228800Y-97566233D01*
X159230459Y-97567522D01*
X159244442Y-97592595D01*
X159248564Y-97602546D01*
X159256034Y-97672015D01*
X159248566Y-97697450D01*
X159239957Y-97718234D01*
X159239955Y-97718239D01*
X159224500Y-97835638D01*
X159224500Y-98114363D01*
X159239953Y-98231753D01*
X159239956Y-98231762D01*
X159276229Y-98319334D01*
X159300464Y-98377841D01*
X159396718Y-98503282D01*
X159522159Y-98599536D01*
X159668238Y-98660044D01*
X159785639Y-98675500D01*
X160241691Y-98675499D01*
X160308730Y-98695183D01*
X160329372Y-98711818D01*
X160710373Y-99092819D01*
X160743858Y-99154142D01*
X160738874Y-99223834D01*
X160697002Y-99279767D01*
X160631538Y-99304184D01*
X160622692Y-99304500D01*
X159084998Y-99304500D01*
X159084981Y-99304501D01*
X158982203Y-99315000D01*
X158982200Y-99315001D01*
X158815668Y-99370185D01*
X158815663Y-99370187D01*
X158666342Y-99462289D01*
X158542289Y-99586342D01*
X158450187Y-99735663D01*
X158450185Y-99735668D01*
X158426785Y-99806286D01*
X158395001Y-99902203D01*
X158395001Y-99902204D01*
X158395000Y-99902204D01*
X158384500Y-100004983D01*
X158384500Y-101995001D01*
X158384501Y-101995018D01*
X158395000Y-102097796D01*
X158395001Y-102097799D01*
X158450115Y-102264119D01*
X158450186Y-102264334D01*
X158542288Y-102413656D01*
X158666344Y-102537712D01*
X158815666Y-102629814D01*
X158982203Y-102684999D01*
X159084991Y-102695500D01*
X160755008Y-102695499D01*
X160857797Y-102684999D01*
X161024334Y-102629814D01*
X161173656Y-102537712D01*
X161297712Y-102413656D01*
X161389814Y-102264334D01*
X161444999Y-102097797D01*
X161448667Y-102061896D01*
X161475064Y-101997205D01*
X161532245Y-101957054D01*
X161572025Y-101950500D01*
X162914071Y-101950500D01*
X162998615Y-101933682D01*
X163039744Y-101925501D01*
X163158127Y-101876465D01*
X163184172Y-101859061D01*
X163228864Y-101840549D01*
X163333497Y-101819737D01*
X163479179Y-101759394D01*
X163610289Y-101671789D01*
X163721789Y-101560289D01*
X163809394Y-101429179D01*
X163869737Y-101283497D01*
X163900500Y-101128842D01*
X163900500Y-100971158D01*
X163900500Y-100971155D01*
X163900499Y-100971153D01*
X163896291Y-100950000D01*
X163869737Y-100816503D01*
X163833950Y-100730104D01*
X163809397Y-100670827D01*
X163809390Y-100670814D01*
X163730930Y-100553391D01*
X163710052Y-100486714D01*
X163728536Y-100419333D01*
X163780515Y-100372643D01*
X163834032Y-100360500D01*
X167711922Y-100360500D01*
X167778961Y-100380185D01*
X167812237Y-100411611D01*
X167910046Y-100546235D01*
X167919896Y-100559792D01*
X168070213Y-100710109D01*
X168242182Y-100835050D01*
X168250946Y-100839516D01*
X168301742Y-100887491D01*
X168318536Y-100955312D01*
X168295998Y-101021447D01*
X168250946Y-101060484D01*
X168242182Y-101064949D01*
X168070213Y-101189890D01*
X167919890Y-101340213D01*
X167794951Y-101512179D01*
X167698444Y-101701585D01*
X167632753Y-101903760D01*
X167599500Y-102113713D01*
X167599500Y-102326286D01*
X167631052Y-102525502D01*
X167632754Y-102536243D01*
X167684499Y-102695498D01*
X167698444Y-102738414D01*
X167794951Y-102927820D01*
X167919890Y-103099786D01*
X167919896Y-103099792D01*
X168070208Y-103250104D01*
X168097736Y-103270104D01*
X168104724Y-103275181D01*
X168147390Y-103330511D01*
X168153369Y-103400124D01*
X168120764Y-103461920D01*
X168059925Y-103496277D01*
X168031839Y-103499500D01*
X149395689Y-103499500D01*
X149328650Y-103479815D01*
X149282895Y-103427011D01*
X149272951Y-103357853D01*
X149301976Y-103294297D01*
X149322804Y-103275181D01*
X149329792Y-103270104D01*
X149480104Y-103119792D01*
X149494639Y-103099786D01*
X149602292Y-102951615D01*
X149657622Y-102908949D01*
X149702610Y-102900500D01*
X149714071Y-102900500D01*
X149798615Y-102883682D01*
X149839744Y-102875501D01*
X149958127Y-102826465D01*
X150064669Y-102755277D01*
X150233127Y-102586819D01*
X150294450Y-102553334D01*
X150320808Y-102550500D01*
X151564071Y-102550500D01*
X151648615Y-102533682D01*
X151689744Y-102525501D01*
X151808127Y-102476465D01*
X151914669Y-102405277D01*
X152324960Y-101994986D01*
X153445001Y-101994986D01*
X153455494Y-102097697D01*
X153510641Y-102264119D01*
X153510643Y-102264124D01*
X153602684Y-102413345D01*
X153726654Y-102537315D01*
X153875875Y-102629356D01*
X153875880Y-102629358D01*
X154042302Y-102684505D01*
X154042309Y-102684506D01*
X154145019Y-102694999D01*
X154729999Y-102694999D01*
X155230000Y-102694999D01*
X155814972Y-102694999D01*
X155814986Y-102694998D01*
X155917697Y-102684505D01*
X156084119Y-102629358D01*
X156084124Y-102629356D01*
X156233345Y-102537315D01*
X156357315Y-102413345D01*
X156449356Y-102264124D01*
X156449358Y-102264119D01*
X156504505Y-102097697D01*
X156504506Y-102097690D01*
X156514999Y-101994986D01*
X156515000Y-101994973D01*
X156515000Y-101250000D01*
X155230000Y-101250000D01*
X155230000Y-102694999D01*
X154729999Y-102694999D01*
X154730000Y-102694998D01*
X154730000Y-101250000D01*
X153445001Y-101250000D01*
X153445001Y-101994986D01*
X152324960Y-101994986D01*
X152905276Y-101414669D01*
X152976465Y-101308127D01*
X153025501Y-101189744D01*
X153040554Y-101114069D01*
X153050500Y-101064069D01*
X153050500Y-100005013D01*
X153445000Y-100005013D01*
X153445000Y-100750000D01*
X154730000Y-100750000D01*
X155230000Y-100750000D01*
X156514999Y-100750000D01*
X156514999Y-100005028D01*
X156514998Y-100005013D01*
X156504505Y-99902302D01*
X156449358Y-99735880D01*
X156449356Y-99735875D01*
X156357315Y-99586654D01*
X156233345Y-99462684D01*
X156084124Y-99370643D01*
X156084119Y-99370641D01*
X155917697Y-99315494D01*
X155917690Y-99315493D01*
X155814986Y-99305000D01*
X155230000Y-99305000D01*
X155230000Y-100750000D01*
X154730000Y-100750000D01*
X154730000Y-99305000D01*
X154145028Y-99305000D01*
X154145012Y-99305001D01*
X154042302Y-99315494D01*
X153875880Y-99370641D01*
X153875875Y-99370643D01*
X153726654Y-99462684D01*
X153602684Y-99586654D01*
X153510643Y-99735875D01*
X153510641Y-99735880D01*
X153455494Y-99902302D01*
X153455493Y-99902309D01*
X153445000Y-100005013D01*
X153050500Y-100005013D01*
X153050500Y-99020808D01*
X153070185Y-98953769D01*
X153086819Y-98933127D01*
X153358127Y-98661819D01*
X153419450Y-98628334D01*
X153445808Y-98625500D01*
X153835177Y-98625500D01*
X153882629Y-98634938D01*
X153943238Y-98660044D01*
X154060639Y-98675500D01*
X155514360Y-98675499D01*
X155514363Y-98675499D01*
X155631753Y-98660046D01*
X155631757Y-98660044D01*
X155631762Y-98660044D01*
X155777841Y-98599536D01*
X155903282Y-98503282D01*
X155999536Y-98377841D01*
X156060044Y-98231762D01*
X156075500Y-98114361D01*
X156075499Y-97877577D01*
X156575975Y-97877577D01*
X156681236Y-97921178D01*
X156681240Y-97921179D01*
X156826126Y-97949999D01*
X156826129Y-97950000D01*
X156973871Y-97950000D01*
X156973873Y-97949999D01*
X157118760Y-97921179D01*
X157118775Y-97921175D01*
X157224024Y-97877578D01*
X157224024Y-97877577D01*
X158075975Y-97877577D01*
X158181236Y-97921178D01*
X158181240Y-97921179D01*
X158326126Y-97949999D01*
X158326129Y-97950000D01*
X158473871Y-97950000D01*
X158473873Y-97949999D01*
X158618760Y-97921179D01*
X158618775Y-97921175D01*
X158724024Y-97877578D01*
X158724024Y-97877577D01*
X158400001Y-97553554D01*
X158400000Y-97553554D01*
X158075975Y-97877577D01*
X157224024Y-97877577D01*
X156900001Y-97553554D01*
X156900000Y-97553554D01*
X156575975Y-97877577D01*
X156075499Y-97877577D01*
X156075499Y-97835640D01*
X156060044Y-97718238D01*
X156046307Y-97685076D01*
X156043943Y-97671895D01*
X156046325Y-97649939D01*
X156043965Y-97627986D01*
X156051435Y-97602546D01*
X156051448Y-97602513D01*
X156055557Y-97592595D01*
X156099398Y-97538192D01*
X156165693Y-97516128D01*
X156194309Y-97518432D01*
X156222421Y-97524024D01*
X156546446Y-97200000D01*
X156546446Y-97199999D01*
X156526556Y-97180109D01*
X156800000Y-97180109D01*
X156800000Y-97219891D01*
X156815224Y-97256645D01*
X156843355Y-97284776D01*
X156880109Y-97300000D01*
X156919891Y-97300000D01*
X156956645Y-97284776D01*
X156984776Y-97256645D01*
X157000000Y-97219891D01*
X157000000Y-97199999D01*
X157253554Y-97199999D01*
X157253554Y-97200001D01*
X157577576Y-97524023D01*
X157625807Y-97514430D01*
X157674191Y-97514430D01*
X157722422Y-97524024D01*
X158046446Y-97200000D01*
X158046446Y-97199999D01*
X158026556Y-97180109D01*
X158300000Y-97180109D01*
X158300000Y-97219891D01*
X158315224Y-97256645D01*
X158343355Y-97284776D01*
X158380109Y-97300000D01*
X158419891Y-97300000D01*
X158456645Y-97284776D01*
X158484776Y-97256645D01*
X158500000Y-97219891D01*
X158500000Y-97180109D01*
X158484776Y-97143355D01*
X158456645Y-97115224D01*
X158419891Y-97100000D01*
X158380109Y-97100000D01*
X158343355Y-97115224D01*
X158315224Y-97143355D01*
X158300000Y-97180109D01*
X158026556Y-97180109D01*
X157722421Y-96875974D01*
X157674190Y-96885568D01*
X157625808Y-96885568D01*
X157577577Y-96875974D01*
X157253554Y-97199999D01*
X157000000Y-97199999D01*
X157000000Y-97180109D01*
X156984776Y-97143355D01*
X156956645Y-97115224D01*
X156919891Y-97100000D01*
X156880109Y-97100000D01*
X156843355Y-97115224D01*
X156815224Y-97143355D01*
X156800000Y-97180109D01*
X156526556Y-97180109D01*
X156222421Y-96875974D01*
X156161038Y-96888184D01*
X156119828Y-96889394D01*
X156007481Y-96873827D01*
X155983105Y-96862845D01*
X155957461Y-96855315D01*
X155948890Y-96847430D01*
X155943778Y-96845127D01*
X155939899Y-96839158D01*
X155926125Y-96826487D01*
X155903283Y-96796719D01*
X155903282Y-96796718D01*
X155872860Y-96773374D01*
X155831658Y-96716949D01*
X155827503Y-96647203D01*
X155861714Y-96586282D01*
X155872851Y-96576631D01*
X155903282Y-96553282D01*
X155916821Y-96535638D01*
X155926125Y-96523513D01*
X155982553Y-96482310D01*
X156024500Y-96475000D01*
X156067010Y-96475000D01*
X156067011Y-96474998D01*
X156059558Y-96418377D01*
X156059554Y-96418365D01*
X156051163Y-96398106D01*
X156048956Y-96377577D01*
X156575974Y-96377577D01*
X156585568Y-96425808D01*
X156585568Y-96474190D01*
X156575974Y-96522421D01*
X156900000Y-96846446D01*
X156900001Y-96846446D01*
X157224024Y-96522422D01*
X157214430Y-96474191D01*
X157214430Y-96465853D01*
X157212540Y-96461050D01*
X157214430Y-96425807D01*
X157224023Y-96377577D01*
X158075974Y-96377577D01*
X158085568Y-96425808D01*
X158085568Y-96474190D01*
X158075974Y-96522421D01*
X158400000Y-96846446D01*
X158400001Y-96846446D01*
X158724024Y-96522422D01*
X158714430Y-96474191D01*
X158714430Y-96425807D01*
X158724023Y-96377576D01*
X158400001Y-96053554D01*
X158400000Y-96053554D01*
X158075974Y-96377577D01*
X157224023Y-96377577D01*
X157224023Y-96377576D01*
X156900001Y-96053554D01*
X156900000Y-96053554D01*
X156575974Y-96377577D01*
X156048956Y-96377577D01*
X156047882Y-96367590D01*
X156042435Y-96337398D01*
X156043983Y-96331330D01*
X156043694Y-96328637D01*
X156051160Y-96303208D01*
X156060044Y-96281762D01*
X156075500Y-96164361D01*
X156075499Y-96145896D01*
X156095181Y-96078859D01*
X156147983Y-96033102D01*
X156217141Y-96023155D01*
X156222391Y-96024054D01*
X156546446Y-95700000D01*
X156546446Y-95699999D01*
X156526556Y-95680109D01*
X156800000Y-95680109D01*
X156800000Y-95719891D01*
X156815224Y-95756645D01*
X156843355Y-95784776D01*
X156880109Y-95800000D01*
X156919891Y-95800000D01*
X156956645Y-95784776D01*
X156984776Y-95756645D01*
X157000000Y-95719891D01*
X157000000Y-95699999D01*
X157253554Y-95699999D01*
X157253554Y-95700001D01*
X157577576Y-96024023D01*
X157625807Y-96014430D01*
X157674191Y-96014430D01*
X157722422Y-96024024D01*
X158046446Y-95700000D01*
X158046446Y-95699999D01*
X158026556Y-95680109D01*
X158300000Y-95680109D01*
X158300000Y-95719891D01*
X158315224Y-95756645D01*
X158343355Y-95784776D01*
X158380109Y-95800000D01*
X158419891Y-95800000D01*
X158456645Y-95784776D01*
X158484776Y-95756645D01*
X158500000Y-95719891D01*
X158500000Y-95680109D01*
X158484776Y-95643355D01*
X158456645Y-95615224D01*
X158419891Y-95600000D01*
X158380109Y-95600000D01*
X158343355Y-95615224D01*
X158315224Y-95643355D01*
X158300000Y-95680109D01*
X158026556Y-95680109D01*
X157722421Y-95375974D01*
X157674190Y-95385568D01*
X157625808Y-95385568D01*
X157577577Y-95375974D01*
X157253554Y-95699999D01*
X157000000Y-95699999D01*
X157000000Y-95680109D01*
X156984776Y-95643355D01*
X156956645Y-95615224D01*
X156919891Y-95600000D01*
X156880109Y-95600000D01*
X156843355Y-95615224D01*
X156815224Y-95643355D01*
X156800000Y-95680109D01*
X156526556Y-95680109D01*
X156222019Y-95375572D01*
X156154098Y-95369495D01*
X156098921Y-95326632D01*
X156077152Y-95274286D01*
X156075499Y-95264265D01*
X156075499Y-95235640D01*
X156060044Y-95118238D01*
X156045699Y-95083608D01*
X156043377Y-95069526D01*
X156045964Y-95048445D01*
X156043694Y-95027328D01*
X156051164Y-95001890D01*
X156059555Y-94981632D01*
X156059555Y-94981630D01*
X156064941Y-94940722D01*
X155991623Y-94920562D01*
X155975569Y-94910632D01*
X155957461Y-94905315D01*
X155937942Y-94887358D01*
X155932202Y-94883808D01*
X155930727Y-94880720D01*
X155927310Y-94877577D01*
X156575974Y-94877577D01*
X156585568Y-94925808D01*
X156585568Y-94974190D01*
X156575974Y-95022421D01*
X156900000Y-95346446D01*
X156900001Y-95346446D01*
X157224024Y-95022422D01*
X157214430Y-94974191D01*
X157214430Y-94965853D01*
X157212540Y-94961050D01*
X157214430Y-94925807D01*
X157224023Y-94877577D01*
X158075974Y-94877577D01*
X158085568Y-94925808D01*
X158085568Y-94974190D01*
X158075974Y-95022421D01*
X158400000Y-95346446D01*
X158400001Y-95346446D01*
X158724024Y-95022422D01*
X158714430Y-94974191D01*
X158714430Y-94925807D01*
X158724023Y-94877576D01*
X158400001Y-94553554D01*
X158400000Y-94553554D01*
X158075974Y-94877577D01*
X157224023Y-94877577D01*
X157224023Y-94877576D01*
X156900001Y-94553554D01*
X156900000Y-94553554D01*
X156575974Y-94877577D01*
X155927310Y-94877577D01*
X155926125Y-94876487D01*
X155903283Y-94846719D01*
X155892496Y-94838442D01*
X155872860Y-94823374D01*
X155831658Y-94766949D01*
X155827503Y-94697203D01*
X155861714Y-94636282D01*
X155872851Y-94626631D01*
X155903282Y-94603282D01*
X155915021Y-94587982D01*
X155926125Y-94573513D01*
X155982553Y-94532310D01*
X156024500Y-94525000D01*
X156085669Y-94525000D01*
X156102618Y-94514249D01*
X156161039Y-94511814D01*
X156222421Y-94524024D01*
X156546446Y-94200000D01*
X156546446Y-94199999D01*
X156526556Y-94180109D01*
X156800000Y-94180109D01*
X156800000Y-94219891D01*
X156815224Y-94256645D01*
X156843355Y-94284776D01*
X156880109Y-94300000D01*
X156919891Y-94300000D01*
X156956645Y-94284776D01*
X156984776Y-94256645D01*
X157000000Y-94219891D01*
X157000000Y-94199999D01*
X157253554Y-94199999D01*
X157253554Y-94200001D01*
X157577576Y-94524023D01*
X157625807Y-94514430D01*
X157674191Y-94514430D01*
X157722422Y-94524024D01*
X158046446Y-94200000D01*
X158046446Y-94199999D01*
X158026556Y-94180109D01*
X158300000Y-94180109D01*
X158300000Y-94219891D01*
X158315224Y-94256645D01*
X158343355Y-94284776D01*
X158380109Y-94300000D01*
X158419891Y-94300000D01*
X158456645Y-94284776D01*
X158484776Y-94256645D01*
X158500000Y-94219891D01*
X158500000Y-94180109D01*
X158484776Y-94143355D01*
X158456645Y-94115224D01*
X158419891Y-94100000D01*
X158380109Y-94100000D01*
X158343355Y-94115224D01*
X158315224Y-94143355D01*
X158300000Y-94180109D01*
X158026556Y-94180109D01*
X157722421Y-93875974D01*
X157674190Y-93885568D01*
X157625808Y-93885568D01*
X157577577Y-93875974D01*
X157253554Y-94199999D01*
X157000000Y-94199999D01*
X157000000Y-94180109D01*
X156984776Y-94143355D01*
X156956645Y-94115224D01*
X156919891Y-94100000D01*
X156880109Y-94100000D01*
X156843355Y-94115224D01*
X156815224Y-94143355D01*
X156800000Y-94180109D01*
X156526556Y-94180109D01*
X156222421Y-93875974D01*
X156194306Y-93881567D01*
X156162677Y-93878735D01*
X156130957Y-93877603D01*
X156128135Y-93875644D01*
X156124715Y-93875338D01*
X156099646Y-93855864D01*
X156073564Y-93837755D01*
X156071194Y-93833762D01*
X156069538Y-93832475D01*
X156055555Y-93807402D01*
X156051434Y-93797453D01*
X156043965Y-93727983D01*
X156051435Y-93702545D01*
X156060044Y-93681762D01*
X156075500Y-93564361D01*
X156075500Y-93522420D01*
X156575974Y-93522420D01*
X156575974Y-93522421D01*
X156900000Y-93846446D01*
X156900001Y-93846446D01*
X157224024Y-93522421D01*
X157224022Y-93522420D01*
X158075974Y-93522420D01*
X158075974Y-93522421D01*
X158400000Y-93846446D01*
X158400001Y-93846446D01*
X158724024Y-93522421D01*
X158618767Y-93478822D01*
X158618759Y-93478820D01*
X158473872Y-93450000D01*
X158326128Y-93450000D01*
X158181240Y-93478820D01*
X158181228Y-93478823D01*
X158075974Y-93522420D01*
X157224022Y-93522420D01*
X157118767Y-93478822D01*
X157118759Y-93478820D01*
X156973872Y-93450000D01*
X156826128Y-93450000D01*
X156681240Y-93478820D01*
X156681228Y-93478823D01*
X156575974Y-93522420D01*
X156075500Y-93522420D01*
X156075499Y-93285640D01*
X156075499Y-93285638D01*
X156075499Y-93285636D01*
X156060046Y-93168246D01*
X156060044Y-93168239D01*
X156060044Y-93168238D01*
X155999536Y-93022159D01*
X155903282Y-92896718D01*
X155777841Y-92800464D01*
X155715158Y-92774500D01*
X155631762Y-92739956D01*
X155631760Y-92739955D01*
X155514370Y-92724501D01*
X155514367Y-92724500D01*
X155514361Y-92724500D01*
X155514354Y-92724500D01*
X154060636Y-92724500D01*
X153943246Y-92739953D01*
X153943237Y-92739956D01*
X153882630Y-92765061D01*
X153835177Y-92774500D01*
X151545808Y-92774500D01*
X151478769Y-92754815D01*
X151458127Y-92738181D01*
X150886819Y-92166873D01*
X150853334Y-92105550D01*
X150850500Y-92079192D01*
X150850500Y-90835928D01*
X150825502Y-90710261D01*
X150825501Y-90710260D01*
X150825501Y-90710256D01*
X150776465Y-90591873D01*
X150770344Y-90582712D01*
X150770081Y-90582319D01*
X150705275Y-90485328D01*
X149836818Y-89616871D01*
X149803333Y-89555548D01*
X149800499Y-89529190D01*
X149800499Y-88642129D01*
X149800498Y-88642123D01*
X149799205Y-88630096D01*
X149794971Y-88590706D01*
X149794091Y-88582516D01*
X149743797Y-88447671D01*
X149739546Y-88439886D01*
X149741021Y-88439080D01*
X149720234Y-88383345D01*
X149735086Y-88315072D01*
X149784492Y-88265667D01*
X149843918Y-88250500D01*
X151060109Y-88250500D01*
X151127148Y-88270185D01*
G37*
G04 #@! TD.AperFunction*
G04 #@! TA.AperFunction,Conductor*
G36*
X166646231Y-93970185D02*
G01*
X166666873Y-93986819D01*
X167629250Y-94949196D01*
X167659499Y-94998557D01*
X167667254Y-95022422D01*
X167698444Y-95118416D01*
X167794951Y-95307820D01*
X167919890Y-95479786D01*
X168070213Y-95630109D01*
X168242179Y-95755048D01*
X168242181Y-95755049D01*
X168242184Y-95755051D01*
X168251493Y-95759794D01*
X168302290Y-95807766D01*
X168319087Y-95875587D01*
X168296552Y-95941722D01*
X168251505Y-95980760D01*
X168242446Y-95985376D01*
X168242440Y-95985380D01*
X168188282Y-96024727D01*
X168188282Y-96024728D01*
X168820591Y-96657037D01*
X168757007Y-96674075D01*
X168642993Y-96739901D01*
X168549901Y-96832993D01*
X168484075Y-96947007D01*
X168467037Y-97010591D01*
X167834728Y-96378282D01*
X167834727Y-96378282D01*
X167795380Y-96432439D01*
X167698904Y-96621782D01*
X167633242Y-96823869D01*
X167633242Y-96823872D01*
X167600000Y-97033753D01*
X167600000Y-97246246D01*
X167633242Y-97456127D01*
X167633242Y-97456130D01*
X167698904Y-97658217D01*
X167795375Y-97847550D01*
X167834728Y-97901716D01*
X168467037Y-97269408D01*
X168484075Y-97332993D01*
X168549901Y-97447007D01*
X168642993Y-97540099D01*
X168757007Y-97605925D01*
X168820590Y-97622962D01*
X168188282Y-98255269D01*
X168188282Y-98255270D01*
X168242452Y-98294626D01*
X168242451Y-98294626D01*
X168251495Y-98299234D01*
X168302292Y-98347208D01*
X168319087Y-98415029D01*
X168296550Y-98481164D01*
X168251499Y-98520202D01*
X168242182Y-98524949D01*
X168070213Y-98649890D01*
X167919890Y-98800213D01*
X167794949Y-98972182D01*
X167784957Y-98991794D01*
X167736983Y-99042590D01*
X167674472Y-99059500D01*
X167017848Y-99059500D01*
X166950809Y-99039815D01*
X166905054Y-98987011D01*
X166896231Y-98959692D01*
X166869738Y-98826508D01*
X166869737Y-98826507D01*
X166869737Y-98826503D01*
X166859387Y-98801516D01*
X166809397Y-98680827D01*
X166809390Y-98680814D01*
X166721789Y-98549711D01*
X166721786Y-98549707D01*
X166664898Y-98492819D01*
X166631413Y-98431496D01*
X166636397Y-98361804D01*
X166647038Y-98340047D01*
X166659814Y-98319334D01*
X166714999Y-98152797D01*
X166725500Y-98050009D01*
X166725499Y-97449992D01*
X166714999Y-97347203D01*
X166659814Y-97180666D01*
X166567712Y-97031344D01*
X166443656Y-96907288D01*
X166440342Y-96905243D01*
X166438546Y-96903248D01*
X166437989Y-96902807D01*
X166438064Y-96902711D01*
X166393618Y-96853297D01*
X166382397Y-96784334D01*
X166410240Y-96720252D01*
X166440348Y-96694165D01*
X166443342Y-96692318D01*
X166567315Y-96568345D01*
X166659356Y-96419124D01*
X166659358Y-96419119D01*
X166714505Y-96252697D01*
X166714506Y-96252690D01*
X166724999Y-96149986D01*
X166725000Y-96149973D01*
X166725000Y-96100000D01*
X165624000Y-96100000D01*
X165556961Y-96080315D01*
X165511206Y-96027511D01*
X165500000Y-95976000D01*
X165500000Y-95850000D01*
X165374000Y-95850000D01*
X165306961Y-95830315D01*
X165261206Y-95777511D01*
X165250000Y-95726000D01*
X165250000Y-95600000D01*
X165750000Y-95600000D01*
X166724999Y-95600000D01*
X166724999Y-95550028D01*
X166724998Y-95550013D01*
X166714505Y-95447302D01*
X166659358Y-95280880D01*
X166659356Y-95280875D01*
X166567315Y-95131654D01*
X166443345Y-95007684D01*
X166294124Y-94915643D01*
X166294119Y-94915641D01*
X166127697Y-94860494D01*
X166127690Y-94860493D01*
X166024986Y-94850000D01*
X165750000Y-94850000D01*
X165750000Y-95600000D01*
X165250000Y-95600000D01*
X165250000Y-95076523D01*
X165251315Y-95069587D01*
X165250495Y-95065460D01*
X165257521Y-95036872D01*
X165258614Y-95031112D01*
X165259347Y-95029249D01*
X165259394Y-95029179D01*
X165319737Y-94883497D01*
X165322831Y-94867939D01*
X165326895Y-94857614D01*
X165341790Y-94838442D01*
X165353042Y-94816929D01*
X165354540Y-94815404D01*
X166183127Y-93986819D01*
X166244450Y-93953334D01*
X166270808Y-93950500D01*
X166579192Y-93950500D01*
X166646231Y-93970185D01*
G37*
G04 #@! TD.AperFunction*
G04 #@! TA.AperFunction,Conductor*
G36*
X170065269Y-97901716D02*
G01*
X170065770Y-97901677D01*
X170134147Y-97916041D01*
X170183905Y-97965092D01*
X170199500Y-98025295D01*
X170199500Y-98720970D01*
X170179815Y-98788009D01*
X170127011Y-98833764D01*
X170057853Y-98843708D01*
X169994297Y-98814683D01*
X169981222Y-98801516D01*
X169980107Y-98800211D01*
X169829786Y-98649890D01*
X169657817Y-98524949D01*
X169648504Y-98520204D01*
X169597707Y-98472230D01*
X169580912Y-98404409D01*
X169603449Y-98338274D01*
X169648507Y-98299232D01*
X169657555Y-98294622D01*
X169711716Y-98255270D01*
X169711717Y-98255270D01*
X169079408Y-97622962D01*
X169142993Y-97605925D01*
X169257007Y-97540099D01*
X169350099Y-97447007D01*
X169415925Y-97332993D01*
X169432962Y-97269408D01*
X170065269Y-97901716D01*
G37*
G04 #@! TD.AperFunction*
G04 #@! TA.AperFunction,Conductor*
G36*
X170168635Y-95477164D02*
G01*
X170198110Y-95540512D01*
X170199500Y-95559029D01*
X170199500Y-96254703D01*
X170179815Y-96321742D01*
X170127011Y-96367497D01*
X170065772Y-96378321D01*
X170065270Y-96378281D01*
X169432962Y-97010590D01*
X169415925Y-96947007D01*
X169350099Y-96832993D01*
X169257007Y-96739901D01*
X169142993Y-96674075D01*
X169079409Y-96657037D01*
X169711716Y-96024728D01*
X169657547Y-95985373D01*
X169657547Y-95985372D01*
X169648500Y-95980763D01*
X169597706Y-95932788D01*
X169580912Y-95864966D01*
X169603451Y-95798832D01*
X169648508Y-95759793D01*
X169657816Y-95755051D01*
X169760966Y-95680109D01*
X169829786Y-95630109D01*
X169829788Y-95630106D01*
X169829792Y-95630104D01*
X169980104Y-95479792D01*
X169980107Y-95479787D01*
X169981214Y-95478493D01*
X169981758Y-95478137D01*
X169983549Y-95476347D01*
X169983925Y-95476723D01*
X170039723Y-95440302D01*
X170109591Y-95439807D01*
X170168635Y-95477164D01*
G37*
G04 #@! TD.AperFunction*
G04 #@! TA.AperFunction,Conductor*
G36*
X161296516Y-88270185D02*
G01*
X161342271Y-88322989D01*
X161352215Y-88392147D01*
X161323190Y-88455703D01*
X161317158Y-88462181D01*
X161207684Y-88571654D01*
X161115643Y-88720875D01*
X161115641Y-88720880D01*
X161060494Y-88887302D01*
X161060493Y-88887309D01*
X161050000Y-88990013D01*
X161050000Y-89265000D01*
X161926000Y-89265000D01*
X161993039Y-89284685D01*
X162038794Y-89337489D01*
X162050000Y-89389000D01*
X162050000Y-89641000D01*
X162030315Y-89708039D01*
X161977511Y-89753794D01*
X161926000Y-89765000D01*
X161050001Y-89765000D01*
X161050001Y-90039986D01*
X161060494Y-90142697D01*
X161115641Y-90309119D01*
X161115643Y-90309124D01*
X161207684Y-90458345D01*
X161331655Y-90582316D01*
X161331659Y-90582319D01*
X161392687Y-90619962D01*
X161439412Y-90671910D01*
X161450633Y-90740872D01*
X161422790Y-90804954D01*
X161364721Y-90843810D01*
X161327590Y-90849500D01*
X159443016Y-90849500D01*
X159375977Y-90829815D01*
X159330222Y-90777011D01*
X159320278Y-90707853D01*
X159349303Y-90644297D01*
X159377919Y-90619961D01*
X159430845Y-90587315D01*
X159554815Y-90463345D01*
X159646856Y-90314124D01*
X159646858Y-90314119D01*
X159702005Y-90147697D01*
X159702006Y-90147690D01*
X159712499Y-90044986D01*
X159712500Y-90044973D01*
X159712500Y-89795000D01*
X158824000Y-89795000D01*
X158756961Y-89775315D01*
X158711206Y-89722511D01*
X158700000Y-89671000D01*
X158700000Y-89419000D01*
X158719685Y-89351961D01*
X158772489Y-89306206D01*
X158824000Y-89295000D01*
X159712499Y-89295000D01*
X159712499Y-89045028D01*
X159712498Y-89045013D01*
X159702005Y-88942302D01*
X159646858Y-88775880D01*
X159646856Y-88775875D01*
X159554815Y-88626654D01*
X159430843Y-88502682D01*
X159394132Y-88480039D01*
X159347407Y-88428091D01*
X159336184Y-88359129D01*
X159364027Y-88295047D01*
X159422096Y-88256190D01*
X159459228Y-88250500D01*
X161229477Y-88250500D01*
X161296516Y-88270185D01*
G37*
G04 #@! TD.AperFunction*
M02*
