G04 #@! TF.GenerationSoftware,KiCad,Pcbnew,9.0.1*
G04 #@! TF.CreationDate,2025-08-23T10:31:58+05:00*
G04 #@! TF.ProjectId,motor_driver,6d6f746f-725f-4647-9269-7665722e6b69,rev?*
G04 #@! TF.SameCoordinates,Original*
G04 #@! TF.FileFunction,Legend,Top*
G04 #@! TF.FilePolarity,Positive*
%FSLAX46Y46*%
G04 Gerber Fmt 4.6, Leading zero omitted, Abs format (unit mm)*
G04 Created by KiCad (PCBNEW 9.0.1) date 2025-08-23 10:31:58*
%MOMM*%
%LPD*%
G01*
G04 APERTURE LIST*
G04 Aperture macros list*
%AMRoundRect*
0 Rectangle with rounded corners*
0 $1 Rounding radius*
0 $2 $3 $4 $5 $6 $7 $8 $9 X,Y pos of 4 corners*
0 Add a 4 corners polygon primitive as box body*
4,1,4,$2,$3,$4,$5,$6,$7,$8,$9,$2,$3,0*
0 Add four circle primitives for the rounded corners*
1,1,$1+$1,$2,$3*
1,1,$1+$1,$4,$5*
1,1,$1+$1,$6,$7*
1,1,$1+$1,$8,$9*
0 Add four rect primitives between the rounded corners*
20,1,$1+$1,$2,$3,$4,$5,0*
20,1,$1+$1,$4,$5,$6,$7,0*
20,1,$1+$1,$6,$7,$8,$9,0*
20,1,$1+$1,$8,$9,$2,$3,0*%
G04 Aperture macros list end*
%ADD10C,0.100000*%
%ADD11C,0.175000*%
%ADD12C,0.120000*%
%ADD13C,0.150000*%
%ADD14R,1.700000X1.700000*%
%ADD15C,1.700000*%
%ADD16RoundRect,0.250000X-0.250000X-0.475000X0.250000X-0.475000X0.250000X0.475000X-0.250000X0.475000X0*%
%ADD17RoundRect,0.250000X-0.475000X0.250000X-0.475000X-0.250000X0.475000X-0.250000X0.475000X0.250000X0*%
%ADD18RoundRect,0.250000X-0.262500X-0.450000X0.262500X-0.450000X0.262500X0.450000X-0.262500X0.450000X0*%
%ADD19R,2.460000X2.310000*%
%ADD20RoundRect,0.100000X-0.687500X-0.100000X0.687500X-0.100000X0.687500X0.100000X-0.687500X0.100000X0*%
%ADD21RoundRect,0.243750X0.243750X0.456250X-0.243750X0.456250X-0.243750X-0.456250X0.243750X-0.456250X0*%
%ADD22RoundRect,0.250000X-0.785000X-0.945000X0.785000X-0.945000X0.785000X0.945000X-0.785000X0.945000X0*%
G04 APERTURE END LIST*
D10*
X152575800Y-100500877D02*
X152542466Y-100467544D01*
X152542466Y-100467544D02*
X152509133Y-100400877D01*
X152509133Y-100400877D02*
X152509133Y-100234211D01*
X152509133Y-100234211D02*
X152542466Y-100167544D01*
X152542466Y-100167544D02*
X152575800Y-100134211D01*
X152575800Y-100134211D02*
X152642466Y-100100877D01*
X152642466Y-100100877D02*
X152709133Y-100100877D01*
X152709133Y-100100877D02*
X152809133Y-100134211D01*
X152809133Y-100134211D02*
X153209133Y-100534211D01*
X153209133Y-100534211D02*
X153209133Y-100100877D01*
X152575800Y-99834210D02*
X152542466Y-99800877D01*
X152542466Y-99800877D02*
X152509133Y-99734210D01*
X152509133Y-99734210D02*
X152509133Y-99567544D01*
X152509133Y-99567544D02*
X152542466Y-99500877D01*
X152542466Y-99500877D02*
X152575800Y-99467544D01*
X152575800Y-99467544D02*
X152642466Y-99434210D01*
X152642466Y-99434210D02*
X152709133Y-99434210D01*
X152709133Y-99434210D02*
X152809133Y-99467544D01*
X152809133Y-99467544D02*
X153209133Y-99867544D01*
X153209133Y-99867544D02*
X153209133Y-99434210D01*
X152475800Y-98634210D02*
X153375800Y-99234210D01*
X152509133Y-98267544D02*
X152509133Y-98200877D01*
X152509133Y-98200877D02*
X152542466Y-98134210D01*
X152542466Y-98134210D02*
X152575800Y-98100877D01*
X152575800Y-98100877D02*
X152642466Y-98067544D01*
X152642466Y-98067544D02*
X152775800Y-98034210D01*
X152775800Y-98034210D02*
X152942466Y-98034210D01*
X152942466Y-98034210D02*
X153075800Y-98067544D01*
X153075800Y-98067544D02*
X153142466Y-98100877D01*
X153142466Y-98100877D02*
X153175800Y-98134210D01*
X153175800Y-98134210D02*
X153209133Y-98200877D01*
X153209133Y-98200877D02*
X153209133Y-98267544D01*
X153209133Y-98267544D02*
X153175800Y-98334210D01*
X153175800Y-98334210D02*
X153142466Y-98367544D01*
X153142466Y-98367544D02*
X153075800Y-98400877D01*
X153075800Y-98400877D02*
X152942466Y-98434210D01*
X152942466Y-98434210D02*
X152775800Y-98434210D01*
X152775800Y-98434210D02*
X152642466Y-98400877D01*
X152642466Y-98400877D02*
X152575800Y-98367544D01*
X152575800Y-98367544D02*
X152542466Y-98334210D01*
X152542466Y-98334210D02*
X152509133Y-98267544D01*
X152809133Y-97634210D02*
X152775800Y-97700877D01*
X152775800Y-97700877D02*
X152742466Y-97734210D01*
X152742466Y-97734210D02*
X152675800Y-97767543D01*
X152675800Y-97767543D02*
X152642466Y-97767543D01*
X152642466Y-97767543D02*
X152575800Y-97734210D01*
X152575800Y-97734210D02*
X152542466Y-97700877D01*
X152542466Y-97700877D02*
X152509133Y-97634210D01*
X152509133Y-97634210D02*
X152509133Y-97500877D01*
X152509133Y-97500877D02*
X152542466Y-97434210D01*
X152542466Y-97434210D02*
X152575800Y-97400877D01*
X152575800Y-97400877D02*
X152642466Y-97367543D01*
X152642466Y-97367543D02*
X152675800Y-97367543D01*
X152675800Y-97367543D02*
X152742466Y-97400877D01*
X152742466Y-97400877D02*
X152775800Y-97434210D01*
X152775800Y-97434210D02*
X152809133Y-97500877D01*
X152809133Y-97500877D02*
X152809133Y-97634210D01*
X152809133Y-97634210D02*
X152842466Y-97700877D01*
X152842466Y-97700877D02*
X152875800Y-97734210D01*
X152875800Y-97734210D02*
X152942466Y-97767543D01*
X152942466Y-97767543D02*
X153075800Y-97767543D01*
X153075800Y-97767543D02*
X153142466Y-97734210D01*
X153142466Y-97734210D02*
X153175800Y-97700877D01*
X153175800Y-97700877D02*
X153209133Y-97634210D01*
X153209133Y-97634210D02*
X153209133Y-97500877D01*
X153209133Y-97500877D02*
X153175800Y-97434210D01*
X153175800Y-97434210D02*
X153142466Y-97400877D01*
X153142466Y-97400877D02*
X153075800Y-97367543D01*
X153075800Y-97367543D02*
X152942466Y-97367543D01*
X152942466Y-97367543D02*
X152875800Y-97400877D01*
X152875800Y-97400877D02*
X152842466Y-97434210D01*
X152842466Y-97434210D02*
X152809133Y-97500877D01*
X152475800Y-96567543D02*
X153375800Y-97167543D01*
X152575800Y-96367543D02*
X152542466Y-96334210D01*
X152542466Y-96334210D02*
X152509133Y-96267543D01*
X152509133Y-96267543D02*
X152509133Y-96100877D01*
X152509133Y-96100877D02*
X152542466Y-96034210D01*
X152542466Y-96034210D02*
X152575800Y-96000877D01*
X152575800Y-96000877D02*
X152642466Y-95967543D01*
X152642466Y-95967543D02*
X152709133Y-95967543D01*
X152709133Y-95967543D02*
X152809133Y-96000877D01*
X152809133Y-96000877D02*
X153209133Y-96400877D01*
X153209133Y-96400877D02*
X153209133Y-95967543D01*
X152509133Y-95534210D02*
X152509133Y-95467543D01*
X152509133Y-95467543D02*
X152542466Y-95400876D01*
X152542466Y-95400876D02*
X152575800Y-95367543D01*
X152575800Y-95367543D02*
X152642466Y-95334210D01*
X152642466Y-95334210D02*
X152775800Y-95300876D01*
X152775800Y-95300876D02*
X152942466Y-95300876D01*
X152942466Y-95300876D02*
X153075800Y-95334210D01*
X153075800Y-95334210D02*
X153142466Y-95367543D01*
X153142466Y-95367543D02*
X153175800Y-95400876D01*
X153175800Y-95400876D02*
X153209133Y-95467543D01*
X153209133Y-95467543D02*
X153209133Y-95534210D01*
X153209133Y-95534210D02*
X153175800Y-95600876D01*
X153175800Y-95600876D02*
X153142466Y-95634210D01*
X153142466Y-95634210D02*
X153075800Y-95667543D01*
X153075800Y-95667543D02*
X152942466Y-95700876D01*
X152942466Y-95700876D02*
X152775800Y-95700876D01*
X152775800Y-95700876D02*
X152642466Y-95667543D01*
X152642466Y-95667543D02*
X152575800Y-95634210D01*
X152575800Y-95634210D02*
X152542466Y-95600876D01*
X152542466Y-95600876D02*
X152509133Y-95534210D01*
X152575800Y-95034209D02*
X152542466Y-95000876D01*
X152542466Y-95000876D02*
X152509133Y-94934209D01*
X152509133Y-94934209D02*
X152509133Y-94767543D01*
X152509133Y-94767543D02*
X152542466Y-94700876D01*
X152542466Y-94700876D02*
X152575800Y-94667543D01*
X152575800Y-94667543D02*
X152642466Y-94634209D01*
X152642466Y-94634209D02*
X152709133Y-94634209D01*
X152709133Y-94634209D02*
X152809133Y-94667543D01*
X152809133Y-94667543D02*
X153209133Y-95067543D01*
X153209133Y-95067543D02*
X153209133Y-94634209D01*
X152509133Y-94000876D02*
X152509133Y-94334209D01*
X152509133Y-94334209D02*
X152842466Y-94367542D01*
X152842466Y-94367542D02*
X152809133Y-94334209D01*
X152809133Y-94334209D02*
X152775800Y-94267542D01*
X152775800Y-94267542D02*
X152775800Y-94100876D01*
X152775800Y-94100876D02*
X152809133Y-94034209D01*
X152809133Y-94034209D02*
X152842466Y-94000876D01*
X152842466Y-94000876D02*
X152909133Y-93967542D01*
X152909133Y-93967542D02*
X153075800Y-93967542D01*
X153075800Y-93967542D02*
X153142466Y-94000876D01*
X153142466Y-94000876D02*
X153175800Y-94034209D01*
X153175800Y-94034209D02*
X153209133Y-94100876D01*
X153209133Y-94100876D02*
X153209133Y-94267542D01*
X153209133Y-94267542D02*
X153175800Y-94334209D01*
X153175800Y-94334209D02*
X153142466Y-94367542D01*
D11*
G36*
X156345832Y-92317733D02*
G01*
X156253987Y-92317733D01*
X156218499Y-92299989D01*
X156205243Y-92286733D01*
X156187499Y-92251245D01*
X156187499Y-92092556D01*
X156205244Y-92057065D01*
X156218497Y-92043811D01*
X156253989Y-92026066D01*
X156345832Y-92026066D01*
X156345832Y-92317733D01*
G37*
G36*
X157519399Y-91815044D02*
G01*
X157561418Y-91857063D01*
X157584106Y-91902439D01*
X157612498Y-92016006D01*
X157612498Y-92094460D01*
X157584106Y-92208026D01*
X157561418Y-92253402D01*
X157519399Y-92295421D01*
X157452465Y-92317733D01*
X157387498Y-92317733D01*
X157387498Y-91792733D01*
X157452465Y-91792733D01*
X157519399Y-91815044D01*
G37*
G36*
X159548165Y-92110477D02*
G01*
X159561421Y-92123733D01*
X159579165Y-92159221D01*
X159579165Y-92251245D01*
X159561421Y-92286733D01*
X159548165Y-92299989D01*
X159512677Y-92317733D01*
X159420653Y-92317733D01*
X159385165Y-92299989D01*
X159371909Y-92286733D01*
X159354165Y-92251245D01*
X159354165Y-92159221D01*
X159371909Y-92123733D01*
X159385165Y-92110477D01*
X159420653Y-92092733D01*
X159512677Y-92092733D01*
X159548165Y-92110477D01*
G37*
G36*
X159548165Y-91810477D02*
G01*
X159561421Y-91823733D01*
X159577171Y-91855233D01*
X159561421Y-91886733D01*
X159548165Y-91899989D01*
X159512677Y-91917733D01*
X159420653Y-91917733D01*
X159385165Y-91899989D01*
X159371909Y-91886733D01*
X159356159Y-91855233D01*
X159371909Y-91823733D01*
X159385165Y-91810477D01*
X159420653Y-91792733D01*
X159512677Y-91792733D01*
X159548165Y-91810477D01*
G37*
G36*
X160214832Y-92110477D02*
G01*
X160228088Y-92123733D01*
X160245832Y-92159221D01*
X160245832Y-92251245D01*
X160228088Y-92286733D01*
X160214832Y-92299989D01*
X160179344Y-92317733D01*
X160087320Y-92317733D01*
X160051832Y-92299989D01*
X160038576Y-92286733D01*
X160020832Y-92251245D01*
X160020832Y-92159221D01*
X160038576Y-92123733D01*
X160051832Y-92110477D01*
X160087320Y-92092733D01*
X160179344Y-92092733D01*
X160214832Y-92110477D01*
G37*
G36*
X160214832Y-91810477D02*
G01*
X160228088Y-91823733D01*
X160243838Y-91855233D01*
X160228088Y-91886733D01*
X160214832Y-91899989D01*
X160179344Y-91917733D01*
X160087320Y-91917733D01*
X160051832Y-91899989D01*
X160038576Y-91886733D01*
X160022826Y-91855233D01*
X160038576Y-91823733D01*
X160051832Y-91810477D01*
X160087320Y-91792733D01*
X160179344Y-91792733D01*
X160214832Y-91810477D01*
G37*
G36*
X158281499Y-91810478D02*
G01*
X158294753Y-91823732D01*
X158312498Y-91859221D01*
X158312498Y-91917909D01*
X158294751Y-91953402D01*
X158281499Y-91966654D01*
X158246009Y-91984400D01*
X158087498Y-91984400D01*
X158087498Y-91792733D01*
X158246009Y-91792733D01*
X158281499Y-91810478D01*
G37*
G36*
X155748168Y-90916851D02*
G01*
X155761422Y-90930105D01*
X155779168Y-90965595D01*
X155779168Y-91124283D01*
X155761422Y-91159774D01*
X155748168Y-91173027D01*
X155712678Y-91190773D01*
X155653989Y-91190773D01*
X155618501Y-91173029D01*
X155605245Y-91159773D01*
X155587501Y-91124285D01*
X155587501Y-90965596D01*
X155605246Y-90930105D01*
X155618499Y-90916851D01*
X155653991Y-90899106D01*
X155712678Y-90899106D01*
X155748168Y-90916851D01*
G37*
G36*
X156781501Y-90916851D02*
G01*
X156794755Y-90930105D01*
X156812501Y-90965595D01*
X156812501Y-91124283D01*
X156794755Y-91159774D01*
X156781501Y-91173027D01*
X156746011Y-91190773D01*
X156687322Y-91190773D01*
X156651834Y-91173029D01*
X156638578Y-91159773D01*
X156620834Y-91124285D01*
X156620834Y-90965596D01*
X156638579Y-90930105D01*
X156651832Y-90916851D01*
X156687324Y-90899106D01*
X156746011Y-90899106D01*
X156781501Y-90916851D01*
G37*
G36*
X158386067Y-90688084D02*
G01*
X158428086Y-90730103D01*
X158450774Y-90775479D01*
X158479166Y-90889046D01*
X158479166Y-90967500D01*
X158450774Y-91081066D01*
X158428086Y-91126442D01*
X158386067Y-91168461D01*
X158319133Y-91190773D01*
X158254166Y-91190773D01*
X158254166Y-90665773D01*
X158319133Y-90665773D01*
X158386067Y-90688084D01*
G37*
G36*
X160366101Y-90909152D02*
G01*
X160220832Y-90938206D01*
X160220832Y-90932261D01*
X160231883Y-90910158D01*
X160253988Y-90899106D01*
X160346009Y-90899106D01*
X160366101Y-90909152D01*
G37*
G36*
X161841666Y-92813566D02*
G01*
X153791666Y-92813566D01*
X153791666Y-91938566D01*
X153879166Y-91938566D01*
X153879166Y-92305233D01*
X153880847Y-92322303D01*
X153882050Y-92325207D01*
X153882273Y-92328345D01*
X153888404Y-92344365D01*
X153921738Y-92411031D01*
X153923535Y-92413886D01*
X153923984Y-92415233D01*
X153925437Y-92416909D01*
X153930875Y-92425548D01*
X153939167Y-92432739D01*
X153946353Y-92441025D01*
X153954985Y-92446458D01*
X153956667Y-92447917D01*
X153958017Y-92448367D01*
X153960869Y-92450162D01*
X154027535Y-92483495D01*
X154043555Y-92489626D01*
X154046691Y-92489848D01*
X154049596Y-92491052D01*
X154066666Y-92492733D01*
X154166666Y-92492733D01*
X154183736Y-92491052D01*
X154186640Y-92489848D01*
X154189777Y-92489626D01*
X154205797Y-92483496D01*
X154217641Y-92477574D01*
X154218054Y-92477987D01*
X154249596Y-92491052D01*
X154283736Y-92491052D01*
X154315278Y-92477987D01*
X154339420Y-92453845D01*
X154352485Y-92422303D01*
X154354166Y-92405233D01*
X154354166Y-92038566D01*
X154479166Y-92038566D01*
X154479166Y-92071900D01*
X154480847Y-92088970D01*
X154482050Y-92091874D01*
X154482273Y-92095012D01*
X154488404Y-92111031D01*
X154521737Y-92177697D01*
X154523531Y-92180548D01*
X154523982Y-92181899D01*
X154525440Y-92183580D01*
X154530874Y-92192213D01*
X154539160Y-92199399D01*
X154546351Y-92207691D01*
X154554987Y-92213127D01*
X154556666Y-92214583D01*
X154558014Y-92215032D01*
X154560867Y-92216828D01*
X154627534Y-92250162D01*
X154643554Y-92256293D01*
X154646691Y-92256515D01*
X154649596Y-92257719D01*
X154666666Y-92259400D01*
X154746010Y-92259400D01*
X154768113Y-92270451D01*
X154777170Y-92288566D01*
X154768113Y-92306681D01*
X154746010Y-92317733D01*
X154653990Y-92317733D01*
X154605797Y-92293637D01*
X154589777Y-92287507D01*
X154555722Y-92285087D01*
X154523332Y-92295884D01*
X154497541Y-92318253D01*
X154482273Y-92348789D01*
X154479853Y-92382844D01*
X154490650Y-92415234D01*
X154513019Y-92441025D01*
X154527535Y-92450163D01*
X154594203Y-92483496D01*
X154610222Y-92489626D01*
X154613358Y-92489848D01*
X154616263Y-92491052D01*
X154633333Y-92492733D01*
X154766666Y-92492733D01*
X154783736Y-92491052D01*
X154786640Y-92489848D01*
X154789777Y-92489626D01*
X154805797Y-92483496D01*
X154872464Y-92450163D01*
X154875320Y-92448364D01*
X154876667Y-92447916D01*
X154878344Y-92446461D01*
X154886980Y-92441025D01*
X154894169Y-92432736D01*
X154902458Y-92425547D01*
X154907894Y-92416911D01*
X154909349Y-92415234D01*
X154909797Y-92413887D01*
X154911596Y-92411031D01*
X154944929Y-92344363D01*
X154951059Y-92328344D01*
X154951281Y-92325207D01*
X154952485Y-92322303D01*
X154954166Y-92305233D01*
X154954166Y-92271900D01*
X154952485Y-92254830D01*
X154951281Y-92251925D01*
X154951059Y-92248789D01*
X154944929Y-92232770D01*
X154911596Y-92166102D01*
X154909797Y-92163245D01*
X154909349Y-92161899D01*
X154907894Y-92160221D01*
X154902458Y-92151586D01*
X154894169Y-92144396D01*
X154886980Y-92136108D01*
X154878344Y-92130671D01*
X154876667Y-92129217D01*
X154875320Y-92128768D01*
X154872464Y-92126970D01*
X154805797Y-92093637D01*
X154789777Y-92087507D01*
X154786640Y-92087284D01*
X154783736Y-92086081D01*
X154766666Y-92084400D01*
X154687322Y-92084400D01*
X154665217Y-92073347D01*
X154656160Y-92055233D01*
X154665217Y-92037118D01*
X154687322Y-92026066D01*
X154746010Y-92026066D01*
X154794201Y-92050162D01*
X154810221Y-92056293D01*
X154844276Y-92058713D01*
X154876666Y-92047917D01*
X154902457Y-92025548D01*
X154917725Y-91995012D01*
X154920146Y-91960957D01*
X154909350Y-91928567D01*
X154886981Y-91902775D01*
X154872464Y-91893638D01*
X154805798Y-91860304D01*
X154789778Y-91854173D01*
X154786640Y-91853950D01*
X154783736Y-91852747D01*
X154766666Y-91851066D01*
X154666666Y-91851066D01*
X154649596Y-91852747D01*
X154646691Y-91853950D01*
X154643554Y-91854173D01*
X154627534Y-91860304D01*
X154560867Y-91893638D01*
X154558014Y-91895433D01*
X154556666Y-91895883D01*
X154554987Y-91897338D01*
X154546351Y-91902775D01*
X154539160Y-91911066D01*
X154530874Y-91918253D01*
X154525440Y-91926885D01*
X154523982Y-91928567D01*
X154523531Y-91929917D01*
X154521737Y-91932769D01*
X154488404Y-91999435D01*
X154482273Y-92015454D01*
X154482050Y-92018591D01*
X154480847Y-92021496D01*
X154479166Y-92038566D01*
X154354166Y-92038566D01*
X154354166Y-91938566D01*
X154352485Y-91921496D01*
X154339420Y-91889954D01*
X154315278Y-91865812D01*
X154283736Y-91852747D01*
X154249596Y-91852747D01*
X154218054Y-91865812D01*
X154193912Y-91889954D01*
X154180847Y-91921496D01*
X154179166Y-91938566D01*
X154179166Y-92301155D01*
X154146010Y-92317733D01*
X154087321Y-92317733D01*
X154065218Y-92306681D01*
X154054166Y-92284576D01*
X154054166Y-91938566D01*
X154052485Y-91921496D01*
X154039420Y-91889954D01*
X154015278Y-91865812D01*
X153983736Y-91852747D01*
X153949596Y-91852747D01*
X153918054Y-91865812D01*
X153893912Y-91889954D01*
X153880847Y-91921496D01*
X153879166Y-91938566D01*
X153791666Y-91938566D01*
X153791666Y-91721495D01*
X155047514Y-91721495D01*
X155047514Y-91755637D01*
X155060579Y-91787179D01*
X155060583Y-91787183D01*
X155071460Y-91800437D01*
X155104793Y-91833771D01*
X155118052Y-91844653D01*
X155118053Y-91844654D01*
X155133533Y-91851066D01*
X155143593Y-91855233D01*
X155118054Y-91865812D01*
X155093912Y-91889954D01*
X155080847Y-91921496D01*
X155079166Y-91938566D01*
X155079166Y-92405233D01*
X155080847Y-92422303D01*
X155093912Y-92453845D01*
X155118054Y-92477987D01*
X155149596Y-92491052D01*
X155183736Y-92491052D01*
X155215278Y-92477987D01*
X155239420Y-92453845D01*
X155252485Y-92422303D01*
X155254166Y-92405233D01*
X155254166Y-91938566D01*
X155412499Y-91938566D01*
X155412499Y-92405233D01*
X155414180Y-92422303D01*
X155427245Y-92453845D01*
X155451387Y-92477987D01*
X155482929Y-92491052D01*
X155517069Y-92491052D01*
X155548611Y-92477987D01*
X155572753Y-92453845D01*
X155585818Y-92422303D01*
X155587499Y-92405233D01*
X155587499Y-92042644D01*
X155620656Y-92026066D01*
X155679343Y-92026066D01*
X155701447Y-92037118D01*
X155712499Y-92059221D01*
X155712499Y-92405233D01*
X155714180Y-92422303D01*
X155727245Y-92453845D01*
X155751387Y-92477987D01*
X155782929Y-92491052D01*
X155817069Y-92491052D01*
X155848611Y-92477987D01*
X155872753Y-92453845D01*
X155885818Y-92422303D01*
X155887499Y-92405233D01*
X155887499Y-92071900D01*
X156012499Y-92071900D01*
X156012499Y-92271900D01*
X156014180Y-92288970D01*
X156015383Y-92291874D01*
X156015606Y-92295012D01*
X156021737Y-92311031D01*
X156055070Y-92377697D01*
X156059692Y-92385040D01*
X156060578Y-92387179D01*
X156062553Y-92389585D01*
X156064207Y-92392213D01*
X156065950Y-92393725D01*
X156071460Y-92400438D01*
X156104794Y-92433772D01*
X156111505Y-92439279D01*
X156113019Y-92441025D01*
X156115650Y-92442681D01*
X156118053Y-92444653D01*
X156120187Y-92445537D01*
X156127535Y-92450162D01*
X156194201Y-92483495D01*
X156210221Y-92489626D01*
X156213357Y-92489848D01*
X156216262Y-92491052D01*
X156233332Y-92492733D01*
X156341754Y-92492733D01*
X156328085Y-92520069D01*
X156314834Y-92533320D01*
X156279343Y-92551066D01*
X156220656Y-92551066D01*
X156172463Y-92526970D01*
X156156443Y-92520840D01*
X156122388Y-92518420D01*
X156089998Y-92529217D01*
X156064207Y-92551586D01*
X156048939Y-92582122D01*
X156046519Y-92616177D01*
X156057316Y-92648567D01*
X156079685Y-92674358D01*
X156094201Y-92683496D01*
X156160869Y-92716829D01*
X156176888Y-92722959D01*
X156180024Y-92723181D01*
X156182929Y-92724385D01*
X156199999Y-92726066D01*
X156299999Y-92726066D01*
X156317069Y-92724385D01*
X156319973Y-92723181D01*
X156323110Y-92722959D01*
X156339130Y-92716829D01*
X156405797Y-92683496D01*
X156413142Y-92678872D01*
X156415279Y-92677987D01*
X156417684Y-92676012D01*
X156420313Y-92674358D01*
X156421825Y-92672614D01*
X156428538Y-92667105D01*
X156461871Y-92633772D01*
X156467380Y-92627059D01*
X156469124Y-92625547D01*
X156470778Y-92622918D01*
X156472753Y-92620513D01*
X156473638Y-92618376D01*
X156478262Y-92611031D01*
X156511595Y-92544363D01*
X156517725Y-92528344D01*
X156517947Y-92525207D01*
X156519151Y-92522303D01*
X156520832Y-92505233D01*
X156520832Y-91938566D01*
X156519151Y-91921496D01*
X156506086Y-91889954D01*
X156481944Y-91865812D01*
X156450402Y-91852747D01*
X156416262Y-91852747D01*
X156401754Y-91858756D01*
X156389779Y-91854173D01*
X156386640Y-91853949D01*
X156383736Y-91852747D01*
X156366666Y-91851066D01*
X156233332Y-91851066D01*
X156216262Y-91852747D01*
X156213355Y-91853951D01*
X156210219Y-91854174D01*
X156194200Y-91860304D01*
X156127534Y-91893638D01*
X156120189Y-91898261D01*
X156118054Y-91899146D01*
X156115648Y-91901120D01*
X156113018Y-91902776D01*
X156111505Y-91904520D01*
X156104795Y-91910027D01*
X156071461Y-91943360D01*
X156065951Y-91950072D01*
X156064207Y-91951586D01*
X156062551Y-91954215D01*
X156060579Y-91956619D01*
X156059694Y-91958753D01*
X156055069Y-91966102D01*
X156021736Y-92032769D01*
X156015606Y-92048789D01*
X156015383Y-92051925D01*
X156014180Y-92054830D01*
X156012499Y-92071900D01*
X155887499Y-92071900D01*
X155887499Y-92038566D01*
X155885818Y-92021496D01*
X155884614Y-92018591D01*
X155884392Y-92015455D01*
X155878261Y-91999435D01*
X155844928Y-91932769D01*
X155843133Y-91929917D01*
X155842683Y-91928567D01*
X155841224Y-91926885D01*
X155835791Y-91918253D01*
X155827505Y-91911067D01*
X155820314Y-91902775D01*
X155811675Y-91897337D01*
X155809999Y-91895884D01*
X155808652Y-91895435D01*
X155805797Y-91893638D01*
X155739131Y-91860304D01*
X155723111Y-91854173D01*
X155719973Y-91853950D01*
X155717069Y-91852747D01*
X155699999Y-91851066D01*
X155599999Y-91851066D01*
X155582929Y-91852747D01*
X155580022Y-91853951D01*
X155576886Y-91854174D01*
X155560867Y-91860304D01*
X155549024Y-91866225D01*
X155548611Y-91865812D01*
X155517069Y-91852747D01*
X155482929Y-91852747D01*
X155451387Y-91865812D01*
X155427245Y-91889954D01*
X155414180Y-91921496D01*
X155412499Y-91938566D01*
X155254166Y-91938566D01*
X155252485Y-91921496D01*
X155239420Y-91889954D01*
X155215278Y-91865812D01*
X155189738Y-91855233D01*
X155215279Y-91844654D01*
X155228538Y-91833772D01*
X155261872Y-91800438D01*
X155272753Y-91787179D01*
X155272752Y-91787179D01*
X155272754Y-91787178D01*
X155285819Y-91755636D01*
X155285819Y-91721494D01*
X155279083Y-91705233D01*
X157212498Y-91705233D01*
X157212498Y-92405233D01*
X157214179Y-92422303D01*
X157227244Y-92453845D01*
X157251386Y-92477987D01*
X157282928Y-92491052D01*
X157299998Y-92492733D01*
X157466665Y-92492733D01*
X157475304Y-92491882D01*
X157477609Y-92492046D01*
X157480640Y-92491356D01*
X157483735Y-92491052D01*
X157485869Y-92490167D01*
X157494335Y-92488243D01*
X157594335Y-92454910D01*
X157609997Y-92447917D01*
X157612370Y-92445858D01*
X157615278Y-92444654D01*
X157628537Y-92433772D01*
X157695204Y-92367105D01*
X157700711Y-92360394D01*
X157702457Y-92358880D01*
X157704114Y-92356247D01*
X157706085Y-92353846D01*
X157706968Y-92351713D01*
X157711595Y-92344364D01*
X157744928Y-92277696D01*
X157745405Y-92276448D01*
X157745782Y-92275940D01*
X157748344Y-92268767D01*
X157751058Y-92261677D01*
X157751102Y-92261048D01*
X157751553Y-92259788D01*
X157784885Y-92126455D01*
X157785322Y-92123496D01*
X157785817Y-92122303D01*
X157786449Y-92115875D01*
X157787395Y-92109487D01*
X157787204Y-92108209D01*
X157787498Y-92105233D01*
X157787498Y-92005233D01*
X157787204Y-92002256D01*
X157787395Y-92000979D01*
X157786449Y-91994590D01*
X157785817Y-91988163D01*
X157785322Y-91986969D01*
X157784885Y-91984011D01*
X157751553Y-91850678D01*
X157751102Y-91849417D01*
X157751058Y-91848789D01*
X157748344Y-91841698D01*
X157745782Y-91834526D01*
X157745405Y-91834017D01*
X157744928Y-91832770D01*
X157711595Y-91766102D01*
X157706968Y-91758752D01*
X157706085Y-91756620D01*
X157704114Y-91754218D01*
X157702457Y-91751586D01*
X157700711Y-91750071D01*
X157695204Y-91743361D01*
X157657076Y-91705233D01*
X157912498Y-91705233D01*
X157912498Y-92405233D01*
X157914179Y-92422303D01*
X157927244Y-92453845D01*
X157951386Y-92477987D01*
X157982928Y-92491052D01*
X158017068Y-92491052D01*
X158048610Y-92477987D01*
X158072752Y-92453845D01*
X158085817Y-92422303D01*
X158087498Y-92405233D01*
X158087498Y-92159400D01*
X158121107Y-92159400D01*
X158328315Y-92455411D01*
X158339481Y-92468431D01*
X158368273Y-92486779D01*
X158401895Y-92492713D01*
X158435228Y-92485328D01*
X158463196Y-92465750D01*
X158481544Y-92436958D01*
X158487478Y-92403336D01*
X158480093Y-92370004D01*
X158471681Y-92355055D01*
X158322433Y-92141843D01*
X158372463Y-92116828D01*
X158379807Y-92112205D01*
X158381945Y-92111320D01*
X158384349Y-92109346D01*
X158386980Y-92107691D01*
X158388494Y-92105944D01*
X158395204Y-92100438D01*
X158428537Y-92067105D01*
X158434046Y-92060392D01*
X158435790Y-92058880D01*
X158437444Y-92056251D01*
X158439419Y-92053846D01*
X158440304Y-92051709D01*
X158444928Y-92044364D01*
X158478261Y-91977696D01*
X158484391Y-91961677D01*
X158484613Y-91958540D01*
X158485817Y-91955636D01*
X158487498Y-91938566D01*
X158487498Y-91838566D01*
X158485817Y-91821496D01*
X158484613Y-91818591D01*
X158484391Y-91815455D01*
X158478260Y-91799435D01*
X158444927Y-91732769D01*
X158440303Y-91725423D01*
X158439419Y-91723288D01*
X158437445Y-91720883D01*
X158435790Y-91718253D01*
X158434045Y-91716739D01*
X158433584Y-91716177D01*
X158513185Y-91716177D01*
X158516988Y-91732903D01*
X158750322Y-92432903D01*
X158757315Y-92448565D01*
X158761411Y-92453288D01*
X158764208Y-92458881D01*
X158772495Y-92466069D01*
X158779684Y-92474357D01*
X158785276Y-92477153D01*
X158790000Y-92481250D01*
X158800410Y-92484720D01*
X158810222Y-92489626D01*
X158816457Y-92490069D01*
X158822388Y-92492046D01*
X158833332Y-92491268D01*
X158844276Y-92492046D01*
X158850206Y-92490069D01*
X158856443Y-92489626D01*
X158866256Y-92484719D01*
X158876664Y-92481250D01*
X158881387Y-92477153D01*
X158886980Y-92474357D01*
X158894168Y-92466069D01*
X158902456Y-92458881D01*
X158905252Y-92453288D01*
X158909349Y-92448565D01*
X158916342Y-92432903D01*
X159114454Y-91838566D01*
X159179165Y-91838566D01*
X159179165Y-91871900D01*
X159180846Y-91888970D01*
X159182049Y-91891874D01*
X159182272Y-91895012D01*
X159188403Y-91911031D01*
X159221736Y-91977697D01*
X159226358Y-91985040D01*
X159227244Y-91987179D01*
X159229219Y-91989585D01*
X159230873Y-91992213D01*
X159232616Y-91993725D01*
X159238126Y-92000438D01*
X159242921Y-92005233D01*
X159238126Y-92010028D01*
X159232616Y-92016740D01*
X159230873Y-92018253D01*
X159229219Y-92020880D01*
X159227244Y-92023287D01*
X159226358Y-92025425D01*
X159221736Y-92032769D01*
X159188403Y-92099435D01*
X159182272Y-92115454D01*
X159182049Y-92118591D01*
X159180846Y-92121496D01*
X159179165Y-92138566D01*
X159179165Y-92271900D01*
X159180846Y-92288970D01*
X159182049Y-92291874D01*
X159182272Y-92295012D01*
X159188403Y-92311031D01*
X159221736Y-92377697D01*
X159226358Y-92385040D01*
X159227244Y-92387179D01*
X159229219Y-92389585D01*
X159230873Y-92392213D01*
X159232616Y-92393725D01*
X159238126Y-92400438D01*
X159271460Y-92433772D01*
X159278171Y-92439279D01*
X159279685Y-92441025D01*
X159282316Y-92442681D01*
X159284719Y-92444653D01*
X159286853Y-92445537D01*
X159294201Y-92450162D01*
X159360867Y-92483495D01*
X159376887Y-92489626D01*
X159380023Y-92489848D01*
X159382928Y-92491052D01*
X159399998Y-92492733D01*
X159533332Y-92492733D01*
X159550402Y-92491052D01*
X159553306Y-92489848D01*
X159556444Y-92489626D01*
X159572463Y-92483495D01*
X159639129Y-92450162D01*
X159646472Y-92445539D01*
X159648611Y-92444654D01*
X159651017Y-92442678D01*
X159653645Y-92441025D01*
X159655157Y-92439281D01*
X159661870Y-92433772D01*
X159695204Y-92400438D01*
X159700711Y-92393726D01*
X159702457Y-92392213D01*
X159704113Y-92389581D01*
X159706085Y-92387179D01*
X159706969Y-92385044D01*
X159711594Y-92377697D01*
X159744927Y-92311031D01*
X159751058Y-92295011D01*
X159751280Y-92291874D01*
X159752484Y-92288970D01*
X159754165Y-92271900D01*
X159754165Y-92138566D01*
X159752484Y-92121496D01*
X159751280Y-92118591D01*
X159751058Y-92115455D01*
X159744927Y-92099435D01*
X159711594Y-92032769D01*
X159706969Y-92025421D01*
X159706085Y-92023287D01*
X159704113Y-92020884D01*
X159702457Y-92018253D01*
X159700711Y-92016739D01*
X159695204Y-92010028D01*
X159690409Y-92005233D01*
X159695204Y-92000438D01*
X159700711Y-91993726D01*
X159702457Y-91992213D01*
X159704113Y-91989581D01*
X159706085Y-91987179D01*
X159706969Y-91985044D01*
X159711594Y-91977697D01*
X159744927Y-91911031D01*
X159751058Y-91895011D01*
X159751280Y-91891874D01*
X159752484Y-91888970D01*
X159754165Y-91871900D01*
X159754165Y-91838566D01*
X159845832Y-91838566D01*
X159845832Y-91871900D01*
X159847513Y-91888970D01*
X159848716Y-91891874D01*
X159848939Y-91895012D01*
X159855070Y-91911031D01*
X159888403Y-91977697D01*
X159893025Y-91985040D01*
X159893911Y-91987179D01*
X159895886Y-91989585D01*
X159897540Y-91992213D01*
X159899283Y-91993725D01*
X159904793Y-92000438D01*
X159909588Y-92005233D01*
X159904793Y-92010028D01*
X159899283Y-92016740D01*
X159897540Y-92018253D01*
X159895886Y-92020880D01*
X159893911Y-92023287D01*
X159893025Y-92025425D01*
X159888403Y-92032769D01*
X159855070Y-92099435D01*
X159848939Y-92115454D01*
X159848716Y-92118591D01*
X159847513Y-92121496D01*
X159845832Y-92138566D01*
X159845832Y-92271900D01*
X159847513Y-92288970D01*
X159848716Y-92291874D01*
X159848939Y-92295012D01*
X159855070Y-92311031D01*
X159888403Y-92377697D01*
X159893025Y-92385040D01*
X159893911Y-92387179D01*
X159895886Y-92389585D01*
X159897540Y-92392213D01*
X159899283Y-92393725D01*
X159904793Y-92400438D01*
X159938127Y-92433772D01*
X159944838Y-92439279D01*
X159946352Y-92441025D01*
X159948983Y-92442681D01*
X159951386Y-92444653D01*
X159953520Y-92445537D01*
X159960868Y-92450162D01*
X160027534Y-92483495D01*
X160043554Y-92489626D01*
X160046690Y-92489848D01*
X160049595Y-92491052D01*
X160066665Y-92492733D01*
X160199999Y-92492733D01*
X160217069Y-92491052D01*
X160219973Y-92489848D01*
X160223111Y-92489626D01*
X160239130Y-92483495D01*
X160305796Y-92450162D01*
X160313139Y-92445539D01*
X160315278Y-92444654D01*
X160317684Y-92442678D01*
X160320312Y-92441025D01*
X160321824Y-92439281D01*
X160328537Y-92433772D01*
X160361871Y-92400438D01*
X160367378Y-92393726D01*
X160369124Y-92392213D01*
X160370780Y-92389581D01*
X160372752Y-92387179D01*
X160373636Y-92385044D01*
X160378261Y-92377697D01*
X160411594Y-92311031D01*
X160417725Y-92295011D01*
X160417947Y-92291874D01*
X160419151Y-92288970D01*
X160420832Y-92271900D01*
X160420832Y-92138566D01*
X160419151Y-92121496D01*
X160417947Y-92118591D01*
X160417725Y-92115455D01*
X160411594Y-92099435D01*
X160378261Y-92032769D01*
X160373636Y-92025421D01*
X160372752Y-92023287D01*
X160370780Y-92020884D01*
X160369124Y-92018253D01*
X160367378Y-92016739D01*
X160361871Y-92010028D01*
X160357076Y-92005233D01*
X160361871Y-92000438D01*
X160367378Y-91993726D01*
X160369124Y-91992213D01*
X160370780Y-91989581D01*
X160372752Y-91987179D01*
X160373636Y-91985044D01*
X160378261Y-91977697D01*
X160411594Y-91911031D01*
X160417725Y-91895011D01*
X160417947Y-91891874D01*
X160419151Y-91888970D01*
X160420832Y-91871900D01*
X160420832Y-91838566D01*
X160419151Y-91821496D01*
X160417947Y-91818591D01*
X160417725Y-91815455D01*
X160411594Y-91799435D01*
X160378261Y-91732769D01*
X160373636Y-91725421D01*
X160372752Y-91723287D01*
X160370780Y-91720884D01*
X160369124Y-91718253D01*
X160367378Y-91716739D01*
X160361871Y-91710028D01*
X160340006Y-91688163D01*
X160480847Y-91688163D01*
X160480847Y-91722303D01*
X160493912Y-91753845D01*
X160518054Y-91777987D01*
X160549596Y-91791052D01*
X160566666Y-91792733D01*
X160807169Y-91792733D01*
X160700815Y-91914281D01*
X160695539Y-91921660D01*
X160693912Y-91923288D01*
X160693272Y-91924830D01*
X160690840Y-91928234D01*
X160686286Y-91941696D01*
X160680847Y-91954830D01*
X160680847Y-91957781D01*
X160679902Y-91960576D01*
X160680847Y-91974751D01*
X160680847Y-91988970D01*
X160681976Y-91991697D01*
X160682173Y-91994642D01*
X160688474Y-92007383D01*
X160693912Y-92020512D01*
X160695997Y-92022597D01*
X160697307Y-92025245D01*
X160708009Y-92034609D01*
X160718054Y-92044654D01*
X160720779Y-92045782D01*
X160723000Y-92047726D01*
X160736462Y-92052279D01*
X160749596Y-92057719D01*
X160753760Y-92058129D01*
X160755342Y-92058664D01*
X160757637Y-92058510D01*
X160766666Y-92059400D01*
X160846011Y-92059400D01*
X160881499Y-92077144D01*
X160894753Y-92090397D01*
X160912499Y-92125889D01*
X160912499Y-92251245D01*
X160894755Y-92286733D01*
X160881499Y-92299989D01*
X160846011Y-92317733D01*
X160687323Y-92317733D01*
X160651830Y-92299987D01*
X160628539Y-92276695D01*
X160615280Y-92265813D01*
X160583738Y-92252748D01*
X160549596Y-92252747D01*
X160518054Y-92265812D01*
X160493913Y-92289952D01*
X160480848Y-92321494D01*
X160480847Y-92355636D01*
X160493912Y-92387178D01*
X160504793Y-92400437D01*
X160538126Y-92433771D01*
X160544838Y-92439280D01*
X160546352Y-92441025D01*
X160548981Y-92442680D01*
X160551385Y-92444653D01*
X160553520Y-92445537D01*
X160560868Y-92450163D01*
X160627536Y-92483496D01*
X160643555Y-92489626D01*
X160646691Y-92489848D01*
X160649596Y-92491052D01*
X160666666Y-92492733D01*
X160866666Y-92492733D01*
X160883736Y-92491052D01*
X160886640Y-92489848D01*
X160889778Y-92489626D01*
X160905797Y-92483495D01*
X160972463Y-92450162D01*
X160979806Y-92445539D01*
X160981945Y-92444654D01*
X160984351Y-92442678D01*
X160986979Y-92441025D01*
X160988491Y-92439281D01*
X160995204Y-92433772D01*
X161028538Y-92400438D01*
X161034045Y-92393726D01*
X161035791Y-92392213D01*
X161037447Y-92389581D01*
X161039419Y-92387179D01*
X161040303Y-92385044D01*
X161044928Y-92377697D01*
X161078261Y-92311031D01*
X161084392Y-92295011D01*
X161084614Y-92291874D01*
X161085818Y-92288970D01*
X161087499Y-92271900D01*
X161087499Y-92105233D01*
X161085818Y-92088163D01*
X161084614Y-92085258D01*
X161084392Y-92082122D01*
X161078262Y-92066103D01*
X161044929Y-91999435D01*
X161040303Y-91992087D01*
X161039419Y-91989952D01*
X161037446Y-91987548D01*
X161035791Y-91984919D01*
X161034046Y-91983405D01*
X161028537Y-91976693D01*
X160995203Y-91943360D01*
X160988492Y-91937853D01*
X160986979Y-91936108D01*
X160984348Y-91934452D01*
X160981944Y-91932479D01*
X160979807Y-91931594D01*
X160972463Y-91926971D01*
X160937529Y-91909504D01*
X161065849Y-91762852D01*
X161071124Y-91755473D01*
X161072753Y-91753845D01*
X161073392Y-91752301D01*
X161075825Y-91748899D01*
X161080378Y-91735434D01*
X161085818Y-91722303D01*
X161085818Y-91719352D01*
X161086763Y-91716558D01*
X161085818Y-91702382D01*
X161085818Y-91688163D01*
X161147514Y-91688163D01*
X161147514Y-91722303D01*
X161160579Y-91753845D01*
X161184721Y-91777987D01*
X161216263Y-91791052D01*
X161233333Y-91792733D01*
X161473836Y-91792733D01*
X161367482Y-91914281D01*
X161362206Y-91921660D01*
X161360579Y-91923288D01*
X161359939Y-91924830D01*
X161357507Y-91928234D01*
X161352953Y-91941696D01*
X161347514Y-91954830D01*
X161347514Y-91957781D01*
X161346569Y-91960576D01*
X161347514Y-91974751D01*
X161347514Y-91988970D01*
X161348643Y-91991697D01*
X161348840Y-91994642D01*
X161355141Y-92007383D01*
X161360579Y-92020512D01*
X161362664Y-92022597D01*
X161363974Y-92025245D01*
X161374676Y-92034609D01*
X161384721Y-92044654D01*
X161387446Y-92045782D01*
X161389667Y-92047726D01*
X161403129Y-92052279D01*
X161416263Y-92057719D01*
X161420427Y-92058129D01*
X161422009Y-92058664D01*
X161424304Y-92058510D01*
X161433333Y-92059400D01*
X161512678Y-92059400D01*
X161548166Y-92077144D01*
X161561420Y-92090397D01*
X161579166Y-92125889D01*
X161579166Y-92251245D01*
X161561422Y-92286733D01*
X161548166Y-92299989D01*
X161512678Y-92317733D01*
X161353990Y-92317733D01*
X161318497Y-92299987D01*
X161295206Y-92276695D01*
X161281947Y-92265813D01*
X161250405Y-92252748D01*
X161216263Y-92252747D01*
X161184721Y-92265812D01*
X161160580Y-92289952D01*
X161147515Y-92321494D01*
X161147514Y-92355636D01*
X161160579Y-92387178D01*
X161171460Y-92400437D01*
X161204793Y-92433771D01*
X161211505Y-92439280D01*
X161213019Y-92441025D01*
X161215648Y-92442680D01*
X161218052Y-92444653D01*
X161220187Y-92445537D01*
X161227535Y-92450163D01*
X161294203Y-92483496D01*
X161310222Y-92489626D01*
X161313358Y-92489848D01*
X161316263Y-92491052D01*
X161333333Y-92492733D01*
X161533333Y-92492733D01*
X161550403Y-92491052D01*
X161553307Y-92489848D01*
X161556445Y-92489626D01*
X161572464Y-92483495D01*
X161639130Y-92450162D01*
X161646473Y-92445539D01*
X161648612Y-92444654D01*
X161651018Y-92442678D01*
X161653646Y-92441025D01*
X161655158Y-92439281D01*
X161661871Y-92433772D01*
X161695205Y-92400438D01*
X161700712Y-92393726D01*
X161702458Y-92392213D01*
X161704114Y-92389581D01*
X161706086Y-92387179D01*
X161706970Y-92385044D01*
X161711595Y-92377697D01*
X161744928Y-92311031D01*
X161751059Y-92295011D01*
X161751281Y-92291874D01*
X161752485Y-92288970D01*
X161754166Y-92271900D01*
X161754166Y-92105233D01*
X161752485Y-92088163D01*
X161751281Y-92085258D01*
X161751059Y-92082122D01*
X161744929Y-92066103D01*
X161711596Y-91999435D01*
X161706970Y-91992087D01*
X161706086Y-91989952D01*
X161704113Y-91987548D01*
X161702458Y-91984919D01*
X161700713Y-91983405D01*
X161695204Y-91976693D01*
X161661870Y-91943360D01*
X161655159Y-91937853D01*
X161653646Y-91936108D01*
X161651015Y-91934452D01*
X161648611Y-91932479D01*
X161646474Y-91931594D01*
X161639130Y-91926971D01*
X161604196Y-91909504D01*
X161732516Y-91762852D01*
X161737791Y-91755473D01*
X161739420Y-91753845D01*
X161740059Y-91752301D01*
X161742492Y-91748899D01*
X161747045Y-91735434D01*
X161752485Y-91722303D01*
X161752485Y-91719352D01*
X161753430Y-91716558D01*
X161752485Y-91702382D01*
X161752485Y-91688163D01*
X161751355Y-91685435D01*
X161751159Y-91682491D01*
X161744859Y-91669754D01*
X161739420Y-91656621D01*
X161737332Y-91654533D01*
X161736024Y-91651888D01*
X161725329Y-91642530D01*
X161715278Y-91632479D01*
X161712550Y-91631349D01*
X161710331Y-91629407D01*
X161696871Y-91624855D01*
X161683736Y-91619414D01*
X161679571Y-91619003D01*
X161677990Y-91618469D01*
X161675694Y-91618622D01*
X161666666Y-91617733D01*
X161233333Y-91617733D01*
X161216263Y-91619414D01*
X161184721Y-91632479D01*
X161160579Y-91656621D01*
X161147514Y-91688163D01*
X161085818Y-91688163D01*
X161084688Y-91685435D01*
X161084492Y-91682491D01*
X161078192Y-91669754D01*
X161072753Y-91656621D01*
X161070665Y-91654533D01*
X161069357Y-91651888D01*
X161058662Y-91642530D01*
X161048611Y-91632479D01*
X161045883Y-91631349D01*
X161043664Y-91629407D01*
X161030204Y-91624855D01*
X161017069Y-91619414D01*
X161012904Y-91619003D01*
X161011323Y-91618469D01*
X161009027Y-91618622D01*
X160999999Y-91617733D01*
X160566666Y-91617733D01*
X160549596Y-91619414D01*
X160518054Y-91632479D01*
X160493912Y-91656621D01*
X160480847Y-91688163D01*
X160340006Y-91688163D01*
X160328537Y-91676694D01*
X160321824Y-91671184D01*
X160320312Y-91669441D01*
X160317684Y-91667787D01*
X160315278Y-91665812D01*
X160313139Y-91664926D01*
X160305796Y-91660304D01*
X160239130Y-91626971D01*
X160223111Y-91620840D01*
X160219973Y-91620617D01*
X160217069Y-91619414D01*
X160199999Y-91617733D01*
X160066665Y-91617733D01*
X160049595Y-91619414D01*
X160046690Y-91620617D01*
X160043554Y-91620840D01*
X160027534Y-91626971D01*
X159960868Y-91660304D01*
X159953520Y-91664928D01*
X159951386Y-91665813D01*
X159948983Y-91667784D01*
X159946352Y-91669441D01*
X159944838Y-91671186D01*
X159938127Y-91676694D01*
X159904793Y-91710028D01*
X159899283Y-91716740D01*
X159897540Y-91718253D01*
X159895886Y-91720880D01*
X159893911Y-91723287D01*
X159893025Y-91725425D01*
X159888403Y-91732769D01*
X159855070Y-91799435D01*
X159848939Y-91815454D01*
X159848716Y-91818591D01*
X159847513Y-91821496D01*
X159845832Y-91838566D01*
X159754165Y-91838566D01*
X159752484Y-91821496D01*
X159751280Y-91818591D01*
X159751058Y-91815455D01*
X159744927Y-91799435D01*
X159711594Y-91732769D01*
X159706969Y-91725421D01*
X159706085Y-91723287D01*
X159704113Y-91720884D01*
X159702457Y-91718253D01*
X159700711Y-91716739D01*
X159695204Y-91710028D01*
X159661870Y-91676694D01*
X159655157Y-91671184D01*
X159653645Y-91669441D01*
X159651017Y-91667787D01*
X159648611Y-91665812D01*
X159646472Y-91664926D01*
X159639129Y-91660304D01*
X159572463Y-91626971D01*
X159556444Y-91620840D01*
X159553306Y-91620617D01*
X159550402Y-91619414D01*
X159533332Y-91617733D01*
X159399998Y-91617733D01*
X159382928Y-91619414D01*
X159380023Y-91620617D01*
X159376887Y-91620840D01*
X159360867Y-91626971D01*
X159294201Y-91660304D01*
X159286853Y-91664928D01*
X159284719Y-91665813D01*
X159282316Y-91667784D01*
X159279685Y-91669441D01*
X159278171Y-91671186D01*
X159271460Y-91676694D01*
X159238126Y-91710028D01*
X159232616Y-91716740D01*
X159230873Y-91718253D01*
X159229219Y-91720880D01*
X159227244Y-91723287D01*
X159226358Y-91725425D01*
X159221736Y-91732769D01*
X159188403Y-91799435D01*
X159182272Y-91815454D01*
X159182049Y-91818591D01*
X159180846Y-91821496D01*
X159179165Y-91838566D01*
X159114454Y-91838566D01*
X159149675Y-91732903D01*
X159153478Y-91716177D01*
X159151058Y-91682122D01*
X159135789Y-91651585D01*
X159109997Y-91629216D01*
X159077609Y-91618420D01*
X159043555Y-91620840D01*
X159013017Y-91636108D01*
X158990648Y-91661900D01*
X158983655Y-91677563D01*
X158833331Y-92128533D01*
X158683008Y-91677563D01*
X158676015Y-91661901D01*
X158653646Y-91636109D01*
X158623108Y-91620840D01*
X158589054Y-91618420D01*
X158556666Y-91629216D01*
X158530874Y-91651585D01*
X158515605Y-91682123D01*
X158513185Y-91716177D01*
X158433584Y-91716177D01*
X158428538Y-91710029D01*
X158395205Y-91676695D01*
X158388492Y-91671185D01*
X158386979Y-91669441D01*
X158384349Y-91667785D01*
X158381946Y-91665813D01*
X158379811Y-91664928D01*
X158372463Y-91660303D01*
X158305796Y-91626970D01*
X158289776Y-91620840D01*
X158286639Y-91620617D01*
X158283735Y-91619414D01*
X158266665Y-91617733D01*
X157999998Y-91617733D01*
X157982928Y-91619414D01*
X157951386Y-91632479D01*
X157927244Y-91656621D01*
X157914179Y-91688163D01*
X157912498Y-91705233D01*
X157657076Y-91705233D01*
X157628537Y-91676694D01*
X157615278Y-91665812D01*
X157612370Y-91664607D01*
X157609997Y-91662549D01*
X157594335Y-91655556D01*
X157494335Y-91622223D01*
X157485869Y-91620298D01*
X157483735Y-91619414D01*
X157480640Y-91619109D01*
X157477609Y-91618420D01*
X157475304Y-91618583D01*
X157466665Y-91617733D01*
X157299998Y-91617733D01*
X157282928Y-91619414D01*
X157251386Y-91632479D01*
X157227244Y-91656621D01*
X157214179Y-91688163D01*
X157212498Y-91705233D01*
X155279083Y-91705233D01*
X155272753Y-91689952D01*
X155261871Y-91676693D01*
X155228537Y-91643360D01*
X155215283Y-91632483D01*
X155215279Y-91632479D01*
X155183737Y-91619414D01*
X155149595Y-91619414D01*
X155118053Y-91632479D01*
X155104794Y-91643361D01*
X155071461Y-91676694D01*
X155060579Y-91689953D01*
X155047514Y-91721495D01*
X153791666Y-91721495D01*
X153791666Y-90578273D01*
X154645834Y-90578273D01*
X154645834Y-91278273D01*
X154647515Y-91295343D01*
X154660580Y-91326885D01*
X154684722Y-91351027D01*
X154716264Y-91364092D01*
X154750404Y-91364092D01*
X154781946Y-91351027D01*
X154806088Y-91326885D01*
X154819153Y-91295343D01*
X154820834Y-91278273D01*
X154820834Y-90972683D01*
X154887377Y-91115275D01*
X154891079Y-91121525D01*
X154891850Y-91123644D01*
X154893221Y-91125141D01*
X154896119Y-91130033D01*
X154905926Y-91139014D01*
X154914908Y-91148822D01*
X154918430Y-91150465D01*
X154921297Y-91153091D01*
X154933795Y-91157636D01*
X154945845Y-91163259D01*
X154949727Y-91163429D01*
X154953383Y-91164759D01*
X154966668Y-91164174D01*
X154979953Y-91164759D01*
X154983608Y-91163429D01*
X154987491Y-91163259D01*
X154999540Y-91157636D01*
X155012039Y-91153091D01*
X155014905Y-91150465D01*
X155018428Y-91148822D01*
X155027409Y-91139014D01*
X155037217Y-91130033D01*
X155040114Y-91125141D01*
X155041486Y-91123644D01*
X155042256Y-91121525D01*
X155045959Y-91115275D01*
X155112501Y-90972684D01*
X155112501Y-91278273D01*
X155114182Y-91295343D01*
X155127247Y-91326885D01*
X155151389Y-91351027D01*
X155182931Y-91364092D01*
X155217071Y-91364092D01*
X155248613Y-91351027D01*
X155272755Y-91326885D01*
X155285820Y-91295343D01*
X155287501Y-91278273D01*
X155287501Y-90944940D01*
X155412501Y-90944940D01*
X155412501Y-91144940D01*
X155414182Y-91162010D01*
X155415385Y-91164914D01*
X155415608Y-91168052D01*
X155421739Y-91184071D01*
X155455072Y-91250737D01*
X155459694Y-91258080D01*
X155460580Y-91260219D01*
X155462555Y-91262625D01*
X155464209Y-91265253D01*
X155465952Y-91266765D01*
X155471462Y-91273478D01*
X155504796Y-91306812D01*
X155511507Y-91312319D01*
X155513021Y-91314065D01*
X155515652Y-91315721D01*
X155518055Y-91317693D01*
X155520189Y-91318577D01*
X155527537Y-91323202D01*
X155594203Y-91356535D01*
X155610223Y-91362666D01*
X155613359Y-91362888D01*
X155616264Y-91364092D01*
X155633334Y-91365773D01*
X155733334Y-91365773D01*
X155750404Y-91364092D01*
X155753308Y-91362888D01*
X155756445Y-91362666D01*
X155772465Y-91356536D01*
X155839132Y-91323203D01*
X155846480Y-91318577D01*
X155848615Y-91317693D01*
X155851018Y-91315720D01*
X155853648Y-91314065D01*
X155855161Y-91312320D01*
X155861874Y-91306811D01*
X155895207Y-91273477D01*
X155900713Y-91266766D01*
X155902458Y-91265254D01*
X155904113Y-91262623D01*
X155906088Y-91260218D01*
X155906972Y-91258082D01*
X155911596Y-91250738D01*
X155944930Y-91184072D01*
X155951060Y-91168053D01*
X155951282Y-91164916D01*
X155952487Y-91162010D01*
X155954168Y-91144940D01*
X155954168Y-90944940D01*
X155952487Y-90927870D01*
X155951283Y-90924965D01*
X155951061Y-90921828D01*
X155944930Y-90905808D01*
X155911596Y-90839141D01*
X155906972Y-90831796D01*
X155906088Y-90829660D01*
X155904115Y-90827256D01*
X155902459Y-90824625D01*
X155900712Y-90823110D01*
X155895206Y-90816401D01*
X155873341Y-90794536D01*
X155980848Y-90794536D01*
X155980848Y-90828676D01*
X155993913Y-90860218D01*
X156018055Y-90884360D01*
X156049597Y-90897425D01*
X156066667Y-90899106D01*
X156079167Y-90899106D01*
X156079167Y-91178273D01*
X156080848Y-91195343D01*
X156082051Y-91198247D01*
X156082274Y-91201385D01*
X156088405Y-91217405D01*
X156121739Y-91284071D01*
X156123536Y-91286926D01*
X156123985Y-91288273D01*
X156125438Y-91289949D01*
X156130876Y-91298588D01*
X156139168Y-91305779D01*
X156146354Y-91314065D01*
X156154986Y-91319498D01*
X156156668Y-91320957D01*
X156158018Y-91321407D01*
X156160870Y-91323202D01*
X156227536Y-91356535D01*
X156243556Y-91362666D01*
X156246692Y-91362888D01*
X156249597Y-91364092D01*
X156266667Y-91365773D01*
X156333334Y-91365773D01*
X156350404Y-91364092D01*
X156381946Y-91351027D01*
X156406088Y-91326885D01*
X156419153Y-91295343D01*
X156419153Y-91261203D01*
X156406088Y-91229661D01*
X156381946Y-91205519D01*
X156350404Y-91192454D01*
X156333334Y-91190773D01*
X156287322Y-91190773D01*
X156265219Y-91179721D01*
X156254167Y-91157616D01*
X156254167Y-90944940D01*
X156445834Y-90944940D01*
X156445834Y-91144940D01*
X156447515Y-91162010D01*
X156448718Y-91164914D01*
X156448941Y-91168052D01*
X156455072Y-91184071D01*
X156488405Y-91250737D01*
X156493027Y-91258080D01*
X156493913Y-91260219D01*
X156495888Y-91262625D01*
X156497542Y-91265253D01*
X156499285Y-91266765D01*
X156504795Y-91273478D01*
X156538129Y-91306812D01*
X156544840Y-91312319D01*
X156546354Y-91314065D01*
X156548985Y-91315721D01*
X156551388Y-91317693D01*
X156553522Y-91318577D01*
X156560870Y-91323202D01*
X156627536Y-91356535D01*
X156643556Y-91362666D01*
X156646692Y-91362888D01*
X156649597Y-91364092D01*
X156666667Y-91365773D01*
X156766667Y-91365773D01*
X156783737Y-91364092D01*
X156786641Y-91362888D01*
X156789778Y-91362666D01*
X156805798Y-91356536D01*
X156872465Y-91323203D01*
X156879813Y-91318577D01*
X156881948Y-91317693D01*
X156884351Y-91315720D01*
X156886981Y-91314065D01*
X156888494Y-91312320D01*
X156895207Y-91306811D01*
X156928540Y-91273477D01*
X156934046Y-91266766D01*
X156935791Y-91265254D01*
X156937446Y-91262623D01*
X156939421Y-91260218D01*
X156940305Y-91258082D01*
X156944929Y-91250738D01*
X156978263Y-91184072D01*
X156984393Y-91168053D01*
X156984615Y-91164916D01*
X156985820Y-91162010D01*
X156987501Y-91144940D01*
X156987501Y-90944940D01*
X156985820Y-90927870D01*
X156984616Y-90924965D01*
X156984394Y-90921828D01*
X156978263Y-90905808D01*
X156944929Y-90839141D01*
X156940305Y-90831796D01*
X156939421Y-90829660D01*
X156937448Y-90827256D01*
X156935792Y-90824625D01*
X156934045Y-90823110D01*
X156928539Y-90816401D01*
X156923744Y-90811606D01*
X157112500Y-90811606D01*
X157112500Y-91278273D01*
X157114181Y-91295343D01*
X157127246Y-91326885D01*
X157151388Y-91351027D01*
X157182930Y-91364092D01*
X157217070Y-91364092D01*
X157248612Y-91351027D01*
X157272754Y-91326885D01*
X157285819Y-91295343D01*
X157287500Y-91278273D01*
X157287500Y-90965596D01*
X157305245Y-90930105D01*
X157318499Y-90916851D01*
X157353990Y-90899106D01*
X157400000Y-90899106D01*
X157417070Y-90897425D01*
X157448612Y-90884360D01*
X157472754Y-90860218D01*
X157485819Y-90828676D01*
X157485819Y-90794536D01*
X157472754Y-90762994D01*
X157448612Y-90738852D01*
X157417070Y-90725787D01*
X157400000Y-90724106D01*
X157333334Y-90724106D01*
X157316264Y-90725787D01*
X157313359Y-90726990D01*
X157310222Y-90727213D01*
X157294202Y-90733344D01*
X157260136Y-90750376D01*
X157248612Y-90738852D01*
X157217070Y-90725787D01*
X157182930Y-90725787D01*
X157151388Y-90738852D01*
X157127246Y-90762994D01*
X157114181Y-90794536D01*
X157112500Y-90811606D01*
X156923744Y-90811606D01*
X156895206Y-90783068D01*
X156888496Y-90777561D01*
X156886982Y-90775815D01*
X156884351Y-90774159D01*
X156881947Y-90772186D01*
X156879809Y-90771300D01*
X156872465Y-90766678D01*
X156805799Y-90733344D01*
X156789779Y-90727213D01*
X156786641Y-90726990D01*
X156783737Y-90725787D01*
X156766667Y-90724106D01*
X156666667Y-90724106D01*
X156649597Y-90725787D01*
X156646690Y-90726991D01*
X156643554Y-90727214D01*
X156627535Y-90733344D01*
X156560869Y-90766678D01*
X156553524Y-90771301D01*
X156551389Y-90772186D01*
X156548983Y-90774160D01*
X156546353Y-90775816D01*
X156544840Y-90777560D01*
X156538130Y-90783067D01*
X156504796Y-90816400D01*
X156499286Y-90823112D01*
X156497542Y-90824626D01*
X156495886Y-90827255D01*
X156493914Y-90829659D01*
X156493029Y-90831793D01*
X156488404Y-90839142D01*
X156455071Y-90905809D01*
X156448941Y-90921829D01*
X156448718Y-90924965D01*
X156447515Y-90927870D01*
X156445834Y-90944940D01*
X156254167Y-90944940D01*
X156254167Y-90899106D01*
X156333334Y-90899106D01*
X156350404Y-90897425D01*
X156381946Y-90884360D01*
X156406088Y-90860218D01*
X156419153Y-90828676D01*
X156419153Y-90794536D01*
X156406088Y-90762994D01*
X156381946Y-90738852D01*
X156350404Y-90725787D01*
X156333334Y-90724106D01*
X156254167Y-90724106D01*
X156254167Y-90578273D01*
X158079166Y-90578273D01*
X158079166Y-91278273D01*
X158080847Y-91295343D01*
X158093912Y-91326885D01*
X158118054Y-91351027D01*
X158149596Y-91364092D01*
X158166666Y-91365773D01*
X158333333Y-91365773D01*
X158341972Y-91364922D01*
X158344277Y-91365086D01*
X158347308Y-91364396D01*
X158350403Y-91364092D01*
X158352537Y-91363207D01*
X158361003Y-91361283D01*
X158461003Y-91327950D01*
X158476665Y-91320957D01*
X158479038Y-91318898D01*
X158481946Y-91317694D01*
X158495205Y-91306812D01*
X158561872Y-91240145D01*
X158567379Y-91233434D01*
X158569125Y-91231920D01*
X158570782Y-91229287D01*
X158572753Y-91226886D01*
X158573636Y-91224753D01*
X158578263Y-91217404D01*
X158611596Y-91150736D01*
X158612073Y-91149488D01*
X158612450Y-91148980D01*
X158615012Y-91141807D01*
X158617726Y-91134717D01*
X158617770Y-91134088D01*
X158618221Y-91132828D01*
X158651553Y-90999495D01*
X158651990Y-90996536D01*
X158652485Y-90995343D01*
X158653117Y-90988915D01*
X158654063Y-90982527D01*
X158653872Y-90981249D01*
X158654166Y-90978273D01*
X158654166Y-90878273D01*
X158653872Y-90875296D01*
X158654063Y-90874019D01*
X158653117Y-90867630D01*
X158652485Y-90861203D01*
X158651990Y-90860009D01*
X158651553Y-90857051D01*
X158640192Y-90811606D01*
X158779166Y-90811606D01*
X158779166Y-91278273D01*
X158780847Y-91295343D01*
X158793912Y-91326885D01*
X158818054Y-91351027D01*
X158849596Y-91364092D01*
X158883736Y-91364092D01*
X158915278Y-91351027D01*
X158939420Y-91326885D01*
X158952485Y-91295343D01*
X158954166Y-91278273D01*
X158954166Y-90965596D01*
X158971911Y-90930105D01*
X158985165Y-90916851D01*
X159020656Y-90899106D01*
X159066666Y-90899106D01*
X159083736Y-90897425D01*
X159115278Y-90884360D01*
X159139420Y-90860218D01*
X159152485Y-90828676D01*
X159152485Y-90794536D01*
X159139420Y-90762994D01*
X159115278Y-90738852D01*
X159083736Y-90725787D01*
X159066666Y-90724106D01*
X159000000Y-90724106D01*
X158982930Y-90725787D01*
X158980025Y-90726990D01*
X158976888Y-90727213D01*
X158960868Y-90733344D01*
X158926802Y-90750376D01*
X158915278Y-90738852D01*
X158883736Y-90725787D01*
X158849596Y-90725787D01*
X158818054Y-90738852D01*
X158793912Y-90762994D01*
X158780847Y-90794536D01*
X158779166Y-90811606D01*
X158640192Y-90811606D01*
X158618221Y-90723718D01*
X158617770Y-90722457D01*
X158617726Y-90721829D01*
X158615012Y-90714738D01*
X158612450Y-90707566D01*
X158612073Y-90707057D01*
X158611596Y-90705810D01*
X158578263Y-90639142D01*
X158573636Y-90631792D01*
X158572753Y-90629660D01*
X158570782Y-90627258D01*
X158569125Y-90624626D01*
X158567379Y-90623111D01*
X158561872Y-90616401D01*
X158540006Y-90594535D01*
X159180847Y-90594535D01*
X159180847Y-90628677D01*
X159193912Y-90660219D01*
X159193916Y-90660223D01*
X159204793Y-90673477D01*
X159238126Y-90706811D01*
X159251385Y-90717693D01*
X159251386Y-90717694D01*
X159266866Y-90724106D01*
X159276926Y-90728273D01*
X159251387Y-90738852D01*
X159227245Y-90762994D01*
X159214180Y-90794536D01*
X159212499Y-90811606D01*
X159212499Y-91278273D01*
X159214180Y-91295343D01*
X159227245Y-91326885D01*
X159251387Y-91351027D01*
X159282929Y-91364092D01*
X159317069Y-91364092D01*
X159348611Y-91351027D01*
X159372753Y-91326885D01*
X159385818Y-91295343D01*
X159387499Y-91278273D01*
X159387499Y-90824394D01*
X159480105Y-90824394D01*
X159484264Y-90841035D01*
X159650930Y-91307703D01*
X159658254Y-91323213D01*
X159661202Y-91326470D01*
X159663082Y-91330438D01*
X159672570Y-91339027D01*
X159681166Y-91348523D01*
X159685136Y-91350403D01*
X159688392Y-91353351D01*
X159700450Y-91357657D01*
X159712022Y-91363139D01*
X159716407Y-91363357D01*
X159720543Y-91364834D01*
X159733327Y-91364198D01*
X159746120Y-91364834D01*
X159750258Y-91363356D01*
X159754642Y-91363138D01*
X159766207Y-91357659D01*
X159778272Y-91353351D01*
X159781529Y-91350402D01*
X159785497Y-91348523D01*
X159794086Y-91339034D01*
X159803582Y-91330439D01*
X159805462Y-91326468D01*
X159808410Y-91323213D01*
X159815734Y-91307702D01*
X159957197Y-90911606D01*
X160045832Y-90911606D01*
X160045832Y-91178273D01*
X160047513Y-91195343D01*
X160048716Y-91198247D01*
X160048939Y-91201384D01*
X160055069Y-91217404D01*
X160088402Y-91284071D01*
X160090200Y-91286927D01*
X160090649Y-91288274D01*
X160092103Y-91289951D01*
X160097540Y-91298587D01*
X160105828Y-91305776D01*
X160113018Y-91314065D01*
X160121653Y-91319501D01*
X160123331Y-91320956D01*
X160124677Y-91321404D01*
X160127534Y-91323203D01*
X160194202Y-91356536D01*
X160210221Y-91362666D01*
X160213357Y-91362888D01*
X160216262Y-91364092D01*
X160233332Y-91365773D01*
X160366665Y-91365773D01*
X160383735Y-91364092D01*
X160386639Y-91362888D01*
X160389776Y-91362666D01*
X160405796Y-91356536D01*
X160472463Y-91323203D01*
X160486979Y-91314065D01*
X160509348Y-91288274D01*
X160520145Y-91255884D01*
X160517725Y-91221829D01*
X160502457Y-91191293D01*
X160476666Y-91168924D01*
X160444276Y-91158127D01*
X160410221Y-91160547D01*
X160394202Y-91166677D01*
X160346009Y-91190773D01*
X160253989Y-91190773D01*
X160231883Y-91179720D01*
X160220832Y-91157616D01*
X160220832Y-91116672D01*
X160483825Y-91064074D01*
X160500234Y-91059078D01*
X160507358Y-91054307D01*
X160515277Y-91051027D01*
X160521401Y-91044902D01*
X160528601Y-91040081D01*
X160533356Y-91032947D01*
X160539419Y-91026885D01*
X160542735Y-91018879D01*
X160547539Y-91011673D01*
X160549202Y-91003265D01*
X160552484Y-90995343D01*
X160554165Y-90978273D01*
X160554165Y-90911606D01*
X160552484Y-90894536D01*
X160551280Y-90891631D01*
X160551058Y-90888495D01*
X160544927Y-90872475D01*
X160514492Y-90811606D01*
X160679165Y-90811606D01*
X160679165Y-91278273D01*
X160680846Y-91295343D01*
X160693911Y-91326885D01*
X160718053Y-91351027D01*
X160749595Y-91364092D01*
X160783735Y-91364092D01*
X160815277Y-91351027D01*
X160839419Y-91326885D01*
X160852484Y-91295343D01*
X160854165Y-91278273D01*
X160854165Y-90965596D01*
X160871910Y-90930105D01*
X160885164Y-90916851D01*
X160920655Y-90899106D01*
X160966665Y-90899106D01*
X160983735Y-90897425D01*
X161015277Y-90884360D01*
X161039419Y-90860218D01*
X161052484Y-90828676D01*
X161052484Y-90794536D01*
X161039419Y-90762994D01*
X161015277Y-90738852D01*
X160983735Y-90725787D01*
X160966665Y-90724106D01*
X160899999Y-90724106D01*
X160882929Y-90725787D01*
X160880024Y-90726990D01*
X160876887Y-90727213D01*
X160860867Y-90733344D01*
X160826801Y-90750376D01*
X160815277Y-90738852D01*
X160783735Y-90725787D01*
X160749595Y-90725787D01*
X160718053Y-90738852D01*
X160693911Y-90762994D01*
X160680846Y-90794536D01*
X160679165Y-90811606D01*
X160514492Y-90811606D01*
X160511594Y-90805809D01*
X160509799Y-90802957D01*
X160509349Y-90801607D01*
X160507890Y-90799925D01*
X160502457Y-90791293D01*
X160494171Y-90784107D01*
X160486980Y-90775815D01*
X160478341Y-90770377D01*
X160476665Y-90768924D01*
X160475318Y-90768475D01*
X160472463Y-90766678D01*
X160405797Y-90733344D01*
X160389777Y-90727213D01*
X160386639Y-90726990D01*
X160383735Y-90725787D01*
X160366665Y-90724106D01*
X160233332Y-90724106D01*
X160216262Y-90725787D01*
X160213357Y-90726990D01*
X160210220Y-90727213D01*
X160194200Y-90733344D01*
X160127533Y-90766678D01*
X160124680Y-90768473D01*
X160123332Y-90768923D01*
X160121653Y-90770378D01*
X160113017Y-90775815D01*
X160105826Y-90784106D01*
X160097540Y-90791293D01*
X160092106Y-90799925D01*
X160090648Y-90801607D01*
X160090197Y-90802957D01*
X160088403Y-90805809D01*
X160055070Y-90872475D01*
X160048939Y-90888494D01*
X160048716Y-90891631D01*
X160047513Y-90894536D01*
X160045832Y-90911606D01*
X159957197Y-90911606D01*
X159982401Y-90841036D01*
X159986560Y-90824395D01*
X159984864Y-90790296D01*
X159970249Y-90759441D01*
X159944939Y-90736528D01*
X159912788Y-90725045D01*
X159878689Y-90726741D01*
X159847834Y-90741356D01*
X159824921Y-90766666D01*
X159817597Y-90782177D01*
X159733332Y-91018117D01*
X159649068Y-90782177D01*
X159641744Y-90766667D01*
X159618832Y-90741356D01*
X159587976Y-90726741D01*
X159553878Y-90725045D01*
X159521727Y-90736528D01*
X159496416Y-90759440D01*
X159481801Y-90790296D01*
X159480105Y-90824394D01*
X159387499Y-90824394D01*
X159387499Y-90811606D01*
X159385818Y-90794536D01*
X159372753Y-90762994D01*
X159348611Y-90738852D01*
X159323071Y-90728273D01*
X159348612Y-90717694D01*
X159361871Y-90706812D01*
X159395205Y-90673478D01*
X159406086Y-90660219D01*
X159406085Y-90660219D01*
X159406087Y-90660218D01*
X159419152Y-90628676D01*
X159419152Y-90594534D01*
X159406086Y-90562992D01*
X159395204Y-90549733D01*
X159361870Y-90516400D01*
X159348616Y-90505523D01*
X159348612Y-90505519D01*
X159317070Y-90492454D01*
X159282928Y-90492454D01*
X159251386Y-90505519D01*
X159238127Y-90516401D01*
X159204794Y-90549734D01*
X159193912Y-90562993D01*
X159180847Y-90594535D01*
X158540006Y-90594535D01*
X158495205Y-90549734D01*
X158481946Y-90538852D01*
X158479038Y-90537647D01*
X158476665Y-90535589D01*
X158461003Y-90528596D01*
X158361003Y-90495263D01*
X158352537Y-90493338D01*
X158350403Y-90492454D01*
X158347308Y-90492149D01*
X158344277Y-90491460D01*
X158341972Y-90491623D01*
X158333333Y-90490773D01*
X158166666Y-90490773D01*
X158149596Y-90492454D01*
X158118054Y-90505519D01*
X158093912Y-90529661D01*
X158080847Y-90561203D01*
X158079166Y-90578273D01*
X156254167Y-90578273D01*
X156252486Y-90561203D01*
X156239421Y-90529661D01*
X156215279Y-90505519D01*
X156183737Y-90492454D01*
X156149597Y-90492454D01*
X156118055Y-90505519D01*
X156093913Y-90529661D01*
X156080848Y-90561203D01*
X156079167Y-90578273D01*
X156079167Y-90724106D01*
X156066667Y-90724106D01*
X156049597Y-90725787D01*
X156018055Y-90738852D01*
X155993913Y-90762994D01*
X155980848Y-90794536D01*
X155873341Y-90794536D01*
X155861873Y-90783068D01*
X155855163Y-90777561D01*
X155853649Y-90775815D01*
X155851018Y-90774159D01*
X155848614Y-90772186D01*
X155846476Y-90771300D01*
X155839132Y-90766678D01*
X155772466Y-90733344D01*
X155756446Y-90727213D01*
X155753308Y-90726990D01*
X155750404Y-90725787D01*
X155733334Y-90724106D01*
X155633334Y-90724106D01*
X155616264Y-90725787D01*
X155613357Y-90726991D01*
X155610221Y-90727214D01*
X155594202Y-90733344D01*
X155527536Y-90766678D01*
X155520191Y-90771301D01*
X155518056Y-90772186D01*
X155515650Y-90774160D01*
X155513020Y-90775816D01*
X155511507Y-90777560D01*
X155504797Y-90783067D01*
X155471463Y-90816400D01*
X155465953Y-90823112D01*
X155464209Y-90824626D01*
X155462553Y-90827255D01*
X155460581Y-90829659D01*
X155459696Y-90831793D01*
X155455071Y-90839142D01*
X155421738Y-90905809D01*
X155415608Y-90921829D01*
X155415385Y-90924965D01*
X155414182Y-90927870D01*
X155412501Y-90944940D01*
X155287501Y-90944940D01*
X155287501Y-90578273D01*
X155286396Y-90567054D01*
X155286487Y-90564988D01*
X155286083Y-90563878D01*
X155285820Y-90561203D01*
X155280008Y-90547172D01*
X155274819Y-90532902D01*
X155273501Y-90531463D01*
X155272755Y-90529661D01*
X155262017Y-90518923D01*
X155251761Y-90507724D01*
X155249992Y-90506898D01*
X155248613Y-90505519D01*
X155234591Y-90499711D01*
X155220824Y-90493286D01*
X155218872Y-90493200D01*
X155217071Y-90492454D01*
X155201893Y-90492454D01*
X155186716Y-90491787D01*
X155184882Y-90492454D01*
X155182931Y-90492454D01*
X155168900Y-90498265D01*
X155154630Y-90503455D01*
X155153191Y-90504772D01*
X155151389Y-90505519D01*
X155140651Y-90516256D01*
X155129452Y-90526513D01*
X155128081Y-90528826D01*
X155127247Y-90529661D01*
X155126456Y-90531569D01*
X155120710Y-90541270D01*
X154966667Y-90871361D01*
X154812625Y-90541270D01*
X154806878Y-90531569D01*
X154806088Y-90529661D01*
X154805253Y-90528826D01*
X154803883Y-90526513D01*
X154792683Y-90516256D01*
X154781946Y-90505519D01*
X154780143Y-90504772D01*
X154778705Y-90503455D01*
X154764434Y-90498265D01*
X154750404Y-90492454D01*
X154748453Y-90492454D01*
X154746619Y-90491787D01*
X154731452Y-90492454D01*
X154716264Y-90492454D01*
X154714459Y-90493201D01*
X154712511Y-90493287D01*
X154698754Y-90499706D01*
X154684722Y-90505519D01*
X154683342Y-90506898D01*
X154681574Y-90507724D01*
X154671317Y-90518923D01*
X154660580Y-90529661D01*
X154659833Y-90531463D01*
X154658516Y-90532902D01*
X154653326Y-90547172D01*
X154647515Y-90561203D01*
X154647251Y-90563878D01*
X154646848Y-90564988D01*
X154646938Y-90567053D01*
X154645834Y-90578273D01*
X153791666Y-90578273D01*
X153791666Y-90403273D01*
X161841666Y-90403273D01*
X161841666Y-92813566D01*
G37*
D12*
X150254393Y-103708093D02*
X150254393Y-103008093D01*
X150254393Y-103008093D02*
X150487727Y-103508093D01*
X150487727Y-103508093D02*
X150721060Y-103008093D01*
X150721060Y-103008093D02*
X150721060Y-103708093D01*
X151354393Y-103241426D02*
X151354393Y-103708093D01*
X151054393Y-103241426D02*
X151054393Y-103608093D01*
X151054393Y-103608093D02*
X151087727Y-103674760D01*
X151087727Y-103674760D02*
X151154393Y-103708093D01*
X151154393Y-103708093D02*
X151254393Y-103708093D01*
X151254393Y-103708093D02*
X151321060Y-103674760D01*
X151321060Y-103674760D02*
X151354393Y-103641426D01*
X151687726Y-103708093D02*
X151687726Y-103008093D01*
X151987726Y-103708093D02*
X151987726Y-103341426D01*
X151987726Y-103341426D02*
X151954393Y-103274760D01*
X151954393Y-103274760D02*
X151887726Y-103241426D01*
X151887726Y-103241426D02*
X151787726Y-103241426D01*
X151787726Y-103241426D02*
X151721060Y-103274760D01*
X151721060Y-103274760D02*
X151687726Y-103308093D01*
X152621059Y-103708093D02*
X152621059Y-103341426D01*
X152621059Y-103341426D02*
X152587726Y-103274760D01*
X152587726Y-103274760D02*
X152521059Y-103241426D01*
X152521059Y-103241426D02*
X152387726Y-103241426D01*
X152387726Y-103241426D02*
X152321059Y-103274760D01*
X152621059Y-103674760D02*
X152554393Y-103708093D01*
X152554393Y-103708093D02*
X152387726Y-103708093D01*
X152387726Y-103708093D02*
X152321059Y-103674760D01*
X152321059Y-103674760D02*
X152287726Y-103608093D01*
X152287726Y-103608093D02*
X152287726Y-103541426D01*
X152287726Y-103541426D02*
X152321059Y-103474760D01*
X152321059Y-103474760D02*
X152387726Y-103441426D01*
X152387726Y-103441426D02*
X152554393Y-103441426D01*
X152554393Y-103441426D02*
X152621059Y-103408093D01*
X152954392Y-103708093D02*
X152954392Y-103241426D01*
X152954392Y-103308093D02*
X152987726Y-103274760D01*
X152987726Y-103274760D02*
X153054392Y-103241426D01*
X153054392Y-103241426D02*
X153154392Y-103241426D01*
X153154392Y-103241426D02*
X153221059Y-103274760D01*
X153221059Y-103274760D02*
X153254392Y-103341426D01*
X153254392Y-103341426D02*
X153254392Y-103708093D01*
X153254392Y-103341426D02*
X153287726Y-103274760D01*
X153287726Y-103274760D02*
X153354392Y-103241426D01*
X153354392Y-103241426D02*
X153454392Y-103241426D01*
X153454392Y-103241426D02*
X153521059Y-103274760D01*
X153521059Y-103274760D02*
X153554392Y-103341426D01*
X153554392Y-103341426D02*
X153554392Y-103708093D01*
X153887725Y-103708093D02*
X153887725Y-103241426D01*
X153887725Y-103308093D02*
X153921059Y-103274760D01*
X153921059Y-103274760D02*
X153987725Y-103241426D01*
X153987725Y-103241426D02*
X154087725Y-103241426D01*
X154087725Y-103241426D02*
X154154392Y-103274760D01*
X154154392Y-103274760D02*
X154187725Y-103341426D01*
X154187725Y-103341426D02*
X154187725Y-103708093D01*
X154187725Y-103341426D02*
X154221059Y-103274760D01*
X154221059Y-103274760D02*
X154287725Y-103241426D01*
X154287725Y-103241426D02*
X154387725Y-103241426D01*
X154387725Y-103241426D02*
X154454392Y-103274760D01*
X154454392Y-103274760D02*
X154487725Y-103341426D01*
X154487725Y-103341426D02*
X154487725Y-103708093D01*
X155121058Y-103708093D02*
X155121058Y-103341426D01*
X155121058Y-103341426D02*
X155087725Y-103274760D01*
X155087725Y-103274760D02*
X155021058Y-103241426D01*
X155021058Y-103241426D02*
X154887725Y-103241426D01*
X154887725Y-103241426D02*
X154821058Y-103274760D01*
X155121058Y-103674760D02*
X155054392Y-103708093D01*
X155054392Y-103708093D02*
X154887725Y-103708093D01*
X154887725Y-103708093D02*
X154821058Y-103674760D01*
X154821058Y-103674760D02*
X154787725Y-103608093D01*
X154787725Y-103608093D02*
X154787725Y-103541426D01*
X154787725Y-103541426D02*
X154821058Y-103474760D01*
X154821058Y-103474760D02*
X154887725Y-103441426D01*
X154887725Y-103441426D02*
X155054392Y-103441426D01*
X155054392Y-103441426D02*
X155121058Y-103408093D01*
X155754391Y-103708093D02*
X155754391Y-103008093D01*
X155754391Y-103674760D02*
X155687725Y-103708093D01*
X155687725Y-103708093D02*
X155554391Y-103708093D01*
X155554391Y-103708093D02*
X155487725Y-103674760D01*
X155487725Y-103674760D02*
X155454391Y-103641426D01*
X155454391Y-103641426D02*
X155421058Y-103574760D01*
X155421058Y-103574760D02*
X155421058Y-103374760D01*
X155421058Y-103374760D02*
X155454391Y-103308093D01*
X155454391Y-103308093D02*
X155487725Y-103274760D01*
X155487725Y-103274760D02*
X155554391Y-103241426D01*
X155554391Y-103241426D02*
X155687725Y-103241426D01*
X155687725Y-103241426D02*
X155754391Y-103274760D01*
X156621057Y-103708093D02*
X156621057Y-103008093D01*
X156621057Y-103341426D02*
X157021057Y-103341426D01*
X157021057Y-103708093D02*
X157021057Y-103008093D01*
X157654390Y-103708093D02*
X157654390Y-103341426D01*
X157654390Y-103341426D02*
X157621057Y-103274760D01*
X157621057Y-103274760D02*
X157554390Y-103241426D01*
X157554390Y-103241426D02*
X157421057Y-103241426D01*
X157421057Y-103241426D02*
X157354390Y-103274760D01*
X157654390Y-103674760D02*
X157587724Y-103708093D01*
X157587724Y-103708093D02*
X157421057Y-103708093D01*
X157421057Y-103708093D02*
X157354390Y-103674760D01*
X157354390Y-103674760D02*
X157321057Y-103608093D01*
X157321057Y-103608093D02*
X157321057Y-103541426D01*
X157321057Y-103541426D02*
X157354390Y-103474760D01*
X157354390Y-103474760D02*
X157421057Y-103441426D01*
X157421057Y-103441426D02*
X157587724Y-103441426D01*
X157587724Y-103441426D02*
X157654390Y-103408093D01*
X157987723Y-103708093D02*
X157987723Y-103241426D01*
X157987723Y-103308093D02*
X158021057Y-103274760D01*
X158021057Y-103274760D02*
X158087723Y-103241426D01*
X158087723Y-103241426D02*
X158187723Y-103241426D01*
X158187723Y-103241426D02*
X158254390Y-103274760D01*
X158254390Y-103274760D02*
X158287723Y-103341426D01*
X158287723Y-103341426D02*
X158287723Y-103708093D01*
X158287723Y-103341426D02*
X158321057Y-103274760D01*
X158321057Y-103274760D02*
X158387723Y-103241426D01*
X158387723Y-103241426D02*
X158487723Y-103241426D01*
X158487723Y-103241426D02*
X158554390Y-103274760D01*
X158554390Y-103274760D02*
X158587723Y-103341426D01*
X158587723Y-103341426D02*
X158587723Y-103708093D01*
X158921056Y-103708093D02*
X158921056Y-103241426D01*
X158921056Y-103308093D02*
X158954390Y-103274760D01*
X158954390Y-103274760D02*
X159021056Y-103241426D01*
X159021056Y-103241426D02*
X159121056Y-103241426D01*
X159121056Y-103241426D02*
X159187723Y-103274760D01*
X159187723Y-103274760D02*
X159221056Y-103341426D01*
X159221056Y-103341426D02*
X159221056Y-103708093D01*
X159221056Y-103341426D02*
X159254390Y-103274760D01*
X159254390Y-103274760D02*
X159321056Y-103241426D01*
X159321056Y-103241426D02*
X159421056Y-103241426D01*
X159421056Y-103241426D02*
X159487723Y-103274760D01*
X159487723Y-103274760D02*
X159521056Y-103341426D01*
X159521056Y-103341426D02*
X159521056Y-103708093D01*
X160154389Y-103708093D02*
X160154389Y-103341426D01*
X160154389Y-103341426D02*
X160121056Y-103274760D01*
X160121056Y-103274760D02*
X160054389Y-103241426D01*
X160054389Y-103241426D02*
X159921056Y-103241426D01*
X159921056Y-103241426D02*
X159854389Y-103274760D01*
X160154389Y-103674760D02*
X160087723Y-103708093D01*
X160087723Y-103708093D02*
X159921056Y-103708093D01*
X159921056Y-103708093D02*
X159854389Y-103674760D01*
X159854389Y-103674760D02*
X159821056Y-103608093D01*
X159821056Y-103608093D02*
X159821056Y-103541426D01*
X159821056Y-103541426D02*
X159854389Y-103474760D01*
X159854389Y-103474760D02*
X159921056Y-103441426D01*
X159921056Y-103441426D02*
X160087723Y-103441426D01*
X160087723Y-103441426D02*
X160154389Y-103408093D01*
X160787722Y-103708093D02*
X160787722Y-103008093D01*
X160787722Y-103674760D02*
X160721056Y-103708093D01*
X160721056Y-103708093D02*
X160587722Y-103708093D01*
X160587722Y-103708093D02*
X160521056Y-103674760D01*
X160521056Y-103674760D02*
X160487722Y-103641426D01*
X160487722Y-103641426D02*
X160454389Y-103574760D01*
X160454389Y-103574760D02*
X160454389Y-103374760D01*
X160454389Y-103374760D02*
X160487722Y-103308093D01*
X160487722Y-103308093D02*
X160521056Y-103274760D01*
X160521056Y-103274760D02*
X160587722Y-103241426D01*
X160587722Y-103241426D02*
X160721056Y-103241426D01*
X160721056Y-103241426D02*
X160787722Y-103274760D01*
X161954388Y-103241426D02*
X161954388Y-103708093D01*
X161654388Y-103241426D02*
X161654388Y-103608093D01*
X161654388Y-103608093D02*
X161687722Y-103674760D01*
X161687722Y-103674760D02*
X161754388Y-103708093D01*
X161754388Y-103708093D02*
X161854388Y-103708093D01*
X161854388Y-103708093D02*
X161921055Y-103674760D01*
X161921055Y-103674760D02*
X161954388Y-103641426D01*
X162287721Y-103708093D02*
X162287721Y-103241426D01*
X162287721Y-103374760D02*
X162321055Y-103308093D01*
X162321055Y-103308093D02*
X162354388Y-103274760D01*
X162354388Y-103274760D02*
X162421055Y-103241426D01*
X162421055Y-103241426D02*
X162487721Y-103241426D01*
X163654387Y-103708093D02*
X163421054Y-103374760D01*
X163254387Y-103708093D02*
X163254387Y-103008093D01*
X163254387Y-103008093D02*
X163521054Y-103008093D01*
X163521054Y-103008093D02*
X163587721Y-103041426D01*
X163587721Y-103041426D02*
X163621054Y-103074760D01*
X163621054Y-103074760D02*
X163654387Y-103141426D01*
X163654387Y-103141426D02*
X163654387Y-103241426D01*
X163654387Y-103241426D02*
X163621054Y-103308093D01*
X163621054Y-103308093D02*
X163587721Y-103341426D01*
X163587721Y-103341426D02*
X163521054Y-103374760D01*
X163521054Y-103374760D02*
X163254387Y-103374760D01*
X164221054Y-103674760D02*
X164154387Y-103708093D01*
X164154387Y-103708093D02*
X164021054Y-103708093D01*
X164021054Y-103708093D02*
X163954387Y-103674760D01*
X163954387Y-103674760D02*
X163921054Y-103608093D01*
X163921054Y-103608093D02*
X163921054Y-103341426D01*
X163921054Y-103341426D02*
X163954387Y-103274760D01*
X163954387Y-103274760D02*
X164021054Y-103241426D01*
X164021054Y-103241426D02*
X164154387Y-103241426D01*
X164154387Y-103241426D02*
X164221054Y-103274760D01*
X164221054Y-103274760D02*
X164254387Y-103341426D01*
X164254387Y-103341426D02*
X164254387Y-103408093D01*
X164254387Y-103408093D02*
X163921054Y-103474760D01*
X164554387Y-103708093D02*
X164554387Y-103008093D01*
X164854387Y-103708093D02*
X164854387Y-103341426D01*
X164854387Y-103341426D02*
X164821054Y-103274760D01*
X164821054Y-103274760D02*
X164754387Y-103241426D01*
X164754387Y-103241426D02*
X164654387Y-103241426D01*
X164654387Y-103241426D02*
X164587721Y-103274760D01*
X164587721Y-103274760D02*
X164554387Y-103308093D01*
X165187720Y-103708093D02*
X165187720Y-103241426D01*
X165187720Y-103308093D02*
X165221054Y-103274760D01*
X165221054Y-103274760D02*
X165287720Y-103241426D01*
X165287720Y-103241426D02*
X165387720Y-103241426D01*
X165387720Y-103241426D02*
X165454387Y-103274760D01*
X165454387Y-103274760D02*
X165487720Y-103341426D01*
X165487720Y-103341426D02*
X165487720Y-103708093D01*
X165487720Y-103341426D02*
X165521054Y-103274760D01*
X165521054Y-103274760D02*
X165587720Y-103241426D01*
X165587720Y-103241426D02*
X165687720Y-103241426D01*
X165687720Y-103241426D02*
X165754387Y-103274760D01*
X165754387Y-103274760D02*
X165787720Y-103341426D01*
X165787720Y-103341426D02*
X165787720Y-103708093D01*
X166421053Y-103708093D02*
X166421053Y-103341426D01*
X166421053Y-103341426D02*
X166387720Y-103274760D01*
X166387720Y-103274760D02*
X166321053Y-103241426D01*
X166321053Y-103241426D02*
X166187720Y-103241426D01*
X166187720Y-103241426D02*
X166121053Y-103274760D01*
X166421053Y-103674760D02*
X166354387Y-103708093D01*
X166354387Y-103708093D02*
X166187720Y-103708093D01*
X166187720Y-103708093D02*
X166121053Y-103674760D01*
X166121053Y-103674760D02*
X166087720Y-103608093D01*
X166087720Y-103608093D02*
X166087720Y-103541426D01*
X166087720Y-103541426D02*
X166121053Y-103474760D01*
X166121053Y-103474760D02*
X166187720Y-103441426D01*
X166187720Y-103441426D02*
X166354387Y-103441426D01*
X166354387Y-103441426D02*
X166421053Y-103408093D01*
X166754386Y-103241426D02*
X166754386Y-103708093D01*
X166754386Y-103308093D02*
X166787720Y-103274760D01*
X166787720Y-103274760D02*
X166854386Y-103241426D01*
X166854386Y-103241426D02*
X166954386Y-103241426D01*
X166954386Y-103241426D02*
X167021053Y-103274760D01*
X167021053Y-103274760D02*
X167054386Y-103341426D01*
X167054386Y-103341426D02*
X167054386Y-103708093D01*
D13*
X149916666Y-89004819D02*
X149916666Y-89719104D01*
X149916666Y-89719104D02*
X149869047Y-89861961D01*
X149869047Y-89861961D02*
X149773809Y-89957200D01*
X149773809Y-89957200D02*
X149630952Y-90004819D01*
X149630952Y-90004819D02*
X149535714Y-90004819D01*
X150345238Y-89100057D02*
X150392857Y-89052438D01*
X150392857Y-89052438D02*
X150488095Y-89004819D01*
X150488095Y-89004819D02*
X150726190Y-89004819D01*
X150726190Y-89004819D02*
X150821428Y-89052438D01*
X150821428Y-89052438D02*
X150869047Y-89100057D01*
X150869047Y-89100057D02*
X150916666Y-89195295D01*
X150916666Y-89195295D02*
X150916666Y-89290533D01*
X150916666Y-89290533D02*
X150869047Y-89433390D01*
X150869047Y-89433390D02*
X150297619Y-90004819D01*
X150297619Y-90004819D02*
X150916666Y-90004819D01*
X160333333Y-89759580D02*
X160285714Y-89807200D01*
X160285714Y-89807200D02*
X160142857Y-89854819D01*
X160142857Y-89854819D02*
X160047619Y-89854819D01*
X160047619Y-89854819D02*
X159904762Y-89807200D01*
X159904762Y-89807200D02*
X159809524Y-89711961D01*
X159809524Y-89711961D02*
X159761905Y-89616723D01*
X159761905Y-89616723D02*
X159714286Y-89426247D01*
X159714286Y-89426247D02*
X159714286Y-89283390D01*
X159714286Y-89283390D02*
X159761905Y-89092914D01*
X159761905Y-89092914D02*
X159809524Y-88997676D01*
X159809524Y-88997676D02*
X159904762Y-88902438D01*
X159904762Y-88902438D02*
X160047619Y-88854819D01*
X160047619Y-88854819D02*
X160142857Y-88854819D01*
X160142857Y-88854819D02*
X160285714Y-88902438D01*
X160285714Y-88902438D02*
X160333333Y-88950057D01*
X161285714Y-89854819D02*
X160714286Y-89854819D01*
X161000000Y-89854819D02*
X161000000Y-88854819D01*
X161000000Y-88854819D02*
X160904762Y-88997676D01*
X160904762Y-88997676D02*
X160809524Y-89092914D01*
X160809524Y-89092914D02*
X160714286Y-89140533D01*
X165859580Y-94066666D02*
X165907200Y-94114285D01*
X165907200Y-94114285D02*
X165954819Y-94257142D01*
X165954819Y-94257142D02*
X165954819Y-94352380D01*
X165954819Y-94352380D02*
X165907200Y-94495237D01*
X165907200Y-94495237D02*
X165811961Y-94590475D01*
X165811961Y-94590475D02*
X165716723Y-94638094D01*
X165716723Y-94638094D02*
X165526247Y-94685713D01*
X165526247Y-94685713D02*
X165383390Y-94685713D01*
X165383390Y-94685713D02*
X165192914Y-94638094D01*
X165192914Y-94638094D02*
X165097676Y-94590475D01*
X165097676Y-94590475D02*
X165002438Y-94495237D01*
X165002438Y-94495237D02*
X164954819Y-94352380D01*
X164954819Y-94352380D02*
X164954819Y-94257142D01*
X164954819Y-94257142D02*
X165002438Y-94114285D01*
X165002438Y-94114285D02*
X165050057Y-94066666D01*
X165050057Y-93685713D02*
X165002438Y-93638094D01*
X165002438Y-93638094D02*
X164954819Y-93542856D01*
X164954819Y-93542856D02*
X164954819Y-93304761D01*
X164954819Y-93304761D02*
X165002438Y-93209523D01*
X165002438Y-93209523D02*
X165050057Y-93161904D01*
X165050057Y-93161904D02*
X165145295Y-93114285D01*
X165145295Y-93114285D02*
X165240533Y-93114285D01*
X165240533Y-93114285D02*
X165383390Y-93161904D01*
X165383390Y-93161904D02*
X165954819Y-93733332D01*
X165954819Y-93733332D02*
X165954819Y-93114285D01*
X155283333Y-90004819D02*
X154950000Y-89528628D01*
X154711905Y-90004819D02*
X154711905Y-89004819D01*
X154711905Y-89004819D02*
X155092857Y-89004819D01*
X155092857Y-89004819D02*
X155188095Y-89052438D01*
X155188095Y-89052438D02*
X155235714Y-89100057D01*
X155235714Y-89100057D02*
X155283333Y-89195295D01*
X155283333Y-89195295D02*
X155283333Y-89338152D01*
X155283333Y-89338152D02*
X155235714Y-89433390D01*
X155235714Y-89433390D02*
X155188095Y-89481009D01*
X155188095Y-89481009D02*
X155092857Y-89528628D01*
X155092857Y-89528628D02*
X154711905Y-89528628D01*
X156235714Y-90004819D02*
X155664286Y-90004819D01*
X155950000Y-90004819D02*
X155950000Y-89004819D01*
X155950000Y-89004819D02*
X155854762Y-89147676D01*
X155854762Y-89147676D02*
X155759524Y-89242914D01*
X155759524Y-89242914D02*
X155664286Y-89290533D01*
X162038095Y-93154819D02*
X162038095Y-93964342D01*
X162038095Y-93964342D02*
X162085714Y-94059580D01*
X162085714Y-94059580D02*
X162133333Y-94107200D01*
X162133333Y-94107200D02*
X162228571Y-94154819D01*
X162228571Y-94154819D02*
X162419047Y-94154819D01*
X162419047Y-94154819D02*
X162514285Y-94107200D01*
X162514285Y-94107200D02*
X162561904Y-94059580D01*
X162561904Y-94059580D02*
X162609523Y-93964342D01*
X162609523Y-93964342D02*
X162609523Y-93154819D01*
X163609523Y-94154819D02*
X163038095Y-94154819D01*
X163323809Y-94154819D02*
X163323809Y-93154819D01*
X163323809Y-93154819D02*
X163228571Y-93297676D01*
X163228571Y-93297676D02*
X163133333Y-93392914D01*
X163133333Y-93392914D02*
X163038095Y-93440533D01*
X151061905Y-91854819D02*
X151061905Y-90854819D01*
X151061905Y-90854819D02*
X151300000Y-90854819D01*
X151300000Y-90854819D02*
X151442857Y-90902438D01*
X151442857Y-90902438D02*
X151538095Y-90997676D01*
X151538095Y-90997676D02*
X151585714Y-91092914D01*
X151585714Y-91092914D02*
X151633333Y-91283390D01*
X151633333Y-91283390D02*
X151633333Y-91426247D01*
X151633333Y-91426247D02*
X151585714Y-91616723D01*
X151585714Y-91616723D02*
X151538095Y-91711961D01*
X151538095Y-91711961D02*
X151442857Y-91807200D01*
X151442857Y-91807200D02*
X151300000Y-91854819D01*
X151300000Y-91854819D02*
X151061905Y-91854819D01*
X152585714Y-91854819D02*
X152014286Y-91854819D01*
X152300000Y-91854819D02*
X152300000Y-90854819D01*
X152300000Y-90854819D02*
X152204762Y-90997676D01*
X152204762Y-90997676D02*
X152109524Y-91092914D01*
X152109524Y-91092914D02*
X152014286Y-91140533D01*
X162033333Y-101359580D02*
X161985714Y-101407200D01*
X161985714Y-101407200D02*
X161842857Y-101454819D01*
X161842857Y-101454819D02*
X161747619Y-101454819D01*
X161747619Y-101454819D02*
X161604762Y-101407200D01*
X161604762Y-101407200D02*
X161509524Y-101311961D01*
X161509524Y-101311961D02*
X161461905Y-101216723D01*
X161461905Y-101216723D02*
X161414286Y-101026247D01*
X161414286Y-101026247D02*
X161414286Y-100883390D01*
X161414286Y-100883390D02*
X161461905Y-100692914D01*
X161461905Y-100692914D02*
X161509524Y-100597676D01*
X161509524Y-100597676D02*
X161604762Y-100502438D01*
X161604762Y-100502438D02*
X161747619Y-100454819D01*
X161747619Y-100454819D02*
X161842857Y-100454819D01*
X161842857Y-100454819D02*
X161985714Y-100502438D01*
X161985714Y-100502438D02*
X162033333Y-100550057D01*
X162366667Y-100454819D02*
X162985714Y-100454819D01*
X162985714Y-100454819D02*
X162652381Y-100835771D01*
X162652381Y-100835771D02*
X162795238Y-100835771D01*
X162795238Y-100835771D02*
X162890476Y-100883390D01*
X162890476Y-100883390D02*
X162938095Y-100931009D01*
X162938095Y-100931009D02*
X162985714Y-101026247D01*
X162985714Y-101026247D02*
X162985714Y-101264342D01*
X162985714Y-101264342D02*
X162938095Y-101359580D01*
X162938095Y-101359580D02*
X162890476Y-101407200D01*
X162890476Y-101407200D02*
X162795238Y-101454819D01*
X162795238Y-101454819D02*
X162509524Y-101454819D01*
X162509524Y-101454819D02*
X162414286Y-101407200D01*
X162414286Y-101407200D02*
X162366667Y-101359580D01*
X165616666Y-88974819D02*
X165616666Y-89689104D01*
X165616666Y-89689104D02*
X165569047Y-89831961D01*
X165569047Y-89831961D02*
X165473809Y-89927200D01*
X165473809Y-89927200D02*
X165330952Y-89974819D01*
X165330952Y-89974819D02*
X165235714Y-89974819D01*
X166616666Y-89974819D02*
X166045238Y-89974819D01*
X166330952Y-89974819D02*
X166330952Y-88974819D01*
X166330952Y-88974819D02*
X166235714Y-89117676D01*
X166235714Y-89117676D02*
X166140476Y-89212914D01*
X166140476Y-89212914D02*
X166045238Y-89260533D01*
D12*
X147070000Y-88160000D02*
X148450000Y-88160000D01*
X147070000Y-89540000D02*
X147070000Y-88160000D01*
X147070000Y-90810000D02*
X147070000Y-103620000D01*
X147070000Y-90810000D02*
X149830000Y-90810000D01*
X147070000Y-103620000D02*
X149830000Y-103620000D01*
X149830000Y-90810000D02*
X149830000Y-103620000D01*
X162738748Y-88780000D02*
X163261252Y-88780000D01*
X162738748Y-90250000D02*
X163261252Y-90250000D01*
X164765000Y-96538748D02*
X164765000Y-97061252D01*
X166235000Y-96538748D02*
X166235000Y-97061252D01*
X157560436Y-88810000D02*
X158014564Y-88810000D01*
X157560436Y-90280000D02*
X158014564Y-90280000D01*
X157650000Y-92940000D02*
X155450000Y-92940000D01*
X157650000Y-92940000D02*
X159850000Y-92940000D01*
X157650000Y-98460000D02*
X155450000Y-98460000D01*
X157650000Y-98460000D02*
X159850000Y-98460000D01*
X153740000Y-93425000D02*
X153410000Y-93665000D01*
X153410000Y-93185000D01*
X153740000Y-93425000D01*
G36*
X153740000Y-93425000D02*
G01*
X153410000Y-93665000D01*
X153410000Y-93185000D01*
X153740000Y-93425000D01*
G37*
X151800000Y-90460000D02*
X154485000Y-90460000D01*
X154485000Y-88540000D02*
X151800000Y-88540000D01*
X154485000Y-90460000D02*
X154485000Y-88540000D01*
X153685000Y-99290000D02*
X153685000Y-102710000D01*
X153685000Y-102710000D02*
X160450000Y-102710000D01*
X160450000Y-99290000D02*
X153685000Y-99290000D01*
X167570000Y-88140000D02*
X168950000Y-88140000D01*
X167570000Y-89520000D02*
X167570000Y-88140000D01*
X167570000Y-90790000D02*
X167570000Y-103600000D01*
X167570000Y-90790000D02*
X170330000Y-90790000D01*
X167570000Y-103600000D02*
X170330000Y-103600000D01*
X170330000Y-90790000D02*
X170330000Y-103600000D01*
%LPC*%
D14*
X148450000Y-89540000D03*
D15*
X148450000Y-92080000D03*
X148450000Y-94620000D03*
X148450000Y-97160000D03*
X148450000Y-99700000D03*
X148450000Y-102240000D03*
D16*
X162050000Y-89515000D03*
X163950000Y-89515000D03*
D17*
X165500000Y-95850000D03*
X165500000Y-97750000D03*
D18*
X156875000Y-89545000D03*
X158700000Y-89545000D03*
D19*
X157650000Y-95700000D03*
D20*
X154787500Y-93425000D03*
X154787500Y-94075000D03*
X154787500Y-94725000D03*
X154787500Y-95375000D03*
X154787500Y-96025000D03*
X154787500Y-96675000D03*
X154787500Y-97325000D03*
X154787500Y-97975000D03*
X160512500Y-97975000D03*
X160512500Y-97325000D03*
X160512500Y-96675000D03*
X160512500Y-96025000D03*
X160512500Y-95375000D03*
X160512500Y-94725000D03*
X160512500Y-94075000D03*
X160512500Y-93425000D03*
D21*
X153737500Y-89500000D03*
X151862500Y-89500000D03*
D22*
X154980000Y-101000000D03*
X159920000Y-101000000D03*
D14*
X168950000Y-89520000D03*
D15*
X168950000Y-92060000D03*
X168950000Y-94600000D03*
X168950000Y-97140000D03*
X168950000Y-99680000D03*
X168950000Y-102220000D03*
%LPD*%
M02*
