G04 #@! TF.GenerationSoftware,KiCad,Pcbnew,9.0.1*
G04 #@! TF.CreationDate,2025-08-18T16:23:54+05:00*
G04 #@! TF.ProjectId,dc_motor_speed_controller,64635f6d-6f74-46f7-925f-73706565645f,rev?*
G04 #@! TF.SameCoordinates,Original*
G04 #@! TF.FileFunction,Legend,Top*
G04 #@! TF.FilePolarity,Positive*
%FSLAX46Y46*%
G04 Gerber Fmt 4.6, Leading zero omitted, Abs format (unit mm)*
G04 Created by KiCad (PCBNEW 9.0.1) date 2025-08-18 16:23:54*
%MOMM*%
%LPD*%
G01*
G04 APERTURE LIST*
G04 Aperture macros list*
%AMRoundRect*
0 Rectangle with rounded corners*
0 $1 Rounding radius*
0 $2 $3 $4 $5 $6 $7 $8 $9 X,Y pos of 4 corners*
0 Add a 4 corners polygon primitive as box body*
4,1,4,$2,$3,$4,$5,$6,$7,$8,$9,$2,$3,0*
0 Add four circle primitives for the rounded corners*
1,1,$1+$1,$2,$3*
1,1,$1+$1,$4,$5*
1,1,$1+$1,$6,$7*
1,1,$1+$1,$8,$9*
0 Add four rect primitives between the rounded corners*
20,1,$1+$1,$2,$3,$4,$5,0*
20,1,$1+$1,$4,$5,$6,$7,0*
20,1,$1+$1,$6,$7,$8,$9,0*
20,1,$1+$1,$8,$9,$2,$3,0*%
G04 Aperture macros list end*
%ADD10C,0.200000*%
%ADD11C,0.150000*%
%ADD12C,0.120000*%
%ADD13C,3.800000*%
%ADD14C,1.400000*%
%ADD15O,1.400000X1.400000*%
%ADD16R,2.200000X2.200000*%
%ADD17O,2.200000X2.200000*%
%ADD18C,1.600000*%
%ADD19R,3.000000X3.000000*%
%ADD20C,3.000000*%
%ADD21RoundRect,0.250000X-0.550000X-0.550000X0.550000X-0.550000X0.550000X0.550000X-0.550000X0.550000X0*%
%ADD22R,1.905000X2.000000*%
%ADD23O,1.905000X2.000000*%
%ADD24R,2.000000X2.000000*%
%ADD25C,2.000000*%
%ADD26R,1.800000X1.800000*%
%ADD27C,1.800000*%
G04 APERTURE END LIST*
D10*
X122732780Y-107069673D02*
X123732780Y-107069673D01*
X123732780Y-107069673D02*
X123732780Y-107307768D01*
X123732780Y-107307768D02*
X123685161Y-107450625D01*
X123685161Y-107450625D02*
X123589923Y-107545863D01*
X123589923Y-107545863D02*
X123494685Y-107593482D01*
X123494685Y-107593482D02*
X123304209Y-107641101D01*
X123304209Y-107641101D02*
X123161352Y-107641101D01*
X123161352Y-107641101D02*
X122970876Y-107593482D01*
X122970876Y-107593482D02*
X122875638Y-107545863D01*
X122875638Y-107545863D02*
X122780400Y-107450625D01*
X122780400Y-107450625D02*
X122732780Y-107307768D01*
X122732780Y-107307768D02*
X122732780Y-107069673D01*
X122828019Y-108641101D02*
X122780400Y-108593482D01*
X122780400Y-108593482D02*
X122732780Y-108450625D01*
X122732780Y-108450625D02*
X122732780Y-108355387D01*
X122732780Y-108355387D02*
X122780400Y-108212530D01*
X122780400Y-108212530D02*
X122875638Y-108117292D01*
X122875638Y-108117292D02*
X122970876Y-108069673D01*
X122970876Y-108069673D02*
X123161352Y-108022054D01*
X123161352Y-108022054D02*
X123304209Y-108022054D01*
X123304209Y-108022054D02*
X123494685Y-108069673D01*
X123494685Y-108069673D02*
X123589923Y-108117292D01*
X123589923Y-108117292D02*
X123685161Y-108212530D01*
X123685161Y-108212530D02*
X123732780Y-108355387D01*
X123732780Y-108355387D02*
X123732780Y-108450625D01*
X123732780Y-108450625D02*
X123685161Y-108593482D01*
X123685161Y-108593482D02*
X123637542Y-108641101D01*
X122732780Y-109831578D02*
X123732780Y-109831578D01*
X122732780Y-110307768D02*
X123732780Y-110307768D01*
X123732780Y-110307768D02*
X122732780Y-110879196D01*
X122732780Y-110879196D02*
X123732780Y-110879196D01*
X180967219Y-111130326D02*
X179967219Y-111130326D01*
X179967219Y-111130326D02*
X179967219Y-110892231D01*
X179967219Y-110892231D02*
X180014838Y-110749374D01*
X180014838Y-110749374D02*
X180110076Y-110654136D01*
X180110076Y-110654136D02*
X180205314Y-110606517D01*
X180205314Y-110606517D02*
X180395790Y-110558898D01*
X180395790Y-110558898D02*
X180538647Y-110558898D01*
X180538647Y-110558898D02*
X180729123Y-110606517D01*
X180729123Y-110606517D02*
X180824361Y-110654136D01*
X180824361Y-110654136D02*
X180919600Y-110749374D01*
X180919600Y-110749374D02*
X180967219Y-110892231D01*
X180967219Y-110892231D02*
X180967219Y-111130326D01*
X180871980Y-109558898D02*
X180919600Y-109606517D01*
X180919600Y-109606517D02*
X180967219Y-109749374D01*
X180967219Y-109749374D02*
X180967219Y-109844612D01*
X180967219Y-109844612D02*
X180919600Y-109987469D01*
X180919600Y-109987469D02*
X180824361Y-110082707D01*
X180824361Y-110082707D02*
X180729123Y-110130326D01*
X180729123Y-110130326D02*
X180538647Y-110177945D01*
X180538647Y-110177945D02*
X180395790Y-110177945D01*
X180395790Y-110177945D02*
X180205314Y-110130326D01*
X180205314Y-110130326D02*
X180110076Y-110082707D01*
X180110076Y-110082707D02*
X180014838Y-109987469D01*
X180014838Y-109987469D02*
X179967219Y-109844612D01*
X179967219Y-109844612D02*
X179967219Y-109749374D01*
X179967219Y-109749374D02*
X180014838Y-109606517D01*
X180014838Y-109606517D02*
X180062457Y-109558898D01*
X179967219Y-108177945D02*
X179967219Y-107987469D01*
X179967219Y-107987469D02*
X180014838Y-107892231D01*
X180014838Y-107892231D02*
X180110076Y-107796993D01*
X180110076Y-107796993D02*
X180300552Y-107749374D01*
X180300552Y-107749374D02*
X180633885Y-107749374D01*
X180633885Y-107749374D02*
X180824361Y-107796993D01*
X180824361Y-107796993D02*
X180919600Y-107892231D01*
X180919600Y-107892231D02*
X180967219Y-107987469D01*
X180967219Y-107987469D02*
X180967219Y-108177945D01*
X180967219Y-108177945D02*
X180919600Y-108273183D01*
X180919600Y-108273183D02*
X180824361Y-108368421D01*
X180824361Y-108368421D02*
X180633885Y-108416040D01*
X180633885Y-108416040D02*
X180300552Y-108416040D01*
X180300552Y-108416040D02*
X180110076Y-108368421D01*
X180110076Y-108368421D02*
X180014838Y-108273183D01*
X180014838Y-108273183D02*
X179967219Y-108177945D01*
X179967219Y-107320802D02*
X180776742Y-107320802D01*
X180776742Y-107320802D02*
X180871980Y-107273183D01*
X180871980Y-107273183D02*
X180919600Y-107225564D01*
X180919600Y-107225564D02*
X180967219Y-107130326D01*
X180967219Y-107130326D02*
X180967219Y-106939850D01*
X180967219Y-106939850D02*
X180919600Y-106844612D01*
X180919600Y-106844612D02*
X180871980Y-106796993D01*
X180871980Y-106796993D02*
X180776742Y-106749374D01*
X180776742Y-106749374D02*
X179967219Y-106749374D01*
X179967219Y-106416040D02*
X179967219Y-105844612D01*
X180967219Y-106130326D02*
X179967219Y-106130326D01*
D11*
X172960588Y-124669819D02*
X172389160Y-124669819D01*
X172674874Y-124669819D02*
X172674874Y-123669819D01*
X172674874Y-123669819D02*
X172579636Y-123812676D01*
X172579636Y-123812676D02*
X172484398Y-123907914D01*
X172484398Y-123907914D02*
X172389160Y-123955533D01*
X173293922Y-123669819D02*
X173960588Y-123669819D01*
X173960588Y-123669819D02*
X173532017Y-124669819D01*
X175055826Y-123622200D02*
X174198684Y-124907914D01*
X175579636Y-123669819D02*
X175674874Y-123669819D01*
X175674874Y-123669819D02*
X175770112Y-123717438D01*
X175770112Y-123717438D02*
X175817731Y-123765057D01*
X175817731Y-123765057D02*
X175865350Y-123860295D01*
X175865350Y-123860295D02*
X175912969Y-124050771D01*
X175912969Y-124050771D02*
X175912969Y-124288866D01*
X175912969Y-124288866D02*
X175865350Y-124479342D01*
X175865350Y-124479342D02*
X175817731Y-124574580D01*
X175817731Y-124574580D02*
X175770112Y-124622200D01*
X175770112Y-124622200D02*
X175674874Y-124669819D01*
X175674874Y-124669819D02*
X175579636Y-124669819D01*
X175579636Y-124669819D02*
X175484398Y-124622200D01*
X175484398Y-124622200D02*
X175436779Y-124574580D01*
X175436779Y-124574580D02*
X175389160Y-124479342D01*
X175389160Y-124479342D02*
X175341541Y-124288866D01*
X175341541Y-124288866D02*
X175341541Y-124050771D01*
X175341541Y-124050771D02*
X175389160Y-123860295D01*
X175389160Y-123860295D02*
X175436779Y-123765057D01*
X175436779Y-123765057D02*
X175484398Y-123717438D01*
X175484398Y-123717438D02*
X175579636Y-123669819D01*
X176389160Y-124669819D02*
X176579636Y-124669819D01*
X176579636Y-124669819D02*
X176674874Y-124622200D01*
X176674874Y-124622200D02*
X176722493Y-124574580D01*
X176722493Y-124574580D02*
X176817731Y-124431723D01*
X176817731Y-124431723D02*
X176865350Y-124241247D01*
X176865350Y-124241247D02*
X176865350Y-123860295D01*
X176865350Y-123860295D02*
X176817731Y-123765057D01*
X176817731Y-123765057D02*
X176770112Y-123717438D01*
X176770112Y-123717438D02*
X176674874Y-123669819D01*
X176674874Y-123669819D02*
X176484398Y-123669819D01*
X176484398Y-123669819D02*
X176389160Y-123717438D01*
X176389160Y-123717438D02*
X176341541Y-123765057D01*
X176341541Y-123765057D02*
X176293922Y-123860295D01*
X176293922Y-123860295D02*
X176293922Y-124098390D01*
X176293922Y-124098390D02*
X176341541Y-124193628D01*
X176341541Y-124193628D02*
X176389160Y-124241247D01*
X176389160Y-124241247D02*
X176484398Y-124288866D01*
X176484398Y-124288866D02*
X176674874Y-124288866D01*
X176674874Y-124288866D02*
X176770112Y-124241247D01*
X176770112Y-124241247D02*
X176817731Y-124193628D01*
X176817731Y-124193628D02*
X176865350Y-124098390D01*
X178008207Y-123622200D02*
X177151065Y-124907914D01*
X178293922Y-123765057D02*
X178341541Y-123717438D01*
X178341541Y-123717438D02*
X178436779Y-123669819D01*
X178436779Y-123669819D02*
X178674874Y-123669819D01*
X178674874Y-123669819D02*
X178770112Y-123717438D01*
X178770112Y-123717438D02*
X178817731Y-123765057D01*
X178817731Y-123765057D02*
X178865350Y-123860295D01*
X178865350Y-123860295D02*
X178865350Y-123955533D01*
X178865350Y-123955533D02*
X178817731Y-124098390D01*
X178817731Y-124098390D02*
X178246303Y-124669819D01*
X178246303Y-124669819D02*
X178865350Y-124669819D01*
X179484398Y-123669819D02*
X179579636Y-123669819D01*
X179579636Y-123669819D02*
X179674874Y-123717438D01*
X179674874Y-123717438D02*
X179722493Y-123765057D01*
X179722493Y-123765057D02*
X179770112Y-123860295D01*
X179770112Y-123860295D02*
X179817731Y-124050771D01*
X179817731Y-124050771D02*
X179817731Y-124288866D01*
X179817731Y-124288866D02*
X179770112Y-124479342D01*
X179770112Y-124479342D02*
X179722493Y-124574580D01*
X179722493Y-124574580D02*
X179674874Y-124622200D01*
X179674874Y-124622200D02*
X179579636Y-124669819D01*
X179579636Y-124669819D02*
X179484398Y-124669819D01*
X179484398Y-124669819D02*
X179389160Y-124622200D01*
X179389160Y-124622200D02*
X179341541Y-124574580D01*
X179341541Y-124574580D02*
X179293922Y-124479342D01*
X179293922Y-124479342D02*
X179246303Y-124288866D01*
X179246303Y-124288866D02*
X179246303Y-124050771D01*
X179246303Y-124050771D02*
X179293922Y-123860295D01*
X179293922Y-123860295D02*
X179341541Y-123765057D01*
X179341541Y-123765057D02*
X179389160Y-123717438D01*
X179389160Y-123717438D02*
X179484398Y-123669819D01*
X180198684Y-123765057D02*
X180246303Y-123717438D01*
X180246303Y-123717438D02*
X180341541Y-123669819D01*
X180341541Y-123669819D02*
X180579636Y-123669819D01*
X180579636Y-123669819D02*
X180674874Y-123717438D01*
X180674874Y-123717438D02*
X180722493Y-123765057D01*
X180722493Y-123765057D02*
X180770112Y-123860295D01*
X180770112Y-123860295D02*
X180770112Y-123955533D01*
X180770112Y-123955533D02*
X180722493Y-124098390D01*
X180722493Y-124098390D02*
X180151065Y-124669819D01*
X180151065Y-124669819D02*
X180770112Y-124669819D01*
X181674874Y-123669819D02*
X181198684Y-123669819D01*
X181198684Y-123669819D02*
X181151065Y-124146009D01*
X181151065Y-124146009D02*
X181198684Y-124098390D01*
X181198684Y-124098390D02*
X181293922Y-124050771D01*
X181293922Y-124050771D02*
X181532017Y-124050771D01*
X181532017Y-124050771D02*
X181627255Y-124098390D01*
X181627255Y-124098390D02*
X181674874Y-124146009D01*
X181674874Y-124146009D02*
X181722493Y-124241247D01*
X181722493Y-124241247D02*
X181722493Y-124479342D01*
X181722493Y-124479342D02*
X181674874Y-124574580D01*
X181674874Y-124574580D02*
X181627255Y-124622200D01*
X181627255Y-124622200D02*
X181532017Y-124669819D01*
X181532017Y-124669819D02*
X181293922Y-124669819D01*
X181293922Y-124669819D02*
X181198684Y-124622200D01*
X181198684Y-124622200D02*
X181151065Y-124574580D01*
D10*
G36*
X131484274Y-121475303D02*
G01*
X131555183Y-121510757D01*
X131622253Y-121577827D01*
X131657275Y-121682892D01*
X131657275Y-121804761D01*
X130857275Y-121804761D01*
X130857275Y-121682893D01*
X130892296Y-121577828D01*
X130959369Y-121510756D01*
X131030274Y-121475303D01*
X131198155Y-121433333D01*
X131316393Y-121433333D01*
X131484274Y-121475303D01*
G37*
G36*
X133173236Y-118495058D02*
G01*
X133237414Y-118559235D01*
X133267219Y-118618845D01*
X133267219Y-118762107D01*
X133237414Y-118821716D01*
X133173236Y-118885893D01*
X133021575Y-118923809D01*
X132712861Y-118923809D01*
X132561202Y-118885894D01*
X132497023Y-118821715D01*
X132467219Y-118762106D01*
X132467219Y-118618845D01*
X132497023Y-118559236D01*
X132561202Y-118495057D01*
X132712861Y-118457143D01*
X133021575Y-118457143D01*
X133173236Y-118495058D01*
G37*
G36*
X131563292Y-117518867D02*
G01*
X131627470Y-117583044D01*
X131657275Y-117642654D01*
X131657275Y-117785916D01*
X131627470Y-117845525D01*
X131563292Y-117909702D01*
X131411631Y-117947618D01*
X131102917Y-117947618D01*
X130951258Y-117909703D01*
X130887079Y-117845524D01*
X130857275Y-117785915D01*
X130857275Y-117642654D01*
X130887079Y-117583045D01*
X130951258Y-117518866D01*
X131102917Y-117480952D01*
X131411631Y-117480952D01*
X131563292Y-117518867D01*
G37*
G36*
X131563292Y-115709343D02*
G01*
X131627470Y-115773520D01*
X131657275Y-115833130D01*
X131657275Y-115976392D01*
X131627470Y-116036001D01*
X131563292Y-116100178D01*
X131411631Y-116138094D01*
X131102917Y-116138094D01*
X130951258Y-116100179D01*
X130887079Y-116036000D01*
X130857275Y-115976391D01*
X130857275Y-115833130D01*
X130887079Y-115773521D01*
X130951258Y-115709342D01*
X131102917Y-115671428D01*
X131411631Y-115671428D01*
X131563292Y-115709343D01*
G37*
G36*
X132736554Y-115677424D02*
G01*
X132761223Y-115702092D01*
X132791028Y-115761702D01*
X132791028Y-116019047D01*
X132467219Y-116019047D01*
X132467219Y-115761702D01*
X132497024Y-115702092D01*
X132521692Y-115677423D01*
X132581302Y-115647619D01*
X132676945Y-115647619D01*
X132736554Y-115677424D01*
G37*
G36*
X133173236Y-114637915D02*
G01*
X133237414Y-114702092D01*
X133267219Y-114761702D01*
X133267219Y-114904964D01*
X133237414Y-114964573D01*
X133173236Y-115028750D01*
X133021575Y-115066666D01*
X132712861Y-115066666D01*
X132561202Y-115028751D01*
X132497023Y-114964572D01*
X132467219Y-114904963D01*
X132467219Y-114761702D01*
X132497023Y-114702093D01*
X132561202Y-114637914D01*
X132712861Y-114600000D01*
X133021575Y-114600000D01*
X133173236Y-114637915D01*
G37*
G36*
X131126610Y-114701233D02*
G01*
X131151279Y-114725901D01*
X131181084Y-114785511D01*
X131181084Y-115042856D01*
X130857275Y-115042856D01*
X130857275Y-114785511D01*
X130887080Y-114725901D01*
X130911748Y-114701232D01*
X130971358Y-114671428D01*
X131067001Y-114671428D01*
X131126610Y-114701233D01*
G37*
G36*
X131126610Y-111986947D02*
G01*
X131151279Y-112011615D01*
X131181084Y-112071225D01*
X131181084Y-112328570D01*
X130857275Y-112328570D01*
X130857275Y-112071225D01*
X130887080Y-112011615D01*
X130911748Y-111986946D01*
X130971358Y-111957142D01*
X131067001Y-111957142D01*
X131126610Y-111986947D01*
G37*
G36*
X132736554Y-111105995D02*
G01*
X132761223Y-111130663D01*
X132791028Y-111190273D01*
X132791028Y-111447618D01*
X132467219Y-111447618D01*
X132467219Y-111190273D01*
X132497024Y-111130663D01*
X132521692Y-111105994D01*
X132581302Y-111076190D01*
X132676945Y-111076190D01*
X132736554Y-111105995D01*
G37*
G36*
X131484274Y-109189588D02*
G01*
X131555183Y-109225042D01*
X131622253Y-109292112D01*
X131657275Y-109397177D01*
X131657275Y-109519046D01*
X130857275Y-109519046D01*
X130857275Y-109397178D01*
X130892296Y-109292113D01*
X130959369Y-109225041D01*
X131030274Y-109189588D01*
X131198155Y-109147618D01*
X131316393Y-109147618D01*
X131484274Y-109189588D01*
G37*
G36*
X133578330Y-122115872D02*
G01*
X130546164Y-122115872D01*
X130546164Y-121666666D01*
X130657275Y-121666666D01*
X130657275Y-121904761D01*
X130659196Y-121924270D01*
X130674128Y-121960318D01*
X130701718Y-121987908D01*
X130737766Y-122002840D01*
X130757275Y-122004761D01*
X131757275Y-122004761D01*
X131776784Y-122002840D01*
X131812832Y-121987908D01*
X131840422Y-121960318D01*
X131855354Y-121924270D01*
X131857275Y-121904761D01*
X131857275Y-121666666D01*
X131856302Y-121656792D01*
X131856490Y-121654158D01*
X131855702Y-121650694D01*
X131855354Y-121647157D01*
X131854342Y-121644715D01*
X131852143Y-121635043D01*
X131804524Y-121492186D01*
X131796533Y-121474286D01*
X131794178Y-121471570D01*
X131792803Y-121468251D01*
X131780367Y-121453098D01*
X131685127Y-121357860D01*
X131677457Y-121351565D01*
X131675728Y-121349571D01*
X131672723Y-121347679D01*
X131669974Y-121345423D01*
X131667530Y-121344410D01*
X131659138Y-121339128D01*
X131563900Y-121291509D01*
X131562473Y-121290963D01*
X131561893Y-121290533D01*
X131553716Y-121287611D01*
X131545592Y-121284503D01*
X131544869Y-121284451D01*
X131543432Y-121283938D01*
X131352957Y-121236319D01*
X131349575Y-121235818D01*
X131348212Y-121235254D01*
X131340861Y-121234530D01*
X131333564Y-121233451D01*
X131332105Y-121233668D01*
X131328703Y-121233333D01*
X131185846Y-121233333D01*
X131182443Y-121233668D01*
X131180985Y-121233451D01*
X131173687Y-121234530D01*
X131166337Y-121235254D01*
X131164973Y-121235818D01*
X131161592Y-121236319D01*
X130971116Y-121283938D01*
X130969677Y-121284451D01*
X130968957Y-121284503D01*
X130960832Y-121287611D01*
X130952656Y-121290533D01*
X130952076Y-121290962D01*
X130950648Y-121291509D01*
X130855411Y-121339128D01*
X130847012Y-121344414D01*
X130844575Y-121345424D01*
X130841831Y-121347675D01*
X130838820Y-121349571D01*
X130837087Y-121351568D01*
X130829421Y-121357860D01*
X130734183Y-121453098D01*
X130721747Y-121468252D01*
X130720372Y-121471570D01*
X130718017Y-121474286D01*
X130710026Y-121492187D01*
X130662407Y-121635043D01*
X130660207Y-121644714D01*
X130659196Y-121647157D01*
X130658847Y-121650695D01*
X130658060Y-121654159D01*
X130658247Y-121656792D01*
X130657275Y-121666666D01*
X130546164Y-121666666D01*
X130546164Y-120523809D01*
X130657275Y-120523809D01*
X130657275Y-120619047D01*
X130658247Y-120628920D01*
X130658060Y-120631554D01*
X130658847Y-120635017D01*
X130659196Y-120638556D01*
X130660207Y-120640998D01*
X130662407Y-120650670D01*
X130710026Y-120793526D01*
X130718017Y-120811427D01*
X130720372Y-120814142D01*
X130721747Y-120817461D01*
X130734183Y-120832615D01*
X130829421Y-120927853D01*
X130837087Y-120934144D01*
X130838820Y-120936142D01*
X130841831Y-120938037D01*
X130844575Y-120940289D01*
X130847012Y-120941298D01*
X130855411Y-120946585D01*
X130950648Y-120994204D01*
X130952076Y-120994750D01*
X130952656Y-120995180D01*
X130960832Y-120998101D01*
X130968957Y-121001210D01*
X130969677Y-121001261D01*
X130971116Y-121001775D01*
X131161592Y-121049394D01*
X131164973Y-121049894D01*
X131166337Y-121050459D01*
X131173687Y-121051182D01*
X131180985Y-121052262D01*
X131182443Y-121052044D01*
X131185846Y-121052380D01*
X131328703Y-121052380D01*
X131332105Y-121052044D01*
X131333564Y-121052262D01*
X131340861Y-121051182D01*
X131348212Y-121050459D01*
X131349575Y-121049894D01*
X131352957Y-121049394D01*
X131543432Y-121001775D01*
X131544869Y-121001261D01*
X131545592Y-121001210D01*
X131553716Y-120998101D01*
X131561893Y-120995180D01*
X131562473Y-120994749D01*
X131563900Y-120994204D01*
X131659138Y-120946585D01*
X131667530Y-120941302D01*
X131669974Y-120940290D01*
X131672723Y-120938033D01*
X131675728Y-120936142D01*
X131677457Y-120934147D01*
X131685127Y-120927853D01*
X131780367Y-120832615D01*
X131792803Y-120817462D01*
X131794178Y-120814142D01*
X131796533Y-120811427D01*
X131804524Y-120793527D01*
X131852143Y-120650670D01*
X131854342Y-120640997D01*
X131855354Y-120638556D01*
X131855702Y-120635018D01*
X131856490Y-120631555D01*
X131856302Y-120628920D01*
X131857275Y-120619047D01*
X131857275Y-120523809D01*
X131856302Y-120513935D01*
X131856490Y-120511301D01*
X131855702Y-120507837D01*
X131855354Y-120504300D01*
X131854342Y-120501858D01*
X131852143Y-120492186D01*
X131804524Y-120349329D01*
X131796533Y-120331429D01*
X131794178Y-120328713D01*
X131792803Y-120325394D01*
X131780366Y-120310240D01*
X131732746Y-120262622D01*
X131717593Y-120250185D01*
X131681544Y-120235254D01*
X131642526Y-120235255D01*
X131606478Y-120250186D01*
X131578888Y-120277776D01*
X131563957Y-120313825D01*
X131563958Y-120352843D01*
X131578889Y-120388891D01*
X131591326Y-120404044D01*
X131622253Y-120434970D01*
X131657275Y-120540035D01*
X131657275Y-120602820D01*
X131622253Y-120707885D01*
X131555183Y-120774955D01*
X131484274Y-120810409D01*
X131316393Y-120852380D01*
X131198155Y-120852380D01*
X131030274Y-120810409D01*
X130959369Y-120774957D01*
X130892296Y-120707884D01*
X130857275Y-120602820D01*
X130857275Y-120540036D01*
X130892296Y-120434970D01*
X130923223Y-120404044D01*
X130935660Y-120388891D01*
X130950591Y-120352842D01*
X130950591Y-120313824D01*
X130935660Y-120277776D01*
X130908070Y-120250186D01*
X130872022Y-120235255D01*
X130833004Y-120235255D01*
X130796955Y-120250186D01*
X130781802Y-120262623D01*
X130734183Y-120310241D01*
X130721747Y-120325395D01*
X130720372Y-120328713D01*
X130718017Y-120331429D01*
X130710026Y-120349330D01*
X130662407Y-120492186D01*
X130660207Y-120501857D01*
X130659196Y-120504300D01*
X130658847Y-120507838D01*
X130658060Y-120511302D01*
X130658247Y-120513935D01*
X130657275Y-120523809D01*
X130546164Y-120523809D01*
X130546164Y-119595238D01*
X132267219Y-119595238D01*
X132267219Y-119690476D01*
X132268191Y-119700349D01*
X132268004Y-119702983D01*
X132268791Y-119706446D01*
X132269140Y-119709985D01*
X132270151Y-119712427D01*
X132272351Y-119722099D01*
X132319970Y-119864955D01*
X132327961Y-119882856D01*
X132330316Y-119885571D01*
X132331691Y-119888890D01*
X132344127Y-119904044D01*
X132439365Y-119999282D01*
X132447031Y-120005573D01*
X132448764Y-120007571D01*
X132451775Y-120009466D01*
X132454519Y-120011718D01*
X132456956Y-120012727D01*
X132465355Y-120018014D01*
X132560592Y-120065633D01*
X132562020Y-120066179D01*
X132562600Y-120066609D01*
X132570776Y-120069530D01*
X132578901Y-120072639D01*
X132579621Y-120072690D01*
X132581060Y-120073204D01*
X132771536Y-120120823D01*
X132774917Y-120121323D01*
X132776281Y-120121888D01*
X132783631Y-120122611D01*
X132790929Y-120123691D01*
X132792387Y-120123473D01*
X132795790Y-120123809D01*
X132938647Y-120123809D01*
X132942049Y-120123473D01*
X132943508Y-120123691D01*
X132950805Y-120122611D01*
X132958156Y-120121888D01*
X132959519Y-120121323D01*
X132962901Y-120120823D01*
X133153376Y-120073204D01*
X133154813Y-120072690D01*
X133155536Y-120072639D01*
X133163660Y-120069530D01*
X133171837Y-120066609D01*
X133172417Y-120066178D01*
X133173844Y-120065633D01*
X133269082Y-120018014D01*
X133277474Y-120012731D01*
X133279918Y-120011719D01*
X133282667Y-120009462D01*
X133285672Y-120007571D01*
X133287401Y-120005576D01*
X133295071Y-119999282D01*
X133390311Y-119904044D01*
X133402747Y-119888891D01*
X133404122Y-119885571D01*
X133406477Y-119882856D01*
X133414468Y-119864956D01*
X133462087Y-119722099D01*
X133464286Y-119712426D01*
X133465298Y-119709985D01*
X133465646Y-119706447D01*
X133466434Y-119702984D01*
X133466246Y-119700349D01*
X133467219Y-119690476D01*
X133467219Y-119595238D01*
X133466246Y-119585364D01*
X133466434Y-119582730D01*
X133465646Y-119579266D01*
X133465298Y-119575729D01*
X133464286Y-119573287D01*
X133462087Y-119563615D01*
X133414468Y-119420758D01*
X133406477Y-119402858D01*
X133404122Y-119400142D01*
X133402747Y-119396823D01*
X133390310Y-119381669D01*
X133342690Y-119334051D01*
X133327537Y-119321614D01*
X133291488Y-119306683D01*
X133252470Y-119306684D01*
X133216422Y-119321615D01*
X133188832Y-119349205D01*
X133173901Y-119385254D01*
X133173902Y-119424272D01*
X133188833Y-119460320D01*
X133201270Y-119475473D01*
X133232197Y-119506399D01*
X133267219Y-119611464D01*
X133267219Y-119674249D01*
X133232197Y-119779314D01*
X133165127Y-119846384D01*
X133094218Y-119881838D01*
X132926337Y-119923809D01*
X132808099Y-119923809D01*
X132640218Y-119881838D01*
X132569313Y-119846386D01*
X132502240Y-119779313D01*
X132467219Y-119674249D01*
X132467219Y-119611465D01*
X132502240Y-119506399D01*
X132533167Y-119475473D01*
X132545604Y-119460320D01*
X132560535Y-119424271D01*
X132560535Y-119385253D01*
X132545604Y-119349205D01*
X132518014Y-119321615D01*
X132481966Y-119306684D01*
X132442948Y-119306684D01*
X132406899Y-119321615D01*
X132391746Y-119334052D01*
X132344127Y-119381670D01*
X132331691Y-119396824D01*
X132330316Y-119400142D01*
X132327961Y-119402858D01*
X132319970Y-119420759D01*
X132272351Y-119563615D01*
X132270151Y-119573286D01*
X132269140Y-119575729D01*
X132268791Y-119579267D01*
X132268004Y-119582731D01*
X132268191Y-119585364D01*
X132267219Y-119595238D01*
X130546164Y-119595238D01*
X130546164Y-118491373D01*
X130658434Y-118491373D01*
X130659196Y-118493468D01*
X130659196Y-118495699D01*
X130665840Y-118511740D01*
X130671769Y-118528042D01*
X130673274Y-118529685D01*
X130674128Y-118531747D01*
X130686401Y-118544020D01*
X130698120Y-118556817D01*
X130700764Y-118558383D01*
X130701718Y-118559337D01*
X130703899Y-118560240D01*
X130714986Y-118566808D01*
X131235090Y-118809523D01*
X130714986Y-119052238D01*
X130703899Y-119058805D01*
X130701718Y-119059709D01*
X130700764Y-119060662D01*
X130698120Y-119062229D01*
X130686401Y-119075025D01*
X130674128Y-119087299D01*
X130673274Y-119089360D01*
X130671769Y-119091004D01*
X130665840Y-119107305D01*
X130659196Y-119123347D01*
X130659196Y-119125577D01*
X130658434Y-119127673D01*
X130659196Y-119145012D01*
X130659196Y-119162365D01*
X130660049Y-119164424D01*
X130660147Y-119166653D01*
X130667488Y-119182383D01*
X130674128Y-119198413D01*
X130675704Y-119199989D01*
X130676648Y-119202011D01*
X130689444Y-119213729D01*
X130701718Y-119226003D01*
X130703779Y-119226856D01*
X130705423Y-119228362D01*
X130721724Y-119234290D01*
X130737766Y-119240935D01*
X130740824Y-119241236D01*
X130742092Y-119241697D01*
X130744451Y-119241593D01*
X130757275Y-119242856D01*
X131757275Y-119242856D01*
X131776784Y-119240935D01*
X131812832Y-119226003D01*
X131840422Y-119198413D01*
X131855354Y-119162365D01*
X131855354Y-119123347D01*
X131840422Y-119087299D01*
X131812832Y-119059709D01*
X131776784Y-119044777D01*
X131757275Y-119042856D01*
X131208031Y-119042856D01*
X131513849Y-118900141D01*
X131520990Y-118895910D01*
X131523412Y-118895030D01*
X131525124Y-118893461D01*
X131530715Y-118890150D01*
X131540975Y-118878945D01*
X131552188Y-118868678D01*
X131554067Y-118864650D01*
X131557067Y-118861375D01*
X131562258Y-118847099D01*
X131568688Y-118833321D01*
X131568883Y-118828880D01*
X131570401Y-118824706D01*
X131569733Y-118809523D01*
X131570401Y-118794340D01*
X131568883Y-118790165D01*
X131568688Y-118785725D01*
X131562258Y-118771946D01*
X131557067Y-118757671D01*
X131554067Y-118754395D01*
X131552188Y-118750368D01*
X131540975Y-118740100D01*
X131530715Y-118728896D01*
X131525124Y-118725584D01*
X131523412Y-118724016D01*
X131520990Y-118723135D01*
X131513849Y-118718905D01*
X131248848Y-118595238D01*
X132267219Y-118595238D01*
X132267219Y-118785714D01*
X132269140Y-118805223D01*
X132270515Y-118808543D01*
X132270770Y-118812127D01*
X132277776Y-118830435D01*
X132325395Y-118925673D01*
X132330680Y-118934069D01*
X132331691Y-118936509D01*
X132333944Y-118939255D01*
X132335838Y-118942263D01*
X132337832Y-118943992D01*
X132344127Y-118951663D01*
X132439365Y-119046901D01*
X132454519Y-119059337D01*
X132461387Y-119062182D01*
X132467362Y-119066609D01*
X132485822Y-119073204D01*
X132676298Y-119120823D01*
X132679679Y-119121323D01*
X132681043Y-119121888D01*
X132688393Y-119122611D01*
X132695691Y-119123691D01*
X132697149Y-119123473D01*
X132700552Y-119123809D01*
X133033885Y-119123809D01*
X133037287Y-119123473D01*
X133038746Y-119123691D01*
X133046043Y-119122611D01*
X133053394Y-119121888D01*
X133054757Y-119121323D01*
X133058139Y-119120823D01*
X133248614Y-119073204D01*
X133267075Y-119066609D01*
X133273047Y-119062183D01*
X133279918Y-119059338D01*
X133295071Y-119046901D01*
X133390311Y-118951663D01*
X133396604Y-118943994D01*
X133398600Y-118942264D01*
X133400493Y-118939256D01*
X133402747Y-118936510D01*
X133403757Y-118934069D01*
X133409043Y-118925673D01*
X133456662Y-118830436D01*
X133463668Y-118812127D01*
X133463922Y-118808543D01*
X133465298Y-118805223D01*
X133467219Y-118785714D01*
X133467219Y-118595238D01*
X133465298Y-118575729D01*
X133463922Y-118572408D01*
X133463668Y-118568825D01*
X133456662Y-118550516D01*
X133409043Y-118455279D01*
X133403757Y-118446882D01*
X133402747Y-118444442D01*
X133400493Y-118441695D01*
X133398600Y-118438688D01*
X133396604Y-118436957D01*
X133390311Y-118429289D01*
X133295071Y-118334051D01*
X133279918Y-118321614D01*
X133273047Y-118318768D01*
X133267075Y-118314343D01*
X133248614Y-118307748D01*
X133058139Y-118260129D01*
X133054757Y-118259628D01*
X133053394Y-118259064D01*
X133046043Y-118258340D01*
X133038746Y-118257261D01*
X133037287Y-118257478D01*
X133033885Y-118257143D01*
X132700552Y-118257143D01*
X132697149Y-118257478D01*
X132695691Y-118257261D01*
X132688393Y-118258340D01*
X132681043Y-118259064D01*
X132679679Y-118259628D01*
X132676298Y-118260129D01*
X132485822Y-118307748D01*
X132467362Y-118314343D01*
X132461387Y-118318769D01*
X132454519Y-118321615D01*
X132439365Y-118334051D01*
X132344127Y-118429289D01*
X132337832Y-118436959D01*
X132335838Y-118438689D01*
X132333944Y-118441696D01*
X132331691Y-118444443D01*
X132330680Y-118446882D01*
X132325395Y-118455279D01*
X132277776Y-118550517D01*
X132270770Y-118568825D01*
X132270515Y-118572408D01*
X132269140Y-118575729D01*
X132267219Y-118595238D01*
X131248848Y-118595238D01*
X131208031Y-118576190D01*
X131757275Y-118576190D01*
X131776784Y-118574269D01*
X131812832Y-118559337D01*
X131840422Y-118531747D01*
X131855354Y-118495699D01*
X131855354Y-118456681D01*
X131840422Y-118420633D01*
X131812832Y-118393043D01*
X131776784Y-118378111D01*
X131757275Y-118376190D01*
X130757275Y-118376190D01*
X130744451Y-118377452D01*
X130742092Y-118377349D01*
X130740824Y-118377809D01*
X130737766Y-118378111D01*
X130721724Y-118384755D01*
X130705423Y-118390684D01*
X130703779Y-118392189D01*
X130701718Y-118393043D01*
X130689444Y-118405316D01*
X130676648Y-118417035D01*
X130675704Y-118419056D01*
X130674128Y-118420633D01*
X130667488Y-118436662D01*
X130660147Y-118452393D01*
X130660049Y-118454621D01*
X130659196Y-118456681D01*
X130659196Y-118474033D01*
X130658434Y-118491373D01*
X130546164Y-118491373D01*
X130546164Y-117619047D01*
X130657275Y-117619047D01*
X130657275Y-117809523D01*
X130659196Y-117829032D01*
X130660571Y-117832352D01*
X130660826Y-117835936D01*
X130667832Y-117854244D01*
X130715451Y-117949482D01*
X130720736Y-117957878D01*
X130721747Y-117960318D01*
X130724000Y-117963064D01*
X130725894Y-117966072D01*
X130727888Y-117967801D01*
X130734183Y-117975472D01*
X130829421Y-118070710D01*
X130844575Y-118083146D01*
X130851443Y-118085991D01*
X130857418Y-118090418D01*
X130875878Y-118097013D01*
X131066354Y-118144632D01*
X131069735Y-118145132D01*
X131071099Y-118145697D01*
X131078449Y-118146420D01*
X131085747Y-118147500D01*
X131087205Y-118147282D01*
X131090608Y-118147618D01*
X131423941Y-118147618D01*
X131427343Y-118147282D01*
X131428802Y-118147500D01*
X131436099Y-118146420D01*
X131443450Y-118145697D01*
X131444813Y-118145132D01*
X131448195Y-118144632D01*
X131638670Y-118097013D01*
X131657131Y-118090418D01*
X131663103Y-118085992D01*
X131669974Y-118083147D01*
X131685127Y-118070710D01*
X131780367Y-117975472D01*
X131786660Y-117967803D01*
X131788656Y-117966073D01*
X131790549Y-117963065D01*
X131792803Y-117960319D01*
X131793813Y-117957878D01*
X131799099Y-117949482D01*
X131813047Y-117921586D01*
X132267463Y-117921586D01*
X132269140Y-117934779D01*
X132269140Y-117948080D01*
X132271579Y-117953968D01*
X132272383Y-117960293D01*
X132278983Y-117971842D01*
X132284072Y-117984128D01*
X132288579Y-117988635D01*
X132291742Y-117994170D01*
X132302256Y-118002312D01*
X132311662Y-118011718D01*
X132317552Y-118014157D01*
X132322591Y-118018060D01*
X132335419Y-118021558D01*
X132347710Y-118026650D01*
X132357687Y-118027632D01*
X132360234Y-118028327D01*
X132362201Y-118028076D01*
X132367219Y-118028571D01*
X133367219Y-118028571D01*
X133386728Y-118026650D01*
X133422776Y-118011718D01*
X133450366Y-117984128D01*
X133465298Y-117948080D01*
X133465298Y-117909062D01*
X133450366Y-117873014D01*
X133422776Y-117845424D01*
X133386728Y-117830492D01*
X133367219Y-117828571D01*
X132743775Y-117828571D01*
X133416833Y-117443967D01*
X133420943Y-117441048D01*
X133422776Y-117440290D01*
X133424642Y-117438423D01*
X133432818Y-117432620D01*
X133440962Y-117422103D01*
X133450366Y-117412700D01*
X133452804Y-117406812D01*
X133456709Y-117401771D01*
X133460208Y-117388938D01*
X133465298Y-117376652D01*
X133465298Y-117370276D01*
X133466975Y-117364127D01*
X133465298Y-117350933D01*
X133465298Y-117337634D01*
X133462858Y-117331745D01*
X133462055Y-117325421D01*
X133455454Y-117313871D01*
X133450366Y-117301586D01*
X133445858Y-117297078D01*
X133442696Y-117291544D01*
X133432179Y-117283399D01*
X133422776Y-117273996D01*
X133416888Y-117271557D01*
X133411847Y-117267653D01*
X133399014Y-117264153D01*
X133386728Y-117259064D01*
X133376750Y-117258081D01*
X133374204Y-117257387D01*
X133372236Y-117257637D01*
X133367219Y-117257143D01*
X132367219Y-117257143D01*
X132347710Y-117259064D01*
X132311662Y-117273996D01*
X132284072Y-117301586D01*
X132269140Y-117337634D01*
X132269140Y-117376652D01*
X132284072Y-117412700D01*
X132311662Y-117440290D01*
X132347710Y-117455222D01*
X132367219Y-117457143D01*
X132990663Y-117457143D01*
X132317605Y-117841747D01*
X132313494Y-117844665D01*
X132311662Y-117845424D01*
X132309795Y-117847290D01*
X132301620Y-117853094D01*
X132293477Y-117863608D01*
X132284072Y-117873014D01*
X132281632Y-117878904D01*
X132277730Y-117883943D01*
X132274231Y-117896771D01*
X132269140Y-117909062D01*
X132269140Y-117915437D01*
X132267463Y-117921586D01*
X131813047Y-117921586D01*
X131846718Y-117854245D01*
X131853724Y-117835936D01*
X131853978Y-117832352D01*
X131855354Y-117829032D01*
X131857275Y-117809523D01*
X131857275Y-117619047D01*
X131855354Y-117599538D01*
X131853978Y-117596217D01*
X131853724Y-117592634D01*
X131846718Y-117574325D01*
X131799099Y-117479088D01*
X131793813Y-117470691D01*
X131792803Y-117468251D01*
X131790549Y-117465504D01*
X131788656Y-117462497D01*
X131786660Y-117460766D01*
X131780367Y-117453098D01*
X131685127Y-117357860D01*
X131669974Y-117345423D01*
X131663103Y-117342577D01*
X131657131Y-117338152D01*
X131638670Y-117331557D01*
X131448195Y-117283938D01*
X131444813Y-117283437D01*
X131443450Y-117282873D01*
X131436099Y-117282149D01*
X131428802Y-117281070D01*
X131427343Y-117281287D01*
X131423941Y-117280952D01*
X131090608Y-117280952D01*
X131087205Y-117281287D01*
X131085747Y-117281070D01*
X131078449Y-117282149D01*
X131071099Y-117282873D01*
X131069735Y-117283437D01*
X131066354Y-117283938D01*
X130875878Y-117331557D01*
X130857418Y-117338152D01*
X130851443Y-117342578D01*
X130844575Y-117345424D01*
X130829421Y-117357860D01*
X130734183Y-117453098D01*
X130727888Y-117460768D01*
X130725894Y-117462498D01*
X130724000Y-117465505D01*
X130721747Y-117468252D01*
X130720736Y-117470691D01*
X130715451Y-117479088D01*
X130667832Y-117574326D01*
X130660826Y-117592634D01*
X130660571Y-117596217D01*
X130659196Y-117599538D01*
X130657275Y-117619047D01*
X130546164Y-117619047D01*
X130546164Y-116523809D01*
X130657275Y-116523809D01*
X130657275Y-117095237D01*
X130659196Y-117114746D01*
X130674128Y-117150794D01*
X130701718Y-117178384D01*
X130737766Y-117193316D01*
X130776784Y-117193316D01*
X130812832Y-117178384D01*
X130840422Y-117150794D01*
X130855354Y-117114746D01*
X130857275Y-117095237D01*
X130857275Y-116909523D01*
X131757275Y-116909523D01*
X131776784Y-116907602D01*
X131812832Y-116892670D01*
X131840422Y-116865080D01*
X131855354Y-116829032D01*
X131855354Y-116790014D01*
X131840422Y-116753966D01*
X131812832Y-116726376D01*
X131776784Y-116711444D01*
X131757275Y-116709523D01*
X130857275Y-116709523D01*
X130857275Y-116523809D01*
X130855354Y-116504300D01*
X130840422Y-116468252D01*
X130824551Y-116452381D01*
X132267219Y-116452381D01*
X132267219Y-117023809D01*
X132269140Y-117043318D01*
X132284072Y-117079366D01*
X132311662Y-117106956D01*
X132347710Y-117121888D01*
X132386728Y-117121888D01*
X132422776Y-117106956D01*
X132450366Y-117079366D01*
X132465298Y-117043318D01*
X132467219Y-117023809D01*
X132467219Y-116838095D01*
X133367219Y-116838095D01*
X133386728Y-116836174D01*
X133422776Y-116821242D01*
X133450366Y-116793652D01*
X133465298Y-116757604D01*
X133465298Y-116718586D01*
X133450366Y-116682538D01*
X133422776Y-116654948D01*
X133386728Y-116640016D01*
X133367219Y-116638095D01*
X132467219Y-116638095D01*
X132467219Y-116452381D01*
X132465298Y-116432872D01*
X132450366Y-116396824D01*
X132422776Y-116369234D01*
X132386728Y-116354302D01*
X132347710Y-116354302D01*
X132311662Y-116369234D01*
X132284072Y-116396824D01*
X132269140Y-116432872D01*
X132267219Y-116452381D01*
X130824551Y-116452381D01*
X130812832Y-116440662D01*
X130776784Y-116425730D01*
X130737766Y-116425730D01*
X130701718Y-116440662D01*
X130674128Y-116468252D01*
X130659196Y-116504300D01*
X130657275Y-116523809D01*
X130546164Y-116523809D01*
X130546164Y-115809523D01*
X130657275Y-115809523D01*
X130657275Y-115999999D01*
X130659196Y-116019508D01*
X130660571Y-116022828D01*
X130660826Y-116026412D01*
X130667832Y-116044720D01*
X130715451Y-116139958D01*
X130720736Y-116148354D01*
X130721747Y-116150794D01*
X130724000Y-116153540D01*
X130725894Y-116156548D01*
X130727888Y-116158277D01*
X130734183Y-116165948D01*
X130829421Y-116261186D01*
X130844575Y-116273622D01*
X130851443Y-116276467D01*
X130857418Y-116280894D01*
X130875878Y-116287489D01*
X131066354Y-116335108D01*
X131069735Y-116335608D01*
X131071099Y-116336173D01*
X131078449Y-116336896D01*
X131085747Y-116337976D01*
X131087205Y-116337758D01*
X131090608Y-116338094D01*
X131423941Y-116338094D01*
X131427343Y-116337758D01*
X131428802Y-116337976D01*
X131436099Y-116336896D01*
X131443450Y-116336173D01*
X131444813Y-116335608D01*
X131448195Y-116335108D01*
X131638670Y-116287489D01*
X131657131Y-116280894D01*
X131663103Y-116276468D01*
X131669974Y-116273623D01*
X131685127Y-116261186D01*
X131780367Y-116165948D01*
X131786660Y-116158279D01*
X131788656Y-116156549D01*
X131790549Y-116153541D01*
X131792803Y-116150795D01*
X131793813Y-116148354D01*
X131799099Y-116139958D01*
X131846718Y-116044721D01*
X131853724Y-116026412D01*
X131853978Y-116022828D01*
X131855354Y-116019508D01*
X131857275Y-115999999D01*
X131857275Y-115809523D01*
X131855354Y-115790014D01*
X131853978Y-115786693D01*
X131853724Y-115783110D01*
X131846718Y-115764801D01*
X131833365Y-115738095D01*
X132267219Y-115738095D01*
X132267219Y-116119047D01*
X132269140Y-116138556D01*
X132284072Y-116174604D01*
X132311662Y-116202194D01*
X132347710Y-116217126D01*
X132367219Y-116219047D01*
X133367219Y-116219047D01*
X133386728Y-116217126D01*
X133422776Y-116202194D01*
X133450366Y-116174604D01*
X133465298Y-116138556D01*
X133465298Y-116099538D01*
X133450366Y-116063490D01*
X133422776Y-116035900D01*
X133386728Y-116020968D01*
X133367219Y-116019047D01*
X132991028Y-116019047D01*
X132991028Y-115933017D01*
X133424565Y-115629542D01*
X133439446Y-115616781D01*
X133460415Y-115583876D01*
X133467196Y-115545451D01*
X133458756Y-115507357D01*
X133436381Y-115475392D01*
X133403476Y-115454423D01*
X133365052Y-115447642D01*
X133326957Y-115456082D01*
X133309873Y-115465696D01*
X132981347Y-115695663D01*
X132980471Y-115693373D01*
X132932852Y-115598136D01*
X132927566Y-115589739D01*
X132926556Y-115587299D01*
X132924302Y-115584553D01*
X132922409Y-115581545D01*
X132920411Y-115579812D01*
X132914119Y-115572146D01*
X132866501Y-115524527D01*
X132858830Y-115518232D01*
X132857101Y-115516238D01*
X132854093Y-115514344D01*
X132851347Y-115512091D01*
X132848907Y-115511080D01*
X132840511Y-115505795D01*
X132745273Y-115458176D01*
X132726965Y-115451170D01*
X132723381Y-115450915D01*
X132720061Y-115449540D01*
X132700552Y-115447619D01*
X132557695Y-115447619D01*
X132538186Y-115449540D01*
X132534865Y-115450915D01*
X132531282Y-115451170D01*
X132512973Y-115458176D01*
X132417736Y-115505795D01*
X132409339Y-115511080D01*
X132406899Y-115512091D01*
X132404153Y-115514344D01*
X132401145Y-115516238D01*
X132399412Y-115518235D01*
X132391746Y-115524528D01*
X132344127Y-115572146D01*
X132337832Y-115579816D01*
X132335838Y-115581546D01*
X132333944Y-115584553D01*
X132331691Y-115587300D01*
X132330680Y-115589739D01*
X132325395Y-115598136D01*
X132277776Y-115693374D01*
X132270770Y-115711682D01*
X132270515Y-115715265D01*
X132269140Y-115718586D01*
X132267219Y-115738095D01*
X131833365Y-115738095D01*
X131799099Y-115669564D01*
X131793813Y-115661167D01*
X131792803Y-115658727D01*
X131790549Y-115655980D01*
X131788656Y-115652973D01*
X131786660Y-115651242D01*
X131780367Y-115643574D01*
X131685127Y-115548336D01*
X131669974Y-115535899D01*
X131663103Y-115533053D01*
X131657131Y-115528628D01*
X131638670Y-115522033D01*
X131448195Y-115474414D01*
X131444813Y-115473913D01*
X131443450Y-115473349D01*
X131436099Y-115472625D01*
X131428802Y-115471546D01*
X131427343Y-115471763D01*
X131423941Y-115471428D01*
X131090608Y-115471428D01*
X131087205Y-115471763D01*
X131085747Y-115471546D01*
X131078449Y-115472625D01*
X131071099Y-115473349D01*
X131069735Y-115473913D01*
X131066354Y-115474414D01*
X130875878Y-115522033D01*
X130857418Y-115528628D01*
X130851443Y-115533054D01*
X130844575Y-115535900D01*
X130829421Y-115548336D01*
X130734183Y-115643574D01*
X130727888Y-115651244D01*
X130725894Y-115652974D01*
X130724000Y-115655981D01*
X130721747Y-115658728D01*
X130720736Y-115661167D01*
X130715451Y-115669564D01*
X130667832Y-115764802D01*
X130660826Y-115783110D01*
X130660571Y-115786693D01*
X130659196Y-115790014D01*
X130657275Y-115809523D01*
X130546164Y-115809523D01*
X130546164Y-114761904D01*
X130657275Y-114761904D01*
X130657275Y-115142856D01*
X130659196Y-115162365D01*
X130674128Y-115198413D01*
X130701718Y-115226003D01*
X130737766Y-115240935D01*
X130757275Y-115242856D01*
X131757275Y-115242856D01*
X131776784Y-115240935D01*
X131812832Y-115226003D01*
X131840422Y-115198413D01*
X131855354Y-115162365D01*
X131855354Y-115123347D01*
X131840422Y-115087299D01*
X131812832Y-115059709D01*
X131776784Y-115044777D01*
X131757275Y-115042856D01*
X131381084Y-115042856D01*
X131381084Y-114956826D01*
X131693558Y-114738095D01*
X132267219Y-114738095D01*
X132267219Y-114928571D01*
X132269140Y-114948080D01*
X132270515Y-114951400D01*
X132270770Y-114954984D01*
X132277776Y-114973292D01*
X132325395Y-115068530D01*
X132330680Y-115076926D01*
X132331691Y-115079366D01*
X132333944Y-115082112D01*
X132335838Y-115085120D01*
X132337832Y-115086849D01*
X132344127Y-115094520D01*
X132439365Y-115189758D01*
X132454519Y-115202194D01*
X132461387Y-115205039D01*
X132467362Y-115209466D01*
X132485822Y-115216061D01*
X132676298Y-115263680D01*
X132679679Y-115264180D01*
X132681043Y-115264745D01*
X132688393Y-115265468D01*
X132695691Y-115266548D01*
X132697149Y-115266330D01*
X132700552Y-115266666D01*
X133033885Y-115266666D01*
X133037287Y-115266330D01*
X133038746Y-115266548D01*
X133046043Y-115265468D01*
X133053394Y-115264745D01*
X133054757Y-115264180D01*
X133058139Y-115263680D01*
X133248614Y-115216061D01*
X133267075Y-115209466D01*
X133273047Y-115205040D01*
X133279918Y-115202195D01*
X133295071Y-115189758D01*
X133390311Y-115094520D01*
X133396604Y-115086851D01*
X133398600Y-115085121D01*
X133400493Y-115082113D01*
X133402747Y-115079367D01*
X133403757Y-115076926D01*
X133409043Y-115068530D01*
X133456662Y-114973293D01*
X133463668Y-114954984D01*
X133463922Y-114951400D01*
X133465298Y-114948080D01*
X133467219Y-114928571D01*
X133467219Y-114738095D01*
X133465298Y-114718586D01*
X133463922Y-114715265D01*
X133463668Y-114711682D01*
X133456662Y-114693373D01*
X133409043Y-114598136D01*
X133403757Y-114589739D01*
X133402747Y-114587299D01*
X133400493Y-114584552D01*
X133398600Y-114581545D01*
X133396604Y-114579814D01*
X133390311Y-114572146D01*
X133295071Y-114476908D01*
X133279918Y-114464471D01*
X133273047Y-114461625D01*
X133267075Y-114457200D01*
X133248614Y-114450605D01*
X133058139Y-114402986D01*
X133054757Y-114402485D01*
X133053394Y-114401921D01*
X133046043Y-114401197D01*
X133038746Y-114400118D01*
X133037287Y-114400335D01*
X133033885Y-114400000D01*
X132700552Y-114400000D01*
X132697149Y-114400335D01*
X132695691Y-114400118D01*
X132688393Y-114401197D01*
X132681043Y-114401921D01*
X132679679Y-114402485D01*
X132676298Y-114402986D01*
X132485822Y-114450605D01*
X132467362Y-114457200D01*
X132461387Y-114461626D01*
X132454519Y-114464472D01*
X132439365Y-114476908D01*
X132344127Y-114572146D01*
X132337832Y-114579816D01*
X132335838Y-114581546D01*
X132333944Y-114584553D01*
X132331691Y-114587300D01*
X132330680Y-114589739D01*
X132325395Y-114598136D01*
X132277776Y-114693374D01*
X132270770Y-114711682D01*
X132270515Y-114715265D01*
X132269140Y-114718586D01*
X132267219Y-114738095D01*
X131693558Y-114738095D01*
X131814621Y-114653351D01*
X131829502Y-114640590D01*
X131850471Y-114607685D01*
X131857252Y-114569260D01*
X131848812Y-114531166D01*
X131826437Y-114499201D01*
X131793532Y-114478232D01*
X131755108Y-114471451D01*
X131717013Y-114479891D01*
X131699929Y-114489505D01*
X131371403Y-114719472D01*
X131370527Y-114717182D01*
X131322908Y-114621945D01*
X131317622Y-114613548D01*
X131316612Y-114611108D01*
X131314358Y-114608362D01*
X131312465Y-114605354D01*
X131310467Y-114603621D01*
X131304175Y-114595955D01*
X131256557Y-114548336D01*
X131248886Y-114542041D01*
X131247157Y-114540047D01*
X131244149Y-114538153D01*
X131241403Y-114535900D01*
X131238963Y-114534889D01*
X131230567Y-114529604D01*
X131135329Y-114481985D01*
X131117021Y-114474979D01*
X131113437Y-114474724D01*
X131110117Y-114473349D01*
X131090608Y-114471428D01*
X130947751Y-114471428D01*
X130928242Y-114473349D01*
X130924921Y-114474724D01*
X130921338Y-114474979D01*
X130903029Y-114481985D01*
X130807792Y-114529604D01*
X130799395Y-114534889D01*
X130796955Y-114535900D01*
X130794209Y-114538153D01*
X130791201Y-114540047D01*
X130789468Y-114542044D01*
X130781802Y-114548337D01*
X130734183Y-114595955D01*
X130727888Y-114603625D01*
X130725894Y-114605355D01*
X130724000Y-114608362D01*
X130721747Y-114611109D01*
X130720736Y-114613548D01*
X130715451Y-114621945D01*
X130667832Y-114717183D01*
X130660826Y-114735491D01*
X130660571Y-114739074D01*
X130659196Y-114742395D01*
X130657275Y-114761904D01*
X130546164Y-114761904D01*
X130546164Y-114051919D01*
X132269140Y-114051919D01*
X132269140Y-114090937D01*
X132284072Y-114126985D01*
X132311662Y-114154575D01*
X132347710Y-114169507D01*
X132367219Y-114171428D01*
X133367219Y-114171428D01*
X133386728Y-114169507D01*
X133422776Y-114154575D01*
X133450366Y-114126985D01*
X133465298Y-114090937D01*
X133467219Y-114071428D01*
X133467219Y-113595238D01*
X133465298Y-113575729D01*
X133450366Y-113539681D01*
X133422776Y-113512091D01*
X133386728Y-113497159D01*
X133347710Y-113497159D01*
X133311662Y-113512091D01*
X133284072Y-113539681D01*
X133269140Y-113575729D01*
X133267219Y-113595238D01*
X133267219Y-113971428D01*
X132367219Y-113971428D01*
X132347710Y-113973349D01*
X132311662Y-113988281D01*
X132284072Y-114015871D01*
X132269140Y-114051919D01*
X130546164Y-114051919D01*
X130546164Y-112999999D01*
X130657275Y-112999999D01*
X130657275Y-113238094D01*
X130659196Y-113257603D01*
X130660571Y-113260923D01*
X130660826Y-113264507D01*
X130667832Y-113282815D01*
X130715451Y-113378053D01*
X130720736Y-113386449D01*
X130721747Y-113388889D01*
X130724000Y-113391635D01*
X130725894Y-113394643D01*
X130727888Y-113396372D01*
X130734183Y-113404043D01*
X130781802Y-113451661D01*
X130789468Y-113457953D01*
X130791201Y-113459951D01*
X130794209Y-113461844D01*
X130796955Y-113464098D01*
X130799395Y-113465108D01*
X130807792Y-113470394D01*
X130903029Y-113518013D01*
X130921338Y-113525019D01*
X130924921Y-113525273D01*
X130928242Y-113526649D01*
X130947751Y-113528570D01*
X131042989Y-113528570D01*
X131062498Y-113526649D01*
X131065818Y-113525273D01*
X131069402Y-113525019D01*
X131087710Y-113518013D01*
X131182948Y-113470394D01*
X131191344Y-113465108D01*
X131193784Y-113464098D01*
X131196530Y-113461844D01*
X131199538Y-113459951D01*
X131201267Y-113457956D01*
X131208938Y-113451662D01*
X131256556Y-113404043D01*
X131262848Y-113396376D01*
X131264846Y-113394644D01*
X131266739Y-113391635D01*
X131268993Y-113388890D01*
X131270003Y-113386449D01*
X131275289Y-113378053D01*
X131322908Y-113282816D01*
X131323454Y-113281387D01*
X131323884Y-113280808D01*
X131326805Y-113272631D01*
X131329914Y-113264507D01*
X131329965Y-113263786D01*
X131330479Y-113262348D01*
X131375435Y-113082522D01*
X131410889Y-113011615D01*
X131435557Y-112986946D01*
X131495167Y-112957142D01*
X131543191Y-112957142D01*
X131602802Y-112986948D01*
X131627470Y-113011615D01*
X131657275Y-113071225D01*
X131657275Y-113269486D01*
X131614788Y-113396947D01*
X131610441Y-113416063D01*
X131613207Y-113454983D01*
X131630657Y-113489882D01*
X131660133Y-113515447D01*
X131697149Y-113527785D01*
X131736069Y-113525019D01*
X131770968Y-113507569D01*
X131796533Y-113478093D01*
X131804524Y-113460193D01*
X131852143Y-113317336D01*
X131854342Y-113307663D01*
X131855354Y-113305222D01*
X131855702Y-113301684D01*
X131856490Y-113298221D01*
X131856302Y-113295586D01*
X131857275Y-113285713D01*
X131857275Y-113242395D01*
X132269140Y-113242395D01*
X132269140Y-113281413D01*
X132284072Y-113317461D01*
X132311662Y-113345051D01*
X132347710Y-113359983D01*
X132367219Y-113361904D01*
X133367219Y-113361904D01*
X133386728Y-113359983D01*
X133422776Y-113345051D01*
X133450366Y-113317461D01*
X133465298Y-113281413D01*
X133467219Y-113261904D01*
X133467219Y-112785714D01*
X133465298Y-112766205D01*
X133450366Y-112730157D01*
X133422776Y-112702567D01*
X133386728Y-112687635D01*
X133347710Y-112687635D01*
X133311662Y-112702567D01*
X133284072Y-112730157D01*
X133269140Y-112766205D01*
X133267219Y-112785714D01*
X133267219Y-113161904D01*
X132367219Y-113161904D01*
X132347710Y-113163825D01*
X132311662Y-113178757D01*
X132284072Y-113206347D01*
X132269140Y-113242395D01*
X131857275Y-113242395D01*
X131857275Y-113047618D01*
X131855354Y-113028109D01*
X131853978Y-113024788D01*
X131853724Y-113021205D01*
X131846718Y-113002896D01*
X131799099Y-112907659D01*
X131793813Y-112899262D01*
X131792803Y-112896822D01*
X131790549Y-112894076D01*
X131788656Y-112891068D01*
X131786659Y-112889336D01*
X131780366Y-112881668D01*
X131732746Y-112834050D01*
X131725076Y-112827755D01*
X131723347Y-112825761D01*
X131720342Y-112823869D01*
X131717593Y-112821613D01*
X131715149Y-112820601D01*
X131706757Y-112815318D01*
X131611519Y-112767699D01*
X131593211Y-112760693D01*
X131589627Y-112760438D01*
X131586307Y-112759063D01*
X131566798Y-112757142D01*
X131471560Y-112757142D01*
X131452051Y-112759063D01*
X131448730Y-112760438D01*
X131445147Y-112760693D01*
X131426838Y-112767699D01*
X131331601Y-112815318D01*
X131323204Y-112820603D01*
X131320764Y-112821614D01*
X131318018Y-112823867D01*
X131315010Y-112825761D01*
X131313277Y-112827758D01*
X131305611Y-112834051D01*
X131257992Y-112881669D01*
X131251697Y-112889339D01*
X131249703Y-112891069D01*
X131247809Y-112894076D01*
X131245556Y-112896823D01*
X131244545Y-112899262D01*
X131239260Y-112907659D01*
X131191641Y-113002897D01*
X131191095Y-113004323D01*
X131190665Y-113004904D01*
X131187743Y-113013080D01*
X131184635Y-113021205D01*
X131184583Y-113021927D01*
X131184070Y-113023365D01*
X131139113Y-113203189D01*
X131103660Y-113274096D01*
X131078991Y-113298764D01*
X131019382Y-113328570D01*
X130971358Y-113328570D01*
X130911748Y-113298765D01*
X130887080Y-113274096D01*
X130857275Y-113214486D01*
X130857275Y-113016226D01*
X130899762Y-112888765D01*
X130904109Y-112869650D01*
X130901343Y-112830730D01*
X130883893Y-112795831D01*
X130854417Y-112770266D01*
X130817401Y-112757927D01*
X130778481Y-112760694D01*
X130743582Y-112778143D01*
X130718017Y-112807619D01*
X130710026Y-112825520D01*
X130662407Y-112968376D01*
X130660207Y-112978047D01*
X130659196Y-112980490D01*
X130658847Y-112984028D01*
X130658060Y-112987492D01*
X130658247Y-112990125D01*
X130657275Y-112999999D01*
X130546164Y-112999999D01*
X130546164Y-112047618D01*
X130657275Y-112047618D01*
X130657275Y-112428570D01*
X130659196Y-112448079D01*
X130674128Y-112484127D01*
X130701718Y-112511717D01*
X130737766Y-112526649D01*
X130757275Y-112528570D01*
X131757275Y-112528570D01*
X131776784Y-112526649D01*
X131812832Y-112511717D01*
X131840422Y-112484127D01*
X131855354Y-112448079D01*
X131855354Y-112409061D01*
X131840422Y-112373013D01*
X131812832Y-112345423D01*
X131776784Y-112330491D01*
X131757275Y-112328570D01*
X131381084Y-112328570D01*
X131381084Y-112047618D01*
X131379163Y-112028109D01*
X131377787Y-112024788D01*
X131377533Y-112021205D01*
X131370527Y-112002896D01*
X131357174Y-111976190D01*
X132267219Y-111976190D01*
X132267219Y-112452380D01*
X132269140Y-112471889D01*
X132284072Y-112507937D01*
X132311662Y-112535527D01*
X132347710Y-112550459D01*
X132367219Y-112552380D01*
X133367219Y-112552380D01*
X133386728Y-112550459D01*
X133422776Y-112535527D01*
X133450366Y-112507937D01*
X133465298Y-112471889D01*
X133467219Y-112452380D01*
X133467219Y-111976190D01*
X133465298Y-111956681D01*
X133450366Y-111920633D01*
X133422776Y-111893043D01*
X133386728Y-111878111D01*
X133347710Y-111878111D01*
X133311662Y-111893043D01*
X133284072Y-111920633D01*
X133269140Y-111956681D01*
X133267219Y-111976190D01*
X133267219Y-112352380D01*
X132943409Y-112352380D01*
X132943409Y-112119047D01*
X132941488Y-112099538D01*
X132926556Y-112063490D01*
X132898966Y-112035900D01*
X132862918Y-112020968D01*
X132823900Y-112020968D01*
X132787852Y-112035900D01*
X132760262Y-112063490D01*
X132745330Y-112099538D01*
X132743409Y-112119047D01*
X132743409Y-112352380D01*
X132467219Y-112352380D01*
X132467219Y-111976190D01*
X132465298Y-111956681D01*
X132450366Y-111920633D01*
X132422776Y-111893043D01*
X132386728Y-111878111D01*
X132347710Y-111878111D01*
X132311662Y-111893043D01*
X132284072Y-111920633D01*
X132269140Y-111956681D01*
X132267219Y-111976190D01*
X131357174Y-111976190D01*
X131322908Y-111907659D01*
X131317622Y-111899262D01*
X131316612Y-111896822D01*
X131314358Y-111894076D01*
X131312465Y-111891068D01*
X131310467Y-111889335D01*
X131304175Y-111881669D01*
X131256557Y-111834050D01*
X131248886Y-111827755D01*
X131247157Y-111825761D01*
X131244149Y-111823867D01*
X131241403Y-111821614D01*
X131238963Y-111820603D01*
X131230567Y-111815318D01*
X131135329Y-111767699D01*
X131117021Y-111760693D01*
X131113437Y-111760438D01*
X131110117Y-111759063D01*
X131090608Y-111757142D01*
X130947751Y-111757142D01*
X130928242Y-111759063D01*
X130924921Y-111760438D01*
X130921338Y-111760693D01*
X130903029Y-111767699D01*
X130807792Y-111815318D01*
X130799395Y-111820603D01*
X130796955Y-111821614D01*
X130794209Y-111823867D01*
X130791201Y-111825761D01*
X130789468Y-111827758D01*
X130781802Y-111834051D01*
X130734183Y-111881669D01*
X130727888Y-111889339D01*
X130725894Y-111891069D01*
X130724000Y-111894076D01*
X130721747Y-111896823D01*
X130720736Y-111899262D01*
X130715451Y-111907659D01*
X130667832Y-112002897D01*
X130660826Y-112021205D01*
X130660571Y-112024788D01*
X130659196Y-112028109D01*
X130657275Y-112047618D01*
X130546164Y-112047618D01*
X130546164Y-110952380D01*
X130657275Y-110952380D01*
X130657275Y-111428570D01*
X130659196Y-111448079D01*
X130674128Y-111484127D01*
X130701718Y-111511717D01*
X130737766Y-111526649D01*
X130757275Y-111528570D01*
X131757275Y-111528570D01*
X131776784Y-111526649D01*
X131812832Y-111511717D01*
X131840422Y-111484127D01*
X131855354Y-111448079D01*
X131857275Y-111428570D01*
X131857275Y-111166666D01*
X132267219Y-111166666D01*
X132267219Y-111547618D01*
X132269140Y-111567127D01*
X132284072Y-111603175D01*
X132311662Y-111630765D01*
X132347710Y-111645697D01*
X132367219Y-111647618D01*
X133367219Y-111647618D01*
X133386728Y-111645697D01*
X133422776Y-111630765D01*
X133450366Y-111603175D01*
X133465298Y-111567127D01*
X133465298Y-111528109D01*
X133450366Y-111492061D01*
X133422776Y-111464471D01*
X133386728Y-111449539D01*
X133367219Y-111447618D01*
X132991028Y-111447618D01*
X132991028Y-111361588D01*
X133424565Y-111058113D01*
X133439446Y-111045352D01*
X133460415Y-111012447D01*
X133467196Y-110974022D01*
X133458756Y-110935928D01*
X133436381Y-110903963D01*
X133403476Y-110882994D01*
X133365052Y-110876213D01*
X133326957Y-110884653D01*
X133309873Y-110894267D01*
X132981347Y-111124234D01*
X132980471Y-111121944D01*
X132932852Y-111026707D01*
X132927566Y-111018310D01*
X132926556Y-111015870D01*
X132924302Y-111013124D01*
X132922409Y-111010116D01*
X132920411Y-111008383D01*
X132914119Y-111000717D01*
X132866501Y-110953098D01*
X132858830Y-110946803D01*
X132857101Y-110944809D01*
X132854093Y-110942915D01*
X132851347Y-110940662D01*
X132848907Y-110939651D01*
X132840511Y-110934366D01*
X132745273Y-110886747D01*
X132726965Y-110879741D01*
X132723381Y-110879486D01*
X132720061Y-110878111D01*
X132700552Y-110876190D01*
X132557695Y-110876190D01*
X132538186Y-110878111D01*
X132534865Y-110879486D01*
X132531282Y-110879741D01*
X132512973Y-110886747D01*
X132417736Y-110934366D01*
X132409339Y-110939651D01*
X132406899Y-110940662D01*
X132404153Y-110942915D01*
X132401145Y-110944809D01*
X132399412Y-110946806D01*
X132391746Y-110953099D01*
X132344127Y-111000717D01*
X132337832Y-111008387D01*
X132335838Y-111010117D01*
X132333944Y-111013124D01*
X132331691Y-111015871D01*
X132330680Y-111018310D01*
X132325395Y-111026707D01*
X132277776Y-111121945D01*
X132270770Y-111140253D01*
X132270515Y-111143836D01*
X132269140Y-111147157D01*
X132267219Y-111166666D01*
X131857275Y-111166666D01*
X131857275Y-110952380D01*
X131855354Y-110932871D01*
X131840422Y-110896823D01*
X131812832Y-110869233D01*
X131776784Y-110854301D01*
X131737766Y-110854301D01*
X131701718Y-110869233D01*
X131674128Y-110896823D01*
X131659196Y-110932871D01*
X131657275Y-110952380D01*
X131657275Y-111328570D01*
X131333465Y-111328570D01*
X131333465Y-111095237D01*
X131331544Y-111075728D01*
X131316612Y-111039680D01*
X131289022Y-111012090D01*
X131252974Y-110997158D01*
X131213956Y-110997158D01*
X131177908Y-111012090D01*
X131150318Y-111039680D01*
X131135386Y-111075728D01*
X131133465Y-111095237D01*
X131133465Y-111328570D01*
X130857275Y-111328570D01*
X130857275Y-110952380D01*
X130855354Y-110932871D01*
X130840422Y-110896823D01*
X130812832Y-110869233D01*
X130776784Y-110854301D01*
X130737766Y-110854301D01*
X130701718Y-110869233D01*
X130674128Y-110896823D01*
X130659196Y-110932871D01*
X130657275Y-110952380D01*
X130546164Y-110952380D01*
X130546164Y-110047618D01*
X130657275Y-110047618D01*
X130657275Y-110523808D01*
X130659196Y-110543317D01*
X130674128Y-110579365D01*
X130701718Y-110606955D01*
X130737766Y-110621887D01*
X130757275Y-110623808D01*
X131757275Y-110623808D01*
X131776784Y-110621887D01*
X131812832Y-110606955D01*
X131840422Y-110579365D01*
X131855354Y-110543317D01*
X131857275Y-110523808D01*
X131857275Y-110047618D01*
X131855354Y-110028109D01*
X131840422Y-109992061D01*
X131812832Y-109964471D01*
X131776784Y-109949539D01*
X131737766Y-109949539D01*
X131701718Y-109964471D01*
X131674128Y-109992061D01*
X131659196Y-110028109D01*
X131657275Y-110047618D01*
X131657275Y-110423808D01*
X131333465Y-110423808D01*
X131333465Y-110190475D01*
X131331544Y-110170966D01*
X131316612Y-110134918D01*
X131289022Y-110107328D01*
X131252974Y-110092396D01*
X131213956Y-110092396D01*
X131177908Y-110107328D01*
X131150318Y-110134918D01*
X131135386Y-110170966D01*
X131133465Y-110190475D01*
X131133465Y-110423808D01*
X130857275Y-110423808D01*
X130857275Y-110047618D01*
X130855354Y-110028109D01*
X130840422Y-109992061D01*
X130812832Y-109964471D01*
X130776784Y-109949539D01*
X130737766Y-109949539D01*
X130701718Y-109964471D01*
X130674128Y-109992061D01*
X130659196Y-110028109D01*
X130657275Y-110047618D01*
X130546164Y-110047618D01*
X130546164Y-109380951D01*
X130657275Y-109380951D01*
X130657275Y-109619046D01*
X130659196Y-109638555D01*
X130674128Y-109674603D01*
X130701718Y-109702193D01*
X130737766Y-109717125D01*
X130757275Y-109719046D01*
X131757275Y-109719046D01*
X131776784Y-109717125D01*
X131812832Y-109702193D01*
X131840422Y-109674603D01*
X131855354Y-109638555D01*
X131857275Y-109619046D01*
X131857275Y-109380951D01*
X131856302Y-109371077D01*
X131856490Y-109368443D01*
X131855702Y-109364979D01*
X131855354Y-109361442D01*
X131854342Y-109359000D01*
X131852143Y-109349328D01*
X131804524Y-109206471D01*
X131796533Y-109188571D01*
X131794178Y-109185855D01*
X131792803Y-109182536D01*
X131780367Y-109167383D01*
X131685127Y-109072145D01*
X131677457Y-109065850D01*
X131675728Y-109063856D01*
X131672723Y-109061964D01*
X131669974Y-109059708D01*
X131667530Y-109058695D01*
X131659138Y-109053413D01*
X131563900Y-109005794D01*
X131562473Y-109005248D01*
X131561893Y-109004818D01*
X131553716Y-109001896D01*
X131545592Y-108998788D01*
X131544869Y-108998736D01*
X131543432Y-108998223D01*
X131352957Y-108950604D01*
X131349575Y-108950103D01*
X131348212Y-108949539D01*
X131340861Y-108948815D01*
X131333564Y-108947736D01*
X131332105Y-108947953D01*
X131328703Y-108947618D01*
X131185846Y-108947618D01*
X131182443Y-108947953D01*
X131180985Y-108947736D01*
X131173687Y-108948815D01*
X131166337Y-108949539D01*
X131164973Y-108950103D01*
X131161592Y-108950604D01*
X130971116Y-108998223D01*
X130969677Y-108998736D01*
X130968957Y-108998788D01*
X130960832Y-109001896D01*
X130952656Y-109004818D01*
X130952076Y-109005247D01*
X130950648Y-109005794D01*
X130855411Y-109053413D01*
X130847012Y-109058699D01*
X130844575Y-109059709D01*
X130841831Y-109061960D01*
X130838820Y-109063856D01*
X130837087Y-109065853D01*
X130829421Y-109072145D01*
X130734183Y-109167383D01*
X130721747Y-109182537D01*
X130720372Y-109185855D01*
X130718017Y-109188571D01*
X130710026Y-109206472D01*
X130662407Y-109349328D01*
X130660207Y-109358999D01*
X130659196Y-109361442D01*
X130658847Y-109364980D01*
X130658060Y-109368444D01*
X130658247Y-109371077D01*
X130657275Y-109380951D01*
X130546164Y-109380951D01*
X130546164Y-108836507D01*
X133578330Y-108836507D01*
X133578330Y-122115872D01*
G37*
X132669673Y-129667219D02*
X132669673Y-128667219D01*
X132669673Y-128667219D02*
X133003006Y-129381504D01*
X133003006Y-129381504D02*
X133336339Y-128667219D01*
X133336339Y-128667219D02*
X133336339Y-129667219D01*
X134241101Y-129000552D02*
X134241101Y-129667219D01*
X133812530Y-129000552D02*
X133812530Y-129524361D01*
X133812530Y-129524361D02*
X133860149Y-129619600D01*
X133860149Y-129619600D02*
X133955387Y-129667219D01*
X133955387Y-129667219D02*
X134098244Y-129667219D01*
X134098244Y-129667219D02*
X134193482Y-129619600D01*
X134193482Y-129619600D02*
X134241101Y-129571980D01*
X134717292Y-129667219D02*
X134717292Y-128667219D01*
X135145863Y-129667219D02*
X135145863Y-129143409D01*
X135145863Y-129143409D02*
X135098244Y-129048171D01*
X135098244Y-129048171D02*
X135003006Y-129000552D01*
X135003006Y-129000552D02*
X134860149Y-129000552D01*
X134860149Y-129000552D02*
X134764911Y-129048171D01*
X134764911Y-129048171D02*
X134717292Y-129095790D01*
X136050625Y-129667219D02*
X136050625Y-129143409D01*
X136050625Y-129143409D02*
X136003006Y-129048171D01*
X136003006Y-129048171D02*
X135907768Y-129000552D01*
X135907768Y-129000552D02*
X135717292Y-129000552D01*
X135717292Y-129000552D02*
X135622054Y-129048171D01*
X136050625Y-129619600D02*
X135955387Y-129667219D01*
X135955387Y-129667219D02*
X135717292Y-129667219D01*
X135717292Y-129667219D02*
X135622054Y-129619600D01*
X135622054Y-129619600D02*
X135574435Y-129524361D01*
X135574435Y-129524361D02*
X135574435Y-129429123D01*
X135574435Y-129429123D02*
X135622054Y-129333885D01*
X135622054Y-129333885D02*
X135717292Y-129286266D01*
X135717292Y-129286266D02*
X135955387Y-129286266D01*
X135955387Y-129286266D02*
X136050625Y-129238647D01*
X136526816Y-129667219D02*
X136526816Y-129000552D01*
X136526816Y-129095790D02*
X136574435Y-129048171D01*
X136574435Y-129048171D02*
X136669673Y-129000552D01*
X136669673Y-129000552D02*
X136812530Y-129000552D01*
X136812530Y-129000552D02*
X136907768Y-129048171D01*
X136907768Y-129048171D02*
X136955387Y-129143409D01*
X136955387Y-129143409D02*
X136955387Y-129667219D01*
X136955387Y-129143409D02*
X137003006Y-129048171D01*
X137003006Y-129048171D02*
X137098244Y-129000552D01*
X137098244Y-129000552D02*
X137241101Y-129000552D01*
X137241101Y-129000552D02*
X137336340Y-129048171D01*
X137336340Y-129048171D02*
X137383959Y-129143409D01*
X137383959Y-129143409D02*
X137383959Y-129667219D01*
X137860149Y-129667219D02*
X137860149Y-129000552D01*
X137860149Y-129095790D02*
X137907768Y-129048171D01*
X137907768Y-129048171D02*
X138003006Y-129000552D01*
X138003006Y-129000552D02*
X138145863Y-129000552D01*
X138145863Y-129000552D02*
X138241101Y-129048171D01*
X138241101Y-129048171D02*
X138288720Y-129143409D01*
X138288720Y-129143409D02*
X138288720Y-129667219D01*
X138288720Y-129143409D02*
X138336339Y-129048171D01*
X138336339Y-129048171D02*
X138431577Y-129000552D01*
X138431577Y-129000552D02*
X138574434Y-129000552D01*
X138574434Y-129000552D02*
X138669673Y-129048171D01*
X138669673Y-129048171D02*
X138717292Y-129143409D01*
X138717292Y-129143409D02*
X138717292Y-129667219D01*
X139622053Y-129667219D02*
X139622053Y-129143409D01*
X139622053Y-129143409D02*
X139574434Y-129048171D01*
X139574434Y-129048171D02*
X139479196Y-129000552D01*
X139479196Y-129000552D02*
X139288720Y-129000552D01*
X139288720Y-129000552D02*
X139193482Y-129048171D01*
X139622053Y-129619600D02*
X139526815Y-129667219D01*
X139526815Y-129667219D02*
X139288720Y-129667219D01*
X139288720Y-129667219D02*
X139193482Y-129619600D01*
X139193482Y-129619600D02*
X139145863Y-129524361D01*
X139145863Y-129524361D02*
X139145863Y-129429123D01*
X139145863Y-129429123D02*
X139193482Y-129333885D01*
X139193482Y-129333885D02*
X139288720Y-129286266D01*
X139288720Y-129286266D02*
X139526815Y-129286266D01*
X139526815Y-129286266D02*
X139622053Y-129238647D01*
X140526815Y-129667219D02*
X140526815Y-128667219D01*
X140526815Y-129619600D02*
X140431577Y-129667219D01*
X140431577Y-129667219D02*
X140241101Y-129667219D01*
X140241101Y-129667219D02*
X140145863Y-129619600D01*
X140145863Y-129619600D02*
X140098244Y-129571980D01*
X140098244Y-129571980D02*
X140050625Y-129476742D01*
X140050625Y-129476742D02*
X140050625Y-129191028D01*
X140050625Y-129191028D02*
X140098244Y-129095790D01*
X140098244Y-129095790D02*
X140145863Y-129048171D01*
X140145863Y-129048171D02*
X140241101Y-129000552D01*
X140241101Y-129000552D02*
X140431577Y-129000552D01*
X140431577Y-129000552D02*
X140526815Y-129048171D01*
X141764911Y-129667219D02*
X141764911Y-128667219D01*
X141764911Y-129143409D02*
X142336339Y-129143409D01*
X142336339Y-129667219D02*
X142336339Y-128667219D01*
X143241101Y-129667219D02*
X143241101Y-129143409D01*
X143241101Y-129143409D02*
X143193482Y-129048171D01*
X143193482Y-129048171D02*
X143098244Y-129000552D01*
X143098244Y-129000552D02*
X142907768Y-129000552D01*
X142907768Y-129000552D02*
X142812530Y-129048171D01*
X143241101Y-129619600D02*
X143145863Y-129667219D01*
X143145863Y-129667219D02*
X142907768Y-129667219D01*
X142907768Y-129667219D02*
X142812530Y-129619600D01*
X142812530Y-129619600D02*
X142764911Y-129524361D01*
X142764911Y-129524361D02*
X142764911Y-129429123D01*
X142764911Y-129429123D02*
X142812530Y-129333885D01*
X142812530Y-129333885D02*
X142907768Y-129286266D01*
X142907768Y-129286266D02*
X143145863Y-129286266D01*
X143145863Y-129286266D02*
X143241101Y-129238647D01*
X143717292Y-129667219D02*
X143717292Y-129000552D01*
X143717292Y-129095790D02*
X143764911Y-129048171D01*
X143764911Y-129048171D02*
X143860149Y-129000552D01*
X143860149Y-129000552D02*
X144003006Y-129000552D01*
X144003006Y-129000552D02*
X144098244Y-129048171D01*
X144098244Y-129048171D02*
X144145863Y-129143409D01*
X144145863Y-129143409D02*
X144145863Y-129667219D01*
X144145863Y-129143409D02*
X144193482Y-129048171D01*
X144193482Y-129048171D02*
X144288720Y-129000552D01*
X144288720Y-129000552D02*
X144431577Y-129000552D01*
X144431577Y-129000552D02*
X144526816Y-129048171D01*
X144526816Y-129048171D02*
X144574435Y-129143409D01*
X144574435Y-129143409D02*
X144574435Y-129667219D01*
X145050625Y-129667219D02*
X145050625Y-129000552D01*
X145050625Y-129095790D02*
X145098244Y-129048171D01*
X145098244Y-129048171D02*
X145193482Y-129000552D01*
X145193482Y-129000552D02*
X145336339Y-129000552D01*
X145336339Y-129000552D02*
X145431577Y-129048171D01*
X145431577Y-129048171D02*
X145479196Y-129143409D01*
X145479196Y-129143409D02*
X145479196Y-129667219D01*
X145479196Y-129143409D02*
X145526815Y-129048171D01*
X145526815Y-129048171D02*
X145622053Y-129000552D01*
X145622053Y-129000552D02*
X145764910Y-129000552D01*
X145764910Y-129000552D02*
X145860149Y-129048171D01*
X145860149Y-129048171D02*
X145907768Y-129143409D01*
X145907768Y-129143409D02*
X145907768Y-129667219D01*
X146812529Y-129667219D02*
X146812529Y-129143409D01*
X146812529Y-129143409D02*
X146764910Y-129048171D01*
X146764910Y-129048171D02*
X146669672Y-129000552D01*
X146669672Y-129000552D02*
X146479196Y-129000552D01*
X146479196Y-129000552D02*
X146383958Y-129048171D01*
X146812529Y-129619600D02*
X146717291Y-129667219D01*
X146717291Y-129667219D02*
X146479196Y-129667219D01*
X146479196Y-129667219D02*
X146383958Y-129619600D01*
X146383958Y-129619600D02*
X146336339Y-129524361D01*
X146336339Y-129524361D02*
X146336339Y-129429123D01*
X146336339Y-129429123D02*
X146383958Y-129333885D01*
X146383958Y-129333885D02*
X146479196Y-129286266D01*
X146479196Y-129286266D02*
X146717291Y-129286266D01*
X146717291Y-129286266D02*
X146812529Y-129238647D01*
X147717291Y-129667219D02*
X147717291Y-128667219D01*
X147717291Y-129619600D02*
X147622053Y-129667219D01*
X147622053Y-129667219D02*
X147431577Y-129667219D01*
X147431577Y-129667219D02*
X147336339Y-129619600D01*
X147336339Y-129619600D02*
X147288720Y-129571980D01*
X147288720Y-129571980D02*
X147241101Y-129476742D01*
X147241101Y-129476742D02*
X147241101Y-129191028D01*
X147241101Y-129191028D02*
X147288720Y-129095790D01*
X147288720Y-129095790D02*
X147336339Y-129048171D01*
X147336339Y-129048171D02*
X147431577Y-129000552D01*
X147431577Y-129000552D02*
X147622053Y-129000552D01*
X147622053Y-129000552D02*
X147717291Y-129048171D01*
X149383958Y-129000552D02*
X149383958Y-129667219D01*
X148955387Y-129000552D02*
X148955387Y-129524361D01*
X148955387Y-129524361D02*
X149003006Y-129619600D01*
X149003006Y-129619600D02*
X149098244Y-129667219D01*
X149098244Y-129667219D02*
X149241101Y-129667219D01*
X149241101Y-129667219D02*
X149336339Y-129619600D01*
X149336339Y-129619600D02*
X149383958Y-129571980D01*
X149860149Y-129667219D02*
X149860149Y-129000552D01*
X149860149Y-129191028D02*
X149907768Y-129095790D01*
X149907768Y-129095790D02*
X149955387Y-129048171D01*
X149955387Y-129048171D02*
X150050625Y-129000552D01*
X150050625Y-129000552D02*
X150145863Y-129000552D01*
X151812530Y-129667219D02*
X151479197Y-129191028D01*
X151241102Y-129667219D02*
X151241102Y-128667219D01*
X151241102Y-128667219D02*
X151622054Y-128667219D01*
X151622054Y-128667219D02*
X151717292Y-128714838D01*
X151717292Y-128714838D02*
X151764911Y-128762457D01*
X151764911Y-128762457D02*
X151812530Y-128857695D01*
X151812530Y-128857695D02*
X151812530Y-129000552D01*
X151812530Y-129000552D02*
X151764911Y-129095790D01*
X151764911Y-129095790D02*
X151717292Y-129143409D01*
X151717292Y-129143409D02*
X151622054Y-129191028D01*
X151622054Y-129191028D02*
X151241102Y-129191028D01*
X152622054Y-129619600D02*
X152526816Y-129667219D01*
X152526816Y-129667219D02*
X152336340Y-129667219D01*
X152336340Y-129667219D02*
X152241102Y-129619600D01*
X152241102Y-129619600D02*
X152193483Y-129524361D01*
X152193483Y-129524361D02*
X152193483Y-129143409D01*
X152193483Y-129143409D02*
X152241102Y-129048171D01*
X152241102Y-129048171D02*
X152336340Y-129000552D01*
X152336340Y-129000552D02*
X152526816Y-129000552D01*
X152526816Y-129000552D02*
X152622054Y-129048171D01*
X152622054Y-129048171D02*
X152669673Y-129143409D01*
X152669673Y-129143409D02*
X152669673Y-129238647D01*
X152669673Y-129238647D02*
X152193483Y-129333885D01*
X153098245Y-129667219D02*
X153098245Y-128667219D01*
X153526816Y-129667219D02*
X153526816Y-129143409D01*
X153526816Y-129143409D02*
X153479197Y-129048171D01*
X153479197Y-129048171D02*
X153383959Y-129000552D01*
X153383959Y-129000552D02*
X153241102Y-129000552D01*
X153241102Y-129000552D02*
X153145864Y-129048171D01*
X153145864Y-129048171D02*
X153098245Y-129095790D01*
X154003007Y-129667219D02*
X154003007Y-129000552D01*
X154003007Y-129095790D02*
X154050626Y-129048171D01*
X154050626Y-129048171D02*
X154145864Y-129000552D01*
X154145864Y-129000552D02*
X154288721Y-129000552D01*
X154288721Y-129000552D02*
X154383959Y-129048171D01*
X154383959Y-129048171D02*
X154431578Y-129143409D01*
X154431578Y-129143409D02*
X154431578Y-129667219D01*
X154431578Y-129143409D02*
X154479197Y-129048171D01*
X154479197Y-129048171D02*
X154574435Y-129000552D01*
X154574435Y-129000552D02*
X154717292Y-129000552D01*
X154717292Y-129000552D02*
X154812531Y-129048171D01*
X154812531Y-129048171D02*
X154860150Y-129143409D01*
X154860150Y-129143409D02*
X154860150Y-129667219D01*
X155764911Y-129667219D02*
X155764911Y-129143409D01*
X155764911Y-129143409D02*
X155717292Y-129048171D01*
X155717292Y-129048171D02*
X155622054Y-129000552D01*
X155622054Y-129000552D02*
X155431578Y-129000552D01*
X155431578Y-129000552D02*
X155336340Y-129048171D01*
X155764911Y-129619600D02*
X155669673Y-129667219D01*
X155669673Y-129667219D02*
X155431578Y-129667219D01*
X155431578Y-129667219D02*
X155336340Y-129619600D01*
X155336340Y-129619600D02*
X155288721Y-129524361D01*
X155288721Y-129524361D02*
X155288721Y-129429123D01*
X155288721Y-129429123D02*
X155336340Y-129333885D01*
X155336340Y-129333885D02*
X155431578Y-129286266D01*
X155431578Y-129286266D02*
X155669673Y-129286266D01*
X155669673Y-129286266D02*
X155764911Y-129238647D01*
X156241102Y-129000552D02*
X156241102Y-129667219D01*
X156241102Y-129095790D02*
X156288721Y-129048171D01*
X156288721Y-129048171D02*
X156383959Y-129000552D01*
X156383959Y-129000552D02*
X156526816Y-129000552D01*
X156526816Y-129000552D02*
X156622054Y-129048171D01*
X156622054Y-129048171D02*
X156669673Y-129143409D01*
X156669673Y-129143409D02*
X156669673Y-129667219D01*
D11*
X138554819Y-113366666D02*
X138078628Y-113699999D01*
X138554819Y-113938094D02*
X137554819Y-113938094D01*
X137554819Y-113938094D02*
X137554819Y-113557142D01*
X137554819Y-113557142D02*
X137602438Y-113461904D01*
X137602438Y-113461904D02*
X137650057Y-113414285D01*
X137650057Y-113414285D02*
X137745295Y-113366666D01*
X137745295Y-113366666D02*
X137888152Y-113366666D01*
X137888152Y-113366666D02*
X137983390Y-113414285D01*
X137983390Y-113414285D02*
X138031009Y-113461904D01*
X138031009Y-113461904D02*
X138078628Y-113557142D01*
X138078628Y-113557142D02*
X138078628Y-113938094D01*
X138554819Y-112414285D02*
X138554819Y-112985713D01*
X138554819Y-112699999D02*
X137554819Y-112699999D01*
X137554819Y-112699999D02*
X137697676Y-112795237D01*
X137697676Y-112795237D02*
X137792914Y-112890475D01*
X137792914Y-112890475D02*
X137840533Y-112985713D01*
X143154819Y-113438094D02*
X142154819Y-113438094D01*
X142154819Y-113438094D02*
X142154819Y-113199999D01*
X142154819Y-113199999D02*
X142202438Y-113057142D01*
X142202438Y-113057142D02*
X142297676Y-112961904D01*
X142297676Y-112961904D02*
X142392914Y-112914285D01*
X142392914Y-112914285D02*
X142583390Y-112866666D01*
X142583390Y-112866666D02*
X142726247Y-112866666D01*
X142726247Y-112866666D02*
X142916723Y-112914285D01*
X142916723Y-112914285D02*
X143011961Y-112961904D01*
X143011961Y-112961904D02*
X143107200Y-113057142D01*
X143107200Y-113057142D02*
X143154819Y-113199999D01*
X143154819Y-113199999D02*
X143154819Y-113438094D01*
X142250057Y-112485713D02*
X142202438Y-112438094D01*
X142202438Y-112438094D02*
X142154819Y-112342856D01*
X142154819Y-112342856D02*
X142154819Y-112104761D01*
X142154819Y-112104761D02*
X142202438Y-112009523D01*
X142202438Y-112009523D02*
X142250057Y-111961904D01*
X142250057Y-111961904D02*
X142345295Y-111914285D01*
X142345295Y-111914285D02*
X142440533Y-111914285D01*
X142440533Y-111914285D02*
X142583390Y-111961904D01*
X142583390Y-111961904D02*
X143154819Y-112533332D01*
X143154819Y-112533332D02*
X143154819Y-111914285D01*
X145854819Y-115451904D02*
X144854819Y-115451904D01*
X145854819Y-114880476D02*
X145283390Y-115309047D01*
X144854819Y-114880476D02*
X145426247Y-115451904D01*
X170759580Y-128566666D02*
X170807200Y-128614285D01*
X170807200Y-128614285D02*
X170854819Y-128757142D01*
X170854819Y-128757142D02*
X170854819Y-128852380D01*
X170854819Y-128852380D02*
X170807200Y-128995237D01*
X170807200Y-128995237D02*
X170711961Y-129090475D01*
X170711961Y-129090475D02*
X170616723Y-129138094D01*
X170616723Y-129138094D02*
X170426247Y-129185713D01*
X170426247Y-129185713D02*
X170283390Y-129185713D01*
X170283390Y-129185713D02*
X170092914Y-129138094D01*
X170092914Y-129138094D02*
X169997676Y-129090475D01*
X169997676Y-129090475D02*
X169902438Y-128995237D01*
X169902438Y-128995237D02*
X169854819Y-128852380D01*
X169854819Y-128852380D02*
X169854819Y-128757142D01*
X169854819Y-128757142D02*
X169902438Y-128614285D01*
X169902438Y-128614285D02*
X169950057Y-128566666D01*
X169950057Y-128185713D02*
X169902438Y-128138094D01*
X169902438Y-128138094D02*
X169854819Y-128042856D01*
X169854819Y-128042856D02*
X169854819Y-127804761D01*
X169854819Y-127804761D02*
X169902438Y-127709523D01*
X169902438Y-127709523D02*
X169950057Y-127661904D01*
X169950057Y-127661904D02*
X170045295Y-127614285D01*
X170045295Y-127614285D02*
X170140533Y-127614285D01*
X170140533Y-127614285D02*
X170283390Y-127661904D01*
X170283390Y-127661904D02*
X170854819Y-128233332D01*
X170854819Y-128233332D02*
X170854819Y-127614285D01*
X167854819Y-117038094D02*
X166854819Y-117038094D01*
X166854819Y-117038094D02*
X166854819Y-116799999D01*
X166854819Y-116799999D02*
X166902438Y-116657142D01*
X166902438Y-116657142D02*
X166997676Y-116561904D01*
X166997676Y-116561904D02*
X167092914Y-116514285D01*
X167092914Y-116514285D02*
X167283390Y-116466666D01*
X167283390Y-116466666D02*
X167426247Y-116466666D01*
X167426247Y-116466666D02*
X167616723Y-116514285D01*
X167616723Y-116514285D02*
X167711961Y-116561904D01*
X167711961Y-116561904D02*
X167807200Y-116657142D01*
X167807200Y-116657142D02*
X167854819Y-116799999D01*
X167854819Y-116799999D02*
X167854819Y-117038094D01*
X167854819Y-115514285D02*
X167854819Y-116085713D01*
X167854819Y-115799999D02*
X166854819Y-115799999D01*
X166854819Y-115799999D02*
X166997676Y-115895237D01*
X166997676Y-115895237D02*
X167092914Y-115990475D01*
X167092914Y-115990475D02*
X167140533Y-116085713D01*
X172554819Y-109481904D02*
X171554819Y-109481904D01*
X172554819Y-108910476D02*
X171983390Y-109339047D01*
X171554819Y-108910476D02*
X172126247Y-109481904D01*
X144354819Y-107195238D02*
X143878628Y-107528571D01*
X144354819Y-107766666D02*
X143354819Y-107766666D01*
X143354819Y-107766666D02*
X143354819Y-107385714D01*
X143354819Y-107385714D02*
X143402438Y-107290476D01*
X143402438Y-107290476D02*
X143450057Y-107242857D01*
X143450057Y-107242857D02*
X143545295Y-107195238D01*
X143545295Y-107195238D02*
X143688152Y-107195238D01*
X143688152Y-107195238D02*
X143783390Y-107242857D01*
X143783390Y-107242857D02*
X143831009Y-107290476D01*
X143831009Y-107290476D02*
X143878628Y-107385714D01*
X143878628Y-107385714D02*
X143878628Y-107766666D01*
X143354819Y-106909523D02*
X144354819Y-106576190D01*
X144354819Y-106576190D02*
X143354819Y-106242857D01*
X144354819Y-105385714D02*
X144354819Y-105957142D01*
X144354819Y-105671428D02*
X143354819Y-105671428D01*
X143354819Y-105671428D02*
X143497676Y-105766666D01*
X143497676Y-105766666D02*
X143592914Y-105861904D01*
X143592914Y-105861904D02*
X143640533Y-105957142D01*
X163638095Y-112014819D02*
X163638095Y-112824342D01*
X163638095Y-112824342D02*
X163685714Y-112919580D01*
X163685714Y-112919580D02*
X163733333Y-112967200D01*
X163733333Y-112967200D02*
X163828571Y-113014819D01*
X163828571Y-113014819D02*
X164019047Y-113014819D01*
X164019047Y-113014819D02*
X164114285Y-112967200D01*
X164114285Y-112967200D02*
X164161904Y-112919580D01*
X164161904Y-112919580D02*
X164209523Y-112824342D01*
X164209523Y-112824342D02*
X164209523Y-112014819D01*
X165209523Y-113014819D02*
X164638095Y-113014819D01*
X164923809Y-113014819D02*
X164923809Y-112014819D01*
X164923809Y-112014819D02*
X164828571Y-112157676D01*
X164828571Y-112157676D02*
X164733333Y-112252914D01*
X164733333Y-112252914D02*
X164638095Y-112300533D01*
X165650057Y-105595238D02*
X165602438Y-105690476D01*
X165602438Y-105690476D02*
X165507200Y-105785714D01*
X165507200Y-105785714D02*
X165364342Y-105928571D01*
X165364342Y-105928571D02*
X165316723Y-106023809D01*
X165316723Y-106023809D02*
X165316723Y-106119047D01*
X165554819Y-106071428D02*
X165507200Y-106166666D01*
X165507200Y-106166666D02*
X165411961Y-106261904D01*
X165411961Y-106261904D02*
X165221485Y-106309523D01*
X165221485Y-106309523D02*
X164888152Y-106309523D01*
X164888152Y-106309523D02*
X164697676Y-106261904D01*
X164697676Y-106261904D02*
X164602438Y-106166666D01*
X164602438Y-106166666D02*
X164554819Y-106071428D01*
X164554819Y-106071428D02*
X164554819Y-105880952D01*
X164554819Y-105880952D02*
X164602438Y-105785714D01*
X164602438Y-105785714D02*
X164697676Y-105690476D01*
X164697676Y-105690476D02*
X164888152Y-105642857D01*
X164888152Y-105642857D02*
X165221485Y-105642857D01*
X165221485Y-105642857D02*
X165411961Y-105690476D01*
X165411961Y-105690476D02*
X165507200Y-105785714D01*
X165507200Y-105785714D02*
X165554819Y-105880952D01*
X165554819Y-105880952D02*
X165554819Y-106071428D01*
X165554819Y-104690476D02*
X165554819Y-105261904D01*
X165554819Y-104976190D02*
X164554819Y-104976190D01*
X164554819Y-104976190D02*
X164697676Y-105071428D01*
X164697676Y-105071428D02*
X164792914Y-105166666D01*
X164792914Y-105166666D02*
X164840533Y-105261904D01*
X153254819Y-124966666D02*
X152778628Y-125299999D01*
X153254819Y-125538094D02*
X152254819Y-125538094D01*
X152254819Y-125538094D02*
X152254819Y-125157142D01*
X152254819Y-125157142D02*
X152302438Y-125061904D01*
X152302438Y-125061904D02*
X152350057Y-125014285D01*
X152350057Y-125014285D02*
X152445295Y-124966666D01*
X152445295Y-124966666D02*
X152588152Y-124966666D01*
X152588152Y-124966666D02*
X152683390Y-125014285D01*
X152683390Y-125014285D02*
X152731009Y-125061904D01*
X152731009Y-125061904D02*
X152778628Y-125157142D01*
X152778628Y-125157142D02*
X152778628Y-125538094D01*
X152350057Y-124585713D02*
X152302438Y-124538094D01*
X152302438Y-124538094D02*
X152254819Y-124442856D01*
X152254819Y-124442856D02*
X152254819Y-124204761D01*
X152254819Y-124204761D02*
X152302438Y-124109523D01*
X152302438Y-124109523D02*
X152350057Y-124061904D01*
X152350057Y-124061904D02*
X152445295Y-124014285D01*
X152445295Y-124014285D02*
X152540533Y-124014285D01*
X152540533Y-124014285D02*
X152683390Y-124061904D01*
X152683390Y-124061904D02*
X153254819Y-124633332D01*
X153254819Y-124633332D02*
X153254819Y-124014285D01*
X174566666Y-109954819D02*
X174566666Y-110669104D01*
X174566666Y-110669104D02*
X174519047Y-110811961D01*
X174519047Y-110811961D02*
X174423809Y-110907200D01*
X174423809Y-110907200D02*
X174280952Y-110954819D01*
X174280952Y-110954819D02*
X174185714Y-110954819D01*
X175566666Y-110954819D02*
X174995238Y-110954819D01*
X175280952Y-110954819D02*
X175280952Y-109954819D01*
X175280952Y-109954819D02*
X175185714Y-110097676D01*
X175185714Y-110097676D02*
X175090476Y-110192914D01*
X175090476Y-110192914D02*
X174995238Y-110240533D01*
X130859580Y-102866666D02*
X130907200Y-102914285D01*
X130907200Y-102914285D02*
X130954819Y-103057142D01*
X130954819Y-103057142D02*
X130954819Y-103152380D01*
X130954819Y-103152380D02*
X130907200Y-103295237D01*
X130907200Y-103295237D02*
X130811961Y-103390475D01*
X130811961Y-103390475D02*
X130716723Y-103438094D01*
X130716723Y-103438094D02*
X130526247Y-103485713D01*
X130526247Y-103485713D02*
X130383390Y-103485713D01*
X130383390Y-103485713D02*
X130192914Y-103438094D01*
X130192914Y-103438094D02*
X130097676Y-103390475D01*
X130097676Y-103390475D02*
X130002438Y-103295237D01*
X130002438Y-103295237D02*
X129954819Y-103152380D01*
X129954819Y-103152380D02*
X129954819Y-103057142D01*
X129954819Y-103057142D02*
X130002438Y-102914285D01*
X130002438Y-102914285D02*
X130050057Y-102866666D01*
X129954819Y-102533332D02*
X129954819Y-101914285D01*
X129954819Y-101914285D02*
X130335771Y-102247618D01*
X130335771Y-102247618D02*
X130335771Y-102104761D01*
X130335771Y-102104761D02*
X130383390Y-102009523D01*
X130383390Y-102009523D02*
X130431009Y-101961904D01*
X130431009Y-101961904D02*
X130526247Y-101914285D01*
X130526247Y-101914285D02*
X130764342Y-101914285D01*
X130764342Y-101914285D02*
X130859580Y-101961904D01*
X130859580Y-101961904D02*
X130907200Y-102009523D01*
X130907200Y-102009523D02*
X130954819Y-102104761D01*
X130954819Y-102104761D02*
X130954819Y-102390475D01*
X130954819Y-102390475D02*
X130907200Y-102485713D01*
X130907200Y-102485713D02*
X130859580Y-102533332D01*
X148154819Y-113338094D02*
X147154819Y-113338094D01*
X147154819Y-113338094D02*
X147154819Y-113099999D01*
X147154819Y-113099999D02*
X147202438Y-112957142D01*
X147202438Y-112957142D02*
X147297676Y-112861904D01*
X147297676Y-112861904D02*
X147392914Y-112814285D01*
X147392914Y-112814285D02*
X147583390Y-112766666D01*
X147583390Y-112766666D02*
X147726247Y-112766666D01*
X147726247Y-112766666D02*
X147916723Y-112814285D01*
X147916723Y-112814285D02*
X148011961Y-112861904D01*
X148011961Y-112861904D02*
X148107200Y-112957142D01*
X148107200Y-112957142D02*
X148154819Y-113099999D01*
X148154819Y-113099999D02*
X148154819Y-113338094D01*
X147154819Y-112433332D02*
X147154819Y-111814285D01*
X147154819Y-111814285D02*
X147535771Y-112147618D01*
X147535771Y-112147618D02*
X147535771Y-112004761D01*
X147535771Y-112004761D02*
X147583390Y-111909523D01*
X147583390Y-111909523D02*
X147631009Y-111861904D01*
X147631009Y-111861904D02*
X147726247Y-111814285D01*
X147726247Y-111814285D02*
X147964342Y-111814285D01*
X147964342Y-111814285D02*
X148059580Y-111861904D01*
X148059580Y-111861904D02*
X148107200Y-111909523D01*
X148107200Y-111909523D02*
X148154819Y-112004761D01*
X148154819Y-112004761D02*
X148154819Y-112290475D01*
X148154819Y-112290475D02*
X148107200Y-112385713D01*
X148107200Y-112385713D02*
X148059580Y-112433332D01*
X146854819Y-125611904D02*
X145854819Y-125611904D01*
X146854819Y-125040476D02*
X146283390Y-125469047D01*
X145854819Y-125040476D02*
X146426247Y-125611904D01*
X135554819Y-113266666D02*
X135078628Y-113599999D01*
X135554819Y-113838094D02*
X134554819Y-113838094D01*
X134554819Y-113838094D02*
X134554819Y-113457142D01*
X134554819Y-113457142D02*
X134602438Y-113361904D01*
X134602438Y-113361904D02*
X134650057Y-113314285D01*
X134650057Y-113314285D02*
X134745295Y-113266666D01*
X134745295Y-113266666D02*
X134888152Y-113266666D01*
X134888152Y-113266666D02*
X134983390Y-113314285D01*
X134983390Y-113314285D02*
X135031009Y-113361904D01*
X135031009Y-113361904D02*
X135078628Y-113457142D01*
X135078628Y-113457142D02*
X135078628Y-113838094D01*
X134554819Y-112933332D02*
X134554819Y-112314285D01*
X134554819Y-112314285D02*
X134935771Y-112647618D01*
X134935771Y-112647618D02*
X134935771Y-112504761D01*
X134935771Y-112504761D02*
X134983390Y-112409523D01*
X134983390Y-112409523D02*
X135031009Y-112361904D01*
X135031009Y-112361904D02*
X135126247Y-112314285D01*
X135126247Y-112314285D02*
X135364342Y-112314285D01*
X135364342Y-112314285D02*
X135459580Y-112361904D01*
X135459580Y-112361904D02*
X135507200Y-112409523D01*
X135507200Y-112409523D02*
X135554819Y-112504761D01*
X135554819Y-112504761D02*
X135554819Y-112790475D01*
X135554819Y-112790475D02*
X135507200Y-112885713D01*
X135507200Y-112885713D02*
X135459580Y-112933332D01*
X162733333Y-126359580D02*
X162685714Y-126407200D01*
X162685714Y-126407200D02*
X162542857Y-126454819D01*
X162542857Y-126454819D02*
X162447619Y-126454819D01*
X162447619Y-126454819D02*
X162304762Y-126407200D01*
X162304762Y-126407200D02*
X162209524Y-126311961D01*
X162209524Y-126311961D02*
X162161905Y-126216723D01*
X162161905Y-126216723D02*
X162114286Y-126026247D01*
X162114286Y-126026247D02*
X162114286Y-125883390D01*
X162114286Y-125883390D02*
X162161905Y-125692914D01*
X162161905Y-125692914D02*
X162209524Y-125597676D01*
X162209524Y-125597676D02*
X162304762Y-125502438D01*
X162304762Y-125502438D02*
X162447619Y-125454819D01*
X162447619Y-125454819D02*
X162542857Y-125454819D01*
X162542857Y-125454819D02*
X162685714Y-125502438D01*
X162685714Y-125502438D02*
X162733333Y-125550057D01*
X163685714Y-126454819D02*
X163114286Y-126454819D01*
X163400000Y-126454819D02*
X163400000Y-125454819D01*
X163400000Y-125454819D02*
X163304762Y-125597676D01*
X163304762Y-125597676D02*
X163209524Y-125692914D01*
X163209524Y-125692914D02*
X163114286Y-125740533D01*
X125454819Y-110833333D02*
X126169104Y-110833333D01*
X126169104Y-110833333D02*
X126311961Y-110880952D01*
X126311961Y-110880952D02*
X126407200Y-110976190D01*
X126407200Y-110976190D02*
X126454819Y-111119047D01*
X126454819Y-111119047D02*
X126454819Y-111214285D01*
X125550057Y-110404761D02*
X125502438Y-110357142D01*
X125502438Y-110357142D02*
X125454819Y-110261904D01*
X125454819Y-110261904D02*
X125454819Y-110023809D01*
X125454819Y-110023809D02*
X125502438Y-109928571D01*
X125502438Y-109928571D02*
X125550057Y-109880952D01*
X125550057Y-109880952D02*
X125645295Y-109833333D01*
X125645295Y-109833333D02*
X125740533Y-109833333D01*
X125740533Y-109833333D02*
X125883390Y-109880952D01*
X125883390Y-109880952D02*
X126454819Y-110452380D01*
X126454819Y-110452380D02*
X126454819Y-109833333D01*
X133961905Y-125854819D02*
X133961905Y-124854819D01*
X133961905Y-124854819D02*
X134200000Y-124854819D01*
X134200000Y-124854819D02*
X134342857Y-124902438D01*
X134342857Y-124902438D02*
X134438095Y-124997676D01*
X134438095Y-124997676D02*
X134485714Y-125092914D01*
X134485714Y-125092914D02*
X134533333Y-125283390D01*
X134533333Y-125283390D02*
X134533333Y-125426247D01*
X134533333Y-125426247D02*
X134485714Y-125616723D01*
X134485714Y-125616723D02*
X134438095Y-125711961D01*
X134438095Y-125711961D02*
X134342857Y-125807200D01*
X134342857Y-125807200D02*
X134200000Y-125854819D01*
X134200000Y-125854819D02*
X133961905Y-125854819D01*
X135390476Y-125188152D02*
X135390476Y-125854819D01*
X135152381Y-124807200D02*
X134914286Y-125521485D01*
X134914286Y-125521485D02*
X135533333Y-125521485D01*
D12*
X137480000Y-117190000D02*
X137480000Y-121030000D01*
X137480000Y-121030000D02*
X139320000Y-121030000D01*
X138400000Y-116240000D02*
X138400000Y-117190000D01*
X138400000Y-121980000D02*
X138400000Y-121030000D01*
X139320000Y-117190000D02*
X137480000Y-117190000D01*
X139320000Y-121030000D02*
X139320000Y-117190000D01*
X141830000Y-117550000D02*
X141830000Y-122990000D01*
X141830000Y-122990000D02*
X144770000Y-122990000D01*
X143300000Y-116530000D02*
X143300000Y-117550000D01*
X143300000Y-124010000D02*
X143300000Y-122990000D01*
X144770000Y-117550000D02*
X141830000Y-117550000D01*
X144770000Y-118330000D02*
X141830000Y-118330000D01*
X144770000Y-118450000D02*
X141830000Y-118450000D01*
X144770000Y-118570000D02*
X141830000Y-118570000D01*
X144770000Y-122990000D02*
X144770000Y-117550000D01*
X166530000Y-123850000D02*
X166530000Y-128790000D01*
X166860000Y-123850000D02*
X166530000Y-123850000D01*
X166860000Y-128790000D02*
X166530000Y-128790000D01*
X169270000Y-123850000D02*
X168940000Y-123850000D01*
X169270000Y-123850000D02*
X169270000Y-128790000D01*
X169270000Y-128790000D02*
X168940000Y-128790000D01*
X168530000Y-111580000D02*
X168530000Y-117020000D01*
X168530000Y-117020000D02*
X171470000Y-117020000D01*
X170000000Y-110560000D02*
X170000000Y-111580000D01*
X170000000Y-118040000D02*
X170000000Y-117020000D01*
X171470000Y-111580000D02*
X168530000Y-111580000D01*
X171470000Y-112360000D02*
X168530000Y-112360000D01*
X171470000Y-112480000D02*
X168530000Y-112480000D01*
X171470000Y-112600000D02*
X168530000Y-112600000D01*
X171470000Y-117020000D02*
X171470000Y-111580000D01*
X144930000Y-100680000D02*
X163070000Y-100680000D01*
X144930000Y-111420000D02*
X144930000Y-100680000D01*
X144930000Y-111420000D02*
X163070000Y-111420000D01*
X150380000Y-95680000D02*
X157620000Y-95680000D01*
X150380000Y-100680000D02*
X150380000Y-95680000D01*
X150880000Y-85680000D02*
X157120000Y-85680000D01*
X150880000Y-95680000D02*
X150880000Y-85680000D01*
X157120000Y-95680000D02*
X157120000Y-85680000D01*
X157620000Y-100680000D02*
X157620000Y-95680000D01*
X163070000Y-111420000D02*
X163070000Y-100680000D01*
X157855000Y-113560000D02*
X157855000Y-123840000D01*
X157855000Y-123840000D02*
X163155000Y-123840000D01*
X159505000Y-113560000D02*
X157855000Y-113560000D01*
X163155000Y-113560000D02*
X161505000Y-113560000D01*
X163155000Y-123840000D02*
X163155000Y-113560000D01*
X161505000Y-113560000D02*
G75*
G02*
X159505000Y-113560000I-1000000J0D01*
G01*
X166180000Y-101330000D02*
X166180000Y-105971000D01*
X166180000Y-101330000D02*
X176420000Y-101330000D01*
X166180000Y-102840000D02*
X176420000Y-102840000D01*
X166180000Y-105971000D02*
X176420000Y-105971000D01*
X169450000Y-101330000D02*
X169450000Y-102840000D01*
X173151000Y-101330000D02*
X173151000Y-102840000D01*
X176420000Y-101330000D02*
X176420000Y-105971000D01*
X151780000Y-116680000D02*
X151780000Y-120520000D01*
X151780000Y-120520000D02*
X153620000Y-120520000D01*
X152700000Y-115730000D02*
X152700000Y-116680000D01*
X152700000Y-121470000D02*
X152700000Y-120520000D01*
X153620000Y-116680000D02*
X151780000Y-116680000D01*
X153620000Y-120520000D02*
X153620000Y-116680000D01*
X174290000Y-111620000D02*
X174290000Y-121780000D01*
X174290000Y-121780000D02*
X181910000Y-121780000D01*
X175560000Y-121780000D02*
X175560000Y-111620000D01*
X181910000Y-111620000D02*
X174290000Y-111620000D01*
X181910000Y-121780000D02*
X181910000Y-111620000D01*
X134660000Y-107280000D02*
X130983000Y-107280000D01*
X134660000Y-107320000D02*
X130993000Y-107320000D01*
X134660000Y-107360000D02*
X131004000Y-107360000D01*
X134660000Y-107400000D02*
X131015000Y-107400000D01*
X134660000Y-107440000D02*
X131027000Y-107440000D01*
X134660000Y-107480000D02*
X131039000Y-107480000D01*
X134660000Y-107520000D02*
X131051000Y-107520000D01*
X134660000Y-107560000D02*
X131063000Y-107560000D01*
X134660000Y-107600000D02*
X131076000Y-107600000D01*
X134660000Y-107640000D02*
X131090000Y-107640000D01*
X134660000Y-107680000D02*
X131103000Y-107680000D01*
X134660000Y-107720000D02*
X131118000Y-107720000D01*
X134660000Y-107760000D02*
X131132000Y-107760000D01*
X134660000Y-107800000D02*
X131147000Y-107800000D01*
X134660000Y-107840000D02*
X131162000Y-107840000D01*
X134660000Y-107880000D02*
X131178000Y-107880000D01*
X134660000Y-107920000D02*
X131194000Y-107920000D01*
X134660000Y-107960000D02*
X131210000Y-107960000D01*
X134660000Y-108000000D02*
X131227000Y-108000000D01*
X134660000Y-108040000D02*
X131244000Y-108040000D01*
X134660000Y-108080000D02*
X131262000Y-108080000D01*
X134660000Y-108120000D02*
X131280000Y-108120000D01*
X134660000Y-108160000D02*
X131298000Y-108160000D01*
X134660000Y-108200000D02*
X131317000Y-108200000D01*
X134660000Y-108240000D02*
X131336000Y-108240000D01*
X134660000Y-108280000D02*
X131356000Y-108280000D01*
X134660000Y-108320000D02*
X131376000Y-108320000D01*
X134660000Y-108360000D02*
X131396000Y-108360000D01*
X134660000Y-108400000D02*
X131417000Y-108400000D01*
X134660000Y-108440000D02*
X131439000Y-108440000D01*
X134660000Y-108480000D02*
X131461000Y-108480000D01*
X134660000Y-108520000D02*
X131483000Y-108520000D01*
X134660000Y-108560000D02*
X131506000Y-108560000D01*
X134660000Y-108600000D02*
X131529000Y-108600000D01*
X134660000Y-108640000D02*
X131553000Y-108640000D01*
X134660000Y-108680000D02*
X131577000Y-108680000D01*
X134660000Y-108720000D02*
X131602000Y-108720000D01*
X134660000Y-108760000D02*
X131628000Y-108760000D01*
X134660000Y-108800000D02*
X131653000Y-108800000D01*
X134660000Y-108840000D02*
X131680000Y-108840000D01*
X134660000Y-108880000D02*
X131707000Y-108880000D01*
X134660000Y-108920000D02*
X131734000Y-108920000D01*
X134660000Y-108960000D02*
X131762000Y-108960000D01*
X134660000Y-109000000D02*
X131791000Y-109000000D01*
X134660000Y-109040000D02*
X131820000Y-109040000D01*
X134660000Y-109080000D02*
X131850000Y-109080000D01*
X134660000Y-109120000D02*
X131880000Y-109120000D01*
X134660000Y-109160000D02*
X131912000Y-109160000D01*
X134660000Y-109200000D02*
X131943000Y-109200000D01*
X134660000Y-109240000D02*
X131976000Y-109240000D01*
X134660000Y-109280000D02*
X132009000Y-109280000D01*
X134660000Y-109320000D02*
X132042000Y-109320000D01*
X134660000Y-109360000D02*
X132077000Y-109360000D01*
X134660000Y-109400000D02*
X132112000Y-109400000D01*
X134660000Y-109440000D02*
X132148000Y-109440000D01*
X134660000Y-109480000D02*
X132184000Y-109480000D01*
X134660000Y-109520000D02*
X132222000Y-109520000D01*
X134660000Y-109560000D02*
X132260000Y-109560000D01*
X134660000Y-109600000D02*
X132299000Y-109600000D01*
X134660000Y-109640000D02*
X132339000Y-109640000D01*
X134660000Y-109680000D02*
X132380000Y-109680000D01*
X134660000Y-109720000D02*
X132422000Y-109720000D01*
X136499000Y-111080000D02*
X135301000Y-111080000D01*
X136762000Y-111040000D02*
X135038000Y-111040000D01*
X136962000Y-111000000D02*
X134838000Y-111000000D01*
X137130000Y-110960000D02*
X134670000Y-110960000D01*
X137277000Y-110920000D02*
X134523000Y-110920000D01*
X137409000Y-110880000D02*
X134391000Y-110880000D01*
X137530000Y-110840000D02*
X134270000Y-110840000D01*
X137642000Y-110800000D02*
X134158000Y-110800000D01*
X137746000Y-110760000D02*
X134054000Y-110760000D01*
X137844000Y-110720000D02*
X133956000Y-110720000D01*
X137937000Y-110680000D02*
X133863000Y-110680000D01*
X138024000Y-110640000D02*
X133776000Y-110640000D01*
X138108000Y-110600000D02*
X133692000Y-110600000D01*
X138188000Y-110560000D02*
X133612000Y-110560000D01*
X138265000Y-110520000D02*
X133535000Y-110520000D01*
X138339000Y-110480000D02*
X133461000Y-110480000D01*
X138410000Y-110440000D02*
X133390000Y-110440000D01*
X138478000Y-110400000D02*
X133322000Y-110400000D01*
X138544000Y-110360000D02*
X133256000Y-110360000D01*
X138608000Y-110320000D02*
X133192000Y-110320000D01*
X138670000Y-110280000D02*
X133130000Y-110280000D01*
X138730000Y-110240000D02*
X133070000Y-110240000D01*
X138775000Y-100520354D02*
X138775000Y-101520354D01*
X138788000Y-110200000D02*
X133012000Y-110200000D01*
X138845000Y-110160000D02*
X132955000Y-110160000D01*
X138900000Y-110120000D02*
X132900000Y-110120000D01*
X138953000Y-110080000D02*
X132847000Y-110080000D01*
X139005000Y-110040000D02*
X132795000Y-110040000D01*
X139056000Y-110000000D02*
X132744000Y-110000000D01*
X139105000Y-109960000D02*
X132695000Y-109960000D01*
X139154000Y-109920000D02*
X132646000Y-109920000D01*
X139201000Y-109880000D02*
X132599000Y-109880000D01*
X139247000Y-109840000D02*
X132553000Y-109840000D01*
X139275000Y-101020354D02*
X138275000Y-101020354D01*
X139291000Y-109800000D02*
X132509000Y-109800000D01*
X139335000Y-109760000D02*
X132465000Y-109760000D01*
X139378000Y-109720000D02*
X137140000Y-109720000D01*
X139420000Y-109680000D02*
X137140000Y-109680000D01*
X139461000Y-109640000D02*
X137140000Y-109640000D01*
X139501000Y-109600000D02*
X137140000Y-109600000D01*
X139540000Y-109560000D02*
X137140000Y-109560000D01*
X139578000Y-109520000D02*
X137140000Y-109520000D01*
X139616000Y-109480000D02*
X137140000Y-109480000D01*
X139652000Y-109440000D02*
X137140000Y-109440000D01*
X139688000Y-109400000D02*
X137140000Y-109400000D01*
X139723000Y-109360000D02*
X137140000Y-109360000D01*
X139758000Y-109320000D02*
X137140000Y-109320000D01*
X139791000Y-109280000D02*
X137140000Y-109280000D01*
X139824000Y-109240000D02*
X137140000Y-109240000D01*
X139857000Y-109200000D02*
X137140000Y-109200000D01*
X139888000Y-109160000D02*
X137140000Y-109160000D01*
X139920000Y-109120000D02*
X137140000Y-109120000D01*
X139950000Y-109080000D02*
X137140000Y-109080000D01*
X139980000Y-109040000D02*
X137140000Y-109040000D01*
X140009000Y-109000000D02*
X137140000Y-109000000D01*
X140038000Y-108960000D02*
X137140000Y-108960000D01*
X140066000Y-108920000D02*
X137140000Y-108920000D01*
X140093000Y-108880000D02*
X137140000Y-108880000D01*
X140120000Y-108840000D02*
X137140000Y-108840000D01*
X140147000Y-108800000D02*
X137140000Y-108800000D01*
X140172000Y-108760000D02*
X137140000Y-108760000D01*
X140198000Y-108720000D02*
X137140000Y-108720000D01*
X140223000Y-108680000D02*
X137140000Y-108680000D01*
X140247000Y-108640000D02*
X137140000Y-108640000D01*
X140271000Y-108600000D02*
X137140000Y-108600000D01*
X140294000Y-108560000D02*
X137140000Y-108560000D01*
X140317000Y-108520000D02*
X137140000Y-108520000D01*
X140339000Y-108480000D02*
X137140000Y-108480000D01*
X140361000Y-108440000D02*
X137140000Y-108440000D01*
X140383000Y-108400000D02*
X137140000Y-108400000D01*
X140404000Y-108360000D02*
X137140000Y-108360000D01*
X140424000Y-108320000D02*
X137140000Y-108320000D01*
X140444000Y-108280000D02*
X137140000Y-108280000D01*
X140464000Y-108240000D02*
X137140000Y-108240000D01*
X140483000Y-108200000D02*
X137140000Y-108200000D01*
X140502000Y-108160000D02*
X137140000Y-108160000D01*
X140520000Y-108120000D02*
X137140000Y-108120000D01*
X140538000Y-108080000D02*
X137140000Y-108080000D01*
X140556000Y-108040000D02*
X137140000Y-108040000D01*
X140573000Y-108000000D02*
X137140000Y-108000000D01*
X140590000Y-107960000D02*
X137140000Y-107960000D01*
X140606000Y-107920000D02*
X137140000Y-107920000D01*
X140622000Y-107880000D02*
X137140000Y-107880000D01*
X140638000Y-107840000D02*
X137140000Y-107840000D01*
X140653000Y-107800000D02*
X137140000Y-107800000D01*
X140668000Y-107760000D02*
X137140000Y-107760000D01*
X140682000Y-107720000D02*
X137140000Y-107720000D01*
X140697000Y-107680000D02*
X137140000Y-107680000D01*
X140710000Y-107640000D02*
X137140000Y-107640000D01*
X140724000Y-107600000D02*
X137140000Y-107600000D01*
X140737000Y-107560000D02*
X137140000Y-107560000D01*
X140749000Y-107520000D02*
X137140000Y-107520000D01*
X140761000Y-107480000D02*
X137140000Y-107480000D01*
X140773000Y-107440000D02*
X137140000Y-107440000D01*
X140785000Y-107400000D02*
X137140000Y-107400000D01*
X140796000Y-107360000D02*
X137140000Y-107360000D01*
X140807000Y-107320000D02*
X137140000Y-107320000D01*
X140817000Y-107280000D02*
X137140000Y-107280000D01*
X140828000Y-107240000D02*
X130972000Y-107240000D01*
X140837000Y-107200000D02*
X130963000Y-107200000D01*
X140847000Y-107160000D02*
X130953000Y-107160000D01*
X140856000Y-107120000D02*
X130944000Y-107120000D01*
X140865000Y-107080000D02*
X130935000Y-107080000D01*
X140873000Y-107040000D02*
X130927000Y-107040000D01*
X140881000Y-107000000D02*
X130919000Y-107000000D01*
X140889000Y-106960000D02*
X130911000Y-106960000D01*
X140897000Y-106920000D02*
X130903000Y-106920000D01*
X140904000Y-106880000D02*
X130896000Y-106880000D01*
X140911000Y-106840000D02*
X130889000Y-106840000D01*
X140917000Y-106800000D02*
X130883000Y-106800000D01*
X140923000Y-106760000D02*
X130877000Y-106760000D01*
X140929000Y-106720000D02*
X130871000Y-106720000D01*
X140935000Y-106680000D02*
X130865000Y-106680000D01*
X140940000Y-106640000D02*
X130860000Y-106640000D01*
X140945000Y-106600000D02*
X130855000Y-106600000D01*
X140949000Y-106560000D02*
X130851000Y-106560000D01*
X140954000Y-106520000D02*
X130846000Y-106520000D01*
X140957000Y-106480000D02*
X130843000Y-106480000D01*
X140961000Y-106440000D02*
X130839000Y-106440000D01*
X140964000Y-106400000D02*
X130836000Y-106400000D01*
X140967000Y-106360000D02*
X130833000Y-106360000D01*
X140970000Y-106320000D02*
X130830000Y-106320000D01*
X140972000Y-106280000D02*
X130828000Y-106280000D01*
X140974000Y-106240000D02*
X130826000Y-106240000D01*
X140976000Y-106200000D02*
X130824000Y-106200000D01*
X140977000Y-106160000D02*
X130823000Y-106160000D01*
X140979000Y-106080000D02*
X130821000Y-106080000D01*
X140979000Y-106120000D02*
X130821000Y-106120000D01*
X140980000Y-106000000D02*
X130820000Y-106000000D01*
X140980000Y-106040000D02*
X130820000Y-106040000D01*
X141020000Y-106000000D02*
G75*
G02*
X130780000Y-106000000I-5120000J0D01*
G01*
X130780000Y-106000000D02*
G75*
G02*
X141020000Y-106000000I5120000J0D01*
G01*
X147030000Y-117550000D02*
X147030000Y-122990000D01*
X147030000Y-121970000D02*
X149970000Y-121970000D01*
X147030000Y-122090000D02*
X149970000Y-122090000D01*
X147030000Y-122210000D02*
X149970000Y-122210000D01*
X147030000Y-122990000D02*
X149970000Y-122990000D01*
X148500000Y-116530000D02*
X148500000Y-117550000D01*
X148500000Y-124010000D02*
X148500000Y-122990000D01*
X149970000Y-117550000D02*
X147030000Y-117550000D01*
X149970000Y-122990000D02*
X149970000Y-117550000D01*
X134380000Y-117190000D02*
X134380000Y-121030000D01*
X134380000Y-121030000D02*
X136220000Y-121030000D01*
X135300000Y-116240000D02*
X135300000Y-117190000D01*
X135300000Y-121980000D02*
X135300000Y-121030000D01*
X136220000Y-117190000D02*
X134380000Y-117190000D01*
X136220000Y-121030000D02*
X136220000Y-117190000D01*
X158030000Y-127000000D02*
X158030000Y-127330000D01*
X158030000Y-127000000D02*
X162970000Y-127000000D01*
X158030000Y-129410000D02*
X158030000Y-129740000D01*
X158030000Y-129740000D02*
X162970000Y-129740000D01*
X162970000Y-127000000D02*
X162970000Y-127330000D01*
X162970000Y-129410000D02*
X162970000Y-129740000D01*
X122305000Y-111680000D02*
X122305000Y-121840000D01*
X122305000Y-121840000D02*
X129925000Y-121840000D01*
X128655000Y-111680000D02*
X128655000Y-121840000D01*
X129925000Y-111680000D02*
X122305000Y-111680000D01*
X129925000Y-121840000D02*
X129925000Y-111680000D01*
X127835000Y-124055000D02*
X127835000Y-127145000D01*
X127835000Y-124055170D02*
G75*
G02*
X133385000Y-125599952I2560000J-1544830D01*
G01*
X133385000Y-125600048D02*
G75*
G02*
X127835000Y-127144830I-2990000J48D01*
G01*
X132895000Y-125600000D02*
G75*
G02*
X127895000Y-125600000I-2500000J0D01*
G01*
X127895000Y-125600000D02*
G75*
G02*
X132895000Y-125600000I2500000J0D01*
G01*
%LPC*%
D13*
X124400000Y-103100000D03*
D14*
X138400000Y-115300000D03*
D15*
X138400000Y-122920000D03*
D16*
X143300000Y-115190000D03*
D17*
X143300000Y-125350000D03*
D18*
X167900000Y-123820000D03*
X167900000Y-128820000D03*
D16*
X170000000Y-109220000D03*
D17*
X170000000Y-119380000D03*
D19*
X159000000Y-104600000D03*
D20*
X154000000Y-104600000D03*
X149000000Y-104600000D03*
D21*
X156695000Y-114890000D03*
D18*
X156695000Y-117430000D03*
X156695000Y-119970000D03*
X156695000Y-122510000D03*
X164315000Y-122510000D03*
X164315000Y-119970000D03*
X164315000Y-117430000D03*
X164315000Y-114890000D03*
D22*
X168760000Y-104600000D03*
D23*
X171300000Y-104600000D03*
X173840000Y-104600000D03*
D14*
X152700000Y-122410000D03*
D15*
X152700000Y-114790000D03*
D19*
X178100000Y-114160000D03*
D20*
X178100000Y-119240000D03*
D24*
X135900000Y-103500000D03*
D25*
X135900000Y-108500000D03*
D16*
X148500000Y-125350000D03*
D17*
X148500000Y-115190000D03*
D13*
X179600000Y-127800000D03*
D14*
X135300000Y-115300000D03*
D15*
X135300000Y-122920000D03*
D13*
X179600000Y-103200000D03*
X124400000Y-127800000D03*
D18*
X158000000Y-128370000D03*
X163000000Y-128370000D03*
D19*
X126115000Y-119300000D03*
D20*
X126115000Y-114220000D03*
D26*
X129125000Y-125600000D03*
D27*
X131665000Y-125600000D03*
%LPD*%
M02*
