%TF.GenerationSoftware,KiCad,Pcbnew,9.0.1*%
%TF.CreationDate,2025-08-18T16:23:50+05:00*%
%TF.ProjectId,dc_motor_speed_controller,64635f6d-6f74-46f7-925f-73706565645f,rev?*%
%TF.SameCoordinates,Original*%
%TF.FileFunction,Drillmap*%
%TF.FilePolarity,Positive*%
%FSLAX45Y45*%
G04 Gerber Fmt 4.5, Leading zero omitted, Abs format (unit mm)*
G04 Created by KiCad (PCBNEW 9.0.1) date 2025-08-18 16:23:50*
%MOMM*%
%LPD*%
G01*
G04 APERTURE LIST*
%ADD10C,0.050000*%
%ADD11C,0.200000*%
G04 APERTURE END LIST*
D10*
X17960000Y-13060000D02*
X12440000Y-13060000D01*
X12440000Y-10040000D02*
X17960000Y-10039822D01*
X17960000Y-10039822D02*
G75*
G02*
X18240000Y-10310000I0J-280179D01*
G01*
X18240000Y-12780000D02*
G75*
G02*
X17960000Y-13060000I-280000J0D01*
G01*
X12170000Y-12790000D02*
X12170000Y-10310000D01*
X12170000Y-10310000D02*
G75*
G02*
X12440000Y-10040000I270000J0D01*
G01*
X18240000Y-10310000D02*
X18240000Y-12780000D01*
X12440000Y-13060000D02*
G75*
G02*
X12170000Y-12790000I0J270000D01*
G01*
D11*
X12428277Y-13373984D02*
X12428277Y-13173984D01*
X12428277Y-13173984D02*
X12475896Y-13173984D01*
X12475896Y-13173984D02*
X12504467Y-13183508D01*
X12504467Y-13183508D02*
X12523515Y-13202555D01*
X12523515Y-13202555D02*
X12533039Y-13221603D01*
X12533039Y-13221603D02*
X12542562Y-13259698D01*
X12542562Y-13259698D02*
X12542562Y-13288269D01*
X12542562Y-13288269D02*
X12533039Y-13326365D01*
X12533039Y-13326365D02*
X12523515Y-13345412D01*
X12523515Y-13345412D02*
X12504467Y-13364460D01*
X12504467Y-13364460D02*
X12475896Y-13373984D01*
X12475896Y-13373984D02*
X12428277Y-13373984D01*
X12628277Y-13373984D02*
X12628277Y-13240650D01*
X12628277Y-13278746D02*
X12637801Y-13259698D01*
X12637801Y-13259698D02*
X12647324Y-13250174D01*
X12647324Y-13250174D02*
X12666372Y-13240650D01*
X12666372Y-13240650D02*
X12685420Y-13240650D01*
X12752086Y-13373984D02*
X12752086Y-13240650D01*
X12752086Y-13173984D02*
X12742562Y-13183508D01*
X12742562Y-13183508D02*
X12752086Y-13193031D01*
X12752086Y-13193031D02*
X12761610Y-13183508D01*
X12761610Y-13183508D02*
X12752086Y-13173984D01*
X12752086Y-13173984D02*
X12752086Y-13193031D01*
X12875896Y-13373984D02*
X12856848Y-13364460D01*
X12856848Y-13364460D02*
X12847324Y-13345412D01*
X12847324Y-13345412D02*
X12847324Y-13173984D01*
X12980658Y-13373984D02*
X12961610Y-13364460D01*
X12961610Y-13364460D02*
X12952086Y-13345412D01*
X12952086Y-13345412D02*
X12952086Y-13173984D01*
X13209229Y-13373984D02*
X13209229Y-13173984D01*
X13209229Y-13173984D02*
X13275896Y-13316841D01*
X13275896Y-13316841D02*
X13342562Y-13173984D01*
X13342562Y-13173984D02*
X13342562Y-13373984D01*
X13523515Y-13373984D02*
X13523515Y-13269222D01*
X13523515Y-13269222D02*
X13513991Y-13250174D01*
X13513991Y-13250174D02*
X13494943Y-13240650D01*
X13494943Y-13240650D02*
X13456848Y-13240650D01*
X13456848Y-13240650D02*
X13437801Y-13250174D01*
X13523515Y-13364460D02*
X13504467Y-13373984D01*
X13504467Y-13373984D02*
X13456848Y-13373984D01*
X13456848Y-13373984D02*
X13437801Y-13364460D01*
X13437801Y-13364460D02*
X13428277Y-13345412D01*
X13428277Y-13345412D02*
X13428277Y-13326365D01*
X13428277Y-13326365D02*
X13437801Y-13307317D01*
X13437801Y-13307317D02*
X13456848Y-13297793D01*
X13456848Y-13297793D02*
X13504467Y-13297793D01*
X13504467Y-13297793D02*
X13523515Y-13288269D01*
X13618753Y-13240650D02*
X13618753Y-13440650D01*
X13618753Y-13250174D02*
X13637801Y-13240650D01*
X13637801Y-13240650D02*
X13675896Y-13240650D01*
X13675896Y-13240650D02*
X13694943Y-13250174D01*
X13694943Y-13250174D02*
X13704467Y-13259698D01*
X13704467Y-13259698D02*
X13713991Y-13278746D01*
X13713991Y-13278746D02*
X13713991Y-13335888D01*
X13713991Y-13335888D02*
X13704467Y-13354936D01*
X13704467Y-13354936D02*
X13694943Y-13364460D01*
X13694943Y-13364460D02*
X13675896Y-13373984D01*
X13675896Y-13373984D02*
X13637801Y-13373984D01*
X13637801Y-13373984D02*
X13618753Y-13364460D01*
X13799705Y-13354936D02*
X13809229Y-13364460D01*
X13809229Y-13364460D02*
X13799705Y-13373984D01*
X13799705Y-13373984D02*
X13790182Y-13364460D01*
X13790182Y-13364460D02*
X13799705Y-13354936D01*
X13799705Y-13354936D02*
X13799705Y-13373984D01*
X13799705Y-13250174D02*
X13809229Y-13259698D01*
X13809229Y-13259698D02*
X13799705Y-13269222D01*
X13799705Y-13269222D02*
X13790182Y-13259698D01*
X13790182Y-13259698D02*
X13799705Y-13250174D01*
X13799705Y-13250174D02*
X13799705Y-13269222D01*
M02*
