G04 #@! TF.GenerationSoftware,KiCad,Pcbnew,9.0.1*
G04 #@! TF.CreationDate,2025-08-18T16:23:54+05:00*
G04 #@! TF.ProjectId,dc_motor_speed_controller,64635f6d-6f74-46f7-925f-73706565645f,rev?*
G04 #@! TF.SameCoordinates,Original*
G04 #@! TF.FileFunction,Copper,L1,Top*
G04 #@! TF.FilePolarity,Positive*
%FSLAX46Y46*%
G04 Gerber Fmt 4.6, Leading zero omitted, Abs format (unit mm)*
G04 Created by KiCad (PCBNEW 9.0.1) date 2025-08-18 16:23:54*
%MOMM*%
%LPD*%
G01*
G04 APERTURE LIST*
G04 Aperture macros list*
%AMRoundRect*
0 Rectangle with rounded corners*
0 $1 Rounding radius*
0 $2 $3 $4 $5 $6 $7 $8 $9 X,Y pos of 4 corners*
0 Add a 4 corners polygon primitive as box body*
4,1,4,$2,$3,$4,$5,$6,$7,$8,$9,$2,$3,0*
0 Add four circle primitives for the rounded corners*
1,1,$1+$1,$2,$3*
1,1,$1+$1,$4,$5*
1,1,$1+$1,$6,$7*
1,1,$1+$1,$8,$9*
0 Add four rect primitives between the rounded corners*
20,1,$1+$1,$2,$3,$4,$5,0*
20,1,$1+$1,$4,$5,$6,$7,0*
20,1,$1+$1,$6,$7,$8,$9,0*
20,1,$1+$1,$8,$9,$2,$3,0*%
G04 Aperture macros list end*
G04 #@! TA.AperFunction,ComponentPad*
%ADD10C,3.800000*%
G04 #@! TD*
G04 #@! TA.AperFunction,ComponentPad*
%ADD11C,1.400000*%
G04 #@! TD*
G04 #@! TA.AperFunction,ComponentPad*
%ADD12O,1.400000X1.400000*%
G04 #@! TD*
G04 #@! TA.AperFunction,ComponentPad*
%ADD13R,2.200000X2.200000*%
G04 #@! TD*
G04 #@! TA.AperFunction,ComponentPad*
%ADD14O,2.200000X2.200000*%
G04 #@! TD*
G04 #@! TA.AperFunction,ComponentPad*
%ADD15C,1.600000*%
G04 #@! TD*
G04 #@! TA.AperFunction,ComponentPad*
%ADD16R,3.000000X3.000000*%
G04 #@! TD*
G04 #@! TA.AperFunction,ComponentPad*
%ADD17C,3.000000*%
G04 #@! TD*
G04 #@! TA.AperFunction,ComponentPad*
%ADD18RoundRect,0.250000X-0.550000X-0.550000X0.550000X-0.550000X0.550000X0.550000X-0.550000X0.550000X0*%
G04 #@! TD*
G04 #@! TA.AperFunction,ComponentPad*
%ADD19R,1.905000X2.000000*%
G04 #@! TD*
G04 #@! TA.AperFunction,ComponentPad*
%ADD20O,1.905000X2.000000*%
G04 #@! TD*
G04 #@! TA.AperFunction,ComponentPad*
%ADD21R,2.000000X2.000000*%
G04 #@! TD*
G04 #@! TA.AperFunction,ComponentPad*
%ADD22C,2.000000*%
G04 #@! TD*
G04 #@! TA.AperFunction,ComponentPad*
%ADD23R,1.800000X1.800000*%
G04 #@! TD*
G04 #@! TA.AperFunction,ComponentPad*
%ADD24C,1.800000*%
G04 #@! TD*
G04 #@! TA.AperFunction,Conductor*
%ADD25C,0.500000*%
G04 #@! TD*
G04 APERTURE END LIST*
D10*
X124400000Y-103100000D03*
D11*
X138400000Y-115300000D03*
D12*
X138400000Y-122920000D03*
D13*
X143300000Y-115190000D03*
D14*
X143300000Y-125350000D03*
D15*
X167900000Y-123820000D03*
X167900000Y-128820000D03*
D13*
X170000000Y-109220000D03*
D14*
X170000000Y-119380000D03*
D16*
X159000000Y-104600000D03*
D17*
X154000000Y-104600000D03*
X149000000Y-104600000D03*
D18*
X156695000Y-114890000D03*
D15*
X156695000Y-117430000D03*
X156695000Y-119970000D03*
X156695000Y-122510000D03*
X164315000Y-122510000D03*
X164315000Y-119970000D03*
X164315000Y-117430000D03*
X164315000Y-114890000D03*
D19*
X168760000Y-104600000D03*
D20*
X171300000Y-104600000D03*
X173840000Y-104600000D03*
D11*
X152700000Y-122410000D03*
D12*
X152700000Y-114790000D03*
D16*
X178100000Y-114160000D03*
D17*
X178100000Y-119240000D03*
D21*
X135900000Y-103500000D03*
D22*
X135900000Y-108500000D03*
D13*
X148500000Y-125350000D03*
D14*
X148500000Y-115190000D03*
D10*
X179600000Y-127800000D03*
D11*
X135300000Y-115300000D03*
D12*
X135300000Y-122920000D03*
D10*
X179600000Y-103200000D03*
X124400000Y-127800000D03*
D15*
X158000000Y-128370000D03*
X163000000Y-128370000D03*
D16*
X126115000Y-119300000D03*
D17*
X126115000Y-114220000D03*
D23*
X129125000Y-125600000D03*
D24*
X131665000Y-125600000D03*
D25*
X161170000Y-119970000D02*
X164315000Y-119970000D01*
X156695000Y-117430000D02*
X158630000Y-117430000D01*
X158630000Y-117430000D02*
X161170000Y-119970000D01*
G04 #@! TA.AperFunction,Conductor*
G36*
X178387085Y-100918438D02*
G01*
X178432842Y-100971241D01*
X178442787Y-101040399D01*
X178413765Y-101103956D01*
X178386021Y-101127750D01*
X178208712Y-101239161D01*
X177997915Y-101407265D01*
X177807265Y-101597915D01*
X177639161Y-101808712D01*
X177495714Y-102037005D01*
X177378734Y-102279917D01*
X177289687Y-102534397D01*
X177289684Y-102534405D01*
X177229688Y-102797268D01*
X177229686Y-102797280D01*
X177199500Y-103065186D01*
X177199500Y-103334813D01*
X177229686Y-103602719D01*
X177229687Y-103602728D01*
X177229688Y-103602732D01*
X177230419Y-103605934D01*
X177289684Y-103865594D01*
X177289687Y-103865602D01*
X177378734Y-104120082D01*
X177495714Y-104362994D01*
X177495716Y-104362997D01*
X177639162Y-104591289D01*
X177807266Y-104802085D01*
X177997915Y-104992734D01*
X178208711Y-105160838D01*
X178437003Y-105304284D01*
X178679921Y-105421267D01*
X178820081Y-105470311D01*
X178934397Y-105510312D01*
X178934405Y-105510315D01*
X178934408Y-105510315D01*
X178934409Y-105510316D01*
X179197268Y-105570312D01*
X179465187Y-105600499D01*
X179465188Y-105600500D01*
X179465191Y-105600500D01*
X179734812Y-105600500D01*
X179734812Y-105600499D01*
X180002732Y-105570312D01*
X180265591Y-105510316D01*
X180520079Y-105421267D01*
X180762997Y-105304284D01*
X180991289Y-105160838D01*
X181202085Y-104992734D01*
X181392734Y-104802085D01*
X181560838Y-104591289D01*
X181670506Y-104416753D01*
X181722841Y-104370463D01*
X181791894Y-104359815D01*
X181855743Y-104388190D01*
X181894115Y-104446580D01*
X181899500Y-104482726D01*
X181899500Y-126517273D01*
X181879815Y-126584312D01*
X181827011Y-126630067D01*
X181757853Y-126640011D01*
X181694297Y-126610986D01*
X181670506Y-126583245D01*
X181599593Y-126470389D01*
X181560838Y-126408711D01*
X181392734Y-126197915D01*
X181202085Y-126007266D01*
X180991289Y-125839162D01*
X180786083Y-125710222D01*
X180762994Y-125695714D01*
X180520082Y-125578734D01*
X180265602Y-125489687D01*
X180265594Y-125489684D01*
X180068446Y-125444687D01*
X180002732Y-125429688D01*
X180002728Y-125429687D01*
X180002719Y-125429686D01*
X179734813Y-125399500D01*
X179734809Y-125399500D01*
X179465191Y-125399500D01*
X179465186Y-125399500D01*
X179197280Y-125429686D01*
X179197268Y-125429688D01*
X178934405Y-125489684D01*
X178934397Y-125489687D01*
X178679917Y-125578734D01*
X178437005Y-125695714D01*
X178208712Y-125839161D01*
X177997915Y-126007265D01*
X177807265Y-126197915D01*
X177639161Y-126408712D01*
X177495714Y-126637005D01*
X177378734Y-126879917D01*
X177289687Y-127134397D01*
X177289684Y-127134405D01*
X177229688Y-127397268D01*
X177229686Y-127397280D01*
X177199500Y-127665186D01*
X177199500Y-127934813D01*
X177229686Y-128202719D01*
X177229687Y-128202728D01*
X177229688Y-128202732D01*
X177237095Y-128235183D01*
X177289684Y-128465594D01*
X177289687Y-128465602D01*
X177378734Y-128720082D01*
X177495714Y-128962994D01*
X177540087Y-129033613D01*
X177639162Y-129191289D01*
X177807266Y-129402085D01*
X177997915Y-129592734D01*
X178208711Y-129760838D01*
X178383246Y-129870506D01*
X178429537Y-129922841D01*
X178440185Y-129991894D01*
X178411810Y-130055743D01*
X178353420Y-130094115D01*
X178317274Y-130099500D01*
X168732243Y-130099500D01*
X168665204Y-130079815D01*
X168619449Y-130027011D01*
X168609505Y-129957853D01*
X168623789Y-129926575D01*
X168625921Y-129899474D01*
X167946447Y-129220000D01*
X167952661Y-129220000D01*
X168054394Y-129192741D01*
X168145606Y-129140080D01*
X168220080Y-129065606D01*
X168272741Y-128974394D01*
X168300000Y-128872661D01*
X168300000Y-128866447D01*
X168979474Y-129545921D01*
X169011859Y-129501349D01*
X169104755Y-129319031D01*
X169167990Y-129124417D01*
X169200000Y-128922317D01*
X169200000Y-128717682D01*
X169167990Y-128515582D01*
X169104755Y-128320968D01*
X169011859Y-128138650D01*
X168979474Y-128094077D01*
X168979474Y-128094076D01*
X168300000Y-128773551D01*
X168300000Y-128767339D01*
X168272741Y-128665606D01*
X168220080Y-128574394D01*
X168145606Y-128499920D01*
X168054394Y-128447259D01*
X167952661Y-128420000D01*
X167946446Y-128420000D01*
X168625922Y-127740524D01*
X168625921Y-127740523D01*
X168581359Y-127708147D01*
X168581350Y-127708141D01*
X168399031Y-127615244D01*
X168204417Y-127552009D01*
X168002317Y-127520000D01*
X167797683Y-127520000D01*
X167595582Y-127552009D01*
X167400968Y-127615244D01*
X167218644Y-127708143D01*
X167174077Y-127740523D01*
X167174077Y-127740524D01*
X167853554Y-128420000D01*
X167847339Y-128420000D01*
X167745606Y-128447259D01*
X167654394Y-128499920D01*
X167579920Y-128574394D01*
X167527259Y-128665606D01*
X167500000Y-128767339D01*
X167500000Y-128773553D01*
X166820524Y-128094077D01*
X166820523Y-128094077D01*
X166788143Y-128138644D01*
X166695244Y-128320968D01*
X166632009Y-128515582D01*
X166600000Y-128717682D01*
X166600000Y-128922317D01*
X166632009Y-129124417D01*
X166695244Y-129319031D01*
X166788141Y-129501350D01*
X166788147Y-129501359D01*
X166820523Y-129545921D01*
X166820524Y-129545922D01*
X167500000Y-128866446D01*
X167500000Y-128872661D01*
X167527259Y-128974394D01*
X167579920Y-129065606D01*
X167654394Y-129140080D01*
X167745606Y-129192741D01*
X167847339Y-129220000D01*
X167853553Y-129220000D01*
X167174076Y-129899474D01*
X167175748Y-129920710D01*
X167183307Y-129930513D01*
X167189285Y-130000127D01*
X167156678Y-130061921D01*
X167095839Y-130096278D01*
X167067755Y-130099500D01*
X125682726Y-130099500D01*
X125615687Y-130079815D01*
X125569932Y-130027011D01*
X125559988Y-129957853D01*
X125589013Y-129894297D01*
X125616754Y-129870506D01*
X125791289Y-129760838D01*
X126002085Y-129592734D01*
X126192734Y-129402085D01*
X126360838Y-129191289D01*
X126504284Y-128962997D01*
X126621267Y-128720079D01*
X126710316Y-128465591D01*
X126755495Y-128267648D01*
X156699500Y-128267648D01*
X156699500Y-128472351D01*
X156731522Y-128674534D01*
X156794781Y-128869223D01*
X156842561Y-128962994D01*
X156887585Y-129051359D01*
X156887715Y-129051613D01*
X157008028Y-129217213D01*
X157152786Y-129361971D01*
X157273226Y-129449474D01*
X157318390Y-129482287D01*
X157434607Y-129541503D01*
X157500776Y-129575218D01*
X157500778Y-129575218D01*
X157500781Y-129575220D01*
X157554684Y-129592734D01*
X157695465Y-129638477D01*
X157796557Y-129654488D01*
X157897648Y-129670500D01*
X157897649Y-129670500D01*
X158102351Y-129670500D01*
X158102352Y-129670500D01*
X158304534Y-129638477D01*
X158499219Y-129575220D01*
X158681610Y-129482287D01*
X158774590Y-129414732D01*
X158847213Y-129361971D01*
X158847215Y-129361968D01*
X158847219Y-129361966D01*
X158991966Y-129217219D01*
X158991968Y-129217215D01*
X158991971Y-129217213D01*
X159059390Y-129124417D01*
X159112287Y-129051610D01*
X159205220Y-128869219D01*
X159268477Y-128674534D01*
X159300500Y-128472352D01*
X159300500Y-128267682D01*
X161700000Y-128267682D01*
X161700000Y-128472317D01*
X161732009Y-128674417D01*
X161795244Y-128869031D01*
X161888141Y-129051350D01*
X161888147Y-129051359D01*
X161920523Y-129095921D01*
X161920524Y-129095922D01*
X162600000Y-128416446D01*
X162600000Y-128422661D01*
X162627259Y-128524394D01*
X162679920Y-128615606D01*
X162754394Y-128690080D01*
X162845606Y-128742741D01*
X162947339Y-128770000D01*
X162953553Y-128770000D01*
X162274076Y-129449474D01*
X162318650Y-129481859D01*
X162500968Y-129574755D01*
X162695582Y-129637990D01*
X162897683Y-129670000D01*
X163102317Y-129670000D01*
X163304417Y-129637990D01*
X163499031Y-129574755D01*
X163681349Y-129481859D01*
X163725921Y-129449474D01*
X163046447Y-128770000D01*
X163052661Y-128770000D01*
X163154394Y-128742741D01*
X163245606Y-128690080D01*
X163320080Y-128615606D01*
X163372741Y-128524394D01*
X163400000Y-128422661D01*
X163400000Y-128416447D01*
X164079474Y-129095921D01*
X164111859Y-129051349D01*
X164204754Y-128869031D01*
X164267964Y-128674497D01*
X164267964Y-128674496D01*
X164267966Y-128674490D01*
X164267990Y-128674414D01*
X164300000Y-128472317D01*
X164300000Y-128267682D01*
X164267990Y-128065582D01*
X164204754Y-127870968D01*
X164191053Y-127844076D01*
X164111859Y-127688650D01*
X164079474Y-127644077D01*
X164079474Y-127644076D01*
X163400000Y-128323551D01*
X163400000Y-128317339D01*
X163372741Y-128215606D01*
X163320080Y-128124394D01*
X163245606Y-128049920D01*
X163154394Y-127997259D01*
X163052661Y-127970000D01*
X163046446Y-127970000D01*
X163725922Y-127290524D01*
X163725921Y-127290523D01*
X163681359Y-127258147D01*
X163681350Y-127258141D01*
X163499031Y-127165244D01*
X163304417Y-127102009D01*
X163102317Y-127070000D01*
X162897683Y-127070000D01*
X162695582Y-127102009D01*
X162500968Y-127165244D01*
X162318644Y-127258143D01*
X162274077Y-127290523D01*
X162274077Y-127290524D01*
X162953554Y-127970000D01*
X162947339Y-127970000D01*
X162845606Y-127997259D01*
X162754394Y-128049920D01*
X162679920Y-128124394D01*
X162627259Y-128215606D01*
X162600000Y-128317339D01*
X162600000Y-128323553D01*
X161920524Y-127644077D01*
X161920523Y-127644077D01*
X161888143Y-127688644D01*
X161795244Y-127870968D01*
X161732009Y-128065582D01*
X161700000Y-128267682D01*
X159300500Y-128267682D01*
X159300500Y-128267648D01*
X159280068Y-128138650D01*
X159268477Y-128065465D01*
X159226025Y-127934813D01*
X159205220Y-127870781D01*
X159205218Y-127870778D01*
X159205218Y-127870776D01*
X159169155Y-127800000D01*
X159112287Y-127688390D01*
X159095430Y-127665188D01*
X158991971Y-127522786D01*
X158847213Y-127378028D01*
X158681613Y-127257715D01*
X158681612Y-127257714D01*
X158681610Y-127257713D01*
X158624653Y-127228691D01*
X158499223Y-127164781D01*
X158304534Y-127101522D01*
X158129995Y-127073878D01*
X158102352Y-127069500D01*
X157897648Y-127069500D01*
X157873329Y-127073351D01*
X157695465Y-127101522D01*
X157500776Y-127164781D01*
X157318386Y-127257715D01*
X157152786Y-127378028D01*
X157008028Y-127522786D01*
X156887715Y-127688386D01*
X156794781Y-127870776D01*
X156731522Y-128065465D01*
X156699500Y-128267648D01*
X126755495Y-128267648D01*
X126770312Y-128202732D01*
X126800500Y-127934809D01*
X126800500Y-127665191D01*
X126770312Y-127397268D01*
X126710316Y-127134409D01*
X126621267Y-126879921D01*
X126504284Y-126637003D01*
X126360838Y-126408711D01*
X126192734Y-126197915D01*
X126002085Y-126007266D01*
X125791289Y-125839162D01*
X125586083Y-125710222D01*
X125562994Y-125695714D01*
X125320082Y-125578734D01*
X125065602Y-125489687D01*
X125065594Y-125489684D01*
X124868446Y-125444687D01*
X124802732Y-125429688D01*
X124802728Y-125429687D01*
X124802719Y-125429686D01*
X124534813Y-125399500D01*
X124534809Y-125399500D01*
X124265191Y-125399500D01*
X124265186Y-125399500D01*
X123997280Y-125429686D01*
X123997268Y-125429688D01*
X123734405Y-125489684D01*
X123734397Y-125489687D01*
X123479917Y-125578734D01*
X123237005Y-125695714D01*
X123008712Y-125839161D01*
X122797915Y-126007265D01*
X122607265Y-126197915D01*
X122439159Y-126408714D01*
X122429493Y-126424098D01*
X122377158Y-126470389D01*
X122308105Y-126481036D01*
X122244256Y-126452661D01*
X122205885Y-126394270D01*
X122200500Y-126358125D01*
X122200500Y-124652155D01*
X127725000Y-124652155D01*
X127725000Y-125350000D01*
X128749722Y-125350000D01*
X128705667Y-125426306D01*
X128675000Y-125540756D01*
X128675000Y-125659244D01*
X128705667Y-125773694D01*
X128749722Y-125850000D01*
X127725000Y-125850000D01*
X127725000Y-126547844D01*
X127731401Y-126607372D01*
X127731403Y-126607379D01*
X127781645Y-126742086D01*
X127781649Y-126742093D01*
X127867809Y-126857187D01*
X127867812Y-126857190D01*
X127982906Y-126943350D01*
X127982913Y-126943354D01*
X128117620Y-126993596D01*
X128117627Y-126993598D01*
X128177155Y-126999999D01*
X128177172Y-127000000D01*
X128875000Y-127000000D01*
X128875000Y-125975277D01*
X128951306Y-126019333D01*
X129065756Y-126050000D01*
X129184244Y-126050000D01*
X129298694Y-126019333D01*
X129375000Y-125975277D01*
X129375000Y-127000000D01*
X130072828Y-127000000D01*
X130072844Y-126999999D01*
X130132372Y-126993598D01*
X130132379Y-126993596D01*
X130267086Y-126943354D01*
X130267093Y-126943350D01*
X130382187Y-126857190D01*
X130382190Y-126857187D01*
X130468350Y-126742093D01*
X130468354Y-126742086D01*
X130498213Y-126662031D01*
X130540084Y-126606097D01*
X130605548Y-126581680D01*
X130673821Y-126596531D01*
X130702076Y-126617683D01*
X130752636Y-126668243D01*
X130752641Y-126668247D01*
X130908192Y-126781260D01*
X130930978Y-126797815D01*
X131047501Y-126857187D01*
X131127393Y-126897895D01*
X131127396Y-126897896D01*
X131232221Y-126931955D01*
X131337049Y-126966015D01*
X131554778Y-127000500D01*
X131554779Y-127000500D01*
X131775221Y-127000500D01*
X131775222Y-127000500D01*
X131992951Y-126966015D01*
X132202606Y-126897895D01*
X132399022Y-126797815D01*
X132577365Y-126668242D01*
X132733242Y-126512365D01*
X132862815Y-126334022D01*
X132962895Y-126137606D01*
X133031015Y-125927951D01*
X133065500Y-125710222D01*
X133065500Y-125489778D01*
X133031015Y-125272049D01*
X133031014Y-125272045D01*
X133026283Y-125257483D01*
X133015416Y-125224038D01*
X141699500Y-125224038D01*
X141699500Y-125475962D01*
X141715778Y-125578734D01*
X141738910Y-125724785D01*
X141816760Y-125964383D01*
X141844759Y-126019333D01*
X141905022Y-126137606D01*
X141931132Y-126188848D01*
X142079201Y-126392649D01*
X142079205Y-126392654D01*
X142257345Y-126570794D01*
X142257350Y-126570798D01*
X142391471Y-126668242D01*
X142461155Y-126718870D01*
X142604184Y-126791747D01*
X142685616Y-126833239D01*
X142685618Y-126833239D01*
X142685621Y-126833241D01*
X142925215Y-126911090D01*
X143174038Y-126950500D01*
X143174039Y-126950500D01*
X143425961Y-126950500D01*
X143425962Y-126950500D01*
X143674785Y-126911090D01*
X143914379Y-126833241D01*
X144138845Y-126718870D01*
X144342656Y-126570793D01*
X144520793Y-126392656D01*
X144668870Y-126188845D01*
X144783241Y-125964379D01*
X144861090Y-125724785D01*
X144900500Y-125475962D01*
X144900500Y-125224038D01*
X144861090Y-124975215D01*
X144783241Y-124735621D01*
X144783239Y-124735618D01*
X144783239Y-124735616D01*
X144740713Y-124652155D01*
X144668870Y-124511155D01*
X144630188Y-124457913D01*
X144520798Y-124307350D01*
X144520794Y-124307345D01*
X144415584Y-124202135D01*
X146899500Y-124202135D01*
X146899500Y-126497870D01*
X146899501Y-126497876D01*
X146905908Y-126557483D01*
X146956202Y-126692328D01*
X146956206Y-126692335D01*
X147042452Y-126807544D01*
X147042455Y-126807547D01*
X147157664Y-126893793D01*
X147157671Y-126893797D01*
X147292517Y-126944091D01*
X147292516Y-126944091D01*
X147299444Y-126944835D01*
X147352127Y-126950500D01*
X149647872Y-126950499D01*
X149707483Y-126944091D01*
X149842331Y-126893796D01*
X149957546Y-126807546D01*
X150043796Y-126692331D01*
X150094091Y-126557483D01*
X150100500Y-126497873D01*
X150100499Y-124202128D01*
X150094091Y-124142517D01*
X150089124Y-124129201D01*
X150043797Y-124007671D01*
X150043793Y-124007664D01*
X149957547Y-123892455D01*
X149957544Y-123892452D01*
X149842335Y-123806206D01*
X149842328Y-123806202D01*
X149707482Y-123755908D01*
X149707483Y-123755908D01*
X149647883Y-123749501D01*
X149647881Y-123749500D01*
X149647873Y-123749500D01*
X149647864Y-123749500D01*
X147352129Y-123749500D01*
X147352123Y-123749501D01*
X147292516Y-123755908D01*
X147157671Y-123806202D01*
X147157664Y-123806206D01*
X147042455Y-123892452D01*
X147042452Y-123892455D01*
X146956206Y-124007664D01*
X146956202Y-124007671D01*
X146905908Y-124142517D01*
X146899501Y-124202116D01*
X146899501Y-124202123D01*
X146899500Y-124202135D01*
X144415584Y-124202135D01*
X144342654Y-124129205D01*
X144342649Y-124129201D01*
X144138848Y-123981132D01*
X144138847Y-123981131D01*
X144138845Y-123981130D01*
X144023485Y-123922351D01*
X143914383Y-123866760D01*
X143674785Y-123788910D01*
X143608914Y-123778477D01*
X143425962Y-123749500D01*
X143174038Y-123749500D01*
X143049626Y-123769205D01*
X142925214Y-123788910D01*
X142685616Y-123866760D01*
X142461151Y-123981132D01*
X142257350Y-124129201D01*
X142257345Y-124129205D01*
X142079205Y-124307345D01*
X142079201Y-124307350D01*
X141931132Y-124511151D01*
X141816760Y-124735616D01*
X141774403Y-124865978D01*
X141738910Y-124975215D01*
X141699500Y-125224038D01*
X133015416Y-125224038D01*
X132962896Y-125062396D01*
X132962895Y-125062393D01*
X132928237Y-124994375D01*
X132862815Y-124865978D01*
X132768102Y-124735616D01*
X132733247Y-124687641D01*
X132733243Y-124687636D01*
X132577363Y-124531756D01*
X132577358Y-124531752D01*
X132399025Y-124402187D01*
X132399024Y-124402186D01*
X132399022Y-124402185D01*
X132336096Y-124370122D01*
X132202606Y-124302104D01*
X132202603Y-124302103D01*
X131992952Y-124233985D01*
X131884086Y-124216742D01*
X131775222Y-124199500D01*
X131554778Y-124199500D01*
X131482201Y-124210995D01*
X131337047Y-124233985D01*
X131127396Y-124302103D01*
X131127393Y-124302104D01*
X130930974Y-124402187D01*
X130752641Y-124531752D01*
X130752636Y-124531756D01*
X130702075Y-124582317D01*
X130640752Y-124615801D01*
X130571060Y-124610816D01*
X130515127Y-124568945D01*
X130498213Y-124537968D01*
X130468354Y-124457913D01*
X130468350Y-124457906D01*
X130382190Y-124342812D01*
X130382187Y-124342809D01*
X130267093Y-124256649D01*
X130267086Y-124256645D01*
X130132379Y-124206403D01*
X130132372Y-124206401D01*
X130072844Y-124200000D01*
X129375000Y-124200000D01*
X129375000Y-125224722D01*
X129298694Y-125180667D01*
X129184244Y-125150000D01*
X129065756Y-125150000D01*
X128951306Y-125180667D01*
X128875000Y-125224722D01*
X128875000Y-124200000D01*
X128177155Y-124200000D01*
X128117627Y-124206401D01*
X128117620Y-124206403D01*
X127982913Y-124256645D01*
X127982906Y-124256649D01*
X127867812Y-124342809D01*
X127867809Y-124342812D01*
X127781649Y-124457906D01*
X127781645Y-124457913D01*
X127731403Y-124592620D01*
X127731401Y-124592627D01*
X127725000Y-124652155D01*
X122200500Y-124652155D01*
X122200500Y-122825513D01*
X134099500Y-122825513D01*
X134099500Y-123014486D01*
X134129059Y-123201118D01*
X134187454Y-123380836D01*
X134249174Y-123501967D01*
X134273240Y-123549199D01*
X134384310Y-123702073D01*
X134517927Y-123835690D01*
X134670801Y-123946760D01*
X134738256Y-123981130D01*
X134839163Y-124032545D01*
X134839165Y-124032545D01*
X134839168Y-124032547D01*
X134935497Y-124063846D01*
X135018881Y-124090940D01*
X135205514Y-124120500D01*
X135205519Y-124120500D01*
X135394486Y-124120500D01*
X135581118Y-124090940D01*
X135760832Y-124032547D01*
X135929199Y-123946760D01*
X136082073Y-123835690D01*
X136215690Y-123702073D01*
X136326760Y-123549199D01*
X136412547Y-123380832D01*
X136470940Y-123201118D01*
X136480876Y-123138386D01*
X136500500Y-123014486D01*
X136500500Y-122825513D01*
X137199500Y-122825513D01*
X137199500Y-123014486D01*
X137229059Y-123201118D01*
X137287454Y-123380836D01*
X137349174Y-123501967D01*
X137373240Y-123549199D01*
X137484310Y-123702073D01*
X137617927Y-123835690D01*
X137770801Y-123946760D01*
X137838256Y-123981130D01*
X137939163Y-124032545D01*
X137939165Y-124032545D01*
X137939168Y-124032547D01*
X138035497Y-124063846D01*
X138118881Y-124090940D01*
X138305514Y-124120500D01*
X138305519Y-124120500D01*
X138494486Y-124120500D01*
X138681118Y-124090940D01*
X138860832Y-124032547D01*
X139029199Y-123946760D01*
X139182073Y-123835690D01*
X139315690Y-123702073D01*
X139426760Y-123549199D01*
X139512547Y-123380832D01*
X139570940Y-123201118D01*
X139580876Y-123138386D01*
X139600500Y-123014486D01*
X139600500Y-122825513D01*
X139570940Y-122638881D01*
X139512545Y-122459163D01*
X139465556Y-122366942D01*
X139439351Y-122315513D01*
X151499500Y-122315513D01*
X151499500Y-122504486D01*
X151529059Y-122691118D01*
X151587454Y-122870836D01*
X151660648Y-123014486D01*
X151673240Y-123039199D01*
X151784310Y-123192073D01*
X151917927Y-123325690D01*
X152070801Y-123436760D01*
X152150347Y-123477290D01*
X152239163Y-123522545D01*
X152239165Y-123522545D01*
X152239168Y-123522547D01*
X152321194Y-123549199D01*
X152418881Y-123580940D01*
X152605514Y-123610500D01*
X152605519Y-123610500D01*
X152794486Y-123610500D01*
X152981118Y-123580940D01*
X153160832Y-123522547D01*
X153329199Y-123436760D01*
X153482073Y-123325690D01*
X153615690Y-123192073D01*
X153726760Y-123039199D01*
X153812547Y-122870832D01*
X153870940Y-122691118D01*
X153879213Y-122638882D01*
X153900500Y-122504486D01*
X153900500Y-122315513D01*
X153870940Y-122128881D01*
X153812545Y-121949163D01*
X153751008Y-121828390D01*
X153726760Y-121780801D01*
X153615690Y-121627927D01*
X153482073Y-121494310D01*
X153329199Y-121383240D01*
X153160836Y-121297454D01*
X152981118Y-121239059D01*
X152794486Y-121209500D01*
X152794481Y-121209500D01*
X152605519Y-121209500D01*
X152605514Y-121209500D01*
X152418881Y-121239059D01*
X152239163Y-121297454D01*
X152070800Y-121383240D01*
X151983579Y-121446610D01*
X151917927Y-121494310D01*
X151917925Y-121494312D01*
X151917924Y-121494312D01*
X151784312Y-121627924D01*
X151784312Y-121627925D01*
X151784310Y-121627927D01*
X151736610Y-121693579D01*
X151673240Y-121780800D01*
X151587454Y-121949163D01*
X151529059Y-122128881D01*
X151499500Y-122315513D01*
X139439351Y-122315513D01*
X139426759Y-122290800D01*
X139315690Y-122137927D01*
X139182073Y-122004310D01*
X139029199Y-121893240D01*
X138860836Y-121807454D01*
X138681118Y-121749059D01*
X138494486Y-121719500D01*
X138494481Y-121719500D01*
X138305519Y-121719500D01*
X138305514Y-121719500D01*
X138118881Y-121749059D01*
X137939163Y-121807454D01*
X137770800Y-121893240D01*
X137693830Y-121949163D01*
X137617927Y-122004310D01*
X137617925Y-122004312D01*
X137617924Y-122004312D01*
X137484312Y-122137924D01*
X137484312Y-122137925D01*
X137484310Y-122137927D01*
X137436610Y-122203579D01*
X137373240Y-122290800D01*
X137287454Y-122459163D01*
X137229059Y-122638881D01*
X137199500Y-122825513D01*
X136500500Y-122825513D01*
X136470940Y-122638881D01*
X136412545Y-122459163D01*
X136326759Y-122290800D01*
X136215690Y-122137927D01*
X136082073Y-122004310D01*
X135929199Y-121893240D01*
X135760836Y-121807454D01*
X135581118Y-121749059D01*
X135394486Y-121719500D01*
X135394481Y-121719500D01*
X135205519Y-121719500D01*
X135205514Y-121719500D01*
X135018881Y-121749059D01*
X134839163Y-121807454D01*
X134670800Y-121893240D01*
X134593830Y-121949163D01*
X134517927Y-122004310D01*
X134517925Y-122004312D01*
X134517924Y-122004312D01*
X134384312Y-122137924D01*
X134384312Y-122137925D01*
X134384310Y-122137927D01*
X134336610Y-122203579D01*
X134273240Y-122290800D01*
X134187454Y-122459163D01*
X134129059Y-122638881D01*
X134099500Y-122825513D01*
X122200500Y-122825513D01*
X122200500Y-117752155D01*
X124115000Y-117752155D01*
X124115000Y-119050000D01*
X125395936Y-119050000D01*
X125384207Y-119078316D01*
X125355000Y-119225147D01*
X125355000Y-119374853D01*
X125384207Y-119521684D01*
X125395936Y-119550000D01*
X124115000Y-119550000D01*
X124115000Y-120847844D01*
X124121401Y-120907372D01*
X124121403Y-120907379D01*
X124171645Y-121042086D01*
X124171649Y-121042093D01*
X124257809Y-121157187D01*
X124257812Y-121157190D01*
X124372906Y-121243350D01*
X124372913Y-121243354D01*
X124507620Y-121293596D01*
X124507627Y-121293598D01*
X124567155Y-121299999D01*
X124567172Y-121300000D01*
X125865000Y-121300000D01*
X125865000Y-120019064D01*
X125893316Y-120030793D01*
X126040147Y-120060000D01*
X126189853Y-120060000D01*
X126336684Y-120030793D01*
X126365000Y-120019064D01*
X126365000Y-121300000D01*
X127662828Y-121300000D01*
X127662844Y-121299999D01*
X127722372Y-121293598D01*
X127722379Y-121293596D01*
X127857086Y-121243354D01*
X127857093Y-121243350D01*
X127972187Y-121157190D01*
X127972190Y-121157187D01*
X128058350Y-121042093D01*
X128058354Y-121042086D01*
X128108596Y-120907379D01*
X128108598Y-120907372D01*
X128114999Y-120847844D01*
X128115000Y-120847827D01*
X128115000Y-119550000D01*
X126834064Y-119550000D01*
X126845793Y-119521684D01*
X126875000Y-119374853D01*
X126875000Y-119225147D01*
X126845793Y-119078316D01*
X126834064Y-119050000D01*
X128115000Y-119050000D01*
X128115000Y-117752172D01*
X128114999Y-117752155D01*
X128108598Y-117692627D01*
X128108596Y-117692620D01*
X128058354Y-117557913D01*
X128058350Y-117557906D01*
X127972190Y-117442812D01*
X127944445Y-117422042D01*
X127944443Y-117422040D01*
X127857093Y-117356649D01*
X127857086Y-117356645D01*
X127779340Y-117327648D01*
X155394500Y-117327648D01*
X155394500Y-117532351D01*
X155426522Y-117734534D01*
X155489781Y-117929223D01*
X155582715Y-118111613D01*
X155703028Y-118277213D01*
X155847786Y-118421971D01*
X156002749Y-118534556D01*
X156013390Y-118542287D01*
X156104840Y-118588883D01*
X156106080Y-118589515D01*
X156156876Y-118637490D01*
X156173671Y-118705311D01*
X156151134Y-118771446D01*
X156106080Y-118810485D01*
X156013386Y-118857715D01*
X155847786Y-118978028D01*
X155703028Y-119122786D01*
X155582715Y-119288386D01*
X155489781Y-119470776D01*
X155426522Y-119665465D01*
X155394500Y-119867648D01*
X155394500Y-120072351D01*
X155426522Y-120274534D01*
X155489781Y-120469223D01*
X155582715Y-120651613D01*
X155703028Y-120817213D01*
X155847786Y-120961971D01*
X155958067Y-121042093D01*
X156013390Y-121082287D01*
X156104840Y-121128883D01*
X156106080Y-121129515D01*
X156156876Y-121177490D01*
X156173671Y-121245311D01*
X156151134Y-121311446D01*
X156106080Y-121350485D01*
X156013386Y-121397715D01*
X155847786Y-121518028D01*
X155703028Y-121662786D01*
X155582715Y-121828386D01*
X155489781Y-122010776D01*
X155426522Y-122205465D01*
X155394500Y-122407648D01*
X155394500Y-122612351D01*
X155426522Y-122814534D01*
X155489781Y-123009223D01*
X155582715Y-123191613D01*
X155703028Y-123357213D01*
X155847786Y-123501971D01*
X155956480Y-123580940D01*
X156013390Y-123622287D01*
X156129607Y-123681503D01*
X156195776Y-123715218D01*
X156195778Y-123715218D01*
X156195781Y-123715220D01*
X156300137Y-123749127D01*
X156390465Y-123778477D01*
X156456336Y-123788910D01*
X156592648Y-123810500D01*
X156592649Y-123810500D01*
X156797351Y-123810500D01*
X156797352Y-123810500D01*
X156999534Y-123778477D01*
X157194219Y-123715220D01*
X157376610Y-123622287D01*
X157477208Y-123549199D01*
X157542213Y-123501971D01*
X157542215Y-123501968D01*
X157542219Y-123501966D01*
X157686966Y-123357219D01*
X157686968Y-123357215D01*
X157686971Y-123357213D01*
X157739732Y-123284590D01*
X157807287Y-123191610D01*
X157900220Y-123009219D01*
X157963477Y-122814534D01*
X157995500Y-122612352D01*
X157995500Y-122407648D01*
X157963477Y-122205466D01*
X157900220Y-122010781D01*
X157900218Y-122010778D01*
X157900218Y-122010776D01*
X157866503Y-121944607D01*
X157807287Y-121828390D01*
X157749651Y-121749060D01*
X157686971Y-121662786D01*
X157542213Y-121518028D01*
X157376614Y-121397715D01*
X157348205Y-121383240D01*
X157283917Y-121350483D01*
X157233123Y-121302511D01*
X157216328Y-121234690D01*
X157238865Y-121168555D01*
X157283917Y-121129516D01*
X157376610Y-121082287D01*
X157431933Y-121042093D01*
X157542213Y-120961971D01*
X157542215Y-120961968D01*
X157542219Y-120961966D01*
X157686966Y-120817219D01*
X157686968Y-120817215D01*
X157686971Y-120817213D01*
X157757236Y-120720500D01*
X157807287Y-120651610D01*
X157900220Y-120469219D01*
X157963477Y-120274534D01*
X157995500Y-120072352D01*
X157995500Y-119867648D01*
X157963477Y-119665466D01*
X157961699Y-119659995D01*
X157911651Y-119505962D01*
X157900220Y-119470781D01*
X157900218Y-119470778D01*
X157900218Y-119470776D01*
X157851342Y-119374853D01*
X157807287Y-119288390D01*
X157757236Y-119219500D01*
X157686971Y-119122786D01*
X157542213Y-118978028D01*
X157376614Y-118857715D01*
X157293817Y-118815528D01*
X157283917Y-118810483D01*
X157233123Y-118762511D01*
X157216328Y-118694690D01*
X157238865Y-118628555D01*
X157283917Y-118589516D01*
X157376610Y-118542287D01*
X157397770Y-118526913D01*
X157542213Y-118421971D01*
X157542215Y-118421968D01*
X157542219Y-118421966D01*
X157686966Y-118277219D01*
X157689650Y-118273524D01*
X157720100Y-118231615D01*
X157775429Y-118188949D01*
X157820418Y-118180500D01*
X158267770Y-118180500D01*
X158334809Y-118200185D01*
X158355451Y-118216819D01*
X160587048Y-120448415D01*
X160587049Y-120448416D01*
X160691584Y-120552951D01*
X160691585Y-120552952D01*
X160814498Y-120635080D01*
X160814511Y-120635087D01*
X160951082Y-120691656D01*
X160951087Y-120691658D01*
X160951091Y-120691658D01*
X160951092Y-120691659D01*
X161096079Y-120720500D01*
X161096082Y-120720500D01*
X163189582Y-120720500D01*
X163256621Y-120740185D01*
X163289900Y-120771615D01*
X163323028Y-120817212D01*
X163323032Y-120817217D01*
X163467786Y-120961971D01*
X163578067Y-121042093D01*
X163633390Y-121082287D01*
X163724840Y-121128883D01*
X163726080Y-121129515D01*
X163776876Y-121177490D01*
X163793671Y-121245311D01*
X163771134Y-121311446D01*
X163726080Y-121350485D01*
X163633386Y-121397715D01*
X163467786Y-121518028D01*
X163323028Y-121662786D01*
X163202715Y-121828386D01*
X163109781Y-122010776D01*
X163046522Y-122205465D01*
X163014500Y-122407648D01*
X163014500Y-122612351D01*
X163046522Y-122814534D01*
X163109781Y-123009223D01*
X163202715Y-123191613D01*
X163323028Y-123357213D01*
X163467786Y-123501971D01*
X163576480Y-123580940D01*
X163633390Y-123622287D01*
X163749607Y-123681503D01*
X163815776Y-123715218D01*
X163815778Y-123715218D01*
X163815781Y-123715220D01*
X163920137Y-123749127D01*
X164010465Y-123778477D01*
X164076336Y-123788910D01*
X164212648Y-123810500D01*
X164212649Y-123810500D01*
X164417351Y-123810500D01*
X164417352Y-123810500D01*
X164619534Y-123778477D01*
X164806746Y-123717648D01*
X166599500Y-123717648D01*
X166599500Y-123922351D01*
X166631522Y-124124534D01*
X166694781Y-124319223D01*
X166787715Y-124501613D01*
X166908028Y-124667213D01*
X167052786Y-124811971D01*
X167207749Y-124924556D01*
X167218390Y-124932287D01*
X167302639Y-124975214D01*
X167400776Y-125025218D01*
X167400778Y-125025218D01*
X167400781Y-125025220D01*
X167505137Y-125059127D01*
X167595465Y-125088477D01*
X167696557Y-125104488D01*
X167797648Y-125120500D01*
X167797649Y-125120500D01*
X168002351Y-125120500D01*
X168002352Y-125120500D01*
X168204534Y-125088477D01*
X168399219Y-125025220D01*
X168581610Y-124932287D01*
X168674590Y-124864732D01*
X168747213Y-124811971D01*
X168747215Y-124811968D01*
X168747219Y-124811966D01*
X168891966Y-124667219D01*
X168891968Y-124667215D01*
X168891971Y-124667213D01*
X168953650Y-124582317D01*
X169012287Y-124501610D01*
X169105220Y-124319219D01*
X169168477Y-124124534D01*
X169200500Y-123922352D01*
X169200500Y-123717648D01*
X169168477Y-123515466D01*
X169105220Y-123320781D01*
X169105218Y-123320778D01*
X169105218Y-123320776D01*
X169071503Y-123254607D01*
X169012287Y-123138390D01*
X169004556Y-123127749D01*
X168891971Y-122972786D01*
X168747213Y-122828028D01*
X168581613Y-122707715D01*
X168581612Y-122707714D01*
X168581610Y-122707713D01*
X168524653Y-122678691D01*
X168399223Y-122614781D01*
X168204534Y-122551522D01*
X168029995Y-122523878D01*
X168002352Y-122519500D01*
X167797648Y-122519500D01*
X167773329Y-122523351D01*
X167595465Y-122551522D01*
X167400776Y-122614781D01*
X167218386Y-122707715D01*
X167052786Y-122828028D01*
X166908028Y-122972786D01*
X166787715Y-123138386D01*
X166694781Y-123320776D01*
X166631522Y-123515465D01*
X166599500Y-123717648D01*
X164806746Y-123717648D01*
X164814219Y-123715220D01*
X164996610Y-123622287D01*
X164996614Y-123622284D01*
X165010141Y-123612457D01*
X165010141Y-123612456D01*
X165012834Y-123610500D01*
X165162219Y-123501966D01*
X165306966Y-123357219D01*
X165306968Y-123357215D01*
X165306971Y-123357213D01*
X165359732Y-123284590D01*
X165427287Y-123191610D01*
X165520220Y-123009219D01*
X165583477Y-122814534D01*
X165615500Y-122612352D01*
X165615500Y-122407648D01*
X165583477Y-122205466D01*
X165520220Y-122010781D01*
X165520218Y-122010778D01*
X165520218Y-122010776D01*
X165486503Y-121944607D01*
X165427287Y-121828390D01*
X165369651Y-121749060D01*
X165306971Y-121662786D01*
X165162213Y-121518028D01*
X164996614Y-121397715D01*
X164968205Y-121383240D01*
X164903917Y-121350483D01*
X164853123Y-121302511D01*
X164836328Y-121234690D01*
X164858865Y-121168555D01*
X164903917Y-121129516D01*
X164996610Y-121082287D01*
X165051933Y-121042093D01*
X165162213Y-120961971D01*
X165162215Y-120961968D01*
X165162219Y-120961966D01*
X165306966Y-120817219D01*
X165306968Y-120817215D01*
X165306971Y-120817213D01*
X165377236Y-120720500D01*
X165427287Y-120651610D01*
X165520220Y-120469219D01*
X165583477Y-120274534D01*
X165615500Y-120072352D01*
X165615500Y-119867648D01*
X165583477Y-119665466D01*
X165581699Y-119659995D01*
X165531651Y-119505962D01*
X165520220Y-119470781D01*
X165520218Y-119470778D01*
X165520218Y-119470776D01*
X165435985Y-119305461D01*
X165427287Y-119288390D01*
X165402329Y-119254038D01*
X168399500Y-119254038D01*
X168399500Y-119505961D01*
X168438910Y-119754785D01*
X168516760Y-119994383D01*
X168631132Y-120218848D01*
X168779201Y-120422649D01*
X168779205Y-120422654D01*
X168957345Y-120600794D01*
X168957350Y-120600798D01*
X169122107Y-120720500D01*
X169161155Y-120748870D01*
X169295284Y-120817212D01*
X169385616Y-120863239D01*
X169385618Y-120863239D01*
X169385621Y-120863241D01*
X169625215Y-120941090D01*
X169874038Y-120980500D01*
X169874039Y-120980500D01*
X170125961Y-120980500D01*
X170125962Y-120980500D01*
X170374785Y-120941090D01*
X170614379Y-120863241D01*
X170838845Y-120748870D01*
X171042656Y-120600793D01*
X171220793Y-120422656D01*
X171368870Y-120218845D01*
X171483241Y-119994379D01*
X171561090Y-119754785D01*
X171600500Y-119505962D01*
X171600500Y-119254038D01*
X171595030Y-119219500D01*
X171579939Y-119124218D01*
X171577508Y-119108872D01*
X176099500Y-119108872D01*
X176099500Y-119371127D01*
X176126123Y-119573339D01*
X176133730Y-119631116D01*
X176201602Y-119884418D01*
X176201605Y-119884428D01*
X176301953Y-120126690D01*
X176301958Y-120126700D01*
X176433075Y-120353803D01*
X176592718Y-120561851D01*
X176592726Y-120561860D01*
X176778140Y-120747274D01*
X176778148Y-120747281D01*
X176986196Y-120906924D01*
X177213299Y-121038041D01*
X177213309Y-121038046D01*
X177455571Y-121138394D01*
X177455581Y-121138398D01*
X177708884Y-121206270D01*
X177968880Y-121240500D01*
X177968887Y-121240500D01*
X178231113Y-121240500D01*
X178231120Y-121240500D01*
X178491116Y-121206270D01*
X178744419Y-121138398D01*
X178921340Y-121065114D01*
X178986690Y-121038046D01*
X178986691Y-121038045D01*
X178986697Y-121038043D01*
X179213803Y-120906924D01*
X179421851Y-120747282D01*
X179421855Y-120747277D01*
X179421860Y-120747274D01*
X179607274Y-120561860D01*
X179607277Y-120561855D01*
X179607282Y-120561851D01*
X179766924Y-120353803D01*
X179898043Y-120126697D01*
X179998398Y-119884419D01*
X180066270Y-119631116D01*
X180100500Y-119371120D01*
X180100500Y-119108880D01*
X180066270Y-118848884D01*
X179998398Y-118595581D01*
X179998394Y-118595571D01*
X179898046Y-118353309D01*
X179898041Y-118353299D01*
X179766924Y-118126196D01*
X179607281Y-117918148D01*
X179607274Y-117918140D01*
X179421860Y-117732726D01*
X179421851Y-117732718D01*
X179213803Y-117573075D01*
X178986700Y-117441958D01*
X178986690Y-117441953D01*
X178744428Y-117341605D01*
X178744421Y-117341603D01*
X178744419Y-117341602D01*
X178491116Y-117273730D01*
X178433339Y-117266123D01*
X178231127Y-117239500D01*
X178231120Y-117239500D01*
X177968880Y-117239500D01*
X177968872Y-117239500D01*
X177737772Y-117269926D01*
X177708884Y-117273730D01*
X177507658Y-117327648D01*
X177455581Y-117341602D01*
X177455571Y-117341605D01*
X177213309Y-117441953D01*
X177213299Y-117441958D01*
X176986196Y-117573075D01*
X176778148Y-117732718D01*
X176592718Y-117918148D01*
X176433075Y-118126196D01*
X176301958Y-118353299D01*
X176301953Y-118353309D01*
X176201605Y-118595571D01*
X176201602Y-118595581D01*
X176154480Y-118771446D01*
X176133730Y-118848885D01*
X176099500Y-119108872D01*
X171577508Y-119108872D01*
X171561090Y-119005214D01*
X171513164Y-118857715D01*
X171483241Y-118765621D01*
X171483239Y-118765618D01*
X171483239Y-118765616D01*
X171413402Y-118628555D01*
X171368870Y-118541155D01*
X171282278Y-118421971D01*
X171220798Y-118337350D01*
X171220794Y-118337345D01*
X171042654Y-118159205D01*
X171042649Y-118159201D01*
X170838848Y-118011132D01*
X170838847Y-118011131D01*
X170838845Y-118011130D01*
X170768747Y-117975413D01*
X170614383Y-117896760D01*
X170374785Y-117818910D01*
X170125962Y-117779500D01*
X169874038Y-117779500D01*
X169749626Y-117799205D01*
X169625214Y-117818910D01*
X169385616Y-117896760D01*
X169161151Y-118011132D01*
X168957350Y-118159201D01*
X168957345Y-118159205D01*
X168779205Y-118337345D01*
X168779201Y-118337350D01*
X168631132Y-118541151D01*
X168516760Y-118765616D01*
X168438910Y-119005214D01*
X168399500Y-119254038D01*
X165402329Y-119254038D01*
X165377236Y-119219500D01*
X165306971Y-119122786D01*
X165162213Y-118978028D01*
X164996614Y-118857715D01*
X164913817Y-118815528D01*
X164903917Y-118810483D01*
X164853123Y-118762511D01*
X164836328Y-118694690D01*
X164858865Y-118628555D01*
X164903917Y-118589516D01*
X164996610Y-118542287D01*
X165017770Y-118526913D01*
X165162213Y-118421971D01*
X165162215Y-118421968D01*
X165162219Y-118421966D01*
X165306966Y-118277219D01*
X165306968Y-118277215D01*
X165306971Y-118277213D01*
X165392710Y-118159201D01*
X165427287Y-118111610D01*
X165520220Y-117929219D01*
X165583477Y-117734534D01*
X165615500Y-117532352D01*
X165615500Y-117327648D01*
X165583477Y-117125466D01*
X165520220Y-116930781D01*
X165520218Y-116930778D01*
X165520218Y-116930776D01*
X165448743Y-116790500D01*
X165427287Y-116748390D01*
X165416682Y-116733793D01*
X165306971Y-116582786D01*
X165162213Y-116438028D01*
X164996614Y-116317715D01*
X164989884Y-116314286D01*
X164903917Y-116270483D01*
X164853123Y-116222511D01*
X164836328Y-116154690D01*
X164858865Y-116088555D01*
X164903917Y-116049516D01*
X164996610Y-116002287D01*
X165097208Y-115929199D01*
X165162213Y-115881971D01*
X165162215Y-115881968D01*
X165162219Y-115881966D01*
X165306966Y-115737219D01*
X165306968Y-115737215D01*
X165306971Y-115737213D01*
X165359732Y-115664590D01*
X165427287Y-115571610D01*
X165520220Y-115389219D01*
X165583477Y-115194534D01*
X165615500Y-114992352D01*
X165615500Y-114787648D01*
X165596993Y-114670800D01*
X165583477Y-114585465D01*
X165520218Y-114390776D01*
X165486503Y-114324607D01*
X165427287Y-114208390D01*
X165392711Y-114160800D01*
X165306971Y-114042786D01*
X165162213Y-113898028D01*
X164996613Y-113777715D01*
X164996612Y-113777714D01*
X164996610Y-113777713D01*
X164937675Y-113747684D01*
X164814223Y-113684781D01*
X164619534Y-113621522D01*
X164444995Y-113593878D01*
X164417352Y-113589500D01*
X164212648Y-113589500D01*
X164188329Y-113593351D01*
X164010465Y-113621522D01*
X163815776Y-113684781D01*
X163633386Y-113777715D01*
X163467786Y-113898028D01*
X163323028Y-114042786D01*
X163202715Y-114208386D01*
X163109781Y-114390776D01*
X163046522Y-114585465D01*
X163014500Y-114787648D01*
X163014500Y-114992351D01*
X163046522Y-115194534D01*
X163109781Y-115389223D01*
X163161117Y-115489973D01*
X163199235Y-115564785D01*
X163202715Y-115571613D01*
X163323028Y-115737213D01*
X163467786Y-115881971D01*
X163576480Y-115960940D01*
X163633390Y-116002287D01*
X163724840Y-116048883D01*
X163726080Y-116049515D01*
X163776876Y-116097490D01*
X163793671Y-116165311D01*
X163771134Y-116231446D01*
X163726080Y-116270485D01*
X163633386Y-116317715D01*
X163467786Y-116438028D01*
X163323028Y-116582786D01*
X163202715Y-116748386D01*
X163109781Y-116930776D01*
X163046522Y-117125465D01*
X163014500Y-117327648D01*
X163014500Y-117532351D01*
X163046522Y-117734534D01*
X163109781Y-117929223D01*
X163202715Y-118111613D01*
X163323028Y-118277213D01*
X163467786Y-118421971D01*
X163622749Y-118534556D01*
X163633390Y-118542287D01*
X163724840Y-118588883D01*
X163726080Y-118589515D01*
X163776876Y-118637490D01*
X163793671Y-118705311D01*
X163771134Y-118771446D01*
X163726080Y-118810485D01*
X163633386Y-118857715D01*
X163467786Y-118978028D01*
X163323032Y-119122782D01*
X163323028Y-119122787D01*
X163289900Y-119168385D01*
X163234571Y-119211051D01*
X163189582Y-119219500D01*
X161532229Y-119219500D01*
X161465190Y-119199815D01*
X161444548Y-119183181D01*
X159108421Y-116847052D01*
X159108420Y-116847051D01*
X159014192Y-116784091D01*
X158985495Y-116764916D01*
X158985493Y-116764915D01*
X158985490Y-116764913D01*
X158848917Y-116708343D01*
X158848907Y-116708340D01*
X158703920Y-116679500D01*
X158703918Y-116679500D01*
X157820418Y-116679500D01*
X157753379Y-116659815D01*
X157720100Y-116628385D01*
X157686971Y-116582787D01*
X157686967Y-116582782D01*
X157542217Y-116438032D01*
X157542212Y-116438028D01*
X157448051Y-116369616D01*
X157405385Y-116314286D01*
X157399406Y-116244673D01*
X157432012Y-116182878D01*
X157481933Y-116151592D01*
X157564117Y-116124359D01*
X157564124Y-116124356D01*
X157713345Y-116032315D01*
X157837315Y-115908345D01*
X157929356Y-115759124D01*
X157929358Y-115759119D01*
X157984505Y-115592697D01*
X157984506Y-115592690D01*
X157994999Y-115489986D01*
X157995000Y-115489973D01*
X157995000Y-115140000D01*
X157010686Y-115140000D01*
X157015080Y-115135606D01*
X157067741Y-115044394D01*
X157095000Y-114942661D01*
X157095000Y-114837339D01*
X157067741Y-114735606D01*
X157015080Y-114644394D01*
X157010686Y-114640000D01*
X157994999Y-114640000D01*
X157994999Y-114290028D01*
X157994998Y-114290013D01*
X157984505Y-114187302D01*
X157929358Y-114020880D01*
X157929356Y-114020875D01*
X157837315Y-113871654D01*
X157713345Y-113747684D01*
X157564124Y-113655643D01*
X157564119Y-113655641D01*
X157397697Y-113600494D01*
X157397690Y-113600493D01*
X157294986Y-113590000D01*
X156945000Y-113590000D01*
X156945000Y-114574314D01*
X156940606Y-114569920D01*
X156849394Y-114517259D01*
X156747661Y-114490000D01*
X156642339Y-114490000D01*
X156540606Y-114517259D01*
X156449394Y-114569920D01*
X156445000Y-114574314D01*
X156445000Y-113590000D01*
X156095028Y-113590000D01*
X156095012Y-113590001D01*
X155992302Y-113600494D01*
X155825880Y-113655641D01*
X155825875Y-113655643D01*
X155676654Y-113747684D01*
X155552684Y-113871654D01*
X155460643Y-114020875D01*
X155460641Y-114020880D01*
X155405494Y-114187302D01*
X155405493Y-114187309D01*
X155395000Y-114290013D01*
X155395000Y-114640000D01*
X156379314Y-114640000D01*
X156374920Y-114644394D01*
X156322259Y-114735606D01*
X156295000Y-114837339D01*
X156295000Y-114942661D01*
X156322259Y-115044394D01*
X156374920Y-115135606D01*
X156379314Y-115140000D01*
X155395001Y-115140000D01*
X155395001Y-115489986D01*
X155405494Y-115592697D01*
X155460641Y-115759119D01*
X155460643Y-115759124D01*
X155552684Y-115908345D01*
X155676654Y-116032315D01*
X155825875Y-116124356D01*
X155825882Y-116124359D01*
X155908067Y-116151592D01*
X155965512Y-116191364D01*
X155992336Y-116255880D01*
X155980021Y-116324656D01*
X155941949Y-116369616D01*
X155847787Y-116438028D01*
X155847782Y-116438032D01*
X155703028Y-116582786D01*
X155582715Y-116748386D01*
X155489781Y-116930776D01*
X155426522Y-117125465D01*
X155394500Y-117327648D01*
X127779340Y-117327648D01*
X127722379Y-117306403D01*
X127722372Y-117306401D01*
X127662844Y-117300000D01*
X126365000Y-117300000D01*
X126365000Y-118580935D01*
X126336684Y-118569207D01*
X126189853Y-118540000D01*
X126040147Y-118540000D01*
X125893316Y-118569207D01*
X125865000Y-118580935D01*
X125865000Y-117300000D01*
X124567155Y-117300000D01*
X124507627Y-117306401D01*
X124507620Y-117306403D01*
X124372913Y-117356645D01*
X124372906Y-117356649D01*
X124257812Y-117442809D01*
X124257809Y-117442812D01*
X124171649Y-117557906D01*
X124171645Y-117557913D01*
X124121403Y-117692620D01*
X124121401Y-117692627D01*
X124115000Y-117752155D01*
X122200500Y-117752155D01*
X122200500Y-114088872D01*
X124114500Y-114088872D01*
X124114500Y-114351127D01*
X124132784Y-114490000D01*
X124148730Y-114611116D01*
X124203418Y-114815214D01*
X124216602Y-114864418D01*
X124216605Y-114864428D01*
X124316953Y-115106690D01*
X124316958Y-115106700D01*
X124448075Y-115333803D01*
X124607718Y-115541851D01*
X124607726Y-115541860D01*
X124793140Y-115727274D01*
X124793148Y-115727281D01*
X124793149Y-115727282D01*
X124834646Y-115759124D01*
X125001196Y-115886924D01*
X125228299Y-116018041D01*
X125228309Y-116018046D01*
X125435331Y-116103797D01*
X125470581Y-116118398D01*
X125723884Y-116186270D01*
X125983880Y-116220500D01*
X125983887Y-116220500D01*
X126246113Y-116220500D01*
X126246120Y-116220500D01*
X126506116Y-116186270D01*
X126759419Y-116118398D01*
X126936340Y-116045114D01*
X127001690Y-116018046D01*
X127001691Y-116018045D01*
X127001697Y-116018043D01*
X127228803Y-115886924D01*
X127436851Y-115727282D01*
X127436855Y-115727277D01*
X127436860Y-115727274D01*
X127622274Y-115541860D01*
X127622277Y-115541855D01*
X127622282Y-115541851D01*
X127781924Y-115333803D01*
X127807214Y-115290000D01*
X127855992Y-115205513D01*
X134099500Y-115205513D01*
X134099500Y-115394486D01*
X134129059Y-115581118D01*
X134187454Y-115760836D01*
X134259550Y-115902331D01*
X134273240Y-115929199D01*
X134384310Y-116082073D01*
X134517927Y-116215690D01*
X134670801Y-116326760D01*
X134750347Y-116367290D01*
X134839163Y-116412545D01*
X134839165Y-116412545D01*
X134839168Y-116412547D01*
X134935497Y-116443846D01*
X135018881Y-116470940D01*
X135205514Y-116500500D01*
X135205519Y-116500500D01*
X135394486Y-116500500D01*
X135581118Y-116470940D01*
X135760832Y-116412547D01*
X135764273Y-116410794D01*
X135790399Y-116397482D01*
X135929199Y-116326760D01*
X136082073Y-116215690D01*
X136215690Y-116082073D01*
X136326760Y-115929199D01*
X136412547Y-115760832D01*
X136470940Y-115581118D01*
X136485376Y-115489973D01*
X136500500Y-115394486D01*
X136500500Y-115205513D01*
X137199500Y-115205513D01*
X137199500Y-115394486D01*
X137229059Y-115581118D01*
X137287454Y-115760836D01*
X137359550Y-115902331D01*
X137373240Y-115929199D01*
X137484310Y-116082073D01*
X137617927Y-116215690D01*
X137770801Y-116326760D01*
X137850347Y-116367290D01*
X137939163Y-116412545D01*
X137939165Y-116412545D01*
X137939168Y-116412547D01*
X138035497Y-116443846D01*
X138118881Y-116470940D01*
X138305514Y-116500500D01*
X138305519Y-116500500D01*
X138494486Y-116500500D01*
X138681118Y-116470940D01*
X138860832Y-116412547D01*
X138864273Y-116410794D01*
X138890399Y-116397482D01*
X139029199Y-116326760D01*
X139182073Y-116215690D01*
X139315690Y-116082073D01*
X139426760Y-115929199D01*
X139512547Y-115760832D01*
X139570940Y-115581118D01*
X139585376Y-115489973D01*
X139600500Y-115394486D01*
X139600500Y-115205513D01*
X139570940Y-115018881D01*
X139527270Y-114884481D01*
X139512547Y-114839168D01*
X139512545Y-114839165D01*
X139512545Y-114839163D01*
X139426759Y-114670800D01*
X139407574Y-114644394D01*
X139315690Y-114517927D01*
X139182073Y-114384310D01*
X139029199Y-114273240D01*
X138860836Y-114187454D01*
X138766298Y-114156737D01*
X138681118Y-114129059D01*
X138494486Y-114099500D01*
X138494481Y-114099500D01*
X138305519Y-114099500D01*
X138305514Y-114099500D01*
X138118881Y-114129059D01*
X137939163Y-114187454D01*
X137770800Y-114273240D01*
X137747694Y-114290028D01*
X137617927Y-114384310D01*
X137617925Y-114384312D01*
X137617924Y-114384312D01*
X137484312Y-114517924D01*
X137484312Y-114517925D01*
X137484310Y-114517927D01*
X137446535Y-114569920D01*
X137373240Y-114670800D01*
X137287454Y-114839163D01*
X137229059Y-115018881D01*
X137199500Y-115205513D01*
X136500500Y-115205513D01*
X136470940Y-115018881D01*
X136427270Y-114884481D01*
X136412547Y-114839168D01*
X136412545Y-114839165D01*
X136412545Y-114839163D01*
X136326759Y-114670800D01*
X136307574Y-114644394D01*
X136215690Y-114517927D01*
X136082073Y-114384310D01*
X135929199Y-114273240D01*
X135760836Y-114187454D01*
X135581118Y-114129059D01*
X135394486Y-114099500D01*
X135394481Y-114099500D01*
X135205519Y-114099500D01*
X135205514Y-114099500D01*
X135018881Y-114129059D01*
X134839163Y-114187454D01*
X134670800Y-114273240D01*
X134647694Y-114290028D01*
X134517927Y-114384310D01*
X134517925Y-114384312D01*
X134517924Y-114384312D01*
X134384312Y-114517924D01*
X134384312Y-114517925D01*
X134384310Y-114517927D01*
X134346535Y-114569920D01*
X134273240Y-114670800D01*
X134187454Y-114839163D01*
X134129059Y-115018881D01*
X134099500Y-115205513D01*
X127855992Y-115205513D01*
X127894597Y-115138647D01*
X127897784Y-115133126D01*
X127913043Y-115106697D01*
X128013398Y-114864419D01*
X128081270Y-114611116D01*
X128115500Y-114351120D01*
X128115500Y-114088880D01*
X128109346Y-114042135D01*
X141699500Y-114042135D01*
X141699500Y-116337870D01*
X141699501Y-116337876D01*
X141705908Y-116397483D01*
X141756202Y-116532328D01*
X141756206Y-116532335D01*
X141842452Y-116647544D01*
X141842455Y-116647547D01*
X141957664Y-116733793D01*
X141957671Y-116733797D01*
X142092517Y-116784091D01*
X142092516Y-116784091D01*
X142099444Y-116784835D01*
X142152127Y-116790500D01*
X144447872Y-116790499D01*
X144507483Y-116784091D01*
X144642331Y-116733796D01*
X144757546Y-116647546D01*
X144843796Y-116532331D01*
X144894091Y-116397483D01*
X144900500Y-116337873D01*
X144900499Y-115064038D01*
X146899500Y-115064038D01*
X146899500Y-115315962D01*
X146911936Y-115394481D01*
X146938910Y-115564785D01*
X147016760Y-115804383D01*
X147066666Y-115902328D01*
X147125626Y-116018043D01*
X147131132Y-116028848D01*
X147279201Y-116232649D01*
X147279205Y-116232654D01*
X147457345Y-116410794D01*
X147457350Y-116410798D01*
X147540129Y-116470940D01*
X147661155Y-116558870D01*
X147797586Y-116628385D01*
X147885616Y-116673239D01*
X147885618Y-116673239D01*
X147885621Y-116673241D01*
X148125215Y-116751090D01*
X148374038Y-116790500D01*
X148374039Y-116790500D01*
X148625961Y-116790500D01*
X148625962Y-116790500D01*
X148874785Y-116751090D01*
X149114379Y-116673241D01*
X149338845Y-116558870D01*
X149542656Y-116410793D01*
X149720793Y-116232656D01*
X149868870Y-116028845D01*
X149983241Y-115804379D01*
X150061090Y-115564785D01*
X150100500Y-115315962D01*
X150100500Y-115064038D01*
X150061090Y-114815215D01*
X150061089Y-114815211D01*
X150061089Y-114815210D01*
X150033066Y-114728965D01*
X150022197Y-114695513D01*
X151499500Y-114695513D01*
X151499500Y-114884486D01*
X151529059Y-115071118D01*
X151587454Y-115250836D01*
X151660648Y-115394486D01*
X151673240Y-115419199D01*
X151784310Y-115572073D01*
X151917927Y-115705690D01*
X152070801Y-115816760D01*
X152150347Y-115857290D01*
X152239163Y-115902545D01*
X152239165Y-115902545D01*
X152239168Y-115902547D01*
X152321194Y-115929199D01*
X152418881Y-115960940D01*
X152605514Y-115990500D01*
X152605519Y-115990500D01*
X152794486Y-115990500D01*
X152981118Y-115960940D01*
X153160832Y-115902547D01*
X153329199Y-115816760D01*
X153482073Y-115705690D01*
X153615690Y-115572073D01*
X153726760Y-115419199D01*
X153812547Y-115250832D01*
X153870940Y-115071118D01*
X153879213Y-115018882D01*
X153900500Y-114884486D01*
X153900500Y-114695513D01*
X153870940Y-114508881D01*
X153819691Y-114351155D01*
X153812547Y-114329168D01*
X153726760Y-114160801D01*
X153615690Y-114007927D01*
X153482073Y-113874310D01*
X153329199Y-113763240D01*
X153298669Y-113747684D01*
X153160836Y-113677454D01*
X152981118Y-113619059D01*
X152794486Y-113589500D01*
X152794481Y-113589500D01*
X152605519Y-113589500D01*
X152605514Y-113589500D01*
X152418881Y-113619059D01*
X152239163Y-113677454D01*
X152070800Y-113763240D01*
X151991123Y-113821130D01*
X151917927Y-113874310D01*
X151917925Y-113874312D01*
X151917924Y-113874312D01*
X151784312Y-114007924D01*
X151784312Y-114007925D01*
X151784310Y-114007927D01*
X151736610Y-114073579D01*
X151673240Y-114160800D01*
X151587454Y-114329163D01*
X151529059Y-114508881D01*
X151499500Y-114695513D01*
X150022197Y-114695513D01*
X149986440Y-114585466D01*
X149983241Y-114575621D01*
X149983239Y-114575618D01*
X149983239Y-114575616D01*
X149889060Y-114390781D01*
X149868870Y-114351155D01*
X149812262Y-114273240D01*
X149720798Y-114147350D01*
X149720794Y-114147345D01*
X149542654Y-113969205D01*
X149542649Y-113969201D01*
X149338848Y-113821132D01*
X149338847Y-113821131D01*
X149338845Y-113821130D01*
X149253634Y-113777713D01*
X149114383Y-113706760D01*
X148874785Y-113628910D01*
X148625962Y-113589500D01*
X148374038Y-113589500D01*
X148249626Y-113609205D01*
X148125214Y-113628910D01*
X147885616Y-113706760D01*
X147661151Y-113821132D01*
X147457350Y-113969201D01*
X147457345Y-113969205D01*
X147279205Y-114147345D01*
X147279201Y-114147350D01*
X147131132Y-114351151D01*
X147016760Y-114575616D01*
X146938910Y-114815214D01*
X146938910Y-114815215D01*
X146899500Y-115064038D01*
X144900499Y-115064038D01*
X144900499Y-114042128D01*
X144894091Y-113982517D01*
X144889124Y-113969201D01*
X144843797Y-113847671D01*
X144843793Y-113847664D01*
X144757547Y-113732455D01*
X144757544Y-113732452D01*
X144642335Y-113646206D01*
X144642328Y-113646202D01*
X144507482Y-113595908D01*
X144507483Y-113595908D01*
X144447883Y-113589501D01*
X144447881Y-113589500D01*
X144447873Y-113589500D01*
X144447864Y-113589500D01*
X142152129Y-113589500D01*
X142152123Y-113589501D01*
X142092516Y-113595908D01*
X141957671Y-113646202D01*
X141957664Y-113646206D01*
X141842455Y-113732452D01*
X141842452Y-113732455D01*
X141756206Y-113847664D01*
X141756202Y-113847671D01*
X141705908Y-113982517D01*
X141701784Y-114020880D01*
X141699501Y-114042123D01*
X141699500Y-114042135D01*
X128109346Y-114042135D01*
X128081270Y-113828884D01*
X128013398Y-113575581D01*
X128013394Y-113575571D01*
X127913046Y-113333309D01*
X127913041Y-113333299D01*
X127781924Y-113106196D01*
X127622281Y-112898148D01*
X127622274Y-112898140D01*
X127436860Y-112712726D01*
X127436851Y-112712718D01*
X127429635Y-112707181D01*
X127305770Y-112612135D01*
X176099500Y-112612135D01*
X176099500Y-115707870D01*
X176099501Y-115707876D01*
X176105908Y-115767483D01*
X176156202Y-115902328D01*
X176156206Y-115902335D01*
X176242452Y-116017544D01*
X176242455Y-116017547D01*
X176357664Y-116103793D01*
X176357671Y-116103797D01*
X176492517Y-116154091D01*
X176492516Y-116154091D01*
X176498088Y-116154690D01*
X176552127Y-116160500D01*
X179647872Y-116160499D01*
X179707483Y-116154091D01*
X179842331Y-116103796D01*
X179957546Y-116017546D01*
X180043796Y-115902331D01*
X180094091Y-115767483D01*
X180100500Y-115707873D01*
X180100499Y-112612128D01*
X180094091Y-112552517D01*
X180045395Y-112421957D01*
X180043797Y-112417671D01*
X180043793Y-112417664D01*
X179957547Y-112302455D01*
X179957544Y-112302452D01*
X179842335Y-112216206D01*
X179842328Y-112216202D01*
X179707482Y-112165908D01*
X179707483Y-112165908D01*
X179647883Y-112159501D01*
X179647881Y-112159500D01*
X179647873Y-112159500D01*
X179647864Y-112159500D01*
X176552129Y-112159500D01*
X176552123Y-112159501D01*
X176492516Y-112165908D01*
X176357671Y-112216202D01*
X176357664Y-112216206D01*
X176242455Y-112302452D01*
X176242452Y-112302455D01*
X176156206Y-112417664D01*
X176156202Y-112417671D01*
X176105908Y-112552517D01*
X176099501Y-112612116D01*
X176099501Y-112612123D01*
X176099500Y-112612135D01*
X127305770Y-112612135D01*
X127228803Y-112553075D01*
X127001700Y-112421958D01*
X127001690Y-112421953D01*
X126759428Y-112321605D01*
X126759421Y-112321603D01*
X126759419Y-112321602D01*
X126506116Y-112253730D01*
X126448339Y-112246123D01*
X126246127Y-112219500D01*
X126246120Y-112219500D01*
X125983880Y-112219500D01*
X125983872Y-112219500D01*
X125752772Y-112249926D01*
X125723884Y-112253730D01*
X125542050Y-112302452D01*
X125470581Y-112321602D01*
X125470571Y-112321605D01*
X125228309Y-112421953D01*
X125228299Y-112421958D01*
X125001196Y-112553075D01*
X124793148Y-112712718D01*
X124607718Y-112898148D01*
X124448075Y-113106196D01*
X124316958Y-113333299D01*
X124316953Y-113333309D01*
X124216605Y-113575571D01*
X124216602Y-113575581D01*
X124170488Y-113747684D01*
X124148730Y-113828885D01*
X124114500Y-114088872D01*
X122200500Y-114088872D01*
X122200500Y-108381947D01*
X134400000Y-108381947D01*
X134400000Y-108618052D01*
X134436934Y-108851247D01*
X134509897Y-109075802D01*
X134617087Y-109286174D01*
X134677338Y-109369104D01*
X134677340Y-109369105D01*
X135417037Y-108629408D01*
X135434075Y-108692993D01*
X135499901Y-108807007D01*
X135592993Y-108900099D01*
X135707007Y-108965925D01*
X135770590Y-108982962D01*
X135030893Y-109722658D01*
X135113828Y-109782914D01*
X135324197Y-109890102D01*
X135548752Y-109963065D01*
X135548751Y-109963065D01*
X135781948Y-110000000D01*
X136018052Y-110000000D01*
X136251247Y-109963065D01*
X136475802Y-109890102D01*
X136686163Y-109782918D01*
X136686169Y-109782914D01*
X136769104Y-109722658D01*
X136769105Y-109722658D01*
X136029408Y-108982962D01*
X136092993Y-108965925D01*
X136207007Y-108900099D01*
X136300099Y-108807007D01*
X136365925Y-108692993D01*
X136382962Y-108629409D01*
X137122658Y-109369105D01*
X137122658Y-109369104D01*
X137182914Y-109286169D01*
X137182918Y-109286163D01*
X137290102Y-109075802D01*
X137363065Y-108851247D01*
X137400000Y-108618052D01*
X137400000Y-108381947D01*
X137363065Y-108148751D01*
X137349540Y-108107124D01*
X137338171Y-108072135D01*
X168399500Y-108072135D01*
X168399500Y-110367870D01*
X168399501Y-110367876D01*
X168405908Y-110427483D01*
X168456202Y-110562328D01*
X168456206Y-110562335D01*
X168542452Y-110677544D01*
X168542455Y-110677547D01*
X168657664Y-110763793D01*
X168657671Y-110763797D01*
X168792517Y-110814091D01*
X168792516Y-110814091D01*
X168799444Y-110814835D01*
X168852127Y-110820500D01*
X171147872Y-110820499D01*
X171207483Y-110814091D01*
X171342331Y-110763796D01*
X171457546Y-110677546D01*
X171543796Y-110562331D01*
X171594091Y-110427483D01*
X171600500Y-110367873D01*
X171600499Y-108072128D01*
X171594091Y-108012517D01*
X171589422Y-108000000D01*
X171543797Y-107877671D01*
X171543793Y-107877664D01*
X171457547Y-107762455D01*
X171457544Y-107762452D01*
X171342335Y-107676206D01*
X171342328Y-107676202D01*
X171207482Y-107625908D01*
X171207483Y-107625908D01*
X171147883Y-107619501D01*
X171147881Y-107619500D01*
X171147873Y-107619500D01*
X171147864Y-107619500D01*
X168852129Y-107619500D01*
X168852123Y-107619501D01*
X168792516Y-107625908D01*
X168657671Y-107676202D01*
X168657664Y-107676206D01*
X168542455Y-107762452D01*
X168542452Y-107762455D01*
X168456206Y-107877664D01*
X168456202Y-107877671D01*
X168405908Y-108012517D01*
X168399501Y-108072116D01*
X168399501Y-108072123D01*
X168399500Y-108072135D01*
X137338171Y-108072135D01*
X137290101Y-107924195D01*
X137182914Y-107713828D01*
X137122658Y-107630894D01*
X137122658Y-107630893D01*
X136382962Y-108370590D01*
X136365925Y-108307007D01*
X136300099Y-108192993D01*
X136207007Y-108099901D01*
X136092993Y-108034075D01*
X136029409Y-108017037D01*
X136769105Y-107277340D01*
X136769104Y-107277338D01*
X136686174Y-107217087D01*
X136475802Y-107109897D01*
X136251247Y-107036934D01*
X136251248Y-107036934D01*
X136018052Y-107000000D01*
X135781948Y-107000000D01*
X135548752Y-107036934D01*
X135324197Y-107109897D01*
X135113830Y-107217084D01*
X135030894Y-107277340D01*
X135770591Y-108017037D01*
X135707007Y-108034075D01*
X135592993Y-108099901D01*
X135499901Y-108192993D01*
X135434075Y-108307007D01*
X135417037Y-108370590D01*
X134677340Y-107630894D01*
X134617084Y-107713830D01*
X134509897Y-107924197D01*
X134436934Y-108148752D01*
X134400000Y-108381947D01*
X122200500Y-108381947D01*
X122200500Y-104541874D01*
X122220185Y-104474835D01*
X122272989Y-104429080D01*
X122342147Y-104419136D01*
X122405703Y-104448161D01*
X122429494Y-104475903D01*
X122439162Y-104491289D01*
X122607266Y-104702085D01*
X122797915Y-104892734D01*
X123008711Y-105060838D01*
X123237003Y-105204284D01*
X123237005Y-105204285D01*
X123317975Y-105243278D01*
X123479921Y-105321267D01*
X123671049Y-105388145D01*
X123734397Y-105410312D01*
X123734405Y-105410315D01*
X123734408Y-105410315D01*
X123734409Y-105410316D01*
X123997268Y-105470312D01*
X124265187Y-105500499D01*
X124265188Y-105500500D01*
X124265191Y-105500500D01*
X124534812Y-105500500D01*
X124534812Y-105500499D01*
X124802732Y-105470312D01*
X125065591Y-105410316D01*
X125320079Y-105321267D01*
X125562997Y-105204284D01*
X125791289Y-105060838D01*
X126002085Y-104892734D01*
X126192734Y-104702085D01*
X126360838Y-104491289D01*
X126504284Y-104262997D01*
X126621267Y-104020079D01*
X126710316Y-103765591D01*
X126770312Y-103502732D01*
X126800500Y-103234809D01*
X126800500Y-102965191D01*
X126770312Y-102697268D01*
X126714362Y-102452135D01*
X134399500Y-102452135D01*
X134399500Y-104547870D01*
X134399501Y-104547876D01*
X134405908Y-104607483D01*
X134456202Y-104742328D01*
X134456206Y-104742335D01*
X134542452Y-104857544D01*
X134542455Y-104857547D01*
X134657664Y-104943793D01*
X134657671Y-104943797D01*
X134792517Y-104994091D01*
X134792516Y-104994091D01*
X134799444Y-104994835D01*
X134852127Y-105000500D01*
X136947872Y-105000499D01*
X137007483Y-104994091D01*
X137142331Y-104943796D01*
X137257546Y-104857546D01*
X137343796Y-104742331D01*
X137394091Y-104607483D01*
X137400500Y-104547873D01*
X137400500Y-104468872D01*
X146999500Y-104468872D01*
X146999500Y-104731127D01*
X147016145Y-104857547D01*
X147033730Y-104991116D01*
X147076303Y-105150000D01*
X147101602Y-105244418D01*
X147101605Y-105244428D01*
X147201953Y-105486690D01*
X147201958Y-105486700D01*
X147333075Y-105713803D01*
X147492718Y-105921851D01*
X147492726Y-105921860D01*
X147678140Y-106107274D01*
X147678148Y-106107281D01*
X147886196Y-106266924D01*
X148113299Y-106398041D01*
X148113309Y-106398046D01*
X148355571Y-106498394D01*
X148355581Y-106498398D01*
X148608884Y-106566270D01*
X148857188Y-106598960D01*
X148868864Y-106600498D01*
X148868880Y-106600500D01*
X148868887Y-106600500D01*
X149131113Y-106600500D01*
X149131120Y-106600500D01*
X149391116Y-106566270D01*
X149644419Y-106498398D01*
X149886697Y-106398043D01*
X150113803Y-106266924D01*
X150321851Y-106107282D01*
X150321855Y-106107277D01*
X150321860Y-106107274D01*
X150507274Y-105921860D01*
X150507277Y-105921855D01*
X150507282Y-105921851D01*
X150666924Y-105713803D01*
X150798043Y-105486697D01*
X150804830Y-105470313D01*
X150829681Y-105410316D01*
X150898398Y-105244419D01*
X150966270Y-104991116D01*
X151000500Y-104731120D01*
X151000500Y-104468880D01*
X151000499Y-104468872D01*
X151999500Y-104468872D01*
X151999500Y-104731127D01*
X152016145Y-104857547D01*
X152033730Y-104991116D01*
X152076303Y-105150000D01*
X152101602Y-105244418D01*
X152101605Y-105244428D01*
X152201953Y-105486690D01*
X152201958Y-105486700D01*
X152333075Y-105713803D01*
X152492718Y-105921851D01*
X152492726Y-105921860D01*
X152678140Y-106107274D01*
X152678148Y-106107281D01*
X152886196Y-106266924D01*
X153113299Y-106398041D01*
X153113309Y-106398046D01*
X153355571Y-106498394D01*
X153355581Y-106498398D01*
X153608884Y-106566270D01*
X153857188Y-106598960D01*
X153868864Y-106600498D01*
X153868880Y-106600500D01*
X153868887Y-106600500D01*
X154131113Y-106600500D01*
X154131120Y-106600500D01*
X154391116Y-106566270D01*
X154644419Y-106498398D01*
X154886697Y-106398043D01*
X155113803Y-106266924D01*
X155321851Y-106107282D01*
X155321855Y-106107277D01*
X155321860Y-106107274D01*
X155507274Y-105921860D01*
X155507277Y-105921855D01*
X155507282Y-105921851D01*
X155666924Y-105713803D01*
X155798043Y-105486697D01*
X155804830Y-105470313D01*
X155829681Y-105410316D01*
X155898398Y-105244419D01*
X155966270Y-104991116D01*
X156000500Y-104731120D01*
X156000500Y-104468880D01*
X155966270Y-104208884D01*
X155898398Y-103955581D01*
X155873926Y-103896501D01*
X155798046Y-103713309D01*
X155798041Y-103713299D01*
X155666924Y-103486196D01*
X155507281Y-103278148D01*
X155507274Y-103278140D01*
X155321860Y-103092726D01*
X155321851Y-103092718D01*
X155268963Y-103052135D01*
X156999500Y-103052135D01*
X156999500Y-106147870D01*
X156999501Y-106147876D01*
X157005908Y-106207483D01*
X157056202Y-106342328D01*
X157056206Y-106342335D01*
X157142452Y-106457544D01*
X157142455Y-106457547D01*
X157257664Y-106543793D01*
X157257671Y-106543797D01*
X157392517Y-106594091D01*
X157392516Y-106594091D01*
X157399444Y-106594835D01*
X157452127Y-106600500D01*
X160547872Y-106600499D01*
X160607483Y-106594091D01*
X160742331Y-106543796D01*
X160857546Y-106457546D01*
X160943796Y-106342331D01*
X160994091Y-106207483D01*
X161000500Y-106147873D01*
X161000499Y-103552135D01*
X167307000Y-103552135D01*
X167307000Y-105647870D01*
X167307001Y-105647876D01*
X167313408Y-105707483D01*
X167363702Y-105842328D01*
X167363706Y-105842335D01*
X167449952Y-105957544D01*
X167449955Y-105957547D01*
X167565164Y-106043793D01*
X167565171Y-106043797D01*
X167700017Y-106094091D01*
X167700016Y-106094091D01*
X167706944Y-106094835D01*
X167759627Y-106100500D01*
X169760372Y-106100499D01*
X169819983Y-106094091D01*
X169954831Y-106043796D01*
X170070046Y-105957546D01*
X170156296Y-105842331D01*
X170166690Y-105814460D01*
X170208560Y-105758527D01*
X170274023Y-105734108D01*
X170342297Y-105748958D01*
X170355746Y-105757465D01*
X170538462Y-105890217D01*
X170670599Y-105957544D01*
X170742244Y-105994049D01*
X170959751Y-106064721D01*
X170959752Y-106064721D01*
X170959755Y-106064722D01*
X171185646Y-106100500D01*
X171185647Y-106100500D01*
X171414353Y-106100500D01*
X171414354Y-106100500D01*
X171640245Y-106064722D01*
X171640248Y-106064721D01*
X171640249Y-106064721D01*
X171857755Y-105994049D01*
X171857755Y-105994048D01*
X171857758Y-105994048D01*
X172061538Y-105890217D01*
X172246566Y-105755786D01*
X172408286Y-105594066D01*
X172469992Y-105509134D01*
X172525319Y-105466470D01*
X172594932Y-105460491D01*
X172656727Y-105493096D01*
X172670626Y-105509135D01*
X172732097Y-105593741D01*
X172732097Y-105593742D01*
X172893757Y-105755402D01*
X173078723Y-105889788D01*
X173282429Y-105993582D01*
X173499871Y-106064234D01*
X173590000Y-106078509D01*
X173590000Y-105090747D01*
X173627708Y-105112518D01*
X173767591Y-105150000D01*
X173912409Y-105150000D01*
X174052292Y-105112518D01*
X174090000Y-105090747D01*
X174090000Y-106078508D01*
X174180128Y-106064234D01*
X174397570Y-105993582D01*
X174601276Y-105889788D01*
X174786242Y-105755402D01*
X174947902Y-105593742D01*
X175082288Y-105408776D01*
X175186082Y-105205070D01*
X175256734Y-104987628D01*
X175278532Y-104850000D01*
X174330748Y-104850000D01*
X174352518Y-104812292D01*
X174390000Y-104672409D01*
X174390000Y-104527591D01*
X174352518Y-104387708D01*
X174330748Y-104350000D01*
X175278532Y-104350000D01*
X175256734Y-104212371D01*
X175186082Y-103994929D01*
X175082288Y-103791223D01*
X174947902Y-103606257D01*
X174786242Y-103444597D01*
X174601276Y-103310211D01*
X174397568Y-103206417D01*
X174180124Y-103135765D01*
X174090000Y-103121490D01*
X174090000Y-104109252D01*
X174052292Y-104087482D01*
X173912409Y-104050000D01*
X173767591Y-104050000D01*
X173627708Y-104087482D01*
X173590000Y-104109252D01*
X173590000Y-103121490D01*
X173589999Y-103121490D01*
X173499875Y-103135765D01*
X173282431Y-103206417D01*
X173078723Y-103310211D01*
X172893757Y-103444597D01*
X172732097Y-103606257D01*
X172670627Y-103690864D01*
X172615297Y-103733529D01*
X172545684Y-103739508D01*
X172483889Y-103706902D01*
X172469991Y-103690864D01*
X172408286Y-103605934D01*
X172246566Y-103444214D01*
X172061538Y-103309783D01*
X171999435Y-103278140D01*
X171857755Y-103205950D01*
X171640248Y-103135278D01*
X171454812Y-103105908D01*
X171414354Y-103099500D01*
X171185646Y-103099500D01*
X171145188Y-103105908D01*
X170959753Y-103135278D01*
X170959750Y-103135278D01*
X170742244Y-103205950D01*
X170538461Y-103309783D01*
X170355759Y-103442525D01*
X170289952Y-103466005D01*
X170221898Y-103450180D01*
X170173203Y-103400074D01*
X170166690Y-103385538D01*
X170156296Y-103357669D01*
X170156293Y-103357664D01*
X170070047Y-103242455D01*
X170070044Y-103242452D01*
X169954835Y-103156206D01*
X169954828Y-103156202D01*
X169819982Y-103105908D01*
X169819983Y-103105908D01*
X169760383Y-103099501D01*
X169760381Y-103099500D01*
X169760373Y-103099500D01*
X169760364Y-103099500D01*
X167759629Y-103099500D01*
X167759623Y-103099501D01*
X167700016Y-103105908D01*
X167565171Y-103156202D01*
X167565164Y-103156206D01*
X167449955Y-103242452D01*
X167449952Y-103242455D01*
X167363706Y-103357664D01*
X167363702Y-103357671D01*
X167313408Y-103492517D01*
X167307001Y-103552116D01*
X167307000Y-103552135D01*
X161000499Y-103552135D01*
X161000499Y-103052128D01*
X160994091Y-102992517D01*
X160983897Y-102965186D01*
X160943797Y-102857671D01*
X160943793Y-102857664D01*
X160857547Y-102742455D01*
X160857544Y-102742452D01*
X160742335Y-102656206D01*
X160742328Y-102656202D01*
X160607482Y-102605908D01*
X160607483Y-102605908D01*
X160547883Y-102599501D01*
X160547881Y-102599500D01*
X160547873Y-102599500D01*
X160547864Y-102599500D01*
X157452129Y-102599500D01*
X157452123Y-102599501D01*
X157392516Y-102605908D01*
X157257671Y-102656202D01*
X157257664Y-102656206D01*
X157142455Y-102742452D01*
X157142452Y-102742455D01*
X157056206Y-102857664D01*
X157056202Y-102857671D01*
X157005908Y-102992517D01*
X157001437Y-103034108D01*
X156999501Y-103052123D01*
X156999500Y-103052135D01*
X155268963Y-103052135D01*
X155113803Y-102933075D01*
X154886700Y-102801958D01*
X154886690Y-102801953D01*
X154644428Y-102701605D01*
X154644421Y-102701603D01*
X154644419Y-102701602D01*
X154391116Y-102633730D01*
X154333339Y-102626123D01*
X154131127Y-102599500D01*
X154131120Y-102599500D01*
X153868880Y-102599500D01*
X153868872Y-102599500D01*
X153637772Y-102629926D01*
X153608884Y-102633730D01*
X153371756Y-102697268D01*
X153355581Y-102701602D01*
X153355571Y-102701605D01*
X153113309Y-102801953D01*
X153113299Y-102801958D01*
X152886196Y-102933075D01*
X152678148Y-103092718D01*
X152492718Y-103278148D01*
X152333075Y-103486196D01*
X152201958Y-103713299D01*
X152201953Y-103713309D01*
X152101605Y-103955571D01*
X152101602Y-103955581D01*
X152066260Y-104087482D01*
X152033730Y-104208885D01*
X151999500Y-104468872D01*
X151000499Y-104468872D01*
X150966270Y-104208884D01*
X150898398Y-103955581D01*
X150873926Y-103896501D01*
X150798046Y-103713309D01*
X150798041Y-103713299D01*
X150666924Y-103486196D01*
X150507281Y-103278148D01*
X150507274Y-103278140D01*
X150321860Y-103092726D01*
X150321851Y-103092718D01*
X150113803Y-102933075D01*
X149886700Y-102801958D01*
X149886690Y-102801953D01*
X149644428Y-102701605D01*
X149644421Y-102701603D01*
X149644419Y-102701602D01*
X149391116Y-102633730D01*
X149333339Y-102626123D01*
X149131127Y-102599500D01*
X149131120Y-102599500D01*
X148868880Y-102599500D01*
X148868872Y-102599500D01*
X148637772Y-102629926D01*
X148608884Y-102633730D01*
X148371756Y-102697268D01*
X148355581Y-102701602D01*
X148355571Y-102701605D01*
X148113309Y-102801953D01*
X148113299Y-102801958D01*
X147886196Y-102933075D01*
X147678148Y-103092718D01*
X147492718Y-103278148D01*
X147333075Y-103486196D01*
X147201958Y-103713299D01*
X147201953Y-103713309D01*
X147101605Y-103955571D01*
X147101602Y-103955581D01*
X147066260Y-104087482D01*
X147033730Y-104208885D01*
X146999500Y-104468872D01*
X137400500Y-104468872D01*
X137400499Y-103492517D01*
X137400499Y-102452129D01*
X137400498Y-102452123D01*
X137400497Y-102452116D01*
X137394091Y-102392517D01*
X137352095Y-102279921D01*
X137343797Y-102257671D01*
X137343793Y-102257664D01*
X137257547Y-102142455D01*
X137257544Y-102142452D01*
X137142335Y-102056206D01*
X137142328Y-102056202D01*
X137007482Y-102005908D01*
X137007483Y-102005908D01*
X136947883Y-101999501D01*
X136947881Y-101999500D01*
X136947873Y-101999500D01*
X136947864Y-101999500D01*
X134852129Y-101999500D01*
X134852123Y-101999501D01*
X134792516Y-102005908D01*
X134657671Y-102056202D01*
X134657664Y-102056206D01*
X134542455Y-102142452D01*
X134542452Y-102142455D01*
X134456206Y-102257664D01*
X134456202Y-102257671D01*
X134405908Y-102392517D01*
X134401406Y-102434397D01*
X134399501Y-102452123D01*
X134399500Y-102452135D01*
X126714362Y-102452135D01*
X126710316Y-102434409D01*
X126621267Y-102179921D01*
X126504284Y-101937003D01*
X126360838Y-101708711D01*
X126192734Y-101497915D01*
X126002085Y-101307266D01*
X125791289Y-101139162D01*
X125791290Y-101139162D01*
X125791288Y-101139161D01*
X125775825Y-101129445D01*
X125729535Y-101077109D01*
X125718888Y-101008055D01*
X125747264Y-100944208D01*
X125805655Y-100905837D01*
X125841791Y-100900452D01*
X178320045Y-100898756D01*
X178387085Y-100918438D01*
G37*
G04 #@! TD.AperFunction*
M02*
