%TF.GenerationSoftware,KiCad,Pcbnew,9.0.1*%
%TF.CreationDate,2025-08-15T11:03:45+05:00*%
%TF.ProjectId,transformerless_power_supply,7472616e-7366-46f7-926d-65726c657373,rev?*%
%TF.SameCoordinates,Original*%
%TF.FileFunction,Drillmap*%
%TF.FilePolarity,Positive*%
%FSLAX45Y45*%
G04 Gerber Fmt 4.5, Leading zero omitted, Abs format (unit mm)*
G04 Created by KiCad (PCBNEW 9.0.1) date 2025-08-15 11:03:45*
%MOMM*%
%LPD*%
G01*
G04 APERTURE LIST*
%ADD10C,0.050000*%
%ADD11C,0.200000*%
%ADD12C,0.100000*%
%ADD13C,0.110000*%
%ADD14C,0.120000*%
%ADD15C,0.152000*%
G04 APERTURE END LIST*
D10*
X11630333Y-11110000D02*
G75*
G02*
X11329667Y-11110000I-150333J0D01*
G01*
X11329667Y-11110000D02*
G75*
G02*
X11630333Y-11110000I150333J0D01*
G01*
X16740333Y-11100000D02*
G75*
G02*
X16439667Y-11100000I-150333J0D01*
G01*
X16439667Y-11100000D02*
G75*
G02*
X16740333Y-11100000I150333J0D01*
G01*
X11270000Y-7250000D02*
X16810000Y-7250000D01*
X16810000Y-11310000D01*
X11270000Y-11310000D01*
X11270000Y-7250000D01*
X16740333Y-7470000D02*
G75*
G02*
X16439667Y-7470000I-150333J0D01*
G01*
X16439667Y-7470000D02*
G75*
G02*
X16740333Y-7470000I150333J0D01*
G01*
X11630333Y-7460000D02*
G75*
G02*
X11329667Y-7460000I-150333J0D01*
G01*
X11329667Y-7460000D02*
G75*
G02*
X11630333Y-7460000I150333J0D01*
G01*
D11*
D12*
X11980000Y-7460000D02*
X12060000Y-7540000D01*
X12060000Y-7460000D02*
X11980000Y-7540000D01*
X11980000Y-8222000D02*
X12060000Y-8302000D01*
X12060000Y-8222000D02*
X11980000Y-8302000D01*
X12210000Y-10178000D02*
X12290000Y-10258000D01*
X12290000Y-10178000D02*
X12210000Y-10258000D01*
X12210000Y-10940000D02*
X12290000Y-11020000D01*
X12290000Y-10940000D02*
X12210000Y-11020000D01*
X13908000Y-10280000D02*
X13988000Y-10360000D01*
X13988000Y-10280000D02*
X13908000Y-10360000D01*
X13908000Y-10895000D02*
X13988000Y-10975000D01*
X13988000Y-10895000D02*
X13908000Y-10975000D01*
X14060000Y-8360000D02*
X14140000Y-8440000D01*
X14140000Y-8360000D02*
X14060000Y-8440000D01*
X14560000Y-8360000D02*
X14640000Y-8440000D01*
X14640000Y-8360000D02*
X14560000Y-8440000D01*
X14670000Y-10280000D02*
X14750000Y-10360000D01*
X14750000Y-10280000D02*
X14670000Y-10360000D01*
X14670000Y-10895000D02*
X14750000Y-10975000D01*
X14750000Y-10895000D02*
X14670000Y-10975000D01*
X11607500Y-10440000D02*
G75*
G02*
X11517500Y-10440000I-45000J0D01*
G01*
X11517500Y-10440000D02*
G75*
G02*
X11607500Y-10440000I45000J0D01*
G01*
X11861500Y-10440000D02*
G75*
G02*
X11771500Y-10440000I-45000J0D01*
G01*
X11771500Y-10440000D02*
G75*
G02*
X11861500Y-10440000I45000J0D01*
G01*
X15245000Y-9719000D02*
G75*
G02*
X15155000Y-9719000I-45000J0D01*
G01*
X15155000Y-9719000D02*
G75*
G02*
X15245000Y-9719000I45000J0D01*
G01*
X15245000Y-10481000D02*
G75*
G02*
X15155000Y-10481000I-45000J0D01*
G01*
X15155000Y-10481000D02*
G75*
G02*
X15245000Y-10481000I45000J0D01*
G01*
X15285000Y-8309000D02*
G75*
G02*
X15195000Y-8309000I-45000J0D01*
G01*
X15195000Y-8309000D02*
G75*
G02*
X15285000Y-8309000I45000J0D01*
G01*
X15285000Y-9071000D02*
G75*
G02*
X15195000Y-9071000I-45000J0D01*
G01*
X15195000Y-9071000D02*
G75*
G02*
X15285000Y-9071000I45000J0D01*
G01*
X14370000Y-9040000D02*
X14370000Y-9140000D01*
X14320000Y-9090000D02*
X14420000Y-9090000D01*
X14370000Y-9540000D02*
X14370000Y-9640000D01*
X14320000Y-9590000D02*
X14420000Y-9590000D01*
X15930000Y-8830000D02*
X15930000Y-8930000D01*
X15880000Y-8880000D02*
X15980000Y-8880000D01*
X16310000Y-8830000D02*
X16310000Y-8930000D01*
X16260000Y-8880000D02*
X16360000Y-8880000D01*
D13*
X12838891Y-8480891D02*
X12838891Y-8403109D01*
X12761109Y-8403109D01*
X12761109Y-8480891D01*
X12838891Y-8480891D01*
X12838891Y-9496891D02*
X12838891Y-9419109D01*
X12761109Y-9419109D01*
X12761109Y-9496891D01*
X12838891Y-9496891D01*
X12838891Y-9972891D02*
X12838891Y-9895109D01*
X12761109Y-9895109D01*
X12761109Y-9972891D01*
X12838891Y-9972891D01*
X12838891Y-10988891D02*
X12838891Y-10911109D01*
X12761109Y-10911109D01*
X12761109Y-10988891D01*
X12838891Y-10988891D01*
X13488891Y-8480891D02*
X13488891Y-8403109D01*
X13411109Y-8403109D01*
X13411109Y-8480891D01*
X13488891Y-8480891D01*
X13488891Y-9496891D02*
X13488891Y-9419109D01*
X13411109Y-9419109D01*
X13411109Y-9496891D01*
X13488891Y-9496891D01*
X13488891Y-9972891D02*
X13488891Y-9895109D01*
X13411109Y-9895109D01*
X13411109Y-9972891D01*
X13488891Y-9972891D01*
X13488891Y-10988891D02*
X13488891Y-10911109D01*
X13411109Y-10911109D01*
X13411109Y-10988891D01*
X13488891Y-10988891D01*
X15064891Y-7778891D02*
X15064891Y-7701109D01*
X14987109Y-7701109D01*
X14987109Y-7778891D01*
X15064891Y-7778891D01*
X15318891Y-7778891D02*
X15318891Y-7701109D01*
X15241109Y-7701109D01*
X15241109Y-7778891D01*
X15318891Y-7778891D01*
X15572891Y-7778891D02*
X15572891Y-7701109D01*
X15495109Y-7701109D01*
X15495109Y-7778891D01*
X15572891Y-7778891D01*
D14*
X12750000Y-7785000D02*
X12810000Y-7725000D01*
X12750000Y-7665000D01*
X12690000Y-7725000D01*
X12750000Y-7785000D01*
X14250000Y-7785000D02*
X14310000Y-7725000D01*
X14250000Y-7665000D01*
X14190000Y-7725000D01*
X14250000Y-7785000D01*
D15*
X11714000Y-8844000D02*
X11866000Y-8996000D01*
X11866000Y-8844000D02*
X11714000Y-8996000D01*
X11866000Y-8920000D02*
G75*
G02*
X11714000Y-8920000I-76000J0D01*
G01*
X11714000Y-8920000D02*
G75*
G02*
X11866000Y-8920000I76000J0D01*
G01*
X11714000Y-9352000D02*
X11866000Y-9504000D01*
X11866000Y-9352000D02*
X11714000Y-9504000D01*
X11866000Y-9428000D02*
G75*
G02*
X11714000Y-9428000I-76000J0D01*
G01*
X11714000Y-9428000D02*
G75*
G02*
X11866000Y-9428000I76000J0D01*
G01*
X15954000Y-9886000D02*
X16106000Y-10038000D01*
X16106000Y-9886000D02*
X15954000Y-10038000D01*
X16106000Y-9962000D02*
G75*
G02*
X15954000Y-9962000I-76000J0D01*
G01*
X15954000Y-9962000D02*
G75*
G02*
X16106000Y-9962000I76000J0D01*
G01*
X15954000Y-10394000D02*
X16106000Y-10546000D01*
X16106000Y-10394000D02*
X15954000Y-10546000D01*
X16106000Y-10470000D02*
G75*
G02*
X15954000Y-10470000I-76000J0D01*
G01*
X15954000Y-10470000D02*
G75*
G02*
X16106000Y-10470000I76000J0D01*
G01*
D11*
X11528277Y-11623984D02*
X11528277Y-11423984D01*
X11528277Y-11423984D02*
X11575896Y-11423984D01*
X11575896Y-11423984D02*
X11604467Y-11433508D01*
X11604467Y-11433508D02*
X11623515Y-11452555D01*
X11623515Y-11452555D02*
X11633039Y-11471603D01*
X11633039Y-11471603D02*
X11642562Y-11509698D01*
X11642562Y-11509698D02*
X11642562Y-11538269D01*
X11642562Y-11538269D02*
X11633039Y-11576365D01*
X11633039Y-11576365D02*
X11623515Y-11595412D01*
X11623515Y-11595412D02*
X11604467Y-11614460D01*
X11604467Y-11614460D02*
X11575896Y-11623984D01*
X11575896Y-11623984D02*
X11528277Y-11623984D01*
X11728277Y-11623984D02*
X11728277Y-11490650D01*
X11728277Y-11528746D02*
X11737801Y-11509698D01*
X11737801Y-11509698D02*
X11747324Y-11500174D01*
X11747324Y-11500174D02*
X11766372Y-11490650D01*
X11766372Y-11490650D02*
X11785420Y-11490650D01*
X11852086Y-11623984D02*
X11852086Y-11490650D01*
X11852086Y-11423984D02*
X11842562Y-11433508D01*
X11842562Y-11433508D02*
X11852086Y-11443031D01*
X11852086Y-11443031D02*
X11861610Y-11433508D01*
X11861610Y-11433508D02*
X11852086Y-11423984D01*
X11852086Y-11423984D02*
X11852086Y-11443031D01*
X11975896Y-11623984D02*
X11956848Y-11614460D01*
X11956848Y-11614460D02*
X11947324Y-11595412D01*
X11947324Y-11595412D02*
X11947324Y-11423984D01*
X12080658Y-11623984D02*
X12061610Y-11614460D01*
X12061610Y-11614460D02*
X12052086Y-11595412D01*
X12052086Y-11595412D02*
X12052086Y-11423984D01*
X12309229Y-11623984D02*
X12309229Y-11423984D01*
X12309229Y-11423984D02*
X12375896Y-11566841D01*
X12375896Y-11566841D02*
X12442562Y-11423984D01*
X12442562Y-11423984D02*
X12442562Y-11623984D01*
X12623515Y-11623984D02*
X12623515Y-11519222D01*
X12623515Y-11519222D02*
X12613991Y-11500174D01*
X12613991Y-11500174D02*
X12594943Y-11490650D01*
X12594943Y-11490650D02*
X12556848Y-11490650D01*
X12556848Y-11490650D02*
X12537801Y-11500174D01*
X12623515Y-11614460D02*
X12604467Y-11623984D01*
X12604467Y-11623984D02*
X12556848Y-11623984D01*
X12556848Y-11623984D02*
X12537801Y-11614460D01*
X12537801Y-11614460D02*
X12528277Y-11595412D01*
X12528277Y-11595412D02*
X12528277Y-11576365D01*
X12528277Y-11576365D02*
X12537801Y-11557317D01*
X12537801Y-11557317D02*
X12556848Y-11547793D01*
X12556848Y-11547793D02*
X12604467Y-11547793D01*
X12604467Y-11547793D02*
X12623515Y-11538269D01*
X12718753Y-11490650D02*
X12718753Y-11690650D01*
X12718753Y-11500174D02*
X12737801Y-11490650D01*
X12737801Y-11490650D02*
X12775896Y-11490650D01*
X12775896Y-11490650D02*
X12794943Y-11500174D01*
X12794943Y-11500174D02*
X12804467Y-11509698D01*
X12804467Y-11509698D02*
X12813991Y-11528746D01*
X12813991Y-11528746D02*
X12813991Y-11585888D01*
X12813991Y-11585888D02*
X12804467Y-11604936D01*
X12804467Y-11604936D02*
X12794943Y-11614460D01*
X12794943Y-11614460D02*
X12775896Y-11623984D01*
X12775896Y-11623984D02*
X12737801Y-11623984D01*
X12737801Y-11623984D02*
X12718753Y-11614460D01*
X12899705Y-11604936D02*
X12909229Y-11614460D01*
X12909229Y-11614460D02*
X12899705Y-11623984D01*
X12899705Y-11623984D02*
X12890182Y-11614460D01*
X12890182Y-11614460D02*
X12899705Y-11604936D01*
X12899705Y-11604936D02*
X12899705Y-11623984D01*
X12899705Y-11500174D02*
X12909229Y-11509698D01*
X12909229Y-11509698D02*
X12899705Y-11519222D01*
X12899705Y-11519222D02*
X12890182Y-11509698D01*
X12890182Y-11509698D02*
X12899705Y-11500174D01*
X12899705Y-11500174D02*
X12899705Y-11519222D01*
D12*
X11187500Y-11912500D02*
X11267500Y-11992500D01*
X11267500Y-11912500D02*
X11187500Y-11992500D01*
D11*
X11566372Y-11843984D02*
X11585420Y-11843984D01*
X11585420Y-11843984D02*
X11604467Y-11853508D01*
X11604467Y-11853508D02*
X11613991Y-11863031D01*
X11613991Y-11863031D02*
X11623515Y-11882079D01*
X11623515Y-11882079D02*
X11633039Y-11920174D01*
X11633039Y-11920174D02*
X11633039Y-11967793D01*
X11633039Y-11967793D02*
X11623515Y-12005888D01*
X11623515Y-12005888D02*
X11613991Y-12024936D01*
X11613991Y-12024936D02*
X11604467Y-12034460D01*
X11604467Y-12034460D02*
X11585420Y-12043984D01*
X11585420Y-12043984D02*
X11566372Y-12043984D01*
X11566372Y-12043984D02*
X11547324Y-12034460D01*
X11547324Y-12034460D02*
X11537801Y-12024936D01*
X11537801Y-12024936D02*
X11528277Y-12005888D01*
X11528277Y-12005888D02*
X11518753Y-11967793D01*
X11518753Y-11967793D02*
X11518753Y-11920174D01*
X11518753Y-11920174D02*
X11528277Y-11882079D01*
X11528277Y-11882079D02*
X11537801Y-11863031D01*
X11537801Y-11863031D02*
X11547324Y-11853508D01*
X11547324Y-11853508D02*
X11566372Y-11843984D01*
X11718753Y-12024936D02*
X11728277Y-12034460D01*
X11728277Y-12034460D02*
X11718753Y-12043984D01*
X11718753Y-12043984D02*
X11709229Y-12034460D01*
X11709229Y-12034460D02*
X11718753Y-12024936D01*
X11718753Y-12024936D02*
X11718753Y-12043984D01*
X11842562Y-11929698D02*
X11823515Y-11920174D01*
X11823515Y-11920174D02*
X11813991Y-11910650D01*
X11813991Y-11910650D02*
X11804467Y-11891603D01*
X11804467Y-11891603D02*
X11804467Y-11882079D01*
X11804467Y-11882079D02*
X11813991Y-11863031D01*
X11813991Y-11863031D02*
X11823515Y-11853508D01*
X11823515Y-11853508D02*
X11842562Y-11843984D01*
X11842562Y-11843984D02*
X11880658Y-11843984D01*
X11880658Y-11843984D02*
X11899705Y-11853508D01*
X11899705Y-11853508D02*
X11909229Y-11863031D01*
X11909229Y-11863031D02*
X11918753Y-11882079D01*
X11918753Y-11882079D02*
X11918753Y-11891603D01*
X11918753Y-11891603D02*
X11909229Y-11910650D01*
X11909229Y-11910650D02*
X11899705Y-11920174D01*
X11899705Y-11920174D02*
X11880658Y-11929698D01*
X11880658Y-11929698D02*
X11842562Y-11929698D01*
X11842562Y-11929698D02*
X11823515Y-11939222D01*
X11823515Y-11939222D02*
X11813991Y-11948746D01*
X11813991Y-11948746D02*
X11804467Y-11967793D01*
X11804467Y-11967793D02*
X11804467Y-12005888D01*
X11804467Y-12005888D02*
X11813991Y-12024936D01*
X11813991Y-12024936D02*
X11823515Y-12034460D01*
X11823515Y-12034460D02*
X11842562Y-12043984D01*
X11842562Y-12043984D02*
X11880658Y-12043984D01*
X11880658Y-12043984D02*
X11899705Y-12034460D01*
X11899705Y-12034460D02*
X11909229Y-12024936D01*
X11909229Y-12024936D02*
X11918753Y-12005888D01*
X11918753Y-12005888D02*
X11918753Y-11967793D01*
X11918753Y-11967793D02*
X11909229Y-11948746D01*
X11909229Y-11948746D02*
X11899705Y-11939222D01*
X11899705Y-11939222D02*
X11880658Y-11929698D01*
X12042562Y-11843984D02*
X12061610Y-11843984D01*
X12061610Y-11843984D02*
X12080658Y-11853508D01*
X12080658Y-11853508D02*
X12090182Y-11863031D01*
X12090182Y-11863031D02*
X12099705Y-11882079D01*
X12099705Y-11882079D02*
X12109229Y-11920174D01*
X12109229Y-11920174D02*
X12109229Y-11967793D01*
X12109229Y-11967793D02*
X12099705Y-12005888D01*
X12099705Y-12005888D02*
X12090182Y-12024936D01*
X12090182Y-12024936D02*
X12080658Y-12034460D01*
X12080658Y-12034460D02*
X12061610Y-12043984D01*
X12061610Y-12043984D02*
X12042562Y-12043984D01*
X12042562Y-12043984D02*
X12023515Y-12034460D01*
X12023515Y-12034460D02*
X12013991Y-12024936D01*
X12013991Y-12024936D02*
X12004467Y-12005888D01*
X12004467Y-12005888D02*
X11994943Y-11967793D01*
X11994943Y-11967793D02*
X11994943Y-11920174D01*
X11994943Y-11920174D02*
X12004467Y-11882079D01*
X12004467Y-11882079D02*
X12013991Y-11863031D01*
X12013991Y-11863031D02*
X12023515Y-11853508D01*
X12023515Y-11853508D02*
X12042562Y-11843984D01*
X12233039Y-11843984D02*
X12252086Y-11843984D01*
X12252086Y-11843984D02*
X12271134Y-11853508D01*
X12271134Y-11853508D02*
X12280658Y-11863031D01*
X12280658Y-11863031D02*
X12290182Y-11882079D01*
X12290182Y-11882079D02*
X12299705Y-11920174D01*
X12299705Y-11920174D02*
X12299705Y-11967793D01*
X12299705Y-11967793D02*
X12290182Y-12005888D01*
X12290182Y-12005888D02*
X12280658Y-12024936D01*
X12280658Y-12024936D02*
X12271134Y-12034460D01*
X12271134Y-12034460D02*
X12252086Y-12043984D01*
X12252086Y-12043984D02*
X12233039Y-12043984D01*
X12233039Y-12043984D02*
X12213991Y-12034460D01*
X12213991Y-12034460D02*
X12204467Y-12024936D01*
X12204467Y-12024936D02*
X12194943Y-12005888D01*
X12194943Y-12005888D02*
X12185420Y-11967793D01*
X12185420Y-11967793D02*
X12185420Y-11920174D01*
X12185420Y-11920174D02*
X12194943Y-11882079D01*
X12194943Y-11882079D02*
X12204467Y-11863031D01*
X12204467Y-11863031D02*
X12213991Y-11853508D01*
X12213991Y-11853508D02*
X12233039Y-11843984D01*
X12385420Y-12043984D02*
X12385420Y-11910650D01*
X12385420Y-11929698D02*
X12394943Y-11920174D01*
X12394943Y-11920174D02*
X12413991Y-11910650D01*
X12413991Y-11910650D02*
X12442563Y-11910650D01*
X12442563Y-11910650D02*
X12461610Y-11920174D01*
X12461610Y-11920174D02*
X12471134Y-11939222D01*
X12471134Y-11939222D02*
X12471134Y-12043984D01*
X12471134Y-11939222D02*
X12480658Y-11920174D01*
X12480658Y-11920174D02*
X12499705Y-11910650D01*
X12499705Y-11910650D02*
X12528277Y-11910650D01*
X12528277Y-11910650D02*
X12547324Y-11920174D01*
X12547324Y-11920174D02*
X12556848Y-11939222D01*
X12556848Y-11939222D02*
X12556848Y-12043984D01*
X12652086Y-12043984D02*
X12652086Y-11910650D01*
X12652086Y-11929698D02*
X12661610Y-11920174D01*
X12661610Y-11920174D02*
X12680658Y-11910650D01*
X12680658Y-11910650D02*
X12709229Y-11910650D01*
X12709229Y-11910650D02*
X12728277Y-11920174D01*
X12728277Y-11920174D02*
X12737801Y-11939222D01*
X12737801Y-11939222D02*
X12737801Y-12043984D01*
X12737801Y-11939222D02*
X12747324Y-11920174D01*
X12747324Y-11920174D02*
X12766372Y-11910650D01*
X12766372Y-11910650D02*
X12794943Y-11910650D01*
X12794943Y-11910650D02*
X12813991Y-11920174D01*
X12813991Y-11920174D02*
X12823515Y-11939222D01*
X12823515Y-11939222D02*
X12823515Y-12043984D01*
X13213991Y-11834460D02*
X13042563Y-12091603D01*
X13471134Y-11843984D02*
X13490182Y-11843984D01*
X13490182Y-11843984D02*
X13509229Y-11853508D01*
X13509229Y-11853508D02*
X13518753Y-11863031D01*
X13518753Y-11863031D02*
X13528277Y-11882079D01*
X13528277Y-11882079D02*
X13537801Y-11920174D01*
X13537801Y-11920174D02*
X13537801Y-11967793D01*
X13537801Y-11967793D02*
X13528277Y-12005888D01*
X13528277Y-12005888D02*
X13518753Y-12024936D01*
X13518753Y-12024936D02*
X13509229Y-12034460D01*
X13509229Y-12034460D02*
X13490182Y-12043984D01*
X13490182Y-12043984D02*
X13471134Y-12043984D01*
X13471134Y-12043984D02*
X13452086Y-12034460D01*
X13452086Y-12034460D02*
X13442563Y-12024936D01*
X13442563Y-12024936D02*
X13433039Y-12005888D01*
X13433039Y-12005888D02*
X13423515Y-11967793D01*
X13423515Y-11967793D02*
X13423515Y-11920174D01*
X13423515Y-11920174D02*
X13433039Y-11882079D01*
X13433039Y-11882079D02*
X13442563Y-11863031D01*
X13442563Y-11863031D02*
X13452086Y-11853508D01*
X13452086Y-11853508D02*
X13471134Y-11843984D01*
X13623515Y-12024936D02*
X13633039Y-12034460D01*
X13633039Y-12034460D02*
X13623515Y-12043984D01*
X13623515Y-12043984D02*
X13613991Y-12034460D01*
X13613991Y-12034460D02*
X13623515Y-12024936D01*
X13623515Y-12024936D02*
X13623515Y-12043984D01*
X13756848Y-11843984D02*
X13775896Y-11843984D01*
X13775896Y-11843984D02*
X13794944Y-11853508D01*
X13794944Y-11853508D02*
X13804467Y-11863031D01*
X13804467Y-11863031D02*
X13813991Y-11882079D01*
X13813991Y-11882079D02*
X13823515Y-11920174D01*
X13823515Y-11920174D02*
X13823515Y-11967793D01*
X13823515Y-11967793D02*
X13813991Y-12005888D01*
X13813991Y-12005888D02*
X13804467Y-12024936D01*
X13804467Y-12024936D02*
X13794944Y-12034460D01*
X13794944Y-12034460D02*
X13775896Y-12043984D01*
X13775896Y-12043984D02*
X13756848Y-12043984D01*
X13756848Y-12043984D02*
X13737801Y-12034460D01*
X13737801Y-12034460D02*
X13728277Y-12024936D01*
X13728277Y-12024936D02*
X13718753Y-12005888D01*
X13718753Y-12005888D02*
X13709229Y-11967793D01*
X13709229Y-11967793D02*
X13709229Y-11920174D01*
X13709229Y-11920174D02*
X13718753Y-11882079D01*
X13718753Y-11882079D02*
X13728277Y-11863031D01*
X13728277Y-11863031D02*
X13737801Y-11853508D01*
X13737801Y-11853508D02*
X13756848Y-11843984D01*
X13890182Y-11843984D02*
X14013991Y-11843984D01*
X14013991Y-11843984D02*
X13947325Y-11920174D01*
X13947325Y-11920174D02*
X13975896Y-11920174D01*
X13975896Y-11920174D02*
X13994944Y-11929698D01*
X13994944Y-11929698D02*
X14004467Y-11939222D01*
X14004467Y-11939222D02*
X14013991Y-11958269D01*
X14013991Y-11958269D02*
X14013991Y-12005888D01*
X14013991Y-12005888D02*
X14004467Y-12024936D01*
X14004467Y-12024936D02*
X13994944Y-12034460D01*
X13994944Y-12034460D02*
X13975896Y-12043984D01*
X13975896Y-12043984D02*
X13918753Y-12043984D01*
X13918753Y-12043984D02*
X13899706Y-12034460D01*
X13899706Y-12034460D02*
X13890182Y-12024936D01*
X14204467Y-12043984D02*
X14090182Y-12043984D01*
X14147325Y-12043984D02*
X14147325Y-11843984D01*
X14147325Y-11843984D02*
X14128277Y-11872555D01*
X14128277Y-11872555D02*
X14109229Y-11891603D01*
X14109229Y-11891603D02*
X14090182Y-11901127D01*
X14385420Y-11843984D02*
X14290182Y-11843984D01*
X14290182Y-11843984D02*
X14280658Y-11939222D01*
X14280658Y-11939222D02*
X14290182Y-11929698D01*
X14290182Y-11929698D02*
X14309229Y-11920174D01*
X14309229Y-11920174D02*
X14356848Y-11920174D01*
X14356848Y-11920174D02*
X14375896Y-11929698D01*
X14375896Y-11929698D02*
X14385420Y-11939222D01*
X14385420Y-11939222D02*
X14394944Y-11958269D01*
X14394944Y-11958269D02*
X14394944Y-12005888D01*
X14394944Y-12005888D02*
X14385420Y-12024936D01*
X14385420Y-12024936D02*
X14375896Y-12034460D01*
X14375896Y-12034460D02*
X14356848Y-12043984D01*
X14356848Y-12043984D02*
X14309229Y-12043984D01*
X14309229Y-12043984D02*
X14290182Y-12034460D01*
X14290182Y-12034460D02*
X14280658Y-12024936D01*
X14471134Y-11843984D02*
X14471134Y-11882079D01*
X14547325Y-11843984D02*
X14547325Y-11882079D01*
X14842563Y-12120174D02*
X14833039Y-12110650D01*
X14833039Y-12110650D02*
X14813991Y-12082079D01*
X14813991Y-12082079D02*
X14804468Y-12063031D01*
X14804468Y-12063031D02*
X14794944Y-12034460D01*
X14794944Y-12034460D02*
X14785420Y-11986841D01*
X14785420Y-11986841D02*
X14785420Y-11948746D01*
X14785420Y-11948746D02*
X14794944Y-11901127D01*
X14794944Y-11901127D02*
X14804468Y-11872555D01*
X14804468Y-11872555D02*
X14813991Y-11853508D01*
X14813991Y-11853508D02*
X14833039Y-11824936D01*
X14833039Y-11824936D02*
X14842563Y-11815412D01*
X15023515Y-12043984D02*
X14909229Y-12043984D01*
X14966372Y-12043984D02*
X14966372Y-11843984D01*
X14966372Y-11843984D02*
X14947325Y-11872555D01*
X14947325Y-11872555D02*
X14928277Y-11891603D01*
X14928277Y-11891603D02*
X14909229Y-11901127D01*
X15147325Y-11843984D02*
X15166372Y-11843984D01*
X15166372Y-11843984D02*
X15185420Y-11853508D01*
X15185420Y-11853508D02*
X15194944Y-11863031D01*
X15194944Y-11863031D02*
X15204468Y-11882079D01*
X15204468Y-11882079D02*
X15213991Y-11920174D01*
X15213991Y-11920174D02*
X15213991Y-11967793D01*
X15213991Y-11967793D02*
X15204468Y-12005888D01*
X15204468Y-12005888D02*
X15194944Y-12024936D01*
X15194944Y-12024936D02*
X15185420Y-12034460D01*
X15185420Y-12034460D02*
X15166372Y-12043984D01*
X15166372Y-12043984D02*
X15147325Y-12043984D01*
X15147325Y-12043984D02*
X15128277Y-12034460D01*
X15128277Y-12034460D02*
X15118753Y-12024936D01*
X15118753Y-12024936D02*
X15109229Y-12005888D01*
X15109229Y-12005888D02*
X15099706Y-11967793D01*
X15099706Y-11967793D02*
X15099706Y-11920174D01*
X15099706Y-11920174D02*
X15109229Y-11882079D01*
X15109229Y-11882079D02*
X15118753Y-11863031D01*
X15118753Y-11863031D02*
X15128277Y-11853508D01*
X15128277Y-11853508D02*
X15147325Y-11843984D01*
X15452087Y-12043984D02*
X15452087Y-11843984D01*
X15537801Y-12043984D02*
X15537801Y-11939222D01*
X15537801Y-11939222D02*
X15528277Y-11920174D01*
X15528277Y-11920174D02*
X15509230Y-11910650D01*
X15509230Y-11910650D02*
X15480658Y-11910650D01*
X15480658Y-11910650D02*
X15461610Y-11920174D01*
X15461610Y-11920174D02*
X15452087Y-11929698D01*
X15661610Y-12043984D02*
X15642563Y-12034460D01*
X15642563Y-12034460D02*
X15633039Y-12024936D01*
X15633039Y-12024936D02*
X15623515Y-12005888D01*
X15623515Y-12005888D02*
X15623515Y-11948746D01*
X15623515Y-11948746D02*
X15633039Y-11929698D01*
X15633039Y-11929698D02*
X15642563Y-11920174D01*
X15642563Y-11920174D02*
X15661610Y-11910650D01*
X15661610Y-11910650D02*
X15690182Y-11910650D01*
X15690182Y-11910650D02*
X15709230Y-11920174D01*
X15709230Y-11920174D02*
X15718753Y-11929698D01*
X15718753Y-11929698D02*
X15728277Y-11948746D01*
X15728277Y-11948746D02*
X15728277Y-12005888D01*
X15728277Y-12005888D02*
X15718753Y-12024936D01*
X15718753Y-12024936D02*
X15709230Y-12034460D01*
X15709230Y-12034460D02*
X15690182Y-12043984D01*
X15690182Y-12043984D02*
X15661610Y-12043984D01*
X15842563Y-12043984D02*
X15823515Y-12034460D01*
X15823515Y-12034460D02*
X15813991Y-12015412D01*
X15813991Y-12015412D02*
X15813991Y-11843984D01*
X15994944Y-12034460D02*
X15975896Y-12043984D01*
X15975896Y-12043984D02*
X15937801Y-12043984D01*
X15937801Y-12043984D02*
X15918753Y-12034460D01*
X15918753Y-12034460D02*
X15909230Y-12015412D01*
X15909230Y-12015412D02*
X15909230Y-11939222D01*
X15909230Y-11939222D02*
X15918753Y-11920174D01*
X15918753Y-11920174D02*
X15937801Y-11910650D01*
X15937801Y-11910650D02*
X15975896Y-11910650D01*
X15975896Y-11910650D02*
X15994944Y-11920174D01*
X15994944Y-11920174D02*
X16004468Y-11939222D01*
X16004468Y-11939222D02*
X16004468Y-11958269D01*
X16004468Y-11958269D02*
X15909230Y-11977317D01*
X16080658Y-12034460D02*
X16099706Y-12043984D01*
X16099706Y-12043984D02*
X16137801Y-12043984D01*
X16137801Y-12043984D02*
X16156849Y-12034460D01*
X16156849Y-12034460D02*
X16166372Y-12015412D01*
X16166372Y-12015412D02*
X16166372Y-12005888D01*
X16166372Y-12005888D02*
X16156849Y-11986841D01*
X16156849Y-11986841D02*
X16137801Y-11977317D01*
X16137801Y-11977317D02*
X16109230Y-11977317D01*
X16109230Y-11977317D02*
X16090182Y-11967793D01*
X16090182Y-11967793D02*
X16080658Y-11948746D01*
X16080658Y-11948746D02*
X16080658Y-11939222D01*
X16080658Y-11939222D02*
X16090182Y-11920174D01*
X16090182Y-11920174D02*
X16109230Y-11910650D01*
X16109230Y-11910650D02*
X16137801Y-11910650D01*
X16137801Y-11910650D02*
X16156849Y-11920174D01*
X16233039Y-12120174D02*
X16242563Y-12110650D01*
X16242563Y-12110650D02*
X16261611Y-12082079D01*
X16261611Y-12082079D02*
X16271134Y-12063031D01*
X16271134Y-12063031D02*
X16280658Y-12034460D01*
X16280658Y-12034460D02*
X16290182Y-11986841D01*
X16290182Y-11986841D02*
X16290182Y-11948746D01*
X16290182Y-11948746D02*
X16280658Y-11901127D01*
X16280658Y-11901127D02*
X16271134Y-11872555D01*
X16271134Y-11872555D02*
X16261611Y-11853508D01*
X16261611Y-11853508D02*
X16242563Y-11824936D01*
X16242563Y-11824936D02*
X16233039Y-11815412D01*
D12*
X11267500Y-12216500D02*
G75*
G02*
X11177500Y-12216500I-45000J0D01*
G01*
X11177500Y-12216500D02*
G75*
G02*
X11267500Y-12216500I45000J0D01*
G01*
D11*
X11566372Y-12107984D02*
X11585420Y-12107984D01*
X11585420Y-12107984D02*
X11604467Y-12117508D01*
X11604467Y-12117508D02*
X11613991Y-12127031D01*
X11613991Y-12127031D02*
X11623515Y-12146079D01*
X11623515Y-12146079D02*
X11633039Y-12184174D01*
X11633039Y-12184174D02*
X11633039Y-12231793D01*
X11633039Y-12231793D02*
X11623515Y-12269888D01*
X11623515Y-12269888D02*
X11613991Y-12288936D01*
X11613991Y-12288936D02*
X11604467Y-12298460D01*
X11604467Y-12298460D02*
X11585420Y-12307984D01*
X11585420Y-12307984D02*
X11566372Y-12307984D01*
X11566372Y-12307984D02*
X11547324Y-12298460D01*
X11547324Y-12298460D02*
X11537801Y-12288936D01*
X11537801Y-12288936D02*
X11528277Y-12269888D01*
X11528277Y-12269888D02*
X11518753Y-12231793D01*
X11518753Y-12231793D02*
X11518753Y-12184174D01*
X11518753Y-12184174D02*
X11528277Y-12146079D01*
X11528277Y-12146079D02*
X11537801Y-12127031D01*
X11537801Y-12127031D02*
X11547324Y-12117508D01*
X11547324Y-12117508D02*
X11566372Y-12107984D01*
X11718753Y-12288936D02*
X11728277Y-12298460D01*
X11728277Y-12298460D02*
X11718753Y-12307984D01*
X11718753Y-12307984D02*
X11709229Y-12298460D01*
X11709229Y-12298460D02*
X11718753Y-12288936D01*
X11718753Y-12288936D02*
X11718753Y-12307984D01*
X11823515Y-12307984D02*
X11861610Y-12307984D01*
X11861610Y-12307984D02*
X11880658Y-12298460D01*
X11880658Y-12298460D02*
X11890182Y-12288936D01*
X11890182Y-12288936D02*
X11909229Y-12260365D01*
X11909229Y-12260365D02*
X11918753Y-12222269D01*
X11918753Y-12222269D02*
X11918753Y-12146079D01*
X11918753Y-12146079D02*
X11909229Y-12127031D01*
X11909229Y-12127031D02*
X11899705Y-12117508D01*
X11899705Y-12117508D02*
X11880658Y-12107984D01*
X11880658Y-12107984D02*
X11842562Y-12107984D01*
X11842562Y-12107984D02*
X11823515Y-12117508D01*
X11823515Y-12117508D02*
X11813991Y-12127031D01*
X11813991Y-12127031D02*
X11804467Y-12146079D01*
X11804467Y-12146079D02*
X11804467Y-12193698D01*
X11804467Y-12193698D02*
X11813991Y-12212746D01*
X11813991Y-12212746D02*
X11823515Y-12222269D01*
X11823515Y-12222269D02*
X11842562Y-12231793D01*
X11842562Y-12231793D02*
X11880658Y-12231793D01*
X11880658Y-12231793D02*
X11899705Y-12222269D01*
X11899705Y-12222269D02*
X11909229Y-12212746D01*
X11909229Y-12212746D02*
X11918753Y-12193698D01*
X12042562Y-12107984D02*
X12061610Y-12107984D01*
X12061610Y-12107984D02*
X12080658Y-12117508D01*
X12080658Y-12117508D02*
X12090182Y-12127031D01*
X12090182Y-12127031D02*
X12099705Y-12146079D01*
X12099705Y-12146079D02*
X12109229Y-12184174D01*
X12109229Y-12184174D02*
X12109229Y-12231793D01*
X12109229Y-12231793D02*
X12099705Y-12269888D01*
X12099705Y-12269888D02*
X12090182Y-12288936D01*
X12090182Y-12288936D02*
X12080658Y-12298460D01*
X12080658Y-12298460D02*
X12061610Y-12307984D01*
X12061610Y-12307984D02*
X12042562Y-12307984D01*
X12042562Y-12307984D02*
X12023515Y-12298460D01*
X12023515Y-12298460D02*
X12013991Y-12288936D01*
X12013991Y-12288936D02*
X12004467Y-12269888D01*
X12004467Y-12269888D02*
X11994943Y-12231793D01*
X11994943Y-12231793D02*
X11994943Y-12184174D01*
X11994943Y-12184174D02*
X12004467Y-12146079D01*
X12004467Y-12146079D02*
X12013991Y-12127031D01*
X12013991Y-12127031D02*
X12023515Y-12117508D01*
X12023515Y-12117508D02*
X12042562Y-12107984D01*
X12233039Y-12107984D02*
X12252086Y-12107984D01*
X12252086Y-12107984D02*
X12271134Y-12117508D01*
X12271134Y-12117508D02*
X12280658Y-12127031D01*
X12280658Y-12127031D02*
X12290182Y-12146079D01*
X12290182Y-12146079D02*
X12299705Y-12184174D01*
X12299705Y-12184174D02*
X12299705Y-12231793D01*
X12299705Y-12231793D02*
X12290182Y-12269888D01*
X12290182Y-12269888D02*
X12280658Y-12288936D01*
X12280658Y-12288936D02*
X12271134Y-12298460D01*
X12271134Y-12298460D02*
X12252086Y-12307984D01*
X12252086Y-12307984D02*
X12233039Y-12307984D01*
X12233039Y-12307984D02*
X12213991Y-12298460D01*
X12213991Y-12298460D02*
X12204467Y-12288936D01*
X12204467Y-12288936D02*
X12194943Y-12269888D01*
X12194943Y-12269888D02*
X12185420Y-12231793D01*
X12185420Y-12231793D02*
X12185420Y-12184174D01*
X12185420Y-12184174D02*
X12194943Y-12146079D01*
X12194943Y-12146079D02*
X12204467Y-12127031D01*
X12204467Y-12127031D02*
X12213991Y-12117508D01*
X12213991Y-12117508D02*
X12233039Y-12107984D01*
X12385420Y-12307984D02*
X12385420Y-12174650D01*
X12385420Y-12193698D02*
X12394943Y-12184174D01*
X12394943Y-12184174D02*
X12413991Y-12174650D01*
X12413991Y-12174650D02*
X12442563Y-12174650D01*
X12442563Y-12174650D02*
X12461610Y-12184174D01*
X12461610Y-12184174D02*
X12471134Y-12203222D01*
X12471134Y-12203222D02*
X12471134Y-12307984D01*
X12471134Y-12203222D02*
X12480658Y-12184174D01*
X12480658Y-12184174D02*
X12499705Y-12174650D01*
X12499705Y-12174650D02*
X12528277Y-12174650D01*
X12528277Y-12174650D02*
X12547324Y-12184174D01*
X12547324Y-12184174D02*
X12556848Y-12203222D01*
X12556848Y-12203222D02*
X12556848Y-12307984D01*
X12652086Y-12307984D02*
X12652086Y-12174650D01*
X12652086Y-12193698D02*
X12661610Y-12184174D01*
X12661610Y-12184174D02*
X12680658Y-12174650D01*
X12680658Y-12174650D02*
X12709229Y-12174650D01*
X12709229Y-12174650D02*
X12728277Y-12184174D01*
X12728277Y-12184174D02*
X12737801Y-12203222D01*
X12737801Y-12203222D02*
X12737801Y-12307984D01*
X12737801Y-12203222D02*
X12747324Y-12184174D01*
X12747324Y-12184174D02*
X12766372Y-12174650D01*
X12766372Y-12174650D02*
X12794943Y-12174650D01*
X12794943Y-12174650D02*
X12813991Y-12184174D01*
X12813991Y-12184174D02*
X12823515Y-12203222D01*
X12823515Y-12203222D02*
X12823515Y-12307984D01*
X13213991Y-12098460D02*
X13042563Y-12355603D01*
X13471134Y-12107984D02*
X13490182Y-12107984D01*
X13490182Y-12107984D02*
X13509229Y-12117508D01*
X13509229Y-12117508D02*
X13518753Y-12127031D01*
X13518753Y-12127031D02*
X13528277Y-12146079D01*
X13528277Y-12146079D02*
X13537801Y-12184174D01*
X13537801Y-12184174D02*
X13537801Y-12231793D01*
X13537801Y-12231793D02*
X13528277Y-12269888D01*
X13528277Y-12269888D02*
X13518753Y-12288936D01*
X13518753Y-12288936D02*
X13509229Y-12298460D01*
X13509229Y-12298460D02*
X13490182Y-12307984D01*
X13490182Y-12307984D02*
X13471134Y-12307984D01*
X13471134Y-12307984D02*
X13452086Y-12298460D01*
X13452086Y-12298460D02*
X13442563Y-12288936D01*
X13442563Y-12288936D02*
X13433039Y-12269888D01*
X13433039Y-12269888D02*
X13423515Y-12231793D01*
X13423515Y-12231793D02*
X13423515Y-12184174D01*
X13423515Y-12184174D02*
X13433039Y-12146079D01*
X13433039Y-12146079D02*
X13442563Y-12127031D01*
X13442563Y-12127031D02*
X13452086Y-12117508D01*
X13452086Y-12117508D02*
X13471134Y-12107984D01*
X13623515Y-12288936D02*
X13633039Y-12298460D01*
X13633039Y-12298460D02*
X13623515Y-12307984D01*
X13623515Y-12307984D02*
X13613991Y-12298460D01*
X13613991Y-12298460D02*
X13623515Y-12288936D01*
X13623515Y-12288936D02*
X13623515Y-12307984D01*
X13756848Y-12107984D02*
X13775896Y-12107984D01*
X13775896Y-12107984D02*
X13794944Y-12117508D01*
X13794944Y-12117508D02*
X13804467Y-12127031D01*
X13804467Y-12127031D02*
X13813991Y-12146079D01*
X13813991Y-12146079D02*
X13823515Y-12184174D01*
X13823515Y-12184174D02*
X13823515Y-12231793D01*
X13823515Y-12231793D02*
X13813991Y-12269888D01*
X13813991Y-12269888D02*
X13804467Y-12288936D01*
X13804467Y-12288936D02*
X13794944Y-12298460D01*
X13794944Y-12298460D02*
X13775896Y-12307984D01*
X13775896Y-12307984D02*
X13756848Y-12307984D01*
X13756848Y-12307984D02*
X13737801Y-12298460D01*
X13737801Y-12298460D02*
X13728277Y-12288936D01*
X13728277Y-12288936D02*
X13718753Y-12269888D01*
X13718753Y-12269888D02*
X13709229Y-12231793D01*
X13709229Y-12231793D02*
X13709229Y-12184174D01*
X13709229Y-12184174D02*
X13718753Y-12146079D01*
X13718753Y-12146079D02*
X13728277Y-12127031D01*
X13728277Y-12127031D02*
X13737801Y-12117508D01*
X13737801Y-12117508D02*
X13756848Y-12107984D01*
X13890182Y-12107984D02*
X14013991Y-12107984D01*
X14013991Y-12107984D02*
X13947325Y-12184174D01*
X13947325Y-12184174D02*
X13975896Y-12184174D01*
X13975896Y-12184174D02*
X13994944Y-12193698D01*
X13994944Y-12193698D02*
X14004467Y-12203222D01*
X14004467Y-12203222D02*
X14013991Y-12222269D01*
X14013991Y-12222269D02*
X14013991Y-12269888D01*
X14013991Y-12269888D02*
X14004467Y-12288936D01*
X14004467Y-12288936D02*
X13994944Y-12298460D01*
X13994944Y-12298460D02*
X13975896Y-12307984D01*
X13975896Y-12307984D02*
X13918753Y-12307984D01*
X13918753Y-12307984D02*
X13899706Y-12298460D01*
X13899706Y-12298460D02*
X13890182Y-12288936D01*
X14194944Y-12107984D02*
X14099706Y-12107984D01*
X14099706Y-12107984D02*
X14090182Y-12203222D01*
X14090182Y-12203222D02*
X14099706Y-12193698D01*
X14099706Y-12193698D02*
X14118753Y-12184174D01*
X14118753Y-12184174D02*
X14166372Y-12184174D01*
X14166372Y-12184174D02*
X14185420Y-12193698D01*
X14185420Y-12193698D02*
X14194944Y-12203222D01*
X14194944Y-12203222D02*
X14204467Y-12222269D01*
X14204467Y-12222269D02*
X14204467Y-12269888D01*
X14204467Y-12269888D02*
X14194944Y-12288936D01*
X14194944Y-12288936D02*
X14185420Y-12298460D01*
X14185420Y-12298460D02*
X14166372Y-12307984D01*
X14166372Y-12307984D02*
X14118753Y-12307984D01*
X14118753Y-12307984D02*
X14099706Y-12298460D01*
X14099706Y-12298460D02*
X14090182Y-12288936D01*
X14375896Y-12174650D02*
X14375896Y-12307984D01*
X14328277Y-12098460D02*
X14280658Y-12241317D01*
X14280658Y-12241317D02*
X14404467Y-12241317D01*
X14471134Y-12107984D02*
X14471134Y-12146079D01*
X14547325Y-12107984D02*
X14547325Y-12146079D01*
X14842563Y-12384174D02*
X14833039Y-12374650D01*
X14833039Y-12374650D02*
X14813991Y-12346079D01*
X14813991Y-12346079D02*
X14804468Y-12327031D01*
X14804468Y-12327031D02*
X14794944Y-12298460D01*
X14794944Y-12298460D02*
X14785420Y-12250841D01*
X14785420Y-12250841D02*
X14785420Y-12212746D01*
X14785420Y-12212746D02*
X14794944Y-12165127D01*
X14794944Y-12165127D02*
X14804468Y-12136555D01*
X14804468Y-12136555D02*
X14813991Y-12117508D01*
X14813991Y-12117508D02*
X14833039Y-12088936D01*
X14833039Y-12088936D02*
X14842563Y-12079412D01*
X15004468Y-12107984D02*
X14966372Y-12107984D01*
X14966372Y-12107984D02*
X14947325Y-12117508D01*
X14947325Y-12117508D02*
X14937801Y-12127031D01*
X14937801Y-12127031D02*
X14918753Y-12155603D01*
X14918753Y-12155603D02*
X14909229Y-12193698D01*
X14909229Y-12193698D02*
X14909229Y-12269888D01*
X14909229Y-12269888D02*
X14918753Y-12288936D01*
X14918753Y-12288936D02*
X14928277Y-12298460D01*
X14928277Y-12298460D02*
X14947325Y-12307984D01*
X14947325Y-12307984D02*
X14985420Y-12307984D01*
X14985420Y-12307984D02*
X15004468Y-12298460D01*
X15004468Y-12298460D02*
X15013991Y-12288936D01*
X15013991Y-12288936D02*
X15023515Y-12269888D01*
X15023515Y-12269888D02*
X15023515Y-12222269D01*
X15023515Y-12222269D02*
X15013991Y-12203222D01*
X15013991Y-12203222D02*
X15004468Y-12193698D01*
X15004468Y-12193698D02*
X14985420Y-12184174D01*
X14985420Y-12184174D02*
X14947325Y-12184174D01*
X14947325Y-12184174D02*
X14928277Y-12193698D01*
X14928277Y-12193698D02*
X14918753Y-12203222D01*
X14918753Y-12203222D02*
X14909229Y-12222269D01*
X15261610Y-12307984D02*
X15261610Y-12107984D01*
X15347325Y-12307984D02*
X15347325Y-12203222D01*
X15347325Y-12203222D02*
X15337801Y-12184174D01*
X15337801Y-12184174D02*
X15318753Y-12174650D01*
X15318753Y-12174650D02*
X15290182Y-12174650D01*
X15290182Y-12174650D02*
X15271134Y-12184174D01*
X15271134Y-12184174D02*
X15261610Y-12193698D01*
X15471134Y-12307984D02*
X15452087Y-12298460D01*
X15452087Y-12298460D02*
X15442563Y-12288936D01*
X15442563Y-12288936D02*
X15433039Y-12269888D01*
X15433039Y-12269888D02*
X15433039Y-12212746D01*
X15433039Y-12212746D02*
X15442563Y-12193698D01*
X15442563Y-12193698D02*
X15452087Y-12184174D01*
X15452087Y-12184174D02*
X15471134Y-12174650D01*
X15471134Y-12174650D02*
X15499706Y-12174650D01*
X15499706Y-12174650D02*
X15518753Y-12184174D01*
X15518753Y-12184174D02*
X15528277Y-12193698D01*
X15528277Y-12193698D02*
X15537801Y-12212746D01*
X15537801Y-12212746D02*
X15537801Y-12269888D01*
X15537801Y-12269888D02*
X15528277Y-12288936D01*
X15528277Y-12288936D02*
X15518753Y-12298460D01*
X15518753Y-12298460D02*
X15499706Y-12307984D01*
X15499706Y-12307984D02*
X15471134Y-12307984D01*
X15652087Y-12307984D02*
X15633039Y-12298460D01*
X15633039Y-12298460D02*
X15623515Y-12279412D01*
X15623515Y-12279412D02*
X15623515Y-12107984D01*
X15804468Y-12298460D02*
X15785420Y-12307984D01*
X15785420Y-12307984D02*
X15747325Y-12307984D01*
X15747325Y-12307984D02*
X15728277Y-12298460D01*
X15728277Y-12298460D02*
X15718753Y-12279412D01*
X15718753Y-12279412D02*
X15718753Y-12203222D01*
X15718753Y-12203222D02*
X15728277Y-12184174D01*
X15728277Y-12184174D02*
X15747325Y-12174650D01*
X15747325Y-12174650D02*
X15785420Y-12174650D01*
X15785420Y-12174650D02*
X15804468Y-12184174D01*
X15804468Y-12184174D02*
X15813991Y-12203222D01*
X15813991Y-12203222D02*
X15813991Y-12222269D01*
X15813991Y-12222269D02*
X15718753Y-12241317D01*
X15890182Y-12298460D02*
X15909230Y-12307984D01*
X15909230Y-12307984D02*
X15947325Y-12307984D01*
X15947325Y-12307984D02*
X15966372Y-12298460D01*
X15966372Y-12298460D02*
X15975896Y-12279412D01*
X15975896Y-12279412D02*
X15975896Y-12269888D01*
X15975896Y-12269888D02*
X15966372Y-12250841D01*
X15966372Y-12250841D02*
X15947325Y-12241317D01*
X15947325Y-12241317D02*
X15918753Y-12241317D01*
X15918753Y-12241317D02*
X15899706Y-12231793D01*
X15899706Y-12231793D02*
X15890182Y-12212746D01*
X15890182Y-12212746D02*
X15890182Y-12203222D01*
X15890182Y-12203222D02*
X15899706Y-12184174D01*
X15899706Y-12184174D02*
X15918753Y-12174650D01*
X15918753Y-12174650D02*
X15947325Y-12174650D01*
X15947325Y-12174650D02*
X15966372Y-12184174D01*
X16042563Y-12384174D02*
X16052087Y-12374650D01*
X16052087Y-12374650D02*
X16071134Y-12346079D01*
X16071134Y-12346079D02*
X16080658Y-12327031D01*
X16080658Y-12327031D02*
X16090182Y-12298460D01*
X16090182Y-12298460D02*
X16099706Y-12250841D01*
X16099706Y-12250841D02*
X16099706Y-12212746D01*
X16099706Y-12212746D02*
X16090182Y-12165127D01*
X16090182Y-12165127D02*
X16080658Y-12136555D01*
X16080658Y-12136555D02*
X16071134Y-12117508D01*
X16071134Y-12117508D02*
X16052087Y-12088936D01*
X16052087Y-12088936D02*
X16042563Y-12079412D01*
D12*
X11217500Y-12430500D02*
X11217500Y-12530500D01*
X11167500Y-12480500D02*
X11267500Y-12480500D01*
D11*
X11633039Y-12571984D02*
X11518753Y-12571984D01*
X11575896Y-12571984D02*
X11575896Y-12371984D01*
X11575896Y-12371984D02*
X11556848Y-12400555D01*
X11556848Y-12400555D02*
X11537801Y-12419603D01*
X11537801Y-12419603D02*
X11518753Y-12429127D01*
X11718753Y-12552936D02*
X11728277Y-12562460D01*
X11728277Y-12562460D02*
X11718753Y-12571984D01*
X11718753Y-12571984D02*
X11709229Y-12562460D01*
X11709229Y-12562460D02*
X11718753Y-12552936D01*
X11718753Y-12552936D02*
X11718753Y-12571984D01*
X11852086Y-12371984D02*
X11871134Y-12371984D01*
X11871134Y-12371984D02*
X11890182Y-12381508D01*
X11890182Y-12381508D02*
X11899705Y-12391031D01*
X11899705Y-12391031D02*
X11909229Y-12410079D01*
X11909229Y-12410079D02*
X11918753Y-12448174D01*
X11918753Y-12448174D02*
X11918753Y-12495793D01*
X11918753Y-12495793D02*
X11909229Y-12533888D01*
X11909229Y-12533888D02*
X11899705Y-12552936D01*
X11899705Y-12552936D02*
X11890182Y-12562460D01*
X11890182Y-12562460D02*
X11871134Y-12571984D01*
X11871134Y-12571984D02*
X11852086Y-12571984D01*
X11852086Y-12571984D02*
X11833039Y-12562460D01*
X11833039Y-12562460D02*
X11823515Y-12552936D01*
X11823515Y-12552936D02*
X11813991Y-12533888D01*
X11813991Y-12533888D02*
X11804467Y-12495793D01*
X11804467Y-12495793D02*
X11804467Y-12448174D01*
X11804467Y-12448174D02*
X11813991Y-12410079D01*
X11813991Y-12410079D02*
X11823515Y-12391031D01*
X11823515Y-12391031D02*
X11833039Y-12381508D01*
X11833039Y-12381508D02*
X11852086Y-12371984D01*
X12042562Y-12371984D02*
X12061610Y-12371984D01*
X12061610Y-12371984D02*
X12080658Y-12381508D01*
X12080658Y-12381508D02*
X12090182Y-12391031D01*
X12090182Y-12391031D02*
X12099705Y-12410079D01*
X12099705Y-12410079D02*
X12109229Y-12448174D01*
X12109229Y-12448174D02*
X12109229Y-12495793D01*
X12109229Y-12495793D02*
X12099705Y-12533888D01*
X12099705Y-12533888D02*
X12090182Y-12552936D01*
X12090182Y-12552936D02*
X12080658Y-12562460D01*
X12080658Y-12562460D02*
X12061610Y-12571984D01*
X12061610Y-12571984D02*
X12042562Y-12571984D01*
X12042562Y-12571984D02*
X12023515Y-12562460D01*
X12023515Y-12562460D02*
X12013991Y-12552936D01*
X12013991Y-12552936D02*
X12004467Y-12533888D01*
X12004467Y-12533888D02*
X11994943Y-12495793D01*
X11994943Y-12495793D02*
X11994943Y-12448174D01*
X11994943Y-12448174D02*
X12004467Y-12410079D01*
X12004467Y-12410079D02*
X12013991Y-12391031D01*
X12013991Y-12391031D02*
X12023515Y-12381508D01*
X12023515Y-12381508D02*
X12042562Y-12371984D01*
X12233039Y-12371984D02*
X12252086Y-12371984D01*
X12252086Y-12371984D02*
X12271134Y-12381508D01*
X12271134Y-12381508D02*
X12280658Y-12391031D01*
X12280658Y-12391031D02*
X12290182Y-12410079D01*
X12290182Y-12410079D02*
X12299705Y-12448174D01*
X12299705Y-12448174D02*
X12299705Y-12495793D01*
X12299705Y-12495793D02*
X12290182Y-12533888D01*
X12290182Y-12533888D02*
X12280658Y-12552936D01*
X12280658Y-12552936D02*
X12271134Y-12562460D01*
X12271134Y-12562460D02*
X12252086Y-12571984D01*
X12252086Y-12571984D02*
X12233039Y-12571984D01*
X12233039Y-12571984D02*
X12213991Y-12562460D01*
X12213991Y-12562460D02*
X12204467Y-12552936D01*
X12204467Y-12552936D02*
X12194943Y-12533888D01*
X12194943Y-12533888D02*
X12185420Y-12495793D01*
X12185420Y-12495793D02*
X12185420Y-12448174D01*
X12185420Y-12448174D02*
X12194943Y-12410079D01*
X12194943Y-12410079D02*
X12204467Y-12391031D01*
X12204467Y-12391031D02*
X12213991Y-12381508D01*
X12213991Y-12381508D02*
X12233039Y-12371984D01*
X12385420Y-12571984D02*
X12385420Y-12438650D01*
X12385420Y-12457698D02*
X12394943Y-12448174D01*
X12394943Y-12448174D02*
X12413991Y-12438650D01*
X12413991Y-12438650D02*
X12442563Y-12438650D01*
X12442563Y-12438650D02*
X12461610Y-12448174D01*
X12461610Y-12448174D02*
X12471134Y-12467222D01*
X12471134Y-12467222D02*
X12471134Y-12571984D01*
X12471134Y-12467222D02*
X12480658Y-12448174D01*
X12480658Y-12448174D02*
X12499705Y-12438650D01*
X12499705Y-12438650D02*
X12528277Y-12438650D01*
X12528277Y-12438650D02*
X12547324Y-12448174D01*
X12547324Y-12448174D02*
X12556848Y-12467222D01*
X12556848Y-12467222D02*
X12556848Y-12571984D01*
X12652086Y-12571984D02*
X12652086Y-12438650D01*
X12652086Y-12457698D02*
X12661610Y-12448174D01*
X12661610Y-12448174D02*
X12680658Y-12438650D01*
X12680658Y-12438650D02*
X12709229Y-12438650D01*
X12709229Y-12438650D02*
X12728277Y-12448174D01*
X12728277Y-12448174D02*
X12737801Y-12467222D01*
X12737801Y-12467222D02*
X12737801Y-12571984D01*
X12737801Y-12467222D02*
X12747324Y-12448174D01*
X12747324Y-12448174D02*
X12766372Y-12438650D01*
X12766372Y-12438650D02*
X12794943Y-12438650D01*
X12794943Y-12438650D02*
X12813991Y-12448174D01*
X12813991Y-12448174D02*
X12823515Y-12467222D01*
X12823515Y-12467222D02*
X12823515Y-12571984D01*
X13213991Y-12362460D02*
X13042563Y-12619603D01*
X13471134Y-12371984D02*
X13490182Y-12371984D01*
X13490182Y-12371984D02*
X13509229Y-12381508D01*
X13509229Y-12381508D02*
X13518753Y-12391031D01*
X13518753Y-12391031D02*
X13528277Y-12410079D01*
X13528277Y-12410079D02*
X13537801Y-12448174D01*
X13537801Y-12448174D02*
X13537801Y-12495793D01*
X13537801Y-12495793D02*
X13528277Y-12533888D01*
X13528277Y-12533888D02*
X13518753Y-12552936D01*
X13518753Y-12552936D02*
X13509229Y-12562460D01*
X13509229Y-12562460D02*
X13490182Y-12571984D01*
X13490182Y-12571984D02*
X13471134Y-12571984D01*
X13471134Y-12571984D02*
X13452086Y-12562460D01*
X13452086Y-12562460D02*
X13442563Y-12552936D01*
X13442563Y-12552936D02*
X13433039Y-12533888D01*
X13433039Y-12533888D02*
X13423515Y-12495793D01*
X13423515Y-12495793D02*
X13423515Y-12448174D01*
X13423515Y-12448174D02*
X13433039Y-12410079D01*
X13433039Y-12410079D02*
X13442563Y-12391031D01*
X13442563Y-12391031D02*
X13452086Y-12381508D01*
X13452086Y-12381508D02*
X13471134Y-12371984D01*
X13623515Y-12552936D02*
X13633039Y-12562460D01*
X13633039Y-12562460D02*
X13623515Y-12571984D01*
X13623515Y-12571984D02*
X13613991Y-12562460D01*
X13613991Y-12562460D02*
X13623515Y-12552936D01*
X13623515Y-12552936D02*
X13623515Y-12571984D01*
X13756848Y-12371984D02*
X13775896Y-12371984D01*
X13775896Y-12371984D02*
X13794944Y-12381508D01*
X13794944Y-12381508D02*
X13804467Y-12391031D01*
X13804467Y-12391031D02*
X13813991Y-12410079D01*
X13813991Y-12410079D02*
X13823515Y-12448174D01*
X13823515Y-12448174D02*
X13823515Y-12495793D01*
X13823515Y-12495793D02*
X13813991Y-12533888D01*
X13813991Y-12533888D02*
X13804467Y-12552936D01*
X13804467Y-12552936D02*
X13794944Y-12562460D01*
X13794944Y-12562460D02*
X13775896Y-12571984D01*
X13775896Y-12571984D02*
X13756848Y-12571984D01*
X13756848Y-12571984D02*
X13737801Y-12562460D01*
X13737801Y-12562460D02*
X13728277Y-12552936D01*
X13728277Y-12552936D02*
X13718753Y-12533888D01*
X13718753Y-12533888D02*
X13709229Y-12495793D01*
X13709229Y-12495793D02*
X13709229Y-12448174D01*
X13709229Y-12448174D02*
X13718753Y-12410079D01*
X13718753Y-12410079D02*
X13728277Y-12391031D01*
X13728277Y-12391031D02*
X13737801Y-12381508D01*
X13737801Y-12381508D02*
X13756848Y-12371984D01*
X13890182Y-12371984D02*
X14013991Y-12371984D01*
X14013991Y-12371984D02*
X13947325Y-12448174D01*
X13947325Y-12448174D02*
X13975896Y-12448174D01*
X13975896Y-12448174D02*
X13994944Y-12457698D01*
X13994944Y-12457698D02*
X14004467Y-12467222D01*
X14004467Y-12467222D02*
X14013991Y-12486269D01*
X14013991Y-12486269D02*
X14013991Y-12533888D01*
X14013991Y-12533888D02*
X14004467Y-12552936D01*
X14004467Y-12552936D02*
X13994944Y-12562460D01*
X13994944Y-12562460D02*
X13975896Y-12571984D01*
X13975896Y-12571984D02*
X13918753Y-12571984D01*
X13918753Y-12571984D02*
X13899706Y-12562460D01*
X13899706Y-12562460D02*
X13890182Y-12552936D01*
X14109229Y-12571984D02*
X14147325Y-12571984D01*
X14147325Y-12571984D02*
X14166372Y-12562460D01*
X14166372Y-12562460D02*
X14175896Y-12552936D01*
X14175896Y-12552936D02*
X14194944Y-12524365D01*
X14194944Y-12524365D02*
X14204467Y-12486269D01*
X14204467Y-12486269D02*
X14204467Y-12410079D01*
X14204467Y-12410079D02*
X14194944Y-12391031D01*
X14194944Y-12391031D02*
X14185420Y-12381508D01*
X14185420Y-12381508D02*
X14166372Y-12371984D01*
X14166372Y-12371984D02*
X14128277Y-12371984D01*
X14128277Y-12371984D02*
X14109229Y-12381508D01*
X14109229Y-12381508D02*
X14099706Y-12391031D01*
X14099706Y-12391031D02*
X14090182Y-12410079D01*
X14090182Y-12410079D02*
X14090182Y-12457698D01*
X14090182Y-12457698D02*
X14099706Y-12476746D01*
X14099706Y-12476746D02*
X14109229Y-12486269D01*
X14109229Y-12486269D02*
X14128277Y-12495793D01*
X14128277Y-12495793D02*
X14166372Y-12495793D01*
X14166372Y-12495793D02*
X14185420Y-12486269D01*
X14185420Y-12486269D02*
X14194944Y-12476746D01*
X14194944Y-12476746D02*
X14204467Y-12457698D01*
X14375896Y-12438650D02*
X14375896Y-12571984D01*
X14328277Y-12362460D02*
X14280658Y-12505317D01*
X14280658Y-12505317D02*
X14404467Y-12505317D01*
X14471134Y-12371984D02*
X14471134Y-12410079D01*
X14547325Y-12371984D02*
X14547325Y-12410079D01*
X14842563Y-12648174D02*
X14833039Y-12638650D01*
X14833039Y-12638650D02*
X14813991Y-12610079D01*
X14813991Y-12610079D02*
X14804468Y-12591031D01*
X14804468Y-12591031D02*
X14794944Y-12562460D01*
X14794944Y-12562460D02*
X14785420Y-12514841D01*
X14785420Y-12514841D02*
X14785420Y-12476746D01*
X14785420Y-12476746D02*
X14794944Y-12429127D01*
X14794944Y-12429127D02*
X14804468Y-12400555D01*
X14804468Y-12400555D02*
X14813991Y-12381508D01*
X14813991Y-12381508D02*
X14833039Y-12352936D01*
X14833039Y-12352936D02*
X14842563Y-12343412D01*
X15004468Y-12438650D02*
X15004468Y-12571984D01*
X14956848Y-12362460D02*
X14909229Y-12505317D01*
X14909229Y-12505317D02*
X15033039Y-12505317D01*
X15261610Y-12571984D02*
X15261610Y-12371984D01*
X15347325Y-12571984D02*
X15347325Y-12467222D01*
X15347325Y-12467222D02*
X15337801Y-12448174D01*
X15337801Y-12448174D02*
X15318753Y-12438650D01*
X15318753Y-12438650D02*
X15290182Y-12438650D01*
X15290182Y-12438650D02*
X15271134Y-12448174D01*
X15271134Y-12448174D02*
X15261610Y-12457698D01*
X15471134Y-12571984D02*
X15452087Y-12562460D01*
X15452087Y-12562460D02*
X15442563Y-12552936D01*
X15442563Y-12552936D02*
X15433039Y-12533888D01*
X15433039Y-12533888D02*
X15433039Y-12476746D01*
X15433039Y-12476746D02*
X15442563Y-12457698D01*
X15442563Y-12457698D02*
X15452087Y-12448174D01*
X15452087Y-12448174D02*
X15471134Y-12438650D01*
X15471134Y-12438650D02*
X15499706Y-12438650D01*
X15499706Y-12438650D02*
X15518753Y-12448174D01*
X15518753Y-12448174D02*
X15528277Y-12457698D01*
X15528277Y-12457698D02*
X15537801Y-12476746D01*
X15537801Y-12476746D02*
X15537801Y-12533888D01*
X15537801Y-12533888D02*
X15528277Y-12552936D01*
X15528277Y-12552936D02*
X15518753Y-12562460D01*
X15518753Y-12562460D02*
X15499706Y-12571984D01*
X15499706Y-12571984D02*
X15471134Y-12571984D01*
X15652087Y-12571984D02*
X15633039Y-12562460D01*
X15633039Y-12562460D02*
X15623515Y-12543412D01*
X15623515Y-12543412D02*
X15623515Y-12371984D01*
X15804468Y-12562460D02*
X15785420Y-12571984D01*
X15785420Y-12571984D02*
X15747325Y-12571984D01*
X15747325Y-12571984D02*
X15728277Y-12562460D01*
X15728277Y-12562460D02*
X15718753Y-12543412D01*
X15718753Y-12543412D02*
X15718753Y-12467222D01*
X15718753Y-12467222D02*
X15728277Y-12448174D01*
X15728277Y-12448174D02*
X15747325Y-12438650D01*
X15747325Y-12438650D02*
X15785420Y-12438650D01*
X15785420Y-12438650D02*
X15804468Y-12448174D01*
X15804468Y-12448174D02*
X15813991Y-12467222D01*
X15813991Y-12467222D02*
X15813991Y-12486269D01*
X15813991Y-12486269D02*
X15718753Y-12505317D01*
X15890182Y-12562460D02*
X15909230Y-12571984D01*
X15909230Y-12571984D02*
X15947325Y-12571984D01*
X15947325Y-12571984D02*
X15966372Y-12562460D01*
X15966372Y-12562460D02*
X15975896Y-12543412D01*
X15975896Y-12543412D02*
X15975896Y-12533888D01*
X15975896Y-12533888D02*
X15966372Y-12514841D01*
X15966372Y-12514841D02*
X15947325Y-12505317D01*
X15947325Y-12505317D02*
X15918753Y-12505317D01*
X15918753Y-12505317D02*
X15899706Y-12495793D01*
X15899706Y-12495793D02*
X15890182Y-12476746D01*
X15890182Y-12476746D02*
X15890182Y-12467222D01*
X15890182Y-12467222D02*
X15899706Y-12448174D01*
X15899706Y-12448174D02*
X15918753Y-12438650D01*
X15918753Y-12438650D02*
X15947325Y-12438650D01*
X15947325Y-12438650D02*
X15966372Y-12448174D01*
X16042563Y-12648174D02*
X16052087Y-12638650D01*
X16052087Y-12638650D02*
X16071134Y-12610079D01*
X16071134Y-12610079D02*
X16080658Y-12591031D01*
X16080658Y-12591031D02*
X16090182Y-12562460D01*
X16090182Y-12562460D02*
X16099706Y-12514841D01*
X16099706Y-12514841D02*
X16099706Y-12476746D01*
X16099706Y-12476746D02*
X16090182Y-12429127D01*
X16090182Y-12429127D02*
X16080658Y-12400555D01*
X16080658Y-12400555D02*
X16071134Y-12381508D01*
X16071134Y-12381508D02*
X16052087Y-12352936D01*
X16052087Y-12352936D02*
X16042563Y-12343412D01*
D13*
X11251391Y-12783391D02*
X11251391Y-12705609D01*
X11173609Y-12705609D01*
X11173609Y-12783391D01*
X11251391Y-12783391D01*
D11*
X11633039Y-12835984D02*
X11518753Y-12835984D01*
X11575896Y-12835984D02*
X11575896Y-12635984D01*
X11575896Y-12635984D02*
X11556848Y-12664555D01*
X11556848Y-12664555D02*
X11537801Y-12683603D01*
X11537801Y-12683603D02*
X11518753Y-12693127D01*
X11718753Y-12816936D02*
X11728277Y-12826460D01*
X11728277Y-12826460D02*
X11718753Y-12835984D01*
X11718753Y-12835984D02*
X11709229Y-12826460D01*
X11709229Y-12826460D02*
X11718753Y-12816936D01*
X11718753Y-12816936D02*
X11718753Y-12835984D01*
X11918753Y-12835984D02*
X11804467Y-12835984D01*
X11861610Y-12835984D02*
X11861610Y-12635984D01*
X11861610Y-12635984D02*
X11842562Y-12664555D01*
X11842562Y-12664555D02*
X11823515Y-12683603D01*
X11823515Y-12683603D02*
X11804467Y-12693127D01*
X12042562Y-12635984D02*
X12061610Y-12635984D01*
X12061610Y-12635984D02*
X12080658Y-12645508D01*
X12080658Y-12645508D02*
X12090182Y-12655031D01*
X12090182Y-12655031D02*
X12099705Y-12674079D01*
X12099705Y-12674079D02*
X12109229Y-12712174D01*
X12109229Y-12712174D02*
X12109229Y-12759793D01*
X12109229Y-12759793D02*
X12099705Y-12797888D01*
X12099705Y-12797888D02*
X12090182Y-12816936D01*
X12090182Y-12816936D02*
X12080658Y-12826460D01*
X12080658Y-12826460D02*
X12061610Y-12835984D01*
X12061610Y-12835984D02*
X12042562Y-12835984D01*
X12042562Y-12835984D02*
X12023515Y-12826460D01*
X12023515Y-12826460D02*
X12013991Y-12816936D01*
X12013991Y-12816936D02*
X12004467Y-12797888D01*
X12004467Y-12797888D02*
X11994943Y-12759793D01*
X11994943Y-12759793D02*
X11994943Y-12712174D01*
X11994943Y-12712174D02*
X12004467Y-12674079D01*
X12004467Y-12674079D02*
X12013991Y-12655031D01*
X12013991Y-12655031D02*
X12023515Y-12645508D01*
X12023515Y-12645508D02*
X12042562Y-12635984D01*
X12233039Y-12635984D02*
X12252086Y-12635984D01*
X12252086Y-12635984D02*
X12271134Y-12645508D01*
X12271134Y-12645508D02*
X12280658Y-12655031D01*
X12280658Y-12655031D02*
X12290182Y-12674079D01*
X12290182Y-12674079D02*
X12299705Y-12712174D01*
X12299705Y-12712174D02*
X12299705Y-12759793D01*
X12299705Y-12759793D02*
X12290182Y-12797888D01*
X12290182Y-12797888D02*
X12280658Y-12816936D01*
X12280658Y-12816936D02*
X12271134Y-12826460D01*
X12271134Y-12826460D02*
X12252086Y-12835984D01*
X12252086Y-12835984D02*
X12233039Y-12835984D01*
X12233039Y-12835984D02*
X12213991Y-12826460D01*
X12213991Y-12826460D02*
X12204467Y-12816936D01*
X12204467Y-12816936D02*
X12194943Y-12797888D01*
X12194943Y-12797888D02*
X12185420Y-12759793D01*
X12185420Y-12759793D02*
X12185420Y-12712174D01*
X12185420Y-12712174D02*
X12194943Y-12674079D01*
X12194943Y-12674079D02*
X12204467Y-12655031D01*
X12204467Y-12655031D02*
X12213991Y-12645508D01*
X12213991Y-12645508D02*
X12233039Y-12635984D01*
X12385420Y-12835984D02*
X12385420Y-12702650D01*
X12385420Y-12721698D02*
X12394943Y-12712174D01*
X12394943Y-12712174D02*
X12413991Y-12702650D01*
X12413991Y-12702650D02*
X12442563Y-12702650D01*
X12442563Y-12702650D02*
X12461610Y-12712174D01*
X12461610Y-12712174D02*
X12471134Y-12731222D01*
X12471134Y-12731222D02*
X12471134Y-12835984D01*
X12471134Y-12731222D02*
X12480658Y-12712174D01*
X12480658Y-12712174D02*
X12499705Y-12702650D01*
X12499705Y-12702650D02*
X12528277Y-12702650D01*
X12528277Y-12702650D02*
X12547324Y-12712174D01*
X12547324Y-12712174D02*
X12556848Y-12731222D01*
X12556848Y-12731222D02*
X12556848Y-12835984D01*
X12652086Y-12835984D02*
X12652086Y-12702650D01*
X12652086Y-12721698D02*
X12661610Y-12712174D01*
X12661610Y-12712174D02*
X12680658Y-12702650D01*
X12680658Y-12702650D02*
X12709229Y-12702650D01*
X12709229Y-12702650D02*
X12728277Y-12712174D01*
X12728277Y-12712174D02*
X12737801Y-12731222D01*
X12737801Y-12731222D02*
X12737801Y-12835984D01*
X12737801Y-12731222D02*
X12747324Y-12712174D01*
X12747324Y-12712174D02*
X12766372Y-12702650D01*
X12766372Y-12702650D02*
X12794943Y-12702650D01*
X12794943Y-12702650D02*
X12813991Y-12712174D01*
X12813991Y-12712174D02*
X12823515Y-12731222D01*
X12823515Y-12731222D02*
X12823515Y-12835984D01*
X13213991Y-12626460D02*
X13042563Y-12883603D01*
X13471134Y-12635984D02*
X13490182Y-12635984D01*
X13490182Y-12635984D02*
X13509229Y-12645508D01*
X13509229Y-12645508D02*
X13518753Y-12655031D01*
X13518753Y-12655031D02*
X13528277Y-12674079D01*
X13528277Y-12674079D02*
X13537801Y-12712174D01*
X13537801Y-12712174D02*
X13537801Y-12759793D01*
X13537801Y-12759793D02*
X13528277Y-12797888D01*
X13528277Y-12797888D02*
X13518753Y-12816936D01*
X13518753Y-12816936D02*
X13509229Y-12826460D01*
X13509229Y-12826460D02*
X13490182Y-12835984D01*
X13490182Y-12835984D02*
X13471134Y-12835984D01*
X13471134Y-12835984D02*
X13452086Y-12826460D01*
X13452086Y-12826460D02*
X13442563Y-12816936D01*
X13442563Y-12816936D02*
X13433039Y-12797888D01*
X13433039Y-12797888D02*
X13423515Y-12759793D01*
X13423515Y-12759793D02*
X13423515Y-12712174D01*
X13423515Y-12712174D02*
X13433039Y-12674079D01*
X13433039Y-12674079D02*
X13442563Y-12655031D01*
X13442563Y-12655031D02*
X13452086Y-12645508D01*
X13452086Y-12645508D02*
X13471134Y-12635984D01*
X13623515Y-12816936D02*
X13633039Y-12826460D01*
X13633039Y-12826460D02*
X13623515Y-12835984D01*
X13623515Y-12835984D02*
X13613991Y-12826460D01*
X13613991Y-12826460D02*
X13623515Y-12816936D01*
X13623515Y-12816936D02*
X13623515Y-12835984D01*
X13756848Y-12635984D02*
X13775896Y-12635984D01*
X13775896Y-12635984D02*
X13794944Y-12645508D01*
X13794944Y-12645508D02*
X13804467Y-12655031D01*
X13804467Y-12655031D02*
X13813991Y-12674079D01*
X13813991Y-12674079D02*
X13823515Y-12712174D01*
X13823515Y-12712174D02*
X13823515Y-12759793D01*
X13823515Y-12759793D02*
X13813991Y-12797888D01*
X13813991Y-12797888D02*
X13804467Y-12816936D01*
X13804467Y-12816936D02*
X13794944Y-12826460D01*
X13794944Y-12826460D02*
X13775896Y-12835984D01*
X13775896Y-12835984D02*
X13756848Y-12835984D01*
X13756848Y-12835984D02*
X13737801Y-12826460D01*
X13737801Y-12826460D02*
X13728277Y-12816936D01*
X13728277Y-12816936D02*
X13718753Y-12797888D01*
X13718753Y-12797888D02*
X13709229Y-12759793D01*
X13709229Y-12759793D02*
X13709229Y-12712174D01*
X13709229Y-12712174D02*
X13718753Y-12674079D01*
X13718753Y-12674079D02*
X13728277Y-12655031D01*
X13728277Y-12655031D02*
X13737801Y-12645508D01*
X13737801Y-12645508D02*
X13756848Y-12635984D01*
X13994944Y-12702650D02*
X13994944Y-12835984D01*
X13947325Y-12626460D02*
X13899706Y-12769317D01*
X13899706Y-12769317D02*
X14023515Y-12769317D01*
X14080658Y-12635984D02*
X14204467Y-12635984D01*
X14204467Y-12635984D02*
X14137801Y-12712174D01*
X14137801Y-12712174D02*
X14166372Y-12712174D01*
X14166372Y-12712174D02*
X14185420Y-12721698D01*
X14185420Y-12721698D02*
X14194944Y-12731222D01*
X14194944Y-12731222D02*
X14204467Y-12750269D01*
X14204467Y-12750269D02*
X14204467Y-12797888D01*
X14204467Y-12797888D02*
X14194944Y-12816936D01*
X14194944Y-12816936D02*
X14185420Y-12826460D01*
X14185420Y-12826460D02*
X14166372Y-12835984D01*
X14166372Y-12835984D02*
X14109229Y-12835984D01*
X14109229Y-12835984D02*
X14090182Y-12826460D01*
X14090182Y-12826460D02*
X14080658Y-12816936D01*
X14271134Y-12635984D02*
X14394944Y-12635984D01*
X14394944Y-12635984D02*
X14328277Y-12712174D01*
X14328277Y-12712174D02*
X14356848Y-12712174D01*
X14356848Y-12712174D02*
X14375896Y-12721698D01*
X14375896Y-12721698D02*
X14385420Y-12731222D01*
X14385420Y-12731222D02*
X14394944Y-12750269D01*
X14394944Y-12750269D02*
X14394944Y-12797888D01*
X14394944Y-12797888D02*
X14385420Y-12816936D01*
X14385420Y-12816936D02*
X14375896Y-12826460D01*
X14375896Y-12826460D02*
X14356848Y-12835984D01*
X14356848Y-12835984D02*
X14299706Y-12835984D01*
X14299706Y-12835984D02*
X14280658Y-12826460D01*
X14280658Y-12826460D02*
X14271134Y-12816936D01*
X14471134Y-12635984D02*
X14471134Y-12674079D01*
X14547325Y-12635984D02*
X14547325Y-12674079D01*
X14842563Y-12912174D02*
X14833039Y-12902650D01*
X14833039Y-12902650D02*
X14813991Y-12874079D01*
X14813991Y-12874079D02*
X14804468Y-12855031D01*
X14804468Y-12855031D02*
X14794944Y-12826460D01*
X14794944Y-12826460D02*
X14785420Y-12778841D01*
X14785420Y-12778841D02*
X14785420Y-12740746D01*
X14785420Y-12740746D02*
X14794944Y-12693127D01*
X14794944Y-12693127D02*
X14804468Y-12664555D01*
X14804468Y-12664555D02*
X14813991Y-12645508D01*
X14813991Y-12645508D02*
X14833039Y-12616936D01*
X14833039Y-12616936D02*
X14842563Y-12607412D01*
X15023515Y-12835984D02*
X14909229Y-12835984D01*
X14966372Y-12835984D02*
X14966372Y-12635984D01*
X14966372Y-12635984D02*
X14947325Y-12664555D01*
X14947325Y-12664555D02*
X14928277Y-12683603D01*
X14928277Y-12683603D02*
X14909229Y-12693127D01*
X15213991Y-12835984D02*
X15099706Y-12835984D01*
X15156848Y-12835984D02*
X15156848Y-12635984D01*
X15156848Y-12635984D02*
X15137801Y-12664555D01*
X15137801Y-12664555D02*
X15118753Y-12683603D01*
X15118753Y-12683603D02*
X15099706Y-12693127D01*
X15452087Y-12835984D02*
X15452087Y-12635984D01*
X15537801Y-12835984D02*
X15537801Y-12731222D01*
X15537801Y-12731222D02*
X15528277Y-12712174D01*
X15528277Y-12712174D02*
X15509230Y-12702650D01*
X15509230Y-12702650D02*
X15480658Y-12702650D01*
X15480658Y-12702650D02*
X15461610Y-12712174D01*
X15461610Y-12712174D02*
X15452087Y-12721698D01*
X15661610Y-12835984D02*
X15642563Y-12826460D01*
X15642563Y-12826460D02*
X15633039Y-12816936D01*
X15633039Y-12816936D02*
X15623515Y-12797888D01*
X15623515Y-12797888D02*
X15623515Y-12740746D01*
X15623515Y-12740746D02*
X15633039Y-12721698D01*
X15633039Y-12721698D02*
X15642563Y-12712174D01*
X15642563Y-12712174D02*
X15661610Y-12702650D01*
X15661610Y-12702650D02*
X15690182Y-12702650D01*
X15690182Y-12702650D02*
X15709230Y-12712174D01*
X15709230Y-12712174D02*
X15718753Y-12721698D01*
X15718753Y-12721698D02*
X15728277Y-12740746D01*
X15728277Y-12740746D02*
X15728277Y-12797888D01*
X15728277Y-12797888D02*
X15718753Y-12816936D01*
X15718753Y-12816936D02*
X15709230Y-12826460D01*
X15709230Y-12826460D02*
X15690182Y-12835984D01*
X15690182Y-12835984D02*
X15661610Y-12835984D01*
X15842563Y-12835984D02*
X15823515Y-12826460D01*
X15823515Y-12826460D02*
X15813991Y-12807412D01*
X15813991Y-12807412D02*
X15813991Y-12635984D01*
X15994944Y-12826460D02*
X15975896Y-12835984D01*
X15975896Y-12835984D02*
X15937801Y-12835984D01*
X15937801Y-12835984D02*
X15918753Y-12826460D01*
X15918753Y-12826460D02*
X15909230Y-12807412D01*
X15909230Y-12807412D02*
X15909230Y-12731222D01*
X15909230Y-12731222D02*
X15918753Y-12712174D01*
X15918753Y-12712174D02*
X15937801Y-12702650D01*
X15937801Y-12702650D02*
X15975896Y-12702650D01*
X15975896Y-12702650D02*
X15994944Y-12712174D01*
X15994944Y-12712174D02*
X16004468Y-12731222D01*
X16004468Y-12731222D02*
X16004468Y-12750269D01*
X16004468Y-12750269D02*
X15909230Y-12769317D01*
X16080658Y-12826460D02*
X16099706Y-12835984D01*
X16099706Y-12835984D02*
X16137801Y-12835984D01*
X16137801Y-12835984D02*
X16156849Y-12826460D01*
X16156849Y-12826460D02*
X16166372Y-12807412D01*
X16166372Y-12807412D02*
X16166372Y-12797888D01*
X16166372Y-12797888D02*
X16156849Y-12778841D01*
X16156849Y-12778841D02*
X16137801Y-12769317D01*
X16137801Y-12769317D02*
X16109230Y-12769317D01*
X16109230Y-12769317D02*
X16090182Y-12759793D01*
X16090182Y-12759793D02*
X16080658Y-12740746D01*
X16080658Y-12740746D02*
X16080658Y-12731222D01*
X16080658Y-12731222D02*
X16090182Y-12712174D01*
X16090182Y-12712174D02*
X16109230Y-12702650D01*
X16109230Y-12702650D02*
X16137801Y-12702650D01*
X16137801Y-12702650D02*
X16156849Y-12712174D01*
X16233039Y-12912174D02*
X16242563Y-12902650D01*
X16242563Y-12902650D02*
X16261611Y-12874079D01*
X16261611Y-12874079D02*
X16271134Y-12855031D01*
X16271134Y-12855031D02*
X16280658Y-12826460D01*
X16280658Y-12826460D02*
X16290182Y-12778841D01*
X16290182Y-12778841D02*
X16290182Y-12740746D01*
X16290182Y-12740746D02*
X16280658Y-12693127D01*
X16280658Y-12693127D02*
X16271134Y-12664555D01*
X16271134Y-12664555D02*
X16261611Y-12645508D01*
X16261611Y-12645508D02*
X16242563Y-12616936D01*
X16242563Y-12616936D02*
X16233039Y-12607412D01*
D14*
X11207500Y-13068500D02*
X11267500Y-13008500D01*
X11207500Y-12948500D01*
X11147500Y-13008500D01*
X11207500Y-13068500D01*
D11*
X11633039Y-13099984D02*
X11518753Y-13099984D01*
X11575896Y-13099984D02*
X11575896Y-12899984D01*
X11575896Y-12899984D02*
X11556848Y-12928555D01*
X11556848Y-12928555D02*
X11537801Y-12947603D01*
X11537801Y-12947603D02*
X11518753Y-12957127D01*
X11718753Y-13080936D02*
X11728277Y-13090460D01*
X11728277Y-13090460D02*
X11718753Y-13099984D01*
X11718753Y-13099984D02*
X11709229Y-13090460D01*
X11709229Y-13090460D02*
X11718753Y-13080936D01*
X11718753Y-13080936D02*
X11718753Y-13099984D01*
X11804467Y-12919031D02*
X11813991Y-12909508D01*
X11813991Y-12909508D02*
X11833039Y-12899984D01*
X11833039Y-12899984D02*
X11880658Y-12899984D01*
X11880658Y-12899984D02*
X11899705Y-12909508D01*
X11899705Y-12909508D02*
X11909229Y-12919031D01*
X11909229Y-12919031D02*
X11918753Y-12938079D01*
X11918753Y-12938079D02*
X11918753Y-12957127D01*
X11918753Y-12957127D02*
X11909229Y-12985698D01*
X11909229Y-12985698D02*
X11794943Y-13099984D01*
X11794943Y-13099984D02*
X11918753Y-13099984D01*
X12042562Y-12899984D02*
X12061610Y-12899984D01*
X12061610Y-12899984D02*
X12080658Y-12909508D01*
X12080658Y-12909508D02*
X12090182Y-12919031D01*
X12090182Y-12919031D02*
X12099705Y-12938079D01*
X12099705Y-12938079D02*
X12109229Y-12976174D01*
X12109229Y-12976174D02*
X12109229Y-13023793D01*
X12109229Y-13023793D02*
X12099705Y-13061888D01*
X12099705Y-13061888D02*
X12090182Y-13080936D01*
X12090182Y-13080936D02*
X12080658Y-13090460D01*
X12080658Y-13090460D02*
X12061610Y-13099984D01*
X12061610Y-13099984D02*
X12042562Y-13099984D01*
X12042562Y-13099984D02*
X12023515Y-13090460D01*
X12023515Y-13090460D02*
X12013991Y-13080936D01*
X12013991Y-13080936D02*
X12004467Y-13061888D01*
X12004467Y-13061888D02*
X11994943Y-13023793D01*
X11994943Y-13023793D02*
X11994943Y-12976174D01*
X11994943Y-12976174D02*
X12004467Y-12938079D01*
X12004467Y-12938079D02*
X12013991Y-12919031D01*
X12013991Y-12919031D02*
X12023515Y-12909508D01*
X12023515Y-12909508D02*
X12042562Y-12899984D01*
X12233039Y-12899984D02*
X12252086Y-12899984D01*
X12252086Y-12899984D02*
X12271134Y-12909508D01*
X12271134Y-12909508D02*
X12280658Y-12919031D01*
X12280658Y-12919031D02*
X12290182Y-12938079D01*
X12290182Y-12938079D02*
X12299705Y-12976174D01*
X12299705Y-12976174D02*
X12299705Y-13023793D01*
X12299705Y-13023793D02*
X12290182Y-13061888D01*
X12290182Y-13061888D02*
X12280658Y-13080936D01*
X12280658Y-13080936D02*
X12271134Y-13090460D01*
X12271134Y-13090460D02*
X12252086Y-13099984D01*
X12252086Y-13099984D02*
X12233039Y-13099984D01*
X12233039Y-13099984D02*
X12213991Y-13090460D01*
X12213991Y-13090460D02*
X12204467Y-13080936D01*
X12204467Y-13080936D02*
X12194943Y-13061888D01*
X12194943Y-13061888D02*
X12185420Y-13023793D01*
X12185420Y-13023793D02*
X12185420Y-12976174D01*
X12185420Y-12976174D02*
X12194943Y-12938079D01*
X12194943Y-12938079D02*
X12204467Y-12919031D01*
X12204467Y-12919031D02*
X12213991Y-12909508D01*
X12213991Y-12909508D02*
X12233039Y-12899984D01*
X12385420Y-13099984D02*
X12385420Y-12966650D01*
X12385420Y-12985698D02*
X12394943Y-12976174D01*
X12394943Y-12976174D02*
X12413991Y-12966650D01*
X12413991Y-12966650D02*
X12442563Y-12966650D01*
X12442563Y-12966650D02*
X12461610Y-12976174D01*
X12461610Y-12976174D02*
X12471134Y-12995222D01*
X12471134Y-12995222D02*
X12471134Y-13099984D01*
X12471134Y-12995222D02*
X12480658Y-12976174D01*
X12480658Y-12976174D02*
X12499705Y-12966650D01*
X12499705Y-12966650D02*
X12528277Y-12966650D01*
X12528277Y-12966650D02*
X12547324Y-12976174D01*
X12547324Y-12976174D02*
X12556848Y-12995222D01*
X12556848Y-12995222D02*
X12556848Y-13099984D01*
X12652086Y-13099984D02*
X12652086Y-12966650D01*
X12652086Y-12985698D02*
X12661610Y-12976174D01*
X12661610Y-12976174D02*
X12680658Y-12966650D01*
X12680658Y-12966650D02*
X12709229Y-12966650D01*
X12709229Y-12966650D02*
X12728277Y-12976174D01*
X12728277Y-12976174D02*
X12737801Y-12995222D01*
X12737801Y-12995222D02*
X12737801Y-13099984D01*
X12737801Y-12995222D02*
X12747324Y-12976174D01*
X12747324Y-12976174D02*
X12766372Y-12966650D01*
X12766372Y-12966650D02*
X12794943Y-12966650D01*
X12794943Y-12966650D02*
X12813991Y-12976174D01*
X12813991Y-12976174D02*
X12823515Y-12995222D01*
X12823515Y-12995222D02*
X12823515Y-13099984D01*
X13213991Y-12890460D02*
X13042563Y-13147603D01*
X13471134Y-12899984D02*
X13490182Y-12899984D01*
X13490182Y-12899984D02*
X13509229Y-12909508D01*
X13509229Y-12909508D02*
X13518753Y-12919031D01*
X13518753Y-12919031D02*
X13528277Y-12938079D01*
X13528277Y-12938079D02*
X13537801Y-12976174D01*
X13537801Y-12976174D02*
X13537801Y-13023793D01*
X13537801Y-13023793D02*
X13528277Y-13061888D01*
X13528277Y-13061888D02*
X13518753Y-13080936D01*
X13518753Y-13080936D02*
X13509229Y-13090460D01*
X13509229Y-13090460D02*
X13490182Y-13099984D01*
X13490182Y-13099984D02*
X13471134Y-13099984D01*
X13471134Y-13099984D02*
X13452086Y-13090460D01*
X13452086Y-13090460D02*
X13442563Y-13080936D01*
X13442563Y-13080936D02*
X13433039Y-13061888D01*
X13433039Y-13061888D02*
X13423515Y-13023793D01*
X13423515Y-13023793D02*
X13423515Y-12976174D01*
X13423515Y-12976174D02*
X13433039Y-12938079D01*
X13433039Y-12938079D02*
X13442563Y-12919031D01*
X13442563Y-12919031D02*
X13452086Y-12909508D01*
X13452086Y-12909508D02*
X13471134Y-12899984D01*
X13623515Y-13080936D02*
X13633039Y-13090460D01*
X13633039Y-13090460D02*
X13623515Y-13099984D01*
X13623515Y-13099984D02*
X13613991Y-13090460D01*
X13613991Y-13090460D02*
X13623515Y-13080936D01*
X13623515Y-13080936D02*
X13623515Y-13099984D01*
X13756848Y-12899984D02*
X13775896Y-12899984D01*
X13775896Y-12899984D02*
X13794944Y-12909508D01*
X13794944Y-12909508D02*
X13804467Y-12919031D01*
X13804467Y-12919031D02*
X13813991Y-12938079D01*
X13813991Y-12938079D02*
X13823515Y-12976174D01*
X13823515Y-12976174D02*
X13823515Y-13023793D01*
X13823515Y-13023793D02*
X13813991Y-13061888D01*
X13813991Y-13061888D02*
X13804467Y-13080936D01*
X13804467Y-13080936D02*
X13794944Y-13090460D01*
X13794944Y-13090460D02*
X13775896Y-13099984D01*
X13775896Y-13099984D02*
X13756848Y-13099984D01*
X13756848Y-13099984D02*
X13737801Y-13090460D01*
X13737801Y-13090460D02*
X13728277Y-13080936D01*
X13728277Y-13080936D02*
X13718753Y-13061888D01*
X13718753Y-13061888D02*
X13709229Y-13023793D01*
X13709229Y-13023793D02*
X13709229Y-12976174D01*
X13709229Y-12976174D02*
X13718753Y-12938079D01*
X13718753Y-12938079D02*
X13728277Y-12919031D01*
X13728277Y-12919031D02*
X13737801Y-12909508D01*
X13737801Y-12909508D02*
X13756848Y-12899984D01*
X13994944Y-12966650D02*
X13994944Y-13099984D01*
X13947325Y-12890460D02*
X13899706Y-13033317D01*
X13899706Y-13033317D02*
X14023515Y-13033317D01*
X14080658Y-12899984D02*
X14213991Y-12899984D01*
X14213991Y-12899984D02*
X14128277Y-13099984D01*
X14280658Y-12919031D02*
X14290182Y-12909508D01*
X14290182Y-12909508D02*
X14309229Y-12899984D01*
X14309229Y-12899984D02*
X14356848Y-12899984D01*
X14356848Y-12899984D02*
X14375896Y-12909508D01*
X14375896Y-12909508D02*
X14385420Y-12919031D01*
X14385420Y-12919031D02*
X14394944Y-12938079D01*
X14394944Y-12938079D02*
X14394944Y-12957127D01*
X14394944Y-12957127D02*
X14385420Y-12985698D01*
X14385420Y-12985698D02*
X14271134Y-13099984D01*
X14271134Y-13099984D02*
X14394944Y-13099984D01*
X14471134Y-12899984D02*
X14471134Y-12938079D01*
X14547325Y-12899984D02*
X14547325Y-12938079D01*
X14842563Y-13176174D02*
X14833039Y-13166650D01*
X14833039Y-13166650D02*
X14813991Y-13138079D01*
X14813991Y-13138079D02*
X14804468Y-13119031D01*
X14804468Y-13119031D02*
X14794944Y-13090460D01*
X14794944Y-13090460D02*
X14785420Y-13042841D01*
X14785420Y-13042841D02*
X14785420Y-13004746D01*
X14785420Y-13004746D02*
X14794944Y-12957127D01*
X14794944Y-12957127D02*
X14804468Y-12928555D01*
X14804468Y-12928555D02*
X14813991Y-12909508D01*
X14813991Y-12909508D02*
X14833039Y-12880936D01*
X14833039Y-12880936D02*
X14842563Y-12871412D01*
X14909229Y-12919031D02*
X14918753Y-12909508D01*
X14918753Y-12909508D02*
X14937801Y-12899984D01*
X14937801Y-12899984D02*
X14985420Y-12899984D01*
X14985420Y-12899984D02*
X15004468Y-12909508D01*
X15004468Y-12909508D02*
X15013991Y-12919031D01*
X15013991Y-12919031D02*
X15023515Y-12938079D01*
X15023515Y-12938079D02*
X15023515Y-12957127D01*
X15023515Y-12957127D02*
X15013991Y-12985698D01*
X15013991Y-12985698D02*
X14899706Y-13099984D01*
X14899706Y-13099984D02*
X15023515Y-13099984D01*
X15261610Y-13099984D02*
X15261610Y-12899984D01*
X15347325Y-13099984D02*
X15347325Y-12995222D01*
X15347325Y-12995222D02*
X15337801Y-12976174D01*
X15337801Y-12976174D02*
X15318753Y-12966650D01*
X15318753Y-12966650D02*
X15290182Y-12966650D01*
X15290182Y-12966650D02*
X15271134Y-12976174D01*
X15271134Y-12976174D02*
X15261610Y-12985698D01*
X15471134Y-13099984D02*
X15452087Y-13090460D01*
X15452087Y-13090460D02*
X15442563Y-13080936D01*
X15442563Y-13080936D02*
X15433039Y-13061888D01*
X15433039Y-13061888D02*
X15433039Y-13004746D01*
X15433039Y-13004746D02*
X15442563Y-12985698D01*
X15442563Y-12985698D02*
X15452087Y-12976174D01*
X15452087Y-12976174D02*
X15471134Y-12966650D01*
X15471134Y-12966650D02*
X15499706Y-12966650D01*
X15499706Y-12966650D02*
X15518753Y-12976174D01*
X15518753Y-12976174D02*
X15528277Y-12985698D01*
X15528277Y-12985698D02*
X15537801Y-13004746D01*
X15537801Y-13004746D02*
X15537801Y-13061888D01*
X15537801Y-13061888D02*
X15528277Y-13080936D01*
X15528277Y-13080936D02*
X15518753Y-13090460D01*
X15518753Y-13090460D02*
X15499706Y-13099984D01*
X15499706Y-13099984D02*
X15471134Y-13099984D01*
X15652087Y-13099984D02*
X15633039Y-13090460D01*
X15633039Y-13090460D02*
X15623515Y-13071412D01*
X15623515Y-13071412D02*
X15623515Y-12899984D01*
X15804468Y-13090460D02*
X15785420Y-13099984D01*
X15785420Y-13099984D02*
X15747325Y-13099984D01*
X15747325Y-13099984D02*
X15728277Y-13090460D01*
X15728277Y-13090460D02*
X15718753Y-13071412D01*
X15718753Y-13071412D02*
X15718753Y-12995222D01*
X15718753Y-12995222D02*
X15728277Y-12976174D01*
X15728277Y-12976174D02*
X15747325Y-12966650D01*
X15747325Y-12966650D02*
X15785420Y-12966650D01*
X15785420Y-12966650D02*
X15804468Y-12976174D01*
X15804468Y-12976174D02*
X15813991Y-12995222D01*
X15813991Y-12995222D02*
X15813991Y-13014269D01*
X15813991Y-13014269D02*
X15718753Y-13033317D01*
X15890182Y-13090460D02*
X15909230Y-13099984D01*
X15909230Y-13099984D02*
X15947325Y-13099984D01*
X15947325Y-13099984D02*
X15966372Y-13090460D01*
X15966372Y-13090460D02*
X15975896Y-13071412D01*
X15975896Y-13071412D02*
X15975896Y-13061888D01*
X15975896Y-13061888D02*
X15966372Y-13042841D01*
X15966372Y-13042841D02*
X15947325Y-13033317D01*
X15947325Y-13033317D02*
X15918753Y-13033317D01*
X15918753Y-13033317D02*
X15899706Y-13023793D01*
X15899706Y-13023793D02*
X15890182Y-13004746D01*
X15890182Y-13004746D02*
X15890182Y-12995222D01*
X15890182Y-12995222D02*
X15899706Y-12976174D01*
X15899706Y-12976174D02*
X15918753Y-12966650D01*
X15918753Y-12966650D02*
X15947325Y-12966650D01*
X15947325Y-12966650D02*
X15966372Y-12976174D01*
X16042563Y-13176174D02*
X16052087Y-13166650D01*
X16052087Y-13166650D02*
X16071134Y-13138079D01*
X16071134Y-13138079D02*
X16080658Y-13119031D01*
X16080658Y-13119031D02*
X16090182Y-13090460D01*
X16090182Y-13090460D02*
X16099706Y-13042841D01*
X16099706Y-13042841D02*
X16099706Y-13004746D01*
X16099706Y-13004746D02*
X16090182Y-12957127D01*
X16090182Y-12957127D02*
X16080658Y-12928555D01*
X16080658Y-12928555D02*
X16071134Y-12909508D01*
X16071134Y-12909508D02*
X16052087Y-12880936D01*
X16052087Y-12880936D02*
X16042563Y-12871412D01*
D15*
X11115500Y-13196500D02*
X11267500Y-13348500D01*
X11267500Y-13196500D02*
X11115500Y-13348500D01*
X11267500Y-13272500D02*
G75*
G02*
X11115500Y-13272500I-76000J0D01*
G01*
X11115500Y-13272500D02*
G75*
G02*
X11267500Y-13272500I76000J0D01*
G01*
D11*
X11633039Y-13363984D02*
X11518753Y-13363984D01*
X11575896Y-13363984D02*
X11575896Y-13163984D01*
X11575896Y-13163984D02*
X11556848Y-13192555D01*
X11556848Y-13192555D02*
X11537801Y-13211603D01*
X11537801Y-13211603D02*
X11518753Y-13221127D01*
X11718753Y-13344936D02*
X11728277Y-13354460D01*
X11728277Y-13354460D02*
X11718753Y-13363984D01*
X11718753Y-13363984D02*
X11709229Y-13354460D01*
X11709229Y-13354460D02*
X11718753Y-13344936D01*
X11718753Y-13344936D02*
X11718753Y-13363984D01*
X11909229Y-13163984D02*
X11813991Y-13163984D01*
X11813991Y-13163984D02*
X11804467Y-13259222D01*
X11804467Y-13259222D02*
X11813991Y-13249698D01*
X11813991Y-13249698D02*
X11833039Y-13240174D01*
X11833039Y-13240174D02*
X11880658Y-13240174D01*
X11880658Y-13240174D02*
X11899705Y-13249698D01*
X11899705Y-13249698D02*
X11909229Y-13259222D01*
X11909229Y-13259222D02*
X11918753Y-13278269D01*
X11918753Y-13278269D02*
X11918753Y-13325888D01*
X11918753Y-13325888D02*
X11909229Y-13344936D01*
X11909229Y-13344936D02*
X11899705Y-13354460D01*
X11899705Y-13354460D02*
X11880658Y-13363984D01*
X11880658Y-13363984D02*
X11833039Y-13363984D01*
X11833039Y-13363984D02*
X11813991Y-13354460D01*
X11813991Y-13354460D02*
X11804467Y-13344936D01*
X11994943Y-13183031D02*
X12004467Y-13173508D01*
X12004467Y-13173508D02*
X12023515Y-13163984D01*
X12023515Y-13163984D02*
X12071134Y-13163984D01*
X12071134Y-13163984D02*
X12090182Y-13173508D01*
X12090182Y-13173508D02*
X12099705Y-13183031D01*
X12099705Y-13183031D02*
X12109229Y-13202079D01*
X12109229Y-13202079D02*
X12109229Y-13221127D01*
X12109229Y-13221127D02*
X12099705Y-13249698D01*
X12099705Y-13249698D02*
X11985420Y-13363984D01*
X11985420Y-13363984D02*
X12109229Y-13363984D01*
X12233039Y-13163984D02*
X12252086Y-13163984D01*
X12252086Y-13163984D02*
X12271134Y-13173508D01*
X12271134Y-13173508D02*
X12280658Y-13183031D01*
X12280658Y-13183031D02*
X12290182Y-13202079D01*
X12290182Y-13202079D02*
X12299705Y-13240174D01*
X12299705Y-13240174D02*
X12299705Y-13287793D01*
X12299705Y-13287793D02*
X12290182Y-13325888D01*
X12290182Y-13325888D02*
X12280658Y-13344936D01*
X12280658Y-13344936D02*
X12271134Y-13354460D01*
X12271134Y-13354460D02*
X12252086Y-13363984D01*
X12252086Y-13363984D02*
X12233039Y-13363984D01*
X12233039Y-13363984D02*
X12213991Y-13354460D01*
X12213991Y-13354460D02*
X12204467Y-13344936D01*
X12204467Y-13344936D02*
X12194943Y-13325888D01*
X12194943Y-13325888D02*
X12185420Y-13287793D01*
X12185420Y-13287793D02*
X12185420Y-13240174D01*
X12185420Y-13240174D02*
X12194943Y-13202079D01*
X12194943Y-13202079D02*
X12204467Y-13183031D01*
X12204467Y-13183031D02*
X12213991Y-13173508D01*
X12213991Y-13173508D02*
X12233039Y-13163984D01*
X12385420Y-13363984D02*
X12385420Y-13230650D01*
X12385420Y-13249698D02*
X12394943Y-13240174D01*
X12394943Y-13240174D02*
X12413991Y-13230650D01*
X12413991Y-13230650D02*
X12442563Y-13230650D01*
X12442563Y-13230650D02*
X12461610Y-13240174D01*
X12461610Y-13240174D02*
X12471134Y-13259222D01*
X12471134Y-13259222D02*
X12471134Y-13363984D01*
X12471134Y-13259222D02*
X12480658Y-13240174D01*
X12480658Y-13240174D02*
X12499705Y-13230650D01*
X12499705Y-13230650D02*
X12528277Y-13230650D01*
X12528277Y-13230650D02*
X12547324Y-13240174D01*
X12547324Y-13240174D02*
X12556848Y-13259222D01*
X12556848Y-13259222D02*
X12556848Y-13363984D01*
X12652086Y-13363984D02*
X12652086Y-13230650D01*
X12652086Y-13249698D02*
X12661610Y-13240174D01*
X12661610Y-13240174D02*
X12680658Y-13230650D01*
X12680658Y-13230650D02*
X12709229Y-13230650D01*
X12709229Y-13230650D02*
X12728277Y-13240174D01*
X12728277Y-13240174D02*
X12737801Y-13259222D01*
X12737801Y-13259222D02*
X12737801Y-13363984D01*
X12737801Y-13259222D02*
X12747324Y-13240174D01*
X12747324Y-13240174D02*
X12766372Y-13230650D01*
X12766372Y-13230650D02*
X12794943Y-13230650D01*
X12794943Y-13230650D02*
X12813991Y-13240174D01*
X12813991Y-13240174D02*
X12823515Y-13259222D01*
X12823515Y-13259222D02*
X12823515Y-13363984D01*
X13213991Y-13154460D02*
X13042563Y-13411603D01*
X13471134Y-13163984D02*
X13490182Y-13163984D01*
X13490182Y-13163984D02*
X13509229Y-13173508D01*
X13509229Y-13173508D02*
X13518753Y-13183031D01*
X13518753Y-13183031D02*
X13528277Y-13202079D01*
X13528277Y-13202079D02*
X13537801Y-13240174D01*
X13537801Y-13240174D02*
X13537801Y-13287793D01*
X13537801Y-13287793D02*
X13528277Y-13325888D01*
X13528277Y-13325888D02*
X13518753Y-13344936D01*
X13518753Y-13344936D02*
X13509229Y-13354460D01*
X13509229Y-13354460D02*
X13490182Y-13363984D01*
X13490182Y-13363984D02*
X13471134Y-13363984D01*
X13471134Y-13363984D02*
X13452086Y-13354460D01*
X13452086Y-13354460D02*
X13442563Y-13344936D01*
X13442563Y-13344936D02*
X13433039Y-13325888D01*
X13433039Y-13325888D02*
X13423515Y-13287793D01*
X13423515Y-13287793D02*
X13423515Y-13240174D01*
X13423515Y-13240174D02*
X13433039Y-13202079D01*
X13433039Y-13202079D02*
X13442563Y-13183031D01*
X13442563Y-13183031D02*
X13452086Y-13173508D01*
X13452086Y-13173508D02*
X13471134Y-13163984D01*
X13623515Y-13344936D02*
X13633039Y-13354460D01*
X13633039Y-13354460D02*
X13623515Y-13363984D01*
X13623515Y-13363984D02*
X13613991Y-13354460D01*
X13613991Y-13354460D02*
X13623515Y-13344936D01*
X13623515Y-13344936D02*
X13623515Y-13363984D01*
X13756848Y-13163984D02*
X13775896Y-13163984D01*
X13775896Y-13163984D02*
X13794944Y-13173508D01*
X13794944Y-13173508D02*
X13804467Y-13183031D01*
X13804467Y-13183031D02*
X13813991Y-13202079D01*
X13813991Y-13202079D02*
X13823515Y-13240174D01*
X13823515Y-13240174D02*
X13823515Y-13287793D01*
X13823515Y-13287793D02*
X13813991Y-13325888D01*
X13813991Y-13325888D02*
X13804467Y-13344936D01*
X13804467Y-13344936D02*
X13794944Y-13354460D01*
X13794944Y-13354460D02*
X13775896Y-13363984D01*
X13775896Y-13363984D02*
X13756848Y-13363984D01*
X13756848Y-13363984D02*
X13737801Y-13354460D01*
X13737801Y-13354460D02*
X13728277Y-13344936D01*
X13728277Y-13344936D02*
X13718753Y-13325888D01*
X13718753Y-13325888D02*
X13709229Y-13287793D01*
X13709229Y-13287793D02*
X13709229Y-13240174D01*
X13709229Y-13240174D02*
X13718753Y-13202079D01*
X13718753Y-13202079D02*
X13728277Y-13183031D01*
X13728277Y-13183031D02*
X13737801Y-13173508D01*
X13737801Y-13173508D02*
X13756848Y-13163984D01*
X14004467Y-13163984D02*
X13909229Y-13163984D01*
X13909229Y-13163984D02*
X13899706Y-13259222D01*
X13899706Y-13259222D02*
X13909229Y-13249698D01*
X13909229Y-13249698D02*
X13928277Y-13240174D01*
X13928277Y-13240174D02*
X13975896Y-13240174D01*
X13975896Y-13240174D02*
X13994944Y-13249698D01*
X13994944Y-13249698D02*
X14004467Y-13259222D01*
X14004467Y-13259222D02*
X14013991Y-13278269D01*
X14013991Y-13278269D02*
X14013991Y-13325888D01*
X14013991Y-13325888D02*
X14004467Y-13344936D01*
X14004467Y-13344936D02*
X13994944Y-13354460D01*
X13994944Y-13354460D02*
X13975896Y-13363984D01*
X13975896Y-13363984D02*
X13928277Y-13363984D01*
X13928277Y-13363984D02*
X13909229Y-13354460D01*
X13909229Y-13354460D02*
X13899706Y-13344936D01*
X14109229Y-13363984D02*
X14147325Y-13363984D01*
X14147325Y-13363984D02*
X14166372Y-13354460D01*
X14166372Y-13354460D02*
X14175896Y-13344936D01*
X14175896Y-13344936D02*
X14194944Y-13316365D01*
X14194944Y-13316365D02*
X14204467Y-13278269D01*
X14204467Y-13278269D02*
X14204467Y-13202079D01*
X14204467Y-13202079D02*
X14194944Y-13183031D01*
X14194944Y-13183031D02*
X14185420Y-13173508D01*
X14185420Y-13173508D02*
X14166372Y-13163984D01*
X14166372Y-13163984D02*
X14128277Y-13163984D01*
X14128277Y-13163984D02*
X14109229Y-13173508D01*
X14109229Y-13173508D02*
X14099706Y-13183031D01*
X14099706Y-13183031D02*
X14090182Y-13202079D01*
X14090182Y-13202079D02*
X14090182Y-13249698D01*
X14090182Y-13249698D02*
X14099706Y-13268746D01*
X14099706Y-13268746D02*
X14109229Y-13278269D01*
X14109229Y-13278269D02*
X14128277Y-13287793D01*
X14128277Y-13287793D02*
X14166372Y-13287793D01*
X14166372Y-13287793D02*
X14185420Y-13278269D01*
X14185420Y-13278269D02*
X14194944Y-13268746D01*
X14194944Y-13268746D02*
X14204467Y-13249698D01*
X14318753Y-13249698D02*
X14299706Y-13240174D01*
X14299706Y-13240174D02*
X14290182Y-13230650D01*
X14290182Y-13230650D02*
X14280658Y-13211603D01*
X14280658Y-13211603D02*
X14280658Y-13202079D01*
X14280658Y-13202079D02*
X14290182Y-13183031D01*
X14290182Y-13183031D02*
X14299706Y-13173508D01*
X14299706Y-13173508D02*
X14318753Y-13163984D01*
X14318753Y-13163984D02*
X14356848Y-13163984D01*
X14356848Y-13163984D02*
X14375896Y-13173508D01*
X14375896Y-13173508D02*
X14385420Y-13183031D01*
X14385420Y-13183031D02*
X14394944Y-13202079D01*
X14394944Y-13202079D02*
X14394944Y-13211603D01*
X14394944Y-13211603D02*
X14385420Y-13230650D01*
X14385420Y-13230650D02*
X14375896Y-13240174D01*
X14375896Y-13240174D02*
X14356848Y-13249698D01*
X14356848Y-13249698D02*
X14318753Y-13249698D01*
X14318753Y-13249698D02*
X14299706Y-13259222D01*
X14299706Y-13259222D02*
X14290182Y-13268746D01*
X14290182Y-13268746D02*
X14280658Y-13287793D01*
X14280658Y-13287793D02*
X14280658Y-13325888D01*
X14280658Y-13325888D02*
X14290182Y-13344936D01*
X14290182Y-13344936D02*
X14299706Y-13354460D01*
X14299706Y-13354460D02*
X14318753Y-13363984D01*
X14318753Y-13363984D02*
X14356848Y-13363984D01*
X14356848Y-13363984D02*
X14375896Y-13354460D01*
X14375896Y-13354460D02*
X14385420Y-13344936D01*
X14385420Y-13344936D02*
X14394944Y-13325888D01*
X14394944Y-13325888D02*
X14394944Y-13287793D01*
X14394944Y-13287793D02*
X14385420Y-13268746D01*
X14385420Y-13268746D02*
X14375896Y-13259222D01*
X14375896Y-13259222D02*
X14356848Y-13249698D01*
X14471134Y-13163984D02*
X14471134Y-13202079D01*
X14547325Y-13163984D02*
X14547325Y-13202079D01*
X14842563Y-13440174D02*
X14833039Y-13430650D01*
X14833039Y-13430650D02*
X14813991Y-13402079D01*
X14813991Y-13402079D02*
X14804468Y-13383031D01*
X14804468Y-13383031D02*
X14794944Y-13354460D01*
X14794944Y-13354460D02*
X14785420Y-13306841D01*
X14785420Y-13306841D02*
X14785420Y-13268746D01*
X14785420Y-13268746D02*
X14794944Y-13221127D01*
X14794944Y-13221127D02*
X14804468Y-13192555D01*
X14804468Y-13192555D02*
X14813991Y-13173508D01*
X14813991Y-13173508D02*
X14833039Y-13144936D01*
X14833039Y-13144936D02*
X14842563Y-13135412D01*
X15004468Y-13230650D02*
X15004468Y-13363984D01*
X14956848Y-13154460D02*
X14909229Y-13297317D01*
X14909229Y-13297317D02*
X15033039Y-13297317D01*
X15261610Y-13363984D02*
X15261610Y-13163984D01*
X15347325Y-13363984D02*
X15347325Y-13259222D01*
X15347325Y-13259222D02*
X15337801Y-13240174D01*
X15337801Y-13240174D02*
X15318753Y-13230650D01*
X15318753Y-13230650D02*
X15290182Y-13230650D01*
X15290182Y-13230650D02*
X15271134Y-13240174D01*
X15271134Y-13240174D02*
X15261610Y-13249698D01*
X15471134Y-13363984D02*
X15452087Y-13354460D01*
X15452087Y-13354460D02*
X15442563Y-13344936D01*
X15442563Y-13344936D02*
X15433039Y-13325888D01*
X15433039Y-13325888D02*
X15433039Y-13268746D01*
X15433039Y-13268746D02*
X15442563Y-13249698D01*
X15442563Y-13249698D02*
X15452087Y-13240174D01*
X15452087Y-13240174D02*
X15471134Y-13230650D01*
X15471134Y-13230650D02*
X15499706Y-13230650D01*
X15499706Y-13230650D02*
X15518753Y-13240174D01*
X15518753Y-13240174D02*
X15528277Y-13249698D01*
X15528277Y-13249698D02*
X15537801Y-13268746D01*
X15537801Y-13268746D02*
X15537801Y-13325888D01*
X15537801Y-13325888D02*
X15528277Y-13344936D01*
X15528277Y-13344936D02*
X15518753Y-13354460D01*
X15518753Y-13354460D02*
X15499706Y-13363984D01*
X15499706Y-13363984D02*
X15471134Y-13363984D01*
X15652087Y-13363984D02*
X15633039Y-13354460D01*
X15633039Y-13354460D02*
X15623515Y-13335412D01*
X15623515Y-13335412D02*
X15623515Y-13163984D01*
X15804468Y-13354460D02*
X15785420Y-13363984D01*
X15785420Y-13363984D02*
X15747325Y-13363984D01*
X15747325Y-13363984D02*
X15728277Y-13354460D01*
X15728277Y-13354460D02*
X15718753Y-13335412D01*
X15718753Y-13335412D02*
X15718753Y-13259222D01*
X15718753Y-13259222D02*
X15728277Y-13240174D01*
X15728277Y-13240174D02*
X15747325Y-13230650D01*
X15747325Y-13230650D02*
X15785420Y-13230650D01*
X15785420Y-13230650D02*
X15804468Y-13240174D01*
X15804468Y-13240174D02*
X15813991Y-13259222D01*
X15813991Y-13259222D02*
X15813991Y-13278269D01*
X15813991Y-13278269D02*
X15718753Y-13297317D01*
X15890182Y-13354460D02*
X15909230Y-13363984D01*
X15909230Y-13363984D02*
X15947325Y-13363984D01*
X15947325Y-13363984D02*
X15966372Y-13354460D01*
X15966372Y-13354460D02*
X15975896Y-13335412D01*
X15975896Y-13335412D02*
X15975896Y-13325888D01*
X15975896Y-13325888D02*
X15966372Y-13306841D01*
X15966372Y-13306841D02*
X15947325Y-13297317D01*
X15947325Y-13297317D02*
X15918753Y-13297317D01*
X15918753Y-13297317D02*
X15899706Y-13287793D01*
X15899706Y-13287793D02*
X15890182Y-13268746D01*
X15890182Y-13268746D02*
X15890182Y-13259222D01*
X15890182Y-13259222D02*
X15899706Y-13240174D01*
X15899706Y-13240174D02*
X15918753Y-13230650D01*
X15918753Y-13230650D02*
X15947325Y-13230650D01*
X15947325Y-13230650D02*
X15966372Y-13240174D01*
X16042563Y-13440174D02*
X16052087Y-13430650D01*
X16052087Y-13430650D02*
X16071134Y-13402079D01*
X16071134Y-13402079D02*
X16080658Y-13383031D01*
X16080658Y-13383031D02*
X16090182Y-13354460D01*
X16090182Y-13354460D02*
X16099706Y-13306841D01*
X16099706Y-13306841D02*
X16099706Y-13268746D01*
X16099706Y-13268746D02*
X16090182Y-13221127D01*
X16090182Y-13221127D02*
X16080658Y-13192555D01*
X16080658Y-13192555D02*
X16071134Y-13173508D01*
X16071134Y-13173508D02*
X16052087Y-13144936D01*
X16052087Y-13144936D02*
X16042563Y-13135412D01*
M02*
