%TF.GenerationSoftware,KiCad,Pcbnew,9.0.1*%
%TF.CreationDate,2025-08-15T11:03:48+05:00*%
%TF.ProjectId,transformerless_power_supply,7472616e-7366-46f7-926d-65726c657373,rev?*%
%TF.SameCoordinates,Original*%
%TF.FileFunction,Legend,Top*%
%TF.FilePolarity,Positive*%
%FSLAX46Y46*%
G04 Gerber Fmt 4.6, Leading zero omitted, Abs format (unit mm)*
G04 Created by KiCad (PCBNEW 9.0.1) date 2025-08-15 11:03:48*
%MOMM*%
%LPD*%
G01*
G04 APERTURE LIST*
%ADD10C,0.200000*%
%ADD11C,0.180000*%
%ADD12C,0.250000*%
%ADD13C,0.150000*%
%ADD14C,0.120000*%
%ADD15O,1.600000X1.600000*%
%ADD16C,1.600000*%
%ADD17C,2.400000*%
%ADD18R,1.800000X1.800000*%
%ADD19O,1.800000X1.800000*%
%ADD20R,2.200000X2.200000*%
%ADD21O,2.200000X2.200000*%
%ADD22R,2.000000X2.000000*%
%ADD23C,2.000000*%
%ADD24R,1.905000X2.000000*%
%ADD25O,1.905000X2.000000*%
%ADD26R,3.000000X3.000000*%
%ADD27C,3.000000*%
%ADD28C,1.800000*%
G04 APERTURE END LIST*
D10*
X114722054Y-85581504D02*
X115198244Y-85581504D01*
X114626816Y-85867219D02*
X114960149Y-84867219D01*
X114960149Y-84867219D02*
X115293482Y-85867219D01*
X116198244Y-85771980D02*
X116150625Y-85819600D01*
X116150625Y-85819600D02*
X116007768Y-85867219D01*
X116007768Y-85867219D02*
X115912530Y-85867219D01*
X115912530Y-85867219D02*
X115769673Y-85819600D01*
X115769673Y-85819600D02*
X115674435Y-85724361D01*
X115674435Y-85724361D02*
X115626816Y-85629123D01*
X115626816Y-85629123D02*
X115579197Y-85438647D01*
X115579197Y-85438647D02*
X115579197Y-85295790D01*
X115579197Y-85295790D02*
X115626816Y-85105314D01*
X115626816Y-85105314D02*
X115674435Y-85010076D01*
X115674435Y-85010076D02*
X115769673Y-84914838D01*
X115769673Y-84914838D02*
X115912530Y-84867219D01*
X115912530Y-84867219D02*
X116007768Y-84867219D01*
X116007768Y-84867219D02*
X116150625Y-84914838D01*
X116150625Y-84914838D02*
X116198244Y-84962457D01*
X161769673Y-108967219D02*
X161769673Y-107967219D01*
X161769673Y-107967219D02*
X162007768Y-107967219D01*
X162007768Y-107967219D02*
X162150625Y-108014838D01*
X162150625Y-108014838D02*
X162245863Y-108110076D01*
X162245863Y-108110076D02*
X162293482Y-108205314D01*
X162293482Y-108205314D02*
X162341101Y-108395790D01*
X162341101Y-108395790D02*
X162341101Y-108538647D01*
X162341101Y-108538647D02*
X162293482Y-108729123D01*
X162293482Y-108729123D02*
X162245863Y-108824361D01*
X162245863Y-108824361D02*
X162150625Y-108919600D01*
X162150625Y-108919600D02*
X162007768Y-108967219D01*
X162007768Y-108967219D02*
X161769673Y-108967219D01*
X163341101Y-108871980D02*
X163293482Y-108919600D01*
X163293482Y-108919600D02*
X163150625Y-108967219D01*
X163150625Y-108967219D02*
X163055387Y-108967219D01*
X163055387Y-108967219D02*
X162912530Y-108919600D01*
X162912530Y-108919600D02*
X162817292Y-108824361D01*
X162817292Y-108824361D02*
X162769673Y-108729123D01*
X162769673Y-108729123D02*
X162722054Y-108538647D01*
X162722054Y-108538647D02*
X162722054Y-108395790D01*
X162722054Y-108395790D02*
X162769673Y-108205314D01*
X162769673Y-108205314D02*
X162817292Y-108110076D01*
X162817292Y-108110076D02*
X162912530Y-108014838D01*
X162912530Y-108014838D02*
X163055387Y-107967219D01*
X163055387Y-107967219D02*
X163150625Y-107967219D01*
X163150625Y-107967219D02*
X163293482Y-108014838D01*
X163293482Y-108014838D02*
X163341101Y-108062457D01*
D11*
X127980325Y-112268259D02*
X127408897Y-112268259D01*
X127694611Y-112268259D02*
X127694611Y-111268259D01*
X127694611Y-111268259D02*
X127599373Y-111411116D01*
X127599373Y-111411116D02*
X127504135Y-111506354D01*
X127504135Y-111506354D02*
X127408897Y-111553973D01*
X128837468Y-111601592D02*
X128837468Y-112268259D01*
X128599373Y-111220640D02*
X128361278Y-111934925D01*
X128361278Y-111934925D02*
X128980325Y-111934925D01*
X129361278Y-111887306D02*
X130123183Y-111887306D01*
X130789849Y-111268259D02*
X130885087Y-111268259D01*
X130885087Y-111268259D02*
X130980325Y-111315878D01*
X130980325Y-111315878D02*
X131027944Y-111363497D01*
X131027944Y-111363497D02*
X131075563Y-111458735D01*
X131075563Y-111458735D02*
X131123182Y-111649211D01*
X131123182Y-111649211D02*
X131123182Y-111887306D01*
X131123182Y-111887306D02*
X131075563Y-112077782D01*
X131075563Y-112077782D02*
X131027944Y-112173020D01*
X131027944Y-112173020D02*
X130980325Y-112220640D01*
X130980325Y-112220640D02*
X130885087Y-112268259D01*
X130885087Y-112268259D02*
X130789849Y-112268259D01*
X130789849Y-112268259D02*
X130694611Y-112220640D01*
X130694611Y-112220640D02*
X130646992Y-112173020D01*
X130646992Y-112173020D02*
X130599373Y-112077782D01*
X130599373Y-112077782D02*
X130551754Y-111887306D01*
X130551754Y-111887306D02*
X130551754Y-111649211D01*
X130551754Y-111649211D02*
X130599373Y-111458735D01*
X130599373Y-111458735D02*
X130646992Y-111363497D01*
X130646992Y-111363497D02*
X130694611Y-111315878D01*
X130694611Y-111315878D02*
X130789849Y-111268259D01*
X131694611Y-111696830D02*
X131599373Y-111649211D01*
X131599373Y-111649211D02*
X131551754Y-111601592D01*
X131551754Y-111601592D02*
X131504135Y-111506354D01*
X131504135Y-111506354D02*
X131504135Y-111458735D01*
X131504135Y-111458735D02*
X131551754Y-111363497D01*
X131551754Y-111363497D02*
X131599373Y-111315878D01*
X131599373Y-111315878D02*
X131694611Y-111268259D01*
X131694611Y-111268259D02*
X131885087Y-111268259D01*
X131885087Y-111268259D02*
X131980325Y-111315878D01*
X131980325Y-111315878D02*
X132027944Y-111363497D01*
X132027944Y-111363497D02*
X132075563Y-111458735D01*
X132075563Y-111458735D02*
X132075563Y-111506354D01*
X132075563Y-111506354D02*
X132027944Y-111601592D01*
X132027944Y-111601592D02*
X131980325Y-111649211D01*
X131980325Y-111649211D02*
X131885087Y-111696830D01*
X131885087Y-111696830D02*
X131694611Y-111696830D01*
X131694611Y-111696830D02*
X131599373Y-111744449D01*
X131599373Y-111744449D02*
X131551754Y-111792068D01*
X131551754Y-111792068D02*
X131504135Y-111887306D01*
X131504135Y-111887306D02*
X131504135Y-112077782D01*
X131504135Y-112077782D02*
X131551754Y-112173020D01*
X131551754Y-112173020D02*
X131599373Y-112220640D01*
X131599373Y-112220640D02*
X131694611Y-112268259D01*
X131694611Y-112268259D02*
X131885087Y-112268259D01*
X131885087Y-112268259D02*
X131980325Y-112220640D01*
X131980325Y-112220640D02*
X132027944Y-112173020D01*
X132027944Y-112173020D02*
X132075563Y-112077782D01*
X132075563Y-112077782D02*
X132075563Y-111887306D01*
X132075563Y-111887306D02*
X132027944Y-111792068D01*
X132027944Y-111792068D02*
X131980325Y-111744449D01*
X131980325Y-111744449D02*
X131885087Y-111696830D01*
X132504135Y-111887306D02*
X133266040Y-111887306D01*
X133694611Y-111363497D02*
X133742230Y-111315878D01*
X133742230Y-111315878D02*
X133837468Y-111268259D01*
X133837468Y-111268259D02*
X134075563Y-111268259D01*
X134075563Y-111268259D02*
X134170801Y-111315878D01*
X134170801Y-111315878D02*
X134218420Y-111363497D01*
X134218420Y-111363497D02*
X134266039Y-111458735D01*
X134266039Y-111458735D02*
X134266039Y-111553973D01*
X134266039Y-111553973D02*
X134218420Y-111696830D01*
X134218420Y-111696830D02*
X133646992Y-112268259D01*
X133646992Y-112268259D02*
X134266039Y-112268259D01*
X134885087Y-111268259D02*
X134980325Y-111268259D01*
X134980325Y-111268259D02*
X135075563Y-111315878D01*
X135075563Y-111315878D02*
X135123182Y-111363497D01*
X135123182Y-111363497D02*
X135170801Y-111458735D01*
X135170801Y-111458735D02*
X135218420Y-111649211D01*
X135218420Y-111649211D02*
X135218420Y-111887306D01*
X135218420Y-111887306D02*
X135170801Y-112077782D01*
X135170801Y-112077782D02*
X135123182Y-112173020D01*
X135123182Y-112173020D02*
X135075563Y-112220640D01*
X135075563Y-112220640D02*
X134980325Y-112268259D01*
X134980325Y-112268259D02*
X134885087Y-112268259D01*
X134885087Y-112268259D02*
X134789849Y-112220640D01*
X134789849Y-112220640D02*
X134742230Y-112173020D01*
X134742230Y-112173020D02*
X134694611Y-112077782D01*
X134694611Y-112077782D02*
X134646992Y-111887306D01*
X134646992Y-111887306D02*
X134646992Y-111649211D01*
X134646992Y-111649211D02*
X134694611Y-111458735D01*
X134694611Y-111458735D02*
X134742230Y-111363497D01*
X134742230Y-111363497D02*
X134789849Y-111315878D01*
X134789849Y-111315878D02*
X134885087Y-111268259D01*
X135599373Y-111363497D02*
X135646992Y-111315878D01*
X135646992Y-111315878D02*
X135742230Y-111268259D01*
X135742230Y-111268259D02*
X135980325Y-111268259D01*
X135980325Y-111268259D02*
X136075563Y-111315878D01*
X136075563Y-111315878D02*
X136123182Y-111363497D01*
X136123182Y-111363497D02*
X136170801Y-111458735D01*
X136170801Y-111458735D02*
X136170801Y-111553973D01*
X136170801Y-111553973D02*
X136123182Y-111696830D01*
X136123182Y-111696830D02*
X135551754Y-112268259D01*
X135551754Y-112268259D02*
X136170801Y-112268259D01*
X137075563Y-111268259D02*
X136599373Y-111268259D01*
X136599373Y-111268259D02*
X136551754Y-111744449D01*
X136551754Y-111744449D02*
X136599373Y-111696830D01*
X136599373Y-111696830D02*
X136694611Y-111649211D01*
X136694611Y-111649211D02*
X136932706Y-111649211D01*
X136932706Y-111649211D02*
X137027944Y-111696830D01*
X137027944Y-111696830D02*
X137075563Y-111744449D01*
X137075563Y-111744449D02*
X137123182Y-111839687D01*
X137123182Y-111839687D02*
X137123182Y-112077782D01*
X137123182Y-112077782D02*
X137075563Y-112173020D01*
X137075563Y-112173020D02*
X137027944Y-112220640D01*
X137027944Y-112220640D02*
X136932706Y-112268259D01*
X136932706Y-112268259D02*
X136694611Y-112268259D01*
X136694611Y-112268259D02*
X136599373Y-112220640D01*
X136599373Y-112220640D02*
X136551754Y-112173020D01*
D10*
X148769673Y-110457275D02*
X148769673Y-109457275D01*
X148769673Y-109457275D02*
X149103006Y-110171560D01*
X149103006Y-110171560D02*
X149436339Y-109457275D01*
X149436339Y-109457275D02*
X149436339Y-110457275D01*
X150341101Y-109790608D02*
X150341101Y-110457275D01*
X149912530Y-109790608D02*
X149912530Y-110314417D01*
X149912530Y-110314417D02*
X149960149Y-110409656D01*
X149960149Y-110409656D02*
X150055387Y-110457275D01*
X150055387Y-110457275D02*
X150198244Y-110457275D01*
X150198244Y-110457275D02*
X150293482Y-110409656D01*
X150293482Y-110409656D02*
X150341101Y-110362036D01*
X150817292Y-110457275D02*
X150817292Y-109457275D01*
X151245863Y-110457275D02*
X151245863Y-109933465D01*
X151245863Y-109933465D02*
X151198244Y-109838227D01*
X151198244Y-109838227D02*
X151103006Y-109790608D01*
X151103006Y-109790608D02*
X150960149Y-109790608D01*
X150960149Y-109790608D02*
X150864911Y-109838227D01*
X150864911Y-109838227D02*
X150817292Y-109885846D01*
X152150625Y-110457275D02*
X152150625Y-109933465D01*
X152150625Y-109933465D02*
X152103006Y-109838227D01*
X152103006Y-109838227D02*
X152007768Y-109790608D01*
X152007768Y-109790608D02*
X151817292Y-109790608D01*
X151817292Y-109790608D02*
X151722054Y-109838227D01*
X152150625Y-110409656D02*
X152055387Y-110457275D01*
X152055387Y-110457275D02*
X151817292Y-110457275D01*
X151817292Y-110457275D02*
X151722054Y-110409656D01*
X151722054Y-110409656D02*
X151674435Y-110314417D01*
X151674435Y-110314417D02*
X151674435Y-110219179D01*
X151674435Y-110219179D02*
X151722054Y-110123941D01*
X151722054Y-110123941D02*
X151817292Y-110076322D01*
X151817292Y-110076322D02*
X152055387Y-110076322D01*
X152055387Y-110076322D02*
X152150625Y-110028703D01*
X152626816Y-110457275D02*
X152626816Y-109790608D01*
X152626816Y-109885846D02*
X152674435Y-109838227D01*
X152674435Y-109838227D02*
X152769673Y-109790608D01*
X152769673Y-109790608D02*
X152912530Y-109790608D01*
X152912530Y-109790608D02*
X153007768Y-109838227D01*
X153007768Y-109838227D02*
X153055387Y-109933465D01*
X153055387Y-109933465D02*
X153055387Y-110457275D01*
X153055387Y-109933465D02*
X153103006Y-109838227D01*
X153103006Y-109838227D02*
X153198244Y-109790608D01*
X153198244Y-109790608D02*
X153341101Y-109790608D01*
X153341101Y-109790608D02*
X153436340Y-109838227D01*
X153436340Y-109838227D02*
X153483959Y-109933465D01*
X153483959Y-109933465D02*
X153483959Y-110457275D01*
X153960149Y-110457275D02*
X153960149Y-109790608D01*
X153960149Y-109885846D02*
X154007768Y-109838227D01*
X154007768Y-109838227D02*
X154103006Y-109790608D01*
X154103006Y-109790608D02*
X154245863Y-109790608D01*
X154245863Y-109790608D02*
X154341101Y-109838227D01*
X154341101Y-109838227D02*
X154388720Y-109933465D01*
X154388720Y-109933465D02*
X154388720Y-110457275D01*
X154388720Y-109933465D02*
X154436339Y-109838227D01*
X154436339Y-109838227D02*
X154531577Y-109790608D01*
X154531577Y-109790608D02*
X154674434Y-109790608D01*
X154674434Y-109790608D02*
X154769673Y-109838227D01*
X154769673Y-109838227D02*
X154817292Y-109933465D01*
X154817292Y-109933465D02*
X154817292Y-110457275D01*
X155722053Y-110457275D02*
X155722053Y-109933465D01*
X155722053Y-109933465D02*
X155674434Y-109838227D01*
X155674434Y-109838227D02*
X155579196Y-109790608D01*
X155579196Y-109790608D02*
X155388720Y-109790608D01*
X155388720Y-109790608D02*
X155293482Y-109838227D01*
X155722053Y-110409656D02*
X155626815Y-110457275D01*
X155626815Y-110457275D02*
X155388720Y-110457275D01*
X155388720Y-110457275D02*
X155293482Y-110409656D01*
X155293482Y-110409656D02*
X155245863Y-110314417D01*
X155245863Y-110314417D02*
X155245863Y-110219179D01*
X155245863Y-110219179D02*
X155293482Y-110123941D01*
X155293482Y-110123941D02*
X155388720Y-110076322D01*
X155388720Y-110076322D02*
X155626815Y-110076322D01*
X155626815Y-110076322D02*
X155722053Y-110028703D01*
X156626815Y-110457275D02*
X156626815Y-109457275D01*
X156626815Y-110409656D02*
X156531577Y-110457275D01*
X156531577Y-110457275D02*
X156341101Y-110457275D01*
X156341101Y-110457275D02*
X156245863Y-110409656D01*
X156245863Y-110409656D02*
X156198244Y-110362036D01*
X156198244Y-110362036D02*
X156150625Y-110266798D01*
X156150625Y-110266798D02*
X156150625Y-109981084D01*
X156150625Y-109981084D02*
X156198244Y-109885846D01*
X156198244Y-109885846D02*
X156245863Y-109838227D01*
X156245863Y-109838227D02*
X156341101Y-109790608D01*
X156341101Y-109790608D02*
X156531577Y-109790608D01*
X156531577Y-109790608D02*
X156626815Y-109838227D01*
X148769673Y-112067219D02*
X148769673Y-111067219D01*
X148769673Y-111543409D02*
X149341101Y-111543409D01*
X149341101Y-112067219D02*
X149341101Y-111067219D01*
X150245863Y-112067219D02*
X150245863Y-111543409D01*
X150245863Y-111543409D02*
X150198244Y-111448171D01*
X150198244Y-111448171D02*
X150103006Y-111400552D01*
X150103006Y-111400552D02*
X149912530Y-111400552D01*
X149912530Y-111400552D02*
X149817292Y-111448171D01*
X150245863Y-112019600D02*
X150150625Y-112067219D01*
X150150625Y-112067219D02*
X149912530Y-112067219D01*
X149912530Y-112067219D02*
X149817292Y-112019600D01*
X149817292Y-112019600D02*
X149769673Y-111924361D01*
X149769673Y-111924361D02*
X149769673Y-111829123D01*
X149769673Y-111829123D02*
X149817292Y-111733885D01*
X149817292Y-111733885D02*
X149912530Y-111686266D01*
X149912530Y-111686266D02*
X150150625Y-111686266D01*
X150150625Y-111686266D02*
X150245863Y-111638647D01*
X150722054Y-112067219D02*
X150722054Y-111400552D01*
X150722054Y-111495790D02*
X150769673Y-111448171D01*
X150769673Y-111448171D02*
X150864911Y-111400552D01*
X150864911Y-111400552D02*
X151007768Y-111400552D01*
X151007768Y-111400552D02*
X151103006Y-111448171D01*
X151103006Y-111448171D02*
X151150625Y-111543409D01*
X151150625Y-111543409D02*
X151150625Y-112067219D01*
X151150625Y-111543409D02*
X151198244Y-111448171D01*
X151198244Y-111448171D02*
X151293482Y-111400552D01*
X151293482Y-111400552D02*
X151436339Y-111400552D01*
X151436339Y-111400552D02*
X151531578Y-111448171D01*
X151531578Y-111448171D02*
X151579197Y-111543409D01*
X151579197Y-111543409D02*
X151579197Y-112067219D01*
X152055387Y-112067219D02*
X152055387Y-111400552D01*
X152055387Y-111495790D02*
X152103006Y-111448171D01*
X152103006Y-111448171D02*
X152198244Y-111400552D01*
X152198244Y-111400552D02*
X152341101Y-111400552D01*
X152341101Y-111400552D02*
X152436339Y-111448171D01*
X152436339Y-111448171D02*
X152483958Y-111543409D01*
X152483958Y-111543409D02*
X152483958Y-112067219D01*
X152483958Y-111543409D02*
X152531577Y-111448171D01*
X152531577Y-111448171D02*
X152626815Y-111400552D01*
X152626815Y-111400552D02*
X152769672Y-111400552D01*
X152769672Y-111400552D02*
X152864911Y-111448171D01*
X152864911Y-111448171D02*
X152912530Y-111543409D01*
X152912530Y-111543409D02*
X152912530Y-112067219D01*
X153817291Y-112067219D02*
X153817291Y-111543409D01*
X153817291Y-111543409D02*
X153769672Y-111448171D01*
X153769672Y-111448171D02*
X153674434Y-111400552D01*
X153674434Y-111400552D02*
X153483958Y-111400552D01*
X153483958Y-111400552D02*
X153388720Y-111448171D01*
X153817291Y-112019600D02*
X153722053Y-112067219D01*
X153722053Y-112067219D02*
X153483958Y-112067219D01*
X153483958Y-112067219D02*
X153388720Y-112019600D01*
X153388720Y-112019600D02*
X153341101Y-111924361D01*
X153341101Y-111924361D02*
X153341101Y-111829123D01*
X153341101Y-111829123D02*
X153388720Y-111733885D01*
X153388720Y-111733885D02*
X153483958Y-111686266D01*
X153483958Y-111686266D02*
X153722053Y-111686266D01*
X153722053Y-111686266D02*
X153817291Y-111638647D01*
X154722053Y-112067219D02*
X154722053Y-111067219D01*
X154722053Y-112019600D02*
X154626815Y-112067219D01*
X154626815Y-112067219D02*
X154436339Y-112067219D01*
X154436339Y-112067219D02*
X154341101Y-112019600D01*
X154341101Y-112019600D02*
X154293482Y-111971980D01*
X154293482Y-111971980D02*
X154245863Y-111876742D01*
X154245863Y-111876742D02*
X154245863Y-111591028D01*
X154245863Y-111591028D02*
X154293482Y-111495790D01*
X154293482Y-111495790D02*
X154341101Y-111448171D01*
X154341101Y-111448171D02*
X154436339Y-111400552D01*
X154436339Y-111400552D02*
X154626815Y-111400552D01*
X154626815Y-111400552D02*
X154722053Y-111448171D01*
X156388720Y-111400552D02*
X156388720Y-112067219D01*
X155960149Y-111400552D02*
X155960149Y-111924361D01*
X155960149Y-111924361D02*
X156007768Y-112019600D01*
X156007768Y-112019600D02*
X156103006Y-112067219D01*
X156103006Y-112067219D02*
X156245863Y-112067219D01*
X156245863Y-112067219D02*
X156341101Y-112019600D01*
X156341101Y-112019600D02*
X156388720Y-111971980D01*
X156864911Y-112067219D02*
X156864911Y-111400552D01*
X156864911Y-111591028D02*
X156912530Y-111495790D01*
X156912530Y-111495790D02*
X156960149Y-111448171D01*
X156960149Y-111448171D02*
X157055387Y-111400552D01*
X157055387Y-111400552D02*
X157150625Y-111400552D01*
X158817292Y-112067219D02*
X158483959Y-111591028D01*
X158245864Y-112067219D02*
X158245864Y-111067219D01*
X158245864Y-111067219D02*
X158626816Y-111067219D01*
X158626816Y-111067219D02*
X158722054Y-111114838D01*
X158722054Y-111114838D02*
X158769673Y-111162457D01*
X158769673Y-111162457D02*
X158817292Y-111257695D01*
X158817292Y-111257695D02*
X158817292Y-111400552D01*
X158817292Y-111400552D02*
X158769673Y-111495790D01*
X158769673Y-111495790D02*
X158722054Y-111543409D01*
X158722054Y-111543409D02*
X158626816Y-111591028D01*
X158626816Y-111591028D02*
X158245864Y-111591028D01*
X159626816Y-112019600D02*
X159531578Y-112067219D01*
X159531578Y-112067219D02*
X159341102Y-112067219D01*
X159341102Y-112067219D02*
X159245864Y-112019600D01*
X159245864Y-112019600D02*
X159198245Y-111924361D01*
X159198245Y-111924361D02*
X159198245Y-111543409D01*
X159198245Y-111543409D02*
X159245864Y-111448171D01*
X159245864Y-111448171D02*
X159341102Y-111400552D01*
X159341102Y-111400552D02*
X159531578Y-111400552D01*
X159531578Y-111400552D02*
X159626816Y-111448171D01*
X159626816Y-111448171D02*
X159674435Y-111543409D01*
X159674435Y-111543409D02*
X159674435Y-111638647D01*
X159674435Y-111638647D02*
X159198245Y-111733885D01*
X160103007Y-112067219D02*
X160103007Y-111067219D01*
X160531578Y-112067219D02*
X160531578Y-111543409D01*
X160531578Y-111543409D02*
X160483959Y-111448171D01*
X160483959Y-111448171D02*
X160388721Y-111400552D01*
X160388721Y-111400552D02*
X160245864Y-111400552D01*
X160245864Y-111400552D02*
X160150626Y-111448171D01*
X160150626Y-111448171D02*
X160103007Y-111495790D01*
X161007769Y-112067219D02*
X161007769Y-111400552D01*
X161007769Y-111495790D02*
X161055388Y-111448171D01*
X161055388Y-111448171D02*
X161150626Y-111400552D01*
X161150626Y-111400552D02*
X161293483Y-111400552D01*
X161293483Y-111400552D02*
X161388721Y-111448171D01*
X161388721Y-111448171D02*
X161436340Y-111543409D01*
X161436340Y-111543409D02*
X161436340Y-112067219D01*
X161436340Y-111543409D02*
X161483959Y-111448171D01*
X161483959Y-111448171D02*
X161579197Y-111400552D01*
X161579197Y-111400552D02*
X161722054Y-111400552D01*
X161722054Y-111400552D02*
X161817293Y-111448171D01*
X161817293Y-111448171D02*
X161864912Y-111543409D01*
X161864912Y-111543409D02*
X161864912Y-112067219D01*
X162769673Y-112067219D02*
X162769673Y-111543409D01*
X162769673Y-111543409D02*
X162722054Y-111448171D01*
X162722054Y-111448171D02*
X162626816Y-111400552D01*
X162626816Y-111400552D02*
X162436340Y-111400552D01*
X162436340Y-111400552D02*
X162341102Y-111448171D01*
X162769673Y-112019600D02*
X162674435Y-112067219D01*
X162674435Y-112067219D02*
X162436340Y-112067219D01*
X162436340Y-112067219D02*
X162341102Y-112019600D01*
X162341102Y-112019600D02*
X162293483Y-111924361D01*
X162293483Y-111924361D02*
X162293483Y-111829123D01*
X162293483Y-111829123D02*
X162341102Y-111733885D01*
X162341102Y-111733885D02*
X162436340Y-111686266D01*
X162436340Y-111686266D02*
X162674435Y-111686266D01*
X162674435Y-111686266D02*
X162769673Y-111638647D01*
X163245864Y-111400552D02*
X163245864Y-112067219D01*
X163245864Y-111495790D02*
X163293483Y-111448171D01*
X163293483Y-111448171D02*
X163388721Y-111400552D01*
X163388721Y-111400552D02*
X163531578Y-111400552D01*
X163531578Y-111400552D02*
X163626816Y-111448171D01*
X163626816Y-111448171D02*
X163674435Y-111543409D01*
X163674435Y-111543409D02*
X163674435Y-112067219D01*
D12*
X164554675Y-107140288D02*
X164554675Y-106568860D01*
X165554675Y-106854574D02*
X164554675Y-106854574D01*
X165554675Y-106235526D02*
X164888008Y-106235526D01*
X165078484Y-106235526D02*
X164983246Y-106187907D01*
X164983246Y-106187907D02*
X164935627Y-106140288D01*
X164935627Y-106140288D02*
X164888008Y-106045050D01*
X164888008Y-106045050D02*
X164888008Y-105949812D01*
X165554675Y-105187907D02*
X165030865Y-105187907D01*
X165030865Y-105187907D02*
X164935627Y-105235526D01*
X164935627Y-105235526D02*
X164888008Y-105330764D01*
X164888008Y-105330764D02*
X164888008Y-105521240D01*
X164888008Y-105521240D02*
X164935627Y-105616478D01*
X165507056Y-105187907D02*
X165554675Y-105283145D01*
X165554675Y-105283145D02*
X165554675Y-105521240D01*
X165554675Y-105521240D02*
X165507056Y-105616478D01*
X165507056Y-105616478D02*
X165411817Y-105664097D01*
X165411817Y-105664097D02*
X165316579Y-105664097D01*
X165316579Y-105664097D02*
X165221341Y-105616478D01*
X165221341Y-105616478D02*
X165173722Y-105521240D01*
X165173722Y-105521240D02*
X165173722Y-105283145D01*
X165173722Y-105283145D02*
X165126103Y-105187907D01*
X164888008Y-104711716D02*
X165554675Y-104711716D01*
X164983246Y-104711716D02*
X164935627Y-104664097D01*
X164935627Y-104664097D02*
X164888008Y-104568859D01*
X164888008Y-104568859D02*
X164888008Y-104426002D01*
X164888008Y-104426002D02*
X164935627Y-104330764D01*
X164935627Y-104330764D02*
X165030865Y-104283145D01*
X165030865Y-104283145D02*
X165554675Y-104283145D01*
X165507056Y-103854573D02*
X165554675Y-103759335D01*
X165554675Y-103759335D02*
X165554675Y-103568859D01*
X165554675Y-103568859D02*
X165507056Y-103473621D01*
X165507056Y-103473621D02*
X165411817Y-103426002D01*
X165411817Y-103426002D02*
X165364198Y-103426002D01*
X165364198Y-103426002D02*
X165268960Y-103473621D01*
X165268960Y-103473621D02*
X165221341Y-103568859D01*
X165221341Y-103568859D02*
X165221341Y-103711716D01*
X165221341Y-103711716D02*
X165173722Y-103806954D01*
X165173722Y-103806954D02*
X165078484Y-103854573D01*
X165078484Y-103854573D02*
X165030865Y-103854573D01*
X165030865Y-103854573D02*
X164935627Y-103806954D01*
X164935627Y-103806954D02*
X164888008Y-103711716D01*
X164888008Y-103711716D02*
X164888008Y-103568859D01*
X164888008Y-103568859D02*
X164935627Y-103473621D01*
X164888008Y-103140287D02*
X164888008Y-102759335D01*
X165554675Y-102997430D02*
X164697532Y-102997430D01*
X164697532Y-102997430D02*
X164602294Y-102949811D01*
X164602294Y-102949811D02*
X164554675Y-102854573D01*
X164554675Y-102854573D02*
X164554675Y-102759335D01*
X165554675Y-102283144D02*
X165507056Y-102378382D01*
X165507056Y-102378382D02*
X165459436Y-102426001D01*
X165459436Y-102426001D02*
X165364198Y-102473620D01*
X165364198Y-102473620D02*
X165078484Y-102473620D01*
X165078484Y-102473620D02*
X164983246Y-102426001D01*
X164983246Y-102426001D02*
X164935627Y-102378382D01*
X164935627Y-102378382D02*
X164888008Y-102283144D01*
X164888008Y-102283144D02*
X164888008Y-102140287D01*
X164888008Y-102140287D02*
X164935627Y-102045049D01*
X164935627Y-102045049D02*
X164983246Y-101997430D01*
X164983246Y-101997430D02*
X165078484Y-101949811D01*
X165078484Y-101949811D02*
X165364198Y-101949811D01*
X165364198Y-101949811D02*
X165459436Y-101997430D01*
X165459436Y-101997430D02*
X165507056Y-102045049D01*
X165507056Y-102045049D02*
X165554675Y-102140287D01*
X165554675Y-102140287D02*
X165554675Y-102283144D01*
X165554675Y-101521239D02*
X164888008Y-101521239D01*
X165078484Y-101521239D02*
X164983246Y-101473620D01*
X164983246Y-101473620D02*
X164935627Y-101426001D01*
X164935627Y-101426001D02*
X164888008Y-101330763D01*
X164888008Y-101330763D02*
X164888008Y-101235525D01*
X165554675Y-100902191D02*
X164888008Y-100902191D01*
X164983246Y-100902191D02*
X164935627Y-100854572D01*
X164935627Y-100854572D02*
X164888008Y-100759334D01*
X164888008Y-100759334D02*
X164888008Y-100616477D01*
X164888008Y-100616477D02*
X164935627Y-100521239D01*
X164935627Y-100521239D02*
X165030865Y-100473620D01*
X165030865Y-100473620D02*
X165554675Y-100473620D01*
X165030865Y-100473620D02*
X164935627Y-100426001D01*
X164935627Y-100426001D02*
X164888008Y-100330763D01*
X164888008Y-100330763D02*
X164888008Y-100187906D01*
X164888008Y-100187906D02*
X164935627Y-100092667D01*
X164935627Y-100092667D02*
X165030865Y-100045048D01*
X165030865Y-100045048D02*
X165554675Y-100045048D01*
X165507056Y-99187906D02*
X165554675Y-99283144D01*
X165554675Y-99283144D02*
X165554675Y-99473620D01*
X165554675Y-99473620D02*
X165507056Y-99568858D01*
X165507056Y-99568858D02*
X165411817Y-99616477D01*
X165411817Y-99616477D02*
X165030865Y-99616477D01*
X165030865Y-99616477D02*
X164935627Y-99568858D01*
X164935627Y-99568858D02*
X164888008Y-99473620D01*
X164888008Y-99473620D02*
X164888008Y-99283144D01*
X164888008Y-99283144D02*
X164935627Y-99187906D01*
X164935627Y-99187906D02*
X165030865Y-99140287D01*
X165030865Y-99140287D02*
X165126103Y-99140287D01*
X165126103Y-99140287D02*
X165221341Y-99616477D01*
X165554675Y-98711715D02*
X164888008Y-98711715D01*
X165078484Y-98711715D02*
X164983246Y-98664096D01*
X164983246Y-98664096D02*
X164935627Y-98616477D01*
X164935627Y-98616477D02*
X164888008Y-98521239D01*
X164888008Y-98521239D02*
X164888008Y-98426001D01*
X165554675Y-97949810D02*
X165507056Y-98045048D01*
X165507056Y-98045048D02*
X165411817Y-98092667D01*
X165411817Y-98092667D02*
X164554675Y-98092667D01*
X165507056Y-97187905D02*
X165554675Y-97283143D01*
X165554675Y-97283143D02*
X165554675Y-97473619D01*
X165554675Y-97473619D02*
X165507056Y-97568857D01*
X165507056Y-97568857D02*
X165411817Y-97616476D01*
X165411817Y-97616476D02*
X165030865Y-97616476D01*
X165030865Y-97616476D02*
X164935627Y-97568857D01*
X164935627Y-97568857D02*
X164888008Y-97473619D01*
X164888008Y-97473619D02*
X164888008Y-97283143D01*
X164888008Y-97283143D02*
X164935627Y-97187905D01*
X164935627Y-97187905D02*
X165030865Y-97140286D01*
X165030865Y-97140286D02*
X165126103Y-97140286D01*
X165126103Y-97140286D02*
X165221341Y-97616476D01*
X165507056Y-96759333D02*
X165554675Y-96664095D01*
X165554675Y-96664095D02*
X165554675Y-96473619D01*
X165554675Y-96473619D02*
X165507056Y-96378381D01*
X165507056Y-96378381D02*
X165411817Y-96330762D01*
X165411817Y-96330762D02*
X165364198Y-96330762D01*
X165364198Y-96330762D02*
X165268960Y-96378381D01*
X165268960Y-96378381D02*
X165221341Y-96473619D01*
X165221341Y-96473619D02*
X165221341Y-96616476D01*
X165221341Y-96616476D02*
X165173722Y-96711714D01*
X165173722Y-96711714D02*
X165078484Y-96759333D01*
X165078484Y-96759333D02*
X165030865Y-96759333D01*
X165030865Y-96759333D02*
X164935627Y-96711714D01*
X164935627Y-96711714D02*
X164888008Y-96616476D01*
X164888008Y-96616476D02*
X164888008Y-96473619D01*
X164888008Y-96473619D02*
X164935627Y-96378381D01*
X165507056Y-95949809D02*
X165554675Y-95854571D01*
X165554675Y-95854571D02*
X165554675Y-95664095D01*
X165554675Y-95664095D02*
X165507056Y-95568857D01*
X165507056Y-95568857D02*
X165411817Y-95521238D01*
X165411817Y-95521238D02*
X165364198Y-95521238D01*
X165364198Y-95521238D02*
X165268960Y-95568857D01*
X165268960Y-95568857D02*
X165221341Y-95664095D01*
X165221341Y-95664095D02*
X165221341Y-95806952D01*
X165221341Y-95806952D02*
X165173722Y-95902190D01*
X165173722Y-95902190D02*
X165078484Y-95949809D01*
X165078484Y-95949809D02*
X165030865Y-95949809D01*
X165030865Y-95949809D02*
X164935627Y-95902190D01*
X164935627Y-95902190D02*
X164888008Y-95806952D01*
X164888008Y-95806952D02*
X164888008Y-95664095D01*
X164888008Y-95664095D02*
X164935627Y-95568857D01*
X167164619Y-106997431D02*
X166164619Y-106997431D01*
X166164619Y-106997431D02*
X166164619Y-106616479D01*
X166164619Y-106616479D02*
X166212238Y-106521241D01*
X166212238Y-106521241D02*
X166259857Y-106473622D01*
X166259857Y-106473622D02*
X166355095Y-106426003D01*
X166355095Y-106426003D02*
X166497952Y-106426003D01*
X166497952Y-106426003D02*
X166593190Y-106473622D01*
X166593190Y-106473622D02*
X166640809Y-106521241D01*
X166640809Y-106521241D02*
X166688428Y-106616479D01*
X166688428Y-106616479D02*
X166688428Y-106997431D01*
X167164619Y-105854574D02*
X167117000Y-105949812D01*
X167117000Y-105949812D02*
X167069380Y-105997431D01*
X167069380Y-105997431D02*
X166974142Y-106045050D01*
X166974142Y-106045050D02*
X166688428Y-106045050D01*
X166688428Y-106045050D02*
X166593190Y-105997431D01*
X166593190Y-105997431D02*
X166545571Y-105949812D01*
X166545571Y-105949812D02*
X166497952Y-105854574D01*
X166497952Y-105854574D02*
X166497952Y-105711717D01*
X166497952Y-105711717D02*
X166545571Y-105616479D01*
X166545571Y-105616479D02*
X166593190Y-105568860D01*
X166593190Y-105568860D02*
X166688428Y-105521241D01*
X166688428Y-105521241D02*
X166974142Y-105521241D01*
X166974142Y-105521241D02*
X167069380Y-105568860D01*
X167069380Y-105568860D02*
X167117000Y-105616479D01*
X167117000Y-105616479D02*
X167164619Y-105711717D01*
X167164619Y-105711717D02*
X167164619Y-105854574D01*
X166497952Y-105187907D02*
X167164619Y-104997431D01*
X167164619Y-104997431D02*
X166688428Y-104806955D01*
X166688428Y-104806955D02*
X167164619Y-104616479D01*
X167164619Y-104616479D02*
X166497952Y-104426003D01*
X167117000Y-103664098D02*
X167164619Y-103759336D01*
X167164619Y-103759336D02*
X167164619Y-103949812D01*
X167164619Y-103949812D02*
X167117000Y-104045050D01*
X167117000Y-104045050D02*
X167021761Y-104092669D01*
X167021761Y-104092669D02*
X166640809Y-104092669D01*
X166640809Y-104092669D02*
X166545571Y-104045050D01*
X166545571Y-104045050D02*
X166497952Y-103949812D01*
X166497952Y-103949812D02*
X166497952Y-103759336D01*
X166497952Y-103759336D02*
X166545571Y-103664098D01*
X166545571Y-103664098D02*
X166640809Y-103616479D01*
X166640809Y-103616479D02*
X166736047Y-103616479D01*
X166736047Y-103616479D02*
X166831285Y-104092669D01*
X167164619Y-103187907D02*
X166497952Y-103187907D01*
X166688428Y-103187907D02*
X166593190Y-103140288D01*
X166593190Y-103140288D02*
X166545571Y-103092669D01*
X166545571Y-103092669D02*
X166497952Y-102997431D01*
X166497952Y-102997431D02*
X166497952Y-102902193D01*
X167117000Y-101854573D02*
X167164619Y-101711716D01*
X167164619Y-101711716D02*
X167164619Y-101473621D01*
X167164619Y-101473621D02*
X167117000Y-101378383D01*
X167117000Y-101378383D02*
X167069380Y-101330764D01*
X167069380Y-101330764D02*
X166974142Y-101283145D01*
X166974142Y-101283145D02*
X166878904Y-101283145D01*
X166878904Y-101283145D02*
X166783666Y-101330764D01*
X166783666Y-101330764D02*
X166736047Y-101378383D01*
X166736047Y-101378383D02*
X166688428Y-101473621D01*
X166688428Y-101473621D02*
X166640809Y-101664097D01*
X166640809Y-101664097D02*
X166593190Y-101759335D01*
X166593190Y-101759335D02*
X166545571Y-101806954D01*
X166545571Y-101806954D02*
X166450333Y-101854573D01*
X166450333Y-101854573D02*
X166355095Y-101854573D01*
X166355095Y-101854573D02*
X166259857Y-101806954D01*
X166259857Y-101806954D02*
X166212238Y-101759335D01*
X166212238Y-101759335D02*
X166164619Y-101664097D01*
X166164619Y-101664097D02*
X166164619Y-101426002D01*
X166164619Y-101426002D02*
X166212238Y-101283145D01*
X166497952Y-100426002D02*
X167164619Y-100426002D01*
X166497952Y-100854573D02*
X167021761Y-100854573D01*
X167021761Y-100854573D02*
X167117000Y-100806954D01*
X167117000Y-100806954D02*
X167164619Y-100711716D01*
X167164619Y-100711716D02*
X167164619Y-100568859D01*
X167164619Y-100568859D02*
X167117000Y-100473621D01*
X167117000Y-100473621D02*
X167069380Y-100426002D01*
X166497952Y-99949811D02*
X167497952Y-99949811D01*
X166545571Y-99949811D02*
X166497952Y-99854573D01*
X166497952Y-99854573D02*
X166497952Y-99664097D01*
X166497952Y-99664097D02*
X166545571Y-99568859D01*
X166545571Y-99568859D02*
X166593190Y-99521240D01*
X166593190Y-99521240D02*
X166688428Y-99473621D01*
X166688428Y-99473621D02*
X166974142Y-99473621D01*
X166974142Y-99473621D02*
X167069380Y-99521240D01*
X167069380Y-99521240D02*
X167117000Y-99568859D01*
X167117000Y-99568859D02*
X167164619Y-99664097D01*
X167164619Y-99664097D02*
X167164619Y-99854573D01*
X167164619Y-99854573D02*
X167117000Y-99949811D01*
X166497952Y-99045049D02*
X167497952Y-99045049D01*
X166545571Y-99045049D02*
X166497952Y-98949811D01*
X166497952Y-98949811D02*
X166497952Y-98759335D01*
X166497952Y-98759335D02*
X166545571Y-98664097D01*
X166545571Y-98664097D02*
X166593190Y-98616478D01*
X166593190Y-98616478D02*
X166688428Y-98568859D01*
X166688428Y-98568859D02*
X166974142Y-98568859D01*
X166974142Y-98568859D02*
X167069380Y-98616478D01*
X167069380Y-98616478D02*
X167117000Y-98664097D01*
X167117000Y-98664097D02*
X167164619Y-98759335D01*
X167164619Y-98759335D02*
X167164619Y-98949811D01*
X167164619Y-98949811D02*
X167117000Y-99045049D01*
X167164619Y-97997430D02*
X167117000Y-98092668D01*
X167117000Y-98092668D02*
X167021761Y-98140287D01*
X167021761Y-98140287D02*
X166164619Y-98140287D01*
X166497952Y-97711715D02*
X167164619Y-97473620D01*
X166497952Y-97235525D02*
X167164619Y-97473620D01*
X167164619Y-97473620D02*
X167402714Y-97568858D01*
X167402714Y-97568858D02*
X167450333Y-97616477D01*
X167450333Y-97616477D02*
X167497952Y-97711715D01*
D13*
X148533333Y-107454819D02*
X148200000Y-106978628D01*
X147961905Y-107454819D02*
X147961905Y-106454819D01*
X147961905Y-106454819D02*
X148342857Y-106454819D01*
X148342857Y-106454819D02*
X148438095Y-106502438D01*
X148438095Y-106502438D02*
X148485714Y-106550057D01*
X148485714Y-106550057D02*
X148533333Y-106645295D01*
X148533333Y-106645295D02*
X148533333Y-106788152D01*
X148533333Y-106788152D02*
X148485714Y-106883390D01*
X148485714Y-106883390D02*
X148438095Y-106931009D01*
X148438095Y-106931009D02*
X148342857Y-106978628D01*
X148342857Y-106978628D02*
X147961905Y-106978628D01*
X149485714Y-107454819D02*
X148914286Y-107454819D01*
X149200000Y-107454819D02*
X149200000Y-106454819D01*
X149200000Y-106454819D02*
X149104762Y-106597676D01*
X149104762Y-106597676D02*
X149009524Y-106692914D01*
X149009524Y-106692914D02*
X148914286Y-106740533D01*
X134833333Y-73359580D02*
X134785714Y-73407200D01*
X134785714Y-73407200D02*
X134642857Y-73454819D01*
X134642857Y-73454819D02*
X134547619Y-73454819D01*
X134547619Y-73454819D02*
X134404762Y-73407200D01*
X134404762Y-73407200D02*
X134309524Y-73311961D01*
X134309524Y-73311961D02*
X134261905Y-73216723D01*
X134261905Y-73216723D02*
X134214286Y-73026247D01*
X134214286Y-73026247D02*
X134214286Y-72883390D01*
X134214286Y-72883390D02*
X134261905Y-72692914D01*
X134261905Y-72692914D02*
X134309524Y-72597676D01*
X134309524Y-72597676D02*
X134404762Y-72502438D01*
X134404762Y-72502438D02*
X134547619Y-72454819D01*
X134547619Y-72454819D02*
X134642857Y-72454819D01*
X134642857Y-72454819D02*
X134785714Y-72502438D01*
X134785714Y-72502438D02*
X134833333Y-72550057D01*
X135690476Y-72788152D02*
X135690476Y-73454819D01*
X135452381Y-72407200D02*
X135214286Y-73121485D01*
X135214286Y-73121485D02*
X135833333Y-73121485D01*
X155324819Y-87638094D02*
X154324819Y-87638094D01*
X154324819Y-87638094D02*
X154324819Y-87399999D01*
X154324819Y-87399999D02*
X154372438Y-87257142D01*
X154372438Y-87257142D02*
X154467676Y-87161904D01*
X154467676Y-87161904D02*
X154562914Y-87114285D01*
X154562914Y-87114285D02*
X154753390Y-87066666D01*
X154753390Y-87066666D02*
X154896247Y-87066666D01*
X154896247Y-87066666D02*
X155086723Y-87114285D01*
X155086723Y-87114285D02*
X155181961Y-87161904D01*
X155181961Y-87161904D02*
X155277200Y-87257142D01*
X155277200Y-87257142D02*
X155324819Y-87399999D01*
X155324819Y-87399999D02*
X155324819Y-87638094D01*
X154324819Y-86161904D02*
X154324819Y-86638094D01*
X154324819Y-86638094D02*
X154801009Y-86685713D01*
X154801009Y-86685713D02*
X154753390Y-86638094D01*
X154753390Y-86638094D02*
X154705771Y-86542856D01*
X154705771Y-86542856D02*
X154705771Y-86304761D01*
X154705771Y-86304761D02*
X154753390Y-86209523D01*
X154753390Y-86209523D02*
X154801009Y-86161904D01*
X154801009Y-86161904D02*
X154896247Y-86114285D01*
X154896247Y-86114285D02*
X155134342Y-86114285D01*
X155134342Y-86114285D02*
X155229580Y-86161904D01*
X155229580Y-86161904D02*
X155277200Y-86209523D01*
X155277200Y-86209523D02*
X155324819Y-86304761D01*
X155324819Y-86304761D02*
X155324819Y-86542856D01*
X155324819Y-86542856D02*
X155277200Y-86638094D01*
X155277200Y-86638094D02*
X155229580Y-86685713D01*
X137424819Y-105158094D02*
X136424819Y-105158094D01*
X136424819Y-105158094D02*
X136424819Y-104919999D01*
X136424819Y-104919999D02*
X136472438Y-104777142D01*
X136472438Y-104777142D02*
X136567676Y-104681904D01*
X136567676Y-104681904D02*
X136662914Y-104634285D01*
X136662914Y-104634285D02*
X136853390Y-104586666D01*
X136853390Y-104586666D02*
X136996247Y-104586666D01*
X136996247Y-104586666D02*
X137186723Y-104634285D01*
X137186723Y-104634285D02*
X137281961Y-104681904D01*
X137281961Y-104681904D02*
X137377200Y-104777142D01*
X137377200Y-104777142D02*
X137424819Y-104919999D01*
X137424819Y-104919999D02*
X137424819Y-105158094D01*
X136424819Y-104253332D02*
X136424819Y-103634285D01*
X136424819Y-103634285D02*
X136805771Y-103967618D01*
X136805771Y-103967618D02*
X136805771Y-103824761D01*
X136805771Y-103824761D02*
X136853390Y-103729523D01*
X136853390Y-103729523D02*
X136901009Y-103681904D01*
X136901009Y-103681904D02*
X136996247Y-103634285D01*
X136996247Y-103634285D02*
X137234342Y-103634285D01*
X137234342Y-103634285D02*
X137329580Y-103681904D01*
X137329580Y-103681904D02*
X137377200Y-103729523D01*
X137377200Y-103729523D02*
X137424819Y-103824761D01*
X137424819Y-103824761D02*
X137424819Y-104110475D01*
X137424819Y-104110475D02*
X137377200Y-104205713D01*
X137377200Y-104205713D02*
X137329580Y-104253332D01*
X120584819Y-106156666D02*
X120108628Y-106489999D01*
X120584819Y-106728094D02*
X119584819Y-106728094D01*
X119584819Y-106728094D02*
X119584819Y-106347142D01*
X119584819Y-106347142D02*
X119632438Y-106251904D01*
X119632438Y-106251904D02*
X119680057Y-106204285D01*
X119680057Y-106204285D02*
X119775295Y-106156666D01*
X119775295Y-106156666D02*
X119918152Y-106156666D01*
X119918152Y-106156666D02*
X120013390Y-106204285D01*
X120013390Y-106204285D02*
X120061009Y-106251904D01*
X120061009Y-106251904D02*
X120108628Y-106347142D01*
X120108628Y-106347142D02*
X120108628Y-106728094D01*
X119918152Y-105299523D02*
X120584819Y-105299523D01*
X119537200Y-105537618D02*
X120251485Y-105775713D01*
X120251485Y-105775713D02*
X120251485Y-105156666D01*
X150309580Y-93566666D02*
X150357200Y-93614285D01*
X150357200Y-93614285D02*
X150404819Y-93757142D01*
X150404819Y-93757142D02*
X150404819Y-93852380D01*
X150404819Y-93852380D02*
X150357200Y-93995237D01*
X150357200Y-93995237D02*
X150261961Y-94090475D01*
X150261961Y-94090475D02*
X150166723Y-94138094D01*
X150166723Y-94138094D02*
X149976247Y-94185713D01*
X149976247Y-94185713D02*
X149833390Y-94185713D01*
X149833390Y-94185713D02*
X149642914Y-94138094D01*
X149642914Y-94138094D02*
X149547676Y-94090475D01*
X149547676Y-94090475D02*
X149452438Y-93995237D01*
X149452438Y-93995237D02*
X149404819Y-93852380D01*
X149404819Y-93852380D02*
X149404819Y-93757142D01*
X149404819Y-93757142D02*
X149452438Y-93614285D01*
X149452438Y-93614285D02*
X149500057Y-93566666D01*
X149500057Y-93185713D02*
X149452438Y-93138094D01*
X149452438Y-93138094D02*
X149404819Y-93042856D01*
X149404819Y-93042856D02*
X149404819Y-92804761D01*
X149404819Y-92804761D02*
X149452438Y-92709523D01*
X149452438Y-92709523D02*
X149500057Y-92661904D01*
X149500057Y-92661904D02*
X149595295Y-92614285D01*
X149595295Y-92614285D02*
X149690533Y-92614285D01*
X149690533Y-92614285D02*
X149833390Y-92661904D01*
X149833390Y-92661904D02*
X150404819Y-93233332D01*
X150404819Y-93233332D02*
X150404819Y-92614285D01*
X143333333Y-81859580D02*
X143285714Y-81907200D01*
X143285714Y-81907200D02*
X143142857Y-81954819D01*
X143142857Y-81954819D02*
X143047619Y-81954819D01*
X143047619Y-81954819D02*
X142904762Y-81907200D01*
X142904762Y-81907200D02*
X142809524Y-81811961D01*
X142809524Y-81811961D02*
X142761905Y-81716723D01*
X142761905Y-81716723D02*
X142714286Y-81526247D01*
X142714286Y-81526247D02*
X142714286Y-81383390D01*
X142714286Y-81383390D02*
X142761905Y-81192914D01*
X142761905Y-81192914D02*
X142809524Y-81097676D01*
X142809524Y-81097676D02*
X142904762Y-81002438D01*
X142904762Y-81002438D02*
X143047619Y-80954819D01*
X143047619Y-80954819D02*
X143142857Y-80954819D01*
X143142857Y-80954819D02*
X143285714Y-81002438D01*
X143285714Y-81002438D02*
X143333333Y-81050057D01*
X144285714Y-81954819D02*
X143714286Y-81954819D01*
X144000000Y-81954819D02*
X144000000Y-80954819D01*
X144000000Y-80954819D02*
X143904762Y-81097676D01*
X143904762Y-81097676D02*
X143809524Y-81192914D01*
X143809524Y-81192914D02*
X143714286Y-81240533D01*
X152038095Y-72584819D02*
X152038095Y-73394342D01*
X152038095Y-73394342D02*
X152085714Y-73489580D01*
X152085714Y-73489580D02*
X152133333Y-73537200D01*
X152133333Y-73537200D02*
X152228571Y-73584819D01*
X152228571Y-73584819D02*
X152419047Y-73584819D01*
X152419047Y-73584819D02*
X152514285Y-73537200D01*
X152514285Y-73537200D02*
X152561904Y-73489580D01*
X152561904Y-73489580D02*
X152609523Y-73394342D01*
X152609523Y-73394342D02*
X152609523Y-72584819D01*
X153038095Y-72680057D02*
X153085714Y-72632438D01*
X153085714Y-72632438D02*
X153180952Y-72584819D01*
X153180952Y-72584819D02*
X153419047Y-72584819D01*
X153419047Y-72584819D02*
X153514285Y-72632438D01*
X153514285Y-72632438D02*
X153561904Y-72680057D01*
X153561904Y-72680057D02*
X153609523Y-72775295D01*
X153609523Y-72775295D02*
X153609523Y-72870533D01*
X153609523Y-72870533D02*
X153561904Y-73013390D01*
X153561904Y-73013390D02*
X152990476Y-73584819D01*
X152990476Y-73584819D02*
X153609523Y-73584819D01*
X155054819Y-105233333D02*
X155769104Y-105233333D01*
X155769104Y-105233333D02*
X155911961Y-105280952D01*
X155911961Y-105280952D02*
X156007200Y-105376190D01*
X156007200Y-105376190D02*
X156054819Y-105519047D01*
X156054819Y-105519047D02*
X156054819Y-105614285D01*
X155150057Y-104804761D02*
X155102438Y-104757142D01*
X155102438Y-104757142D02*
X155054819Y-104661904D01*
X155054819Y-104661904D02*
X155054819Y-104423809D01*
X155054819Y-104423809D02*
X155102438Y-104328571D01*
X155102438Y-104328571D02*
X155150057Y-104280952D01*
X155150057Y-104280952D02*
X155245295Y-104233333D01*
X155245295Y-104233333D02*
X155340533Y-104233333D01*
X155340533Y-104233333D02*
X155483390Y-104280952D01*
X155483390Y-104280952D02*
X156054819Y-104852380D01*
X156054819Y-104852380D02*
X156054819Y-104233333D01*
X116156905Y-100894819D02*
X116156905Y-99894819D01*
X116156905Y-99894819D02*
X116395000Y-99894819D01*
X116395000Y-99894819D02*
X116537857Y-99942438D01*
X116537857Y-99942438D02*
X116633095Y-100037676D01*
X116633095Y-100037676D02*
X116680714Y-100132914D01*
X116680714Y-100132914D02*
X116728333Y-100323390D01*
X116728333Y-100323390D02*
X116728333Y-100466247D01*
X116728333Y-100466247D02*
X116680714Y-100656723D01*
X116680714Y-100656723D02*
X116633095Y-100751961D01*
X116633095Y-100751961D02*
X116537857Y-100847200D01*
X116537857Y-100847200D02*
X116395000Y-100894819D01*
X116395000Y-100894819D02*
X116156905Y-100894819D01*
X117061667Y-99894819D02*
X117728333Y-99894819D01*
X117728333Y-99894819D02*
X117299762Y-100894819D01*
X137424819Y-90238094D02*
X136424819Y-90238094D01*
X136424819Y-90238094D02*
X136424819Y-89999999D01*
X136424819Y-89999999D02*
X136472438Y-89857142D01*
X136472438Y-89857142D02*
X136567676Y-89761904D01*
X136567676Y-89761904D02*
X136662914Y-89714285D01*
X136662914Y-89714285D02*
X136853390Y-89666666D01*
X136853390Y-89666666D02*
X136996247Y-89666666D01*
X136996247Y-89666666D02*
X137186723Y-89714285D01*
X137186723Y-89714285D02*
X137281961Y-89761904D01*
X137281961Y-89761904D02*
X137377200Y-89857142D01*
X137377200Y-89857142D02*
X137424819Y-89999999D01*
X137424819Y-89999999D02*
X137424819Y-90238094D01*
X136758152Y-88809523D02*
X137424819Y-88809523D01*
X136377200Y-89047618D02*
X137091485Y-89285713D01*
X137091485Y-89285713D02*
X137091485Y-88666666D01*
X117354819Y-98573333D02*
X118069104Y-98573333D01*
X118069104Y-98573333D02*
X118211961Y-98620952D01*
X118211961Y-98620952D02*
X118307200Y-98716190D01*
X118307200Y-98716190D02*
X118354819Y-98859047D01*
X118354819Y-98859047D02*
X118354819Y-98954285D01*
X118354819Y-97573333D02*
X118354819Y-98144761D01*
X118354819Y-97859047D02*
X117354819Y-97859047D01*
X117354819Y-97859047D02*
X117497676Y-97954285D01*
X117497676Y-97954285D02*
X117592914Y-98049523D01*
X117592914Y-98049523D02*
X117640533Y-98144761D01*
X130924819Y-90238094D02*
X129924819Y-90238094D01*
X129924819Y-90238094D02*
X129924819Y-89999999D01*
X129924819Y-89999999D02*
X129972438Y-89857142D01*
X129972438Y-89857142D02*
X130067676Y-89761904D01*
X130067676Y-89761904D02*
X130162914Y-89714285D01*
X130162914Y-89714285D02*
X130353390Y-89666666D01*
X130353390Y-89666666D02*
X130496247Y-89666666D01*
X130496247Y-89666666D02*
X130686723Y-89714285D01*
X130686723Y-89714285D02*
X130781961Y-89761904D01*
X130781961Y-89761904D02*
X130877200Y-89857142D01*
X130877200Y-89857142D02*
X130924819Y-89999999D01*
X130924819Y-89999999D02*
X130924819Y-90238094D01*
X130924819Y-88714285D02*
X130924819Y-89285713D01*
X130924819Y-88999999D02*
X129924819Y-88999999D01*
X129924819Y-88999999D02*
X130067676Y-89095237D01*
X130067676Y-89095237D02*
X130162914Y-89190475D01*
X130162914Y-89190475D02*
X130210533Y-89285713D01*
X143123333Y-106024819D02*
X142790000Y-105548628D01*
X142551905Y-106024819D02*
X142551905Y-105024819D01*
X142551905Y-105024819D02*
X142932857Y-105024819D01*
X142932857Y-105024819D02*
X143028095Y-105072438D01*
X143028095Y-105072438D02*
X143075714Y-105120057D01*
X143075714Y-105120057D02*
X143123333Y-105215295D01*
X143123333Y-105215295D02*
X143123333Y-105358152D01*
X143123333Y-105358152D02*
X143075714Y-105453390D01*
X143075714Y-105453390D02*
X143028095Y-105501009D01*
X143028095Y-105501009D02*
X142932857Y-105548628D01*
X142932857Y-105548628D02*
X142551905Y-105548628D01*
X143504286Y-105120057D02*
X143551905Y-105072438D01*
X143551905Y-105072438D02*
X143647143Y-105024819D01*
X143647143Y-105024819D02*
X143885238Y-105024819D01*
X143885238Y-105024819D02*
X143980476Y-105072438D01*
X143980476Y-105072438D02*
X144028095Y-105120057D01*
X144028095Y-105120057D02*
X144075714Y-105215295D01*
X144075714Y-105215295D02*
X144075714Y-105310533D01*
X144075714Y-105310533D02*
X144028095Y-105453390D01*
X144028095Y-105453390D02*
X143456667Y-106024819D01*
X143456667Y-106024819D02*
X144075714Y-106024819D01*
X161033333Y-82959580D02*
X160985714Y-83007200D01*
X160985714Y-83007200D02*
X160842857Y-83054819D01*
X160842857Y-83054819D02*
X160747619Y-83054819D01*
X160747619Y-83054819D02*
X160604762Y-83007200D01*
X160604762Y-83007200D02*
X160509524Y-82911961D01*
X160509524Y-82911961D02*
X160461905Y-82816723D01*
X160461905Y-82816723D02*
X160414286Y-82626247D01*
X160414286Y-82626247D02*
X160414286Y-82483390D01*
X160414286Y-82483390D02*
X160461905Y-82292914D01*
X160461905Y-82292914D02*
X160509524Y-82197676D01*
X160509524Y-82197676D02*
X160604762Y-82102438D01*
X160604762Y-82102438D02*
X160747619Y-82054819D01*
X160747619Y-82054819D02*
X160842857Y-82054819D01*
X160842857Y-82054819D02*
X160985714Y-82102438D01*
X160985714Y-82102438D02*
X161033333Y-82150057D01*
X161366667Y-82054819D02*
X161985714Y-82054819D01*
X161985714Y-82054819D02*
X161652381Y-82435771D01*
X161652381Y-82435771D02*
X161795238Y-82435771D01*
X161795238Y-82435771D02*
X161890476Y-82483390D01*
X161890476Y-82483390D02*
X161938095Y-82531009D01*
X161938095Y-82531009D02*
X161985714Y-82626247D01*
X161985714Y-82626247D02*
X161985714Y-82864342D01*
X161985714Y-82864342D02*
X161938095Y-82959580D01*
X161938095Y-82959580D02*
X161890476Y-83007200D01*
X161890476Y-83007200D02*
X161795238Y-83054819D01*
X161795238Y-83054819D02*
X161509524Y-83054819D01*
X161509524Y-83054819D02*
X161414286Y-83007200D01*
X161414286Y-83007200D02*
X161366667Y-82959580D01*
X130924819Y-105158094D02*
X129924819Y-105158094D01*
X129924819Y-105158094D02*
X129924819Y-104919999D01*
X129924819Y-104919999D02*
X129972438Y-104777142D01*
X129972438Y-104777142D02*
X130067676Y-104681904D01*
X130067676Y-104681904D02*
X130162914Y-104634285D01*
X130162914Y-104634285D02*
X130353390Y-104586666D01*
X130353390Y-104586666D02*
X130496247Y-104586666D01*
X130496247Y-104586666D02*
X130686723Y-104634285D01*
X130686723Y-104634285D02*
X130781961Y-104681904D01*
X130781961Y-104681904D02*
X130877200Y-104777142D01*
X130877200Y-104777142D02*
X130924819Y-104919999D01*
X130924819Y-104919999D02*
X130924819Y-105158094D01*
X130020057Y-104205713D02*
X129972438Y-104158094D01*
X129972438Y-104158094D02*
X129924819Y-104062856D01*
X129924819Y-104062856D02*
X129924819Y-103824761D01*
X129924819Y-103824761D02*
X129972438Y-103729523D01*
X129972438Y-103729523D02*
X130020057Y-103681904D01*
X130020057Y-103681904D02*
X130115295Y-103634285D01*
X130115295Y-103634285D02*
X130210533Y-103634285D01*
X130210533Y-103634285D02*
X130353390Y-103681904D01*
X130353390Y-103681904D02*
X130924819Y-104253332D01*
X130924819Y-104253332D02*
X130924819Y-103634285D01*
X118284819Y-78976666D02*
X117808628Y-79309999D01*
X118284819Y-79548094D02*
X117284819Y-79548094D01*
X117284819Y-79548094D02*
X117284819Y-79167142D01*
X117284819Y-79167142D02*
X117332438Y-79071904D01*
X117332438Y-79071904D02*
X117380057Y-79024285D01*
X117380057Y-79024285D02*
X117475295Y-78976666D01*
X117475295Y-78976666D02*
X117618152Y-78976666D01*
X117618152Y-78976666D02*
X117713390Y-79024285D01*
X117713390Y-79024285D02*
X117761009Y-79071904D01*
X117761009Y-79071904D02*
X117808628Y-79167142D01*
X117808628Y-79167142D02*
X117808628Y-79548094D01*
X117284819Y-78643332D02*
X117284819Y-78024285D01*
X117284819Y-78024285D02*
X117665771Y-78357618D01*
X117665771Y-78357618D02*
X117665771Y-78214761D01*
X117665771Y-78214761D02*
X117713390Y-78119523D01*
X117713390Y-78119523D02*
X117761009Y-78071904D01*
X117761009Y-78071904D02*
X117856247Y-78024285D01*
X117856247Y-78024285D02*
X118094342Y-78024285D01*
X118094342Y-78024285D02*
X118189580Y-78071904D01*
X118189580Y-78071904D02*
X118237200Y-78119523D01*
X118237200Y-78119523D02*
X118284819Y-78214761D01*
X118284819Y-78214761D02*
X118284819Y-78500475D01*
X118284819Y-78500475D02*
X118237200Y-78595713D01*
X118237200Y-78595713D02*
X118189580Y-78643332D01*
X154924819Y-101738094D02*
X153924819Y-101738094D01*
X153924819Y-101738094D02*
X153924819Y-101499999D01*
X153924819Y-101499999D02*
X153972438Y-101357142D01*
X153972438Y-101357142D02*
X154067676Y-101261904D01*
X154067676Y-101261904D02*
X154162914Y-101214285D01*
X154162914Y-101214285D02*
X154353390Y-101166666D01*
X154353390Y-101166666D02*
X154496247Y-101166666D01*
X154496247Y-101166666D02*
X154686723Y-101214285D01*
X154686723Y-101214285D02*
X154781961Y-101261904D01*
X154781961Y-101261904D02*
X154877200Y-101357142D01*
X154877200Y-101357142D02*
X154924819Y-101499999D01*
X154924819Y-101499999D02*
X154924819Y-101738094D01*
X153924819Y-100309523D02*
X153924819Y-100499999D01*
X153924819Y-100499999D02*
X153972438Y-100595237D01*
X153972438Y-100595237D02*
X154020057Y-100642856D01*
X154020057Y-100642856D02*
X154162914Y-100738094D01*
X154162914Y-100738094D02*
X154353390Y-100785713D01*
X154353390Y-100785713D02*
X154734342Y-100785713D01*
X154734342Y-100785713D02*
X154829580Y-100738094D01*
X154829580Y-100738094D02*
X154877200Y-100690475D01*
X154877200Y-100690475D02*
X154924819Y-100595237D01*
X154924819Y-100595237D02*
X154924819Y-100404761D01*
X154924819Y-100404761D02*
X154877200Y-100309523D01*
X154877200Y-100309523D02*
X154829580Y-100261904D01*
X154829580Y-100261904D02*
X154734342Y-100214285D01*
X154734342Y-100214285D02*
X154496247Y-100214285D01*
X154496247Y-100214285D02*
X154401009Y-100261904D01*
X154401009Y-100261904D02*
X154353390Y-100309523D01*
X154353390Y-100309523D02*
X154305771Y-100404761D01*
X154305771Y-100404761D02*
X154305771Y-100595237D01*
X154305771Y-100595237D02*
X154353390Y-100690475D01*
X154353390Y-100690475D02*
X154401009Y-100738094D01*
X154401009Y-100738094D02*
X154496247Y-100785713D01*
D14*
X146560000Y-110720000D02*
X140020000Y-110720000D01*
X146560000Y-110390000D02*
X146560000Y-110720000D01*
X146560000Y-108310000D02*
X146560000Y-107980000D01*
X146560000Y-107980000D02*
X140020000Y-107980000D01*
X140020000Y-110720000D02*
X140020000Y-110390000D01*
X140020000Y-107980000D02*
X140020000Y-108310000D01*
X125880000Y-74130000D02*
X125880000Y-80370000D01*
X125880000Y-74130000D02*
X144120000Y-74130000D01*
X125880000Y-80370000D02*
X144120000Y-80370000D01*
X144120000Y-74130000D02*
X144120000Y-80370000D01*
X150930000Y-84180000D02*
X150930000Y-89620000D01*
X150930000Y-89620000D02*
X151260000Y-89620000D01*
X151260000Y-84180000D02*
X150930000Y-84180000D01*
X153540000Y-84180000D02*
X153870000Y-84180000D01*
X153870000Y-84180000D02*
X153870000Y-89620000D01*
X153870000Y-84960000D02*
X150930000Y-84960000D01*
X153870000Y-85080000D02*
X150930000Y-85080000D01*
X153870000Y-85200000D02*
X150930000Y-85200000D01*
X153870000Y-89620000D02*
X153540000Y-89620000D01*
X133030000Y-101700000D02*
X133030000Y-107140000D01*
X133030000Y-107140000D02*
X135970000Y-107140000D01*
X134500000Y-100680000D02*
X134500000Y-101700000D01*
X134500000Y-108160000D02*
X134500000Y-107140000D01*
X135970000Y-101700000D02*
X133030000Y-101700000D01*
X135970000Y-102480000D02*
X133030000Y-102480000D01*
X135970000Y-102600000D02*
X133030000Y-102600000D01*
X135970000Y-102720000D02*
X133030000Y-102720000D01*
X135970000Y-107140000D02*
X135970000Y-101700000D01*
X121130000Y-102720000D02*
X121460000Y-102720000D01*
X121130000Y-109260000D02*
X121130000Y-102720000D01*
X121460000Y-109260000D02*
X121130000Y-109260000D01*
X123540000Y-109260000D02*
X123870000Y-109260000D01*
X123870000Y-102720000D02*
X123540000Y-102720000D01*
X123870000Y-109260000D02*
X123870000Y-102720000D01*
X142460000Y-94680000D02*
X138783000Y-94680000D01*
X142460000Y-94720000D02*
X138793000Y-94720000D01*
X142460000Y-94760000D02*
X138804000Y-94760000D01*
X142460000Y-94800000D02*
X138815000Y-94800000D01*
X142460000Y-94840000D02*
X138827000Y-94840000D01*
X142460000Y-94880000D02*
X138839000Y-94880000D01*
X142460000Y-94920000D02*
X138851000Y-94920000D01*
X142460000Y-94960000D02*
X138863000Y-94960000D01*
X142460000Y-95000000D02*
X138876000Y-95000000D01*
X142460000Y-95040000D02*
X138890000Y-95040000D01*
X142460000Y-95080000D02*
X138903000Y-95080000D01*
X142460000Y-95120000D02*
X138918000Y-95120000D01*
X142460000Y-95160000D02*
X138932000Y-95160000D01*
X142460000Y-95200000D02*
X138947000Y-95200000D01*
X142460000Y-95240000D02*
X138962000Y-95240000D01*
X142460000Y-95280000D02*
X138978000Y-95280000D01*
X142460000Y-95320000D02*
X138994000Y-95320000D01*
X142460000Y-95360000D02*
X139010000Y-95360000D01*
X142460000Y-95400000D02*
X139027000Y-95400000D01*
X142460000Y-95440000D02*
X139044000Y-95440000D01*
X142460000Y-95480000D02*
X139062000Y-95480000D01*
X142460000Y-95520000D02*
X139080000Y-95520000D01*
X142460000Y-95560000D02*
X139098000Y-95560000D01*
X142460000Y-95600000D02*
X139117000Y-95600000D01*
X142460000Y-95640000D02*
X139136000Y-95640000D01*
X142460000Y-95680000D02*
X139156000Y-95680000D01*
X142460000Y-95720000D02*
X139176000Y-95720000D01*
X142460000Y-95760000D02*
X139196000Y-95760000D01*
X142460000Y-95800000D02*
X139217000Y-95800000D01*
X142460000Y-95840000D02*
X139239000Y-95840000D01*
X142460000Y-95880000D02*
X139261000Y-95880000D01*
X142460000Y-95920000D02*
X139283000Y-95920000D01*
X142460000Y-95960000D02*
X139306000Y-95960000D01*
X142460000Y-96000000D02*
X139329000Y-96000000D01*
X142460000Y-96040000D02*
X139353000Y-96040000D01*
X142460000Y-96080000D02*
X139377000Y-96080000D01*
X142460000Y-96120000D02*
X139402000Y-96120000D01*
X142460000Y-96160000D02*
X139428000Y-96160000D01*
X142460000Y-96200000D02*
X139453000Y-96200000D01*
X142460000Y-96240000D02*
X139480000Y-96240000D01*
X142460000Y-96280000D02*
X139507000Y-96280000D01*
X142460000Y-96320000D02*
X139534000Y-96320000D01*
X142460000Y-96360000D02*
X139562000Y-96360000D01*
X142460000Y-96400000D02*
X139591000Y-96400000D01*
X142460000Y-96440000D02*
X139620000Y-96440000D01*
X142460000Y-96480000D02*
X139650000Y-96480000D01*
X142460000Y-96520000D02*
X139680000Y-96520000D01*
X142460000Y-96560000D02*
X139712000Y-96560000D01*
X142460000Y-96600000D02*
X139743000Y-96600000D01*
X142460000Y-96640000D02*
X139776000Y-96640000D01*
X142460000Y-96680000D02*
X139809000Y-96680000D01*
X142460000Y-96720000D02*
X139842000Y-96720000D01*
X142460000Y-96760000D02*
X139877000Y-96760000D01*
X142460000Y-96800000D02*
X139912000Y-96800000D01*
X142460000Y-96840000D02*
X139948000Y-96840000D01*
X142460000Y-96880000D02*
X139984000Y-96880000D01*
X142460000Y-96920000D02*
X140022000Y-96920000D01*
X142460000Y-96960000D02*
X140060000Y-96960000D01*
X142460000Y-97000000D02*
X140099000Y-97000000D01*
X142460000Y-97040000D02*
X140139000Y-97040000D01*
X142460000Y-97080000D02*
X140180000Y-97080000D01*
X142460000Y-97120000D02*
X140222000Y-97120000D01*
X144299000Y-98480000D02*
X143101000Y-98480000D01*
X144562000Y-98440000D02*
X142838000Y-98440000D01*
X144762000Y-98400000D02*
X142638000Y-98400000D01*
X144930000Y-98360000D02*
X142470000Y-98360000D01*
X145077000Y-98320000D02*
X142323000Y-98320000D01*
X145209000Y-98280000D02*
X142191000Y-98280000D01*
X145330000Y-98240000D02*
X142070000Y-98240000D01*
X145442000Y-98200000D02*
X141958000Y-98200000D01*
X145546000Y-98160000D02*
X141854000Y-98160000D01*
X145644000Y-98120000D02*
X141756000Y-98120000D01*
X145737000Y-98080000D02*
X141663000Y-98080000D01*
X145824000Y-98040000D02*
X141576000Y-98040000D01*
X145908000Y-98000000D02*
X141492000Y-98000000D01*
X145988000Y-97960000D02*
X141412000Y-97960000D01*
X146065000Y-97920000D02*
X141335000Y-97920000D01*
X146139000Y-97880000D02*
X141261000Y-97880000D01*
X146210000Y-97840000D02*
X141190000Y-97840000D01*
X146278000Y-97800000D02*
X141122000Y-97800000D01*
X146344000Y-97760000D02*
X141056000Y-97760000D01*
X146408000Y-97720000D02*
X140992000Y-97720000D01*
X146470000Y-97680000D02*
X140930000Y-97680000D01*
X146530000Y-97640000D02*
X140870000Y-97640000D01*
X146575000Y-87920354D02*
X146575000Y-88920354D01*
X146588000Y-97600000D02*
X140812000Y-97600000D01*
X146645000Y-97560000D02*
X140755000Y-97560000D01*
X146700000Y-97520000D02*
X140700000Y-97520000D01*
X146753000Y-97480000D02*
X140647000Y-97480000D01*
X146805000Y-97440000D02*
X140595000Y-97440000D01*
X146856000Y-97400000D02*
X140544000Y-97400000D01*
X146905000Y-97360000D02*
X140495000Y-97360000D01*
X146954000Y-97320000D02*
X140446000Y-97320000D01*
X147001000Y-97280000D02*
X140399000Y-97280000D01*
X147047000Y-97240000D02*
X140353000Y-97240000D01*
X147075000Y-88420354D02*
X146075000Y-88420354D01*
X147091000Y-97200000D02*
X140309000Y-97200000D01*
X147135000Y-97160000D02*
X140265000Y-97160000D01*
X147178000Y-97120000D02*
X144940000Y-97120000D01*
X147220000Y-97080000D02*
X144940000Y-97080000D01*
X147261000Y-97040000D02*
X144940000Y-97040000D01*
X147301000Y-97000000D02*
X144940000Y-97000000D01*
X147340000Y-96960000D02*
X144940000Y-96960000D01*
X147378000Y-96920000D02*
X144940000Y-96920000D01*
X147416000Y-96880000D02*
X144940000Y-96880000D01*
X147452000Y-96840000D02*
X144940000Y-96840000D01*
X147488000Y-96800000D02*
X144940000Y-96800000D01*
X147523000Y-96760000D02*
X144940000Y-96760000D01*
X147558000Y-96720000D02*
X144940000Y-96720000D01*
X147591000Y-96680000D02*
X144940000Y-96680000D01*
X147624000Y-96640000D02*
X144940000Y-96640000D01*
X147657000Y-96600000D02*
X144940000Y-96600000D01*
X147688000Y-96560000D02*
X144940000Y-96560000D01*
X147720000Y-96520000D02*
X144940000Y-96520000D01*
X147750000Y-96480000D02*
X144940000Y-96480000D01*
X147780000Y-96440000D02*
X144940000Y-96440000D01*
X147809000Y-96400000D02*
X144940000Y-96400000D01*
X147838000Y-96360000D02*
X144940000Y-96360000D01*
X147866000Y-96320000D02*
X144940000Y-96320000D01*
X147893000Y-96280000D02*
X144940000Y-96280000D01*
X147920000Y-96240000D02*
X144940000Y-96240000D01*
X147947000Y-96200000D02*
X144940000Y-96200000D01*
X147972000Y-96160000D02*
X144940000Y-96160000D01*
X147998000Y-96120000D02*
X144940000Y-96120000D01*
X148023000Y-96080000D02*
X144940000Y-96080000D01*
X148047000Y-96040000D02*
X144940000Y-96040000D01*
X148071000Y-96000000D02*
X144940000Y-96000000D01*
X148094000Y-95960000D02*
X144940000Y-95960000D01*
X148117000Y-95920000D02*
X144940000Y-95920000D01*
X148139000Y-95880000D02*
X144940000Y-95880000D01*
X148161000Y-95840000D02*
X144940000Y-95840000D01*
X148183000Y-95800000D02*
X144940000Y-95800000D01*
X148204000Y-95760000D02*
X144940000Y-95760000D01*
X148224000Y-95720000D02*
X144940000Y-95720000D01*
X148244000Y-95680000D02*
X144940000Y-95680000D01*
X148264000Y-95640000D02*
X144940000Y-95640000D01*
X148283000Y-95600000D02*
X144940000Y-95600000D01*
X148302000Y-95560000D02*
X144940000Y-95560000D01*
X148320000Y-95520000D02*
X144940000Y-95520000D01*
X148338000Y-95480000D02*
X144940000Y-95480000D01*
X148356000Y-95440000D02*
X144940000Y-95440000D01*
X148373000Y-95400000D02*
X144940000Y-95400000D01*
X148390000Y-95360000D02*
X144940000Y-95360000D01*
X148406000Y-95320000D02*
X144940000Y-95320000D01*
X148422000Y-95280000D02*
X144940000Y-95280000D01*
X148438000Y-95240000D02*
X144940000Y-95240000D01*
X148453000Y-95200000D02*
X144940000Y-95200000D01*
X148468000Y-95160000D02*
X144940000Y-95160000D01*
X148482000Y-95120000D02*
X144940000Y-95120000D01*
X148497000Y-95080000D02*
X144940000Y-95080000D01*
X148510000Y-95040000D02*
X144940000Y-95040000D01*
X148524000Y-95000000D02*
X144940000Y-95000000D01*
X148537000Y-94960000D02*
X144940000Y-94960000D01*
X148549000Y-94920000D02*
X144940000Y-94920000D01*
X148561000Y-94880000D02*
X144940000Y-94880000D01*
X148573000Y-94840000D02*
X144940000Y-94840000D01*
X148585000Y-94800000D02*
X144940000Y-94800000D01*
X148596000Y-94760000D02*
X144940000Y-94760000D01*
X148607000Y-94720000D02*
X144940000Y-94720000D01*
X148617000Y-94680000D02*
X144940000Y-94680000D01*
X148628000Y-94640000D02*
X138772000Y-94640000D01*
X148637000Y-94600000D02*
X138763000Y-94600000D01*
X148647000Y-94560000D02*
X138753000Y-94560000D01*
X148656000Y-94520000D02*
X138744000Y-94520000D01*
X148665000Y-94480000D02*
X138735000Y-94480000D01*
X148673000Y-94440000D02*
X138727000Y-94440000D01*
X148681000Y-94400000D02*
X138719000Y-94400000D01*
X148689000Y-94360000D02*
X138711000Y-94360000D01*
X148697000Y-94320000D02*
X138703000Y-94320000D01*
X148704000Y-94280000D02*
X138696000Y-94280000D01*
X148711000Y-94240000D02*
X138689000Y-94240000D01*
X148717000Y-94200000D02*
X138683000Y-94200000D01*
X148723000Y-94160000D02*
X138677000Y-94160000D01*
X148729000Y-94120000D02*
X138671000Y-94120000D01*
X148735000Y-94080000D02*
X138665000Y-94080000D01*
X148740000Y-94040000D02*
X138660000Y-94040000D01*
X148745000Y-94000000D02*
X138655000Y-94000000D01*
X148749000Y-93960000D02*
X138651000Y-93960000D01*
X148754000Y-93920000D02*
X138646000Y-93920000D01*
X148757000Y-93880000D02*
X138643000Y-93880000D01*
X148761000Y-93840000D02*
X138639000Y-93840000D01*
X148764000Y-93800000D02*
X138636000Y-93800000D01*
X148767000Y-93760000D02*
X138633000Y-93760000D01*
X148770000Y-93720000D02*
X138630000Y-93720000D01*
X148772000Y-93680000D02*
X138628000Y-93680000D01*
X148774000Y-93640000D02*
X138626000Y-93640000D01*
X148776000Y-93600000D02*
X138624000Y-93600000D01*
X148777000Y-93560000D02*
X138623000Y-93560000D01*
X148779000Y-93480000D02*
X138621000Y-93480000D01*
X148779000Y-93520000D02*
X138621000Y-93520000D01*
X148780000Y-93400000D02*
X138620000Y-93400000D01*
X148780000Y-93440000D02*
X138620000Y-93440000D01*
X148820000Y-93400000D02*
G75*
G02*
X138580000Y-93400000I-5120000J0D01*
G01*
X138580000Y-93400000D02*
G75*
G02*
X148820000Y-93400000I5120000J0D01*
G01*
X141030000Y-82630000D02*
X141030000Y-82960000D01*
X141030000Y-82630000D02*
X145970000Y-82630000D01*
X141030000Y-85040000D02*
X141030000Y-85370000D01*
X141030000Y-85370000D02*
X145970000Y-85370000D01*
X145970000Y-82630000D02*
X145970000Y-82960000D01*
X145970000Y-85040000D02*
X145970000Y-85370000D01*
X147680000Y-74130000D02*
X147680000Y-78771000D01*
X147680000Y-74130000D02*
X157920000Y-74130000D01*
X147680000Y-75640000D02*
X157920000Y-75640000D01*
X147680000Y-78771000D02*
X157920000Y-78771000D01*
X150950000Y-74130000D02*
X150950000Y-75640000D01*
X154651000Y-74130000D02*
X154651000Y-75640000D01*
X157920000Y-74130000D02*
X157920000Y-78771000D01*
X156490000Y-97080000D02*
X156490000Y-107240000D01*
X156490000Y-107240000D02*
X164110000Y-107240000D01*
X157760000Y-107240000D02*
X157760000Y-97080000D01*
X164110000Y-97080000D02*
X156490000Y-97080000D01*
X164110000Y-107240000D02*
X164110000Y-97080000D01*
X114335000Y-102855000D02*
X114335000Y-105945000D01*
X114335000Y-102855170D02*
G75*
G02*
X119885000Y-104399952I2560000J-1544830D01*
G01*
X119885000Y-104400048D02*
G75*
G02*
X114335000Y-105944830I-2990000J48D01*
G01*
X119395000Y-104400000D02*
G75*
G02*
X114395000Y-104400000I-2500000J0D01*
G01*
X114395000Y-104400000D02*
G75*
G02*
X119395000Y-104400000I2500000J0D01*
G01*
X133030000Y-86780000D02*
X133030000Y-92220000D01*
X133030000Y-92220000D02*
X135970000Y-92220000D01*
X134500000Y-85760000D02*
X134500000Y-86780000D01*
X134500000Y-93240000D02*
X134500000Y-92220000D01*
X135970000Y-86780000D02*
X133030000Y-86780000D01*
X135970000Y-87560000D02*
X133030000Y-87560000D01*
X135970000Y-87680000D02*
X133030000Y-87680000D01*
X135970000Y-87800000D02*
X133030000Y-87800000D01*
X135970000Y-92220000D02*
X135970000Y-86780000D01*
X114090000Y-86660000D02*
X114090000Y-96820000D01*
X114090000Y-96820000D02*
X121710000Y-96820000D01*
X120440000Y-86660000D02*
X120440000Y-96820000D01*
X121710000Y-86660000D02*
X114090000Y-86660000D01*
X121710000Y-96820000D02*
X121710000Y-86660000D01*
X126530000Y-86780000D02*
X126530000Y-92220000D01*
X126530000Y-92220000D02*
X129470000Y-92220000D01*
X128000000Y-85760000D02*
X128000000Y-86780000D01*
X128000000Y-93240000D02*
X128000000Y-92220000D01*
X129470000Y-86780000D02*
X126530000Y-86780000D01*
X129470000Y-87560000D02*
X126530000Y-87560000D01*
X129470000Y-87680000D02*
X126530000Y-87680000D01*
X129470000Y-87800000D02*
X126530000Y-87800000D01*
X129470000Y-92220000D02*
X129470000Y-86780000D01*
X140020000Y-101830000D02*
X140020000Y-102160000D01*
X140020000Y-104570000D02*
X140020000Y-104240000D01*
X146560000Y-101830000D02*
X140020000Y-101830000D01*
X146560000Y-102160000D02*
X146560000Y-101830000D01*
X146560000Y-104240000D02*
X146560000Y-104570000D01*
X146560000Y-104570000D02*
X140020000Y-104570000D01*
X156120000Y-89399000D02*
X156120000Y-88201000D01*
X156160000Y-89662000D02*
X156160000Y-87938000D01*
X156200000Y-89862000D02*
X156200000Y-87738000D01*
X156240000Y-90030000D02*
X156240000Y-87570000D01*
X156280000Y-90177000D02*
X156280000Y-87423000D01*
X156320000Y-90309000D02*
X156320000Y-87291000D01*
X156360000Y-90430000D02*
X156360000Y-87170000D01*
X156400000Y-90542000D02*
X156400000Y-87058000D01*
X156440000Y-90646000D02*
X156440000Y-86954000D01*
X156480000Y-90744000D02*
X156480000Y-86856000D01*
X156520000Y-90837000D02*
X156520000Y-86763000D01*
X156560000Y-90924000D02*
X156560000Y-86676000D01*
X156600000Y-91008000D02*
X156600000Y-86592000D01*
X156640000Y-91088000D02*
X156640000Y-86512000D01*
X156680000Y-91165000D02*
X156680000Y-86435000D01*
X156720000Y-91239000D02*
X156720000Y-86361000D01*
X156760000Y-91310000D02*
X156760000Y-86290000D01*
X156800000Y-91378000D02*
X156800000Y-86222000D01*
X156840000Y-91444000D02*
X156840000Y-86156000D01*
X156880000Y-91508000D02*
X156880000Y-86092000D01*
X156920000Y-91570000D02*
X156920000Y-86030000D01*
X156960000Y-91630000D02*
X156960000Y-85970000D01*
X157000000Y-91688000D02*
X157000000Y-85912000D01*
X157040000Y-91745000D02*
X157040000Y-85855000D01*
X157080000Y-91800000D02*
X157080000Y-85800000D01*
X157120000Y-91853000D02*
X157120000Y-85747000D01*
X157160000Y-91905000D02*
X157160000Y-85695000D01*
X157200000Y-91956000D02*
X157200000Y-85644000D01*
X157240000Y-92005000D02*
X157240000Y-85595000D01*
X157280000Y-92054000D02*
X157280000Y-85546000D01*
X157320000Y-92101000D02*
X157320000Y-85499000D01*
X157360000Y-92147000D02*
X157360000Y-85453000D01*
X157400000Y-92191000D02*
X157400000Y-85409000D01*
X157440000Y-92235000D02*
X157440000Y-85365000D01*
X157480000Y-92278000D02*
X157480000Y-85322000D01*
X157520000Y-92320000D02*
X157520000Y-85280000D01*
X157560000Y-92361000D02*
X157560000Y-85239000D01*
X157600000Y-92401000D02*
X157600000Y-85199000D01*
X157640000Y-92440000D02*
X157640000Y-85160000D01*
X157680000Y-92478000D02*
X157680000Y-85122000D01*
X157720000Y-92516000D02*
X157720000Y-85084000D01*
X157760000Y-92552000D02*
X157760000Y-85048000D01*
X157800000Y-92588000D02*
X157800000Y-85012000D01*
X157840000Y-92623000D02*
X157840000Y-84977000D01*
X157880000Y-92658000D02*
X157880000Y-84942000D01*
X157920000Y-92691000D02*
X157920000Y-84909000D01*
X157960000Y-92724000D02*
X157960000Y-84876000D01*
X158000000Y-92757000D02*
X158000000Y-84843000D01*
X158040000Y-92788000D02*
X158040000Y-84812000D01*
X158080000Y-87560000D02*
X158080000Y-84780000D01*
X158080000Y-92820000D02*
X158080000Y-90040000D01*
X158120000Y-87560000D02*
X158120000Y-84750000D01*
X158120000Y-92850000D02*
X158120000Y-90040000D01*
X158160000Y-87560000D02*
X158160000Y-84720000D01*
X158160000Y-92880000D02*
X158160000Y-90040000D01*
X158200000Y-87560000D02*
X158200000Y-84691000D01*
X158200000Y-92909000D02*
X158200000Y-90040000D01*
X158240000Y-87560000D02*
X158240000Y-84662000D01*
X158240000Y-92938000D02*
X158240000Y-90040000D01*
X158280000Y-87560000D02*
X158280000Y-84634000D01*
X158280000Y-92966000D02*
X158280000Y-90040000D01*
X158320000Y-87560000D02*
X158320000Y-84607000D01*
X158320000Y-92993000D02*
X158320000Y-90040000D01*
X158360000Y-87560000D02*
X158360000Y-84580000D01*
X158360000Y-93020000D02*
X158360000Y-90040000D01*
X158400000Y-87560000D02*
X158400000Y-84553000D01*
X158400000Y-93047000D02*
X158400000Y-90040000D01*
X158440000Y-87560000D02*
X158440000Y-84528000D01*
X158440000Y-93072000D02*
X158440000Y-90040000D01*
X158480000Y-87560000D02*
X158480000Y-84502000D01*
X158480000Y-93098000D02*
X158480000Y-90040000D01*
X158520000Y-87560000D02*
X158520000Y-84477000D01*
X158520000Y-93123000D02*
X158520000Y-90040000D01*
X158560000Y-87560000D02*
X158560000Y-84453000D01*
X158560000Y-93147000D02*
X158560000Y-90040000D01*
X158600000Y-87560000D02*
X158600000Y-84429000D01*
X158600000Y-93171000D02*
X158600000Y-90040000D01*
X158640000Y-87560000D02*
X158640000Y-84406000D01*
X158640000Y-93194000D02*
X158640000Y-90040000D01*
X158680000Y-87560000D02*
X158680000Y-84383000D01*
X158680000Y-93217000D02*
X158680000Y-90040000D01*
X158720000Y-87560000D02*
X158720000Y-84361000D01*
X158720000Y-93239000D02*
X158720000Y-90040000D01*
X158760000Y-87560000D02*
X158760000Y-84339000D01*
X158760000Y-93261000D02*
X158760000Y-90040000D01*
X158800000Y-87560000D02*
X158800000Y-84317000D01*
X158800000Y-93283000D02*
X158800000Y-90040000D01*
X158840000Y-87560000D02*
X158840000Y-84296000D01*
X158840000Y-93304000D02*
X158840000Y-90040000D01*
X158880000Y-87560000D02*
X158880000Y-84276000D01*
X158880000Y-93324000D02*
X158880000Y-90040000D01*
X158920000Y-87560000D02*
X158920000Y-84256000D01*
X158920000Y-93344000D02*
X158920000Y-90040000D01*
X158960000Y-87560000D02*
X158960000Y-84236000D01*
X158960000Y-93364000D02*
X158960000Y-90040000D01*
X159000000Y-87560000D02*
X159000000Y-84217000D01*
X159000000Y-93383000D02*
X159000000Y-90040000D01*
X159040000Y-87560000D02*
X159040000Y-84198000D01*
X159040000Y-93402000D02*
X159040000Y-90040000D01*
X159080000Y-87560000D02*
X159080000Y-84180000D01*
X159080000Y-93420000D02*
X159080000Y-90040000D01*
X159120000Y-87560000D02*
X159120000Y-84162000D01*
X159120000Y-93438000D02*
X159120000Y-90040000D01*
X159160000Y-87560000D02*
X159160000Y-84144000D01*
X159160000Y-93456000D02*
X159160000Y-90040000D01*
X159200000Y-87560000D02*
X159200000Y-84127000D01*
X159200000Y-93473000D02*
X159200000Y-90040000D01*
X159240000Y-87560000D02*
X159240000Y-84110000D01*
X159240000Y-93490000D02*
X159240000Y-90040000D01*
X159280000Y-87560000D02*
X159280000Y-84094000D01*
X159280000Y-93506000D02*
X159280000Y-90040000D01*
X159320000Y-87560000D02*
X159320000Y-84078000D01*
X159320000Y-93522000D02*
X159320000Y-90040000D01*
X159360000Y-87560000D02*
X159360000Y-84062000D01*
X159360000Y-93538000D02*
X159360000Y-90040000D01*
X159400000Y-87560000D02*
X159400000Y-84047000D01*
X159400000Y-93553000D02*
X159400000Y-90040000D01*
X159440000Y-87560000D02*
X159440000Y-84032000D01*
X159440000Y-93568000D02*
X159440000Y-90040000D01*
X159480000Y-87560000D02*
X159480000Y-84018000D01*
X159480000Y-93582000D02*
X159480000Y-90040000D01*
X159520000Y-87560000D02*
X159520000Y-84003000D01*
X159520000Y-93597000D02*
X159520000Y-90040000D01*
X159560000Y-87560000D02*
X159560000Y-83990000D01*
X159560000Y-93610000D02*
X159560000Y-90040000D01*
X159600000Y-87560000D02*
X159600000Y-83976000D01*
X159600000Y-93624000D02*
X159600000Y-90040000D01*
X159640000Y-87560000D02*
X159640000Y-83963000D01*
X159640000Y-93637000D02*
X159640000Y-90040000D01*
X159680000Y-87560000D02*
X159680000Y-83951000D01*
X159680000Y-93649000D02*
X159680000Y-90040000D01*
X159720000Y-87560000D02*
X159720000Y-83939000D01*
X159720000Y-93661000D02*
X159720000Y-90040000D01*
X159760000Y-87560000D02*
X159760000Y-83927000D01*
X159760000Y-93673000D02*
X159760000Y-90040000D01*
X159800000Y-87560000D02*
X159800000Y-83915000D01*
X159800000Y-93685000D02*
X159800000Y-90040000D01*
X159840000Y-87560000D02*
X159840000Y-83904000D01*
X159840000Y-93696000D02*
X159840000Y-90040000D01*
X159880000Y-87560000D02*
X159880000Y-83893000D01*
X159880000Y-93707000D02*
X159880000Y-90040000D01*
X159920000Y-87560000D02*
X159920000Y-83883000D01*
X159920000Y-93717000D02*
X159920000Y-90040000D01*
X159960000Y-87560000D02*
X159960000Y-83872000D01*
X159960000Y-93728000D02*
X159960000Y-90040000D01*
X160000000Y-87560000D02*
X160000000Y-83863000D01*
X160000000Y-93737000D02*
X160000000Y-90040000D01*
X160040000Y-87560000D02*
X160040000Y-83853000D01*
X160040000Y-93747000D02*
X160040000Y-90040000D01*
X160080000Y-87560000D02*
X160080000Y-83844000D01*
X160080000Y-93756000D02*
X160080000Y-90040000D01*
X160120000Y-87560000D02*
X160120000Y-83835000D01*
X160120000Y-93765000D02*
X160120000Y-90040000D01*
X160160000Y-87560000D02*
X160160000Y-83827000D01*
X160160000Y-93773000D02*
X160160000Y-90040000D01*
X160200000Y-87560000D02*
X160200000Y-83819000D01*
X160200000Y-93781000D02*
X160200000Y-90040000D01*
X160240000Y-87560000D02*
X160240000Y-83811000D01*
X160240000Y-93789000D02*
X160240000Y-90040000D01*
X160280000Y-87560000D02*
X160280000Y-83803000D01*
X160280000Y-93797000D02*
X160280000Y-90040000D01*
X160320000Y-87560000D02*
X160320000Y-83796000D01*
X160320000Y-93804000D02*
X160320000Y-90040000D01*
X160360000Y-87560000D02*
X160360000Y-83789000D01*
X160360000Y-93811000D02*
X160360000Y-90040000D01*
X160400000Y-87560000D02*
X160400000Y-83783000D01*
X160400000Y-93817000D02*
X160400000Y-90040000D01*
X160440000Y-87560000D02*
X160440000Y-83777000D01*
X160440000Y-93823000D02*
X160440000Y-90040000D01*
X160480000Y-87560000D02*
X160480000Y-83771000D01*
X160480000Y-93829000D02*
X160480000Y-90040000D01*
X160520000Y-87560000D02*
X160520000Y-83765000D01*
X160520000Y-93835000D02*
X160520000Y-90040000D01*
X160560000Y-93840000D02*
X160560000Y-83760000D01*
X160600000Y-93845000D02*
X160600000Y-83755000D01*
X160640000Y-93849000D02*
X160640000Y-83751000D01*
X160680000Y-93854000D02*
X160680000Y-83746000D01*
X160720000Y-93857000D02*
X160720000Y-83743000D01*
X160760000Y-93861000D02*
X160760000Y-83739000D01*
X160800000Y-93864000D02*
X160800000Y-83736000D01*
X160840000Y-93867000D02*
X160840000Y-83733000D01*
X160880000Y-93870000D02*
X160880000Y-83730000D01*
X160920000Y-93872000D02*
X160920000Y-83728000D01*
X160960000Y-93874000D02*
X160960000Y-83726000D01*
X161000000Y-93876000D02*
X161000000Y-83724000D01*
X161040000Y-93877000D02*
X161040000Y-83723000D01*
X161080000Y-93879000D02*
X161080000Y-83721000D01*
X161120000Y-93879000D02*
X161120000Y-83721000D01*
X161160000Y-93880000D02*
X161160000Y-83720000D01*
X161200000Y-93880000D02*
X161200000Y-83720000D01*
X166179646Y-92175000D02*
X166179646Y-91175000D01*
X166679646Y-91675000D02*
X165679646Y-91675000D01*
X166320000Y-88800000D02*
G75*
G02*
X156080000Y-88800000I-5120000J0D01*
G01*
X156080000Y-88800000D02*
G75*
G02*
X166320000Y-88800000I5120000J0D01*
G01*
X126530000Y-101700000D02*
X126530000Y-107140000D01*
X126530000Y-107140000D02*
X129470000Y-107140000D01*
X128000000Y-100680000D02*
X128000000Y-101700000D01*
X128000000Y-108160000D02*
X128000000Y-107140000D01*
X129470000Y-101700000D02*
X126530000Y-101700000D01*
X129470000Y-102480000D02*
X126530000Y-102480000D01*
X129470000Y-102600000D02*
X126530000Y-102600000D01*
X129470000Y-102720000D02*
X126530000Y-102720000D01*
X129470000Y-107140000D02*
X129470000Y-101700000D01*
X118830000Y-75540000D02*
X119160000Y-75540000D01*
X118830000Y-82080000D02*
X118830000Y-75540000D01*
X119160000Y-82080000D02*
X118830000Y-82080000D01*
X121240000Y-82080000D02*
X121570000Y-82080000D01*
X121570000Y-75540000D02*
X121240000Y-75540000D01*
X121570000Y-82080000D02*
X121570000Y-75540000D01*
X150530000Y-98280000D02*
X150530000Y-103720000D01*
X150530000Y-103720000D02*
X150860000Y-103720000D01*
X150860000Y-98280000D02*
X150530000Y-98280000D01*
X153140000Y-98280000D02*
X153470000Y-98280000D01*
X153470000Y-98280000D02*
X153470000Y-103720000D01*
X153470000Y-99060000D02*
X150530000Y-99060000D01*
X153470000Y-99180000D02*
X150530000Y-99180000D01*
X153470000Y-99300000D02*
X150530000Y-99300000D01*
X153470000Y-103720000D02*
X153140000Y-103720000D01*
%LPC*%
D15*
X139480000Y-109350000D03*
D16*
X147100000Y-109350000D03*
D17*
X127500000Y-77250000D03*
X142500000Y-77250000D03*
D18*
X152400000Y-83090000D03*
D19*
X152400000Y-90710000D03*
D20*
X134500000Y-99340000D03*
D21*
X134500000Y-109500000D03*
D16*
X122500000Y-109800000D03*
D15*
X122500000Y-102180000D03*
D22*
X143700000Y-90900000D03*
D23*
X143700000Y-95900000D03*
D16*
X141000000Y-84000000D03*
X146000000Y-84000000D03*
D24*
X150260000Y-77400000D03*
D25*
X152800000Y-77400000D03*
X155340000Y-77400000D03*
D26*
X160300000Y-99620000D03*
D27*
X160300000Y-104700000D03*
D18*
X115625000Y-104400000D03*
D28*
X118165000Y-104400000D03*
D20*
X134500000Y-84420000D03*
D21*
X134500000Y-94580000D03*
D26*
X117900000Y-94280000D03*
D27*
X117900000Y-89200000D03*
D20*
X128000000Y-84420000D03*
D21*
X128000000Y-94580000D03*
D16*
X147100000Y-103200000D03*
D15*
X139480000Y-103200000D03*
D22*
X163100000Y-88800000D03*
D23*
X159300000Y-88800000D03*
D20*
X128000000Y-99340000D03*
D21*
X128000000Y-109500000D03*
D16*
X120200000Y-82620000D03*
D15*
X120200000Y-75000000D03*
D18*
X152000000Y-97190000D03*
D19*
X152000000Y-104810000D03*
%LPD*%
M02*
