%TF.GenerationSoftware,KiCad,Pcbnew,9.0.1*%
%TF.CreationDate,2025-08-15T11:03:45+05:00*%
%TF.ProjectId,transformerless_power_supply,7472616e-7366-46f7-926d-65726c657373,rev?*%
%TF.SameCoordinates,Original*%
%TF.FileFunction,Drillmap*%
%TF.FilePolarity,Positive*%
%FSLAX45Y45*%
G04 Gerber Fmt 4.5, Leading zero omitted, Abs format (unit mm)*
G04 Created by KiCad (PCBNEW 9.0.1) date 2025-08-15 11:03:45*
%MOMM*%
%LPD*%
G01*
G04 APERTURE LIST*
%ADD10C,0.050000*%
%ADD11C,0.200000*%
G04 APERTURE END LIST*
D10*
X11630333Y-11110000D02*
G75*
G02*
X11329667Y-11110000I-150333J0D01*
G01*
X11329667Y-11110000D02*
G75*
G02*
X11630333Y-11110000I150333J0D01*
G01*
X16740333Y-11100000D02*
G75*
G02*
X16439667Y-11100000I-150333J0D01*
G01*
X16439667Y-11100000D02*
G75*
G02*
X16740333Y-11100000I150333J0D01*
G01*
X11270000Y-7250000D02*
X16810000Y-7250000D01*
X16810000Y-11310000D01*
X11270000Y-11310000D01*
X11270000Y-7250000D01*
X16740333Y-7470000D02*
G75*
G02*
X16439667Y-7470000I-150333J0D01*
G01*
X16439667Y-7470000D02*
G75*
G02*
X16740333Y-7470000I150333J0D01*
G01*
X11630333Y-7460000D02*
G75*
G02*
X11329667Y-7460000I-150333J0D01*
G01*
X11329667Y-7460000D02*
G75*
G02*
X11630333Y-7460000I150333J0D01*
G01*
D11*
X11528277Y-11623984D02*
X11528277Y-11423984D01*
X11528277Y-11423984D02*
X11575896Y-11423984D01*
X11575896Y-11423984D02*
X11604467Y-11433508D01*
X11604467Y-11433508D02*
X11623515Y-11452555D01*
X11623515Y-11452555D02*
X11633039Y-11471603D01*
X11633039Y-11471603D02*
X11642562Y-11509698D01*
X11642562Y-11509698D02*
X11642562Y-11538269D01*
X11642562Y-11538269D02*
X11633039Y-11576365D01*
X11633039Y-11576365D02*
X11623515Y-11595412D01*
X11623515Y-11595412D02*
X11604467Y-11614460D01*
X11604467Y-11614460D02*
X11575896Y-11623984D01*
X11575896Y-11623984D02*
X11528277Y-11623984D01*
X11728277Y-11623984D02*
X11728277Y-11490650D01*
X11728277Y-11528746D02*
X11737801Y-11509698D01*
X11737801Y-11509698D02*
X11747324Y-11500174D01*
X11747324Y-11500174D02*
X11766372Y-11490650D01*
X11766372Y-11490650D02*
X11785420Y-11490650D01*
X11852086Y-11623984D02*
X11852086Y-11490650D01*
X11852086Y-11423984D02*
X11842562Y-11433508D01*
X11842562Y-11433508D02*
X11852086Y-11443031D01*
X11852086Y-11443031D02*
X11861610Y-11433508D01*
X11861610Y-11433508D02*
X11852086Y-11423984D01*
X11852086Y-11423984D02*
X11852086Y-11443031D01*
X11975896Y-11623984D02*
X11956848Y-11614460D01*
X11956848Y-11614460D02*
X11947324Y-11595412D01*
X11947324Y-11595412D02*
X11947324Y-11423984D01*
X12080658Y-11623984D02*
X12061610Y-11614460D01*
X12061610Y-11614460D02*
X12052086Y-11595412D01*
X12052086Y-11595412D02*
X12052086Y-11423984D01*
X12309229Y-11623984D02*
X12309229Y-11423984D01*
X12309229Y-11423984D02*
X12375896Y-11566841D01*
X12375896Y-11566841D02*
X12442562Y-11423984D01*
X12442562Y-11423984D02*
X12442562Y-11623984D01*
X12623515Y-11623984D02*
X12623515Y-11519222D01*
X12623515Y-11519222D02*
X12613991Y-11500174D01*
X12613991Y-11500174D02*
X12594943Y-11490650D01*
X12594943Y-11490650D02*
X12556848Y-11490650D01*
X12556848Y-11490650D02*
X12537801Y-11500174D01*
X12623515Y-11614460D02*
X12604467Y-11623984D01*
X12604467Y-11623984D02*
X12556848Y-11623984D01*
X12556848Y-11623984D02*
X12537801Y-11614460D01*
X12537801Y-11614460D02*
X12528277Y-11595412D01*
X12528277Y-11595412D02*
X12528277Y-11576365D01*
X12528277Y-11576365D02*
X12537801Y-11557317D01*
X12537801Y-11557317D02*
X12556848Y-11547793D01*
X12556848Y-11547793D02*
X12604467Y-11547793D01*
X12604467Y-11547793D02*
X12623515Y-11538269D01*
X12718753Y-11490650D02*
X12718753Y-11690650D01*
X12718753Y-11500174D02*
X12737801Y-11490650D01*
X12737801Y-11490650D02*
X12775896Y-11490650D01*
X12775896Y-11490650D02*
X12794943Y-11500174D01*
X12794943Y-11500174D02*
X12804467Y-11509698D01*
X12804467Y-11509698D02*
X12813991Y-11528746D01*
X12813991Y-11528746D02*
X12813991Y-11585888D01*
X12813991Y-11585888D02*
X12804467Y-11604936D01*
X12804467Y-11604936D02*
X12794943Y-11614460D01*
X12794943Y-11614460D02*
X12775896Y-11623984D01*
X12775896Y-11623984D02*
X12737801Y-11623984D01*
X12737801Y-11623984D02*
X12718753Y-11614460D01*
X12899705Y-11604936D02*
X12909229Y-11614460D01*
X12909229Y-11614460D02*
X12899705Y-11623984D01*
X12899705Y-11623984D02*
X12890182Y-11614460D01*
X12890182Y-11614460D02*
X12899705Y-11604936D01*
X12899705Y-11604936D02*
X12899705Y-11623984D01*
X12899705Y-11500174D02*
X12909229Y-11509698D01*
X12909229Y-11509698D02*
X12899705Y-11519222D01*
X12899705Y-11519222D02*
X12890182Y-11509698D01*
X12890182Y-11509698D02*
X12899705Y-11500174D01*
X12899705Y-11500174D02*
X12899705Y-11519222D01*
M02*
