%TF.GenerationSoftware,KiCad,Pcbnew,9.0.1*%
%TF.CreationDate,2025-08-15T11:03:48+05:00*%
%TF.ProjectId,transformerless_power_supply,7472616e-7366-46f7-926d-65726c657373,rev?*%
%TF.SameCoordinates,Original*%
%TF.FileFunction,Copper,L2,Bot*%
%TF.FilePolarity,Positive*%
%FSLAX46Y46*%
G04 Gerber Fmt 4.6, Leading zero omitted, Abs format (unit mm)*
G04 Created by KiCad (PCBNEW 9.0.1) date 2025-08-15 11:03:48*
%MOMM*%
%LPD*%
G01*
G04 APERTURE LIST*
%TA.AperFunction,ComponentPad*%
%ADD10O,1.600000X1.600000*%
%TD*%
%TA.AperFunction,ComponentPad*%
%ADD11C,1.600000*%
%TD*%
%TA.AperFunction,ComponentPad*%
%ADD12C,2.400000*%
%TD*%
%TA.AperFunction,ComponentPad*%
%ADD13R,1.800000X1.800000*%
%TD*%
%TA.AperFunction,ComponentPad*%
%ADD14O,1.800000X1.800000*%
%TD*%
%TA.AperFunction,ComponentPad*%
%ADD15R,2.200000X2.200000*%
%TD*%
%TA.AperFunction,ComponentPad*%
%ADD16O,2.200000X2.200000*%
%TD*%
%TA.AperFunction,ComponentPad*%
%ADD17R,2.000000X2.000000*%
%TD*%
%TA.AperFunction,ComponentPad*%
%ADD18C,2.000000*%
%TD*%
%TA.AperFunction,ComponentPad*%
%ADD19R,1.905000X2.000000*%
%TD*%
%TA.AperFunction,ComponentPad*%
%ADD20O,1.905000X2.000000*%
%TD*%
%TA.AperFunction,ComponentPad*%
%ADD21R,3.000000X3.000000*%
%TD*%
%TA.AperFunction,ComponentPad*%
%ADD22C,3.000000*%
%TD*%
%TA.AperFunction,ComponentPad*%
%ADD23C,1.800000*%
%TD*%
%TA.AperFunction,Conductor*%
%ADD24C,0.500000*%
%TD*%
%TA.AperFunction,Conductor*%
%ADD25C,1.000000*%
%TD*%
G04 APERTURE END LIST*
D10*
X139480000Y-109350000D03*
D11*
X147100000Y-109350000D03*
D12*
X127500000Y-77250000D03*
X142500000Y-77250000D03*
D13*
X152400000Y-83090000D03*
D14*
X152400000Y-90710000D03*
D15*
X134500000Y-99340000D03*
D16*
X134500000Y-109500000D03*
D11*
X122500000Y-109800000D03*
D10*
X122500000Y-102180000D03*
D17*
X143700000Y-90900000D03*
D18*
X143700000Y-95900000D03*
D11*
X141000000Y-84000000D03*
X146000000Y-84000000D03*
D19*
X150260000Y-77400000D03*
D20*
X152800000Y-77400000D03*
X155340000Y-77400000D03*
D21*
X160300000Y-99620000D03*
D22*
X160300000Y-104700000D03*
D13*
X115625000Y-104400000D03*
D23*
X118165000Y-104400000D03*
D15*
X134500000Y-84420000D03*
D16*
X134500000Y-94580000D03*
D21*
X117900000Y-94280000D03*
D22*
X117900000Y-89200000D03*
D15*
X128000000Y-84420000D03*
D16*
X128000000Y-94580000D03*
D11*
X147100000Y-103200000D03*
D10*
X139480000Y-103200000D03*
D17*
X163100000Y-88800000D03*
D18*
X159300000Y-88800000D03*
D15*
X128000000Y-99340000D03*
D16*
X128000000Y-109500000D03*
D11*
X120200000Y-82620000D03*
D10*
X120200000Y-75000000D03*
D13*
X152000000Y-97190000D03*
D14*
X152000000Y-104810000D03*
D24*
X152000000Y-106700000D02*
X149350000Y-109350000D01*
X149350000Y-109350000D02*
X147100000Y-109350000D01*
X152000000Y-97190000D02*
X154900000Y-94290000D01*
D25*
X141000000Y-88200000D02*
X143700000Y-90900000D01*
X134500000Y-84420000D02*
X140580000Y-84420000D01*
D24*
X154900000Y-94290000D02*
X154900000Y-89100000D01*
D25*
X140580000Y-84420000D02*
X141000000Y-84000000D01*
D24*
X152400000Y-83090000D02*
X152400000Y-86600000D01*
D25*
X128000000Y-84420000D02*
X134500000Y-84420000D01*
D24*
X150260000Y-80950000D02*
X152400000Y-83090000D01*
X154900000Y-89100000D02*
X152400000Y-86600000D01*
D25*
X141000000Y-84000000D02*
X141000000Y-88200000D01*
D24*
X150260000Y-77400000D02*
X150260000Y-80950000D01*
X160300000Y-99100000D02*
X160300000Y-99620000D01*
X163100000Y-88800000D02*
X163100000Y-96300000D01*
X155340000Y-77400000D02*
X160400000Y-77400000D01*
X163100000Y-80100000D02*
X163100000Y-88800000D01*
X160400000Y-77400000D02*
X163100000Y-80100000D01*
X163100000Y-96300000D02*
X160300000Y-99100000D01*
D25*
X128000000Y-94580000D02*
X128000000Y-99340000D01*
X120200000Y-82620000D02*
X122130000Y-82620000D01*
X120200000Y-82620000D02*
X120200000Y-86900000D01*
X120200000Y-86900000D02*
X117900000Y-89200000D01*
X122130000Y-82620000D02*
X127500000Y-77250000D01*
X117900000Y-94280000D02*
X120980000Y-91200000D01*
X120980000Y-91200000D02*
X124100000Y-91200000D01*
X134500000Y-99340000D02*
X134500000Y-94580000D01*
X123200000Y-91200000D02*
X131120000Y-91200000D01*
X131120000Y-91200000D02*
X134500000Y-94580000D01*
D24*
X149700000Y-93410000D02*
X149700000Y-97200000D01*
X147100000Y-99800000D02*
X147100000Y-103200000D01*
X152400000Y-90710000D02*
X149700000Y-93410000D01*
X149700000Y-97200000D02*
X147100000Y-99800000D01*
X152000000Y-104810000D02*
X152000000Y-106700000D01*
X121320000Y-102180000D02*
X122500000Y-102180000D01*
X119100000Y-104400000D02*
X121320000Y-102180000D01*
X118165000Y-104400000D02*
X119100000Y-104400000D01*
%TA.AperFunction,Conductor*%
G36*
X164533332Y-73020185D02*
G01*
X164579087Y-73072989D01*
X164589031Y-73142147D01*
X164560006Y-73205703D01*
X164553974Y-73212181D01*
X164390212Y-73375942D01*
X164390206Y-73375949D01*
X164230304Y-73584338D01*
X164098966Y-73811819D01*
X164098958Y-73811835D01*
X163998441Y-74054507D01*
X163930457Y-74308230D01*
X163930454Y-74308243D01*
X163896171Y-74568651D01*
X163896170Y-74568668D01*
X163896170Y-74831331D01*
X163896171Y-74831348D01*
X163930454Y-75091756D01*
X163930455Y-75091761D01*
X163930456Y-75091767D01*
X163952150Y-75172731D01*
X163998441Y-75345492D01*
X164098958Y-75588164D01*
X164098966Y-75588180D01*
X164162372Y-75698001D01*
X164230301Y-75815657D01*
X164230303Y-75815660D01*
X164230304Y-75815661D01*
X164390206Y-76024050D01*
X164390212Y-76024057D01*
X164575942Y-76209787D01*
X164575949Y-76209793D01*
X164620810Y-76244216D01*
X164784343Y-76369699D01*
X164930547Y-76454110D01*
X165011819Y-76501033D01*
X165011835Y-76501041D01*
X165104704Y-76539508D01*
X165254508Y-76601559D01*
X165508233Y-76669544D01*
X165768662Y-76703830D01*
X165768669Y-76703830D01*
X166031331Y-76703830D01*
X166031338Y-76703830D01*
X166291767Y-76669544D01*
X166545492Y-76601559D01*
X166736261Y-76522539D01*
X166788164Y-76501041D01*
X166788167Y-76501039D01*
X166788173Y-76501037D01*
X167015657Y-76369699D01*
X167224052Y-76209792D01*
X167300137Y-76133707D01*
X167387819Y-76046026D01*
X167449142Y-76012541D01*
X167518834Y-76017525D01*
X167574767Y-76059397D01*
X167599184Y-76124861D01*
X167599500Y-76133707D01*
X167599500Y-109566293D01*
X167579815Y-109633332D01*
X167527011Y-109679087D01*
X167457853Y-109689031D01*
X167394297Y-109660006D01*
X167387819Y-109653974D01*
X167224057Y-109490212D01*
X167224050Y-109490206D01*
X167015661Y-109330304D01*
X167015660Y-109330303D01*
X167015657Y-109330301D01*
X166876572Y-109250000D01*
X166788180Y-109198966D01*
X166788164Y-109198958D01*
X166545492Y-109098441D01*
X166537016Y-109096170D01*
X166291767Y-109030456D01*
X166291761Y-109030455D01*
X166291756Y-109030454D01*
X166031348Y-108996171D01*
X166031343Y-108996170D01*
X166031338Y-108996170D01*
X165768662Y-108996170D01*
X165768656Y-108996170D01*
X165768651Y-108996171D01*
X165508243Y-109030454D01*
X165508236Y-109030455D01*
X165508233Y-109030456D01*
X165452215Y-109045466D01*
X165254507Y-109098441D01*
X165011835Y-109198958D01*
X165011819Y-109198966D01*
X164784338Y-109330304D01*
X164575949Y-109490206D01*
X164575942Y-109490212D01*
X164390212Y-109675942D01*
X164390206Y-109675949D01*
X164230304Y-109884338D01*
X164098966Y-110111819D01*
X164098958Y-110111835D01*
X163998441Y-110354507D01*
X163930457Y-110608230D01*
X163930454Y-110608243D01*
X163896171Y-110868651D01*
X163896170Y-110868668D01*
X163896170Y-111131331D01*
X163896171Y-111131348D01*
X163930454Y-111391756D01*
X163930455Y-111391761D01*
X163930456Y-111391767D01*
X163978945Y-111572731D01*
X163998441Y-111645492D01*
X164098958Y-111888164D01*
X164098966Y-111888180D01*
X164156693Y-111988164D01*
X164230301Y-112115657D01*
X164230303Y-112115660D01*
X164230304Y-112115661D01*
X164390206Y-112324050D01*
X164390212Y-112324057D01*
X164453974Y-112387819D01*
X164487459Y-112449142D01*
X164482475Y-112518834D01*
X164440603Y-112574767D01*
X164375139Y-112599184D01*
X164366293Y-112599500D01*
X116426614Y-112599500D01*
X116359575Y-112579815D01*
X116313820Y-112527011D01*
X116303876Y-112457853D01*
X116328238Y-112400014D01*
X116401726Y-112304240D01*
X116469699Y-112215657D01*
X116601037Y-111988173D01*
X116612853Y-111959648D01*
X116622539Y-111936261D01*
X116701559Y-111745492D01*
X116769544Y-111491767D01*
X116803830Y-111231338D01*
X116803830Y-110968662D01*
X116769544Y-110708233D01*
X116701559Y-110454508D01*
X116637236Y-110299219D01*
X116601041Y-110211835D01*
X116601033Y-110211819D01*
X116544663Y-110114184D01*
X116469699Y-109984343D01*
X116406785Y-109902352D01*
X116309792Y-109775947D01*
X116231493Y-109697648D01*
X121199500Y-109697648D01*
X121199500Y-109902351D01*
X121231522Y-110104534D01*
X121294781Y-110299223D01*
X121322951Y-110354508D01*
X121377867Y-110462287D01*
X121387715Y-110481613D01*
X121508028Y-110647213D01*
X121652786Y-110791971D01*
X121758353Y-110868668D01*
X121818390Y-110912287D01*
X121929010Y-110968651D01*
X122000776Y-111005218D01*
X122000778Y-111005218D01*
X122000781Y-111005220D01*
X122105137Y-111039127D01*
X122195465Y-111068477D01*
X122270409Y-111080347D01*
X122397648Y-111100500D01*
X122397649Y-111100500D01*
X122602351Y-111100500D01*
X122602352Y-111100500D01*
X122804534Y-111068477D01*
X122999219Y-111005220D01*
X123181610Y-110912287D01*
X123274590Y-110844732D01*
X123347213Y-110791971D01*
X123347215Y-110791968D01*
X123347219Y-110791966D01*
X123491966Y-110647219D01*
X123491968Y-110647215D01*
X123491971Y-110647213D01*
X123544732Y-110574590D01*
X123612287Y-110481610D01*
X123705220Y-110299219D01*
X123768477Y-110104534D01*
X123800500Y-109902352D01*
X123800500Y-109697648D01*
X123768477Y-109495466D01*
X123754468Y-109452352D01*
X123738323Y-109402661D01*
X123705220Y-109300781D01*
X123705218Y-109300778D01*
X123705218Y-109300776D01*
X123679346Y-109250000D01*
X126419652Y-109250000D01*
X127509252Y-109250000D01*
X127487482Y-109287708D01*
X127450000Y-109427591D01*
X127450000Y-109572409D01*
X127487482Y-109712292D01*
X127509252Y-109750000D01*
X126419652Y-109750000D01*
X126439397Y-109874668D01*
X126439397Y-109874671D01*
X126517219Y-110114184D01*
X126631557Y-110338583D01*
X126779590Y-110542331D01*
X126779590Y-110542332D01*
X126957667Y-110720409D01*
X127161416Y-110868442D01*
X127385815Y-110982780D01*
X127625329Y-111060602D01*
X127750000Y-111080348D01*
X127750000Y-109990747D01*
X127787708Y-110012518D01*
X127927591Y-110050000D01*
X128072409Y-110050000D01*
X128212292Y-110012518D01*
X128250000Y-109990747D01*
X128250000Y-111080347D01*
X128374668Y-111060602D01*
X128374671Y-111060602D01*
X128614184Y-110982780D01*
X128838583Y-110868442D01*
X129042331Y-110720409D01*
X129042332Y-110720409D01*
X129220409Y-110542332D01*
X129220409Y-110542331D01*
X129368442Y-110338583D01*
X129482780Y-110114184D01*
X129560602Y-109874671D01*
X129560602Y-109874668D01*
X129580348Y-109750000D01*
X128490748Y-109750000D01*
X128512518Y-109712292D01*
X128550000Y-109572409D01*
X128550000Y-109427591D01*
X128512518Y-109287708D01*
X128490748Y-109250000D01*
X129580348Y-109250000D01*
X132919652Y-109250000D01*
X134009252Y-109250000D01*
X133987482Y-109287708D01*
X133950000Y-109427591D01*
X133950000Y-109572409D01*
X133987482Y-109712292D01*
X134009252Y-109750000D01*
X132919652Y-109750000D01*
X132939397Y-109874668D01*
X132939397Y-109874671D01*
X133017219Y-110114184D01*
X133131557Y-110338583D01*
X133279590Y-110542331D01*
X133279590Y-110542332D01*
X133457667Y-110720409D01*
X133661416Y-110868442D01*
X133885815Y-110982780D01*
X134125329Y-111060602D01*
X134250000Y-111080348D01*
X134250000Y-109990747D01*
X134287708Y-110012518D01*
X134427591Y-110050000D01*
X134572409Y-110050000D01*
X134712292Y-110012518D01*
X134750000Y-109990747D01*
X134750000Y-111080347D01*
X134874668Y-111060602D01*
X134874671Y-111060602D01*
X135114184Y-110982780D01*
X135338583Y-110868442D01*
X135542331Y-110720409D01*
X135542332Y-110720409D01*
X135720409Y-110542332D01*
X135720409Y-110542331D01*
X135868442Y-110338583D01*
X135982780Y-110114184D01*
X136060602Y-109874671D01*
X136060602Y-109874668D01*
X136080348Y-109750000D01*
X134990748Y-109750000D01*
X135012518Y-109712292D01*
X135050000Y-109572409D01*
X135050000Y-109427591D01*
X135012518Y-109287708D01*
X134990748Y-109250000D01*
X136080348Y-109250000D01*
X136065533Y-109156462D01*
X136065532Y-109156460D01*
X136060600Y-109125324D01*
X136052372Y-109100000D01*
X138203391Y-109100000D01*
X139164314Y-109100000D01*
X139159920Y-109104394D01*
X139107259Y-109195606D01*
X139080000Y-109297339D01*
X139080000Y-109402661D01*
X139107259Y-109504394D01*
X139159920Y-109595606D01*
X139164314Y-109600000D01*
X138203391Y-109600000D01*
X138212009Y-109654413D01*
X138275244Y-109849029D01*
X138368140Y-110031349D01*
X138488417Y-110196894D01*
X138488417Y-110196895D01*
X138633104Y-110341582D01*
X138798650Y-110461859D01*
X138980968Y-110554754D01*
X139175578Y-110617988D01*
X139230000Y-110626607D01*
X139230000Y-109665686D01*
X139234394Y-109670080D01*
X139325606Y-109722741D01*
X139427339Y-109750000D01*
X139532661Y-109750000D01*
X139634394Y-109722741D01*
X139725606Y-109670080D01*
X139730000Y-109665686D01*
X139730000Y-110626606D01*
X139784421Y-110617988D01*
X139979031Y-110554754D01*
X140161349Y-110461859D01*
X140326894Y-110341582D01*
X140326895Y-110341582D01*
X140471582Y-110196895D01*
X140471582Y-110196894D01*
X140591859Y-110031349D01*
X140684755Y-109849029D01*
X140747990Y-109654413D01*
X140756609Y-109600000D01*
X139795686Y-109600000D01*
X139800080Y-109595606D01*
X139852741Y-109504394D01*
X139880000Y-109402661D01*
X139880000Y-109297339D01*
X139866685Y-109247648D01*
X145799500Y-109247648D01*
X145799500Y-109452351D01*
X145831522Y-109654534D01*
X145894781Y-109849223D01*
X145937443Y-109932950D01*
X145972625Y-110001999D01*
X145987715Y-110031613D01*
X146108028Y-110197213D01*
X146252786Y-110341971D01*
X146407682Y-110454507D01*
X146418390Y-110462287D01*
X146534607Y-110521503D01*
X146600776Y-110555218D01*
X146600778Y-110555218D01*
X146600781Y-110555220D01*
X146705137Y-110589127D01*
X146795465Y-110618477D01*
X146896557Y-110634488D01*
X146997648Y-110650500D01*
X146997649Y-110650500D01*
X147202351Y-110650500D01*
X147202352Y-110650500D01*
X147404534Y-110618477D01*
X147599219Y-110555220D01*
X147781610Y-110462287D01*
X147917152Y-110363811D01*
X147947213Y-110341971D01*
X147947215Y-110341968D01*
X147947219Y-110341966D01*
X148091966Y-110197219D01*
X148094650Y-110193524D01*
X148125100Y-110151615D01*
X148180429Y-110108949D01*
X148225418Y-110100500D01*
X149423920Y-110100500D01*
X149521462Y-110081096D01*
X149568913Y-110071658D01*
X149705495Y-110015084D01*
X149754729Y-109982186D01*
X149828416Y-109932952D01*
X152582952Y-107178416D01*
X152632186Y-107104729D01*
X152665084Y-107055495D01*
X152721658Y-106918913D01*
X152750500Y-106773918D01*
X152750500Y-106059024D01*
X152770185Y-105991985D01*
X152801616Y-105958705D01*
X152912361Y-105878245D01*
X152912361Y-105878244D01*
X152912365Y-105878242D01*
X153068242Y-105722365D01*
X153197815Y-105544022D01*
X153297895Y-105347606D01*
X153366015Y-105137951D01*
X153400500Y-104920222D01*
X153400500Y-104699778D01*
X153379772Y-104568905D01*
X158300000Y-104568905D01*
X158300000Y-104831094D01*
X158334220Y-105091009D01*
X158334222Y-105091020D01*
X158402075Y-105344255D01*
X158502404Y-105586471D01*
X158502409Y-105586482D01*
X158633488Y-105813516D01*
X158633494Y-105813524D01*
X158720080Y-105926365D01*
X159614767Y-105031677D01*
X159626497Y-105059995D01*
X159709670Y-105184472D01*
X159815528Y-105290330D01*
X159940005Y-105373503D01*
X159968320Y-105385231D01*
X159073633Y-106279917D01*
X159073633Y-106279918D01*
X159186475Y-106366505D01*
X159186483Y-106366511D01*
X159413517Y-106497590D01*
X159413528Y-106497595D01*
X159655744Y-106597924D01*
X159908979Y-106665777D01*
X159908990Y-106665779D01*
X160168905Y-106699999D01*
X160168920Y-106700000D01*
X160431080Y-106700000D01*
X160431094Y-106699999D01*
X160691009Y-106665779D01*
X160691020Y-106665777D01*
X160944255Y-106597924D01*
X161186471Y-106497595D01*
X161186482Y-106497590D01*
X161413516Y-106366511D01*
X161413534Y-106366499D01*
X161526365Y-106279919D01*
X161526365Y-106279917D01*
X160631679Y-105385231D01*
X160659995Y-105373503D01*
X160784472Y-105290330D01*
X160890330Y-105184472D01*
X160973503Y-105059995D01*
X160985231Y-105031679D01*
X161879917Y-105926365D01*
X161879919Y-105926365D01*
X161966499Y-105813534D01*
X161966511Y-105813516D01*
X162097590Y-105586482D01*
X162097595Y-105586471D01*
X162197924Y-105344255D01*
X162265777Y-105091020D01*
X162265779Y-105091009D01*
X162299999Y-104831094D01*
X162300000Y-104831080D01*
X162300000Y-104568919D01*
X162299999Y-104568905D01*
X162265779Y-104308990D01*
X162265777Y-104308979D01*
X162197924Y-104055744D01*
X162097595Y-103813528D01*
X162097590Y-103813517D01*
X161966511Y-103586483D01*
X161966505Y-103586475D01*
X161879918Y-103473633D01*
X161879917Y-103473633D01*
X160985231Y-104368320D01*
X160973503Y-104340005D01*
X160890330Y-104215528D01*
X160784472Y-104109670D01*
X160659995Y-104026497D01*
X160631677Y-104014767D01*
X161526365Y-103120080D01*
X161413524Y-103033494D01*
X161413516Y-103033488D01*
X161186482Y-102902409D01*
X161186471Y-102902404D01*
X160944255Y-102802075D01*
X160691020Y-102734222D01*
X160691009Y-102734220D01*
X160431094Y-102700000D01*
X160168905Y-102700000D01*
X159908990Y-102734220D01*
X159908979Y-102734222D01*
X159655744Y-102802075D01*
X159413528Y-102902404D01*
X159413517Y-102902409D01*
X159186471Y-103033496D01*
X159073633Y-103120079D01*
X159073633Y-103120080D01*
X159968321Y-104014768D01*
X159940005Y-104026497D01*
X159815528Y-104109670D01*
X159709670Y-104215528D01*
X159626497Y-104340005D01*
X159614768Y-104368321D01*
X158720080Y-103473633D01*
X158720079Y-103473633D01*
X158633496Y-103586471D01*
X158502409Y-103813517D01*
X158502404Y-103813528D01*
X158402075Y-104055744D01*
X158334222Y-104308979D01*
X158334220Y-104308990D01*
X158300000Y-104568905D01*
X153379772Y-104568905D01*
X153366015Y-104482049D01*
X153366015Y-104482048D01*
X153297896Y-104272396D01*
X153297895Y-104272393D01*
X153235531Y-104150000D01*
X153197815Y-104075978D01*
X153181260Y-104053192D01*
X153068247Y-103897641D01*
X153068243Y-103897636D01*
X152912363Y-103741756D01*
X152912358Y-103741752D01*
X152734025Y-103612187D01*
X152734024Y-103612186D01*
X152734022Y-103612185D01*
X152656610Y-103572741D01*
X152537606Y-103512104D01*
X152537603Y-103512103D01*
X152327952Y-103443985D01*
X152219086Y-103426742D01*
X152110222Y-103409500D01*
X151889778Y-103409500D01*
X151817201Y-103420995D01*
X151672047Y-103443985D01*
X151462396Y-103512103D01*
X151462393Y-103512104D01*
X151265974Y-103612187D01*
X151087641Y-103741752D01*
X151087636Y-103741756D01*
X150931756Y-103897636D01*
X150931752Y-103897641D01*
X150802187Y-104075974D01*
X150702104Y-104272393D01*
X150702103Y-104272396D01*
X150633985Y-104482047D01*
X150611320Y-104625147D01*
X150599500Y-104699778D01*
X150599500Y-104920222D01*
X150609436Y-104982954D01*
X150633985Y-105137952D01*
X150702103Y-105347603D01*
X150702104Y-105347606D01*
X150732561Y-105407379D01*
X150801202Y-105542093D01*
X150802187Y-105544025D01*
X150931752Y-105722358D01*
X150931756Y-105722363D01*
X151087638Y-105878245D01*
X151198384Y-105958705D01*
X151241051Y-106014035D01*
X151249500Y-106059024D01*
X151249500Y-106337770D01*
X151229815Y-106404809D01*
X151213181Y-106425451D01*
X149075451Y-108563181D01*
X149014128Y-108596666D01*
X148987770Y-108599500D01*
X148225418Y-108599500D01*
X148158379Y-108579815D01*
X148125100Y-108548385D01*
X148091971Y-108502787D01*
X148091967Y-108502782D01*
X147947213Y-108358028D01*
X147781613Y-108237715D01*
X147781612Y-108237714D01*
X147781610Y-108237713D01*
X147724653Y-108208691D01*
X147599223Y-108144781D01*
X147404534Y-108081522D01*
X147229995Y-108053878D01*
X147202352Y-108049500D01*
X146997648Y-108049500D01*
X146973329Y-108053351D01*
X146795465Y-108081522D01*
X146600776Y-108144781D01*
X146418386Y-108237715D01*
X146252786Y-108358028D01*
X146108028Y-108502786D01*
X145987715Y-108668386D01*
X145894781Y-108850776D01*
X145831522Y-109045465D01*
X145799500Y-109247648D01*
X139866685Y-109247648D01*
X139852741Y-109195606D01*
X139800080Y-109104394D01*
X139795686Y-109100000D01*
X140756609Y-109100000D01*
X140747990Y-109045586D01*
X140684755Y-108850970D01*
X140591859Y-108668650D01*
X140471582Y-108503105D01*
X140471582Y-108503104D01*
X140326895Y-108358417D01*
X140161349Y-108238140D01*
X139979029Y-108145244D01*
X139784413Y-108082009D01*
X139730000Y-108073390D01*
X139730000Y-109034314D01*
X139725606Y-109029920D01*
X139634394Y-108977259D01*
X139532661Y-108950000D01*
X139427339Y-108950000D01*
X139325606Y-108977259D01*
X139234394Y-109029920D01*
X139230000Y-109034314D01*
X139230000Y-108073390D01*
X139175586Y-108082009D01*
X138980970Y-108145244D01*
X138798650Y-108238140D01*
X138633105Y-108358417D01*
X138633104Y-108358417D01*
X138488417Y-108503104D01*
X138488417Y-108503105D01*
X138368140Y-108668650D01*
X138275244Y-108850970D01*
X138212009Y-109045586D01*
X138203391Y-109100000D01*
X136052372Y-109100000D01*
X135982780Y-108885815D01*
X135868442Y-108661416D01*
X135720409Y-108457668D01*
X135720409Y-108457667D01*
X135542332Y-108279590D01*
X135338583Y-108131557D01*
X135114184Y-108017219D01*
X134874670Y-107939397D01*
X134750000Y-107919650D01*
X134750000Y-109009252D01*
X134712292Y-108987482D01*
X134572409Y-108950000D01*
X134427591Y-108950000D01*
X134287708Y-108987482D01*
X134250000Y-109009252D01*
X134250000Y-107919650D01*
X134125330Y-107939397D01*
X134125327Y-107939397D01*
X133885815Y-108017219D01*
X133661416Y-108131557D01*
X133457668Y-108279590D01*
X133457667Y-108279590D01*
X133279590Y-108457667D01*
X133279590Y-108457668D01*
X133131557Y-108661416D01*
X133017219Y-108885815D01*
X132939397Y-109125328D01*
X132939397Y-109125331D01*
X132919652Y-109250000D01*
X129580348Y-109250000D01*
X129560602Y-109125331D01*
X129560602Y-109125328D01*
X129482780Y-108885815D01*
X129368442Y-108661416D01*
X129220409Y-108457668D01*
X129220409Y-108457667D01*
X129042332Y-108279590D01*
X128838583Y-108131557D01*
X128614184Y-108017219D01*
X128374670Y-107939397D01*
X128250000Y-107919650D01*
X128250000Y-109009252D01*
X128212292Y-108987482D01*
X128072409Y-108950000D01*
X127927591Y-108950000D01*
X127787708Y-108987482D01*
X127750000Y-109009252D01*
X127750000Y-107919650D01*
X127625330Y-107939397D01*
X127625327Y-107939397D01*
X127385815Y-108017219D01*
X127161416Y-108131557D01*
X126957668Y-108279590D01*
X126957667Y-108279590D01*
X126779590Y-108457667D01*
X126779590Y-108457668D01*
X126631557Y-108661416D01*
X126517219Y-108885815D01*
X126439397Y-109125328D01*
X126439397Y-109125331D01*
X126419652Y-109250000D01*
X123679346Y-109250000D01*
X123671503Y-109234607D01*
X123612287Y-109118390D01*
X123569785Y-109059890D01*
X123491971Y-108952786D01*
X123347213Y-108808028D01*
X123181613Y-108687715D01*
X123181612Y-108687714D01*
X123181610Y-108687713D01*
X123124653Y-108658691D01*
X122999223Y-108594781D01*
X122804534Y-108531522D01*
X122623105Y-108502787D01*
X122602352Y-108499500D01*
X122397648Y-108499500D01*
X122376933Y-108502781D01*
X122195465Y-108531522D01*
X122000776Y-108594781D01*
X121818386Y-108687715D01*
X121652786Y-108808028D01*
X121508028Y-108952786D01*
X121387715Y-109118386D01*
X121294781Y-109300776D01*
X121231522Y-109495465D01*
X121199500Y-109697648D01*
X116231493Y-109697648D01*
X116124057Y-109590212D01*
X116124050Y-109590206D01*
X115915661Y-109430304D01*
X115915660Y-109430303D01*
X115915657Y-109430301D01*
X115824960Y-109377937D01*
X115688180Y-109298966D01*
X115688164Y-109298958D01*
X115445492Y-109198441D01*
X115434912Y-109195606D01*
X115191767Y-109130456D01*
X115191761Y-109130455D01*
X115191756Y-109130454D01*
X114931348Y-109096171D01*
X114931343Y-109096170D01*
X114931338Y-109096170D01*
X114668662Y-109096170D01*
X114668656Y-109096170D01*
X114668651Y-109096171D01*
X114408243Y-109130454D01*
X114408236Y-109130455D01*
X114408233Y-109130456D01*
X114311184Y-109156460D01*
X114154507Y-109198441D01*
X113911835Y-109298958D01*
X113911819Y-109298966D01*
X113684338Y-109430304D01*
X113475949Y-109590206D01*
X113475942Y-109590212D01*
X113412181Y-109653974D01*
X113350858Y-109687459D01*
X113281166Y-109682475D01*
X113225233Y-109640603D01*
X113200816Y-109575139D01*
X113200500Y-109566293D01*
X113200500Y-103452155D01*
X114225000Y-103452155D01*
X114225000Y-104150000D01*
X115249722Y-104150000D01*
X115205667Y-104226306D01*
X115175000Y-104340756D01*
X115175000Y-104459244D01*
X115205667Y-104573694D01*
X115249722Y-104650000D01*
X114225000Y-104650000D01*
X114225000Y-105347844D01*
X114231401Y-105407372D01*
X114231403Y-105407379D01*
X114281645Y-105542086D01*
X114281649Y-105542093D01*
X114367809Y-105657187D01*
X114367812Y-105657190D01*
X114482906Y-105743350D01*
X114482913Y-105743354D01*
X114617620Y-105793596D01*
X114617627Y-105793598D01*
X114677155Y-105799999D01*
X114677172Y-105800000D01*
X115375000Y-105800000D01*
X115375000Y-104775277D01*
X115451306Y-104819333D01*
X115565756Y-104850000D01*
X115684244Y-104850000D01*
X115798694Y-104819333D01*
X115875000Y-104775277D01*
X115875000Y-105800000D01*
X116572828Y-105800000D01*
X116572844Y-105799999D01*
X116632372Y-105793598D01*
X116632379Y-105793596D01*
X116767086Y-105743354D01*
X116767093Y-105743350D01*
X116882187Y-105657190D01*
X116882190Y-105657187D01*
X116968350Y-105542093D01*
X116968354Y-105542086D01*
X116998213Y-105462031D01*
X117040084Y-105406097D01*
X117105548Y-105381680D01*
X117173821Y-105396531D01*
X117202076Y-105417683D01*
X117252636Y-105468243D01*
X117252641Y-105468247D01*
X117356938Y-105544022D01*
X117430978Y-105597815D01*
X117547501Y-105657187D01*
X117627393Y-105697895D01*
X117627396Y-105697896D01*
X117702700Y-105722363D01*
X117837049Y-105766015D01*
X118054778Y-105800500D01*
X118054779Y-105800500D01*
X118275221Y-105800500D01*
X118275222Y-105800500D01*
X118492951Y-105766015D01*
X118702606Y-105697895D01*
X118899022Y-105597815D01*
X119077365Y-105468242D01*
X119233242Y-105312365D01*
X119362815Y-105134022D01*
X119362817Y-105134016D01*
X119362821Y-105134012D01*
X119365360Y-105129869D01*
X119366800Y-105130751D01*
X119374657Y-105122428D01*
X119383448Y-105105820D01*
X119402546Y-105092878D01*
X119409715Y-105085284D01*
X119411425Y-105084304D01*
X119417914Y-105080650D01*
X119455495Y-105065084D01*
X119504729Y-105032186D01*
X119578416Y-104982952D01*
X121433410Y-103127956D01*
X121494733Y-103094472D01*
X121564425Y-103099456D01*
X121608772Y-103127957D01*
X121652786Y-103171971D01*
X121786734Y-103269288D01*
X121818390Y-103292287D01*
X121934607Y-103351503D01*
X122000776Y-103385218D01*
X122000778Y-103385218D01*
X122000781Y-103385220D01*
X122094900Y-103415801D01*
X122195465Y-103448477D01*
X122296557Y-103464488D01*
X122397648Y-103480500D01*
X122397649Y-103480500D01*
X122602351Y-103480500D01*
X122602352Y-103480500D01*
X122804534Y-103448477D01*
X122999219Y-103385220D01*
X123004917Y-103382317D01*
X123161660Y-103302452D01*
X123161858Y-103302351D01*
X123181610Y-103292287D01*
X123305626Y-103202185D01*
X123347213Y-103171971D01*
X123347215Y-103171968D01*
X123347219Y-103171966D01*
X123491966Y-103027219D01*
X123548068Y-102950000D01*
X138203391Y-102950000D01*
X139164314Y-102950000D01*
X139159920Y-102954394D01*
X139107259Y-103045606D01*
X139080000Y-103147339D01*
X139080000Y-103252661D01*
X139107259Y-103354394D01*
X139159920Y-103445606D01*
X139164314Y-103450000D01*
X138203391Y-103450000D01*
X138212009Y-103504413D01*
X138275244Y-103699029D01*
X138368140Y-103881349D01*
X138488417Y-104046894D01*
X138488417Y-104046895D01*
X138633104Y-104191582D01*
X138798650Y-104311859D01*
X138980968Y-104404754D01*
X139175578Y-104467988D01*
X139230000Y-104476607D01*
X139230000Y-103515686D01*
X139234394Y-103520080D01*
X139325606Y-103572741D01*
X139427339Y-103600000D01*
X139532661Y-103600000D01*
X139634394Y-103572741D01*
X139725606Y-103520080D01*
X139730000Y-103515686D01*
X139730000Y-104476606D01*
X139784421Y-104467988D01*
X139979031Y-104404754D01*
X140161349Y-104311859D01*
X140326894Y-104191582D01*
X140326895Y-104191582D01*
X140471582Y-104046895D01*
X140471582Y-104046894D01*
X140591859Y-103881349D01*
X140684755Y-103699029D01*
X140747990Y-103504413D01*
X140756609Y-103450000D01*
X139795686Y-103450000D01*
X139800080Y-103445606D01*
X139852741Y-103354394D01*
X139880000Y-103252661D01*
X139880000Y-103147339D01*
X139866685Y-103097648D01*
X145799500Y-103097648D01*
X145799500Y-103302351D01*
X145831522Y-103504534D01*
X145894781Y-103699223D01*
X145987715Y-103881613D01*
X146108028Y-104047213D01*
X146252786Y-104191971D01*
X146363484Y-104272396D01*
X146418390Y-104312287D01*
X146534607Y-104371503D01*
X146600776Y-104405218D01*
X146600778Y-104405218D01*
X146600781Y-104405220D01*
X146705137Y-104439127D01*
X146795465Y-104468477D01*
X146881155Y-104482049D01*
X146997648Y-104500500D01*
X146997649Y-104500500D01*
X147202351Y-104500500D01*
X147202352Y-104500500D01*
X147404534Y-104468477D01*
X147599219Y-104405220D01*
X147781610Y-104312287D01*
X147899954Y-104226306D01*
X147947213Y-104191971D01*
X147947215Y-104191968D01*
X147947219Y-104191966D01*
X148091966Y-104047219D01*
X148091968Y-104047215D01*
X148091971Y-104047213D01*
X148162599Y-103950000D01*
X148212287Y-103881610D01*
X148305220Y-103699219D01*
X148368477Y-103504534D01*
X148400500Y-103302352D01*
X148400500Y-103097648D01*
X148384955Y-102999500D01*
X148368477Y-102895465D01*
X148337458Y-102800000D01*
X148305220Y-102700781D01*
X148305218Y-102700778D01*
X148305218Y-102700776D01*
X148212419Y-102518650D01*
X148212287Y-102518390D01*
X148204556Y-102507749D01*
X148091971Y-102352786D01*
X147947217Y-102208032D01*
X147947212Y-102208028D01*
X147901615Y-102174900D01*
X147858949Y-102119571D01*
X147850500Y-102074582D01*
X147850500Y-100162229D01*
X147870185Y-100095190D01*
X147886819Y-100074548D01*
X150282948Y-97678419D01*
X150282951Y-97678416D01*
X150365084Y-97555495D01*
X150365089Y-97555480D01*
X150366134Y-97553529D01*
X150366960Y-97552686D01*
X150368469Y-97550430D01*
X150368896Y-97550715D01*
X150415090Y-97503679D01*
X150483225Y-97488209D01*
X150548908Y-97512032D01*
X150591284Y-97567584D01*
X150599500Y-97611968D01*
X150599500Y-98137870D01*
X150599501Y-98137876D01*
X150605908Y-98197483D01*
X150656202Y-98332328D01*
X150656206Y-98332335D01*
X150742452Y-98447544D01*
X150742455Y-98447547D01*
X150857664Y-98533793D01*
X150857671Y-98533797D01*
X150992517Y-98584091D01*
X150992516Y-98584091D01*
X150999444Y-98584835D01*
X151052127Y-98590500D01*
X152947872Y-98590499D01*
X153007483Y-98584091D01*
X153142331Y-98533796D01*
X153257546Y-98447546D01*
X153343796Y-98332331D01*
X153394091Y-98197483D01*
X153400500Y-98137873D01*
X153400499Y-96902228D01*
X153420184Y-96835190D01*
X153436813Y-96814553D01*
X155482951Y-94768416D01*
X155565084Y-94645495D01*
X155621658Y-94508913D01*
X155650500Y-94363918D01*
X155650500Y-94216083D01*
X155650500Y-89026082D01*
X155650500Y-89026079D01*
X155621659Y-88881092D01*
X155621658Y-88881091D01*
X155621658Y-88881087D01*
X155588071Y-88800000D01*
X155565086Y-88744509D01*
X155565085Y-88744507D01*
X155565084Y-88744505D01*
X155523284Y-88681947D01*
X157800000Y-88681947D01*
X157800000Y-88918052D01*
X157836934Y-89151247D01*
X157909897Y-89375802D01*
X158017087Y-89586174D01*
X158077338Y-89669104D01*
X158077340Y-89669105D01*
X158817037Y-88929408D01*
X158834075Y-88992993D01*
X158899901Y-89107007D01*
X158992993Y-89200099D01*
X159107007Y-89265925D01*
X159170590Y-89282962D01*
X158430893Y-90022658D01*
X158513828Y-90082914D01*
X158724197Y-90190102D01*
X158948752Y-90263065D01*
X158948751Y-90263065D01*
X159181948Y-90300000D01*
X159418052Y-90300000D01*
X159651247Y-90263065D01*
X159875802Y-90190102D01*
X160086163Y-90082918D01*
X160086169Y-90082914D01*
X160169104Y-90022658D01*
X160169105Y-90022658D01*
X159429408Y-89282962D01*
X159492993Y-89265925D01*
X159607007Y-89200099D01*
X159700099Y-89107007D01*
X159765925Y-88992993D01*
X159782962Y-88929409D01*
X160522658Y-89669105D01*
X160522658Y-89669104D01*
X160582914Y-89586169D01*
X160582918Y-89586163D01*
X160690102Y-89375802D01*
X160763065Y-89151247D01*
X160800000Y-88918052D01*
X160800000Y-88681947D01*
X160763065Y-88448752D01*
X160690102Y-88224197D01*
X160582914Y-88013828D01*
X160522658Y-87930894D01*
X160522658Y-87930893D01*
X159782962Y-88670590D01*
X159765925Y-88607007D01*
X159700099Y-88492993D01*
X159607007Y-88399901D01*
X159492993Y-88334075D01*
X159429409Y-88317037D01*
X160169105Y-87577340D01*
X160169104Y-87577338D01*
X160086174Y-87517087D01*
X159875802Y-87409897D01*
X159651247Y-87336934D01*
X159651248Y-87336934D01*
X159418052Y-87300000D01*
X159181948Y-87300000D01*
X158948752Y-87336934D01*
X158724197Y-87409897D01*
X158513830Y-87517084D01*
X158430894Y-87577340D01*
X159170591Y-88317037D01*
X159107007Y-88334075D01*
X158992993Y-88399901D01*
X158899901Y-88492993D01*
X158834075Y-88607007D01*
X158817037Y-88670591D01*
X158077340Y-87930894D01*
X158017084Y-88013830D01*
X157909897Y-88224197D01*
X157836934Y-88448752D01*
X157800000Y-88681947D01*
X155523284Y-88681947D01*
X155517917Y-88673914D01*
X155517917Y-88673913D01*
X155482950Y-88621581D01*
X153186819Y-86325450D01*
X153153334Y-86264127D01*
X153150500Y-86237769D01*
X153150500Y-84614499D01*
X153170185Y-84547460D01*
X153222989Y-84501705D01*
X153274500Y-84490499D01*
X153347871Y-84490499D01*
X153347872Y-84490499D01*
X153407483Y-84484091D01*
X153542331Y-84433796D01*
X153657546Y-84347546D01*
X153743796Y-84232331D01*
X153794091Y-84097483D01*
X153800500Y-84037873D01*
X153800499Y-82142128D01*
X153794091Y-82082517D01*
X153743796Y-81947669D01*
X153743795Y-81947668D01*
X153743793Y-81947664D01*
X153657547Y-81832455D01*
X153657544Y-81832452D01*
X153542335Y-81746206D01*
X153542328Y-81746202D01*
X153407482Y-81695908D01*
X153407483Y-81695908D01*
X153347883Y-81689501D01*
X153347881Y-81689500D01*
X153347873Y-81689500D01*
X153347865Y-81689500D01*
X152112230Y-81689500D01*
X152045191Y-81669815D01*
X152024549Y-81653181D01*
X151046819Y-80675451D01*
X151013334Y-80614128D01*
X151010500Y-80587770D01*
X151010500Y-79024499D01*
X151030185Y-78957460D01*
X151082989Y-78911705D01*
X151134500Y-78900499D01*
X151260371Y-78900499D01*
X151260372Y-78900499D01*
X151319983Y-78894091D01*
X151454831Y-78843796D01*
X151570046Y-78757546D01*
X151656296Y-78642331D01*
X151666872Y-78613974D01*
X151708740Y-78558041D01*
X151774204Y-78533622D01*
X151842477Y-78548472D01*
X151855940Y-78556988D01*
X152038723Y-78689788D01*
X152242429Y-78793582D01*
X152459871Y-78864234D01*
X152550000Y-78878509D01*
X152550000Y-77890747D01*
X152587708Y-77912518D01*
X152727591Y-77950000D01*
X152872409Y-77950000D01*
X153012292Y-77912518D01*
X153050000Y-77890747D01*
X153050000Y-78878508D01*
X153140128Y-78864234D01*
X153357570Y-78793582D01*
X153561276Y-78689788D01*
X153746242Y-78555402D01*
X153907905Y-78393739D01*
X153969371Y-78309137D01*
X154024701Y-78266470D01*
X154094314Y-78260491D01*
X154156109Y-78293096D01*
X154170007Y-78309134D01*
X154231714Y-78394066D01*
X154393434Y-78555786D01*
X154578462Y-78690217D01*
X154710599Y-78757544D01*
X154782244Y-78794049D01*
X154999751Y-78864721D01*
X154999752Y-78864721D01*
X154999755Y-78864722D01*
X155225646Y-78900500D01*
X155225647Y-78900500D01*
X155454353Y-78900500D01*
X155454354Y-78900500D01*
X155680245Y-78864722D01*
X155680248Y-78864721D01*
X155680249Y-78864721D01*
X155897755Y-78794049D01*
X155897755Y-78794048D01*
X155897758Y-78794048D01*
X156101538Y-78690217D01*
X156286566Y-78555786D01*
X156448286Y-78394066D01*
X156582717Y-78209038D01*
X156582717Y-78209037D01*
X156585581Y-78205096D01*
X156586591Y-78205830D01*
X156634123Y-78162832D01*
X156688033Y-78150500D01*
X160037770Y-78150500D01*
X160104809Y-78170185D01*
X160125451Y-78186819D01*
X162313181Y-80374548D01*
X162346666Y-80435871D01*
X162349500Y-80462229D01*
X162349500Y-87175500D01*
X162329815Y-87242539D01*
X162277011Y-87288294D01*
X162225501Y-87299500D01*
X162052130Y-87299500D01*
X162052123Y-87299501D01*
X161992516Y-87305908D01*
X161857671Y-87356202D01*
X161857664Y-87356206D01*
X161742455Y-87442452D01*
X161742452Y-87442455D01*
X161656206Y-87557664D01*
X161656202Y-87557671D01*
X161605908Y-87692517D01*
X161599501Y-87752116D01*
X161599501Y-87752123D01*
X161599500Y-87752135D01*
X161599500Y-89847870D01*
X161599501Y-89847876D01*
X161605908Y-89907483D01*
X161656202Y-90042328D01*
X161656206Y-90042335D01*
X161742452Y-90157544D01*
X161742455Y-90157547D01*
X161857664Y-90243793D01*
X161857671Y-90243797D01*
X161900495Y-90259769D01*
X161992517Y-90294091D01*
X162052127Y-90300500D01*
X162225500Y-90300499D01*
X162292539Y-90320183D01*
X162338294Y-90372987D01*
X162349500Y-90424499D01*
X162349500Y-95937769D01*
X162329815Y-96004808D01*
X162313181Y-96025450D01*
X160755449Y-97583181D01*
X160694126Y-97616666D01*
X160667768Y-97619500D01*
X158752129Y-97619500D01*
X158752123Y-97619501D01*
X158692516Y-97625908D01*
X158557671Y-97676202D01*
X158557664Y-97676206D01*
X158442455Y-97762452D01*
X158442452Y-97762455D01*
X158356206Y-97877664D01*
X158356202Y-97877671D01*
X158305908Y-98012517D01*
X158299501Y-98072116D01*
X158299500Y-98072135D01*
X158299500Y-101167870D01*
X158299501Y-101167876D01*
X158305908Y-101227483D01*
X158356202Y-101362328D01*
X158356206Y-101362335D01*
X158442452Y-101477544D01*
X158442455Y-101477547D01*
X158557664Y-101563793D01*
X158557671Y-101563797D01*
X158692517Y-101614091D01*
X158692516Y-101614091D01*
X158699444Y-101614835D01*
X158752127Y-101620500D01*
X161847872Y-101620499D01*
X161907483Y-101614091D01*
X162042331Y-101563796D01*
X162157546Y-101477546D01*
X162243796Y-101362331D01*
X162294091Y-101227483D01*
X162300500Y-101167873D01*
X162300499Y-98212229D01*
X162320184Y-98145191D01*
X162336818Y-98124549D01*
X162973158Y-97488209D01*
X163682952Y-96778416D01*
X163732186Y-96704729D01*
X163765084Y-96655495D01*
X163821658Y-96518913D01*
X163850500Y-96373918D01*
X163850500Y-90424499D01*
X163870185Y-90357460D01*
X163922989Y-90311705D01*
X163974500Y-90300499D01*
X164147871Y-90300499D01*
X164147872Y-90300499D01*
X164207483Y-90294091D01*
X164342331Y-90243796D01*
X164457546Y-90157546D01*
X164543796Y-90042331D01*
X164594091Y-89907483D01*
X164600500Y-89847873D01*
X164600499Y-87752128D01*
X164594091Y-87692517D01*
X164590993Y-87684212D01*
X164543797Y-87557671D01*
X164543793Y-87557664D01*
X164457547Y-87442455D01*
X164457544Y-87442452D01*
X164342335Y-87356206D01*
X164342328Y-87356202D01*
X164207482Y-87305908D01*
X164207483Y-87305908D01*
X164147883Y-87299501D01*
X164147881Y-87299500D01*
X164147873Y-87299500D01*
X164147865Y-87299500D01*
X163974500Y-87299500D01*
X163907461Y-87279815D01*
X163861706Y-87227011D01*
X163850500Y-87175500D01*
X163850500Y-80026081D01*
X163844763Y-79997242D01*
X163844763Y-79997240D01*
X163821660Y-79881095D01*
X163821659Y-79881088D01*
X163767408Y-79750117D01*
X163765764Y-79745522D01*
X163682954Y-79621588D01*
X163682953Y-79621587D01*
X163682951Y-79621584D01*
X163578416Y-79517049D01*
X162905160Y-78843793D01*
X160878421Y-76817052D01*
X160878414Y-76817046D01*
X160804729Y-76767812D01*
X160804729Y-76767813D01*
X160755491Y-76734913D01*
X160618917Y-76678343D01*
X160618907Y-76678340D01*
X160473920Y-76649500D01*
X160473918Y-76649500D01*
X156688033Y-76649500D01*
X156620994Y-76629815D01*
X156586305Y-76594377D01*
X156585581Y-76594904D01*
X156582717Y-76590962D01*
X156448286Y-76405934D01*
X156286566Y-76244214D01*
X156101538Y-76109783D01*
X155976408Y-76046026D01*
X155897755Y-76005950D01*
X155680248Y-75935278D01*
X155494812Y-75905908D01*
X155454354Y-75899500D01*
X155225646Y-75899500D01*
X155185188Y-75905908D01*
X154999753Y-75935278D01*
X154999750Y-75935278D01*
X154782244Y-76005950D01*
X154578461Y-76109783D01*
X154512550Y-76157671D01*
X154393434Y-76244214D01*
X154393432Y-76244216D01*
X154393431Y-76244216D01*
X154231716Y-76405931D01*
X154231709Y-76405940D01*
X154170007Y-76490864D01*
X154114677Y-76533530D01*
X154045063Y-76539508D01*
X153983269Y-76506901D01*
X153969372Y-76490863D01*
X153907907Y-76406263D01*
X153907902Y-76406257D01*
X153746242Y-76244597D01*
X153561276Y-76110211D01*
X153357568Y-76006417D01*
X153140124Y-75935765D01*
X153050000Y-75921490D01*
X153050000Y-76909252D01*
X153012292Y-76887482D01*
X152872409Y-76850000D01*
X152727591Y-76850000D01*
X152587708Y-76887482D01*
X152550000Y-76909252D01*
X152550000Y-75921490D01*
X152549999Y-75921490D01*
X152459875Y-75935765D01*
X152242431Y-76006417D01*
X152038719Y-76110213D01*
X151855939Y-76243010D01*
X151790132Y-76266490D01*
X151722079Y-76250664D01*
X151673384Y-76200558D01*
X151666875Y-76186033D01*
X151656296Y-76157669D01*
X151656295Y-76157667D01*
X151656293Y-76157664D01*
X151570047Y-76042455D01*
X151570044Y-76042452D01*
X151454835Y-75956206D01*
X151454828Y-75956202D01*
X151319982Y-75905908D01*
X151319983Y-75905908D01*
X151260383Y-75899501D01*
X151260381Y-75899500D01*
X151260373Y-75899500D01*
X151260364Y-75899500D01*
X149259629Y-75899500D01*
X149259623Y-75899501D01*
X149200016Y-75905908D01*
X149065171Y-75956202D01*
X149065164Y-75956206D01*
X148949955Y-76042452D01*
X148949952Y-76042455D01*
X148863706Y-76157664D01*
X148863702Y-76157671D01*
X148813408Y-76292517D01*
X148807001Y-76352116D01*
X148807000Y-76352135D01*
X148807000Y-78447870D01*
X148807001Y-78447876D01*
X148813408Y-78507483D01*
X148863702Y-78642328D01*
X148863706Y-78642335D01*
X148949952Y-78757544D01*
X148949955Y-78757547D01*
X149065164Y-78843793D01*
X149065171Y-78843797D01*
X149110118Y-78860561D01*
X149200017Y-78894091D01*
X149259627Y-78900500D01*
X149385500Y-78900499D01*
X149452539Y-78920183D01*
X149498294Y-78972987D01*
X149509500Y-79024499D01*
X149509500Y-81023918D01*
X149509500Y-81023920D01*
X149509499Y-81023920D01*
X149538340Y-81168907D01*
X149538343Y-81168917D01*
X149594913Y-81305490D01*
X149594915Y-81305493D01*
X149604274Y-81319501D01*
X149677049Y-81428418D01*
X149677052Y-81428421D01*
X150963181Y-82714549D01*
X150996666Y-82775872D01*
X150999500Y-82802230D01*
X150999500Y-84037870D01*
X150999501Y-84037876D01*
X151005908Y-84097483D01*
X151056202Y-84232328D01*
X151056206Y-84232335D01*
X151142452Y-84347544D01*
X151142455Y-84347547D01*
X151257664Y-84433793D01*
X151257671Y-84433797D01*
X151302618Y-84450561D01*
X151392517Y-84484091D01*
X151452127Y-84490500D01*
X151525500Y-84490499D01*
X151592538Y-84510183D01*
X151638294Y-84562986D01*
X151649500Y-84614499D01*
X151649500Y-86673918D01*
X151649500Y-86673920D01*
X151649499Y-86673920D01*
X151678340Y-86818907D01*
X151678343Y-86818917D01*
X151734913Y-86955490D01*
X151734914Y-86955492D01*
X151763678Y-86998540D01*
X151763679Y-86998542D01*
X151817043Y-87078410D01*
X151817047Y-87078415D01*
X154113181Y-89374549D01*
X154146666Y-89435872D01*
X154149500Y-89462230D01*
X154149500Y-93927769D01*
X154129815Y-93994808D01*
X154113181Y-94015450D01*
X152375449Y-95753181D01*
X152314126Y-95786666D01*
X152287768Y-95789500D01*
X151052129Y-95789500D01*
X151052123Y-95789501D01*
X150992516Y-95795908D01*
X150857671Y-95846202D01*
X150857664Y-95846206D01*
X150742455Y-95932452D01*
X150742452Y-95932455D01*
X150673766Y-96024208D01*
X150617832Y-96066079D01*
X150548141Y-96071063D01*
X150486818Y-96037577D01*
X150453334Y-95976254D01*
X150450500Y-95949897D01*
X150450500Y-93772229D01*
X150470185Y-93705190D01*
X150486819Y-93684548D01*
X151239787Y-92931580D01*
X152047492Y-92123874D01*
X152108813Y-92090391D01*
X152154565Y-92089084D01*
X152289778Y-92110500D01*
X152289780Y-92110500D01*
X152510221Y-92110500D01*
X152510222Y-92110500D01*
X152727951Y-92076015D01*
X152937606Y-92007895D01*
X153134022Y-91907815D01*
X153312365Y-91778242D01*
X153468242Y-91622365D01*
X153597815Y-91444022D01*
X153697895Y-91247606D01*
X153766015Y-91037951D01*
X153800500Y-90820222D01*
X153800500Y-90599778D01*
X153766015Y-90382049D01*
X153697895Y-90172394D01*
X153697895Y-90172393D01*
X153652302Y-90082914D01*
X153597815Y-89975978D01*
X153507834Y-89852129D01*
X153468247Y-89797641D01*
X153468243Y-89797636D01*
X153312363Y-89641756D01*
X153312358Y-89641752D01*
X153134025Y-89512187D01*
X153134024Y-89512186D01*
X153134022Y-89512185D01*
X153035981Y-89462230D01*
X152937606Y-89412104D01*
X152937603Y-89412103D01*
X152727952Y-89343985D01*
X152619086Y-89326742D01*
X152510222Y-89309500D01*
X152289778Y-89309500D01*
X152217201Y-89320995D01*
X152072047Y-89343985D01*
X151862396Y-89412103D01*
X151862393Y-89412104D01*
X151665974Y-89512187D01*
X151487641Y-89641752D01*
X151487636Y-89641756D01*
X151331756Y-89797636D01*
X151331752Y-89797641D01*
X151202187Y-89975974D01*
X151102104Y-90172393D01*
X151102103Y-90172396D01*
X151033985Y-90382047D01*
X150999500Y-90599778D01*
X150999500Y-90820227D01*
X151020914Y-90955429D01*
X151011959Y-91024722D01*
X150986122Y-91062508D01*
X149117050Y-92931580D01*
X149117044Y-92931588D01*
X149067812Y-93005268D01*
X149067813Y-93005269D01*
X149034921Y-93054496D01*
X149034914Y-93054508D01*
X148978342Y-93191086D01*
X148978340Y-93191092D01*
X148949500Y-93336079D01*
X148949500Y-96837769D01*
X148929815Y-96904808D01*
X148913181Y-96925450D01*
X146517050Y-99321580D01*
X146517044Y-99321588D01*
X146467812Y-99395268D01*
X146467813Y-99395269D01*
X146434921Y-99444496D01*
X146434914Y-99444508D01*
X146378342Y-99581086D01*
X146378340Y-99581092D01*
X146349500Y-99726079D01*
X146349500Y-102074582D01*
X146329815Y-102141621D01*
X146298385Y-102174900D01*
X146252787Y-102208028D01*
X146252782Y-102208032D01*
X146108028Y-102352786D01*
X145987715Y-102518386D01*
X145894781Y-102700776D01*
X145831522Y-102895465D01*
X145799500Y-103097648D01*
X139866685Y-103097648D01*
X139852741Y-103045606D01*
X139800080Y-102954394D01*
X139795686Y-102950000D01*
X140756609Y-102950000D01*
X140747990Y-102895586D01*
X140684755Y-102700970D01*
X140591859Y-102518650D01*
X140471582Y-102353105D01*
X140471582Y-102353104D01*
X140326895Y-102208417D01*
X140161349Y-102088140D01*
X139979029Y-101995244D01*
X139784413Y-101932009D01*
X139730000Y-101923390D01*
X139730000Y-102884314D01*
X139725606Y-102879920D01*
X139634394Y-102827259D01*
X139532661Y-102800000D01*
X139427339Y-102800000D01*
X139325606Y-102827259D01*
X139234394Y-102879920D01*
X139230000Y-102884314D01*
X139230000Y-101923390D01*
X139175586Y-101932009D01*
X138980970Y-101995244D01*
X138798650Y-102088140D01*
X138633105Y-102208417D01*
X138633104Y-102208417D01*
X138488417Y-102353104D01*
X138488417Y-102353105D01*
X138368140Y-102518650D01*
X138275244Y-102700970D01*
X138212009Y-102895586D01*
X138203391Y-102950000D01*
X123548068Y-102950000D01*
X123612287Y-102861610D01*
X123705220Y-102679219D01*
X123768477Y-102484534D01*
X123800500Y-102282352D01*
X123800500Y-102077648D01*
X123768477Y-101875466D01*
X123705220Y-101680781D01*
X123705218Y-101680778D01*
X123705218Y-101680776D01*
X123662556Y-101597049D01*
X123612287Y-101498390D01*
X123597142Y-101477544D01*
X123491971Y-101332786D01*
X123347213Y-101188028D01*
X123181613Y-101067715D01*
X123181612Y-101067714D01*
X123181610Y-101067713D01*
X123124653Y-101038691D01*
X122999223Y-100974781D01*
X122804534Y-100911522D01*
X122629456Y-100883793D01*
X122602352Y-100879500D01*
X122397648Y-100879500D01*
X122373329Y-100883351D01*
X122195465Y-100911522D01*
X122000776Y-100974781D01*
X121818386Y-101067715D01*
X121652786Y-101188028D01*
X121508032Y-101332782D01*
X121508028Y-101332787D01*
X121474900Y-101378385D01*
X121419571Y-101421051D01*
X121374582Y-101429500D01*
X121246080Y-101429500D01*
X121101092Y-101458340D01*
X121101082Y-101458343D01*
X120964511Y-101514912D01*
X120964499Y-101514919D01*
X120891351Y-101563796D01*
X120891350Y-101563797D01*
X120841581Y-101597050D01*
X120841580Y-101597051D01*
X119169342Y-103269288D01*
X119108019Y-103302773D01*
X119038327Y-103297789D01*
X119008776Y-103281925D01*
X118899025Y-103202187D01*
X118899024Y-103202186D01*
X118899022Y-103202185D01*
X118791382Y-103147339D01*
X118702606Y-103102104D01*
X118702603Y-103102103D01*
X118492952Y-103033985D01*
X118384086Y-103016742D01*
X118275222Y-102999500D01*
X118054778Y-102999500D01*
X117982201Y-103010995D01*
X117837047Y-103033985D01*
X117627396Y-103102103D01*
X117627393Y-103102104D01*
X117430974Y-103202187D01*
X117252641Y-103331752D01*
X117252636Y-103331756D01*
X117202075Y-103382317D01*
X117140752Y-103415801D01*
X117071060Y-103410816D01*
X117015127Y-103368945D01*
X116998213Y-103337968D01*
X116968354Y-103257913D01*
X116968350Y-103257906D01*
X116882190Y-103142812D01*
X116882187Y-103142809D01*
X116767093Y-103056649D01*
X116767086Y-103056645D01*
X116632379Y-103006403D01*
X116632372Y-103006401D01*
X116572844Y-103000000D01*
X115875000Y-103000000D01*
X115875000Y-104024722D01*
X115798694Y-103980667D01*
X115684244Y-103950000D01*
X115565756Y-103950000D01*
X115451306Y-103980667D01*
X115375000Y-104024722D01*
X115375000Y-103000000D01*
X114677155Y-103000000D01*
X114617627Y-103006401D01*
X114617620Y-103006403D01*
X114482913Y-103056645D01*
X114482906Y-103056649D01*
X114367812Y-103142809D01*
X114367809Y-103142812D01*
X114281649Y-103257906D01*
X114281645Y-103257913D01*
X114231403Y-103392620D01*
X114231401Y-103392627D01*
X114225000Y-103452155D01*
X113200500Y-103452155D01*
X113200500Y-92732135D01*
X115899500Y-92732135D01*
X115899500Y-95827870D01*
X115899501Y-95827876D01*
X115905908Y-95887483D01*
X115956202Y-96022328D01*
X115956206Y-96022335D01*
X116042452Y-96137544D01*
X116042455Y-96137547D01*
X116157664Y-96223793D01*
X116157671Y-96223797D01*
X116292517Y-96274091D01*
X116292516Y-96274091D01*
X116299444Y-96274835D01*
X116352127Y-96280500D01*
X119447872Y-96280499D01*
X119507483Y-96274091D01*
X119642331Y-96223796D01*
X119757546Y-96137546D01*
X119843796Y-96022331D01*
X119894091Y-95887483D01*
X119900500Y-95827873D01*
X119900499Y-94454038D01*
X126399500Y-94454038D01*
X126399500Y-94705961D01*
X126438910Y-94954785D01*
X126516760Y-95194383D01*
X126631132Y-95418848D01*
X126779201Y-95622649D01*
X126779205Y-95622654D01*
X126960789Y-95804238D01*
X126959714Y-95805312D01*
X126994225Y-95858180D01*
X126999500Y-95893962D01*
X126999500Y-97615500D01*
X126979815Y-97682539D01*
X126927011Y-97728294D01*
X126875505Y-97739500D01*
X126852132Y-97739500D01*
X126852123Y-97739501D01*
X126792516Y-97745908D01*
X126657671Y-97796202D01*
X126657664Y-97796206D01*
X126542455Y-97882452D01*
X126542452Y-97882455D01*
X126456206Y-97997664D01*
X126456202Y-97997671D01*
X126405908Y-98132517D01*
X126399501Y-98192116D01*
X126399501Y-98192123D01*
X126399500Y-98192135D01*
X126399500Y-100487870D01*
X126399501Y-100487876D01*
X126405908Y-100547483D01*
X126456202Y-100682328D01*
X126456206Y-100682335D01*
X126542452Y-100797544D01*
X126542455Y-100797547D01*
X126657664Y-100883793D01*
X126657671Y-100883797D01*
X126792517Y-100934091D01*
X126792516Y-100934091D01*
X126799444Y-100934835D01*
X126852127Y-100940500D01*
X129147872Y-100940499D01*
X129207483Y-100934091D01*
X129342331Y-100883796D01*
X129457546Y-100797546D01*
X129543796Y-100682331D01*
X129594091Y-100547483D01*
X129600500Y-100487873D01*
X129600499Y-98192128D01*
X129594091Y-98132517D01*
X129543796Y-97997669D01*
X129543795Y-97997668D01*
X129543793Y-97997664D01*
X129457547Y-97882455D01*
X129457544Y-97882452D01*
X129342335Y-97796206D01*
X129342328Y-97796202D01*
X129207482Y-97745908D01*
X129207483Y-97745908D01*
X129147883Y-97739501D01*
X129147881Y-97739500D01*
X129147873Y-97739500D01*
X129147865Y-97739500D01*
X129124500Y-97739500D01*
X129057461Y-97719815D01*
X129011706Y-97667011D01*
X129000500Y-97615500D01*
X129000500Y-95893962D01*
X129020185Y-95826923D01*
X129039623Y-95804650D01*
X129039211Y-95804238D01*
X129090268Y-95753181D01*
X129220793Y-95622656D01*
X129368870Y-95418845D01*
X129483241Y-95194379D01*
X129561090Y-94954785D01*
X129600500Y-94705962D01*
X129600500Y-94454038D01*
X129561090Y-94205215D01*
X129483241Y-93965621D01*
X129483239Y-93965618D01*
X129483239Y-93965616D01*
X129441747Y-93884184D01*
X129368870Y-93741155D01*
X129308529Y-93658102D01*
X129220798Y-93537350D01*
X129220794Y-93537345D01*
X129042654Y-93359205D01*
X129042649Y-93359201D01*
X128838848Y-93211132D01*
X128838847Y-93211131D01*
X128838845Y-93211130D01*
X128768747Y-93175413D01*
X128614383Y-93096760D01*
X128374785Y-93018910D01*
X128288666Y-93005270D01*
X128125962Y-92979500D01*
X127874038Y-92979500D01*
X127749626Y-92999205D01*
X127625214Y-93018910D01*
X127385616Y-93096760D01*
X127161151Y-93211132D01*
X126957350Y-93359201D01*
X126957345Y-93359205D01*
X126779205Y-93537345D01*
X126779201Y-93537350D01*
X126631132Y-93741151D01*
X126516760Y-93965616D01*
X126438910Y-94205214D01*
X126399500Y-94454038D01*
X119900499Y-94454038D01*
X119900499Y-93745782D01*
X119920184Y-93678744D01*
X119936818Y-93658102D01*
X121358102Y-92236819D01*
X121419425Y-92203334D01*
X121445783Y-92200500D01*
X123101459Y-92200500D01*
X130654218Y-92200500D01*
X130721257Y-92220185D01*
X130741899Y-92236819D01*
X132863427Y-94358347D01*
X132896912Y-94419670D01*
X132898921Y-94449166D01*
X132899500Y-94449166D01*
X132899500Y-94705961D01*
X132938910Y-94954785D01*
X133016760Y-95194383D01*
X133131132Y-95418848D01*
X133279201Y-95622649D01*
X133279205Y-95622654D01*
X133460789Y-95804238D01*
X133459714Y-95805312D01*
X133494225Y-95858180D01*
X133499500Y-95893962D01*
X133499500Y-97615500D01*
X133479815Y-97682539D01*
X133427011Y-97728294D01*
X133375505Y-97739500D01*
X133352132Y-97739500D01*
X133352123Y-97739501D01*
X133292516Y-97745908D01*
X133157671Y-97796202D01*
X133157664Y-97796206D01*
X133042455Y-97882452D01*
X133042452Y-97882455D01*
X132956206Y-97997664D01*
X132956202Y-97997671D01*
X132905908Y-98132517D01*
X132899501Y-98192116D01*
X132899501Y-98192123D01*
X132899500Y-98192135D01*
X132899500Y-100487870D01*
X132899501Y-100487876D01*
X132905908Y-100547483D01*
X132956202Y-100682328D01*
X132956206Y-100682335D01*
X133042452Y-100797544D01*
X133042455Y-100797547D01*
X133157664Y-100883793D01*
X133157671Y-100883797D01*
X133292517Y-100934091D01*
X133292516Y-100934091D01*
X133299444Y-100934835D01*
X133352127Y-100940500D01*
X135647872Y-100940499D01*
X135707483Y-100934091D01*
X135842331Y-100883796D01*
X135957546Y-100797546D01*
X136043796Y-100682331D01*
X136094091Y-100547483D01*
X136100500Y-100487873D01*
X136100499Y-98192128D01*
X136094091Y-98132517D01*
X136043796Y-97997669D01*
X136043795Y-97997668D01*
X136043793Y-97997664D01*
X135957547Y-97882455D01*
X135957544Y-97882452D01*
X135842335Y-97796206D01*
X135842328Y-97796202D01*
X135707482Y-97745908D01*
X135707483Y-97745908D01*
X135647883Y-97739501D01*
X135647881Y-97739500D01*
X135647873Y-97739500D01*
X135647865Y-97739500D01*
X135624500Y-97739500D01*
X135557461Y-97719815D01*
X135511706Y-97667011D01*
X135500500Y-97615500D01*
X135500500Y-95893962D01*
X135509170Y-95864432D01*
X135515757Y-95834373D01*
X135519264Y-95830059D01*
X135520185Y-95826923D01*
X135536950Y-95806150D01*
X135541428Y-95801684D01*
X135542656Y-95800793D01*
X135561502Y-95781947D01*
X142200000Y-95781947D01*
X142200000Y-96018052D01*
X142236934Y-96251247D01*
X142309897Y-96475802D01*
X142417087Y-96686174D01*
X142477338Y-96769104D01*
X142477340Y-96769105D01*
X143217037Y-96029408D01*
X143234075Y-96092993D01*
X143299901Y-96207007D01*
X143392993Y-96300099D01*
X143507007Y-96365925D01*
X143570590Y-96382962D01*
X142830893Y-97122658D01*
X142913828Y-97182914D01*
X143124197Y-97290102D01*
X143348752Y-97363065D01*
X143348751Y-97363065D01*
X143581948Y-97400000D01*
X143818052Y-97400000D01*
X144051247Y-97363065D01*
X144275802Y-97290102D01*
X144486163Y-97182918D01*
X144486169Y-97182914D01*
X144569104Y-97122658D01*
X144569105Y-97122658D01*
X143829408Y-96382962D01*
X143892993Y-96365925D01*
X144007007Y-96300099D01*
X144100099Y-96207007D01*
X144165925Y-96092993D01*
X144182962Y-96029408D01*
X144922658Y-96769105D01*
X144922658Y-96769104D01*
X144982914Y-96686169D01*
X144982918Y-96686163D01*
X145090102Y-96475802D01*
X145163065Y-96251247D01*
X145200000Y-96018052D01*
X145200000Y-95781947D01*
X145163065Y-95548752D01*
X145090102Y-95324197D01*
X144982914Y-95113828D01*
X144922658Y-95030894D01*
X144922658Y-95030893D01*
X144182962Y-95770590D01*
X144165925Y-95707007D01*
X144100099Y-95592993D01*
X144007007Y-95499901D01*
X143892993Y-95434075D01*
X143829409Y-95417037D01*
X144569105Y-94677340D01*
X144569104Y-94677338D01*
X144486174Y-94617087D01*
X144275802Y-94509897D01*
X144051247Y-94436934D01*
X144051248Y-94436934D01*
X143818052Y-94400000D01*
X143581948Y-94400000D01*
X143348752Y-94436934D01*
X143124197Y-94509897D01*
X142913830Y-94617084D01*
X142830894Y-94677340D01*
X143570591Y-95417037D01*
X143507007Y-95434075D01*
X143392993Y-95499901D01*
X143299901Y-95592993D01*
X143234075Y-95707007D01*
X143217037Y-95770591D01*
X142477340Y-95030894D01*
X142417084Y-95113830D01*
X142309897Y-95324197D01*
X142236934Y-95548752D01*
X142200000Y-95781947D01*
X135561502Y-95781947D01*
X135720793Y-95622656D01*
X135868870Y-95418845D01*
X135983241Y-95194379D01*
X136061090Y-94954785D01*
X136100500Y-94705962D01*
X136100500Y-94454038D01*
X136061090Y-94205215D01*
X135983241Y-93965621D01*
X135983239Y-93965618D01*
X135983239Y-93965616D01*
X135941747Y-93884184D01*
X135868870Y-93741155D01*
X135808529Y-93658102D01*
X135720798Y-93537350D01*
X135720794Y-93537345D01*
X135542654Y-93359205D01*
X135542649Y-93359201D01*
X135338848Y-93211132D01*
X135338847Y-93211131D01*
X135338845Y-93211130D01*
X135268747Y-93175413D01*
X135114383Y-93096760D01*
X134874785Y-93018910D01*
X134788666Y-93005270D01*
X134625962Y-92979500D01*
X134374038Y-92979500D01*
X134369166Y-92979500D01*
X134369166Y-92977988D01*
X134307346Y-92964982D01*
X134278347Y-92943427D01*
X131901479Y-90566559D01*
X131901459Y-90566537D01*
X131757785Y-90422863D01*
X131757781Y-90422860D01*
X131593920Y-90313371D01*
X131593907Y-90313364D01*
X131471453Y-90262643D01*
X131471451Y-90262642D01*
X131464514Y-90259769D01*
X131411836Y-90237949D01*
X131315188Y-90218724D01*
X131310590Y-90217809D01*
X131310585Y-90217808D01*
X131218544Y-90199500D01*
X131218541Y-90199500D01*
X124198541Y-90199500D01*
X120881459Y-90199500D01*
X120881455Y-90199500D01*
X120789414Y-90217808D01*
X120789406Y-90217810D01*
X120784812Y-90218724D01*
X120688164Y-90237949D01*
X120635486Y-90259769D01*
X120628550Y-90262641D01*
X120628546Y-90262643D01*
X120506092Y-90313364D01*
X120506079Y-90313371D01*
X120403299Y-90382048D01*
X120342216Y-90422861D01*
X120342213Y-90422864D01*
X118521897Y-92243181D01*
X118460574Y-92276666D01*
X118434216Y-92279500D01*
X116352129Y-92279500D01*
X116352123Y-92279501D01*
X116292516Y-92285908D01*
X116157671Y-92336202D01*
X116157664Y-92336206D01*
X116042455Y-92422452D01*
X116042452Y-92422455D01*
X115956206Y-92537664D01*
X115956202Y-92537671D01*
X115905908Y-92672517D01*
X115899501Y-92732116D01*
X115899500Y-92732135D01*
X113200500Y-92732135D01*
X113200500Y-89068872D01*
X115899500Y-89068872D01*
X115899500Y-89331127D01*
X115926123Y-89533339D01*
X115933730Y-89591116D01*
X115989067Y-89797636D01*
X116001602Y-89844418D01*
X116001605Y-89844428D01*
X116101953Y-90086690D01*
X116101958Y-90086700D01*
X116233075Y-90313803D01*
X116392718Y-90521851D01*
X116392726Y-90521860D01*
X116578140Y-90707274D01*
X116578148Y-90707281D01*
X116786196Y-90866924D01*
X117013299Y-90998041D01*
X117013309Y-90998046D01*
X117255571Y-91098394D01*
X117255581Y-91098398D01*
X117508884Y-91166270D01*
X117768880Y-91200500D01*
X117768887Y-91200500D01*
X118031113Y-91200500D01*
X118031120Y-91200500D01*
X118291116Y-91166270D01*
X118544419Y-91098398D01*
X118786697Y-90998043D01*
X119013803Y-90866924D01*
X119221851Y-90707282D01*
X119221855Y-90707277D01*
X119221860Y-90707274D01*
X119407274Y-90521860D01*
X119407277Y-90521855D01*
X119407282Y-90521851D01*
X119566924Y-90313803D01*
X119698043Y-90086697D01*
X119798398Y-89844419D01*
X119866270Y-89591116D01*
X119900500Y-89331120D01*
X119900500Y-89068880D01*
X119866270Y-88808884D01*
X119850937Y-88751661D01*
X119852600Y-88681811D01*
X119883029Y-88631889D01*
X120837778Y-87677141D01*
X120837782Y-87677139D01*
X120977139Y-87537782D01*
X121086632Y-87373914D01*
X121093969Y-87356202D01*
X121144697Y-87233732D01*
X121162051Y-87191835D01*
X121200500Y-86998541D01*
X121200500Y-83744500D01*
X121220185Y-83677461D01*
X121272989Y-83631706D01*
X121324500Y-83620500D01*
X122228542Y-83620500D01*
X122259566Y-83614328D01*
X122325188Y-83601275D01*
X122421836Y-83582051D01*
X122475165Y-83559961D01*
X122603914Y-83506632D01*
X122767782Y-83397139D01*
X122892786Y-83272135D01*
X126399500Y-83272135D01*
X126399500Y-85567870D01*
X126399501Y-85567876D01*
X126405908Y-85627483D01*
X126456202Y-85762328D01*
X126456206Y-85762335D01*
X126542452Y-85877544D01*
X126542455Y-85877547D01*
X126657664Y-85963793D01*
X126657671Y-85963797D01*
X126792517Y-86014091D01*
X126792516Y-86014091D01*
X126799444Y-86014835D01*
X126852127Y-86020500D01*
X129147872Y-86020499D01*
X129207483Y-86014091D01*
X129342331Y-85963796D01*
X129457546Y-85877546D01*
X129543796Y-85762331D01*
X129594091Y-85627483D01*
X129600500Y-85567873D01*
X129600500Y-85544500D01*
X129620185Y-85477461D01*
X129672989Y-85431706D01*
X129724500Y-85420500D01*
X132775501Y-85420500D01*
X132842540Y-85440185D01*
X132888295Y-85492989D01*
X132899501Y-85544500D01*
X132899501Y-85567876D01*
X132905908Y-85627483D01*
X132956202Y-85762328D01*
X132956206Y-85762335D01*
X133042452Y-85877544D01*
X133042455Y-85877547D01*
X133157664Y-85963793D01*
X133157671Y-85963797D01*
X133292517Y-86014091D01*
X133292516Y-86014091D01*
X133299444Y-86014835D01*
X133352127Y-86020500D01*
X135647872Y-86020499D01*
X135707483Y-86014091D01*
X135842331Y-85963796D01*
X135957546Y-85877546D01*
X136043796Y-85762331D01*
X136094091Y-85627483D01*
X136100500Y-85567873D01*
X136100500Y-85544500D01*
X136120185Y-85477461D01*
X136172989Y-85431706D01*
X136224500Y-85420500D01*
X139875500Y-85420500D01*
X139942539Y-85440185D01*
X139988294Y-85492989D01*
X139999500Y-85544500D01*
X139999500Y-88298541D01*
X139999500Y-88298543D01*
X139999499Y-88298543D01*
X140037947Y-88491829D01*
X140037950Y-88491839D01*
X140113364Y-88673907D01*
X140113371Y-88673920D01*
X140222859Y-88837780D01*
X140222860Y-88837781D01*
X140222861Y-88837782D01*
X140362218Y-88977139D01*
X140362219Y-88977139D01*
X140369286Y-88984206D01*
X140369285Y-88984206D01*
X140369289Y-88984209D01*
X142163181Y-90778102D01*
X142196666Y-90839425D01*
X142199500Y-90865783D01*
X142199500Y-91947870D01*
X142199501Y-91947876D01*
X142205908Y-92007483D01*
X142256202Y-92142328D01*
X142256206Y-92142335D01*
X142342452Y-92257544D01*
X142342455Y-92257547D01*
X142457664Y-92343793D01*
X142457671Y-92343797D01*
X142592517Y-92394091D01*
X142592516Y-92394091D01*
X142599444Y-92394835D01*
X142652127Y-92400500D01*
X144747872Y-92400499D01*
X144807483Y-92394091D01*
X144942331Y-92343796D01*
X145057546Y-92257546D01*
X145143796Y-92142331D01*
X145194091Y-92007483D01*
X145200500Y-91947873D01*
X145200499Y-89852128D01*
X145194091Y-89792517D01*
X145148061Y-89669105D01*
X145143797Y-89657671D01*
X145143793Y-89657664D01*
X145057547Y-89542455D01*
X145057544Y-89542452D01*
X144942335Y-89456206D01*
X144942328Y-89456202D01*
X144807482Y-89405908D01*
X144807483Y-89405908D01*
X144747883Y-89399501D01*
X144747881Y-89399500D01*
X144747873Y-89399500D01*
X144747865Y-89399500D01*
X143665783Y-89399500D01*
X143598744Y-89379815D01*
X143578102Y-89363181D01*
X142036819Y-87821898D01*
X142003334Y-87760575D01*
X142000500Y-87734217D01*
X142000500Y-84875761D01*
X142020185Y-84808722D01*
X142024165Y-84802899D01*
X142112287Y-84681610D01*
X142205220Y-84499219D01*
X142268477Y-84304534D01*
X142300500Y-84102352D01*
X142300500Y-83897682D01*
X144700000Y-83897682D01*
X144700000Y-84102317D01*
X144732009Y-84304417D01*
X144795244Y-84499031D01*
X144888141Y-84681350D01*
X144888147Y-84681359D01*
X144920523Y-84725921D01*
X144920524Y-84725922D01*
X145600000Y-84046446D01*
X145600000Y-84052661D01*
X145627259Y-84154394D01*
X145679920Y-84245606D01*
X145754394Y-84320080D01*
X145845606Y-84372741D01*
X145947339Y-84400000D01*
X145953553Y-84400000D01*
X145274076Y-85079474D01*
X145318650Y-85111859D01*
X145500968Y-85204755D01*
X145695582Y-85267990D01*
X145897683Y-85300000D01*
X146102317Y-85300000D01*
X146304417Y-85267990D01*
X146499031Y-85204755D01*
X146681349Y-85111859D01*
X146725921Y-85079474D01*
X146046447Y-84400000D01*
X146052661Y-84400000D01*
X146154394Y-84372741D01*
X146245606Y-84320080D01*
X146320080Y-84245606D01*
X146372741Y-84154394D01*
X146400000Y-84052661D01*
X146400000Y-84046448D01*
X147079474Y-84725922D01*
X147079474Y-84725921D01*
X147111859Y-84681349D01*
X147204755Y-84499031D01*
X147267990Y-84304417D01*
X147300000Y-84102317D01*
X147300000Y-83897682D01*
X147267990Y-83695582D01*
X147204755Y-83500968D01*
X147111859Y-83318650D01*
X147079474Y-83274077D01*
X147079474Y-83274076D01*
X146400000Y-83953551D01*
X146400000Y-83947339D01*
X146372741Y-83845606D01*
X146320080Y-83754394D01*
X146245606Y-83679920D01*
X146154394Y-83627259D01*
X146052661Y-83600000D01*
X146046446Y-83600000D01*
X146725922Y-82920524D01*
X146725921Y-82920523D01*
X146681359Y-82888147D01*
X146681350Y-82888141D01*
X146499031Y-82795244D01*
X146304417Y-82732009D01*
X146102317Y-82700000D01*
X145897683Y-82700000D01*
X145695582Y-82732009D01*
X145500968Y-82795244D01*
X145318644Y-82888143D01*
X145274077Y-82920523D01*
X145274077Y-82920524D01*
X145953554Y-83600000D01*
X145947339Y-83600000D01*
X145845606Y-83627259D01*
X145754394Y-83679920D01*
X145679920Y-83754394D01*
X145627259Y-83845606D01*
X145600000Y-83947339D01*
X145600000Y-83953553D01*
X144920524Y-83274077D01*
X144920523Y-83274077D01*
X144888143Y-83318644D01*
X144795244Y-83500968D01*
X144732009Y-83695582D01*
X144700000Y-83897682D01*
X142300500Y-83897682D01*
X142300500Y-83897648D01*
X142292257Y-83845606D01*
X142268477Y-83695465D01*
X142207121Y-83506632D01*
X142205220Y-83500781D01*
X142205218Y-83500778D01*
X142205218Y-83500776D01*
X142158095Y-83408294D01*
X142112287Y-83318390D01*
X142080092Y-83274077D01*
X141991971Y-83152786D01*
X141847213Y-83008028D01*
X141681613Y-82887715D01*
X141681612Y-82887714D01*
X141681610Y-82887713D01*
X141624653Y-82858691D01*
X141499223Y-82794781D01*
X141304534Y-82731522D01*
X141129995Y-82703878D01*
X141102352Y-82699500D01*
X140897648Y-82699500D01*
X140873329Y-82703351D01*
X140695465Y-82731522D01*
X140500776Y-82794781D01*
X140318386Y-82887715D01*
X140152786Y-83008028D01*
X140008028Y-83152786D01*
X139887713Y-83318388D01*
X139870691Y-83351796D01*
X139822716Y-83402591D01*
X139760207Y-83419500D01*
X136224499Y-83419500D01*
X136157460Y-83399815D01*
X136111705Y-83347011D01*
X136100499Y-83295500D01*
X136100499Y-83272129D01*
X136100498Y-83272123D01*
X136100497Y-83272116D01*
X136094091Y-83212517D01*
X136043796Y-83077669D01*
X136043795Y-83077668D01*
X136043793Y-83077664D01*
X135957547Y-82962455D01*
X135957544Y-82962452D01*
X135842335Y-82876206D01*
X135842328Y-82876202D01*
X135707482Y-82825908D01*
X135707483Y-82825908D01*
X135647883Y-82819501D01*
X135647881Y-82819500D01*
X135647873Y-82819500D01*
X135647864Y-82819500D01*
X133352129Y-82819500D01*
X133352123Y-82819501D01*
X133292516Y-82825908D01*
X133157671Y-82876202D01*
X133157664Y-82876206D01*
X133042455Y-82962452D01*
X133042452Y-82962455D01*
X132956206Y-83077664D01*
X132956202Y-83077671D01*
X132905908Y-83212517D01*
X132901042Y-83257782D01*
X132899501Y-83272123D01*
X132899500Y-83272135D01*
X132899500Y-83295500D01*
X132879815Y-83362539D01*
X132827011Y-83408294D01*
X132775500Y-83419500D01*
X129724499Y-83419500D01*
X129657460Y-83399815D01*
X129611705Y-83347011D01*
X129600499Y-83295500D01*
X129600499Y-83272129D01*
X129600498Y-83272123D01*
X129600497Y-83272116D01*
X129594091Y-83212517D01*
X129543796Y-83077669D01*
X129543795Y-83077668D01*
X129543793Y-83077664D01*
X129457547Y-82962455D01*
X129457544Y-82962452D01*
X129342335Y-82876206D01*
X129342328Y-82876202D01*
X129207482Y-82825908D01*
X129207483Y-82825908D01*
X129147883Y-82819501D01*
X129147881Y-82819500D01*
X129147873Y-82819500D01*
X129147864Y-82819500D01*
X126852129Y-82819500D01*
X126852123Y-82819501D01*
X126792516Y-82825908D01*
X126657671Y-82876202D01*
X126657664Y-82876206D01*
X126542455Y-82962452D01*
X126542452Y-82962455D01*
X126456206Y-83077664D01*
X126456202Y-83077671D01*
X126405908Y-83212517D01*
X126401042Y-83257782D01*
X126399501Y-83272123D01*
X126399500Y-83272135D01*
X122892786Y-83272135D01*
X122907139Y-83257782D01*
X122907140Y-83257779D01*
X122914206Y-83250714D01*
X122914209Y-83250710D01*
X127191438Y-78973480D01*
X127252759Y-78939997D01*
X127295298Y-78938224D01*
X127381998Y-78949638D01*
X127388527Y-78950498D01*
X127388543Y-78950500D01*
X127388550Y-78950500D01*
X127611450Y-78950500D01*
X127611457Y-78950500D01*
X127832463Y-78921404D01*
X128047781Y-78863710D01*
X128253726Y-78778405D01*
X128446774Y-78666948D01*
X128623624Y-78531247D01*
X128781247Y-78373624D01*
X128916948Y-78196774D01*
X129028405Y-78003726D01*
X129113710Y-77797781D01*
X129171404Y-77582463D01*
X129200500Y-77361457D01*
X129200500Y-77138543D01*
X140799500Y-77138543D01*
X140799500Y-77361457D01*
X140799500Y-77361463D01*
X140799501Y-77361466D01*
X140828594Y-77582452D01*
X140828595Y-77582457D01*
X140828596Y-77582463D01*
X140828597Y-77582465D01*
X140886290Y-77797780D01*
X140886293Y-77797790D01*
X140949341Y-77950000D01*
X140971595Y-78003726D01*
X141083052Y-78196774D01*
X141083057Y-78196780D01*
X141083058Y-78196782D01*
X141218751Y-78373622D01*
X141218757Y-78373629D01*
X141376370Y-78531242D01*
X141376377Y-78531248D01*
X141411295Y-78558041D01*
X141553226Y-78666948D01*
X141746274Y-78778405D01*
X141952219Y-78863710D01*
X142167537Y-78921404D01*
X142388543Y-78950500D01*
X142388550Y-78950500D01*
X142611450Y-78950500D01*
X142611457Y-78950500D01*
X142832463Y-78921404D01*
X143047781Y-78863710D01*
X143253726Y-78778405D01*
X143446774Y-78666948D01*
X143623624Y-78531247D01*
X143781247Y-78373624D01*
X143916948Y-78196774D01*
X144028405Y-78003726D01*
X144113710Y-77797781D01*
X144171404Y-77582463D01*
X144200500Y-77361457D01*
X144200500Y-77138543D01*
X144171404Y-76917537D01*
X144113710Y-76702219D01*
X144028405Y-76496274D01*
X143916948Y-76303226D01*
X143827016Y-76186024D01*
X143781248Y-76126377D01*
X143781242Y-76126370D01*
X143623629Y-75968757D01*
X143623622Y-75968751D01*
X143446782Y-75833058D01*
X143446780Y-75833057D01*
X143446774Y-75833052D01*
X143253726Y-75721595D01*
X143253722Y-75721593D01*
X143047790Y-75636293D01*
X143047783Y-75636291D01*
X143047781Y-75636290D01*
X142832463Y-75578596D01*
X142832457Y-75578595D01*
X142832452Y-75578594D01*
X142611466Y-75549501D01*
X142611463Y-75549500D01*
X142611457Y-75549500D01*
X142388543Y-75549500D01*
X142388537Y-75549500D01*
X142388533Y-75549501D01*
X142167547Y-75578594D01*
X142167540Y-75578595D01*
X142167537Y-75578596D01*
X141952219Y-75636290D01*
X141952209Y-75636293D01*
X141746277Y-75721593D01*
X141746273Y-75721595D01*
X141553226Y-75833052D01*
X141553217Y-75833058D01*
X141376377Y-75968751D01*
X141376370Y-75968757D01*
X141218757Y-76126370D01*
X141218751Y-76126377D01*
X141083058Y-76303217D01*
X141083052Y-76303226D01*
X140971595Y-76496273D01*
X140971593Y-76496277D01*
X140886293Y-76702209D01*
X140886290Y-76702219D01*
X140846693Y-76850000D01*
X140828597Y-76917534D01*
X140828594Y-76917547D01*
X140799501Y-77138533D01*
X140799500Y-77138543D01*
X129200500Y-77138543D01*
X129171404Y-76917537D01*
X129113710Y-76702219D01*
X129028405Y-76496274D01*
X128916948Y-76303226D01*
X128827016Y-76186024D01*
X128781248Y-76126377D01*
X128781242Y-76126370D01*
X128623629Y-75968757D01*
X128623622Y-75968751D01*
X128446782Y-75833058D01*
X128446780Y-75833057D01*
X128446774Y-75833052D01*
X128253726Y-75721595D01*
X128253722Y-75721593D01*
X128047790Y-75636293D01*
X128047783Y-75636291D01*
X128047781Y-75636290D01*
X127832463Y-75578596D01*
X127832457Y-75578595D01*
X127832452Y-75578594D01*
X127611466Y-75549501D01*
X127611463Y-75549500D01*
X127611457Y-75549500D01*
X127388543Y-75549500D01*
X127388537Y-75549500D01*
X127388533Y-75549501D01*
X127167547Y-75578594D01*
X127167540Y-75578595D01*
X127167537Y-75578596D01*
X126952219Y-75636290D01*
X126952209Y-75636293D01*
X126746277Y-75721593D01*
X126746273Y-75721595D01*
X126553226Y-75833052D01*
X126553217Y-75833058D01*
X126376377Y-75968751D01*
X126376370Y-75968757D01*
X126218757Y-76126370D01*
X126218751Y-76126377D01*
X126083058Y-76303217D01*
X126083052Y-76303226D01*
X125971595Y-76496273D01*
X125971593Y-76496277D01*
X125886293Y-76702209D01*
X125886290Y-76702219D01*
X125846693Y-76850000D01*
X125828597Y-76917534D01*
X125828594Y-76917547D01*
X125799501Y-77138533D01*
X125799500Y-77138549D01*
X125799500Y-77361459D01*
X125811774Y-77454697D01*
X125801008Y-77523732D01*
X125776516Y-77558562D01*
X121751899Y-81583181D01*
X121690576Y-81616666D01*
X121664218Y-81619500D01*
X121075762Y-81619500D01*
X121008723Y-81599815D01*
X121002877Y-81595818D01*
X120881613Y-81507715D01*
X120881612Y-81507714D01*
X120881610Y-81507713D01*
X120824653Y-81478691D01*
X120699223Y-81414781D01*
X120504534Y-81351522D01*
X120329995Y-81323878D01*
X120302352Y-81319500D01*
X120097648Y-81319500D01*
X120073329Y-81323351D01*
X119895465Y-81351522D01*
X119700776Y-81414781D01*
X119518386Y-81507715D01*
X119352786Y-81628028D01*
X119208028Y-81772786D01*
X119087715Y-81938386D01*
X118994781Y-82120776D01*
X118931522Y-82315465D01*
X118899500Y-82517648D01*
X118899500Y-82722352D01*
X118900953Y-82731523D01*
X118931522Y-82924534D01*
X118994781Y-83119223D01*
X119072695Y-83272135D01*
X119087713Y-83301610D01*
X119175819Y-83422877D01*
X119199298Y-83488681D01*
X119199500Y-83495761D01*
X119199500Y-86434217D01*
X119179815Y-86501256D01*
X119163181Y-86521898D01*
X118468110Y-87216968D01*
X118406787Y-87250453D01*
X118348337Y-87249062D01*
X118323992Y-87242539D01*
X118291116Y-87233730D01*
X118247662Y-87228009D01*
X118031127Y-87199500D01*
X118031120Y-87199500D01*
X117768880Y-87199500D01*
X117768872Y-87199500D01*
X117537772Y-87229926D01*
X117508884Y-87233730D01*
X117263426Y-87299500D01*
X117255581Y-87301602D01*
X117255571Y-87301605D01*
X117013309Y-87401953D01*
X117013299Y-87401958D01*
X116786196Y-87533075D01*
X116578148Y-87692718D01*
X116392718Y-87878148D01*
X116233075Y-88086196D01*
X116101958Y-88313299D01*
X116101953Y-88313309D01*
X116001605Y-88555571D01*
X116001602Y-88555581D01*
X115936111Y-88800000D01*
X115933730Y-88808885D01*
X115899500Y-89068872D01*
X113200500Y-89068872D01*
X113200500Y-76133707D01*
X113220185Y-76066668D01*
X113272989Y-76020913D01*
X113342147Y-76010969D01*
X113405703Y-76039994D01*
X113412181Y-76046026D01*
X113475942Y-76109787D01*
X113475949Y-76109793D01*
X113594237Y-76200558D01*
X113684343Y-76269699D01*
X113827093Y-76352116D01*
X113911819Y-76401033D01*
X113911835Y-76401041D01*
X114042756Y-76455270D01*
X114154508Y-76501559D01*
X114408233Y-76569544D01*
X114668662Y-76603830D01*
X114668669Y-76603830D01*
X114931331Y-76603830D01*
X114931338Y-76603830D01*
X115191767Y-76569544D01*
X115445492Y-76501559D01*
X115636261Y-76422539D01*
X115688164Y-76401041D01*
X115688167Y-76401039D01*
X115688173Y-76401037D01*
X115915657Y-76269699D01*
X116124052Y-76109792D01*
X116309792Y-75924052D01*
X116469699Y-75715657D01*
X116601037Y-75488173D01*
X116606412Y-75475198D01*
X116647833Y-75375198D01*
X116701559Y-75245492D01*
X116769544Y-74991767D01*
X116781935Y-74897648D01*
X118899500Y-74897648D01*
X118899500Y-75102351D01*
X118931522Y-75304534D01*
X118994781Y-75499223D01*
X119087715Y-75681613D01*
X119208028Y-75847213D01*
X119352786Y-75991971D01*
X119455600Y-76066668D01*
X119518390Y-76112287D01*
X119607457Y-76157669D01*
X119700776Y-76205218D01*
X119700778Y-76205218D01*
X119700781Y-76205220D01*
X119805137Y-76239127D01*
X119895465Y-76268477D01*
X119996557Y-76284488D01*
X120097648Y-76300500D01*
X120097649Y-76300500D01*
X120302351Y-76300500D01*
X120302352Y-76300500D01*
X120504534Y-76268477D01*
X120699219Y-76205220D01*
X120881610Y-76112287D01*
X120981114Y-76039994D01*
X121047213Y-75991971D01*
X121047215Y-75991968D01*
X121047219Y-75991966D01*
X121191966Y-75847219D01*
X121191968Y-75847215D01*
X121191971Y-75847213D01*
X121244732Y-75774590D01*
X121312287Y-75681610D01*
X121405220Y-75499219D01*
X121468477Y-75304534D01*
X121500500Y-75102352D01*
X121500500Y-74897648D01*
X121468477Y-74695466D01*
X121405220Y-74500781D01*
X121405218Y-74500778D01*
X121405218Y-74500776D01*
X121358401Y-74408894D01*
X121312287Y-74318390D01*
X121304556Y-74307749D01*
X121191971Y-74152786D01*
X121047213Y-74008028D01*
X120881613Y-73887715D01*
X120881612Y-73887714D01*
X120881610Y-73887713D01*
X120824653Y-73858691D01*
X120699223Y-73794781D01*
X120504534Y-73731522D01*
X120329995Y-73703878D01*
X120302352Y-73699500D01*
X120097648Y-73699500D01*
X120073329Y-73703351D01*
X119895465Y-73731522D01*
X119700776Y-73794781D01*
X119518386Y-73887715D01*
X119352786Y-74008028D01*
X119208028Y-74152786D01*
X119087715Y-74318386D01*
X118994781Y-74500776D01*
X118931522Y-74695465D01*
X118899500Y-74897648D01*
X116781935Y-74897648D01*
X116803830Y-74731338D01*
X116803830Y-74468662D01*
X116769544Y-74208233D01*
X116701559Y-73954508D01*
X116642462Y-73811835D01*
X116601041Y-73711835D01*
X116601033Y-73711819D01*
X116527431Y-73584338D01*
X116469699Y-73484343D01*
X116309792Y-73275948D01*
X116309787Y-73275942D01*
X116246026Y-73212181D01*
X116212541Y-73150858D01*
X116217525Y-73081166D01*
X116259397Y-73025233D01*
X116324861Y-73000816D01*
X116333707Y-73000500D01*
X164466293Y-73000500D01*
X164533332Y-73020185D01*
G37*
%TD.AperFunction*%
M02*
