G04 #@! TF.GenerationSoftware,KiCad,Pcbnew,9.0.1*
G04 #@! TF.CreationDate,2025-09-10T18:35:38+05:00*
G04 #@! TF.ProjectId,sine_wave_inverter,73696e65-5f77-4617-9665-5f696e766572,rev?*
G04 #@! TF.SameCoordinates,Original*
G04 #@! TF.FileFunction,Copper,L1,Top*
G04 #@! TF.FilePolarity,Positive*
%FSLAX46Y46*%
G04 Gerber Fmt 4.6, Leading zero omitted, Abs format (unit mm)*
G04 Created by KiCad (PCBNEW 9.0.1) date 2025-09-10 18:35:38*
%MOMM*%
%LPD*%
G01*
G04 APERTURE LIST*
G04 Aperture macros list*
%AMRoundRect*
0 Rectangle with rounded corners*
0 $1 Rounding radius*
0 $2 $3 $4 $5 $6 $7 $8 $9 X,Y pos of 4 corners*
0 Add a 4 corners polygon primitive as box body*
4,1,4,$2,$3,$4,$5,$6,$7,$8,$9,$2,$3,0*
0 Add four circle primitives for the rounded corners*
1,1,$1+$1,$2,$3*
1,1,$1+$1,$4,$5*
1,1,$1+$1,$6,$7*
1,1,$1+$1,$8,$9*
0 Add four rect primitives between the rounded corners*
20,1,$1+$1,$2,$3,$4,$5,0*
20,1,$1+$1,$4,$5,$6,$7,0*
20,1,$1+$1,$6,$7,$8,$9,0*
20,1,$1+$1,$8,$9,$2,$3,0*%
G04 Aperture macros list end*
G04 #@! TA.AperFunction,ComponentPad*
%ADD10C,2.200000*%
G04 #@! TD*
G04 #@! TA.AperFunction,ComponentPad*
%ADD11C,1.700000*%
G04 #@! TD*
G04 #@! TA.AperFunction,ComponentPad*
%ADD12R,1.700000X1.700000*%
G04 #@! TD*
G04 #@! TA.AperFunction,ComponentPad*
%ADD13C,1.600000*%
G04 #@! TD*
G04 #@! TA.AperFunction,ComponentPad*
%ADD14O,1.600000X1.600000*%
G04 #@! TD*
G04 #@! TA.AperFunction,ComponentPad*
%ADD15R,3.000000X3.000000*%
G04 #@! TD*
G04 #@! TA.AperFunction,ComponentPad*
%ADD16C,3.000000*%
G04 #@! TD*
G04 #@! TA.AperFunction,ComponentPad*
%ADD17R,1.905000X2.000000*%
G04 #@! TD*
G04 #@! TA.AperFunction,ComponentPad*
%ADD18O,1.905000X2.000000*%
G04 #@! TD*
G04 #@! TA.AperFunction,ComponentPad*
%ADD19R,2.000000X1.905000*%
G04 #@! TD*
G04 #@! TA.AperFunction,ComponentPad*
%ADD20O,2.000000X1.905000*%
G04 #@! TD*
G04 #@! TA.AperFunction,ComponentPad*
%ADD21C,1.950000*%
G04 #@! TD*
G04 #@! TA.AperFunction,ComponentPad*
%ADD22R,1.575000X1.575000*%
G04 #@! TD*
G04 #@! TA.AperFunction,ComponentPad*
%ADD23C,1.575000*%
G04 #@! TD*
G04 #@! TA.AperFunction,ComponentPad*
%ADD24C,1.650000*%
G04 #@! TD*
G04 #@! TA.AperFunction,ComponentPad*
%ADD25R,1.650000X1.650000*%
G04 #@! TD*
G04 #@! TA.AperFunction,ComponentPad*
%ADD26R,1.600000X1.600000*%
G04 #@! TD*
G04 #@! TA.AperFunction,ComponentPad*
%ADD27R,2.400000X2.400000*%
G04 #@! TD*
G04 #@! TA.AperFunction,ComponentPad*
%ADD28C,2.400000*%
G04 #@! TD*
G04 #@! TA.AperFunction,SMDPad,CuDef*
%ADD29RoundRect,0.250000X0.350000X-0.850000X0.350000X0.850000X-0.350000X0.850000X-0.350000X-0.850000X0*%
G04 #@! TD*
G04 #@! TA.AperFunction,SMDPad,CuDef*
%ADD30RoundRect,0.249997X2.650003X-2.950003X2.650003X2.950003X-2.650003X2.950003X-2.650003X-2.950003X0*%
G04 #@! TD*
G04 #@! TA.AperFunction,ComponentPad*
%ADD31C,1.440000*%
G04 #@! TD*
G04 #@! TA.AperFunction,ComponentPad*
%ADD32R,1.050000X1.500000*%
G04 #@! TD*
G04 #@! TA.AperFunction,ComponentPad*
%ADD33O,1.050000X1.500000*%
G04 #@! TD*
G04 #@! TA.AperFunction,ComponentPad*
%ADD34C,1.050000*%
G04 #@! TD*
G04 #@! TA.AperFunction,Conductor*
%ADD35C,1.000000*%
G04 #@! TD*
G04 #@! TA.AperFunction,Conductor*
%ADD36C,0.500000*%
G04 #@! TD*
G04 APERTURE END LIST*
D10*
X133130000Y-104800000D03*
X133130000Y-89800000D03*
D11*
X126400000Y-88420000D03*
X123860000Y-88420000D03*
X121320000Y-88420000D03*
X118780000Y-88420000D03*
X116240000Y-88420000D03*
X113700000Y-88420000D03*
X111160000Y-88420000D03*
X108620000Y-88420000D03*
X106080000Y-88420000D03*
X103540000Y-88420000D03*
X101000000Y-88420000D03*
X98460000Y-88420000D03*
X95920000Y-88420000D03*
X93380000Y-88420000D03*
X90840000Y-88420000D03*
X88300000Y-88420000D03*
D12*
X85760000Y-88420000D03*
D13*
X102110000Y-100170000D03*
X107110000Y-100170000D03*
X99824444Y-81970000D03*
D14*
X99824444Y-74350000D03*
D15*
X141870000Y-88990000D03*
D16*
X141870000Y-94070000D03*
D13*
X112310000Y-74350000D03*
D14*
X112310000Y-81970000D03*
D17*
X112704000Y-70310000D03*
D18*
X115244000Y-70310000D03*
X117784000Y-70310000D03*
D17*
X81512000Y-70440000D03*
D18*
X84052000Y-70440000D03*
X86592000Y-70440000D03*
D17*
X97108000Y-70310000D03*
D18*
X99648000Y-70310000D03*
X102188000Y-70310000D03*
D13*
X124505000Y-93910000D03*
D14*
X116885000Y-93910000D03*
D13*
X93544444Y-81970000D03*
D14*
X93544444Y-74350000D03*
D19*
X66056041Y-95990000D03*
D20*
X66056041Y-98530000D03*
X66056041Y-101070000D03*
D21*
X56730000Y-88260000D03*
X61810000Y-88260000D03*
D22*
X73637500Y-70575000D03*
D23*
X71137500Y-70575000D03*
D13*
X106080000Y-81970000D03*
D14*
X106080000Y-74350000D03*
D13*
X107210000Y-112090000D03*
D14*
X99590000Y-112090000D03*
D13*
X66140000Y-74430000D03*
D14*
X66140000Y-82050000D03*
D24*
X111380000Y-114960000D03*
D25*
X124380000Y-114960000D03*
D15*
X141900000Y-77040000D03*
D16*
X141900000Y-82120000D03*
D24*
X111380000Y-109626667D03*
D25*
X124380000Y-109626667D03*
D22*
X67480000Y-112100000D03*
D23*
X64980000Y-112100000D03*
D26*
X90914888Y-102690000D03*
D13*
X93414888Y-102690000D03*
X107520000Y-104200000D03*
D14*
X99900000Y-104200000D03*
D21*
X56650000Y-71180000D03*
X61730000Y-71180000D03*
D13*
X118840000Y-74350000D03*
D14*
X118840000Y-81970000D03*
D26*
X58606041Y-103025113D03*
D13*
X58606041Y-100525113D03*
D27*
X76286041Y-98950000D03*
D28*
X81286041Y-98950000D03*
D24*
X124480000Y-104233333D03*
D25*
X111480000Y-104233333D03*
D29*
X71732500Y-88290000D03*
D30*
X74012500Y-81990000D03*
D29*
X76292500Y-88290000D03*
D26*
X58606041Y-94344888D03*
D13*
X58606041Y-96844888D03*
X80950000Y-80530000D03*
X80950000Y-85530000D03*
D24*
X124480000Y-98900000D03*
D25*
X111480000Y-98900000D03*
D31*
X93250000Y-112030000D03*
X90710000Y-112030000D03*
X88170000Y-112030000D03*
D13*
X87264444Y-81970000D03*
D14*
X87264444Y-74350000D03*
D13*
X124430000Y-74350000D03*
D14*
X124430000Y-81970000D03*
D13*
X131450000Y-74350000D03*
D14*
X131450000Y-81970000D03*
D32*
X76460000Y-112690000D03*
D33*
X77730000Y-112690000D03*
X79000000Y-112690000D03*
D17*
X128300000Y-70310000D03*
D18*
X130840000Y-70310000D03*
X133380000Y-70310000D03*
D34*
X107120000Y-91820000D03*
X107120000Y-96820000D03*
D35*
X61810000Y-88260000D02*
X56730000Y-88260000D01*
D36*
X120230000Y-91360000D02*
X121410000Y-90180000D01*
X115710000Y-91360000D02*
X120230000Y-91360000D01*
X112440000Y-94630000D02*
X115710000Y-91360000D01*
X94630000Y-94630000D02*
X112440000Y-94630000D01*
X121410000Y-90180000D02*
X121410000Y-88510000D01*
X121410000Y-88510000D02*
X121320000Y-88420000D01*
X90914888Y-98345112D02*
X94630000Y-94630000D01*
X90914888Y-102690000D02*
X90914888Y-98345112D01*
X104500000Y-90000000D02*
X106080000Y-88420000D01*
X104500000Y-91710000D02*
X104500000Y-90000000D01*
X85270000Y-91710000D02*
X104500000Y-91710000D01*
X83130000Y-89570000D02*
X85270000Y-91710000D01*
X83130000Y-86040000D02*
X83130000Y-89570000D01*
X89670000Y-85170000D02*
X84000000Y-85170000D01*
X84000000Y-85170000D02*
X83130000Y-86040000D01*
X91020000Y-79370000D02*
X91020000Y-83820000D01*
X93390000Y-77000000D02*
X91020000Y-79370000D01*
X91020000Y-83820000D02*
X89670000Y-85170000D01*
X93390000Y-74504444D02*
X93390000Y-77000000D01*
X93544444Y-74350000D02*
X93390000Y-74504444D01*
D35*
X61840000Y-88290000D02*
X61810000Y-88260000D01*
X71732500Y-88290000D02*
X61840000Y-88290000D01*
X73952500Y-82050000D02*
X74012500Y-81990000D01*
X66140000Y-82050000D02*
X73952500Y-82050000D01*
D36*
X113700000Y-86860000D02*
X113700000Y-88420000D01*
X115340000Y-85220000D02*
X113700000Y-86860000D01*
X121390000Y-74150000D02*
X121390000Y-84020000D01*
X121390000Y-84020000D02*
X120190000Y-85220000D01*
X116160000Y-72720000D02*
X119960000Y-72720000D01*
X119960000Y-72720000D02*
X121390000Y-74150000D01*
X120190000Y-85220000D02*
X115340000Y-85220000D01*
X115244000Y-71804000D02*
X116160000Y-72720000D01*
X115244000Y-70310000D02*
X115244000Y-71804000D01*
X118840000Y-75690000D02*
X118840000Y-74350000D01*
X118340000Y-76190000D02*
X118840000Y-75690000D01*
X117090000Y-76190000D02*
X118340000Y-76190000D01*
X114290000Y-78990000D02*
X117090000Y-76190000D01*
X95920000Y-80580000D02*
X97510000Y-78990000D01*
X97510000Y-78990000D02*
X114290000Y-78990000D01*
X95920000Y-88420000D02*
X95920000Y-80580000D01*
X98440000Y-86360000D02*
X98460000Y-86380000D01*
X98440000Y-85280000D02*
X98440000Y-86360000D01*
X98460000Y-86380000D02*
X98460000Y-88420000D01*
X97010000Y-83850000D02*
X98440000Y-85280000D01*
X97010000Y-81030000D02*
X97010000Y-83850000D01*
X97850000Y-80190000D02*
X97010000Y-81030000D01*
X110530000Y-80190000D02*
X97850000Y-80190000D01*
X112310000Y-81970000D02*
X110530000Y-80190000D01*
D35*
X133130000Y-92340000D02*
X133130000Y-89800000D01*
X130160000Y-95310000D02*
X133130000Y-92340000D01*
X130160000Y-102340000D02*
X130160000Y-95310000D01*
X128266667Y-104233333D02*
X130160000Y-102340000D01*
X124480000Y-104233333D02*
X128266667Y-104233333D01*
X78770000Y-93530000D02*
X76286041Y-96013959D01*
X78770000Y-82710000D02*
X78770000Y-93530000D01*
X76286041Y-96013959D02*
X76286041Y-98950000D01*
X80950000Y-80530000D02*
X78770000Y-82710000D01*
X80950000Y-77020000D02*
X80950000Y-80530000D01*
X83880000Y-74090000D02*
X80950000Y-77020000D01*
X83880000Y-70612000D02*
X83880000Y-74090000D01*
X84052000Y-70440000D02*
X83880000Y-70612000D01*
G04 #@! TA.AperFunction,Conductor*
G36*
X134946141Y-64600185D02*
G01*
X134991896Y-64652989D01*
X135003102Y-64704274D01*
X135012385Y-69802949D01*
X134992822Y-69870024D01*
X134940102Y-69915875D01*
X134870961Y-69925945D01*
X134807353Y-69897036D01*
X134770454Y-69841493D01*
X134726082Y-69704931D01*
X134622288Y-69501223D01*
X134487902Y-69316257D01*
X134326242Y-69154597D01*
X134141276Y-69020211D01*
X133937568Y-68916417D01*
X133720124Y-68845765D01*
X133630000Y-68831490D01*
X133630000Y-69819252D01*
X133592292Y-69797482D01*
X133452409Y-69760000D01*
X133307591Y-69760000D01*
X133167708Y-69797482D01*
X133130000Y-69819252D01*
X133130000Y-68831490D01*
X133129999Y-68831490D01*
X133039875Y-68845765D01*
X132822431Y-68916417D01*
X132618723Y-69020211D01*
X132433757Y-69154597D01*
X132272097Y-69316257D01*
X132210627Y-69400864D01*
X132155297Y-69443529D01*
X132085684Y-69449508D01*
X132023889Y-69416902D01*
X132009991Y-69400864D01*
X131948286Y-69315934D01*
X131786566Y-69154214D01*
X131601538Y-69019783D01*
X131397755Y-68915950D01*
X131180248Y-68845278D01*
X130994812Y-68815908D01*
X130954354Y-68809500D01*
X130725646Y-68809500D01*
X130685188Y-68815908D01*
X130499753Y-68845278D01*
X130499750Y-68845278D01*
X130282244Y-68915950D01*
X130078461Y-69019783D01*
X129895759Y-69152525D01*
X129829952Y-69176005D01*
X129761898Y-69160180D01*
X129713203Y-69110074D01*
X129706690Y-69095538D01*
X129701809Y-69082452D01*
X129696296Y-69067669D01*
X129696293Y-69067664D01*
X129610047Y-68952455D01*
X129610044Y-68952452D01*
X129494835Y-68866206D01*
X129494828Y-68866202D01*
X129359982Y-68815908D01*
X129359983Y-68815908D01*
X129300383Y-68809501D01*
X129300381Y-68809500D01*
X129300373Y-68809500D01*
X129300364Y-68809500D01*
X127299629Y-68809500D01*
X127299623Y-68809501D01*
X127240016Y-68815908D01*
X127105171Y-68866202D01*
X127105164Y-68866206D01*
X126989955Y-68952452D01*
X126989952Y-68952455D01*
X126903706Y-69067664D01*
X126903702Y-69067671D01*
X126853408Y-69202517D01*
X126847001Y-69262116D01*
X126847000Y-69262135D01*
X126847000Y-71357870D01*
X126847001Y-71357876D01*
X126853408Y-71417483D01*
X126903702Y-71552328D01*
X126903706Y-71552335D01*
X126989952Y-71667544D01*
X126989955Y-71667547D01*
X127105164Y-71753793D01*
X127105171Y-71753797D01*
X127240017Y-71804091D01*
X127240016Y-71804091D01*
X127246944Y-71804835D01*
X127299627Y-71810500D01*
X129300372Y-71810499D01*
X129359983Y-71804091D01*
X129494831Y-71753796D01*
X129610046Y-71667546D01*
X129696296Y-71552331D01*
X129706690Y-71524460D01*
X129748560Y-71468527D01*
X129814023Y-71444108D01*
X129882297Y-71458958D01*
X129895746Y-71467465D01*
X130078462Y-71600217D01*
X130230545Y-71677707D01*
X130282244Y-71704049D01*
X130499751Y-71774721D01*
X130499752Y-71774721D01*
X130499755Y-71774722D01*
X130725646Y-71810500D01*
X130725647Y-71810500D01*
X130954353Y-71810500D01*
X130954354Y-71810500D01*
X131180245Y-71774722D01*
X131180248Y-71774721D01*
X131180249Y-71774721D01*
X131397755Y-71704049D01*
X131397755Y-71704048D01*
X131397758Y-71704048D01*
X131601538Y-71600217D01*
X131786566Y-71465786D01*
X131948286Y-71304066D01*
X132009992Y-71219134D01*
X132065319Y-71176470D01*
X132134932Y-71170491D01*
X132196727Y-71203096D01*
X132210626Y-71219135D01*
X132272097Y-71303741D01*
X132272097Y-71303742D01*
X132433757Y-71465402D01*
X132618723Y-71599788D01*
X132822429Y-71703582D01*
X133039871Y-71774234D01*
X133130000Y-71788509D01*
X133130000Y-70800747D01*
X133167708Y-70822518D01*
X133307591Y-70860000D01*
X133452409Y-70860000D01*
X133592292Y-70822518D01*
X133630000Y-70800747D01*
X133630000Y-71788508D01*
X133720128Y-71774234D01*
X133937570Y-71703582D01*
X134141276Y-71599788D01*
X134326242Y-71465402D01*
X134487902Y-71303742D01*
X134622288Y-71118776D01*
X134726083Y-70915066D01*
X134772289Y-70772859D01*
X134811726Y-70715183D01*
X134876084Y-70687984D01*
X134944931Y-70699898D01*
X134996407Y-70747142D01*
X135014220Y-70810950D01*
X135034055Y-81704893D01*
X135039693Y-84801585D01*
X135039774Y-84845774D01*
X135020211Y-84912849D01*
X134967491Y-84958700D01*
X134915774Y-84970000D01*
X129060000Y-84970000D01*
X129060000Y-91876000D01*
X129040315Y-91943039D01*
X128987511Y-91988794D01*
X128936000Y-92000000D01*
X120950730Y-92000000D01*
X120883691Y-91980315D01*
X120837936Y-91927511D01*
X120827992Y-91858353D01*
X120857017Y-91794797D01*
X120863049Y-91788319D01*
X121317131Y-91334237D01*
X121992952Y-90658416D01*
X122043374Y-90582952D01*
X122075084Y-90535495D01*
X122131658Y-90398913D01*
X122149172Y-90310867D01*
X122160500Y-90253920D01*
X122160500Y-89540758D01*
X122180185Y-89473719D01*
X122196819Y-89453077D01*
X122272524Y-89377372D01*
X122350104Y-89299792D01*
X122350106Y-89299788D01*
X122350109Y-89299786D01*
X122475048Y-89127820D01*
X122475047Y-89127820D01*
X122475051Y-89127816D01*
X122479514Y-89119054D01*
X122527488Y-89068259D01*
X122595308Y-89051463D01*
X122661444Y-89073999D01*
X122700486Y-89119056D01*
X122704951Y-89127820D01*
X122829890Y-89299786D01*
X122980213Y-89450109D01*
X123152179Y-89575048D01*
X123152181Y-89575049D01*
X123152184Y-89575051D01*
X123341588Y-89671557D01*
X123543757Y-89737246D01*
X123753713Y-89770500D01*
X123753714Y-89770500D01*
X123966286Y-89770500D01*
X123966287Y-89770500D01*
X124176243Y-89737246D01*
X124378412Y-89671557D01*
X124567816Y-89575051D01*
X124654471Y-89512093D01*
X124739786Y-89450109D01*
X124739788Y-89450106D01*
X124739792Y-89450104D01*
X124890104Y-89299792D01*
X124890106Y-89299788D01*
X124890109Y-89299786D01*
X125015048Y-89127820D01*
X125015047Y-89127820D01*
X125015051Y-89127816D01*
X125019514Y-89119054D01*
X125067488Y-89068259D01*
X125135308Y-89051463D01*
X125201444Y-89073999D01*
X125240486Y-89119056D01*
X125244951Y-89127820D01*
X125369890Y-89299786D01*
X125520213Y-89450109D01*
X125692179Y-89575048D01*
X125692181Y-89575049D01*
X125692184Y-89575051D01*
X125881588Y-89671557D01*
X126083757Y-89737246D01*
X126293713Y-89770500D01*
X126293714Y-89770500D01*
X126506286Y-89770500D01*
X126506287Y-89770500D01*
X126716243Y-89737246D01*
X126918412Y-89671557D01*
X127107816Y-89575051D01*
X127194471Y-89512093D01*
X127279786Y-89450109D01*
X127279788Y-89450106D01*
X127279792Y-89450104D01*
X127430104Y-89299792D01*
X127430106Y-89299788D01*
X127430109Y-89299786D01*
X127555048Y-89127820D01*
X127555047Y-89127820D01*
X127555051Y-89127816D01*
X127651557Y-88938412D01*
X127717246Y-88736243D01*
X127750500Y-88526287D01*
X127750500Y-88313713D01*
X127717246Y-88103757D01*
X127651557Y-87901588D01*
X127555051Y-87712184D01*
X127555049Y-87712181D01*
X127555048Y-87712179D01*
X127430109Y-87540213D01*
X127279786Y-87389890D01*
X127107820Y-87264951D01*
X126918414Y-87168444D01*
X126918413Y-87168443D01*
X126918412Y-87168443D01*
X126716243Y-87102754D01*
X126716241Y-87102753D01*
X126716240Y-87102753D01*
X126554957Y-87077208D01*
X126506287Y-87069500D01*
X126293713Y-87069500D01*
X126245042Y-87077208D01*
X126083760Y-87102753D01*
X125881585Y-87168444D01*
X125692179Y-87264951D01*
X125520213Y-87389890D01*
X125369890Y-87540213D01*
X125244949Y-87712182D01*
X125240484Y-87720946D01*
X125192509Y-87771742D01*
X125124688Y-87788536D01*
X125058553Y-87765998D01*
X125019516Y-87720946D01*
X125015050Y-87712182D01*
X124890109Y-87540213D01*
X124739786Y-87389890D01*
X124567820Y-87264951D01*
X124378414Y-87168444D01*
X124378413Y-87168443D01*
X124378412Y-87168443D01*
X124176243Y-87102754D01*
X124176241Y-87102753D01*
X124176240Y-87102753D01*
X124014957Y-87077208D01*
X123966287Y-87069500D01*
X123753713Y-87069500D01*
X123705042Y-87077208D01*
X123543760Y-87102753D01*
X123341585Y-87168444D01*
X123152179Y-87264951D01*
X122980213Y-87389890D01*
X122829890Y-87540213D01*
X122704949Y-87712182D01*
X122700484Y-87720946D01*
X122652509Y-87771742D01*
X122584688Y-87788536D01*
X122518553Y-87765998D01*
X122479516Y-87720946D01*
X122475050Y-87712182D01*
X122350109Y-87540213D01*
X122199786Y-87389890D01*
X122027820Y-87264951D01*
X121838414Y-87168444D01*
X121838413Y-87168443D01*
X121838412Y-87168443D01*
X121636243Y-87102754D01*
X121636241Y-87102753D01*
X121636240Y-87102753D01*
X121474957Y-87077208D01*
X121426287Y-87069500D01*
X121213713Y-87069500D01*
X121165042Y-87077208D01*
X121003760Y-87102753D01*
X120801585Y-87168444D01*
X120612179Y-87264951D01*
X120440213Y-87389890D01*
X120289890Y-87540213D01*
X120164949Y-87712182D01*
X120160484Y-87720946D01*
X120112509Y-87771742D01*
X120044688Y-87788536D01*
X119978553Y-87765998D01*
X119939516Y-87720946D01*
X119935050Y-87712182D01*
X119810109Y-87540213D01*
X119659786Y-87389890D01*
X119487820Y-87264951D01*
X119298414Y-87168444D01*
X119298413Y-87168443D01*
X119298412Y-87168443D01*
X119096243Y-87102754D01*
X119096241Y-87102753D01*
X119096240Y-87102753D01*
X118934957Y-87077208D01*
X118886287Y-87069500D01*
X118673713Y-87069500D01*
X118625042Y-87077208D01*
X118463760Y-87102753D01*
X118261585Y-87168444D01*
X118072179Y-87264951D01*
X117900213Y-87389890D01*
X117749890Y-87540213D01*
X117624949Y-87712182D01*
X117620202Y-87721499D01*
X117572227Y-87772293D01*
X117504405Y-87789087D01*
X117438271Y-87766548D01*
X117399234Y-87721495D01*
X117394626Y-87712452D01*
X117355270Y-87658282D01*
X117355269Y-87658282D01*
X116722962Y-88290590D01*
X116705925Y-88227007D01*
X116640099Y-88112993D01*
X116547007Y-88019901D01*
X116432993Y-87954075D01*
X116369409Y-87937037D01*
X117001716Y-87304728D01*
X116947550Y-87265375D01*
X116758217Y-87168904D01*
X116556129Y-87103242D01*
X116346246Y-87070000D01*
X116133754Y-87070000D01*
X115923872Y-87103242D01*
X115923869Y-87103242D01*
X115721782Y-87168904D01*
X115532439Y-87265380D01*
X115478282Y-87304727D01*
X115478282Y-87304728D01*
X116110591Y-87937037D01*
X116047007Y-87954075D01*
X115932993Y-88019901D01*
X115839901Y-88112993D01*
X115774075Y-88227007D01*
X115757037Y-88290591D01*
X115124728Y-87658282D01*
X115124727Y-87658282D01*
X115085380Y-87712440D01*
X115085376Y-87712446D01*
X115080760Y-87721505D01*
X115032781Y-87772297D01*
X114964959Y-87789087D01*
X114898826Y-87766543D01*
X114859794Y-87721493D01*
X114855051Y-87712184D01*
X114855049Y-87712181D01*
X114855048Y-87712179D01*
X114730109Y-87540213D01*
X114633498Y-87443602D01*
X114579792Y-87389896D01*
X114498226Y-87330635D01*
X114495017Y-87327955D01*
X114477826Y-87302248D01*
X114458949Y-87277767D01*
X114457969Y-87272553D01*
X114456179Y-87269875D01*
X114456040Y-87262280D01*
X114450500Y-87232779D01*
X114450500Y-87222229D01*
X114455029Y-87206802D01*
X114454906Y-87200017D01*
X114458942Y-87193477D01*
X114470185Y-87155190D01*
X114486819Y-87134548D01*
X115614548Y-86006819D01*
X115675871Y-85973334D01*
X115702229Y-85970500D01*
X120263920Y-85970500D01*
X120361462Y-85951096D01*
X120408913Y-85941658D01*
X120545495Y-85885084D01*
X120594729Y-85852186D01*
X120668416Y-85802952D01*
X121972951Y-84498416D01*
X122055084Y-84375495D01*
X122111658Y-84238913D01*
X122140500Y-84093918D01*
X122140500Y-83946083D01*
X122140500Y-81867648D01*
X123129500Y-81867648D01*
X123129500Y-82072351D01*
X123161522Y-82274534D01*
X123224781Y-82469223D01*
X123265542Y-82549219D01*
X123297253Y-82611456D01*
X123317715Y-82651613D01*
X123438028Y-82817213D01*
X123582786Y-82961971D01*
X123731733Y-83070185D01*
X123748390Y-83082287D01*
X123831081Y-83124420D01*
X123930776Y-83175218D01*
X123930778Y-83175218D01*
X123930781Y-83175220D01*
X124035137Y-83209127D01*
X124125465Y-83238477D01*
X124226557Y-83254488D01*
X124327648Y-83270500D01*
X124327649Y-83270500D01*
X124532351Y-83270500D01*
X124532352Y-83270500D01*
X124734534Y-83238477D01*
X124929219Y-83175220D01*
X125111610Y-83082287D01*
X125204590Y-83014732D01*
X125277213Y-82961971D01*
X125277215Y-82961968D01*
X125277219Y-82961966D01*
X125421966Y-82817219D01*
X125421968Y-82817215D01*
X125421971Y-82817213D01*
X125484164Y-82731610D01*
X125542287Y-82651610D01*
X125635220Y-82469219D01*
X125698477Y-82274534D01*
X125730500Y-82072352D01*
X125730500Y-81867648D01*
X130149500Y-81867648D01*
X130149500Y-82072351D01*
X130181522Y-82274534D01*
X130244781Y-82469223D01*
X130285542Y-82549219D01*
X130317253Y-82611456D01*
X130337715Y-82651613D01*
X130458028Y-82817213D01*
X130602786Y-82961971D01*
X130751733Y-83070185D01*
X130768390Y-83082287D01*
X130851081Y-83124420D01*
X130950776Y-83175218D01*
X130950778Y-83175218D01*
X130950781Y-83175220D01*
X131055137Y-83209127D01*
X131145465Y-83238477D01*
X131246557Y-83254488D01*
X131347648Y-83270500D01*
X131347649Y-83270500D01*
X131552351Y-83270500D01*
X131552352Y-83270500D01*
X131754534Y-83238477D01*
X131949219Y-83175220D01*
X132131610Y-83082287D01*
X132224590Y-83014732D01*
X132297213Y-82961971D01*
X132297215Y-82961968D01*
X132297219Y-82961966D01*
X132441966Y-82817219D01*
X132441968Y-82817215D01*
X132441971Y-82817213D01*
X132504164Y-82731610D01*
X132562287Y-82651610D01*
X132655220Y-82469219D01*
X132718477Y-82274534D01*
X132750500Y-82072352D01*
X132750500Y-81867648D01*
X132743258Y-81821925D01*
X132718477Y-81665465D01*
X132689127Y-81575137D01*
X132655220Y-81470781D01*
X132655218Y-81470778D01*
X132655218Y-81470776D01*
X132615196Y-81392229D01*
X132562287Y-81288390D01*
X132500093Y-81202786D01*
X132441971Y-81122786D01*
X132297213Y-80978028D01*
X132131613Y-80857715D01*
X132131612Y-80857714D01*
X132131610Y-80857713D01*
X132074653Y-80828691D01*
X131949223Y-80764781D01*
X131754534Y-80701522D01*
X131579995Y-80673878D01*
X131552352Y-80669500D01*
X131347648Y-80669500D01*
X131323329Y-80673351D01*
X131145465Y-80701522D01*
X130950776Y-80764781D01*
X130768386Y-80857715D01*
X130602786Y-80978028D01*
X130458028Y-81122786D01*
X130337715Y-81288386D01*
X130244781Y-81470776D01*
X130181522Y-81665465D01*
X130149500Y-81867648D01*
X125730500Y-81867648D01*
X125723258Y-81821925D01*
X125698477Y-81665465D01*
X125669127Y-81575137D01*
X125635220Y-81470781D01*
X125635218Y-81470778D01*
X125635218Y-81470776D01*
X125595196Y-81392229D01*
X125542287Y-81288390D01*
X125480093Y-81202786D01*
X125421971Y-81122786D01*
X125277213Y-80978028D01*
X125111613Y-80857715D01*
X125111612Y-80857714D01*
X125111610Y-80857713D01*
X125054653Y-80828691D01*
X124929223Y-80764781D01*
X124734534Y-80701522D01*
X124559995Y-80673878D01*
X124532352Y-80669500D01*
X124327648Y-80669500D01*
X124303329Y-80673351D01*
X124125465Y-80701522D01*
X123930776Y-80764781D01*
X123748386Y-80857715D01*
X123582786Y-80978028D01*
X123438028Y-81122786D01*
X123317715Y-81288386D01*
X123224781Y-81470776D01*
X123161522Y-81665465D01*
X123129500Y-81867648D01*
X122140500Y-81867648D01*
X122140500Y-74247648D01*
X123129500Y-74247648D01*
X123129500Y-74452351D01*
X123161522Y-74654534D01*
X123224781Y-74849223D01*
X123265542Y-74929219D01*
X123317585Y-75031359D01*
X123317715Y-75031613D01*
X123438028Y-75197213D01*
X123582786Y-75341971D01*
X123692892Y-75421966D01*
X123748390Y-75462287D01*
X123864607Y-75521503D01*
X123930776Y-75555218D01*
X123930778Y-75555218D01*
X123930781Y-75555220D01*
X124012789Y-75581866D01*
X124125465Y-75618477D01*
X124226557Y-75634488D01*
X124327648Y-75650500D01*
X124327649Y-75650500D01*
X124532351Y-75650500D01*
X124532352Y-75650500D01*
X124734534Y-75618477D01*
X124929219Y-75555220D01*
X125111610Y-75462287D01*
X125231619Y-75375096D01*
X125277213Y-75341971D01*
X125277215Y-75341968D01*
X125277219Y-75341966D01*
X125421966Y-75197219D01*
X125421968Y-75197215D01*
X125421971Y-75197213D01*
X125484164Y-75111610D01*
X125542287Y-75031610D01*
X125635220Y-74849219D01*
X125698477Y-74654534D01*
X125730500Y-74452352D01*
X125730500Y-74247682D01*
X130150000Y-74247682D01*
X130150000Y-74452317D01*
X130182009Y-74654417D01*
X130245244Y-74849031D01*
X130338141Y-75031350D01*
X130338147Y-75031359D01*
X130370523Y-75075921D01*
X130370524Y-75075922D01*
X131050000Y-74396446D01*
X131050000Y-74402661D01*
X131077259Y-74504394D01*
X131129920Y-74595606D01*
X131204394Y-74670080D01*
X131295606Y-74722741D01*
X131397339Y-74750000D01*
X131403553Y-74750000D01*
X130724076Y-75429474D01*
X130768650Y-75461859D01*
X130950968Y-75554755D01*
X131145582Y-75617990D01*
X131347683Y-75650000D01*
X131552317Y-75650000D01*
X131754417Y-75617990D01*
X131949031Y-75554755D01*
X132131349Y-75461859D01*
X132175921Y-75429474D01*
X131496447Y-74750000D01*
X131502661Y-74750000D01*
X131604394Y-74722741D01*
X131695606Y-74670080D01*
X131770080Y-74595606D01*
X131822741Y-74504394D01*
X131850000Y-74402661D01*
X131850000Y-74396448D01*
X132529474Y-75075922D01*
X132529474Y-75075921D01*
X132561859Y-75031349D01*
X132654755Y-74849031D01*
X132717990Y-74654417D01*
X132750000Y-74452317D01*
X132750000Y-74247682D01*
X132717990Y-74045582D01*
X132654755Y-73850968D01*
X132561859Y-73668650D01*
X132529474Y-73624077D01*
X132529474Y-73624076D01*
X131850000Y-74303551D01*
X131850000Y-74297339D01*
X131822741Y-74195606D01*
X131770080Y-74104394D01*
X131695606Y-74029920D01*
X131604394Y-73977259D01*
X131502661Y-73950000D01*
X131496446Y-73950000D01*
X132175922Y-73270524D01*
X132175921Y-73270523D01*
X132131359Y-73238147D01*
X132131350Y-73238141D01*
X131949031Y-73145244D01*
X131754417Y-73082009D01*
X131552317Y-73050000D01*
X131347683Y-73050000D01*
X131145582Y-73082009D01*
X130950968Y-73145244D01*
X130768644Y-73238143D01*
X130724077Y-73270523D01*
X130724077Y-73270524D01*
X131403554Y-73950000D01*
X131397339Y-73950000D01*
X131295606Y-73977259D01*
X131204394Y-74029920D01*
X131129920Y-74104394D01*
X131077259Y-74195606D01*
X131050000Y-74297339D01*
X131050000Y-74303553D01*
X130370524Y-73624077D01*
X130370523Y-73624077D01*
X130338143Y-73668644D01*
X130245244Y-73850968D01*
X130182009Y-74045582D01*
X130150000Y-74247682D01*
X125730500Y-74247682D01*
X125730500Y-74247648D01*
X125725897Y-74218585D01*
X125698477Y-74045465D01*
X125661311Y-73931082D01*
X125635220Y-73850781D01*
X125635218Y-73850778D01*
X125635218Y-73850776D01*
X125564455Y-73711898D01*
X125542287Y-73668390D01*
X125510092Y-73624077D01*
X125421971Y-73502786D01*
X125277213Y-73358028D01*
X125111613Y-73237715D01*
X125111612Y-73237714D01*
X125111610Y-73237713D01*
X125054653Y-73208691D01*
X124929223Y-73144781D01*
X124734534Y-73081522D01*
X124559995Y-73053878D01*
X124532352Y-73049500D01*
X124327648Y-73049500D01*
X124303329Y-73053351D01*
X124125465Y-73081522D01*
X123930776Y-73144781D01*
X123748386Y-73237715D01*
X123582786Y-73358028D01*
X123438028Y-73502786D01*
X123317715Y-73668386D01*
X123224781Y-73850776D01*
X123161522Y-74045465D01*
X123129500Y-74247648D01*
X122140500Y-74247648D01*
X122140500Y-74076082D01*
X122140500Y-74076079D01*
X122111659Y-73931092D01*
X122111658Y-73931091D01*
X122111658Y-73931087D01*
X122078472Y-73850968D01*
X122055087Y-73794511D01*
X122055080Y-73794498D01*
X121972952Y-73671585D01*
X121925443Y-73624076D01*
X121868416Y-73567049D01*
X121526147Y-73224780D01*
X120438421Y-72137052D01*
X120438414Y-72137046D01*
X120364729Y-72087812D01*
X120364729Y-72087813D01*
X120315491Y-72054913D01*
X120178917Y-71998343D01*
X120178907Y-71998340D01*
X120033920Y-71969500D01*
X120033918Y-71969500D01*
X118307688Y-71969500D01*
X118240649Y-71949815D01*
X118194894Y-71897011D01*
X118184950Y-71827853D01*
X118213975Y-71764297D01*
X118269370Y-71727569D01*
X118341755Y-71704049D01*
X118341755Y-71704048D01*
X118341758Y-71704048D01*
X118545538Y-71600217D01*
X118730566Y-71465786D01*
X118892286Y-71304066D01*
X119026717Y-71119038D01*
X119130548Y-70915258D01*
X119195556Y-70715183D01*
X119201221Y-70697749D01*
X119201221Y-70697748D01*
X119201222Y-70697745D01*
X119237000Y-70471854D01*
X119237000Y-70148146D01*
X119201222Y-69922255D01*
X119201221Y-69922251D01*
X119201221Y-69922250D01*
X119130549Y-69704744D01*
X119092955Y-69630961D01*
X119026717Y-69500962D01*
X118892286Y-69315934D01*
X118730566Y-69154214D01*
X118545538Y-69019783D01*
X118341755Y-68915950D01*
X118124248Y-68845278D01*
X117938812Y-68815908D01*
X117898354Y-68809500D01*
X117669646Y-68809500D01*
X117629188Y-68815908D01*
X117443753Y-68845278D01*
X117443750Y-68845278D01*
X117226244Y-68915950D01*
X117022461Y-69019783D01*
X116918194Y-69095538D01*
X116837434Y-69154214D01*
X116837432Y-69154216D01*
X116837431Y-69154216D01*
X116675715Y-69315932D01*
X116614318Y-69400438D01*
X116558987Y-69443103D01*
X116489374Y-69449082D01*
X116427579Y-69416476D01*
X116413682Y-69400438D01*
X116399822Y-69381361D01*
X116352286Y-69315934D01*
X116190566Y-69154214D01*
X116005538Y-69019783D01*
X115801755Y-68915950D01*
X115584248Y-68845278D01*
X115398812Y-68815908D01*
X115358354Y-68809500D01*
X115129646Y-68809500D01*
X115089188Y-68815908D01*
X114903753Y-68845278D01*
X114903750Y-68845278D01*
X114686244Y-68915950D01*
X114482461Y-69019783D01*
X114299759Y-69152525D01*
X114233952Y-69176005D01*
X114165898Y-69160180D01*
X114117203Y-69110074D01*
X114110690Y-69095538D01*
X114105809Y-69082452D01*
X114100296Y-69067669D01*
X114100293Y-69067664D01*
X114014047Y-68952455D01*
X114014044Y-68952452D01*
X113898835Y-68866206D01*
X113898828Y-68866202D01*
X113763982Y-68815908D01*
X113763983Y-68815908D01*
X113704383Y-68809501D01*
X113704381Y-68809500D01*
X113704373Y-68809500D01*
X113704364Y-68809500D01*
X111703629Y-68809500D01*
X111703623Y-68809501D01*
X111644016Y-68815908D01*
X111509171Y-68866202D01*
X111509164Y-68866206D01*
X111393955Y-68952452D01*
X111393952Y-68952455D01*
X111307706Y-69067664D01*
X111307702Y-69067671D01*
X111257408Y-69202517D01*
X111251001Y-69262116D01*
X111251000Y-69262135D01*
X111251000Y-71357870D01*
X111251001Y-71357876D01*
X111257408Y-71417483D01*
X111307702Y-71552328D01*
X111307706Y-71552335D01*
X111393952Y-71667544D01*
X111393955Y-71667547D01*
X111509164Y-71753793D01*
X111509171Y-71753797D01*
X111644017Y-71804091D01*
X111644016Y-71804091D01*
X111650944Y-71804835D01*
X111703627Y-71810500D01*
X113704372Y-71810499D01*
X113763983Y-71804091D01*
X113898831Y-71753796D01*
X114014046Y-71667546D01*
X114100296Y-71552331D01*
X114110690Y-71524460D01*
X114126015Y-71503988D01*
X114137949Y-71481372D01*
X114146603Y-71476484D01*
X114152560Y-71468527D01*
X114176520Y-71459589D01*
X114198788Y-71447014D01*
X114208711Y-71447581D01*
X114218023Y-71444108D01*
X114243010Y-71449542D01*
X114268543Y-71451003D01*
X114281741Y-71457967D01*
X114286297Y-71458958D01*
X114299746Y-71467465D01*
X114442387Y-71571101D01*
X114485051Y-71626429D01*
X114493500Y-71671417D01*
X114493500Y-71877920D01*
X114522340Y-72022907D01*
X114522343Y-72022917D01*
X114578914Y-72159492D01*
X114611812Y-72208727D01*
X114611813Y-72208730D01*
X114661046Y-72282414D01*
X114661052Y-72282421D01*
X115577049Y-73198416D01*
X115681584Y-73302951D01*
X115681587Y-73302953D01*
X115681588Y-73302954D01*
X115804503Y-73385083D01*
X115804506Y-73385085D01*
X115854665Y-73405861D01*
X115861080Y-73408518D01*
X115941088Y-73441659D01*
X116057241Y-73464763D01*
X116080380Y-73469365D01*
X116086081Y-73470500D01*
X116086082Y-73470500D01*
X116086083Y-73470500D01*
X116233918Y-73470500D01*
X117628124Y-73470500D01*
X117695163Y-73490185D01*
X117740918Y-73542989D01*
X117750862Y-73612147D01*
X117729830Y-73663971D01*
X117730259Y-73664234D01*
X117728672Y-73666822D01*
X117728447Y-73667379D01*
X117727714Y-73668387D01*
X117634781Y-73850776D01*
X117571522Y-74045465D01*
X117539500Y-74247648D01*
X117539500Y-74452351D01*
X117571522Y-74654534D01*
X117634781Y-74849223D01*
X117675542Y-74929219D01*
X117727585Y-75031359D01*
X117727715Y-75031613D01*
X117848028Y-75197213D01*
X117878634Y-75227819D01*
X117912119Y-75289142D01*
X117907135Y-75358834D01*
X117865263Y-75414767D01*
X117799799Y-75439184D01*
X117790953Y-75439500D01*
X117016080Y-75439500D01*
X116871092Y-75468340D01*
X116871082Y-75468343D01*
X116734511Y-75524912D01*
X116734499Y-75524919D01*
X116689153Y-75555219D01*
X116689152Y-75555220D01*
X116611582Y-75607049D01*
X116611581Y-75607050D01*
X114015451Y-78203181D01*
X113954128Y-78236666D01*
X113927770Y-78239500D01*
X97436076Y-78239500D01*
X97407242Y-78245234D01*
X97407243Y-78245235D01*
X97291093Y-78268339D01*
X97291089Y-78268340D01*
X97214655Y-78300001D01*
X97154506Y-78324915D01*
X97072372Y-78379795D01*
X97031585Y-78407047D01*
X97031581Y-78407050D01*
X95337050Y-80101580D01*
X95337044Y-80101588D01*
X95287812Y-80175268D01*
X95287813Y-80175269D01*
X95254921Y-80224496D01*
X95254914Y-80224508D01*
X95198342Y-80361086D01*
X95198340Y-80361092D01*
X95169500Y-80506079D01*
X95169500Y-87232779D01*
X95149815Y-87299818D01*
X95118385Y-87333097D01*
X95040211Y-87389893D01*
X95040205Y-87389898D01*
X94889890Y-87540213D01*
X94764949Y-87712182D01*
X94760202Y-87721499D01*
X94712227Y-87772293D01*
X94644405Y-87789087D01*
X94578271Y-87766548D01*
X94539234Y-87721495D01*
X94534626Y-87712452D01*
X94495270Y-87658282D01*
X94495269Y-87658282D01*
X93862962Y-88290590D01*
X93845925Y-88227007D01*
X93780099Y-88112993D01*
X93687007Y-88019901D01*
X93572993Y-87954075D01*
X93509409Y-87937037D01*
X94141716Y-87304728D01*
X94087550Y-87265375D01*
X93898217Y-87168904D01*
X93696129Y-87103242D01*
X93486246Y-87070000D01*
X93273754Y-87070000D01*
X93063872Y-87103242D01*
X93063869Y-87103242D01*
X92861782Y-87168904D01*
X92672439Y-87265380D01*
X92618282Y-87304727D01*
X92618282Y-87304728D01*
X93250591Y-87937037D01*
X93187007Y-87954075D01*
X93072993Y-88019901D01*
X92979901Y-88112993D01*
X92914075Y-88227007D01*
X92897037Y-88290591D01*
X92264728Y-87658282D01*
X92264727Y-87658282D01*
X92225380Y-87712440D01*
X92225376Y-87712446D01*
X92220760Y-87721505D01*
X92172781Y-87772297D01*
X92104959Y-87789087D01*
X92038826Y-87766543D01*
X91999794Y-87721493D01*
X91995051Y-87712184D01*
X91995049Y-87712181D01*
X91995048Y-87712179D01*
X91870109Y-87540213D01*
X91719786Y-87389890D01*
X91547820Y-87264951D01*
X91358414Y-87168444D01*
X91358413Y-87168443D01*
X91358412Y-87168443D01*
X91156243Y-87102754D01*
X91156241Y-87102753D01*
X91156240Y-87102753D01*
X90994957Y-87077208D01*
X90946287Y-87069500D01*
X90733713Y-87069500D01*
X90685042Y-87077208D01*
X90523760Y-87102753D01*
X90321585Y-87168444D01*
X90132179Y-87264951D01*
X89960213Y-87389890D01*
X89809890Y-87540213D01*
X89684949Y-87712182D01*
X89680202Y-87721499D01*
X89632227Y-87772293D01*
X89564405Y-87789087D01*
X89498271Y-87766548D01*
X89459234Y-87721495D01*
X89454626Y-87712452D01*
X89415270Y-87658282D01*
X89415269Y-87658282D01*
X88782962Y-88290590D01*
X88765925Y-88227007D01*
X88700099Y-88112993D01*
X88607007Y-88019901D01*
X88492993Y-87954075D01*
X88429409Y-87937037D01*
X89061716Y-87304728D01*
X89007550Y-87265375D01*
X88818217Y-87168904D01*
X88616129Y-87103242D01*
X88406246Y-87070000D01*
X88193754Y-87070000D01*
X87983872Y-87103242D01*
X87983869Y-87103242D01*
X87781782Y-87168904D01*
X87592439Y-87265380D01*
X87538282Y-87304727D01*
X87538282Y-87304728D01*
X88170591Y-87937037D01*
X88107007Y-87954075D01*
X87992993Y-88019901D01*
X87899901Y-88112993D01*
X87834075Y-88227007D01*
X87817037Y-88290591D01*
X87147642Y-87621196D01*
X87114319Y-87560609D01*
X87075527Y-87387364D01*
X87053354Y-87327913D01*
X87053350Y-87327906D01*
X86967190Y-87212812D01*
X86967187Y-87212809D01*
X86852093Y-87126649D01*
X86852086Y-87126645D01*
X86717379Y-87076403D01*
X86717372Y-87076401D01*
X86657844Y-87070000D01*
X86010000Y-87070000D01*
X86010000Y-87986988D01*
X85952993Y-87954075D01*
X85825826Y-87920000D01*
X85694174Y-87920000D01*
X85567007Y-87954075D01*
X85510000Y-87986988D01*
X85510000Y-87070000D01*
X84862155Y-87070000D01*
X84802627Y-87076401D01*
X84802620Y-87076403D01*
X84667913Y-87126645D01*
X84667906Y-87126649D01*
X84552812Y-87212809D01*
X84552809Y-87212812D01*
X84466649Y-87327906D01*
X84466645Y-87327913D01*
X84416403Y-87462620D01*
X84416401Y-87462627D01*
X84410000Y-87522155D01*
X84410000Y-88170000D01*
X85326988Y-88170000D01*
X85294075Y-88227007D01*
X85260000Y-88354174D01*
X85260000Y-88485826D01*
X85294075Y-88612993D01*
X85326988Y-88670000D01*
X84410000Y-88670000D01*
X84410000Y-89317844D01*
X84416401Y-89377372D01*
X84416403Y-89377380D01*
X84465642Y-89509397D01*
X84470626Y-89579089D01*
X84437141Y-89640412D01*
X84375817Y-89673896D01*
X84306126Y-89668911D01*
X84261779Y-89640411D01*
X83916819Y-89295451D01*
X83883334Y-89234128D01*
X83880500Y-89207770D01*
X83880500Y-86402230D01*
X83900185Y-86335191D01*
X83916819Y-86314549D01*
X84274549Y-85956819D01*
X84335872Y-85923334D01*
X84362230Y-85920500D01*
X89743920Y-85920500D01*
X89841462Y-85901096D01*
X89888913Y-85891658D01*
X90025495Y-85835084D01*
X90082419Y-85797049D01*
X90148416Y-85752952D01*
X91602951Y-84298416D01*
X91685084Y-84175495D01*
X91741658Y-84038913D01*
X91751096Y-83991462D01*
X91770500Y-83893920D01*
X91770500Y-81867648D01*
X92243944Y-81867648D01*
X92243944Y-82072351D01*
X92275966Y-82274534D01*
X92339225Y-82469223D01*
X92379986Y-82549219D01*
X92411697Y-82611456D01*
X92432159Y-82651613D01*
X92552472Y-82817213D01*
X92697230Y-82961971D01*
X92846177Y-83070185D01*
X92862834Y-83082287D01*
X92945525Y-83124420D01*
X93045220Y-83175218D01*
X93045222Y-83175218D01*
X93045225Y-83175220D01*
X93149581Y-83209127D01*
X93239909Y-83238477D01*
X93341001Y-83254488D01*
X93442092Y-83270500D01*
X93442093Y-83270500D01*
X93646795Y-83270500D01*
X93646796Y-83270500D01*
X93848978Y-83238477D01*
X94043663Y-83175220D01*
X94226054Y-83082287D01*
X94319034Y-83014732D01*
X94391657Y-82961971D01*
X94391659Y-82961968D01*
X94391663Y-82961966D01*
X94536410Y-82817219D01*
X94536412Y-82817215D01*
X94536415Y-82817213D01*
X94598608Y-82731610D01*
X94656731Y-82651610D01*
X94749664Y-82469219D01*
X94812921Y-82274534D01*
X94844944Y-82072352D01*
X94844944Y-81867648D01*
X94837702Y-81821925D01*
X94812921Y-81665465D01*
X94783571Y-81575137D01*
X94749664Y-81470781D01*
X94749662Y-81470778D01*
X94749662Y-81470776D01*
X94709640Y-81392229D01*
X94656731Y-81288390D01*
X94594537Y-81202786D01*
X94536415Y-81122786D01*
X94391657Y-80978028D01*
X94226057Y-80857715D01*
X94226056Y-80857714D01*
X94226054Y-80857713D01*
X94169097Y-80828691D01*
X94043667Y-80764781D01*
X93848978Y-80701522D01*
X93674439Y-80673878D01*
X93646796Y-80669500D01*
X93442092Y-80669500D01*
X93417773Y-80673351D01*
X93239909Y-80701522D01*
X93045220Y-80764781D01*
X92862830Y-80857715D01*
X92697230Y-80978028D01*
X92552472Y-81122786D01*
X92432159Y-81288386D01*
X92339225Y-81470776D01*
X92275966Y-81665465D01*
X92243944Y-81867648D01*
X91770500Y-81867648D01*
X91770500Y-79732229D01*
X91790185Y-79665190D01*
X91806819Y-79644548D01*
X93972948Y-77478419D01*
X93972951Y-77478416D01*
X94055084Y-77355495D01*
X94111658Y-77218913D01*
X94140500Y-77073918D01*
X94140500Y-75581866D01*
X94160185Y-75514827D01*
X94208205Y-75471381D01*
X94226054Y-75462287D01*
X94291460Y-75414767D01*
X94391657Y-75341971D01*
X94391659Y-75341968D01*
X94391663Y-75341966D01*
X94536410Y-75197219D01*
X94536412Y-75197215D01*
X94536415Y-75197213D01*
X94598608Y-75111610D01*
X94656731Y-75031610D01*
X94749664Y-74849219D01*
X94812921Y-74654534D01*
X94844944Y-74452352D01*
X94844944Y-74247648D01*
X98523944Y-74247648D01*
X98523944Y-74452351D01*
X98555966Y-74654534D01*
X98619225Y-74849223D01*
X98659986Y-74929219D01*
X98712029Y-75031359D01*
X98712159Y-75031613D01*
X98832472Y-75197213D01*
X98977230Y-75341971D01*
X99087336Y-75421966D01*
X99142834Y-75462287D01*
X99259051Y-75521503D01*
X99325220Y-75555218D01*
X99325222Y-75555218D01*
X99325225Y-75555220D01*
X99407233Y-75581866D01*
X99519909Y-75618477D01*
X99621001Y-75634488D01*
X99722092Y-75650500D01*
X99722093Y-75650500D01*
X99926795Y-75650500D01*
X99926796Y-75650500D01*
X100128978Y-75618477D01*
X100323663Y-75555220D01*
X100506054Y-75462287D01*
X100626063Y-75375096D01*
X100671657Y-75341971D01*
X100671659Y-75341968D01*
X100671663Y-75341966D01*
X100816410Y-75197219D01*
X100816412Y-75197215D01*
X100816415Y-75197213D01*
X100878608Y-75111610D01*
X100936731Y-75031610D01*
X101029664Y-74849219D01*
X101092921Y-74654534D01*
X101124944Y-74452352D01*
X101124944Y-74247648D01*
X101101558Y-74100000D01*
X104803391Y-74100000D01*
X105764314Y-74100000D01*
X105759920Y-74104394D01*
X105707259Y-74195606D01*
X105680000Y-74297339D01*
X105680000Y-74402661D01*
X105707259Y-74504394D01*
X105759920Y-74595606D01*
X105764314Y-74600000D01*
X104803391Y-74600000D01*
X104812009Y-74654413D01*
X104875244Y-74849029D01*
X104968140Y-75031349D01*
X105088417Y-75196894D01*
X105088417Y-75196895D01*
X105233104Y-75341582D01*
X105398650Y-75461859D01*
X105580968Y-75554754D01*
X105775578Y-75617988D01*
X105830000Y-75626607D01*
X105830000Y-74665686D01*
X105834394Y-74670080D01*
X105925606Y-74722741D01*
X106027339Y-74750000D01*
X106132661Y-74750000D01*
X106234394Y-74722741D01*
X106325606Y-74670080D01*
X106330000Y-74665686D01*
X106330000Y-75626606D01*
X106384421Y-75617988D01*
X106579031Y-75554754D01*
X106761349Y-75461859D01*
X106926894Y-75341582D01*
X106926895Y-75341582D01*
X107071582Y-75196895D01*
X107071582Y-75196894D01*
X107191859Y-75031349D01*
X107284755Y-74849029D01*
X107347990Y-74654413D01*
X107356609Y-74600000D01*
X106395686Y-74600000D01*
X106400080Y-74595606D01*
X106452741Y-74504394D01*
X106480000Y-74402661D01*
X106480000Y-74297339D01*
X106466685Y-74247648D01*
X111009500Y-74247648D01*
X111009500Y-74452351D01*
X111041522Y-74654534D01*
X111104781Y-74849223D01*
X111145542Y-74929219D01*
X111197585Y-75031359D01*
X111197715Y-75031613D01*
X111318028Y-75197213D01*
X111462786Y-75341971D01*
X111572892Y-75421966D01*
X111628390Y-75462287D01*
X111744607Y-75521503D01*
X111810776Y-75555218D01*
X111810778Y-75555218D01*
X111810781Y-75555220D01*
X111892789Y-75581866D01*
X112005465Y-75618477D01*
X112106557Y-75634488D01*
X112207648Y-75650500D01*
X112207649Y-75650500D01*
X112412351Y-75650500D01*
X112412352Y-75650500D01*
X112614534Y-75618477D01*
X112809219Y-75555220D01*
X112991610Y-75462287D01*
X113111619Y-75375096D01*
X113157213Y-75341971D01*
X113157215Y-75341968D01*
X113157219Y-75341966D01*
X113301966Y-75197219D01*
X113301968Y-75197215D01*
X113301971Y-75197213D01*
X113364164Y-75111610D01*
X113422287Y-75031610D01*
X113515220Y-74849219D01*
X113578477Y-74654534D01*
X113610500Y-74452352D01*
X113610500Y-74247648D01*
X113605897Y-74218585D01*
X113578477Y-74045465D01*
X113541311Y-73931082D01*
X113515220Y-73850781D01*
X113515218Y-73850778D01*
X113515218Y-73850776D01*
X113444455Y-73711898D01*
X113422287Y-73668390D01*
X113390092Y-73624077D01*
X113301971Y-73502786D01*
X113157213Y-73358028D01*
X112991613Y-73237715D01*
X112991612Y-73237714D01*
X112991610Y-73237713D01*
X112934653Y-73208691D01*
X112809223Y-73144781D01*
X112614534Y-73081522D01*
X112439995Y-73053878D01*
X112412352Y-73049500D01*
X112207648Y-73049500D01*
X112183329Y-73053351D01*
X112005465Y-73081522D01*
X111810776Y-73144781D01*
X111628386Y-73237715D01*
X111462786Y-73358028D01*
X111318028Y-73502786D01*
X111197715Y-73668386D01*
X111104781Y-73850776D01*
X111041522Y-74045465D01*
X111009500Y-74247648D01*
X106466685Y-74247648D01*
X106452741Y-74195606D01*
X106400080Y-74104394D01*
X106395686Y-74100000D01*
X107356609Y-74100000D01*
X107347990Y-74045586D01*
X107284755Y-73850970D01*
X107191859Y-73668650D01*
X107071582Y-73503105D01*
X107071582Y-73503104D01*
X106926895Y-73358417D01*
X106761349Y-73238140D01*
X106579029Y-73145244D01*
X106384413Y-73082009D01*
X106330000Y-73073390D01*
X106330000Y-74034314D01*
X106325606Y-74029920D01*
X106234394Y-73977259D01*
X106132661Y-73950000D01*
X106027339Y-73950000D01*
X105925606Y-73977259D01*
X105834394Y-74029920D01*
X105830000Y-74034314D01*
X105830000Y-73073390D01*
X105775586Y-73082009D01*
X105580970Y-73145244D01*
X105398650Y-73238140D01*
X105233105Y-73358417D01*
X105233104Y-73358417D01*
X105088417Y-73503104D01*
X105088417Y-73503105D01*
X104968140Y-73668650D01*
X104875244Y-73850970D01*
X104812009Y-74045586D01*
X104803391Y-74100000D01*
X101101558Y-74100000D01*
X101092921Y-74045466D01*
X101029664Y-73850781D01*
X101029662Y-73850778D01*
X101029662Y-73850776D01*
X100958899Y-73711898D01*
X100936731Y-73668390D01*
X100904536Y-73624077D01*
X100816415Y-73502786D01*
X100671657Y-73358028D01*
X100506057Y-73237715D01*
X100506056Y-73237714D01*
X100506054Y-73237713D01*
X100449097Y-73208691D01*
X100323667Y-73144781D01*
X100128978Y-73081522D01*
X99954439Y-73053878D01*
X99926796Y-73049500D01*
X99722092Y-73049500D01*
X99697773Y-73053351D01*
X99519909Y-73081522D01*
X99325220Y-73144781D01*
X99142830Y-73237715D01*
X98977230Y-73358028D01*
X98832472Y-73502786D01*
X98712159Y-73668386D01*
X98619225Y-73850776D01*
X98555966Y-74045465D01*
X98523944Y-74247648D01*
X94844944Y-74247648D01*
X94840341Y-74218585D01*
X94812921Y-74045465D01*
X94775755Y-73931082D01*
X94749664Y-73850781D01*
X94749662Y-73850778D01*
X94749662Y-73850776D01*
X94678899Y-73711898D01*
X94656731Y-73668390D01*
X94624536Y-73624077D01*
X94536415Y-73502786D01*
X94391657Y-73358028D01*
X94226057Y-73237715D01*
X94226056Y-73237714D01*
X94226054Y-73237713D01*
X94169097Y-73208691D01*
X94043667Y-73144781D01*
X93848978Y-73081522D01*
X93674439Y-73053878D01*
X93646796Y-73049500D01*
X93442092Y-73049500D01*
X93417773Y-73053351D01*
X93239909Y-73081522D01*
X93045220Y-73144781D01*
X92862830Y-73237715D01*
X92697230Y-73358028D01*
X92552472Y-73502786D01*
X92432159Y-73668386D01*
X92339225Y-73850776D01*
X92275966Y-74045465D01*
X92243944Y-74247648D01*
X92243944Y-74452351D01*
X92275966Y-74654534D01*
X92339225Y-74849223D01*
X92379986Y-74929219D01*
X92432029Y-75031359D01*
X92432159Y-75031613D01*
X92552472Y-75197213D01*
X92603181Y-75247922D01*
X92636666Y-75309245D01*
X92639500Y-75335603D01*
X92639500Y-76637770D01*
X92619815Y-76704809D01*
X92603181Y-76725451D01*
X90437049Y-78891582D01*
X90437047Y-78891585D01*
X90420677Y-78916083D01*
X90420678Y-78916084D01*
X90354914Y-79014508D01*
X90298343Y-79151082D01*
X90298340Y-79151092D01*
X90269500Y-79296079D01*
X90269500Y-83457770D01*
X90249815Y-83524809D01*
X90233181Y-83545451D01*
X89395451Y-84383181D01*
X89334128Y-84416666D01*
X89307770Y-84419500D01*
X83926080Y-84419500D01*
X83781092Y-84448340D01*
X83781086Y-84448342D01*
X83644508Y-84504914D01*
X83644496Y-84504921D01*
X83595269Y-84537813D01*
X83521588Y-84587044D01*
X83521580Y-84587050D01*
X82547049Y-85561581D01*
X82504798Y-85624816D01*
X82477102Y-85666266D01*
X82423490Y-85711071D01*
X82354165Y-85719778D01*
X82291138Y-85689624D01*
X82254418Y-85630181D01*
X82250000Y-85597375D01*
X82250000Y-85427682D01*
X82217990Y-85225582D01*
X82154755Y-85030968D01*
X82061859Y-84848650D01*
X82029474Y-84804077D01*
X82029474Y-84804076D01*
X81350000Y-85483551D01*
X81350000Y-85477339D01*
X81322741Y-85375606D01*
X81270080Y-85284394D01*
X81195606Y-85209920D01*
X81104394Y-85157259D01*
X81002661Y-85130000D01*
X80996446Y-85130000D01*
X81675922Y-84450524D01*
X81675921Y-84450523D01*
X81631359Y-84418147D01*
X81631350Y-84418141D01*
X81449031Y-84325244D01*
X81254417Y-84262009D01*
X81052317Y-84230000D01*
X80847683Y-84230000D01*
X80645582Y-84262009D01*
X80450968Y-84325244D01*
X80268644Y-84418143D01*
X80224077Y-84450523D01*
X80224077Y-84450524D01*
X80903554Y-85130000D01*
X80897339Y-85130000D01*
X80795606Y-85157259D01*
X80704394Y-85209920D01*
X80629920Y-85284394D01*
X80577259Y-85375606D01*
X80550000Y-85477339D01*
X80550000Y-85483553D01*
X79858701Y-84792254D01*
X79857100Y-84791523D01*
X79835850Y-84787059D01*
X79825946Y-84777295D01*
X79813297Y-84771519D01*
X79801557Y-84753251D01*
X79786094Y-84738007D01*
X79782267Y-84723236D01*
X79775523Y-84712741D01*
X79770500Y-84677806D01*
X79770500Y-83175781D01*
X79790185Y-83108742D01*
X79806814Y-83088105D01*
X81027270Y-81867648D01*
X85963944Y-81867648D01*
X85963944Y-82072351D01*
X85995966Y-82274534D01*
X86059225Y-82469223D01*
X86099986Y-82549219D01*
X86131697Y-82611456D01*
X86152159Y-82651613D01*
X86272472Y-82817213D01*
X86417230Y-82961971D01*
X86566177Y-83070185D01*
X86582834Y-83082287D01*
X86665525Y-83124420D01*
X86765220Y-83175218D01*
X86765222Y-83175218D01*
X86765225Y-83175220D01*
X86869581Y-83209127D01*
X86959909Y-83238477D01*
X87061001Y-83254488D01*
X87162092Y-83270500D01*
X87162093Y-83270500D01*
X87366795Y-83270500D01*
X87366796Y-83270500D01*
X87568978Y-83238477D01*
X87763663Y-83175220D01*
X87946054Y-83082287D01*
X88039034Y-83014732D01*
X88111657Y-82961971D01*
X88111659Y-82961968D01*
X88111663Y-82961966D01*
X88256410Y-82817219D01*
X88256412Y-82817215D01*
X88256415Y-82817213D01*
X88318608Y-82731610D01*
X88376731Y-82651610D01*
X88469664Y-82469219D01*
X88532921Y-82274534D01*
X88564944Y-82072352D01*
X88564944Y-81867648D01*
X88557702Y-81821925D01*
X88532921Y-81665465D01*
X88503571Y-81575137D01*
X88469664Y-81470781D01*
X88469662Y-81470778D01*
X88469662Y-81470776D01*
X88429640Y-81392229D01*
X88376731Y-81288390D01*
X88314537Y-81202786D01*
X88256415Y-81122786D01*
X88111657Y-80978028D01*
X87946057Y-80857715D01*
X87946056Y-80857714D01*
X87946054Y-80857713D01*
X87889097Y-80828691D01*
X87763667Y-80764781D01*
X87568978Y-80701522D01*
X87394439Y-80673878D01*
X87366796Y-80669500D01*
X87162092Y-80669500D01*
X87137773Y-80673351D01*
X86959909Y-80701522D01*
X86765220Y-80764781D01*
X86582830Y-80857715D01*
X86417230Y-80978028D01*
X86272472Y-81122786D01*
X86152159Y-81288386D01*
X86059225Y-81470776D01*
X85995966Y-81665465D01*
X85963944Y-81867648D01*
X81027270Y-81867648D01*
X81038203Y-81856715D01*
X81099524Y-81823232D01*
X81106473Y-81821927D01*
X81254534Y-81798477D01*
X81449219Y-81735220D01*
X81631610Y-81642287D01*
X81724590Y-81574732D01*
X81797213Y-81521971D01*
X81797215Y-81521968D01*
X81797219Y-81521966D01*
X81941966Y-81377219D01*
X81941968Y-81377215D01*
X81941971Y-81377213D01*
X81994764Y-81304548D01*
X82062287Y-81211610D01*
X82155220Y-81029219D01*
X82218477Y-80834534D01*
X82218476Y-80834534D01*
X82218478Y-80834531D01*
X82250500Y-80632351D01*
X82250500Y-80427648D01*
X82218477Y-80225465D01*
X82189127Y-80135137D01*
X82155220Y-80030781D01*
X82155218Y-80030778D01*
X82155218Y-80030776D01*
X82115171Y-79952181D01*
X82062287Y-79848390D01*
X82042508Y-79821166D01*
X81974182Y-79727122D01*
X81950702Y-79661316D01*
X81950500Y-79654237D01*
X81950500Y-77485782D01*
X81970185Y-77418743D01*
X81986819Y-77398101D01*
X83290197Y-76094723D01*
X84657140Y-74727781D01*
X84684419Y-74686953D01*
X84766632Y-74563914D01*
X84842051Y-74381835D01*
X84868743Y-74247648D01*
X85963944Y-74247648D01*
X85963944Y-74452351D01*
X85995966Y-74654534D01*
X86059225Y-74849223D01*
X86099986Y-74929219D01*
X86152029Y-75031359D01*
X86152159Y-75031613D01*
X86272472Y-75197213D01*
X86417230Y-75341971D01*
X86527336Y-75421966D01*
X86582834Y-75462287D01*
X86699051Y-75521503D01*
X86765220Y-75555218D01*
X86765222Y-75555218D01*
X86765225Y-75555220D01*
X86847233Y-75581866D01*
X86959909Y-75618477D01*
X87061001Y-75634488D01*
X87162092Y-75650500D01*
X87162093Y-75650500D01*
X87366795Y-75650500D01*
X87366796Y-75650500D01*
X87568978Y-75618477D01*
X87763663Y-75555220D01*
X87946054Y-75462287D01*
X88066063Y-75375096D01*
X88111657Y-75341971D01*
X88111659Y-75341968D01*
X88111663Y-75341966D01*
X88256410Y-75197219D01*
X88256412Y-75197215D01*
X88256415Y-75197213D01*
X88318608Y-75111610D01*
X88376731Y-75031610D01*
X88469664Y-74849219D01*
X88532921Y-74654534D01*
X88564944Y-74452352D01*
X88564944Y-74247648D01*
X88560341Y-74218585D01*
X88532921Y-74045465D01*
X88495755Y-73931082D01*
X88469664Y-73850781D01*
X88469662Y-73850778D01*
X88469662Y-73850776D01*
X88398899Y-73711898D01*
X88376731Y-73668390D01*
X88344536Y-73624077D01*
X88256415Y-73502786D01*
X88111657Y-73358028D01*
X87946057Y-73237715D01*
X87946056Y-73237714D01*
X87946054Y-73237713D01*
X87889097Y-73208691D01*
X87763667Y-73144781D01*
X87568978Y-73081522D01*
X87394439Y-73053878D01*
X87366796Y-73049500D01*
X87162092Y-73049500D01*
X87137773Y-73053351D01*
X86959909Y-73081522D01*
X86765220Y-73144781D01*
X86582830Y-73237715D01*
X86417230Y-73358028D01*
X86272472Y-73502786D01*
X86152159Y-73668386D01*
X86059225Y-73850776D01*
X85995966Y-74045465D01*
X85963944Y-74247648D01*
X84868743Y-74247648D01*
X84880500Y-74188541D01*
X84880500Y-71744746D01*
X84900185Y-71677707D01*
X84931609Y-71644432D01*
X84998566Y-71595786D01*
X85160286Y-71434066D01*
X85221683Y-71349559D01*
X85277012Y-71306896D01*
X85346625Y-71300917D01*
X85408420Y-71333523D01*
X85422314Y-71349556D01*
X85483714Y-71434066D01*
X85645434Y-71595786D01*
X85830462Y-71730217D01*
X86022084Y-71827853D01*
X86034244Y-71834049D01*
X86251751Y-71904721D01*
X86251752Y-71904721D01*
X86251755Y-71904722D01*
X86477646Y-71940500D01*
X86477647Y-71940500D01*
X86706353Y-71940500D01*
X86706354Y-71940500D01*
X86932245Y-71904722D01*
X86932248Y-71904721D01*
X86932249Y-71904721D01*
X87149755Y-71834049D01*
X87149755Y-71834048D01*
X87149758Y-71834048D01*
X87353538Y-71730217D01*
X87538566Y-71595786D01*
X87700286Y-71434066D01*
X87834717Y-71249038D01*
X87938548Y-71045258D01*
X87949061Y-71012901D01*
X88009221Y-70827749D01*
X88009221Y-70827748D01*
X88009222Y-70827745D01*
X88045000Y-70601854D01*
X88045000Y-70278146D01*
X88009222Y-70052255D01*
X88009221Y-70052251D01*
X88009221Y-70052250D01*
X87938549Y-69834744D01*
X87919563Y-69797482D01*
X87834717Y-69630962D01*
X87700286Y-69445934D01*
X87538566Y-69284214D01*
X87508177Y-69262135D01*
X95655000Y-69262135D01*
X95655000Y-71357870D01*
X95655001Y-71357876D01*
X95661408Y-71417483D01*
X95711702Y-71552328D01*
X95711706Y-71552335D01*
X95797952Y-71667544D01*
X95797955Y-71667547D01*
X95913164Y-71753793D01*
X95913171Y-71753797D01*
X96048017Y-71804091D01*
X96048016Y-71804091D01*
X96054944Y-71804835D01*
X96107627Y-71810500D01*
X98108372Y-71810499D01*
X98167983Y-71804091D01*
X98302831Y-71753796D01*
X98418046Y-71667546D01*
X98504296Y-71552331D01*
X98514690Y-71524460D01*
X98556560Y-71468527D01*
X98622023Y-71444108D01*
X98690297Y-71458958D01*
X98703746Y-71467465D01*
X98886462Y-71600217D01*
X99038545Y-71677707D01*
X99090244Y-71704049D01*
X99307751Y-71774721D01*
X99307752Y-71774721D01*
X99307755Y-71774722D01*
X99533646Y-71810500D01*
X99533647Y-71810500D01*
X99762353Y-71810500D01*
X99762354Y-71810500D01*
X99988245Y-71774722D01*
X99988248Y-71774721D01*
X99988249Y-71774721D01*
X100205755Y-71704049D01*
X100205755Y-71704048D01*
X100205758Y-71704048D01*
X100409538Y-71600217D01*
X100594566Y-71465786D01*
X100756286Y-71304066D01*
X100817992Y-71219134D01*
X100873319Y-71176470D01*
X100942932Y-71170491D01*
X101004727Y-71203096D01*
X101018626Y-71219135D01*
X101080097Y-71303741D01*
X101080097Y-71303742D01*
X101241757Y-71465402D01*
X101426723Y-71599788D01*
X101630429Y-71703582D01*
X101847871Y-71774234D01*
X101938000Y-71788509D01*
X101938000Y-70800747D01*
X101975708Y-70822518D01*
X102115591Y-70860000D01*
X102260409Y-70860000D01*
X102400292Y-70822518D01*
X102438000Y-70800747D01*
X102438000Y-71788508D01*
X102528128Y-71774234D01*
X102745570Y-71703582D01*
X102949276Y-71599788D01*
X103134242Y-71465402D01*
X103295902Y-71303742D01*
X103430288Y-71118776D01*
X103534082Y-70915070D01*
X103604734Y-70697628D01*
X103626532Y-70560000D01*
X102678748Y-70560000D01*
X102700518Y-70522292D01*
X102738000Y-70382409D01*
X102738000Y-70237591D01*
X102700518Y-70097708D01*
X102678748Y-70060000D01*
X103626532Y-70060000D01*
X103604734Y-69922371D01*
X103534082Y-69704929D01*
X103430288Y-69501223D01*
X103295902Y-69316257D01*
X103134242Y-69154597D01*
X102949276Y-69020211D01*
X102745568Y-68916417D01*
X102528124Y-68845765D01*
X102438000Y-68831490D01*
X102438000Y-69819252D01*
X102400292Y-69797482D01*
X102260409Y-69760000D01*
X102115591Y-69760000D01*
X101975708Y-69797482D01*
X101938000Y-69819252D01*
X101938000Y-68831490D01*
X101937999Y-68831490D01*
X101847875Y-68845765D01*
X101630431Y-68916417D01*
X101426723Y-69020211D01*
X101241757Y-69154597D01*
X101080097Y-69316257D01*
X101018627Y-69400864D01*
X100963297Y-69443529D01*
X100893684Y-69449508D01*
X100831889Y-69416902D01*
X100817991Y-69400864D01*
X100756286Y-69315934D01*
X100594566Y-69154214D01*
X100409538Y-69019783D01*
X100205755Y-68915950D01*
X99988248Y-68845278D01*
X99802812Y-68815908D01*
X99762354Y-68809500D01*
X99533646Y-68809500D01*
X99493188Y-68815908D01*
X99307753Y-68845278D01*
X99307750Y-68845278D01*
X99090244Y-68915950D01*
X98886461Y-69019783D01*
X98703759Y-69152525D01*
X98637952Y-69176005D01*
X98569898Y-69160180D01*
X98521203Y-69110074D01*
X98514690Y-69095538D01*
X98509809Y-69082452D01*
X98504296Y-69067669D01*
X98504293Y-69067664D01*
X98418047Y-68952455D01*
X98418044Y-68952452D01*
X98302835Y-68866206D01*
X98302828Y-68866202D01*
X98167982Y-68815908D01*
X98167983Y-68815908D01*
X98108383Y-68809501D01*
X98108381Y-68809500D01*
X98108373Y-68809500D01*
X98108364Y-68809500D01*
X96107629Y-68809500D01*
X96107623Y-68809501D01*
X96048016Y-68815908D01*
X95913171Y-68866202D01*
X95913164Y-68866206D01*
X95797955Y-68952452D01*
X95797952Y-68952455D01*
X95711706Y-69067664D01*
X95711702Y-69067671D01*
X95661408Y-69202517D01*
X95655001Y-69262116D01*
X95655000Y-69262135D01*
X87508177Y-69262135D01*
X87353538Y-69149783D01*
X87275605Y-69110074D01*
X87149755Y-69045950D01*
X86932248Y-68975278D01*
X86746812Y-68945908D01*
X86706354Y-68939500D01*
X86477646Y-68939500D01*
X86437188Y-68945908D01*
X86251753Y-68975278D01*
X86251750Y-68975278D01*
X86034244Y-69045950D01*
X85830461Y-69149783D01*
X85764550Y-69197671D01*
X85645434Y-69284214D01*
X85645432Y-69284216D01*
X85645431Y-69284216D01*
X85483715Y-69445932D01*
X85422318Y-69530438D01*
X85366987Y-69573103D01*
X85297374Y-69579082D01*
X85235579Y-69546476D01*
X85221682Y-69530438D01*
X85200266Y-69500962D01*
X85160286Y-69445934D01*
X84998566Y-69284214D01*
X84813538Y-69149783D01*
X84735605Y-69110074D01*
X84609755Y-69045950D01*
X84392248Y-68975278D01*
X84206812Y-68945908D01*
X84166354Y-68939500D01*
X83937646Y-68939500D01*
X83897188Y-68945908D01*
X83711753Y-68975278D01*
X83711750Y-68975278D01*
X83494244Y-69045950D01*
X83290461Y-69149783D01*
X83107759Y-69282525D01*
X83041952Y-69306005D01*
X82973898Y-69290180D01*
X82925203Y-69240074D01*
X82918690Y-69225538D01*
X82908296Y-69197669D01*
X82908293Y-69197664D01*
X82822047Y-69082455D01*
X82822044Y-69082452D01*
X82706835Y-68996206D01*
X82706828Y-68996202D01*
X82571982Y-68945908D01*
X82571983Y-68945908D01*
X82512383Y-68939501D01*
X82512381Y-68939500D01*
X82512373Y-68939500D01*
X82512364Y-68939500D01*
X80511629Y-68939500D01*
X80511623Y-68939501D01*
X80452016Y-68945908D01*
X80317171Y-68996202D01*
X80317164Y-68996206D01*
X80201955Y-69082452D01*
X80201952Y-69082455D01*
X80115706Y-69197664D01*
X80115702Y-69197671D01*
X80065408Y-69332517D01*
X80059001Y-69392116D01*
X80059000Y-69392135D01*
X80059000Y-71487870D01*
X80059001Y-71487876D01*
X80065408Y-71547483D01*
X80115702Y-71682328D01*
X80115706Y-71682335D01*
X80201952Y-71797544D01*
X80201955Y-71797547D01*
X80317164Y-71883793D01*
X80317171Y-71883797D01*
X80452017Y-71934091D01*
X80452016Y-71934091D01*
X80458944Y-71934835D01*
X80511627Y-71940500D01*
X82512372Y-71940499D01*
X82571983Y-71934091D01*
X82574423Y-71933181D01*
X82712167Y-71881806D01*
X82781859Y-71876822D01*
X82843182Y-71910307D01*
X82876666Y-71971630D01*
X82879500Y-71997988D01*
X82879500Y-73624217D01*
X82859815Y-73691256D01*
X82843181Y-73711898D01*
X80312220Y-76242859D01*
X80312218Y-76242861D01*
X80242538Y-76312540D01*
X80172859Y-76382219D01*
X80063371Y-76546079D01*
X80063364Y-76546092D01*
X79987950Y-76728160D01*
X79987947Y-76728170D01*
X79949500Y-76921456D01*
X79949500Y-79654237D01*
X79929815Y-79721276D01*
X79925818Y-79727122D01*
X79837715Y-79848386D01*
X79744781Y-80030778D01*
X79681522Y-80225468D01*
X79658073Y-80373515D01*
X79628143Y-80436649D01*
X79623281Y-80441797D01*
X78862298Y-81202781D01*
X78132220Y-81932859D01*
X78132218Y-81932861D01*
X78062538Y-82002540D01*
X77992859Y-82072219D01*
X77883371Y-82236080D01*
X77883364Y-82236093D01*
X77841352Y-82337521D01*
X77841348Y-82337531D01*
X77839566Y-82341835D01*
X77807949Y-82418164D01*
X77798849Y-82463914D01*
X77797380Y-82471296D01*
X77797380Y-82471298D01*
X77769500Y-82611456D01*
X77769500Y-93064217D01*
X77749815Y-93131256D01*
X77733181Y-93151898D01*
X75648261Y-95236818D01*
X75648259Y-95236820D01*
X75589995Y-95295084D01*
X75508900Y-95376178D01*
X75399412Y-95540038D01*
X75399405Y-95540051D01*
X75323991Y-95722119D01*
X75323988Y-95722129D01*
X75285541Y-95915415D01*
X75285541Y-97125500D01*
X75265856Y-97192539D01*
X75213052Y-97238294D01*
X75161542Y-97249500D01*
X75038171Y-97249500D01*
X75038164Y-97249501D01*
X74978557Y-97255908D01*
X74843712Y-97306202D01*
X74843705Y-97306206D01*
X74728496Y-97392452D01*
X74728493Y-97392455D01*
X74642247Y-97507664D01*
X74642243Y-97507671D01*
X74591949Y-97642517D01*
X74585542Y-97702116D01*
X74585542Y-97702123D01*
X74585541Y-97702135D01*
X74585541Y-100197870D01*
X74585542Y-100197876D01*
X74591949Y-100257483D01*
X74642243Y-100392328D01*
X74642247Y-100392335D01*
X74728493Y-100507544D01*
X74728496Y-100507547D01*
X74843705Y-100593793D01*
X74843712Y-100593797D01*
X74978558Y-100644091D01*
X74978557Y-100644091D01*
X74985485Y-100644835D01*
X75038168Y-100650500D01*
X77533913Y-100650499D01*
X77593524Y-100644091D01*
X77728372Y-100593796D01*
X77843587Y-100507546D01*
X77929837Y-100392331D01*
X77980132Y-100257483D01*
X77986541Y-100197873D01*
X77986540Y-98838575D01*
X79586041Y-98838575D01*
X79586041Y-99061424D01*
X79615126Y-99282354D01*
X79615129Y-99282367D01*
X79672804Y-99497618D01*
X79758086Y-99703502D01*
X79758095Y-99703520D01*
X79869505Y-99896491D01*
X79869514Y-99896504D01*
X79920081Y-99962403D01*
X79920084Y-99962403D01*
X80721428Y-99161059D01*
X80726930Y-99181591D01*
X80805922Y-99318408D01*
X80917633Y-99430119D01*
X81054450Y-99509111D01*
X81074981Y-99514612D01*
X80273636Y-100315955D01*
X80273636Y-100315956D01*
X80339548Y-100366533D01*
X80532526Y-100477949D01*
X80532538Y-100477954D01*
X80738422Y-100563236D01*
X80953673Y-100620911D01*
X80953686Y-100620914D01*
X81174616Y-100650000D01*
X81397466Y-100650000D01*
X81618395Y-100620914D01*
X81618408Y-100620911D01*
X81833659Y-100563236D01*
X82039543Y-100477954D01*
X82039555Y-100477949D01*
X82232539Y-100366530D01*
X82298444Y-100315957D01*
X82298445Y-100315956D01*
X81497100Y-99514612D01*
X81517632Y-99509111D01*
X81654449Y-99430119D01*
X81766160Y-99318408D01*
X81845152Y-99181591D01*
X81850653Y-99161059D01*
X82651997Y-99962404D01*
X82651998Y-99962403D01*
X82702571Y-99896498D01*
X82813990Y-99703514D01*
X82813995Y-99703502D01*
X82899277Y-99497618D01*
X82956952Y-99282367D01*
X82956955Y-99282354D01*
X82986041Y-99061424D01*
X82986041Y-98838575D01*
X82956955Y-98617645D01*
X82956952Y-98617632D01*
X82899277Y-98402381D01*
X82813995Y-98196497D01*
X82813990Y-98196485D01*
X82702574Y-98003507D01*
X82651997Y-97937595D01*
X82651996Y-97937595D01*
X81850653Y-98738939D01*
X81845152Y-98718409D01*
X81766160Y-98581592D01*
X81654449Y-98469881D01*
X81517632Y-98390889D01*
X81497099Y-98385387D01*
X82298444Y-97584043D01*
X82298444Y-97584040D01*
X82232545Y-97533473D01*
X82232532Y-97533464D01*
X82039561Y-97422054D01*
X82039543Y-97422045D01*
X81833659Y-97336763D01*
X81618408Y-97279088D01*
X81618395Y-97279085D01*
X81397466Y-97250000D01*
X81174616Y-97250000D01*
X80953686Y-97279085D01*
X80953673Y-97279088D01*
X80738422Y-97336763D01*
X80532538Y-97422045D01*
X80532520Y-97422054D01*
X80339552Y-97533462D01*
X80273636Y-97584042D01*
X81074982Y-98385387D01*
X81054450Y-98390889D01*
X80917633Y-98469881D01*
X80805922Y-98581592D01*
X80726930Y-98718409D01*
X80721428Y-98738940D01*
X79920083Y-97937595D01*
X79869503Y-98003511D01*
X79758095Y-98196479D01*
X79758086Y-98196497D01*
X79672804Y-98402381D01*
X79615129Y-98617632D01*
X79615126Y-98617645D01*
X79586041Y-98838575D01*
X77986540Y-98838575D01*
X77986540Y-97702128D01*
X77980426Y-97645248D01*
X77980426Y-97645246D01*
X77980133Y-97642519D01*
X77929838Y-97507671D01*
X77929834Y-97507664D01*
X77843588Y-97392455D01*
X77843585Y-97392452D01*
X77728376Y-97306206D01*
X77728369Y-97306202D01*
X77593523Y-97255908D01*
X77593524Y-97255908D01*
X77533924Y-97249501D01*
X77533922Y-97249500D01*
X77533914Y-97249500D01*
X77533906Y-97249500D01*
X77410541Y-97249500D01*
X77343502Y-97229815D01*
X77297747Y-97177011D01*
X77286541Y-97125500D01*
X77286541Y-96479741D01*
X77306226Y-96412702D01*
X77322860Y-96392060D01*
X78419835Y-95295086D01*
X79547140Y-94167781D01*
X79656632Y-94003914D01*
X79732052Y-93821835D01*
X79770501Y-93628540D01*
X79770501Y-93431459D01*
X79770501Y-93426349D01*
X79770500Y-93426323D01*
X79770500Y-86382192D01*
X79790185Y-86315153D01*
X79842989Y-86269398D01*
X79860067Y-86266379D01*
X80550000Y-85576446D01*
X80550000Y-85582661D01*
X80577259Y-85684394D01*
X80629920Y-85775606D01*
X80704394Y-85850080D01*
X80795606Y-85902741D01*
X80897339Y-85930000D01*
X80903553Y-85930000D01*
X80224076Y-86609474D01*
X80268650Y-86641859D01*
X80450968Y-86734755D01*
X80645582Y-86797990D01*
X80847683Y-86830000D01*
X81052317Y-86830000D01*
X81254417Y-86797990D01*
X81449031Y-86734755D01*
X81631349Y-86641859D01*
X81675921Y-86609474D01*
X80996447Y-85930000D01*
X81002661Y-85930000D01*
X81104394Y-85902741D01*
X81195606Y-85850080D01*
X81270080Y-85775606D01*
X81322741Y-85684394D01*
X81350000Y-85582661D01*
X81350000Y-85576447D01*
X82029474Y-86255921D01*
X82061859Y-86211349D01*
X82145015Y-86048147D01*
X82192989Y-85997351D01*
X82260810Y-85980556D01*
X82326945Y-86003093D01*
X82370397Y-86057808D01*
X82379500Y-86104442D01*
X82379500Y-89643918D01*
X82379500Y-89643920D01*
X82379499Y-89643920D01*
X82408340Y-89788907D01*
X82408343Y-89788917D01*
X82464914Y-89925492D01*
X82497812Y-89974727D01*
X82497813Y-89974730D01*
X82547046Y-90048414D01*
X82547052Y-90048421D01*
X84791584Y-92292952D01*
X84791586Y-92292954D01*
X84810741Y-92305752D01*
X84865270Y-92342186D01*
X84914505Y-92375084D01*
X84914506Y-92375084D01*
X84914507Y-92375085D01*
X84914509Y-92375086D01*
X85051082Y-92431656D01*
X85051087Y-92431658D01*
X85051091Y-92431658D01*
X85051092Y-92431659D01*
X85196079Y-92460500D01*
X85196082Y-92460500D01*
X104573920Y-92460500D01*
X104671462Y-92441096D01*
X104718913Y-92431658D01*
X104855495Y-92375084D01*
X104978416Y-92292951D01*
X105082951Y-92188416D01*
X105165084Y-92065495D01*
X105221658Y-91928913D01*
X105250500Y-91783918D01*
X105250500Y-91718992D01*
X106094500Y-91718992D01*
X106094500Y-91921007D01*
X106133907Y-92119119D01*
X106133909Y-92119127D01*
X106211212Y-92305752D01*
X106211217Y-92305762D01*
X106323441Y-92473718D01*
X106466281Y-92616558D01*
X106634237Y-92728782D01*
X106634241Y-92728784D01*
X106634244Y-92728786D01*
X106820873Y-92806091D01*
X107018992Y-92845499D01*
X107018996Y-92845500D01*
X107018997Y-92845500D01*
X107221004Y-92845500D01*
X107221005Y-92845499D01*
X107419127Y-92806091D01*
X107605756Y-92728786D01*
X107773718Y-92616558D01*
X107916558Y-92473718D01*
X108028786Y-92305756D01*
X108106091Y-92119127D01*
X108145500Y-91921003D01*
X108145500Y-91718997D01*
X108106091Y-91520873D01*
X108028786Y-91334244D01*
X108028784Y-91334241D01*
X108028782Y-91334237D01*
X107916558Y-91166281D01*
X107773718Y-91023441D01*
X107605762Y-90911217D01*
X107605752Y-90911212D01*
X107419127Y-90833909D01*
X107419119Y-90833907D01*
X107221007Y-90794500D01*
X107221003Y-90794500D01*
X107018997Y-90794500D01*
X107018992Y-90794500D01*
X106820880Y-90833907D01*
X106820872Y-90833909D01*
X106634247Y-90911212D01*
X106634237Y-90911217D01*
X106466281Y-91023441D01*
X106323441Y-91166281D01*
X106211217Y-91334237D01*
X106211212Y-91334247D01*
X106133909Y-91520872D01*
X106133907Y-91520880D01*
X106094500Y-91718992D01*
X105250500Y-91718992D01*
X105250500Y-90362228D01*
X105270185Y-90295189D01*
X105286815Y-90274551D01*
X105771193Y-89790172D01*
X105832514Y-89756689D01*
X105878265Y-89755382D01*
X105973713Y-89770500D01*
X105973715Y-89770500D01*
X106186286Y-89770500D01*
X106186287Y-89770500D01*
X106396243Y-89737246D01*
X106598412Y-89671557D01*
X106787816Y-89575051D01*
X106874471Y-89512093D01*
X106959786Y-89450109D01*
X106959788Y-89450106D01*
X106959792Y-89450104D01*
X107110104Y-89299792D01*
X107110106Y-89299788D01*
X107110109Y-89299786D01*
X107235048Y-89127820D01*
X107235047Y-89127820D01*
X107235051Y-89127816D01*
X107239514Y-89119054D01*
X107287488Y-89068259D01*
X107355308Y-89051463D01*
X107421444Y-89073999D01*
X107460486Y-89119056D01*
X107464951Y-89127820D01*
X107589890Y-89299786D01*
X107740213Y-89450109D01*
X107912179Y-89575048D01*
X107912181Y-89575049D01*
X107912184Y-89575051D01*
X108101588Y-89671557D01*
X108303757Y-89737246D01*
X108513713Y-89770500D01*
X108513714Y-89770500D01*
X108726286Y-89770500D01*
X108726287Y-89770500D01*
X108936243Y-89737246D01*
X109138412Y-89671557D01*
X109327816Y-89575051D01*
X109414471Y-89512093D01*
X109499786Y-89450109D01*
X109499788Y-89450106D01*
X109499792Y-89450104D01*
X109650104Y-89299792D01*
X109650106Y-89299788D01*
X109650109Y-89299786D01*
X109729882Y-89189986D01*
X109775051Y-89127816D01*
X109779793Y-89118508D01*
X109827763Y-89067711D01*
X109895583Y-89050911D01*
X109961719Y-89073445D01*
X110000763Y-89118500D01*
X110005373Y-89127547D01*
X110044728Y-89181716D01*
X110677037Y-88549408D01*
X110694075Y-88612993D01*
X110759901Y-88727007D01*
X110852993Y-88820099D01*
X110967007Y-88885925D01*
X111030590Y-88902962D01*
X110398282Y-89535269D01*
X110398282Y-89535270D01*
X110452449Y-89574624D01*
X110641782Y-89671095D01*
X110843870Y-89736757D01*
X111053754Y-89770000D01*
X111266246Y-89770000D01*
X111476127Y-89736757D01*
X111476130Y-89736757D01*
X111678217Y-89671095D01*
X111867554Y-89574622D01*
X111921716Y-89535270D01*
X111921717Y-89535270D01*
X111289408Y-88902962D01*
X111352993Y-88885925D01*
X111467007Y-88820099D01*
X111560099Y-88727007D01*
X111625925Y-88612993D01*
X111642962Y-88549408D01*
X112275270Y-89181717D01*
X112275270Y-89181716D01*
X112314622Y-89127555D01*
X112319232Y-89118507D01*
X112367205Y-89067709D01*
X112435025Y-89050912D01*
X112501161Y-89073447D01*
X112540204Y-89118504D01*
X112544949Y-89127817D01*
X112669890Y-89299786D01*
X112820213Y-89450109D01*
X112992179Y-89575048D01*
X112992181Y-89575049D01*
X112992184Y-89575051D01*
X113181588Y-89671557D01*
X113383757Y-89737246D01*
X113593713Y-89770500D01*
X113593714Y-89770500D01*
X113806286Y-89770500D01*
X113806287Y-89770500D01*
X114016243Y-89737246D01*
X114218412Y-89671557D01*
X114407816Y-89575051D01*
X114494471Y-89512093D01*
X114579786Y-89450109D01*
X114579788Y-89450106D01*
X114579792Y-89450104D01*
X114730104Y-89299792D01*
X114730106Y-89299788D01*
X114730109Y-89299786D01*
X114809882Y-89189986D01*
X114855051Y-89127816D01*
X114859793Y-89118508D01*
X114907763Y-89067711D01*
X114975583Y-89050911D01*
X115041719Y-89073445D01*
X115080763Y-89118500D01*
X115085373Y-89127547D01*
X115124728Y-89181716D01*
X115757037Y-88549408D01*
X115774075Y-88612993D01*
X115839901Y-88727007D01*
X115932993Y-88820099D01*
X116047007Y-88885925D01*
X116110590Y-88902962D01*
X115478282Y-89535269D01*
X115478282Y-89535270D01*
X115532449Y-89574624D01*
X115721782Y-89671095D01*
X115923870Y-89736757D01*
X116133754Y-89770000D01*
X116346246Y-89770000D01*
X116556127Y-89736757D01*
X116556130Y-89736757D01*
X116758217Y-89671095D01*
X116947554Y-89574622D01*
X117001716Y-89535270D01*
X117001717Y-89535270D01*
X116369408Y-88902962D01*
X116432993Y-88885925D01*
X116547007Y-88820099D01*
X116640099Y-88727007D01*
X116705925Y-88612993D01*
X116722962Y-88549408D01*
X117355270Y-89181717D01*
X117355270Y-89181716D01*
X117394622Y-89127555D01*
X117399232Y-89118507D01*
X117447205Y-89067709D01*
X117515025Y-89050912D01*
X117581161Y-89073447D01*
X117620204Y-89118504D01*
X117624949Y-89127817D01*
X117749890Y-89299786D01*
X117900213Y-89450109D01*
X118072179Y-89575048D01*
X118072181Y-89575049D01*
X118072184Y-89575051D01*
X118261588Y-89671557D01*
X118463757Y-89737246D01*
X118673713Y-89770500D01*
X118673714Y-89770500D01*
X118886286Y-89770500D01*
X118886287Y-89770500D01*
X119096243Y-89737246D01*
X119298412Y-89671557D01*
X119487816Y-89575051D01*
X119574471Y-89512093D01*
X119659786Y-89450109D01*
X119659788Y-89450106D01*
X119659792Y-89450104D01*
X119810104Y-89299792D01*
X119810106Y-89299788D01*
X119810109Y-89299786D01*
X119935048Y-89127820D01*
X119935047Y-89127820D01*
X119935051Y-89127816D01*
X119939514Y-89119054D01*
X119987488Y-89068259D01*
X120055308Y-89051463D01*
X120121444Y-89073999D01*
X120160486Y-89119056D01*
X120164951Y-89127820D01*
X120289890Y-89299786D01*
X120440211Y-89450107D01*
X120509955Y-89500778D01*
X120608386Y-89572291D01*
X120611725Y-89576621D01*
X120616703Y-89578895D01*
X120632833Y-89603994D01*
X120651051Y-89627619D01*
X120652304Y-89634292D01*
X120654477Y-89637673D01*
X120659500Y-89672608D01*
X120659500Y-89817770D01*
X120639815Y-89884809D01*
X120623181Y-89905451D01*
X119955451Y-90573181D01*
X119894128Y-90606666D01*
X119867770Y-90609500D01*
X115636080Y-90609500D01*
X115491092Y-90638340D01*
X115491082Y-90638343D01*
X115354511Y-90694912D01*
X115354498Y-90694919D01*
X115231584Y-90777048D01*
X115231580Y-90777051D01*
X112165451Y-93843181D01*
X112104128Y-93876666D01*
X112077770Y-93879500D01*
X94556080Y-93879500D01*
X94411092Y-93908340D01*
X94411086Y-93908342D01*
X94274508Y-93964914D01*
X94274496Y-93964921D01*
X94225269Y-93997813D01*
X94151588Y-94047044D01*
X94151580Y-94047050D01*
X90331936Y-97866695D01*
X90317057Y-97888965D01*
X90289554Y-97930127D01*
X90271767Y-97956747D01*
X90249804Y-97989616D01*
X90249800Y-97989623D01*
X90193231Y-98126194D01*
X90193228Y-98126204D01*
X90164388Y-98271191D01*
X90164388Y-101267648D01*
X90144703Y-101334687D01*
X90091899Y-101380442D01*
X90053643Y-101390938D01*
X90007404Y-101395909D01*
X89872559Y-101446202D01*
X89872552Y-101446206D01*
X89757343Y-101532452D01*
X89757340Y-101532455D01*
X89671094Y-101647664D01*
X89671090Y-101647671D01*
X89620796Y-101782517D01*
X89614389Y-101842116D01*
X89614388Y-101842135D01*
X89614388Y-103537870D01*
X89614389Y-103537876D01*
X89620796Y-103597483D01*
X89671090Y-103732328D01*
X89671094Y-103732335D01*
X89757340Y-103847544D01*
X89757343Y-103847547D01*
X89872552Y-103933793D01*
X89872559Y-103933797D01*
X90007405Y-103984091D01*
X90007404Y-103984091D01*
X90014332Y-103984835D01*
X90067015Y-103990500D01*
X91762760Y-103990499D01*
X91822371Y-103984091D01*
X91957219Y-103933796D01*
X92072434Y-103847546D01*
X92158684Y-103732331D01*
X92208979Y-103597483D01*
X92210282Y-103591968D01*
X92244851Y-103531250D01*
X92306760Y-103498860D01*
X92376352Y-103505083D01*
X92418275Y-103534975D01*
X92419477Y-103533774D01*
X92567674Y-103681971D01*
X92722637Y-103794556D01*
X92733278Y-103802287D01*
X92822100Y-103847544D01*
X92915664Y-103895218D01*
X92915666Y-103895218D01*
X92915669Y-103895220D01*
X93000995Y-103922944D01*
X93110353Y-103958477D01*
X93185019Y-103970303D01*
X93312536Y-103990500D01*
X93312537Y-103990500D01*
X93517239Y-103990500D01*
X93517240Y-103990500D01*
X93719422Y-103958477D01*
X93914107Y-103895220D01*
X94096498Y-103802287D01*
X94203540Y-103724517D01*
X94262101Y-103681971D01*
X94262103Y-103681968D01*
X94262107Y-103681966D01*
X94406854Y-103537219D01*
X94406856Y-103537215D01*
X94406859Y-103537213D01*
X94459620Y-103464590D01*
X94527175Y-103371610D01*
X94620108Y-103189219D01*
X94683365Y-102994534D01*
X94715388Y-102792352D01*
X94715388Y-102587648D01*
X94683365Y-102385466D01*
X94620108Y-102190781D01*
X94620106Y-102190778D01*
X94620106Y-102190776D01*
X94582835Y-102117629D01*
X94527175Y-102008390D01*
X94467011Y-101925580D01*
X94406859Y-101842786D01*
X94262101Y-101698028D01*
X94096501Y-101577715D01*
X94096500Y-101577714D01*
X94096498Y-101577713D01*
X94039541Y-101548691D01*
X93914111Y-101484781D01*
X93719422Y-101421522D01*
X93544883Y-101393878D01*
X93517240Y-101389500D01*
X93312536Y-101389500D01*
X93288217Y-101393351D01*
X93110353Y-101421522D01*
X92915664Y-101484781D01*
X92733274Y-101577715D01*
X92567674Y-101698028D01*
X92567670Y-101698032D01*
X92419477Y-101846226D01*
X92418040Y-101844789D01*
X92366634Y-101878280D01*
X92296765Y-101878714D01*
X92237754Y-101841306D01*
X92210282Y-101788034D01*
X92208979Y-101782521D01*
X92208979Y-101782517D01*
X92208532Y-101781319D01*
X92158685Y-101647671D01*
X92158681Y-101647664D01*
X92072435Y-101532455D01*
X92072432Y-101532452D01*
X91957223Y-101446206D01*
X91957216Y-101446202D01*
X91822371Y-101395908D01*
X91776131Y-101390937D01*
X91774012Y-101390059D01*
X91771741Y-101390386D01*
X91741892Y-101376754D01*
X91711581Y-101364199D01*
X91710272Y-101362314D01*
X91708185Y-101361361D01*
X91690445Y-101333757D01*
X91671733Y-101306806D01*
X91671263Y-101303909D01*
X91670411Y-101302583D01*
X91665388Y-101267648D01*
X91665388Y-100067682D01*
X100810000Y-100067682D01*
X100810000Y-100272317D01*
X100842009Y-100474417D01*
X100905244Y-100669031D01*
X100998141Y-100851350D01*
X100998147Y-100851359D01*
X101030523Y-100895921D01*
X101030524Y-100895922D01*
X101710000Y-100216446D01*
X101710000Y-100222661D01*
X101737259Y-100324394D01*
X101789920Y-100415606D01*
X101864394Y-100490080D01*
X101955606Y-100542741D01*
X102057339Y-100570000D01*
X102063553Y-100570000D01*
X101384076Y-101249474D01*
X101428650Y-101281859D01*
X101610968Y-101374755D01*
X101805582Y-101437990D01*
X102007683Y-101470000D01*
X102212317Y-101470000D01*
X102414417Y-101437990D01*
X102609031Y-101374755D01*
X102791349Y-101281859D01*
X102835921Y-101249474D01*
X102156447Y-100570000D01*
X102162661Y-100570000D01*
X102264394Y-100542741D01*
X102355606Y-100490080D01*
X102430080Y-100415606D01*
X102482741Y-100324394D01*
X102510000Y-100222661D01*
X102510000Y-100216447D01*
X103189474Y-100895921D01*
X103221859Y-100851349D01*
X103314755Y-100669031D01*
X103377990Y-100474417D01*
X103410000Y-100272317D01*
X103410000Y-100067682D01*
X103409995Y-100067648D01*
X105809500Y-100067648D01*
X105809500Y-100272351D01*
X105841522Y-100474534D01*
X105904781Y-100669223D01*
X105956497Y-100770719D01*
X105997585Y-100851359D01*
X105997715Y-100851613D01*
X106118028Y-101017213D01*
X106262786Y-101161971D01*
X106385375Y-101251035D01*
X106428390Y-101282287D01*
X106531231Y-101334687D01*
X106610776Y-101375218D01*
X106610778Y-101375218D01*
X106610781Y-101375220D01*
X106715137Y-101409127D01*
X106805465Y-101438477D01*
X106854264Y-101446206D01*
X107007648Y-101470500D01*
X107007649Y-101470500D01*
X107212351Y-101470500D01*
X107212352Y-101470500D01*
X107414534Y-101438477D01*
X107609219Y-101375220D01*
X107791610Y-101282287D01*
X107895975Y-101206462D01*
X107957213Y-101161971D01*
X107957215Y-101161968D01*
X107957219Y-101161966D01*
X108101966Y-101017219D01*
X108101968Y-101017215D01*
X108101971Y-101017213D01*
X108188689Y-100897854D01*
X108222287Y-100851610D01*
X108315220Y-100669219D01*
X108378477Y-100474534D01*
X108410500Y-100272352D01*
X108410500Y-100067648D01*
X108393722Y-99961716D01*
X108378477Y-99865465D01*
X108329025Y-99713269D01*
X108315220Y-99670781D01*
X108315218Y-99670778D01*
X108315218Y-99670776D01*
X108276462Y-99594714D01*
X108222287Y-99488390D01*
X108213461Y-99476242D01*
X108101971Y-99322786D01*
X107957213Y-99178028D01*
X107791613Y-99057715D01*
X107791612Y-99057714D01*
X107791610Y-99057713D01*
X107686819Y-99004319D01*
X107609223Y-98964781D01*
X107414534Y-98901522D01*
X107221879Y-98871009D01*
X107212352Y-98869500D01*
X107007648Y-98869500D01*
X106998121Y-98871009D01*
X106805465Y-98901522D01*
X106610776Y-98964781D01*
X106428386Y-99057715D01*
X106262786Y-99178028D01*
X106118028Y-99322786D01*
X105997715Y-99488386D01*
X105904781Y-99670776D01*
X105841522Y-99865465D01*
X105809500Y-100067648D01*
X103409995Y-100067648D01*
X103377990Y-99865582D01*
X103314755Y-99670968D01*
X103221859Y-99488650D01*
X103189474Y-99444077D01*
X103189474Y-99444076D01*
X102510000Y-100123551D01*
X102510000Y-100117339D01*
X102482741Y-100015606D01*
X102430080Y-99924394D01*
X102355606Y-99849920D01*
X102264394Y-99797259D01*
X102162661Y-99770000D01*
X102156446Y-99770000D01*
X102835922Y-99090524D01*
X102835921Y-99090523D01*
X102791359Y-99058147D01*
X102791350Y-99058141D01*
X102609031Y-98965244D01*
X102414417Y-98902009D01*
X102212317Y-98870000D01*
X102007683Y-98870000D01*
X101805582Y-98902009D01*
X101610968Y-98965244D01*
X101428644Y-99058143D01*
X101384077Y-99090523D01*
X101384077Y-99090524D01*
X102063554Y-99770000D01*
X102057339Y-99770000D01*
X101955606Y-99797259D01*
X101864394Y-99849920D01*
X101789920Y-99924394D01*
X101737259Y-100015606D01*
X101710000Y-100117339D01*
X101710000Y-100123553D01*
X101030524Y-99444077D01*
X101030523Y-99444077D01*
X100998143Y-99488644D01*
X100905244Y-99670968D01*
X100842009Y-99865582D01*
X100810000Y-100067682D01*
X91665388Y-100067682D01*
X91665388Y-98707342D01*
X91685073Y-98640303D01*
X91701707Y-98619661D01*
X92294233Y-98027135D01*
X110154500Y-98027135D01*
X110154500Y-99772870D01*
X110154501Y-99772876D01*
X110160908Y-99832483D01*
X110211202Y-99967328D01*
X110211206Y-99967335D01*
X110297452Y-100082544D01*
X110297455Y-100082547D01*
X110412664Y-100168793D01*
X110412671Y-100168797D01*
X110547517Y-100219091D01*
X110547516Y-100219091D01*
X110554444Y-100219835D01*
X110607127Y-100225500D01*
X112352872Y-100225499D01*
X112412483Y-100219091D01*
X112547331Y-100168796D01*
X112662546Y-100082546D01*
X112748796Y-99967331D01*
X112799091Y-99832483D01*
X112805500Y-99772873D01*
X112805499Y-98027128D01*
X112799091Y-97967517D01*
X112785145Y-97930127D01*
X112748797Y-97832671D01*
X112748793Y-97832664D01*
X112662547Y-97717455D01*
X112662544Y-97717452D01*
X112547335Y-97631206D01*
X112547328Y-97631202D01*
X112412482Y-97580908D01*
X112412483Y-97580908D01*
X112352883Y-97574501D01*
X112352881Y-97574500D01*
X112352873Y-97574500D01*
X112352864Y-97574500D01*
X110607129Y-97574500D01*
X110607123Y-97574501D01*
X110547516Y-97580908D01*
X110412671Y-97631202D01*
X110412664Y-97631206D01*
X110297455Y-97717452D01*
X110297452Y-97717455D01*
X110211206Y-97832664D01*
X110211202Y-97832671D01*
X110160908Y-97967517D01*
X110157039Y-98003511D01*
X110154501Y-98027123D01*
X110154500Y-98027135D01*
X92294233Y-98027135D01*
X93602376Y-96718992D01*
X106094500Y-96718992D01*
X106094500Y-96921007D01*
X106133907Y-97119119D01*
X106133909Y-97119127D01*
X106211212Y-97305752D01*
X106211217Y-97305762D01*
X106323441Y-97473718D01*
X106466281Y-97616558D01*
X106634237Y-97728782D01*
X106634241Y-97728784D01*
X106634244Y-97728786D01*
X106820873Y-97806091D01*
X106954466Y-97832664D01*
X107018992Y-97845499D01*
X107018996Y-97845500D01*
X107018997Y-97845500D01*
X107221004Y-97845500D01*
X107221005Y-97845499D01*
X107419127Y-97806091D01*
X107605756Y-97728786D01*
X107773718Y-97616558D01*
X107916558Y-97473718D01*
X108028786Y-97305756D01*
X108106091Y-97119127D01*
X108145500Y-96921003D01*
X108145500Y-96718997D01*
X108106091Y-96520873D01*
X108028786Y-96334244D01*
X108028784Y-96334241D01*
X108028782Y-96334237D01*
X107916558Y-96166281D01*
X107773718Y-96023441D01*
X107605762Y-95911217D01*
X107605752Y-95911212D01*
X107419127Y-95833909D01*
X107419119Y-95833907D01*
X107221007Y-95794500D01*
X107221003Y-95794500D01*
X107018997Y-95794500D01*
X107018992Y-95794500D01*
X106820880Y-95833907D01*
X106820872Y-95833909D01*
X106634247Y-95911212D01*
X106634237Y-95911217D01*
X106466281Y-96023441D01*
X106323441Y-96166281D01*
X106211217Y-96334237D01*
X106211212Y-96334247D01*
X106133909Y-96520872D01*
X106133907Y-96520880D01*
X106094500Y-96718992D01*
X93602376Y-96718992D01*
X94904549Y-95416819D01*
X94965872Y-95383334D01*
X94992230Y-95380500D01*
X112513920Y-95380500D01*
X112611462Y-95361096D01*
X112658913Y-95351658D01*
X112795495Y-95295084D01*
X112859420Y-95252371D01*
X112859423Y-95252368D01*
X112859425Y-95252368D01*
X112889115Y-95232529D01*
X112918416Y-95212952D01*
X114323720Y-93807648D01*
X115584500Y-93807648D01*
X115584500Y-94012351D01*
X115616522Y-94214534D01*
X115679781Y-94409223D01*
X115772715Y-94591613D01*
X115893028Y-94757213D01*
X116037786Y-94901971D01*
X116158448Y-94989635D01*
X116203390Y-95022287D01*
X116319607Y-95081503D01*
X116385776Y-95115218D01*
X116385778Y-95115218D01*
X116385781Y-95115220D01*
X116490137Y-95149127D01*
X116580465Y-95178477D01*
X116670593Y-95192752D01*
X116782648Y-95210500D01*
X116782649Y-95210500D01*
X116987351Y-95210500D01*
X116987352Y-95210500D01*
X117189534Y-95178477D01*
X117384219Y-95115220D01*
X117566610Y-95022287D01*
X117693610Y-94930017D01*
X117732213Y-94901971D01*
X117732215Y-94901968D01*
X117732219Y-94901966D01*
X117876966Y-94757219D01*
X117876968Y-94757215D01*
X117876971Y-94757213D01*
X117938722Y-94672218D01*
X117997287Y-94591610D01*
X118090220Y-94409219D01*
X118153477Y-94214534D01*
X118185500Y-94012352D01*
X118185500Y-93807648D01*
X118153477Y-93605466D01*
X118090220Y-93410781D01*
X118090218Y-93410778D01*
X118090218Y-93410776D01*
X118035074Y-93302552D01*
X117997287Y-93228390D01*
X117926716Y-93131256D01*
X117876971Y-93062786D01*
X117732213Y-92918028D01*
X117566613Y-92797715D01*
X117566612Y-92797714D01*
X117566610Y-92797713D01*
X117509653Y-92768691D01*
X117384223Y-92704781D01*
X117189534Y-92641522D01*
X117014995Y-92613878D01*
X116987352Y-92609500D01*
X116782648Y-92609500D01*
X116758329Y-92613351D01*
X116580465Y-92641522D01*
X116385776Y-92704781D01*
X116203386Y-92797715D01*
X116037786Y-92918028D01*
X115893028Y-93062786D01*
X115772715Y-93228386D01*
X115679781Y-93410776D01*
X115616522Y-93605465D01*
X115584500Y-93807648D01*
X114323720Y-93807648D01*
X114502824Y-93628544D01*
X115984548Y-92146819D01*
X116045871Y-92113334D01*
X116072229Y-92110500D01*
X119916000Y-92110500D01*
X119983039Y-92130185D01*
X120028794Y-92182989D01*
X120040000Y-92234500D01*
X120040000Y-95887447D01*
X120020315Y-95954486D01*
X119967511Y-96000241D01*
X119927974Y-96010868D01*
X117359999Y-96260000D01*
X117449988Y-106968583D01*
X117449978Y-106971471D01*
X117285076Y-118047348D01*
X117264397Y-118114085D01*
X117210918Y-118159049D01*
X117161091Y-118169500D01*
X57948996Y-118169500D01*
X57881957Y-118149815D01*
X57836202Y-118097011D01*
X57826258Y-118027853D01*
X57855283Y-117964297D01*
X57861315Y-117957819D01*
X58017274Y-117801860D01*
X58017277Y-117801855D01*
X58017282Y-117801851D01*
X58176924Y-117593803D01*
X58308043Y-117366697D01*
X58408398Y-117124419D01*
X58476270Y-116871116D01*
X58510500Y-116611120D01*
X58510500Y-116348880D01*
X58476270Y-116088884D01*
X58408398Y-115835581D01*
X58355294Y-115707376D01*
X58308046Y-115593309D01*
X58308041Y-115593299D01*
X58176924Y-115366196D01*
X58017281Y-115158148D01*
X58017274Y-115158140D01*
X57831860Y-114972726D01*
X57831851Y-114972718D01*
X57801232Y-114949223D01*
X57679378Y-114855720D01*
X110055000Y-114855720D01*
X110055000Y-115064279D01*
X110087626Y-115270272D01*
X110152075Y-115468627D01*
X110246759Y-115654451D01*
X110282627Y-115703818D01*
X110282627Y-115703819D01*
X110856212Y-115130234D01*
X110867482Y-115172292D01*
X110939890Y-115297708D01*
X111042292Y-115400110D01*
X111167708Y-115472518D01*
X111209765Y-115483787D01*
X110636179Y-116057371D01*
X110636180Y-116057372D01*
X110685543Y-116093236D01*
X110685556Y-116093244D01*
X110871372Y-116187924D01*
X111069727Y-116252373D01*
X111275721Y-116285000D01*
X111484279Y-116285000D01*
X111690272Y-116252373D01*
X111888627Y-116187924D01*
X112074451Y-116093240D01*
X112123818Y-116057372D01*
X112123818Y-116057371D01*
X111550234Y-115483787D01*
X111592292Y-115472518D01*
X111717708Y-115400110D01*
X111820110Y-115297708D01*
X111892518Y-115172292D01*
X111903787Y-115130234D01*
X112477371Y-115703818D01*
X112477372Y-115703818D01*
X112513240Y-115654451D01*
X112607924Y-115468627D01*
X112672373Y-115270272D01*
X112705000Y-115064279D01*
X112705000Y-114855720D01*
X112672373Y-114649727D01*
X112607924Y-114451372D01*
X112513244Y-114265556D01*
X112513236Y-114265543D01*
X112477372Y-114216180D01*
X112477371Y-114216179D01*
X111903787Y-114789764D01*
X111892518Y-114747708D01*
X111820110Y-114622292D01*
X111717708Y-114519890D01*
X111592292Y-114447482D01*
X111550233Y-114436212D01*
X112123819Y-113862627D01*
X112074451Y-113826759D01*
X111888627Y-113732075D01*
X111690272Y-113667626D01*
X111484279Y-113635000D01*
X111275721Y-113635000D01*
X111069727Y-113667626D01*
X110871372Y-113732075D01*
X110685552Y-113826757D01*
X110636180Y-113862627D01*
X111209766Y-114436212D01*
X111167708Y-114447482D01*
X111042292Y-114519890D01*
X110939890Y-114622292D01*
X110867482Y-114747708D01*
X110856212Y-114789765D01*
X110282627Y-114216180D01*
X110246757Y-114265552D01*
X110152075Y-114451372D01*
X110087626Y-114649727D01*
X110055000Y-114855720D01*
X57679378Y-114855720D01*
X57623803Y-114813075D01*
X57396700Y-114681958D01*
X57396690Y-114681953D01*
X57154428Y-114581605D01*
X57154421Y-114581603D01*
X57154419Y-114581602D01*
X56901116Y-114513730D01*
X56843339Y-114506123D01*
X56641127Y-114479500D01*
X56641120Y-114479500D01*
X56378880Y-114479500D01*
X56378872Y-114479500D01*
X56147772Y-114509926D01*
X56118884Y-114513730D01*
X55865581Y-114581602D01*
X55865571Y-114581605D01*
X55623309Y-114681953D01*
X55623299Y-114681958D01*
X55396197Y-114813075D01*
X55269986Y-114909921D01*
X55204817Y-114935115D01*
X55136372Y-114921077D01*
X55086383Y-114872263D01*
X55070500Y-114811545D01*
X55070500Y-111998632D01*
X63692000Y-111998632D01*
X63692000Y-112201367D01*
X63723715Y-112401608D01*
X63786361Y-112594417D01*
X63786362Y-112594420D01*
X63809908Y-112640630D01*
X63876647Y-112771613D01*
X63878405Y-112775062D01*
X63997562Y-112939069D01*
X63997566Y-112939074D01*
X64140925Y-113082433D01*
X64140930Y-113082437D01*
X64249177Y-113161082D01*
X64304941Y-113201597D01*
X64390211Y-113245044D01*
X64485579Y-113293637D01*
X64485582Y-113293638D01*
X64581986Y-113324961D01*
X64678393Y-113356285D01*
X64878632Y-113388000D01*
X64878633Y-113388000D01*
X65081367Y-113388000D01*
X65081368Y-113388000D01*
X65281607Y-113356285D01*
X65474420Y-113293637D01*
X65655059Y-113201597D01*
X65819076Y-113082432D01*
X65962432Y-112939076D01*
X65973554Y-112923767D01*
X66028879Y-112881102D01*
X66098492Y-112875120D01*
X66160289Y-112907723D01*
X66194649Y-112968560D01*
X66197162Y-112983394D01*
X66198407Y-112994980D01*
X66248702Y-113129828D01*
X66248706Y-113129835D01*
X66334952Y-113245044D01*
X66334955Y-113245047D01*
X66450164Y-113331293D01*
X66450171Y-113331297D01*
X66585017Y-113381591D01*
X66585016Y-113381591D01*
X66591944Y-113382335D01*
X66644627Y-113388000D01*
X68315372Y-113387999D01*
X68374983Y-113381591D01*
X68509831Y-113331296D01*
X68625046Y-113245046D01*
X68711296Y-113129831D01*
X68761591Y-112994983D01*
X68768000Y-112935373D01*
X68767999Y-111892155D01*
X75435000Y-111892155D01*
X75435000Y-112440000D01*
X76179670Y-112440000D01*
X76159925Y-112459745D01*
X76110556Y-112545255D01*
X76085000Y-112640630D01*
X76085000Y-112739370D01*
X76110556Y-112834745D01*
X76159925Y-112920255D01*
X76179670Y-112940000D01*
X75435000Y-112940000D01*
X75435000Y-113487844D01*
X75441401Y-113547372D01*
X75441403Y-113547379D01*
X75491645Y-113682086D01*
X75491649Y-113682093D01*
X75577809Y-113797187D01*
X75577812Y-113797190D01*
X75692906Y-113883350D01*
X75692913Y-113883354D01*
X75827620Y-113933596D01*
X75827627Y-113933598D01*
X75887155Y-113939999D01*
X75887172Y-113940000D01*
X76210000Y-113940000D01*
X76210000Y-112970330D01*
X76229745Y-112990075D01*
X76315255Y-113039444D01*
X76410630Y-113065000D01*
X76509370Y-113065000D01*
X76604745Y-113039444D01*
X76690255Y-112990075D01*
X76704500Y-112975830D01*
X76704500Y-113016002D01*
X76707617Y-113031671D01*
X76710000Y-113055865D01*
X76710000Y-113940000D01*
X77032828Y-113940000D01*
X77032844Y-113939999D01*
X77092372Y-113933598D01*
X77092376Y-113933597D01*
X77227089Y-113883352D01*
X77227896Y-113882748D01*
X77228845Y-113882393D01*
X77234876Y-113879101D01*
X77235349Y-113879967D01*
X77293360Y-113858329D01*
X77349661Y-113867451D01*
X77430873Y-113901091D01*
X77594288Y-113933596D01*
X77628992Y-113940499D01*
X77628996Y-113940500D01*
X77628997Y-113940500D01*
X77831004Y-113940500D01*
X77831005Y-113940499D01*
X78029127Y-113901091D01*
X78215756Y-113823786D01*
X78296110Y-113770094D01*
X78362786Y-113749217D01*
X78430166Y-113767701D01*
X78433865Y-113770078D01*
X78514244Y-113823786D01*
X78514245Y-113823786D01*
X78514246Y-113823787D01*
X78521421Y-113826759D01*
X78700873Y-113901091D01*
X78864288Y-113933596D01*
X78898992Y-113940499D01*
X78898996Y-113940500D01*
X78898997Y-113940500D01*
X79101004Y-113940500D01*
X79101005Y-113940499D01*
X79299127Y-113901091D01*
X79485756Y-113823786D01*
X79485762Y-113823782D01*
X79511202Y-113806784D01*
X79511203Y-113806783D01*
X79566111Y-113770095D01*
X79653718Y-113711558D01*
X79796558Y-113568718D01*
X79908786Y-113400756D01*
X79986091Y-113214127D01*
X80025500Y-113016003D01*
X80025500Y-112363997D01*
X79986091Y-112165873D01*
X79908786Y-111979244D01*
X79908783Y-111979239D01*
X79908782Y-111979237D01*
X79878519Y-111933945D01*
X86949500Y-111933945D01*
X86949500Y-112126055D01*
X86964526Y-112220928D01*
X86979553Y-112315802D01*
X87038916Y-112498506D01*
X87085137Y-112589219D01*
X87126135Y-112669681D01*
X87239055Y-112825102D01*
X87374898Y-112960945D01*
X87530319Y-113073865D01*
X87640152Y-113129828D01*
X87701493Y-113161083D01*
X87792845Y-113190764D01*
X87884199Y-113220447D01*
X88073945Y-113250500D01*
X88073946Y-113250500D01*
X88266054Y-113250500D01*
X88266055Y-113250500D01*
X88455801Y-113220447D01*
X88638509Y-113161082D01*
X88809681Y-113073865D01*
X88965102Y-112960945D01*
X89100945Y-112825102D01*
X89213865Y-112669681D01*
X89301082Y-112498509D01*
X89312704Y-112462741D01*
X89322069Y-112433919D01*
X89361506Y-112376243D01*
X89425864Y-112349044D01*
X89494711Y-112360958D01*
X89546187Y-112408202D01*
X89557931Y-112433919D01*
X89578915Y-112498504D01*
X89625137Y-112589219D01*
X89666135Y-112669681D01*
X89779055Y-112825102D01*
X89914898Y-112960945D01*
X90070319Y-113073865D01*
X90180152Y-113129828D01*
X90241493Y-113161083D01*
X90332845Y-113190764D01*
X90424199Y-113220447D01*
X90613945Y-113250500D01*
X90613946Y-113250500D01*
X90806054Y-113250500D01*
X90806055Y-113250500D01*
X90995801Y-113220447D01*
X91178509Y-113161082D01*
X91349681Y-113073865D01*
X91505102Y-112960945D01*
X91640945Y-112825102D01*
X91753865Y-112669681D01*
X91841082Y-112498509D01*
X91852704Y-112462741D01*
X91862069Y-112433919D01*
X91901506Y-112376243D01*
X91965864Y-112349044D01*
X92034711Y-112360958D01*
X92086187Y-112408202D01*
X92097931Y-112433919D01*
X92118915Y-112498504D01*
X92165137Y-112589219D01*
X92206135Y-112669681D01*
X92319055Y-112825102D01*
X92454898Y-112960945D01*
X92610319Y-113073865D01*
X92720152Y-113129828D01*
X92781493Y-113161083D01*
X92872845Y-113190764D01*
X92964199Y-113220447D01*
X93153945Y-113250500D01*
X93153946Y-113250500D01*
X93346054Y-113250500D01*
X93346055Y-113250500D01*
X93535801Y-113220447D01*
X93718509Y-113161082D01*
X93889681Y-113073865D01*
X94045102Y-112960945D01*
X94180945Y-112825102D01*
X94293865Y-112669681D01*
X94381082Y-112498509D01*
X94440447Y-112315801D01*
X94470500Y-112126055D01*
X94470500Y-111987648D01*
X98289500Y-111987648D01*
X98289500Y-112192351D01*
X98321522Y-112394534D01*
X98384781Y-112589223D01*
X98448691Y-112714653D01*
X98477585Y-112771359D01*
X98477715Y-112771613D01*
X98598028Y-112937213D01*
X98742786Y-113081971D01*
X98851677Y-113161083D01*
X98908390Y-113202287D01*
X99024607Y-113261503D01*
X99090776Y-113295218D01*
X99090778Y-113295218D01*
X99090781Y-113295220D01*
X99195137Y-113329127D01*
X99285465Y-113358477D01*
X99386557Y-113374488D01*
X99487648Y-113390500D01*
X99487649Y-113390500D01*
X99692351Y-113390500D01*
X99692352Y-113390500D01*
X99894534Y-113358477D01*
X100089219Y-113295220D01*
X100271610Y-113202287D01*
X100364590Y-113134732D01*
X100437213Y-113081971D01*
X100437215Y-113081968D01*
X100437219Y-113081966D01*
X100581966Y-112937219D01*
X100581968Y-112937215D01*
X100581971Y-112937213D01*
X100656417Y-112834745D01*
X100702287Y-112771610D01*
X100795220Y-112589219D01*
X100858477Y-112394534D01*
X100890500Y-112192352D01*
X100890500Y-111987682D01*
X105910000Y-111987682D01*
X105910000Y-112192317D01*
X105942009Y-112394417D01*
X106005244Y-112589031D01*
X106098141Y-112771350D01*
X106098147Y-112771359D01*
X106130523Y-112815921D01*
X106130524Y-112815922D01*
X106810000Y-112136446D01*
X106810000Y-112142661D01*
X106837259Y-112244394D01*
X106889920Y-112335606D01*
X106964394Y-112410080D01*
X107055606Y-112462741D01*
X107157339Y-112490000D01*
X107163553Y-112490000D01*
X106484076Y-113169474D01*
X106528650Y-113201859D01*
X106710968Y-113294755D01*
X106905582Y-113357990D01*
X107107683Y-113390000D01*
X107312317Y-113390000D01*
X107514417Y-113357990D01*
X107709031Y-113294755D01*
X107891349Y-113201859D01*
X107935921Y-113169474D01*
X107256447Y-112490000D01*
X107262661Y-112490000D01*
X107364394Y-112462741D01*
X107455606Y-112410080D01*
X107530080Y-112335606D01*
X107582741Y-112244394D01*
X107610000Y-112142661D01*
X107610000Y-112136447D01*
X108289474Y-112815921D01*
X108321859Y-112771349D01*
X108414755Y-112589031D01*
X108477990Y-112394417D01*
X108510000Y-112192317D01*
X108510000Y-111987682D01*
X108477990Y-111785582D01*
X108414755Y-111590968D01*
X108321859Y-111408650D01*
X108289474Y-111364077D01*
X108289474Y-111364076D01*
X107610000Y-112043551D01*
X107610000Y-112037339D01*
X107582741Y-111935606D01*
X107530080Y-111844394D01*
X107455606Y-111769920D01*
X107364394Y-111717259D01*
X107262661Y-111690000D01*
X107256446Y-111690000D01*
X107935922Y-111010524D01*
X107935921Y-111010523D01*
X107891359Y-110978147D01*
X107891350Y-110978141D01*
X107709031Y-110885244D01*
X107514417Y-110822009D01*
X107370731Y-110799252D01*
X107312317Y-110790000D01*
X107107683Y-110790000D01*
X106905582Y-110822009D01*
X106710968Y-110885244D01*
X106528644Y-110978143D01*
X106484077Y-111010523D01*
X106484077Y-111010524D01*
X107163554Y-111690000D01*
X107157339Y-111690000D01*
X107055606Y-111717259D01*
X106964394Y-111769920D01*
X106889920Y-111844394D01*
X106837259Y-111935606D01*
X106810000Y-112037339D01*
X106810000Y-112043553D01*
X106130524Y-111364077D01*
X106130523Y-111364077D01*
X106098143Y-111408644D01*
X106005244Y-111590968D01*
X105942009Y-111785582D01*
X105910000Y-111987682D01*
X100890500Y-111987682D01*
X100890500Y-111987648D01*
X100874852Y-111888851D01*
X100858477Y-111785465D01*
X100825429Y-111683756D01*
X100795220Y-111590781D01*
X100795218Y-111590778D01*
X100795218Y-111590776D01*
X100749171Y-111500405D01*
X100702287Y-111408390D01*
X100670092Y-111364077D01*
X100581971Y-111242786D01*
X100437213Y-111098028D01*
X100271613Y-110977715D01*
X100271612Y-110977714D01*
X100271610Y-110977713D01*
X100208895Y-110945758D01*
X100089223Y-110884781D01*
X99894534Y-110821522D01*
X99719995Y-110793878D01*
X99692352Y-110789500D01*
X99487648Y-110789500D01*
X99463329Y-110793351D01*
X99285465Y-110821522D01*
X99090776Y-110884781D01*
X98908386Y-110977715D01*
X98742786Y-111098028D01*
X98598028Y-111242786D01*
X98477715Y-111408386D01*
X98384781Y-111590776D01*
X98321522Y-111785465D01*
X98289500Y-111987648D01*
X94470500Y-111987648D01*
X94470500Y-111933945D01*
X94440447Y-111744199D01*
X94403596Y-111630782D01*
X94381083Y-111561493D01*
X94359949Y-111520016D01*
X94293865Y-111390319D01*
X94180945Y-111234898D01*
X94045102Y-111099055D01*
X93889681Y-110986135D01*
X93828487Y-110954955D01*
X93718506Y-110898916D01*
X93535802Y-110839553D01*
X93421958Y-110821522D01*
X93346055Y-110809500D01*
X93153945Y-110809500D01*
X93097696Y-110818409D01*
X92964197Y-110839553D01*
X92781493Y-110898916D01*
X92610318Y-110986135D01*
X92576750Y-111010524D01*
X92454898Y-111099055D01*
X92454896Y-111099057D01*
X92454895Y-111099057D01*
X92319057Y-111234895D01*
X92319057Y-111234896D01*
X92319055Y-111234898D01*
X92297459Y-111264623D01*
X92206135Y-111390318D01*
X92118916Y-111561493D01*
X92097931Y-111626081D01*
X92058494Y-111683756D01*
X91994135Y-111710955D01*
X91925289Y-111699041D01*
X91873813Y-111651797D01*
X91862069Y-111626081D01*
X91841083Y-111561493D01*
X91819949Y-111520016D01*
X91753865Y-111390319D01*
X91640945Y-111234898D01*
X91505102Y-111099055D01*
X91349681Y-110986135D01*
X91288487Y-110954955D01*
X91178506Y-110898916D01*
X90995802Y-110839553D01*
X90881958Y-110821522D01*
X90806055Y-110809500D01*
X90613945Y-110809500D01*
X90557696Y-110818409D01*
X90424197Y-110839553D01*
X90241493Y-110898916D01*
X90070318Y-110986135D01*
X90036750Y-111010524D01*
X89914898Y-111099055D01*
X89914896Y-111099057D01*
X89914895Y-111099057D01*
X89779057Y-111234895D01*
X89779057Y-111234896D01*
X89779055Y-111234898D01*
X89757459Y-111264623D01*
X89666135Y-111390318D01*
X89578916Y-111561493D01*
X89557931Y-111626081D01*
X89518494Y-111683756D01*
X89454135Y-111710955D01*
X89385289Y-111699041D01*
X89333813Y-111651797D01*
X89322069Y-111626081D01*
X89301083Y-111561493D01*
X89279949Y-111520016D01*
X89213865Y-111390319D01*
X89100945Y-111234898D01*
X88965102Y-111099055D01*
X88809681Y-110986135D01*
X88748487Y-110954955D01*
X88638506Y-110898916D01*
X88455802Y-110839553D01*
X88341958Y-110821522D01*
X88266055Y-110809500D01*
X88073945Y-110809500D01*
X88017696Y-110818409D01*
X87884197Y-110839553D01*
X87701493Y-110898916D01*
X87530318Y-110986135D01*
X87496750Y-111010524D01*
X87374898Y-111099055D01*
X87374896Y-111099057D01*
X87374895Y-111099057D01*
X87239057Y-111234895D01*
X87239057Y-111234896D01*
X87239055Y-111234898D01*
X87217459Y-111264623D01*
X87126135Y-111390318D01*
X87038916Y-111561493D01*
X86979553Y-111744197D01*
X86956642Y-111888851D01*
X86949500Y-111933945D01*
X79878519Y-111933945D01*
X79796558Y-111811281D01*
X79653718Y-111668441D01*
X79485762Y-111556217D01*
X79485752Y-111556212D01*
X79299127Y-111478909D01*
X79299119Y-111478907D01*
X79101007Y-111439500D01*
X79101003Y-111439500D01*
X78898997Y-111439500D01*
X78898992Y-111439500D01*
X78700880Y-111478907D01*
X78700872Y-111478909D01*
X78514244Y-111556213D01*
X78433891Y-111609904D01*
X78367213Y-111630782D01*
X78299833Y-111612297D01*
X78296109Y-111609904D01*
X78215755Y-111556213D01*
X78029127Y-111478909D01*
X78029119Y-111478907D01*
X77831007Y-111439500D01*
X77831003Y-111439500D01*
X77628997Y-111439500D01*
X77628992Y-111439500D01*
X77430880Y-111478907D01*
X77430868Y-111478910D01*
X77349661Y-111512547D01*
X77280191Y-111520016D01*
X77235140Y-111500405D01*
X77234872Y-111500897D01*
X77229374Y-111497894D01*
X77227895Y-111497251D01*
X77227086Y-111496645D01*
X77092379Y-111446403D01*
X77092372Y-111446401D01*
X77032844Y-111440000D01*
X76710000Y-111440000D01*
X76710000Y-112324134D01*
X76707617Y-112348326D01*
X76704500Y-112363995D01*
X76704500Y-112404170D01*
X76690255Y-112389925D01*
X76604745Y-112340556D01*
X76509370Y-112315000D01*
X76410630Y-112315000D01*
X76315255Y-112340556D01*
X76229745Y-112389925D01*
X76210000Y-112409670D01*
X76210000Y-111440000D01*
X75887155Y-111440000D01*
X75827627Y-111446401D01*
X75827620Y-111446403D01*
X75692913Y-111496645D01*
X75692906Y-111496649D01*
X75577812Y-111582809D01*
X75577809Y-111582812D01*
X75491649Y-111697906D01*
X75491645Y-111697913D01*
X75441403Y-111832620D01*
X75441401Y-111832627D01*
X75435000Y-111892155D01*
X68767999Y-111892155D01*
X68767999Y-111264628D01*
X68761591Y-111205017D01*
X68728972Y-111117562D01*
X68711297Y-111070171D01*
X68711293Y-111070164D01*
X68625047Y-110954955D01*
X68625044Y-110954952D01*
X68509835Y-110868706D01*
X68509828Y-110868702D01*
X68374982Y-110818408D01*
X68374983Y-110818408D01*
X68315383Y-110812001D01*
X68315381Y-110812000D01*
X68315373Y-110812000D01*
X68315364Y-110812000D01*
X66644629Y-110812000D01*
X66644623Y-110812001D01*
X66585016Y-110818408D01*
X66450171Y-110868702D01*
X66450164Y-110868706D01*
X66334955Y-110954952D01*
X66334952Y-110954955D01*
X66248706Y-111070164D01*
X66248702Y-111070171D01*
X66198408Y-111205016D01*
X66197163Y-111216604D01*
X66170425Y-111281155D01*
X66113032Y-111321003D01*
X66043207Y-111323496D01*
X65983118Y-111287843D01*
X65973557Y-111276234D01*
X65962439Y-111260932D01*
X65962433Y-111260925D01*
X65819074Y-111117566D01*
X65819069Y-111117562D01*
X65655062Y-110998405D01*
X65655061Y-110998404D01*
X65655059Y-110998403D01*
X65597186Y-110968915D01*
X65474420Y-110906362D01*
X65474417Y-110906361D01*
X65281608Y-110843715D01*
X65181487Y-110827857D01*
X65081368Y-110812000D01*
X64878632Y-110812000D01*
X64818513Y-110821522D01*
X64678391Y-110843715D01*
X64485582Y-110906361D01*
X64485579Y-110906362D01*
X64304937Y-110998405D01*
X64140930Y-111117562D01*
X64140925Y-111117566D01*
X63997566Y-111260925D01*
X63997562Y-111260930D01*
X63878405Y-111424937D01*
X63786362Y-111605579D01*
X63786361Y-111605582D01*
X63723715Y-111798391D01*
X63692000Y-111998632D01*
X55070500Y-111998632D01*
X55070500Y-109522387D01*
X110055000Y-109522387D01*
X110055000Y-109730946D01*
X110087626Y-109936939D01*
X110152075Y-110135294D01*
X110246759Y-110321118D01*
X110282627Y-110370485D01*
X110282627Y-110370486D01*
X110856212Y-109796901D01*
X110867482Y-109838959D01*
X110939890Y-109964375D01*
X111042292Y-110066777D01*
X111167708Y-110139185D01*
X111209765Y-110150454D01*
X110636179Y-110724038D01*
X110636180Y-110724039D01*
X110685543Y-110759903D01*
X110685556Y-110759911D01*
X110871372Y-110854591D01*
X111069727Y-110919040D01*
X111275721Y-110951667D01*
X111484279Y-110951667D01*
X111690272Y-110919040D01*
X111888627Y-110854591D01*
X112074451Y-110759907D01*
X112123818Y-110724039D01*
X112123818Y-110724038D01*
X111550234Y-110150454D01*
X111592292Y-110139185D01*
X111717708Y-110066777D01*
X111820110Y-109964375D01*
X111892518Y-109838959D01*
X111903787Y-109796901D01*
X112477371Y-110370485D01*
X112477372Y-110370485D01*
X112513240Y-110321118D01*
X112607924Y-110135294D01*
X112672373Y-109936939D01*
X112705000Y-109730946D01*
X112705000Y-109522387D01*
X112672373Y-109316394D01*
X112607924Y-109118039D01*
X112513244Y-108932223D01*
X112513236Y-108932210D01*
X112477372Y-108882847D01*
X112477371Y-108882846D01*
X111903787Y-109456431D01*
X111892518Y-109414375D01*
X111820110Y-109288959D01*
X111717708Y-109186557D01*
X111592292Y-109114149D01*
X111550233Y-109102879D01*
X112123819Y-108529294D01*
X112074451Y-108493426D01*
X111888627Y-108398742D01*
X111690272Y-108334293D01*
X111484279Y-108301667D01*
X111275721Y-108301667D01*
X111069727Y-108334293D01*
X110871372Y-108398742D01*
X110685552Y-108493424D01*
X110636180Y-108529294D01*
X111209766Y-109102879D01*
X111167708Y-109114149D01*
X111042292Y-109186557D01*
X110939890Y-109288959D01*
X110867482Y-109414375D01*
X110856212Y-109456432D01*
X110282627Y-108882847D01*
X110246757Y-108932219D01*
X110152075Y-109118039D01*
X110087626Y-109316394D01*
X110055000Y-109522387D01*
X55070500Y-109522387D01*
X55070500Y-102177248D01*
X57305541Y-102177248D01*
X57305541Y-103872983D01*
X57305542Y-103872989D01*
X57311949Y-103932596D01*
X57362243Y-104067441D01*
X57362247Y-104067448D01*
X57448493Y-104182657D01*
X57448496Y-104182660D01*
X57563705Y-104268906D01*
X57563712Y-104268910D01*
X57698558Y-104319204D01*
X57698557Y-104319204D01*
X57705485Y-104319948D01*
X57758168Y-104325613D01*
X59453913Y-104325612D01*
X59513524Y-104319204D01*
X59648372Y-104268909D01*
X59763587Y-104182659D01*
X59827226Y-104097648D01*
X98599500Y-104097648D01*
X98599500Y-104302351D01*
X98631522Y-104504534D01*
X98694781Y-104699223D01*
X98758691Y-104824653D01*
X98782363Y-104871111D01*
X98787715Y-104881613D01*
X98908028Y-105047213D01*
X99052786Y-105191971D01*
X99202388Y-105300661D01*
X99218390Y-105312287D01*
X99325776Y-105367003D01*
X99400776Y-105405218D01*
X99400778Y-105405218D01*
X99400781Y-105405220D01*
X99505137Y-105439127D01*
X99595465Y-105468477D01*
X99696557Y-105484488D01*
X99797648Y-105500500D01*
X99797649Y-105500500D01*
X100002351Y-105500500D01*
X100002352Y-105500500D01*
X100204534Y-105468477D01*
X100399219Y-105405220D01*
X100581610Y-105312287D01*
X100716055Y-105214608D01*
X100747213Y-105191971D01*
X100747215Y-105191968D01*
X100747219Y-105191966D01*
X100891966Y-105047219D01*
X100891968Y-105047215D01*
X100891971Y-105047213D01*
X100944732Y-104974590D01*
X101012287Y-104881610D01*
X101105220Y-104699219D01*
X101168477Y-104504534D01*
X101200500Y-104302352D01*
X101200500Y-104097648D01*
X106219500Y-104097648D01*
X106219500Y-104302351D01*
X106251522Y-104504534D01*
X106314781Y-104699223D01*
X106378691Y-104824653D01*
X106402363Y-104871111D01*
X106407715Y-104881613D01*
X106528028Y-105047213D01*
X106672786Y-105191971D01*
X106822388Y-105300661D01*
X106838390Y-105312287D01*
X106945776Y-105367003D01*
X107020776Y-105405218D01*
X107020778Y-105405218D01*
X107020781Y-105405220D01*
X107125137Y-105439127D01*
X107215465Y-105468477D01*
X107316557Y-105484488D01*
X107417648Y-105500500D01*
X107417649Y-105500500D01*
X107622351Y-105500500D01*
X107622352Y-105500500D01*
X107824534Y-105468477D01*
X108019219Y-105405220D01*
X108201610Y-105312287D01*
X108336055Y-105214608D01*
X108367213Y-105191971D01*
X108367215Y-105191968D01*
X108367219Y-105191966D01*
X108511966Y-105047219D01*
X108511968Y-105047215D01*
X108511971Y-105047213D01*
X108564732Y-104974590D01*
X108632287Y-104881610D01*
X108725220Y-104699219D01*
X108788477Y-104504534D01*
X108820500Y-104302352D01*
X108820500Y-104097648D01*
X108794548Y-103933796D01*
X108788477Y-103895465D01*
X108743598Y-103757344D01*
X108725220Y-103700781D01*
X108725218Y-103700778D01*
X108725218Y-103700776D01*
X108632287Y-103518390D01*
X108568086Y-103430024D01*
X108568085Y-103430021D01*
X108517552Y-103360468D01*
X110154500Y-103360468D01*
X110154500Y-105106203D01*
X110154501Y-105106209D01*
X110160908Y-105165816D01*
X110211202Y-105300661D01*
X110211206Y-105300668D01*
X110297452Y-105415877D01*
X110297455Y-105415880D01*
X110412664Y-105502126D01*
X110412671Y-105502130D01*
X110547517Y-105552424D01*
X110547516Y-105552424D01*
X110554444Y-105553168D01*
X110607127Y-105558833D01*
X112352872Y-105558832D01*
X112412483Y-105552424D01*
X112547331Y-105502129D01*
X112662546Y-105415879D01*
X112748796Y-105300664D01*
X112799091Y-105165816D01*
X112805500Y-105106206D01*
X112805499Y-103360461D01*
X112799091Y-103300850D01*
X112773722Y-103232833D01*
X112748797Y-103166004D01*
X112748793Y-103165997D01*
X112662547Y-103050788D01*
X112662544Y-103050785D01*
X112547335Y-102964539D01*
X112547328Y-102964535D01*
X112412482Y-102914241D01*
X112412483Y-102914241D01*
X112352883Y-102907834D01*
X112352881Y-102907833D01*
X112352873Y-102907833D01*
X112352864Y-102907833D01*
X110607129Y-102907833D01*
X110607123Y-102907834D01*
X110547516Y-102914241D01*
X110412671Y-102964535D01*
X110412664Y-102964539D01*
X110297455Y-103050785D01*
X110297452Y-103050788D01*
X110211206Y-103165997D01*
X110211202Y-103166004D01*
X110160908Y-103300850D01*
X110155325Y-103352786D01*
X110154501Y-103360456D01*
X110154500Y-103360468D01*
X108517552Y-103360468D01*
X108511971Y-103352787D01*
X108511967Y-103352782D01*
X108367213Y-103208028D01*
X108201613Y-103087715D01*
X108201612Y-103087714D01*
X108201610Y-103087713D01*
X108129135Y-103050785D01*
X108019223Y-102994781D01*
X107824534Y-102931522D01*
X107649995Y-102903878D01*
X107622352Y-102899500D01*
X107417648Y-102899500D01*
X107393329Y-102903351D01*
X107215465Y-102931522D01*
X107020776Y-102994781D01*
X106838386Y-103087715D01*
X106672786Y-103208028D01*
X106528028Y-103352786D01*
X106407715Y-103518386D01*
X106314781Y-103700776D01*
X106251522Y-103895465D01*
X106219500Y-104097648D01*
X101200500Y-104097648D01*
X101174548Y-103933796D01*
X101168477Y-103895465D01*
X101123598Y-103757344D01*
X101105220Y-103700781D01*
X101105218Y-103700778D01*
X101105218Y-103700776D01*
X101049777Y-103591968D01*
X101012287Y-103518390D01*
X100998098Y-103498860D01*
X100891971Y-103352786D01*
X100747213Y-103208028D01*
X100581613Y-103087715D01*
X100581612Y-103087714D01*
X100581610Y-103087713D01*
X100509135Y-103050785D01*
X100399223Y-102994781D01*
X100204534Y-102931522D01*
X100029995Y-102903878D01*
X100002352Y-102899500D01*
X99797648Y-102899500D01*
X99773329Y-102903351D01*
X99595465Y-102931522D01*
X99400776Y-102994781D01*
X99218386Y-103087715D01*
X99052786Y-103208028D01*
X98908028Y-103352786D01*
X98787715Y-103518386D01*
X98694781Y-103700776D01*
X98631522Y-103895465D01*
X98599500Y-104097648D01*
X59827226Y-104097648D01*
X59849837Y-104067444D01*
X59900132Y-103932596D01*
X59906541Y-103872986D01*
X59906540Y-102177241D01*
X59900132Y-102117630D01*
X59862438Y-102016568D01*
X59849838Y-101982784D01*
X59849834Y-101982777D01*
X59763588Y-101867568D01*
X59763585Y-101867565D01*
X59648376Y-101781319D01*
X59648369Y-101781315D01*
X59513523Y-101731021D01*
X59513524Y-101731021D01*
X59453924Y-101724614D01*
X59453922Y-101724613D01*
X59453914Y-101724613D01*
X59453905Y-101724613D01*
X59450589Y-101724435D01*
X59450673Y-101722855D01*
X59389620Y-101704928D01*
X59343865Y-101652124D01*
X59336214Y-101608838D01*
X58652488Y-100925113D01*
X58658702Y-100925113D01*
X58760435Y-100897854D01*
X58851647Y-100845193D01*
X58926121Y-100770719D01*
X58978782Y-100679507D01*
X59006041Y-100577774D01*
X59006041Y-100571560D01*
X59685515Y-101251034D01*
X59717900Y-101206462D01*
X59810796Y-101024144D01*
X59847087Y-100912455D01*
X59874031Y-100829530D01*
X59906041Y-100627430D01*
X59906041Y-100422795D01*
X59874031Y-100220695D01*
X59810796Y-100026081D01*
X59717900Y-99843763D01*
X59685515Y-99799190D01*
X59685515Y-99799189D01*
X59006041Y-100478664D01*
X59006041Y-100472452D01*
X58978782Y-100370719D01*
X58926121Y-100279507D01*
X58851647Y-100205033D01*
X58760435Y-100152372D01*
X58658702Y-100125113D01*
X58652487Y-100125113D01*
X59331963Y-99445637D01*
X59331962Y-99445636D01*
X59287400Y-99413260D01*
X59287391Y-99413254D01*
X59105072Y-99320357D01*
X58910458Y-99257122D01*
X58708358Y-99225113D01*
X58503724Y-99225113D01*
X58301623Y-99257122D01*
X58107009Y-99320357D01*
X57924685Y-99413256D01*
X57880118Y-99445636D01*
X57880118Y-99445637D01*
X58559595Y-100125113D01*
X58553380Y-100125113D01*
X58451647Y-100152372D01*
X58360435Y-100205033D01*
X58285961Y-100279507D01*
X58233300Y-100370719D01*
X58206041Y-100472452D01*
X58206041Y-100478666D01*
X57526565Y-99799190D01*
X57526564Y-99799190D01*
X57494184Y-99843757D01*
X57401285Y-100026081D01*
X57338050Y-100220695D01*
X57306041Y-100422795D01*
X57306041Y-100627430D01*
X57338050Y-100829530D01*
X57401285Y-101024144D01*
X57494182Y-101206463D01*
X57494188Y-101206472D01*
X57526564Y-101251034D01*
X57526565Y-101251035D01*
X58206041Y-100571559D01*
X58206041Y-100577774D01*
X58233300Y-100679507D01*
X58285961Y-100770719D01*
X58360435Y-100845193D01*
X58451647Y-100897854D01*
X58553380Y-100925113D01*
X58559594Y-100925113D01*
X57875108Y-101609596D01*
X57864674Y-101659263D01*
X57815622Y-101709019D01*
X57761406Y-101723113D01*
X57761464Y-101724212D01*
X57761470Y-101724259D01*
X57761467Y-101724259D01*
X57761477Y-101724437D01*
X57758164Y-101724614D01*
X57698557Y-101731021D01*
X57563712Y-101781315D01*
X57563705Y-101781319D01*
X57448496Y-101867565D01*
X57448493Y-101867568D01*
X57362247Y-101982777D01*
X57362243Y-101982784D01*
X57311949Y-102117630D01*
X57305542Y-102177229D01*
X57305542Y-102177236D01*
X57305541Y-102177248D01*
X55070500Y-102177248D01*
X55070500Y-93497023D01*
X57305541Y-93497023D01*
X57305541Y-95192758D01*
X57305542Y-95192764D01*
X57311949Y-95252371D01*
X57362243Y-95387216D01*
X57362247Y-95387223D01*
X57448493Y-95502432D01*
X57448496Y-95502435D01*
X57563705Y-95588681D01*
X57563712Y-95588685D01*
X57608659Y-95605449D01*
X57698558Y-95638979D01*
X57758168Y-95645388D01*
X57758194Y-95645387D01*
X57761494Y-95645566D01*
X57761406Y-95647196D01*
X57822279Y-95664955D01*
X57868125Y-95717679D01*
X57875845Y-95761139D01*
X58559595Y-96444888D01*
X58553380Y-96444888D01*
X58451647Y-96472147D01*
X58360435Y-96524808D01*
X58285961Y-96599282D01*
X58233300Y-96690494D01*
X58206041Y-96792227D01*
X58206041Y-96798441D01*
X57526565Y-96118965D01*
X57526564Y-96118965D01*
X57494184Y-96163532D01*
X57401285Y-96345856D01*
X57338050Y-96540470D01*
X57306041Y-96742570D01*
X57306041Y-96947205D01*
X57338050Y-97149305D01*
X57401285Y-97343919D01*
X57494182Y-97526238D01*
X57494188Y-97526247D01*
X57526564Y-97570809D01*
X57526565Y-97570810D01*
X58206041Y-96891334D01*
X58206041Y-96897549D01*
X58233300Y-96999282D01*
X58285961Y-97090494D01*
X58360435Y-97164968D01*
X58451647Y-97217629D01*
X58553380Y-97244888D01*
X58559594Y-97244888D01*
X57880117Y-97924362D01*
X57924691Y-97956747D01*
X58107009Y-98049643D01*
X58301623Y-98112878D01*
X58503724Y-98144888D01*
X58708358Y-98144888D01*
X58910458Y-98112878D01*
X59105072Y-98049643D01*
X59287390Y-97956747D01*
X59331962Y-97924362D01*
X58652488Y-97244888D01*
X58658702Y-97244888D01*
X58760435Y-97217629D01*
X58851647Y-97164968D01*
X58926121Y-97090494D01*
X58978782Y-96999282D01*
X59006041Y-96897549D01*
X59006041Y-96891335D01*
X59685515Y-97570809D01*
X59717900Y-97526237D01*
X59810796Y-97343919D01*
X59874031Y-97149305D01*
X59906041Y-96947205D01*
X59906041Y-96742570D01*
X59874031Y-96540470D01*
X59810796Y-96345856D01*
X59717900Y-96163538D01*
X59685515Y-96118965D01*
X59685515Y-96118964D01*
X59006041Y-96798439D01*
X59006041Y-96792227D01*
X58978782Y-96690494D01*
X58926121Y-96599282D01*
X58851647Y-96524808D01*
X58760435Y-96472147D01*
X58658702Y-96444888D01*
X58652487Y-96444888D01*
X59336972Y-95760403D01*
X59347405Y-95710740D01*
X59396456Y-95660982D01*
X59450678Y-95646936D01*
X59450617Y-95645788D01*
X59450612Y-95645742D01*
X59450614Y-95645741D01*
X59450605Y-95645564D01*
X59453898Y-95645387D01*
X59453913Y-95645387D01*
X59513524Y-95638979D01*
X59648372Y-95588684D01*
X59763587Y-95502434D01*
X59849837Y-95387219D01*
X59900132Y-95252371D01*
X59906541Y-95192761D01*
X59906541Y-94989635D01*
X64555541Y-94989635D01*
X64555541Y-96990370D01*
X64555542Y-96990376D01*
X64561949Y-97049983D01*
X64612243Y-97184828D01*
X64612247Y-97184835D01*
X64698493Y-97300044D01*
X64698496Y-97300047D01*
X64813705Y-97386293D01*
X64813708Y-97386295D01*
X64813709Y-97386295D01*
X64813710Y-97386296D01*
X64842066Y-97396872D01*
X64897999Y-97438742D01*
X64922417Y-97504206D01*
X64907566Y-97572479D01*
X64899051Y-97585939D01*
X64766254Y-97768719D01*
X64662458Y-97972429D01*
X64591806Y-98189871D01*
X64577532Y-98280000D01*
X65565293Y-98280000D01*
X65543523Y-98317708D01*
X65506041Y-98457591D01*
X65506041Y-98602409D01*
X65543523Y-98742292D01*
X65565293Y-98780000D01*
X64577532Y-98780000D01*
X64591806Y-98870128D01*
X64662458Y-99087570D01*
X64766252Y-99291276D01*
X64900638Y-99476242D01*
X65062298Y-99637902D01*
X65062304Y-99637907D01*
X65146904Y-99699372D01*
X65189570Y-99754701D01*
X65195549Y-99824315D01*
X65162944Y-99886110D01*
X65146905Y-99900007D01*
X65061981Y-99961709D01*
X65061972Y-99961716D01*
X64900257Y-100123431D01*
X64900257Y-100123432D01*
X64900255Y-100123434D01*
X64846174Y-100197870D01*
X64765824Y-100308461D01*
X64661991Y-100512244D01*
X64591319Y-100729750D01*
X64591319Y-100729753D01*
X64555541Y-100955646D01*
X64555541Y-101184353D01*
X64591319Y-101410246D01*
X64591319Y-101410249D01*
X64661991Y-101627755D01*
X64743658Y-101788034D01*
X64765824Y-101831538D01*
X64900255Y-102016566D01*
X65061975Y-102178286D01*
X65247003Y-102312717D01*
X65389779Y-102385465D01*
X65450785Y-102416549D01*
X65668292Y-102487221D01*
X65668293Y-102487221D01*
X65668296Y-102487222D01*
X65894187Y-102523000D01*
X65894188Y-102523000D01*
X66217894Y-102523000D01*
X66217895Y-102523000D01*
X66443786Y-102487222D01*
X66443789Y-102487221D01*
X66443790Y-102487221D01*
X66661296Y-102416549D01*
X66661296Y-102416548D01*
X66661299Y-102416548D01*
X66865079Y-102312717D01*
X67050107Y-102178286D01*
X67211827Y-102016566D01*
X67346258Y-101831538D01*
X67450089Y-101627758D01*
X67455990Y-101609596D01*
X67520762Y-101410249D01*
X67520762Y-101410248D01*
X67520763Y-101410245D01*
X67556541Y-101184354D01*
X67556541Y-100955646D01*
X67520763Y-100729755D01*
X67520762Y-100729751D01*
X67520762Y-100729750D01*
X67450090Y-100512244D01*
X67429815Y-100472452D01*
X67346258Y-100308462D01*
X67211827Y-100123434D01*
X67050107Y-99961714D01*
X66965175Y-99900007D01*
X66922511Y-99844678D01*
X66916532Y-99775064D01*
X66949138Y-99713269D01*
X66965178Y-99699371D01*
X67049780Y-99637905D01*
X67211443Y-99476242D01*
X67345829Y-99291276D01*
X67449623Y-99087570D01*
X67520275Y-98870128D01*
X67534550Y-98780000D01*
X66546789Y-98780000D01*
X66568559Y-98742292D01*
X66606041Y-98602409D01*
X66606041Y-98457591D01*
X66568559Y-98317708D01*
X66546789Y-98280000D01*
X67534550Y-98280000D01*
X67520275Y-98189871D01*
X67449623Y-97972429D01*
X67345828Y-97768721D01*
X67213029Y-97585939D01*
X67189549Y-97520133D01*
X67205374Y-97452079D01*
X67255480Y-97403384D01*
X67270007Y-97396875D01*
X67298372Y-97386296D01*
X67413587Y-97300046D01*
X67499837Y-97184831D01*
X67550132Y-97049983D01*
X67556541Y-96990373D01*
X67556540Y-94989628D01*
X67550132Y-94930017D01*
X67499837Y-94795169D01*
X67499836Y-94795168D01*
X67499834Y-94795164D01*
X67413588Y-94679955D01*
X67413585Y-94679952D01*
X67298376Y-94593706D01*
X67298369Y-94593702D01*
X67163523Y-94543408D01*
X67163524Y-94543408D01*
X67103924Y-94537001D01*
X67103922Y-94537000D01*
X67103914Y-94537000D01*
X67103905Y-94537000D01*
X65008170Y-94537000D01*
X65008164Y-94537001D01*
X64948557Y-94543408D01*
X64813712Y-94593702D01*
X64813705Y-94593706D01*
X64698496Y-94679952D01*
X64698493Y-94679955D01*
X64612247Y-94795164D01*
X64612243Y-94795171D01*
X64561949Y-94930017D01*
X64555898Y-94986306D01*
X64555542Y-94989623D01*
X64555541Y-94989635D01*
X59906541Y-94989635D01*
X59906540Y-93497016D01*
X59900132Y-93437405D01*
X59897914Y-93431459D01*
X59849838Y-93302559D01*
X59849834Y-93302552D01*
X59763588Y-93187343D01*
X59763585Y-93187340D01*
X59648376Y-93101094D01*
X59648369Y-93101090D01*
X59513523Y-93050796D01*
X59513524Y-93050796D01*
X59453924Y-93044389D01*
X59453922Y-93044388D01*
X59453914Y-93044388D01*
X59453905Y-93044388D01*
X57758170Y-93044388D01*
X57758164Y-93044389D01*
X57698557Y-93050796D01*
X57563712Y-93101090D01*
X57563705Y-93101094D01*
X57448496Y-93187340D01*
X57448493Y-93187343D01*
X57362247Y-93302552D01*
X57362243Y-93302559D01*
X57311949Y-93437405D01*
X57305542Y-93497004D01*
X57305542Y-93497011D01*
X57305541Y-93497023D01*
X55070500Y-93497023D01*
X55070500Y-88710310D01*
X55090185Y-88643271D01*
X55142989Y-88597516D01*
X55212147Y-88587572D01*
X55275703Y-88616597D01*
X55312431Y-88671992D01*
X55362600Y-88826396D01*
X55468039Y-89033331D01*
X55604551Y-89221224D01*
X55768776Y-89385449D01*
X55956669Y-89521961D01*
X56054436Y-89571776D01*
X56163599Y-89627398D01*
X56163601Y-89627398D01*
X56163604Y-89627400D01*
X56384486Y-89699169D01*
X56502668Y-89717886D01*
X56613871Y-89735500D01*
X56613876Y-89735500D01*
X56846129Y-89735500D01*
X56947502Y-89719443D01*
X57075514Y-89699169D01*
X57296396Y-89627400D01*
X57503331Y-89521961D01*
X57691224Y-89385449D01*
X57779854Y-89296819D01*
X57841177Y-89263334D01*
X57867535Y-89260500D01*
X60672465Y-89260500D01*
X60739504Y-89280185D01*
X60760146Y-89296819D01*
X60848776Y-89385449D01*
X61036669Y-89521961D01*
X61134436Y-89571776D01*
X61243599Y-89627398D01*
X61243601Y-89627398D01*
X61243604Y-89627400D01*
X61464486Y-89699169D01*
X61582668Y-89717886D01*
X61693871Y-89735500D01*
X61693876Y-89735500D01*
X61926129Y-89735500D01*
X62027502Y-89719443D01*
X62155514Y-89699169D01*
X62376396Y-89627400D01*
X62583331Y-89521961D01*
X62771224Y-89385449D01*
X62829854Y-89326819D01*
X62891177Y-89293334D01*
X62917535Y-89290500D01*
X70552199Y-89290500D01*
X70619238Y-89310185D01*
X70664993Y-89362989D01*
X70669903Y-89375492D01*
X70670529Y-89377380D01*
X70697685Y-89459331D01*
X70697687Y-89459336D01*
X70730228Y-89512093D01*
X70789788Y-89608656D01*
X70913844Y-89732712D01*
X71063166Y-89824814D01*
X71229703Y-89879999D01*
X71332491Y-89890500D01*
X72132508Y-89890499D01*
X72132516Y-89890498D01*
X72132519Y-89890498D01*
X72188802Y-89884748D01*
X72235297Y-89879999D01*
X72401834Y-89824814D01*
X72551156Y-89732712D01*
X72675212Y-89608656D01*
X72767314Y-89459334D01*
X72822499Y-89292797D01*
X72833000Y-89190009D01*
X72833000Y-89189986D01*
X75192501Y-89189986D01*
X75202994Y-89292697D01*
X75258141Y-89459119D01*
X75258143Y-89459124D01*
X75350184Y-89608345D01*
X75474154Y-89732315D01*
X75623375Y-89824356D01*
X75623380Y-89824358D01*
X75789802Y-89879505D01*
X75789809Y-89879506D01*
X75892519Y-89889999D01*
X76042499Y-89889999D01*
X76542500Y-89889999D01*
X76692472Y-89889999D01*
X76692486Y-89889998D01*
X76795197Y-89879505D01*
X76961619Y-89824358D01*
X76961624Y-89824356D01*
X77110845Y-89732315D01*
X77234815Y-89608345D01*
X77326856Y-89459124D01*
X77326858Y-89459119D01*
X77382005Y-89292697D01*
X77382006Y-89292690D01*
X77392499Y-89189986D01*
X77392500Y-89189973D01*
X77392500Y-88540000D01*
X76542500Y-88540000D01*
X76542500Y-89889999D01*
X76042499Y-89889999D01*
X76042500Y-89889998D01*
X76042500Y-88540000D01*
X75192501Y-88540000D01*
X75192501Y-89189986D01*
X72833000Y-89189986D01*
X72832999Y-88238910D01*
X72832999Y-87390013D01*
X75192500Y-87390013D01*
X75192500Y-88040000D01*
X76042500Y-88040000D01*
X76542500Y-88040000D01*
X77392499Y-88040000D01*
X77392499Y-87390028D01*
X77392498Y-87390013D01*
X77382005Y-87287302D01*
X77326858Y-87120880D01*
X77326856Y-87120875D01*
X77234815Y-86971654D01*
X77110845Y-86847684D01*
X76961624Y-86755643D01*
X76961619Y-86755641D01*
X76795197Y-86700494D01*
X76795190Y-86700493D01*
X76692486Y-86690000D01*
X76542500Y-86690000D01*
X76542500Y-88040000D01*
X76042500Y-88040000D01*
X76042500Y-86690000D01*
X75892527Y-86690000D01*
X75892512Y-86690001D01*
X75789802Y-86700494D01*
X75623380Y-86755641D01*
X75623375Y-86755643D01*
X75474154Y-86847684D01*
X75350184Y-86971654D01*
X75258143Y-87120875D01*
X75258141Y-87120880D01*
X75202994Y-87287302D01*
X75202993Y-87287309D01*
X75192500Y-87390013D01*
X72832999Y-87390013D01*
X72832999Y-87389998D01*
X72832998Y-87389981D01*
X72822499Y-87287203D01*
X72822498Y-87287200D01*
X72816737Y-87269815D01*
X72767314Y-87120666D01*
X72675212Y-86971344D01*
X72551156Y-86847288D01*
X72401834Y-86755186D01*
X72235297Y-86700001D01*
X72235295Y-86700000D01*
X72132510Y-86689500D01*
X71332498Y-86689500D01*
X71332480Y-86689501D01*
X71229703Y-86700000D01*
X71229700Y-86700001D01*
X71063168Y-86755185D01*
X71063163Y-86755187D01*
X70913842Y-86847289D01*
X70789789Y-86971342D01*
X70697687Y-87120663D01*
X70697685Y-87120668D01*
X70669905Y-87204504D01*
X70630132Y-87261949D01*
X70565616Y-87288772D01*
X70552199Y-87289500D01*
X62977535Y-87289500D01*
X62910496Y-87269815D01*
X62889854Y-87253181D01*
X62771226Y-87134553D01*
X62771224Y-87134551D01*
X62583331Y-86998039D01*
X62531548Y-86971654D01*
X62376400Y-86892601D01*
X62155514Y-86820831D01*
X61926129Y-86784500D01*
X61926124Y-86784500D01*
X61693876Y-86784500D01*
X61693871Y-86784500D01*
X61464485Y-86820831D01*
X61243599Y-86892601D01*
X61036668Y-86998039D01*
X60848773Y-87134553D01*
X60760146Y-87223181D01*
X60698823Y-87256666D01*
X60672465Y-87259500D01*
X57867535Y-87259500D01*
X57800496Y-87239815D01*
X57779854Y-87223181D01*
X57691226Y-87134553D01*
X57691224Y-87134551D01*
X57503331Y-86998039D01*
X57451548Y-86971654D01*
X57296400Y-86892601D01*
X57075514Y-86820831D01*
X56846129Y-86784500D01*
X56846124Y-86784500D01*
X56613876Y-86784500D01*
X56613871Y-86784500D01*
X56384485Y-86820831D01*
X56163599Y-86892601D01*
X55956668Y-86998039D01*
X55768773Y-87134553D01*
X55604557Y-87298770D01*
X55604553Y-87298773D01*
X55468039Y-87486668D01*
X55362601Y-87693599D01*
X55312431Y-87848008D01*
X55272993Y-87905683D01*
X55208634Y-87932881D01*
X55139788Y-87920966D01*
X55088312Y-87873722D01*
X55070500Y-87809689D01*
X55070500Y-81947648D01*
X64839500Y-81947648D01*
X64839500Y-82152351D01*
X64871522Y-82354534D01*
X64934781Y-82549223D01*
X65027715Y-82731613D01*
X65148028Y-82897213D01*
X65292786Y-83041971D01*
X65406270Y-83124420D01*
X65458390Y-83162287D01*
X65574607Y-83221503D01*
X65640776Y-83255218D01*
X65640778Y-83255218D01*
X65640781Y-83255220D01*
X65745137Y-83289127D01*
X65835465Y-83318477D01*
X65936557Y-83334488D01*
X66037648Y-83350500D01*
X66037649Y-83350500D01*
X66242351Y-83350500D01*
X66242352Y-83350500D01*
X66444534Y-83318477D01*
X66639219Y-83255220D01*
X66821610Y-83162287D01*
X66942877Y-83074181D01*
X67008683Y-83050702D01*
X67015762Y-83050500D01*
X70488000Y-83050500D01*
X70555039Y-83070185D01*
X70600794Y-83122989D01*
X70612000Y-83174500D01*
X70612000Y-84990019D01*
X70622501Y-85092801D01*
X70677684Y-85259333D01*
X70677689Y-85259344D01*
X70769785Y-85408653D01*
X70769788Y-85408657D01*
X70893842Y-85532711D01*
X70893846Y-85532714D01*
X71043155Y-85624810D01*
X71043158Y-85624811D01*
X71043164Y-85624815D01*
X71209700Y-85679999D01*
X71312488Y-85690500D01*
X71312493Y-85690500D01*
X76712507Y-85690500D01*
X76712512Y-85690500D01*
X76815300Y-85679999D01*
X76981836Y-85624815D01*
X77131157Y-85532712D01*
X77255212Y-85408657D01*
X77347315Y-85259336D01*
X77402499Y-85092800D01*
X77413000Y-84990012D01*
X77413000Y-78989988D01*
X77402499Y-78887200D01*
X77347315Y-78720664D01*
X77347311Y-78720658D01*
X77347310Y-78720655D01*
X77255214Y-78571346D01*
X77255211Y-78571342D01*
X77131157Y-78447288D01*
X77131153Y-78447285D01*
X76981844Y-78355189D01*
X76981838Y-78355186D01*
X76981836Y-78355185D01*
X76981833Y-78355184D01*
X76815301Y-78300001D01*
X76712519Y-78289500D01*
X76712512Y-78289500D01*
X71312488Y-78289500D01*
X71312480Y-78289500D01*
X71209698Y-78300001D01*
X71043166Y-78355184D01*
X71043155Y-78355189D01*
X70893846Y-78447285D01*
X70893842Y-78447288D01*
X70769788Y-78571342D01*
X70769785Y-78571346D01*
X70677689Y-78720655D01*
X70677684Y-78720666D01*
X70622501Y-78887198D01*
X70612000Y-78989980D01*
X70612000Y-80925500D01*
X70592315Y-80992539D01*
X70539511Y-81038294D01*
X70488000Y-81049500D01*
X67015762Y-81049500D01*
X66948723Y-81029815D01*
X66942877Y-81025818D01*
X66821613Y-80937715D01*
X66821612Y-80937714D01*
X66821610Y-80937713D01*
X66764653Y-80908691D01*
X66639223Y-80844781D01*
X66444534Y-80781522D01*
X66269995Y-80753878D01*
X66242352Y-80749500D01*
X66037648Y-80749500D01*
X66013329Y-80753351D01*
X65835465Y-80781522D01*
X65640776Y-80844781D01*
X65458386Y-80937715D01*
X65292786Y-81058028D01*
X65148028Y-81202786D01*
X65027715Y-81368386D01*
X64934781Y-81550776D01*
X64871522Y-81745465D01*
X64839500Y-81947648D01*
X55070500Y-81947648D01*
X55070500Y-74327648D01*
X64839500Y-74327648D01*
X64839500Y-74532351D01*
X64871522Y-74734534D01*
X64934781Y-74929223D01*
X65027715Y-75111613D01*
X65148028Y-75277213D01*
X65292786Y-75421971D01*
X65408278Y-75505879D01*
X65458390Y-75542287D01*
X65574607Y-75601503D01*
X65640776Y-75635218D01*
X65640778Y-75635218D01*
X65640781Y-75635220D01*
X65745137Y-75669127D01*
X65835465Y-75698477D01*
X65936557Y-75714488D01*
X66037648Y-75730500D01*
X66037649Y-75730500D01*
X66242351Y-75730500D01*
X66242352Y-75730500D01*
X66444534Y-75698477D01*
X66639219Y-75635220D01*
X66821610Y-75542287D01*
X66923390Y-75468340D01*
X66987213Y-75421971D01*
X66987215Y-75421968D01*
X66987219Y-75421966D01*
X67131966Y-75277219D01*
X67131968Y-75277215D01*
X67131971Y-75277213D01*
X67190325Y-75196894D01*
X67252287Y-75111610D01*
X67345220Y-74929219D01*
X67408477Y-74734534D01*
X67440500Y-74532352D01*
X67440500Y-74327648D01*
X67419362Y-74194190D01*
X67408477Y-74125465D01*
X67366556Y-73996446D01*
X67345220Y-73930781D01*
X67345218Y-73930778D01*
X67345218Y-73930776D01*
X67304455Y-73850776D01*
X67252287Y-73748390D01*
X67210777Y-73691256D01*
X67131971Y-73582786D01*
X66987213Y-73438028D01*
X66821613Y-73317715D01*
X66821612Y-73317714D01*
X66821610Y-73317713D01*
X66728995Y-73270523D01*
X66639223Y-73224781D01*
X66444534Y-73161522D01*
X66269995Y-73133878D01*
X66242352Y-73129500D01*
X66037648Y-73129500D01*
X66013329Y-73133351D01*
X65835465Y-73161522D01*
X65640776Y-73224781D01*
X65458386Y-73317715D01*
X65292786Y-73438028D01*
X65148028Y-73582786D01*
X65027715Y-73748386D01*
X64934781Y-73930776D01*
X64871522Y-74125465D01*
X64839500Y-74327648D01*
X55070500Y-74327648D01*
X55070500Y-71846624D01*
X55090185Y-71779585D01*
X55142989Y-71733830D01*
X55212147Y-71723886D01*
X55275703Y-71752911D01*
X55304985Y-71790329D01*
X55352609Y-71883796D01*
X55388039Y-71953331D01*
X55524551Y-72141224D01*
X55688776Y-72305449D01*
X55876669Y-72441961D01*
X55974436Y-72491776D01*
X56083599Y-72547398D01*
X56083601Y-72547398D01*
X56083604Y-72547400D01*
X56304486Y-72619169D01*
X56422668Y-72637886D01*
X56533871Y-72655500D01*
X56533876Y-72655500D01*
X56766129Y-72655500D01*
X56867502Y-72639443D01*
X56995514Y-72619169D01*
X57216396Y-72547400D01*
X57423331Y-72441961D01*
X57611224Y-72305449D01*
X57775449Y-72141224D01*
X57911961Y-71953331D01*
X58013629Y-71753797D01*
X58017398Y-71746400D01*
X58017398Y-71746399D01*
X58017400Y-71746396D01*
X58089169Y-71525514D01*
X58115720Y-71357873D01*
X58125500Y-71296129D01*
X58125500Y-71063870D01*
X60254500Y-71063870D01*
X60254500Y-71296129D01*
X60290831Y-71525514D01*
X60362601Y-71746400D01*
X60467201Y-71951687D01*
X60468039Y-71953331D01*
X60604551Y-72141224D01*
X60768776Y-72305449D01*
X60956669Y-72441961D01*
X61054436Y-72491776D01*
X61163599Y-72547398D01*
X61163601Y-72547398D01*
X61163604Y-72547400D01*
X61384486Y-72619169D01*
X61502668Y-72637886D01*
X61613871Y-72655500D01*
X61613876Y-72655500D01*
X61846129Y-72655500D01*
X61947502Y-72639443D01*
X62075514Y-72619169D01*
X62296396Y-72547400D01*
X62503331Y-72441961D01*
X62691224Y-72305449D01*
X62855449Y-72141224D01*
X62991961Y-71953331D01*
X63093629Y-71753797D01*
X63097398Y-71746400D01*
X63097398Y-71746399D01*
X63097400Y-71746396D01*
X63169169Y-71525514D01*
X63195720Y-71357873D01*
X63205500Y-71296129D01*
X63205500Y-71063870D01*
X63175840Y-70876607D01*
X63169169Y-70834486D01*
X63097400Y-70613604D01*
X63097398Y-70613601D01*
X63097398Y-70613599D01*
X63052282Y-70525055D01*
X63026080Y-70473632D01*
X69849500Y-70473632D01*
X69849500Y-70676368D01*
X69853227Y-70699898D01*
X69881215Y-70876608D01*
X69943861Y-71069417D01*
X69943862Y-71069420D01*
X69998625Y-71176896D01*
X70020147Y-71219137D01*
X70035905Y-71250062D01*
X70155062Y-71414069D01*
X70155066Y-71414074D01*
X70298425Y-71557433D01*
X70298430Y-71557437D01*
X70365053Y-71605841D01*
X70462441Y-71676597D01*
X70574767Y-71733830D01*
X70643079Y-71768637D01*
X70643082Y-71768638D01*
X70704237Y-71788508D01*
X70835893Y-71831285D01*
X71036132Y-71863000D01*
X71036133Y-71863000D01*
X71238867Y-71863000D01*
X71238868Y-71863000D01*
X71439107Y-71831285D01*
X71631920Y-71768637D01*
X71812559Y-71676597D01*
X71976576Y-71557432D01*
X72119932Y-71414076D01*
X72131054Y-71398767D01*
X72186379Y-71356102D01*
X72255992Y-71350120D01*
X72317789Y-71382723D01*
X72352149Y-71443560D01*
X72354662Y-71458394D01*
X72355907Y-71469980D01*
X72406202Y-71604828D01*
X72406206Y-71604835D01*
X72492452Y-71720044D01*
X72492455Y-71720047D01*
X72607664Y-71806293D01*
X72607671Y-71806297D01*
X72742517Y-71856591D01*
X72742516Y-71856591D01*
X72749444Y-71857335D01*
X72802127Y-71863000D01*
X74472872Y-71862999D01*
X74532483Y-71856591D01*
X74667331Y-71806296D01*
X74782546Y-71720046D01*
X74868796Y-71604831D01*
X74919091Y-71469983D01*
X74925500Y-71410373D01*
X74925499Y-69739628D01*
X74919091Y-69680017D01*
X74900794Y-69630961D01*
X74868797Y-69545171D01*
X74868793Y-69545164D01*
X74782547Y-69429955D01*
X74782544Y-69429952D01*
X74667335Y-69343706D01*
X74667328Y-69343702D01*
X74532482Y-69293408D01*
X74532483Y-69293408D01*
X74472883Y-69287001D01*
X74472881Y-69287000D01*
X74472873Y-69287000D01*
X74472864Y-69287000D01*
X72802129Y-69287000D01*
X72802123Y-69287001D01*
X72742516Y-69293408D01*
X72607671Y-69343702D01*
X72607664Y-69343706D01*
X72492455Y-69429952D01*
X72492452Y-69429955D01*
X72406206Y-69545164D01*
X72406202Y-69545171D01*
X72355908Y-69680016D01*
X72354663Y-69691604D01*
X72327925Y-69756155D01*
X72270532Y-69796003D01*
X72200707Y-69798496D01*
X72140618Y-69762843D01*
X72131057Y-69751234D01*
X72119939Y-69735932D01*
X72119933Y-69735925D01*
X71976574Y-69592566D01*
X71976569Y-69592562D01*
X71812562Y-69473405D01*
X71812561Y-69473404D01*
X71812559Y-69473403D01*
X71753092Y-69443103D01*
X71631920Y-69381362D01*
X71631917Y-69381361D01*
X71439108Y-69318715D01*
X71287155Y-69294648D01*
X71238868Y-69287000D01*
X71036132Y-69287000D01*
X70987845Y-69294648D01*
X70835891Y-69318715D01*
X70643082Y-69381361D01*
X70643079Y-69381362D01*
X70462437Y-69473405D01*
X70298430Y-69592562D01*
X70298425Y-69592566D01*
X70155066Y-69735925D01*
X70155062Y-69735930D01*
X70035905Y-69899937D01*
X69943862Y-70080579D01*
X69943861Y-70080582D01*
X69881215Y-70273391D01*
X69881215Y-70273393D01*
X69849500Y-70473632D01*
X63026080Y-70473632D01*
X62991961Y-70406669D01*
X62855449Y-70218776D01*
X62691224Y-70054551D01*
X62503331Y-69918039D01*
X62467804Y-69899937D01*
X62296400Y-69812601D01*
X62075514Y-69740831D01*
X61846129Y-69704500D01*
X61846124Y-69704500D01*
X61613876Y-69704500D01*
X61613871Y-69704500D01*
X61384485Y-69740831D01*
X61163599Y-69812601D01*
X60956668Y-69918039D01*
X60768773Y-70054553D01*
X60604553Y-70218773D01*
X60468039Y-70406668D01*
X60362601Y-70613599D01*
X60290831Y-70834485D01*
X60254500Y-71063870D01*
X58125500Y-71063870D01*
X58095840Y-70876607D01*
X58089169Y-70834486D01*
X58017400Y-70613604D01*
X58017398Y-70613601D01*
X58017398Y-70613599D01*
X57946080Y-70473632D01*
X57911961Y-70406669D01*
X57775449Y-70218776D01*
X57611224Y-70054551D01*
X57423331Y-69918039D01*
X57387804Y-69899937D01*
X57216400Y-69812601D01*
X56995514Y-69740831D01*
X56766129Y-69704500D01*
X56766124Y-69704500D01*
X56533876Y-69704500D01*
X56533871Y-69704500D01*
X56304485Y-69740831D01*
X56083599Y-69812601D01*
X55876668Y-69918039D01*
X55688773Y-70054553D01*
X55524553Y-70218773D01*
X55388039Y-70406668D01*
X55304985Y-70569670D01*
X55257010Y-70620466D01*
X55189189Y-70637261D01*
X55123054Y-70614723D01*
X55079603Y-70560008D01*
X55070500Y-70513375D01*
X55070500Y-67958454D01*
X55090185Y-67891415D01*
X55142989Y-67845660D01*
X55212147Y-67835716D01*
X55269987Y-67860079D01*
X55396196Y-67956924D01*
X55623299Y-68088041D01*
X55623309Y-68088046D01*
X55865571Y-68188394D01*
X55865581Y-68188398D01*
X56118884Y-68256270D01*
X56378880Y-68290500D01*
X56378887Y-68290500D01*
X56641113Y-68290500D01*
X56641120Y-68290500D01*
X56901116Y-68256270D01*
X57154419Y-68188398D01*
X57396697Y-68088043D01*
X57623803Y-67956924D01*
X57831851Y-67797282D01*
X57831855Y-67797277D01*
X57831860Y-67797274D01*
X58017274Y-67611860D01*
X58017277Y-67611855D01*
X58017282Y-67611851D01*
X58176924Y-67403803D01*
X58308043Y-67176697D01*
X58408398Y-66934419D01*
X58476270Y-66681116D01*
X58510500Y-66421120D01*
X58510500Y-66158880D01*
X58476270Y-65898884D01*
X58408398Y-65645581D01*
X58310204Y-65408520D01*
X58308046Y-65403309D01*
X58308041Y-65403299D01*
X58176924Y-65176196D01*
X58017281Y-64968148D01*
X58017274Y-64968140D01*
X57841315Y-64792181D01*
X57807830Y-64730858D01*
X57812814Y-64661166D01*
X57854686Y-64605233D01*
X57920150Y-64580816D01*
X57928996Y-64580500D01*
X134879102Y-64580500D01*
X134946141Y-64600185D01*
G37*
G04 #@! TD.AperFunction*
G04 #@! TA.AperFunction,Conductor*
G36*
X100534075Y-88612993D02*
G01*
X100599901Y-88727007D01*
X100692993Y-88820099D01*
X100807007Y-88885925D01*
X100870590Y-88902962D01*
X100238282Y-89535269D01*
X100238282Y-89535270D01*
X100292449Y-89574624D01*
X100481782Y-89671095D01*
X100683870Y-89736757D01*
X100893754Y-89770000D01*
X101106246Y-89770000D01*
X101316127Y-89736757D01*
X101316130Y-89736757D01*
X101518217Y-89671095D01*
X101707554Y-89574622D01*
X101761716Y-89535270D01*
X101761717Y-89535270D01*
X101129408Y-88902962D01*
X101192993Y-88885925D01*
X101307007Y-88820099D01*
X101400099Y-88727007D01*
X101465925Y-88612993D01*
X101482962Y-88549409D01*
X102115270Y-89181717D01*
X102115270Y-89181716D01*
X102154622Y-89127555D01*
X102159232Y-89118507D01*
X102207205Y-89067709D01*
X102275025Y-89050912D01*
X102341161Y-89073447D01*
X102380204Y-89118504D01*
X102384949Y-89127817D01*
X102509890Y-89299786D01*
X102660213Y-89450109D01*
X102832179Y-89575048D01*
X102832181Y-89575049D01*
X102832184Y-89575051D01*
X103021588Y-89671557D01*
X103223757Y-89737246D01*
X103433713Y-89770500D01*
X103433714Y-89770500D01*
X103629353Y-89770500D01*
X103696392Y-89790185D01*
X103742147Y-89842989D01*
X103752091Y-89912147D01*
X103750969Y-89918696D01*
X103749500Y-89926079D01*
X103749500Y-90835500D01*
X103729815Y-90902539D01*
X103677011Y-90948294D01*
X103625500Y-90959500D01*
X85632230Y-90959500D01*
X85565191Y-90939815D01*
X85544549Y-90923181D01*
X84539588Y-89918220D01*
X84506103Y-89856897D01*
X84511087Y-89787205D01*
X84552959Y-89731272D01*
X84618423Y-89706855D01*
X84670602Y-89714357D01*
X84802620Y-89763596D01*
X84802627Y-89763598D01*
X84862155Y-89769999D01*
X84862172Y-89770000D01*
X85510000Y-89770000D01*
X85510000Y-88853012D01*
X85567007Y-88885925D01*
X85694174Y-88920000D01*
X85825826Y-88920000D01*
X85952993Y-88885925D01*
X86010000Y-88853012D01*
X86010000Y-89770000D01*
X86657828Y-89770000D01*
X86657844Y-89769999D01*
X86717372Y-89763598D01*
X86717379Y-89763596D01*
X86852086Y-89713354D01*
X86852093Y-89713350D01*
X86967187Y-89627190D01*
X86967190Y-89627187D01*
X87053350Y-89512093D01*
X87053354Y-89512086D01*
X87075529Y-89452632D01*
X87114319Y-89279390D01*
X87114682Y-89278734D01*
X87114642Y-89277984D01*
X87147642Y-89218802D01*
X87817037Y-88549408D01*
X87834075Y-88612993D01*
X87899901Y-88727007D01*
X87992993Y-88820099D01*
X88107007Y-88885925D01*
X88170590Y-88902962D01*
X87538282Y-89535269D01*
X87538282Y-89535270D01*
X87592449Y-89574624D01*
X87781782Y-89671095D01*
X87983870Y-89736757D01*
X88193754Y-89770000D01*
X88406246Y-89770000D01*
X88616127Y-89736757D01*
X88616130Y-89736757D01*
X88818217Y-89671095D01*
X89007554Y-89574622D01*
X89061716Y-89535270D01*
X89061717Y-89535270D01*
X88429408Y-88902962D01*
X88492993Y-88885925D01*
X88607007Y-88820099D01*
X88700099Y-88727007D01*
X88765925Y-88612993D01*
X88782962Y-88549408D01*
X89415270Y-89181717D01*
X89415270Y-89181716D01*
X89454622Y-89127555D01*
X89459232Y-89118507D01*
X89507205Y-89067709D01*
X89575025Y-89050912D01*
X89641161Y-89073447D01*
X89680204Y-89118504D01*
X89684949Y-89127817D01*
X89809890Y-89299786D01*
X89960213Y-89450109D01*
X90132179Y-89575048D01*
X90132181Y-89575049D01*
X90132184Y-89575051D01*
X90321588Y-89671557D01*
X90523757Y-89737246D01*
X90733713Y-89770500D01*
X90733714Y-89770500D01*
X90946286Y-89770500D01*
X90946287Y-89770500D01*
X91156243Y-89737246D01*
X91358412Y-89671557D01*
X91547816Y-89575051D01*
X91634471Y-89512093D01*
X91719786Y-89450109D01*
X91719788Y-89450106D01*
X91719792Y-89450104D01*
X91870104Y-89299792D01*
X91870106Y-89299788D01*
X91870109Y-89299786D01*
X91949882Y-89189986D01*
X91995051Y-89127816D01*
X91999793Y-89118508D01*
X92047763Y-89067711D01*
X92115583Y-89050911D01*
X92181719Y-89073445D01*
X92220763Y-89118500D01*
X92225373Y-89127547D01*
X92264728Y-89181716D01*
X92897037Y-88549408D01*
X92914075Y-88612993D01*
X92979901Y-88727007D01*
X93072993Y-88820099D01*
X93187007Y-88885925D01*
X93250590Y-88902962D01*
X92618282Y-89535269D01*
X92618282Y-89535270D01*
X92672449Y-89574624D01*
X92861782Y-89671095D01*
X93063870Y-89736757D01*
X93273754Y-89770000D01*
X93486246Y-89770000D01*
X93696127Y-89736757D01*
X93696130Y-89736757D01*
X93898217Y-89671095D01*
X94087554Y-89574622D01*
X94141716Y-89535270D01*
X94141717Y-89535270D01*
X93509408Y-88902962D01*
X93572993Y-88885925D01*
X93687007Y-88820099D01*
X93780099Y-88727007D01*
X93845925Y-88612993D01*
X93862962Y-88549409D01*
X94495270Y-89181717D01*
X94495270Y-89181716D01*
X94534622Y-89127555D01*
X94539232Y-89118507D01*
X94587205Y-89067709D01*
X94655025Y-89050912D01*
X94721161Y-89073447D01*
X94760204Y-89118504D01*
X94764949Y-89127817D01*
X94889890Y-89299786D01*
X95040213Y-89450109D01*
X95212179Y-89575048D01*
X95212181Y-89575049D01*
X95212184Y-89575051D01*
X95401588Y-89671557D01*
X95603757Y-89737246D01*
X95813713Y-89770500D01*
X95813714Y-89770500D01*
X96026286Y-89770500D01*
X96026287Y-89770500D01*
X96236243Y-89737246D01*
X96438412Y-89671557D01*
X96627816Y-89575051D01*
X96714471Y-89512093D01*
X96799786Y-89450109D01*
X96799788Y-89450106D01*
X96799792Y-89450104D01*
X96950104Y-89299792D01*
X96950106Y-89299788D01*
X96950109Y-89299786D01*
X97075048Y-89127820D01*
X97075047Y-89127820D01*
X97075051Y-89127816D01*
X97079514Y-89119054D01*
X97127488Y-89068259D01*
X97195308Y-89051463D01*
X97261444Y-89073999D01*
X97300486Y-89119056D01*
X97304951Y-89127820D01*
X97429890Y-89299786D01*
X97580213Y-89450109D01*
X97752179Y-89575048D01*
X97752181Y-89575049D01*
X97752184Y-89575051D01*
X97941588Y-89671557D01*
X98143757Y-89737246D01*
X98353713Y-89770500D01*
X98353714Y-89770500D01*
X98566286Y-89770500D01*
X98566287Y-89770500D01*
X98776243Y-89737246D01*
X98978412Y-89671557D01*
X99167816Y-89575051D01*
X99254471Y-89512093D01*
X99339786Y-89450109D01*
X99339788Y-89450106D01*
X99339792Y-89450104D01*
X99490104Y-89299792D01*
X99490106Y-89299788D01*
X99490109Y-89299786D01*
X99569882Y-89189986D01*
X99615051Y-89127816D01*
X99619793Y-89118508D01*
X99667763Y-89067711D01*
X99735583Y-89050911D01*
X99801719Y-89073445D01*
X99840763Y-89118500D01*
X99845373Y-89127547D01*
X99884728Y-89181716D01*
X100517037Y-88549408D01*
X100534075Y-88612993D01*
G37*
G04 #@! TD.AperFunction*
G04 #@! TA.AperFunction,Conductor*
G36*
X120345703Y-74167516D02*
G01*
X120352181Y-74173548D01*
X120603181Y-74424548D01*
X120636666Y-74485871D01*
X120639500Y-74512229D01*
X120639500Y-83657770D01*
X120619815Y-83724809D01*
X120603181Y-83745451D01*
X119915451Y-84433181D01*
X119854128Y-84466666D01*
X119827770Y-84469500D01*
X115266080Y-84469500D01*
X115121092Y-84498340D01*
X115121082Y-84498343D01*
X114984511Y-84554912D01*
X114984498Y-84554919D01*
X114861584Y-84637048D01*
X114861580Y-84637051D01*
X113117047Y-86381584D01*
X113117043Y-86381589D01*
X113068719Y-86453915D01*
X113068718Y-86453917D01*
X113051817Y-86479211D01*
X113034916Y-86504504D01*
X113034912Y-86504511D01*
X112978343Y-86641082D01*
X112978340Y-86641092D01*
X112949500Y-86786079D01*
X112949500Y-87232779D01*
X112929815Y-87299818D01*
X112898385Y-87333097D01*
X112820211Y-87389893D01*
X112820205Y-87389898D01*
X112669890Y-87540213D01*
X112544949Y-87712182D01*
X112540202Y-87721499D01*
X112492227Y-87772293D01*
X112424405Y-87789087D01*
X112358271Y-87766548D01*
X112319234Y-87721495D01*
X112314626Y-87712452D01*
X112275270Y-87658282D01*
X112275269Y-87658282D01*
X111642962Y-88290590D01*
X111625925Y-88227007D01*
X111560099Y-88112993D01*
X111467007Y-88019901D01*
X111352993Y-87954075D01*
X111289409Y-87937037D01*
X111921716Y-87304728D01*
X111867550Y-87265375D01*
X111678217Y-87168904D01*
X111476129Y-87103242D01*
X111266246Y-87070000D01*
X111053754Y-87070000D01*
X110843872Y-87103242D01*
X110843869Y-87103242D01*
X110641782Y-87168904D01*
X110452439Y-87265380D01*
X110398282Y-87304727D01*
X110398282Y-87304728D01*
X111030591Y-87937037D01*
X110967007Y-87954075D01*
X110852993Y-88019901D01*
X110759901Y-88112993D01*
X110694075Y-88227007D01*
X110677037Y-88290591D01*
X110044728Y-87658282D01*
X110044727Y-87658282D01*
X110005380Y-87712440D01*
X110005376Y-87712446D01*
X110000760Y-87721505D01*
X109952781Y-87772297D01*
X109884959Y-87789087D01*
X109818826Y-87766543D01*
X109779794Y-87721493D01*
X109775051Y-87712184D01*
X109775049Y-87712181D01*
X109775048Y-87712179D01*
X109650109Y-87540213D01*
X109499786Y-87389890D01*
X109327820Y-87264951D01*
X109138414Y-87168444D01*
X109138413Y-87168443D01*
X109138412Y-87168443D01*
X108936243Y-87102754D01*
X108936241Y-87102753D01*
X108936240Y-87102753D01*
X108774957Y-87077208D01*
X108726287Y-87069500D01*
X108513713Y-87069500D01*
X108465042Y-87077208D01*
X108303760Y-87102753D01*
X108101585Y-87168444D01*
X107912179Y-87264951D01*
X107740213Y-87389890D01*
X107589890Y-87540213D01*
X107464949Y-87712182D01*
X107460484Y-87720946D01*
X107412509Y-87771742D01*
X107344688Y-87788536D01*
X107278553Y-87765998D01*
X107239516Y-87720946D01*
X107235050Y-87712182D01*
X107110109Y-87540213D01*
X106959786Y-87389890D01*
X106787820Y-87264951D01*
X106598414Y-87168444D01*
X106598413Y-87168443D01*
X106598412Y-87168443D01*
X106396243Y-87102754D01*
X106396241Y-87102753D01*
X106396240Y-87102753D01*
X106234957Y-87077208D01*
X106186287Y-87069500D01*
X105973713Y-87069500D01*
X105925042Y-87077208D01*
X105763760Y-87102753D01*
X105561585Y-87168444D01*
X105372179Y-87264951D01*
X105200213Y-87389890D01*
X105049890Y-87540213D01*
X104924949Y-87712182D01*
X104920484Y-87720946D01*
X104872509Y-87771742D01*
X104804688Y-87788536D01*
X104738553Y-87765998D01*
X104699516Y-87720946D01*
X104695050Y-87712182D01*
X104570109Y-87540213D01*
X104419786Y-87389890D01*
X104247820Y-87264951D01*
X104058414Y-87168444D01*
X104058413Y-87168443D01*
X104058412Y-87168443D01*
X103856243Y-87102754D01*
X103856241Y-87102753D01*
X103856240Y-87102753D01*
X103694957Y-87077208D01*
X103646287Y-87069500D01*
X103433713Y-87069500D01*
X103385042Y-87077208D01*
X103223760Y-87102753D01*
X103021585Y-87168444D01*
X102832179Y-87264951D01*
X102660213Y-87389890D01*
X102509890Y-87540213D01*
X102384949Y-87712182D01*
X102380202Y-87721499D01*
X102332227Y-87772293D01*
X102264405Y-87789087D01*
X102198271Y-87766548D01*
X102159234Y-87721495D01*
X102154626Y-87712452D01*
X102115270Y-87658282D01*
X102115269Y-87658282D01*
X101482962Y-88290590D01*
X101465925Y-88227007D01*
X101400099Y-88112993D01*
X101307007Y-88019901D01*
X101192993Y-87954075D01*
X101129409Y-87937037D01*
X101761716Y-87304728D01*
X101707550Y-87265375D01*
X101518217Y-87168904D01*
X101316129Y-87103242D01*
X101106246Y-87070000D01*
X100893754Y-87070000D01*
X100683872Y-87103242D01*
X100683869Y-87103242D01*
X100481782Y-87168904D01*
X100292439Y-87265380D01*
X100238282Y-87304727D01*
X100238282Y-87304728D01*
X100870591Y-87937037D01*
X100807007Y-87954075D01*
X100692993Y-88019901D01*
X100599901Y-88112993D01*
X100534075Y-88227007D01*
X100517037Y-88290591D01*
X99884728Y-87658282D01*
X99884727Y-87658282D01*
X99845380Y-87712440D01*
X99845376Y-87712446D01*
X99840760Y-87721505D01*
X99792781Y-87772297D01*
X99724959Y-87789087D01*
X99658826Y-87766543D01*
X99619794Y-87721493D01*
X99615051Y-87712184D01*
X99615049Y-87712181D01*
X99615048Y-87712179D01*
X99490109Y-87540213D01*
X99393498Y-87443602D01*
X99339792Y-87389896D01*
X99258226Y-87330635D01*
X99255017Y-87327955D01*
X99237826Y-87302248D01*
X99218949Y-87277767D01*
X99217969Y-87272553D01*
X99216179Y-87269875D01*
X99216040Y-87262280D01*
X99210500Y-87232779D01*
X99210500Y-86306079D01*
X99192883Y-86217516D01*
X99190500Y-86193324D01*
X99190500Y-85206079D01*
X99161659Y-85061092D01*
X99161658Y-85061091D01*
X99161658Y-85061087D01*
X99132218Y-84990012D01*
X99105087Y-84924511D01*
X99105080Y-84924498D01*
X99022952Y-84801585D01*
X98974618Y-84753251D01*
X98918416Y-84697049D01*
X97796819Y-83575451D01*
X97763334Y-83514128D01*
X97760500Y-83487770D01*
X97760500Y-81392229D01*
X97780185Y-81325190D01*
X97796819Y-81304548D01*
X98124548Y-80976819D01*
X98185871Y-80943334D01*
X98212229Y-80940500D01*
X98721549Y-80940500D01*
X98788588Y-80960185D01*
X98834343Y-81012989D01*
X98844287Y-81082147D01*
X98821867Y-81137385D01*
X98712159Y-81288386D01*
X98619225Y-81470776D01*
X98555966Y-81665465D01*
X98523944Y-81867648D01*
X98523944Y-82072351D01*
X98555966Y-82274534D01*
X98619225Y-82469223D01*
X98659986Y-82549219D01*
X98691697Y-82611456D01*
X98712159Y-82651613D01*
X98832472Y-82817213D01*
X98977230Y-82961971D01*
X99126177Y-83070185D01*
X99142834Y-83082287D01*
X99225525Y-83124420D01*
X99325220Y-83175218D01*
X99325222Y-83175218D01*
X99325225Y-83175220D01*
X99429581Y-83209127D01*
X99519909Y-83238477D01*
X99621001Y-83254488D01*
X99722092Y-83270500D01*
X99722093Y-83270500D01*
X99926795Y-83270500D01*
X99926796Y-83270500D01*
X100128978Y-83238477D01*
X100323663Y-83175220D01*
X100506054Y-83082287D01*
X100599034Y-83014732D01*
X100671657Y-82961971D01*
X100671659Y-82961968D01*
X100671663Y-82961966D01*
X100816410Y-82817219D01*
X100816412Y-82817215D01*
X100816415Y-82817213D01*
X100878608Y-82731610D01*
X100936731Y-82651610D01*
X101029664Y-82469219D01*
X101092921Y-82274534D01*
X101124944Y-82072352D01*
X101124944Y-81867648D01*
X101117702Y-81821925D01*
X101092921Y-81665465D01*
X101063571Y-81575137D01*
X101029664Y-81470781D01*
X101029662Y-81470778D01*
X101029662Y-81470776D01*
X100989640Y-81392229D01*
X100936731Y-81288390D01*
X100874533Y-81202781D01*
X100827021Y-81137385D01*
X100803541Y-81071579D01*
X100819367Y-81003525D01*
X100869473Y-80954830D01*
X100927339Y-80940500D01*
X104977105Y-80940500D01*
X105044144Y-80960185D01*
X105089899Y-81012989D01*
X105099843Y-81082147D01*
X105077423Y-81137385D01*
X104967715Y-81288386D01*
X104874781Y-81470776D01*
X104811522Y-81665465D01*
X104779500Y-81867648D01*
X104779500Y-82072351D01*
X104811522Y-82274534D01*
X104874781Y-82469223D01*
X104915542Y-82549219D01*
X104947253Y-82611456D01*
X104967715Y-82651613D01*
X105088028Y-82817213D01*
X105232786Y-82961971D01*
X105381733Y-83070185D01*
X105398390Y-83082287D01*
X105481081Y-83124420D01*
X105580776Y-83175218D01*
X105580778Y-83175218D01*
X105580781Y-83175220D01*
X105685137Y-83209127D01*
X105775465Y-83238477D01*
X105876557Y-83254488D01*
X105977648Y-83270500D01*
X105977649Y-83270500D01*
X106182351Y-83270500D01*
X106182352Y-83270500D01*
X106384534Y-83238477D01*
X106579219Y-83175220D01*
X106761610Y-83082287D01*
X106854590Y-83014732D01*
X106927213Y-82961971D01*
X106927215Y-82961968D01*
X106927219Y-82961966D01*
X107071966Y-82817219D01*
X107071968Y-82817215D01*
X107071971Y-82817213D01*
X107134164Y-82731610D01*
X107192287Y-82651610D01*
X107285220Y-82469219D01*
X107348477Y-82274534D01*
X107380500Y-82072352D01*
X107380500Y-81867648D01*
X107373258Y-81821925D01*
X107348477Y-81665465D01*
X107319127Y-81575137D01*
X107285220Y-81470781D01*
X107285218Y-81470778D01*
X107285218Y-81470776D01*
X107245196Y-81392229D01*
X107192287Y-81288390D01*
X107130089Y-81202781D01*
X107082577Y-81137385D01*
X107059097Y-81071579D01*
X107074923Y-81003525D01*
X107125029Y-80954830D01*
X107182895Y-80940500D01*
X110167770Y-80940500D01*
X110234809Y-80960185D01*
X110255451Y-80976819D01*
X110619499Y-81340867D01*
X110983526Y-81704893D01*
X111017011Y-81766216D01*
X111018318Y-81811971D01*
X111009500Y-81867647D01*
X111009500Y-82072351D01*
X111041522Y-82274534D01*
X111104781Y-82469223D01*
X111145542Y-82549219D01*
X111177253Y-82611456D01*
X111197715Y-82651613D01*
X111318028Y-82817213D01*
X111462786Y-82961971D01*
X111611733Y-83070185D01*
X111628390Y-83082287D01*
X111711081Y-83124420D01*
X111810776Y-83175218D01*
X111810778Y-83175218D01*
X111810781Y-83175220D01*
X111915137Y-83209127D01*
X112005465Y-83238477D01*
X112106557Y-83254488D01*
X112207648Y-83270500D01*
X112207649Y-83270500D01*
X112412351Y-83270500D01*
X112412352Y-83270500D01*
X112614534Y-83238477D01*
X112809219Y-83175220D01*
X112991610Y-83082287D01*
X113084590Y-83014732D01*
X113157213Y-82961971D01*
X113157215Y-82961968D01*
X113157219Y-82961966D01*
X113301966Y-82817219D01*
X113301968Y-82817215D01*
X113301971Y-82817213D01*
X113364164Y-82731610D01*
X113422287Y-82651610D01*
X113515220Y-82469219D01*
X113578477Y-82274534D01*
X113610500Y-82072352D01*
X113610500Y-81867648D01*
X117539500Y-81867648D01*
X117539500Y-82072351D01*
X117571522Y-82274534D01*
X117634781Y-82469223D01*
X117675542Y-82549219D01*
X117707253Y-82611456D01*
X117727715Y-82651613D01*
X117848028Y-82817213D01*
X117992786Y-82961971D01*
X118141733Y-83070185D01*
X118158390Y-83082287D01*
X118241081Y-83124420D01*
X118340776Y-83175218D01*
X118340778Y-83175218D01*
X118340781Y-83175220D01*
X118445137Y-83209127D01*
X118535465Y-83238477D01*
X118636557Y-83254488D01*
X118737648Y-83270500D01*
X118737649Y-83270500D01*
X118942351Y-83270500D01*
X118942352Y-83270500D01*
X119144534Y-83238477D01*
X119339219Y-83175220D01*
X119521610Y-83082287D01*
X119614590Y-83014732D01*
X119687213Y-82961971D01*
X119687215Y-82961968D01*
X119687219Y-82961966D01*
X119831966Y-82817219D01*
X119831968Y-82817215D01*
X119831971Y-82817213D01*
X119894164Y-82731610D01*
X119952287Y-82651610D01*
X120045220Y-82469219D01*
X120108477Y-82274534D01*
X120140500Y-82072352D01*
X120140500Y-81867648D01*
X120133258Y-81821925D01*
X120108477Y-81665465D01*
X120079127Y-81575137D01*
X120045220Y-81470781D01*
X120045218Y-81470778D01*
X120045218Y-81470776D01*
X120005196Y-81392229D01*
X119952287Y-81288390D01*
X119890093Y-81202786D01*
X119831971Y-81122786D01*
X119687213Y-80978028D01*
X119521613Y-80857715D01*
X119521612Y-80857714D01*
X119521610Y-80857713D01*
X119464653Y-80828691D01*
X119339223Y-80764781D01*
X119144534Y-80701522D01*
X118969995Y-80673878D01*
X118942352Y-80669500D01*
X118737648Y-80669500D01*
X118713329Y-80673351D01*
X118535465Y-80701522D01*
X118340776Y-80764781D01*
X118158386Y-80857715D01*
X117992786Y-80978028D01*
X117848028Y-81122786D01*
X117727715Y-81288386D01*
X117634781Y-81470776D01*
X117571522Y-81665465D01*
X117539500Y-81867648D01*
X113610500Y-81867648D01*
X113603258Y-81821925D01*
X113578477Y-81665465D01*
X113549127Y-81575137D01*
X113515220Y-81470781D01*
X113515218Y-81470778D01*
X113515218Y-81470776D01*
X113475196Y-81392229D01*
X113422287Y-81288390D01*
X113360093Y-81202786D01*
X113301971Y-81122786D01*
X113157213Y-80978028D01*
X112991613Y-80857715D01*
X112991612Y-80857714D01*
X112991610Y-80857713D01*
X112934653Y-80828691D01*
X112809223Y-80764781D01*
X112614534Y-80701522D01*
X112439995Y-80673878D01*
X112412352Y-80669500D01*
X112207648Y-80669500D01*
X112151971Y-80678318D01*
X112082678Y-80669363D01*
X112044893Y-80643526D01*
X111353549Y-79952181D01*
X111320064Y-79890858D01*
X111325048Y-79821166D01*
X111366920Y-79765233D01*
X111432384Y-79740816D01*
X111441230Y-79740500D01*
X114363920Y-79740500D01*
X114461462Y-79721096D01*
X114508913Y-79711658D01*
X114645495Y-79655084D01*
X114717385Y-79607049D01*
X114768416Y-79572952D01*
X117364549Y-76976819D01*
X117425872Y-76943334D01*
X117452230Y-76940500D01*
X118413920Y-76940500D01*
X118511462Y-76921096D01*
X118558913Y-76911658D01*
X118695495Y-76855084D01*
X118744729Y-76822186D01*
X118818416Y-76772952D01*
X119422952Y-76168416D01*
X119472186Y-76094729D01*
X119505084Y-76045495D01*
X119561658Y-75908913D01*
X119590500Y-75763918D01*
X119590500Y-75475416D01*
X119610185Y-75408377D01*
X119641613Y-75375099D01*
X119687219Y-75341966D01*
X119831966Y-75197219D01*
X119831968Y-75197215D01*
X119831971Y-75197213D01*
X119894164Y-75111610D01*
X119952287Y-75031610D01*
X120045220Y-74849219D01*
X120108477Y-74654534D01*
X120140500Y-74452352D01*
X120140500Y-74261229D01*
X120160185Y-74194190D01*
X120212989Y-74148435D01*
X120282147Y-74138491D01*
X120345703Y-74167516D01*
G37*
G04 #@! TD.AperFunction*
M02*
