%TF.GenerationSoftware,KiCad,Pcbnew,9.0.1*%
%TF.CreationDate,2025-09-10T18:35:18+05:00*%
%TF.ProjectId,sine_wave_inverter,73696e65-5f77-4617-9665-5f696e766572,rev?*%
%TF.SameCoordinates,Original*%
%TF.FileFunction,Drillmap*%
%TF.FilePolarity,Positive*%
%FSLAX45Y45*%
G04 Gerber Fmt 4.5, Leading zero omitted, Abs format (unit mm)*
G04 Created by KiCad (PCBNEW 9.0.1) date 2025-09-10 18:35:18*
%MOMM*%
%LPD*%
G01*
G04 APERTURE LIST*
%ADD10C,0.050000*%
%ADD11C,0.200000*%
G04 APERTURE END LIST*
D10*
X14538000Y-6629000D02*
G75*
G02*
X14238000Y-6629000I-150000J0D01*
G01*
X14238000Y-6629000D02*
G75*
G02*
X14538000Y-6629000I150000J0D01*
G01*
X5801000Y-6629000D02*
G75*
G02*
X5501000Y-6629000I-150000J0D01*
G01*
X5501000Y-6629000D02*
G75*
G02*
X5801000Y-6629000I150000J0D01*
G01*
X5801000Y-11648000D02*
G75*
G02*
X5501000Y-11648000I-150000J0D01*
G01*
X5501000Y-11648000D02*
G75*
G02*
X5801000Y-11648000I150000J0D01*
G01*
X14538000Y-11648000D02*
G75*
G02*
X14238000Y-11648000I-150000J0D01*
G01*
X14238000Y-11648000D02*
G75*
G02*
X14538000Y-11648000I150000J0D01*
G01*
X5457000Y-6408000D02*
X14595000Y-6408000D01*
X14595000Y-11867000D01*
X5457000Y-11867000D01*
X5457000Y-6408000D01*
D11*
X5715277Y-12180984D02*
X5715277Y-11980984D01*
X5715277Y-11980984D02*
X5762896Y-11980984D01*
X5762896Y-11980984D02*
X5791467Y-11990508D01*
X5791467Y-11990508D02*
X5810515Y-12009555D01*
X5810515Y-12009555D02*
X5820039Y-12028603D01*
X5820039Y-12028603D02*
X5829562Y-12066698D01*
X5829562Y-12066698D02*
X5829562Y-12095269D01*
X5829562Y-12095269D02*
X5820039Y-12133365D01*
X5820039Y-12133365D02*
X5810515Y-12152412D01*
X5810515Y-12152412D02*
X5791467Y-12171460D01*
X5791467Y-12171460D02*
X5762896Y-12180984D01*
X5762896Y-12180984D02*
X5715277Y-12180984D01*
X5915277Y-12180984D02*
X5915277Y-12047650D01*
X5915277Y-12085746D02*
X5924801Y-12066698D01*
X5924801Y-12066698D02*
X5934324Y-12057174D01*
X5934324Y-12057174D02*
X5953372Y-12047650D01*
X5953372Y-12047650D02*
X5972420Y-12047650D01*
X6039086Y-12180984D02*
X6039086Y-12047650D01*
X6039086Y-11980984D02*
X6029562Y-11990508D01*
X6029562Y-11990508D02*
X6039086Y-12000031D01*
X6039086Y-12000031D02*
X6048610Y-11990508D01*
X6048610Y-11990508D02*
X6039086Y-11980984D01*
X6039086Y-11980984D02*
X6039086Y-12000031D01*
X6162896Y-12180984D02*
X6143848Y-12171460D01*
X6143848Y-12171460D02*
X6134324Y-12152412D01*
X6134324Y-12152412D02*
X6134324Y-11980984D01*
X6267658Y-12180984D02*
X6248610Y-12171460D01*
X6248610Y-12171460D02*
X6239086Y-12152412D01*
X6239086Y-12152412D02*
X6239086Y-11980984D01*
X6496229Y-12180984D02*
X6496229Y-11980984D01*
X6496229Y-11980984D02*
X6562896Y-12123841D01*
X6562896Y-12123841D02*
X6629562Y-11980984D01*
X6629562Y-11980984D02*
X6629562Y-12180984D01*
X6810515Y-12180984D02*
X6810515Y-12076222D01*
X6810515Y-12076222D02*
X6800991Y-12057174D01*
X6800991Y-12057174D02*
X6781943Y-12047650D01*
X6781943Y-12047650D02*
X6743848Y-12047650D01*
X6743848Y-12047650D02*
X6724801Y-12057174D01*
X6810515Y-12171460D02*
X6791467Y-12180984D01*
X6791467Y-12180984D02*
X6743848Y-12180984D01*
X6743848Y-12180984D02*
X6724801Y-12171460D01*
X6724801Y-12171460D02*
X6715277Y-12152412D01*
X6715277Y-12152412D02*
X6715277Y-12133365D01*
X6715277Y-12133365D02*
X6724801Y-12114317D01*
X6724801Y-12114317D02*
X6743848Y-12104793D01*
X6743848Y-12104793D02*
X6791467Y-12104793D01*
X6791467Y-12104793D02*
X6810515Y-12095269D01*
X6905753Y-12047650D02*
X6905753Y-12247650D01*
X6905753Y-12057174D02*
X6924801Y-12047650D01*
X6924801Y-12047650D02*
X6962896Y-12047650D01*
X6962896Y-12047650D02*
X6981943Y-12057174D01*
X6981943Y-12057174D02*
X6991467Y-12066698D01*
X6991467Y-12066698D02*
X7000991Y-12085746D01*
X7000991Y-12085746D02*
X7000991Y-12142888D01*
X7000991Y-12142888D02*
X6991467Y-12161936D01*
X6991467Y-12161936D02*
X6981943Y-12171460D01*
X6981943Y-12171460D02*
X6962896Y-12180984D01*
X6962896Y-12180984D02*
X6924801Y-12180984D01*
X6924801Y-12180984D02*
X6905753Y-12171460D01*
X7086705Y-12161936D02*
X7096229Y-12171460D01*
X7096229Y-12171460D02*
X7086705Y-12180984D01*
X7086705Y-12180984D02*
X7077182Y-12171460D01*
X7077182Y-12171460D02*
X7086705Y-12161936D01*
X7086705Y-12161936D02*
X7086705Y-12180984D01*
X7086705Y-12057174D02*
X7096229Y-12066698D01*
X7096229Y-12066698D02*
X7086705Y-12076222D01*
X7086705Y-12076222D02*
X7077182Y-12066698D01*
X7077182Y-12066698D02*
X7086705Y-12057174D01*
X7086705Y-12057174D02*
X7086705Y-12076222D01*
M02*
