M48
; DRILL file {KiCad 9.0.1} date 2025-09-10T18:35:18+0500
; FORMAT={-:-/ absolute / metric / decimal}
; #@! TF.CreationDate,2025-09-10T18:35:18+05:00
; #@! TF.GenerationSoftware,Kicad,Pcbnew,9.0.1
; #@! TF.FileFunction,Plated,1,2,PTH
FMAT,2
METRIC
; #@! TA.AperFunction,Plated,PTH,ComponentDrill
T1C0.650
; #@! TA.AperFunction,Plated,PTH,ComponentDrill
T2C0.750
; #@! TA.AperFunction,Plated,PTH,ComponentDrill
T3C0.800
; #@! TA.AperFunction,Plated,PTH,ComponentDrill
T4C1.000
; #@! TA.AperFunction,Plated,PTH,ComponentDrill
T5C1.050
; #@! TA.AperFunction,Plated,PTH,ComponentDrill
T6C1.100
; #@! TA.AperFunction,Plated,PTH,ComponentDrill
T7C1.200
; #@! TA.AperFunction,Plated,PTH,ComponentDrill
T8C1.300
; #@! TA.AperFunction,Plated,PTH,ComponentDrill
T9C1.520
%
G90
G05
T1
X107.12Y-91.82
X107.12Y-96.82
T2
X76.46Y-112.69
X77.73Y-112.69
X79.0Y-112.69
T3
X58.606Y-94.345
X58.606Y-96.845
X58.606Y-100.525
X58.606Y-103.025
X66.14Y-74.43
X66.14Y-82.05
X80.95Y-80.53
X80.95Y-85.53
X87.264Y-74.35
X87.264Y-81.97
X88.17Y-112.03
X90.71Y-112.03
X90.915Y-102.69
X93.25Y-112.03
X93.415Y-102.69
X93.544Y-74.35
X93.544Y-81.97
X99.59Y-112.09
X99.824Y-74.35
X99.824Y-81.97
X99.9Y-104.2
X102.11Y-100.17
X106.08Y-74.35
X106.08Y-81.97
X107.11Y-100.17
X107.21Y-112.09
X107.52Y-104.2
X112.31Y-74.35
X112.31Y-81.97
X116.885Y-93.91
X118.84Y-74.35
X118.84Y-81.97
X124.43Y-74.35
X124.43Y-81.97
X124.505Y-93.91
X131.45Y-74.35
X131.45Y-81.97
T4
X85.76Y-88.42
X88.3Y-88.42
X90.84Y-88.42
X93.38Y-88.42
X95.92Y-88.42
X98.46Y-88.42
X101.0Y-88.42
X103.54Y-88.42
X106.08Y-88.42
X108.62Y-88.42
X111.16Y-88.42
X113.7Y-88.42
X116.24Y-88.42
X118.78Y-88.42
X121.32Y-88.42
X123.86Y-88.42
X126.4Y-88.42
T5
X64.98Y-112.1
X67.48Y-112.1
X71.138Y-70.575
X73.638Y-70.575
T6
X66.056Y-95.99
X66.056Y-98.53
X66.056Y-101.07
X81.512Y-70.44
X84.052Y-70.44
X86.592Y-70.44
X97.108Y-70.31
X99.648Y-70.31
X102.188Y-70.31
X111.38Y-109.627
X111.38Y-114.96
X111.48Y-98.9
X111.48Y-104.233
X112.704Y-70.31
X115.244Y-70.31
X117.784Y-70.31
X124.38Y-109.627
X124.38Y-114.96
X124.48Y-98.9
X124.48Y-104.233
X128.3Y-70.31
X130.84Y-70.31
X133.13Y-89.8
X133.13Y-104.8
X133.38Y-70.31
T7
X76.286Y-98.95
X81.286Y-98.95
T8
X56.65Y-71.18
X56.73Y-88.26
X61.73Y-71.18
X61.81Y-88.26
T9
X141.87Y-88.99
X141.87Y-94.07
X141.9Y-77.04
X141.9Y-82.12
M30
