G04 #@! TF.GenerationSoftware,KiCad,Pcbnew,9.0.1*
G04 #@! TF.CreationDate,2025-09-10T18:35:39+05:00*
G04 #@! TF.ProjectId,sine_wave_inverter,73696e65-5f77-4617-9665-5f696e766572,rev?*
G04 #@! TF.SameCoordinates,Original*
G04 #@! TF.FileFunction,Legend,Bot*
G04 #@! TF.FilePolarity,Positive*
%FSLAX46Y46*%
G04 Gerber Fmt 4.6, Leading zero omitted, Abs format (unit mm)*
G04 Created by KiCad (PCBNEW 9.0.1) date 2025-09-10 18:35:39*
%MOMM*%
%LPD*%
G01*
G04 APERTURE LIST*
G04 Aperture macros list*
%AMRoundRect*
0 Rectangle with rounded corners*
0 $1 Rounding radius*
0 $2 $3 $4 $5 $6 $7 $8 $9 X,Y pos of 4 corners*
0 Add a 4 corners polygon primitive as box body*
4,1,4,$2,$3,$4,$5,$6,$7,$8,$9,$2,$3,0*
0 Add four circle primitives for the rounded corners*
1,1,$1+$1,$2,$3*
1,1,$1+$1,$4,$5*
1,1,$1+$1,$6,$7*
1,1,$1+$1,$8,$9*
0 Add four rect primitives between the rounded corners*
20,1,$1+$1,$2,$3,$4,$5,0*
20,1,$1+$1,$4,$5,$6,$7,0*
20,1,$1+$1,$6,$7,$8,$9,0*
20,1,$1+$1,$8,$9,$2,$3,0*%
G04 Aperture macros list end*
%ADD10C,0.010000*%
%ADD11C,2.200000*%
%ADD12C,1.700000*%
%ADD13R,1.700000X1.700000*%
%ADD14C,1.600000*%
%ADD15O,1.600000X1.600000*%
%ADD16R,3.000000X3.000000*%
%ADD17C,3.000000*%
%ADD18R,1.905000X2.000000*%
%ADD19O,1.905000X2.000000*%
%ADD20R,2.000000X1.905000*%
%ADD21O,2.000000X1.905000*%
%ADD22C,2.154000*%
%ADD23RoundRect,0.102000X-0.787500X-0.787500X0.787500X-0.787500X0.787500X0.787500X-0.787500X0.787500X0*%
%ADD24C,1.779000*%
%ADD25C,1.854000*%
%ADD26RoundRect,0.102000X0.825000X0.825000X-0.825000X0.825000X-0.825000X-0.825000X0.825000X-0.825000X0*%
%ADD27R,1.600000X1.600000*%
%ADD28R,2.400000X2.400000*%
%ADD29C,2.400000*%
%ADD30RoundRect,0.102000X-0.825000X-0.825000X0.825000X-0.825000X0.825000X0.825000X-0.825000X0.825000X0*%
%ADD31C,1.440000*%
%ADD32R,1.050000X1.500000*%
%ADD33O,1.050000X1.500000*%
%ADD34C,1.254000*%
G04 APERTURE END LIST*
D10*
X82275406Y-109894949D02*
X82301127Y-109910647D01*
X82327778Y-109932227D01*
X82327778Y-110579684D01*
X82301127Y-110601264D01*
X82269767Y-110618739D01*
X82233966Y-110619575D01*
X82202528Y-110599082D01*
X82198652Y-110594416D01*
X82193186Y-110584949D01*
X82188979Y-110571267D01*
X82185867Y-110550748D01*
X82183687Y-110520768D01*
X82182276Y-110478704D01*
X82181471Y-110421932D01*
X82181107Y-110347830D01*
X82181022Y-110253773D01*
X82181022Y-109932227D01*
X82207673Y-109910647D01*
X82231386Y-109895877D01*
X82254400Y-109889067D01*
X82275406Y-109894949D01*
G36*
X82275406Y-109894949D02*
G01*
X82301127Y-109910647D01*
X82327778Y-109932227D01*
X82327778Y-110579684D01*
X82301127Y-110601264D01*
X82269767Y-110618739D01*
X82233966Y-110619575D01*
X82202528Y-110599082D01*
X82198652Y-110594416D01*
X82193186Y-110584949D01*
X82188979Y-110571267D01*
X82185867Y-110550748D01*
X82183687Y-110520768D01*
X82182276Y-110478704D01*
X82181471Y-110421932D01*
X82181107Y-110347830D01*
X82181022Y-110253773D01*
X82181022Y-109932227D01*
X82207673Y-109910647D01*
X82231386Y-109895877D01*
X82254400Y-109889067D01*
X82275406Y-109894949D01*
G37*
X89406137Y-109893463D02*
X89440291Y-109916776D01*
X89468000Y-109944485D01*
X89468000Y-110257537D01*
X89467959Y-110341567D01*
X89467701Y-110415789D01*
X89467030Y-110472541D01*
X89465752Y-110514512D01*
X89463673Y-110544389D01*
X89460599Y-110564861D01*
X89456334Y-110578614D01*
X89450684Y-110588337D01*
X89443455Y-110596717D01*
X89411991Y-110618181D01*
X89376826Y-110619947D01*
X89343822Y-110600267D01*
X89338516Y-110594398D01*
X89333066Y-110585314D01*
X89328900Y-110571973D01*
X89325846Y-110551757D01*
X89323732Y-110522049D01*
X89322386Y-110480232D01*
X89321638Y-110423689D01*
X89321314Y-110349802D01*
X89321245Y-110255956D01*
X89321284Y-110180294D01*
X89321539Y-110102385D01*
X89322183Y-110042375D01*
X89323387Y-109997648D01*
X89325324Y-109965585D01*
X89328164Y-109943571D01*
X89332079Y-109928987D01*
X89337242Y-109919218D01*
X89343822Y-109911645D01*
X89373006Y-109892623D01*
X89406137Y-109893463D01*
G36*
X89406137Y-109893463D02*
G01*
X89440291Y-109916776D01*
X89468000Y-109944485D01*
X89468000Y-110257537D01*
X89467959Y-110341567D01*
X89467701Y-110415789D01*
X89467030Y-110472541D01*
X89465752Y-110514512D01*
X89463673Y-110544389D01*
X89460599Y-110564861D01*
X89456334Y-110578614D01*
X89450684Y-110588337D01*
X89443455Y-110596717D01*
X89411991Y-110618181D01*
X89376826Y-110619947D01*
X89343822Y-110600267D01*
X89338516Y-110594398D01*
X89333066Y-110585314D01*
X89328900Y-110571973D01*
X89325846Y-110551757D01*
X89323732Y-110522049D01*
X89322386Y-110480232D01*
X89321638Y-110423689D01*
X89321314Y-110349802D01*
X89321245Y-110255956D01*
X89321284Y-110180294D01*
X89321539Y-110102385D01*
X89322183Y-110042375D01*
X89323387Y-109997648D01*
X89325324Y-109965585D01*
X89328164Y-109943571D01*
X89332079Y-109928987D01*
X89337242Y-109919218D01*
X89343822Y-109911645D01*
X89373006Y-109892623D01*
X89406137Y-109893463D01*
G37*
X88874562Y-104652850D02*
X88957313Y-104680053D01*
X89032406Y-104725484D01*
X89104298Y-104791302D01*
X89142846Y-104835567D01*
X89182256Y-104893961D01*
X89207446Y-104954586D01*
X89220861Y-105023865D01*
X89224948Y-105108222D01*
X89224669Y-105154307D01*
X89222460Y-105195450D01*
X89216894Y-105227582D01*
X89206586Y-105258122D01*
X89190148Y-105294489D01*
X89176200Y-105321728D01*
X89117665Y-105407429D01*
X89045619Y-105476617D01*
X88961947Y-105527741D01*
X88868531Y-105559250D01*
X88835434Y-105566225D01*
X88794960Y-105573094D01*
X88761999Y-105574919D01*
X88727698Y-105571947D01*
X88683200Y-105564426D01*
X88631934Y-105552002D01*
X88541434Y-105514112D01*
X88462345Y-105459836D01*
X88396528Y-105391770D01*
X88345840Y-105312511D01*
X88312140Y-105224654D01*
X88297286Y-105130795D01*
X88303136Y-105033530D01*
X88329399Y-104937220D01*
X88374418Y-104848494D01*
X88435373Y-104773419D01*
X88510184Y-104713641D01*
X88596768Y-104670809D01*
X88693043Y-104646571D01*
X88796928Y-104642576D01*
X88874562Y-104652850D01*
G36*
X88874562Y-104652850D02*
G01*
X88957313Y-104680053D01*
X89032406Y-104725484D01*
X89104298Y-104791302D01*
X89142846Y-104835567D01*
X89182256Y-104893961D01*
X89207446Y-104954586D01*
X89220861Y-105023865D01*
X89224948Y-105108222D01*
X89224669Y-105154307D01*
X89222460Y-105195450D01*
X89216894Y-105227582D01*
X89206586Y-105258122D01*
X89190148Y-105294489D01*
X89176200Y-105321728D01*
X89117665Y-105407429D01*
X89045619Y-105476617D01*
X88961947Y-105527741D01*
X88868531Y-105559250D01*
X88835434Y-105566225D01*
X88794960Y-105573094D01*
X88761999Y-105574919D01*
X88727698Y-105571947D01*
X88683200Y-105564426D01*
X88631934Y-105552002D01*
X88541434Y-105514112D01*
X88462345Y-105459836D01*
X88396528Y-105391770D01*
X88345840Y-105312511D01*
X88312140Y-105224654D01*
X88297286Y-105130795D01*
X88303136Y-105033530D01*
X88329399Y-104937220D01*
X88374418Y-104848494D01*
X88435373Y-104773419D01*
X88510184Y-104713641D01*
X88596768Y-104670809D01*
X88693043Y-104646571D01*
X88796928Y-104642576D01*
X88874562Y-104652850D01*
G37*
X81575767Y-109889068D02*
X81669890Y-109889158D01*
X81744405Y-109889498D01*
X81801811Y-109890239D01*
X81844611Y-109891535D01*
X81875304Y-109893537D01*
X81896391Y-109896396D01*
X81910373Y-109900266D01*
X81919750Y-109905298D01*
X81927022Y-109911645D01*
X81945828Y-109944362D01*
X81947275Y-109981939D01*
X81930917Y-110015178D01*
X81929557Y-110016631D01*
X81918354Y-110024992D01*
X81901252Y-110030547D01*
X81874082Y-110033840D01*
X81832678Y-110035418D01*
X81772873Y-110035822D01*
X81633511Y-110035822D01*
X81633511Y-110299589D01*
X81633436Y-110375417D01*
X81633028Y-110442083D01*
X81632046Y-110491867D01*
X81630250Y-110527784D01*
X81627399Y-110552850D01*
X81623253Y-110570081D01*
X81617571Y-110582492D01*
X81610114Y-110593100D01*
X81607824Y-110595906D01*
X81576646Y-110618548D01*
X81542266Y-110620112D01*
X81509334Y-110600267D01*
X81502355Y-110592191D01*
X81496883Y-110581593D01*
X81492863Y-110565749D01*
X81490072Y-110541773D01*
X81488288Y-110506774D01*
X81487289Y-110457864D01*
X81486852Y-110392154D01*
X81486756Y-110306756D01*
X81486756Y-110035822D01*
X81340820Y-110035822D01*
X81329720Y-110035821D01*
X81273202Y-110035596D01*
X81234358Y-110034457D01*
X81208965Y-110031657D01*
X81192804Y-110026450D01*
X81181652Y-110018089D01*
X81171289Y-110005826D01*
X81155441Y-109975138D01*
X81158543Y-109941358D01*
X81184187Y-109908822D01*
X81189129Y-109905105D01*
X81199338Y-109900269D01*
X81214764Y-109896506D01*
X81237886Y-109893683D01*
X81271183Y-109891670D01*
X81317137Y-109890333D01*
X81378228Y-109889542D01*
X81456935Y-109889163D01*
X81555740Y-109889067D01*
X81575767Y-109889068D01*
G36*
X81575767Y-109889068D02*
G01*
X81669890Y-109889158D01*
X81744405Y-109889498D01*
X81801811Y-109890239D01*
X81844611Y-109891535D01*
X81875304Y-109893537D01*
X81896391Y-109896396D01*
X81910373Y-109900266D01*
X81919750Y-109905298D01*
X81927022Y-109911645D01*
X81945828Y-109944362D01*
X81947275Y-109981939D01*
X81930917Y-110015178D01*
X81929557Y-110016631D01*
X81918354Y-110024992D01*
X81901252Y-110030547D01*
X81874082Y-110033840D01*
X81832678Y-110035418D01*
X81772873Y-110035822D01*
X81633511Y-110035822D01*
X81633511Y-110299589D01*
X81633436Y-110375417D01*
X81633028Y-110442083D01*
X81632046Y-110491867D01*
X81630250Y-110527784D01*
X81627399Y-110552850D01*
X81623253Y-110570081D01*
X81617571Y-110582492D01*
X81610114Y-110593100D01*
X81607824Y-110595906D01*
X81576646Y-110618548D01*
X81542266Y-110620112D01*
X81509334Y-110600267D01*
X81502355Y-110592191D01*
X81496883Y-110581593D01*
X81492863Y-110565749D01*
X81490072Y-110541773D01*
X81488288Y-110506774D01*
X81487289Y-110457864D01*
X81486852Y-110392154D01*
X81486756Y-110306756D01*
X81486756Y-110035822D01*
X81340820Y-110035822D01*
X81329720Y-110035821D01*
X81273202Y-110035596D01*
X81234358Y-110034457D01*
X81208965Y-110031657D01*
X81192804Y-110026450D01*
X81181652Y-110018089D01*
X81171289Y-110005826D01*
X81155441Y-109975138D01*
X81158543Y-109941358D01*
X81184187Y-109908822D01*
X81189129Y-109905105D01*
X81199338Y-109900269D01*
X81214764Y-109896506D01*
X81237886Y-109893683D01*
X81271183Y-109891670D01*
X81317137Y-109890333D01*
X81378228Y-109889542D01*
X81456935Y-109889163D01*
X81555740Y-109889067D01*
X81575767Y-109889068D01*
G37*
X80899734Y-109911645D02*
X80905366Y-109917835D01*
X80910456Y-109926041D01*
X80914543Y-109937817D01*
X80917721Y-109955276D01*
X80920087Y-109980530D01*
X80921738Y-110015690D01*
X80922769Y-110062869D01*
X80923277Y-110124177D01*
X80923359Y-110201727D01*
X80923109Y-110297631D01*
X80922625Y-110414000D01*
X80922557Y-110428175D01*
X80921971Y-110489937D01*
X80920648Y-110533620D01*
X80918103Y-110563001D01*
X80913848Y-110581855D01*
X80907396Y-110593959D01*
X80898262Y-110603089D01*
X80864804Y-110620506D01*
X80829856Y-110617604D01*
X80798953Y-110593100D01*
X80789944Y-110579897D01*
X80782492Y-110561361D01*
X80778124Y-110535333D01*
X80776069Y-110496787D01*
X80775556Y-110440700D01*
X80775556Y-110318045D01*
X80278845Y-110318045D01*
X80278845Y-110452871D01*
X80278772Y-110488662D01*
X80278009Y-110534992D01*
X80275833Y-110565526D01*
X80271536Y-110584557D01*
X80264412Y-110596374D01*
X80253755Y-110605271D01*
X80221504Y-110620341D01*
X80186217Y-110617673D01*
X80155486Y-110593100D01*
X80150831Y-110586845D01*
X80144895Y-110576321D01*
X80140364Y-110562391D01*
X80137048Y-110542317D01*
X80134759Y-110513360D01*
X80133308Y-110472780D01*
X80132505Y-110417840D01*
X80132162Y-110345799D01*
X80132089Y-110253920D01*
X80132089Y-109944485D01*
X80159798Y-109916776D01*
X80191177Y-109894533D01*
X80224406Y-109891844D01*
X80256267Y-109911645D01*
X80264553Y-109921415D01*
X80271965Y-109937307D01*
X80276302Y-109961275D01*
X80278338Y-109998148D01*
X80278845Y-110052756D01*
X80278845Y-110171289D01*
X80775556Y-110171289D01*
X80775556Y-110055776D01*
X80775994Y-110004078D01*
X80777958Y-109969554D01*
X80782474Y-109946978D01*
X80790567Y-109931126D01*
X80803265Y-109916776D01*
X80834643Y-109894533D01*
X80867872Y-109891844D01*
X80899734Y-109911645D01*
G36*
X80899734Y-109911645D02*
G01*
X80905366Y-109917835D01*
X80910456Y-109926041D01*
X80914543Y-109937817D01*
X80917721Y-109955276D01*
X80920087Y-109980530D01*
X80921738Y-110015690D01*
X80922769Y-110062869D01*
X80923277Y-110124177D01*
X80923359Y-110201727D01*
X80923109Y-110297631D01*
X80922625Y-110414000D01*
X80922557Y-110428175D01*
X80921971Y-110489937D01*
X80920648Y-110533620D01*
X80918103Y-110563001D01*
X80913848Y-110581855D01*
X80907396Y-110593959D01*
X80898262Y-110603089D01*
X80864804Y-110620506D01*
X80829856Y-110617604D01*
X80798953Y-110593100D01*
X80789944Y-110579897D01*
X80782492Y-110561361D01*
X80778124Y-110535333D01*
X80776069Y-110496787D01*
X80775556Y-110440700D01*
X80775556Y-110318045D01*
X80278845Y-110318045D01*
X80278845Y-110452871D01*
X80278772Y-110488662D01*
X80278009Y-110534992D01*
X80275833Y-110565526D01*
X80271536Y-110584557D01*
X80264412Y-110596374D01*
X80253755Y-110605271D01*
X80221504Y-110620341D01*
X80186217Y-110617673D01*
X80155486Y-110593100D01*
X80150831Y-110586845D01*
X80144895Y-110576321D01*
X80140364Y-110562391D01*
X80137048Y-110542317D01*
X80134759Y-110513360D01*
X80133308Y-110472780D01*
X80132505Y-110417840D01*
X80132162Y-110345799D01*
X80132089Y-110253920D01*
X80132089Y-109944485D01*
X80159798Y-109916776D01*
X80191177Y-109894533D01*
X80224406Y-109891844D01*
X80256267Y-109911645D01*
X80264553Y-109921415D01*
X80271965Y-109937307D01*
X80276302Y-109961275D01*
X80278338Y-109998148D01*
X80278845Y-110052756D01*
X80278845Y-110171289D01*
X80775556Y-110171289D01*
X80775556Y-110055776D01*
X80775994Y-110004078D01*
X80777958Y-109969554D01*
X80782474Y-109946978D01*
X80790567Y-109931126D01*
X80803265Y-109916776D01*
X80834643Y-109894533D01*
X80867872Y-109891844D01*
X80899734Y-109911645D01*
G37*
X85605133Y-110500396D02*
X85603163Y-110533175D01*
X85600235Y-110556095D01*
X85596158Y-110571897D01*
X85590743Y-110583319D01*
X85583803Y-110593100D01*
X85560406Y-110622845D01*
X85394714Y-110622251D01*
X85359918Y-110621953D01*
X85261435Y-110618522D01*
X85180473Y-110610839D01*
X85113379Y-110598282D01*
X85056496Y-110580227D01*
X85006169Y-110556052D01*
X85002810Y-110554135D01*
X84944998Y-110517417D01*
X84902644Y-110480451D01*
X84869828Y-110436966D01*
X84840628Y-110380689D01*
X84836346Y-110371073D01*
X84813769Y-110307887D01*
X84808034Y-110262333D01*
X84957279Y-110262333D01*
X84962892Y-110287061D01*
X84968618Y-110302939D01*
X85001548Y-110362847D01*
X85048886Y-110408600D01*
X85112652Y-110441736D01*
X85194861Y-110463790D01*
X85197655Y-110464292D01*
X85243940Y-110470255D01*
X85300336Y-110474483D01*
X85355274Y-110476089D01*
X85449156Y-110476089D01*
X85449156Y-110035822D01*
X85361667Y-110036270D01*
X85294747Y-110038746D01*
X85202349Y-110049998D01*
X85123034Y-110069537D01*
X85061060Y-110096511D01*
X85030120Y-110117240D01*
X85002000Y-110147006D01*
X84978660Y-110189434D01*
X84971533Y-110205400D01*
X84959709Y-110237902D01*
X84957279Y-110262333D01*
X84808034Y-110262333D01*
X84806797Y-110252509D01*
X84815399Y-110197483D01*
X84839541Y-110135351D01*
X84840337Y-110133658D01*
X84880788Y-110064236D01*
X84931473Y-110007638D01*
X84994198Y-109963070D01*
X85070774Y-109929741D01*
X85163009Y-109906861D01*
X85272712Y-109893636D01*
X85401691Y-109889275D01*
X85405263Y-109889270D01*
X85465283Y-109889410D01*
X85507214Y-109890446D01*
X85535328Y-109893040D01*
X85553897Y-109897853D01*
X85567194Y-109905544D01*
X85579491Y-109916776D01*
X85607200Y-109944485D01*
X85607200Y-110253920D01*
X85607175Y-110315526D01*
X85606950Y-110394311D01*
X85606332Y-110455021D01*
X85605775Y-110476089D01*
X85605133Y-110500396D01*
G36*
X85605133Y-110500396D02*
G01*
X85603163Y-110533175D01*
X85600235Y-110556095D01*
X85596158Y-110571897D01*
X85590743Y-110583319D01*
X85583803Y-110593100D01*
X85560406Y-110622845D01*
X85394714Y-110622251D01*
X85359918Y-110621953D01*
X85261435Y-110618522D01*
X85180473Y-110610839D01*
X85113379Y-110598282D01*
X85056496Y-110580227D01*
X85006169Y-110556052D01*
X85002810Y-110554135D01*
X84944998Y-110517417D01*
X84902644Y-110480451D01*
X84869828Y-110436966D01*
X84840628Y-110380689D01*
X84836346Y-110371073D01*
X84813769Y-110307887D01*
X84808034Y-110262333D01*
X84957279Y-110262333D01*
X84962892Y-110287061D01*
X84968618Y-110302939D01*
X85001548Y-110362847D01*
X85048886Y-110408600D01*
X85112652Y-110441736D01*
X85194861Y-110463790D01*
X85197655Y-110464292D01*
X85243940Y-110470255D01*
X85300336Y-110474483D01*
X85355274Y-110476089D01*
X85449156Y-110476089D01*
X85449156Y-110035822D01*
X85361667Y-110036270D01*
X85294747Y-110038746D01*
X85202349Y-110049998D01*
X85123034Y-110069537D01*
X85061060Y-110096511D01*
X85030120Y-110117240D01*
X85002000Y-110147006D01*
X84978660Y-110189434D01*
X84971533Y-110205400D01*
X84959709Y-110237902D01*
X84957279Y-110262333D01*
X84808034Y-110262333D01*
X84806797Y-110252509D01*
X84815399Y-110197483D01*
X84839541Y-110135351D01*
X84840337Y-110133658D01*
X84880788Y-110064236D01*
X84931473Y-110007638D01*
X84994198Y-109963070D01*
X85070774Y-109929741D01*
X85163009Y-109906861D01*
X85272712Y-109893636D01*
X85401691Y-109889275D01*
X85405263Y-109889270D01*
X85465283Y-109889410D01*
X85507214Y-109890446D01*
X85535328Y-109893040D01*
X85553897Y-109897853D01*
X85567194Y-109905544D01*
X85579491Y-109916776D01*
X85607200Y-109944485D01*
X85607200Y-110253920D01*
X85607175Y-110315526D01*
X85606950Y-110394311D01*
X85606332Y-110455021D01*
X85605775Y-110476089D01*
X85605133Y-110500396D01*
G37*
X92696817Y-110074427D02*
X92696870Y-110155041D01*
X92696622Y-110255956D01*
X92696583Y-110331617D01*
X92696328Y-110409526D01*
X92695684Y-110469536D01*
X92694480Y-110514264D01*
X92692543Y-110546326D01*
X92689703Y-110568340D01*
X92685788Y-110582924D01*
X92680626Y-110592694D01*
X92674045Y-110600267D01*
X92667077Y-110606501D01*
X92654079Y-110613801D01*
X92634931Y-110618554D01*
X92605528Y-110621292D01*
X92561762Y-110622545D01*
X92499528Y-110622845D01*
X92450582Y-110622469D01*
X92343722Y-110618041D01*
X92254494Y-110607953D01*
X92179696Y-110591365D01*
X92116125Y-110567435D01*
X92060579Y-110535321D01*
X92009854Y-110494182D01*
X92003866Y-110488330D01*
X91966999Y-110439821D01*
X91935899Y-110379013D01*
X91914417Y-110314769D01*
X91909136Y-110276026D01*
X92056353Y-110276026D01*
X92074635Y-110326961D01*
X92104305Y-110372878D01*
X92151002Y-110415287D01*
X92212392Y-110445090D01*
X92291538Y-110464226D01*
X92293028Y-110464464D01*
X92341999Y-110470256D01*
X92400693Y-110474396D01*
X92456734Y-110476004D01*
X92549867Y-110476089D01*
X92549867Y-110035822D01*
X92473667Y-110035808D01*
X92470639Y-110035817D01*
X92419519Y-110037782D01*
X92359416Y-110042507D01*
X92302708Y-110049035D01*
X92252750Y-110058331D01*
X92177998Y-110084600D01*
X92120489Y-110123899D01*
X92078988Y-110176933D01*
X92057771Y-110228200D01*
X92056353Y-110276026D01*
X91909136Y-110276026D01*
X91906400Y-110255956D01*
X91907679Y-110234739D01*
X91919991Y-110177323D01*
X91942520Y-110117413D01*
X91971750Y-110063363D01*
X92004167Y-110023532D01*
X92023708Y-110006510D01*
X92078420Y-109967322D01*
X92138723Y-109937193D01*
X92207919Y-109915232D01*
X92289311Y-109900550D01*
X92386200Y-109892259D01*
X92501889Y-109889467D01*
X92541371Y-109889066D01*
X92587082Y-109888653D01*
X92622883Y-109890457D01*
X92649974Y-109896739D01*
X92669556Y-109909759D01*
X92682830Y-109931778D01*
X92690998Y-109965055D01*
X92695260Y-110011851D01*
X92695857Y-110035822D01*
X92696817Y-110074427D01*
G36*
X92696817Y-110074427D02*
G01*
X92696870Y-110155041D01*
X92696622Y-110255956D01*
X92696583Y-110331617D01*
X92696328Y-110409526D01*
X92695684Y-110469536D01*
X92694480Y-110514264D01*
X92692543Y-110546326D01*
X92689703Y-110568340D01*
X92685788Y-110582924D01*
X92680626Y-110592694D01*
X92674045Y-110600267D01*
X92667077Y-110606501D01*
X92654079Y-110613801D01*
X92634931Y-110618554D01*
X92605528Y-110621292D01*
X92561762Y-110622545D01*
X92499528Y-110622845D01*
X92450582Y-110622469D01*
X92343722Y-110618041D01*
X92254494Y-110607953D01*
X92179696Y-110591365D01*
X92116125Y-110567435D01*
X92060579Y-110535321D01*
X92009854Y-110494182D01*
X92003866Y-110488330D01*
X91966999Y-110439821D01*
X91935899Y-110379013D01*
X91914417Y-110314769D01*
X91909136Y-110276026D01*
X92056353Y-110276026D01*
X92074635Y-110326961D01*
X92104305Y-110372878D01*
X92151002Y-110415287D01*
X92212392Y-110445090D01*
X92291538Y-110464226D01*
X92293028Y-110464464D01*
X92341999Y-110470256D01*
X92400693Y-110474396D01*
X92456734Y-110476004D01*
X92549867Y-110476089D01*
X92549867Y-110035822D01*
X92473667Y-110035808D01*
X92470639Y-110035817D01*
X92419519Y-110037782D01*
X92359416Y-110042507D01*
X92302708Y-110049035D01*
X92252750Y-110058331D01*
X92177998Y-110084600D01*
X92120489Y-110123899D01*
X92078988Y-110176933D01*
X92057771Y-110228200D01*
X92056353Y-110276026D01*
X91909136Y-110276026D01*
X91906400Y-110255956D01*
X91907679Y-110234739D01*
X91919991Y-110177323D01*
X91942520Y-110117413D01*
X91971750Y-110063363D01*
X92004167Y-110023532D01*
X92023708Y-110006510D01*
X92078420Y-109967322D01*
X92138723Y-109937193D01*
X92207919Y-109915232D01*
X92289311Y-109900550D01*
X92386200Y-109892259D01*
X92501889Y-109889467D01*
X92541371Y-109889066D01*
X92587082Y-109888653D01*
X92622883Y-109890457D01*
X92649974Y-109896739D01*
X92669556Y-109909759D01*
X92682830Y-109931778D01*
X92690998Y-109965055D01*
X92695260Y-110011851D01*
X92695857Y-110035822D01*
X92696817Y-110074427D01*
G37*
X87751893Y-109887892D02*
X87763301Y-109894029D01*
X87773850Y-109904691D01*
X87785136Y-109918811D01*
X87789589Y-109924772D01*
X87795588Y-109935268D01*
X87800167Y-109949093D01*
X87803519Y-109968998D01*
X87805833Y-109997732D01*
X87807301Y-110038045D01*
X87808113Y-110092687D01*
X87808460Y-110164407D01*
X87808534Y-110255956D01*
X87808511Y-110314486D01*
X87808292Y-110393573D01*
X87807683Y-110454516D01*
X87806492Y-110500062D01*
X87804529Y-110532963D01*
X87801603Y-110555968D01*
X87797523Y-110571826D01*
X87792097Y-110583286D01*
X87785136Y-110593100D01*
X87754708Y-110617493D01*
X87719765Y-110620372D01*
X87682784Y-110601282D01*
X87678600Y-110597807D01*
X87670424Y-110589279D01*
X87664364Y-110577728D01*
X87659981Y-110559896D01*
X87656839Y-110532524D01*
X87654502Y-110492354D01*
X87652531Y-110436128D01*
X87650489Y-110360589D01*
X87644845Y-110141458D01*
X87379556Y-110382099D01*
X87305722Y-110448875D01*
X87240542Y-110506991D01*
X87188348Y-110551949D01*
X87147273Y-110584871D01*
X87115455Y-110606879D01*
X87091026Y-110619094D01*
X87072124Y-110622639D01*
X87056883Y-110618636D01*
X87043439Y-110608207D01*
X87029927Y-110592474D01*
X87023682Y-110583991D01*
X87018050Y-110573413D01*
X87013839Y-110559255D01*
X87010887Y-110538803D01*
X87009032Y-110509342D01*
X87008113Y-110468161D01*
X87007968Y-110412544D01*
X87008435Y-110339779D01*
X87009352Y-110247151D01*
X87012667Y-109932199D01*
X87039318Y-109910633D01*
X87065383Y-109894441D01*
X87098241Y-109891670D01*
X87132772Y-109910623D01*
X87137084Y-109914208D01*
X87145216Y-109922737D01*
X87151245Y-109934329D01*
X87155606Y-109952235D01*
X87158734Y-109979706D01*
X87161063Y-110019994D01*
X87163029Y-110076351D01*
X87165067Y-110152029D01*
X87170711Y-110371878D01*
X87351334Y-110208084D01*
X87438072Y-110129451D01*
X87513843Y-110061058D01*
X87575980Y-110005708D01*
X87626078Y-109962338D01*
X87665735Y-109929881D01*
X87696548Y-109907273D01*
X87720114Y-109893448D01*
X87738030Y-109887343D01*
X87751893Y-109887892D01*
G36*
X87751893Y-109887892D02*
G01*
X87763301Y-109894029D01*
X87773850Y-109904691D01*
X87785136Y-109918811D01*
X87789589Y-109924772D01*
X87795588Y-109935268D01*
X87800167Y-109949093D01*
X87803519Y-109968998D01*
X87805833Y-109997732D01*
X87807301Y-110038045D01*
X87808113Y-110092687D01*
X87808460Y-110164407D01*
X87808534Y-110255956D01*
X87808511Y-110314486D01*
X87808292Y-110393573D01*
X87807683Y-110454516D01*
X87806492Y-110500062D01*
X87804529Y-110532963D01*
X87801603Y-110555968D01*
X87797523Y-110571826D01*
X87792097Y-110583286D01*
X87785136Y-110593100D01*
X87754708Y-110617493D01*
X87719765Y-110620372D01*
X87682784Y-110601282D01*
X87678600Y-110597807D01*
X87670424Y-110589279D01*
X87664364Y-110577728D01*
X87659981Y-110559896D01*
X87656839Y-110532524D01*
X87654502Y-110492354D01*
X87652531Y-110436128D01*
X87650489Y-110360589D01*
X87644845Y-110141458D01*
X87379556Y-110382099D01*
X87305722Y-110448875D01*
X87240542Y-110506991D01*
X87188348Y-110551949D01*
X87147273Y-110584871D01*
X87115455Y-110606879D01*
X87091026Y-110619094D01*
X87072124Y-110622639D01*
X87056883Y-110618636D01*
X87043439Y-110608207D01*
X87029927Y-110592474D01*
X87023682Y-110583991D01*
X87018050Y-110573413D01*
X87013839Y-110559255D01*
X87010887Y-110538803D01*
X87009032Y-110509342D01*
X87008113Y-110468161D01*
X87007968Y-110412544D01*
X87008435Y-110339779D01*
X87009352Y-110247151D01*
X87012667Y-109932199D01*
X87039318Y-109910633D01*
X87065383Y-109894441D01*
X87098241Y-109891670D01*
X87132772Y-109910623D01*
X87137084Y-109914208D01*
X87145216Y-109922737D01*
X87151245Y-109934329D01*
X87155606Y-109952235D01*
X87158734Y-109979706D01*
X87161063Y-110019994D01*
X87163029Y-110076351D01*
X87165067Y-110152029D01*
X87170711Y-110371878D01*
X87351334Y-110208084D01*
X87438072Y-110129451D01*
X87513843Y-110061058D01*
X87575980Y-110005708D01*
X87626078Y-109962338D01*
X87665735Y-109929881D01*
X87696548Y-109907273D01*
X87720114Y-109893448D01*
X87738030Y-109887343D01*
X87751893Y-109887892D01*
G37*
X88549150Y-109894179D02*
X88655157Y-109910494D01*
X88748969Y-109938545D01*
X88827765Y-109977452D01*
X88888719Y-110026334D01*
X88914789Y-110059195D01*
X88944297Y-110108394D01*
X88969568Y-110162252D01*
X88987218Y-110213419D01*
X88993858Y-110254544D01*
X88992298Y-110274259D01*
X88979357Y-110325592D01*
X88956194Y-110382118D01*
X88926302Y-110436035D01*
X88893173Y-110479539D01*
X88882977Y-110489887D01*
X88815892Y-110541662D01*
X88735766Y-110581554D01*
X88649556Y-110605956D01*
X88594592Y-110614068D01*
X88501139Y-110620673D01*
X88411358Y-110618586D01*
X88328869Y-110608340D01*
X88257286Y-110590470D01*
X88200228Y-110565508D01*
X88161311Y-110533988D01*
X88159936Y-110532012D01*
X88152848Y-110506786D01*
X88148609Y-110459535D01*
X88147200Y-110390071D01*
X88148060Y-110327838D01*
X88152780Y-110280456D01*
X88164470Y-110248353D01*
X88186239Y-110228800D01*
X88221198Y-110219070D01*
X88272456Y-110216433D01*
X88343123Y-110218161D01*
X88391743Y-110221173D01*
X88441939Y-110229366D01*
X88474433Y-110243419D01*
X88491892Y-110264654D01*
X88496983Y-110294394D01*
X88496877Y-110298936D01*
X88488175Y-110333730D01*
X88464165Y-110357147D01*
X88422900Y-110370347D01*
X88362431Y-110374489D01*
X88293956Y-110374489D01*
X88293956Y-110412841D01*
X88294006Y-110421976D01*
X88296227Y-110439227D01*
X88305494Y-110449521D01*
X88326875Y-110456459D01*
X88365436Y-110463641D01*
X88370910Y-110464575D01*
X88467860Y-110474478D01*
X88557852Y-110471559D01*
X88638760Y-110456829D01*
X88708459Y-110431299D01*
X88764824Y-110395978D01*
X88805729Y-110351879D01*
X88829051Y-110300012D01*
X88832663Y-110241388D01*
X88827145Y-110212494D01*
X88800461Y-110156604D01*
X88754273Y-110110945D01*
X88689291Y-110076108D01*
X88606229Y-110052690D01*
X88581555Y-110048241D01*
X88492226Y-110037742D01*
X88412419Y-110038971D01*
X88334326Y-110051906D01*
X88299183Y-110058696D01*
X88253745Y-110059713D01*
X88222430Y-110047182D01*
X88202277Y-110020395D01*
X88195893Y-109992148D01*
X88205379Y-109960924D01*
X88214708Y-109947499D01*
X88248943Y-109923967D01*
X88301565Y-109906095D01*
X88370081Y-109894599D01*
X88452000Y-109890192D01*
X88549150Y-109894179D01*
G36*
X88549150Y-109894179D02*
G01*
X88655157Y-109910494D01*
X88748969Y-109938545D01*
X88827765Y-109977452D01*
X88888719Y-110026334D01*
X88914789Y-110059195D01*
X88944297Y-110108394D01*
X88969568Y-110162252D01*
X88987218Y-110213419D01*
X88993858Y-110254544D01*
X88992298Y-110274259D01*
X88979357Y-110325592D01*
X88956194Y-110382118D01*
X88926302Y-110436035D01*
X88893173Y-110479539D01*
X88882977Y-110489887D01*
X88815892Y-110541662D01*
X88735766Y-110581554D01*
X88649556Y-110605956D01*
X88594592Y-110614068D01*
X88501139Y-110620673D01*
X88411358Y-110618586D01*
X88328869Y-110608340D01*
X88257286Y-110590470D01*
X88200228Y-110565508D01*
X88161311Y-110533988D01*
X88159936Y-110532012D01*
X88152848Y-110506786D01*
X88148609Y-110459535D01*
X88147200Y-110390071D01*
X88148060Y-110327838D01*
X88152780Y-110280456D01*
X88164470Y-110248353D01*
X88186239Y-110228800D01*
X88221198Y-110219070D01*
X88272456Y-110216433D01*
X88343123Y-110218161D01*
X88391743Y-110221173D01*
X88441939Y-110229366D01*
X88474433Y-110243419D01*
X88491892Y-110264654D01*
X88496983Y-110294394D01*
X88496877Y-110298936D01*
X88488175Y-110333730D01*
X88464165Y-110357147D01*
X88422900Y-110370347D01*
X88362431Y-110374489D01*
X88293956Y-110374489D01*
X88293956Y-110412841D01*
X88294006Y-110421976D01*
X88296227Y-110439227D01*
X88305494Y-110449521D01*
X88326875Y-110456459D01*
X88365436Y-110463641D01*
X88370910Y-110464575D01*
X88467860Y-110474478D01*
X88557852Y-110471559D01*
X88638760Y-110456829D01*
X88708459Y-110431299D01*
X88764824Y-110395978D01*
X88805729Y-110351879D01*
X88829051Y-110300012D01*
X88832663Y-110241388D01*
X88827145Y-110212494D01*
X88800461Y-110156604D01*
X88754273Y-110110945D01*
X88689291Y-110076108D01*
X88606229Y-110052690D01*
X88581555Y-110048241D01*
X88492226Y-110037742D01*
X88412419Y-110038971D01*
X88334326Y-110051906D01*
X88299183Y-110058696D01*
X88253745Y-110059713D01*
X88222430Y-110047182D01*
X88202277Y-110020395D01*
X88195893Y-109992148D01*
X88205379Y-109960924D01*
X88214708Y-109947499D01*
X88248943Y-109923967D01*
X88301565Y-109906095D01*
X88370081Y-109894599D01*
X88452000Y-109890192D01*
X88549150Y-109894179D01*
G37*
X86599803Y-109918811D02*
X86604752Y-109925495D01*
X86610596Y-109936066D01*
X86615057Y-109950153D01*
X86618321Y-109970478D01*
X86620574Y-109999765D01*
X86622002Y-110040737D01*
X86622792Y-110096117D01*
X86623129Y-110168628D01*
X86623200Y-110260994D01*
X86623171Y-110326911D01*
X86622939Y-110405228D01*
X86622319Y-110465496D01*
X86621126Y-110510393D01*
X86619179Y-110542602D01*
X86616294Y-110564800D01*
X86612288Y-110579669D01*
X86606979Y-110589889D01*
X86600183Y-110598138D01*
X86595668Y-110602795D01*
X86587438Y-110609282D01*
X86576078Y-110614194D01*
X86558810Y-110617749D01*
X86532855Y-110620167D01*
X86495436Y-110621667D01*
X86443773Y-110622467D01*
X86375089Y-110622787D01*
X86286606Y-110622845D01*
X86266931Y-110622838D01*
X86179906Y-110622572D01*
X86112254Y-110621806D01*
X86061299Y-110620392D01*
X86024367Y-110618180D01*
X85998783Y-110615022D01*
X85981871Y-110610769D01*
X85970957Y-110605271D01*
X85960464Y-110595285D01*
X85947203Y-110564168D01*
X85948386Y-110528280D01*
X85964550Y-110496733D01*
X85966739Y-110494457D01*
X85975427Y-110488189D01*
X85988769Y-110483523D01*
X86009752Y-110480227D01*
X86041363Y-110478068D01*
X86086590Y-110476814D01*
X86148420Y-110476231D01*
X86229839Y-110476089D01*
X86476445Y-110476089D01*
X86476445Y-110318045D01*
X86314006Y-110318045D01*
X86278338Y-110317964D01*
X86222568Y-110317167D01*
X86183430Y-110315162D01*
X86156976Y-110311521D01*
X86139259Y-110305812D01*
X86126329Y-110297607D01*
X86122686Y-110294423D01*
X86104278Y-110263448D01*
X86103644Y-110227112D01*
X86121183Y-110193493D01*
X86121245Y-110193424D01*
X86130916Y-110184798D01*
X86144209Y-110178742D01*
X86164917Y-110174811D01*
X86196828Y-110172556D01*
X86243734Y-110171531D01*
X86309424Y-110171289D01*
X86477571Y-110171289D01*
X86474186Y-110106378D01*
X86470800Y-110041467D01*
X86228723Y-110038414D01*
X86203707Y-110038086D01*
X86122087Y-110036606D01*
X86059768Y-110034222D01*
X86014154Y-110030227D01*
X85982652Y-110023913D01*
X85962667Y-110014574D01*
X85951604Y-110001503D01*
X85946869Y-109983992D01*
X85945867Y-109961335D01*
X85945873Y-109958970D01*
X85947027Y-109938939D01*
X85951824Y-109923146D01*
X85962632Y-109911090D01*
X85981817Y-109902267D01*
X86011745Y-109896175D01*
X86054783Y-109892311D01*
X86113299Y-109890174D01*
X86189657Y-109889260D01*
X86286226Y-109889067D01*
X86576406Y-109889067D01*
X86599803Y-109918811D01*
G36*
X86599803Y-109918811D02*
G01*
X86604752Y-109925495D01*
X86610596Y-109936066D01*
X86615057Y-109950153D01*
X86618321Y-109970478D01*
X86620574Y-109999765D01*
X86622002Y-110040737D01*
X86622792Y-110096117D01*
X86623129Y-110168628D01*
X86623200Y-110260994D01*
X86623171Y-110326911D01*
X86622939Y-110405228D01*
X86622319Y-110465496D01*
X86621126Y-110510393D01*
X86619179Y-110542602D01*
X86616294Y-110564800D01*
X86612288Y-110579669D01*
X86606979Y-110589889D01*
X86600183Y-110598138D01*
X86595668Y-110602795D01*
X86587438Y-110609282D01*
X86576078Y-110614194D01*
X86558810Y-110617749D01*
X86532855Y-110620167D01*
X86495436Y-110621667D01*
X86443773Y-110622467D01*
X86375089Y-110622787D01*
X86286606Y-110622845D01*
X86266931Y-110622838D01*
X86179906Y-110622572D01*
X86112254Y-110621806D01*
X86061299Y-110620392D01*
X86024367Y-110618180D01*
X85998783Y-110615022D01*
X85981871Y-110610769D01*
X85970957Y-110605271D01*
X85960464Y-110595285D01*
X85947203Y-110564168D01*
X85948386Y-110528280D01*
X85964550Y-110496733D01*
X85966739Y-110494457D01*
X85975427Y-110488189D01*
X85988769Y-110483523D01*
X86009752Y-110480227D01*
X86041363Y-110478068D01*
X86086590Y-110476814D01*
X86148420Y-110476231D01*
X86229839Y-110476089D01*
X86476445Y-110476089D01*
X86476445Y-110318045D01*
X86314006Y-110318045D01*
X86278338Y-110317964D01*
X86222568Y-110317167D01*
X86183430Y-110315162D01*
X86156976Y-110311521D01*
X86139259Y-110305812D01*
X86126329Y-110297607D01*
X86122686Y-110294423D01*
X86104278Y-110263448D01*
X86103644Y-110227112D01*
X86121183Y-110193493D01*
X86121245Y-110193424D01*
X86130916Y-110184798D01*
X86144209Y-110178742D01*
X86164917Y-110174811D01*
X86196828Y-110172556D01*
X86243734Y-110171531D01*
X86309424Y-110171289D01*
X86477571Y-110171289D01*
X86474186Y-110106378D01*
X86470800Y-110041467D01*
X86228723Y-110038414D01*
X86203707Y-110038086D01*
X86122087Y-110036606D01*
X86059768Y-110034222D01*
X86014154Y-110030227D01*
X85982652Y-110023913D01*
X85962667Y-110014574D01*
X85951604Y-110001503D01*
X85946869Y-109983992D01*
X85945867Y-109961335D01*
X85945873Y-109958970D01*
X85947027Y-109938939D01*
X85951824Y-109923146D01*
X85962632Y-109911090D01*
X85981817Y-109902267D01*
X86011745Y-109896175D01*
X86054783Y-109892311D01*
X86113299Y-109890174D01*
X86189657Y-109889260D01*
X86286226Y-109889067D01*
X86576406Y-109889067D01*
X86599803Y-109918811D01*
G37*
X91276734Y-109889083D02*
X91353831Y-109889275D01*
X91412777Y-109889860D01*
X91456364Y-109891051D01*
X91487383Y-109893064D01*
X91508625Y-109896112D01*
X91522882Y-109900409D01*
X91532945Y-109906172D01*
X91541606Y-109913612D01*
X91543391Y-109915293D01*
X91550635Y-109922832D01*
X91556277Y-109931850D01*
X91560517Y-109944984D01*
X91563556Y-109964872D01*
X91565594Y-109994151D01*
X91566830Y-110035458D01*
X91567465Y-110091431D01*
X91567700Y-110164707D01*
X91567734Y-110257923D01*
X91567697Y-110330713D01*
X91567448Y-110408889D01*
X91566812Y-110469103D01*
X91565615Y-110513982D01*
X91563684Y-110546152D01*
X91560846Y-110568239D01*
X91556927Y-110582870D01*
X91551755Y-110592670D01*
X91545156Y-110600267D01*
X91541822Y-110603444D01*
X91533300Y-110609554D01*
X91521298Y-110614229D01*
X91503087Y-110617659D01*
X91475940Y-110620036D01*
X91437129Y-110621552D01*
X91383924Y-110622398D01*
X91313598Y-110622765D01*
X91223422Y-110622845D01*
X91181314Y-110622833D01*
X91100167Y-110622651D01*
X91037675Y-110622098D01*
X90991109Y-110620982D01*
X90957741Y-110619113D01*
X90934844Y-110616298D01*
X90919688Y-110612346D01*
X90909546Y-110607066D01*
X90901689Y-110600267D01*
X90886963Y-110578667D01*
X90879111Y-110549467D01*
X90884610Y-110525560D01*
X90901689Y-110498667D01*
X90906668Y-110494059D01*
X90916443Y-110487772D01*
X90930559Y-110483146D01*
X90952054Y-110479930D01*
X90983968Y-110477870D01*
X91029342Y-110476712D01*
X91091213Y-110476202D01*
X91172622Y-110476089D01*
X91420978Y-110476089D01*
X91420978Y-110318045D01*
X91259801Y-110318045D01*
X91223983Y-110317899D01*
X91158359Y-110316176D01*
X91111118Y-110311741D01*
X91079383Y-110303637D01*
X91060277Y-110290906D01*
X91050923Y-110272592D01*
X91048445Y-110247738D01*
X91049242Y-110227482D01*
X91054494Y-110205656D01*
X91067288Y-110190304D01*
X91090628Y-110180309D01*
X91127517Y-110174553D01*
X91180959Y-110171919D01*
X91253958Y-110171289D01*
X91422105Y-110171289D01*
X91418719Y-110106378D01*
X91415334Y-110041467D01*
X91167617Y-110038418D01*
X91105026Y-110037539D01*
X91036565Y-110036095D01*
X90985661Y-110034164D01*
X90949408Y-110031514D01*
X90924901Y-110027910D01*
X90909235Y-110023121D01*
X90899506Y-110016913D01*
X90893491Y-110010510D01*
X90880482Y-109978828D01*
X90884043Y-109943142D01*
X90903818Y-109912084D01*
X90907069Y-109909161D01*
X90916049Y-109902810D01*
X90928153Y-109897957D01*
X90946159Y-109894403D01*
X90972847Y-109891946D01*
X91010997Y-109890385D01*
X91063386Y-109889518D01*
X91132794Y-109889146D01*
X91222001Y-109889067D01*
X91276734Y-109889083D01*
G36*
X91276734Y-109889083D02*
G01*
X91353831Y-109889275D01*
X91412777Y-109889860D01*
X91456364Y-109891051D01*
X91487383Y-109893064D01*
X91508625Y-109896112D01*
X91522882Y-109900409D01*
X91532945Y-109906172D01*
X91541606Y-109913612D01*
X91543391Y-109915293D01*
X91550635Y-109922832D01*
X91556277Y-109931850D01*
X91560517Y-109944984D01*
X91563556Y-109964872D01*
X91565594Y-109994151D01*
X91566830Y-110035458D01*
X91567465Y-110091431D01*
X91567700Y-110164707D01*
X91567734Y-110257923D01*
X91567697Y-110330713D01*
X91567448Y-110408889D01*
X91566812Y-110469103D01*
X91565615Y-110513982D01*
X91563684Y-110546152D01*
X91560846Y-110568239D01*
X91556927Y-110582870D01*
X91551755Y-110592670D01*
X91545156Y-110600267D01*
X91541822Y-110603444D01*
X91533300Y-110609554D01*
X91521298Y-110614229D01*
X91503087Y-110617659D01*
X91475940Y-110620036D01*
X91437129Y-110621552D01*
X91383924Y-110622398D01*
X91313598Y-110622765D01*
X91223422Y-110622845D01*
X91181314Y-110622833D01*
X91100167Y-110622651D01*
X91037675Y-110622098D01*
X90991109Y-110620982D01*
X90957741Y-110619113D01*
X90934844Y-110616298D01*
X90919688Y-110612346D01*
X90909546Y-110607066D01*
X90901689Y-110600267D01*
X90886963Y-110578667D01*
X90879111Y-110549467D01*
X90884610Y-110525560D01*
X90901689Y-110498667D01*
X90906668Y-110494059D01*
X90916443Y-110487772D01*
X90930559Y-110483146D01*
X90952054Y-110479930D01*
X90983968Y-110477870D01*
X91029342Y-110476712D01*
X91091213Y-110476202D01*
X91172622Y-110476089D01*
X91420978Y-110476089D01*
X91420978Y-110318045D01*
X91259801Y-110318045D01*
X91223983Y-110317899D01*
X91158359Y-110316176D01*
X91111118Y-110311741D01*
X91079383Y-110303637D01*
X91060277Y-110290906D01*
X91050923Y-110272592D01*
X91048445Y-110247738D01*
X91049242Y-110227482D01*
X91054494Y-110205656D01*
X91067288Y-110190304D01*
X91090628Y-110180309D01*
X91127517Y-110174553D01*
X91180959Y-110171919D01*
X91253958Y-110171289D01*
X91422105Y-110171289D01*
X91418719Y-110106378D01*
X91415334Y-110041467D01*
X91167617Y-110038418D01*
X91105026Y-110037539D01*
X91036565Y-110036095D01*
X90985661Y-110034164D01*
X90949408Y-110031514D01*
X90924901Y-110027910D01*
X90909235Y-110023121D01*
X90899506Y-110016913D01*
X90893491Y-110010510D01*
X90880482Y-109978828D01*
X90884043Y-109943142D01*
X90903818Y-109912084D01*
X90907069Y-109909161D01*
X90916049Y-109902810D01*
X90928153Y-109897957D01*
X90946159Y-109894403D01*
X90972847Y-109891946D01*
X91010997Y-109890385D01*
X91063386Y-109889518D01*
X91132794Y-109889146D01*
X91222001Y-109889067D01*
X91276734Y-109889083D01*
G37*
X82709702Y-109898478D02*
X82727663Y-109916989D01*
X82748263Y-109948071D01*
X82773095Y-109993756D01*
X82803750Y-110056078D01*
X82841820Y-110137071D01*
X82856454Y-110168454D01*
X82886203Y-110231638D01*
X82912297Y-110286244D01*
X82933292Y-110329290D01*
X82947739Y-110357793D01*
X82954191Y-110368770D01*
X82955550Y-110368189D01*
X82965542Y-110354242D01*
X82982833Y-110324704D01*
X83005430Y-110283087D01*
X83031338Y-110232903D01*
X83047311Y-110201414D01*
X83076261Y-110146061D01*
X83098749Y-110107044D01*
X83116965Y-110081566D01*
X83133096Y-110066831D01*
X83149330Y-110060042D01*
X83167857Y-110058400D01*
X83178360Y-110058875D01*
X83194476Y-110063082D01*
X83209790Y-110073946D01*
X83226388Y-110094219D01*
X83246357Y-110126654D01*
X83271783Y-110174004D01*
X83304752Y-110239022D01*
X83314485Y-110258277D01*
X83338943Y-110304946D01*
X83359178Y-110341109D01*
X83373311Y-110363497D01*
X83379460Y-110368845D01*
X83380827Y-110365573D01*
X83390202Y-110344664D01*
X83407062Y-110307725D01*
X83429979Y-110257874D01*
X83457520Y-110198226D01*
X83488255Y-110131898D01*
X83514970Y-110074677D01*
X83544593Y-110012688D01*
X83567664Y-109966949D01*
X83585643Y-109934908D01*
X83599990Y-109914014D01*
X83612166Y-109901718D01*
X83623632Y-109895466D01*
X83633042Y-109892574D01*
X83658147Y-109892425D01*
X83685290Y-109907768D01*
X83686590Y-109908753D01*
X83708674Y-109931388D01*
X83719723Y-109953613D01*
X83719769Y-109954253D01*
X83715228Y-109971915D01*
X83702364Y-110006481D01*
X83682605Y-110054826D01*
X83657381Y-110113825D01*
X83628119Y-110180355D01*
X83596250Y-110251291D01*
X83563201Y-110323507D01*
X83530401Y-110393880D01*
X83499280Y-110459285D01*
X83471265Y-110516597D01*
X83447786Y-110562692D01*
X83430272Y-110594446D01*
X83420151Y-110608733D01*
X83385743Y-110622102D01*
X83344046Y-110615741D01*
X83338681Y-110611044D01*
X83322852Y-110588893D01*
X83300650Y-110552132D01*
X83274233Y-110504415D01*
X83245760Y-110449393D01*
X83165986Y-110290150D01*
X83092799Y-110436742D01*
X83083103Y-110456032D01*
X83056125Y-110508380D01*
X83032096Y-110553170D01*
X83013332Y-110586154D01*
X83002146Y-110603089D01*
X83001000Y-110604332D01*
X82972879Y-110619619D01*
X82937817Y-110621302D01*
X82906776Y-110608733D01*
X82904350Y-110605884D01*
X82892090Y-110585259D01*
X82872352Y-110547708D01*
X82846448Y-110495880D01*
X82815685Y-110432423D01*
X82781375Y-110359985D01*
X82744825Y-110281216D01*
X82724585Y-110237093D01*
X82687812Y-110156365D01*
X82659355Y-110092687D01*
X82638331Y-110043752D01*
X82623854Y-110007257D01*
X82615039Y-109980895D01*
X82611004Y-109962361D01*
X82610862Y-109949352D01*
X82613730Y-109939561D01*
X82628387Y-109918678D01*
X82654990Y-109898377D01*
X82655745Y-109898035D01*
X82675335Y-109891034D01*
X82692790Y-109890504D01*
X82709702Y-109898478D01*
G36*
X82709702Y-109898478D02*
G01*
X82727663Y-109916989D01*
X82748263Y-109948071D01*
X82773095Y-109993756D01*
X82803750Y-110056078D01*
X82841820Y-110137071D01*
X82856454Y-110168454D01*
X82886203Y-110231638D01*
X82912297Y-110286244D01*
X82933292Y-110329290D01*
X82947739Y-110357793D01*
X82954191Y-110368770D01*
X82955550Y-110368189D01*
X82965542Y-110354242D01*
X82982833Y-110324704D01*
X83005430Y-110283087D01*
X83031338Y-110232903D01*
X83047311Y-110201414D01*
X83076261Y-110146061D01*
X83098749Y-110107044D01*
X83116965Y-110081566D01*
X83133096Y-110066831D01*
X83149330Y-110060042D01*
X83167857Y-110058400D01*
X83178360Y-110058875D01*
X83194476Y-110063082D01*
X83209790Y-110073946D01*
X83226388Y-110094219D01*
X83246357Y-110126654D01*
X83271783Y-110174004D01*
X83304752Y-110239022D01*
X83314485Y-110258277D01*
X83338943Y-110304946D01*
X83359178Y-110341109D01*
X83373311Y-110363497D01*
X83379460Y-110368845D01*
X83380827Y-110365573D01*
X83390202Y-110344664D01*
X83407062Y-110307725D01*
X83429979Y-110257874D01*
X83457520Y-110198226D01*
X83488255Y-110131898D01*
X83514970Y-110074677D01*
X83544593Y-110012688D01*
X83567664Y-109966949D01*
X83585643Y-109934908D01*
X83599990Y-109914014D01*
X83612166Y-109901718D01*
X83623632Y-109895466D01*
X83633042Y-109892574D01*
X83658147Y-109892425D01*
X83685290Y-109907768D01*
X83686590Y-109908753D01*
X83708674Y-109931388D01*
X83719723Y-109953613D01*
X83719769Y-109954253D01*
X83715228Y-109971915D01*
X83702364Y-110006481D01*
X83682605Y-110054826D01*
X83657381Y-110113825D01*
X83628119Y-110180355D01*
X83596250Y-110251291D01*
X83563201Y-110323507D01*
X83530401Y-110393880D01*
X83499280Y-110459285D01*
X83471265Y-110516597D01*
X83447786Y-110562692D01*
X83430272Y-110594446D01*
X83420151Y-110608733D01*
X83385743Y-110622102D01*
X83344046Y-110615741D01*
X83338681Y-110611044D01*
X83322852Y-110588893D01*
X83300650Y-110552132D01*
X83274233Y-110504415D01*
X83245760Y-110449393D01*
X83165986Y-110290150D01*
X83092799Y-110436742D01*
X83083103Y-110456032D01*
X83056125Y-110508380D01*
X83032096Y-110553170D01*
X83013332Y-110586154D01*
X83002146Y-110603089D01*
X83001000Y-110604332D01*
X82972879Y-110619619D01*
X82937817Y-110621302D01*
X82906776Y-110608733D01*
X82904350Y-110605884D01*
X82892090Y-110585259D01*
X82872352Y-110547708D01*
X82846448Y-110495880D01*
X82815685Y-110432423D01*
X82781375Y-110359985D01*
X82744825Y-110281216D01*
X82724585Y-110237093D01*
X82687812Y-110156365D01*
X82659355Y-110092687D01*
X82638331Y-110043752D01*
X82623854Y-110007257D01*
X82615039Y-109980895D01*
X82611004Y-109962361D01*
X82610862Y-109949352D01*
X82613730Y-109939561D01*
X82628387Y-109918678D01*
X82654990Y-109898377D01*
X82655745Y-109898035D01*
X82675335Y-109891034D01*
X82692790Y-109890504D01*
X82709702Y-109898478D01*
G37*
X90260853Y-109889936D02*
X90327100Y-109895366D01*
X90382400Y-109904964D01*
X90433283Y-109919825D01*
X90504595Y-109952958D01*
X90555752Y-109995640D01*
X90586575Y-110047705D01*
X90596889Y-110108983D01*
X90595952Y-110140232D01*
X90590160Y-110165029D01*
X90575353Y-110186699D01*
X90547380Y-110214049D01*
X90539402Y-110221378D01*
X90515692Y-110242281D01*
X90493298Y-110259251D01*
X90469265Y-110273205D01*
X90440637Y-110285056D01*
X90404460Y-110295720D01*
X90357780Y-110306111D01*
X90297641Y-110317146D01*
X90221090Y-110329738D01*
X90125171Y-110344804D01*
X90106808Y-110347838D01*
X90044478Y-110361458D01*
X89999260Y-110377192D01*
X89972976Y-110394263D01*
X89967447Y-110411897D01*
X89970068Y-110416168D01*
X89988000Y-110431233D01*
X90016126Y-110447867D01*
X90028926Y-110453857D01*
X90050224Y-110461050D01*
X90076610Y-110465827D01*
X90112454Y-110468646D01*
X90162128Y-110469964D01*
X90230000Y-110470237D01*
X90247785Y-110470164D01*
X90315406Y-110469053D01*
X90380345Y-110466828D01*
X90435970Y-110463762D01*
X90475651Y-110460127D01*
X90511162Y-110456059D01*
X90540415Y-110455276D01*
X90559315Y-110459876D01*
X90574429Y-110470551D01*
X90578085Y-110474144D01*
X90594427Y-110505918D01*
X90593107Y-110541572D01*
X90574150Y-110572190D01*
X90553780Y-110583796D01*
X90517796Y-110596491D01*
X90475372Y-110606541D01*
X90471922Y-110607140D01*
X90429252Y-110612356D01*
X90371866Y-110616730D01*
X90306849Y-110619818D01*
X90241289Y-110621177D01*
X90225057Y-110621218D01*
X90126744Y-110618741D01*
X90046692Y-110610735D01*
X89981513Y-110596203D01*
X89927817Y-110574149D01*
X89882216Y-110543576D01*
X89841323Y-110503486D01*
X89821202Y-110477259D01*
X89809576Y-110447712D01*
X89806667Y-110407995D01*
X89806808Y-110396026D01*
X89810681Y-110363345D01*
X89823065Y-110336819D01*
X89848230Y-110305971D01*
X89869442Y-110283831D01*
X89895838Y-110261285D01*
X89925555Y-110242917D01*
X89961785Y-110227661D01*
X90007717Y-110214449D01*
X90066544Y-110202214D01*
X90141456Y-110189889D01*
X90235645Y-110176406D01*
X90280957Y-110169396D01*
X90348911Y-110154837D01*
X90398047Y-110138337D01*
X90427614Y-110120439D01*
X90436864Y-110101685D01*
X90425048Y-110082615D01*
X90391416Y-110063771D01*
X90388370Y-110062557D01*
X90342011Y-110050479D01*
X90279361Y-110042279D01*
X90205927Y-110038119D01*
X90127217Y-110038161D01*
X90048739Y-110042569D01*
X89976000Y-110051505D01*
X89972073Y-110052154D01*
X89923257Y-110059861D01*
X89891005Y-110063473D01*
X89870008Y-110062876D01*
X89854954Y-110057954D01*
X89840534Y-110048596D01*
X89839364Y-110047725D01*
X89814847Y-110017351D01*
X89810054Y-109981850D01*
X89825860Y-109947269D01*
X89830406Y-109942813D01*
X89860020Y-109927673D01*
X89907002Y-109914550D01*
X89967306Y-109903750D01*
X90036888Y-109895581D01*
X90111703Y-109890351D01*
X90187706Y-109888367D01*
X90260853Y-109889936D01*
G36*
X90260853Y-109889936D02*
G01*
X90327100Y-109895366D01*
X90382400Y-109904964D01*
X90433283Y-109919825D01*
X90504595Y-109952958D01*
X90555752Y-109995640D01*
X90586575Y-110047705D01*
X90596889Y-110108983D01*
X90595952Y-110140232D01*
X90590160Y-110165029D01*
X90575353Y-110186699D01*
X90547380Y-110214049D01*
X90539402Y-110221378D01*
X90515692Y-110242281D01*
X90493298Y-110259251D01*
X90469265Y-110273205D01*
X90440637Y-110285056D01*
X90404460Y-110295720D01*
X90357780Y-110306111D01*
X90297641Y-110317146D01*
X90221090Y-110329738D01*
X90125171Y-110344804D01*
X90106808Y-110347838D01*
X90044478Y-110361458D01*
X89999260Y-110377192D01*
X89972976Y-110394263D01*
X89967447Y-110411897D01*
X89970068Y-110416168D01*
X89988000Y-110431233D01*
X90016126Y-110447867D01*
X90028926Y-110453857D01*
X90050224Y-110461050D01*
X90076610Y-110465827D01*
X90112454Y-110468646D01*
X90162128Y-110469964D01*
X90230000Y-110470237D01*
X90247785Y-110470164D01*
X90315406Y-110469053D01*
X90380345Y-110466828D01*
X90435970Y-110463762D01*
X90475651Y-110460127D01*
X90511162Y-110456059D01*
X90540415Y-110455276D01*
X90559315Y-110459876D01*
X90574429Y-110470551D01*
X90578085Y-110474144D01*
X90594427Y-110505918D01*
X90593107Y-110541572D01*
X90574150Y-110572190D01*
X90553780Y-110583796D01*
X90517796Y-110596491D01*
X90475372Y-110606541D01*
X90471922Y-110607140D01*
X90429252Y-110612356D01*
X90371866Y-110616730D01*
X90306849Y-110619818D01*
X90241289Y-110621177D01*
X90225057Y-110621218D01*
X90126744Y-110618741D01*
X90046692Y-110610735D01*
X89981513Y-110596203D01*
X89927817Y-110574149D01*
X89882216Y-110543576D01*
X89841323Y-110503486D01*
X89821202Y-110477259D01*
X89809576Y-110447712D01*
X89806667Y-110407995D01*
X89806808Y-110396026D01*
X89810681Y-110363345D01*
X89823065Y-110336819D01*
X89848230Y-110305971D01*
X89869442Y-110283831D01*
X89895838Y-110261285D01*
X89925555Y-110242917D01*
X89961785Y-110227661D01*
X90007717Y-110214449D01*
X90066544Y-110202214D01*
X90141456Y-110189889D01*
X90235645Y-110176406D01*
X90280957Y-110169396D01*
X90348911Y-110154837D01*
X90398047Y-110138337D01*
X90427614Y-110120439D01*
X90436864Y-110101685D01*
X90425048Y-110082615D01*
X90391416Y-110063771D01*
X90388370Y-110062557D01*
X90342011Y-110050479D01*
X90279361Y-110042279D01*
X90205927Y-110038119D01*
X90127217Y-110038161D01*
X90048739Y-110042569D01*
X89976000Y-110051505D01*
X89972073Y-110052154D01*
X89923257Y-110059861D01*
X89891005Y-110063473D01*
X89870008Y-110062876D01*
X89854954Y-110057954D01*
X89840534Y-110048596D01*
X89839364Y-110047725D01*
X89814847Y-110017351D01*
X89810054Y-109981850D01*
X89825860Y-109947269D01*
X89830406Y-109942813D01*
X89860020Y-109927673D01*
X89907002Y-109914550D01*
X89967306Y-109903750D01*
X90036888Y-109895581D01*
X90111703Y-109890351D01*
X90187706Y-109888367D01*
X90260853Y-109889936D01*
G37*
X86408711Y-105582033D02*
X86504268Y-105599523D01*
X86668558Y-105644564D01*
X86822589Y-105707656D01*
X86968509Y-105789915D01*
X87108466Y-105892457D01*
X87244608Y-106016399D01*
X87288473Y-106061661D01*
X87400758Y-106193865D01*
X87493972Y-106331832D01*
X87570719Y-106479750D01*
X87633603Y-106641803D01*
X87637420Y-106653391D01*
X87687507Y-106839392D01*
X87720899Y-107035521D01*
X87737584Y-107237568D01*
X87737551Y-107441325D01*
X87720791Y-107642581D01*
X87687292Y-107837128D01*
X87637044Y-108020756D01*
X87593190Y-108138053D01*
X87515348Y-108300951D01*
X87421828Y-108454866D01*
X87314822Y-108596671D01*
X87196519Y-108723239D01*
X87069111Y-108831441D01*
X86991606Y-108884120D01*
X86864725Y-108953750D01*
X86727243Y-109012468D01*
X86585716Y-109057587D01*
X86446702Y-109086422D01*
X86432597Y-109088106D01*
X86389153Y-109091434D01*
X86331723Y-109094275D01*
X86266122Y-109096373D01*
X86198167Y-109097468D01*
X86071378Y-109095140D01*
X85923673Y-109082136D01*
X85785779Y-109057133D01*
X85652014Y-109019318D01*
X85628562Y-109010889D01*
X85580612Y-108991408D01*
X85524140Y-108966473D01*
X85462379Y-108937722D01*
X85398563Y-108906790D01*
X85335926Y-108875315D01*
X85277703Y-108844934D01*
X85227127Y-108817283D01*
X85187433Y-108793999D01*
X85161854Y-108776718D01*
X85153625Y-108767079D01*
X85155076Y-108763984D01*
X85166250Y-108744079D01*
X85187134Y-108708420D01*
X85216265Y-108659459D01*
X85252181Y-108599646D01*
X85293420Y-108531433D01*
X85338517Y-108457271D01*
X85519785Y-108160008D01*
X85566315Y-108204539D01*
X85657723Y-108282865D01*
X85771334Y-108357439D01*
X85889122Y-108411474D01*
X86009559Y-108444290D01*
X86131117Y-108455211D01*
X86172585Y-108453868D01*
X86290080Y-108435612D01*
X86400089Y-108396617D01*
X86501430Y-108337670D01*
X86592921Y-108259557D01*
X86673380Y-108163064D01*
X86741627Y-108048978D01*
X86757908Y-108014724D01*
X86803982Y-107891240D01*
X86839106Y-107752918D01*
X86863197Y-107603561D01*
X86876173Y-107446973D01*
X86877949Y-107286956D01*
X86868443Y-107127314D01*
X86847572Y-106971850D01*
X86815252Y-106824366D01*
X86771399Y-106688667D01*
X86733982Y-106602076D01*
X86669185Y-106488688D01*
X86593772Y-106395070D01*
X86507418Y-106320959D01*
X86409795Y-106266094D01*
X86300577Y-106230212D01*
X86179439Y-106213051D01*
X86110038Y-106211880D01*
X85987168Y-106226141D01*
X85871664Y-106261241D01*
X85764953Y-106316682D01*
X85668464Y-106391964D01*
X85652720Y-106406440D01*
X85622150Y-106432962D01*
X85599809Y-106450138D01*
X85589691Y-106454787D01*
X85587706Y-106452597D01*
X85573241Y-106433721D01*
X85549400Y-106400397D01*
X85518029Y-106355380D01*
X85480974Y-106301425D01*
X85440083Y-106241285D01*
X85397202Y-106177718D01*
X85354178Y-106113476D01*
X85312857Y-106051315D01*
X85275086Y-105993991D01*
X85242712Y-105944257D01*
X85217582Y-105904868D01*
X85201542Y-105878580D01*
X85196439Y-105868147D01*
X85201050Y-105863941D01*
X85220267Y-105858933D01*
X85229838Y-105856386D01*
X85257809Y-105845249D01*
X85299448Y-105826802D01*
X85350995Y-105802725D01*
X85408690Y-105774699D01*
X85419957Y-105769154D01*
X85597687Y-105689889D01*
X85767490Y-105630385D01*
X85931430Y-105590245D01*
X86091571Y-105569071D01*
X86249977Y-105566466D01*
X86408711Y-105582033D01*
G36*
X86408711Y-105582033D02*
G01*
X86504268Y-105599523D01*
X86668558Y-105644564D01*
X86822589Y-105707656D01*
X86968509Y-105789915D01*
X87108466Y-105892457D01*
X87244608Y-106016399D01*
X87288473Y-106061661D01*
X87400758Y-106193865D01*
X87493972Y-106331832D01*
X87570719Y-106479750D01*
X87633603Y-106641803D01*
X87637420Y-106653391D01*
X87687507Y-106839392D01*
X87720899Y-107035521D01*
X87737584Y-107237568D01*
X87737551Y-107441325D01*
X87720791Y-107642581D01*
X87687292Y-107837128D01*
X87637044Y-108020756D01*
X87593190Y-108138053D01*
X87515348Y-108300951D01*
X87421828Y-108454866D01*
X87314822Y-108596671D01*
X87196519Y-108723239D01*
X87069111Y-108831441D01*
X86991606Y-108884120D01*
X86864725Y-108953750D01*
X86727243Y-109012468D01*
X86585716Y-109057587D01*
X86446702Y-109086422D01*
X86432597Y-109088106D01*
X86389153Y-109091434D01*
X86331723Y-109094275D01*
X86266122Y-109096373D01*
X86198167Y-109097468D01*
X86071378Y-109095140D01*
X85923673Y-109082136D01*
X85785779Y-109057133D01*
X85652014Y-109019318D01*
X85628562Y-109010889D01*
X85580612Y-108991408D01*
X85524140Y-108966473D01*
X85462379Y-108937722D01*
X85398563Y-108906790D01*
X85335926Y-108875315D01*
X85277703Y-108844934D01*
X85227127Y-108817283D01*
X85187433Y-108793999D01*
X85161854Y-108776718D01*
X85153625Y-108767079D01*
X85155076Y-108763984D01*
X85166250Y-108744079D01*
X85187134Y-108708420D01*
X85216265Y-108659459D01*
X85252181Y-108599646D01*
X85293420Y-108531433D01*
X85338517Y-108457271D01*
X85519785Y-108160008D01*
X85566315Y-108204539D01*
X85657723Y-108282865D01*
X85771334Y-108357439D01*
X85889122Y-108411474D01*
X86009559Y-108444290D01*
X86131117Y-108455211D01*
X86172585Y-108453868D01*
X86290080Y-108435612D01*
X86400089Y-108396617D01*
X86501430Y-108337670D01*
X86592921Y-108259557D01*
X86673380Y-108163064D01*
X86741627Y-108048978D01*
X86757908Y-108014724D01*
X86803982Y-107891240D01*
X86839106Y-107752918D01*
X86863197Y-107603561D01*
X86876173Y-107446973D01*
X86877949Y-107286956D01*
X86868443Y-107127314D01*
X86847572Y-106971850D01*
X86815252Y-106824366D01*
X86771399Y-106688667D01*
X86733982Y-106602076D01*
X86669185Y-106488688D01*
X86593772Y-106395070D01*
X86507418Y-106320959D01*
X86409795Y-106266094D01*
X86300577Y-106230212D01*
X86179439Y-106213051D01*
X86110038Y-106211880D01*
X85987168Y-106226141D01*
X85871664Y-106261241D01*
X85764953Y-106316682D01*
X85668464Y-106391964D01*
X85652720Y-106406440D01*
X85622150Y-106432962D01*
X85599809Y-106450138D01*
X85589691Y-106454787D01*
X85587706Y-106452597D01*
X85573241Y-106433721D01*
X85549400Y-106400397D01*
X85518029Y-106355380D01*
X85480974Y-106301425D01*
X85440083Y-106241285D01*
X85397202Y-106177718D01*
X85354178Y-106113476D01*
X85312857Y-106051315D01*
X85275086Y-105993991D01*
X85242712Y-105944257D01*
X85217582Y-105904868D01*
X85201542Y-105878580D01*
X85196439Y-105868147D01*
X85201050Y-105863941D01*
X85220267Y-105858933D01*
X85229838Y-105856386D01*
X85257809Y-105845249D01*
X85299448Y-105826802D01*
X85350995Y-105802725D01*
X85408690Y-105774699D01*
X85419957Y-105769154D01*
X85597687Y-105689889D01*
X85767490Y-105630385D01*
X85931430Y-105590245D01*
X86091571Y-105569071D01*
X86249977Y-105566466D01*
X86408711Y-105582033D01*
G37*
X82605994Y-107862711D02*
X82605268Y-107940158D01*
X82596689Y-108091594D01*
X82577833Y-108228283D01*
X82547837Y-108354276D01*
X82505836Y-108473625D01*
X82450969Y-108590381D01*
X82384167Y-108701179D01*
X82293363Y-108814739D01*
X82189708Y-108910211D01*
X82073887Y-108987073D01*
X81946586Y-109044797D01*
X81808489Y-109082858D01*
X81770793Y-109088666D01*
X81691752Y-109094396D01*
X81603629Y-109094583D01*
X81514236Y-109089539D01*
X81431384Y-109079578D01*
X81362887Y-109065012D01*
X81332035Y-109055364D01*
X81254730Y-109025123D01*
X81177679Y-108987617D01*
X81108200Y-108946614D01*
X81053615Y-108905879D01*
X81030916Y-108886505D01*
X81008201Y-108868662D01*
X80996779Y-108861778D01*
X80995537Y-108863424D01*
X80992728Y-108881205D01*
X80990776Y-108914370D01*
X80990045Y-108957733D01*
X80990045Y-109053689D01*
X80131896Y-109053689D01*
X80166161Y-108992974D01*
X80171355Y-108983868D01*
X80179715Y-108969249D01*
X80187288Y-108955173D01*
X80194112Y-108940540D01*
X80200227Y-108924249D01*
X80205673Y-108905198D01*
X80210487Y-108882286D01*
X80214708Y-108854413D01*
X80218377Y-108820478D01*
X80221531Y-108779379D01*
X80224211Y-108730015D01*
X80226454Y-108671286D01*
X80228299Y-108602090D01*
X80229787Y-108521326D01*
X80230955Y-108427894D01*
X80231844Y-108320692D01*
X80232491Y-108198620D01*
X80232936Y-108060576D01*
X80233218Y-107905459D01*
X80233375Y-107732168D01*
X80233448Y-107539603D01*
X80233474Y-107326662D01*
X80233485Y-107190530D01*
X81035200Y-107190530D01*
X81035200Y-108340721D01*
X81105756Y-108387089D01*
X81146417Y-108410791D01*
X81200546Y-108436639D01*
X81249689Y-108454829D01*
X81313165Y-108470551D01*
X81409331Y-108481541D01*
X81493900Y-108473365D01*
X81567219Y-108445805D01*
X81629637Y-108398642D01*
X81681502Y-108331658D01*
X81723160Y-108244633D01*
X81754962Y-108137350D01*
X81757545Y-108125009D01*
X81766000Y-108063772D01*
X81771663Y-107986692D01*
X81774576Y-107899002D01*
X81774783Y-107805934D01*
X81772330Y-107712720D01*
X81767261Y-107624594D01*
X81759619Y-107546788D01*
X81749448Y-107484533D01*
X81748167Y-107478666D01*
X81719126Y-107368121D01*
X81684610Y-107277575D01*
X81643456Y-107204953D01*
X81594499Y-107148181D01*
X81536574Y-107105184D01*
X81504620Y-107089615D01*
X81431784Y-107070722D01*
X81350443Y-107067465D01*
X81265319Y-107079389D01*
X81181133Y-107106040D01*
X81102608Y-107146962D01*
X81035200Y-107190530D01*
X80233485Y-107190530D01*
X80233493Y-107092245D01*
X80233689Y-105407378D01*
X81139017Y-105407378D01*
X81114585Y-105444067D01*
X81108318Y-105453647D01*
X81082208Y-105499981D01*
X81064469Y-105547102D01*
X81052908Y-105602251D01*
X81045331Y-105672667D01*
X81044839Y-105679650D01*
X81043062Y-105717641D01*
X81041444Y-105771576D01*
X81039999Y-105838703D01*
X81038740Y-105916271D01*
X81037680Y-106001528D01*
X81036829Y-106091724D01*
X81036203Y-106184107D01*
X81035812Y-106275925D01*
X81035670Y-106364427D01*
X81035790Y-106446862D01*
X81036183Y-106520479D01*
X81036862Y-106582526D01*
X81037841Y-106630251D01*
X81039132Y-106660904D01*
X81040747Y-106671733D01*
X81048957Y-106667333D01*
X81070647Y-106652362D01*
X81100014Y-106630448D01*
X81148879Y-106596236D01*
X81237125Y-106549714D01*
X81335916Y-106516046D01*
X81448510Y-106494231D01*
X81578164Y-106483265D01*
X81670670Y-106482219D01*
X81792011Y-106492014D01*
X81902099Y-106516174D01*
X82005389Y-106555785D01*
X82106338Y-106611932D01*
X82151503Y-106642883D01*
X82256911Y-106734115D01*
X82348538Y-106843106D01*
X82426332Y-106969726D01*
X82490241Y-107113845D01*
X82540214Y-107275332D01*
X82576198Y-107454059D01*
X82598143Y-107649895D01*
X82603900Y-107805934D01*
X82605994Y-107862711D01*
G36*
X82605994Y-107862711D02*
G01*
X82605268Y-107940158D01*
X82596689Y-108091594D01*
X82577833Y-108228283D01*
X82547837Y-108354276D01*
X82505836Y-108473625D01*
X82450969Y-108590381D01*
X82384167Y-108701179D01*
X82293363Y-108814739D01*
X82189708Y-108910211D01*
X82073887Y-108987073D01*
X81946586Y-109044797D01*
X81808489Y-109082858D01*
X81770793Y-109088666D01*
X81691752Y-109094396D01*
X81603629Y-109094583D01*
X81514236Y-109089539D01*
X81431384Y-109079578D01*
X81362887Y-109065012D01*
X81332035Y-109055364D01*
X81254730Y-109025123D01*
X81177679Y-108987617D01*
X81108200Y-108946614D01*
X81053615Y-108905879D01*
X81030916Y-108886505D01*
X81008201Y-108868662D01*
X80996779Y-108861778D01*
X80995537Y-108863424D01*
X80992728Y-108881205D01*
X80990776Y-108914370D01*
X80990045Y-108957733D01*
X80990045Y-109053689D01*
X80131896Y-109053689D01*
X80166161Y-108992974D01*
X80171355Y-108983868D01*
X80179715Y-108969249D01*
X80187288Y-108955173D01*
X80194112Y-108940540D01*
X80200227Y-108924249D01*
X80205673Y-108905198D01*
X80210487Y-108882286D01*
X80214708Y-108854413D01*
X80218377Y-108820478D01*
X80221531Y-108779379D01*
X80224211Y-108730015D01*
X80226454Y-108671286D01*
X80228299Y-108602090D01*
X80229787Y-108521326D01*
X80230955Y-108427894D01*
X80231844Y-108320692D01*
X80232491Y-108198620D01*
X80232936Y-108060576D01*
X80233218Y-107905459D01*
X80233375Y-107732168D01*
X80233448Y-107539603D01*
X80233474Y-107326662D01*
X80233485Y-107190530D01*
X81035200Y-107190530D01*
X81035200Y-108340721D01*
X81105756Y-108387089D01*
X81146417Y-108410791D01*
X81200546Y-108436639D01*
X81249689Y-108454829D01*
X81313165Y-108470551D01*
X81409331Y-108481541D01*
X81493900Y-108473365D01*
X81567219Y-108445805D01*
X81629637Y-108398642D01*
X81681502Y-108331658D01*
X81723160Y-108244633D01*
X81754962Y-108137350D01*
X81757545Y-108125009D01*
X81766000Y-108063772D01*
X81771663Y-107986692D01*
X81774576Y-107899002D01*
X81774783Y-107805934D01*
X81772330Y-107712720D01*
X81767261Y-107624594D01*
X81759619Y-107546788D01*
X81749448Y-107484533D01*
X81748167Y-107478666D01*
X81719126Y-107368121D01*
X81684610Y-107277575D01*
X81643456Y-107204953D01*
X81594499Y-107148181D01*
X81536574Y-107105184D01*
X81504620Y-107089615D01*
X81431784Y-107070722D01*
X81350443Y-107067465D01*
X81265319Y-107079389D01*
X81181133Y-107106040D01*
X81102608Y-107146962D01*
X81035200Y-107190530D01*
X80233485Y-107190530D01*
X80233493Y-107092245D01*
X80233689Y-105407378D01*
X81139017Y-105407378D01*
X81114585Y-105444067D01*
X81108318Y-105453647D01*
X81082208Y-105499981D01*
X81064469Y-105547102D01*
X81052908Y-105602251D01*
X81045331Y-105672667D01*
X81044839Y-105679650D01*
X81043062Y-105717641D01*
X81041444Y-105771576D01*
X81039999Y-105838703D01*
X81038740Y-105916271D01*
X81037680Y-106001528D01*
X81036829Y-106091724D01*
X81036203Y-106184107D01*
X81035812Y-106275925D01*
X81035670Y-106364427D01*
X81035790Y-106446862D01*
X81036183Y-106520479D01*
X81036862Y-106582526D01*
X81037841Y-106630251D01*
X81039132Y-106660904D01*
X81040747Y-106671733D01*
X81048957Y-106667333D01*
X81070647Y-106652362D01*
X81100014Y-106630448D01*
X81148879Y-106596236D01*
X81237125Y-106549714D01*
X81335916Y-106516046D01*
X81448510Y-106494231D01*
X81578164Y-106483265D01*
X81670670Y-106482219D01*
X81792011Y-106492014D01*
X81902099Y-106516174D01*
X82005389Y-106555785D01*
X82106338Y-106611932D01*
X82151503Y-106642883D01*
X82256911Y-106734115D01*
X82348538Y-106843106D01*
X82426332Y-106969726D01*
X82490241Y-107113845D01*
X82540214Y-107275332D01*
X82576198Y-107454059D01*
X82598143Y-107649895D01*
X82603900Y-107805934D01*
X82605994Y-107862711D01*
G37*
X85147755Y-108263467D02*
X85147261Y-108297363D01*
X85143632Y-108372202D01*
X85136022Y-108434401D01*
X85123688Y-108490984D01*
X85079313Y-108617076D01*
X85016400Y-108731679D01*
X84936238Y-108832568D01*
X84839740Y-108918924D01*
X84727822Y-108989932D01*
X84601397Y-109044776D01*
X84461378Y-109082638D01*
X84425149Y-109088351D01*
X84346155Y-109094313D01*
X84257841Y-109094646D01*
X84168075Y-109089659D01*
X84084722Y-109079666D01*
X84015651Y-109064978D01*
X83929187Y-109034749D01*
X83819286Y-108980057D01*
X83721956Y-108912543D01*
X83659867Y-108861556D01*
X83656605Y-108957622D01*
X83653343Y-109053689D01*
X83230450Y-109053689D01*
X83219543Y-109053686D01*
X83125056Y-109053380D01*
X83038331Y-109052616D01*
X82961837Y-109051451D01*
X82898043Y-109049942D01*
X82849418Y-109048147D01*
X82818433Y-109046121D01*
X82807556Y-109043922D01*
X82807578Y-109043463D01*
X82814614Y-109027910D01*
X82830434Y-109005071D01*
X82834734Y-108999638D01*
X82845777Y-108985606D01*
X82855311Y-108972186D01*
X82863461Y-108957722D01*
X82870352Y-108940556D01*
X82876111Y-108919034D01*
X82880862Y-108891498D01*
X82884731Y-108856292D01*
X82887844Y-108811760D01*
X82890325Y-108756246D01*
X82892300Y-108688093D01*
X82893894Y-108605645D01*
X82895234Y-108507246D01*
X82896444Y-108391239D01*
X82897649Y-108255968D01*
X82898595Y-108144586D01*
X83699378Y-108144586D01*
X83699378Y-108340462D01*
X83744048Y-108396973D01*
X83756785Y-108412212D01*
X83803604Y-108454844D01*
X83864255Y-108490672D01*
X83874897Y-108495850D01*
X83913676Y-108512745D01*
X83948692Y-108522909D01*
X83988722Y-108528325D01*
X84042541Y-108530978D01*
X84060648Y-108531383D01*
X84136011Y-108528540D01*
X84196743Y-108516620D01*
X84248452Y-108494037D01*
X84296746Y-108459211D01*
X84301803Y-108454798D01*
X84350272Y-108399160D01*
X84378459Y-108335333D01*
X84387752Y-108260282D01*
X84380520Y-108188693D01*
X84355796Y-108125645D01*
X84311249Y-108067758D01*
X84256319Y-108020808D01*
X84183894Y-107980961D01*
X84097340Y-107953263D01*
X83994670Y-107937096D01*
X83873894Y-107931842D01*
X83865007Y-107931857D01*
X83809660Y-107932655D01*
X83762736Y-107934488D01*
X83728953Y-107937111D01*
X83713028Y-107940274D01*
X83708943Y-107946741D01*
X83704572Y-107968875D01*
X83701604Y-108007988D01*
X83699914Y-108065939D01*
X83699378Y-108144586D01*
X82898595Y-108144586D01*
X82898975Y-108099778D01*
X82900228Y-107957012D01*
X82901651Y-107811942D01*
X82903176Y-107686027D01*
X82904933Y-107577436D01*
X82907051Y-107484334D01*
X82909660Y-107404891D01*
X82912890Y-107337273D01*
X82916869Y-107279649D01*
X82921728Y-107230185D01*
X82927597Y-107187050D01*
X82934604Y-107148410D01*
X82942880Y-107112434D01*
X82952554Y-107077289D01*
X82963756Y-107041142D01*
X82976616Y-107002161D01*
X82992090Y-106959091D01*
X83034994Y-106866871D01*
X83088735Y-106787099D01*
X83157576Y-106712965D01*
X83235185Y-106649405D01*
X83339761Y-106587725D01*
X83459244Y-106540202D01*
X83594508Y-106506567D01*
X83746426Y-106486552D01*
X83915872Y-106479889D01*
X83973890Y-106480287D01*
X84039398Y-106482335D01*
X84100693Y-106486704D01*
X84162097Y-106494035D01*
X84227932Y-106504969D01*
X84302520Y-106520147D01*
X84390184Y-106540209D01*
X84495245Y-106565797D01*
X84523806Y-106572820D01*
X84599054Y-106590776D01*
X84669388Y-106606820D01*
X84730567Y-106620028D01*
X84778354Y-106629474D01*
X84808511Y-106634231D01*
X84836783Y-106637910D01*
X84863060Y-106643187D01*
X84873059Y-106647942D01*
X84869952Y-106656781D01*
X84859194Y-106684072D01*
X84841864Y-106726906D01*
X84819126Y-106782425D01*
X84792147Y-106847772D01*
X84762090Y-106920089D01*
X84755493Y-106935879D01*
X84716907Y-107026484D01*
X84685768Y-107096217D01*
X84661917Y-107145405D01*
X84645198Y-107174374D01*
X84635454Y-107183452D01*
X84627766Y-107181405D01*
X84601415Y-107171760D01*
X84562982Y-107156190D01*
X84517822Y-107136815D01*
X84423293Y-107098814D01*
X84286480Y-107057780D01*
X84145289Y-107032612D01*
X84107314Y-107028611D01*
X84004059Y-107026447D01*
X83916952Y-107039622D01*
X83845129Y-107068756D01*
X83787731Y-107114466D01*
X83743896Y-107177372D01*
X83712762Y-107258092D01*
X83693470Y-107357245D01*
X83686050Y-107416224D01*
X83847936Y-107409445D01*
X83974495Y-107407813D01*
X84125951Y-107414194D01*
X84274396Y-107428777D01*
X84410578Y-107450882D01*
X84475245Y-107465821D01*
X84607490Y-107508741D01*
X84729762Y-107565340D01*
X84839685Y-107634017D01*
X84934883Y-107713170D01*
X85012980Y-107801196D01*
X85071599Y-107896493D01*
X85095595Y-107948864D01*
X85121232Y-108019590D01*
X85137478Y-108090812D01*
X85145822Y-108169712D01*
X85147690Y-108260282D01*
X85147755Y-108263467D01*
G36*
X85147755Y-108263467D02*
G01*
X85147261Y-108297363D01*
X85143632Y-108372202D01*
X85136022Y-108434401D01*
X85123688Y-108490984D01*
X85079313Y-108617076D01*
X85016400Y-108731679D01*
X84936238Y-108832568D01*
X84839740Y-108918924D01*
X84727822Y-108989932D01*
X84601397Y-109044776D01*
X84461378Y-109082638D01*
X84425149Y-109088351D01*
X84346155Y-109094313D01*
X84257841Y-109094646D01*
X84168075Y-109089659D01*
X84084722Y-109079666D01*
X84015651Y-109064978D01*
X83929187Y-109034749D01*
X83819286Y-108980057D01*
X83721956Y-108912543D01*
X83659867Y-108861556D01*
X83656605Y-108957622D01*
X83653343Y-109053689D01*
X83230450Y-109053689D01*
X83219543Y-109053686D01*
X83125056Y-109053380D01*
X83038331Y-109052616D01*
X82961837Y-109051451D01*
X82898043Y-109049942D01*
X82849418Y-109048147D01*
X82818433Y-109046121D01*
X82807556Y-109043922D01*
X82807578Y-109043463D01*
X82814614Y-109027910D01*
X82830434Y-109005071D01*
X82834734Y-108999638D01*
X82845777Y-108985606D01*
X82855311Y-108972186D01*
X82863461Y-108957722D01*
X82870352Y-108940556D01*
X82876111Y-108919034D01*
X82880862Y-108891498D01*
X82884731Y-108856292D01*
X82887844Y-108811760D01*
X82890325Y-108756246D01*
X82892300Y-108688093D01*
X82893894Y-108605645D01*
X82895234Y-108507246D01*
X82896444Y-108391239D01*
X82897649Y-108255968D01*
X82898595Y-108144586D01*
X83699378Y-108144586D01*
X83699378Y-108340462D01*
X83744048Y-108396973D01*
X83756785Y-108412212D01*
X83803604Y-108454844D01*
X83864255Y-108490672D01*
X83874897Y-108495850D01*
X83913676Y-108512745D01*
X83948692Y-108522909D01*
X83988722Y-108528325D01*
X84042541Y-108530978D01*
X84060648Y-108531383D01*
X84136011Y-108528540D01*
X84196743Y-108516620D01*
X84248452Y-108494037D01*
X84296746Y-108459211D01*
X84301803Y-108454798D01*
X84350272Y-108399160D01*
X84378459Y-108335333D01*
X84387752Y-108260282D01*
X84380520Y-108188693D01*
X84355796Y-108125645D01*
X84311249Y-108067758D01*
X84256319Y-108020808D01*
X84183894Y-107980961D01*
X84097340Y-107953263D01*
X83994670Y-107937096D01*
X83873894Y-107931842D01*
X83865007Y-107931857D01*
X83809660Y-107932655D01*
X83762736Y-107934488D01*
X83728953Y-107937111D01*
X83713028Y-107940274D01*
X83708943Y-107946741D01*
X83704572Y-107968875D01*
X83701604Y-108007988D01*
X83699914Y-108065939D01*
X83699378Y-108144586D01*
X82898595Y-108144586D01*
X82898975Y-108099778D01*
X82900228Y-107957012D01*
X82901651Y-107811942D01*
X82903176Y-107686027D01*
X82904933Y-107577436D01*
X82907051Y-107484334D01*
X82909660Y-107404891D01*
X82912890Y-107337273D01*
X82916869Y-107279649D01*
X82921728Y-107230185D01*
X82927597Y-107187050D01*
X82934604Y-107148410D01*
X82942880Y-107112434D01*
X82952554Y-107077289D01*
X82963756Y-107041142D01*
X82976616Y-107002161D01*
X82992090Y-106959091D01*
X83034994Y-106866871D01*
X83088735Y-106787099D01*
X83157576Y-106712965D01*
X83235185Y-106649405D01*
X83339761Y-106587725D01*
X83459244Y-106540202D01*
X83594508Y-106506567D01*
X83746426Y-106486552D01*
X83915872Y-106479889D01*
X83973890Y-106480287D01*
X84039398Y-106482335D01*
X84100693Y-106486704D01*
X84162097Y-106494035D01*
X84227932Y-106504969D01*
X84302520Y-106520147D01*
X84390184Y-106540209D01*
X84495245Y-106565797D01*
X84523806Y-106572820D01*
X84599054Y-106590776D01*
X84669388Y-106606820D01*
X84730567Y-106620028D01*
X84778354Y-106629474D01*
X84808511Y-106634231D01*
X84836783Y-106637910D01*
X84863060Y-106643187D01*
X84873059Y-106647942D01*
X84869952Y-106656781D01*
X84859194Y-106684072D01*
X84841864Y-106726906D01*
X84819126Y-106782425D01*
X84792147Y-106847772D01*
X84762090Y-106920089D01*
X84755493Y-106935879D01*
X84716907Y-107026484D01*
X84685768Y-107096217D01*
X84661917Y-107145405D01*
X84645198Y-107174374D01*
X84635454Y-107183452D01*
X84627766Y-107181405D01*
X84601415Y-107171760D01*
X84562982Y-107156190D01*
X84517822Y-107136815D01*
X84423293Y-107098814D01*
X84286480Y-107057780D01*
X84145289Y-107032612D01*
X84107314Y-107028611D01*
X84004059Y-107026447D01*
X83916952Y-107039622D01*
X83845129Y-107068756D01*
X83787731Y-107114466D01*
X83743896Y-107177372D01*
X83712762Y-107258092D01*
X83693470Y-107357245D01*
X83686050Y-107416224D01*
X83847936Y-107409445D01*
X83974495Y-107407813D01*
X84125951Y-107414194D01*
X84274396Y-107428777D01*
X84410578Y-107450882D01*
X84475245Y-107465821D01*
X84607490Y-107508741D01*
X84729762Y-107565340D01*
X84839685Y-107634017D01*
X84934883Y-107713170D01*
X85012980Y-107801196D01*
X85071599Y-107896493D01*
X85095595Y-107948864D01*
X85121232Y-108019590D01*
X85137478Y-108090812D01*
X85145822Y-108169712D01*
X85147690Y-108260282D01*
X85147755Y-108263467D01*
G37*
X92695614Y-105731792D02*
X92696059Y-105863011D01*
X92696362Y-106010216D01*
X92696548Y-106174349D01*
X92696642Y-106356352D01*
X92696671Y-106557165D01*
X92696661Y-106777732D01*
X92696636Y-107018992D01*
X92696622Y-107281889D01*
X92696622Y-107324040D01*
X92696646Y-107584668D01*
X92696685Y-107823796D01*
X92696708Y-108042360D01*
X92696687Y-108241295D01*
X92696593Y-108421535D01*
X92696395Y-108584015D01*
X92696063Y-108729670D01*
X92695569Y-108859434D01*
X92694883Y-108974243D01*
X92693976Y-109075030D01*
X92692817Y-109162730D01*
X92691378Y-109238279D01*
X92689629Y-109302611D01*
X92687540Y-109356661D01*
X92685083Y-109401363D01*
X92682227Y-109437652D01*
X92678943Y-109466463D01*
X92675202Y-109488731D01*
X92670974Y-109505390D01*
X92666229Y-109517375D01*
X92660939Y-109525621D01*
X92655073Y-109531062D01*
X92648602Y-109534634D01*
X92641497Y-109537270D01*
X92633728Y-109539906D01*
X92625266Y-109543477D01*
X92620908Y-109545145D01*
X92612395Y-109547111D01*
X92599694Y-109548911D01*
X92581885Y-109550555D01*
X92558049Y-109552047D01*
X92527266Y-109553397D01*
X92488617Y-109554611D01*
X92441182Y-109555697D01*
X92384043Y-109556661D01*
X92316279Y-109557511D01*
X92236971Y-109558253D01*
X92145199Y-109558897D01*
X92040044Y-109559447D01*
X91920587Y-109559913D01*
X91785908Y-109560300D01*
X91635088Y-109560616D01*
X91467206Y-109560869D01*
X91281345Y-109561066D01*
X91076583Y-109561213D01*
X90852002Y-109561318D01*
X90606682Y-109561389D01*
X90339704Y-109561432D01*
X90301321Y-109561437D01*
X90035922Y-109561480D01*
X89792050Y-109561525D01*
X89568783Y-109561548D01*
X89365196Y-109561524D01*
X89180367Y-109561430D01*
X89013373Y-109561243D01*
X88863290Y-109560939D01*
X88729196Y-109560494D01*
X88610166Y-109559885D01*
X88505279Y-109559089D01*
X88413610Y-109558080D01*
X88334237Y-109556837D01*
X88266237Y-109555335D01*
X88208686Y-109553551D01*
X88160662Y-109551461D01*
X88121240Y-109549042D01*
X88089499Y-109546270D01*
X88064514Y-109543121D01*
X88045364Y-109539572D01*
X88031123Y-109535598D01*
X88020871Y-109531178D01*
X88013682Y-109526286D01*
X88008635Y-109520900D01*
X88004805Y-109514996D01*
X88001271Y-109508549D01*
X87997108Y-109501537D01*
X87996025Y-109499687D01*
X87993813Y-109494180D01*
X87991786Y-109485868D01*
X87989938Y-109473809D01*
X87988261Y-109457063D01*
X87986745Y-109434687D01*
X87985383Y-109405740D01*
X87984167Y-109369280D01*
X87983089Y-109324367D01*
X87982140Y-109270057D01*
X87981312Y-109205410D01*
X87980597Y-109129484D01*
X87979987Y-109041338D01*
X87979942Y-109032493D01*
X88271378Y-109032493D01*
X88275260Y-109033765D01*
X88298520Y-109035791D01*
X88340874Y-109037626D01*
X88400132Y-109039227D01*
X88474107Y-109040549D01*
X88560610Y-109041548D01*
X88657452Y-109042180D01*
X88762445Y-109042400D01*
X89460651Y-109042400D01*
X90615090Y-109042400D01*
X90614456Y-108966200D01*
X90615574Y-108924160D01*
X90621304Y-108888334D01*
X90633890Y-108850772D01*
X90655568Y-108802577D01*
X90658789Y-108795897D01*
X90684188Y-108746359D01*
X90710996Y-108698369D01*
X90733917Y-108661466D01*
X90738485Y-108654834D01*
X90760516Y-108623593D01*
X90792693Y-108578654D01*
X90833457Y-108522147D01*
X90881245Y-108456204D01*
X90934498Y-108382957D01*
X90991655Y-108304536D01*
X91051155Y-108223072D01*
X91111437Y-108140698D01*
X91170940Y-108059544D01*
X91228105Y-107981742D01*
X91281370Y-107909423D01*
X91329174Y-107844718D01*
X91369957Y-107789759D01*
X91402158Y-107746676D01*
X91424216Y-107717602D01*
X91434571Y-107704667D01*
X91439044Y-107700351D01*
X91443236Y-107698312D01*
X91446643Y-107700926D01*
X91449325Y-107709986D01*
X91451341Y-107727285D01*
X91452748Y-107754614D01*
X91453605Y-107793765D01*
X91453970Y-107846533D01*
X91453903Y-107914707D01*
X91453460Y-108000082D01*
X91452702Y-108104449D01*
X91451685Y-108229600D01*
X91451308Y-108274300D01*
X91450169Y-108395395D01*
X91448972Y-108496688D01*
X91447636Y-108580262D01*
X91446077Y-108648204D01*
X91444215Y-108702599D01*
X91441966Y-108745532D01*
X91439248Y-108779089D01*
X91435979Y-108805355D01*
X91432078Y-108826416D01*
X91427461Y-108844357D01*
X91419192Y-108870770D01*
X91395583Y-108932772D01*
X91369685Y-108985573D01*
X91344535Y-109022645D01*
X91343339Y-109024075D01*
X91341168Y-109028424D01*
X91343328Y-109032026D01*
X91351644Y-109034951D01*
X91367940Y-109037269D01*
X91394041Y-109039051D01*
X91431771Y-109040367D01*
X91482956Y-109041286D01*
X91549420Y-109041878D01*
X91632987Y-109042215D01*
X91735483Y-109042365D01*
X91858732Y-109042400D01*
X92390296Y-109042400D01*
X92351523Y-108984783D01*
X92345432Y-108975893D01*
X92334976Y-108961069D01*
X92325579Y-108947422D01*
X92317183Y-108933765D01*
X92309733Y-108918911D01*
X92303173Y-108901670D01*
X92297446Y-108880855D01*
X92292495Y-108855280D01*
X92288266Y-108823755D01*
X92284701Y-108785093D01*
X92281744Y-108738107D01*
X92279340Y-108681608D01*
X92277431Y-108614409D01*
X92275962Y-108535322D01*
X92274876Y-108443160D01*
X92274118Y-108336734D01*
X92273630Y-108214857D01*
X92273358Y-108076341D01*
X92273243Y-107919999D01*
X92273231Y-107744642D01*
X92273265Y-107549082D01*
X92273289Y-107332133D01*
X92273280Y-107209513D01*
X92273243Y-107004447D01*
X92273227Y-106820116D01*
X92273288Y-106655334D01*
X92273484Y-106508916D01*
X92273870Y-106379674D01*
X92274505Y-106266422D01*
X92275444Y-106167975D01*
X92276745Y-106083144D01*
X92278464Y-106010744D01*
X92280659Y-105949589D01*
X92283385Y-105898492D01*
X92286701Y-105856267D01*
X92290662Y-105821727D01*
X92295325Y-105793686D01*
X92300747Y-105770958D01*
X92306986Y-105752356D01*
X92314097Y-105736693D01*
X92322138Y-105722784D01*
X92331166Y-105709441D01*
X92341236Y-105695479D01*
X92352407Y-105679711D01*
X92392197Y-105621867D01*
X91332314Y-105621867D01*
X91370311Y-105684966D01*
X91384993Y-105710005D01*
X91399531Y-105737586D01*
X91411627Y-105765700D01*
X91421532Y-105796551D01*
X91429494Y-105832344D01*
X91435761Y-105875283D01*
X91440582Y-105927574D01*
X91444206Y-105991419D01*
X91446881Y-106069025D01*
X91448857Y-106162594D01*
X91450382Y-106274333D01*
X91451704Y-106406445D01*
X91452613Y-106526434D01*
X91453020Y-106643063D01*
X91452767Y-106738531D01*
X91451857Y-106812556D01*
X91450293Y-106864855D01*
X91448079Y-106895149D01*
X91445220Y-106903156D01*
X91442161Y-106899858D01*
X91424006Y-106878408D01*
X91394275Y-106841889D01*
X91354639Y-106792442D01*
X91306771Y-106732207D01*
X91252343Y-106663327D01*
X91193027Y-106587943D01*
X91130495Y-106508196D01*
X91066421Y-106426228D01*
X91002475Y-106344180D01*
X90940331Y-106264194D01*
X90881661Y-106188411D01*
X90828137Y-106118973D01*
X90781430Y-106058021D01*
X90743214Y-106007696D01*
X90715161Y-105970140D01*
X90698943Y-105947495D01*
X90653635Y-105875212D01*
X90613661Y-105795463D01*
X90592130Y-105727188D01*
X90588827Y-105669844D01*
X90594116Y-105621867D01*
X89462356Y-105622117D01*
X89501867Y-105652722D01*
X89511248Y-105660089D01*
X89574183Y-105714438D01*
X89642997Y-105782259D01*
X89719596Y-105865516D01*
X89805888Y-105966178D01*
X89823052Y-105986847D01*
X89863833Y-106036409D01*
X89913588Y-106097326D01*
X89970955Y-106167898D01*
X90034569Y-106246424D01*
X90103069Y-106331204D01*
X90175090Y-106420537D01*
X90249270Y-106512722D01*
X90264517Y-106531702D01*
X90324246Y-106606060D01*
X90398653Y-106698848D01*
X90471131Y-106789388D01*
X90540314Y-106875978D01*
X90604841Y-106956918D01*
X90663347Y-107030506D01*
X90714470Y-107095044D01*
X90756847Y-107148829D01*
X90789115Y-107190162D01*
X90809910Y-107217342D01*
X90817869Y-107228668D01*
X90816111Y-107232771D01*
X90803230Y-107253334D01*
X90778885Y-107289561D01*
X90744247Y-107339824D01*
X90700486Y-107402492D01*
X90648775Y-107475936D01*
X90590284Y-107558527D01*
X90526184Y-107648636D01*
X90457646Y-107744631D01*
X90385843Y-107844885D01*
X90311944Y-107947768D01*
X90237121Y-108051650D01*
X90162545Y-108154901D01*
X90089387Y-108255892D01*
X90018819Y-108352994D01*
X89952011Y-108444577D01*
X89890135Y-108529011D01*
X89834361Y-108604667D01*
X89785862Y-108669916D01*
X89745807Y-108723128D01*
X89715369Y-108762673D01*
X89694944Y-108788026D01*
X89648899Y-108842295D01*
X89598612Y-108898775D01*
X89551815Y-108948669D01*
X89460651Y-109042400D01*
X88762445Y-109042400D01*
X88831356Y-109042349D01*
X88929607Y-109042091D01*
X89019030Y-109041637D01*
X89097333Y-109041010D01*
X89162223Y-109040235D01*
X89211411Y-109039335D01*
X89242604Y-109038334D01*
X89253511Y-109037257D01*
X89252322Y-109034037D01*
X89242176Y-109016452D01*
X89225040Y-108990158D01*
X89216540Y-108977691D01*
X89207329Y-108963622D01*
X89199233Y-108949351D01*
X89192185Y-108933479D01*
X89186117Y-108914609D01*
X89180961Y-108891341D01*
X89176651Y-108862278D01*
X89173119Y-108826021D01*
X89170297Y-108781170D01*
X89168118Y-108726328D01*
X89166514Y-108660097D01*
X89165419Y-108581077D01*
X89164765Y-108487871D01*
X89164484Y-108379079D01*
X89164509Y-108253303D01*
X89164772Y-108109145D01*
X89165206Y-107945207D01*
X89165745Y-107760089D01*
X89166279Y-107581232D01*
X89166805Y-107422374D01*
X89167350Y-107283316D01*
X89167945Y-107162665D01*
X89168619Y-107059028D01*
X89169403Y-106971011D01*
X89170326Y-106897223D01*
X89171419Y-106836269D01*
X89172712Y-106786757D01*
X89174235Y-106747293D01*
X89176019Y-106716484D01*
X89178092Y-106692938D01*
X89180486Y-106675260D01*
X89183230Y-106662059D01*
X89186356Y-106651940D01*
X89189892Y-106643511D01*
X89193791Y-106635375D01*
X89213438Y-106598544D01*
X89232225Y-106568391D01*
X89233272Y-106566908D01*
X89247602Y-106544659D01*
X89253511Y-106531702D01*
X89252504Y-106531249D01*
X89235305Y-106529803D01*
X89198656Y-106528480D01*
X89144962Y-106527316D01*
X89076630Y-106526347D01*
X88996064Y-106525611D01*
X88905670Y-106525142D01*
X88807853Y-106524978D01*
X88362195Y-106524978D01*
X88359120Y-107701845D01*
X88356045Y-108878711D01*
X88329407Y-108937622D01*
X88317485Y-108962183D01*
X88300246Y-108992434D01*
X88287074Y-109009560D01*
X88279076Y-109017591D01*
X88271378Y-109032493D01*
X87979942Y-109032493D01*
X87979474Y-108940029D01*
X87979050Y-108824617D01*
X87978706Y-108694160D01*
X87978434Y-108547716D01*
X87978227Y-108384344D01*
X87978076Y-108203101D01*
X87977972Y-108003048D01*
X87977908Y-107783241D01*
X87977876Y-107542739D01*
X87977867Y-107280602D01*
X87977867Y-105089031D01*
X88016249Y-105050649D01*
X88043355Y-105026911D01*
X88070253Y-105015111D01*
X88106560Y-105012267D01*
X88158489Y-105012267D01*
X88158489Y-105100206D01*
X88160427Y-105150102D01*
X88179199Y-105260523D01*
X88216217Y-105361987D01*
X88269369Y-105453152D01*
X88336546Y-105532673D01*
X88415638Y-105599205D01*
X88504534Y-105651406D01*
X88601125Y-105687930D01*
X88703300Y-105707434D01*
X88808950Y-105708573D01*
X88915964Y-105690005D01*
X89022232Y-105650384D01*
X89119219Y-105592516D01*
X89204293Y-105517684D01*
X89273015Y-105429615D01*
X89323918Y-105330616D01*
X89355535Y-105222993D01*
X89366400Y-105109054D01*
X89366400Y-105012267D01*
X90986753Y-105012267D01*
X91197897Y-105012280D01*
X91402020Y-105012330D01*
X91585686Y-105012430D01*
X91749991Y-105012592D01*
X91896029Y-105012829D01*
X92024894Y-105013153D01*
X92137683Y-105013575D01*
X92235488Y-105014109D01*
X92319404Y-105014767D01*
X92390527Y-105015561D01*
X92449950Y-105016504D01*
X92498768Y-105017608D01*
X92538077Y-105018884D01*
X92568969Y-105020347D01*
X92592541Y-105022007D01*
X92609886Y-105023878D01*
X92622099Y-105025972D01*
X92630275Y-105028300D01*
X92635508Y-105030876D01*
X92641504Y-105034445D01*
X92648279Y-105037978D01*
X92654478Y-105041488D01*
X92660126Y-105045918D01*
X92665247Y-105052208D01*
X92669869Y-105061301D01*
X92674015Y-105074139D01*
X92677713Y-105091662D01*
X92680987Y-105114813D01*
X92683863Y-105144534D01*
X92686367Y-105181765D01*
X92688524Y-105227449D01*
X92690360Y-105282527D01*
X92691900Y-105347941D01*
X92693170Y-105424633D01*
X92694195Y-105513544D01*
X92695001Y-105615617D01*
X92695034Y-105621867D01*
X92695614Y-105731792D01*
G36*
X92695614Y-105731792D02*
G01*
X92696059Y-105863011D01*
X92696362Y-106010216D01*
X92696548Y-106174349D01*
X92696642Y-106356352D01*
X92696671Y-106557165D01*
X92696661Y-106777732D01*
X92696636Y-107018992D01*
X92696622Y-107281889D01*
X92696622Y-107324040D01*
X92696646Y-107584668D01*
X92696685Y-107823796D01*
X92696708Y-108042360D01*
X92696687Y-108241295D01*
X92696593Y-108421535D01*
X92696395Y-108584015D01*
X92696063Y-108729670D01*
X92695569Y-108859434D01*
X92694883Y-108974243D01*
X92693976Y-109075030D01*
X92692817Y-109162730D01*
X92691378Y-109238279D01*
X92689629Y-109302611D01*
X92687540Y-109356661D01*
X92685083Y-109401363D01*
X92682227Y-109437652D01*
X92678943Y-109466463D01*
X92675202Y-109488731D01*
X92670974Y-109505390D01*
X92666229Y-109517375D01*
X92660939Y-109525621D01*
X92655073Y-109531062D01*
X92648602Y-109534634D01*
X92641497Y-109537270D01*
X92633728Y-109539906D01*
X92625266Y-109543477D01*
X92620908Y-109545145D01*
X92612395Y-109547111D01*
X92599694Y-109548911D01*
X92581885Y-109550555D01*
X92558049Y-109552047D01*
X92527266Y-109553397D01*
X92488617Y-109554611D01*
X92441182Y-109555697D01*
X92384043Y-109556661D01*
X92316279Y-109557511D01*
X92236971Y-109558253D01*
X92145199Y-109558897D01*
X92040044Y-109559447D01*
X91920587Y-109559913D01*
X91785908Y-109560300D01*
X91635088Y-109560616D01*
X91467206Y-109560869D01*
X91281345Y-109561066D01*
X91076583Y-109561213D01*
X90852002Y-109561318D01*
X90606682Y-109561389D01*
X90339704Y-109561432D01*
X90301321Y-109561437D01*
X90035922Y-109561480D01*
X89792050Y-109561525D01*
X89568783Y-109561548D01*
X89365196Y-109561524D01*
X89180367Y-109561430D01*
X89013373Y-109561243D01*
X88863290Y-109560939D01*
X88729196Y-109560494D01*
X88610166Y-109559885D01*
X88505279Y-109559089D01*
X88413610Y-109558080D01*
X88334237Y-109556837D01*
X88266237Y-109555335D01*
X88208686Y-109553551D01*
X88160662Y-109551461D01*
X88121240Y-109549042D01*
X88089499Y-109546270D01*
X88064514Y-109543121D01*
X88045364Y-109539572D01*
X88031123Y-109535598D01*
X88020871Y-109531178D01*
X88013682Y-109526286D01*
X88008635Y-109520900D01*
X88004805Y-109514996D01*
X88001271Y-109508549D01*
X87997108Y-109501537D01*
X87996025Y-109499687D01*
X87993813Y-109494180D01*
X87991786Y-109485868D01*
X87989938Y-109473809D01*
X87988261Y-109457063D01*
X87986745Y-109434687D01*
X87985383Y-109405740D01*
X87984167Y-109369280D01*
X87983089Y-109324367D01*
X87982140Y-109270057D01*
X87981312Y-109205410D01*
X87980597Y-109129484D01*
X87979987Y-109041338D01*
X87979942Y-109032493D01*
X88271378Y-109032493D01*
X88275260Y-109033765D01*
X88298520Y-109035791D01*
X88340874Y-109037626D01*
X88400132Y-109039227D01*
X88474107Y-109040549D01*
X88560610Y-109041548D01*
X88657452Y-109042180D01*
X88762445Y-109042400D01*
X89460651Y-109042400D01*
X90615090Y-109042400D01*
X90614456Y-108966200D01*
X90615574Y-108924160D01*
X90621304Y-108888334D01*
X90633890Y-108850772D01*
X90655568Y-108802577D01*
X90658789Y-108795897D01*
X90684188Y-108746359D01*
X90710996Y-108698369D01*
X90733917Y-108661466D01*
X90738485Y-108654834D01*
X90760516Y-108623593D01*
X90792693Y-108578654D01*
X90833457Y-108522147D01*
X90881245Y-108456204D01*
X90934498Y-108382957D01*
X90991655Y-108304536D01*
X91051155Y-108223072D01*
X91111437Y-108140698D01*
X91170940Y-108059544D01*
X91228105Y-107981742D01*
X91281370Y-107909423D01*
X91329174Y-107844718D01*
X91369957Y-107789759D01*
X91402158Y-107746676D01*
X91424216Y-107717602D01*
X91434571Y-107704667D01*
X91439044Y-107700351D01*
X91443236Y-107698312D01*
X91446643Y-107700926D01*
X91449325Y-107709986D01*
X91451341Y-107727285D01*
X91452748Y-107754614D01*
X91453605Y-107793765D01*
X91453970Y-107846533D01*
X91453903Y-107914707D01*
X91453460Y-108000082D01*
X91452702Y-108104449D01*
X91451685Y-108229600D01*
X91451308Y-108274300D01*
X91450169Y-108395395D01*
X91448972Y-108496688D01*
X91447636Y-108580262D01*
X91446077Y-108648204D01*
X91444215Y-108702599D01*
X91441966Y-108745532D01*
X91439248Y-108779089D01*
X91435979Y-108805355D01*
X91432078Y-108826416D01*
X91427461Y-108844357D01*
X91419192Y-108870770D01*
X91395583Y-108932772D01*
X91369685Y-108985573D01*
X91344535Y-109022645D01*
X91343339Y-109024075D01*
X91341168Y-109028424D01*
X91343328Y-109032026D01*
X91351644Y-109034951D01*
X91367940Y-109037269D01*
X91394041Y-109039051D01*
X91431771Y-109040367D01*
X91482956Y-109041286D01*
X91549420Y-109041878D01*
X91632987Y-109042215D01*
X91735483Y-109042365D01*
X91858732Y-109042400D01*
X92390296Y-109042400D01*
X92351523Y-108984783D01*
X92345432Y-108975893D01*
X92334976Y-108961069D01*
X92325579Y-108947422D01*
X92317183Y-108933765D01*
X92309733Y-108918911D01*
X92303173Y-108901670D01*
X92297446Y-108880855D01*
X92292495Y-108855280D01*
X92288266Y-108823755D01*
X92284701Y-108785093D01*
X92281744Y-108738107D01*
X92279340Y-108681608D01*
X92277431Y-108614409D01*
X92275962Y-108535322D01*
X92274876Y-108443160D01*
X92274118Y-108336734D01*
X92273630Y-108214857D01*
X92273358Y-108076341D01*
X92273243Y-107919999D01*
X92273231Y-107744642D01*
X92273265Y-107549082D01*
X92273289Y-107332133D01*
X92273280Y-107209513D01*
X92273243Y-107004447D01*
X92273227Y-106820116D01*
X92273288Y-106655334D01*
X92273484Y-106508916D01*
X92273870Y-106379674D01*
X92274505Y-106266422D01*
X92275444Y-106167975D01*
X92276745Y-106083144D01*
X92278464Y-106010744D01*
X92280659Y-105949589D01*
X92283385Y-105898492D01*
X92286701Y-105856267D01*
X92290662Y-105821727D01*
X92295325Y-105793686D01*
X92300747Y-105770958D01*
X92306986Y-105752356D01*
X92314097Y-105736693D01*
X92322138Y-105722784D01*
X92331166Y-105709441D01*
X92341236Y-105695479D01*
X92352407Y-105679711D01*
X92392197Y-105621867D01*
X91332314Y-105621867D01*
X91370311Y-105684966D01*
X91384993Y-105710005D01*
X91399531Y-105737586D01*
X91411627Y-105765700D01*
X91421532Y-105796551D01*
X91429494Y-105832344D01*
X91435761Y-105875283D01*
X91440582Y-105927574D01*
X91444206Y-105991419D01*
X91446881Y-106069025D01*
X91448857Y-106162594D01*
X91450382Y-106274333D01*
X91451704Y-106406445D01*
X91452613Y-106526434D01*
X91453020Y-106643063D01*
X91452767Y-106738531D01*
X91451857Y-106812556D01*
X91450293Y-106864855D01*
X91448079Y-106895149D01*
X91445220Y-106903156D01*
X91442161Y-106899858D01*
X91424006Y-106878408D01*
X91394275Y-106841889D01*
X91354639Y-106792442D01*
X91306771Y-106732207D01*
X91252343Y-106663327D01*
X91193027Y-106587943D01*
X91130495Y-106508196D01*
X91066421Y-106426228D01*
X91002475Y-106344180D01*
X90940331Y-106264194D01*
X90881661Y-106188411D01*
X90828137Y-106118973D01*
X90781430Y-106058021D01*
X90743214Y-106007696D01*
X90715161Y-105970140D01*
X90698943Y-105947495D01*
X90653635Y-105875212D01*
X90613661Y-105795463D01*
X90592130Y-105727188D01*
X90588827Y-105669844D01*
X90594116Y-105621867D01*
X89462356Y-105622117D01*
X89501867Y-105652722D01*
X89511248Y-105660089D01*
X89574183Y-105714438D01*
X89642997Y-105782259D01*
X89719596Y-105865516D01*
X89805888Y-105966178D01*
X89823052Y-105986847D01*
X89863833Y-106036409D01*
X89913588Y-106097326D01*
X89970955Y-106167898D01*
X90034569Y-106246424D01*
X90103069Y-106331204D01*
X90175090Y-106420537D01*
X90249270Y-106512722D01*
X90264517Y-106531702D01*
X90324246Y-106606060D01*
X90398653Y-106698848D01*
X90471131Y-106789388D01*
X90540314Y-106875978D01*
X90604841Y-106956918D01*
X90663347Y-107030506D01*
X90714470Y-107095044D01*
X90756847Y-107148829D01*
X90789115Y-107190162D01*
X90809910Y-107217342D01*
X90817869Y-107228668D01*
X90816111Y-107232771D01*
X90803230Y-107253334D01*
X90778885Y-107289561D01*
X90744247Y-107339824D01*
X90700486Y-107402492D01*
X90648775Y-107475936D01*
X90590284Y-107558527D01*
X90526184Y-107648636D01*
X90457646Y-107744631D01*
X90385843Y-107844885D01*
X90311944Y-107947768D01*
X90237121Y-108051650D01*
X90162545Y-108154901D01*
X90089387Y-108255892D01*
X90018819Y-108352994D01*
X89952011Y-108444577D01*
X89890135Y-108529011D01*
X89834361Y-108604667D01*
X89785862Y-108669916D01*
X89745807Y-108723128D01*
X89715369Y-108762673D01*
X89694944Y-108788026D01*
X89648899Y-108842295D01*
X89598612Y-108898775D01*
X89551815Y-108948669D01*
X89460651Y-109042400D01*
X88762445Y-109042400D01*
X88831356Y-109042349D01*
X88929607Y-109042091D01*
X89019030Y-109041637D01*
X89097333Y-109041010D01*
X89162223Y-109040235D01*
X89211411Y-109039335D01*
X89242604Y-109038334D01*
X89253511Y-109037257D01*
X89252322Y-109034037D01*
X89242176Y-109016452D01*
X89225040Y-108990158D01*
X89216540Y-108977691D01*
X89207329Y-108963622D01*
X89199233Y-108949351D01*
X89192185Y-108933479D01*
X89186117Y-108914609D01*
X89180961Y-108891341D01*
X89176651Y-108862278D01*
X89173119Y-108826021D01*
X89170297Y-108781170D01*
X89168118Y-108726328D01*
X89166514Y-108660097D01*
X89165419Y-108581077D01*
X89164765Y-108487871D01*
X89164484Y-108379079D01*
X89164509Y-108253303D01*
X89164772Y-108109145D01*
X89165206Y-107945207D01*
X89165745Y-107760089D01*
X89166279Y-107581232D01*
X89166805Y-107422374D01*
X89167350Y-107283316D01*
X89167945Y-107162665D01*
X89168619Y-107059028D01*
X89169403Y-106971011D01*
X89170326Y-106897223D01*
X89171419Y-106836269D01*
X89172712Y-106786757D01*
X89174235Y-106747293D01*
X89176019Y-106716484D01*
X89178092Y-106692938D01*
X89180486Y-106675260D01*
X89183230Y-106662059D01*
X89186356Y-106651940D01*
X89189892Y-106643511D01*
X89193791Y-106635375D01*
X89213438Y-106598544D01*
X89232225Y-106568391D01*
X89233272Y-106566908D01*
X89247602Y-106544659D01*
X89253511Y-106531702D01*
X89252504Y-106531249D01*
X89235305Y-106529803D01*
X89198656Y-106528480D01*
X89144962Y-106527316D01*
X89076630Y-106526347D01*
X88996064Y-106525611D01*
X88905670Y-106525142D01*
X88807853Y-106524978D01*
X88362195Y-106524978D01*
X88359120Y-107701845D01*
X88356045Y-108878711D01*
X88329407Y-108937622D01*
X88317485Y-108962183D01*
X88300246Y-108992434D01*
X88287074Y-109009560D01*
X88279076Y-109017591D01*
X88271378Y-109032493D01*
X87979942Y-109032493D01*
X87979474Y-108940029D01*
X87979050Y-108824617D01*
X87978706Y-108694160D01*
X87978434Y-108547716D01*
X87978227Y-108384344D01*
X87978076Y-108203101D01*
X87977972Y-108003048D01*
X87977908Y-107783241D01*
X87977876Y-107542739D01*
X87977867Y-107280602D01*
X87977867Y-105089031D01*
X88016249Y-105050649D01*
X88043355Y-105026911D01*
X88070253Y-105015111D01*
X88106560Y-105012267D01*
X88158489Y-105012267D01*
X88158489Y-105100206D01*
X88160427Y-105150102D01*
X88179199Y-105260523D01*
X88216217Y-105361987D01*
X88269369Y-105453152D01*
X88336546Y-105532673D01*
X88415638Y-105599205D01*
X88504534Y-105651406D01*
X88601125Y-105687930D01*
X88703300Y-105707434D01*
X88808950Y-105708573D01*
X88915964Y-105690005D01*
X89022232Y-105650384D01*
X89119219Y-105592516D01*
X89204293Y-105517684D01*
X89273015Y-105429615D01*
X89323918Y-105330616D01*
X89355535Y-105222993D01*
X89366400Y-105109054D01*
X89366400Y-105012267D01*
X90986753Y-105012267D01*
X91197897Y-105012280D01*
X91402020Y-105012330D01*
X91585686Y-105012430D01*
X91749991Y-105012592D01*
X91896029Y-105012829D01*
X92024894Y-105013153D01*
X92137683Y-105013575D01*
X92235488Y-105014109D01*
X92319404Y-105014767D01*
X92390527Y-105015561D01*
X92449950Y-105016504D01*
X92498768Y-105017608D01*
X92538077Y-105018884D01*
X92568969Y-105020347D01*
X92592541Y-105022007D01*
X92609886Y-105023878D01*
X92622099Y-105025972D01*
X92630275Y-105028300D01*
X92635508Y-105030876D01*
X92641504Y-105034445D01*
X92648279Y-105037978D01*
X92654478Y-105041488D01*
X92660126Y-105045918D01*
X92665247Y-105052208D01*
X92669869Y-105061301D01*
X92674015Y-105074139D01*
X92677713Y-105091662D01*
X92680987Y-105114813D01*
X92683863Y-105144534D01*
X92686367Y-105181765D01*
X92688524Y-105227449D01*
X92690360Y-105282527D01*
X92691900Y-105347941D01*
X92693170Y-105424633D01*
X92694195Y-105513544D01*
X92695001Y-105615617D01*
X92695034Y-105621867D01*
X92695614Y-105731792D01*
G37*
%LPC*%
D11*
X133130000Y-104800000D03*
X133130000Y-89800000D03*
D12*
X126400000Y-88420000D03*
X123860000Y-88420000D03*
X121320000Y-88420000D03*
X118780000Y-88420000D03*
X116240000Y-88420000D03*
X113700000Y-88420000D03*
X111160000Y-88420000D03*
X108620000Y-88420000D03*
X106080000Y-88420000D03*
X103540000Y-88420000D03*
X101000000Y-88420000D03*
X98460000Y-88420000D03*
X95920000Y-88420000D03*
X93380000Y-88420000D03*
X90840000Y-88420000D03*
X88300000Y-88420000D03*
D13*
X85760000Y-88420000D03*
D14*
X102110000Y-100170000D03*
X107110000Y-100170000D03*
X99824444Y-81970000D03*
D15*
X99824444Y-74350000D03*
D16*
X141870000Y-88990000D03*
D17*
X141870000Y-94070000D03*
D14*
X112310000Y-74350000D03*
D15*
X112310000Y-81970000D03*
D18*
X112704000Y-70310000D03*
D19*
X115244000Y-70310000D03*
X117784000Y-70310000D03*
D18*
X81512000Y-70440000D03*
D19*
X84052000Y-70440000D03*
X86592000Y-70440000D03*
D18*
X97108000Y-70310000D03*
D19*
X99648000Y-70310000D03*
X102188000Y-70310000D03*
D14*
X124505000Y-93910000D03*
D15*
X116885000Y-93910000D03*
D14*
X93544444Y-81970000D03*
D15*
X93544444Y-74350000D03*
D20*
X66056041Y-95990000D03*
D21*
X66056041Y-98530000D03*
X66056041Y-101070000D03*
D22*
X56730000Y-88260000D03*
X61810000Y-88260000D03*
D23*
X73637500Y-70575000D03*
D24*
X71137500Y-70575000D03*
D14*
X106080000Y-81970000D03*
D15*
X106080000Y-74350000D03*
D14*
X107210000Y-112090000D03*
D15*
X99590000Y-112090000D03*
D14*
X66140000Y-74430000D03*
D15*
X66140000Y-82050000D03*
D25*
X111380000Y-114960000D03*
D26*
X124380000Y-114960000D03*
D16*
X141900000Y-77040000D03*
D17*
X141900000Y-82120000D03*
D25*
X111380000Y-109626667D03*
D26*
X124380000Y-109626667D03*
D23*
X67480000Y-112100000D03*
D24*
X64980000Y-112100000D03*
D27*
X90914888Y-102690000D03*
D14*
X93414888Y-102690000D03*
X107520000Y-104200000D03*
D15*
X99900000Y-104200000D03*
D22*
X56650000Y-71180000D03*
X61730000Y-71180000D03*
D14*
X118840000Y-74350000D03*
D15*
X118840000Y-81970000D03*
D27*
X58606041Y-103025113D03*
D14*
X58606041Y-100525113D03*
D28*
X76286041Y-98950000D03*
D29*
X81286041Y-98950000D03*
D25*
X124480000Y-104233333D03*
D30*
X111480000Y-104233333D03*
D27*
X58606041Y-94344888D03*
D14*
X58606041Y-96844888D03*
X80950000Y-80530000D03*
X80950000Y-85530000D03*
D25*
X124480000Y-98900000D03*
D30*
X111480000Y-98900000D03*
D31*
X93250000Y-112030000D03*
X90710000Y-112030000D03*
X88170000Y-112030000D03*
D14*
X87264444Y-81970000D03*
D15*
X87264444Y-74350000D03*
D14*
X124430000Y-74350000D03*
D15*
X124430000Y-81970000D03*
D14*
X131450000Y-74350000D03*
D15*
X131450000Y-81970000D03*
D32*
X76460000Y-112690000D03*
D33*
X77730000Y-112690000D03*
X79000000Y-112690000D03*
D18*
X128300000Y-70310000D03*
D19*
X130840000Y-70310000D03*
X133380000Y-70310000D03*
D34*
X107120000Y-91820000D03*
X107120000Y-96820000D03*
%LPD*%
M02*
